999
dxfrw 0.6.3
  0
SECTION
  2
HEADER
  9
$ACADVER
  1
AC1021
  9
$DWGCODEPAGE
  3
ANSI_1252
  9
$INSBASE
 10
0
 20
0
 30
0
  9
$EXTMIN
 10
-71.37291030000003
 20
-54.54190142834715
 30
0
  9
$EXTMAX
 10
77.22515161897645
 20
52.0913987714697
 30
0
  9
$LIMMIN
 10
0
 20
0
  9
$LIMMAX
 10
420
 20
297
  9
$ORTHOMODE
 70
    0
  9
$REGENMODE
 70
    1
  9
$FILLMODE
 70
    1
  9
$QTEXTMODE
 70
    0
  9
$MIRRTEXT
 70
    0
  9
$LTSCALE
 40
1
  9
$ATTMODE
 70
    0
  9
$TEXTSIZE
 40
2.5
  9
$TRACEWID
 40
15.68
  9
$TEXTSTYLE
  7
STANDARD
  9
$CLAYER
  8
ajour
  9
$CELTYPE
  6
BYLAYER
  9
$CECOLOR
 62
  256
  9
$CELTSCALE
 40
1
  9
$DISPSILH
 70
    0
  9
$DIMSCALE
 40
2.5
  9
$DIMASZ
 40
2.5
  9
$DIMEXO
 40
0.625
  9
$DIMDLI
 40
3.75
  9
$DIMRND
 40
0
  9
$DIMDLE
 40
0
  9
$DIMEXE
 40
1.25
  9
$DIMTP
 40
0
  9
$DIMTM
 40
0
  9
$DIMTXT
 40
2.5
  9
$DIMCEN
 40
2.5
  9
$DIMTSZ
 40
0
  9
$DIMTOL
 70
    0
  9
$DIMLIM
 70
    0
  9
$DIMTIH
 70
    0
  9
$DIMTOH
 70
    0
  9
$DIMSE1
 70
    0
  9
$DIMSE2
 70
    0
  9
$DIMTAD
 70
    1
  9
$DIMZIN
 70
    8
  9
$DIMBLK
  1

  9
$DIMASO
 70
    1
  9
$DIMSHO
 70
    1
  9
$DIMPOST
  1

  9
$DIMAPOST
  1

  9
$DIMALT
 70
    0
  9
$DIMALTD
 70
    3
  9
$DIMALTF
 40
0.03937
  9
$DIMLFAC
 40
1
  9
$DIMTOFL
 70
    1
  9
$DIMTVP
 40
0
  9
$DIMTIX
 70
    0
  9
$DIMSOXD
 70
    0
  9
$DIMSAH
 70
    0
  9
$DIMBLK1
  1

  9
$DIMBLK2
  1

  9
$DIMSTYLE
  2
Standard
  9
$DIMCLRD
 70
    0
  9
$DIMCLRE
 70
    0
  9
$DIMCLRT
 70
    0
  9
$DIMTFAC
 40
1
  9
$DIMGAP
 40
0.625
  9
$DIMJUST
 70
    0
  9
$DIMSD1
 70
    0
  9
$DIMSD2
 70
    0
  9
$DIMTOLJ
 70
    0
  9
$DIMTZIN
 70
    8
  9
$DIMALTZ
 70
    0
  9
$DIMALTTZ
 70
    0
  9
$DIMUPT
 70
    0
  9
$DIMDEC
 70
    2
  9
$DIMTDEC
 70
    2
  9
$DIMALTU
 70
    2
  9
$DIMALTTD
 70
    3
  9
$DIMTXSTY
  7
STANDARD
  9
$DIMAUNIT
 70
    0
  9
$DIMADEC
 70
    0
  9
$DIMALTRND
 40
0
  9
$DIMAZIN
 70
    0
  9
$DIMDSEP
 70
   44
  9
$DIMATFIT
 70
    3
  9
$DIMFRAC
 70
    0
  9
$DIMLDRBLK
  1
STANDARD
  9
$DIMLUNIT
 70
    2
  9
$DIMLWD
 70
   -2
  9
$DIMLWE
 70
   -2
  9
$DIMTMOVE
 70
    0
  9
$DIMFXL
 40
1
  9
$DIMFXLON
 70
    0
  9
$DIMJOGANG
 40
0.7854
  9
$DIMTFILL
 70
    0
  9
$DIMTFILLCLR
 70
    0
  9
$DIMARCSYM
 70
    0
  9
$DIMLTYPE
  6

  9
$DIMLTEX1
  6

  9
$DIMLTEX2
  6

  9
$LUNITS
 70
    2
  9
$LUPREC
 70
    4
  9
$SKETCHINC
 40
1
  9
$FILLETRAD
 40
0
  9
$AUNITS
 70
    0
  9
$AUPREC
 70
    2
  9
$MENU
  1
.
  9
$ELEVATION
 40
0
  9
$PELEVATION
 40
0
  9
$THICKNESS
 40
0
  9
$LIMCHECK
 70
    0
  9
$CHAMFERA
 40
0
  9
$CHAMFERB
 40
0
  9
$CHAMFERC
 40
0
  9
$CHAMFERD
 40
0
  9
$SKPOLY
 70
    0
  9
$USRTIMER
 70
    1
  9
$ANGBASE
 50
0
  9
$ANGDIR
 70
    0
  9
$PDMODE
 70
   34
  9
$PDSIZE
 40
0
  9
$PLINEWID
 40
0
  9
$SPLFRAME
 70
    0
  9
$SPLINETYPE
 70
    2
  9
$SPLINESEGS
 70
    8
  9
$HANDSEED
  5
20000
  9
$SURFTAB1
 70
    6
  9
$SURFTAB2
 70
    6
  9
$SURFTYPE
 70
    6
  9
$SURFU
 70
    6
  9
$SURFV
 70
    6
  9
$UCSBASE
  2

  9
$UCSNAME
  2

  9
$UCSORG
 10
0
 20
0
 30
0
  9
$UCSXDIR
 10
1
 20
0
 30
0
  9
$UCSYDIR
 10
0
 20
1
 30
0
  9
$UCSORTHOREF
  2

  9
$UCSORTHOVIEW
 70
    0
  9
$UCSORGTOP
 10
0
 20
0
 30
0
  9
$UCSORGBOTTOM
 10
0
 20
0
 30
0
  9
$UCSORGLEFT
 10
0
 20
0
 30
0
  9
$UCSORGRIGHT
 10
0
 20
0
 30
0
  9
$UCSORGFRONT
 10
0
 20
0
 30
0
  9
$UCSORGBACK
 10
0
 20
0
 30
0
  9
$PUCSBASE
  2

  9
$PUCSNAME
  2

  9
$PUCSORG
 10
0
 20
0
 30
0
  9
$PUCSXDIR
 10
1
 20
0
 30
0
  9
$PUCSYDIR
 10
0
 20
1
 30
0
  9
$PUCSORTHOREF
  2

  9
$PUCSORTHOVIEW
 70
    0
  9
$PUCSORGTOP
 10
0
 20
0
 30
0
  9
$PUCSORGBOTTOM
 10
0
 20
0
 30
0
  9
$PUCSORGLEFT
 10
0
 20
0
 30
0
  9
$PUCSORGRIGHT
 10
0
 20
0
 30
0
  9
$PUCSORGFRONT
 10
0
 20
0
 30
0
  9
$PUCSORGBACK
 10
0
 20
0
 30
0
  9
$USERI1
 70
    0
  9
$USERI2
 70
    0
  9
$USERI3
 70
    0
  9
$USERI4
 70
    0
  9
$USERI5
 70
    0
  9
$USERR1
 40
0
  9
$USERR2
 40
0
  9
$USERR3
 40
0
  9
$USERR4
 40
0
  9
$USERR5
 40
0
  9
$WORLDVIEW
 70
    1
  9
$SHADEDGE
 70
    3
  9
$SHADEDIF
 70
   70
  9
$TILEMODE
 70
    1
  9
$MAXACTVP
 70
   64
  9
$PINSBASE
 10
0
 20
0
 30
0
  9
$PLIMCHECK
 70
    0
  9
$PEXTMIN
 10
0
 20
0
 30
0
  9
$PEXTMAX
 10
0
 20
0
 30
0
  9
$GRIDMODE
 70
    1
  9
$SNAPSTYLE
 70
    0
  9
$PLIMMIN
 10
0
 20
0
  9
$PLIMMAX
 10
210
 20
297
  9
$UNITMODE
 70
    0
  9
$VISRETAIN
 70
    1
  9
$PLINEGEN
 70
    0
  9
$PSLTSCALE
 70
    1
  9
$TREEDEPTH
 70
 3020
  9
$CMLSTYLE
  2
Standard
  9
$CMLJUST
 70
    0
  9
$CMLSCALE
 40
20
  9
$PROXYGRAPHICS
 70
    1
  9
$MEASUREMENT
 70
    1
  9
$CELWEIGHT
370
   -1
  9
$ENDCAPS
280
    0
  9
$JOINSTYLE
280
    0
  9
$LWDISPLAY
290
    0
  9
$INSUNITS
 70
    4
  9
$HYPERLINKBASE
  1

  9
$STYLESHEET
  1

  9
$XEDIT
290
    1
  9
$CEPSNTYPE
380
    0
  9
$PSTYLEMODE
290
    1
  9
$EXTNAMES
290
    1
  9
$PSVPSCALE
 40
1
  9
$OLESTARTUP
290
    0
  9
$SORTENTS
280
  127
  9
$INDEXCTL
280
    0
  9
$HIDETEXT
280
    1
  9
$XCLIPFRAME
290
    0
  9
$HALOGAP
280
    0
  9
$OBSCOLOR
 70
  257
  9
$OBSLTYPE
280
    0
  9
$INTERSECTIONDISPLAY
280
    0
  9
$INTERSECTIONCOLOR
 70
  257
  9
$DIMASSOC
280
    1
  9
$PROJECTNAME
  1

  9
$CAMERADISPLAY
290
    0
  9
$LENSLENGTH
 40
50
  9
$CAMERAHEIGHT
 40
0
  9
$STEPSPERSEC
 40
2
  9
$STEPSIZE
 40
50
  9
$3DDWFPREC
 40
2
  9
$PSOLWIDTH
 40
5
  9
$PSOLHEIGHT
 40
80
  9
$LOFTANG1
 40
1.570796326794897
  9
$LOFTANG2
 40
1.570796326794897
  9
$LOFTMAG1
 40
0
  9
$LOFTMAG2
 40
0
  9
$LOFTPARAM
 70
    7
  9
$LOFTNORMALS
280
    1
  9
$LATITUDE
 40
1
  9
$LONGITUDE
 40
1
  9
$NORTHDIRECTION
 40
0
  9
$TIMEZONE
 70
-8000
  9
$LIGHTGLYPHDISPLAY
280
    1
  9
$TILEMODELIGHTSYNCH
280
    1
  9
$SOLIDHIST
280
    1
  9
$SHOWHIST
280
    1
  9
$DWFFRAME
280
    2
  9
$DGNFRAME
280
    0
  9
$REALWORLDSCALE
290
    1
  9
$INTERFERECOLOR
 62
    1
  9
$CSHADOW
280
    0
  9
$SHADOWPLANELOCATION
 40
0
  0
ENDSEC
  0
SECTION
  2
CLASSES
  0
ENDSEC
  0
SECTION
  2
TABLES
  0
TABLE
  2
VPORT
  5
8
330
0
100
AcDbSymbolTable
 70
    1
  0
VPORT
  5
31
330
2
100
AcDbSymbolTableRecord
100
AcDbViewportTableRecord
  2
*ACTIVE
 70
    0
 10
0
 20
0
 11
1
 21
1
 12
47.11228288879376
 22
26.79468476887981
 13
0
 23
0
 14
10
 24
10
 15
10
 25
10
 16
0
 26
0
 36
1
 17
0
 27
0
 37
0
 40
109.3604945783288
 41
1.668329177057357
 42
50
 43
0
 44
0
 50
0
 51
0
 71
    0
 72
  100
 73
    1
 74
    3
 75
    0
 76
    1
 77
    0
 78
    0
281
    0
 65
    1
110
0
120
0
130
0
111
1
121
0
131
0
112
0
122
1
132
0
 79
    0
146
0
348
10020
 60
    7
 61
    5
292
1
282
    1
141
0
142
0
 63
  250
421
3358443
  0
ENDTAB
  0
TABLE
  2
LTYPE
  5
5
330
0
100
AcDbSymbolTable
 70
    4
  0
LTYPE
  5
14
330
5
100
AcDbSymbolTableRecord
100
AcDbLinetypeTableRecord
  2
ByBlock
 70
    0
  3

 72
   65
 73
    0
 40
0
  0
LTYPE
  5
15
330
5
100
AcDbSymbolTableRecord
100
AcDbLinetypeTableRecord
  2
ByLayer
 70
    0
  3

 72
   65
 73
    0
 40
0
  0
LTYPE
  5
16
330
5
100
AcDbSymbolTableRecord
100
AcDbLinetypeTableRecord
  2
Continuous
 70
    0
  3
Solid line
 72
   65
 73
    0
 40
0
  0
LTYPE
  5
32
330
5
100
AcDbSymbolTableRecord
100
AcDbLinetypeTableRecord
  2
DOT
 70
    0
  3
Dot . . . . . . . . . . . . . . . . . . . . . .
 72
   65
 73
    2
 40
6.35
 49
0
 74
    0
 49
-6.35
 74
    0
  0
LTYPE
  5
33
330
5
100
AcDbSymbolTableRecord
100
AcDbLinetypeTableRecord
  2
DOTTINY
 70
    0
  3
Dot (.15x) .....................................
 72
   65
 73
    2
 40
0.9525
 49
0
 74
    0
 49
-0.9525
 74
    0
  0
LTYPE
  5
34
330
5
100
AcDbSymbolTableRecord
100
AcDbLinetypeTableRecord
  2
DOT2
 70
    0
  3
Dot (.5x) .....................................
 72
   65
 73
    2
 40
3.175
 49
0
 74
    0
 49
-3.175
 74
    0
  0
LTYPE
  5
35
330
5
100
AcDbSymbolTableRecord
100
AcDbLinetypeTableRecord
  2
DOTX2
 70
    0
  3
Dot (2x) .  .  .  .  .  .  .  .  .  .  .  .  .
 72
   65
 73
    2
 40
12.7
 49
0
 74
    0
 49
-12.7
 74
    0
  0
LTYPE
  5
36
330
5
100
AcDbSymbolTableRecord
100
AcDbLinetypeTableRecord
  2
DASHED
 70
    0
  3
Dashed _ _ _ _ _ _ _ _ _ _ _ _ _ _ _ _ _
 72
   65
 73
    2
 40
19.05
 49
12.7
 74
    0
 49
-6.35
 74
    0
  0
LTYPE
  5
37
330
5
100
AcDbSymbolTableRecord
100
AcDbLinetypeTableRecord
  2
DASHEDTINY
 70
    0
  3
Dashed (.15x) _ _ _ _ _ _ _ _ _ _ _ _ _ _ _ _ _
 72
   65
 73
    2
 40
2.8575
 49
1.905
 74
    0
 49
-0.9525
 74
    0
  0
LTYPE
  5
38
330
5
100
AcDbSymbolTableRecord
100
AcDbLinetypeTableRecord
  2
DASHED2
 70
    0
  3
Dashed (.5x) _ _ _ _ _ _ _ _ _ _ _ _ _ _ _ _ _
 72
   65
 73
    2
 40
9.524999999999999
 49
6.35
 74
    0
 49
-3.175
 74
    0
  0
LTYPE
  5
39
330
5
100
AcDbSymbolTableRecord
100
AcDbLinetypeTableRecord
  2
DASHEDX2
 70
    0
  3
Dashed (2x) ____  ____  ____  ____  ____  ___
 72
   65
 73
    2
 40
38.09999999999999
 49
25.4
 74
    0
 49
-12.7
 74
    0
  0
LTYPE
  5
3A
330
5
100
AcDbSymbolTableRecord
100
AcDbLinetypeTableRecord
  2
DASHDOT
 70
    0
  3
Dash dot __ . __ . __ . __ . __ . __ . __ . __
 72
   65
 73
    4
 40
25.4
 49
12.7
 74
    0
 49
-6.35
 74
    0
 49
0
 74
    0
 49
-6.35
 74
    0
  0
LTYPE
  5
3B
330
5
100
AcDbSymbolTableRecord
100
AcDbLinetypeTableRecord
  2
DASHDOTTINY
 70
    0
  3
Dash dot (.15x) _._._._._._._._._._._._._._._.
 72
   65
 73
    4
 40
3.81
 49
1.905
 74
    0
 49
-0.9525
 74
    0
 49
0
 74
    0
 49
-0.9525
 74
    0
  0
LTYPE
  5
3C
330
5
100
AcDbSymbolTableRecord
100
AcDbLinetypeTableRecord
  2
DASHDOT2
 70
    0
  3
Dash dot (.5x) _._._._._._._._._._._._._._._.
 72
   65
 73
    4
 40
12.7
 49
6.35
 74
    0
 49
-3.175
 74
    0
 49
0
 74
    0
 49
-3.175
 74
    0
  0
LTYPE
  5
3D
330
5
100
AcDbSymbolTableRecord
100
AcDbLinetypeTableRecord
  2
DASHDOTX2
 70
    0
  3
Dash dot (2x) ____  .  ____  .  ____  .  ___
 72
   65
 73
    4
 40
50.8
 49
25.4
 74
    0
 49
-12.7
 74
    0
 49
0
 74
    0
 49
-12.7
 74
    0
  0
LTYPE
  5
3E
330
5
100
AcDbSymbolTableRecord
100
AcDbLinetypeTableRecord
  2
DIVIDE
 70
    0
  3
Divide ____ . . ____ . . ____ . . ____ . . ____
 72
   65
 73
    6
 40
31.75
 49
12.7
 74
    0
 49
-6.35
 74
    0
 49
0
 74
    0
 49
-6.35
 74
    0
 49
0
 74
    0
 49
-6.35
 74
    0
  0
LTYPE
  5
3F
330
5
100
AcDbSymbolTableRecord
100
AcDbLinetypeTableRecord
  2
DIVIDETINY
 70
    0
  3
Divide (.15x) __..__..__..__..__..__..__..__.._
 72
   65
 73
    6
 40
4.7625
 49
1.905
 74
    0
 49
-0.9525
 74
    0
 49
0
 74
    0
 49
-0.9525
 74
    0
 49
0
 74
    0
 49
-0.9525
 74
    0
  0
LTYPE
  5
40
330
5
100
AcDbSymbolTableRecord
100
AcDbLinetypeTableRecord
  2
DIVIDE2
 70
    0
  3
Divide (.5x) __..__..__..__..__..__..__..__.._
 72
   65
 73
    6
 40
15.875
 49
6.35
 74
    0
 49
-3.175
 74
    0
 49
0
 74
    0
 49
-3.175
 74
    0
 49
0
 74
    0
 49
-3.175
 74
    0
  0
LTYPE
  5
41
330
5
100
AcDbSymbolTableRecord
100
AcDbLinetypeTableRecord
  2
DIVIDEX2
 70
    0
  3
Divide (2x) ________  .  .  ________  .  .  _
 72
   65
 73
    6
 40
63.5
 49
25.4
 74
    0
 49
-12.7
 74
    0
 49
0
 74
    0
 49
-12.7
 74
    0
 49
0
 74
    0
 49
-12.7
 74
    0
  0
LTYPE
  5
42
330
5
100
AcDbSymbolTableRecord
100
AcDbLinetypeTableRecord
  2
BORDER
 70
    0
  3
Border __ __ . __ __ . __ __ . __ __ . __ __ .
 72
   65
 73
    6
 40
44.45
 49
12.7
 74
    0
 49
-6.35
 74
    0
 49
12.7
 74
    0
 49
-6.35
 74
    0
 49
0
 74
    0
 49
-6.35
 74
    0
  0
LTYPE
  5
43
330
5
100
AcDbSymbolTableRecord
100
AcDbLinetypeTableRecord
  2
BORDERTINY
 70
    0
  3
Border (.15x) __.__.__.__.__.__.__.__.__.__.__.
 72
   65
 73
    6
 40
6.6675
 49
1.905
 74
    0
 49
-0.9525
 74
    0
 49
1.905
 74
    0
 49
-0.9525
 74
    0
 49
0
 74
    0
 49
-0.9525
 74
    0
  0
LTYPE
  5
44
330
5
100
AcDbSymbolTableRecord
100
AcDbLinetypeTableRecord
  2
BORDER2
 70
    0
  3
Border (.5x) __.__.__.__.__.__.__.__.__.__.__.
 72
   65
 73
    6
 40
22.225
 49
6.35
 74
    0
 49
-3.175
 74
    0
 49
6.35
 74
    0
 49
-3.175
 74
    0
 49
0
 74
    0
 49
-3.175
 74
    0
  0
LTYPE
  5
45
330
5
100
AcDbSymbolTableRecord
100
AcDbLinetypeTableRecord
  2
BORDERX2
 70
    0
  3
Border (2x) ____  ____  .  ____  ____  .  ___
 72
   65
 73
    6
 40
88.89999999999999
 49
25.4
 74
    0
 49
-12.7
 74
    0
 49
25.4
 74
    0
 49
-12.7
 74
    0
 49
0
 74
    0
 49
-12.7
 74
    0
  0
LTYPE
  5
46
330
5
100
AcDbSymbolTableRecord
100
AcDbLinetypeTableRecord
  2
CENTER
 70
    0
  3
Center ____ _ ____ _ ____ _ ____ _ ____ _ ____
 72
   65
 73
    4
 40
50.8
 49
31.75
 74
    0
 49
-6.35
 74
    0
 49
6.35
 74
    0
 49
-6.35
 74
    0
  0
LTYPE
  5
47
330
5
100
AcDbSymbolTableRecord
100
AcDbLinetypeTableRecord
  2
CENTERTINY
 70
    0
  3
Center (.15x) ___ _ ___ _ ___ _ ___ _ ___ _ ___
 72
   65
 73
    4
 40
7.619999999999999
 49
4.7625
 74
    0
 49
-0.9525
 74
    0
 49
0.9525
 74
    0
 49
-0.9525
 74
    0
  0
LTYPE
  5
48
330
5
100
AcDbSymbolTableRecord
100
AcDbLinetypeTableRecord
  2
CENTER2
 70
    0
  3
Center (.5x) ___ _ ___ _ ___ _ ___ _ ___ _ ___
 72
   65
 73
    4
 40
28.575
 49
19.05
 74
    0
 49
-3.175
 74
    0
 49
3.175
 74
    0
 49
-3.175
 74
    0
  0
LTYPE
  5
49
330
5
100
AcDbSymbolTableRecord
100
AcDbLinetypeTableRecord
  2
CENTERX2
 70
    0
  3
Center (2x) ________  __  ________  __  _____
 72
   65
 73
    4
 40
101.6
 49
63.5
 74
    0
 49
-12.7
 74
    0
 49
12.7
 74
    0
 49
-12.7
 74
    0
  0
ENDTAB
  0
TABLE
  2
LAYER
  5
2
330
0
100
AcDbSymbolTable
 70
    1
  0
LAYER
  5
10
330
2
100
AcDbSymbolTableRecord
100
AcDbLayerTableRecord
  2
0
 70
    4
 62
    7
  6
CONTINUOUS
370
    0
390
F
  0
LAYER
  5
4A
330
2
100
AcDbSymbolTableRecord
100
AcDbLayerTableRecord
  2
ajour
 70
    0
 62
   96
420
32768
  6
CONTINUOUS
370
    0
390
F
  0
LAYER
  5
4B
330
2
100
AcDbSymbolTableRecord
100
AcDbLayerTableRecord
  2
ext1
 70
    4
 62
    6
  6
CONTINUOUS
370
    0
390
F
  0
LAYER
  5
4C
330
2
100
AcDbSymbolTableRecord
100
AcDbLayerTableRecord
  2
ext2
 70
    4
 62
  216
420
8388736
  6
CONTINUOUS
370
    0
390
F
  0
LAYER
  5
4D
330
2
100
AcDbSymbolTableRecord
100
AcDbLayerTableRecord
  2
ext3
 70
    4
 62
  216
420
8388736
  6
CONTINUOUS
370
    0
390
F
  0
LAYER
  5
4E
330
2
100
AcDbSymbolTableRecord
100
AcDbLayerTableRecord
  2
keycaps
 70
    4
 62
   16
420
8388608
  6
CONTINUOUS
370
    0
390
F
  0
LAYER
  5
4F
330
2
100
AcDbSymbolTableRecord
100
AcDbLayerTableRecord
  2
pcb
 70
    4
 62
    2
  6
CONTINUOUS
370
    0
390
F
  0
LAYER
  5
50
330
2
100
AcDbSymbolTableRecord
100
AcDbLayerTableRecord
  2
percage
 70
    4
 62
    4
  6
CONTINUOUS
370
    0
390
F
  0
LAYER
  5
51
330
2
100
AcDbSymbolTableRecord
100
AcDbLayerTableRecord
  2
placement
 70
    4
 62
    1
  6
CONTINUOUS
370
    0
390
F
  0
LAYER
  5
52
330
2
100
AcDbSymbolTableRecord
100
AcDbLayerTableRecord
  2
rpi
 70
    4
 62
    3
  6
CONTINUOUS
370
    0
390
F
  0
ENDTAB
  0
TABLE
  2
STYLE
  5
3
330
0
100
AcDbSymbolTable
 70
    3
  0
STYLE
  5
53
330
2
100
AcDbSymbolTableRecord
100
AcDbTextStyleTableRecord
  2
Standard
 70
    0
 40
0
 41
1
 50
0
 71
    0
 42
1
  3
txt
  4

  0
ENDTAB
  0
TABLE
  2
VIEW
  5
6
330
0
100
AcDbSymbolTable
 70
    0
  0
ENDTAB
  0
TABLE
  2
UCS
  5
7
330
0
100
AcDbSymbolTable
 70
    0
  0
ENDTAB
  0
TABLE
  2
APPID
  5
9
330
0
100
AcDbSymbolTable
 70
    1
  0
APPID
  5
12
330
9
100
AcDbSymbolTableRecord
100
AcDbRegAppTableRecord
  2
ACAD
 70
    0
  0
APPID
  5
54
330
9
100
AcDbSymbolTableRecord
100
AcDbRegAppTableRecord
  2
LibreCad
 70
    0
  0
ENDTAB
  0
TABLE
  2
DIMSTYLE
  5
A
330
0
100
AcDbSymbolTable
 70
    1
100
AcDbDimStyleTable
 71
    1
  0
DIMSTYLE
105
55
330
A
100
AcDbSymbolTableRecord
100
AcDbDimStyleTableRecord
  2
Standard
 70
    0
 40
2.5
 41
2.5
 42
0.625
 43
0.38
 44
1.25
 45
0
 46
0
 47
0
 48
0
 49
1
140
2.5
141
0.09
142
0
143
25.4
144
1
145
0
146
1
147
0.625
148
0
 71
    0
 72
    0
 73
    0
 74
    1
 75
    0
 76
    0
 77
    0
 78
    8
 79
    0
170
    0
171
    2
172
    0
173
    0
174
    0
175
    0
176
    0
177
    0
178
    0
179
    0
271
    2
272
    4
273
    2
274
    2
275
    0
276
    0
277
    2
278
   44
279
    0
280
    0
281
    0
282
    0
283
    1
284
    0
285
    0
286
    0
288
    0
289
    3
340
STANDARD
341

371
   -2
372
   -2
  0
ENDTAB
  0
TABLE
  2
BLOCK_RECORD
  5
1
330
0
100
AcDbSymbolTable
 70
    2
  0
BLOCK_RECORD
  5
1F
330
1
100
AcDbSymbolTableRecord
100
AcDbBlockTableRecord
  2
*Model_Space
 70
    0
280
    1
281
    0
  0
BLOCK_RECORD
  5
1E
330
1
100
AcDbSymbolTableRecord
100
AcDbBlockTableRecord
  2
*Paper_Space
 70
    0
280
    1
281
    0
  0
ENDTAB
  0
ENDSEC
  0
SECTION
  2
BLOCKS
  0
BLOCK
  5
20
330
1F
100
AcDbEntity
  8
0
100
AcDbBlockBegin
  2
*Model_Space
 70
    0
 10
0
 20
0
 30
0
  3
*Model_Space
  1

  0
ENDBLK
  5
21
330
1F
100
AcDbEntity
  8
0
100
AcDbBlockEnd
  0
BLOCK
  5
1C
330
1B
100
AcDbEntity
  8
0
100
AcDbBlockBegin
  2
*Paper_Space
 70
    0
 10
0
 20
0
 30
0
  3
*Paper_Space
  1

  0
ENDBLK
  5
1D
330
1F
100
AcDbEntity
  8
0
100
AcDbBlockEnd
  0
ENDSEC
  0
SECTION
  2
ENTITIES
  0
LINE
  5
56
100
AcDbEntity
  8
0
  6
ByLayer
 62
  256
370
   -1
100
AcDbLine
 10
-4.872910300000015
 20
42.56339024999999
 11
9.127089699999985
 21
42.56339024999999
  0
LINE
  5
57
100
AcDbEntity
  8
0
  6
ByLayer
 62
  256
370
   -1
100
AcDbLine
 10
-4.872910300000015
 20
28.56339024999999
 11
9.127089699999985
 21
28.56339024999999
  0
LINE
  5
58
100
AcDbEntity
  8
0
  6
ByLayer
 62
  256
370
   -1
100
AcDbLine
 10
-4.872910300000015
 20
42.56339024999999
 11
-4.872910300000015
 21
28.56339024999999
  0
LINE
  5
59
100
AcDbEntity
  8
0
  6
ByLayer
 62
  256
370
   -1
100
AcDbLine
 10
9.127089699999985
 20
42.56339024999999
 11
9.127089699999985
 21
28.56339024999999
  0
LINE
  5
5A
100
AcDbEntity
  8
0
  6
ByLayer
 62
  256
370
   -1
100
AcDbLine
 10
-23.87291030000002
 20
40.18851524999999
 11
-9.872910300000015
 21
40.18851524999999
  0
LINE
  5
5B
100
AcDbEntity
  8
0
  6
ByLayer
 62
  256
370
   -1
100
AcDbLine
 10
-23.87291030000002
 20
26.18851524999999
 11
-9.872910300000015
 21
26.18851524999999
  0
LINE
  5
5C
100
AcDbEntity
  8
0
  6
ByLayer
 62
  256
370
   -1
100
AcDbLine
 10
-23.87291030000002
 20
40.18851524999999
 11
-23.87291030000002
 21
26.18851524999999
  0
LINE
  5
5D
100
AcDbEntity
  8
0
  6
ByLayer
 62
  256
370
   -1
100
AcDbLine
 10
-9.872910300000015
 20
40.18851524999999
 11
-9.872910300000015
 21
26.18851524999999
  0
LINE
  5
5E
100
AcDbEntity
  8
0
  6
ByLayer
 62
  256
370
   -1
100
AcDbLine
 10
14.12708969999998
 20
40.18851524999999
 11
28.12708969999998
 21
40.18851524999999
  0
LINE
  5
5F
100
AcDbEntity
  8
0
  6
ByLayer
 62
  256
370
   -1
100
AcDbLine
 10
14.12708969999998
 20
26.18851524999999
 11
28.12708969999998
 21
26.18851524999999
  0
LINE
  5
60
100
AcDbEntity
  8
0
  6
ByLayer
 62
  256
370
   -1
100
AcDbLine
 10
14.12708969999998
 20
40.18851524999999
 11
14.12708969999998
 21
26.18851524999999
  0
LINE
  5
61
100
AcDbEntity
  8
0
  6
ByLayer
 62
  256
370
   -1
100
AcDbLine
 10
28.12708969999998
 20
40.18851524999999
 11
28.12708969999998
 21
26.18851524999999
  0
LINE
  5
62
100
AcDbEntity
  8
0
  6
ByLayer
 62
  256
370
   -1
100
AcDbLine
 10
33.12708969999998
 20
37.81364024999999
 11
47.12708969999998
 21
37.81364024999999
  0
LINE
  5
63
100
AcDbEntity
  8
0
  6
ByLayer
 62
  256
370
   -1
100
AcDbLine
 10
33.12708969999998
 20
23.81364024999999
 11
47.12708969999998
 21
23.81364024999999
  0
LINE
  5
64
100
AcDbEntity
  8
0
  6
ByLayer
 62
  256
370
   -1
100
AcDbLine
 10
33.12708969999998
 20
37.81364024999999
 11
33.12708969999998
 21
23.81364024999999
  0
LINE
  5
65
100
AcDbEntity
  8
0
  6
ByLayer
 62
  256
370
   -1
100
AcDbLine
 10
47.12708969999998
 20
37.81364024999999
 11
47.12708969999998
 21
23.81364024999999
  0
LINE
  5
66
100
AcDbEntity
  8
0
  6
ByLayer
 62
  256
370
   -1
100
AcDbLine
 10
-61.87291030000002
 20
35.43876524999999
 11
-47.87291030000002
 21
35.43876524999999
  0
LINE
  5
67
100
AcDbEntity
  8
0
  6
ByLayer
 62
  256
370
   -1
100
AcDbLine
 10
-61.87291030000002
 20
21.43876524999999
 11
-47.87291030000002
 21
21.43876524999999
  0
LINE
  5
68
100
AcDbEntity
  8
0
  6
ByLayer
 62
  256
370
   -1
100
AcDbLine
 10
-61.87291030000002
 20
35.43876524999999
 11
-61.87291030000002
 21
21.43876524999999
  0
LINE
  5
69
100
AcDbEntity
  8
0
  6
ByLayer
 62
  256
370
   -1
100
AcDbLine
 10
-47.87291030000002
 20
35.43876524999999
 11
-47.87291030000002
 21
21.43876524999999
  0
LINE
  5
6A
100
AcDbEntity
  8
0
  6
ByLayer
 62
  256
370
   -1
100
AcDbLine
 10
-42.87291030000002
 20
35.43876524999999
 11
-28.87291030000002
 21
35.43876524999999
  0
LINE
  5
6B
100
AcDbEntity
  8
0
  6
ByLayer
 62
  256
370
   -1
100
AcDbLine
 10
-42.87291030000002
 20
21.43876524999999
 11
-28.87291030000002
 21
21.43876524999999
  0
LINE
  5
6C
100
AcDbEntity
  8
0
  6
ByLayer
 62
  256
370
   -1
100
AcDbLine
 10
-42.87291030000002
 20
35.43876524999999
 11
-42.87291030000002
 21
21.43876524999999
  0
LINE
  5
6D
100
AcDbEntity
  8
0
  6
ByLayer
 62
  256
370
   -1
100
AcDbLine
 10
-28.87291030000002
 20
35.43876524999999
 11
-28.87291030000002
 21
21.43876524999999
  0
LINE
  5
6E
100
AcDbEntity
  8
0
  6
ByLayer
 62
  256
370
   -1
100
AcDbLine
 10
-4.872910300000015
 20
23.56439024999999
 11
9.127089699999985
 21
23.56439024999999
  0
LINE
  5
6F
100
AcDbEntity
  8
0
  6
ByLayer
 62
  256
370
   -1
100
AcDbLine
 10
-4.872910300000015
 20
9.564390249999988
 11
9.127089699999985
 21
9.564390249999988
  0
LINE
  5
70
100
AcDbEntity
  8
0
  6
ByLayer
 62
  256
370
   -1
100
AcDbLine
 10
-4.872910300000015
 20
23.56439024999999
 11
-4.872910300000015
 21
9.564390249999988
  0
LINE
  5
71
100
AcDbEntity
  8
0
  6
ByLayer
 62
  256
370
   -1
100
AcDbLine
 10
9.127089699999985
 20
23.56439024999999
 11
9.127089699999985
 21
9.564390249999988
  0
LINE
  5
72
100
AcDbEntity
  8
0
  6
ByLayer
 62
  256
370
   -1
100
AcDbLine
 10
-23.87291030000002
 20
21.18951524999999
 11
-9.872910300000015
 21
21.18951524999999
  0
LINE
  5
73
100
AcDbEntity
  8
0
  6
ByLayer
 62
  256
370
   -1
100
AcDbLine
 10
-23.87291030000002
 20
7.189515249999992
 11
-9.872910300000015
 21
7.189515249999992
  0
LINE
  5
74
100
AcDbEntity
  8
0
  6
ByLayer
 62
  256
370
   -1
100
AcDbLine
 10
-23.87291030000002
 20
21.18951524999999
 11
-23.87291030000002
 21
7.189515249999992
  0
LINE
  5
75
100
AcDbEntity
  8
0
  6
ByLayer
 62
  256
370
   -1
100
AcDbLine
 10
-9.872910300000015
 20
21.18951524999999
 11
-9.872910300000015
 21
7.189515249999992
  0
LINE
  5
76
100
AcDbEntity
  8
0
  6
ByLayer
 62
  256
370
   -1
100
AcDbLine
 10
14.12708969999998
 20
21.18951524999999
 11
28.12708969999998
 21
21.18951524999999
  0
LINE
  5
77
100
AcDbEntity
  8
0
  6
ByLayer
 62
  256
370
   -1
100
AcDbLine
 10
14.12708969999998
 20
7.189515249999992
 11
28.12708969999998
 21
7.189515249999992
  0
LINE
  5
78
100
AcDbEntity
  8
0
  6
ByLayer
 62
  256
370
   -1
100
AcDbLine
 10
14.12708969999998
 20
21.18951524999999
 11
14.12708969999998
 21
7.189515249999992
  0
LINE
  5
79
100
AcDbEntity
  8
0
  6
ByLayer
 62
  256
370
   -1
100
AcDbLine
 10
28.12708969999998
 20
21.18951524999999
 11
28.12708969999998
 21
7.189515249999992
  0
LINE
  5
7A
100
AcDbEntity
  8
0
  6
ByLayer
 62
  256
370
   -1
100
AcDbLine
 10
33.12708969999998
 20
18.81464024999999
 11
47.12708969999998
 21
18.81464024999999
  0
LINE
  5
7B
100
AcDbEntity
  8
0
  6
ByLayer
 62
  256
370
   -1
100
AcDbLine
 10
33.12708969999998
 20
4.814640249999989
 11
47.12708969999998
 21
4.814640249999989
  0
LINE
  5
7C
100
AcDbEntity
  8
0
  6
ByLayer
 62
  256
370
   -1
100
AcDbLine
 10
33.12708969999998
 20
18.81464024999999
 11
33.12708969999998
 21
4.814640249999989
  0
LINE
  5
7D
100
AcDbEntity
  8
0
  6
ByLayer
 62
  256
370
   -1
100
AcDbLine
 10
47.12708969999998
 20
18.81464024999999
 11
47.12708969999998
 21
4.814640249999989
  0
LINE
  5
7E
100
AcDbEntity
  8
0
  6
ByLayer
 62
  256
370
   -1
100
AcDbLine
 10
-61.87291030000002
 20
16.43976524999999
 11
-47.87291030000002
 21
16.43976524999999
  0
LINE
  5
7F
100
AcDbEntity
  8
0
  6
ByLayer
 62
  256
370
   -1
100
AcDbLine
 10
-61.87291030000002
 20
2.439765249999994
 11
-47.87291030000002
 21
2.439765249999994
  0
LINE
  5
80
100
AcDbEntity
  8
0
  6
ByLayer
 62
  256
370
   -1
100
AcDbLine
 10
-61.87291030000002
 20
16.43976524999999
 11
-61.87291030000002
 21
2.439765249999994
  0
LINE
  5
81
100
AcDbEntity
  8
0
  6
ByLayer
 62
  256
370
   -1
100
AcDbLine
 10
-47.87291030000002
 20
16.43976524999999
 11
-47.87291030000002
 21
2.439765249999994
  0
LINE
  5
82
100
AcDbEntity
  8
0
  6
ByLayer
 62
  256
370
   -1
100
AcDbLine
 10
-42.87291030000002
 20
16.43976524999999
 11
-28.87291030000002
 21
16.43976524999999
  0
LINE
  5
83
100
AcDbEntity
  8
0
  6
ByLayer
 62
  256
370
   -1
100
AcDbLine
 10
-42.87291030000002
 20
2.439765249999994
 11
-28.87291030000002
 21
2.439765249999994
  0
LINE
  5
84
100
AcDbEntity
  8
0
  6
ByLayer
 62
  256
370
   -1
100
AcDbLine
 10
-42.87291030000002
 20
16.43976524999999
 11
-42.87291030000002
 21
2.439765249999994
  0
LINE
  5
85
100
AcDbEntity
  8
0
  6
ByLayer
 62
  256
370
   -1
100
AcDbLine
 10
-28.87291030000002
 20
16.43976524999999
 11
-28.87291030000002
 21
2.439765249999994
  0
LINE
  5
86
100
AcDbEntity
  8
0
  6
ByLayer
 62
  256
370
   -1
100
AcDbLine
 10
-4.872910300000015
 20
4.565390249999993
 11
9.127089699999985
 21
4.565390249999993
  0
LINE
  5
87
100
AcDbEntity
  8
0
  6
ByLayer
 62
  256
370
   -1
100
AcDbLine
 10
-4.872910300000015
 20
-9.434609750000007
 11
9.127089699999985
 21
-9.434609750000007
  0
LINE
  5
88
100
AcDbEntity
  8
0
  6
ByLayer
 62
  256
370
   -1
100
AcDbLine
 10
-4.872910300000015
 20
4.565390249999993
 11
-4.872910300000015
 21
-9.434609750000007
  0
LINE
  5
89
100
AcDbEntity
  8
0
  6
ByLayer
 62
  256
370
   -1
100
AcDbLine
 10
9.127089699999985
 20
4.565390249999993
 11
9.127089699999985
 21
-9.434609750000007
  0
LINE
  5
8A
100
AcDbEntity
  8
0
  6
ByLayer
 62
  256
370
   -1
100
AcDbLine
 10
14.12708969999998
 20
2.19051524999999
 11
28.12708969999998
 21
2.19051524999999
  0
LINE
  5
8B
100
AcDbEntity
  8
0
  6
ByLayer
 62
  256
370
   -1
100
AcDbLine
 10
14.12708969999998
 20
-11.80948475000001
 11
28.12708969999998
 21
-11.80948475000001
  0
LINE
  5
8C
100
AcDbEntity
  8
0
  6
ByLayer
 62
  256
370
   -1
100
AcDbLine
 10
14.12708969999998
 20
2.19051524999999
 11
14.12708969999998
 21
-11.80948475000001
  0
LINE
  5
8D
100
AcDbEntity
  8
0
  6
ByLayer
 62
  256
370
   -1
100
AcDbLine
 10
28.12708969999998
 20
2.19051524999999
 11
28.12708969999998
 21
-11.80948475000001
  0
LINE
  5
8E
100
AcDbEntity
  8
0
  6
ByLayer
 62
  256
370
   -1
100
AcDbLine
 10
-23.87291030000002
 20
2.188615349999992
 11
-9.872910300000015
 21
2.188615349999992
  0
LINE
  5
8F
100
AcDbEntity
  8
0
  6
ByLayer
 62
  256
370
   -1
100
AcDbLine
 10
-23.87291030000002
 20
-11.81138465000001
 11
-9.872910300000015
 21
-11.81138465000001
  0
LINE
  5
90
100
AcDbEntity
  8
0
  6
ByLayer
 62
  256
370
   -1
100
AcDbLine
 10
-23.87291030000002
 20
2.188615349999992
 11
-23.87291030000002
 21
-11.81138465000001
  0
LINE
  5
91
100
AcDbEntity
  8
0
  6
ByLayer
 62
  256
370
   -1
100
AcDbLine
 10
-9.872910300000015
 20
2.188615349999992
 11
-9.872910300000015
 21
-11.81138465000001
  0
LINE
  5
92
100
AcDbEntity
  8
0
  6
ByLayer
 62
  256
370
   -1
100
AcDbLine
 10
33.12708969999998
 20
-0.1843597500000129
 11
47.12708969999998
 21
-0.1843597500000129
  0
LINE
  5
93
100
AcDbEntity
  8
0
  6
ByLayer
 62
  256
370
   -1
100
AcDbLine
 10
33.12708969999998
 20
-14.18435975000001
 11
47.12708969999998
 21
-14.18435975000001
  0
LINE
  5
94
100
AcDbEntity
  8
0
  6
ByLayer
 62
  256
370
   -1
100
AcDbLine
 10
33.12708969999998
 20
-0.1843597500000129
 11
33.12708969999998
 21
-14.18435975000001
  0
LINE
  5
95
100
AcDbEntity
  8
0
  6
ByLayer
 62
  256
370
   -1
100
AcDbLine
 10
47.12708969999998
 20
-0.1843597500000129
 11
47.12708969999998
 21
-14.18435975000001
  0
LINE
  5
96
100
AcDbEntity
  8
0
  6
ByLayer
 62
  256
370
   -1
100
AcDbLine
 10
-61.87291030000002
 20
-2.559234750000016
 11
-47.87291030000002
 21
-2.559234750000016
  0
LINE
  5
97
100
AcDbEntity
  8
0
  6
ByLayer
 62
  256
370
   -1
100
AcDbLine
 10
-61.87291030000002
 20
-16.55923475000002
 11
-47.87291030000002
 21
-16.55923475000002
  0
LINE
  5
98
100
AcDbEntity
  8
0
  6
ByLayer
 62
  256
370
   -1
100
AcDbLine
 10
-61.87291030000002
 20
-2.559234750000016
 11
-61.87291030000002
 21
-16.55923475000002
  0
LINE
  5
99
100
AcDbEntity
  8
0
  6
ByLayer
 62
  256
370
   -1
100
AcDbLine
 10
-47.87291030000002
 20
-2.559234750000016
 11
-47.87291030000002
 21
-16.55923475000002
  0
LINE
  5
9A
100
AcDbEntity
  8
0
  6
ByLayer
 62
  256
370
   -1
100
AcDbLine
 10
-42.87291030000002
 20
-2.559234750000016
 11
-28.87291030000002
 21
-2.559234750000016
  0
LINE
  5
9B
100
AcDbEntity
  8
0
  6
ByLayer
 62
  256
370
   -1
100
AcDbLine
 10
-42.87291030000002
 20
-16.55923475000002
 11
-28.87291030000002
 21
-16.55923475000002
  0
LINE
  5
9C
100
AcDbEntity
  8
0
  6
ByLayer
 62
  256
370
   -1
100
AcDbLine
 10
-42.87291030000002
 20
-2.559234750000016
 11
-42.87291030000002
 21
-16.55923475000002
  0
LINE
  5
9D
100
AcDbEntity
  8
0
  6
ByLayer
 62
  256
370
   -1
100
AcDbLine
 10
-28.87291030000002
 20
-2.559234750000016
 11
-28.87291030000002
 21
-16.55923475000002
  0
LINE
  5
9E
100
AcDbEntity
  8
0
  6
ByLayer
 62
  256
370
   -1
100
AcDbLine
 10
4.627089699999985
 20
-17.47344975000001
 11
18.62708969999998
 21
-17.47344975000001
  0
LINE
  5
9F
100
AcDbEntity
  8
0
  6
ByLayer
 62
  256
370
   -1
100
AcDbLine
 10
4.627089699999985
 20
-31.47344975000001
 11
18.62708969999998
 21
-31.47344975000001
  0
LINE
  5
A0
100
AcDbEntity
  8
0
  6
ByLayer
 62
  256
370
   -1
100
AcDbLine
 10
4.627089699999985
 20
-17.47344975000001
 11
4.627089699999985
 21
-31.47344975000001
  0
LINE
  5
A1
100
AcDbEntity
  8
0
  6
ByLayer
 62
  256
370
   -1
100
AcDbLine
 10
18.62708969999998
 20
-17.47344975000001
 11
18.62708969999998
 21
-31.47344975000001
  0
LINE
  5
A2
100
AcDbEntity
  8
0
  6
ByLayer
 62
  256
370
   -1
100
AcDbLine
 10
-59.49791030000002
 20
-22.22319975000001
 11
-45.49791030000002
 21
-22.22319975000001
  0
LINE
  5
A3
100
AcDbEntity
  8
0
  6
ByLayer
 62
  256
370
   -1
100
AcDbLine
 10
-59.49791030000002
 20
-36.22319975000001
 11
-45.49791030000002
 21
-36.22319975000001
  0
LINE
  5
A4
100
AcDbEntity
  8
0
  6
ByLayer
 62
  256
370
   -1
100
AcDbLine
 10
-59.49791030000002
 20
-22.22319975000001
 11
-59.49791030000002
 21
-36.22319975000001
  0
LINE
  5
A5
100
AcDbEntity
  8
0
  6
ByLayer
 62
  256
370
   -1
100
AcDbLine
 10
-45.49791030000002
 20
-22.22319975000001
 11
-45.49791030000002
 21
-36.22319975000001
  0
LINE
  5
A6
100
AcDbEntity
  8
0
  6
ByLayer
 62
  256
370
   -1
100
AcDbLine
 10
-35.74791030000002
 20
-22.22319975000001
 11
-21.74791030000002
 21
-22.22319975000001
  0
LINE
  5
A7
100
AcDbEntity
  8
0
  6
ByLayer
 62
  256
370
   -1
100
AcDbLine
 10
-35.74791030000002
 20
-36.22319975000001
 11
-21.74791030000002
 21
-36.22319975000001
  0
LINE
  5
A8
100
AcDbEntity
  8
0
  6
ByLayer
 62
  256
370
   -1
100
AcDbLine
 10
-35.74791030000002
 20
-22.22319975000001
 11
-35.74791030000002
 21
-36.22319975000001
  0
LINE
  5
A9
100
AcDbEntity
  8
0
  6
ByLayer
 62
  256
370
   -1
100
AcDbLine
 10
-21.74791030000002
 20
-22.22319975000001
 11
-21.74791030000002
 21
-36.22319975000001
  0
LINE
  5
AA
100
AcDbEntity
  8
0
  6
ByLayer
 62
  256
370
   -1
100
AcDbLine
 10
27.76324289999998
 20
-18.67610105000001
 11
41.28620449999998
 21
-22.29956765000001
  0
LINE
  5
AB
100
AcDbEntity
  8
0
  6
ByLayer
 62
  256
370
   -1
100
AcDbLine
 10
24.13977629999998
 20
-32.19906265000002
 11
37.66273789999998
 21
-35.82252925000002
  0
LINE
  5
AC
100
AcDbEntity
  8
0
  6
ByLayer
 62
  256
370
   -1
100
AcDbLine
 10
27.76324289999998
 20
-18.67610105000001
 11
24.13977629999998
 21
-32.19906265000002
  0
LINE
  5
AD
100
AcDbEntity
  8
0
  6
ByLayer
 62
  256
370
   -1
100
AcDbLine
 10
41.28620449999998
 20
-22.29956765000001
 11
37.66273789999998
 21
-35.82252925000002
  0
LINE
  5
AE
100
AcDbEntity
  8
0
  6
ByLayer
 62
  256
370
   -1
100
AcDbLine
 10
64.43508809999999
 20
-28.25146245000001
 11
57.43508809999999
 21
-40.37581805000001
  0
LINE
  5
AF
100
AcDbEntity
  8
0
  6
ByLayer
 62
  256
370
   -1
100
AcDbLine
 10
52.31073249999999
 20
-21.25146245000001
 11
45.31073249999999
 21
-33.37581805000001
  0
LINE
  5
B0
100
AcDbEntity
  8
0
  6
ByLayer
 62
  256
370
   -1
100
AcDbLine
 10
64.43508809999999
 20
-28.25146245000001
 11
52.31073249999999
 21
-21.25146245000001
  0
LINE
  5
B1
100
AcDbEntity
  8
0
  6
ByLayer
 62
  256
370
   -1
100
AcDbLine
 10
57.43508809999999
 20
-40.37581805000001
 11
45.31073249999999
 21
-33.37581805000001
  0
LINE
  5
B2
100
AcDbEntity
  8
keycaps
  6
ByLayer
 62
  256
370
   -1
100
AcDbLine
 10
70.22515161897645
 20
-23.2227782835189
 11
53.77066900478482
 21
-13.72277827532535
  0
LINE
  5
B3
100
AcDbEntity
  8
keycaps
  6
ByLayer
 62
  256
370
   -1
100
AcDbLine
 10
70.22515161897645
 20
-23.2227782835189
 11
55.97515159521517
 21
-47.90450222467466
  0
LINE
  5
B4
100
AcDbEntity
  8
keycaps
  6
ByLayer
 62
  256
370
   -1
100
AcDbLine
 10
53.77066900478482
 20
-13.72277827532535
 11
39.52066898102352
 21
-38.40450221648111
  0
LINE
  5
B5
100
AcDbEntity
  8
keycaps
  6
ByLayer
 62
  256
370
   -1
100
AcDbLine
 10
55.97515159521517
 20
-47.90450222467466
 11
39.52066898102352
 21
-38.40450221648111
  0
LINE
  5
B6
100
AcDbEntity
  8
keycaps
  6
ByLayer
 62
  256
370
   -1
100
AcDbLine
 10
44.34806667360065
 20
-20.53180068858417
 11
39.43050486141583
 21
-38.88439142360068
  0
LINE
  5
B7
100
AcDbEntity
  8
keycaps
  6
ByLayer
 62
  256
370
   -1
100
AcDbLine
 10
21.07791412639931
 20
-33.96682961141586
 11
39.43050486141583
 21
-38.88439142360068
  0
LINE
  5
B8
100
AcDbEntity
  8
keycaps
  6
ByLayer
 62
  256
370
   -1
100
AcDbLine
 10
25.99547593858414
 20
-15.61423887639935
 11
44.34806667360065
 21
-20.53180068858417
  0
LINE
  5
B9
100
AcDbEntity
  8
keycaps
  6
ByLayer
 62
  256
370
   -1
100
AcDbLine
 10
25.99547593858414
 20
-15.61423887639935
 11
21.07791412639931
 21
-33.96682961141586
  0
LINE
  5
BA
100
AcDbEntity
  8
keycaps
  6
ByLayer
 62
  256
370
   -1
100
AcDbLine
 10
21.12708969999998
 20
-14.97344975000001
 11
21.12708969999998
 21
-33.97344975000001
  0
LINE
  5
BB
100
AcDbEntity
  8
keycaps
  6
ByLayer
 62
  256
370
   -1
100
AcDbLine
 10
2.127089699999985
 20
-14.97344975000001
 11
21.12708969999998
 21
-14.97344975000001
  0
LINE
  5
BC
100
AcDbEntity
  8
keycaps
  6
ByLayer
 62
  256
370
   -1
100
AcDbLine
 10
2.127089699999985
 20
-33.97344975000001
 11
21.12708969999998
 21
-33.97344975000001
  0
LINE
  5
BD
100
AcDbEntity
  8
keycaps
  6
ByLayer
 62
  256
370
   -1
100
AcDbLine
 10
2.127089699999985
 20
-14.97344975000001
 11
2.127089699999985
 21
-33.97344975000001
  0
LINE
  5
BE
100
AcDbEntity
  8
keycaps
  6
ByLayer
 62
  256
370
   -1
100
AcDbLine
 10
-64.37291030000002
 20
-38.72319975000001
 11
-16.87291030000002
 21
-38.72319975000001
  0
LINE
  5
BF
100
AcDbEntity
  8
keycaps
  6
ByLayer
 62
  256
370
   -1
100
AcDbLine
 10
-64.37291030000002
 20
37.93876525
 11
-26.37291030000002
 21
37.93876524999998
  0
LINE
  5
C0
100
AcDbEntity
  8
keycaps
  6
ByLayer
 62
  256
370
   -1
100
AcDbLine
 10
-26.37291030000002
 20
42.68851524999999
 11
-7.372910300000015
 21
42.68851525
  0
LINE
  5
C1
100
AcDbEntity
  8
keycaps
  6
ByLayer
 62
  256
370
   -1
100
AcDbLine
 10
-7.372910300000015
 20
45.06339024999999
 11
-7.372910300000015
 21
26.18851524999999
  0
LINE
  5
C2
100
AcDbEntity
  8
keycaps
  6
ByLayer
 62
  256
370
   -1
100
AcDbLine
 10
-7.372910300000015
 20
45.06339024999999
 11
11.62708969999998
 21
45.06339024999999
  0
LINE
  5
C3
100
AcDbEntity
  8
keycaps
  6
ByLayer
 62
  256
370
   -1
100
AcDbLine
 10
11.62708969999998
 20
42.68851524999999
 11
30.62708969999998
 21
42.68851524999999
  0
LINE
  5
C4
100
AcDbEntity
  8
keycaps
  6
ByLayer
 62
  256
370
   -1
100
AcDbLine
 10
30.62708969999998
 20
40.31364024999999
 11
49.62708969999998
 21
40.31364024999999
  0
LINE
  5
C5
100
AcDbEntity
  8
keycaps
  6
ByLayer
 62
  256
370
   -1
100
AcDbLine
 10
30.62708969999998
 20
42.68851524999999
 11
30.62708969999998
 21
26.18851524999999
  0
LINE
  5
C6
100
AcDbEntity
  8
keycaps
  6
ByLayer
 62
  256
370
   -1
100
AcDbLine
 10
11.62708969999998
 20
45.06339024999999
 11
11.62708969999998
 21
28.56339024999999
  0
LINE
  5
C7
100
AcDbEntity
  8
keycaps
  6
ByLayer
 62
  256
370
   -1
100
AcDbLine
 10
33.12708969999998
 20
-16.68435975000001
 11
49.62708969999998
 21
-16.68435975000001
  0
LINE
  5
C8
100
AcDbEntity
  8
keycaps
  6
ByLayer
 62
  256
370
   -1
100
AcDbLine
 10
49.62708969999998
 20
40.31364024999999
 11
49.62708969999998
 21
-16.68435975000001
  0
LINE
  5
C9
100
AcDbEntity
  8
keycaps
  6
ByLayer
 62
  256
370
   -1
100
AcDbLine
 10
-16.87291030000002
 20
-19.72319975000001
 11
-16.87291030000002
 21
-38.72319975000001
  0
LINE
  5
CA
100
AcDbEntity
  8
keycaps
  6
ByLayer
 62
  256
370
   -1
100
AcDbLine
 10
-35.74791030000002
 20
-19.72319975000001
 11
-16.87291030000002
 21
-19.72319975000001
  0
ARC
  5
CB
100
AcDbEntity
  8
pcb
  6
ByLayer
 62
  256
370
   -1
100
AcDbCircle
 10
66.22515161897645
 20
34.20786609774183
 40
5
100
AcDbArc
 50
0
 51
82.87535479814858
  0
ARC
  5
CC
100
AcDbEntity
  8
pcb
  6
ByLayer
 62
  256
370
   -1
100
AcDbCircle
 10
-62.37291030000002
 20
-36.72319975000001
 40
3
100
AcDbArc
 50
180
 51
270
  0
LINE
  5
CD
100
AcDbEntity
  8
pcb
  6
ByLayer
 62
  256
370
   -1
100
AcDbLine
 10
-65.37291030000002
 20
-36.72319975000001
 11
-65.37291030000002
 21
36.17318928702431
  0
ARC
  5
CE
100
AcDbEntity
  8
pcb
  6
ByLayer
 62
  256
370
   -1
100
AcDbCircle
 10
-62.37291030000002
 20
36.17318928702431
 40
3
100
AcDbArc
 50
97.12464520185139
 51
180
  0
LINE
  5
CF
100
AcDbEntity
  8
pcb
  6
ByLayer
 62
  256
370
   -1
100
AcDbLine
 10
-62.74499522061139
 20
39.15002532749642
 11
-16.4771563305688
 21
44.93320079507482
  0
LINE
  5
D0
100
AcDbEntity
  8
pcb
  6
ByLayer
 62
  256
370
   -1
100
AcDbLine
 10
20.73133573056896
 20
44.93320079507481
 11
66.84529315332875
 21
39.16925949852867
  0
ARC
  5
D1
100
AcDbEntity
  8
pcb
  6
ByLayer
 62
  256
370
   -1
100
AcDbCircle
 10
2.127089700000056
 20
-103.9086012285303
 40
150
100
AcDbArc
 50
82.87535479814861
 51
97.12464520185138
  0
ARC
  5
D2
100
AcDbEntity
  8
pcb
  6
ByLayer
 62
  256
370
   -1
100
AcDbCircle
 10
55.02979872764178
 20
-45.54190142834715
 40
3
100
AcDbArc
 50
239.9999998915838
 51
329.9999998915839
  0
LINE
  5
D3
100
AcDbEntity
  8
pcb
  6
ByLayer
 62
  256
370
   -1
100
AcDbLine
 10
71.22515161897645
 20
-20.81123554251246
 11
71.22515161897645
 21
34.20786609774183
  0
LINE
  5
D4
100
AcDbEntity
  8
pcb
  6
ByLayer
 62
  256
370
   -1
100
AcDbLine
 10
69.88540564735975
 20
-25.81123555889956
 11
57.62787493615676
 21
-47.04190143326328
  0
ARC
  5
D5
100
AcDbEntity
  8
pcb
  6
ByLayer
 62
  256
370
   -1
100
AcDbCircle
 10
61.22515161897645
 20
-20.81123554251246
 40
10
100
AcDbArc
 50
329.9999998915839
 51
0
  0
ARC
  5
D6
100
AcDbEntity
  8
pcb
  6
ByLayer
 62
  256
370
   -1
100
AcDbCircle
 10
14.339300180485
 20
-134.97344975
 40
100
100
AcDbArc
 50
90
 51
103.9252095940902
  0
LINE
  5
D7
100
AcDbEntity
  8
pcb
  6
ByLayer
 62
  256
370
   -1
100
AcDbLine
 10
14.339300180485
 20
-34.97344975000001
 11
14.38834351485326
 21
-34.97344975000001
  0
ARC
  5
D8
100
AcDbEntity
  8
pcb
  6
ByLayer
 62
  256
370
   -1
100
AcDbCircle
 10
14.38834351485326
 20
-84.97344975000003
 40
50
100
AcDbArc
 50
75.0000001581127
 51
90
  0
LINE
  5
D9
100
AcDbEntity
  8
pcb
  6
ByLayer
 62
  256
370
   -1
100
AcDbLine
 10
27.32929563670147
 20
-36.67715839983493
 11
32.81335832424165
 21
-38.14660855198267
  0
LINE
  5
DA
100
AcDbEntity
  8
pcb
  6
ByLayer
 62
  256
370
   -1
100
AcDbLine
 10
53.52979872272564
 20
-48.13997763686214
 11
44.87240628432893
 21
-43.14162976023133
  0
ARC
  5
DB
100
AcDbEntity
  8
pcb
  6
ByLayer
 62
  256
370
   -1
100
AcDbCircle
 10
19.87240620239345
 20
-86.44289990214779
 40
50
100
AcDbArc
 50
59.99999989158383
 51
75.00000015811271
  0
LINE
  5
DC
100
AcDbEntity
  8
pcb
  6
ByLayer
 62
  256
370
   -1
100
AcDbLine
 10
-11.10295964212091
 20
-38.25373422915211
 11
-9.726212335796809
 21
-37.91238079169581
  0
LINE
  5
DD
100
AcDbEntity
  8
pcb
  6
ByLayer
 62
  256
370
   -1
100
AcDbLine
 10
-23.13571590026181
 20
-39.72319975000001
 11
-62.37291030000002
 21
-39.72319975000001
  0
ARC
  5
DE
100
AcDbEntity
  8
pcb
  6
ByLayer
 62
  256
370
   -1
100
AcDbCircle
 10
-23.13571590026181
 20
10.27680024999999
 40
50
100
AcDbArc
 50
270
 51
283.9252095940902
  0
LINE
  5
DF
100
AcDbEntity
  8
rpi
  6
ByLayer
 62
  256
370
   -1
100
AcDbLine
 10
69.42612065948822
 20
37.04893329341539
 11
51.42612065948823
 21
37.04893329341539
  0
LINE
  5
E0
100
AcDbEntity
  8
rpi
  6
ByLayer
 62
  256
370
   -1
100
AcDbLine
 10
69.42612065948822
 20
37.04893329341539
 11
69.42612065948822
 21
12.04893329341539
  0
LINE
  5
E1
100
AcDbEntity
  8
rpi
  6
ByLayer
 62
  256
370
   -1
100
AcDbLine
 10
51.42612065948823
 20
37.04893329341539
 11
51.42612065948823
 21
12.04893329341539
  0
LINE
  5
E2
100
AcDbEntity
  8
rpi
  6
ByLayer
 62
  256
370
   -1
100
AcDbLine
 10
69.42612065948822
 20
12.04893329341539
 11
51.42612065948823
 21
12.04893329341539
  0
LINE
  5
E3
100
AcDbEntity
  8
placement
  6
ByLayer
 62
  256
370
   -1
100
AcDbLine
 10
-61.87291030000002
 20
35.43876524999999
 11
-47.87291030000002
 21
21.43876524999999
  0
LINE
  5
E4
100
AcDbEntity
  8
placement
  6
ByLayer
 62
  256
370
   -1
100
AcDbLine
 10
-61.87291030000002
 20
16.43976524999999
 11
-47.87291030000002
 21
2.439765249999994
  0
LINE
  5
E5
100
AcDbEntity
  8
placement
  6
ByLayer
 62
  256
370
   -1
100
AcDbLine
 10
-61.87291030000002
 20
-2.559234750000016
 11
-47.87291030000002
 21
-16.55923475000002
  0
LINE
  5
E6
100
AcDbEntity
  8
placement
  6
ByLayer
 62
  256
370
   -1
100
AcDbLine
 10
-59.49791030000002
 20
-22.22319975000001
 11
-45.49791030000002
 21
-36.22319975000001
  0
LINE
  5
E7
100
AcDbEntity
  8
placement
  6
ByLayer
 62
  256
370
   -1
100
AcDbLine
 10
-35.74791030000002
 20
-22.22319975000001
 11
-21.74791030000002
 21
-36.22319975000001
  0
LINE
  5
E8
100
AcDbEntity
  8
placement
  6
ByLayer
 62
  256
370
   -1
100
AcDbLine
 10
-42.87291030000002
 20
-2.559234750000016
 11
-28.87291030000002
 21
-16.55923475000002
  0
LINE
  5
E9
100
AcDbEntity
  8
placement
  6
ByLayer
 62
  256
370
   -1
100
AcDbLine
 10
-42.87291030000002
 20
16.43976524999999
 11
-28.87291030000002
 21
2.439765249999994
  0
LINE
  5
EA
100
AcDbEntity
  8
placement
  6
ByLayer
 62
  256
370
   -1
100
AcDbLine
 10
-42.87291030000002
 20
35.43876524999999
 11
-28.87291030000002
 21
21.43876524999999
  0
LINE
  5
EB
100
AcDbEntity
  8
placement
  6
ByLayer
 62
  256
370
   -1
100
AcDbLine
 10
-23.87291030000001
 20
40.18851524999999
 11
-9.872910300000012
 21
26.18851524999999
  0
LINE
  5
EC
100
AcDbEntity
  8
placement
  6
ByLayer
 62
  256
370
   -1
100
AcDbLine
 10
-4.872910300000015
 20
42.56339024999999
 11
9.127089699999985
 21
28.56339024999999
  0
LINE
  5
ED
100
AcDbEntity
  8
placement
  6
ByLayer
 62
  256
370
   -1
100
AcDbLine
 10
14.12708969999999
 20
40.18851524999999
 11
28.12708969999998
 21
26.18851524999999
  0
LINE
  5
EE
100
AcDbEntity
  8
placement
  6
ByLayer
 62
  256
370
   -1
100
AcDbLine
 10
33.12708969999998
 20
37.81364024999999
 11
47.12708969999998
 21
23.81364024999999
  0
LINE
  5
EF
100
AcDbEntity
  8
placement
  6
ByLayer
 62
  256
370
   -1
100
AcDbLine
 10
33.12708969999998
 20
18.81464024999999
 11
47.12708969999998
 21
4.814640249999989
  0
LINE
  5
F0
100
AcDbEntity
  8
placement
  6
ByLayer
 62
  256
370
   -1
100
AcDbLine
 10
14.12708969999998
 20
21.18951524999999
 11
28.12708969999998
 21
7.189515249999992
  0
LINE
  5
F1
100
AcDbEntity
  8
placement
  6
ByLayer
 62
  256
370
   -1
100
AcDbLine
 10
-4.872910300000015
 20
23.56439024999999
 11
9.127089699999985
 21
9.564390249999988
  0
LINE
  5
F2
100
AcDbEntity
  8
placement
  6
ByLayer
 62
  256
370
   -1
100
AcDbLine
 10
-23.87291030000002
 20
21.18951524999999
 11
-9.872910300000015
 21
7.189515249999992
  0
LINE
  5
F3
100
AcDbEntity
  8
placement
  6
ByLayer
 62
  256
370
   -1
100
AcDbLine
 10
-23.87291030000002
 20
2.188615349999992
 11
-9.872910300000015
 21
-11.81138465000001
  0
LINE
  5
F4
100
AcDbEntity
  8
placement
  6
ByLayer
 62
  256
370
   -1
100
AcDbLine
 10
-4.872910300000015
 20
4.565390249999993
 11
9.127089699999985
 21
-9.434609750000007
  0
LINE
  5
F5
100
AcDbEntity
  8
placement
  6
ByLayer
 62
  256
370
   -1
100
AcDbLine
 10
14.12708969999998
 20
2.19051524999999
 11
28.12708969999998
 21
-11.80948475000001
  0
LINE
  5
F6
100
AcDbEntity
  8
placement
  6
ByLayer
 62
  256
370
   -1
100
AcDbLine
 10
33.12708969999998
 20
-0.1843597500000129
 11
47.12708969999998
 21
-14.18435975000001
  0
LINE
  5
F7
100
AcDbEntity
  8
placement
  6
ByLayer
 62
  256
370
   -1
100
AcDbLine
 10
4.627089699999985
 20
-17.47344975000001
 11
18.62708969999998
 21
-31.47344975000001
  0
LINE
  5
F8
100
AcDbEntity
  8
placement
  6
ByLayer
 62
  256
370
   -1
100
AcDbLine
 10
27.76324289999998
 20
-18.67610105000001
 11
37.66273789999998
 21
-35.82252925000002
  0
LINE
  5
F9
100
AcDbEntity
  8
placement
  6
ByLayer
 62
  256
370
   -1
100
AcDbLine
 10
52.31073249999999
 20
-21.25146245000001
 11
57.43508809999999
 21
-40.37581805000001
  0
LINE
  5
FA
100
AcDbEntity
  8
placement
  6
ByLayer
 62
  256
370
   -1
100
AcDbLine
 10
51.42612065948823
 20
37.04893329341539
 11
69.42612065948822
 21
12.04893329341539
  0
CIRCLE
  5
FB
100
AcDbEntity
  8
percage
  6
ByLayer
 62
  256
370
   -1
100
AcDbCircle
 10
-45.37291030000002
 20
18.93926524999999
 40
1.1
  0
CIRCLE
  5
FC
100
AcDbEntity
  8
percage
  6
ByLayer
 62
  256
370
   -1
100
AcDbCircle
 10
-7.372910300000015
 20
-26.84832475000001
 40
1.1
  0
LWPOLYLINE
  5
FD
100
AcDbEntity
  8
percage
  6
ByLayer
 62
  256
370
   -1
100
AcDbPolyline
 90
    8
 70
    1
 43
0
 10
14.62708969999999
 20
26.18851524999999
 10
27.62708969999998
 20
26.18851524999999
 42
-0.414213562373095
 10
28.12708969999998
 20
25.68851524999999
 10
28.12708969999998
 20
21.68951524999999
 42
-0.414213562373095
 10
27.62708969999998
 20
21.18951524999999
 10
14.62708969999999
 20
21.18951524999999
 42
-0.414213562373095
 10
14.12708969999999
 20
21.68951524999999
 10
14.12708969999999
 20
25.68851524999999
 42
-0.414213562373095
  0
CIRCLE
  5
FE
100
AcDbEntity
  8
percage
  6
ByLayer
 62
  256
370
   -1
100
AcDbCircle
 10
21.12708969999998
 20
23.68901524999999
 40
1.1
  0
ARC
  5
FF
100
AcDbEntity
  8
percage
  6
ByLayer
 62
  256
370
   -1
100
AcDbCircle
 10
63.92612065948823
 20
17.54893329341539
 40
0.5
100
AcDbArc
 50
270
 51
0
  0
LINE
  5
100
100
AcDbEntity
  8
percage
  6
ByLayer
 62
  256
370
   -1
100
AcDbLine
 10
63.92612065948823
 20
17.04893329341539
 11
56.92612065948823
 21
17.04893329341539
  0
ARC
  5
101
100
AcDbEntity
  8
percage
  6
ByLayer
 62
  256
370
   -1
100
AcDbCircle
 10
56.92612065948823
 20
17.54893329341539
 40
0.5
100
AcDbArc
 50
180
 51
270
  0
LINE
  5
102
100
AcDbEntity
  8
percage
  6
ByLayer
 62
  256
370
   -1
100
AcDbLine
 10
56.42612065948823
 20
31.54893329341539
 11
56.42612065948823
 21
17.54893329341539
  0
ARC
  5
103
100
AcDbEntity
  8
percage
  6
ByLayer
 62
  256
370
   -1
100
AcDbCircle
 10
56.92612065948823
 20
31.54893329341539
 40
0.5
100
AcDbArc
 50
90
 51
180
  0
LINE
  5
104
100
AcDbEntity
  8
percage
  6
ByLayer
 62
  256
370
   -1
100
AcDbLine
 10
63.92612065948822
 20
32.04893329341539
 11
56.92612065948823
 21
32.04893329341539
  0
LINE
  5
105
100
AcDbEntity
  8
percage
  6
ByLayer
 62
  256
370
   -1
100
AcDbLine
 10
64.42612065948822
 20
31.54893329341539
 11
64.42612065948822
 21
17.54893329341539
  0
ARC
  5
106
100
AcDbEntity
  8
percage
  6
ByLayer
 62
  256
370
   -1
100
AcDbCircle
 10
63.92612065948822
 20
31.54893329341539
 40
0.5
100
AcDbArc
 50
0
 51
90
  0
ARC
  5
107
100
AcDbEntity
  8
percage
  6
ByLayer
 62
  256
370
   -1
100
AcDbCircle
 10
52.99374520223853
 20
-21.0684497494002
 40
0.5
100
AcDbArc
 50
149.9999998915839
 51
239.9999998915839
  0
LINE
  5
108
100
AcDbEntity
  8
percage
  6
ByLayer
 62
  256
370
   -1
100
AcDbLine
 10
52.56073250081936
 20
-20.81844974858084
 11
55.56073251065162
 21
-15.62229733155087
  0
ARC
  5
109
100
AcDbEntity
  8
percage
  6
ByLayer
 62
  256
370
   -1
100
AcDbCircle
 10
55.99374521207078
 20
-15.87229733237022
 40
0.5
100
AcDbArc
 50
59.99999989158388
 51
149.9999998915839
  0
ARC
  5
10A
100
AcDbEntity
  8
percage
  6
ByLayer
 62
  256
370
   -1
100
AcDbCircle
 10
55.02979872764178
 20
-45.54190142834715
 40
2
100
AcDbArc
 50
239.9999998915838
 51
329.9999998915839
  0
LINE
  5
10B
100
AcDbEntity
  8
percage
  6
ByLayer
 62
  256
370
   -1
100
AcDbLine
 10
54.02979872436435
 20
-47.27395223402381
 11
45.37240628596764
 21
-42.275604357393
  0
ARC
  5
10C
100
AcDbEntity
  8
percage
  6
ByLayer
 62
  256
370
   -1
100
AcDbCircle
 10
19.87240620239345
 20
-86.44289990214779
 40
51
100
AcDbArc
 50
59.99999989158383
 51
75.00000015811271
  0
LINE
  5
10D
100
AcDbEntity
  8
percage
  6
ByLayer
 62
  256
370
   -1
100
AcDbLine
 10
27.58811467913844
 20
-35.71123257283163
 11
33.07217736667862
 21
-37.18068272497937
  0
ARC
  5
10E
100
AcDbEntity
  8
percage
  6
ByLayer
 62
  256
370
   -1
100
AcDbCircle
 10
14.38834351485326
 20
-84.97344975000003
 40
51
100
AcDbArc
 50
75.0000001581127
 51
90
  0
LINE
  5
10F
100
AcDbEntity
  8
percage
  6
ByLayer
 62
  256
370
   -1
100
AcDbLine
 10
-23.13571590026181
 20
-38.72319975000001
 11
-62.37291030000002
 21
-38.72319975000001
  0
ARC
  5
110
100
AcDbEntity
  8
percage
  6
ByLayer
 62
  256
370
   -1
100
AcDbCircle
 10
-62.37291030000002
 20
-36.72319975000001
 40
2
100
AcDbArc
 50
180
 51
270
  0
ARC
  5
111
100
AcDbEntity
  8
percage
  6
ByLayer
 62
  256
370
   -1
100
AcDbCircle
 10
-62.37291030000002
 20
36.17318928702431
 40
2
100
AcDbArc
 50
97.12464520185139
 51
180
  0
LINE
  5
112
100
AcDbEntity
  8
percage
  6
ByLayer
 62
  256
370
   -1
100
AcDbLine
 10
-62.62096691374094
 20
38.15774664733905
 11
-16.35312802369834
 21
43.94092211491745
  0
ARC
  5
113
100
AcDbEntity
  8
percage
  6
ByLayer
 62
  256
370
   -1
100
AcDbCircle
 10
2.127089700000056
 20
-103.9086012285303
 40
149
100
AcDbArc
 50
82.87535479814861
 51
97.12464520185138
  0
LINE
  5
114
100
AcDbEntity
  8
percage
  6
ByLayer
 62
  256
370
   -1
100
AcDbLine
 10
20.6073074236985
 20
43.94092211491744
 11
66.7212648464583
 21
38.1769808183713
  0
ARC
  5
115
100
AcDbEntity
  8
percage
  6
ByLayer
 62
  256
370
   -1
100
AcDbCircle
 10
66.22515161897645
 20
34.20786609774183
 40
4
100
AcDbArc
 50
0
 51
82.87535479814858
  0
LINE
  5
116
100
AcDbEntity
  8
percage
  6
ByLayer
 62
  256
370
   -1
100
AcDbLine
 10
56.24374521289014
 20
-15.43928463095106
 11
65.72515161406032
 21
-20.91337719288411
  0
LINE
  5
117
100
AcDbEntity
  8
percage
  6
ByLayer
 62
  256
370
   -1
100
AcDbLine
 10
70.22515161897645
 20
-18.31530098436912
 11
70.22515161897645
 21
34.20786609774183
  0
ARC
  5
118
100
AcDbEntity
  8
percage
  6
ByLayer
 62
  256
370
   -1
100
AcDbCircle
 10
67.22515161897645
 20
-18.31530098436912
 40
3
100
AcDbArc
 50
239.9999998915838
 51
0
  0
LINE
  5
119
100
AcDbEntity
  8
percage
  6
ByLayer
 62
  256
370
   -1
100
AcDbLine
 10
52.74374520141917
 20
-21.50146245081936
 11
64.00207539858081
 21
-28.00146244918064
  0
LINE
  5
11A
100
AcDbEntity
  8
percage
  6
ByLayer
 62
  256
370
   -1
100
AcDbLine
 10
65.10015160217968
 20
-32.09953866261176
 11
56.76184953331843
 21
-46.54190143162457
  0
ARC
  5
11B
100
AcDbEntity
  8
percage
  6
ByLayer
 62
  256
370
   -1
100
AcDbCircle
 10
62.50207539366469
 20
-30.59953865769562
 40
3
100
AcDbArc
 50
329.9999998915839
 51
59.99999989158388
  0
ARC
  5
11C
100
AcDbEntity
  8
percage
  6
ByLayer
 62
  256
370
   -1
100
AcDbCircle
 10
-32.87291030000002
 20
20.93876524999999
 40
0.5
100
AcDbArc
 50
0
 51
90
  0
LINE
  5
11D
100
AcDbEntity
  8
percage
  6
ByLayer
 62
  256
370
   -1
100
AcDbLine
 10
-32.37291030000002
 20
16.93976524999999
 11
-32.37291030000002
 21
20.93876524999999
  0
ARC
  5
11E
100
AcDbEntity
  8
percage
  6
ByLayer
 62
  256
370
   -1
100
AcDbCircle
 10
-32.87291030000002
 20
16.93976524999999
 40
0.5
100
AcDbArc
 50
269.9999999999992
 51
0
  0
LINE
  5
11F
100
AcDbEntity
  8
percage
  6
ByLayer
 62
  256
370
   -1
100
AcDbLine
 10
-62.37291030000002
 20
16.43976524999999
 11
-32.87291030000003
 21
16.43976524999999
  0
LINE
  5
120
100
AcDbEntity
  8
percage
  6
ByLayer
 62
  256
370
   -1
100
AcDbLine
 10
-64.37291030000002
 20
-36.72319975000001
 11
-64.37291030000002
 21
14.43976524999998
  0
ARC
  5
121
100
AcDbEntity
  8
percage
  6
ByLayer
 62
  256
370
   -1
100
AcDbCircle
 10
-62.37291030000002
 20
14.43976524999999
 40
2
100
AcDbArc
 50
90
 51
180.0000000000003
  0
LINE
  5
122
100
AcDbEntity
  8
percage
  6
ByLayer
 62
  256
370
   -1
100
AcDbLine
 10
-32.87291030000002
 20
21.43876524999999
 11
-62.3729103
 21
21.43876524999999
  0
LINE
  5
123
100
AcDbEntity
  8
percage
  6
ByLayer
 62
  256
370
   -1
100
AcDbLine
 10
-64.37291030000002
 20
23.43876524999999
 11
-64.37291030000002
 21
36.17318928702431
  0
ARC
  5
124
100
AcDbEntity
  8
percage
  6
ByLayer
 62
  256
370
   -1
100
AcDbCircle
 10
-62.37291030000001
 20
23.43876524999999
 40
2
100
AcDbArc
 50
180
 51
270.0000000000002
  0
ARC
  5
125
100
AcDbEntity
  8
percage
  6
ByLayer
 62
  256
370
   -1
100
AcDbCircle
 10
14.339300180485
 20
-134.97344975
 40
101
100
AcDbArc
 50
90
 51
97.26459612278123
  0
LINE
  5
126
100
AcDbEntity
  8
percage
  6
ByLayer
 62
  256
370
   -1
100
AcDbLine
 10
-0.6264441044068715
 20
-33.28156487030034
 11
-2.519856852084805
 21
-25.64504912418592
  0
ARC
  5
127
100
AcDbEntity
  8
percage
  6
ByLayer
 62
  256
370
   -1
100
AcDbCircle
 10
1.314777274759212
 20
-32.80025461997471
 40
2
100
AcDbArc
 50
193.9252095940901
 51
277.2645961227812
  0
ARC
  5
128
100
AcDbEntity
  8
percage
  6
ByLayer
 62
  256
370
   -1
100
AcDbCircle
 10
-23.13571590026181
 20
10.27680024999999
 40
49
100
AcDbArc
 50
270
 51
283.1513224581538
  0
LINE
  5
129
100
AcDbEntity
  8
percage
  6
ByLayer
 62
  256
370
   -1
100
AcDbLine
 10
-10.500882907778
 20
-35.00919956552286
 11
-12.22596374791522
 21
-28.0516003758141
  0
ARC
  5
12A
100
AcDbEntity
  8
percage
  6
ByLayer
 62
  256
370
   -1
100
AcDbCircle
 10
-12.44210428694408
 20
-35.4905098158485
 40
2
100
AcDbArc
 50
283.1513224581533
 51
13.92520959409015
  0
ARC
  5
12B
100
AcDbEntity
  8
percage
  6
ByLayer
 62
  256
370
   -1
100
AcDbCircle
 10
-7.372910300000015
 20
-26.84832475000001
 40
5
100
AcDbArc
 50
13.92520959409017
 51
193.9252095940902
  0
LINE
  5
12C
100
AcDbEntity
  8
keycaps
  6
ByLayer
 62
  256
370
   -1
100
AcDbLine
 10
-26.37291030000002
 20
42.68851524999999
 11
-26.37291030000002
 21
18.93876524999999
  0
LINE
  5
12D
100
AcDbEntity
  8
keycaps
  6
ByLayer
 62
  256
370
   -1
100
AcDbLine
 10
-26.37291030000002
 20
18.93876524999999
 11
-64.37291030000002
 21
18.93876524999999
  0
LINE
  5
12E
100
AcDbEntity
  8
keycaps
  6
ByLayer
 62
  256
370
   -1
100
AcDbLine
 10
-64.37291030000002
 20
37.93876525
 11
-64.37291030000002
 21
-38.72319975000001
  0
ARC
  5
12F
100
AcDbEntity
  8
ext1
  6
ByLayer
 62
  256
370
   -1
100
AcDbCircle
 10
2.127089700000056
 20
-103.9086012285303
 40
151
100
AcDbArc
 50
82.87535479814861
 51
97.12464520185138
  0
LINE
  5
130
100
AcDbEntity
  8
ext1
  6
ByLayer
 62
  256
370
   -1
100
AcDbLine
 10
20.85536403743942
 20
45.92547947523218
 11
66.96932146019921
 21
40.16153817868604
  0
ARC
  5
131
100
AcDbEntity
  8
ext1
  6
ByLayer
 62
  256
370
   -1
100
AcDbCircle
 10
66.22515161897645
 20
34.20786609774183
 40
6
100
AcDbArc
 50
0
 51
82.87535479814858
  0
LINE
  5
132
100
AcDbEntity
  8
ext1
  6
ByLayer
 62
  256
370
   -1
100
AcDbLine
 10
72.22515161897645
 20
-20.81123554251246
 11
72.22515161897645
 21
34.20786609774183
  0
ARC
  5
133
100
AcDbEntity
  8
ext1
  6
ByLayer
 62
  256
370
   -1
100
AcDbCircle
 10
61.22515161897645
 20
-20.81123554251246
 40
11
100
AcDbArc
 50
329.9999998915839
 51
0
  0
LINE
  5
134
100
AcDbEntity
  8
ext1
  6
ByLayer
 62
  256
370
   -1
100
AcDbLine
 10
70.75143105019808
 20
-26.31123556053827
 11
58.49390033899509
 21
-47.54190143490199
  0
ARC
  5
135
100
AcDbEntity
  8
ext1
  6
ByLayer
 62
  256
370
   -1
100
AcDbCircle
 10
55.02979872764178
 20
-45.54190142834715
 40
4
100
AcDbArc
 50
239.9999998915838
 51
329.9999998915839
  0
LINE
  5
136
100
AcDbEntity
  8
ext1
  6
ByLayer
 62
  256
370
   -1
100
AcDbLine
 10
53.02979872108693
 20
-49.00600303970047
 11
44.37240628269022
 21
-44.00765516306966
  0
ARC
  5
137
100
AcDbEntity
  8
ext1
  6
ByLayer
 62
  256
370
   -1
100
AcDbCircle
 10
19.87240620239345
 20
-86.44289990214779
 40
49
100
AcDbArc
 50
59.99999989158383
 51
75.00000015811271
  0
LINE
  5
138
100
AcDbEntity
  8
ext1
  6
ByLayer
 62
  256
370
   -1
100
AcDbLine
 10
27.07047659426451
 20
-37.64308422683823
 11
32.55453928180468
 21
-39.11253437898598
  0
ARC
  5
139
100
AcDbEntity
  8
ext1
  6
ByLayer
 62
  256
370
   -1
100
AcDbCircle
 10
14.38834351485326
 20
-84.97344975000003
 40
49
100
AcDbArc
 50
75.0000001581127
 51
90
  0
ARC
  5
13A
100
AcDbEntity
  8
ext1
  6
ByLayer
 62
  256
370
   -1
100
AcDbCircle
 10
14.339300180485
 20
-134.97344975
 40
99
100
AcDbArc
 50
90
 51
103.9252095940902
  0
ARC
  5
13B
100
AcDbEntity
  8
ext1
  6
ByLayer
 62
  256
370
   -1
100
AcDbCircle
 10
-23.13571590026181
 20
10.27680024999999
 40
51
100
AcDbArc
 50
270
 51
283.9252095940902
  0
LINE
  5
13C
100
AcDbEntity
  8
ext1
  6
ByLayer
 62
  256
370
   -1
100
AcDbLine
 10
-10.86230451695809
 20
-39.22434491873515
 11
-9.48555721063399
 21
-38.88299148127885
  0
LINE
  5
13D
100
AcDbEntity
  8
ext1
  6
ByLayer
 62
  256
370
   -1
100
AcDbLine
 10
-23.13571590026181
 20
-40.72319975000001
 11
-62.37291030000002
 21
-40.72319975000001
  0
ARC
  5
13E
100
AcDbEntity
  8
ext1
  6
ByLayer
 62
  256
370
   -1
100
AcDbCircle
 10
-62.37291030000002
 20
-36.72319975000001
 40
4
100
AcDbArc
 50
180
 51
270
  0
LINE
  5
13F
100
AcDbEntity
  8
ext1
  6
ByLayer
 62
  256
370
   -1
100
AcDbLine
 10
-66.37291030000002
 20
-36.72319975000001
 11
-66.37291030000002
 21
36.17318928702431
  0
ARC
  5
140
100
AcDbEntity
  8
ext1
  6
ByLayer
 62
  256
370
   -1
100
AcDbCircle
 10
-62.37291030000002
 20
36.17318928702431
 40
4
100
AcDbArc
 50
97.12464520185139
 51
180
  0
LINE
  5
141
100
AcDbEntity
  8
ext1
  6
ByLayer
 62
  256
370
   -1
100
AcDbLine
 10
-62.86902352748185
 20
40.14230400765379
 11
-16.60118463743926
 21
45.92547947523219
  0
LINE
  5
142
100
AcDbEntity
  8
ext2
  6
ByLayer
 62
  256
370
   -1
100
AcDbLine
 10
21.35147726492126
 20
49.89459419586165
 11
67.46543468768105
 21
44.13065289931551
  0
ARC
  5
143
100
AcDbEntity
  8
ext2
  6
ByLayer
 62
  256
370
   -1
100
AcDbCircle
 10
66.22515161897645
 20
34.20786609774183
 40
10
100
AcDbArc
 50
0
 51
82.87535479814858
  0
LINE
  5
144
100
AcDbEntity
  8
ext2
  6
ByLayer
 62
  256
370
   -1
100
AcDbLine
 10
76.22515161897645
 20
-20.81123554251246
 11
76.22515161897645
 21
34.20786609774183
  0
ARC
  5
145
100
AcDbEntity
  8
ext2
  6
ByLayer
 62
  256
370
   -1
100
AcDbCircle
 10
61.22515161897645
 20
-20.81123554251246
 40
15
100
AcDbArc
 50
329.9999998915839
 51
0
  0
LINE
  5
146
100
AcDbEntity
  8
ext2
  6
ByLayer
 62
  256
370
   -1
100
AcDbLine
 10
74.21553266155139
 20
-28.31123556709311
 11
61.9580019503484
 21
-49.54190144145683
  0
ARC
  5
147
100
AcDbEntity
  8
ext2
  6
ByLayer
 62
  256
370
   -1
100
AcDbCircle
 10
55.02979872764178
 20
-45.54190142834715
 40
8
100
AcDbArc
 50
239.9999998915838
 51
329.9999998915839
  0
LINE
  5
148
100
AcDbEntity
  8
ext2
  6
ByLayer
 62
  256
370
   -1
100
AcDbLine
 10
51.02979871453208
 20
-52.47010465105379
 11
42.37240627613538
 21
-47.47175677442298
  0
ARC
  5
149
100
AcDbEntity
  8
ext2
  6
ByLayer
 62
  256
370
   -1
100
AcDbCircle
 10
19.87240620239345
 20
-86.44289990214779
 40
45
100
AcDbArc
 50
59.99999989158383
 51
75.00000015811271
  0
LINE
  5
14A
100
AcDbEntity
  8
ext2
  6
ByLayer
 62
  256
370
   -1
100
AcDbLine
 10
26.03520042451665
 20
-41.50678753485144
 11
31.51926311205682
 21
-42.97623768699918
  0
ARC
  5
14B
100
AcDbEntity
  8
ext2
  6
ByLayer
 62
  256
370
   -1
100
AcDbCircle
 10
14.38834351485326
 20
-84.97344975000003
 40
45
100
AcDbArc
 50
75.0000001581127
 51
90
  0
ARC
  5
14C
100
AcDbEntity
  8
ext2
  6
ByLayer
 62
  256
370
   -1
100
AcDbCircle
 10
14.339300180485
 20
-134.97344975
 40
95
100
AcDbArc
 50
90
 51
103.9252095940902
  0
ARC
  5
14D
100
AcDbEntity
  8
ext2
  6
ByLayer
 62
  256
370
   -1
100
AcDbCircle
 10
-23.13571590026181
 20
10.27680024999999
 40
55
100
AcDbArc
 50
270
 51
283.9252095940902
  0
LINE
  5
14E
100
AcDbEntity
  8
ext2
  6
ByLayer
 62
  256
370
   -1
100
AcDbLine
 10
-9.899684016306816
 20
-43.10678767706732
 11
-8.522936709982716
 21
-42.76543423961102
  0
LINE
  5
14F
100
AcDbEntity
  8
ext2
  6
ByLayer
 62
  256
370
   -1
100
AcDbLine
 10
-23.13571590026181
 20
-44.72319975000001
 11
-62.37291030000002
 21
-44.72319975000001
  0
ARC
  5
150
100
AcDbEntity
  8
ext2
  6
ByLayer
 62
  256
370
   -1
100
AcDbCircle
 10
-62.37291030000002
 20
-36.72319975000001
 40
8
100
AcDbArc
 50
180
 51
270
  0
LINE
  5
151
100
AcDbEntity
  8
ext2
  6
ByLayer
 62
  256
370
   -1
100
AcDbLine
 10
-70.37291030000002
 20
-36.72319975000001
 11
-70.37291030000002
 21
36.17318928702431
  0
ARC
  5
152
100
AcDbEntity
  8
ext2
  6
ByLayer
 62
  256
370
   -1
100
AcDbCircle
 10
-62.37291030000002
 20
36.17318928702431
 40
8
100
AcDbArc
 50
97.12464520185139
 51
180
  0
LINE
  5
153
100
AcDbEntity
  8
ext2
  6
ByLayer
 62
  256
370
   -1
100
AcDbLine
 10
-63.36513675496369
 20
44.11141872828326
 11
-17.09729786492109
 21
49.89459419586166
  0
ARC
  5
154
100
AcDbEntity
  8
ext2
  6
ByLayer
 62
  256
370
   -1
100
AcDbCircle
 10
2.127089700000056
 20
-103.9086012285303
 40
155
100
AcDbArc
 50
82.87535479814861
 51
97.12464520185138
  0
ARC
  5
155
100
AcDbEntity
  8
ext3
  6
ByLayer
 62
  256
370
   -1
100
AcDbCircle
 10
2.127089700000056
 20
-103.9086012285303
 40
156
100
AcDbArc
 50
82.87535479814861
 51
97.12464520185138
  0
LINE
  5
156
100
AcDbEntity
  8
ext3
  6
ByLayer
 62
  256
370
   -1
100
AcDbLine
 10
21.47550557179172
 20
50.88687287601902
 11
67.58946299455151
 21
45.12293157947288
  0
ARC
  5
157
100
AcDbEntity
  8
ext3
  6
ByLayer
 62
  256
370
   -1
100
AcDbCircle
 10
66.22515161897645
 20
34.20786609774183
 40
11
100
AcDbArc
 50
0
 51
82.87535479814858
  0
LINE
  5
158
100
AcDbEntity
  8
ext3
  6
ByLayer
 62
  256
370
   -1
100
AcDbLine
 10
77.22515161897645
 20
-20.81123554251246
 11
77.22515161897645
 21
34.20786609774183
  0
ARC
  5
159
100
AcDbEntity
  8
ext3
  6
ByLayer
 62
  256
370
   -1
100
AcDbCircle
 10
61.22515161897645
 20
-20.81123554251246
 40
16
100
AcDbArc
 50
329.9999998915839
 51
0
  0
LINE
  5
15A
100
AcDbEntity
  8
ext3
  6
ByLayer
 62
  256
370
   -1
100
AcDbLine
 10
75.08155806438972
 20
-28.81123556873182
 11
62.82402735318674
 21
-50.04190144309554
  0
ARC
  5
15B
100
AcDbEntity
  8
ext3
  6
ByLayer
 62
  256
370
   -1
100
AcDbCircle
 10
55.02979872764178
 20
-45.54190142834715
 40
9
100
AcDbArc
 50
239.9999998915838
 51
329.9999998915839
  0
LINE
  5
15C
100
AcDbEntity
  8
ext3
  6
ByLayer
 62
  256
370
   -1
100
AcDbLine
 10
50.52979871289337
 20
-53.33613005389212
 11
41.87240627449667
 21
-48.33778217726131
  0
ARC
  5
15D
100
AcDbEntity
  8
ext3
  6
ByLayer
 62
  256
370
   -1
100
AcDbCircle
 10
19.87240620239345
 20
-86.44289990214779
 40
44
100
AcDbArc
 50
59.99999989158383
 51
75.00000015811271
  0
ARC
  5
15E
100
AcDbEntity
  8
ext3
  6
ByLayer
 62
  256
370
   -1
100
AcDbCircle
 10
14.38834351485326
 20
-84.97344975000003
 40
44
100
AcDbArc
 50
75.0000001581127
 51
90
  0
LINE
  5
15F
100
AcDbEntity
  8
ext3
  6
ByLayer
 62
  256
370
   -1
100
AcDbLine
 10
25.77638138207968
 20
-42.47271336185474
 11
31.26044406961985
 21
-43.94216351400249
  0
ARC
  5
160
100
AcDbEntity
  8
ext3
  6
ByLayer
 62
  256
370
   -1
100
AcDbCircle
 10
14.339300180485
 20
-134.97344975
 40
94
100
AcDbArc
 50
90
 51
103.9252095940902
  0
ARC
  5
161
100
AcDbEntity
  8
ext3
  6
ByLayer
 62
  256
370
   -1
100
AcDbCircle
 10
-23.13571590026181
 20
10.27680024999999
 40
56
100
AcDbArc
 50
270
 51
283.9252095940902
  0
LINE
  5
162
100
AcDbEntity
  8
ext3
  6
ByLayer
 62
  256
370
   -1
100
AcDbLine
 10
-9.659028891143997
 20
-44.07739836665036
 11
-8.282281584819897
 21
-43.73604492919406
  0
LINE
  5
163
100
AcDbEntity
  8
ext3
  6
ByLayer
 62
  256
370
   -1
100
AcDbLine
 10
-23.13571590026181
 20
-45.72319975000001
 11
-62.37291030000002
 21
-45.72319975000001
  0
ARC
  5
164
100
AcDbEntity
  8
ext3
  6
ByLayer
 62
  256
370
   -1
100
AcDbCircle
 10
-62.37291030000002
 20
-36.72319975000001
 40
9
100
AcDbArc
 50
180
 51
270
  0
LINE
  5
165
100
AcDbEntity
  8
ext3
  6
ByLayer
 62
  256
370
   -1
100
AcDbLine
 10
-71.37291030000002
 20
-36.72319975000001
 11
-71.37291030000002
 21
36.17318928702431
  0
ARC
  5
166
100
AcDbEntity
  8
ext3
  6
ByLayer
 62
  256
370
   -1
100
AcDbCircle
 10
-62.37291030000002
 20
36.17318928702431
 40
9
100
AcDbArc
 50
97.12464520185139
 51
180
  0
LINE
  5
167
100
AcDbEntity
  8
ext3
  6
ByLayer
 62
  256
370
   -1
100
AcDbLine
 10
-63.48916506183414
 20
45.10369740844063
 11
-17.22132617179155
 21
50.88687287601903
  0
LINE
  5
168
100
AcDbEntity
  8
ext1
  6
ByLayer
 62
  256
370
   -1
100
AcDbLine
 10
14.33930018048501
 20
-35.97344974999999
 11
14.38834351485326
 21
-35.97344975000003
  0
LINE
  5
169
100
AcDbEntity
  8
ext2
  6
ByLayer
 62
  256
370
   -1
100
AcDbLine
 10
14.33930018048501
 20
-39.97344974999999
 11
14.38834351485326
 21
-39.97344975000003
  0
LINE
  5
16A
100
AcDbEntity
  8
ext3
  6
ByLayer
 62
  256
370
   -1
100
AcDbLine
 10
14.33930018048501
 20
-40.97344974999999
 11
14.38834351485326
 21
-40.97344975000003
  0
LINE
  5
16B
100
AcDbEntity
  8
percage
  6
ByLayer
 62
  256
370
   -1
100
AcDbLine
 10
14.33930018048501
 20
-33.97344974999999
 11
14.38834351485326
 21
-33.97344975000003
  0
ARC
  5
16C
100
AcDbEntity
  8
ajour
  6
ByLayer
 62
  256
370
   -1
100
AcDbCircle
 10
14.38834351485326
 20
-84.97344975000003
 40
61
100
AcDbArc
 50
75.0000001581127
 51
90
  0
ARC
  5
16D
100
AcDbEntity
  8
ajour
  6
ByLayer
 62
  256
370
   -1
100
AcDbCircle
 10
-49.37291030000002
 20
1.439765249999991
 40
5
100
AcDbArc
 50
90
 51
180
  0
LINE
  5
16E
100
AcDbEntity
  8
ajour
  6
ByLayer
 62
  256
370
   -1
100
AcDbLine
 10
-54.37291030000002
 20
-23.72319975000002
 11
-54.37291030000002
 21
1.439765249999994
  0
ARC
  5
16F
100
AcDbEntity
  8
ajour
  6
ByLayer
 62
  256
370
   -1
100
AcDbCircle
 10
-49.37291030000002
 20
-23.72319975000002
 40
5
100
AcDbArc
 50
180
 51
270
  0
LINE
  5
170
100
AcDbEntity
  8
ajour
  6
ByLayer
 62
  256
370
   -1
100
AcDbLine
 10
-27.12724131206861
 20
-28.72319975000001
 11
-49.37291030000002
 21
-28.72319975000002
  0
ARC
  5
171
100
AcDbEntity
  8
ajour
  6
ByLayer
 62
  256
370
   -1
100
AcDbCircle
 10
-27.12724131206861
 20
-23.72319975000001
 40
5
100
AcDbArc
 50
270
 51
351.0103381030074
  0
ARC
  5
172
100
AcDbEntity
  8
ajour
  6
ByLayer
 62
  256
370
   -1
100
AcDbCircle
 10
-7.372910300000015
 20
-26.84832475000001
 40
15
100
AcDbArc
 50
23.04072810051621
 51
171.0103381030074
  0
ARC
  5
173
100
AcDbEntity
  8
ajour
  6
ByLayer
 62
  256
370
   -1
100
AcDbCircle
 10
11.03162717624692
 20
-19.02061753233901
 40
5
100
AcDbArc
 50
203.0407281005162
 51
271.6339775363301
  0
LINE
  5
174
100
AcDbEntity
  8
ajour
  6
ByLayer
 62
  256
370
   -1
100
AcDbLine
 10
11.17419928849857
 20
-24.01858443827268
 11
14.38834351485326
 21
-23.97344975000003
  0
LINE
  5
175
100
AcDbEntity
  8
ajour
  6
ByLayer
 62
  256
370
   -1
100
AcDbLine
 10
30.17630510350807
 20
-26.05197430279861
 11
33.23912082594628
 21
-26.87265329313233
  0
ARC
  5
176
100
AcDbEntity
  8
ajour
  6
ByLayer
 62
  256
370
   -1
100
AcDbCircle
 10
34.53321603813109
 20
-22.04302415811582
 40
5
100
AcDbArc
 50
255.0000001581128
 51
329.9999998915839
  0
LINE
  5
177
100
AcDbEntity
  8
ajour
  6
ByLayer
 62
  256
370
   -1
100
AcDbLine
 10
38.86334305232275
 20
-24.54302416630937
 11
55.16340735073466
 21
3.68951524180644
  0
ARC
  5
178
100
AcDbEntity
  8
ajour
  6
ByLayer
 62
  256
370
   -1
100
AcDbCircle
 10
50.83328033654301
 20
6.189515249999988
 40
5
100
AcDbArc
 50
329.9999998915839
 51
90
  0
LINE
  5
179
100
AcDbEntity
  8
ajour
  6
ByLayer
 62
  256
370
   -1
100
AcDbLine
 10
50.83328033654301
 20
11.18951524999999
 11
9.127089699999992
 21
11.18951524999999
  0
ARC
  5
17A
100
AcDbEntity
  8
ajour
  6
ByLayer
 62
  256
370
   -1
100
AcDbCircle
 10
9.12708969999999
 20
16.18951524999999
 40
5
100
AcDbArc
 50
180
 51
270
  0
LINE
  5
17B
100
AcDbEntity
  8
ajour
  6
ByLayer
 62
  256
370
   -1
100
AcDbLine
 10
4.12708969999999
 20
16.18951524999999
 11
4.12708969999999
 21
26.18951524999999
  0
ARC
  5
17C
100
AcDbEntity
  8
ajour
  6
ByLayer
 62
  256
370
   -1
100
AcDbCircle
 10
-0.8729103000000098
 20
26.18951524999999
 40
5
100
AcDbArc
 50
0
 51
89.99999999999999
  0
LINE
  5
17D
100
AcDbEntity
  8
ajour
  6
ByLayer
 62
  256
370
   -1
100
AcDbLine
 10
-0.8729103000000089
 20
31.18951524999999
 11
-17.37291030000002
 21
31.18951524999999
  0
ARC
  5
17E
100
AcDbEntity
  8
ajour
  6
ByLayer
 62
  256
370
   -1
100
AcDbCircle
 10
-17.37291030000002
 20
26.18951524999999
 40
5
100
AcDbArc
 50
90
 51
180
  0
LINE
  5
17F
100
AcDbEntity
  8
ajour
  6
ByLayer
 62
  256
370
   -1
100
AcDbLine
 10
-22.37291030000002
 20
11.43976524999999
 11
-22.37291030000002
 21
26.18951524999999
  0
LINE
  5
180
100
AcDbEntity
  8
ajour
  6
ByLayer
 62
  256
370
   -1
100
AcDbLine
 10
-49.37291030000002
 20
6.439765249999991
 11
-27.37291030000003
 21
6.43976524999999
  0
ARC
  5
181
100
AcDbEntity
  8
ajour
  6
ByLayer
 62
  256
370
   -1
100
AcDbCircle
 10
-27.37291030000003
 20
11.43976524999999
 40
5
100
AcDbArc
 50
269.9999999999999
 51
0
  0
ENDSEC
  0
SECTION
  2
OBJECTS
  0
DICTIONARY
  5
C
330
0
100
AcDbDictionary
281
    1
  3
ACAD_GROUP
350
D
  0
DICTIONARY
  5
D
330
C
100
AcDbDictionary
281
    1
  0
PLOTSETTINGS
  5
182
100
AcDbPlotSettings
  6
1x1
 40
0
 41
0
 42
0
 43
0
  0
ENDSEC
  0
EOF
