999
dxfrw 0.6.3
  0
SECTION
  2
HEADER
  9
$ACADVER
  1
AC1021
  9
$DWGCODEPAGE
  3
ANSI_1252
  9
$INSBASE
 10
0
 20
0
 30
0
  9
$EXTMIN
 10
-113.0927235582019
 20
-38.24752345838182
 30
0
  9
$EXTMAX
 10
113.0927235582019
 20
56.05026948557673
 30
0
  9
$LIMMIN
 10
0
 20
0
  9
$LIMMAX
 10
420
 20
297
  9
$ORTHOMODE
 70
    0
  9
$REGENMODE
 70
    1
  9
$FILLMODE
 70
    1
  9
$QTEXTMODE
 70
    0
  9
$MIRRTEXT
 70
    0
  9
$LTSCALE
 40
1
  9
$ATTMODE
 70
    0
  9
$TEXTSIZE
 40
2.5
  9
$TRACEWID
 40
15.68
  9
$TEXTSTYLE
  7
STANDARD
  9
$CLAYER
  8
percage
  9
$CELTYPE
  6
BYLAYER
  9
$CECOLOR
 62
  256
  9
$CELTSCALE
 40
1
  9
$DISPSILH
 70
    0
  9
$DIMSCALE
 40
2.5
  9
$DIMASZ
 40
2.5
  9
$DIMEXO
 40
0.625
  9
$DIMDLI
 40
3.75
  9
$DIMRND
 40
0
  9
$DIMDLE
 40
0
  9
$DIMEXE
 40
1.25
  9
$DIMTP
 40
0
  9
$DIMTM
 40
0
  9
$DIMTXT
 40
2.5
  9
$DIMCEN
 40
2.5
  9
$DIMTSZ
 40
0
  9
$DIMTOL
 70
    0
  9
$DIMLIM
 70
    0
  9
$DIMTIH
 70
    0
  9
$DIMTOH
 70
    0
  9
$DIMSE1
 70
    0
  9
$DIMSE2
 70
    0
  9
$DIMTAD
 70
    1
  9
$DIMZIN
 70
    8
  9
$DIMBLK
  1

  9
$DIMASO
 70
    1
  9
$DIMSHO
 70
    1
  9
$DIMPOST
  1

  9
$DIMAPOST
  1

  9
$DIMALT
 70
    0
  9
$DIMALTD
 70
    3
  9
$DIMALTF
 40
0.03937
  9
$DIMLFAC
 40
1
  9
$DIMTOFL
 70
    1
  9
$DIMTVP
 40
0
  9
$DIMTIX
 70
    0
  9
$DIMSOXD
 70
    0
  9
$DIMSAH
 70
    0
  9
$DIMBLK1
  1

  9
$DIMBLK2
  1

  9
$DIMSTYLE
  2
STANDARD
  9
$DIMCLRD
 70
    0
  9
$DIMCLRE
 70
    0
  9
$DIMCLRT
 70
    0
  9
$DIMTFAC
 40
1
  9
$DIMGAP
 40
0.625
  9
$DIMJUST
 70
    0
  9
$DIMSD1
 70
    0
  9
$DIMSD2
 70
    0
  9
$DIMTOLJ
 70
    0
  9
$DIMTZIN
 70
    8
  9
$DIMALTZ
 70
    0
  9
$DIMALTTZ
 70
    0
  9
$DIMUPT
 70
    0
  9
$DIMDEC
 70
    2
  9
$DIMTDEC
 70
    2
  9
$DIMALTU
 70
    2
  9
$DIMALTTD
 70
    3
  9
$DIMTXSTY
  7
STANDARD
  9
$DIMAUNIT
 70
    0
  9
$DIMADEC
 70
    0
  9
$DIMALTRND
 40
0
  9
$DIMAZIN
 70
    0
  9
$DIMDSEP
 70
   44
  9
$DIMATFIT
 70
    3
  9
$DIMFRAC
 70
    0
  9
$DIMLDRBLK
  1
STANDARD
  9
$DIMLUNIT
 70
    2
  9
$DIMLWD
 70
   -2
  9
$DIMLWE
 70
   -2
  9
$DIMTMOVE
 70
    0
  9
$DIMFXL
 40
1
  9
$DIMFXLON
 70
    0
  9
$DIMJOGANG
 40
0.7854
  9
$DIMTFILL
 70
    0
  9
$DIMTFILLCLR
 70
    0
  9
$DIMARCSYM
 70
    0
  9
$DIMLTYPE
  6

  9
$DIMLTEX1
  6

  9
$DIMLTEX2
  6

  9
$LUNITS
 70
    2
  9
$LUPREC
 70
    4
  9
$SKETCHINC
 40
1
  9
$FILLETRAD
 40
0
  9
$AUNITS
 70
    0
  9
$AUPREC
 70
    2
  9
$MENU
  1
.
  9
$ELEVATION
 40
0
  9
$PELEVATION
 40
0
  9
$THICKNESS
 40
0
  9
$LIMCHECK
 70
    0
  9
$CHAMFERA
 40
0
  9
$CHAMFERB
 40
0
  9
$CHAMFERC
 40
0
  9
$CHAMFERD
 40
0
  9
$SKPOLY
 70
    0
  9
$USRTIMER
 70
    1
  9
$ANGBASE
 50
0
  9
$ANGDIR
 70
    0
  9
$PDMODE
 70
   34
  9
$PDSIZE
 40
0
  9
$PLINEWID
 40
0
  9
$SPLFRAME
 70
    0
  9
$SPLINETYPE
 70
    2
  9
$SPLINESEGS
 70
    8
  9
$HANDSEED
  5
20000
  9
$SURFTAB1
 70
    6
  9
$SURFTAB2
 70
    6
  9
$SURFTYPE
 70
    6
  9
$SURFU
 70
    6
  9
$SURFV
 70
    6
  9
$UCSBASE
  2

  9
$UCSNAME
  2

  9
$UCSORG
 10
0
 20
0
 30
0
  9
$UCSXDIR
 10
1
 20
0
 30
0
  9
$UCSYDIR
 10
0
 20
1
 30
0
  9
$UCSORTHOREF
  2

  9
$UCSORTHOVIEW
 70
    0
  9
$UCSORGTOP
 10
0
 20
0
 30
0
  9
$UCSORGBOTTOM
 10
0
 20
0
 30
0
  9
$UCSORGLEFT
 10
0
 20
0
 30
0
  9
$UCSORGRIGHT
 10
0
 20
0
 30
0
  9
$UCSORGFRONT
 10
0
 20
0
 30
0
  9
$UCSORGBACK
 10
0
 20
0
 30
0
  9
$PUCSBASE
  2

  9
$PUCSNAME
  2

  9
$PUCSORG
 10
0
 20
0
 30
0
  9
$PUCSXDIR
 10
1
 20
0
 30
0
  9
$PUCSYDIR
 10
0
 20
1
 30
0
  9
$PUCSORTHOREF
  2

  9
$PUCSORTHOVIEW
 70
    0
  9
$PUCSORGTOP
 10
0
 20
0
 30
0
  9
$PUCSORGBOTTOM
 10
0
 20
0
 30
0
  9
$PUCSORGLEFT
 10
0
 20
0
 30
0
  9
$PUCSORGRIGHT
 10
0
 20
0
 30
0
  9
$PUCSORGFRONT
 10
0
 20
0
 30
0
  9
$PUCSORGBACK
 10
0
 20
0
 30
0
  9
$USERI1
 70
    0
  9
$USERI2
 70
    0
  9
$USERI3
 70
    0
  9
$USERI4
 70
    0
  9
$USERI5
 70
    0
  9
$USERR1
 40
0
  9
$USERR2
 40
0
  9
$USERR3
 40
0
  9
$USERR4
 40
0
  9
$USERR5
 40
0
  9
$WORLDVIEW
 70
    1
  9
$SHADEDGE
 70
    3
  9
$SHADEDIF
 70
   70
  9
$TILEMODE
 70
    1
  9
$MAXACTVP
 70
   64
  9
$PINSBASE
 10
0
 20
0
 30
0
  9
$PLIMCHECK
 70
    0
  9
$PEXTMIN
 10
0
 20
0
 30
0
  9
$PEXTMAX
 10
0
 20
0
 30
0
  9
$GRIDMODE
 70
    1
  9
$SNAPSTYLE
 70
    0
  9
$PLIMMIN
 10
0
 20
0
  9
$PLIMMAX
 10
210
 20
297
  9
$UNITMODE
 70
    0
  9
$VISRETAIN
 70
    1
  9
$PLINEGEN
 70
    0
  9
$PSLTSCALE
 70
    1
  9
$TREEDEPTH
 70
 3020
  9
$CMLSTYLE
  2
Standard
  9
$CMLJUST
 70
    0
  9
$CMLSCALE
 40
20
  9
$PROXYGRAPHICS
 70
    1
  9
$MEASUREMENT
 70
    1
  9
$CELWEIGHT
370
   -1
  9
$ENDCAPS
280
    0
  9
$JOINSTYLE
280
    0
  9
$LWDISPLAY
290
    0
  9
$INSUNITS
 70
    0
  9
$HYPERLINKBASE
  1

  9
$STYLESHEET
  1

  9
$XEDIT
290
    1
  9
$CEPSNTYPE
380
    0
  9
$PSTYLEMODE
290
    1
  9
$EXTNAMES
290
    1
  9
$PSVPSCALE
 40
1
  9
$OLESTARTUP
290
    0
  9
$SORTENTS
280
  127
  9
$INDEXCTL
280
    0
  9
$HIDETEXT
280
    1
  9
$XCLIPFRAME
290
    0
  9
$HALOGAP
280
    0
  9
$OBSCOLOR
 70
  257
  9
$OBSLTYPE
280
    0
  9
$INTERSECTIONDISPLAY
280
    0
  9
$INTERSECTIONCOLOR
 70
  257
  9
$DIMASSOC
280
    1
  9
$PROJECTNAME
  1

  9
$CAMERADISPLAY
290
    0
  9
$LENSLENGTH
 40
50
  9
$CAMERAHEIGHT
 40
0
  9
$STEPSPERSEC
 40
2
  9
$STEPSIZE
 40
50
  9
$3DDWFPREC
 40
2
  9
$PSOLWIDTH
 40
5
  9
$PSOLHEIGHT
 40
80
  9
$LOFTANG1
 40
1.570796326794897
  9
$LOFTANG2
 40
1.570796326794897
  9
$LOFTMAG1
 40
0
  9
$LOFTMAG2
 40
0
  9
$LOFTPARAM
 70
    7
  9
$LOFTNORMALS
280
    1
  9
$LATITUDE
 40
1
  9
$LONGITUDE
 40
1
  9
$NORTHDIRECTION
 40
0
  9
$TIMEZONE
 70
-8000
  9
$LIGHTGLYPHDISPLAY
280
    1
  9
$TILEMODELIGHTSYNCH
280
    1
  9
$SOLIDHIST
280
    1
  9
$SHOWHIST
280
    1
  9
$DWFFRAME
280
    2
  9
$DGNFRAME
280
    0
  9
$REALWORLDSCALE
290
    1
  9
$INTERFERECOLOR
 62
    1
  9
$CSHADOW
280
    0
  9
$SHADOWPLANELOCATION
 40
0
  0
ENDSEC
  0
SECTION
  2
CLASSES
  0
ENDSEC
  0
SECTION
  2
TABLES
  0
TABLE
  2
VPORT
  5
8
330
0
100
AcDbSymbolTable
 70
    1
  0
VPORT
  5
31
330
2
100
AcDbSymbolTableRecord
100
AcDbViewportTableRecord
  2
*ACTIVE
 70
    0
 10
0
 20
0
 11
1
 21
1
 12
57.59545940023455
 22
44.48173913606457
 13
0
 23
0
 14
10
 24
10
 15
10
 25
10
 16
0
 26
0
 36
1
 17
0
 27
0
 37
0
 40
160.0922969849871
 41
1.439056356487549
 42
50
 43
0
 44
0
 50
0
 51
0
 71
    0
 72
  100
 73
    1
 74
    3
 75
    0
 76
    1
 77
    0
 78
    0
281
    0
 65
    1
110
0
120
0
130
0
111
1
121
0
131
0
112
0
122
1
132
0
 79
    0
146
0
348
10020
 60
    7
 61
    5
292
1
282
    1
141
0
142
0
 63
  250
421
3358443
  0
ENDTAB
  0
TABLE
  2
LTYPE
  5
5
330
0
100
AcDbSymbolTable
 70
    4
  0
LTYPE
  5
14
330
5
100
AcDbSymbolTableRecord
100
AcDbLinetypeTableRecord
  2
ByBlock
 70
    0
  3

 72
   65
 73
    0
 40
0
  0
LTYPE
  5
15
330
5
100
AcDbSymbolTableRecord
100
AcDbLinetypeTableRecord
  2
ByLayer
 70
    0
  3

 72
   65
 73
    0
 40
0
  0
LTYPE
  5
16
330
5
100
AcDbSymbolTableRecord
100
AcDbLinetypeTableRecord
  2
Continuous
 70
    0
  3
Solid line
 72
   65
 73
    0
 40
0
  0
LTYPE
  5
32
330
5
100
AcDbSymbolTableRecord
100
AcDbLinetypeTableRecord
  2
DOT
 70
    0
  3
Dot . . . . . . . . . . . . . . . . . . . . . .
 72
   65
 73
    2
 40
6.35
 49
0
 74
    0
 49
-6.35
 74
    0
  0
LTYPE
  5
33
330
5
100
AcDbSymbolTableRecord
100
AcDbLinetypeTableRecord
  2
DOTTINY
 70
    0
  3
Dot (.15x) .....................................
 72
   65
 73
    2
 40
0.9525
 49
0
 74
    0
 49
-0.9525
 74
    0
  0
LTYPE
  5
34
330
5
100
AcDbSymbolTableRecord
100
AcDbLinetypeTableRecord
  2
DOT2
 70
    0
  3
Dot (.5x) .....................................
 72
   65
 73
    2
 40
3.175
 49
0
 74
    0
 49
-3.175
 74
    0
  0
LTYPE
  5
35
330
5
100
AcDbSymbolTableRecord
100
AcDbLinetypeTableRecord
  2
DOTX2
 70
    0
  3
Dot (2x) .  .  .  .  .  .  .  .  .  .  .  .  .
 72
   65
 73
    2
 40
12.7
 49
0
 74
    0
 49
-12.7
 74
    0
  0
LTYPE
  5
36
330
5
100
AcDbSymbolTableRecord
100
AcDbLinetypeTableRecord
  2
DASHED
 70
    0
  3
Dashed _ _ _ _ _ _ _ _ _ _ _ _ _ _ _ _ _
 72
   65
 73
    2
 40
19.05
 49
12.7
 74
    0
 49
-6.35
 74
    0
  0
LTYPE
  5
37
330
5
100
AcDbSymbolTableRecord
100
AcDbLinetypeTableRecord
  2
DASHEDTINY
 70
    0
  3
Dashed (.15x) _ _ _ _ _ _ _ _ _ _ _ _ _ _ _ _ _
 72
   65
 73
    2
 40
2.8575
 49
1.905
 74
    0
 49
-0.9525
 74
    0
  0
LTYPE
  5
38
330
5
100
AcDbSymbolTableRecord
100
AcDbLinetypeTableRecord
  2
DASHED2
 70
    0
  3
Dashed (.5x) _ _ _ _ _ _ _ _ _ _ _ _ _ _ _ _ _
 72
   65
 73
    2
 40
9.524999999999999
 49
6.35
 74
    0
 49
-3.175
 74
    0
  0
LTYPE
  5
39
330
5
100
AcDbSymbolTableRecord
100
AcDbLinetypeTableRecord
  2
DASHEDX2
 70
    0
  3
Dashed (2x) ____  ____  ____  ____  ____  ___
 72
   65
 73
    2
 40
38.09999999999999
 49
25.4
 74
    0
 49
-12.7
 74
    0
  0
LTYPE
  5
3A
330
5
100
AcDbSymbolTableRecord
100
AcDbLinetypeTableRecord
  2
DASHDOT
 70
    0
  3
Dash dot __ . __ . __ . __ . __ . __ . __ . __
 72
   65
 73
    4
 40
25.4
 49
12.7
 74
    0
 49
-6.35
 74
    0
 49
0
 74
    0
 49
-6.35
 74
    0
  0
LTYPE
  5
3B
330
5
100
AcDbSymbolTableRecord
100
AcDbLinetypeTableRecord
  2
DASHDOTTINY
 70
    0
  3
Dash dot (.15x) _._._._._._._._._._._._._._._.
 72
   65
 73
    4
 40
3.81
 49
1.905
 74
    0
 49
-0.9525
 74
    0
 49
0
 74
    0
 49
-0.9525
 74
    0
  0
LTYPE
  5
3C
330
5
100
AcDbSymbolTableRecord
100
AcDbLinetypeTableRecord
  2
DASHDOT2
 70
    0
  3
Dash dot (.5x) _._._._._._._._._._._._._._._.
 72
   65
 73
    4
 40
12.7
 49
6.35
 74
    0
 49
-3.175
 74
    0
 49
0
 74
    0
 49
-3.175
 74
    0
  0
LTYPE
  5
3D
330
5
100
AcDbSymbolTableRecord
100
AcDbLinetypeTableRecord
  2
DASHDOTX2
 70
    0
  3
Dash dot (2x) ____  .  ____  .  ____  .  ___
 72
   65
 73
    4
 40
50.8
 49
25.4
 74
    0
 49
-12.7
 74
    0
 49
0
 74
    0
 49
-12.7
 74
    0
  0
LTYPE
  5
3E
330
5
100
AcDbSymbolTableRecord
100
AcDbLinetypeTableRecord
  2
DIVIDE
 70
    0
  3
Divide ____ . . ____ . . ____ . . ____ . . ____
 72
   65
 73
    6
 40
31.75
 49
12.7
 74
    0
 49
-6.35
 74
    0
 49
0
 74
    0
 49
-6.35
 74
    0
 49
0
 74
    0
 49
-6.35
 74
    0
  0
LTYPE
  5
3F
330
5
100
AcDbSymbolTableRecord
100
AcDbLinetypeTableRecord
  2
DIVIDETINY
 70
    0
  3
Divide (.15x) __..__..__..__..__..__..__..__.._
 72
   65
 73
    6
 40
4.7625
 49
1.905
 74
    0
 49
-0.9525
 74
    0
 49
0
 74
    0
 49
-0.9525
 74
    0
 49
0
 74
    0
 49
-0.9525
 74
    0
  0
LTYPE
  5
40
330
5
100
AcDbSymbolTableRecord
100
AcDbLinetypeTableRecord
  2
DIVIDE2
 70
    0
  3
Divide (.5x) __..__..__..__..__..__..__..__.._
 72
   65
 73
    6
 40
15.875
 49
6.35
 74
    0
 49
-3.175
 74
    0
 49
0
 74
    0
 49
-3.175
 74
    0
 49
0
 74
    0
 49
-3.175
 74
    0
  0
LTYPE
  5
41
330
5
100
AcDbSymbolTableRecord
100
AcDbLinetypeTableRecord
  2
DIVIDEX2
 70
    0
  3
Divide (2x) ________  .  .  ________  .  .  _
 72
   65
 73
    6
 40
63.5
 49
25.4
 74
    0
 49
-12.7
 74
    0
 49
0
 74
    0
 49
-12.7
 74
    0
 49
0
 74
    0
 49
-12.7
 74
    0
  0
LTYPE
  5
42
330
5
100
AcDbSymbolTableRecord
100
AcDbLinetypeTableRecord
  2
BORDER
 70
    0
  3
Border __ __ . __ __ . __ __ . __ __ . __ __ .
 72
   65
 73
    6
 40
44.45
 49
12.7
 74
    0
 49
-6.35
 74
    0
 49
12.7
 74
    0
 49
-6.35
 74
    0
 49
0
 74
    0
 49
-6.35
 74
    0
  0
LTYPE
  5
43
330
5
100
AcDbSymbolTableRecord
100
AcDbLinetypeTableRecord
  2
BORDERTINY
 70
    0
  3
Border (.15x) __.__.__.__.__.__.__.__.__.__.__.
 72
   65
 73
    6
 40
6.6675
 49
1.905
 74
    0
 49
-0.9525
 74
    0
 49
1.905
 74
    0
 49
-0.9525
 74
    0
 49
0
 74
    0
 49
-0.9525
 74
    0
  0
LTYPE
  5
44
330
5
100
AcDbSymbolTableRecord
100
AcDbLinetypeTableRecord
  2
BORDER2
 70
    0
  3
Border (.5x) __.__.__.__.__.__.__.__.__.__.__.
 72
   65
 73
    6
 40
22.225
 49
6.35
 74
    0
 49
-3.175
 74
    0
 49
6.35
 74
    0
 49
-3.175
 74
    0
 49
0
 74
    0
 49
-3.175
 74
    0
  0
LTYPE
  5
45
330
5
100
AcDbSymbolTableRecord
100
AcDbLinetypeTableRecord
  2
BORDERX2
 70
    0
  3
Border (2x) ____  ____  .  ____  ____  .  ___
 72
   65
 73
    6
 40
88.89999999999999
 49
25.4
 74
    0
 49
-12.7
 74
    0
 49
25.4
 74
    0
 49
-12.7
 74
    0
 49
0
 74
    0
 49
-12.7
 74
    0
  0
LTYPE
  5
46
330
5
100
AcDbSymbolTableRecord
100
AcDbLinetypeTableRecord
  2
CENTER
 70
    0
  3
Center ____ _ ____ _ ____ _ ____ _ ____ _ ____
 72
   65
 73
    4
 40
50.8
 49
31.75
 74
    0
 49
-6.35
 74
    0
 49
6.35
 74
    0
 49
-6.35
 74
    0
  0
LTYPE
  5
47
330
5
100
AcDbSymbolTableRecord
100
AcDbLinetypeTableRecord
  2
CENTERTINY
 70
    0
  3
Center (.15x) ___ _ ___ _ ___ _ ___ _ ___ _ ___
 72
   65
 73
    4
 40
7.619999999999999
 49
4.7625
 74
    0
 49
-0.9525
 74
    0
 49
0.9525
 74
    0
 49
-0.9525
 74
    0
  0
LTYPE
  5
48
330
5
100
AcDbSymbolTableRecord
100
AcDbLinetypeTableRecord
  2
CENTER2
 70
    0
  3
Center (.5x) ___ _ ___ _ ___ _ ___ _ ___ _ ___
 72
   65
 73
    4
 40
28.575
 49
19.05
 74
    0
 49
-3.175
 74
    0
 49
3.175
 74
    0
 49
-3.175
 74
    0
  0
LTYPE
  5
49
330
5
100
AcDbSymbolTableRecord
100
AcDbLinetypeTableRecord
  2
CENTERX2
 70
    0
  3
Center (2x) ________  __  ________  __  _____
 72
   65
 73
    4
 40
101.6
 49
63.5
 74
    0
 49
-12.7
 74
    0
 49
12.7
 74
    0
 49
-12.7
 74
    0
  0
ENDTAB
  0
TABLE
  2
LAYER
  5
2
330
0
100
AcDbSymbolTable
 70
    1
  0
LAYER
  5
10
330
2
100
AcDbSymbolTableRecord
100
AcDbLayerTableRecord
  2
0
 70
    0
 62
    7
  6
CONTINUOUS
370
    0
390
F
  0
LAYER
  5
4A
330
2
100
AcDbSymbolTableRecord
100
AcDbLayerTableRecord
  2
edgecut
 70
    0
 62
    2
  6
CONTINUOUS
370
    0
390
F
  0
LAYER
  5
4B
330
2
100
AcDbSymbolTableRecord
100
AcDbLayerTableRecord
  2
mx
 70
    0
 62
    1
  6
CONTINUOUS
370
    0
390
F
  0
LAYER
  5
4C
330
2
100
AcDbSymbolTableRecord
100
AcDbLayerTableRecord
  2
percage
 70
    0
 62
    4
  6
CONTINUOUS
370
    0
390
F
  0
LAYER
  5
4D
330
2
100
AcDbSymbolTableRecord
100
AcDbLayerTableRecord
  2
rpi
 70
    0
 62
    3
  6
CONTINUOUS
370
    0
390
F
  0
ENDTAB
  0
TABLE
  2
STYLE
  5
3
330
0
100
AcDbSymbolTable
 70
    3
  0
STYLE
  5
4E
330
2
100
AcDbSymbolTableRecord
100
AcDbTextStyleTableRecord
  2
Standard
 70
    0
 40
0
 41
1
 50
0
 71
    0
 42
1
  3
txt
  4

  0
ENDTAB
  0
TABLE
  2
VIEW
  5
6
330
0
100
AcDbSymbolTable
 70
    0
  0
ENDTAB
  0
TABLE
  2
UCS
  5
7
330
0
100
AcDbSymbolTable
 70
    0
  0
ENDTAB
  0
TABLE
  2
APPID
  5
9
330
0
100
AcDbSymbolTable
 70
    1
  0
APPID
  5
12
330
9
100
AcDbSymbolTableRecord
100
AcDbRegAppTableRecord
  2
ACAD
 70
    0
  0
APPID
  5
4F
330
9
100
AcDbSymbolTableRecord
100
AcDbRegAppTableRecord
  2
LibreCad
 70
    0
  0
ENDTAB
  0
TABLE
  2
DIMSTYLE
  5
A
330
0
100
AcDbSymbolTable
 70
    1
100
AcDbDimStyleTable
 71
    1
  0
DIMSTYLE
105
50
330
A
100
AcDbSymbolTableRecord
100
AcDbDimStyleTableRecord
  2
Standard
 70
    0
 40
2.5
 41
2.5
 42
0.625
 43
0.38
 44
1.25
 45
0
 46
0
 47
0
 48
0
 49
1
140
2.5
141
0.09
142
0
143
25.4
144
1
145
0
146
1
147
0.625
148
0
 71
    0
 72
    0
 73
    0
 74
    1
 75
    0
 76
    0
 77
    0
 78
    8
 79
    0
170
    0
171
    2
172
    0
173
    0
174
    0
175
    0
176
    0
177
    0
178
    0
179
    0
271
    2
272
    4
273
    2
274
    2
275
    0
276
    0
277
    2
278
   44
279
    0
280
    0
281
    0
282
    0
283
    1
284
    0
285
    0
286
    0
288
    0
289
    3
340
STANDARD
341

371
   -2
372
   -2
  0
ENDTAB
  0
TABLE
  2
BLOCK_RECORD
  5
1
330
0
100
AcDbSymbolTable
 70
    2
  0
BLOCK_RECORD
  5
1F
330
1
100
AcDbSymbolTableRecord
100
AcDbBlockTableRecord
  2
*Model_Space
 70
    0
280
    1
281
    0
  0
BLOCK_RECORD
  5
1E
330
1
100
AcDbSymbolTableRecord
100
AcDbBlockTableRecord
  2
*Paper_Space
 70
    0
280
    1
281
    0
  0
ENDTAB
  0
ENDSEC
  0
SECTION
  2
BLOCKS
  0
BLOCK
  5
20
330
1F
100
AcDbEntity
  8
0
100
AcDbBlockBegin
  2
*Model_Space
 70
    0
 10
0
 20
0
 30
0
  3
*Model_Space
  1

  0
ENDBLK
  5
21
330
1F
100
AcDbEntity
  8
0
100
AcDbBlockEnd
  0
BLOCK
  5
1C
330
1B
100
AcDbEntity
  8
0
100
AcDbBlockBegin
  2
*Paper_Space
 70
    0
 10
0
 20
0
 30
0
  3
*Paper_Space
  1

  0
ENDBLK
  5
1D
330
1F
100
AcDbEntity
  8
0
100
AcDbBlockEnd
  0
ENDSEC
  0
SECTION
  2
ENTITIES
  0
LINE
  5
51
100
AcDbEntity
  8
0
  6
ByLayer
 62
  256
370
   -1
100
AcDbLine
 10
0
 20
0
 11
-3.299315375671676
 21
18.71134730723195
  0
LINE
  5
52
100
AcDbEntity
  8
0
  6
ByLayer
 62
  256
370
   -1
100
AcDbLine
 10
28.06702096084793
 20
4.948973063507503
 11
24.76770558517626
 21
23.66032037073946
  0
LINE
  5
53
100
AcDbEntity
  8
0
  6
ByLayer
 62
  256
370
   -1
100
AcDbLine
 10
46.77836826807989
 20
8.248288439179172
 11
43.47905289240821
 21
26.95963574641112
  0
LINE
  5
54
100
AcDbEntity
  8
0
  6
ByLayer
 62
  256
370
   -1
100
AcDbLine
 10
0
 20
0
 11
28.06702096084793
 21
4.948973063507503
  0
LINE
  5
55
100
AcDbEntity
  8
0
  6
ByLayer
 62
  256
370
   -1
100
AcDbLine
 10
28.06702096084793
 20
4.948973063507503
 11
46.77836826807989
 21
8.248288439179172
  0
LINE
  5
56
100
AcDbEntity
  8
0
  6
ByLayer
 62
  256
370
   -1
100
AcDbLine
 10
43.47905289240821
 20
26.95963574641112
 11
24.76770558517626
 21
23.66032037073946
  0
LINE
  5
57
100
AcDbEntity
  8
0
  6
ByLayer
 62
  256
370
   -1
100
AcDbLine
 10
24.76770558517626
 20
23.66032037073946
 11
-3.299315375671676
 21
18.71134730723195
  0
LINE
  5
58
100
AcDbEntity
  8
0
  6
ByLayer
 62
  256
370
   -1
100
AcDbLine
 10
31.3663363365196
 20
-13.76237424372445
 11
50.07768364375156
 21
-10.46305886805278
  0
LINE
  5
59
100
AcDbEntity
  8
0
  6
ByLayer
 62
  256
370
   -1
100
AcDbLine
 10
28.06702096084793
 20
4.948973063507503
 11
31.3663363365196
 21
-13.76237424372445
  0
LINE
  5
5A
100
AcDbEntity
  8
0
  6
ByLayer
 62
  256
370
   -1
100
AcDbLine
 10
46.77836826807989
 20
8.248288439179172
 11
50.07768364375156
 21
-10.46305886805278
  0
LINE
  5
5B
100
AcDbEntity
  8
0
  6
ByLayer
 62
  256
370
   -1
100
AcDbLine
 10
4.677836826807987
 20
0.8248288439179206
 11
7.977152202479655
 21
-17.88651846331403
  0
LINE
  5
5C
100
AcDbEntity
  8
0
  6
ByLayer
 62
  256
370
   -1
100
AcDbLine
 10
7.977152202479655
 20
-17.88651846331403
 11
31.3663363365196
 21
-13.76237424372445
  0
LINE
  5
5D
100
AcDbEntity
  8
0
  6
ByLayer
 62
  256
370
   -1
100
AcDbLine
 10
39.35490867281862
 20
50.34881988045107
 11
20.64356136558667
 21
47.0495045047794
  0
LINE
  5
5E
100
AcDbEntity
  8
0
  6
ByLayer
 62
  256
370
   -1
100
AcDbLine
 10
43.47905289240821
 20
26.95963574641112
 11
39.35490867281862
 21
50.34881988045107
  0
LINE
  5
5F
100
AcDbEntity
  8
0
  6
ByLayer
 62
  256
370
   -1
100
AcDbLine
 10
20.64356136558667
 20
47.0495045047794
 11
24.76770558517626
 21
23.66032037073946
  0
LINE
  5
60
100
AcDbEntity
  8
0
  6
ByLayer
 62
  256
370
   -1
100
AcDbLine
 10
1.932214058354717
 20
43.75018912910773
 11
6.056358277944302
 21
20.36100499506779
  0
LINE
  5
61
100
AcDbEntity
  8
0
  6
ByLayer
 62
  256
370
   -1
100
AcDbLine
 10
1.932214058354717
 20
43.75018912910773
 11
20.64356136558667
 21
47.0495045047794
  0
LINE
  5
62
100
AcDbEntity
  8
0
  6
ByLayer
 62
  256
370
   -1
100
AcDbLine
 10
50.07768364375156
 20
-10.46305886805278
 11
68.78903095098352
 21
-7.163743492381114
  0
LINE
  5
63
100
AcDbEntity
  8
0
  6
ByLayer
 62
  256
370
   -1
100
AcDbLine
 10
68.78903095098352
 20
-7.163743492381114
 11
64.66488673139393
 21
16.22544064165883
  0
LINE
  5
64
100
AcDbEntity
  8
0
  6
ByLayer
 62
  256
370
   -1
100
AcDbLine
 10
45.95353942416197
 20
12.92612526598716
 11
69.34272355820193
 21
17.05026948557674
  0
LINE
  5
65
100
AcDbEntity
  8
0
  6
ByLayer
 62
  256
370
   -1
100
AcDbLine
 10
69.34272355820193
 20
17.05026948557674
 11
66.04340818253024
 21
35.76161679280869
  0
LINE
  5
66
100
AcDbEntity
  8
0
  6
ByLayer
 62
  256
370
   -1
100
AcDbLine
 10
39.35490867281862
 20
50.34881988045107
 11
67.42192963366655
 21
55.29779294395857
  0
LINE
  5
67
100
AcDbEntity
  8
0
  6
ByLayer
 62
  256
370
   -1
100
AcDbLine
 10
70.72124500933823
 20
36.5864456367266
 11
67.42192963366655
 21
55.29779294395857
  0
LINE
  5
68
100
AcDbEntity
  8
0
  6
ByLayer
 62
  256
370
   -1
100
AcDbLine
 10
42.65422404849031
 20
31.63747257321911
 11
70.72124500933823
 21
36.5864456367266
  0
LINE
  5
69
100
AcDbEntity
  8
0
  6
ByLayer
 62
  256
370
   -1
100
AcDbLine
 10
53.37699901942322
 20
-29.17440617528474
 11
72.08834632665518
 21
-25.87509079961307
  0
LINE
  5
6A
100
AcDbEntity
  8
0
  6
ByLayer
 62
  256
370
   -1
100
AcDbLine
 10
68.78903095098352
 20
-7.163743492381112
 11
72.08834632665518
 21
-25.87509079961307
  0
LINE
  5
6B
100
AcDbEntity
  8
0
  6
ByLayer
 62
  256
370
   -1
100
AcDbLine
 10
50.07768364375156
 20
-10.46305886805278
 11
53.37699901942322
 21
-29.17440617528474
  0
LINE
  5
6C
100
AcDbEntity
  8
0
  6
ByLayer
 62
  256
370
   -1
100
AcDbLine
 10
-1.378521451136322
 20
-19.53617615114986
 11
1.920793924535346
 21
-38.24752345838182
  0
LINE
  5
6D
100
AcDbEntity
  8
0
  6
ByLayer
 62
  256
370
   -1
100
AcDbLine
 10
1.920793924535346
 20
-38.24752345838182
 11
53.37699901942322
 21
-29.17440617528474
  0
LINE
  5
6E
100
AcDbEntity
  8
0
  6
ByLayer
 62
  256
370
   -1
100
AcDbLine
 10
-1.378521451136322
 20
-19.53617615114986
 11
7.977152202479655
 21
-17.88651846331403
  0
LINE
  5
6F
100
AcDbEntity
  8
0
  6
ByLayer
 62
  256
370
   -1
100
AcDbLine
 10
69.34272355820193
 20
7.550269485576738
 11
69.34272355820193
 21
26.55026948557674
  0
LINE
  5
70
100
AcDbEntity
  8
0
  6
ByLayer
 62
  256
370
   -1
100
AcDbLine
 10
93.09272355820193
 20
7.550269485576732
 11
93.09272355820193
 21
26.55026948557673
  0
LINE
  5
71
100
AcDbEntity
  8
0
  6
ByLayer
 62
  256
370
   -1
100
AcDbLine
 10
69.34272355820193
 20
7.550269485576738
 11
93.09272355820193
 21
7.550269485576732
  0
LINE
  5
72
100
AcDbEntity
  8
0
  6
ByLayer
 62
  256
370
   -1
100
AcDbLine
 10
93.09272355820193
 20
26.55026948557673
 11
69.34272355820193
 21
26.55026948557674
  0
LINE
  5
73
100
AcDbEntity
  8
0
  6
ByLayer
 62
  256
370
   -1
100
AcDbLine
 10
93.09272355820194
 20
55.05026948557673
 11
93.09272355820193
 21
26.55026948557673
  0
LINE
  5
74
100
AcDbEntity
  8
0
  6
ByLayer
 62
  256
370
   -1
100
AcDbLine
 10
93.09272355820194
 20
55.05026948557673
 11
74.09272355820194
 21
55.05026948557673
  0
LINE
  5
75
100
AcDbEntity
  8
0
  6
ByLayer
 62
  256
370
   -1
100
AcDbLine
 10
74.09272355820194
 20
55.05026948557673
 11
74.09272355820193
 21
26.55026948557674
  0
LINE
  5
76
100
AcDbEntity
  8
0
  6
ByLayer
 62
  256
370
   -1
100
AcDbLine
 10
93.09272355820194
 20
55.05026948557673
 11
112.0927235582019
 21
55.05026948557673
  0
LINE
  5
77
100
AcDbEntity
  8
0
  6
ByLayer
 62
  256
370
   -1
100
AcDbLine
 10
93.09272355820194
 20
21.80026948557673
 11
112.0927235582019
 21
21.80026948557673
  0
LINE
  5
78
100
AcDbEntity
  8
0
  6
ByLayer
 62
  256
370
   -1
100
AcDbLine
 10
93.09272355820194
 20
2.800269485576734
 11
112.0927235582019
 21
2.800269485576734
  0
LINE
  5
79
100
AcDbEntity
  8
0
  6
ByLayer
 62
  256
370
   -1
100
AcDbLine
 10
112.0927235582019
 20
55.05026948557673
 11
112.0927235582019
 21
21.80026948557673
  0
LINE
  5
7A
100
AcDbEntity
  8
0
  6
ByLayer
 62
  256
370
   -1
100
AcDbLine
 10
112.0927235582019
 20
21.80026948557673
 11
112.0927235582019
 21
2.800269485576734
  0
LINE
  5
7B
100
AcDbEntity
  8
0
  6
ByLayer
 62
  256
370
   -1
100
AcDbLine
 10
93.09272355820194
 20
2.800269485576734
 11
93.09272355820193
 21
7.550269485576732
  0
LINE
  5
7C
100
AcDbEntity
  8
0
  6
ByLayer
 62
  256
370
   -1
100
AcDbLine
 10
93.09272355820194
 20
-25.69973051442327
 11
112.0927235582019
 21
-25.69973051442327
  0
LINE
  5
7D
100
AcDbEntity
  8
0
  6
ByLayer
 62
  256
370
   -1
100
AcDbLine
 10
112.0927235582019
 20
-25.69973051442327
 11
112.0927235582019
 21
2.800269485576734
  0
LINE
  5
7E
100
AcDbEntity
  8
0
  6
ByLayer
 62
  256
370
   -1
100
AcDbLine
 10
93.09272355820194
 20
2.800269485576734
 11
93.09272355820194
 21
-25.69973051442327
  0
LINE
  5
7F
100
AcDbEntity
  8
0
  6
ByLayer
 62
  256
370
   -1
100
AcDbLine
 10
93.09272355820194
 20
-25.69973051442327
 11
74.09272355820194
 21
-25.69973051442327
  0
LINE
  5
80
100
AcDbEntity
  8
0
  6
ByLayer
 62
  256
370
   -1
100
AcDbLine
 10
74.09272355820194
 20
-25.69973051442327
 11
74.09272355820194
 21
7.550269485576734
  0
LINE
  5
81
100
AcDbEntity
  8
0
  6
ByLayer
 62
  256
370
   -1
100
AcDbLine
 10
-28.06702096084793
 20
4.948973063507501
 11
-24.76770558517626
 21
23.66032037073946
  0
LINE
  5
82
100
AcDbEntity
  8
0
  6
ByLayer
 62
  256
370
   -1
100
AcDbLine
 10
-46.77836826807989
 20
8.248288439179172
 11
-43.47905289240821
 21
26.95963574641113
  0
LINE
  5
83
100
AcDbEntity
  8
0
  6
ByLayer
 62
  256
370
   -1
100
AcDbLine
 10
0
 20
0
 11
-28.06702096084793
 21
4.948973063507501
  0
LINE
  5
84
100
AcDbEntity
  8
0
  6
ByLayer
 62
  256
370
   -1
100
AcDbLine
 10
-28.06702096084793
 20
4.948973063507501
 11
-46.77836826807989
 21
8.248288439179172
  0
LINE
  5
85
100
AcDbEntity
  8
0
  6
ByLayer
 62
  256
370
   -1
100
AcDbLine
 10
-43.47905289240821
 20
26.95963574641113
 11
-24.76770558517626
 21
23.66032037073946
  0
LINE
  5
86
100
AcDbEntity
  8
0
  6
ByLayer
 62
  256
370
   -1
100
AcDbLine
 10
-31.3663363365196
 20
-13.76237424372445
 11
-50.07768364375156
 21
-10.46305886805278
  0
LINE
  5
87
100
AcDbEntity
  8
0
  6
ByLayer
 62
  256
370
   -1
100
AcDbLine
 10
-28.06702096084793
 20
4.948973063507501
 11
-31.3663363365196
 21
-13.76237424372445
  0
LINE
  5
88
100
AcDbEntity
  8
0
  6
ByLayer
 62
  256
370
   -1
100
AcDbLine
 10
-46.77836826807989
 20
8.248288439179172
 11
-50.07768364375156
 21
-10.46305886805278
  0
LINE
  5
89
100
AcDbEntity
  8
0
  6
ByLayer
 62
  256
370
   -1
100
AcDbLine
 10
-7.977152202479655
 20
-17.88651846331403
 11
-31.3663363365196
 21
-13.76237424372445
  0
LINE
  5
8A
100
AcDbEntity
  8
0
  6
ByLayer
 62
  256
370
   -1
100
AcDbLine
 10
-39.35490867281862
 20
50.34881988045107
 11
-20.64356136558667
 21
47.0495045047794
  0
LINE
  5
8B
100
AcDbEntity
  8
0
  6
ByLayer
 62
  256
370
   -1
100
AcDbLine
 10
-43.47905289240821
 20
26.95963574641112
 11
-39.35490867281862
 21
50.34881988045107
  0
LINE
  5
8C
100
AcDbEntity
  8
0
  6
ByLayer
 62
  256
370
   -1
100
AcDbLine
 10
-20.64356136558667
 20
47.0495045047794
 11
-24.76770558517626
 21
23.66032037073946
  0
LINE
  5
8D
100
AcDbEntity
  8
0
  6
ByLayer
 62
  256
370
   -1
100
AcDbLine
 10
-1.932214058354717
 20
43.75018912910773
 11
-6.056358277944302
 21
20.36100499506779
  0
LINE
  5
8E
100
AcDbEntity
  8
0
  6
ByLayer
 62
  256
370
   -1
100
AcDbLine
 10
-1.932214058354717
 20
43.75018912910773
 11
-20.64356136558667
 21
47.0495045047794
  0
LINE
  5
8F
100
AcDbEntity
  8
0
  6
ByLayer
 62
  256
370
   -1
100
AcDbLine
 10
-50.07768364375156
 20
-10.46305886805278
 11
-68.78903095098352
 21
-7.163743492381114
  0
LINE
  5
90
100
AcDbEntity
  8
0
  6
ByLayer
 62
  256
370
   -1
100
AcDbLine
 10
-68.78903095098352
 20
-7.163743492381114
 11
-64.66488673139393
 21
16.22544064165883
  0
LINE
  5
91
100
AcDbEntity
  8
0
  6
ByLayer
 62
  256
370
   -1
100
AcDbLine
 10
-45.95353942416197
 20
12.92612526598716
 11
-69.34272355820193
 21
17.05026948557674
  0
LINE
  5
92
100
AcDbEntity
  8
0
  6
ByLayer
 62
  256
370
   -1
100
AcDbLine
 10
-69.34272355820193
 20
17.05026948557674
 11
-66.04340818253024
 21
35.76161679280869
  0
LINE
  5
93
100
AcDbEntity
  8
0
  6
ByLayer
 62
  256
370
   -1
100
AcDbLine
 10
-39.35490867281862
 20
50.34881988045107
 11
-67.42192963366655
 21
55.29779294395856
  0
LINE
  5
94
100
AcDbEntity
  8
0
  6
ByLayer
 62
  256
370
   -1
100
AcDbLine
 10
-70.72124500933823
 20
36.5864456367266
 11
-67.42192963366655
 21
55.29779294395856
  0
LINE
  5
95
100
AcDbEntity
  8
0
  6
ByLayer
 62
  256
370
   -1
100
AcDbLine
 10
-42.65422404849031
 20
31.63747257321911
 11
-70.72124500933823
 21
36.5864456367266
  0
LINE
  5
96
100
AcDbEntity
  8
0
  6
ByLayer
 62
  256
370
   -1
100
AcDbLine
 10
-53.37699901942322
 20
-29.17440617528474
 11
-72.08834632665518
 21
-25.87509079961306
  0
LINE
  5
97
100
AcDbEntity
  8
0
  6
ByLayer
 62
  256
370
   -1
100
AcDbLine
 10
-68.78903095098352
 20
-7.163743492381112
 11
-72.08834632665518
 21
-25.87509079961306
  0
LINE
  5
98
100
AcDbEntity
  8
0
  6
ByLayer
 62
  256
370
   -1
100
AcDbLine
 10
-50.07768364375156
 20
-10.46305886805278
 11
-53.37699901942322
 21
-29.17440617528474
  0
LINE
  5
99
100
AcDbEntity
  8
0
  6
ByLayer
 62
  256
370
   -1
100
AcDbLine
 10
-69.34272355820193
 20
7.55026948557674
 11
-69.34272355820193
 21
26.55026948557674
  0
LINE
  5
9A
100
AcDbEntity
  8
0
  6
ByLayer
 62
  256
370
   -1
100
AcDbLine
 10
-93.09272355820193
 20
7.550269485576732
 11
-93.09272355820193
 21
26.55026948557673
  0
LINE
  5
9B
100
AcDbEntity
  8
0
  6
ByLayer
 62
  256
370
   -1
100
AcDbLine
 10
-69.34272355820193
 20
7.55026948557674
 11
-93.09272355820193
 21
7.550269485576732
  0
LINE
  5
9C
100
AcDbEntity
  8
0
  6
ByLayer
 62
  256
370
   -1
100
AcDbLine
 10
-93.09272355820193
 20
26.55026948557673
 11
-69.34272355820193
 21
26.55026948557674
  0
LINE
  5
9D
100
AcDbEntity
  8
0
  6
ByLayer
 62
  256
370
   -1
100
AcDbLine
 10
-93.09272355820194
 20
55.05026948557673
 11
-93.09272355820193
 21
26.55026948557673
  0
LINE
  5
9E
100
AcDbEntity
  8
0
  6
ByLayer
 62
  256
370
   -1
100
AcDbLine
 10
-93.09272355820194
 20
55.05026948557673
 11
-74.09272355820194
 21
55.05026948557673
  0
LINE
  5
9F
100
AcDbEntity
  8
0
  6
ByLayer
 62
  256
370
   -1
100
AcDbLine
 10
-74.09272355820194
 20
55.05026948557673
 11
-74.09272355820193
 21
26.55026948557674
  0
LINE
  5
A0
100
AcDbEntity
  8
0
  6
ByLayer
 62
  256
370
   -1
100
AcDbLine
 10
-93.09272355820194
 20
55.05026948557673
 11
-112.0927235582019
 21
55.05026948557673
  0
LINE
  5
A1
100
AcDbEntity
  8
0
  6
ByLayer
 62
  256
370
   -1
100
AcDbLine
 10
-93.09272355820194
 20
21.80026948557673
 11
-112.0927235582019
 21
21.80026948557673
  0
LINE
  5
A2
100
AcDbEntity
  8
0
  6
ByLayer
 62
  256
370
   -1
100
AcDbLine
 10
-93.09272355820194
 20
2.800269485576735
 11
-112.0927235582019
 21
2.800269485576735
  0
LINE
  5
A3
100
AcDbEntity
  8
0
  6
ByLayer
 62
  256
370
   -1
100
AcDbLine
 10
-112.0927235582019
 20
55.05026948557673
 11
-112.0927235582019
 21
21.80026948557673
  0
LINE
  5
A4
100
AcDbEntity
  8
0
  6
ByLayer
 62
  256
370
   -1
100
AcDbLine
 10
-112.0927235582019
 20
21.80026948557673
 11
-112.0927235582019
 21
2.800269485576735
  0
LINE
  5
A5
100
AcDbEntity
  8
0
  6
ByLayer
 62
  256
370
   -1
100
AcDbLine
 10
-93.09272355820194
 20
2.800269485576735
 11
-93.09272355820193
 21
7.550269485576732
  0
LINE
  5
A6
100
AcDbEntity
  8
0
  6
ByLayer
 62
  256
370
   -1
100
AcDbLine
 10
-93.09272355820194
 20
-25.69973051442327
 11
-112.0927235582019
 21
-25.69973051442327
  0
LINE
  5
A7
100
AcDbEntity
  8
0
  6
ByLayer
 62
  256
370
   -1
100
AcDbLine
 10
-112.0927235582019
 20
-25.69973051442327
 11
-112.0927235582019
 21
2.800269485576735
  0
LINE
  5
A8
100
AcDbEntity
  8
0
  6
ByLayer
 62
  256
370
   -1
100
AcDbLine
 10
-93.09272355820194
 20
2.800269485576735
 11
-93.09272355820194
 21
-25.69973051442327
  0
LINE
  5
A9
100
AcDbEntity
  8
0
  6
ByLayer
 62
  256
370
   -1
100
AcDbLine
 10
-93.09272355820194
 20
-25.69973051442327
 11
-74.09272355820194
 21
-25.69973051442327
  0
LINE
  5
AA
100
AcDbEntity
  8
0
  6
ByLayer
 62
  256
370
   -1
100
AcDbLine
 10
-74.09272355820194
 20
-25.69973051442327
 11
-74.09272355820194
 21
7.550269485576734
  0
LINE
  5
AB
100
AcDbEntity
  8
0
  6
ByLayer
 62
  256
370
   -1
100
AcDbLine
 10
-24.76770558517626
 20
23.66032037073945
 11
-6.056358277944302
 21
20.36100499506779
  0
LINE
  5
AC
100
AcDbEntity
  8
0
  6
ByLayer
 62
  256
370
   -1
100
AcDbLine
 10
-9.355673653615977
 20
1.649657687835824
 11
-6.056358277944302
 21
20.36100499506778
  0
LINE
  5
AD
100
AcDbEntity
  8
0
  6
ByLayer
 62
  256
370
   -1
100
AcDbLine
 10
-3.552713678800501e-15
 20
-1.509903313490213e-14
 11
-3.299315375671672
 21
-18.71134730723197
  0
LINE
  5
AE
100
AcDbEntity
  8
0
  6
ByLayer
 62
  256
370
   -1
100
AcDbLine
 10
-7.977152202479665
 20
-17.88651846331405
 11
-11.27646757815133
 21
-36.59786577054601
  0
LINE
  5
AF
100
AcDbEntity
  8
0
  6
ByLayer
 62
  256
370
   -1
100
AcDbLine
 10
-7.977152202479665
 20
-17.88651846331405
 11
-3.299315375671672
 21
-18.71134730723197
  0
LINE
  5
B0
100
AcDbEntity
  8
0
  6
ByLayer
 62
  256
370
   -1
100
AcDbLine
 10
-11.27646757815133
 20
-36.59786577054601
 11
-53.37699901942322
 21
-29.17440617528474
  0
LINE
  5
B1
100
AcDbEntity
  8
mx
  6
ByLayer
 62
  256
370
   -1
100
AcDbLine
 10
-22.73980664681306
 20
20.76418054404161
 11
-8.952498104642148
 21
18.33310605670459
  0
LINE
  5
B2
100
AcDbEntity
  8
mx
  6
ByLayer
 62
  256
370
   -1
100
AcDbLine
 10
-25.17088113415009
 20
6.976872001870697
 11
-22.73980664681306
 21
20.76418054404161
  0
LINE
  5
B3
100
AcDbEntity
  8
mx
  6
ByLayer
 62
  256
370
   -1
100
AcDbLine
 10
-11.38357259197917
 20
4.545797514533678
 11
-8.952498104642148
 21
18.33310605670459
  0
LINE
  5
B4
100
AcDbEntity
  8
mx
  6
ByLayer
 62
  256
370
   -1
100
AcDbLine
 10
-11.38357259197917
 20
4.545797514533678
 11
-25.17088113415009
 21
6.976872001870697
  0
LINE
  5
B5
100
AcDbEntity
  8
mx
  6
ByLayer
 62
  256
370
   -1
100
AcDbLine
 10
-24.76770558517626
 20
23.66032037073946
 11
-9.355673653615977
 21
1.649657687835824
  0
LINE
  5
B6
100
AcDbEntity
  8
mx
  6
ByLayer
 62
  256
370
   -1
100
AcDbLine
 10
-19.02807684918243
 20
41.81444626467756
 11
-5.240768307011518
 21
39.38337177734055
  0
LINE
  5
B7
100
AcDbEntity
  8
mx
  6
ByLayer
 62
  256
370
   -1
100
AcDbLine
 10
-21.45915133651945
 20
28.02713772250666
 11
-19.02807684918243
 21
41.81444626467756
  0
LINE
  5
B8
100
AcDbEntity
  8
mx
  6
ByLayer
 62
  256
370
   -1
100
AcDbLine
 10
-7.671842794348541
 20
25.59606323516964
 11
-5.240768307011518
 21
39.38337177734055
  0
LINE
  5
B9
100
AcDbEntity
  8
mx
  6
ByLayer
 62
  256
370
   -1
100
AcDbLine
 10
-7.671842794348541
 20
25.59606323516964
 11
-21.45915133651945
 21
28.02713772250666
  0
LINE
  5
BA
100
AcDbEntity
  8
mx
  6
ByLayer
 62
  256
370
   -1
100
AcDbLine
 10
-20.64356136558667
 20
47.0495045047794
 11
-6.056358277944302
 21
20.36100499506778
  0
LINE
  5
BB
100
AcDbEntity
  8
mx
  6
ByLayer
 62
  256
370
   -1
100
AcDbLine
 10
-53.37699901942322
 20
-29.17440617528474
 11
-7.977152202479665
 21
-17.88651846331405
  0
LINE
  5
BC
100
AcDbEntity
  8
mx
  6
ByLayer
 62
  256
370
   -1
100
AcDbLine
 10
-3.552713678800501e-15
 20
-1.509903313490213e-14
 11
-31.3663363365196
 21
-13.76237424372445
  0
LINE
  5
BD
100
AcDbEntity
  8
mx
  6
ByLayer
 62
  256
370
   -1
100
AcDbLine
 10
-31.3663363365196
 20
-13.76237424372445
 11
-46.77836826807989
 21
8.248288439179172
  0
LINE
  5
BE
100
AcDbEntity
  8
mx
  6
ByLayer
 62
  256
370
   -1
100
AcDbLine
 10
-46.77836826807989
 20
8.248288439179172
 11
-24.76770558517626
 21
23.66032037073946
  0
LINE
  5
BF
100
AcDbEntity
  8
mx
  6
ByLayer
 62
  256
370
   -1
100
AcDbLine
 10
-24.76770558517626
 20
23.66032037073946
 11
-39.35490867281862
 21
50.34881988045107
  0
LINE
  5
C0
100
AcDbEntity
  8
mx
  6
ByLayer
 62
  256
370
   -1
100
AcDbLine
 10
-39.35490867281862
 20
50.34881988045107
 11
-70.72124500933822
 21
36.5864456367266
  0
LINE
  5
C1
100
AcDbEntity
  8
mx
  6
ByLayer
 62
  256
370
   -1
100
AcDbLine
 10
-66.04340818253024
 20
35.76161679280869
 11
-45.95353942416197
 21
12.92612526598716
  0
LINE
  5
C2
100
AcDbEntity
  8
mx
  6
ByLayer
 62
  256
370
   -1
100
AcDbLine
 10
-45.95353942416197
 20
12.92612526598716
 11
-68.78903095098352
 21
-7.163743492381114
  0
LINE
  5
C3
100
AcDbEntity
  8
mx
  6
ByLayer
 62
  256
370
   -1
100
AcDbLine
 10
-68.78903095098352
 20
-7.163743492381114
 11
-53.37699901942324
 21
-29.17440617528474
  0
LINE
  5
C4
100
AcDbEntity
  8
mx
  6
ByLayer
 62
  256
370
   -1
100
AcDbLine
 10
-93.09272355820194
 20
55.05026948557673
 11
-112.0927235582019
 21
21.80026948557673
  0
LINE
  5
C5
100
AcDbEntity
  8
mx
  6
ByLayer
 62
  256
370
   -1
100
AcDbLine
 10
-112.0927235582019
 20
21.80026948557673
 11
-93.09272355820194
 21
2.800269485576735
  0
LINE
  5
C6
100
AcDbEntity
  8
mx
  6
ByLayer
 62
  256
370
   -1
100
AcDbLine
 10
-93.09272355820194
 20
2.800269485576735
 11
-112.0927235582019
 21
-25.69973051442327
  0
LINE
  5
C7
100
AcDbEntity
  8
mx
  6
ByLayer
 62
  256
370
   -1
100
AcDbLine
 10
-74.09272355820194
 20
-25.69973051442327
 11
-93.09272355820193
 21
7.550269485576732
  0
LINE
  5
C8
100
AcDbEntity
  8
mx
  6
ByLayer
 62
  256
370
   -1
100
AcDbLine
 10
-93.09272355820193
 20
7.550269485576732
 11
-69.34272355820193
 21
26.55026948557674
  0
LINE
  5
C9
100
AcDbEntity
  8
mx
  6
ByLayer
 62
  256
370
   -1
100
AcDbLine
 10
-93.09272355820194
 20
55.05026948557673
 11
-74.09272355820193
 21
26.55026948557674
  0
LINE
  5
CA
100
AcDbEntity
  8
mx
  6
ByLayer
 62
  256
370
   -1
100
AcDbLine
 10
-37.73942415641439
 20
45.11376164034923
 11
-23.95211561424347
 21
42.68268715301222
  0
LINE
  5
CB
100
AcDbEntity
  8
mx
  6
ByLayer
 62
  256
370
   -1
100
AcDbLine
 10
-40.17049864375142
 20
31.32645309817832
 11
-37.73942415641439
 21
45.11376164034923
  0
LINE
  5
CC
100
AcDbEntity
  8
mx
  6
ByLayer
 62
  256
370
   -1
100
AcDbLine
 10
-26.3831901015805
 20
28.89537861084131
 11
-23.95211561424347
 21
42.68268715301222
  0
LINE
  5
CD
100
AcDbEntity
  8
mx
  6
ByLayer
 62
  256
370
   -1
100
AcDbLine
 10
-26.3831901015805
 20
28.89537861084131
 11
-40.17049864375142
 21
31.32645309817832
  0
LINE
  5
CE
100
AcDbEntity
  8
mx
  6
ByLayer
 62
  256
370
   -1
100
AcDbLine
 10
-41.45115395404502
 20
24.06349591971328
 11
-27.66384541187411
 21
21.63242143237627
  0
LINE
  5
CF
100
AcDbEntity
  8
mx
  6
ByLayer
 62
  256
370
   -1
100
AcDbLine
 10
-43.88222844138204
 20
10.27618737754237
 11
-41.45115395404502
 21
24.06349591971328
  0
LINE
  5
D0
100
AcDbEntity
  8
mx
  6
ByLayer
 62
  256
370
   -1
100
AcDbLine
 10
-30.09491989921113
 20
7.845112890205352
 11
-27.66384541187411
 21
21.63242143237627
  0
LINE
  5
D1
100
AcDbEntity
  8
mx
  6
ByLayer
 62
  256
370
   -1
100
AcDbLine
 10
-30.09491989921113
 20
7.845112890205352
 11
-43.88222844138204
 21
10.27618737754237
  0
LINE
  5
D2
100
AcDbEntity
  8
mx
  6
ByLayer
 62
  256
370
   -1
100
AcDbLine
 10
-44.75046932971669
 20
5.352148612481328
 11
-30.96316078754578
 21
2.921074125144314
  0
LINE
  5
D3
100
AcDbEntity
  8
mx
  6
ByLayer
 62
  256
370
   -1
100
AcDbLine
 10
-47.18154381705372
 20
-8.435159929689583
 11
-44.75046932971669
 21
5.352148612481328
  0
LINE
  5
D4
100
AcDbEntity
  8
mx
  6
ByLayer
 62
  256
370
   -1
100
AcDbLine
 10
-33.3942352748828
 20
-10.8662344170266
 11
-30.96316078754578
 21
2.921074125144314
  0
LINE
  5
D5
100
AcDbEntity
  8
mx
  6
ByLayer
 62
  256
370
   -1
100
AcDbLine
 10
-33.3942352748828
 20
-10.8662344170266
 11
-47.18154381705372
 21
-8.435159929689583
  0
LINE
  5
D6
100
AcDbEntity
  8
mx
  6
ByLayer
 62
  256
370
   -1
100
AcDbLine
 10
-21.36128519567675
 20
1.228004392891735
 11
-7.573976653505834
 21
-1.203070094445279
  0
LINE
  5
D7
100
AcDbEntity
  8
mx
  6
ByLayer
 62
  256
370
   -1
100
AcDbLine
 10
-23.79235968301377
 20
-12.55930414927918
 11
-21.36128519567675
 21
1.228004392891735
  0
LINE
  5
D8
100
AcDbEntity
  8
mx
  6
ByLayer
 62
  256
370
   -1
100
AcDbLine
 10
-10.00505114084286
 20
-14.9903786366162
 11
-7.573976653505834
 21
-1.203070094445279
  0
LINE
  5
D9
100
AcDbEntity
  8
mx
  6
ByLayer
 62
  256
370
   -1
100
AcDbLine
 10
-10.00505114084286
 20
-14.9903786366162
 11
-23.79235968301377
 21
-12.55930414927918
  0
LINE
  5
DA
100
AcDbEntity
  8
mx
  6
ByLayer
 62
  256
370
   -1
100
AcDbLine
 10
-60.71619386849537
 20
51.5768242733428
 11
-46.92888532632445
 21
49.14574978600579
  0
LINE
  5
DB
100
AcDbEntity
  8
mx
  6
ByLayer
 62
  256
370
   -1
100
AcDbLine
 10
-63.1472683558324
 20
37.78951573117189
 11
-60.71619386849537
 21
51.5768242733428
  0
LINE
  5
DC
100
AcDbEntity
  8
mx
  6
ByLayer
 62
  256
370
   -1
100
AcDbLine
 10
-49.35995981366148
 20
35.35844124383487
 11
-46.92888532632445
 21
49.14574978600579
  0
LINE
  5
DD
100
AcDbEntity
  8
mx
  6
ByLayer
 62
  256
370
   -1
100
AcDbLine
 10
-49.35995981366148
 20
35.35844124383487
 11
-63.1472683558324
 21
37.78951573117189
  0
LINE
  5
DE
100
AcDbEntity
  8
mx
  6
ByLayer
 62
  256
370
   -1
100
AcDbLine
 10
-61.67659083076305
 20
32.45306254415189
 11
-47.88928228859214
 21
30.02198805681488
  0
LINE
  5
DF
100
AcDbEntity
  8
mx
  6
ByLayer
 62
  256
370
   -1
100
AcDbLine
 10
-64.10766531810008
 20
18.66575400198098
 11
-61.67659083076305
 21
32.45306254415189
  0
LINE
  5
E0
100
AcDbEntity
  8
mx
  6
ByLayer
 62
  256
370
   -1
100
AcDbLine
 10
-50.32035677592916
 20
16.23467951464396
 11
-47.88928228859214
 21
30.02198805681488
  0
LINE
  5
E1
100
AcDbEntity
  8
mx
  6
ByLayer
 62
  256
370
   -1
100
AcDbLine
 10
-50.32035677592916
 20
16.23467951464396
 11
-64.10766531810008
 21
18.66575400198098
  0
LINE
  5
E2
100
AcDbEntity
  8
mx
  6
ByLayer
 62
  256
370
   -1
100
AcDbLine
 10
-63.04940221498969
 20
10.99038240155699
 11
-49.26209367281878
 21
8.559307914219978
  0
LINE
  5
E3
100
AcDbEntity
  8
mx
  6
ByLayer
 62
  256
370
   -1
100
AcDbLine
 10
-65.48047670232671
 20
-2.796926140613919
 11
-63.04940221498969
 21
10.99038240155699
  0
LINE
  5
E4
100
AcDbEntity
  8
mx
  6
ByLayer
 62
  256
370
   -1
100
AcDbLine
 10
-51.6931681601558
 20
-5.228000627950937
 11
-49.26209367281878
 21
8.559307914219978
  0
LINE
  5
E5
100
AcDbEntity
  8
mx
  6
ByLayer
 62
  256
370
   -1
100
AcDbLine
 10
-51.6931681601558
 20
-5.228000627950937
 11
-65.48047670232671
 21
-2.796926140613919
  0
LINE
  5
E6
100
AcDbEntity
  8
mx
  6
ByLayer
 62
  256
370
   -1
100
AcDbLine
 10
-66.76113201262032
 20
-10.05988331907896
 11
-52.97382347044941
 21
-12.49095780641598
  0
LINE
  5
E7
100
AcDbEntity
  8
mx
  6
ByLayer
 62
  256
370
   -1
100
AcDbLine
 10
-69.19220649995735
 20
-23.84719186124987
 11
-66.76113201262032
 21
-10.05988331907896
  0
LINE
  5
E8
100
AcDbEntity
  8
mx
  6
ByLayer
 62
  256
370
   -1
100
AcDbLine
 10
-55.40489795778643
 20
-26.27826634858689
 11
-52.97382347044941
 21
-12.49095780641598
  0
LINE
  5
E9
100
AcDbEntity
  8
mx
  6
ByLayer
 62
  256
370
   -1
100
AcDbLine
 10
-55.40489795778643
 20
-26.27826634858689
 11
-69.19220649995735
 21
-23.84719186124987
  0
LINE
  5
EA
100
AcDbEntity
  8
mx
  6
ByLayer
 62
  256
370
   -1
100
AcDbLine
 10
-36.35519263836839
 20
-15.42127080454543
 11
-22.56788409619747
 21
-17.85234529188244
  0
LINE
  5
EB
100
AcDbEntity
  8
mx
  6
ByLayer
 62
  256
370
   -1
100
AcDbLine
 10
-38.78626712570541
 20
-29.20857934671634
 11
-36.35519263836839
 21
-15.42127080454543
  0
LINE
  5
EC
100
AcDbEntity
  8
mx
  6
ByLayer
 62
  256
370
   -1
100
AcDbLine
 10
-24.9989585835345
 20
-31.63965383405336
 11
-22.56788409619747
 21
-17.85234529188244
  0
LINE
  5
ED
100
AcDbEntity
  8
mx
  6
ByLayer
 62
  256
370
   -1
100
AcDbLine
 10
-24.9989585835345
 20
-31.63965383405336
 11
-38.78626712570541
 21
-29.20857934671634
  0
LINE
  5
EE
100
AcDbEntity
  8
mx
  6
ByLayer
 62
  256
370
   -1
100
AcDbLine
 10
-95.59272355820193
 20
5.300269485576735
 11
-109.5927235582019
 21
5.300269485576735
  0
LINE
  5
EF
100
AcDbEntity
  8
mx
  6
ByLayer
 62
  256
370
   -1
100
AcDbLine
 10
-109.5927235582019
 20
19.30026948557673
 11
-109.5927235582019
 21
5.300269485576735
  0
LINE
  5
F0
100
AcDbEntity
  8
mx
  6
ByLayer
 62
  256
370
   -1
100
AcDbLine
 10
-95.59272355820193
 20
5.300269485576735
 11
-95.59272355820193
 21
19.30026948557673
  0
LINE
  5
F1
100
AcDbEntity
  8
mx
  6
ByLayer
 62
  256
370
   -1
100
AcDbLine
 10
-95.59272355820193
 20
19.30026948557673
 11
-109.5927235582019
 21
19.30026948557673
  0
LINE
  5
F2
100
AcDbEntity
  8
mx
  6
ByLayer
 62
  256
370
   -1
100
AcDbLine
 10
-74.21772355820191
 20
10.05026948557673
 11
-88.21772355820193
 21
10.05026948557673
  0
LINE
  5
F3
100
AcDbEntity
  8
mx
  6
ByLayer
 62
  256
370
   -1
100
AcDbLine
 10
-88.21772355820193
 20
24.05026948557673
 11
-88.21772355820193
 21
10.05026948557673
  0
LINE
  5
F4
100
AcDbEntity
  8
mx
  6
ByLayer
 62
  256
370
   -1
100
AcDbLine
 10
-74.21772355820191
 20
10.05026948557673
 11
-74.21772355820191
 21
24.05026948557673
  0
LINE
  5
F5
100
AcDbEntity
  8
mx
  6
ByLayer
 62
  256
370
   -1
100
AcDbLine
 10
-74.21772355820191
 20
24.05026948557673
 11
-88.21772355820193
 21
24.05026948557673
  0
LINE
  5
F6
100
AcDbEntity
  8
mx
  6
ByLayer
 62
  256
370
   -1
100
AcDbLine
 10
-76.59272355820191
 20
33.80026948557673
 11
-90.59272355820193
 21
33.80026948557673
  0
LINE
  5
F7
100
AcDbEntity
  8
mx
  6
ByLayer
 62
  256
370
   -1
100
AcDbLine
 10
-90.59272355820193
 20
47.80026948557673
 11
-90.59272355820193
 21
33.80026948557673
  0
LINE
  5
F8
100
AcDbEntity
  8
mx
  6
ByLayer
 62
  256
370
   -1
100
AcDbLine
 10
-76.59272355820191
 20
33.80026948557673
 11
-76.59272355820191
 21
47.80026948557673
  0
LINE
  5
F9
100
AcDbEntity
  8
mx
  6
ByLayer
 62
  256
370
   -1
100
AcDbLine
 10
-76.59272355820191
 20
47.80026948557673
 11
-90.59272355820193
 21
47.80026948557673
  0
LINE
  5
FA
100
AcDbEntity
  8
mx
  6
ByLayer
 62
  256
370
   -1
100
AcDbLine
 10
-95.59272355820193
 20
31.42526948557673
 11
-109.5927235582019
 21
31.42526948557673
  0
LINE
  5
FB
100
AcDbEntity
  8
mx
  6
ByLayer
 62
  256
370
   -1
100
AcDbLine
 10
-109.5927235582019
 20
45.42526948557673
 11
-109.5927235582019
 21
31.42526948557673
  0
LINE
  5
FC
100
AcDbEntity
  8
mx
  6
ByLayer
 62
  256
370
   -1
100
AcDbLine
 10
-95.59272355820193
 20
31.42526948557673
 11
-95.59272355820193
 21
45.42526948557673
  0
LINE
  5
FD
100
AcDbEntity
  8
mx
  6
ByLayer
 62
  256
370
   -1
100
AcDbLine
 10
-95.59272355820193
 20
45.42526948557673
 11
-109.5927235582019
 21
45.42526948557673
  0
LINE
  5
FE
100
AcDbEntity
  8
mx
  6
ByLayer
 62
  256
370
   -1
100
AcDbLine
 10
-95.59272355820193
 20
-18.44973051442327
 11
-109.5927235582019
 21
-18.44973051442327
  0
LINE
  5
FF
100
AcDbEntity
  8
mx
  6
ByLayer
 62
  256
370
   -1
100
AcDbLine
 10
-109.5927235582019
 20
-4.449730514423266
 11
-109.5927235582019
 21
-18.44973051442327
  0
LINE
  5
100
100
AcDbEntity
  8
mx
  6
ByLayer
 62
  256
370
   -1
100
AcDbLine
 10
-95.59272355820193
 20
-18.44973051442327
 11
-95.59272355820193
 21
-4.449730514423266
  0
LINE
  5
101
100
AcDbEntity
  8
mx
  6
ByLayer
 62
  256
370
   -1
100
AcDbLine
 10
-95.59272355820193
 20
-4.449730514423266
 11
-109.5927235582019
 21
-4.449730514423266
  0
LINE
  5
102
100
AcDbEntity
  8
mx
  6
ByLayer
 62
  256
370
   -1
100
AcDbLine
 10
-76.59272355820191
 20
-16.07473051442327
 11
-90.59272355820193
 21
-16.07473051442327
  0
LINE
  5
103
100
AcDbEntity
  8
mx
  6
ByLayer
 62
  256
370
   -1
100
AcDbLine
 10
-90.59272355820193
 20
-2.074730514423266
 11
-90.59272355820193
 21
-16.07473051442327
  0
LINE
  5
104
100
AcDbEntity
  8
mx
  6
ByLayer
 62
  256
370
   -1
100
AcDbLine
 10
-76.59272355820191
 20
-16.07473051442327
 11
-76.59272355820191
 21
-2.074730514423266
  0
LINE
  5
105
100
AcDbEntity
  8
mx
  6
ByLayer
 62
  256
370
   -1
100
AcDbLine
 10
-76.59272355820191
 20
-2.074730514423266
 11
-90.59272355820193
 21
-2.074730514423266
  0
LINE
  5
106
100
AcDbEntity
  8
mx
  6
ByLayer
 62
  256
370
   -1
100
AcDbLine
 10
19.02807684918245
 20
41.81444626467761
 11
5.240768307011541
 21
39.38337177734056
  0
LINE
  5
107
100
AcDbEntity
  8
mx
  6
ByLayer
 62
  256
370
   -1
100
AcDbLine
 10
21.4591513365195
 20
28.0271377225067
 11
19.02807684918245
 21
41.81444626467761
  0
LINE
  5
108
100
AcDbEntity
  8
mx
  6
ByLayer
 62
  256
370
   -1
100
AcDbLine
 10
7.671842794348595
 20
25.59606323516966
 11
5.240768307011541
 21
39.38337177734056
  0
LINE
  5
109
100
AcDbEntity
  8
mx
  6
ByLayer
 62
  256
370
   -1
100
AcDbLine
 10
7.671842794348595
 20
25.59606323516966
 11
21.4591513365195
 21
28.0271377225067
  0
LINE
  5
10A
100
AcDbEntity
  8
mx
  6
ByLayer
 62
  256
370
   -1
100
AcDbLine
 10
20.64356136558668
 20
47.04950450477946
 11
6.056358277944367
 21
20.36100499506779
  0
LINE
  5
10B
100
AcDbEntity
  8
mx
  6
ByLayer
 62
  256
370
   -1
100
AcDbLine
 10
31.36633633651974
 20
-13.76237424372439
 11
46.77836826807998
 21
8.248288439179275
  0
LINE
  5
10C
100
AcDbEntity
  8
mx
  6
ByLayer
 62
  256
370
   -1
100
AcDbLine
 10
46.77836826807998
 20
8.248288439179275
 11
24.76770558517631
 21
23.66032037073951
  0
LINE
  5
10D
100
AcDbEntity
  8
mx
  6
ByLayer
 62
  256
370
   -1
100
AcDbLine
 10
24.76770558517631
 20
23.66032037073951
 11
39.35490867281862
 21
50.34881988045116
  0
LINE
  5
10E
100
AcDbEntity
  8
mx
  6
ByLayer
 62
  256
370
   -1
100
AcDbLine
 10
39.35490867281862
 20
50.34881988045116
 11
70.72124500933825
 21
36.58644563672676
  0
LINE
  5
10F
100
AcDbEntity
  8
mx
  6
ByLayer
 62
  256
370
   -1
100
AcDbLine
 10
66.04340818253027
 20
35.76161679280884
 11
45.95353942416206
 21
12.92612526598726
  0
LINE
  5
110
100
AcDbEntity
  8
mx
  6
ByLayer
 62
  256
370
   -1
100
AcDbLine
 10
45.95353942416206
 20
12.92612526598726
 11
68.78903095098364
 21
-7.163743492380961
  0
LINE
  5
111
100
AcDbEntity
  8
mx
  6
ByLayer
 62
  256
370
   -1
100
AcDbLine
 10
68.78903095098364
 20
-7.163743492380961
 11
53.37699901942342
 21
-29.17440617528463
  0
LINE
  5
112
100
AcDbEntity
  8
mx
  6
ByLayer
 62
  256
370
   -1
100
AcDbLine
 10
93.09272355820193
 20
55.05026948557695
 11
112.092723558202
 21
21.80026948557698
  0
LINE
  5
113
100
AcDbEntity
  8
mx
  6
ByLayer
 62
  256
370
   -1
100
AcDbLine
 10
112.092723558202
 20
21.80026948557698
 11
93.09272355820204
 21
2.800269485576941
  0
LINE
  5
114
100
AcDbEntity
  8
mx
  6
ByLayer
 62
  256
370
   -1
100
AcDbLine
 10
93.09272355820204
 20
2.800269485576941
 11
112.0927235582021
 21
-25.69973051442302
  0
LINE
  5
115
100
AcDbEntity
  8
mx
  6
ByLayer
 62
  256
370
   -1
100
AcDbLine
 10
74.09272355820211
 20
-25.6997305144231
 11
93.09272355820202
 21
7.550269485576936
  0
LINE
  5
116
100
AcDbEntity
  8
mx
  6
ByLayer
 62
  256
370
   -1
100
AcDbLine
 10
93.09272355820202
 20
7.550269485576936
 11
69.34272355820198
 21
26.55026948557689
  0
LINE
  5
117
100
AcDbEntity
  8
mx
  6
ByLayer
 62
  256
370
   -1
100
AcDbLine
 10
93.09272355820193
 20
55.05026948557695
 11
74.09272355820198
 21
26.5502694855769
  0
LINE
  5
118
100
AcDbEntity
  8
mx
  6
ByLayer
 62
  256
370
   -1
100
AcDbLine
 10
37.7394241564144
 20
45.11376164034933
 11
23.95211561424349
 21
42.68268715301227
  0
LINE
  5
119
100
AcDbEntity
  8
mx
  6
ByLayer
 62
  256
370
   -1
100
AcDbLine
 10
40.17049864375146
 20
31.32645309817842
 11
37.7394241564144
 21
45.11376164034933
  0
LINE
  5
11A
100
AcDbEntity
  8
mx
  6
ByLayer
 62
  256
370
   -1
100
AcDbLine
 10
26.38319010158054
 20
28.89537861084136
 11
23.95211561424349
 21
42.68268715301227
  0
LINE
  5
11B
100
AcDbEntity
  8
mx
  6
ByLayer
 62
  256
370
   -1
100
AcDbLine
 10
26.38319010158054
 20
28.89537861084136
 11
40.17049864375146
 21
31.32645309817842
  0
LINE
  5
11C
100
AcDbEntity
  8
mx
  6
ByLayer
 62
  256
370
   -1
100
AcDbLine
 10
41.45115395404508
 20
24.06349591971338
 11
27.66384541187417
 21
21.63242143237633
  0
LINE
  5
11D
100
AcDbEntity
  8
mx
  6
ByLayer
 62
  256
370
   -1
100
AcDbLine
 10
43.88222844138213
 20
10.27618737754247
 11
41.45115395404508
 21
24.06349591971338
  0
LINE
  5
11E
100
AcDbEntity
  8
mx
  6
ByLayer
 62
  256
370
   -1
100
AcDbLine
 10
30.09491989921122
 20
7.845112890205419
 11
27.66384541187417
 21
21.63242143237633
  0
LINE
  5
11F
100
AcDbEntity
  8
mx
  6
ByLayer
 62
  256
370
   -1
100
AcDbLine
 10
30.09491989921122
 20
7.845112890205419
 11
43.88222844138213
 21
10.27618737754247
  0
LINE
  5
120
100
AcDbEntity
  8
mx
  6
ByLayer
 62
  256
370
   -1
100
AcDbLine
 10
44.75046932971679
 20
5.352148612481425
 11
30.96316078754588
 21
2.921074125144382
  0
LINE
  5
121
100
AcDbEntity
  8
mx
  6
ByLayer
 62
  256
370
   -1
100
AcDbLine
 10
47.18154381705385
 20
-8.43515992968948
 11
44.75046932971679
 21
5.352148612481425
  0
LINE
  5
122
100
AcDbEntity
  8
mx
  6
ByLayer
 62
  256
370
   -1
100
AcDbLine
 10
33.39423527488294
 20
-10.86623441702653
 11
30.96316078754588
 21
2.921074125144382
  0
LINE
  5
123
100
AcDbEntity
  8
mx
  6
ByLayer
 62
  256
370
   -1
100
AcDbLine
 10
33.39423527488294
 20
-10.86623441702653
 11
47.18154381705385
 21
-8.43515992968948
  0
LINE
  5
124
100
AcDbEntity
  8
mx
  6
ByLayer
 62
  256
370
   -1
100
AcDbLine
 10
60.71619386849537
 20
51.57682427334294
 11
46.92888532632445
 21
49.1457497860059
  0
LINE
  5
125
100
AcDbEntity
  8
mx
  6
ByLayer
 62
  256
370
   -1
100
AcDbLine
 10
63.14726835583242
 20
37.78951573117203
 11
60.71619386849537
 21
51.57682427334294
  0
LINE
  5
126
100
AcDbEntity
  8
mx
  6
ByLayer
 62
  256
370
   -1
100
AcDbLine
 10
49.35995981366151
 20
35.358441243835
 11
46.92888532632445
 21
49.1457497860059
  0
LINE
  5
127
100
AcDbEntity
  8
mx
  6
ByLayer
 62
  256
370
   -1
100
AcDbLine
 10
49.35995981366151
 20
35.358441243835
 11
63.14726835583242
 21
37.78951573117203
  0
LINE
  5
128
100
AcDbEntity
  8
mx
  6
ByLayer
 62
  256
370
   -1
100
AcDbLine
 10
61.67659083076309
 20
32.45306254415203
 11
47.88928228859218
 21
30.021988056815
  0
LINE
  5
129
100
AcDbEntity
  8
mx
  6
ByLayer
 62
  256
370
   -1
100
AcDbLine
 10
64.10766531810015
 20
18.66575400198112
 11
61.67659083076309
 21
32.45306254415203
  0
LINE
  5
12A
100
AcDbEntity
  8
mx
  6
ByLayer
 62
  256
370
   -1
100
AcDbLine
 10
50.32035677592924
 20
16.23467951464408
 11
47.88928228859218
 21
30.021988056815
  0
LINE
  5
12B
100
AcDbEntity
  8
mx
  6
ByLayer
 62
  256
370
   -1
100
AcDbLine
 10
50.32035677592924
 20
16.23467951464408
 11
64.10766531810015
 21
18.66575400198112
  0
LINE
  5
12C
100
AcDbEntity
  8
mx
  6
ByLayer
 62
  256
370
   -1
100
AcDbLine
 10
63.04940221498978
 20
10.99038240155713
 11
49.26209367281887
 21
8.559307914220089
  0
LINE
  5
12D
100
AcDbEntity
  8
mx
  6
ByLayer
 62
  256
370
   -1
100
AcDbLine
 10
65.48047670232683
 20
-2.796926140613775
 11
63.04940221498978
 21
10.99038240155713
  0
LINE
  5
12E
100
AcDbEntity
  8
mx
  6
ByLayer
 62
  256
370
   -1
100
AcDbLine
 10
51.69316816015592
 20
-5.228000627950825
 11
49.26209367281887
 21
8.559307914220089
  0
LINE
  5
12F
100
AcDbEntity
  8
mx
  6
ByLayer
 62
  256
370
   -1
100
AcDbLine
 10
51.69316816015592
 20
-5.228000627950825
 11
65.48047670232683
 21
-2.796926140613775
  0
LINE
  5
130
100
AcDbEntity
  8
mx
  6
ByLayer
 62
  256
370
   -1
100
AcDbLine
 10
66.76113201262045
 20
-10.05988331907882
 11
52.97382347044955
 21
-12.49095780641586
  0
LINE
  5
131
100
AcDbEntity
  8
mx
  6
ByLayer
 62
  256
370
   -1
100
AcDbLine
 10
69.19220649995751
 20
-23.84719186124972
 11
66.76113201262045
 21
-10.05988331907882
  0
LINE
  5
132
100
AcDbEntity
  8
mx
  6
ByLayer
 62
  256
370
   -1
100
AcDbLine
 10
55.4048979577866
 20
-26.27826634858677
 11
52.97382347044955
 21
-12.49095780641586
  0
LINE
  5
133
100
AcDbEntity
  8
mx
  6
ByLayer
 62
  256
370
   -1
100
AcDbLine
 10
55.4048979577866
 20
-26.27826634858677
 11
69.19220649995751
 21
-23.84719186124972
  0
LINE
  5
134
100
AcDbEntity
  8
mx
  6
ByLayer
 62
  256
370
   -1
100
AcDbLine
 10
95.59272355820202
 20
5.300269485576949
 11
109.592723558202
 21
5.300269485576981
  0
LINE
  5
135
100
AcDbEntity
  8
mx
  6
ByLayer
 62
  256
370
   -1
100
AcDbLine
 10
109.592723558202
 20
19.30026948557698
 11
109.592723558202
 21
5.300269485576981
  0
LINE
  5
136
100
AcDbEntity
  8
mx
  6
ByLayer
 62
  256
370
   -1
100
AcDbLine
 10
95.59272355820202
 20
5.300269485576949
 11
95.592723558202
 21
19.30026948557695
  0
LINE
  5
137
100
AcDbEntity
  8
mx
  6
ByLayer
 62
  256
370
   -1
100
AcDbLine
 10
95.592723558202
 20
19.30026948557695
 11
109.592723558202
 21
19.30026948557698
  0
LINE
  5
138
100
AcDbEntity
  8
mx
  6
ByLayer
 62
  256
370
   -1
100
AcDbLine
 10
74.217723558202
 20
10.0502694855769
 11
88.21772355820201
 21
10.05026948557693
  0
LINE
  5
139
100
AcDbEntity
  8
mx
  6
ByLayer
 62
  256
370
   -1
100
AcDbLine
 10
88.21772355820198
 20
24.05026948557693
 11
88.21772355820201
 21
10.05026948557693
  0
LINE
  5
13A
100
AcDbEntity
  8
mx
  6
ByLayer
 62
  256
370
   -1
100
AcDbLine
 10
74.217723558202
 20
10.0502694855769
 11
74.21772355820197
 21
24.0502694855769
  0
LINE
  5
13B
100
AcDbEntity
  8
mx
  6
ByLayer
 62
  256
370
   -1
100
AcDbLine
 10
74.21772355820197
 20
24.0502694855769
 11
88.21772355820198
 21
24.05026948557693
  0
LINE
  5
13C
100
AcDbEntity
  8
mx
  6
ByLayer
 62
  256
370
   -1
100
AcDbLine
 10
76.59272355820195
 20
33.80026948557692
 11
90.59272355820197
 21
33.80026948557693
  0
LINE
  5
13D
100
AcDbEntity
  8
mx
  6
ByLayer
 62
  256
370
   -1
100
AcDbLine
 10
90.59272355820193
 20
47.80026948557693
 11
90.59272355820197
 21
33.80026948557693
  0
LINE
  5
13E
100
AcDbEntity
  8
mx
  6
ByLayer
 62
  256
370
   -1
100
AcDbLine
 10
76.59272355820195
 20
33.80026948557692
 11
76.59272355820191
 21
47.80026948557691
  0
LINE
  5
13F
100
AcDbEntity
  8
mx
  6
ByLayer
 62
  256
370
   -1
100
AcDbLine
 10
76.59272355820191
 20
47.80026948557691
 11
90.59272355820193
 21
47.80026948557693
  0
LINE
  5
140
100
AcDbEntity
  8
mx
  6
ByLayer
 62
  256
370
   -1
100
AcDbLine
 10
95.59272355820197
 20
31.42526948557695
 11
109.592723558202
 21
31.42526948557698
  0
LINE
  5
141
100
AcDbEntity
  8
mx
  6
ByLayer
 62
  256
370
   -1
100
AcDbLine
 10
109.592723558202
 20
45.42526948557698
 11
109.592723558202
 21
31.42526948557698
  0
LINE
  5
142
100
AcDbEntity
  8
mx
  6
ByLayer
 62
  256
370
   -1
100
AcDbLine
 10
95.59272355820197
 20
31.42526948557695
 11
95.59272355820194
 21
45.42526948557696
  0
LINE
  5
143
100
AcDbEntity
  8
mx
  6
ByLayer
 62
  256
370
   -1
100
AcDbLine
 10
95.59272355820194
 20
45.42526948557696
 11
109.592723558202
 21
45.42526948557698
  0
LINE
  5
144
100
AcDbEntity
  8
mx
  6
ByLayer
 62
  256
370
   -1
100
AcDbLine
 10
95.59272355820208
 20
-18.44973051442306
 11
109.5927235582021
 21
-18.44973051442303
  0
LINE
  5
145
100
AcDbEntity
  8
mx
  6
ByLayer
 62
  256
370
   -1
100
AcDbLine
 10
109.5927235582021
 20
-4.449730514423024
 11
109.5927235582021
 21
-18.44973051442303
  0
LINE
  5
146
100
AcDbEntity
  8
mx
  6
ByLayer
 62
  256
370
   -1
100
AcDbLine
 10
95.59272355820208
 20
-18.44973051442306
 11
95.59272355820204
 21
-4.449730514423054
  0
LINE
  5
147
100
AcDbEntity
  8
mx
  6
ByLayer
 62
  256
370
   -1
100
AcDbLine
 10
95.59272355820204
 20
-4.449730514423054
 11
109.5927235582021
 21
-4.449730514423024
  0
LINE
  5
148
100
AcDbEntity
  8
mx
  6
ByLayer
 62
  256
370
   -1
100
AcDbLine
 10
76.59272355820205
 20
-16.0747305144231
 11
90.59272355820207
 21
-16.07473051442307
  0
LINE
  5
149
100
AcDbEntity
  8
mx
  6
ByLayer
 62
  256
370
   -1
100
AcDbLine
 10
90.59272355820204
 20
-2.074730514423066
 11
90.59272355820207
 21
-16.07473051442307
  0
LINE
  5
14A
100
AcDbEntity
  8
mx
  6
ByLayer
 62
  256
370
   -1
100
AcDbLine
 10
76.59272355820205
 20
-16.0747305144231
 11
76.59272355820202
 21
-2.074730514423096
  0
LINE
  5
14B
100
AcDbEntity
  8
mx
  6
ByLayer
 62
  256
370
   -1
100
AcDbLine
 10
76.59272355820202
 20
-2.074730514423096
 11
90.59272355820204
 21
-2.074730514423066
  0
LINE
  5
14C
100
AcDbEntity
  8
mx
  6
ByLayer
 62
  256
370
   -1
100
AcDbLine
 10
53.37699901942322
 20
-29.17440617528474
 11
-1.378521451136322
 21
-19.53617615114986
  0
LINE
  5
14D
100
AcDbEntity
  8
mx
  6
ByLayer
 62
  256
370
   -1
100
AcDbLine
 10
7.977152202479655
 20
-17.88651846331403
 11
28.06702096084793
 21
4.948973063507503
  0
LINE
  5
14E
100
AcDbEntity
  8
mx
  6
ByLayer
 62
  256
370
   -1
100
AcDbLine
 10
28.06702096084793
 20
4.948973063507503
 11
-3.299315375671676
 21
18.71134730723195
  0
LINE
  5
14F
100
AcDbEntity
  8
mx
  6
ByLayer
 62
  256
370
   -1
100
AcDbLine
 10
18.06196982000505
 20
19.93935170012371
 11
4.274661277834145
 21
17.50827721278667
  0
LINE
  5
150
100
AcDbEntity
  8
mx
  6
ByLayer
 62
  256
370
   -1
100
AcDbLine
 10
20.49304430734211
 20
6.152043157952807
 11
18.06196982000505
 21
19.93935170012371
  0
LINE
  5
151
100
AcDbEntity
  8
mx
  6
ByLayer
 62
  256
370
   -1
100
AcDbLine
 10
6.705735765171199
 20
3.720968670615761
 11
4.274661277834145
 21
17.50827721278667
  0
LINE
  5
152
100
AcDbEntity
  8
mx
  6
ByLayer
 62
  256
370
   -1
100
AcDbLine
 10
6.705735765171199
 20
3.720968670615761
 11
20.49304430734211
 21
6.152043157952807
  0
LINE
  5
153
100
AcDbEntity
  8
mx
  6
ByLayer
 62
  256
370
   -1
100
AcDbLine
 10
23.70020360908072
 20
1.640418814850715
 11
9.91289506690981
 21
-0.7906556724863272
  0
LINE
  5
154
100
AcDbEntity
  8
mx
  6
ByLayer
 62
  256
370
   -1
100
AcDbLine
 10
26.13127809641777
 20
-12.14688972732019
 11
23.70020360908072
 21
1.640418814850715
  0
LINE
  5
155
100
AcDbEntity
  8
mx
  6
ByLayer
 62
  256
370
   -1
100
AcDbLine
 10
12.34396955424686
 20
-14.57796421465723
 11
9.91289506690981
 21
-0.7906556724863272
  0
LINE
  5
156
100
AcDbEntity
  8
mx
  6
ByLayer
 62
  256
370
   -1
100
AcDbLine
 10
12.34396955424686
 20
-14.57796421465723
 11
26.13127809641777
 21
-12.14688972732019
  0
LINE
  5
157
100
AcDbEntity
  8
mx
  6
ByLayer
 62
  256
370
   -1
100
AcDbLine
 10
31.67735581156038
 20
-16.24609964846332
 11
17.89004726938947
 21
-18.67717413580036
  0
LINE
  5
158
100
AcDbEntity
  8
mx
  6
ByLayer
 62
  256
370
   -1
100
AcDbLine
 10
34.10843029889743
 20
-30.03340819063422
 11
31.67735581156038
 21
-16.24609964846332
  0
LINE
  5
159
100
AcDbEntity
  8
mx
  6
ByLayer
 62
  256
370
   -1
100
AcDbLine
 10
20.32112175672652
 20
-32.46448267797127
 11
17.89004726938947
 21
-18.67717413580036
  0
LINE
  5
15A
100
AcDbEntity
  8
mx
  6
ByLayer
 62
  256
370
   -1
100
AcDbLine
 10
20.32112175672652
 20
-32.46448267797127
 11
34.10843029889743
 21
-30.03340819063422
  0
LINE
  5
15B
100
AcDbEntity
  8
rpi
  6
ByLayer
 62
  256
370
   -1
100
AcDbLine
 10
-6.620000000000001
 20
-18.16
 11
8.619999999999999
 21
-18.16
  0
LINE
  5
15C
100
AcDbEntity
  8
rpi
  6
ByLayer
 62
  256
370
   -1
100
AcDbLine
 10
-6.620000000000001
 20
-15.62
 11
8.619999999999999
 21
-15.62
  0
LINE
  5
15D
100
AcDbEntity
  8
rpi
  6
ByLayer
 62
  256
370
   -1
100
AcDbLine
 10
-6.620000000000001
 20
-13.08
 11
8.619999999999999
 21
-13.08
  0
LINE
  5
15E
100
AcDbEntity
  8
rpi
  6
ByLayer
 62
  256
370
   -1
100
AcDbLine
 10
-6.62
 20
-10.54
 11
8.620000000000001
 21
-10.54
  0
LINE
  5
15F
100
AcDbEntity
  8
rpi
  6
ByLayer
 62
  256
370
   -1
100
AcDbLine
 10
-6.62
 20
-7.999999999999998
 11
8.620000000000001
 21
-8.000000000000002
  0
LINE
  5
160
100
AcDbEntity
  8
rpi
  6
ByLayer
 62
  256
370
   -1
100
AcDbLine
 10
-6.62
 20
-5.459999999999999
 11
8.620000000000001
 21
-5.460000000000003
  0
LINE
  5
161
100
AcDbEntity
  8
rpi
  6
ByLayer
 62
  256
370
   -1
100
AcDbLine
 10
-6.62
 20
-2.919999999999998
 11
8.620000000000001
 21
-2.920000000000002
  0
LINE
  5
162
100
AcDbEntity
  8
rpi
  6
ByLayer
 62
  256
370
   -1
100
AcDbLine
 10
-6.62
 20
-0.3799999999999972
 11
8.620000000000001
 21
-0.3800000000000008
  0
LINE
  5
163
100
AcDbEntity
  8
rpi
  6
ByLayer
 62
  256
370
   -1
100
AcDbLine
 10
-6.620000000000001
 20
-18.16
 11
-6.62
 21
2.160000000000002
  0
LINE
  5
164
100
AcDbEntity
  8
rpi
  6
ByLayer
 62
  256
370
   -1
100
AcDbLine
 10
-4.080000000000001
 20
-18.16
 11
-4.08
 21
2.160000000000001
  0
LINE
  5
165
100
AcDbEntity
  8
rpi
  6
ByLayer
 62
  256
370
   -1
100
AcDbLine
 10
8.619999999999999
 20
-18.16
 11
8.620000000000001
 21
2.159999999999998
  0
LINE
  5
166
100
AcDbEntity
  8
rpi
  6
ByLayer
 62
  256
370
   -1
100
AcDbLine
 10
-1.54
 20
-18.16
 11
-1.54
 21
2.160000000000001
  0
LINE
  5
167
100
AcDbEntity
  8
rpi
  6
ByLayer
 62
  256
370
   -1
100
AcDbLine
 10
0.9999999999999994
 20
-18.16
 11
1
 21
2.16
  0
LINE
  5
168
100
AcDbEntity
  8
rpi
  6
ByLayer
 62
  256
370
   -1
100
AcDbLine
 10
3.54
 20
-18.16
 11
3.54
 21
2.16
  0
LINE
  5
169
100
AcDbEntity
  8
rpi
  6
ByLayer
 62
  256
370
   -1
100
AcDbLine
 10
6.079999999999999
 20
-18.16
 11
6.08
 21
2.159999999999999
  0
LINE
  5
16A
100
AcDbEntity
  8
rpi
  6
ByLayer
 62
  256
370
   -1
100
AcDbLine
 10
-6.62
 20
2.160000000000002
 11
8.620000000000001
 21
2.159999999999998
  0
CIRCLE
  5
16B
100
AcDbEntity
  8
rpi
  6
ByLayer
 62
  256
370
   -1
100
AcDbCircle
 10
0.9999999999999994
 20
-18.16
 40
0.75
  0
CIRCLE
  5
16C
100
AcDbEntity
  8
rpi
  6
ByLayer
 62
  256
370
   -1
100
AcDbCircle
 10
3.54
 20
-18.16
 40
0.75
  0
CIRCLE
  5
16D
100
AcDbEntity
  8
rpi
  6
ByLayer
 62
  256
370
   -1
100
AcDbCircle
 10
6.079999999999999
 20
-18.16
 40
0.75
  0
CIRCLE
  5
16E
100
AcDbEntity
  8
rpi
  6
ByLayer
 62
  256
370
   -1
100
AcDbCircle
 10
8.619999999999999
 20
-18.16
 40
0.75
  0
CIRCLE
  5
16F
100
AcDbEntity
  8
rpi
  6
ByLayer
 62
  256
370
   -1
100
AcDbCircle
 10
8.619999999999999
 20
-15.62
 40
0.75
  0
CIRCLE
  5
170
100
AcDbEntity
  8
rpi
  6
ByLayer
 62
  256
370
   -1
100
AcDbCircle
 10
8.620000000000001
 20
-13.08
 40
0.75
  0
CIRCLE
  5
171
100
AcDbEntity
  8
rpi
  6
ByLayer
 62
  256
370
   -1
100
AcDbCircle
 10
8.620000000000001
 20
-10.54
 40
0.75
  0
CIRCLE
  5
172
100
AcDbEntity
  8
rpi
  6
ByLayer
 62
  256
370
   -1
100
AcDbCircle
 10
8.620000000000001
 20
-8.000000000000002
 40
0.75
  0
CIRCLE
  5
173
100
AcDbEntity
  8
rpi
  6
ByLayer
 62
  256
370
   -1
100
AcDbCircle
 10
8.620000000000001
 20
-5.460000000000003
 40
0.75
  0
CIRCLE
  5
174
100
AcDbEntity
  8
rpi
  6
ByLayer
 62
  256
370
   -1
100
AcDbCircle
 10
8.620000000000001
 20
-2.920000000000002
 40
0.75
  0
CIRCLE
  5
175
100
AcDbEntity
  8
rpi
  6
ByLayer
 62
  256
370
   -1
100
AcDbCircle
 10
8.620000000000001
 20
-0.3800000000000008
 40
0.75
  0
CIRCLE
  5
176
100
AcDbEntity
  8
rpi
  6
ByLayer
 62
  256
370
   -1
100
AcDbCircle
 10
8.620000000000001
 20
2.159999999999998
 40
0.75
  0
CIRCLE
  5
177
100
AcDbEntity
  8
rpi
  6
ByLayer
 62
  256
370
   -1
100
AcDbCircle
 10
-6.62
 20
2.160000000000002
 40
0.75
  0
CIRCLE
  5
178
100
AcDbEntity
  8
rpi
  6
ByLayer
 62
  256
370
   -1
100
AcDbCircle
 10
-6.62
 20
-0.3799999999999972
 40
0.75
  0
CIRCLE
  5
179
100
AcDbEntity
  8
rpi
  6
ByLayer
 62
  256
370
   -1
100
AcDbCircle
 10
-6.62
 20
-2.919999999999998
 40
0.75
  0
CIRCLE
  5
17A
100
AcDbEntity
  8
rpi
  6
ByLayer
 62
  256
370
   -1
100
AcDbCircle
 10
-6.62
 20
-5.459999999999999
 40
0.75
  0
CIRCLE
  5
17B
100
AcDbEntity
  8
rpi
  6
ByLayer
 62
  256
370
   -1
100
AcDbCircle
 10
-6.62
 20
-7.999999999999998
 40
0.75
  0
CIRCLE
  5
17C
100
AcDbEntity
  8
rpi
  6
ByLayer
 62
  256
370
   -1
100
AcDbCircle
 10
-6.620000000000001
 20
-10.54
 40
0.75
  0
CIRCLE
  5
17D
100
AcDbEntity
  8
rpi
  6
ByLayer
 62
  256
370
   -1
100
AcDbCircle
 10
-6.620000000000001
 20
-13.08
 40
0.75
  0
CIRCLE
  5
17E
100
AcDbEntity
  8
rpi
  6
ByLayer
 62
  256
370
   -1
100
AcDbCircle
 10
-6.620000000000001
 20
-15.62
 40
0.75
  0
CIRCLE
  5
17F
100
AcDbEntity
  8
rpi
  6
ByLayer
 62
  256
370
   -1
100
AcDbCircle
 10
-6.620000000000001
 20
-18.16
 40
0.75
  0
CIRCLE
  5
180
100
AcDbEntity
  8
rpi
  6
ByLayer
 62
  256
370
   -1
100
AcDbCircle
 10
-4.080000000000001
 20
-18.16
 40
0.75
  0
CIRCLE
  5
181
100
AcDbEntity
  8
rpi
  6
ByLayer
 62
  256
370
   -1
100
AcDbCircle
 10
-1.54
 20
-18.16
 40
0.75
  0
LINE
  5
182
100
AcDbEntity
  8
rpi
  6
ByLayer
 62
  256
370
   -1
100
AcDbLine
 10
-7.89
 20
3.430000000000002
 11
9.890000000000002
 21
3.429999999999998
  0
LINE
  5
183
100
AcDbEntity
  8
rpi
  6
ByLayer
 62
  256
370
   -1
100
AcDbLine
 10
-7.890000000000001
 20
-19.43
 11
-7.89
 21
3.430000000000002
  0
LINE
  5
184
100
AcDbEntity
  8
rpi
  6
ByLayer
 62
  256
370
   -1
100
AcDbLine
 10
9.890000000000001
 20
-19.43000000000001
 11
9.890000000000002
 21
3.429999999999998
  0
LINE
  5
185
100
AcDbEntity
  8
rpi
  6
ByLayer
 62
  256
370
   -1
100
AcDbLine
 10
-7.890000000000001
 20
-19.43
 11
9.890000000000001
 21
-19.43000000000001
  0
LINE
  5
186
100
AcDbEntity
  8
mx
  6
ByLayer
 62
  256
370
   -1
100
AcDbLine
 10
23.42876684254392
 20
28.37443407784057
 11
20.99769235520687
 21
42.16174262001147
  0
LINE
  5
187
100
AcDbEntity
  8
mx
  6
ByLayer
 62
  256
370
   -1
100
AcDbLine
 10
42.14011414977588
 20
31.67374945351228
 11
39.70903966243882
 21
45.4610579956832
  0
LINE
  5
188
100
AcDbEntity
  8
mx
  6
ByLayer
 62
  256
370
   -1
100
AcDbLine
 10
65.11688386185683
 20
38.1368120865059
 11
62.68580937451978
 21
51.92412062867681
  0
LINE
  5
189
100
AcDbEntity
  8
mx
  6
ByLayer
 62
  256
370
   -1
100
AcDbLine
 10
74.59272355820195
 20
33.80026948557691
 11
74.59272355820191
 21
47.8002694855769
  0
LINE
  5
18A
100
AcDbEntity
  8
mx
  6
ByLayer
 62
  256
370
   -1
100
AcDbLine
 10
93.59272355820197
 20
31.42526948557694
 11
93.59272355820194
 21
45.42526948557696
  0
LINE
  5
18B
100
AcDbEntity
  8
mx
  6
ByLayer
 62
  256
370
   -1
100
AcDbLine
 10
72.217723558202
 20
10.05026948557689
 11
72.21772355820197
 21
24.05026948557689
  0
LINE
  5
18C
100
AcDbEntity
  8
mx
  6
ByLayer
 62
  256
370
   -1
100
AcDbLine
 10
93.59272355820202
 20
5.300269485576945
 11
93.592723558202
 21
19.30026948557694
  0
LINE
  5
18D
100
AcDbEntity
  8
mx
  6
ByLayer
 62
  256
370
   -1
100
AcDbLine
 10
74.59272355820205
 20
-16.07473051442311
 11
74.59272355820202
 21
-2.074730514423099
  0
LINE
  5
18E
100
AcDbEntity
  8
mx
  6
ByLayer
 62
  256
370
   -1
100
AcDbLine
 10
93.59272355820208
 20
-18.44973051442307
 11
93.59272355820204
 21
-4.44973051442306
  0
LINE
  5
18F
100
AcDbEntity
  8
mx
  6
ByLayer
 62
  256
370
   -1
100
AcDbLine
 10
22.46265981336652
 20
6.499339513286673
 11
20.03158532602947
 21
20.28664805545757
  0
LINE
  5
190
100
AcDbEntity
  8
mx
  6
ByLayer
 62
  256
370
   -1
100
AcDbLine
 10
45.85184394740654
 20
10.62348373287633
 11
43.42076946006949
 21
24.41079227504724
  0
LINE
  5
191
100
AcDbEntity
  8
mx
  6
ByLayer
 62
  256
370
   -1
100
AcDbLine
 10
66.07728082412456
 20
19.01305035731499
 11
63.64620633678751
 21
32.8003588994859
  0
LINE
  5
192
100
AcDbEntity
  8
mx
  6
ByLayer
 62
  256
370
   -1
100
AcDbLine
 10
28.10089360244219
 20
-11.79959337198632
 11
25.66981911510513
 21
1.98771517018458
  0
LINE
  5
193
100
AcDbEntity
  8
mx
  6
ByLayer
 62
  256
370
   -1
100
AcDbLine
 10
49.15115932307827
 20
-8.087863574355614
 11
46.72008483574121
 21
5.699444967815291
  0
LINE
  5
194
100
AcDbEntity
  8
mx
  6
ByLayer
 62
  256
370
   -1
100
AcDbLine
 10
67.45009220835124
 20
-2.449629785279912
 11
65.01901772101419
 21
11.337678756891
  0
LINE
  5
195
100
AcDbEntity
  8
mx
  6
ByLayer
 62
  256
370
   -1
100
AcDbLine
 10
71.16182200598192
 20
-23.49989550591586
 11
68.73074751864486
 21
-9.71258696374495
  0
LINE
  5
196
100
AcDbEntity
  8
mx
  6
ByLayer
 62
  256
370
   -1
100
AcDbLine
 10
53.43528245176218
 20
-26.62556270392063
 11
51.00420796442513
 21
-12.83825416174973
  0
LINE
  5
197
100
AcDbEntity
  8
mx
  6
ByLayer
 62
  256
370
   -1
100
AcDbLine
 10
-53.43528245176201
 20
-26.62556270392075
 11
-51.00420796442499
 21
-12.83825416174984
  0
LINE
  5
198
100
AcDbEntity
  8
mx
  6
ByLayer
 62
  256
370
   -1
100
AcDbLine
 10
-71.16182200598176
 20
-23.49989550591601
 11
-68.73074751864473
 21
-9.7125869637451
  0
LINE
  5
199
100
AcDbEntity
  8
mx
  6
ByLayer
 62
  256
370
   -1
100
AcDbLine
 10
-25.76197518903819
 20
-12.21200779394532
 11
-23.33090070170116
 21
1.575300748225595
  0
LINE
  5
19A
100
AcDbEntity
  8
mx
  6
ByLayer
 62
  256
370
   -1
100
AcDbLine
 10
-49.15115932307814
 20
-8.087863574355721
 11
-46.72008483574111
 21
5.699444967815189
  0
LINE
  5
19B
100
AcDbEntity
  8
mx
  6
ByLayer
 62
  256
370
   -1
100
AcDbLine
 10
-67.45009220835112
 20
-2.449629785280058
 11
-65.01901772101411
 21
11.33767875689085
  0
LINE
  5
19C
100
AcDbEntity
  8
mx
  6
ByLayer
 62
  256
370
   -1
100
AcDbLine
 10
-66.07728082412449
 20
19.01305035731484
 11
-63.64620633678747
 21
32.80035889948575
  0
LINE
  5
19D
100
AcDbEntity
  8
mx
  6
ByLayer
 62
  256
370
   -1
100
AcDbLine
 10
-45.85184394740646
 20
10.62348373287623
 11
-43.42076946006944
 21
24.41079227504714
  0
LINE
  5
19E
100
AcDbEntity
  8
mx
  6
ByLayer
 62
  256
370
   -1
100
AcDbLine
 10
-27.1404966401745
 20
7.324168357204557
 11
-24.70942215283748
 21
21.11147689937547
  0
LINE
  5
19F
100
AcDbEntity
  8
mx
  6
ByLayer
 62
  256
370
   -1
100
AcDbLine
 10
-23.42876684254387
 20
28.37443407784052
 11
-20.99769235520685
 21
42.16174262001142
  0
LINE
  5
1A0
100
AcDbEntity
  8
mx
  6
ByLayer
 62
  256
370
   -1
100
AcDbLine
 10
-42.14011414977583
 20
31.67374945351218
 11
-39.7090396624388
 21
45.46105799568309
  0
LINE
  5
1A1
100
AcDbEntity
  8
mx
  6
ByLayer
 62
  256
370
   -1
100
AcDbLine
 10
-65.11688386185681
 20
38.13681208650575
 11
-62.68580937451978
 21
51.92412062867666
  0
LINE
  5
1A2
100
AcDbEntity
  8
mx
  6
ByLayer
 62
  256
370
   -1
100
AcDbLine
 10
-74.59272355820191
 20
33.80026948557673
 11
-74.59272355820191
 21
47.80026948557673
  0
LINE
  5
1A3
100
AcDbEntity
  8
mx
  6
ByLayer
 62
  256
370
   -1
100
AcDbLine
 10
-93.59272355820193
 20
31.42526948557673
 11
-93.59272355820193
 21
45.42526948557673
  0
LINE
  5
1A4
100
AcDbEntity
  8
mx
  6
ByLayer
 62
  256
370
   -1
100
AcDbLine
 10
-93.59272355820193
 20
5.300269485576734
 11
-93.59272355820193
 21
19.30026948557673
  0
LINE
  5
1A5
100
AcDbEntity
  8
mx
  6
ByLayer
 62
  256
370
   -1
100
AcDbLine
 10
-72.21772355820191
 20
10.05026948557673
 11
-72.21772355820191
 21
24.05026948557673
  0
LINE
  5
1A6
100
AcDbEntity
  8
mx
  6
ByLayer
 62
  256
370
   -1
100
AcDbLine
 10
-93.59272355820193
 20
-18.44973051442327
 11
-93.59272355820193
 21
-4.449730514423266
  0
LINE
  5
1A7
100
AcDbEntity
  8
mx
  6
ByLayer
 62
  256
370
   -1
100
AcDbLine
 10
-74.59272355820191
 20
-16.07473051442327
 11
-74.59272355820191
 21
-2.074730514423266
  0
ARC
  5
1A8
100
AcDbEntity
  8
edgecut
  6
ByLayer
 62
  256
370
   -1
100
AcDbCircle
 10
-110.0927235582019
 20
53.05026948557673
 40
3
100
AcDbArc
 50
90
 51
180
  0
LINE
  5
1A9
100
AcDbEntity
  8
edgecut
  6
ByLayer
 62
  256
370
   -1
100
AcDbLine
 10
-113.0927235582019
 20
53.05026948557673
 11
-113.0927235582019
 21
-23.69973051442327
  0
ARC
  5
1AA
100
AcDbEntity
  8
edgecut
  6
ByLayer
 62
  256
370
   -1
100
AcDbCircle
 10
-110.0927235582019
 20
-23.69973051442327
 40
3
100
AcDbArc
 50
180
 51
270
  0
LINE
  5
1AB
100
AcDbEntity
  8
edgecut
  6
ByLayer
 62
  256
370
   -1
100
AcDbLine
 10
-73.170352587461
 20
-26.69973051442327
 11
-110.0927235582019
 21
-26.69973051442327
  0
LINE
  5
1AC
100
AcDbEntity
  8
edgecut
  6
ByLayer
 62
  256
370
   -1
100
AcDbLine
 10
0
 20
44.42491427000135
 11
65.93066568069099
 21
56.05026948557673
  0
LINE
  5
1AD
100
AcDbEntity
  8
edgecut
  6
ByLayer
 62
  256
370
   -1
100
AcDbLine
 10
73.170352587461
 20
-26.69973051442327
 11
110.0927235582019
 21
-26.69973051442327
  0
ARC
  5
1AE
100
AcDbEntity
  8
edgecut
  6
ByLayer
 62
  256
370
   -1
100
AcDbCircle
 10
110.0927235582019
 20
-23.69973051442327
 40
3
100
AcDbArc
 50
270
 51
0
  0
LINE
  5
1AF
100
AcDbEntity
  8
edgecut
  6
ByLayer
 62
  256
370
   -1
100
AcDbLine
 10
65.93066568069099
 20
56.05026948557673
 11
110.0927235582019
 21
56.05026948557673
  0
LINE
  5
1B0
100
AcDbEntity
  8
edgecut
  6
ByLayer
 62
  256
370
   -1
100
AcDbLine
 10
113.0927235582019
 20
-23.69973051442327
 11
113.0927235582019
 21
53.05026948557673
  0
ARC
  5
1B1
100
AcDbEntity
  8
edgecut
  6
ByLayer
 62
  256
370
   -1
100
AcDbCircle
 10
110.0927235582019
 20
53.05026948557673
 40
3
100
AcDbArc
 50
0
 51
90
  0
LINE
  5
1B2
100
AcDbEntity
  8
edgecut
  6
ByLayer
 62
  256
370
   -1
100
AcDbLine
 10
0
 20
44.42491427000135
 11
-65.93066568069088
 21
56.05026948557673
  0
LINE
  5
1B3
100
AcDbEntity
  8
edgecut
  6
ByLayer
 62
  256
370
   -1
100
AcDbLine
 10
-65.93066568069088
 20
56.05026948557673
 11
-110.0927235582019
 21
56.05026948557673
  0
LINE
  5
1B4
100
AcDbEntity
  8
edgecut
  6
ByLayer
 62
  256
370
   -1
100
AcDbLine
 10
-7.679564407679095
 20
-38.24752345838182
 11
-73.170352587461
 21
-26.69973051442327
  0
LINE
  5
1B5
100
AcDbEntity
  8
edgecut
  6
ByLayer
 62
  256
370
   -1
100
AcDbLine
 10
7.679564407679095
 20
-38.24752345838182
 11
-7.679564407679095
 21
-38.24752345838182
  0
LINE
  5
1B6
100
AcDbEntity
  8
edgecut
  6
ByLayer
 62
  256
370
   -1
100
AcDbLine
 10
7.679564407679095
 20
-38.24752345838182
 11
73.170352587461
 21
-26.69973051442327
  0
CIRCLE
  5
1B7
100
AcDbEntity
  8
percage
  6
ByLayer
 62
  256
370
   -1
100
AcDbCircle
 10
110.0927235582019
 20
53.05026948557673
 40
1.1
  0
CIRCLE
  5
1B8
100
AcDbEntity
  8
percage
  6
ByLayer
 62
  256
370
   -1
100
AcDbCircle
 10
110.0927235582019
 20
-23.69973051442327
 40
1.1
  0
CIRCLE
  5
1B9
100
AcDbEntity
  8
percage
  6
ByLayer
 62
  256
370
   -1
100
AcDbCircle
 10
-110.0927235582019
 20
-23.69973051442327
 40
1.1
  0
CIRCLE
  5
1BA
100
AcDbEntity
  8
percage
  6
ByLayer
 62
  256
370
   -1
100
AcDbCircle
 10
0
 20
-30
 40
1.1
  0
ENDSEC
  0
SECTION
  2
OBJECTS
  0
DICTIONARY
  5
C
330
0
100
AcDbDictionary
281
    1
  3
ACAD_GROUP
350
D
  0
DICTIONARY
  5
D
330
C
100
AcDbDictionary
281
    1
  0
PLOTSETTINGS
  5
1BB
100
AcDbPlotSettings
  6
1x1
 40
0
 41
0
 42
0
 43
0
  0
ENDSEC
  0
EOF
