999
dxfrw 0.6.3
  0
SECTION
  2
HEADER
  9
$ACADVER
  1
AC1021
  9
$DWGCODEPAGE
  3
ANSI_1252
  9
$INSBASE
 10
0
 20
0
 30
0
  9
$EXTMIN
 10
-144.0999445532284
 20
-63.83589592583096
 30
0
  9
$EXTMAX
 10
144.0999445532284
 20
74.3781190136071
 30
0
  9
$LIMMIN
 10
0
 20
0
  9
$LIMMAX
 10
420
 20
297
  9
$ORTHOMODE
 70
    0
  9
$REGENMODE
 70
    1
  9
$FILLMODE
 70
    1
  9
$QTEXTMODE
 70
    0
  9
$MIRRTEXT
 70
    0
  9
$LTSCALE
 40
1
  9
$ATTMODE
 70
    0
  9
$TEXTSIZE
 40
2.5
  9
$TRACEWID
 40
15.68
  9
$TEXTSTYLE
  7
STANDARD
  9
$CLAYER
  8
decoup
  9
$CELTYPE
  6
BYLAYER
  9
$CECOLOR
 62
  256
  9
$CELTSCALE
 40
1
  9
$DISPSILH
 70
    0
  9
$DIMSCALE
 40
2.5
  9
$DIMASZ
 40
2.5
  9
$DIMEXO
 40
0.625
  9
$DIMDLI
 40
3.75
  9
$DIMRND
 40
0
  9
$DIMDLE
 40
0
  9
$DIMEXE
 40
1.25
  9
$DIMTP
 40
0
  9
$DIMTM
 40
0
  9
$DIMTXT
 40
2.5
  9
$DIMCEN
 40
2.5
  9
$DIMTSZ
 40
0
  9
$DIMTOL
 70
    0
  9
$DIMLIM
 70
    0
  9
$DIMTIH
 70
    0
  9
$DIMTOH
 70
    0
  9
$DIMSE1
 70
    0
  9
$DIMSE2
 70
    0
  9
$DIMTAD
 70
    1
  9
$DIMZIN
 70
    8
  9
$DIMBLK
  1

  9
$DIMASO
 70
    1
  9
$DIMSHO
 70
    1
  9
$DIMPOST
  1

  9
$DIMAPOST
  1

  9
$DIMALT
 70
    0
  9
$DIMALTD
 70
    3
  9
$DIMALTF
 40
0.03937
  9
$DIMLFAC
 40
1
  9
$DIMTOFL
 70
    1
  9
$DIMTVP
 40
0
  9
$DIMTIX
 70
    0
  9
$DIMSOXD
 70
    0
  9
$DIMSAH
 70
    0
  9
$DIMBLK1
  1

  9
$DIMBLK2
  1

  9
$DIMSTYLE
  2
Standard
  9
$DIMCLRD
 70
    0
  9
$DIMCLRE
 70
    0
  9
$DIMCLRT
 70
    0
  9
$DIMTFAC
 40
1
  9
$DIMGAP
 40
0.625
  9
$DIMJUST
 70
    0
  9
$DIMSD1
 70
    0
  9
$DIMSD2
 70
    0
  9
$DIMTOLJ
 70
    0
  9
$DIMTZIN
 70
    8
  9
$DIMALTZ
 70
    0
  9
$DIMALTTZ
 70
    0
  9
$DIMUPT
 70
    0
  9
$DIMDEC
 70
    2
  9
$DIMTDEC
 70
    2
  9
$DIMALTU
 70
    2
  9
$DIMALTTD
 70
    3
  9
$DIMTXSTY
  7
STANDARD
  9
$DIMAUNIT
 70
    0
  9
$DIMADEC
 70
    0
  9
$DIMALTRND
 40
0
  9
$DIMAZIN
 70
    0
  9
$DIMDSEP
 70
   44
  9
$DIMATFIT
 70
    3
  9
$DIMFRAC
 70
    0
  9
$DIMLDRBLK
  1
STANDARD
  9
$DIMLUNIT
 70
    2
  9
$DIMLWD
 70
   -2
  9
$DIMLWE
 70
   -2
  9
$DIMTMOVE
 70
    0
  9
$DIMFXL
 40
1
  9
$DIMFXLON
 70
    0
  9
$DIMJOGANG
 40
0.7854
  9
$DIMTFILL
 70
    0
  9
$DIMTFILLCLR
 70
    0
  9
$DIMARCSYM
 70
    0
  9
$DIMLTYPE
  6

  9
$DIMLTEX1
  6

  9
$DIMLTEX2
  6

  9
$LUNITS
 70
    2
  9
$LUPREC
 70
    4
  9
$SKETCHINC
 40
1
  9
$FILLETRAD
 40
0
  9
$AUNITS
 70
    0
  9
$AUPREC
 70
    2
  9
$MENU
  1
.
  9
$ELEVATION
 40
0
  9
$PELEVATION
 40
0
  9
$THICKNESS
 40
0
  9
$LIMCHECK
 70
    0
  9
$CHAMFERA
 40
0
  9
$CHAMFERB
 40
0
  9
$CHAMFERC
 40
0
  9
$CHAMFERD
 40
0
  9
$SKPOLY
 70
    0
  9
$USRTIMER
 70
    1
  9
$ANGBASE
 50
0
  9
$ANGDIR
 70
    0
  9
$PDMODE
 70
   34
  9
$PDSIZE
 40
0
  9
$PLINEWID
 40
0
  9
$SPLFRAME
 70
    0
  9
$SPLINETYPE
 70
    2
  9
$SPLINESEGS
 70
    8
  9
$HANDSEED
  5
20000
  9
$SURFTAB1
 70
    6
  9
$SURFTAB2
 70
    6
  9
$SURFTYPE
 70
    6
  9
$SURFU
 70
    6
  9
$SURFV
 70
    6
  9
$UCSBASE
  2

  9
$UCSNAME
  2

  9
$UCSORG
 10
0
 20
0
 30
0
  9
$UCSXDIR
 10
1
 20
0
 30
0
  9
$UCSYDIR
 10
0
 20
1
 30
0
  9
$UCSORTHOREF
  2

  9
$UCSORTHOVIEW
 70
    0
  9
$UCSORGTOP
 10
0
 20
0
 30
0
  9
$UCSORGBOTTOM
 10
0
 20
0
 30
0
  9
$UCSORGLEFT
 10
0
 20
0
 30
0
  9
$UCSORGRIGHT
 10
0
 20
0
 30
0
  9
$UCSORGFRONT
 10
0
 20
0
 30
0
  9
$UCSORGBACK
 10
0
 20
0
 30
0
  9
$PUCSBASE
  2

  9
$PUCSNAME
  2

  9
$PUCSORG
 10
0
 20
0
 30
0
  9
$PUCSXDIR
 10
1
 20
0
 30
0
  9
$PUCSYDIR
 10
0
 20
1
 30
0
  9
$PUCSORTHOREF
  2

  9
$PUCSORTHOVIEW
 70
    0
  9
$PUCSORGTOP
 10
0
 20
0
 30
0
  9
$PUCSORGBOTTOM
 10
0
 20
0
 30
0
  9
$PUCSORGLEFT
 10
0
 20
0
 30
0
  9
$PUCSORGRIGHT
 10
0
 20
0
 30
0
  9
$PUCSORGFRONT
 10
0
 20
0
 30
0
  9
$PUCSORGBACK
 10
0
 20
0
 30
0
  9
$USERI1
 70
    0
  9
$USERI2
 70
    0
  9
$USERI3
 70
    0
  9
$USERI4
 70
    0
  9
$USERI5
 70
    0
  9
$USERR1
 40
0
  9
$USERR2
 40
0
  9
$USERR3
 40
0
  9
$USERR4
 40
0
  9
$USERR5
 40
0
  9
$WORLDVIEW
 70
    1
  9
$SHADEDGE
 70
    3
  9
$SHADEDIF
 70
   70
  9
$TILEMODE
 70
    1
  9
$MAXACTVP
 70
   64
  9
$PINSBASE
 10
0
 20
0
 30
0
  9
$PLIMCHECK
 70
    0
  9
$PEXTMIN
 10
0
 20
0
 30
0
  9
$PEXTMAX
 10
0
 20
0
 30
0
  9
$GRIDMODE
 70
    1
  9
$SNAPSTYLE
 70
    0
  9
$PLIMMIN
 10
0
 20
0
  9
$PLIMMAX
 10
210
 20
297
  9
$UNITMODE
 70
    0
  9
$VISRETAIN
 70
    1
  9
$PLINEGEN
 70
    0
  9
$PSLTSCALE
 70
    1
  9
$TREEDEPTH
 70
 3020
  9
$CMLSTYLE
  2
Standard
  9
$CMLJUST
 70
    0
  9
$CMLSCALE
 40
20
  9
$PROXYGRAPHICS
 70
    1
  9
$MEASUREMENT
 70
    1
  9
$CELWEIGHT
370
   -1
  9
$ENDCAPS
280
    0
  9
$JOINSTYLE
280
    0
  9
$LWDISPLAY
290
    0
  9
$INSUNITS
 70
    4
  9
$HYPERLINKBASE
  1

  9
$STYLESHEET
  1

  9
$XEDIT
290
    1
  9
$CEPSNTYPE
380
    0
  9
$PSTYLEMODE
290
    1
  9
$EXTNAMES
290
    1
  9
$PSVPSCALE
 40
1
  9
$OLESTARTUP
290
    0
  9
$SORTENTS
280
  127
  9
$INDEXCTL
280
    0
  9
$HIDETEXT
280
    1
  9
$XCLIPFRAME
290
    0
  9
$HALOGAP
280
    0
  9
$OBSCOLOR
 70
  257
  9
$OBSLTYPE
280
    0
  9
$INTERSECTIONDISPLAY
280
    0
  9
$INTERSECTIONCOLOR
 70
  257
  9
$DIMASSOC
280
    1
  9
$PROJECTNAME
  1

  9
$CAMERADISPLAY
290
    0
  9
$LENSLENGTH
 40
50
  9
$CAMERAHEIGHT
 40
0
  9
$STEPSPERSEC
 40
2
  9
$STEPSIZE
 40
50
  9
$3DDWFPREC
 40
2
  9
$PSOLWIDTH
 40
5
  9
$PSOLHEIGHT
 40
80
  9
$LOFTANG1
 40
1.570796326794897
  9
$LOFTANG2
 40
1.570796326794897
  9
$LOFTMAG1
 40
0
  9
$LOFTMAG2
 40
0
  9
$LOFTPARAM
 70
    7
  9
$LOFTNORMALS
280
    1
  9
$LATITUDE
 40
1
  9
$LONGITUDE
 40
1
  9
$NORTHDIRECTION
 40
0
  9
$TIMEZONE
 70
-8000
  9
$LIGHTGLYPHDISPLAY
280
    1
  9
$TILEMODELIGHTSYNCH
280
    1
  9
$SOLIDHIST
280
    1
  9
$SHOWHIST
280
    1
  9
$DWFFRAME
280
    2
  9
$DGNFRAME
280
    0
  9
$REALWORLDSCALE
290
    1
  9
$INTERFERECOLOR
 62
    1
  9
$CSHADOW
280
    0
  9
$SHADOWPLANELOCATION
 40
0
  0
ENDSEC
  0
SECTION
  2
CLASSES
  0
ENDSEC
  0
SECTION
  2
TABLES
  0
TABLE
  2
VPORT
  5
8
330
0
100
AcDbSymbolTable
 70
    1
  0
VPORT
  5
31
330
2
100
AcDbSymbolTableRecord
100
AcDbViewportTableRecord
  2
*ACTIVE
 70
    0
 10
0
 20
0
 11
1
 21
1
 12
73.38670645614322
 22
54.27140768887823
 13
0
 23
0
 14
10
 24
10
 15
10
 25
10
 16
0
 26
0
 36
1
 17
0
 27
0
 37
0
 40
206.3917573192807
 41
1.422279792746114
 42
50
 43
0
 44
0
 50
0
 51
0
 71
    0
 72
  100
 73
    1
 74
    3
 75
    0
 76
    1
 77
    0
 78
    0
281
    0
 65
    1
110
0
120
0
130
0
111
1
121
0
131
0
112
0
122
1
132
0
 79
    0
146
0
348
10020
 60
    7
 61
    5
292
1
282
    1
141
0
142
0
 63
  250
421
3358443
  0
ENDTAB
  0
TABLE
  2
LTYPE
  5
5
330
0
100
AcDbSymbolTable
 70
    4
  0
LTYPE
  5
14
330
5
100
AcDbSymbolTableRecord
100
AcDbLinetypeTableRecord
  2
ByBlock
 70
    0
  3

 72
   65
 73
    0
 40
0
  0
LTYPE
  5
15
330
5
100
AcDbSymbolTableRecord
100
AcDbLinetypeTableRecord
  2
ByLayer
 70
    0
  3

 72
   65
 73
    0
 40
0
  0
LTYPE
  5
16
330
5
100
AcDbSymbolTableRecord
100
AcDbLinetypeTableRecord
  2
Continuous
 70
    0
  3
Solid line
 72
   65
 73
    0
 40
0
  0
LTYPE
  5
32
330
5
100
AcDbSymbolTableRecord
100
AcDbLinetypeTableRecord
  2
DOT
 70
    0
  3
Dot . . . . . . . . . . . . . . . . . . . . . .
 72
   65
 73
    2
 40
6.35
 49
0
 74
    0
 49
-6.35
 74
    0
  0
LTYPE
  5
33
330
5
100
AcDbSymbolTableRecord
100
AcDbLinetypeTableRecord
  2
DOTTINY
 70
    0
  3
Dot (.15x) .....................................
 72
   65
 73
    2
 40
0.9525
 49
0
 74
    0
 49
-0.9525
 74
    0
  0
LTYPE
  5
34
330
5
100
AcDbSymbolTableRecord
100
AcDbLinetypeTableRecord
  2
DOT2
 70
    0
  3
Dot (.5x) .....................................
 72
   65
 73
    2
 40
3.175
 49
0
 74
    0
 49
-3.175
 74
    0
  0
LTYPE
  5
35
330
5
100
AcDbSymbolTableRecord
100
AcDbLinetypeTableRecord
  2
DOTX2
 70
    0
  3
Dot (2x) .  .  .  .  .  .  .  .  .  .  .  .  .
 72
   65
 73
    2
 40
12.7
 49
0
 74
    0
 49
-12.7
 74
    0
  0
LTYPE
  5
36
330
5
100
AcDbSymbolTableRecord
100
AcDbLinetypeTableRecord
  2
DASHED
 70
    0
  3
Dashed _ _ _ _ _ _ _ _ _ _ _ _ _ _ _ _ _
 72
   65
 73
    2
 40
19.05
 49
12.7
 74
    0
 49
-6.35
 74
    0
  0
LTYPE
  5
37
330
5
100
AcDbSymbolTableRecord
100
AcDbLinetypeTableRecord
  2
DASHEDTINY
 70
    0
  3
Dashed (.15x) _ _ _ _ _ _ _ _ _ _ _ _ _ _ _ _ _
 72
   65
 73
    2
 40
2.8575
 49
1.905
 74
    0
 49
-0.9525
 74
    0
  0
LTYPE
  5
38
330
5
100
AcDbSymbolTableRecord
100
AcDbLinetypeTableRecord
  2
DASHED2
 70
    0
  3
Dashed (.5x) _ _ _ _ _ _ _ _ _ _ _ _ _ _ _ _ _
 72
   65
 73
    2
 40
9.524999999999999
 49
6.35
 74
    0
 49
-3.175
 74
    0
  0
LTYPE
  5
39
330
5
100
AcDbSymbolTableRecord
100
AcDbLinetypeTableRecord
  2
DASHEDX2
 70
    0
  3
Dashed (2x) ____  ____  ____  ____  ____  ___
 72
   65
 73
    2
 40
38.09999999999999
 49
25.4
 74
    0
 49
-12.7
 74
    0
  0
LTYPE
  5
3A
330
5
100
AcDbSymbolTableRecord
100
AcDbLinetypeTableRecord
  2
DASHDOT
 70
    0
  3
Dash dot __ . __ . __ . __ . __ . __ . __ . __
 72
   65
 73
    4
 40
25.4
 49
12.7
 74
    0
 49
-6.35
 74
    0
 49
0
 74
    0
 49
-6.35
 74
    0
  0
LTYPE
  5
3B
330
5
100
AcDbSymbolTableRecord
100
AcDbLinetypeTableRecord
  2
DASHDOTTINY
 70
    0
  3
Dash dot (.15x) _._._._._._._._._._._._._._._.
 72
   65
 73
    4
 40
3.81
 49
1.905
 74
    0
 49
-0.9525
 74
    0
 49
0
 74
    0
 49
-0.9525
 74
    0
  0
LTYPE
  5
3C
330
5
100
AcDbSymbolTableRecord
100
AcDbLinetypeTableRecord
  2
DASHDOT2
 70
    0
  3
Dash dot (.5x) _._._._._._._._._._._._._._._.
 72
   65
 73
    4
 40
12.7
 49
6.35
 74
    0
 49
-3.175
 74
    0
 49
0
 74
    0
 49
-3.175
 74
    0
  0
LTYPE
  5
3D
330
5
100
AcDbSymbolTableRecord
100
AcDbLinetypeTableRecord
  2
DASHDOTX2
 70
    0
  3
Dash dot (2x) ____  .  ____  .  ____  .  ___
 72
   65
 73
    4
 40
50.8
 49
25.4
 74
    0
 49
-12.7
 74
    0
 49
0
 74
    0
 49
-12.7
 74
    0
  0
LTYPE
  5
3E
330
5
100
AcDbSymbolTableRecord
100
AcDbLinetypeTableRecord
  2
DIVIDE
 70
    0
  3
Divide ____ . . ____ . . ____ . . ____ . . ____
 72
   65
 73
    6
 40
31.75
 49
12.7
 74
    0
 49
-6.35
 74
    0
 49
0
 74
    0
 49
-6.35
 74
    0
 49
0
 74
    0
 49
-6.35
 74
    0
  0
LTYPE
  5
3F
330
5
100
AcDbSymbolTableRecord
100
AcDbLinetypeTableRecord
  2
DIVIDETINY
 70
    0
  3
Divide (.15x) __..__..__..__..__..__..__..__.._
 72
   65
 73
    6
 40
4.7625
 49
1.905
 74
    0
 49
-0.9525
 74
    0
 49
0
 74
    0
 49
-0.9525
 74
    0
 49
0
 74
    0
 49
-0.9525
 74
    0
  0
LTYPE
  5
40
330
5
100
AcDbSymbolTableRecord
100
AcDbLinetypeTableRecord
  2
DIVIDE2
 70
    0
  3
Divide (.5x) __..__..__..__..__..__..__..__.._
 72
   65
 73
    6
 40
15.875
 49
6.35
 74
    0
 49
-3.175
 74
    0
 49
0
 74
    0
 49
-3.175
 74
    0
 49
0
 74
    0
 49
-3.175
 74
    0
  0
LTYPE
  5
41
330
5
100
AcDbSymbolTableRecord
100
AcDbLinetypeTableRecord
  2
DIVIDEX2
 70
    0
  3
Divide (2x) ________  .  .  ________  .  .  _
 72
   65
 73
    6
 40
63.5
 49
25.4
 74
    0
 49
-12.7
 74
    0
 49
0
 74
    0
 49
-12.7
 74
    0
 49
0
 74
    0
 49
-12.7
 74
    0
  0
LTYPE
  5
42
330
5
100
AcDbSymbolTableRecord
100
AcDbLinetypeTableRecord
  2
BORDER
 70
    0
  3
Border __ __ . __ __ . __ __ . __ __ . __ __ .
 72
   65
 73
    6
 40
44.45
 49
12.7
 74
    0
 49
-6.35
 74
    0
 49
12.7
 74
    0
 49
-6.35
 74
    0
 49
0
 74
    0
 49
-6.35
 74
    0
  0
LTYPE
  5
43
330
5
100
AcDbSymbolTableRecord
100
AcDbLinetypeTableRecord
  2
BORDERTINY
 70
    0
  3
Border (.15x) __.__.__.__.__.__.__.__.__.__.__.
 72
   65
 73
    6
 40
6.6675
 49
1.905
 74
    0
 49
-0.9525
 74
    0
 49
1.905
 74
    0
 49
-0.9525
 74
    0
 49
0
 74
    0
 49
-0.9525
 74
    0
  0
LTYPE
  5
44
330
5
100
AcDbSymbolTableRecord
100
AcDbLinetypeTableRecord
  2
BORDER2
 70
    0
  3
Border (.5x) __.__.__.__.__.__.__.__.__.__.__.
 72
   65
 73
    6
 40
22.225
 49
6.35
 74
    0
 49
-3.175
 74
    0
 49
6.35
 74
    0
 49
-3.175
 74
    0
 49
0
 74
    0
 49
-3.175
 74
    0
  0
LTYPE
  5
45
330
5
100
AcDbSymbolTableRecord
100
AcDbLinetypeTableRecord
  2
BORDERX2
 70
    0
  3
Border (2x) ____  ____  .  ____  ____  .  ___
 72
   65
 73
    6
 40
88.89999999999999
 49
25.4
 74
    0
 49
-12.7
 74
    0
 49
25.4
 74
    0
 49
-12.7
 74
    0
 49
0
 74
    0
 49
-12.7
 74
    0
  0
LTYPE
  5
46
330
5
100
AcDbSymbolTableRecord
100
AcDbLinetypeTableRecord
  2
CENTER
 70
    0
  3
Center ____ _ ____ _ ____ _ ____ _ ____ _ ____
 72
   65
 73
    4
 40
50.8
 49
31.75
 74
    0
 49
-6.35
 74
    0
 49
6.35
 74
    0
 49
-6.35
 74
    0
  0
LTYPE
  5
47
330
5
100
AcDbSymbolTableRecord
100
AcDbLinetypeTableRecord
  2
CENTERTINY
 70
    0
  3
Center (.15x) ___ _ ___ _ ___ _ ___ _ ___ _ ___
 72
   65
 73
    4
 40
7.619999999999999
 49
4.7625
 74
    0
 49
-0.9525
 74
    0
 49
0.9525
 74
    0
 49
-0.9525
 74
    0
  0
LTYPE
  5
48
330
5
100
AcDbSymbolTableRecord
100
AcDbLinetypeTableRecord
  2
CENTER2
 70
    0
  3
Center (.5x) ___ _ ___ _ ___ _ ___ _ ___ _ ___
 72
   65
 73
    4
 40
28.575
 49
19.05
 74
    0
 49
-3.175
 74
    0
 49
3.175
 74
    0
 49
-3.175
 74
    0
  0
LTYPE
  5
49
330
5
100
AcDbSymbolTableRecord
100
AcDbLinetypeTableRecord
  2
CENTERX2
 70
    0
  3
Center (2x) ________  __  ________  __  _____
 72
   65
 73
    4
 40
101.6
 49
63.5
 74
    0
 49
-12.7
 74
    0
 49
12.7
 74
    0
 49
-12.7
 74
    0
  0
ENDTAB
  0
TABLE
  2
LAYER
  5
2
330
0
100
AcDbSymbolTable
 70
    1
  0
LAYER
  5
10
330
2
100
AcDbSymbolTableRecord
100
AcDbLayerTableRecord
  2
0
 70
    4
 62
    7
  6
CONTINUOUS
370
    0
390
F
  0
LAYER
  5
4A
330
2
100
AcDbSymbolTableRecord
100
AcDbLayerTableRecord
  2
ajour
 70
    4
 62
    6
  6
CONTINUOUS
370
    0
390
F
  0
LAYER
  5
4B
330
2
100
AcDbSymbolTableRecord
100
AcDbLayerTableRecord
  2
decoup
 70
    0
 62
    6
  6
CONTINUOUS
370
    0
390
F
  0
LAYER
  5
4C
330
2
100
AcDbSymbolTableRecord
100
AcDbLayerTableRecord
  2
ext1
 70
    4
 62
    5
  6
CONTINUOUS
370
    0
390
F
  0
LAYER
  5
4D
330
2
100
AcDbSymbolTableRecord
100
AcDbLayerTableRecord
  2
ext2
 70
    4
 62
    5
  6
CONTINUOUS
370
    0
390
F
  0
LAYER
  5
4E
330
2
100
AcDbSymbolTableRecord
100
AcDbLayerTableRecord
  2
ext3
 70
    4
 62
    5
  6
CONTINUOUS
370
    0
390
F
  0
LAYER
  5
4F
330
2
100
AcDbSymbolTableRecord
100
AcDbLayerTableRecord
  2
int
 70
    4
 62
    4
  6
CONTINUOUS
370
    0
390
F
  0
LAYER
  5
50
330
2
100
AcDbSymbolTableRecord
100
AcDbLayerTableRecord
  2
noname
 70
    4
 62
    1
  6
DASHED
370
    0
390
F
1001
LibreCad
1070
    1
  0
LAYER
  5
51
330
2
100
AcDbSymbolTableRecord
100
AcDbLayerTableRecord
  2
pcb
 70
    4
 62
    2
  6
CONTINUOUS
370
    0
390
F
  0
LAYER
  5
52
330
2
100
AcDbSymbolTableRecord
100
AcDbLayerTableRecord
  2
percage
 70
    4
 62
  136
420
32896
  6
CONTINUOUS
370
    0
390
F
  0
LAYER
  5
53
330
2
100
AcDbSymbolTableRecord
100
AcDbLayerTableRecord
  2
rpi
 70
    4
 62
    3
  6
CONTINUOUS
370
    0
390
F
  0
ENDTAB
  0
TABLE
  2
STYLE
  5
3
330
0
100
AcDbSymbolTable
 70
    3
  0
STYLE
  5
54
330
2
100
AcDbSymbolTableRecord
100
AcDbTextStyleTableRecord
  2
Standard
 70
    0
 40
0
 41
1
 50
0
 71
    0
 42
1
  3
txt
  4

  0
ENDTAB
  0
TABLE
  2
VIEW
  5
6
330
0
100
AcDbSymbolTable
 70
    0
  0
ENDTAB
  0
TABLE
  2
UCS
  5
7
330
0
100
AcDbSymbolTable
 70
    0
  0
ENDTAB
  0
TABLE
  2
APPID
  5
9
330
0
100
AcDbSymbolTable
 70
    1
  0
APPID
  5
12
330
9
100
AcDbSymbolTableRecord
100
AcDbRegAppTableRecord
  2
ACAD
 70
    0
  0
APPID
  5
55
330
9
100
AcDbSymbolTableRecord
100
AcDbRegAppTableRecord
  2
LibreCad
 70
    0
  0
ENDTAB
  0
TABLE
  2
DIMSTYLE
  5
A
330
0
100
AcDbSymbolTable
 70
    1
100
AcDbDimStyleTable
 71
    1
  0
DIMSTYLE
105
56
330
A
100
AcDbSymbolTableRecord
100
AcDbDimStyleTableRecord
  2
Standard
 70
    0
 40
2.5
 41
2.5
 42
0.625
 43
0.38
 44
1.25
 45
0
 46
0
 47
0
 48
0
 49
1
140
2.5
141
0.09
142
0
143
25.4
144
1
145
0
146
1
147
0.625
148
0
 71
    0
 72
    0
 73
    0
 74
    1
 75
    0
 76
    0
 77
    0
 78
    8
 79
    0
170
    0
171
    2
172
    0
173
    0
174
    0
175
    0
176
    0
177
    0
178
    0
179
    0
271
    2
272
    4
273
    2
274
    2
275
    0
276
    0
277
    2
278
   44
279
    0
280
    0
281
    0
282
    0
283
    1
284
    0
285
    0
286
    0
288
    0
289
    3
340
STANDARD
341

371
   -2
372
   -2
  0
ENDTAB
  0
TABLE
  2
BLOCK_RECORD
  5
1
330
0
100
AcDbSymbolTable
 70
    2
  0
BLOCK_RECORD
  5
1F
330
1
100
AcDbSymbolTableRecord
100
AcDbBlockTableRecord
  2
*Model_Space
 70
    0
280
    1
281
    0
  0
BLOCK_RECORD
  5
1E
330
1
100
AcDbSymbolTableRecord
100
AcDbBlockTableRecord
  2
*Paper_Space
 70
    0
280
    1
281
    0
  0
ENDTAB
  0
ENDSEC
  0
SECTION
  2
BLOCKS
  0
BLOCK
  5
20
330
1F
100
AcDbEntity
  8
0
100
AcDbBlockBegin
  2
*Model_Space
 70
    0
 10
0
 20
0
 30
0
  3
*Model_Space
  1

  0
ENDBLK
  5
21
330
1F
100
AcDbEntity
  8
0
100
AcDbBlockEnd
  0
BLOCK
  5
1C
330
1B
100
AcDbEntity
  8
0
100
AcDbBlockBegin
  2
*Paper_Space
 70
    0
 10
0
 20
0
 30
0
  3
*Paper_Space
  1

  0
ENDBLK
  5
1D
330
1F
100
AcDbEntity
  8
0
100
AcDbBlockEnd
  0
ENDSEC
  0
SECTION
  2
ENTITIES
  0
LINE
  5
57
100
AcDbEntity
  8
0
  6
ByLayer
 62
  256
370
   -1
100
AcDbLine
 10
-6.959536899999975
 20
-15.61887930000001
 11
7.040463100000011
 21
-15.61887930000001
  0
LINE
  5
58
100
AcDbEntity
  8
0
  6
ByLayer
 62
  256
370
   -1
100
AcDbLine
 10
-6.959536899999975
 20
-29.61887930000001
 11
7.040463100000011
 21
-29.61887930000001
  0
LINE
  5
59
100
AcDbEntity
  8
0
  6
ByLayer
 62
  256
370
   -1
100
AcDbLine
 10
-6.959536899999975
 20
-15.61887930000001
 11
-6.959536899999975
 21
-29.61887930000001
  0
LINE
  5
5A
100
AcDbEntity
  8
0
  6
ByLayer
 62
  256
370
   -1
100
AcDbLine
 10
7.040463100000011
 20
-15.61887930000001
 11
7.040463100000011
 21
-29.61887930000001
  0
LINE
  5
5B
100
AcDbEntity
  8
0
  6
ByLayer
 62
  256
370
   -1
100
AcDbLine
 10
-51.28251729999998
 20
51.5129804
 11
-37.75955569999998
 21
47.8895138
  0
LINE
  5
5C
100
AcDbEntity
  8
0
  6
ByLayer
 62
  256
370
   -1
100
AcDbLine
 10
-54.90598389999998
 20
37.99001879999999
 11
-41.38302229999998
 21
34.36655219999999
  0
LINE
  5
5D
100
AcDbEntity
  8
0
  6
ByLayer
 62
  256
370
   -1
100
AcDbLine
 10
-51.28251729999998
 20
51.5129804
 11
-54.90598389999998
 21
37.99001879999999
  0
LINE
  5
5E
100
AcDbEntity
  8
0
  6
ByLayer
 62
  256
370
   -1
100
AcDbLine
 10
-37.75955569999998
 20
47.8895138
 11
-41.38302229999998
 21
34.36655219999999
  0
LINE
  5
5F
100
AcDbEntity
  8
0
  6
ByLayer
 62
  256
370
   -1
100
AcDbLine
 10
-33.91343899999998
 20
42.9249004
 11
-20.39047739999998
 21
39.3014338
  0
LINE
  5
60
100
AcDbEntity
  8
0
  6
ByLayer
 62
  256
370
   -1
100
AcDbLine
 10
-37.53690559999998
 20
29.4019388
 11
-24.01394399999998
 21
25.7784722
  0
LINE
  5
61
100
AcDbEntity
  8
0
  6
ByLayer
 62
  256
370
   -1
100
AcDbLine
 10
-33.91343899999998
 20
42.9249004
 11
-37.53690559999998
 21
29.4019388
  0
LINE
  5
62
100
AcDbEntity
  8
0
  6
ByLayer
 62
  256
370
   -1
100
AcDbLine
 10
-20.39047739999998
 20
39.3014338
 11
-24.01394399999998
 21
25.7784722
  0
LINE
  5
63
100
AcDbEntity
  8
0
  6
ByLayer
 62
  256
370
   -1
100
AcDbLine
 10
-71.60213279999998
 20
49.08950589999999
 11
-58.07917119999998
 21
45.46603929999999
  0
LINE
  5
64
100
AcDbEntity
  8
0
  6
ByLayer
 62
  256
370
   -1
100
AcDbLine
 10
-75.22559939999998
 20
35.5665443
 11
-61.70263779999998
 21
31.9430777
  0
LINE
  5
65
100
AcDbEntity
  8
0
  6
ByLayer
 62
  256
370
   -1
100
AcDbLine
 10
-71.60213279999998
 20
49.08950589999999
 11
-75.22559939999998
 21
35.5665443
  0
LINE
  5
66
100
AcDbEntity
  8
0
  6
ByLayer
 62
  256
370
   -1
100
AcDbLine
 10
-58.07917119999998
 20
45.46603929999999
 11
-61.70263779999998
 21
31.9430777
  0
LINE
  5
67
100
AcDbEntity
  8
0
  6
ByLayer
 62
  256
370
   -1
100
AcDbLine
 10
-17.52787299999997
 20
30.6663022
 11
-4.004911399999983
 21
27.0428356
  0
LINE
  5
68
100
AcDbEntity
  8
0
  6
ByLayer
 62
  256
370
   -1
100
AcDbLine
 10
-21.15133959999997
 20
17.14334059999999
 11
-7.628377999999984
 21
13.51987399999999
  0
LINE
  5
69
100
AcDbEntity
  8
0
  6
ByLayer
 62
  256
370
   -1
100
AcDbLine
 10
-17.52787299999997
 20
30.6663022
 11
-21.15133959999997
 21
17.14334059999999
  0
LINE
  5
6A
100
AcDbEntity
  8
0
  6
ByLayer
 62
  256
370
   -1
100
AcDbLine
 10
-4.004911399999983
 20
27.0428356
 11
-7.628377999999984
 21
13.51987399999999
  0
LINE
  5
6B
100
AcDbEntity
  8
0
  6
ByLayer
 62
  256
370
   -1
100
AcDbLine
 10
-110.2743389
 20
51.5835934
 11
-96.75137729999997
 21
47.9601268
  0
LINE
  5
6C
100
AcDbEntity
  8
0
  6
ByLayer
 62
  256
370
   -1
100
AcDbLine
 10
-113.8978055
 20
38.0606318
 11
-100.3748439
 21
34.4371652
  0
LINE
  5
6D
100
AcDbEntity
  8
0
  6
ByLayer
 62
  256
370
   -1
100
AcDbLine
 10
-110.2743389
 20
51.5835934
 11
-113.8978055
 21
38.0606318
  0
LINE
  5
6E
100
AcDbEntity
  8
0
  6
ByLayer
 62
  256
370
   -1
100
AcDbLine
 10
-96.75137729999997
 20
47.9601268
 11
-100.3748439
 21
34.4371652
  0
LINE
  5
6F
100
AcDbEntity
  8
0
  6
ByLayer
 62
  256
370
   -1
100
AcDbLine
 10
-91.92174819999997
 20
46.6660315
 11
-78.39878659999998
 21
43.0425649
  0
LINE
  5
70
100
AcDbEntity
  8
0
  6
ByLayer
 62
  256
370
   -1
100
AcDbLine
 10
-95.54521479999997
 20
33.1430699
 11
-82.02225319999998
 21
29.5196033
  0
LINE
  5
71
100
AcDbEntity
  8
0
  6
ByLayer
 62
  256
370
   -1
100
AcDbLine
 10
-91.92174819999997
 20
46.6660315
 11
-95.54521479999997
 21
33.1430699
  0
LINE
  5
72
100
AcDbEntity
  8
0
  6
ByLayer
 62
  256
370
   -1
100
AcDbLine
 10
-78.39878659999998
 20
43.0425649
 11
-82.02225319999998
 21
29.5196033
  0
LINE
  5
73
100
AcDbEntity
  8
0
  6
ByLayer
 62
  256
370
   -1
100
AcDbLine
 10
-56.20007919999998
 20
33.1603897
 11
-42.67711759999997
 21
29.5369231
  0
LINE
  5
74
100
AcDbEntity
  8
0
  6
ByLayer
 62
  256
370
   -1
100
AcDbLine
 10
-59.82354579999998
 20
19.63742809999999
 11
-46.30058419999997
 21
16.01396149999999
  0
LINE
  5
75
100
AcDbEntity
  8
0
  6
ByLayer
 62
  256
370
   -1
100
AcDbLine
 10
-56.20007919999998
 20
33.1603897
 11
-59.82354579999998
 21
19.63742809999999
  0
LINE
  5
76
100
AcDbEntity
  8
0
  6
ByLayer
 62
  256
370
   -1
100
AcDbLine
 10
-42.67711759999997
 20
29.5369231
 11
-46.30058419999997
 21
16.01396149999999
  0
LINE
  5
77
100
AcDbEntity
  8
0
  6
ByLayer
 62
  256
370
   -1
100
AcDbLine
 10
-38.83100089999998
 20
24.57230969999999
 11
-25.30803929999998
 21
20.9488431
  0
LINE
  5
78
100
AcDbEntity
  8
0
  6
ByLayer
 62
  256
370
   -1
100
AcDbLine
 10
-42.45446749999998
 20
11.0493481
 11
-28.93150589999998
 21
7.425881499999996
  0
LINE
  5
79
100
AcDbEntity
  8
0
  6
ByLayer
 62
  256
370
   -1
100
AcDbLine
 10
-38.83100089999998
 20
24.57230969999999
 11
-42.45446749999998
 21
11.0493481
  0
LINE
  5
7A
100
AcDbEntity
  8
0
  6
ByLayer
 62
  256
370
   -1
100
AcDbLine
 10
-25.30803929999998
 20
20.9488431
 11
-28.93150589999998
 21
7.425881499999996
  0
LINE
  5
7B
100
AcDbEntity
  8
0
  6
ByLayer
 62
  256
370
   -1
100
AcDbLine
 10
-76.51969459999998
 20
30.7369153
 11
-62.99673299999998
 21
27.1134487
  0
LINE
  5
7C
100
AcDbEntity
  8
0
  6
ByLayer
 62
  256
370
   -1
100
AcDbLine
 10
-80.14316119999998
 20
17.2139537
 11
-66.62019959999998
 21
13.5904871
  0
LINE
  5
7D
100
AcDbEntity
  8
0
  6
ByLayer
 62
  256
370
   -1
100
AcDbLine
 10
-76.51969459999998
 20
30.7369153
 11
-80.14316119999998
 21
17.2139537
  0
LINE
  5
7E
100
AcDbEntity
  8
0
  6
ByLayer
 62
  256
370
   -1
100
AcDbLine
 10
-62.99673299999998
 20
27.1134487
 11
-66.62019959999998
 21
13.5904871
  0
LINE
  5
7F
100
AcDbEntity
  8
0
  6
ByLayer
 62
  256
370
   -1
100
AcDbLine
 10
-22.44543489999998
 20
12.3137115
 11
-8.922473299999979
 21
8.690244899999996
  0
LINE
  5
80
100
AcDbEntity
  8
0
  6
ByLayer
 62
  256
370
   -1
100
AcDbLine
 10
-26.06890149999998
 20
-1.209250100000006
 11
-12.54593989999998
 21
-4.832716700000006
  0
LINE
  5
81
100
AcDbEntity
  8
0
  6
ByLayer
 62
  256
370
   -1
100
AcDbLine
 10
-22.44543489999998
 20
12.3137115
 11
-26.06890149999998
 21
-1.209250100000006
  0
LINE
  5
82
100
AcDbEntity
  8
0
  6
ByLayer
 62
  256
370
   -1
100
AcDbLine
 10
-8.922473299999979
 20
8.690244899999996
 11
-12.54593989999998
 21
-4.832716700000006
  0
LINE
  5
83
100
AcDbEntity
  8
0
  6
ByLayer
 62
  256
370
   -1
100
AcDbLine
 10
-117.4859746
 20
33.84569789999999
 11
-103.963013
 21
30.22223129999999
  0
LINE
  5
84
100
AcDbEntity
  8
0
  6
ByLayer
 62
  256
370
   -1
100
AcDbLine
 10
-121.1094412
 20
20.3227363
 11
-107.5864796
 21
16.69926969999999
  0
LINE
  5
85
100
AcDbEntity
  8
0
  6
ByLayer
 62
  256
370
   -1
100
AcDbLine
 10
-117.4859746
 20
33.84569789999999
 11
-121.1094412
 21
20.3227363
  0
LINE
  5
86
100
AcDbEntity
  8
0
  6
ByLayer
 62
  256
370
   -1
100
AcDbLine
 10
-103.963013
 20
30.22223129999999
 11
-107.5864796
 21
16.69926969999999
  0
LINE
  5
87
100
AcDbEntity
  8
0
  6
ByLayer
 62
  256
370
   -1
100
AcDbLine
 10
-96.83931009999998
 20
28.3134408
 11
-83.31634849999998
 21
24.68997419999999
  0
LINE
  5
88
100
AcDbEntity
  8
0
  6
ByLayer
 62
  256
370
   -1
100
AcDbLine
 10
-100.4627767
 20
14.79047919999999
 11
-86.93981509999998
 21
11.16701259999999
  0
LINE
  5
89
100
AcDbEntity
  8
0
  6
ByLayer
 62
  256
370
   -1
100
AcDbLine
 10
-96.83931009999998
 20
28.3134408
 11
-100.4627767
 21
14.79047919999999
  0
LINE
  5
8A
100
AcDbEntity
  8
0
  6
ByLayer
 62
  256
370
   -1
100
AcDbLine
 10
-83.31634849999998
 20
24.68997419999999
 11
-86.93981509999998
 21
11.16701259999999
  0
LINE
  5
8B
100
AcDbEntity
  8
0
  6
ByLayer
 62
  256
370
   -1
100
AcDbLine
 10
-61.11764099999998
 20
14.807799
 11
-47.59467939999998
 21
11.1843324
  0
LINE
  5
8C
100
AcDbEntity
  8
0
  6
ByLayer
 62
  256
370
   -1
100
AcDbLine
 10
-64.74110759999998
 20
1.284837399999994
 11
-51.21814599999998
 21
-2.338629200000007
  0
LINE
  5
8D
100
AcDbEntity
  8
0
  6
ByLayer
 62
  256
370
   -1
100
AcDbLine
 10
-61.11764099999998
 20
14.807799
 11
-64.74110759999998
 21
1.284837399999994
  0
LINE
  5
8E
100
AcDbEntity
  8
0
  6
ByLayer
 62
  256
370
   -1
100
AcDbLine
 10
-47.59467939999998
 20
11.1843324
 11
-51.21814599999998
 21
-2.338629200000007
  0
LINE
  5
8F
100
AcDbEntity
  8
0
  6
ByLayer
 62
  256
370
   -1
100
AcDbLine
 10
-43.74856269999998
 20
6.219718999999998
 11
-30.22560109999998
 21
2.596252399999997
  0
LINE
  5
90
100
AcDbEntity
  8
0
  6
ByLayer
 62
  256
370
   -1
100
AcDbLine
 10
-47.37202929999998
 20
-7.303242600000004
 11
-33.84906769999998
 21
-10.9267092
  0
LINE
  5
91
100
AcDbEntity
  8
0
  6
ByLayer
 62
  256
370
   -1
100
AcDbLine
 10
-43.74856269999998
 20
6.219718999999998
 11
-47.37202929999998
 21
-7.303242600000004
  0
LINE
  5
92
100
AcDbEntity
  8
0
  6
ByLayer
 62
  256
370
   -1
100
AcDbLine
 10
-30.22560109999998
 20
2.596252399999997
 11
-33.84906769999998
 21
-10.9267092
  0
LINE
  5
93
100
AcDbEntity
  8
0
  6
ByLayer
 62
  256
370
   -1
100
AcDbLine
 10
-81.43725649999998
 20
12.38432459999999
 11
-67.91429489999999
 21
8.760857999999992
  0
LINE
  5
94
100
AcDbEntity
  8
0
  6
ByLayer
 62
  256
370
   -1
100
AcDbLine
 10
-85.06072309999998
 20
-1.138637000000003
 11
-71.53776149999999
 21
-4.762103600000003
  0
LINE
  5
95
100
AcDbEntity
  8
0
  6
ByLayer
 62
  256
370
   -1
100
AcDbLine
 10
-81.43725649999998
 20
12.38432459999999
 11
-85.06072309999998
 21
-1.138637000000003
  0
LINE
  5
96
100
AcDbEntity
  8
0
  6
ByLayer
 62
  256
370
   -1
100
AcDbLine
 10
-67.91429489999999
 20
8.760857999999992
 11
-71.53776149999999
 21
-4.762103600000003
  0
LINE
  5
97
100
AcDbEntity
  8
0
  6
ByLayer
 62
  256
370
   -1
100
AcDbLine
 10
-27.36299679999998
 20
-6.038879200000004
 11
-13.84003519999997
 21
-9.662345800000004
  0
LINE
  5
98
100
AcDbEntity
  8
0
  6
ByLayer
 62
  256
370
   -1
100
AcDbLine
 10
-30.98646339999998
 20
-19.56184080000001
 11
-17.46350179999997
 21
-23.18530740000001
  0
LINE
  5
99
100
AcDbEntity
  8
0
  6
ByLayer
 62
  256
370
   -1
100
AcDbLine
 10
-27.36299679999998
 20
-6.038879200000004
 11
-30.98646339999998
 21
-19.56184080000001
  0
LINE
  5
9A
100
AcDbEntity
  8
0
  6
ByLayer
 62
  256
370
   -1
100
AcDbLine
 10
-13.84003519999997
 20
-9.662345800000004
 11
-17.46350179999997
 21
-23.18530740000001
  0
LINE
  5
9B
100
AcDbEntity
  8
0
  6
ByLayer
 62
  256
370
   -1
100
AcDbLine
 10
-122.4035365
 20
15.4931072
 11
-108.8805749
 21
11.8696406
  0
LINE
  5
9C
100
AcDbEntity
  8
0
  6
ByLayer
 62
  256
370
   -1
100
AcDbLine
 10
-126.0270031
 20
1.970145599999995
 11
-112.5040415
 21
-1.653321000000005
  0
LINE
  5
9D
100
AcDbEntity
  8
0
  6
ByLayer
 62
  256
370
   -1
100
AcDbLine
 10
-122.4035365
 20
15.4931072
 11
-126.0270031
 21
1.970145599999995
  0
LINE
  5
9E
100
AcDbEntity
  8
0
  6
ByLayer
 62
  256
370
   -1
100
AcDbLine
 10
-108.8805749
 20
11.8696406
 11
-112.5040415
 21
-1.653321000000005
  0
LINE
  5
9F
100
AcDbEntity
  8
0
  6
ByLayer
 62
  256
370
   -1
100
AcDbLine
 10
-101.7568719
 20
9.960850099999995
 11
-88.23391029999998
 21
6.337383499999994
  0
LINE
  5
A0
100
AcDbEntity
  8
0
  6
ByLayer
 62
  256
370
   -1
100
AcDbLine
 10
-105.3803385
 20
-3.562111500000007
 11
-91.85737689999998
 21
-7.185578100000008
  0
LINE
  5
A1
100
AcDbEntity
  8
0
  6
ByLayer
 62
  256
370
   -1
100
AcDbLine
 10
-101.7568719
 20
9.960850099999995
 11
-105.3803385
 21
-3.562111500000007
  0
LINE
  5
A2
100
AcDbEntity
  8
0
  6
ByLayer
 62
  256
370
   -1
100
AcDbLine
 10
-88.23391029999998
 20
6.337383499999994
 11
-91.85737689999998
 21
-7.185578100000008
  0
LINE
  5
A3
100
AcDbEntity
  8
0
  6
ByLayer
 62
  256
370
   -1
100
AcDbLine
 10
-122.7329507
 20
-4.088873900000003
 11
-109.2099891
 21
-7.712340500000003
  0
LINE
  5
A4
100
AcDbEntity
  8
0
  6
ByLayer
 62
  256
370
   -1
100
AcDbLine
 10
-126.3564173
 20
-17.61183550000001
 11
-112.8334557
 21
-21.23530210000001
  0
LINE
  5
A5
100
AcDbEntity
  8
0
  6
ByLayer
 62
  256
370
   -1
100
AcDbLine
 10
-122.7329507
 20
-4.088873900000003
 11
-126.3564173
 21
-17.61183550000001
  0
LINE
  5
A6
100
AcDbEntity
  8
0
  6
ByLayer
 62
  256
370
   -1
100
AcDbLine
 10
-109.2099891
 20
-7.712340500000003
 11
-112.8334557
 21
-21.23530210000001
  0
LINE
  5
A7
100
AcDbEntity
  8
0
  6
ByLayer
 62
  256
370
   -1
100
AcDbLine
 10
-99.79221229999997
 20
-10.23582630000001
 11
-86.26925069999999
 21
-13.85929290000001
  0
LINE
  5
A8
100
AcDbEntity
  8
0
  6
ByLayer
 62
  256
370
   -1
100
AcDbLine
 10
-103.4156789
 20
-23.75878790000001
 11
-89.89271729999999
 21
-27.38225450000001
  0
LINE
  5
A9
100
AcDbEntity
  8
0
  6
ByLayer
 62
  256
370
   -1
100
AcDbLine
 10
-99.79221229999997
 20
-10.23582630000001
 11
-103.4156789
 21
-23.75878790000001
  0
LINE
  5
AA
100
AcDbEntity
  8
0
  6
ByLayer
 62
  256
370
   -1
100
AcDbLine
 10
-86.26925069999999
 20
-13.85929290000001
 11
-89.89271729999999
 21
-27.38225450000001
  0
LINE
  5
AB
100
AcDbEntity
  8
0
  6
ByLayer
 62
  256
370
   -1
100
AcDbLine
 10
-76.85147389999997
 20
-16.3827786
 11
-63.32851229999997
 21
-20.0062452
  0
LINE
  5
AC
100
AcDbEntity
  8
0
  6
ByLayer
 62
  256
370
   -1
100
AcDbLine
 10
-80.47494049999997
 20
-29.9057402
 11
-66.95197889999997
 21
-33.5292068
  0
LINE
  5
AD
100
AcDbEntity
  8
0
  6
ByLayer
 62
  256
370
   -1
100
AcDbLine
 10
-76.85147389999997
 20
-16.3827786
 11
-80.47494049999997
 21
-29.9057402
  0
LINE
  5
AE
100
AcDbEntity
  8
0
  6
ByLayer
 62
  256
370
   -1
100
AcDbLine
 10
-63.32851229999997
 20
-20.0062452
 11
-66.95197889999997
 21
-33.5292068
  0
LINE
  5
AF
100
AcDbEntity
  8
0
  6
ByLayer
 62
  256
370
   -1
100
AcDbLine
 10
-50.30610019999997
 20
-27.4296395
 11
-36.78313859999997
 21
-31.0531061
  0
LINE
  5
B0
100
AcDbEntity
  8
0
  6
ByLayer
 62
  256
370
   -1
100
AcDbLine
 10
-53.92956679999998
 20
-40.9526011
 11
-40.40660519999997
 21
-44.5760677
  0
LINE
  5
B1
100
AcDbEntity
  8
0
  6
ByLayer
 62
  256
370
   -1
100
AcDbLine
 10
-50.30610019999997
 20
-27.4296395
 11
-53.92956679999998
 21
-40.9526011
  0
LINE
  5
B2
100
AcDbEntity
  8
0
  6
ByLayer
 62
  256
370
   -1
100
AcDbLine
 10
-36.78313859999997
 20
-31.0531061
 11
-40.40660519999997
 21
-44.5760677
  0
LINE
  5
B3
100
AcDbEntity
  8
0
  6
ByLayer
 62
  256
370
   -1
100
AcDbLine
 10
-24.15365849999998
 20
-34.4371652
 11
-10.63069689999998
 21
-38.0606318
  0
LINE
  5
B4
100
AcDbEntity
  8
0
  6
ByLayer
 62
  256
370
   -1
100
AcDbLine
 10
-27.77712509999998
 20
-47.9601268
 11
-14.25416349999998
 21
-51.58359340000001
  0
LINE
  5
B5
100
AcDbEntity
  8
0
  6
ByLayer
 62
  256
370
   -1
100
AcDbLine
 10
-24.15365849999998
 20
-34.4371652
 11
-27.77712509999998
 21
-47.9601268
  0
LINE
  5
B6
100
AcDbEntity
  8
0
  6
ByLayer
 62
  256
370
   -1
100
AcDbLine
 10
-10.63069689999998
 20
-38.0606318
 11
-14.25416349999998
 21
-51.58359340000001
  0
LINE
  5
B7
100
AcDbEntity
  8
0
  6
ByLayer
 62
  256
370
   -1
100
AcDbLine
 10
37.84048190000001
 20
47.8895138
 11
51.36344350000002
 21
51.5129804
  0
LINE
  5
B8
100
AcDbEntity
  8
0
  6
ByLayer
 62
  256
370
   -1
100
AcDbLine
 10
41.46394850000001
 20
34.36655219999999
 11
54.98691010000002
 21
37.99001879999999
  0
LINE
  5
B9
100
AcDbEntity
  8
0
  6
ByLayer
 62
  256
370
   -1
100
AcDbLine
 10
37.84048190000001
 20
47.8895138
 11
41.46394850000001
 21
34.36655219999999
  0
LINE
  5
BA
100
AcDbEntity
  8
0
  6
ByLayer
 62
  256
370
   -1
100
AcDbLine
 10
51.36344350000002
 20
51.5129804
 11
54.98691010000002
 21
37.99001879999999
  0
LINE
  5
BB
100
AcDbEntity
  8
0
  6
ByLayer
 62
  256
370
   -1
100
AcDbLine
 10
20.47140360000003
 20
39.3014338
 11
33.99436520000003
 21
42.9249004
  0
LINE
  5
BC
100
AcDbEntity
  8
0
  6
ByLayer
 62
  256
370
   -1
100
AcDbLine
 10
24.09487020000003
 20
25.7784722
 11
37.61783180000003
 21
29.4019388
  0
LINE
  5
BD
100
AcDbEntity
  8
0
  6
ByLayer
 62
  256
370
   -1
100
AcDbLine
 10
20.47140360000003
 20
39.3014338
 11
24.09487020000003
 21
25.7784722
  0
LINE
  5
BE
100
AcDbEntity
  8
0
  6
ByLayer
 62
  256
370
   -1
100
AcDbLine
 10
33.99436520000003
 20
42.9249004
 11
37.61783180000003
 21
29.4019388
  0
LINE
  5
BF
100
AcDbEntity
  8
0
  6
ByLayer
 62
  256
370
   -1
100
AcDbLine
 10
58.16009740000001
 20
45.46603929999999
 11
71.68305900000001
 21
49.08950589999999
  0
LINE
  5
C0
100
AcDbEntity
  8
0
  6
ByLayer
 62
  256
370
   -1
100
AcDbLine
 10
61.78356400000001
 20
31.9430777
 11
75.30652560000001
 21
35.5665443
  0
LINE
  5
C1
100
AcDbEntity
  8
0
  6
ByLayer
 62
  256
370
   -1
100
AcDbLine
 10
58.16009740000001
 20
45.46603929999999
 11
61.78356400000001
 21
31.9430777
  0
LINE
  5
C2
100
AcDbEntity
  8
0
  6
ByLayer
 62
  256
370
   -1
100
AcDbLine
 10
71.68305900000001
 20
49.08950589999999
 11
75.30652560000001
 21
35.5665443
  0
LINE
  5
C3
100
AcDbEntity
  8
0
  6
ByLayer
 62
  256
370
   -1
100
AcDbLine
 10
4.085837600000019
 20
27.0428356
 11
17.60879920000002
 21
30.6663022
  0
LINE
  5
C4
100
AcDbEntity
  8
0
  6
ByLayer
 62
  256
370
   -1
100
AcDbLine
 10
7.70930420000002
 20
13.51987399999999
 11
21.23226580000002
 21
17.14334059999999
  0
LINE
  5
C5
100
AcDbEntity
  8
0
  6
ByLayer
 62
  256
370
   -1
100
AcDbLine
 10
4.085837600000019
 20
27.0428356
 11
7.70930420000002
 21
13.51987399999999
  0
LINE
  5
C6
100
AcDbEntity
  8
0
  6
ByLayer
 62
  256
370
   -1
100
AcDbLine
 10
17.60879920000002
 20
30.6663022
 11
21.23226580000002
 21
17.14334059999999
  0
LINE
  5
C7
100
AcDbEntity
  8
0
  6
ByLayer
 62
  256
370
   -1
100
AcDbLine
 10
78.47971280000002
 20
43.0425649
 11
92.00267440000002
 21
46.6660315
  0
LINE
  5
C8
100
AcDbEntity
  8
0
  6
ByLayer
 62
  256
370
   -1
100
AcDbLine
 10
82.10317940000002
 20
29.5196033
 11
95.62614100000002
 21
33.1430699
  0
LINE
  5
C9
100
AcDbEntity
  8
0
  6
ByLayer
 62
  256
370
   -1
100
AcDbLine
 10
78.47971280000002
 20
43.0425649
 11
82.10317940000002
 21
29.5196033
  0
LINE
  5
CA
100
AcDbEntity
  8
0
  6
ByLayer
 62
  256
370
   -1
100
AcDbLine
 10
92.00267440000002
 20
46.6660315
 11
95.62614100000002
 21
33.1430699
  0
LINE
  5
CB
100
AcDbEntity
  8
0
  6
ByLayer
 62
  256
370
   -1
100
AcDbLine
 10
96.83230350000002
 20
47.9601268
 11
110.3552651
 21
51.5835934
  0
LINE
  5
CC
100
AcDbEntity
  8
0
  6
ByLayer
 62
  256
370
   -1
100
AcDbLine
 10
100.4557701
 20
34.4371652
 11
113.9787317
 21
38.0606318
  0
LINE
  5
CD
100
AcDbEntity
  8
0
  6
ByLayer
 62
  256
370
   -1
100
AcDbLine
 10
96.83230350000002
 20
47.9601268
 11
100.4557701
 21
34.4371652
  0
LINE
  5
CE
100
AcDbEntity
  8
0
  6
ByLayer
 62
  256
370
   -1
100
AcDbLine
 10
110.3552651
 20
51.5835934
 11
113.9787317
 21
38.0606318
  0
LINE
  5
CF
100
AcDbEntity
  8
0
  6
ByLayer
 62
  256
370
   -1
100
AcDbLine
 10
42.75804380000002
 20
29.5369231
 11
56.28100540000003
 21
33.1603897
  0
LINE
  5
D0
100
AcDbEntity
  8
0
  6
ByLayer
 62
  256
370
   -1
100
AcDbLine
 10
46.38151040000002
 20
16.01396149999999
 11
59.90447200000003
 21
19.63742809999999
  0
LINE
  5
D1
100
AcDbEntity
  8
0
  6
ByLayer
 62
  256
370
   -1
100
AcDbLine
 10
42.75804380000002
 20
29.5369231
 11
46.38151040000002
 21
16.01396149999999
  0
LINE
  5
D2
100
AcDbEntity
  8
0
  6
ByLayer
 62
  256
370
   -1
100
AcDbLine
 10
56.28100540000003
 20
33.1603897
 11
59.90447200000003
 21
19.63742809999999
  0
LINE
  5
D3
100
AcDbEntity
  8
0
  6
ByLayer
 62
  256
370
   -1
100
AcDbLine
 10
25.38896550000001
 20
20.9488431
 11
38.91192710000001
 21
24.57230969999999
  0
LINE
  5
D4
100
AcDbEntity
  8
0
  6
ByLayer
 62
  256
370
   -1
100
AcDbLine
 10
29.01243210000001
 20
7.425881499999996
 11
42.53539370000001
 21
11.0493481
  0
LINE
  5
D5
100
AcDbEntity
  8
0
  6
ByLayer
 62
  256
370
   -1
100
AcDbLine
 10
25.38896550000001
 20
20.9488431
 11
29.01243210000001
 21
7.425881499999996
  0
LINE
  5
D6
100
AcDbEntity
  8
0
  6
ByLayer
 62
  256
370
   -1
100
AcDbLine
 10
38.91192710000001
 20
24.57230969999999
 11
42.53539370000001
 21
11.0493481
  0
LINE
  5
D7
100
AcDbEntity
  8
0
  6
ByLayer
 62
  256
370
   -1
100
AcDbLine
 10
63.07765920000003
 20
27.1134487
 11
76.60062080000003
 21
30.7369153
  0
LINE
  5
D8
100
AcDbEntity
  8
0
  6
ByLayer
 62
  256
370
   -1
100
AcDbLine
 10
66.70112580000003
 20
13.5904871
 11
80.22408740000003
 21
17.2139537
  0
LINE
  5
D9
100
AcDbEntity
  8
0
  6
ByLayer
 62
  256
370
   -1
100
AcDbLine
 10
63.07765920000003
 20
27.1134487
 11
66.70112580000003
 21
13.5904871
  0
LINE
  5
DA
100
AcDbEntity
  8
0
  6
ByLayer
 62
  256
370
   -1
100
AcDbLine
 10
76.60062080000003
 20
30.7369153
 11
80.22408740000003
 21
17.2139537
  0
LINE
  5
DB
100
AcDbEntity
  8
0
  6
ByLayer
 62
  256
370
   -1
100
AcDbLine
 10
9.003399500000029
 20
8.690244899999996
 11
22.52636110000003
 21
12.3137115
  0
LINE
  5
DC
100
AcDbEntity
  8
0
  6
ByLayer
 62
  256
370
   -1
100
AcDbLine
 10
12.62686610000003
 20
-4.832716700000006
 11
26.14982770000003
 21
-1.209250100000006
  0
LINE
  5
DD
100
AcDbEntity
  8
0
  6
ByLayer
 62
  256
370
   -1
100
AcDbLine
 10
9.003399500000029
 20
8.690244899999996
 11
12.62686610000003
 21
-4.832716700000006
  0
LINE
  5
DE
100
AcDbEntity
  8
0
  6
ByLayer
 62
  256
370
   -1
100
AcDbLine
 10
22.52636110000003
 20
12.3137115
 11
26.14982770000003
 21
-1.209250100000006
  0
LINE
  5
DF
100
AcDbEntity
  8
0
  6
ByLayer
 62
  256
370
   -1
100
AcDbLine
 10
83.39727470000003
 20
24.68997419999999
 11
96.92023630000003
 21
28.3134408
  0
LINE
  5
E0
100
AcDbEntity
  8
0
  6
ByLayer
 62
  256
370
   -1
100
AcDbLine
 10
87.02074130000003
 20
11.16701259999999
 11
100.5437029
 21
14.79047919999999
  0
LINE
  5
E1
100
AcDbEntity
  8
0
  6
ByLayer
 62
  256
370
   -1
100
AcDbLine
 10
83.39727470000003
 20
24.68997419999999
 11
87.02074130000003
 21
11.16701259999999
  0
LINE
  5
E2
100
AcDbEntity
  8
0
  6
ByLayer
 62
  256
370
   -1
100
AcDbLine
 10
96.92023630000003
 20
28.3134408
 11
100.5437029
 21
14.79047919999999
  0
LINE
  5
E3
100
AcDbEntity
  8
0
  6
ByLayer
 62
  256
370
   -1
100
AcDbLine
 10
104.0439392
 20
30.22223129999999
 11
117.5669008
 21
33.84569789999999
  0
LINE
  5
E4
100
AcDbEntity
  8
0
  6
ByLayer
 62
  256
370
   -1
100
AcDbLine
 10
107.6674058
 20
16.69926969999999
 11
121.1903674
 21
20.3227363
  0
LINE
  5
E5
100
AcDbEntity
  8
0
  6
ByLayer
 62
  256
370
   -1
100
AcDbLine
 10
104.0439392
 20
30.22223129999999
 11
107.6674058
 21
16.69926969999999
  0
LINE
  5
E6
100
AcDbEntity
  8
0
  6
ByLayer
 62
  256
370
   -1
100
AcDbLine
 10
117.5669008
 20
33.84569789999999
 11
121.1903674
 21
20.3227363
  0
LINE
  5
E7
100
AcDbEntity
  8
0
  6
ByLayer
 62
  256
370
   -1
100
AcDbLine
 10
47.67560560000001
 20
11.1843324
 11
61.19856720000001
 21
14.807799
  0
LINE
  5
E8
100
AcDbEntity
  8
0
  6
ByLayer
 62
  256
370
   -1
100
AcDbLine
 10
51.29907220000001
 20
-2.338629200000007
 11
64.82203380000001
 21
1.284837399999994
  0
LINE
  5
E9
100
AcDbEntity
  8
0
  6
ByLayer
 62
  256
370
   -1
100
AcDbLine
 10
47.67560560000001
 20
11.1843324
 11
51.29907220000001
 21
-2.338629200000007
  0
LINE
  5
EA
100
AcDbEntity
  8
0
  6
ByLayer
 62
  256
370
   -1
100
AcDbLine
 10
61.19856720000001
 20
14.807799
 11
64.82203380000001
 21
1.284837399999994
  0
LINE
  5
EB
100
AcDbEntity
  8
0
  6
ByLayer
 62
  256
370
   -1
100
AcDbLine
 10
30.30652730000003
 20
2.596252399999997
 11
43.82948890000003
 21
6.219718999999998
  0
LINE
  5
EC
100
AcDbEntity
  8
0
  6
ByLayer
 62
  256
370
   -1
100
AcDbLine
 10
33.92999390000003
 20
-10.9267092
 11
47.45295550000003
 21
-7.303242600000004
  0
LINE
  5
ED
100
AcDbEntity
  8
0
  6
ByLayer
 62
  256
370
   -1
100
AcDbLine
 10
30.30652730000003
 20
2.596252399999997
 11
33.92999390000003
 21
-10.9267092
  0
LINE
  5
EE
100
AcDbEntity
  8
0
  6
ByLayer
 62
  256
370
   -1
100
AcDbLine
 10
43.82948890000003
 20
6.219718999999998
 11
47.45295550000003
 21
-7.303242600000004
  0
LINE
  5
EF
100
AcDbEntity
  8
0
  6
ByLayer
 62
  256
370
   -1
100
AcDbLine
 10
67.99522110000001
 20
8.760857999999992
 11
81.51818270000001
 21
12.38432459999999
  0
LINE
  5
F0
100
AcDbEntity
  8
0
  6
ByLayer
 62
  256
370
   -1
100
AcDbLine
 10
71.61868770000001
 20
-4.762103600000003
 11
85.14164930000001
 21
-1.138637000000003
  0
LINE
  5
F1
100
AcDbEntity
  8
0
  6
ByLayer
 62
  256
370
   -1
100
AcDbLine
 10
67.99522110000001
 20
8.760857999999992
 11
71.61868770000001
 21
-4.762103600000003
  0
LINE
  5
F2
100
AcDbEntity
  8
0
  6
ByLayer
 62
  256
370
   -1
100
AcDbLine
 10
81.51818270000001
 20
12.38432459999999
 11
85.14164930000001
 21
-1.138637000000003
  0
LINE
  5
F3
100
AcDbEntity
  8
0
  6
ByLayer
 62
  256
370
   -1
100
AcDbLine
 10
13.92096140000001
 20
-9.662345800000004
 11
27.44392300000001
 21
-6.038879200000004
  0
LINE
  5
F4
100
AcDbEntity
  8
0
  6
ByLayer
 62
  256
370
   -1
100
AcDbLine
 10
17.54442800000001
 20
-23.18530740000001
 11
31.06738960000001
 21
-19.56184080000001
  0
LINE
  5
F5
100
AcDbEntity
  8
0
  6
ByLayer
 62
  256
370
   -1
100
AcDbLine
 10
13.92096140000001
 20
-9.662345800000004
 11
17.54442800000001
 21
-23.18530740000001
  0
LINE
  5
F6
100
AcDbEntity
  8
0
  6
ByLayer
 62
  256
370
   -1
100
AcDbLine
 10
27.44392300000001
 20
-6.038879200000004
 11
31.06738960000001
 21
-19.56184080000001
  0
LINE
  5
F7
100
AcDbEntity
  8
0
  6
ByLayer
 62
  256
370
   -1
100
AcDbLine
 10
88.31483650000001
 20
6.337383499999994
 11
101.8377981
 21
9.960850099999995
  0
LINE
  5
F8
100
AcDbEntity
  8
0
  6
ByLayer
 62
  256
370
   -1
100
AcDbLine
 10
91.93830310000001
 20
-7.185578100000008
 11
105.4612647
 21
-3.562111500000007
  0
LINE
  5
F9
100
AcDbEntity
  8
0
  6
ByLayer
 62
  256
370
   -1
100
AcDbLine
 10
88.31483650000001
 20
6.337383499999994
 11
91.93830310000001
 21
-7.185578100000008
  0
LINE
  5
FA
100
AcDbEntity
  8
0
  6
ByLayer
 62
  256
370
   -1
100
AcDbLine
 10
101.8377981
 20
9.960850099999995
 11
105.4612647
 21
-3.562111500000007
  0
LINE
  5
FB
100
AcDbEntity
  8
0
  6
ByLayer
 62
  256
370
   -1
100
AcDbLine
 10
108.9615011
 20
11.8696406
 11
122.4844627
 21
15.4931072
  0
LINE
  5
FC
100
AcDbEntity
  8
0
  6
ByLayer
 62
  256
370
   -1
100
AcDbLine
 10
112.5849677
 20
-1.653321000000005
 11
126.1079293
 21
1.970145599999995
  0
LINE
  5
FD
100
AcDbEntity
  8
0
  6
ByLayer
 62
  256
370
   -1
100
AcDbLine
 10
108.9615011
 20
11.8696406
 11
112.5849677
 21
-1.653321000000005
  0
LINE
  5
FE
100
AcDbEntity
  8
0
  6
ByLayer
 62
  256
370
   -1
100
AcDbLine
 10
122.4844627
 20
15.4931072
 11
126.1079293
 21
1.970145599999995
  0
LINE
  5
FF
100
AcDbEntity
  8
0
  6
ByLayer
 62
  256
370
   -1
100
AcDbLine
 10
74.87980770000001
 20
-16.932769
 11
88.40276930000002
 21
-13.3093024
  0
LINE
  5
100
100
AcDbEntity
  8
0
  6
ByLayer
 62
  256
370
   -1
100
AcDbLine
 10
78.50327430000002
 20
-30.4557306
 11
92.02623590000002
 21
-26.832264
  0
LINE
  5
101
100
AcDbEntity
  8
0
  6
ByLayer
 62
  256
370
   -1
100
AcDbLine
 10
74.87980770000001
 20
-16.932769
 11
78.50327430000002
 21
-30.4557306
  0
LINE
  5
102
100
AcDbEntity
  8
0
  6
ByLayer
 62
  256
370
   -1
100
AcDbLine
 10
88.40276930000002
 20
-13.3093024
 11
92.02623590000002
 21
-26.832264
  0
LINE
  5
103
100
AcDbEntity
  8
0
  6
ByLayer
 62
  256
370
   -1
100
AcDbLine
 10
93.23239840000002
 20
-12.0152072
 11
106.75536
 21
-8.391740600000006
  0
LINE
  5
104
100
AcDbEntity
  8
0
  6
ByLayer
 62
  256
370
   -1
100
AcDbLine
 10
96.85586500000002
 20
-25.5381688
 11
110.3788266
 21
-21.9147022
  0
LINE
  5
105
100
AcDbEntity
  8
0
  6
ByLayer
 62
  256
370
   -1
100
AcDbLine
 10
93.23239840000002
 20
-12.0152072
 11
96.85586500000002
 21
-25.5381688
  0
LINE
  5
106
100
AcDbEntity
  8
0
  6
ByLayer
 62
  256
370
   -1
100
AcDbLine
 10
106.75536
 20
-8.391740600000006
 11
110.3788266
 21
-21.9147022
  0
LINE
  5
107
100
AcDbEntity
  8
0
  6
ByLayer
 62
  256
370
   -1
100
AcDbLine
 10
111.5849891
 20
-7.097645300000003
 11
125.1079507
 21
-3.474178700000003
  0
LINE
  5
108
100
AcDbEntity
  8
0
  6
ByLayer
 62
  256
370
   -1
100
AcDbLine
 10
115.2084557
 20
-20.62060690000001
 11
128.7314173
 21
-16.99714030000001
  0
LINE
  5
109
100
AcDbEntity
  8
0
  6
ByLayer
 62
  256
370
   -1
100
AcDbLine
 10
111.5849891
 20
-7.097645300000003
 11
115.2084557
 21
-20.62060690000001
  0
LINE
  5
10A
100
AcDbEntity
  8
0
  6
ByLayer
 62
  256
370
   -1
100
AcDbLine
 10
125.1079507
 20
-3.474178700000003
 11
128.7314173
 21
-16.99714030000001
  0
LINE
  5
10B
100
AcDbEntity
  8
0
  6
ByLayer
 62
  256
370
   -1
100
AcDbLine
 10
10.71162310000003
 20
-38.0606318
 11
24.23458470000003
 21
-34.4371652
  0
LINE
  5
10C
100
AcDbEntity
  8
0
  6
ByLayer
 62
  256
370
   -1
100
AcDbLine
 10
14.33508970000003
 20
-51.58359340000001
 11
27.85805130000003
 21
-47.9601268
  0
LINE
  5
10D
100
AcDbEntity
  8
0
  6
ByLayer
 62
  256
370
   -1
100
AcDbLine
 10
10.71162310000003
 20
-38.0606318
 11
14.33508970000003
 21
-51.58359340000001
  0
LINE
  5
10E
100
AcDbEntity
  8
0
  6
ByLayer
 62
  256
370
   -1
100
AcDbLine
 10
24.23458470000003
 20
-34.4371652
 11
27.85805130000003
 21
-47.9601268
  0
LINE
  5
10F
100
AcDbEntity
  8
0
  6
ByLayer
 62
  256
370
   -1
100
AcDbLine
 10
36.86406480000002
 20
-31.0531061
 11
50.38702640000002
 21
-27.4296395
  0
LINE
  5
110
100
AcDbEntity
  8
0
  6
ByLayer
 62
  256
370
   -1
100
AcDbLine
 10
40.48753140000002
 20
-44.5760677
 11
54.01049300000003
 21
-40.9526011
  0
LINE
  5
111
100
AcDbEntity
  8
0
  6
ByLayer
 62
  256
370
   -1
100
AcDbLine
 10
36.86406480000002
 20
-31.0531061
 11
40.48753140000002
 21
-44.5760677
  0
LINE
  5
112
100
AcDbEntity
  8
0
  6
ByLayer
 62
  256
370
   -1
100
AcDbLine
 10
50.38702640000002
 20
-27.4296395
 11
54.01049300000003
 21
-40.9526011
  0
LINE
  5
113
100
AcDbEntity
  8
noname
  6
ByLayer
 62
  256
370
   -1
100
AcDbLine
 10
0
 20
10
 11
0
 21
-10
  0
LINE
  5
114
100
AcDbEntity
  8
noname
  6
ByLayer
 62
  256
370
   -1
100
AcDbLine
 10
10
 20
0
 11
-10
 21
0
  0
LINE
  5
115
100
AcDbEntity
  8
rpi
  6
ByLayer
 62
  256
370
   -1
100
AcDbLine
 10
15.62818910592763
 20
54.16520115400665
 11
10.45180820387722
 21
34.84668462822529
  0
LINE
  5
116
100
AcDbEntity
  8
rpi
  6
ByLayer
 62
  256
370
   -1
100
AcDbLine
 10
15.62818910592763
 20
54.16520115400665
 11
-10.45180820387722
 21
61.15331537177471
  0
LINE
  5
117
100
AcDbEntity
  8
rpi
  6
ByLayer
 62
  256
370
   -1
100
AcDbLine
 10
10.45180820387722
 20
34.84668462822529
 11
-15.62818910592763
 21
41.83479884599335
  0
LINE
  5
118
100
AcDbEntity
  8
rpi
  6
ByLayer
 62
  256
370
   -1
100
AcDbLine
 10
15.62818910592763
 20
54.16520115400665
 11
-15.62818772553418
 21
41.83479847611804
  0
ARC
  5
119
100
AcDbEntity
  8
pcb
  6
ByLayer
 62
  256
370
   -1
100
AcDbCircle
 10
4.264804406326135
 20
-26.82541516819315
 40
30
100
AcDbArc
 50
270.0707264933247
 51
284.9999998418874
  0
LINE
  5
11A
100
AcDbEntity
  8
pcb
  6
ByLayer
 62
  256
370
   -1
100
AcDbLine
 10
-4.188657389985833
 20
-56.83587306930659
 11
4.301836702228554
 21
-56.82539231166879
  0
ARC
  5
11B
100
AcDbEntity
  8
pcb
  6
ByLayer
 62
  256
370
   -1
100
AcDbCircle
 10
-4.225689685888241
 20
-26.83589592583096
 40
30
100
AcDbArc
 50
255.0000001581127
 51
270.0707264933247
  0
LINE
  5
11C
100
AcDbEntity
  8
pcb
  6
ByLayer
 62
  256
370
   -1
100
AcDbLine
 10
-59.52758153364312
 20
-43.07608421821613
 11
-11.99026095899719
 21
-55.81367073593002
  0
ARC
  5
11D
100
AcDbEntity
  8
pcb
  6
ByLayer
 62
  256
370
   -1
100
AcDbCircle
 10
-33.64567728994663
 20
53.51649848211405
 40
100
100
AcDbArc
 50
252.2591137560896
 51
255.0000001581127
  0
LINE
  5
11E
100
AcDbEntity
  8
pcb
  6
ByLayer
 62
  256
370
   -1
100
AcDbLine
 10
59.52758153364333
 20
-43.07608421821608
 11
12.02937567943508
 21
-55.80318997829221
  0
ARC
  5
11F
100
AcDbEntity
  8
pcb
  6
ByLayer
 62
  256
370
   -1
100
AcDbCircle
 10
33.64567728994683
 20
53.51649848211409
 40
100
100
AcDbArc
 50
284.9999998418874
 51
287.7408862439104
  0
LINE
  5
120
100
AcDbEntity
  8
pcb
  6
ByLayer
 62
  256
370
   -1
100
AcDbLine
 10
64.11695751848971
 20
-41.72792960285901
 11
135.7093701577992
 21
-18.82357171408442
  0
ARC
  5
121
100
AcDbEntity
  8
pcb
  6
ByLayer
 62
  256
370
   -1
100
AcDbCircle
 10
135.0999445532284
 20
-16.91868315238496
 40
2
100
AcDbArc
 50
287.7408862439101
 51
14.99999984188741
  0
LINE
  5
122
100
AcDbEntity
  8
pcb
  6
ByLayer
 62
  256
370
   -1
100
AcDbLine
 10
117.7445804260862
 20
55.57982495883038
 11
137.031796207235
 21
-16.40104506751103
  0
ARC
  5
123
100
AcDbEntity
  8
pcb
  6
ByLayer
 62
  256
370
   -1
100
AcDbCircle
 10
115.8127287720796
 20
55.06218687395645
 40
2
100
AcDbArc
 50
14.99999984188733
 51
91.38345881038271
  0
ARC
  5
124
100
AcDbEntity
  8
pcb
  6
ByLayer
 62
  256
370
   -1
100
AcDbCircle
 10
33.57483529649176
 20
60.74444978490883
 40
10
100
AcDbArc
 50
255
 51
284.9999998418874
  0
LINE
  5
125
100
AcDbEntity
  8
pcb
  6
ByLayer
 62
  256
370
   -1
100
AcDbLine
 10
51.63825426197016
 20
55.23176645938164
 11
36.1630257208614
 21
51.08519151487582
  0
LINE
  5
126
100
AcDbEntity
  8
pcb
  6
ByLayer
 62
  256
370
   -1
100
AcDbLine
 10
53.98500903537139
 20
55.56959320581423
 11
115.7644416418859
 21
57.06160387724957
  0
ARC
  5
127
100
AcDbEntity
  8
pcb
  6
ByLayer
 62
  256
370
   -1
100
AcDbCircle
 10
54.2264446863398
 20
45.57250818934862
 40
10
100
AcDbArc
 50
91.38345881038262
 51
104.9999998418873
  0
ARC
  5
128
100
AcDbEntity
  8
pcb
  6
ByLayer
 62
  256
370
   -1
100
AcDbCircle
 10
-54.22644468633978
 20
45.5725081893486
 40
10
100
AcDbArc
 50
75.00000015811267
 51
88.61654118961741
  0
LINE
  5
129
100
AcDbEntity
  8
pcb
  6
ByLayer
 62
  256
370
   -1
100
AcDbLine
 10
-115.7644416418859
 20
57.06160387724955
 11
-53.98500903537137
 21
55.56959320581423
  0
ARC
  5
12A
100
AcDbEntity
  8
pcb
  6
ByLayer
 62
  256
370
   -1
100
AcDbCircle
 10
-115.8127287720796
 20
55.06218687395643
 40
2
100
AcDbArc
 50
88.61654118961729
 51
165.0000001581128
  0
LINE
  5
12B
100
AcDbEntity
  8
pcb
  6
ByLayer
 62
  256
370
   -1
100
AcDbLine
 10
-64.11695751848953
 20
-41.72792960285906
 11
-135.7093701577992
 21
-18.82357171408442
  0
LINE
  5
12C
100
AcDbEntity
  8
pcb
  6
ByLayer
 62
  256
370
   -1
100
AcDbLine
 10
-117.7445804260862
 20
55.57982495883036
 11
-137.031796207235
 21
-16.40104506751105
  0
ARC
  5
12D
100
AcDbEntity
  8
pcb
  6
ByLayer
 62
  256
370
   -1
100
AcDbCircle
 10
-135.0999445532284
 20
-16.91868315238496
 40
2
100
AcDbArc
 50
165.0000001581131
 51
252.2591137560899
  0
LINE
  5
12E
100
AcDbEntity
  8
pcb
  6
ByLayer
 62
  256
370
   -1
100
AcDbLine
 10
-51.63825426197013
 20
55.23176645938162
 11
-18.01813544500688
 21
46.22328287237669
  0
ARC
  5
12F
100
AcDbEntity
  8
pcb
  6
ByLayer
 62
  256
370
   -1
100
AcDbCircle
 10
-17.50049736013295
 20
48.15513452638329
 40
2
100
AcDbArc
 50
255.0000001581127
 51
345
  0
LINE
  5
130
100
AcDbEntity
  8
pcb
  6
ByLayer
 62
  256
370
   -1
100
AcDbLine
 10
-12.1057468995303
 20
60.56121072919545
 11
-15.56864570755482
 21
47.63749643617825
  0
LINE
  5
131
100
AcDbEntity
  8
pcb
  6
ByLayer
 62
  256
370
   -1
100
AcDbLine
 10
30.98664484546655
 20
51.08519152201814
 11
-9.656257156747127
 21
61.97542429156855
  0
ARC
  5
132
100
AcDbEntity
  8
pcb
  6
ByLayer
 62
  256
370
   -1
100
AcDbCircle
 10
-10.17389524695216
 20
60.04357263899041
 40
2
100
AcDbArc
 50
75.00000000000017
 51
165.0000000000001
  0
LINE
  5
133
100
AcDbEntity
  8
0
  6
ByLayer
 62
  256
370
   -1
100
AcDbLine
 10
-110.2743389
 20
51.5835934
 11
-100.3748439
 21
34.4371652
  0
LINE
  5
134
100
AcDbEntity
  8
0
  6
ByLayer
 62
  256
370
   -1
100
AcDbLine
 10
-117.4859746
 20
33.84569790000002
 11
-107.5864796
 21
16.69926970000002
  0
LINE
  5
135
100
AcDbEntity
  8
0
  6
ByLayer
 62
  256
370
   -1
100
AcDbLine
 10
-122.4035365
 20
15.49310720000003
 11
-112.5040415
 21
-1.653320999999973
  0
LINE
  5
136
100
AcDbEntity
  8
0
  6
ByLayer
 62
  256
370
   -1
100
AcDbLine
 10
-91.92174819999998
 20
46.66603150000002
 11
-82.02225319999998
 21
29.51960330000002
  0
LINE
  5
137
100
AcDbEntity
  8
0
  6
ByLayer
 62
  256
370
   -1
100
AcDbLine
 10
-96.83931009999999
 20
28.31344080000002
 11
-86.93981509999999
 21
11.16701260000002
  0
LINE
  5
138
100
AcDbEntity
  8
0
  6
ByLayer
 62
  256
370
   -1
100
AcDbLine
 10
-101.7568719
 20
9.960850100000025
 11
-91.85737690000001
 21
-7.185578099999978
  0
LINE
  5
139
100
AcDbEntity
  8
0
  6
ByLayer
 62
  256
370
   -1
100
AcDbLine
 10
-122.7329507
 20
-4.088873899999974
 11
-112.8334557
 21
-21.23530209999998
  0
LINE
  5
13A
100
AcDbEntity
  8
0
  6
ByLayer
 62
  256
370
   -1
100
AcDbLine
 10
-71.60213280000001
 20
49.08950590000002
 11
-61.70263780000001
 21
31.94307770000002
  0
LINE
  5
13B
100
AcDbEntity
  8
0
  6
ByLayer
 62
  256
370
   -1
100
AcDbLine
 10
-76.51969459999999
 20
30.73691530000002
 11
-66.62019959999999
 21
13.59048710000002
  0
LINE
  5
13C
100
AcDbEntity
  8
0
  6
ByLayer
 62
  256
370
   -1
100
AcDbLine
 10
-81.43725649999999
 20
12.38432460000002
 11
-71.53776149999999
 21
-4.762103599999982
  0
LINE
  5
13D
100
AcDbEntity
  8
0
  6
ByLayer
 62
  256
370
   -1
100
AcDbLine
 10
-99.7922123
 20
-10.23582629999997
 11
-89.8927173
 21
-27.38225449999997
  0
LINE
  5
13E
100
AcDbEntity
  8
0
  6
ByLayer
 62
  256
370
   -1
100
AcDbLine
 10
-51.28251729999999
 20
51.51298040000001
 11
-41.38302229999999
 21
34.36655220000001
  0
LINE
  5
13F
100
AcDbEntity
  8
0
  6
ByLayer
 62
  256
370
   -1
100
AcDbLine
 10
-56.2000792
 20
33.16038970000002
 11
-46.3005842
 21
16.01396150000002
  0
LINE
  5
140
100
AcDbEntity
  8
0
  6
ByLayer
 62
  256
370
   -1
100
AcDbLine
 10
-61.11764099999999
 20
14.80779900000002
 11
-51.21814599999999
 21
-2.338629199999978
  0
LINE
  5
141
100
AcDbEntity
  8
0
  6
ByLayer
 62
  256
370
   -1
100
AcDbLine
 10
-33.913439
 20
42.92490040000003
 11
-24.013944
 21
25.77847220000002
  0
LINE
  5
142
100
AcDbEntity
  8
0
  6
ByLayer
 62
  256
370
   -1
100
AcDbLine
 10
-38.83100089999999
 20
24.57230970000002
 11
-28.93150589999999
 21
7.42588150000002
  0
LINE
  5
143
100
AcDbEntity
  8
0
  6
ByLayer
 62
  256
370
   -1
100
AcDbLine
 10
-43.74856269999999
 20
6.219719000000027
 11
-33.84906769999999
 21
-10.92670919999998
  0
LINE
  5
144
100
AcDbEntity
  8
0
  6
ByLayer
 62
  256
370
   -1
100
AcDbLine
 10
-17.52787299999999
 20
30.66630220000002
 11
-7.628377999999984
 21
13.51987400000002
  0
LINE
  5
145
100
AcDbEntity
  8
0
  6
ByLayer
 62
  256
370
   -1
100
AcDbLine
 10
-22.4454349
 20
12.31371150000003
 11
-12.54593989999999
 21
-4.832716699999978
  0
LINE
  5
146
100
AcDbEntity
  8
0
  6
ByLayer
 62
  256
370
   -1
100
AcDbLine
 10
-27.36299679999999
 20
-6.038879199999974
 11
-17.46350179999999
 21
-23.18530739999998
  0
LINE
  5
147
100
AcDbEntity
  8
0
  6
ByLayer
 62
  256
370
   -1
100
AcDbLine
 10
-76.85147389999997
 20
-16.38277859999997
 11
-66.95197889999997
 21
-33.52920679999998
  0
LINE
  5
148
100
AcDbEntity
  8
0
  6
ByLayer
 62
  256
370
   -1
100
AcDbLine
 10
-50.30610019999998
 20
-27.42963949999997
 11
-40.40660519999998
 21
-44.57606769999997
  0
LINE
  5
149
100
AcDbEntity
  8
0
  6
ByLayer
 62
  256
370
   -1
100
AcDbLine
 10
-24.15365849999999
 20
-34.43716519999997
 11
-14.25416349999999
 21
-51.58359339999998
  0
LINE
  5
14A
100
AcDbEntity
  8
0
  6
ByLayer
 62
  256
370
   -1
100
AcDbLine
 10
110.3552651
 20
51.5835934
 11
100.4557701
 21
34.4371652
  0
LINE
  5
14B
100
AcDbEntity
  8
0
  6
ByLayer
 62
  256
370
   -1
100
AcDbLine
 10
117.5669008
 20
33.84569789999999
 11
107.6674058
 21
16.69926969999999
  0
LINE
  5
14C
100
AcDbEntity
  8
0
  6
ByLayer
 62
  256
370
   -1
100
AcDbLine
 10
122.4844627
 20
15.4931072
 11
112.5849677
 21
-1.653321000000007
  0
LINE
  5
14D
100
AcDbEntity
  8
0
  6
ByLayer
 62
  256
370
   -1
100
AcDbLine
 10
125.1079507
 20
-3.474178700000003
 11
115.2084557
 21
-20.62060690000001
  0
LINE
  5
14E
100
AcDbEntity
  8
0
  6
ByLayer
 62
  256
370
   -1
100
AcDbLine
 10
106.75536
 20
-8.391740600000004
 11
96.85586500000002
 21
-25.53816880000001
  0
LINE
  5
14F
100
AcDbEntity
  8
0
  6
ByLayer
 62
  256
370
   -1
100
AcDbLine
 10
101.8377981
 20
9.960850099999995
 11
91.93830310000003
 21
-7.185578100000008
  0
LINE
  5
150
100
AcDbEntity
  8
0
  6
ByLayer
 62
  256
370
   -1
100
AcDbLine
 10
96.92023630000003
 20
28.3134408
 11
87.02074130000003
 21
11.16701259999999
  0
LINE
  5
151
100
AcDbEntity
  8
0
  6
ByLayer
 62
  256
370
   -1
100
AcDbLine
 10
92.0026744
 20
46.66603149999999
 11
82.1031794
 21
29.51960329999999
  0
LINE
  5
152
100
AcDbEntity
  8
0
  6
ByLayer
 62
  256
370
   -1
100
AcDbLine
 10
71.68305900000001
 20
49.08950589999999
 11
61.78356400000001
 21
31.94307769999999
  0
LINE
  5
153
100
AcDbEntity
  8
0
  6
ByLayer
 62
  256
370
   -1
100
AcDbLine
 10
76.60062080000003
 20
30.73691529999999
 11
66.70112580000003
 21
13.59048709999999
  0
LINE
  5
154
100
AcDbEntity
  8
0
  6
ByLayer
 62
  256
370
   -1
100
AcDbLine
 10
81.51818270000001
 20
12.3843246
 11
71.61868770000001
 21
-4.762103600000007
  0
LINE
  5
155
100
AcDbEntity
  8
0
  6
ByLayer
 62
  256
370
   -1
100
AcDbLine
 10
88.40276930000002
 20
-13.3093024
 11
78.50327430000002
 21
-30.4557306
  0
LINE
  5
156
100
AcDbEntity
  8
0
  6
ByLayer
 62
  256
370
   -1
100
AcDbLine
 10
50.38702640000002
 20
-27.4296395
 11
40.48753140000002
 21
-44.5760677
  0
LINE
  5
157
100
AcDbEntity
  8
0
  6
ByLayer
 62
  256
370
   -1
100
AcDbLine
 10
24.23458470000003
 20
-34.4371652
 11
14.33508970000003
 21
-51.58359340000001
  0
LINE
  5
158
100
AcDbEntity
  8
0
  6
ByLayer
 62
  256
370
   -1
100
AcDbLine
 10
27.44392300000002
 20
-6.038879200000004
 11
17.54442800000001
 21
-23.18530740000001
  0
LINE
  5
159
100
AcDbEntity
  8
0
  6
ByLayer
 62
  256
370
   -1
100
AcDbLine
 10
22.52636110000003
 20
12.3137115
 11
12.62686610000003
 21
-4.832716700000006
  0
LINE
  5
15A
100
AcDbEntity
  8
0
  6
ByLayer
 62
  256
370
   -1
100
AcDbLine
 10
17.60879920000002
 20
30.6663022
 11
7.70930420000002
 21
13.51987399999999
  0
LINE
  5
15B
100
AcDbEntity
  8
0
  6
ByLayer
 62
  256
370
   -1
100
AcDbLine
 10
33.99436520000003
 20
42.9249004
 11
24.09487020000003
 21
25.7784722
  0
LINE
  5
15C
100
AcDbEntity
  8
0
  6
ByLayer
 62
  256
370
   -1
100
AcDbLine
 10
38.91192710000001
 20
24.57230969999999
 11
29.01243210000001
 21
7.425881499999988
  0
LINE
  5
15D
100
AcDbEntity
  8
0
  6
ByLayer
 62
  256
370
   -1
100
AcDbLine
 10
43.82948890000003
 20
6.219718999999998
 11
33.92999390000003
 21
-10.9267092
  0
LINE
  5
15E
100
AcDbEntity
  8
0
  6
ByLayer
 62
  256
370
   -1
100
AcDbLine
 10
56.28100540000003
 20
33.1603897
 11
46.38151040000003
 21
16.01396149999999
  0
LINE
  5
15F
100
AcDbEntity
  8
0
  6
ByLayer
 62
  256
370
   -1
100
AcDbLine
 10
51.36344350000001
 20
51.5129804
 11
41.46394850000001
 21
34.3665522
  0
LINE
  5
160
100
AcDbEntity
  8
0
  6
ByLayer
 62
  256
370
   -1
100
AcDbLine
 10
61.19856720000001
 20
14.807799
 11
51.29907220000001
 21
-2.338629200000007
  0
LINE
  5
161
100
AcDbEntity
  8
0
  6
ByLayer
 62
  256
370
   -1
100
AcDbLine
 10
-6.959536899999975
 20
-15.61887930000001
 11
7.040463100000011
 21
-29.61887930000001
  0
CIRCLE
  5
162
100
AcDbEntity
  8
percage
  6
ByLayer
 62
  256
370
   -1
100
AcDbCircle
 10
63.847151807686
 20
-13.05922017265213
 40
1.1
  0
CIRCLE
  5
163
100
AcDbEntity
  8
percage
  6
ByLayer
 62
  256
370
   -1
100
AcDbCircle
 10
0
 20
-0
 40
1.1
  0
CIRCLE
  5
164
100
AcDbEntity
  8
percage
  6
ByLayer
 62
  256
370
   -1
100
AcDbCircle
 10
-63.847151807686
 20
-13.05922017265213
 40
1.1
  0
ARC
  5
165
100
AcDbEntity
  8
int
  6
ByLayer
 62
  256
370
   -1
100
AcDbCircle
 10
0.04046310000002507
 20
18.95815922935327
 40
4
100
AcDbArc
 50
14.99999984188736
 51
165.0000001581127
  0
LINE
  5
166
100
AcDbEntity
  8
int
  6
ByLayer
 62
  256
370
   -1
100
AcDbLine
 10
3.904166408013232
 20
19.99343539910113
 11
11.56136071950375
 21
-8.58360313025215
  0
ARC
  5
167
100
AcDbEntity
  8
int
  6
ByLayer
 62
  256
370
   -1
100
AcDbCircle
 10
7.697657411490544
 20
-9.61887930000001
 40
4
100
AcDbArc
 50
270
 51
14.99999984188733
  0
LINE
  5
168
100
AcDbEntity
  8
int
  6
ByLayer
 62
  256
370
   -1
100
AcDbLine
 10
-7.616731211490494
 20
-13.61887930000001
 11
7.697657411490544
 21
-13.61887930000001
  0
LINE
  5
169
100
AcDbEntity
  8
int
  6
ByLayer
 62
  256
370
   -1
100
AcDbLine
 10
-3.823240208013182
 20
19.99343539910113
 11
-11.4804345195037
 21
-8.583603130252158
  0
ARC
  5
16A
100
AcDbEntity
  8
int
  6
ByLayer
 62
  256
370
   -1
100
AcDbCircle
 10
-7.616731211490494
 20
-9.61887930000001
 40
4
100
AcDbArc
 50
165.0000001581128
 51
270
  0
ARC
  5
16B
100
AcDbEntity
  8
int
  6
ByLayer
 62
  256
370
   -1
100
AcDbCircle
 10
66.39253466299851
 20
-8.440054792174568
 40
2
100
AcDbArc
 50
14.99999984188733
 51
104.9999998418876
  0
LINE
  5
16C
100
AcDbEntity
  8
int
  6
ByLayer
 62
  256
370
   -1
100
AcDbLine
 10
68.32438631700511
 20
-7.922416707300641
 11
70.44670246266126
 21
-15.84300848004341
  0
ARC
  5
16D
100
AcDbEntity
  8
int
  6
ByLayer
 62
  256
370
   -1
100
AcDbCircle
 10
68.51485080865466
 20
-16.36064656491734
 40
2
100
AcDbArc
 50
284.9999998418871
 51
14.99999984188733
  0
LINE
  5
16E
100
AcDbEntity
  8
int
  6
ByLayer
 62
  256
370
   -1
100
AcDbLine
 10
35.93119597606346
 20
-14.53159344432458
 11
65.87489657812458
 21
-6.508203138167966
  0
ARC
  5
16F
100
AcDbEntity
  8
int
  6
ByLayer
 62
  256
370
   -1
100
AcDbCircle
 10
36.44883406093739
 20
-16.46344509833119
 40
2
100
AcDbArc
 50
104.9999998418873
 51
194.9999998418874
  0
LINE
  5
170
100
AcDbEntity
  8
int
  6
ByLayer
 62
  256
370
   -1
100
AcDbLine
 10
39.08878829146747
 20
-26.31588852508057
 11
69.03248889352858
 21
-18.29249821892394
  0
LINE
  5
171
100
AcDbEntity
  8
int
  6
ByLayer
 62
  256
370
   -1
100
AcDbLine
 10
34.51698240693078
 20
-16.98108318320512
 11
36.63929855258695
 21
-24.90167495594789
  0
ARC
  5
172
100
AcDbEntity
  8
int
  6
ByLayer
 62
  256
370
   -1
100
AcDbCircle
 10
38.57115020659354
 20
-24.38403687107396
 40
2
100
AcDbArc
 50
194.9999998418874
 51
284.9999998418874
  0
LINE
  5
173
100
AcDbEntity
  8
int
  6
ByLayer
 62
  256
370
   -1
100
AcDbLine
 10
59.26876249120637
 20
-42.11015839121278
 11
11.77055663699812
 21
-54.83726415128891
  0
ARC
  5
174
100
AcDbEntity
  8
int
  6
ByLayer
 62
  256
370
   -1
100
AcDbCircle
 10
33.64567728994683
 20
53.51649848211409
 40
99
100
AcDbArc
 50
284.9999998418874
 51
287.7408862439104
  0
ARC
  5
175
100
AcDbEntity
  8
int
  6
ByLayer
 62
  256
370
   -1
100
AcDbCircle
 10
4.264804406326135
 20
-26.82541516819315
 40
29
100
AcDbArc
 50
270.0707264933247
 51
284.9999998418874
  0
LINE
  5
176
100
AcDbEntity
  8
int
  6
ByLayer
 62
  256
370
   -1
100
AcDbLine
 10
-4.189891799849247
 20
-55.83587383119074
 11
4.300602292365141
 21
-55.82539307355293
  0
ARC
  5
177
100
AcDbEntity
  8
int
  6
ByLayer
 62
  256
370
   -1
100
AcDbCircle
 10
-4.225689685888241
 20
-26.83589592583096
 40
29
100
AcDbArc
 50
255.0000001581127
 51
270.0707264933247
  0
LINE
  5
178
100
AcDbEntity
  8
int
  6
ByLayer
 62
  256
370
   -1
100
AcDbLine
 10
-59.26876249120615
 20
-42.11015839121283
 11
-11.73144191656023
 21
-54.84774490892671
  0
LINE
  5
179
100
AcDbEntity
  8
int
  6
ByLayer
 62
  256
370
   -1
100
AcDbLine
 10
51.89707330440712
 20
54.26584063237834
 11
36.42184476329836
 21
50.11926568787251
  0
ARC
  5
17A
100
AcDbEntity
  8
int
  6
ByLayer
 62
  256
370
   -1
100
AcDbCircle
 10
33.57483529649176
 20
60.74444978490883
 40
11
100
AcDbArc
 50
255
 51
284.9999998418874
  0
LINE
  5
17B
100
AcDbEntity
  8
int
  6
ByLayer
 62
  256
370
   -1
100
AcDbLine
 10
30.72782580036403
 20
50.11926569572908
 11
-9.915076201849647
 21
61.00949846527948
  0
ARC
  5
17C
100
AcDbEntity
  8
int
  6
ByLayer
 62
  256
370
   -1
100
AcDbCircle
 10
-10.17389524695216
 20
60.04357263899041
 40
1
100
AcDbArc
 50
75.00000000000017
 51
165.0000000000001
  0
ARC
  5
17D
100
AcDbEntity
  8
int
  6
ByLayer
 62
  256
370
   -1
100
AcDbCircle
 10
-54.22644468633978
 20
45.5725081893486
 40
9
100
AcDbArc
 50
75.00000015811267
 51
88.61654118961741
  0
ARC
  5
17E
100
AcDbEntity
  8
int
  6
ByLayer
 62
  256
370
   -1
100
AcDbCircle
 10
-33.64567728994663
 20
53.51649848211405
 40
99
100
AcDbArc
 50
252.2591137560896
 51
255.0000001581127
  0
ARC
  5
17F
100
AcDbEntity
  8
int
  6
ByLayer
 62
  256
370
   -1
100
AcDbCircle
 10
54.2264446863398
 20
45.57250818934862
 40
9
100
AcDbArc
 50
91.38345881038262
 51
104.9999998418873
  0
ARC
  5
180
100
AcDbEntity
  8
int
  6
ByLayer
 62
  256
370
   -1
100
AcDbCircle
 10
-66.39253466299851
 20
-8.440054792174575
 40
2
100
AcDbArc
 50
75.00000015811244
 51
165.0000001581127
  0
LINE
  5
181
100
AcDbEntity
  8
int
  6
ByLayer
 62
  256
370
   -1
100
AcDbLine
 10
-68.32438631700511
 20
-7.922416707300656
 11
-70.44670246266126
 21
-15.84300848004341
  0
ARC
  5
182
100
AcDbEntity
  8
int
  6
ByLayer
 62
  256
370
   -1
100
AcDbCircle
 10
-68.51485080865466
 20
-16.36064656491734
 40
2
100
AcDbArc
 50
165.0000001581127
 51
255.0000001581129
  0
LINE
  5
183
100
AcDbEntity
  8
int
  6
ByLayer
 62
  256
370
   -1
100
AcDbLine
 10
-35.93119597606346
 20
-14.5315934443246
 11
-65.87489657812458
 21
-6.508203138167977
  0
ARC
  5
184
100
AcDbEntity
  8
int
  6
ByLayer
 62
  256
370
   -1
100
AcDbCircle
 10
-36.44883406093739
 20
-16.46344509833118
 40
2
100
AcDbArc
 50
345.0000001581126
 51
75.00000015811267
  0
LINE
  5
185
100
AcDbEntity
  8
int
  6
ByLayer
 62
  256
370
   -1
100
AcDbLine
 10
-39.08878829146747
 20
-26.31588852508058
 11
-69.03248889352858
 21
-18.29249821892395
  0
LINE
  5
186
100
AcDbEntity
  8
int
  6
ByLayer
 62
  256
370
   -1
100
AcDbLine
 10
-34.51698240693078
 20
-16.98108318320514
 11
-36.63929855258695
 21
-24.9016749559479
  0
ARC
  5
187
100
AcDbEntity
  8
int
  6
ByLayer
 62
  256
370
   -1
100
AcDbCircle
 10
-38.57115020659354
 20
-24.38403687107397
 40
2
100
AcDbArc
 50
255.0000001581127
 51
345.0000001581126
  0
LINE
  5
188
100
AcDbEntity
  8
int
  6
ByLayer
 62
  256
370
   -1
100
AcDbLine
 10
-51.89707330440709
 20
54.26584063237832
 11
-17.3110286631061
 21
44.99853800365065
  0
LINE
  5
189
100
AcDbEntity
  8
int
  6
ByLayer
 62
  256
370
   -1
100
AcDbLine
 10
-11.13982107324124
 20
60.30239168409293
 11
-14.86153892565404
 21
46.41275156745222
  0
ARC
  5
18A
100
AcDbEntity
  8
int
  6
ByLayer
 62
  256
370
   -1
100
AcDbCircle
 10
-16.79339057823217
 20
46.93038965765726
 40
2
100
AcDbArc
 50
255.0000001581128
 51
345
  0
LINE
  5
18B
100
AcDbEntity
  8
int
  6
ByLayer
 62
  256
370
   -1
100
AcDbLine
 10
-115.0021258297879
 20
56.04290190586851
 11
-54.00915260046821
 21
54.56988470416767
  0
ARC
  5
18C
100
AcDbEntity
  8
int
  6
ByLayer
 62
  256
370
   -1
100
AcDbCircle
 10
-115.0504129599815
 20
54.04348490257539
 40
2
100
AcDbArc
 50
88.61654118961729
 51
165.0000001581126
  0
LINE
  5
18D
100
AcDbEntity
  8
int
  6
ByLayer
 62
  256
370
   -1
100
AcDbLine
 10
-63.8122447162041
 20
-40.77548532200933
 11
-134.4967195687386
 21
-18.1616013988742
  0
LINE
  5
18E
100
AcDbEntity
  8
int
  6
ByLayer
 62
  256
370
   -1
100
AcDbLine
 10
-116.9822646139881
 20
54.56112298744932
 11
-135.8191456181744
 21
-15.73907475230082
  0
ARC
  5
18F
100
AcDbEntity
  8
int
  6
ByLayer
 62
  256
370
   -1
100
AcDbCircle
 10
-133.8872939641678
 20
-16.25671283717475
 40
2
100
AcDbArc
 50
165.0000001581128
 51
252.2591137560899
  0
LINE
  5
190
100
AcDbEntity
  8
int
  6
ByLayer
 62
  256
370
   -1
100
AcDbLine
 10
54.00915260046823
 20
54.56988470416767
 11
115.0021258297879
 21
56.04290190586853
  0
ARC
  5
191
100
AcDbEntity
  8
int
  6
ByLayer
 62
  256
370
   -1
100
AcDbCircle
 10
115.0504129599815
 20
54.04348490257541
 40
2
100
AcDbArc
 50
14.99999984188744
 51
91.38345881038231
  0
LINE
  5
192
100
AcDbEntity
  8
int
  6
ByLayer
 62
  256
370
   -1
100
AcDbLine
 10
63.81224471620428
 20
-40.77548532200927
 11
134.4967195687386
 21
-18.16160139887421
  0
LINE
  5
193
100
AcDbEntity
  8
int
  6
ByLayer
 62
  256
370
   -1
100
AcDbLine
 10
116.9822646139881
 20
54.56112298744934
 11
135.8191456181744
 21
-15.73907475230082
  0
ARC
  5
194
100
AcDbEntity
  8
int
  6
ByLayer
 62
  256
370
   -1
100
AcDbCircle
 10
133.8872939641678
 20
-16.25671283717475
 40
2
100
AcDbArc
 50
287.7408862439102
 51
14.99999984188751
  0
ARC
  5
195
100
AcDbEntity
  8
int
  6
ByLayer
 62
  256
370
   -1
100
AcDbCircle
 10
-82.72935996642894
 20
30.74434816458037
 40
1
100
AcDbArc
 50
344.9999990822595
 51
75.00000015811248
  0
LINE
  5
196
100
AcDbEntity
  8
int
  6
ByLayer
 62
  256
370
   -1
100
AcDbLine
 10
-94.06165086998537
 20
34.81610250670975
 11
-82.47054092399198
 21
31.71027399158367
  0
ARC
  5
197
100
AcDbEntity
  8
int
  6
ByLayer
 62
  256
370
   -1
100
AcDbCircle
 10
-94.32046991242234
 20
33.85017667970646
 40
1
100
AcDbArc
 50
75.00000015811239
 51
164.9999990822596
  0
LINE
  5
198
100
AcDbEntity
  8
int
  6
ByLayer
 62
  256
370
   -1
100
AcDbLine
 10
-96.58049103456575
 20
29.27936664028076
 11
-95.28639573456574
 21
34.10899574028078
  0
ARC
  5
199
100
AcDbEntity
  8
int
  6
ByLayer
 62
  256
370
   -1
100
AcDbCircle
 10
-95.61456521242236
 20
29.02054757970644
 40
1
100
AcDbArc
 50
164.9999990822596
 51
255.0000001581124
  0
LINE
  5
19A
100
AcDbEntity
  8
int
  6
ByLayer
 62
  256
370
   -1
100
AcDbLine
 10
-84.28227430886592
 20
24.94879323757707
 11
-95.87338425485933
 21
28.05462175270314
  0
LINE
  5
19B
100
AcDbEntity
  8
int
  6
ByLayer
 62
  256
370
   -1
100
AcDbLine
 10
-81.76343414428554
 20
30.48552910400604
 11
-83.05752944428555
 21
25.65590000400605
  0
ARC
  5
19C
100
AcDbEntity
  8
int
  6
ByLayer
 62
  256
370
   -1
100
AcDbCircle
 10
-84.02345526642895
 20
25.91471906458037
 40
1
100
AcDbArc
 50
255.0000001581125
 51
344.9999990822595
  0
ARC
  5
19D
100
AcDbEntity
  8
int
  6
ByLayer
 62
  256
370
   -1
100
AcDbCircle
 10
82.72935996642894
 20
30.74434816458036
 40
1
100
AcDbArc
 50
104.9999998418875
 51
195.0000009177404
  0
LINE
  5
19E
100
AcDbEntity
  8
int
  6
ByLayer
 62
  256
370
   -1
100
AcDbLine
 10
94.06165086998537
 20
34.81610250670975
 11
82.47054092399198
 21
31.71027399158367
  0
ARC
  5
19F
100
AcDbEntity
  8
int
  6
ByLayer
 62
  256
370
   -1
100
AcDbCircle
 10
94.32046991242234
 20
33.85017667970646
 40
1
100
AcDbArc
 50
15.00000091774041
 51
104.9999998418876
  0
LINE
  5
1A0
100
AcDbEntity
  8
int
  6
ByLayer
 62
  256
370
   -1
100
AcDbLine
 10
96.58049103456575
 20
29.27936664028076
 11
95.28639573456574
 21
34.10899574028078
  0
ARC
  5
1A1
100
AcDbEntity
  8
int
  6
ByLayer
 62
  256
370
   -1
100
AcDbCircle
 10
95.61456521242236
 20
29.02054757970643
 40
1
100
AcDbArc
 50
284.9999998418876
 51
15.00000091774044
  0
LINE
  5
1A2
100
AcDbEntity
  8
int
  6
ByLayer
 62
  256
370
   -1
100
AcDbLine
 10
84.28227430886592
 20
24.94879323757707
 11
95.87338425485933
 21
28.05462175270314
  0
LINE
  5
1A3
100
AcDbEntity
  8
int
  6
ByLayer
 62
  256
370
   -1
100
AcDbLine
 10
81.76343414428554
 20
30.48552910400604
 11
83.05752944428555
 21
25.65590000400605
  0
ARC
  5
1A4
100
AcDbEntity
  8
int
  6
ByLayer
 62
  256
370
   -1
100
AcDbCircle
 10
84.02345526642895
 20
25.91471906458038
 40
1
100
AcDbArc
 50
195.0000009177404
 51
284.9999998418875
  0
ARC
  5
1A5
100
AcDbEntity
  8
ajour
  6
ByLayer
 62
  256
370
   -1
100
AcDbCircle
 10
-84.02345526642895
 20
25.91471906458037
 40
6
100
AcDbArc
 50
255.0000001581125
 51
344.9999990822595
  0
ARC
  5
1A6
100
AcDbEntity
  8
ajour
  6
ByLayer
 62
  256
370
   -1
100
AcDbCircle
 10
-66.39253466299851
 20
-8.440054792174575
 40
7
100
AcDbArc
 50
75.00000015811244
 51
165.0000001581127
  0
LINE
  5
1A7
100
AcDbEntity
  8
ajour
  6
ByLayer
 62
  256
370
   -1
100
AcDbLine
 10
-85.57636952105075
 20
20.11916410256056
 11
-112.8637741422635
 21
27.4308020536474
  0
ARC
  5
1A8
100
AcDbEntity
  8
ajour
  6
ByLayer
 62
  256
370
   -1
100
AcDbCircle
 10
-114.4166883968853
 20
21.63524709162758
 40
6
100
AcDbArc
 50
75.00000015811274
 51
165.0000001581126
  0
LINE
  5
1A9
100
AcDbEntity
  8
ajour
  6
ByLayer
 62
  256
370
   -1
100
AcDbLine
 10
-120.2122433589051
 20
23.18816134624937
 11
-128.7689936246421
 21
-8.746065745660982
  0
ARC
  5
1AA
100
AcDbEntity
  8
ajour
  6
ByLayer
 62
  256
370
   -1
100
AcDbCircle
 10
-122.9734386626223
 20
-10.29898000028277
 40
6
100
AcDbArc
 50
165.0000001581127
 51
252.2591137560895
  0
LINE
  5
1AB
100
AcDbEntity
  8
ajour
  6
ByLayer
 62
  256
370
   -1
100
AcDbLine
 10
-73.15401545202161
 20
-6.62832149511583
 11
-77.91909665619185
 21
-24.41184684757138
  0
LINE
  5
1AC
100
AcDbEntity
  8
ajour
  6
ByLayer
 62
  256
370
   -1
100
AcDbLine
 10
-85.54292843192422
 20
-28.57359827804797
 11
-124.8017154763349
 21
-16.01364568538115
  0
ARC
  5
1AD
100
AcDbEntity
  8
ajour
  6
ByLayer
 62
  256
370
   -1
100
AcDbCircle
 10
-83.71465161821166
 20
-22.85893259294959
 40
6
100
AcDbArc
 50
252.2591137560896
 51
345.0000001581126
  0
LINE
  5
1AE
100
AcDbEntity
  8
ajour
  6
ByLayer
 62
  256
370
   -1
100
AcDbLine
 10
-23.93641138157417
 20
-12.56920535610326
 11
-64.58080136593975
 21
-1.678574003151468
  0
ARC
  5
1AF
100
AcDbEntity
  8
ajour
  6
ByLayer
 62
  256
370
   -1
100
AcDbCircle
 10
-22.38349712695239
 20
-6.773650394083443
 40
6
100
AcDbArc
 50
255.0000001581127
 51
345.0000001581128
  0
LINE
  5
1B0
100
AcDbEntity
  8
ajour
  6
ByLayer
 62
  256
370
   -1
100
AcDbLine
 10
-6.152113705903552
 20
30.62047780937529
 11
-16.58794216493258
 21
-8.326564648705222
  0
ARC
  5
1B1
100
AcDbEntity
  8
ajour
  6
ByLayer
 62
  256
370
   -1
100
AcDbCircle
 10
-11.94766866792336
 20
32.17339206399708
 40
6
100
AcDbArc
 50
345.0000001581126
 51
75.00000015811258
  0
ARC
  5
1B2
100
AcDbEntity
  8
ajour
  6
ByLayer
 62
  256
370
   -1
100
AcDbCircle
 10
25.17548570969884
 20
-24.61887930000001
 40
6
100
AcDbArc
 50
14.99999984188741
 51
90
  0
LINE
  5
1B3
100
AcDbEntity
  8
ajour
  6
ByLayer
 62
  256
370
   -1
100
AcDbLine
 10
-25.17548570969884
 20
-18.61887930000001
 11
25.17548570969884
 21
-18.61887930000001
  0
ARC
  5
1B4
100
AcDbEntity
  8
ajour
  6
ByLayer
 62
  256
370
   -1
100
AcDbCircle
 10
-25.17548570969884
 20
-24.61887930000001
 40
6
100
AcDbArc
 50
89.99999999999997
 51
165.0000001581126
  0
LINE
  5
1B5
100
AcDbEntity
  8
ajour
  6
ByLayer
 62
  256
370
   -1
100
AcDbLine
 10
-30.97104067171865
 20
-23.06596504537821
 11
-34.78066738410558
 21
-37.28368565081784
  0
ARC
  5
1B6
100
AcDbEntity
  8
ajour
  6
ByLayer
 62
  256
370
   -1
100
AcDbCircle
 10
-28.98511242208579
 20
-38.83659990543964
 40
6
100
AcDbArc
 50
165.0000001581125
 51
255.0000001581126
  0
LINE
  5
1B7
100
AcDbEntity
  8
ajour
  6
ByLayer
 62
  256
370
   -1
100
AcDbLine
 10
30.97104067171865
 20
-23.06596504537821
 11
34.78066738410558
 21
-37.28368565081786
  0
ARC
  5
1B8
100
AcDbEntity
  8
ajour
  6
ByLayer
 62
  256
370
   -1
100
AcDbCircle
 10
28.98511242208576
 20
-38.83659990543966
 40
6
100
AcDbArc
 50
284.9999998418874
 51
14.99999984188741
  0
ARC
  5
1B9
100
AcDbEntity
  8
ajour
  6
ByLayer
 62
  256
370
   -1
100
AcDbCircle
 10
84.02345526642895
 20
25.91471906458037
 40
6
100
AcDbArc
 50
195.0000009177404
 51
284.9999998418875
  0
ARC
  5
1BA
100
AcDbEntity
  8
ajour
  6
ByLayer
 62
  256
370
   -1
100
AcDbCircle
 10
66.39253466299851
 20
-8.440054792174568
 40
7
100
AcDbArc
 50
14.99999984188733
 51
104.9999998418875
  0
LINE
  5
1BB
100
AcDbEntity
  8
ajour
  6
ByLayer
 62
  256
370
   -1
100
AcDbLine
 10
85.57636952105075
 20
20.11916410256056
 11
112.8637741422635
 21
27.4308020536474
  0
ARC
  5
1BC
100
AcDbEntity
  8
ajour
  6
ByLayer
 62
  256
370
   -1
100
AcDbCircle
 10
114.4166883968853
 20
21.63524709162758
 40
6
100
AcDbArc
 50
14.99999984188733
 51
104.9999998418872
  0
LINE
  5
1BD
100
AcDbEntity
  8
ajour
  6
ByLayer
 62
  256
370
   -1
100
AcDbLine
 10
120.2122433589051
 20
23.18816134624937
 11
128.7689936246421
 21
-8.746065745660982
  0
ARC
  5
1BE
100
AcDbEntity
  8
ajour
  6
ByLayer
 62
  256
370
   -1
100
AcDbCircle
 10
122.9734386626223
 20
-10.29898000028277
 40
6
100
AcDbArc
 50
287.7408862439105
 51
14.99999984188733
  0
LINE
  5
1BF
100
AcDbEntity
  8
ajour
  6
ByLayer
 62
  256
370
   -1
100
AcDbLine
 10
73.15401545202161
 20
-6.628321495115824
 11
77.91909665619185
 21
-24.41184684757138
  0
LINE
  5
1C0
100
AcDbEntity
  8
ajour
  6
ByLayer
 62
  256
370
   -1
100
AcDbLine
 10
85.54292843192422
 20
-28.57359827804796
 11
124.8017154763349
 21
-16.01364568538115
  0
ARC
  5
1C1
100
AcDbEntity
  8
ajour
  6
ByLayer
 62
  256
370
   -1
100
AcDbCircle
 10
83.71465161821166
 20
-22.85893259294959
 40
6
100
AcDbArc
 50
194.9999998418873
 51
287.7408862439104
  0
LINE
  5
1C2
100
AcDbEntity
  8
ajour
  6
ByLayer
 62
  256
370
   -1
100
AcDbLine
 10
23.93641138157417
 20
-12.56920535610325
 11
64.58080136593975
 21
-1.678574003151461
  0
ARC
  5
1C3
100
AcDbEntity
  8
ajour
  6
ByLayer
 62
  256
370
   -1
100
AcDbCircle
 10
22.38349712695239
 20
-6.773650394083436
 40
6
100
AcDbArc
 50
194.9999998418872
 51
284.9999998418874
  0
LINE
  5
1C4
100
AcDbEntity
  8
ajour
  6
ByLayer
 62
  256
370
   -1
100
AcDbLine
 10
6.152113705903552
 20
30.62047780937529
 11
16.58794216493258
 21
-8.326564648705215
  0
ARC
  5
1C5
100
AcDbEntity
  8
ajour
  6
ByLayer
 62
  256
370
   -1
100
AcDbCircle
 10
11.94766866792336
 20
32.17339206399708
 40
6
100
AcDbArc
 50
104.9999998418874
 51
194.9999998418873
  0
LINE
  5
1C6
100
AcDbEntity
  8
ajour
  6
ByLayer
 62
  256
370
   -1
100
AcDbLine
 10
-4.196063849166316
 20
-50.83587764061146
 11
4.294430243048072
 21
-50.82539688297366
  0
ARC
  5
1C7
100
AcDbEntity
  8
ajour
  6
ByLayer
 62
  256
370
   -1
100
AcDbCircle
 10
4.264804406326135
 20
-26.82541516819315
 40
24
100
AcDbArc
 50
270.0707264933247
 51
284.9999998418874
  0
ARC
  5
1C8
100
AcDbEntity
  8
ajour
  6
ByLayer
 62
  256
370
   -1
100
AcDbCircle
 10
-4.225689685888241
 20
-26.83589592583096
 40
24
100
AcDbArc
 50
255.0000001581127
 51
270.0707264933247
  0
LINE
  5
1C9
100
AcDbEntity
  8
ajour
  6
ByLayer
 62
  256
370
   -1
100
AcDbLine
 10
30.53802667670755
 20
-44.63215486745947
 11
10.4764614248133
 21
-50.0076350162724
  0
LINE
  5
1CA
100
AcDbEntity
  8
ajour
  6
ByLayer
 62
  256
370
   -1
100
AcDbLine
 10
-30.53802640335806
 20
-44.63215494070324
 11
-10.4373467043754
 21
-50.0181157739102
  0
ARC
  5
1CB
100
AcDbEntity
  8
ajour
  6
ByLayer
 62
  256
370
   -1
100
AcDbCircle
 10
79.094463395657
 20
48.17366905199497
 40
2
100
AcDbArc
 50
91.38345881038271
 51
195.0000009177404
  0
LINE
  5
1CC
100
AcDbEntity
  8
ajour
  6
ByLayer
 62
  256
370
   -1
100
AcDbLine
 10
79.04617626546332
 20
50.1730860552881
 11
80.07479611190219
 21
50.19792784685183
  0
ARC
  5
1CD
100
AcDbEntity
  8
ajour
  6
ByLayer
 62
  256
370
   -1
100
AcDbCircle
 10
80.12308324209587
 20
48.19851084355871
 40
2
100
AcDbArc
 50
15.00000091774051
 51
91.38345881038271
  0
LINE
  5
1CE
100
AcDbEntity
  8
ajour
  6
ByLayer
 62
  256
370
   -1
100
AcDbLine
 10
77.16261175137019
 20
47.65603093084632
 11
79.69288166455081
 21
38.21293566301596
  0
ARC
  5
1CF
100
AcDbEntity
  8
ajour
  6
ByLayer
 62
  256
370
   -1
100
AcDbCircle
 10
81.62473330883765
 20
38.73057378416462
 40
2
100
AcDbArc
 50
195.0000009177404
 51
284.9999998418875
  0
LINE
  5
1D0
100
AcDbEntity
  8
ajour
  6
ByLayer
 62
  256
370
   -1
100
AcDbLine
 10
83.10829722071485
 20
37.05754117259497
 11
82.14237139371158
 21
36.79872213015802
  0
LINE
  5
1D1
100
AcDbEntity
  8
ajour
  6
ByLayer
 62
  256
370
   -1
100
AcDbLine
 10
82.0549348863827
 20
48.71614896470737
 11
84.52251078012775
 21
39.50703094775024
  0
ARC
  5
1D2
100
AcDbEntity
  8
ajour
  6
ByLayer
 62
  256
370
   -1
100
AcDbCircle
 10
82.59065913584091
 20
38.98939282660158
 40
2
100
AcDbArc
 50
284.9999998418875
 51
15.00000091774041
  0
ARC
  5
1D3
100
AcDbEntity
  8
ajour
  6
ByLayer
 62
  256
370
   -1
100
AcDbCircle
 10
89.38066186004568
 20
48.42208696763234
 40
2
100
AcDbArc
 50
91.38345881038231
 51
195.0000009177406
  0
LINE
  5
1D4
100
AcDbEntity
  8
ajour
  6
ByLayer
 62
  256
370
   -1
100
AcDbLine
 10
89.33237472985201
 20
50.42150397092546
 11
90.36099457629088
 21
50.4463457624892
  0
ARC
  5
1D5
100
AcDbEntity
  8
ajour
  6
ByLayer
 62
  256
370
   -1
100
AcDbCircle
 10
90.40928170648456
 20
48.44692875919608
 40
2
100
AcDbArc
 50
15.00000091774054
 51
91.38345881038271
  0
LINE
  5
1D6
100
AcDbEntity
  8
ajour
  6
ByLayer
 62
  256
370
   -1
100
AcDbLine
 10
92.34113335077136
 20
48.96456688034473
 11
94.18176905016077
 21
42.09522137211989
  0
ARC
  5
1D7
100
AcDbEntity
  8
ajour
  6
ByLayer
 62
  256
370
   -1
100
AcDbCircle
 10
92.24991740587394
 20
41.57758325097123
 40
2
100
AcDbArc
 50
284.9999998418875
 51
15.00000091774051
  0
LINE
  5
1D8
100
AcDbEntity
  8
ajour
  6
ByLayer
 62
  256
370
   -1
100
AcDbLine
 10
92.76755549074788
 20
39.64573159696462
 11
91.80162966374459
 21
39.38691255452766
  0
LINE
  5
1D9
100
AcDbEntity
  8
ajour
  6
ByLayer
 62
  256
370
   -1
100
AcDbLine
 10
87.44881021575885
 20
47.90444884648368
 11
89.35213993458383
 21
40.80112608738561
  0
ARC
  5
1DA
100
AcDbEntity
  8
ajour
  6
ByLayer
 62
  256
370
   -1
100
AcDbCircle
 10
91.28399157887065
 20
41.31876420853427
 40
2
100
AcDbArc
 50
195.0000009177406
 51
284.9999998418875
  0
ARC
  5
1DB
100
AcDbEntity
  8
ajour
  6
ByLayer
 62
  256
370
   -1
100
AcDbCircle
 10
100.9432498489037
 20
43.90695463290392
 40
2
100
AcDbArc
 50
195.0000009177404
 51
284.9999998418875
  0
LINE
  5
1DC
100
AcDbEntity
  8
ajour
  6
ByLayer
 62
  256
370
   -1
100
AcDbLine
 10
97.73500868014752
 20
48.15286676212105
 11
99.01139820461685
 21
43.38931651175527
  0
ARC
  5
1DD
100
AcDbEntity
  8
ajour
  6
ByLayer
 62
  256
370
   -1
100
AcDbCircle
 10
99.66686032443434
 20
48.67050488326971
 40
2
100
AcDbArc
 50
91.38345881038271
 51
195.0000009177406
  0
LINE
  5
1DE
100
AcDbEntity
  8
ajour
  6
ByLayer
 62
  256
370
   -1
100
AcDbLine
 10
99.61857319424065
 20
50.66992188656284
 11
100.6471930406795
 21
50.69476367812658
  0
ARC
  5
1DF
100
AcDbEntity
  8
ajour
  6
ByLayer
 62
  256
370
   -1
100
AcDbCircle
 10
100.6954801708732
 20
48.69534667483345
 40
2
100
AcDbArc
 50
15.00000091774051
 51
91.38345881038271
  0
LINE
  5
1E0
100
AcDbEntity
  8
ajour
  6
ByLayer
 62
  256
370
   -1
100
AcDbLine
 10
102.62733181516
 20
49.21298479598211
 11
103.8410273201938
 21
44.68341179648954
  0
LINE
  5
1E1
100
AcDbEntity
  8
ajour
  6
ByLayer
 62
  256
370
   -1
100
AcDbLine
 10
102.4268137607809
 20
42.23392202133428
 11
101.4608879337776
 21
41.97510297889732
  0
ARC
  5
1E2
100
AcDbEntity
  8
ajour
  6
ByLayer
 62
  256
370
   -1
100
AcDbCircle
 10
101.909175675907
 20
44.16577367534089
 40
2
100
AcDbArc
 50
284.9999998418875
 51
15.00000091774031
  0
ARC
  5
1E3
100
AcDbEntity
  8
ajour
  6
ByLayer
 62
  256
370
   -1
100
AcDbCircle
 10
109.953058788823
 20
48.91892279890708
 40
2
100
AcDbArc
 50
91.38345881038271
 51
195.0000009177404
  0
LINE
  5
1E4
100
AcDbEntity
  8
ajour
  6
ByLayer
 62
  256
370
   -1
100
AcDbLine
 10
109.9047716586293
 20
50.91833980220021
 11
110.9333915050682
 21
50.94318159376395
  0
ARC
  5
1E5
100
AcDbEntity
  8
ajour
  6
ByLayer
 62
  256
370
   -1
100
AcDbCircle
 10
110.9816786352619
 20
48.94376459047083
 40
2
100
AcDbArc
 50
15.00000091774051
 51
91.38345881038271
  0
LINE
  5
1E6
100
AcDbEntity
  8
ajour
  6
ByLayer
 62
  256
370
   -1
100
AcDbLine
 10
112.9135302795487
 20
49.46140271161948
 11
113.5002855902268
 21
47.27160222085919
  0
ARC
  5
1E7
100
AcDbEntity
  8
ajour
  6
ByLayer
 62
  256
370
   -1
100
AcDbCircle
 10
111.56843394594
 20
46.75396409971053
 40
2
100
AcDbArc
 50
284.9999998418871
 51
15.00000091774051
  0
LINE
  5
1E8
100
AcDbEntity
  8
ajour
  6
ByLayer
 62
  256
370
   -1
100
AcDbLine
 10
108.0212071445362
 20
48.40128467775843
 11
108.6706564746499
 21
45.97750693612493
  0
LINE
  5
1E9
100
AcDbEntity
  8
ajour
  6
ByLayer
 62
  256
370
   -1
100
AcDbLine
 10
112.0860720308139
 20
44.82211244570392
 11
111.1201462038106
 21
44.56329340326697
  0
ARC
  5
1EA
100
AcDbEntity
  8
ajour
  6
ByLayer
 62
  256
370
   -1
100
AcDbCircle
 10
110.6025081189367
 20
46.49514505727358
 40
2
100
AcDbArc
 50
195.0000009177404
 51
284.9999998418874
  0
ARC
  5
1EB
100
AcDbEntity
  8
ajour
  6
ByLayer
 62
  256
370
   -1
100
AcDbCircle
 10
102.3066955890231
 20
34.95480319705878
 40
2
100
AcDbArc
 50
104.9999998418867
 51
195.0000009177406
  0
LINE
  5
1EC
100
AcDbEntity
  8
ajour
  6
ByLayer
 62
  256
370
   -1
100
AcDbLine
 10
101.1513011235876
 20
31.53938762019691
 11
100.3748439447363
 21
34.43716507591012
  0
ARC
  5
1ED
100
AcDbEntity
  8
ajour
  6
ByLayer
 62
  256
370
   -1
100
AcDbCircle
 10
103.0831527678744
 20
32.05702574134556
 40
2
100
AcDbArc
 50
195.0000009177403
 51
284.9999998418871
  0
LINE
  5
1EE
100
AcDbEntity
  8
ajour
  6
ByLayer
 62
  256
370
   -1
100
AcDbLine
 10
103.6007908527484
 20
30.12517408733896
 11
115.4333822380919
 21
33.29570735841176
  0
ARC
  5
1EF
100
AcDbEntity
  8
ajour
  6
ByLayer
 62
  256
370
   -1
100
AcDbCircle
 10
114.915744153218
 20
35.22755901241837
 40
2
100
AcDbArc
 50
284.9999998418871
 51
14.99999984188723
  0
LINE
  5
1F0
100
AcDbEntity
  8
ajour
  6
ByLayer
 62
  256
370
   -1
100
AcDbLine
 10
113.6216489439048
 20
40.05718813671773
 11
101.7890575041492
 21
36.88665485106539
  0
LINE
  5
1F1
100
AcDbEntity
  8
ajour
  6
ByLayer
 62
  256
370
   -1
100
AcDbLine
 10
116.0711386827853
 20
38.64297456758505
 11
116.8475958072246
 21
35.74519709729229
  0
ARC
  5
1F2
100
AcDbEntity
  8
ajour
  6
ByLayer
 62
  256
370
   -1
100
AcDbCircle
 10
114.1392870287787
 20
38.12533648271112
 40
2
100
AcDbArc
 50
14.99999984188733
 51
104.9999998418867
  0
ARC
  5
1F3
100
AcDbEntity
  8
ajour
  6
ByLayer
 62
  256
370
   -1
100
AcDbCircle
 10
-79.094463395657
 20
48.17366905199493
 40
2
100
AcDbArc
 50
344.9999990822595
 51
88.61654118961727
  0
LINE
  5
1F4
100
AcDbEntity
  8
ajour
  6
ByLayer
 62
  256
370
   -1
100
AcDbLine
 10
-79.04617626546332
 20
50.1730860552881
 11
-80.07479611190219
 21
50.19792784685182
  0
ARC
  5
1F5
100
AcDbEntity
  8
ajour
  6
ByLayer
 62
  256
370
   -1
100
AcDbCircle
 10
-80.12308324209587
 20
48.19851084355871
 40
2
100
AcDbArc
 50
88.61654118961729
 51
164.9999990822595
  0
LINE
  5
1F6
100
AcDbEntity
  8
ajour
  6
ByLayer
 62
  256
370
   -1
100
AcDbLine
 10
-77.16261175137019
 20
47.65603093084631
 11
-79.69288166455081
 21
38.21293566301598
  0
ARC
  5
1F7
100
AcDbEntity
  8
ajour
  6
ByLayer
 62
  256
370
   -1
100
AcDbCircle
 10
-81.62473330883765
 20
38.73057378416462
 40
2
100
AcDbArc
 50
255.0000001581125
 51
344.9999990822595
  0
LINE
  5
1F8
100
AcDbEntity
  8
ajour
  6
ByLayer
 62
  256
370
   -1
100
AcDbLine
 10
-83.10829722071485
 20
37.05754117259499
 11
-82.14237139371158
 21
36.79872213015806
  0
LINE
  5
1F9
100
AcDbEntity
  8
ajour
  6
ByLayer
 62
  256
370
   -1
100
AcDbLine
 10
-82.0549348863827
 20
48.71614896470735
 11
-84.52251078012775
 21
39.50703094775024
  0
ARC
  5
1FA
100
AcDbEntity
  8
ajour
  6
ByLayer
 62
  256
370
   -1
100
AcDbCircle
 10
-82.59065913584091
 20
38.98939282660157
 40
2
100
AcDbArc
 50
164.9999990822596
 51
255.0000001581125
  0
ARC
  5
1FB
100
AcDbEntity
  8
ajour
  6
ByLayer
 62
  256
370
   -1
100
AcDbCircle
 10
-89.38066186004568
 20
48.42208696763237
 40
2
100
AcDbArc
 50
344.9999990822595
 51
88.61654118961766
  0
LINE
  5
1FC
100
AcDbEntity
  8
ajour
  6
ByLayer
 62
  256
370
   -1
100
AcDbLine
 10
-89.33237472985201
 20
50.42150397092545
 11
-90.36099457629088
 21
50.4463457624892
  0
ARC
  5
1FD
100
AcDbEntity
  8
ajour
  6
ByLayer
 62
  256
370
   -1
100
AcDbCircle
 10
-90.40928170648456
 20
48.44692875919606
 40
2
100
AcDbArc
 50
88.61654118961729
 51
164.9999990822594
  0
LINE
  5
1FE
100
AcDbEntity
  8
ajour
  6
ByLayer
 62
  256
370
   -1
100
AcDbLine
 10
-92.34113335077136
 20
48.96456688034473
 11
-94.18176905016077
 21
42.0952213721199
  0
ARC
  5
1FF
100
AcDbEntity
  8
ajour
  6
ByLayer
 62
  256
370
   -1
100
AcDbCircle
 10
-92.24991740587394
 20
41.57758325097123
 40
2
100
AcDbArc
 50
164.9999990822595
 51
255.0000001581125
  0
LINE
  5
200
100
AcDbEntity
  8
ajour
  6
ByLayer
 62
  256
370
   -1
100
AcDbLine
 10
-92.76755549074788
 20
39.64573159696462
 11
-91.80162966374459
 21
39.38691255452765
  0
LINE
  5
201
100
AcDbEntity
  8
ajour
  6
ByLayer
 62
  256
370
   -1
100
AcDbLine
 10
-87.44881021575885
 20
47.90444884648367
 11
-89.35213993458383
 21
40.80112608738561
  0
ARC
  5
202
100
AcDbEntity
  8
ajour
  6
ByLayer
 62
  256
370
   -1
100
AcDbCircle
 10
-91.28399157887065
 20
41.31876420853425
 40
2
100
AcDbArc
 50
255.0000001581125
 51
344.9999990822595
  0
ARC
  5
203
100
AcDbEntity
  8
ajour
  6
ByLayer
 62
  256
370
   -1
100
AcDbCircle
 10
-100.9432498489037
 20
43.90695463290392
 40
2
100
AcDbArc
 50
255.0000001581125
 51
344.9999990822595
  0
LINE
  5
204
100
AcDbEntity
  8
ajour
  6
ByLayer
 62
  256
370
   -1
100
AcDbLine
 10
-97.73500868014752
 20
48.15286676212105
 11
-99.01139820461685
 21
43.38931651175527
  0
ARC
  5
205
100
AcDbEntity
  8
ajour
  6
ByLayer
 62
  256
370
   -1
100
AcDbCircle
 10
-99.66686032443434
 20
48.67050488326972
 40
2
100
AcDbArc
 50
344.9999990822595
 51
88.61654118961731
  0
LINE
  5
206
100
AcDbEntity
  8
ajour
  6
ByLayer
 62
  256
370
   -1
100
AcDbLine
 10
-99.61857319424065
 20
50.66992188656285
 11
-100.6471930406795
 21
50.69476367812658
  0
ARC
  5
207
100
AcDbEntity
  8
ajour
  6
ByLayer
 62
  256
370
   -1
100
AcDbCircle
 10
-100.6954801708732
 20
48.69534667483347
 40
2
100
AcDbArc
 50
88.61654118961729
 51
164.9999990822595
  0
LINE
  5
208
100
AcDbEntity
  8
ajour
  6
ByLayer
 62
  256
370
   -1
100
AcDbLine
 10
-102.62733181516
 20
49.21298479598211
 11
-103.8410273201938
 21
44.68341179648954
  0
LINE
  5
209
100
AcDbEntity
  8
ajour
  6
ByLayer
 62
  256
370
   -1
100
AcDbLine
 10
-102.4268137607809
 20
42.23392202133428
 11
-101.4608879337776
 21
41.9751029788973
  0
ARC
  5
20A
100
AcDbEntity
  8
ajour
  6
ByLayer
 62
  256
370
   -1
100
AcDbCircle
 10
-101.909175675907
 20
44.16577367534089
 40
2
100
AcDbArc
 50
164.9999990822597
 51
255.0000001581125
  0
ARC
  5
20B
100
AcDbEntity
  8
ajour
  6
ByLayer
 62
  256
370
   -1
100
AcDbCircle
 10
-109.953058788823
 20
48.91892279890705
 40
2
100
AcDbArc
 50
344.9999990822595
 51
88.61654118961731
  0
LINE
  5
20C
100
AcDbEntity
  8
ajour
  6
ByLayer
 62
  256
370
   -1
100
AcDbLine
 10
-109.9047716586293
 20
50.91833980220018
 11
-110.9333915050682
 21
50.94318159376393
  0
ARC
  5
20D
100
AcDbEntity
  8
ajour
  6
ByLayer
 62
  256
370
   -1
100
AcDbCircle
 10
-110.9816786352619
 20
48.94376459047081
 40
2
100
AcDbArc
 50
88.61654118961729
 51
164.9999990822595
  0
LINE
  5
20E
100
AcDbEntity
  8
ajour
  6
ByLayer
 62
  256
370
   -1
100
AcDbLine
 10
-112.9135302795487
 20
49.46140271161946
 11
-113.5002855902268
 21
47.27160222085917
  0
ARC
  5
20F
100
AcDbEntity
  8
ajour
  6
ByLayer
 62
  256
370
   -1
100
AcDbCircle
 10
-111.56843394594
 20
46.75396409971053
 40
2
100
AcDbArc
 50
164.9999990822595
 51
255.0000001581129
  0
LINE
  5
210
100
AcDbEntity
  8
ajour
  6
ByLayer
 62
  256
370
   -1
100
AcDbLine
 10
-108.0212071445362
 20
48.4012846777584
 11
-108.6706564746499
 21
45.97750693612493
  0
LINE
  5
211
100
AcDbEntity
  8
ajour
  6
ByLayer
 62
  256
370
   -1
100
AcDbLine
 10
-112.0860720308139
 20
44.82211244570389
 11
-111.1201462038106
 21
44.56329340326694
  0
ARC
  5
212
100
AcDbEntity
  8
ajour
  6
ByLayer
 62
  256
370
   -1
100
AcDbCircle
 10
-110.6025081189367
 20
46.49514505727357
 40
2
100
AcDbArc
 50
255.0000001581126
 51
344.9999990822595
  0
ARC
  5
213
100
AcDbEntity
  8
ajour
  6
ByLayer
 62
  256
370
   -1
100
AcDbCircle
 10
-102.3066955890231
 20
34.95480319705878
 40
2
100
AcDbArc
 50
344.9999990822595
 51
75.00000015811328
  0
LINE
  5
214
100
AcDbEntity
  8
ajour
  6
ByLayer
 62
  256
370
   -1
100
AcDbLine
 10
-101.1513011235876
 20
31.5393876201969
 11
-100.3748439447363
 21
34.43716507591011
  0
ARC
  5
215
100
AcDbEntity
  8
ajour
  6
ByLayer
 62
  256
370
   -1
100
AcDbCircle
 10
-103.0831527678744
 20
32.05702574134555
 40
2
100
AcDbArc
 50
255.0000001581129
 51
344.9999990822596
  0
LINE
  5
216
100
AcDbEntity
  8
ajour
  6
ByLayer
 62
  256
370
   -1
100
AcDbLine
 10
-103.6007908527484
 20
30.12517408733897
 11
-115.4333822380919
 21
33.29570735841176
  0
ARC
  5
217
100
AcDbEntity
  8
ajour
  6
ByLayer
 62
  256
370
   -1
100
AcDbCircle
 10
-114.915744153218
 20
35.22755901241837
 40
2
100
AcDbArc
 50
165.0000001581128
 51
255.0000001581129
  0
LINE
  5
218
100
AcDbEntity
  8
ajour
  6
ByLayer
 62
  256
370
   -1
100
AcDbLine
 10
-113.6216489439048
 20
40.05718813671773
 11
-101.7890575041492
 21
36.88665485106536
  0
LINE
  5
219
100
AcDbEntity
  8
ajour
  6
ByLayer
 62
  256
370
   -1
100
AcDbLine
 10
-116.0711386827853
 20
38.64297456758504
 11
-116.8475958072246
 21
35.74519709729229
  0
ARC
  5
21A
100
AcDbEntity
  8
ajour
  6
ByLayer
 62
  256
370
   -1
100
AcDbCircle
 10
-114.1392870287787
 20
38.12533648271112
 40
2
100
AcDbArc
 50
75.00000015811327
 51
165.0000001581127
  0
ARC
  5
21B
100
AcDbEntity
  8
ajour
  6
ByLayer
 62
  256
370
   -1
100
AcDbCircle
 10
70.84422219058735
 20
-25.05397900794706
 40
2
100
AcDbArc
 50
14.99999984188723
 51
104.9999998418875
  0
LINE
  5
21C
100
AcDbEntity
  8
ajour
  6
ByLayer
 62
  256
370
   -1
100
AcDbLine
 10
40.38288350365232
 20
-31.14551766009707
 11
70.32658410571341
 21
-23.12212735394045
  0
ARC
  5
21D
100
AcDbEntity
  8
ajour
  6
ByLayer
 62
  256
370
   -1
100
AcDbCircle
 10
40.90052158852625
 20
-33.07736931410368
 40
2
100
AcDbArc
 50
104.9999998418873
 51
194.9999998418873
  0
ARC
  5
21E
100
AcDbEntity
  8
ajour
  6
ByLayer
 62
  256
370
   -1
100
AcDbCircle
 10
-70.84422219058735
 20
-25.05397900794707
 40
2
100
AcDbArc
 50
75.0000001581125
 51
165.0000001581128
  0
LINE
  5
21F
100
AcDbEntity
  8
ajour
  6
ByLayer
 62
  256
370
   -1
100
AcDbLine
 10
-40.38288350365232
 20
-31.14551766009708
 11
-70.32658410571341
 21
-23.12212735394045
  0
ARC
  5
220
100
AcDbEntity
  8
ajour
  6
ByLayer
 62
  256
370
   -1
100
AcDbCircle
 10
-40.90052158852625
 20
-33.07736931410368
 40
2
100
AcDbArc
 50
345.0000001581126
 51
75.00000015811267
  0
LINE
  5
221
100
AcDbEntity
  8
ajour
  6
ByLayer
 62
  256
370
   -1
100
AcDbLine
 10
72.58317652295369
 20
45.42819940731096
 11
78.2279003335685
 21
24.36180470113441
  0
ARC
  5
222
100
AcDbEntity
  8
ajour
  6
ByLayer
 62
  256
370
   -1
100
AcDbCircle
 10
66.78762159009324
 20
43.875285043865
 40
6
100
AcDbArc
 50
15.00000091774041
 51
91.38345881038258
  0
LINE
  5
223
100
AcDbEntity
  8
ajour
  6
ByLayer
 62
  256
370
   -1
100
AcDbLine
 10
-72.58317652295369
 20
45.42819940731095
 11
-78.2279003335685
 21
24.36180470113441
  0
ARC
  5
224
100
AcDbEntity
  8
ajour
  6
ByLayer
 62
  256
370
   -1
100
AcDbCircle
 10
-66.78762159009322
 20
43.87528504386498
 40
6
100
AcDbArc
 50
88.61654118961744
 51
164.9999990822596
  0
LINE
  5
225
100
AcDbEntity
  8
ajour
  6
ByLayer
 62
  256
370
   -1
100
AcDbLine
 10
49.03960907136052
 20
48.32380450896139
 11
10.39475441330157
 21
37.96894702601688
  0
LINE
  5
226
100
AcDbEntity
  8
ajour
  6
ByLayer
 62
  256
370
   -1
100
AcDbLine
 10
58.42662816496546
 20
49.67511149469181
 11
66.6427601995122
 21
49.87353605374437
  0
ARC
  5
227
100
AcDbEntity
  8
ajour
  6
ByLayer
 62
  256
370
   -1
100
AcDbCircle
 10
59.39237076883912
 20
9.686771428829319
 40
40
100
AcDbArc
 50
91.38345881038263
 51
104.9999998418874
  0
LINE
  5
228
100
AcDbEntity
  8
ajour
  6
ByLayer
 62
  256
370
   -1
100
AcDbLine
 10
-66.64276019951218
 20
49.87353605374437
 11
-58.42662816496548
 21
49.67511149469181
  0
LINE
  5
229
100
AcDbEntity
  8
ajour
  6
ByLayer
 62
  256
370
   -1
100
AcDbLine
 10
-49.03960907136052
 20
48.32380450896139
 11
-10.39475441330157
 21
37.96894702601688
  0
ARC
  5
22A
100
AcDbEntity
  8
ajour
  6
ByLayer
 62
  256
370
   -1
100
AcDbCircle
 10
-59.39237076883911
 20
9.686771428829315
 40
40
100
AcDbArc
 50
75.00000015811266
 51
88.61654118961741
  0
LINE
  5
22B
100
AcDbEntity
  8
ajour
  6
ByLayer
 62
  256
370
   -1
100
AcDbLine
 10
72.77607384459395
 20
-24.53634092307313
 11
74.32898809921571
 21
-30.33189588509295
  0
ARC
  5
22C
100
AcDbEntity
  8
ajour
  6
ByLayer
 62
  256
370
   -1
100
AcDbCircle
 10
72.39713644520911
 20
-30.84953396996687
 40
2
100
AcDbArc
 50
284.9999998418871
 51
14.99999984188713
  0
LINE
  5
22D
100
AcDbEntity
  8
ajour
  6
ByLayer
 62
  256
370
   -1
100
AcDbLine
 10
42.97107392802194
 20
-40.8047759301301
 11
72.91477453008304
 21
-32.78138562397348
  0
LINE
  5
22E
100
AcDbEntity
  8
ajour
  6
ByLayer
 62
  256
370
   -1
100
AcDbLine
 10
38.96866993451965
 20
-33.59500739897761
 11
40.52158418914144
 21
-39.39056236099741
  0
ARC
  5
22F
100
AcDbEntity
  8
ajour
  6
ByLayer
 62
  256
370
   -1
100
AcDbCircle
 10
42.45343584314801
 20
-38.87292427612348
 40
2
100
AcDbArc
 50
194.9999998418874
 51
284.9999998418873
  0
LINE
  5
230
100
AcDbEntity
  8
ajour
  6
ByLayer
 62
  256
370
   -1
100
AcDbLine
 10
-38.96866993451965
 20
-33.59500739897762
 11
-40.52158418914144
 21
-39.39056236099742
  0
ARC
  5
231
100
AcDbEntity
  8
ajour
  6
ByLayer
 62
  256
370
   -1
100
AcDbCircle
 10
-42.45343584314804
 20
-38.87292427612348
 40
2
100
AcDbArc
 50
255.0000001581127
 51
345.0000001581125
  0
LINE
  5
232
100
AcDbEntity
  8
ajour
  6
ByLayer
 62
  256
370
   -1
100
AcDbLine
 10
-42.97107392802197
 20
-40.80477593013009
 11
-72.91477453008304
 21
-32.78138562397348
  0
LINE
  5
233
100
AcDbEntity
  8
ajour
  6
ByLayer
 62
  256
370
   -1
100
AcDbLine
 10
-72.77607384459395
 20
-24.53634092307313
 11
-74.32898809921571
 21
-30.33189588509295
  0
ARC
  5
234
100
AcDbEntity
  8
ajour
  6
ByLayer
 62
  256
370
   -1
100
AcDbCircle
 10
-72.39713644520911
 20
-30.84953396996687
 40
2
100
AcDbArc
 50
165.000000158113
 51
255.0000001581129
  0
LINE
  5
235
100
AcDbEntity
  8
0
  6
ByLayer
 62
  256
370
   -1
100
AcDbLine
 10
-95.30248855949502
 20
47.57189823634454
 11
-98.92595515949505
 21
34.04893663634455
  0
LINE
  5
236
100
AcDbEntity
  8
0
  6
ByLayer
 62
  256
370
   -1
100
AcDbLine
 10
-76.94989785949502
 20
42.65433633634456
 11
-80.57336445949502
 21
29.13137473634455
  0
LINE
  5
237
100
AcDbEntity
  8
0
  6
ByLayer
 62
  256
370
   -1
100
AcDbLine
 10
-56.63028245949503
 20
45.07781073634455
 11
-60.25374905949502
 21
31.55484913634455
  0
LINE
  5
238
100
AcDbEntity
  8
0
  6
ByLayer
 62
  256
370
   -1
100
AcDbLine
 10
-36.31066695949502
 20
47.50128523634456
 11
-39.93413355949502
 21
33.97832363634454
  0
LINE
  5
239
100
AcDbEntity
  8
0
  6
ByLayer
 62
  256
370
   -1
100
AcDbLine
 10
-18.94158865949503
 20
38.91320523634455
 11
-22.56505525949503
 21
25.39024363634455
  0
LINE
  5
23A
100
AcDbEntity
  8
0
  6
ByLayer
 62
  256
370
   -1
100
AcDbLine
 10
-2.556022659495031
 20
26.65460703634455
 11
-6.179489259495031
 21
13.13164543634454
  0
LINE
  5
23B
100
AcDbEntity
  8
0
  6
ByLayer
 62
  256
370
   -1
100
AcDbLine
 10
-26.75692804050493
 20
21.33707166365545
 11
-30.38039464050493
 21
7.814110063655443
  0
LINE
  5
23C
100
AcDbEntity
  8
0
  6
ByLayer
 62
  256
370
   -1
100
AcDbLine
 10
-7.473584559495026
 20
8.302016336344549
 11
-11.09705115949503
 21
-5.220945263655453
  0
LINE
  5
23D
100
AcDbEntity
  8
0
  6
ByLayer
 62
  256
370
   -1
100
AcDbLine
 10
-23.85915055949503
 20
20.56061453634455
 11
-27.48261715949503
 21
7.037652936344548
  0
LINE
  5
23E
100
AcDbEntity
  8
0
  6
ByLayer
 62
  256
370
   -1
100
AcDbLine
 10
-41.22822885949501
 20
29.14869453634455
 11
-44.85169545949501
 21
15.62573293634454
  0
LINE
  5
23F
100
AcDbEntity
  8
0
  6
ByLayer
 62
  256
370
   -1
100
AcDbLine
 10
-61.54784425949502
 20
26.72522013634455
 11
-65.17131085949502
 21
13.20225853634455
  0
LINE
  5
240
100
AcDbEntity
  8
0
  6
ByLayer
 62
  256
370
   -1
100
AcDbLine
 10
-81.86745975949502
 20
24.30174563634454
 11
-85.49092635949502
 21
10.77878403634454
  0
LINE
  5
241
100
AcDbEntity
  8
0
  6
ByLayer
 62
  256
370
   -1
100
AcDbLine
 10
-102.514124259495
 20
29.83400273634454
 11
-106.137590859495
 21
16.31104113634454
  0
LINE
  5
242
100
AcDbEntity
  8
0
  6
ByLayer
 62
  256
370
   -1
100
AcDbLine
 10
-107.431686159495
 20
11.48141203634455
 11
-111.055152759495
 21
-2.041549563655452
  0
LINE
  5
243
100
AcDbEntity
  8
0
  6
ByLayer
 62
  256
370
   -1
100
AcDbLine
 10
-107.761100359495
 20
-8.100569063655451
 11
-111.384566959495
 21
-21.62353066365546
  0
LINE
  5
244
100
AcDbEntity
  8
0
  6
ByLayer
 62
  256
370
   -1
100
AcDbLine
 10
-84.82036195949503
 20
-14.24752146365546
 11
-88.44382855949503
 21
-27.77048306365545
  0
LINE
  5
245
100
AcDbEntity
  8
0
  6
ByLayer
 62
  256
370
   -1
100
AcDbLine
 10
-86.78502155949502
 20
5.949154936344547
 11
-90.40848815949502
 21
-7.573806663655455
  0
LINE
  5
246
100
AcDbEntity
  8
0
  6
ByLayer
 62
  256
370
   -1
100
AcDbLine
 10
-61.87962355949502
 20
-20.39447376365545
 11
-65.50309015949502
 21
-33.91743536365544
  0
LINE
  5
247
100
AcDbEntity
  8
0
  6
ByLayer
 62
  256
370
   -1
100
AcDbLine
 10
-35.33424985949502
 20
-31.44133466365545
 11
-38.95771645949502
 21
-44.96429626365545
  0
LINE
  5
248
100
AcDbEntity
  8
0
  6
ByLayer
 62
  256
370
   -1
100
AcDbLine
 10
-9.181808159495027
 20
-38.44886036365545
 11
-12.80527475949503
 21
-51.97182196365546
  0
LINE
  5
249
100
AcDbEntity
  8
0
  6
ByLayer
 62
  256
370
   -1
100
AcDbLine
 10
9.262734359495077
 20
-38.44886036365545
 11
12.88620095949508
 21
-51.97182196365546
  0
LINE
  5
24A
100
AcDbEntity
  8
0
  6
ByLayer
 62
  256
370
   -1
100
AcDbLine
 10
-12.39114645949502
 20
-10.05057436365545
 11
-16.01461305949502
 21
-23.57353596365546
  0
LINE
  5
24B
100
AcDbEntity
  8
0
  6
ByLayer
 62
  256
370
   -1
100
AcDbLine
 10
-28.77671235949503
 20
2.208023836344549
 11
-32.40017895949502
 21
-11.31493776365545
  0
LINE
  5
24C
100
AcDbEntity
  8
0
  6
ByLayer
 62
  256
370
   -1
100
AcDbLine
 10
-46.14579065949503
 20
10.79610383634455
 11
-49.76925725949503
 21
-2.726857763655454
  0
LINE
  5
24D
100
AcDbEntity
  8
0
  6
ByLayer
 62
  256
370
   -1
100
AcDbLine
 10
2.636948859495066
 20
26.65460703634455
 11
6.260415459495066
 21
13.13164543634454
  0
LINE
  5
24E
100
AcDbEntity
  8
0
  6
ByLayer
 62
  256
370
   -1
100
AcDbLine
 10
7.554510759495075
 20
8.302016336344549
 11
11.17797735949508
 21
-5.220945263655453
  0
LINE
  5
24F
100
AcDbEntity
  8
0
  6
ByLayer
 62
  256
370
   -1
100
AcDbLine
 10
12.47207265949506
 20
-10.05057436365545
 11
16.09553925949506
 21
-23.57353596365546
  0
LINE
  5
250
100
AcDbEntity
  8
0
  6
ByLayer
 62
  256
370
   -1
100
AcDbLine
 10
19.02251485949508
 20
38.91320523634455
 11
22.64598145949508
 21
25.39024363634455
  0
LINE
  5
251
100
AcDbEntity
  8
0
  6
ByLayer
 62
  256
370
   -1
100
AcDbLine
 10
23.94007675949506
 20
20.56061453634456
 11
27.56354335949506
 21
7.037652936344549
  0
LINE
  5
252
100
AcDbEntity
  8
0
  6
ByLayer
 62
  256
370
   -1
100
AcDbLine
 10
36.39159315949505
 20
47.50128523634456
 11
40.01505975949505
 21
33.97832363634454
  0
LINE
  5
253
100
AcDbEntity
  8
0
  6
ByLayer
 62
  256
370
   -1
100
AcDbLine
 10
41.30915505949506
 20
29.14869453634455
 11
44.93262165949506
 21
15.62573293634454
  0
LINE
  5
254
100
AcDbEntity
  8
0
  6
ByLayer
 62
  256
370
   -1
100
AcDbLine
 10
46.22671685949506
 20
10.79610383634455
 11
49.85018345949506
 21
-2.726857763655453
  0
LINE
  5
255
100
AcDbEntity
  8
0
  6
ByLayer
 62
  256
370
   -1
100
AcDbLine
 10
28.85763855949508
 20
2.20802383634455
 11
32.48110515949507
 21
-11.31493776365545
  0
LINE
  5
256
100
AcDbEntity
  8
0
  6
ByLayer
 62
  256
370
   -1
100
AcDbLine
 10
56.71120865949506
 20
45.07781073634455
 11
60.33467525949506
 21
31.55484913634455
  0
LINE
  5
257
100
AcDbEntity
  8
0
  6
ByLayer
 62
  256
370
   -1
100
AcDbLine
 10
61.62877045949507
 20
26.72522013634455
 11
65.25223705949507
 21
13.20225853634455
  0
LINE
  5
258
100
AcDbEntity
  8
0
  6
ByLayer
 62
  256
370
   -1
100
AcDbLine
 10
66.54633235949505
 20
8.372629436344544
 11
70.16979895949505
 21
-5.15033216365545
  0
LINE
  5
259
100
AcDbEntity
  8
0
  6
ByLayer
 62
  256
370
   -1
100
AcDbLine
 10
73.43091895949506
 20
-17.32099756365545
 11
77.05438555949506
 21
-30.84395916365544
  0
LINE
  5
25A
100
AcDbEntity
  8
0
  6
ByLayer
 62
  256
370
   -1
100
AcDbLine
 10
91.78350965949507
 20
-12.40343576365545
 11
95.40697625949507
 21
-25.92639736365545
  0
LINE
  5
25B
100
AcDbEntity
  8
0
  6
ByLayer
 62
  256
370
   -1
100
AcDbLine
 10
86.86594775949506
 20
5.949154936344548
 11
90.48941435949506
 21
-7.573806663655454
  0
LINE
  5
25C
100
AcDbEntity
  8
0
  6
ByLayer
 62
  256
370
   -1
100
AcDbLine
 10
81.94838595949507
 20
24.30174563634455
 11
85.57185255949507
 21
10.77878403634454
  0
LINE
  5
25D
100
AcDbEntity
  8
0
  6
ByLayer
 62
  256
370
   -1
100
AcDbLine
 10
77.03082405949506
 20
42.65433633634456
 11
80.65429065949506
 21
29.13137473634455
  0
LINE
  5
25E
100
AcDbEntity
  8
0
  6
ByLayer
 62
  256
370
   -1
100
AcDbLine
 10
95.38341475949507
 20
47.57189823634455
 11
99.00688135949504
 21
34.04893663634456
  0
LINE
  5
25F
100
AcDbEntity
  8
0
  6
ByLayer
 62
  256
370
   -1
100
AcDbLine
 10
102.595050459495
 20
29.83400273634454
 11
106.218517059495
 21
16.31104113634455
  0
LINE
  5
260
100
AcDbEntity
  8
0
  6
ByLayer
 62
  256
370
   -1
100
AcDbLine
 10
107.5126123594951
 20
11.48141203634455
 11
111.1360789594951
 21
-2.041549563655451
  0
LINE
  5
261
100
AcDbEntity
  8
0
  6
ByLayer
 62
  256
370
   -1
100
AcDbLine
 10
110.136100359495
 20
-7.485873863655449
 11
113.759566959495
 21
-21.00883546365545
  0
LINE
  5
262
100
AcDbEntity
  8
0
  6
ByLayer
 62
  256
370
   -1
100
AcDbLine
 10
-66.46540615949503
 20
8.372629436344544
 11
-70.08887275949503
 21
-5.150332163655451
  0
LINE
  5
263
100
AcDbEntity
  8
0
  6
ByLayer
 62
  256
370
   -1
100
AcDbLine
 10
35.41517605949507
 20
-31.44133466365545
 11
39.03864265949507
 21
-44.96429626365545
  0
ARC
  5
264
100
AcDbEntity
  8
ext1
  6
ByLayer
 62
  256
370
   -1
100
AcDbCircle
 10
115.8127287720796
 20
55.06218687395645
 40
3
100
AcDbArc
 50
14.99999984188733
 51
91.38345881038271
  0
LINE
  5
265
100
AcDbEntity
  8
ext1
  6
ByLayer
 62
  256
370
   -1
100
AcDbLine
 10
118.7105062530895
 20
55.83864400126734
 11
137.9977220342383
 21
-16.14222602507407
  0
LINE
  5
266
100
AcDbEntity
  8
ext1
  6
ByLayer
 62
  256
370
   -1
100
AcDbLine
 10
53.96086547027455
 20
56.56930170746079
 11
115.7402980767891
 21
58.06131237889613
  0
LINE
  5
267
100
AcDbEntity
  8
ext1
  6
ByLayer
 62
  256
370
   -1
100
AcDbLine
 10
51.3794352195332
 20
56.19769228638494
 11
35.90420667842444
 21
52.05111734187912
  0
ARC
  5
268
100
AcDbEntity
  8
ext1
  6
ByLayer
 62
  256
370
   -1
100
AcDbCircle
 10
54.2264446863398
 20
45.57250818934862
 40
11
100
AcDbArc
 50
91.38345881038262
 51
104.9999998418873
  0
LINE
  5
269
100
AcDbEntity
  8
ext1
  6
ByLayer
 62
  256
370
   -1
100
AcDbLine
 10
31.24546389056907
 20
52.05111734830721
 11
-9.397438111644608
 21
62.94135011785762
  0
ARC
  5
26A
100
AcDbEntity
  8
ext1
  6
ByLayer
 62
  256
370
   -1
100
AcDbCircle
 10
33.57483529649176
 20
60.74444978490883
 40
9
100
AcDbArc
 50
255
 51
284.9999998418874
  0
ARC
  5
26B
100
AcDbEntity
  8
ext1
  6
ByLayer
 62
  256
370
   -1
100
AcDbCircle
 10
-10.17389524695216
 20
60.04357263899041
 40
3
100
AcDbArc
 50
75.00000000000017
 51
165.0000000000001
  0
LINE
  5
26C
100
AcDbEntity
  8
ext1
  6
ByLayer
 62
  256
370
   -1
100
AcDbLine
 10
-13.07167272581937
 20
60.82002977429797
 11
-16.53457153384389
 21
47.89631548128077
  0
LINE
  5
26D
100
AcDbEntity
  8
ext1
  6
ByLayer
 62
  256
370
   -1
100
AcDbLine
 10
-51.37943521953316
 20
56.19769228638492
 11
-17.75931640256992
 21
47.18920869938
  0
ARC
  5
26E
100
AcDbEntity
  8
ext1
  6
ByLayer
 62
  256
370
   -1
100
AcDbCircle
 10
-17.50049736013295
 20
48.15513452638329
 40
1
100
AcDbArc
 50
255.0000001581127
 51
345
  0
LINE
  5
26F
100
AcDbEntity
  8
ext1
  6
ByLayer
 62
  256
370
   -1
100
AcDbLine
 10
-115.7402980767891
 20
58.06131237889611
 11
-53.96086547027453
 21
56.56930170746079
  0
ARC
  5
270
100
AcDbEntity
  8
ext1
  6
ByLayer
 62
  256
370
   -1
100
AcDbCircle
 10
-54.22644468633978
 20
45.5725081893486
 40
11
100
AcDbArc
 50
75.00000015811267
 51
88.61654118961741
  0
LINE
  5
271
100
AcDbEntity
  8
ext1
  6
ByLayer
 62
  256
370
   -1
100
AcDbLine
 10
-118.7105062530895
 20
55.83864400126733
 11
-137.9977220342383
 21
-16.14222602507408
  0
ARC
  5
272
100
AcDbEntity
  8
ext1
  6
ByLayer
 62
  256
370
   -1
100
AcDbCircle
 10
-115.8127287720796
 20
55.06218687395643
 40
3
100
AcDbArc
 50
88.61654118961729
 51
165.0000001581128
  0
ARC
  5
273
100
AcDbEntity
  8
ext1
  6
ByLayer
 62
  256
370
   -1
100
AcDbCircle
 10
-135.0999445532284
 20
-16.91868315238496
 40
3
100
AcDbArc
 50
165.0000001581131
 51
252.2591137560899
  0
LINE
  5
274
100
AcDbEntity
  8
ext1
  6
ByLayer
 62
  256
370
   -1
100
AcDbLine
 10
-64.42167032077495
 20
-42.68037388370879
 11
-136.0140829600846
 21
-19.77601599493415
  0
ARC
  5
275
100
AcDbEntity
  8
ext1
  6
ByLayer
 62
  256
370
   -1
100
AcDbCircle
 10
-33.64567728994663
 20
53.51649848211405
 40
101
100
AcDbArc
 50
252.2591137560896
 51
255.0000001581127
  0
LINE
  5
276
100
AcDbEntity
  8
ext1
  6
ByLayer
 62
  256
370
   -1
100
AcDbLine
 10
-59.78640057608009
 20
-44.04201004521943
 11
-12.24908000143416
 21
-56.77959656293332
  0
ARC
  5
277
100
AcDbEntity
  8
ext1
  6
ByLayer
 62
  256
370
   -1
100
AcDbCircle
 10
-4.225689685888241
 20
-26.83589592583096
 40
31
100
AcDbArc
 50
255.0000001581127
 51
270.0707264933247
  0
LINE
  5
278
100
AcDbEntity
  8
ext1
  6
ByLayer
 62
  256
370
   -1
100
AcDbLine
 10
-4.187422980122421
 20
-57.83587230742244
 11
4.303071112091966
 21
-57.82539154978465
  0
ARC
  5
279
100
AcDbEntity
  8
ext1
  6
ByLayer
 62
  256
370
   -1
100
AcDbCircle
 10
4.264804406326135
 20
-26.82541516819315
 40
31
100
AcDbArc
 50
270.0707264933247
 51
284.9999998418874
  0
LINE
  5
27A
100
AcDbEntity
  8
ext1
  6
ByLayer
 62
  256
370
   -1
100
AcDbLine
 10
59.78640057608029
 20
-44.04201004521939
 11
12.28819472187205
 21
-56.76911580529551
  0
LINE
  5
27B
100
AcDbEntity
  8
ext1
  6
ByLayer
 62
  256
370
   -1
100
AcDbLine
 10
64.42167032077514
 20
-42.68037388370874
 11
136.0140829600846
 21
-19.77601599493415
  0
ARC
  5
27C
100
AcDbEntity
  8
ext1
  6
ByLayer
 62
  256
370
   -1
100
AcDbCircle
 10
33.64567728994683
 20
53.51649848211409
 40
101
100
AcDbArc
 50
284.9999998418874
 51
287.7408862439104
  0
ARC
  5
27D
100
AcDbEntity
  8
ext1
  6
ByLayer
 62
  256
370
   -1
100
AcDbCircle
 10
135.0999445532284
 20
-16.91868315238496
 40
3
100
AcDbArc
 50
287.7408862439101
 51
14.99999984188741
  0
LINE
  5
27E
100
AcDbEntity
  8
ext2
  6
ByLayer
 62
  256
370
   -1
100
AcDbLine
 10
53.86429120988718
 20
60.56813571404704
 11
115.6437238164017
 21
62.06014638548238
  0
LINE
  5
27F
100
AcDbEntity
  8
ext2
  6
ByLayer
 62
  256
370
   -1
100
AcDbLine
 10
122.5742095611027
 20
56.8739201710152
 11
141.8614253422515
 21
-15.10694985532621
  0
ARC
  5
280
100
AcDbEntity
  8
ext2
  6
ByLayer
 62
  256
370
   -1
100
AcDbCircle
 10
115.8127287720796
 20
55.06218687395645
 40
7
100
AcDbArc
 50
14.99999984188733
 51
91.38345881038271
  0
ARC
  5
281
100
AcDbEntity
  8
ext2
  6
ByLayer
 62
  256
370
   -1
100
AcDbCircle
 10
135.0999445532284
 20
-16.91868315238496
 40
7
100
AcDbArc
 50
287.7408862439101
 51
14.99999984188741
  0
LINE
  5
282
100
AcDbEntity
  8
ext2
  6
ByLayer
 62
  256
370
   -1
100
AcDbLine
 10
65.64052152991685
 20
-46.49015100710766
 11
137.2329341692264
 21
-23.58579311833308
  0
LINE
  5
283
100
AcDbEntity
  8
ext2
  6
ByLayer
 62
  256
370
   -1
100
AcDbLine
 10
60.82167674582815
 20
-47.90571335323259
 11
13.3234708916199
 21
-60.63281911330872
  0
ARC
  5
284
100
AcDbEntity
  8
ext2
  6
ByLayer
 62
  256
370
   -1
100
AcDbCircle
 10
33.64567728994683
 20
53.51649848211409
 40
105
100
AcDbArc
 50
284.9999998418874
 51
287.7408862439104
  0
ARC
  5
285
100
AcDbEntity
  8
ext2
  6
ByLayer
 62
  256
370
   -1
100
AcDbCircle
 10
4.264804406326135
 20
-26.82541516819315
 40
35
100
AcDbArc
 50
270.0707264933247
 51
284.9999998418874
  0
LINE
  5
286
100
AcDbEntity
  8
ext2
  6
ByLayer
 62
  256
370
   -1
100
AcDbLine
 10
-4.182485340668776
 20
-61.83586925988586
 11
4.308008751545612
 21
-61.82538850224807
  0
ARC
  5
287
100
AcDbEntity
  8
ext2
  6
ByLayer
 62
  256
370
   -1
100
AcDbCircle
 10
-4.225689685888241
 20
-26.83589592583096
 40
35
100
AcDbArc
 50
255.0000001581127
 51
270.0707264933247
  0
LINE
  5
288
100
AcDbEntity
  8
ext2
  6
ByLayer
 62
  256
370
   -1
100
AcDbLine
 10
-60.82167674582795
 20
-47.90571335323264
 11
-13.28435617118202
 21
-60.64329987094653
  0
LINE
  5
289
100
AcDbEntity
  8
ext2
  6
ByLayer
 62
  256
370
   -1
100
AcDbLine
 10
-65.64052152991667
 20
-46.49015100710771
 11
-137.2329341692264
 21
-23.58579311833307
  0
ARC
  5
28A
100
AcDbEntity
  8
ext2
  6
ByLayer
 62
  256
370
   -1
100
AcDbCircle
 10
-33.64567728994663
 20
53.51649848211405
 40
105
100
AcDbArc
 50
252.2591137560896
 51
255.0000001581127
  0
ARC
  5
28B
100
AcDbEntity
  8
ext2
  6
ByLayer
 62
  256
370
   -1
100
AcDbCircle
 10
-135.0999445532284
 20
-16.91868315238496
 40
7
100
AcDbArc
 50
165.0000001581131
 51
252.2591137560899
  0
LINE
  5
28C
100
AcDbEntity
  8
ext2
  6
ByLayer
 62
  256
370
   -1
100
AcDbLine
 10
-122.5742095611027
 20
56.87392017101519
 11
-141.8614253422515
 21
-15.10694985532622
  0
LINE
  5
28D
100
AcDbEntity
  8
ext2
  6
ByLayer
 62
  256
370
   -1
100
AcDbLine
 10
32.28074007097915
 20
55.91482065346348
 11
-8.362161931234525
 21
66.80505342301389
  0
LINE
  5
28E
100
AcDbEntity
  8
ext2
  6
ByLayer
 62
  256
370
   -1
100
AcDbLine
 10
-115.6437238164017
 20
62.06014638548236
 11
-53.86429120988716
 21
60.56813571404704
  0
ARC
  5
28F
100
AcDbEntity
  8
ext2
  6
ByLayer
 62
  256
370
   -1
100
AcDbCircle
 10
-10.17389524695216
 20
60.04357263899041
 40
7
100
AcDbArc
 50
75.00000000000017
 51
165.0000000000001
  0
ARC
  5
290
100
AcDbEntity
  8
ext2
  6
ByLayer
 62
  256
370
   -1
100
AcDbCircle
 10
-115.8127287720796
 20
55.06218687395643
 40
7
100
AcDbArc
 50
88.61654118961729
 51
165.0000001581128
  0
ARC
  5
291
100
AcDbEntity
  8
ext2
  6
ByLayer
 62
  256
370
   -1
100
AcDbCircle
 10
-54.22644468633978
 20
45.5725081893486
 40
15
100
AcDbArc
 50
75.00000015811267
 51
88.61654118961741
  0
LINE
  5
292
100
AcDbEntity
  8
ext2
  6
ByLayer
 62
  256
370
   -1
100
AcDbLine
 10
50.34415904978534
 20
60.06139559439815
 11
34.86893050867658
 21
55.91482064989233
  0
ARC
  5
293
100
AcDbEntity
  8
ext2
  6
ByLayer
 62
  256
370
   -1
100
AcDbCircle
 10
33.57483529649176
 20
60.74444978490883
 40
5
100
AcDbArc
 50
255
 51
284.9999998418874
  0
ARC
  5
294
100
AcDbEntity
  8
ext2
  6
ByLayer
 62
  256
370
   -1
100
AcDbCircle
 10
54.2264446863398
 20
45.57250818934862
 40
15
100
AcDbArc
 50
91.38345881038262
 51
104.9999998418873
  0
LINE
  5
295
100
AcDbEntity
  8
ext2
  6
ByLayer
 62
  256
370
   -1
100
AcDbLine
 10
-50.3441590497853
 20
60.06139559439813
 11
-20.58774353017304
 21
52.08818817428413
  0
LINE
  5
296
100
AcDbEntity
  8
ext2
  6
ByLayer
 62
  256
370
   -1
100
AcDbLine
 10
-16.93537603097564
 20
61.85530595470806
 11
-19.36299866144701
 21
52.79529495618491
  0
ARC
  5
297
100
AcDbEntity
  8
ext2
  6
ByLayer
 62
  256
370
   -1
100
AcDbCircle
 10
-20.32892448773608
 20
53.05411400128743
 40
1
100
AcDbArc
 50
255.0000001581129
 51
345.0000000000001
  0
LINE
  5
298
100
AcDbEntity
  8
ext3
  6
ByLayer
 62
  256
370
   -1
100
AcDbLine
 10
-115.595436686208
 20
64.05956338877549
 11
-53.81600407969348
 21
62.56755271734016
  0
ARC
  5
299
100
AcDbEntity
  8
ext3
  6
ByLayer
 62
  256
370
   -1
100
AcDbCircle
 10
-115.8127287720796
 20
55.06218687395643
 40
9
100
AcDbArc
 50
88.61654118961729
 51
165.0000001581128
  0
LINE
  5
29A
100
AcDbEntity
  8
ext3
  6
ByLayer
 62
  256
370
   -1
100
AcDbLine
 10
-124.5060612151093
 20
57.39155825588912
 11
-143.7932769962581
 21
-14.58931177045229
  0
ARC
  5
29B
100
AcDbEntity
  8
ext3
  6
ByLayer
 62
  256
370
   -1
100
AcDbCircle
 10
-135.0999445532284
 20
-16.91868315238496
 40
9
100
AcDbArc
 50
165.0000001581131
 51
252.2591137560899
  0
LINE
  5
29C
100
AcDbEntity
  8
ext3
  6
ByLayer
 62
  256
370
   -1
100
AcDbLine
 10
-66.24994713448753
 20
-48.39503956880718
 11
-137.8423597737972
 21
-25.49068168003253
  0
LINE
  5
29D
100
AcDbEntity
  8
ext3
  6
ByLayer
 62
  256
370
   -1
100
AcDbLine
 10
-61.33931483070188
 20
-49.83756500723925
 11
-13.80199425605594
 21
-62.57515152495313
  0
ARC
  5
29E
100
AcDbEntity
  8
ext3
  6
ByLayer
 62
  256
370
   -1
100
AcDbCircle
 10
-33.64567728994663
 20
53.51649848211405
 40
107
100
AcDbArc
 50
252.2591137560896
 51
255.0000001581127
  0
LINE
  5
29F
100
AcDbEntity
  8
ext3
  6
ByLayer
 62
  256
370
   -1
100
AcDbLine
 10
-4.180016520941953
 20
-63.83586773611757
 11
4.310477571272434
 21
-63.82538697847978
  0
ARC
  5
2A0
100
AcDbEntity
  8
ext3
  6
ByLayer
 62
  256
370
   -1
100
AcDbCircle
 10
-4.225689685888241
 20
-26.83589592583096
 40
37
100
AcDbArc
 50
255.0000001581127
 51
270.0707264933247
  0
ARC
  5
2A1
100
AcDbEntity
  8
ext3
  6
ByLayer
 62
  256
370
   -1
100
AcDbCircle
 10
4.264804406326135
 20
-26.82541516819315
 40
37
100
AcDbArc
 50
270.0707264933247
 51
284.9999998418874
  0
LINE
  5
2A2
100
AcDbEntity
  8
ext3
  6
ByLayer
 62
  256
370
   -1
100
AcDbLine
 10
61.33931483070208
 20
-49.8375650072392
 11
13.84110897649383
 21
-62.56467076731533
  0
LINE
  5
2A3
100
AcDbEntity
  8
ext3
  6
ByLayer
 62
  256
370
   -1
100
AcDbLine
 10
66.24994713448771
 20
-48.39503956880713
 11
137.8423597737972
 21
-25.49068168003254
  0
ARC
  5
2A4
100
AcDbEntity
  8
ext3
  6
ByLayer
 62
  256
370
   -1
100
AcDbCircle
 10
33.64567728994683
 20
53.51649848211409
 40
107
100
AcDbArc
 50
284.9999998418874
 51
287.7408862439104
  0
ARC
  5
2A5
100
AcDbEntity
  8
ext3
  6
ByLayer
 62
  256
370
   -1
100
AcDbCircle
 10
135.0999445532284
 20
-16.91868315238496
 40
9
100
AcDbArc
 50
287.7408862439101
 51
14.99999984188741
  0
LINE
  5
2A6
100
AcDbEntity
  8
ext3
  6
ByLayer
 62
  256
370
   -1
100
AcDbLine
 10
124.5060612151093
 20
57.39155825588913
 11
143.7932769962581
 21
-14.58931177045228
  0
ARC
  5
2A7
100
AcDbEntity
  8
ext3
  6
ByLayer
 62
  256
370
   -1
100
AcDbCircle
 10
115.8127287720796
 20
55.06218687395645
 40
9
100
AcDbArc
 50
14.99999984188733
 51
91.38345881038271
  0
LINE
  5
2A8
100
AcDbEntity
  8
ext3
  6
ByLayer
 62
  256
370
   -1
100
AcDbLine
 10
53.8160040796935
 20
62.56755271734016
 11
115.595436686208
 21
64.0595633887755
  0
LINE
  5
2A9
100
AcDbEntity
  8
ext3
  6
ByLayer
 62
  256
370
   -1
100
AcDbLine
 10
49.82652096491141
 20
61.99324724840476
 11
34.35129242380265
 21
57.84667230389893
  0
LINE
  5
2AA
100
AcDbEntity
  8
ext3
  6
ByLayer
 62
  256
370
   -1
100
AcDbLine
 10
32.79837816118419
 20
57.84667230604162
 11
-7.844523841029483
 21
68.73690507559202
  0
ARC
  5
2AB
100
AcDbEntity
  8
ext3
  6
ByLayer
 62
  256
370
   -1
100
AcDbCircle
 10
54.2264446863398
 20
45.57250818934862
 40
17
100
AcDbArc
 50
91.38345881038262
 51
104.9999998418873
  0
ARC
  5
2AC
100
AcDbEntity
  8
ext3
  6
ByLayer
 62
  256
370
   -1
100
AcDbCircle
 10
33.57483529649176
 20
60.74444978490883
 40
3
100
AcDbArc
 50
255
 51
284.9999998418874
  0
ARC
  5
2AD
100
AcDbEntity
  8
ext3
  6
ByLayer
 62
  256
370
   -1
100
AcDbCircle
 10
-54.22644468633978
 20
45.5725081893486
 40
17
100
AcDbArc
 50
75.00000015811267
 51
88.61654118961741
  0
ARC
  5
2AE
100
AcDbEntity
  8
ext3
  6
ByLayer
 62
  256
370
   -1
100
AcDbCircle
 10
-10.17389524695216
 20
60.04357263899041
 40
9
100
AcDbArc
 50
75.00000000000017
 51
165.0000000000001
  0
LINE
  5
2AF
100
AcDbEntity
  8
ext3
  6
ByLayer
 62
  256
370
   -1
100
AcDbLine
 10
-18.86722768355378
 20
62.3729440449131
 11
-20.77721222524857
 21
55.24478469363699
  0
LINE
  5
2B0
100
AcDbEntity
  8
ext3
  6
ByLayer
 62
  256
370
   -1
100
AcDbLine
 10
-49.82652096491137
 20
61.99324724840473
 11
-22.00195709397461
 21
54.5376779117362
  0
ARC
  5
2B1
100
AcDbEntity
  8
ext3
  6
ByLayer
 62
  256
370
   -1
100
AcDbCircle
 10
-21.74313805153764
 20
55.50360373873951
 40
1
100
AcDbArc
 50
255.0000001581128
 51
345.0000000000001
  0
LINE
  5
2B2
100
AcDbEntity
  8
decoup
  6
ByLayer
 62
  256
370
   -1
100
AcDbLine
 10
-15.11055101572259
 20
43.76665049857148
 11
-10.96944629408225
 21
59.22146371919656
  0
LINE
  5
2B3
100
AcDbEntity
  8
decoup
  6
ByLayer
 62
  256
370
   -1
100
AcDbLine
 10
-15.11055101572259
 20
43.76665049857148
 11
-55.56939676843822
 21
54.60756554470699
  0
LINE
  5
2B4
100
AcDbEntity
  8
decoup
  6
ByLayer
 62
  256
370
   -1
100
AcDbLine
 10
-10.96944629408225
 20
59.22146371919656
 11
-67.53485392563014
 21
74.3781190136071
  0
LINE
  5
2B5
100
AcDbEntity
  8
decoup
  6
ByLayer
 62
  256
370
   -1
100
AcDbLine
 10
-68.00507162352008
 20
54.90789461552345
 11
-67.53485392563014
 21
74.3781190136071
  0
LINE
  5
2B6
100
AcDbEntity
  8
decoup
  6
ByLayer
 62
  256
370
   -1
100
AcDbLine
 10
-55.56939676843822
 20
54.60756554470699
 11
-68.00507162352008
 21
54.90789461552345
  0
LINE
  5
2B7
100
AcDbEntity
  8
rpi
  6
ByLayer
 62
  256
370
   -1
100
AcDbLine
 10
-10.45180820387722
 20
61.15331537177471
 11
-15.62818910592763
 21
41.83479884599335
  0
ENDSEC
  0
SECTION
  2
OBJECTS
  0
DICTIONARY
  5
C
330
0
100
AcDbDictionary
281
    1
  3
ACAD_GROUP
350
D
  0
DICTIONARY
  5
D
330
C
100
AcDbDictionary
281
    1
  0
PLOTSETTINGS
  5
2B8
100
AcDbPlotSettings
  6
1x1
 40
0
 41
0
 42
0
 43
0
  0
ENDSEC
  0
EOF
