999
dxfrw 0.6.3
  0
SECTION
  2
HEADER
  9
$ACADVER
  1
AC1021
  9
$DWGCODEPAGE
  3
ANSI_1252
  9
$INSBASE
 10
0
 20
0
 30
0
  9
$EXTMIN
 10
-113.3665218756289
 20
-45.25856863168419
 30
0
  9
$EXTMAX
 10
113.366521875629
 20
45.25856863168413
 30
0
  9
$LIMMIN
 10
0
 20
0
  9
$LIMMAX
 10
420
 20
297
  9
$ORTHOMODE
 70
    0
  9
$REGENMODE
 70
    1
  9
$FILLMODE
 70
    1
  9
$QTEXTMODE
 70
    0
  9
$MIRRTEXT
 70
    0
  9
$LTSCALE
 40
1
  9
$ATTMODE
 70
    0
  9
$TEXTSIZE
 40
2.5
  9
$TRACEWID
 40
15.68
  9
$TEXTSTYLE
  7
STANDARD
  9
$CLAYER
  8
edge
  9
$CELTYPE
  6
BYLAYER
  9
$CECOLOR
 62
  256
  9
$CELTSCALE
 40
1
  9
$DISPSILH
 70
    0
  9
$DIMSCALE
 40
2.5
  9
$DIMASZ
 40
2.5
  9
$DIMEXO
 40
0.625
  9
$DIMDLI
 40
3.75
  9
$DIMRND
 40
0
  9
$DIMDLE
 40
0
  9
$DIMEXE
 40
1.25
  9
$DIMTP
 40
0
  9
$DIMTM
 40
0
  9
$DIMTXT
 40
2.5
  9
$DIMCEN
 40
2.5
  9
$DIMTSZ
 40
0
  9
$DIMTOL
 70
    0
  9
$DIMLIM
 70
    0
  9
$DIMTIH
 70
    0
  9
$DIMTOH
 70
    0
  9
$DIMSE1
 70
    0
  9
$DIMSE2
 70
    0
  9
$DIMTAD
 70
    1
  9
$DIMZIN
 70
    8
  9
$DIMBLK
  1

  9
$DIMASO
 70
    1
  9
$DIMSHO
 70
    1
  9
$DIMPOST
  1

  9
$DIMAPOST
  1

  9
$DIMALT
 70
    0
  9
$DIMALTD
 70
    3
  9
$DIMALTF
 40
0.03937
  9
$DIMLFAC
 40
1
  9
$DIMTOFL
 70
    1
  9
$DIMTVP
 40
0
  9
$DIMTIX
 70
    0
  9
$DIMSOXD
 70
    0
  9
$DIMSAH
 70
    0
  9
$DIMBLK1
  1

  9
$DIMBLK2
  1

  9
$DIMSTYLE
  2
STANDARD
  9
$DIMCLRD
 70
    0
  9
$DIMCLRE
 70
    0
  9
$DIMCLRT
 70
    0
  9
$DIMTFAC
 40
1
  9
$DIMGAP
 40
0.625
  9
$DIMJUST
 70
    0
  9
$DIMSD1
 70
    0
  9
$DIMSD2
 70
    0
  9
$DIMTOLJ
 70
    0
  9
$DIMTZIN
 70
    8
  9
$DIMALTZ
 70
    0
  9
$DIMALTTZ
 70
    0
  9
$DIMUPT
 70
    0
  9
$DIMDEC
 70
    2
  9
$DIMTDEC
 70
    2
  9
$DIMALTU
 70
    2
  9
$DIMALTTD
 70
    3
  9
$DIMTXSTY
  7
STANDARD
  9
$DIMAUNIT
 70
    0
  9
$DIMADEC
 70
    0
  9
$DIMALTRND
 40
0
  9
$DIMAZIN
 70
    0
  9
$DIMDSEP
 70
   44
  9
$DIMATFIT
 70
    3
  9
$DIMFRAC
 70
    0
  9
$DIMLDRBLK
  1
STANDARD
  9
$DIMLUNIT
 70
    2
  9
$DIMLWD
 70
   -2
  9
$DIMLWE
 70
   -2
  9
$DIMTMOVE
 70
    0
  9
$DIMFXL
 40
1
  9
$DIMFXLON
 70
    0
  9
$DIMJOGANG
 40
0.7854
  9
$DIMTFILL
 70
    0
  9
$DIMTFILLCLR
 70
    0
  9
$DIMARCSYM
 70
    0
  9
$DIMLTYPE
  6

  9
$DIMLTEX1
  6

  9
$DIMLTEX2
  6

  9
$LUNITS
 70
    2
  9
$LUPREC
 70
    4
  9
$SKETCHINC
 40
1
  9
$FILLETRAD
 40
0
  9
$AUNITS
 70
    0
  9
$AUPREC
 70
    2
  9
$MENU
  1
.
  9
$ELEVATION
 40
0
  9
$PELEVATION
 40
0
  9
$THICKNESS
 40
0
  9
$LIMCHECK
 70
    0
  9
$CHAMFERA
 40
0
  9
$CHAMFERB
 40
0
  9
$CHAMFERC
 40
0
  9
$CHAMFERD
 40
0
  9
$SKPOLY
 70
    0
  9
$USRTIMER
 70
    1
  9
$ANGBASE
 50
0
  9
$ANGDIR
 70
    0
  9
$PDMODE
 70
   34
  9
$PDSIZE
 40
0
  9
$PLINEWID
 40
0
  9
$SPLFRAME
 70
    0
  9
$SPLINETYPE
 70
    2
  9
$SPLINESEGS
 70
    8
  9
$HANDSEED
  5
20000
  9
$SURFTAB1
 70
    6
  9
$SURFTAB2
 70
    6
  9
$SURFTYPE
 70
    6
  9
$SURFU
 70
    6
  9
$SURFV
 70
    6
  9
$UCSBASE
  2

  9
$UCSNAME
  2

  9
$UCSORG
 10
0
 20
0
 30
0
  9
$UCSXDIR
 10
1
 20
0
 30
0
  9
$UCSYDIR
 10
0
 20
1
 30
0
  9
$UCSORTHOREF
  2

  9
$UCSORTHOVIEW
 70
    0
  9
$UCSORGTOP
 10
0
 20
0
 30
0
  9
$UCSORGBOTTOM
 10
0
 20
0
 30
0
  9
$UCSORGLEFT
 10
0
 20
0
 30
0
  9
$UCSORGRIGHT
 10
0
 20
0
 30
0
  9
$UCSORGFRONT
 10
0
 20
0
 30
0
  9
$UCSORGBACK
 10
0
 20
0
 30
0
  9
$PUCSBASE
  2

  9
$PUCSNAME
  2

  9
$PUCSORG
 10
0
 20
0
 30
0
  9
$PUCSXDIR
 10
1
 20
0
 30
0
  9
$PUCSYDIR
 10
0
 20
1
 30
0
  9
$PUCSORTHOREF
  2

  9
$PUCSORTHOVIEW
 70
    0
  9
$PUCSORGTOP
 10
0
 20
0
 30
0
  9
$PUCSORGBOTTOM
 10
0
 20
0
 30
0
  9
$PUCSORGLEFT
 10
0
 20
0
 30
0
  9
$PUCSORGRIGHT
 10
0
 20
0
 30
0
  9
$PUCSORGFRONT
 10
0
 20
0
 30
0
  9
$PUCSORGBACK
 10
0
 20
0
 30
0
  9
$USERI1
 70
    0
  9
$USERI2
 70
    0
  9
$USERI3
 70
    0
  9
$USERI4
 70
    0
  9
$USERI5
 70
    0
  9
$USERR1
 40
0
  9
$USERR2
 40
0
  9
$USERR3
 40
0
  9
$USERR4
 40
0
  9
$USERR5
 40
0
  9
$WORLDVIEW
 70
    1
  9
$SHADEDGE
 70
    3
  9
$SHADEDIF
 70
   70
  9
$TILEMODE
 70
    1
  9
$MAXACTVP
 70
   64
  9
$PINSBASE
 10
0
 20
0
 30
0
  9
$PLIMCHECK
 70
    0
  9
$PEXTMIN
 10
0
 20
0
 30
0
  9
$PEXTMAX
 10
0
 20
0
 30
0
  9
$GRIDMODE
 70
    1
  9
$SNAPSTYLE
 70
    0
  9
$PLIMMIN
 10
0
 20
0
  9
$PLIMMAX
 10
210
 20
297
  9
$UNITMODE
 70
    0
  9
$VISRETAIN
 70
    1
  9
$PLINEGEN
 70
    0
  9
$PSLTSCALE
 70
    1
  9
$TREEDEPTH
 70
 3020
  9
$CMLSTYLE
  2
Standard
  9
$CMLJUST
 70
    0
  9
$CMLSCALE
 40
20
  9
$PROXYGRAPHICS
 70
    1
  9
$MEASUREMENT
 70
    1
  9
$CELWEIGHT
370
   -1
  9
$ENDCAPS
280
    0
  9
$JOINSTYLE
280
    0
  9
$LWDISPLAY
290
    0
  9
$INSUNITS
 70
    4
  9
$HYPERLINKBASE
  1

  9
$STYLESHEET
  1

  9
$XEDIT
290
    1
  9
$CEPSNTYPE
380
    0
  9
$PSTYLEMODE
290
    1
  9
$EXTNAMES
290
    1
  9
$PSVPSCALE
 40
1
  9
$OLESTARTUP
290
    0
  9
$SORTENTS
280
  127
  9
$INDEXCTL
280
    0
  9
$HIDETEXT
280
    1
  9
$XCLIPFRAME
290
    0
  9
$HALOGAP
280
    0
  9
$OBSCOLOR
 70
  257
  9
$OBSLTYPE
280
    0
  9
$INTERSECTIONDISPLAY
280
    0
  9
$INTERSECTIONCOLOR
 70
  257
  9
$DIMASSOC
280
    1
  9
$PROJECTNAME
  1

  9
$CAMERADISPLAY
290
    0
  9
$LENSLENGTH
 40
50
  9
$CAMERAHEIGHT
 40
0
  9
$STEPSPERSEC
 40
2
  9
$STEPSIZE
 40
50
  9
$3DDWFPREC
 40
2
  9
$PSOLWIDTH
 40
5
  9
$PSOLHEIGHT
 40
80
  9
$LOFTANG1
 40
1.570796326794897
  9
$LOFTANG2
 40
1.570796326794897
  9
$LOFTMAG1
 40
0
  9
$LOFTMAG2
 40
0
  9
$LOFTPARAM
 70
    7
  9
$LOFTNORMALS
280
    1
  9
$LATITUDE
 40
1
  9
$LONGITUDE
 40
1
  9
$NORTHDIRECTION
 40
0
  9
$TIMEZONE
 70
-8000
  9
$LIGHTGLYPHDISPLAY
280
    1
  9
$TILEMODELIGHTSYNCH
280
    1
  9
$SOLIDHIST
280
    1
  9
$SHOWHIST
280
    1
  9
$DWFFRAME
280
    2
  9
$DGNFRAME
280
    0
  9
$REALWORLDSCALE
290
    1
  9
$INTERFERECOLOR
 62
    1
  9
$CSHADOW
280
    0
  9
$SHADOWPLANELOCATION
 40
0
  0
ENDSEC
  0
SECTION
  2
CLASSES
  0
ENDSEC
  0
SECTION
  2
TABLES
  0
TABLE
  2
VPORT
  5
8
330
0
100
AcDbSymbolTable
 70
    1
  0
VPORT
  5
31
330
2
100
AcDbSymbolTableRecord
100
AcDbViewportTableRecord
  2
*ACTIVE
 70
    0
 10
0
 20
0
 11
1
 21
1
 12
57.67296866847474
 22
36.07934545406922
 13
0
 23
0
 14
10
 24
10
 15
10
 25
10
 16
0
 26
0
 36
1
 17
0
 27
0
 37
0
 40
144.1374349561568
 41
1.598002496878901
 42
50
 43
0
 44
0
 50
0
 51
0
 71
    0
 72
  100
 73
    1
 74
    3
 75
    0
 76
    1
 77
    0
 78
    0
281
    0
 65
    1
110
0
120
0
130
0
111
1
121
0
131
0
112
0
122
1
132
0
 79
    0
146
0
348
10020
 60
    7
 61
    5
292
1
282
    1
141
0
142
0
 63
  250
421
3358443
  0
ENDTAB
  0
TABLE
  2
LTYPE
  5
5
330
0
100
AcDbSymbolTable
 70
    4
  0
LTYPE
  5
14
330
5
100
AcDbSymbolTableRecord
100
AcDbLinetypeTableRecord
  2
ByBlock
 70
    0
  3

 72
   65
 73
    0
 40
0
  0
LTYPE
  5
15
330
5
100
AcDbSymbolTableRecord
100
AcDbLinetypeTableRecord
  2
ByLayer
 70
    0
  3

 72
   65
 73
    0
 40
0
  0
LTYPE
  5
16
330
5
100
AcDbSymbolTableRecord
100
AcDbLinetypeTableRecord
  2
Continuous
 70
    0
  3
Solid line
 72
   65
 73
    0
 40
0
  0
LTYPE
  5
32
330
5
100
AcDbSymbolTableRecord
100
AcDbLinetypeTableRecord
  2
DOT
 70
    0
  3
Dot . . . . . . . . . . . . . . . . . . . . . .
 72
   65
 73
    2
 40
6.35
 49
0
 74
    0
 49
-6.35
 74
    0
  0
LTYPE
  5
33
330
5
100
AcDbSymbolTableRecord
100
AcDbLinetypeTableRecord
  2
DOTTINY
 70
    0
  3
Dot (.15x) .....................................
 72
   65
 73
    2
 40
0.9525
 49
0
 74
    0
 49
-0.9525
 74
    0
  0
LTYPE
  5
34
330
5
100
AcDbSymbolTableRecord
100
AcDbLinetypeTableRecord
  2
DOT2
 70
    0
  3
Dot (.5x) .....................................
 72
   65
 73
    2
 40
3.175
 49
0
 74
    0
 49
-3.175
 74
    0
  0
LTYPE
  5
35
330
5
100
AcDbSymbolTableRecord
100
AcDbLinetypeTableRecord
  2
DOTX2
 70
    0
  3
Dot (2x) .  .  .  .  .  .  .  .  .  .  .  .  .
 72
   65
 73
    2
 40
12.7
 49
0
 74
    0
 49
-12.7
 74
    0
  0
LTYPE
  5
36
330
5
100
AcDbSymbolTableRecord
100
AcDbLinetypeTableRecord
  2
DASHED
 70
    0
  3
Dashed _ _ _ _ _ _ _ _ _ _ _ _ _ _ _ _ _
 72
   65
 73
    2
 40
19.05
 49
12.7
 74
    0
 49
-6.35
 74
    0
  0
LTYPE
  5
37
330
5
100
AcDbSymbolTableRecord
100
AcDbLinetypeTableRecord
  2
DASHEDTINY
 70
    0
  3
Dashed (.15x) _ _ _ _ _ _ _ _ _ _ _ _ _ _ _ _ _
 72
   65
 73
    2
 40
2.8575
 49
1.905
 74
    0
 49
-0.9525
 74
    0
  0
LTYPE
  5
38
330
5
100
AcDbSymbolTableRecord
100
AcDbLinetypeTableRecord
  2
DASHED2
 70
    0
  3
Dashed (.5x) _ _ _ _ _ _ _ _ _ _ _ _ _ _ _ _ _
 72
   65
 73
    2
 40
9.524999999999999
 49
6.35
 74
    0
 49
-3.175
 74
    0
  0
LTYPE
  5
39
330
5
100
AcDbSymbolTableRecord
100
AcDbLinetypeTableRecord
  2
DASHEDX2
 70
    0
  3
Dashed (2x) ____  ____  ____  ____  ____  ___
 72
   65
 73
    2
 40
38.09999999999999
 49
25.4
 74
    0
 49
-12.7
 74
    0
  0
LTYPE
  5
3A
330
5
100
AcDbSymbolTableRecord
100
AcDbLinetypeTableRecord
  2
DASHDOT
 70
    0
  3
Dash dot __ . __ . __ . __ . __ . __ . __ . __
 72
   65
 73
    4
 40
25.4
 49
12.7
 74
    0
 49
-6.35
 74
    0
 49
0
 74
    0
 49
-6.35
 74
    0
  0
LTYPE
  5
3B
330
5
100
AcDbSymbolTableRecord
100
AcDbLinetypeTableRecord
  2
DASHDOTTINY
 70
    0
  3
Dash dot (.15x) _._._._._._._._._._._._._._._.
 72
   65
 73
    4
 40
3.81
 49
1.905
 74
    0
 49
-0.9525
 74
    0
 49
0
 74
    0
 49
-0.9525
 74
    0
  0
LTYPE
  5
3C
330
5
100
AcDbSymbolTableRecord
100
AcDbLinetypeTableRecord
  2
DASHDOT2
 70
    0
  3
Dash dot (.5x) _._._._._._._._._._._._._._._.
 72
   65
 73
    4
 40
12.7
 49
6.35
 74
    0
 49
-3.175
 74
    0
 49
0
 74
    0
 49
-3.175
 74
    0
  0
LTYPE
  5
3D
330
5
100
AcDbSymbolTableRecord
100
AcDbLinetypeTableRecord
  2
DASHDOTX2
 70
    0
  3
Dash dot (2x) ____  .  ____  .  ____  .  ___
 72
   65
 73
    4
 40
50.8
 49
25.4
 74
    0
 49
-12.7
 74
    0
 49
0
 74
    0
 49
-12.7
 74
    0
  0
LTYPE
  5
3E
330
5
100
AcDbSymbolTableRecord
100
AcDbLinetypeTableRecord
  2
DIVIDE
 70
    0
  3
Divide ____ . . ____ . . ____ . . ____ . . ____
 72
   65
 73
    6
 40
31.75
 49
12.7
 74
    0
 49
-6.35
 74
    0
 49
0
 74
    0
 49
-6.35
 74
    0
 49
0
 74
    0
 49
-6.35
 74
    0
  0
LTYPE
  5
3F
330
5
100
AcDbSymbolTableRecord
100
AcDbLinetypeTableRecord
  2
DIVIDETINY
 70
    0
  3
Divide (.15x) __..__..__..__..__..__..__..__.._
 72
   65
 73
    6
 40
4.7625
 49
1.905
 74
    0
 49
-0.9525
 74
    0
 49
0
 74
    0
 49
-0.9525
 74
    0
 49
0
 74
    0
 49
-0.9525
 74
    0
  0
LTYPE
  5
40
330
5
100
AcDbSymbolTableRecord
100
AcDbLinetypeTableRecord
  2
DIVIDE2
 70
    0
  3
Divide (.5x) __..__..__..__..__..__..__..__.._
 72
   65
 73
    6
 40
15.875
 49
6.35
 74
    0
 49
-3.175
 74
    0
 49
0
 74
    0
 49
-3.175
 74
    0
 49
0
 74
    0
 49
-3.175
 74
    0
  0
LTYPE
  5
41
330
5
100
AcDbSymbolTableRecord
100
AcDbLinetypeTableRecord
  2
DIVIDEX2
 70
    0
  3
Divide (2x) ________  .  .  ________  .  .  _
 72
   65
 73
    6
 40
63.5
 49
25.4
 74
    0
 49
-12.7
 74
    0
 49
0
 74
    0
 49
-12.7
 74
    0
 49
0
 74
    0
 49
-12.7
 74
    0
  0
LTYPE
  5
42
330
5
100
AcDbSymbolTableRecord
100
AcDbLinetypeTableRecord
  2
BORDER
 70
    0
  3
Border __ __ . __ __ . __ __ . __ __ . __ __ .
 72
   65
 73
    6
 40
44.45
 49
12.7
 74
    0
 49
-6.35
 74
    0
 49
12.7
 74
    0
 49
-6.35
 74
    0
 49
0
 74
    0
 49
-6.35
 74
    0
  0
LTYPE
  5
43
330
5
100
AcDbSymbolTableRecord
100
AcDbLinetypeTableRecord
  2
BORDERTINY
 70
    0
  3
Border (.15x) __.__.__.__.__.__.__.__.__.__.__.
 72
   65
 73
    6
 40
6.6675
 49
1.905
 74
    0
 49
-0.9525
 74
    0
 49
1.905
 74
    0
 49
-0.9525
 74
    0
 49
0
 74
    0
 49
-0.9525
 74
    0
  0
LTYPE
  5
44
330
5
100
AcDbSymbolTableRecord
100
AcDbLinetypeTableRecord
  2
BORDER2
 70
    0
  3
Border (.5x) __.__.__.__.__.__.__.__.__.__.__.
 72
   65
 73
    6
 40
22.225
 49
6.35
 74
    0
 49
-3.175
 74
    0
 49
6.35
 74
    0
 49
-3.175
 74
    0
 49
0
 74
    0
 49
-3.175
 74
    0
  0
LTYPE
  5
45
330
5
100
AcDbSymbolTableRecord
100
AcDbLinetypeTableRecord
  2
BORDERX2
 70
    0
  3
Border (2x) ____  ____  .  ____  ____  .  ___
 72
   65
 73
    6
 40
88.89999999999999
 49
25.4
 74
    0
 49
-12.7
 74
    0
 49
25.4
 74
    0
 49
-12.7
 74
    0
 49
0
 74
    0
 49
-12.7
 74
    0
  0
LTYPE
  5
46
330
5
100
AcDbSymbolTableRecord
100
AcDbLinetypeTableRecord
  2
CENTER
 70
    0
  3
Center ____ _ ____ _ ____ _ ____ _ ____ _ ____
 72
   65
 73
    4
 40
50.8
 49
31.75
 74
    0
 49
-6.35
 74
    0
 49
6.35
 74
    0
 49
-6.35
 74
    0
  0
LTYPE
  5
47
330
5
100
AcDbSymbolTableRecord
100
AcDbLinetypeTableRecord
  2
CENTERTINY
 70
    0
  3
Center (.15x) ___ _ ___ _ ___ _ ___ _ ___ _ ___
 72
   65
 73
    4
 40
7.619999999999999
 49
4.7625
 74
    0
 49
-0.9525
 74
    0
 49
0.9525
 74
    0
 49
-0.9525
 74
    0
  0
LTYPE
  5
48
330
5
100
AcDbSymbolTableRecord
100
AcDbLinetypeTableRecord
  2
CENTER2
 70
    0
  3
Center (.5x) ___ _ ___ _ ___ _ ___ _ ___ _ ___
 72
   65
 73
    4
 40
28.575
 49
19.05
 74
    0
 49
-3.175
 74
    0
 49
3.175
 74
    0
 49
-3.175
 74
    0
  0
LTYPE
  5
49
330
5
100
AcDbSymbolTableRecord
100
AcDbLinetypeTableRecord
  2
CENTERX2
 70
    0
  3
Center (2x) ________  __  ________  __  _____
 72
   65
 73
    4
 40
101.6
 49
63.5
 74
    0
 49
-12.7
 74
    0
 49
12.7
 74
    0
 49
-12.7
 74
    0
  0
ENDTAB
  0
TABLE
  2
LAYER
  5
2
330
0
100
AcDbSymbolTable
 70
    1
  0
LAYER
  5
10
330
2
100
AcDbSymbolTableRecord
100
AcDbLayerTableRecord
  2
0
 70
    0
 62
    7
  6
CONTINUOUS
370
    0
390
F
  0
LAYER
  5
4A
330
2
100
AcDbSymbolTableRecord
100
AcDbLayerTableRecord
  2
edge
 70
    0
 62
    2
  6
CONTINUOUS
370
    0
390
F
  0
LAYER
  5
4B
330
2
100
AcDbSymbolTableRecord
100
AcDbLayerTableRecord
  2
percage
 70
    0
 62
    4
  6
CONTINUOUS
370
    0
390
F
  0
LAYER
  5
4C
330
2
100
AcDbSymbolTableRecord
100
AcDbLayerTableRecord
  2
r4-1
 70
    1
 62
    6
  6
CONTINUOUS
370
    0
390
F
  0
LAYER
  5
4D
330
2
100
AcDbSymbolTableRecord
100
AcDbLayerTableRecord
  2
r4-2
 70
    0
 62
  136
420
32896
  6
CONTINUOUS
370
    0
390
F
  0
LAYER
  5
4E
330
2
100
AcDbSymbolTableRecord
100
AcDbLayerTableRecord
  2
r4-3
 70
    1
 62
   96
420
32768
  6
CONTINUOUS
370
    0
390
F
  0
LAYER
  5
4F
330
2
100
AcDbSymbolTableRecord
100
AcDbLayerTableRecord
  2
rpi
 70
    0
 62
    3
  6
CONTINUOUS
370
    0
390
F
  0
LAYER
  5
50
330
2
100
AcDbSymbolTableRecord
100
AcDbLayerTableRecord
  2
sw
 70
    0
 62
    1
  6
CONTINUOUS
370
    0
390
F
  0
ENDTAB
  0
TABLE
  2
STYLE
  5
3
330
0
100
AcDbSymbolTable
 70
    3
  0
STYLE
  5
51
330
2
100
AcDbSymbolTableRecord
100
AcDbTextStyleTableRecord
  2
Standard
 70
    0
 40
0
 41
1
 50
0
 71
    0
 42
1
  3
txt
  4

  0
ENDTAB
  0
TABLE
  2
VIEW
  5
6
330
0
100
AcDbSymbolTable
 70
    0
  0
ENDTAB
  0
TABLE
  2
UCS
  5
7
330
0
100
AcDbSymbolTable
 70
    0
  0
ENDTAB
  0
TABLE
  2
APPID
  5
9
330
0
100
AcDbSymbolTable
 70
    1
  0
APPID
  5
12
330
9
100
AcDbSymbolTableRecord
100
AcDbRegAppTableRecord
  2
ACAD
 70
    0
  0
APPID
  5
52
330
9
100
AcDbSymbolTableRecord
100
AcDbRegAppTableRecord
  2
LibreCad
 70
    0
  0
ENDTAB
  0
TABLE
  2
DIMSTYLE
  5
A
330
0
100
AcDbSymbolTable
 70
    1
100
AcDbDimStyleTable
 71
    1
  0
DIMSTYLE
105
53
330
A
100
AcDbSymbolTableRecord
100
AcDbDimStyleTableRecord
  2
Standard
 70
    0
 40
2.5
 41
2.5
 42
0.625
 43
0.38
 44
1.25
 45
0
 46
0
 47
0
 48
0
 49
1
140
2.5
141
0.09
142
0
143
25.4
144
1
145
0
146
1
147
0.625
148
0
 71
    0
 72
    0
 73
    0
 74
    1
 75
    0
 76
    0
 77
    0
 78
    8
 79
    0
170
    0
171
    2
172
    0
173
    0
174
    0
175
    0
176
    0
177
    0
178
    0
179
    0
271
    2
272
    4
273
    2
274
    2
275
    0
276
    0
277
    2
278
   44
279
    0
280
    0
281
    0
282
    0
283
    1
284
    0
285
    0
286
    0
288
    0
289
    3
340
STANDARD
341

371
   -2
372
   -2
  0
ENDTAB
  0
TABLE
  2
BLOCK_RECORD
  5
1
330
0
100
AcDbSymbolTable
 70
    2
  0
BLOCK_RECORD
  5
1F
330
1
100
AcDbSymbolTableRecord
100
AcDbBlockTableRecord
  2
*Model_Space
 70
    0
280
    1
281
    0
  0
BLOCK_RECORD
  5
1E
330
1
100
AcDbSymbolTableRecord
100
AcDbBlockTableRecord
  2
*Paper_Space
 70
    0
280
    1
281
    0
  0
ENDTAB
  0
ENDSEC
  0
SECTION
  2
BLOCKS
  0
BLOCK
  5
20
330
1F
100
AcDbEntity
  8
0
100
AcDbBlockBegin
  2
*Model_Space
 70
    0
 10
0
 20
0
 30
0
  3
*Model_Space
  1

  0
ENDBLK
  5
21
330
1F
100
AcDbEntity
  8
0
100
AcDbBlockEnd
  0
BLOCK
  5
1C
330
1B
100
AcDbEntity
  8
0
100
AcDbBlockBegin
  2
*Paper_Space
 70
    0
 10
0
 20
0
 30
0
  3
*Paper_Space
  1

  0
ENDBLK
  5
1D
330
1F
100
AcDbEntity
  8
0
100
AcDbBlockEnd
  0
ENDSEC
  0
SECTION
  2
ENTITIES
  0
LWPOLYLINE
  5
54
100
AcDbEntity
  8
0
  6
ByLayer
 62
  256
370
   -1
100
AcDbPolyline
 90
    4
 70
    1
 43
0
 10
-87.55140160470953
 20
26.54722132445217
 10
-68.84005429747756
 20
23.24790594878048
 10
-65.5407389218059
 20
41.95925325601245
 10
-84.25208622903784
 20
45.25856863168413
  0
LWPOLYLINE
  5
55
100
AcDbEntity
  8
0
  6
ByLayer
 62
  256
370
   -1
100
AcDbPolyline
 90
    4
 70
    1
 43
0
 10
-68.84005429747756
 20
23.24790594878048
 10
-50.12870699024562
 20
19.9485905731088
 10
-46.82939161457394
 20
38.65993788034076
 10
-65.5407389218059
 20
41.95925325601245
  0
LWPOLYLINE
  5
56
100
AcDbEntity
  8
0
  6
ByLayer
 62
  256
370
   -1
100
AcDbPolyline
 90
    4
 70
    1
 43
0
 10
-50.12870699024562
 20
19.9485905731088
 10
-31.41735968301367
 20
16.64927519743712
 10
-28.11804430734199
 20
35.36062250466908
 10
-46.82939161457394
 20
38.65993788034076
  0
LWPOLYLINE
  5
57
100
AcDbEntity
  8
0
  6
ByLayer
 62
  256
370
   -1
100
AcDbPolyline
 90
    4
 70
    1
 43
0
 10
-86.1728801535732
 20
7.011045173302293
 10
-67.46153284634126
 20
3.711729797630611
 10
-64.16221747066959
 20
22.42307710486257
 10
-82.87356477790154
 20
25.72239248053425
  0
LWPOLYLINE
  5
58
100
AcDbEntity
  8
0
  6
ByLayer
 62
  256
370
   -1
100
AcDbPolyline
 90
    4
 70
    1
 43
0
 10
-80.11652187562891
 20
-13.34995982176551
 10
-61.40517456839696
 20
-16.64927519743719
 10
-58.10585919272528
 20
2.062072109794769
 10
-76.81720649995724
 20
5.361387485466452
  0
LWPOLYLINE
  5
59
100
AcDbEntity
  8
0
  6
ByLayer
 62
  256
370
   -1
100
AcDbPolyline
 90
    4
 70
    1
 43
0
 10
-67.46153284634126
 20
3.711729797630611
 10
-48.7501855391093
 20
0.4124144219589283
 10
-45.45087016343763
 20
19.12376172919089
 10
-64.16221747066959
 20
22.42307710486257
  0
LWPOLYLINE
  5
5A
100
AcDbEntity
  8
0
  6
ByLayer
 62
  256
370
   -1
100
AcDbPolyline
 90
    4
 70
    1
 43
0
 10
-48.7501855391093
 20
0.4124144219589283
 10
-30.03883823187735
 20
-2.886900953712754
 10
-26.73952285620567
 20
15.82444635351921
 10
-45.45087016343763
 20
19.12376172919089
  0
LWPOLYLINE
  5
5B
100
AcDbEntity
  8
0
  6
ByLayer
 62
  256
370
   -1
100
AcDbPolyline
 90
    4
 70
    1
 43
0
 10
-61.40517456839696
 20
-16.64927519743719
 10
-42.693827261165
 20
-19.94859057310887
 10
-39.39451188549333
 20
-1.237243265876913
 10
-58.10585919272528
 20
2.062072109794769
  0
LWPOLYLINE
  5
5C
100
AcDbEntity
  8
0
  6
ByLayer
 62
  256
370
   -1
100
AcDbPolyline
 90
    4
 70
    1
 43
0
 10
-42.693827261165
 20
-19.94859057310887
 10
-23.98247995393305
 20
-23.24790594878056
 10
-20.68316457826137
 20
-4.536558641548595
 10
-39.39451188549333
 20
-1.237243265876913
  0
LWPOLYLINE
  5
5D
100
AcDbEntity
  8
0
  6
ByLayer
 62
  256
370
   -1
100
AcDbPolyline
 90
    4
 70
    1
 43
0
 10
-23.98247995393305
 20
-23.24790594878056
 10
-5.271132646701091
 20
-26.54722132445224
 10
-1.971817271029437
 20
-7.835874017220277
 10
-20.68316457826137
 20
-4.536558641548595
  0
LWPOLYLINE
  5
5E
100
AcDbEntity
  8
0
  6
ByLayer
 62
  256
370
   -1
100
AcDbPolyline
 90
    4
 70
    1
 43
0
 10
-106.5514016047095
 20
26.25856863168413
 10
-87.55140160470953
 20
26.25856863168413
 10
-87.55140160470953
 20
45.25856863168413
 10
-106.5514016047095
 20
45.25856863168413
  0
LWPOLYLINE
  5
5F
100
AcDbEntity
  8
0
  6
ByLayer
 62
  256
370
   -1
100
AcDbPolyline
 90
    4
 70
    1
 43
0
 10
-113.3665218756289
 20
5.943145804063633
 10
-80.11652187562876
 20
5.943145804063633
 10
-80.11652187562876
 20
-13.05685419593637
 10
-113.3665218756289
 20
-13.05685419593637
  0
LWPOLYLINE
  5
60
100
AcDbEntity
  8
0
  6
ByLayer
 62
  256
370
   -1
100
AcDbPolyline
 90
    4
 70
    1
 43
0
 10
-109.9228801535732
 20
25.60085721787388
 10
-86.17288015357317
 20
25.60085721787388
 10
-86.17288015357317
 20
6.60085721787388
 10
-109.9228801535732
 20
6.60085721787388
  0
LINE
  5
61
100
AcDbEntity
  8
sw
  6
ByLayer
 62
  256
370
   -1
100
AcDbLine
 10
-26.0901453689788
 20
32.46448267797125
 11
-12.30283682680788
 21
30.0334081906342
  0
LINE
  5
62
100
AcDbEntity
  8
sw
  6
ByLayer
 62
  256
370
   -1
100
AcDbLine
 10
-12.30283682680788
 20
30.0334081906342
 11
-14.73391131414489
 21
16.2460996484633
  0
LINE
  5
63
100
AcDbEntity
  8
sw
  6
ByLayer
 62
  256
370
   -1
100
AcDbLine
 10
-14.73391131414489
 20
16.2460996484633
 11
-28.52121985631582
 21
18.67717413580034
  0
LINE
  5
64
100
AcDbEntity
  8
sw
  6
ByLayer
 62
  256
370
   -1
100
AcDbLine
 10
-28.52121985631582
 20
18.67717413580034
 11
-26.0901453689788
 21
32.46448267797125
  0
LINE
  5
65
100
AcDbEntity
  8
sw
  6
ByLayer
 62
  256
370
   -1
100
AcDbLine
 10
-26.0901453689788
 20
32.46448267797125
 11
-14.73391131414489
 21
16.2460996484633
  0
LINE
  5
66
100
AcDbEntity
  8
sw
  6
ByLayer
 62
  256
370
   -1
100
AcDbLine
 10
-12.30283682680788
 20
30.0334081906342
 11
-28.52121985631582
 21
18.67717413580034
  0
LINE
  5
67
100
AcDbEntity
  8
sw
  6
ByLayer
 62
  256
370
   -1
100
AcDbLine
 10
-44.80149267621074
 20
35.76379805364294
 11
-31.01418413403982
 21
33.3327235663059
  0
LINE
  5
68
100
AcDbEntity
  8
sw
  6
ByLayer
 62
  256
370
   -1
100
AcDbLine
 10
-31.01418413403982
 20
33.3327235663059
 11
-33.44525862137684
 21
19.545415024135
  0
LINE
  5
69
100
AcDbEntity
  8
sw
  6
ByLayer
 62
  256
370
   -1
100
AcDbLine
 10
-33.44525862137684
 20
19.545415024135
 11
-47.23256716354777
 21
21.97648951147204
  0
LINE
  5
6A
100
AcDbEntity
  8
sw
  6
ByLayer
 62
  256
370
   -1
100
AcDbLine
 10
-47.23256716354777
 20
21.97648951147204
 11
-44.80149267621074
 21
35.76379805364294
  0
LINE
  5
6B
100
AcDbEntity
  8
sw
  6
ByLayer
 62
  256
370
   -1
100
AcDbLine
 10
-44.80149267621074
 20
35.76379805364294
 11
-33.44525862137684
 21
19.545415024135
  0
LINE
  5
6C
100
AcDbEntity
  8
sw
  6
ByLayer
 62
  256
370
   -1
100
AcDbLine
 10
-31.01418413403982
 20
33.3327235663059
 11
-47.23256716354777
 21
21.97648951147204
  0
LINE
  5
6D
100
AcDbEntity
  8
sw
  6
ByLayer
 62
  256
370
   -1
100
AcDbLine
 10
-63.5128399834427
 20
39.06311342931461
 11
-49.72553144127178
 21
36.63203894197757
  0
LINE
  5
6E
100
AcDbEntity
  8
sw
  6
ByLayer
 62
  256
370
   -1
100
AcDbLine
 10
-49.72553144127178
 20
36.63203894197757
 11
-52.15660592860879
 21
22.84473039980666
  0
LINE
  5
6F
100
AcDbEntity
  8
sw
  6
ByLayer
 62
  256
370
   -1
100
AcDbLine
 10
-52.15660592860879
 20
22.84473039980666
 11
-65.94391447077973
 21
25.27580488714371
  0
LINE
  5
70
100
AcDbEntity
  8
sw
  6
ByLayer
 62
  256
370
   -1
100
AcDbLine
 10
-65.94391447077973
 20
25.27580488714371
 11
-63.5128399834427
 21
39.06311342931461
  0
LINE
  5
71
100
AcDbEntity
  8
sw
  6
ByLayer
 62
  256
370
   -1
100
AcDbLine
 10
-63.5128399834427
 20
39.06311342931461
 11
-52.15660592860879
 21
22.84473039980666
  0
LINE
  5
72
100
AcDbEntity
  8
sw
  6
ByLayer
 62
  256
370
   -1
100
AcDbLine
 10
-49.72553144127178
 20
36.63203894197757
 11
-65.94391447077973
 21
25.27580488714371
  0
LINE
  5
73
100
AcDbEntity
  8
sw
  6
ByLayer
 62
  256
370
   -1
100
AcDbLine
 10
-24.7116239178425
 20
12.92830652682137
 11
-10.92431537567158
 21
10.49723203948433
  0
LINE
  5
74
100
AcDbEntity
  8
sw
  6
ByLayer
 62
  256
370
   -1
100
AcDbLine
 10
-10.92431537567158
 20
10.49723203948433
 11
-13.3553898630086
 21
-3.290076502686574
  0
LINE
  5
75
100
AcDbEntity
  8
sw
  6
ByLayer
 62
  256
370
   -1
100
AcDbLine
 10
-13.3553898630086
 20
-3.290076502686574
 11
-27.14269840517953
 21
-0.8590020153495317
  0
LINE
  5
76
100
AcDbEntity
  8
sw
  6
ByLayer
 62
  256
370
   -1
100
AcDbLine
 10
-27.14269840517953
 20
-0.8590020153495317
 11
-24.7116239178425
 21
12.92830652682137
  0
LINE
  5
77
100
AcDbEntity
  8
sw
  6
ByLayer
 62
  256
370
   -1
100
AcDbLine
 10
-24.7116239178425
 20
12.92830652682137
 11
-13.3553898630086
 21
-3.290076502686574
  0
LINE
  5
78
100
AcDbEntity
  8
sw
  6
ByLayer
 62
  256
370
   -1
100
AcDbLine
 10
-10.92431537567158
 20
10.49723203948433
 11
-27.14269840517953
 21
-0.8590020153495317
  0
LINE
  5
79
100
AcDbEntity
  8
sw
  6
ByLayer
 62
  256
370
   -1
100
AcDbLine
 10
-43.42297122507442
 20
16.22762190249306
 11
-29.6356626829035
 21
13.79654741515601
  0
LINE
  5
7A
100
AcDbEntity
  8
sw
  6
ByLayer
 62
  256
370
   -1
100
AcDbLine
 10
-29.6356626829035
 20
13.79654741515601
 11
-32.06673717024051
 21
0.00923887298510806
  0
LINE
  5
7B
100
AcDbEntity
  8
sw
  6
ByLayer
 62
  256
370
   -1
100
AcDbLine
 10
-32.06673717024051
 20
0.00923887298510806
 11
-45.85404571241145
 21
2.440313360322151
  0
LINE
  5
7C
100
AcDbEntity
  8
sw
  6
ByLayer
 62
  256
370
   -1
100
AcDbLine
 10
-45.85404571241145
 20
2.440313360322151
 11
-43.42297122507442
 21
16.22762190249306
  0
LINE
  5
7D
100
AcDbEntity
  8
sw
  6
ByLayer
 62
  256
370
   -1
100
AcDbLine
 10
-43.42297122507442
 20
16.22762190249306
 11
-32.06673717024051
 21
0.00923887298510806
  0
LINE
  5
7E
100
AcDbEntity
  8
sw
  6
ByLayer
 62
  256
370
   -1
100
AcDbLine
 10
-29.6356626829035
 20
13.79654741515601
 11
-45.85404571241145
 21
2.440313360322151
  0
LINE
  5
7F
100
AcDbEntity
  8
sw
  6
ByLayer
 62
  256
370
   -1
100
AcDbLine
 10
-62.13431853230638
 20
19.52693727816472
 11
-48.34700999013546
 21
17.09586279082768
  0
LINE
  5
80
100
AcDbEntity
  8
sw
  6
ByLayer
 62
  256
370
   -1
100
AcDbLine
 10
-48.34700999013546
 20
17.09586279082768
 11
-50.77808447747248
 21
3.308554248656776
  0
LINE
  5
81
100
AcDbEntity
  8
sw
  6
ByLayer
 62
  256
370
   -1
100
AcDbLine
 10
-50.77808447747248
 20
3.308554248656776
 11
-64.56539301964341
 21
5.739628735993819
  0
LINE
  5
82
100
AcDbEntity
  8
sw
  6
ByLayer
 62
  256
370
   -1
100
AcDbLine
 10
-64.56539301964341
 20
5.739628735993819
 11
-62.13431853230638
 21
19.52693727816472
  0
LINE
  5
83
100
AcDbEntity
  8
sw
  6
ByLayer
 62
  256
370
   -1
100
AcDbLine
 10
-62.13431853230638
 20
19.52693727816472
 11
-50.77808447747248
 21
3.308554248656776
  0
LINE
  5
84
100
AcDbEntity
  8
sw
  6
ByLayer
 62
  256
370
   -1
100
AcDbLine
 10
-48.34700999013546
 20
17.09586279082768
 11
-64.56539301964341
 21
5.739628735993819
  0
LINE
  5
85
100
AcDbEntity
  8
sw
  6
ByLayer
 62
  256
370
   -1
100
AcDbLine
 10
-80.84566583953834
 20
22.82625265383642
 11
-67.05835729736742
 21
20.39517816649938
  0
LINE
  5
86
100
AcDbEntity
  8
sw
  6
ByLayer
 62
  256
370
   -1
100
AcDbLine
 10
-67.05835729736742
 20
20.39517816649938
 11
-69.48943178470444
 21
6.607869624328472
  0
LINE
  5
87
100
AcDbEntity
  8
sw
  6
ByLayer
 62
  256
370
   -1
100
AcDbLine
 10
-69.48943178470444
 20
6.607869624328472
 11
-83.27674032687537
 21
9.038944111665515
  0
LINE
  5
88
100
AcDbEntity
  8
sw
  6
ByLayer
 62
  256
370
   -1
100
AcDbLine
 10
-83.27674032687537
 20
9.038944111665515
 11
-80.84566583953834
 21
22.82625265383642
  0
LINE
  5
89
100
AcDbEntity
  8
sw
  6
ByLayer
 62
  256
370
   -1
100
AcDbLine
 10
-80.84566583953834
 20
22.82625265383642
 11
-69.48943178470444
 21
6.607869624328472
  0
LINE
  5
8A
100
AcDbEntity
  8
sw
  6
ByLayer
 62
  256
370
   -1
100
AcDbLine
 10
-67.05835729736742
 20
20.39517816649938
 11
-83.27674032687537
 21
9.038944111665515
  0
LINE
  5
8B
100
AcDbEntity
  8
sw
  6
ByLayer
 62
  256
370
   -1
100
AcDbLine
 10
-82.22418729067465
 20
42.36242880498628
 11
-68.43687874850373
 21
39.93135431764924
  0
LINE
  5
8C
100
AcDbEntity
  8
sw
  6
ByLayer
 62
  256
370
   -1
100
AcDbLine
 10
-68.43687874850373
 20
39.93135431764924
 11
-70.86795323584074
 21
26.14404577547833
  0
LINE
  5
8D
100
AcDbEntity
  8
sw
  6
ByLayer
 62
  256
370
   -1
100
AcDbLine
 10
-70.86795323584074
 20
26.14404577547833
 11
-84.65526177801168
 21
28.57512026281537
  0
LINE
  5
8E
100
AcDbEntity
  8
sw
  6
ByLayer
 62
  256
370
   -1
100
AcDbLine
 10
-84.65526177801168
 20
28.57512026281537
 11
-82.22418729067465
 21
42.36242880498628
  0
LINE
  5
8F
100
AcDbEntity
  8
sw
  6
ByLayer
 62
  256
370
   -1
100
AcDbLine
 10
-82.22418729067465
 20
42.36242880498628
 11
-70.86795323584074
 21
26.14404577547833
  0
LINE
  5
90
100
AcDbEntity
  8
sw
  6
ByLayer
 62
  256
370
   -1
100
AcDbLine
 10
-68.43687874850373
 20
39.93135431764924
 11
-84.65526177801168
 21
28.57512026281537
  0
LWPOLYLINE
  5
91
100
AcDbEntity
  8
0
  6
ByLayer
 62
  256
370
   -1
100
AcDbPolyline
 90
    4
 70
    1
 43
0
 10
90.92288015357346
 20
7.011045173302307
 10
72.2115328463415
 20
3.711729797630625
 10
68.91221747066984
 20
22.42307710486259
 10
87.62356477790175
 20
25.72239248053427
  0
LWPOLYLINE
  5
92
100
AcDbEntity
  8
0
  6
ByLayer
 62
  256
370
   -1
100
AcDbPolyline
 90
    4
 70
    1
 43
0
 10
84.86652187562916
 20
-13.34995982176549
 10
66.1551745683972
 20
-16.64927519743718
 10
62.85585919272549
 20
2.062072109794784
 10
81.56720649995745
 20
5.361387485466466
  0
LWPOLYLINE
  5
93
100
AcDbEntity
  8
0
  6
ByLayer
 62
  256
370
   -1
100
AcDbPolyline
 90
    4
 70
    1
 43
0
 10
72.2115328463415
 20
3.711729797630625
 10
53.50018553910954
 20
0.4124144219589425
 10
50.20087016343788
 20
19.1237617291909
 10
68.91221747066984
 20
22.42307710486259
  0
LWPOLYLINE
  5
94
100
AcDbEntity
  8
0
  6
ByLayer
 62
  256
370
   -1
100
AcDbPolyline
 90
    4
 70
    1
 43
0
 10
53.50018553910954
 20
0.4124144219589425
 10
34.78883823187758
 20
-2.88690095371274
 10
31.48952285620592
 20
15.82444635351922
 10
50.20087016343788
 20
19.1237617291909
  0
LWPOLYLINE
  5
95
100
AcDbEntity
  8
0
  6
ByLayer
 62
  256
370
   -1
100
AcDbPolyline
 90
    4
 70
    1
 43
0
 10
34.78883823187758
 20
-2.88690095371274
 10
16.07749092464563
 20
-6.186216329384422
 10
12.77817554897398
 20
12.52513097784754
 10
31.48952285620592
 20
15.82444635351922
  0
LWPOLYLINE
  5
96
100
AcDbEntity
  8
0
  6
ByLayer
 62
  256
370
   -1
100
AcDbPolyline
 90
    4
 70
    1
 43
0
 10
66.1551745683972
 20
-16.64927519743718
 10
47.44382726116524
 20
-19.94859057310887
 10
44.14451188549359
 20
-1.237243265876899
 10
62.85585919272555
 20
2.062072109794784
  0
LWPOLYLINE
  5
97
100
AcDbEntity
  8
0
  6
ByLayer
 62
  256
370
   -1
100
AcDbPolyline
 90
    4
 70
    1
 43
0
 10
47.44382726116524
 20
-19.94859057310887
 10
28.73247995393328
 20
-23.24790594878056
 10
25.43316457826162
 20
-4.536558641548581
 10
44.14451188549359
 20
-1.237243265876899
  0
LWPOLYLINE
  5
98
100
AcDbEntity
  8
0
  6
ByLayer
 62
  256
370
   -1
100
AcDbPolyline
 90
    4
 70
    1
 43
0
 10
28.73247995393328
 20
-23.24790594878056
 10
10.02113264670133
 20
-26.54722132445222
 10
6.721817271029678
 20
-7.835874017220263
 10
25.43316457826162
 20
-4.536558641548581
  0
LWPOLYLINE
  5
99
100
AcDbEntity
  8
0
  6
ByLayer
 62
  256
370
   -1
100
AcDbPolyline
 90
    4
 70
    1
 43
0
 10
82.94572795109374
 20
24.89756363661634
 10
64.23438064386178
 20
21.59824826094466
 10
60.93506526819013
 20
40.30959556817662
 10
79.64641257542209
 20
43.6089109438483
  0
LWPOLYLINE
  5
9A
100
AcDbEntity
  8
0
  6
ByLayer
 62
  256
370
   -1
100
AcDbPolyline
 90
    4
 70
    1
 43
0
 10
64.23438064386178
 20
21.59824826094466
 10
45.52303333662982
 20
18.29893288527298
 10
42.22371796095817
 20
37.01028019250494
 10
60.93506526819013
 20
40.30959556817662
  0
LWPOLYLINE
  5
9B
100
AcDbEntity
  8
0
  6
ByLayer
 62
  256
370
   -1
100
AcDbPolyline
 90
    4
 70
    1
 43
0
 10
45.52303333662982
 20
18.29893288527298
 10
26.81168602939792
 20
14.99961750960129
 10
23.51237065372621
 20
33.71096481683325
 10
42.22371796095817
 20
37.01028019250494
  0
LWPOLYLINE
  5
9C
100
AcDbEntity
  8
0
  6
ByLayer
 62
  256
370
   -1
100
AcDbPolyline
 90
    4
 70
    1
 43
0
 10
106.5502883714445
 20
25.72239248053427
 10
82.80028837144445
 20
25.72239248053427
 10
82.80028837144445
 20
44.72239248053427
 10
106.5502883714445
 20
44.72239248053427
  0
LWPOLYLINE
  5
9D
100
AcDbEntity
  8
0
  6
ByLayer
 62
  256
370
   -1
100
AcDbPolyline
 90
    4
 70
    1
 43
0
 10
84.86652187562899
 20
-13.05685419593635
 10
113.366521875629
 20
-13.05685419593635
 10
113.366521875629
 20
5.943145804063647
 10
84.86652187562899
 20
5.943145804063647
  0
LWPOLYLINE
  5
9E
100
AcDbEntity
  8
0
  6
ByLayer
 62
  256
370
   -1
100
AcDbPolyline
 90
    4
 70
    1
 43
0
 10
90.92288015357346
 20
25.33276914229896
 10
109.9228801535734
 20
25.33276914229896
 10
109.9228801535734
 20
6.332769142298957
 10
90.92288015357346
 20
6.332769142298957
  0
LINE
  5
9F
100
AcDbEntity
  8
sw
  6
ByLayer
 62
  256
370
   -1
100
AcDbLine
 10
7.697163173192109
 20
28.38375050279838
 11
21.48447171536304
 21
30.81482499013542
  0
LINE
  5
A0
100
AcDbEntity
  8
sw
  6
ByLayer
 62
  256
370
   -1
100
AcDbLine
 10
21.48447171536304
 20
30.81482499013542
 11
23.91554620270009
 21
17.02751644796449
  0
LINE
  5
A1
100
AcDbEntity
  8
sw
  6
ByLayer
 62
  256
370
   -1
100
AcDbLine
 10
23.91554620270009
 20
17.02751644796449
 11
10.12823766052914
 21
14.59644196062744
  0
LINE
  5
A2
100
AcDbEntity
  8
sw
  6
ByLayer
 62
  256
370
   -1
100
AcDbLine
 10
10.12823766052914
 20
14.59644196062744
 11
7.697163173192109
 21
28.38375050279838
  0
LINE
  5
A3
100
AcDbEntity
  8
sw
  6
ByLayer
 62
  256
370
   -1
100
AcDbLine
 10
26.40851048042404
 20
31.68306587847006
 11
40.19581902259497
 21
34.1141403658071
  0
LINE
  5
A4
100
AcDbEntity
  8
sw
  6
ByLayer
 62
  256
370
   -1
100
AcDbLine
 10
40.19581902259497
 20
34.1141403658071
 11
42.62689350993205
 21
20.32683182363617
  0
LINE
  5
A5
100
AcDbEntity
  8
sw
  6
ByLayer
 62
  256
370
   -1
100
AcDbLine
 10
42.62689350993205
 20
20.32683182363617
 11
28.83958496776111
 21
17.89575733629913
  0
LINE
  5
A6
100
AcDbEntity
  8
sw
  6
ByLayer
 62
  256
370
   -1
100
AcDbLine
 10
28.83958496776111
 20
17.89575733629913
 11
26.40851048042404
 21
31.68306587847006
  0
LINE
  5
A7
100
AcDbEntity
  8
sw
  6
ByLayer
 62
  256
370
   -1
100
AcDbLine
 10
45.119857787656
 20
34.98238125414173
 11
58.90716632982694
 21
37.41345574147877
  0
LINE
  5
A8
100
AcDbEntity
  8
sw
  6
ByLayer
 62
  256
370
   -1
100
AcDbLine
 10
58.90716632982694
 20
37.41345574147877
 11
61.33824081716395
 21
23.62614719930784
  0
LINE
  5
A9
100
AcDbEntity
  8
sw
  6
ByLayer
 62
  256
370
   -1
100
AcDbLine
 10
61.33824081716395
 20
23.62614719930784
 11
47.55093227499302
 21
21.19507271197079
  0
LINE
  5
AA
100
AcDbEntity
  8
sw
  6
ByLayer
 62
  256
370
   -1
100
AcDbLine
 10
47.55093227499302
 20
21.19507271197079
 11
45.119857787656
 21
34.98238125414173
  0
LINE
  5
AB
100
AcDbEntity
  8
sw
  6
ByLayer
 62
  256
370
   -1
100
AcDbLine
 10
63.83120509488802
 20
38.28169662981342
 11
77.61851363705895
 21
40.71277111715047
  0
LINE
  5
AC
100
AcDbEntity
  8
sw
  6
ByLayer
 62
  256
370
   -1
100
AcDbLine
 10
77.61851363705895
 20
40.71277111715047
 11
80.04958812439597
 21
26.92546257497953
  0
LINE
  5
AD
100
AcDbEntity
  8
sw
  6
ByLayer
 62
  256
370
   -1
100
AcDbLine
 10
80.04958812439597
 20
26.92546257497953
 11
66.26227958222503
 21
24.49438808764249
  0
LINE
  5
AE
100
AcDbEntity
  8
sw
  6
ByLayer
 62
  256
370
   -1
100
AcDbLine
 10
66.26227958222503
 20
24.49438808764249
 11
63.83120509488802
 21
38.28169662981342
  0
LINE
  5
AF
100
AcDbEntity
  8
sw
  6
ByLayer
 62
  256
370
   -1
100
AcDbLine
 10
15.67431537567181
 20
10.49723203948435
 11
29.46162391784273
 21
12.92830652682139
  0
LINE
  5
B0
100
AcDbEntity
  8
sw
  6
ByLayer
 62
  256
370
   -1
100
AcDbLine
 10
29.46162391784273
 20
12.92830652682139
 11
31.89269840517974
 21
-0.8590020153495459
  0
LINE
  5
B1
100
AcDbEntity
  8
sw
  6
ByLayer
 62
  256
370
   -1
100
AcDbLine
 10
31.89269840517974
 20
-0.8590020153495459
 11
18.10538986300884
 21
-3.290076502686588
  0
LINE
  5
B2
100
AcDbEntity
  8
sw
  6
ByLayer
 62
  256
370
   -1
100
AcDbLine
 10
18.10538986300884
 20
-3.290076502686588
 11
15.67431537567181
 21
10.49723203948435
  0
LINE
  5
B3
100
AcDbEntity
  8
sw
  6
ByLayer
 62
  256
370
   -1
100
AcDbLine
 10
34.38566268290376
 20
13.79654741515603
 11
48.17297122507469
 21
16.22762190249307
  0
LINE
  5
B4
100
AcDbEntity
  8
sw
  6
ByLayer
 62
  256
370
   -1
100
AcDbLine
 10
48.17297122507469
 20
16.22762190249307
 11
50.6040457124117
 21
2.440313360322136
  0
LINE
  5
B5
100
AcDbEntity
  8
sw
  6
ByLayer
 62
  256
370
   -1
100
AcDbLine
 10
50.6040457124117
 20
2.440313360322136
 11
36.81673717024077
 21
0.009238872985093849
  0
LINE
  5
B6
100
AcDbEntity
  8
sw
  6
ByLayer
 62
  256
370
   -1
100
AcDbLine
 10
36.81673717024077
 20
0.009238872985093849
 11
34.38566268290376
 21
13.79654741515603
  0
LINE
  5
B7
100
AcDbEntity
  8
sw
  6
ByLayer
 62
  256
370
   -1
100
AcDbLine
 10
53.09700999013572
 20
17.09586279082771
 11
66.88431853230665
 21
19.52693727816475
  0
LINE
  5
B8
100
AcDbEntity
  8
sw
  6
ByLayer
 62
  256
370
   -1
100
AcDbLine
 10
66.88431853230665
 20
19.52693727816475
 11
69.31539301964366
 21
5.739628735993819
  0
LINE
  5
B9
100
AcDbEntity
  8
sw
  6
ByLayer
 62
  256
370
   -1
100
AcDbLine
 10
69.31539301964366
 20
5.739628735993819
 11
55.52808447747273
 21
3.308554248656776
  0
LINE
  5
BA
100
AcDbEntity
  8
sw
  6
ByLayer
 62
  256
370
   -1
100
AcDbLine
 10
55.52808447747273
 20
3.308554248656776
 11
53.09700999013572
 21
17.09586279082771
  0
LINE
  5
BB
100
AcDbEntity
  8
sw
  6
ByLayer
 62
  256
370
   -1
100
AcDbLine
 10
71.80835729736768
 20
20.39517816649939
 11
85.59566583953861
 21
22.82625265383643
  0
LINE
  5
BC
100
AcDbEntity
  8
sw
  6
ByLayer
 62
  256
370
   -1
100
AcDbLine
 10
85.59566583953861
 20
22.82625265383643
 11
88.02674032687563
 21
9.038944111665501
  0
LINE
  5
BD
100
AcDbEntity
  8
sw
  6
ByLayer
 62
  256
370
   -1
100
AcDbLine
 10
88.02674032687563
 20
9.038944111665501
 11
74.23943178470469
 21
6.607869624328458
  0
LINE
  5
BE
100
AcDbEntity
  8
sw
  6
ByLayer
 62
  256
370
   -1
100
AcDbLine
 10
74.23943178470469
 20
6.607869624328458
 11
71.80835729736768
 21
20.39517816649939
  0
LINE
  5
BF
100
AcDbEntity
  8
sw
  6
ByLayer
 62
  256
370
   -1
100
AcDbLine
 10
9.617957097727526
 20
-9.863772955583457
 11
23.40526563989846
 21
-7.432698468246414
  0
LINE
  5
C0
100
AcDbEntity
  8
sw
  6
ByLayer
 62
  256
370
   -1
100
AcDbLine
 10
23.40526563989846
 20
-7.432698468246414
 11
25.8363401272355
 21
-21.22000701041735
  0
LINE
  5
C1
100
AcDbEntity
  8
sw
  6
ByLayer
 62
  256
370
   -1
100
AcDbLine
 10
25.8363401272355
 20
-21.22000701041735
 11
12.04903158506455
 21
-23.65108149775439
  0
LINE
  5
C2
100
AcDbEntity
  8
sw
  6
ByLayer
 62
  256
370
   -1
100
AcDbLine
 10
12.04903158506455
 20
-23.65108149775439
 11
9.617957097727526
 21
-9.863772955583457
  0
LINE
  5
C3
100
AcDbEntity
  8
sw
  6
ByLayer
 62
  256
370
   -1
100
AcDbLine
 10
28.32930440495946
 20
-6.564457579911775
 11
42.11661294713039
 21
-4.133383092574732
  0
LINE
  5
C4
100
AcDbEntity
  8
sw
  6
ByLayer
 62
  256
370
   -1
100
AcDbLine
 10
42.11661294713039
 20
-4.133383092574732
 11
44.54768743446741
 21
-17.92069163474567
  0
LINE
  5
C5
100
AcDbEntity
  8
sw
  6
ByLayer
 62
  256
370
   -1
100
AcDbLine
 10
44.54768743446741
 20
-17.92069163474567
 11
30.76037889229647
 21
-20.35176612208271
  0
LINE
  5
C6
100
AcDbEntity
  8
sw
  6
ByLayer
 62
  256
370
   -1
100
AcDbLine
 10
30.76037889229647
 20
-20.35176612208271
 11
28.32930440495946
 21
-6.564457579911775
  0
LINE
  5
C7
100
AcDbEntity
  8
sw
  6
ByLayer
 62
  256
370
   -1
100
AcDbLine
 10
47.04065171219142
 20
-3.265142204240092
 11
60.82796025436235
 21
-0.8340677169030499
  0
LINE
  5
C8
100
AcDbEntity
  8
sw
  6
ByLayer
 62
  256
370
   -1
100
AcDbLine
 10
60.82796025436235
 20
-0.8340677169030499
 11
63.25903474169937
 21
-14.62137625907398
  0
LINE
  5
C9
100
AcDbEntity
  8
sw
  6
ByLayer
 62
  256
370
   -1
100
AcDbLine
 10
63.25903474169937
 20
-14.62137625907398
 11
49.47172619952843
 21
-17.05245074641103
  0
LINE
  5
CA
100
AcDbEntity
  8
sw
  6
ByLayer
 62
  256
370
   -1
100
AcDbLine
 10
49.47172619952843
 20
-17.05245074641103
 11
47.04065171219142
 21
-3.265142204240092
  0
LINE
  5
CB
100
AcDbEntity
  8
sw
  6
ByLayer
 62
  256
370
   -1
100
AcDbLine
 10
65.75199901942338
 20
0.03417317143158982
 11
79.53930756159431
 21
2.465247658768632
  0
LINE
  5
CC
100
AcDbEntity
  8
sw
  6
ByLayer
 62
  256
370
   -1
100
AcDbLine
 10
79.53930756159431
 20
2.465247658768632
 11
81.97038204893133
 21
-11.3220608834023
  0
LINE
  5
CD
100
AcDbEntity
  8
sw
  6
ByLayer
 62
  256
370
   -1
100
AcDbLine
 10
81.97038204893133
 20
-11.3220608834023
 11
68.18307350676039
 21
-13.75313537073934
  0
LINE
  5
CE
100
AcDbEntity
  8
sw
  6
ByLayer
 62
  256
370
   -1
100
AcDbLine
 10
68.18307350676039
 20
-13.75313537073934
 11
65.75199901942338
 21
0.03417317143158982
  0
LINE
  5
CF
100
AcDbEntity
  8
sw
  6
ByLayer
 62
  256
370
   -1
100
AcDbLine
 10
7.697163173192109
 20
28.38375050279838
 11
23.91554620270009
 21
17.02751644796449
  0
LINE
  5
D0
100
AcDbEntity
  8
sw
  6
ByLayer
 62
  256
370
   -1
100
AcDbLine
 10
21.48447171536301
 20
30.81482499013542
 11
10.12823766052912
 21
14.59644196062744
  0
LINE
  5
D1
100
AcDbEntity
  8
sw
  6
ByLayer
 62
  256
370
   -1
100
AcDbLine
 10
26.40851048042398
 20
31.68306587847006
 11
42.62689350993199
 21
20.32683182363617
  0
LINE
  5
D2
100
AcDbEntity
  8
sw
  6
ByLayer
 62
  256
370
   -1
100
AcDbLine
 10
40.19581902259492
 20
34.1141403658071
 11
28.839584967761
 21
17.89575733629913
  0
LINE
  5
D3
100
AcDbEntity
  8
sw
  6
ByLayer
 62
  256
370
   -1
100
AcDbLine
 10
45.11985778765595
 20
34.98238125414171
 11
61.33824081716395
 21
23.62614719930782
  0
LINE
  5
D4
100
AcDbEntity
  8
sw
  6
ByLayer
 62
  256
370
   -1
100
AcDbLine
 10
58.90716632982688
 20
37.41345574147876
 11
47.55093227499296
 21
21.19507271197078
  0
LINE
  5
D5
100
AcDbEntity
  8
sw
  6
ByLayer
 62
  256
370
   -1
100
AcDbLine
 10
63.83120509488796
 20
38.28169662981342
 11
80.04958812439591
 21
26.92546257497953
  0
LINE
  5
D6
100
AcDbEntity
  8
sw
  6
ByLayer
 62
  256
370
   -1
100
AcDbLine
 10
77.6185136370589
 20
40.71277111715047
 11
66.26227958222498
 21
24.49438808764249
  0
LINE
  5
D7
100
AcDbEntity
  8
sw
  6
ByLayer
 62
  256
370
   -1
100
AcDbLine
 10
15.67431537567177
 20
10.49723203948435
 11
31.89269840517974
 21
-0.8590020153495459
  0
LINE
  5
D8
100
AcDbEntity
  8
sw
  6
ByLayer
 62
  256
370
   -1
100
AcDbLine
 10
29.46162391784267
 20
12.92830652682139
 11
18.10538986300878
 21
-3.290076502686588
  0
LINE
  5
D9
100
AcDbEntity
  8
sw
  6
ByLayer
 62
  256
370
   -1
100
AcDbLine
 10
34.3856626829037
 20
13.79654741515603
 11
50.60404571241165
 21
2.440313360322136
  0
LINE
  5
DA
100
AcDbEntity
  8
sw
  6
ByLayer
 62
  256
370
   -1
100
AcDbLine
 10
48.17297122507463
 20
16.22762190249307
 11
36.81673717024071
 21
0.009238872985093849
  0
LINE
  5
DB
100
AcDbEntity
  8
sw
  6
ByLayer
 62
  256
370
   -1
100
AcDbLine
 10
53.09700999013566
 20
17.09586279082771
 11
69.31539301964361
 21
5.739628735993819
  0
LINE
  5
DC
100
AcDbEntity
  8
sw
  6
ByLayer
 62
  256
370
   -1
100
AcDbLine
 10
66.88431853230659
 20
19.52693727816475
 11
55.52808447747267
 21
3.308554248656776
  0
LINE
  5
DD
100
AcDbEntity
  8
sw
  6
ByLayer
 62
  256
370
   -1
100
AcDbLine
 10
71.80835729736762
 20
20.39517816649939
 11
88.02674032687557
 21
9.038944111665501
  0
LINE
  5
DE
100
AcDbEntity
  8
sw
  6
ByLayer
 62
  256
370
   -1
100
AcDbLine
 10
85.59566583953855
 20
22.82625265383643
 11
74.23943178470464
 21
6.607869624328458
  0
LINE
  5
DF
100
AcDbEntity
  8
sw
  6
ByLayer
 62
  256
370
   -1
100
AcDbLine
 10
9.617957097727469
 20
-9.863772955583414
 11
25.83634012723545
 21
-21.22000701041731
  0
LINE
  5
E0
100
AcDbEntity
  8
sw
  6
ByLayer
 62
  256
370
   -1
100
AcDbLine
 10
23.40526563989837
 20
-7.432698468246372
 11
12.04903158506448
 21
-23.65108149775435
  0
LINE
  5
E1
100
AcDbEntity
  8
sw
  6
ByLayer
 62
  256
370
   -1
100
AcDbLine
 10
28.3293044049594
 20
-6.564457579911732
 11
44.54768743446735
 21
-17.92069163474562
  0
LINE
  5
E2
100
AcDbEntity
  8
sw
  6
ByLayer
 62
  256
370
   -1
100
AcDbLine
 10
42.11661294713033
 20
-4.133383092574689
 11
30.76037889229642
 21
-20.35176612208267
  0
LINE
  5
E3
100
AcDbEntity
  8
sw
  6
ByLayer
 62
  256
370
   -1
100
AcDbLine
 10
47.04065171219136
 20
-3.26514220424005
 11
63.25903474169931
 21
-14.62137625907394
  0
LINE
  5
E4
100
AcDbEntity
  8
sw
  6
ByLayer
 62
  256
370
   -1
100
AcDbLine
 10
60.8279602543623
 20
-0.8340677169030073
 11
49.47172619952838
 21
-17.05245074641098
  0
LINE
  5
E5
100
AcDbEntity
  8
sw
  6
ByLayer
 62
  256
370
   -1
100
AcDbLine
 10
65.75199901942332
 20
0.03417317143163245
 11
81.97038204893127
 21
-11.32206088340226
  0
LINE
  5
E6
100
AcDbEntity
  8
sw
  6
ByLayer
 62
  256
370
   -1
100
AcDbLine
 10
79.53930756159426
 20
2.465247658768675
 11
68.18307350676034
 21
-13.7531353707393
  0
LWPOLYLINE
  5
E7
100
AcDbEntity
  8
0
  6
ByLayer
 62
  256
370
   -1
100
AcDbPolyline
 90
    4
 70
    1
 43
0
 10
-7.124999999999886
 20
-6.927228865581895
 10
11.87500000000011
 20
-6.927228865581895
 10
11.87500000000011
 20
12.0727711344181
 10
-7.124999999999886
 20
12.0727711344181
  0
LWPOLYLINE
  5
E8
100
AcDbEntity
  8
sw
  6
ByLayer
 62
  256
370
   -1
100
AcDbPolyline
 90
    4
 70
    1
 43
0
 10
-4.624999999999886
 20
9.572771134418105
 10
9.375000000000128
 20
9.572771134418105
 10
9.375000000000128
 20
-4.427228865581895
 10
-4.624999999999886
 20
-4.427228865581895
  0
LINE
  5
E9
100
AcDbEntity
  8
sw
  6
ByLayer
 62
  256
370
   -1
100
AcDbLine
 10
-4.624999999999886
 20
9.572771134418105
 11
9.375000000000128
 21
-4.427228865581895
  0
LINE
  5
EA
100
AcDbEntity
  8
sw
  6
ByLayer
 62
  256
370
   -1
100
AcDbLine
 10
9.375000000000128
 20
9.572771134418105
 11
-4.624999999999886
 21
-4.427228865581895
  0
LWPOLYLINE
  5
EB
100
AcDbEntity
  8
rpi
  6
ByLayer
 62
  256
370
   -1
100
AcDbPolyline
 90
    4
 70
    1
 43
0
 10
-12.30283682680786
 20
37.0727711344181
 10
7.697163173192124
 20
37.0727711344181
 10
7.697163173192124
 20
12.0727711344181
 10
-12.30283682680786
 20
12.0727711344181
  0
CIRCLE
  5
EC
100
AcDbEntity
  8
rpi
  6
ByLayer
 62
  256
370
   -1
100
AcDbCircle
 10
-9.922836826807867
 20
34.7327711344181
 40
0.75
  0
CIRCLE
  5
ED
100
AcDbEntity
  8
rpi
  6
ByLayer
 62
  256
370
   -1
100
AcDbCircle
 10
-9.922836826807867
 20
32.19277113441812
 40
0.75
  0
CIRCLE
  5
EE
100
AcDbEntity
  8
rpi
  6
ByLayer
 62
  256
370
   -1
100
AcDbCircle
 10
-9.922836826807867
 20
29.6527711344181
 40
0.75
  0
CIRCLE
  5
EF
100
AcDbEntity
  8
rpi
  6
ByLayer
 62
  256
370
   -1
100
AcDbCircle
 10
-9.922836826807867
 20
27.11277113441811
 40
0.75
  0
CIRCLE
  5
F0
100
AcDbEntity
  8
rpi
  6
ByLayer
 62
  256
370
   -1
100
AcDbCircle
 10
-9.922836826807867
 20
24.5727711344181
 40
0.75
  0
CIRCLE
  5
F1
100
AcDbEntity
  8
rpi
  6
ByLayer
 62
  256
370
   -1
100
AcDbCircle
 10
-9.922836826807867
 20
22.0327711344181
 40
0.75
  0
CIRCLE
  5
F2
100
AcDbEntity
  8
rpi
  6
ByLayer
 62
  256
370
   -1
100
AcDbCircle
 10
-9.922836826807867
 20
19.49277113441811
 40
0.75
  0
CIRCLE
  5
F3
100
AcDbEntity
  8
rpi
  6
ByLayer
 62
  256
370
   -1
100
AcDbCircle
 10
-9.922836826807867
 20
16.9527711344181
 40
0.75
  0
CIRCLE
  5
F4
100
AcDbEntity
  8
rpi
  6
ByLayer
 62
  256
370
   -1
100
AcDbCircle
 10
-9.922836826807867
 20
14.41277113441811
 40
0.75
  0
CIRCLE
  5
F5
100
AcDbEntity
  8
rpi
  6
ByLayer
 62
  256
370
   -1
100
AcDbCircle
 10
-7.382836826807861
 20
14.41277113441811
 40
0.75
  0
CIRCLE
  5
F6
100
AcDbEntity
  8
rpi
  6
ByLayer
 62
  256
370
   -1
100
AcDbCircle
 10
-4.842836826807869
 20
14.41277113441811
 40
0.75
  0
CIRCLE
  5
F7
100
AcDbEntity
  8
rpi
  6
ByLayer
 62
  256
370
   -1
100
AcDbCircle
 10
-2.302836826807848
 20
14.41277113441811
 40
0.75
  0
CIRCLE
  5
F8
100
AcDbEntity
  8
rpi
  6
ByLayer
 62
  256
370
   -1
100
AcDbCircle
 10
0.2371631731921298
 20
14.41277113441811
 40
0.75
  0
CIRCLE
  5
F9
100
AcDbEntity
  8
rpi
  6
ByLayer
 62
  256
370
   -1
100
AcDbCircle
 10
2.77716317319215
 20
14.41277113441811
 40
0.75
  0
CIRCLE
  5
FA
100
AcDbEntity
  8
rpi
  6
ByLayer
 62
  256
370
   -1
100
AcDbCircle
 10
5.317163173192128
 20
14.41277113441811
 40
0.75
  0
CIRCLE
  5
FB
100
AcDbEntity
  8
rpi
  6
ByLayer
 62
  256
370
   -1
100
AcDbCircle
 10
5.317163173192128
 20
16.9527711344181
 40
0.75
  0
CIRCLE
  5
FC
100
AcDbEntity
  8
rpi
  6
ByLayer
 62
  256
370
   -1
100
AcDbCircle
 10
5.317163173192128
 20
19.49277113441811
 40
0.75
  0
CIRCLE
  5
FD
100
AcDbEntity
  8
rpi
  6
ByLayer
 62
  256
370
   -1
100
AcDbCircle
 10
5.317163173192128
 20
22.0327711344181
 40
0.75
  0
CIRCLE
  5
FE
100
AcDbEntity
  8
rpi
  6
ByLayer
 62
  256
370
   -1
100
AcDbCircle
 10
5.317163173192128
 20
24.5727711344181
 40
0.75
  0
CIRCLE
  5
FF
100
AcDbEntity
  8
rpi
  6
ByLayer
 62
  256
370
   -1
100
AcDbCircle
 10
5.317163173192128
 20
27.11277113441811
 40
0.75
  0
CIRCLE
  5
100
100
AcDbEntity
  8
rpi
  6
ByLayer
 62
  256
370
   -1
100
AcDbCircle
 10
5.317163173192128
 20
29.6527711344181
 40
0.75
  0
CIRCLE
  5
101
100
AcDbEntity
  8
rpi
  6
ByLayer
 62
  256
370
   -1
100
AcDbCircle
 10
5.317163173192128
 20
32.19277113441812
 40
0.75
  0
CIRCLE
  5
102
100
AcDbEntity
  8
rpi
  6
ByLayer
 62
  256
370
   -1
100
AcDbCircle
 10
5.317163173192128
 20
34.7327711344181
 40
0.75
  0
LWPOLYLINE
  5
103
100
AcDbEntity
  8
0
  6
ByLayer
 62
  256
370
   -1
100
AcDbPolyline
 90
    4
 70
    1
 43
0
 10
-31.41735968301367
 20
16.64927519743715
 10
-12.70601237578173
 20
13.34995982176547
 10
-9.406697000110043
 20
32.06130712899743
 10
-28.11804430734199
 20
35.36062250466911
  0
LWPOLYLINE
  5
104
100
AcDbEntity
  8
0
  6
ByLayer
 62
  256
370
   -1
100
AcDbPolyline
 90
    4
 70
    1
 43
0
 10
-30.03883823187735
 20
-2.886900953712754
 10
-11.3274909246454
 20
-6.186216329384436
 10
-8.028175548973721
 20
12.52513097784752
 10
-26.73952285620567
 20
15.82444635351921
  0
LWPOLYLINE
  5
105
100
AcDbEntity
  8
0
  6
ByLayer
 62
  256
370
   -1
100
AcDbPolyline
 90
    4
 70
    1
 43
0
 10
26.81168602939789
 20
14.99961750960131
 10
8.100338722165986
 20
11.70030213392963
 10
4.801023346494276
 20
30.41164944116159
 10
23.51237065372624
 20
33.71096481683327
  0
ARC
  5
106
100
AcDbEntity
  8
edge
  6
ByLayer
 62
  256
370
   -1
100
AcDbCircle
 10
109.366521875629
 20
41.25856863168413
 40
4
100
AcDbArc
 50
2.035554996136651e-13
 51
90
  0
LINE
  5
107
100
AcDbEntity
  8
edge
  6
ByLayer
 62
  256
370
   -1
100
AcDbLine
 10
113.366521875629
 20
-41.25856863168418
 11
113.366521875629
 21
41.25856863168414
  0
ARC
  5
108
100
AcDbEntity
  8
edge
  6
ByLayer
 62
  256
370
   -1
100
AcDbCircle
 10
109.366521875629
 20
-41.25856863168418
 40
4
100
AcDbArc
 50
270
 51
0
  0
ARC
  5
109
100
AcDbEntity
  8
edge
  6
ByLayer
 62
  256
370
   -1
100
AcDbCircle
 10
-109.3665218756289
 20
-41.25856863168418
 40
4
100
AcDbArc
 50
180.0000000000002
 51
270
  0
LINE
  5
10A
100
AcDbEntity
  8
edge
  6
ByLayer
 62
  256
370
   -1
100
AcDbLine
 10
-113.3665218756289
 20
41.25856863168413
 11
-113.3665218756289
 21
-41.2585686316842
  0
ARC
  5
10B
100
AcDbEntity
  8
edge
  6
ByLayer
 62
  256
370
   -1
100
AcDbCircle
 10
-109.3665218756289
 20
41.25856863168413
 40
4
100
AcDbArc
 50
90
 51
180
  0
LWPOLYLINE
  5
10C
100
AcDbEntity
  8
sw
  6
ByLayer
 62
  256
370
   -1
100
AcDbPolyline
 90
    4
 70
    1
 43
0
 10
-104.0514016047095
 20
42.75856863168413
 10
-90.05140160470951
 20
42.75856863168413
 10
-90.05140160470951
 20
28.75856863168413
 10
-104.0514016047095
 20
28.75856863168413
  0
LINE
  5
10D
100
AcDbEntity
  8
sw
  6
ByLayer
 62
  256
370
   -1
100
AcDbLine
 10
-104.0514016047095
 20
42.75856863168413
 11
-90.05140160470951
 21
28.75856863168413
  0
LINE
  5
10E
100
AcDbEntity
  8
sw
  6
ByLayer
 62
  256
370
   -1
100
AcDbLine
 10
-90.05140160470951
 20
42.75856863168413
 11
-104.0514016047095
 21
28.75856863168413
  0
LWPOLYLINE
  5
10F
100
AcDbEntity
  8
sw
  6
ByLayer
 62
  256
370
   -1
100
AcDbPolyline
 90
    4
 70
    1
 43
0
 10
93.4228801535734
 20
22.83276914229896
 10
107.4228801535734
 20
22.83276914229896
 10
107.4228801535734
 20
8.832769142298957
 10
93.4228801535734
 20
8.832769142298957
  0
LINE
  5
110
100
AcDbEntity
  8
sw
  6
ByLayer
 62
  256
370
   -1
100
AcDbLine
 10
93.4228801535734
 20
22.83276914229896
 11
107.4228801535734
 21
8.832769142298957
  0
LINE
  5
111
100
AcDbEntity
  8
sw
  6
ByLayer
 62
  256
370
   -1
100
AcDbLine
 10
107.4228801535734
 20
22.83276914229896
 11
93.4228801535734
 21
8.832769142298957
  0
LINE
  5
112
100
AcDbEntity
  8
sw
  6
ByLayer
 62
  256
370
   -1
100
AcDbLine
 10
87.67528837144445
 20
42.22239248053427
 11
101.6752883714445
 21
42.22239248053427
  0
LINE
  5
113
100
AcDbEntity
  8
sw
  6
ByLayer
 62
  256
370
   -1
100
AcDbLine
 10
101.6752883714445
 20
42.22239248053427
 11
101.6752883714445
 21
28.22239248053427
  0
LINE
  5
114
100
AcDbEntity
  8
sw
  6
ByLayer
 62
  256
370
   -1
100
AcDbLine
 10
101.6752883714445
 20
28.22239248053427
 11
87.67528837144445
 21
28.22239248053427
  0
LINE
  5
115
100
AcDbEntity
  8
sw
  6
ByLayer
 62
  256
370
   -1
100
AcDbLine
 10
87.67528837144445
 20
28.22239248053427
 11
87.67528837144445
 21
42.22239248053427
  0
LINE
  5
116
100
AcDbEntity
  8
sw
  6
ByLayer
 62
  256
370
   -1
100
AcDbLine
 10
87.67528837144445
 20
42.22239248053427
 11
101.6752883714445
 21
28.22239248053427
  0
LINE
  5
117
100
AcDbEntity
  8
sw
  6
ByLayer
 62
  256
370
   -1
100
AcDbLine
 10
101.6752883714445
 20
42.22239248053427
 11
87.67528837144445
 21
28.22239248053427
  0
LINE
  5
118
100
AcDbEntity
  8
sw
  6
ByLayer
 62
  256
370
   -1
100
AcDbLine
 10
92.11652187562899
 20
3.443145804063648
 11
106.116521875629
 21
-10.55685419593635
  0
LINE
  5
119
100
AcDbEntity
  8
sw
  6
ByLayer
 62
  256
370
   -1
100
AcDbLine
 10
106.116521875629
 20
-10.55685419593635
 11
106.116521875629
 21
3.443145804063646
  0
LINE
  5
11A
100
AcDbEntity
  8
sw
  6
ByLayer
 62
  256
370
   -1
100
AcDbLine
 10
106.116521875629
 20
3.443145804063646
 11
92.11652187562899
 21
-10.55685419593635
  0
LINE
  5
11B
100
AcDbEntity
  8
sw
  6
ByLayer
 62
  256
370
   -1
100
AcDbLine
 10
92.11652187562899
 20
-10.55685419593635
 11
92.11652187562899
 21
3.443145804063648
  0
LINE
  5
11C
100
AcDbEntity
  8
sw
  6
ByLayer
 62
  256
370
   -1
100
AcDbLine
 10
92.11652187562899
 20
3.443145804063648
 11
106.116521875629
 21
3.443145804063646
  0
LINE
  5
11D
100
AcDbEntity
  8
sw
  6
ByLayer
 62
  256
370
   -1
100
AcDbLine
 10
92.11652187562899
 20
-10.55685419593635
 11
106.116521875629
 21
-10.55685419593636
  0
LINE
  5
11E
100
AcDbEntity
  8
sw
  6
ByLayer
 62
  256
370
   -1
100
AcDbLine
 10
-18.6552656398982
 20
-7.432698468246466
 11
-4.867957097727285
 21
-9.863772955583508
  0
LINE
  5
11F
100
AcDbEntity
  8
sw
  6
ByLayer
 62
  256
370
   -1
100
AcDbLine
 10
-4.867957097727285
 20
-9.863772955583508
 11
-7.299031585064299
 21
-23.65108149775441
  0
LINE
  5
120
100
AcDbEntity
  8
sw
  6
ByLayer
 62
  256
370
   -1
100
AcDbLine
 10
-7.299031585064299
 20
-23.65108149775441
 11
-21.08634012723523
 21
-21.22000701041737
  0
LINE
  5
121
100
AcDbEntity
  8
sw
  6
ByLayer
 62
  256
370
   -1
100
AcDbLine
 10
-21.08634012723523
 20
-21.22000701041737
 11
-18.6552656398982
 21
-7.432698468246466
  0
LINE
  5
122
100
AcDbEntity
  8
sw
  6
ByLayer
 62
  256
370
   -1
100
AcDbLine
 10
-18.6552656398982
 20
-7.432698468246466
 11
-7.299031585064299
 21
-23.65108149775441
  0
LINE
  5
123
100
AcDbEntity
  8
sw
  6
ByLayer
 62
  256
370
   -1
100
AcDbLine
 10
-4.867957097727285
 20
-9.863772955583508
 11
-21.08634012723523
 21
-21.22000701041737
  0
LINE
  5
124
100
AcDbEntity
  8
sw
  6
ByLayer
 62
  256
370
   -1
100
AcDbLine
 10
-37.36661294713012
 20
-4.133383092574784
 11
-23.5793044049592
 21
-6.564457579911826
  0
LINE
  5
125
100
AcDbEntity
  8
sw
  6
ByLayer
 62
  256
370
   -1
100
AcDbLine
 10
-23.5793044049592
 20
-6.564457579911826
 11
-26.01037889229622
 21
-20.35176612208273
  0
LINE
  5
126
100
AcDbEntity
  8
sw
  6
ByLayer
 62
  256
370
   -1
100
AcDbLine
 10
-26.01037889229622
 20
-20.35176612208273
 11
-39.79768743446715
 21
-17.92069163474569
  0
LINE
  5
127
100
AcDbEntity
  8
sw
  6
ByLayer
 62
  256
370
   -1
100
AcDbLine
 10
-39.79768743446715
 20
-17.92069163474569
 11
-37.36661294713012
 21
-4.133383092574784
  0
LINE
  5
128
100
AcDbEntity
  8
sw
  6
ByLayer
 62
  256
370
   -1
100
AcDbLine
 10
-37.36661294713012
 20
-4.133383092574784
 11
-26.01037889229622
 21
-20.35176612208273
  0
LINE
  5
129
100
AcDbEntity
  8
sw
  6
ByLayer
 62
  256
370
   -1
100
AcDbLine
 10
-23.5793044049592
 20
-6.564457579911826
 11
-39.79768743446715
 21
-17.92069163474569
  0
LINE
  5
12A
100
AcDbEntity
  8
sw
  6
ByLayer
 62
  256
370
   -1
100
AcDbLine
 10
-56.07796025436208
 20
-0.8340677169031157
 11
-42.29065171219116
 21
-3.265142204240158
  0
LINE
  5
12B
100
AcDbEntity
  8
sw
  6
ByLayer
 62
  256
370
   -1
100
AcDbLine
 10
-42.29065171219116
 20
-3.265142204240158
 11
-44.72172619952818
 21
-17.05245074641106
  0
LINE
  5
12C
100
AcDbEntity
  8
sw
  6
ByLayer
 62
  256
370
   -1
100
AcDbLine
 10
-44.72172619952818
 20
-17.05245074641106
 11
-58.50903474169911
 21
-14.62137625907402
  0
LINE
  5
12D
100
AcDbEntity
  8
sw
  6
ByLayer
 62
  256
370
   -1
100
AcDbLine
 10
-58.50903474169911
 20
-14.62137625907402
 11
-56.07796025436208
 21
-0.8340677169031157
  0
LINE
  5
12E
100
AcDbEntity
  8
sw
  6
ByLayer
 62
  256
370
   -1
100
AcDbLine
 10
-56.07796025436208
 20
-0.8340677169031157
 11
-44.72172619952818
 21
-17.05245074641106
  0
LINE
  5
12F
100
AcDbEntity
  8
sw
  6
ByLayer
 62
  256
370
   -1
100
AcDbLine
 10
-42.29065171219116
 20
-3.265142204240158
 11
-58.50903474169911
 21
-14.62137625907402
  0
LINE
  5
130
100
AcDbEntity
  8
sw
  6
ByLayer
 62
  256
370
   -1
100
AcDbLine
 10
-74.78930756159404
 20
2.465247658768581
 11
-61.00199901942312
 21
0.03417317143153831
  0
LINE
  5
131
100
AcDbEntity
  8
sw
  6
ByLayer
 62
  256
370
   -1
100
AcDbLine
 10
-61.00199901942312
 20
0.03417317143153831
 11
-63.43307350676014
 21
-13.75313537073937
  0
LINE
  5
132
100
AcDbEntity
  8
sw
  6
ByLayer
 62
  256
370
   -1
100
AcDbLine
 10
-63.43307350676014
 20
-13.75313537073937
 11
-77.22038204893107
 21
-11.32206088340232
  0
LINE
  5
133
100
AcDbEntity
  8
sw
  6
ByLayer
 62
  256
370
   -1
100
AcDbLine
 10
-77.22038204893107
 20
-11.32206088340232
 11
-74.78930756159404
 21
2.465247658768581
  0
LINE
  5
134
100
AcDbEntity
  8
sw
  6
ByLayer
 62
  256
370
   -1
100
AcDbLine
 10
-74.78930756159404
 20
2.465247658768581
 11
-63.43307350676014
 21
-13.75313537073937
  0
LINE
  5
135
100
AcDbEntity
  8
sw
  6
ByLayer
 62
  256
370
   -1
100
AcDbLine
 10
-61.00199901942312
 20
0.03417317143153831
 11
-77.22038204893107
 21
-11.32206088340232
  0
LWPOLYLINE
  5
136
100
AcDbEntity
  8
sw
  6
ByLayer
 62
  256
370
   -1
100
AcDbPolyline
 90
    4
 70
    1
 43
0
 10
-105.0478801535732
 20
23.10085721787388
 10
-91.04788015357319
 20
23.10085721787388
 10
-91.04788015357319
 20
9.10085721787388
 10
-105.0478801535732
 20
9.10085721787388
  0
LINE
  5
137
100
AcDbEntity
  8
sw
  6
ByLayer
 62
  256
370
   -1
100
AcDbLine
 10
-105.0478801535732
 20
23.10085721787388
 11
-91.04788015357319
 21
9.10085721787388
  0
LINE
  5
138
100
AcDbEntity
  8
sw
  6
ByLayer
 62
  256
370
   -1
100
AcDbLine
 10
-91.04788015357319
 20
23.10085721787388
 11
-105.0478801535732
 21
9.10085721787388
  0
LWPOLYLINE
  5
139
100
AcDbEntity
  8
sw
  6
ByLayer
 62
  256
370
   -1
100
AcDbPolyline
 90
    4
 70
    1
 43
0
 10
-103.7415218756288
 20
3.443145804063632
 10
-89.74152187562882
 20
3.443145804063632
 10
-89.74152187562882
 20
-10.55685419593637
 10
-103.7415218756288
 20
-10.55685419593637
  0
LINE
  5
13A
100
AcDbEntity
  8
sw
  6
ByLayer
 62
  256
370
   -1
100
AcDbLine
 10
-103.7415218756288
 20
3.443145804063632
 11
-89.74152187562882
 21
-10.55685419593637
  0
LINE
  5
13B
100
AcDbEntity
  8
sw
  6
ByLayer
 62
  256
370
   -1
100
AcDbLine
 10
-89.74152187562882
 20
3.443145804063632
 11
-103.7415218756288
 21
-10.55685419593637
  0
CIRCLE
  5
13C
100
AcDbEntity
  8
percage
  6
ByLayer
 62
  256
370
   -1
100
AcDbCircle
 10
109.366521875629
 20
41.25856863168413
 40
1.2
  0
CIRCLE
  5
13D
100
AcDbEntity
  8
percage
  6
ByLayer
 62
  256
370
   -1
100
AcDbCircle
 10
79.53550590984892
 20
-24.20873835030275
 40
1.2
  0
CIRCLE
  5
13E
100
AcDbEntity
  8
percage
  6
ByLayer
 62
  256
370
   -1
100
AcDbCircle
 10
-79.49942432325277
 20
-23.7963239283438
 40
1.2
  0
CIRCLE
  5
13F
100
AcDbEntity
  8
percage
  6
ByLayer
 62
  256
370
   -1
100
AcDbCircle
 10
2.375000000000119
 20
-26.54722132445223
 40
1.2
  0
CIRCLE
  5
140
100
AcDbEntity
  8
percage
  6
ByLayer
 62
  256
370
   -1
100
AcDbCircle
 10
-109.3665218756289
 20
41.25856863168413
 40
1.2
  0
CIRCLE
  5
141
100
AcDbEntity
  8
percage
  6
ByLayer
 62
  256
370
   -1
100
AcDbCircle
 10
109.366521875629
 20
-41.25856863168418
 40
1.2
  0
CIRCLE
  5
142
100
AcDbEntity
  8
percage
  6
ByLayer
 62
  256
370
   -1
100
AcDbCircle
 10
-109.3665218756289
 20
-41.25856863168418
 40
1.2
  0
CIRCLE
  5
143
100
AcDbEntity
  8
percage
  6
ByLayer
 62
  256
370
   -1
100
AcDbCircle
 10
-27.24980341900733
 20
40.28466126973015
 40
1.2
  0
CIRCLE
  5
144
100
AcDbEntity
  8
percage
  6
ByLayer
 62
  256
370
   -1
100
AcDbCircle
 10
22.64412976539155
 20
38.6350035818943
 40
1.2
  0
LWPOLYLINE
  5
145
100
AcDbEntity
  8
r4-1
  6
ByLayer
 62
  256
370
   -1
100
AcDbPolyline
 90
    4
 70
    1
 43
0
 10
-50.67097946364466
 20
-37.83510903642292
 10
-8.570448022372773
 20
-45.25856863168419
 10
-5.271132646701091
 20
-26.54722132445224
 10
-47.37166408797298
 20
-19.12376172919097
  0
LWPOLYLINE
  5
146
100
AcDbEntity
  8
r4-1
  6
ByLayer
 62
  256
370
   -1
100
AcDbPolyline
 90
    4
 70
    1
 43
0
 10
-69.38232677087663
 20
-34.53579366075123
 10
-50.67097946364467
 20
-37.83510903642291
 10
-47.371664087973
 20
-19.12376172919095
 10
-66.08301139520495
 20
-15.82444635351928
  0
LWPOLYLINE
  5
147
100
AcDbEntity
  8
r4-1
  6
ByLayer
 62
  256
370
   -1
100
AcDbPolyline
 90
    4
 70
    1
 43
0
 10
-113.3665218756289
 20
-13.05685419593637
 10
-89.61652187562891
 20
-13.05685419593637
 10
-89.61652187562891
 20
-32.05685419593637
 10
-113.3665218756289
 20
-32.05685419593637
  0
LWPOLYLINE
  5
148
100
AcDbEntity
  8
r4-1
  6
ByLayer
 62
  256
370
   -1
100
AcDbPolyline
 90
    4
 70
    1
 43
0
 10
113.366521875629
 20
-13.05685419593635
 10
89.61652187562899
 20
-13.05685419593635
 10
89.61652187562899
 20
-32.05685419593634
 10
113.366521875629
 20
-32.05685419593634
  0
LWPOLYLINE
  5
149
100
AcDbEntity
  8
r4-1
  6
ByLayer
 62
  256
370
   -1
100
AcDbPolyline
 90
    4
 70
    1
 43
0
 10
13.32044802237301
 20
-45.25856863168418
 10
50.74314263683689
 20
-38.65993788034083
 10
47.44382726116524
 20
-19.94859057310887
 10
10.02113264670133
 20
-26.54722132445222
  0
LWPOLYLINE
  5
14A
100
AcDbEntity
  8
r4-1
  6
ByLayer
 62
  256
370
   -1
100
AcDbPolyline
 90
    4
 70
    1
 43
0
 10
69.45448994406885
 20
-35.36062250466914
 10
50.74314263683689
 20
-38.65993788034084
 10
47.44382726116524
 20
-19.94859057310888
 10
66.1551745683972
 20
-16.64927519743721
  0
LINE
  5
14B
100
AcDbEntity
  8
r4-1
  6
ByLayer
 62
  256
370
   -1
100
AcDbLine
 10
94.49152187562902
 20
-15.55685419593634
 11
108.491521875629
 21
-29.55685419593634
  0
LINE
  5
14C
100
AcDbEntity
  8
r4-1
  6
ByLayer
 62
  256
370
   -1
100
AcDbLine
 10
108.491521875629
 20
-29.55685419593634
 11
108.491521875629
 21
-15.55685419593634
  0
LINE
  5
14D
100
AcDbEntity
  8
r4-1
  6
ByLayer
 62
  256
370
   -1
100
AcDbLine
 10
108.491521875629
 20
-15.55685419593634
 11
94.49152187562902
 21
-29.55685419593634
  0
LINE
  5
14E
100
AcDbEntity
  8
r4-1
  6
ByLayer
 62
  256
370
   -1
100
AcDbLine
 10
94.49152187562902
 20
-29.55685419593634
 11
94.49152187562902
 21
-15.55685419593634
  0
LINE
  5
14F
100
AcDbEntity
  8
r4-1
  6
ByLayer
 62
  256
370
   -1
100
AcDbLine
 10
94.49152187562902
 20
-15.55685419593634
 11
108.491521875629
 21
-15.55685419593634
  0
LINE
  5
150
100
AcDbEntity
  8
r4-1
  6
ByLayer
 62
  256
370
   -1
100
AcDbLine
 10
94.49152187562902
 20
-29.55685419593634
 11
108.491521875629
 21
-29.55685419593635
  0
LINE
  5
151
100
AcDbEntity
  8
r4-1
  6
ByLayer
 62
  256
370
   -1
100
AcDbLine
 10
22.27294612701518
 20
-26.92546257497963
 11
36.06025466918611
 21
-24.49438808764258
  0
LINE
  5
152
100
AcDbEntity
  8
r4-1
  6
ByLayer
 62
  256
370
   -1
100
AcDbLine
 10
36.06025466918611
 20
-24.49438808764258
 11
38.49132915652316
 21
-38.28169662981352
  0
LINE
  5
153
100
AcDbEntity
  8
r4-1
  6
ByLayer
 62
  256
370
   -1
100
AcDbLine
 10
38.49132915652316
 20
-38.28169662981352
 11
24.70402061435221
 21
-40.71277111715056
  0
LINE
  5
154
100
AcDbEntity
  8
r4-1
  6
ByLayer
 62
  256
370
   -1
100
AcDbLine
 10
24.70402061435221
 20
-40.71277111715056
 11
22.27294612701518
 21
-26.92546257497963
  0
LINE
  5
155
100
AcDbEntity
  8
r4-1
  6
ByLayer
 62
  256
370
   -1
100
AcDbLine
 10
22.27294612701512
 20
-26.92546257497958
 11
38.4913291565231
 21
-38.28169662981347
  0
LINE
  5
156
100
AcDbEntity
  8
r4-1
  6
ByLayer
 62
  256
370
   -1
100
AcDbLine
 10
36.06025466918603
 20
-24.49438808764254
 11
24.70402061435214
 21
-40.71277111715052
  0
LINE
  5
157
100
AcDbEntity
  8
r4-1
  6
ByLayer
 62
  256
370
   -1
100
AcDbLine
 10
50.33996708786312
 20
-21.97648951147212
 11
64.12727563003406
 21
-19.54541502413508
  0
LINE
  5
158
100
AcDbEntity
  8
r4-1
  6
ByLayer
 62
  256
370
   -1
100
AcDbLine
 10
64.12727563003406
 20
-19.54541502413508
 11
66.55835011737111
 21
-33.33272356630602
  0
LINE
  5
159
100
AcDbEntity
  8
r4-1
  6
ByLayer
 62
  256
370
   -1
100
AcDbLine
 10
66.55835011737111
 20
-33.33272356630602
 11
52.77104157520015
 21
-35.76379805364306
  0
LINE
  5
15A
100
AcDbEntity
  8
r4-1
  6
ByLayer
 62
  256
370
   -1
100
AcDbLine
 10
52.77104157520015
 20
-35.76379805364306
 11
50.33996708786312
 21
-21.97648951147212
  0
LINE
  5
15B
100
AcDbEntity
  8
r4-1
  6
ByLayer
 62
  256
370
   -1
100
AcDbLine
 10
50.33996708786307
 20
-21.97648951147208
 11
66.55835011737105
 21
-33.33272356630597
  0
LINE
  5
15C
100
AcDbEntity
  8
r4-1
  6
ByLayer
 62
  256
370
   -1
100
AcDbLine
 10
64.12727563003398
 20
-19.54541502413504
 11
52.77104157520008
 21
-35.76379805364301
  0
LINE
  5
15D
100
AcDbEntity
  8
r4-1
  6
ByLayer
 62
  256
370
   -1
100
AcDbLine
 10
-33.64917308258983
 20
-24.0819736656836
 11
-19.86186454041891
 21
-26.51304815302064
  0
LINE
  5
15E
100
AcDbEntity
  8
r4-1
  6
ByLayer
 62
  256
370
   -1
100
AcDbLine
 10
-19.86186454041891
 20
-26.51304815302064
 11
-22.29293902775592
 21
-40.30035669519155
  0
LINE
  5
15F
100
AcDbEntity
  8
r4-1
  6
ByLayer
 62
  256
370
   -1
100
AcDbLine
 10
-22.29293902775592
 20
-40.30035669519155
 11
-36.08024756992685
 21
-37.8692822078545
  0
LINE
  5
160
100
AcDbEntity
  8
r4-1
  6
ByLayer
 62
  256
370
   -1
100
AcDbLine
 10
-36.08024756992685
 20
-37.8692822078545
 11
-33.64917308258983
 21
-24.0819736656836
  0
LINE
  5
161
100
AcDbEntity
  8
r4-1
  6
ByLayer
 62
  256
370
   -1
100
AcDbLine
 10
-33.64917308258983
 20
-24.0819736656836
 11
-22.29293902775592
 21
-40.30035669519155
  0
LINE
  5
162
100
AcDbEntity
  8
r4-1
  6
ByLayer
 62
  256
370
   -1
100
AcDbLine
 10
-19.86186454041891
 20
-26.51304815302064
 11
-36.08024756992685
 21
-37.8692822078545
  0
LINE
  5
163
100
AcDbEntity
  8
r4-1
  6
ByLayer
 62
  256
370
   -1
100
AcDbLine
 10
-64.05511245684175
 20
-18.72058618021712
 11
-50.26780391467084
 21
-21.15166066755416
  0
LINE
  5
164
100
AcDbEntity
  8
r4-1
  6
ByLayer
 62
  256
370
   -1
100
AcDbLine
 10
-50.26780391467084
 20
-21.15166066755416
 11
-52.69887840200785
 21
-34.93896920972507
  0
LINE
  5
165
100
AcDbEntity
  8
r4-1
  6
ByLayer
 62
  256
370
   -1
100
AcDbLine
 10
-52.69887840200785
 20
-34.93896920972507
 11
-66.48618694417878
 21
-32.50789472238802
  0
LINE
  5
166
100
AcDbEntity
  8
r4-1
  6
ByLayer
 62
  256
370
   -1
100
AcDbLine
 10
-66.48618694417878
 20
-32.50789472238802
 11
-64.05511245684175
 21
-18.72058618021712
  0
LINE
  5
167
100
AcDbEntity
  8
r4-1
  6
ByLayer
 62
  256
370
   -1
100
AcDbLine
 10
-64.05511245684175
 20
-18.72058618021712
 11
-52.69887840200785
 21
-34.93896920972507
  0
LINE
  5
168
100
AcDbEntity
  8
r4-1
  6
ByLayer
 62
  256
370
   -1
100
AcDbLine
 10
-50.26780391467084
 20
-21.15166066755416
 11
-66.48618694417878
 21
-32.50789472238802
  0
LWPOLYLINE
  5
169
100
AcDbEntity
  8
r4-1
  6
ByLayer
 62
  256
370
   -1
100
AcDbPolyline
 90
    4
 70
    1
 43
0
 10
-108.4915218756289
 20
-15.55685419593637
 10
-94.49152187562889
 20
-15.55685419593637
 10
-94.49152187562889
 20
-29.55685419593637
 10
-108.4915218756289
 20
-29.55685419593637
  0
LINE
  5
16A
100
AcDbEntity
  8
r4-1
  6
ByLayer
 62
  256
370
   -1
100
AcDbLine
 10
-108.4915218756289
 20
-15.55685419593637
 11
-94.49152187562889
 21
-29.55685419593637
  0
LINE
  5
16B
100
AcDbEntity
  8
r4-1
  6
ByLayer
 62
  256
370
   -1
100
AcDbLine
 10
-94.49152187562889
 20
-15.55685419593637
 11
-108.4915218756289
 21
-29.55685419593637
  0
LWPOLYLINE
  5
16C
100
AcDbEntity
  8
r4-2
  6
ByLayer
 62
  256
370
   -1
100
AcDbPolyline
 90
    4
 70
    1
 43
0
 10
13.32044802237301
 20
-45.25856863168418
 10
46.0653058100289
 20
-39.48476672425875
 10
42.76599043435722
 20
-20.77341941702679
 10
10.02113264670133
 20
-26.54722132445222
  0
LWPOLYLINE
  5
16D
100
AcDbEntity
  8
r4-2
  6
ByLayer
 62
  256
370
   -1
100
AcDbPolyline
 90
    4
 70
    1
 43
0
 10
46.06530581002888
 20
-39.48476672425875
 10
69.4544899440688
 20
-35.36062250466917
 10
66.15517456839711
 20
-16.64927519743721
 10
42.76599043435721
 20
-20.7734194170268
  0
LWPOLYLINE
  5
16E
100
AcDbEntity
  8
r4-2
  6
ByLayer
 62
  256
370
   -1
100
AcDbPolyline
 90
    4
 70
    1
 43
0
 10
89.61652187562902
 20
-32.05685419593635
 10
113.366521875629
 20
-32.05685419593635
 10
113.366521875629
 20
-13.05685419593635
 10
89.61652187562902
 20
-13.05685419593635
  0
LWPOLYLINE
  5
16F
100
AcDbEntity
  8
r4-2
  6
ByLayer
 62
  256
370
   -1
100
AcDbPolyline
 90
    4
 70
    1
 43
0
 10
-113.3665218756289
 20
-32.05685419593637
 10
-89.61652187562892
 20
-32.05685419593637
 10
-89.61652187562892
 20
-13.05685419593637
 10
-113.3665218756289
 20
-13.05685419593637
  0
LWPOLYLINE
  5
170
100
AcDbEntity
  8
r4-2
  6
ByLayer
 62
  256
370
   -1
100
AcDbPolyline
 90
    4
 70
    1
 43
0
 10
-41.31530581002865
 20
-39.48476672425876
 10
-8.570448022372766
 20
-45.25856863168419
 10
-5.271132646701091
 20
-26.54722132445224
 10
-38.01599043435698
 20
-20.77341941702681
  0
LWPOLYLINE
  5
171
100
AcDbEntity
  8
r4-2
  6
ByLayer
 62
  256
370
   -1
100
AcDbPolyline
 90
    4
 70
    1
 43
0
 10
-69.38232677087656
 20
-34.53579366075126
 10
-41.31530581002866
 20
-39.48476672425877
 10
-38.01599043435699
 20
-20.77341941702682
 10
-66.08301139520488
 20
-15.82444635351931
  0
LWPOLYLINE
  5
172
100
AcDbEntity
  8
r4-2
  6
ByLayer
 62
  256
370
   -1
100
AcDbPolyline
 90
    4
 70
    1
 43
0
 10
-108.4915218756289
 20
-15.55685419593637
 10
-94.49152187562891
 20
-15.55685419593637
 10
-94.49152187562891
 20
-29.55685419593637
 10
-108.4915218756289
 20
-29.55685419593637
  0
LINE
  5
173
100
AcDbEntity
  8
r4-2
  6
ByLayer
 62
  256
370
   -1
100
AcDbLine
 10
-108.4915218756289
 20
-15.55685419593637
 11
-94.49152187562891
 21
-29.55685419593637
  0
LINE
  5
174
100
AcDbEntity
  8
r4-2
  6
ByLayer
 62
  256
370
   -1
100
AcDbLine
 10
-94.49152187562891
 20
-15.55685419593637
 11
-108.4915218756289
 21
-29.55685419593637
  0
LINE
  5
175
100
AcDbEntity
  8
r4-2
  6
ByLayer
 62
  256
370
   -1
100
AcDbLine
 10
-59.37727563003372
 20
-19.54541502413507
 11
-45.5899670878628
 21
-21.97648951147211
  0
LINE
  5
176
100
AcDbEntity
  8
r4-2
  6
ByLayer
 62
  256
370
   -1
100
AcDbLine
 10
-45.5899670878628
 20
-21.97648951147211
 11
-48.02104157519982
 21
-35.76379805364301
  0
LINE
  5
177
100
AcDbEntity
  8
r4-2
  6
ByLayer
 62
  256
370
   -1
100
AcDbLine
 10
-48.02104157519982
 20
-35.76379805364301
 11
-61.80835011737075
 21
-33.33272356630597
  0
LINE
  5
178
100
AcDbEntity
  8
r4-2
  6
ByLayer
 62
  256
370
   -1
100
AcDbLine
 10
-61.80835011737075
 20
-33.33272356630597
 11
-59.37727563003372
 21
-19.54541502413507
  0
LINE
  5
179
100
AcDbEntity
  8
r4-2
  6
ByLayer
 62
  256
370
   -1
100
AcDbLine
 10
-59.37727563003372
 20
-19.54541502413507
 11
-48.02104157519982
 21
-35.76379805364301
  0
LINE
  5
17A
100
AcDbEntity
  8
r4-2
  6
ByLayer
 62
  256
370
   -1
100
AcDbLine
 10
-45.5899670878628
 20
-21.97648951147211
 11
-61.80835011737075
 21
-33.33272356630597
  0
LINE
  5
17B
100
AcDbEntity
  8
r4-2
  6
ByLayer
 62
  256
370
   -1
100
AcDbLine
 10
-28.97133625578182
 20
-24.90680250960153
 11
-15.1840277136109
 21
-27.33787699693857
  0
LINE
  5
17C
100
AcDbEntity
  8
r4-2
  6
ByLayer
 62
  256
370
   -1
100
AcDbLine
 10
-15.1840277136109
 20
-27.33787699693857
 11
-17.61510220094792
 21
-41.12518553910947
  0
LINE
  5
17D
100
AcDbEntity
  8
r4-2
  6
ByLayer
 62
  256
370
   -1
100
AcDbLine
 10
-17.61510220094792
 20
-41.12518553910947
 11
-31.40241074311885
 21
-38.69411105177243
  0
LINE
  5
17E
100
AcDbEntity
  8
r4-2
  6
ByLayer
 62
  256
370
   -1
100
AcDbLine
 10
-31.40241074311885
 20
-38.69411105177243
 11
-28.97133625578182
 21
-24.90680250960153
  0
LINE
  5
17F
100
AcDbEntity
  8
r4-2
  6
ByLayer
 62
  256
370
   -1
100
AcDbLine
 10
-28.97133625578182
 20
-24.90680250960153
 11
-17.61510220094792
 21
-41.12518553910947
  0
LINE
  5
180
100
AcDbEntity
  8
r4-2
  6
ByLayer
 62
  256
370
   -1
100
AcDbLine
 10
-15.1840277136109
 20
-27.33787699693857
 11
-31.40241074311885
 21
-38.69411105177243
  0
LINE
  5
181
100
AcDbEntity
  8
r4-2
  6
ByLayer
 62
  256
370
   -1
100
AcDbLine
 10
19.93402771361118
 20
-27.33787699693858
 11
33.72133625578212
 21
-24.90680250960154
  0
LINE
  5
182
100
AcDbEntity
  8
r4-2
  6
ByLayer
 62
  256
370
   -1
100
AcDbLine
 10
33.72133625578212
 20
-24.90680250960154
 11
36.15241074311916
 21
-38.69411105177248
  0
LINE
  5
183
100
AcDbEntity
  8
r4-2
  6
ByLayer
 62
  256
370
   -1
100
AcDbLine
 10
36.15241074311916
 20
-38.69411105177248
 11
22.36510220094821
 21
-41.12518553910952
  0
LINE
  5
184
100
AcDbEntity
  8
r4-2
  6
ByLayer
 62
  256
370
   -1
100
AcDbLine
 10
22.36510220094821
 20
-41.12518553910952
 11
19.93402771361118
 21
-27.33787699693858
  0
LINE
  5
185
100
AcDbEntity
  8
r4-2
  6
ByLayer
 62
  256
370
   -1
100
AcDbLine
 10
19.93402771361113
 20
-27.33787699693854
 11
36.15241074311911
 21
-38.69411105177244
  0
LINE
  5
186
100
AcDbEntity
  8
r4-2
  6
ByLayer
 62
  256
370
   -1
100
AcDbLine
 10
33.72133625578203
 20
-24.9068025096015
 11
22.36510220094814
 21
-41.12518553910948
  0
LINE
  5
187
100
AcDbEntity
  8
r4-2
  6
ByLayer
 62
  256
370
   -1
100
AcDbLine
 10
48.0010486744591
 20
-22.38890393343107
 11
61.78835721663004
 21
-19.95782944609403
  0
LINE
  5
188
100
AcDbEntity
  8
r4-2
  6
ByLayer
 62
  256
370
   -1
100
AcDbLine
 10
61.78835721663004
 20
-19.95782944609403
 11
64.21943170396708
 21
-33.74513798826497
  0
LINE
  5
189
100
AcDbEntity
  8
r4-2
  6
ByLayer
 62
  256
370
   -1
100
AcDbLine
 10
64.21943170396708
 20
-33.74513798826497
 11
50.43212316179613
 21
-36.17621247560201
  0
LINE
  5
18A
100
AcDbEntity
  8
r4-2
  6
ByLayer
 62
  256
370
   -1
100
AcDbLine
 10
50.43212316179613
 20
-36.17621247560201
 11
48.0010486744591
 21
-22.38890393343107
  0
LINE
  5
18B
100
AcDbEntity
  8
r4-2
  6
ByLayer
 62
  256
370
   -1
100
AcDbLine
 10
48.00104867445904
 20
-22.38890393343103
 11
64.21943170396702
 21
-33.74513798826493
  0
LINE
  5
18C
100
AcDbEntity
  8
r4-2
  6
ByLayer
 62
  256
370
   -1
100
AcDbLine
 10
61.78835721662995
 20
-19.95782944609399
 11
50.43212316179606
 21
-36.17621247560197
  0
LINE
  5
18D
100
AcDbEntity
  8
r4-2
  6
ByLayer
 62
  256
370
   -1
100
AcDbLine
 10
94.491521875629
 20
-15.55685419593635
 11
108.491521875629
 21
-29.55685419593635
  0
LINE
  5
18E
100
AcDbEntity
  8
r4-2
  6
ByLayer
 62
  256
370
   -1
100
AcDbLine
 10
108.491521875629
 20
-29.55685419593635
 11
108.491521875629
 21
-15.55685419593635
  0
LINE
  5
18F
100
AcDbEntity
  8
r4-2
  6
ByLayer
 62
  256
370
   -1
100
AcDbLine
 10
108.491521875629
 20
-15.55685419593635
 11
94.491521875629
 21
-29.55685419593635
  0
LINE
  5
190
100
AcDbEntity
  8
r4-2
  6
ByLayer
 62
  256
370
   -1
100
AcDbLine
 10
94.491521875629
 20
-29.55685419593635
 11
94.491521875629
 21
-15.55685419593635
  0
LINE
  5
191
100
AcDbEntity
  8
r4-2
  6
ByLayer
 62
  256
370
   -1
100
AcDbLine
 10
94.491521875629
 20
-15.55685419593635
 11
108.491521875629
 21
-15.55685419593635
  0
LINE
  5
192
100
AcDbEntity
  8
r4-2
  6
ByLayer
 62
  256
370
   -1
100
AcDbLine
 10
94.491521875629
 20
-29.55685419593635
 11
108.491521875629
 21
-29.55685419593636
  0
LWPOLYLINE
  5
193
100
AcDbEntity
  8
r4-3
  6
ByLayer
 62
  256
370
   -1
100
AcDbPolyline
 90
    4
 70
    1
 43
0
 10
13.32044802237304
 20
-45.25856863168417
 10
50.74314263683691
 20
-38.65993788034083
 10
47.44382726116524
 20
-19.94859057310887
 10
10.02113264670136
 20
-26.54722132445222
  0
LWPOLYLINE
  5
194
100
AcDbEntity
  8
r4-3
  6
ByLayer
 62
  256
370
   -1
100
AcDbPolyline
 90
    4
 70
    1
 43
0
 10
50.74314263683691
 20
-38.65993788034083
 10
74.13232677087683
 20
-34.53579366075124
 10
70.83301139520515
 20
-15.82444635351928
 10
47.44382726116524
 20
-19.94859057310887
  0
LWPOLYLINE
  5
195
100
AcDbEntity
  8
r4-3
  6
ByLayer
 62
  256
370
   -1
100
AcDbPolyline
 90
    4
 70
    1
 43
0
 10
87.241521875629
 20
-32.05685419593635
 10
110.991521875629
 20
-32.05685419593635
 10
110.991521875629
 20
-13.05685419593635
 10
87.241521875629
 20
-13.05685419593635
  0
LWPOLYLINE
  5
196
100
AcDbEntity
  8
r4-3
  6
ByLayer
 62
  256
370
   -1
100
AcDbPolyline
 90
    4
 70
    1
 43
0
 10
-108.6165218756288
 20
-32.05685419593637
 10
-84.86652187562885
 20
-32.05685419593637
 10
-84.86652187562885
 20
-13.05685419593637
 10
-108.6165218756288
 20
-13.05685419593637
  0
LWPOLYLINE
  5
197
100
AcDbEntity
  8
r4-3
  6
ByLayer
 62
  256
370
   -1
100
AcDbPolyline
 90
    4
 70
    1
 43
0
 10
-50.67097946364462
 20
-37.83510903642293
 10
-8.570448022372766
 20
-45.25856863168419
 10
-5.271132646701091
 20
-26.54722132445224
 10
-47.37166408797295
 20
-19.12376172919097
  0
LWPOLYLINE
  5
198
100
AcDbEntity
  8
r4-3
  6
ByLayer
 62
  256
370
   -1
100
AcDbPolyline
 90
    4
 70
    1
 43
0
 10
-74.06016359768455
 20
-33.71096481683333
 10
-50.67097946364463
 20
-37.83510903642291
 10
-47.37166408797295
 20
-19.12376172919096
 10
-70.76084822201287
 20
-14.99961750960137
  0
LWPOLYLINE
  5
199
100
AcDbEntity
  8
r4-3
  6
ByLayer
 62
  256
370
   -1
100
AcDbPolyline
 90
    4
 70
    1
 43
0
 10
-103.7415218756288
 20
-15.55685419593637
 10
-89.74152187562883
 20
-15.55685419593637
 10
-89.74152187562883
 20
-29.55685419593637
 10
-103.7415218756288
 20
-29.55685419593637
  0
LINE
  5
19A
100
AcDbEntity
  8
r4-3
  6
ByLayer
 62
  256
370
   -1
100
AcDbLine
 10
-103.7415218756288
 20
-15.55685419593637
 11
-89.74152187562883
 21
-29.55685419593637
  0
LINE
  5
19B
100
AcDbEntity
  8
r4-3
  6
ByLayer
 62
  256
370
   -1
100
AcDbLine
 10
-89.74152187562883
 20
-15.55685419593637
 11
-103.7415218756288
 21
-29.55685419593637
  0
LWPOLYLINE
  5
19C
100
AcDbEntity
  8
r4-3
  6
ByLayer
 62
  256
370
   -1
100
AcDbPolyline
 90
    4
 70
    1
 43
0
 10
92.116521875629
 20
-15.55685419593635
 10
106.116521875629
 20
-15.55685419593635
 10
106.116521875629
 20
-29.55685419593635
 10
92.116521875629
 20
-29.55685419593635
  0
LINE
  5
19D
100
AcDbEntity
  8
r4-3
  6
ByLayer
 62
  256
370
   -1
100
AcDbLine
 10
92.116521875629
 20
-15.55685419593635
 11
106.116521875629
 21
-29.55685419593635
  0
LINE
  5
19E
100
AcDbEntity
  8
r4-3
  6
ByLayer
 62
  256
370
   -1
100
AcDbLine
 10
106.116521875629
 20
-15.55685419593635
 11
92.116521875629
 21
-29.55685419593635
  0
LINE
  5
19F
100
AcDbEntity
  8
r4-3
  6
ByLayer
 62
  256
370
   -1
100
AcDbLine
 10
22.27294612701519
 20
-26.92546257497963
 11
36.06025466918612
 21
-24.49438808764258
  0
LINE
  5
1A0
100
AcDbEntity
  8
r4-3
  6
ByLayer
 62
  256
370
   -1
100
AcDbLine
 10
36.06025466918612
 20
-24.49438808764258
 11
38.49132915652316
 21
-38.28169662981352
  0
LINE
  5
1A1
100
AcDbEntity
  8
r4-3
  6
ByLayer
 62
  256
370
   -1
100
AcDbLine
 10
38.49132915652316
 20
-38.28169662981352
 11
24.70402061435221
 21
-40.71277111715056
  0
LINE
  5
1A2
100
AcDbEntity
  8
r4-3
  6
ByLayer
 62
  256
370
   -1
100
AcDbLine
 10
24.70402061435221
 20
-40.71277111715056
 11
22.27294612701519
 21
-26.92546257497963
  0
LINE
  5
1A3
100
AcDbEntity
  8
r4-3
  6
ByLayer
 62
  256
370
   -1
100
AcDbLine
 10
22.27294612701513
 20
-26.92546257497958
 11
38.49132915652311
 21
-38.28169662981348
  0
LINE
  5
1A4
100
AcDbEntity
  8
r4-3
  6
ByLayer
 62
  256
370
   -1
100
AcDbLine
 10
36.06025466918604
 20
-24.49438808764254
 11
24.70402061435214
 21
-40.71277111715052
  0
LINE
  5
1A5
100
AcDbEntity
  8
r4-3
  6
ByLayer
 62
  256
370
   -1
100
AcDbLine
 10
52.6788855012671
 20
-21.56407508951315
 11
66.46619404343804
 21
-19.13300060217611
  0
LINE
  5
1A6
100
AcDbEntity
  8
r4-3
  6
ByLayer
 62
  256
370
   -1
100
AcDbLine
 10
66.46619404343804
 20
-19.13300060217611
 11
68.89726853077508
 21
-32.92030914434704
  0
LINE
  5
1A7
100
AcDbEntity
  8
r4-3
  6
ByLayer
 62
  256
370
   -1
100
AcDbLine
 10
68.89726853077508
 20
-32.92030914434704
 11
55.10995998860413
 21
-35.35138363168409
  0
LINE
  5
1A8
100
AcDbEntity
  8
r4-3
  6
ByLayer
 62
  256
370
   -1
100
AcDbLine
 10
55.10995998860413
 20
-35.35138363168409
 11
52.6788855012671
 21
-21.56407508951315
  0
LINE
  5
1A9
100
AcDbEntity
  8
r4-3
  6
ByLayer
 62
  256
370
   -1
100
AcDbLine
 10
52.67888550126705
 20
-21.56407508951311
 11
68.89726853077502
 21
-32.920309144347
  0
LINE
  5
1AA
100
AcDbEntity
  8
r4-3
  6
ByLayer
 62
  256
370
   -1
100
AcDbLine
 10
66.46619404343795
 20
-19.13300060217607
 11
55.10995998860406
 21
-35.35138363168404
  0
LINE
  5
1AB
100
AcDbEntity
  8
r4-3
  6
ByLayer
 62
  256
370
   -1
100
AcDbLine
 10
-33.6491730825898
 20
-24.08197366568361
 11
-19.86186454041889
 21
-26.51304815302065
  0
LINE
  5
1AC
100
AcDbEntity
  8
r4-3
  6
ByLayer
 62
  256
370
   -1
100
AcDbLine
 10
-19.86186454041889
 20
-26.51304815302065
 11
-22.2929390277559
 21
-40.30035669519155
  0
LINE
  5
1AD
100
AcDbEntity
  8
r4-3
  6
ByLayer
 62
  256
370
   -1
100
AcDbLine
 10
-22.2929390277559
 20
-40.30035669519155
 11
-36.08024756992683
 21
-37.86928220785451
  0
LINE
  5
1AE
100
AcDbEntity
  8
r4-3
  6
ByLayer
 62
  256
370
   -1
100
AcDbLine
 10
-36.08024756992683
 20
-37.86928220785451
 11
-33.6491730825898
 21
-24.08197366568361
  0
LINE
  5
1AF
100
AcDbEntity
  8
r4-3
  6
ByLayer
 62
  256
370
   -1
100
AcDbLine
 10
-33.6491730825898
 20
-24.08197366568361
 11
-22.2929390277559
 21
-40.30035669519155
  0
LINE
  5
1B0
100
AcDbEntity
  8
r4-3
  6
ByLayer
 62
  256
370
   -1
100
AcDbLine
 10
-19.86186454041889
 20
-26.51304815302065
 11
-36.08024756992683
 21
-37.86928220785451
  0
LINE
  5
1B1
100
AcDbEntity
  8
r4-3
  6
ByLayer
 62
  256
370
   -1
100
AcDbLine
 10
-66.3940308702457
 20
-18.30817175825818
 11
-52.60672232807478
 21
-20.73924624559522
  0
LINE
  5
1B2
100
AcDbEntity
  8
r4-3
  6
ByLayer
 62
  256
370
   -1
100
AcDbLine
 10
-52.60672232807478
 20
-20.73924624559522
 11
-55.0377968154118
 21
-34.52655478776612
  0
LINE
  5
1B3
100
AcDbEntity
  8
r4-3
  6
ByLayer
 62
  256
370
   -1
100
AcDbLine
 10
-55.0377968154118
 20
-34.52655478776612
 11
-68.82510535758273
 21
-32.09548030042908
  0
LINE
  5
1B4
100
AcDbEntity
  8
r4-3
  6
ByLayer
 62
  256
370
   -1
100
AcDbLine
 10
-68.82510535758273
 20
-32.09548030042908
 11
-66.3940308702457
 21
-18.30817175825818
  0
LINE
  5
1B5
100
AcDbEntity
  8
r4-3
  6
ByLayer
 62
  256
370
   -1
100
AcDbLine
 10
-66.3940308702457
 20
-18.30817175825818
 11
-55.0377968154118
 21
-34.52655478776612
  0
LINE
  5
1B6
100
AcDbEntity
  8
r4-3
  6
ByLayer
 62
  256
370
   -1
100
AcDbLine
 10
-52.60672232807478
 20
-20.73924624559522
 11
-68.82510535758273
 21
-32.09548030042908
  0
ARC
  5
1B7
100
AcDbEntity
  8
edge
  6
ByLayer
 62
  256
370
   -1
100
AcDbCircle
 10
39.616521875629
 20
44.00856863168413
 40
0.75
100
AcDbArc
 50
270.0000000000032
 51
5.343331864858708e-13
  0
LINE
  5
1B8
100
AcDbEntity
  8
edge
  6
ByLayer
 62
  256
370
   -1
100
AcDbLine
 10
41.116521875629
 20
45.25856863168413
 11
109.366521875629
 21
45.25856863168413
  0
LINE
  5
1B9
100
AcDbEntity
  8
edge
  6
ByLayer
 62
  256
370
   -1
100
AcDbLine
 10
40.366521875629
 20
44.00856863168413
 11
40.366521875629
 21
44.50856863168413
  0
ARC
  5
1BA
100
AcDbEntity
  8
edge
  6
ByLayer
 62
  256
370
   -1
100
AcDbCircle
 10
41.116521875629
 20
44.50856863168413
 40
0.75
100
AcDbArc
 50
90
 51
180
  0
LINE
  5
1BB
100
AcDbEntity
  8
edge
  6
ByLayer
 62
  256
370
   -1
100
AcDbLine
 10
37.11652187562902
 20
43.25856863168413
 11
39.61652187562905
 21
43.25856863168413
  0
ARC
  5
1BC
100
AcDbEntity
  8
edge
  6
ByLayer
 62
  256
370
   -1
100
AcDbCircle
 10
37.116521875629
 20
44.00856863168413
 40
0.75
100
AcDbArc
 50
179.9999999999995
 51
270.0000000000011
  0
LINE
  5
1BD
100
AcDbEntity
  8
edge
  6
ByLayer
 62
  256
370
   -1
100
AcDbLine
 10
36.366521875629
 20
44.00856863168413
 11
36.366521875629
 21
44.50856863168413
  0
ARC
  5
1BE
100
AcDbEntity
  8
edge
  6
ByLayer
 62
  256
370
   -1
100
AcDbCircle
 10
35.616521875629
 20
44.50856863168413
 40
0.75
100
AcDbArc
 50
0
 51
90
  0
LINE
  5
1BF
100
AcDbEntity
  8
edge
  6
ByLayer
 62
  256
370
   -1
100
AcDbLine
 10
-35.61652187562891
 20
45.25856863168413
 11
35.616521875629
 21
45.25856863168413
  0
ARC
  5
1C0
100
AcDbEntity
  8
edge
  6
ByLayer
 62
  256
370
   -1
100
AcDbCircle
 10
-35.61652187562891
 20
44.50856863168413
 40
0.75
100
AcDbArc
 50
90
 51
180
  0
LINE
  5
1C1
100
AcDbEntity
  8
edge
  6
ByLayer
 62
  256
370
   -1
100
AcDbLine
 10
-36.36652187562891
 20
44.50856863168413
 11
-36.36652187562891
 21
44.00856863168413
  0
ARC
  5
1C2
100
AcDbEntity
  8
edge
  6
ByLayer
 62
  256
370
   -1
100
AcDbCircle
 10
-37.11652187562891
 20
44.00856863168413
 40
0.75
100
AcDbArc
 50
270
 51
0
  0
LINE
  5
1C3
100
AcDbEntity
  8
edge
  6
ByLayer
 62
  256
370
   -1
100
AcDbLine
 10
-39.61652187562891
 20
43.25856863168413
 11
-37.11652187562891
 21
43.25856863168413
  0
ARC
  5
1C4
100
AcDbEntity
  8
edge
  6
ByLayer
 62
  256
370
   -1
100
AcDbCircle
 10
-39.61652187562891
 20
44.00856863168413
 40
0.75
100
AcDbArc
 50
180
 51
270
  0
LINE
  5
1C5
100
AcDbEntity
  8
edge
  6
ByLayer
 62
  256
370
   -1
100
AcDbLine
 10
-40.36652187562891
 20
44.50856863168413
 11
-40.36652187562891
 21
44.00856863168413
  0
LINE
  5
1C6
100
AcDbEntity
  8
edge
  6
ByLayer
 62
  256
370
   -1
100
AcDbLine
 10
-109.3665218756289
 20
45.25856863168413
 11
-41.11652187562891
 21
45.25856863168413
  0
ARC
  5
1C7
100
AcDbEntity
  8
edge
  6
ByLayer
 62
  256
370
   -1
100
AcDbCircle
 10
-41.11652187562891
 20
44.50856863168413
 40
0.75
100
AcDbArc
 50
0
 51
90
  0
LINE
  5
1C8
100
AcDbEntity
  8
edge
  6
ByLayer
 62
  256
370
   -1
100
AcDbLine
 10
-109.3665218756289
 20
-45.25856863168418
 11
-91.11652187562891
 21
-45.25856863168418
  0
ARC
  5
1C9
100
AcDbEntity
  8
edge
  6
ByLayer
 62
  256
370
   -1
100
AcDbCircle
 10
-91.11652187562891
 20
-44.50856863168418
 40
0.75
100
AcDbArc
 50
270
 51
0
  0
LINE
  5
1CA
100
AcDbEntity
  8
edge
  6
ByLayer
 62
  256
370
   -1
100
AcDbLine
 10
-90.36652187562891
 20
-44.00856863168419
 11
-90.36652187562891
 21
-44.50856863168418
  0
ARC
  5
1CB
100
AcDbEntity
  8
edge
  6
ByLayer
 62
  256
370
   -1
100
AcDbCircle
 10
-89.61652187562891
 20
-44.00856863168418
 40
0.75
100
AcDbArc
 50
90
 51
180.0000000000011
  0
LINE
  5
1CC
100
AcDbEntity
  8
edge
  6
ByLayer
 62
  256
370
   -1
100
AcDbLine
 10
-89.61652187562891
 20
-43.25856863168417
 11
-87.11652187562891
 21
-43.25856863168417
  0
ARC
  5
1CD
100
AcDbEntity
  8
edge
  6
ByLayer
 62
  256
370
   -1
100
AcDbCircle
 10
-87.11652187562891
 20
-44.00856863168417
 40
0.75
100
AcDbArc
 50
5.343331864858708e-13
 51
90
  0
LINE
  5
1CE
100
AcDbEntity
  8
edge
  6
ByLayer
 62
  256
370
   -1
100
AcDbLine
 10
-86.36652187562891
 20
-44.00856863168416
 11
-86.36652187562891
 21
-44.50856863168418
  0
ARC
  5
1CF
100
AcDbEntity
  8
edge
  6
ByLayer
 62
  256
370
   -1
100
AcDbCircle
 10
-85.61652187562891
 20
-44.50856863168418
 40
0.75
100
AcDbArc
 50
180
 51
270
  0
ARC
  5
1D0
100
AcDbEntity
  8
edge
  6
ByLayer
 62
  256
370
   -1
100
AcDbCircle
 10
85.616521875629
 20
-44.50856863168418
 40
0.75
100
AcDbArc
 50
270.0000000000011
 51
0
  0
LINE
  5
1D1
100
AcDbEntity
  8
edge
  6
ByLayer
 62
  256
370
   -1
100
AcDbLine
 10
86.366521875629
 20
-44.50856863168418
 11
86.366521875629
 21
-44.00856863168418
  0
ARC
  5
1D2
100
AcDbEntity
  8
edge
  6
ByLayer
 62
  256
370
   -1
100
AcDbCircle
 10
87.116521875629
 20
-44.00856863168418
 40
0.75
100
AcDbArc
 50
89.99999999999892
 51
180
  0
LINE
  5
1D3
100
AcDbEntity
  8
edge
  6
ByLayer
 62
  256
370
   -1
100
AcDbLine
 10
87.11652187562902
 20
-43.25856863168418
 11
89.616521875629
 21
-43.25856863168418
  0
ARC
  5
1D4
100
AcDbEntity
  8
edge
  6
ByLayer
 62
  256
370
   -1
100
AcDbCircle
 10
89.616521875629
 20
-44.00856863168418
 40
0.75
100
AcDbArc
 50
0
 51
90
  0
LINE
  5
1D5
100
AcDbEntity
  8
edge
  6
ByLayer
 62
  256
370
   -1
100
AcDbLine
 10
90.366521875629
 20
-44.50856863168418
 11
90.366521875629
 21
-44.00856863168418
  0
LINE
  5
1D6
100
AcDbEntity
  8
edge
  6
ByLayer
 62
  256
370
   -1
100
AcDbLine
 10
91.116521875629
 20
-45.25856863168418
 11
109.366521875629
 21
-45.25856863168418
  0
ARC
  5
1D7
100
AcDbEntity
  8
edge
  6
ByLayer
 62
  256
370
   -1
100
AcDbCircle
 10
91.116521875629
 20
-44.50856863168418
 40
0.75
100
AcDbArc
 50
180
 51
270
  0
ARC
  5
1D8
100
AcDbEntity
  8
edge
  6
ByLayer
 62
  256
370
   -1
100
AcDbCircle
 10
1.250000000000057
 20
-44.00856863168418
 40
0.75
100
AcDbArc
 50
0
 51
90
  0
LINE
  5
1D9
100
AcDbEntity
  8
edge
  6
ByLayer
 62
  256
370
   -1
100
AcDbLine
 10
2.000000000000057
 20
-44.50856863168418
 11
2.000000000000057
 21
-44.00856863168418
  0
LINE
  5
1DA
100
AcDbEntity
  8
edge
  6
ByLayer
 62
  256
370
   -1
100
AcDbLine
 10
2.750000000000057
 20
-45.25856863168418
 11
85.61652187562902
 21
-45.25856863168418
  0
ARC
  5
1DB
100
AcDbEntity
  8
edge
  6
ByLayer
 62
  256
370
   -1
100
AcDbCircle
 10
2.750000000000057
 20
-44.50856863168418
 40
0.75
100
AcDbArc
 50
180
 51
270
  0
LINE
  5
1DC
100
AcDbEntity
  8
edge
  6
ByLayer
 62
  256
370
   -1
100
AcDbLine
 10
-85.61652187562891
 20
-45.25856863168418
 11
-2.749999999999943
 21
-45.25856863168418
  0
ARC
  5
1DD
100
AcDbEntity
  8
edge
  6
ByLayer
 62
  256
370
   -1
100
AcDbCircle
 10
-2.749999999999943
 20
-44.50856863168418
 40
0.75
100
AcDbArc
 50
270
 51
0
  0
LINE
  5
1DE
100
AcDbEntity
  8
edge
  6
ByLayer
 62
  256
370
   -1
100
AcDbLine
 10
-1.999999999999943
 20
-44.50856863168418
 11
-1.999999999999943
 21
-44.00856863168418
  0
LINE
  5
1DF
100
AcDbEntity
  8
edge
  6
ByLayer
 62
  256
370
   -1
100
AcDbLine
 10
-1.249999999999943
 20
-43.25856863168418
 11
1.250000000000057
 21
-43.25856863168418
  0
ARC
  5
1E0
100
AcDbEntity
  8
edge
  6
ByLayer
 62
  256
370
   -1
100
AcDbCircle
 10
-1.249999999999943
 20
-44.00856863168418
 40
0.75
100
AcDbArc
 50
90
 51
180
  0
ENDSEC
  0
SECTION
  2
OBJECTS
  0
DICTIONARY
  5
C
330
0
100
AcDbDictionary
281
    1
  3
ACAD_GROUP
350
D
  0
DICTIONARY
  5
D
330
C
100
AcDbDictionary
281
    1
  0
PLOTSETTINGS
  5
1E1
100
AcDbPlotSettings
  6
1x1
 40
0
 41
0
 42
0
 43
0
  0
ENDSEC
  0
EOF
