999
dxfrw 0.6.3
  0
SECTION
  2
HEADER
  9
$ACADVER
  1
AC1021
  9
$DWGCODEPAGE
  3
ANSI_1252
  9
$INSBASE
 10
0
 20
0
 30
0
  9
$EXTMIN
 10
-142.1846132133026
 20
-70.33690650949329
 30
0
  9
$EXTMAX
 10
142.1846132133026
 20
65.46806312742609
 30
0
  9
$LIMMIN
 10
0
 20
0
  9
$LIMMAX
 10
420
 20
297
  9
$ORTHOMODE
 70
    0
  9
$REGENMODE
 70
    1
  9
$FILLMODE
 70
    1
  9
$QTEXTMODE
 70
    0
  9
$MIRRTEXT
 70
    0
  9
$LTSCALE
 40
1
  9
$ATTMODE
 70
    0
  9
$TEXTSIZE
 40
2.5
  9
$TRACEWID
 40
15.68
  9
$TEXTSTYLE
  7
STANDARD
  9
$CLAYER
  8
ext2
  9
$CELTYPE
  6
BYLAYER
  9
$CECOLOR
 62
  256
  9
$CELTSCALE
 40
1
  9
$DISPSILH
 70
    0
  9
$DIMSCALE
 40
2.5
  9
$DIMASZ
 40
2.5
  9
$DIMEXO
 40
0.625
  9
$DIMDLI
 40
3.75
  9
$DIMRND
 40
0
  9
$DIMDLE
 40
0
  9
$DIMEXE
 40
1.25
  9
$DIMTP
 40
0
  9
$DIMTM
 40
0
  9
$DIMTXT
 40
2.5
  9
$DIMCEN
 40
2.5
  9
$DIMTSZ
 40
0
  9
$DIMTOL
 70
    0
  9
$DIMLIM
 70
    0
  9
$DIMTIH
 70
    0
  9
$DIMTOH
 70
    0
  9
$DIMSE1
 70
    0
  9
$DIMSE2
 70
    0
  9
$DIMTAD
 70
    1
  9
$DIMZIN
 70
    8
  9
$DIMBLK
  1

  9
$DIMASO
 70
    1
  9
$DIMSHO
 70
    1
  9
$DIMPOST
  1

  9
$DIMAPOST
  1

  9
$DIMALT
 70
    0
  9
$DIMALTD
 70
    3
  9
$DIMALTF
 40
0.03937
  9
$DIMLFAC
 40
1
  9
$DIMTOFL
 70
    1
  9
$DIMTVP
 40
0
  9
$DIMTIX
 70
    0
  9
$DIMSOXD
 70
    0
  9
$DIMSAH
 70
    0
  9
$DIMBLK1
  1

  9
$DIMBLK2
  1

  9
$DIMSTYLE
  2
Standard
  9
$DIMCLRD
 70
    0
  9
$DIMCLRE
 70
    0
  9
$DIMCLRT
 70
    0
  9
$DIMTFAC
 40
1
  9
$DIMGAP
 40
0.625
  9
$DIMJUST
 70
    0
  9
$DIMSD1
 70
    0
  9
$DIMSD2
 70
    0
  9
$DIMTOLJ
 70
    0
  9
$DIMTZIN
 70
    8
  9
$DIMALTZ
 70
    0
  9
$DIMALTTZ
 70
    0
  9
$DIMUPT
 70
    0
  9
$DIMDEC
 70
    2
  9
$DIMTDEC
 70
    2
  9
$DIMALTU
 70
    2
  9
$DIMALTTD
 70
    3
  9
$DIMTXSTY
  7
STANDARD
  9
$DIMAUNIT
 70
    0
  9
$DIMADEC
 70
    0
  9
$DIMALTRND
 40
0
  9
$DIMAZIN
 70
    0
  9
$DIMDSEP
 70
   44
  9
$DIMATFIT
 70
    3
  9
$DIMFRAC
 70
    0
  9
$DIMLDRBLK
  1
STANDARD
  9
$DIMLUNIT
 70
    2
  9
$DIMLWD
 70
   -2
  9
$DIMLWE
 70
   -2
  9
$DIMTMOVE
 70
    0
  9
$DIMFXL
 40
1
  9
$DIMFXLON
 70
    0
  9
$DIMJOGANG
 40
0.7854
  9
$DIMTFILL
 70
    0
  9
$DIMTFILLCLR
 70
    0
  9
$DIMARCSYM
 70
    0
  9
$DIMLTYPE
  6

  9
$DIMLTEX1
  6

  9
$DIMLTEX2
  6

  9
$LUNITS
 70
    2
  9
$LUPREC
 70
    4
  9
$SKETCHINC
 40
1
  9
$FILLETRAD
 40
0
  9
$AUNITS
 70
    0
  9
$AUPREC
 70
    2
  9
$MENU
  1
.
  9
$ELEVATION
 40
0
  9
$PELEVATION
 40
0
  9
$THICKNESS
 40
0
  9
$LIMCHECK
 70
    0
  9
$CHAMFERA
 40
0
  9
$CHAMFERB
 40
0
  9
$CHAMFERC
 40
0
  9
$CHAMFERD
 40
0
  9
$SKPOLY
 70
    0
  9
$USRTIMER
 70
    1
  9
$ANGBASE
 50
0
  9
$ANGDIR
 70
    0
  9
$PDMODE
 70
   34
  9
$PDSIZE
 40
0
  9
$PLINEWID
 40
0
  9
$SPLFRAME
 70
    0
  9
$SPLINETYPE
 70
    2
  9
$SPLINESEGS
 70
    8
  9
$HANDSEED
  5
20000
  9
$SURFTAB1
 70
    6
  9
$SURFTAB2
 70
    6
  9
$SURFTYPE
 70
    6
  9
$SURFU
 70
    6
  9
$SURFV
 70
    6
  9
$UCSBASE
  2

  9
$UCSNAME
  2

  9
$UCSORG
 10
0
 20
0
 30
0
  9
$UCSXDIR
 10
1
 20
0
 30
0
  9
$UCSYDIR
 10
0
 20
1
 30
0
  9
$UCSORTHOREF
  2

  9
$UCSORTHOVIEW
 70
    0
  9
$UCSORGTOP
 10
0
 20
0
 30
0
  9
$UCSORGBOTTOM
 10
0
 20
0
 30
0
  9
$UCSORGLEFT
 10
0
 20
0
 30
0
  9
$UCSORGRIGHT
 10
0
 20
0
 30
0
  9
$UCSORGFRONT
 10
0
 20
0
 30
0
  9
$UCSORGBACK
 10
0
 20
0
 30
0
  9
$PUCSBASE
  2

  9
$PUCSNAME
  2

  9
$PUCSORG
 10
0
 20
0
 30
0
  9
$PUCSXDIR
 10
1
 20
0
 30
0
  9
$PUCSYDIR
 10
0
 20
1
 30
0
  9
$PUCSORTHOREF
  2

  9
$PUCSORTHOVIEW
 70
    0
  9
$PUCSORGTOP
 10
0
 20
0
 30
0
  9
$PUCSORGBOTTOM
 10
0
 20
0
 30
0
  9
$PUCSORGLEFT
 10
0
 20
0
 30
0
  9
$PUCSORGRIGHT
 10
0
 20
0
 30
0
  9
$PUCSORGFRONT
 10
0
 20
0
 30
0
  9
$PUCSORGBACK
 10
0
 20
0
 30
0
  9
$USERI1
 70
    0
  9
$USERI2
 70
    0
  9
$USERI3
 70
    0
  9
$USERI4
 70
    0
  9
$USERI5
 70
    0
  9
$USERR1
 40
0
  9
$USERR2
 40
0
  9
$USERR3
 40
0
  9
$USERR4
 40
0
  9
$USERR5
 40
0
  9
$WORLDVIEW
 70
    1
  9
$SHADEDGE
 70
    3
  9
$SHADEDIF
 70
   70
  9
$TILEMODE
 70
    1
  9
$MAXACTVP
 70
   64
  9
$PINSBASE
 10
0
 20
0
 30
0
  9
$PLIMCHECK
 70
    0
  9
$PEXTMIN
 10
0
 20
0
 30
0
  9
$PEXTMAX
 10
0
 20
0
 30
0
  9
$GRIDMODE
 70
    1
  9
$SNAPSTYLE
 70
    0
  9
$PLIMMIN
 10
0
 20
0
  9
$PLIMMAX
 10
210
 20
297
  9
$UNITMODE
 70
    0
  9
$VISRETAIN
 70
    1
  9
$PLINEGEN
 70
    0
  9
$PSLTSCALE
 70
    1
  9
$TREEDEPTH
 70
 3020
  9
$CMLSTYLE
  2
Standard
  9
$CMLJUST
 70
    0
  9
$CMLSCALE
 40
20
  9
$PROXYGRAPHICS
 70
    1
  9
$MEASUREMENT
 70
    1
  9
$CELWEIGHT
370
   -1
  9
$ENDCAPS
280
    0
  9
$JOINSTYLE
280
    0
  9
$LWDISPLAY
290
    0
  9
$INSUNITS
 70
    4
  9
$HYPERLINKBASE
  1

  9
$STYLESHEET
  1

  9
$XEDIT
290
    1
  9
$CEPSNTYPE
380
    0
  9
$PSTYLEMODE
290
    1
  9
$EXTNAMES
290
    1
  9
$PSVPSCALE
 40
1
  9
$OLESTARTUP
290
    0
  9
$SORTENTS
280
  127
  9
$INDEXCTL
280
    0
  9
$HIDETEXT
280
    1
  9
$XCLIPFRAME
290
    0
  9
$HALOGAP
280
    0
  9
$OBSCOLOR
 70
  257
  9
$OBSLTYPE
280
    0
  9
$INTERSECTIONDISPLAY
280
    0
  9
$INTERSECTIONCOLOR
 70
  257
  9
$DIMASSOC
280
    1
  9
$PROJECTNAME
  1

  9
$CAMERADISPLAY
290
    0
  9
$LENSLENGTH
 40
50
  9
$CAMERAHEIGHT
 40
0
  9
$STEPSPERSEC
 40
2
  9
$STEPSIZE
 40
50
  9
$3DDWFPREC
 40
2
  9
$PSOLWIDTH
 40
5
  9
$PSOLHEIGHT
 40
80
  9
$LOFTANG1
 40
1.570796326794897
  9
$LOFTANG2
 40
1.570796326794897
  9
$LOFTMAG1
 40
0
  9
$LOFTMAG2
 40
0
  9
$LOFTPARAM
 70
    7
  9
$LOFTNORMALS
280
    1
  9
$LATITUDE
 40
1
  9
$LONGITUDE
 40
1
  9
$NORTHDIRECTION
 40
0
  9
$TIMEZONE
 70
-8000
  9
$LIGHTGLYPHDISPLAY
280
    1
  9
$TILEMODELIGHTSYNCH
280
    1
  9
$SOLIDHIST
280
    1
  9
$SHOWHIST
280
    1
  9
$DWFFRAME
280
    2
  9
$DGNFRAME
280
    0
  9
$REALWORLDSCALE
290
    1
  9
$INTERFERECOLOR
 62
    1
  9
$CSHADOW
280
    0
  9
$SHADOWPLANELOCATION
 40
0
  0
ENDSEC
  0
SECTION
  2
CLASSES
  0
ENDSEC
  0
SECTION
  2
TABLES
  0
TABLE
  2
VPORT
  5
8
330
0
100
AcDbSymbolTable
 70
    1
  0
VPORT
  5
31
330
2
100
AcDbSymbolTableRecord
100
AcDbViewportTableRecord
  2
*ACTIVE
 70
    0
 10
0
 20
0
 11
1
 21
1
 12
72.48627340286015
 22
50.44832214851073
 13
0
 23
0
 14
10
 24
10
 15
10
 25
10
 16
0
 26
0
 36
1
 17
0
 27
0
 37
0
 40
206.5726033239018
 41
1.402313624678663
 42
50
 43
0
 44
0
 50
0
 51
0
 71
    0
 72
  100
 73
    1
 74
    3
 75
    0
 76
    1
 77
    0
 78
    0
281
    0
 65
    1
110
0
120
0
130
0
111
1
121
0
131
0
112
0
122
1
132
0
 79
    0
146
0
348
10020
 60
    7
 61
    5
292
1
282
    1
141
0
142
0
 63
  250
421
3358443
  0
ENDTAB
  0
TABLE
  2
LTYPE
  5
5
330
0
100
AcDbSymbolTable
 70
    4
  0
LTYPE
  5
14
330
5
100
AcDbSymbolTableRecord
100
AcDbLinetypeTableRecord
  2
ByBlock
 70
    0
  3

 72
   65
 73
    0
 40
0
  0
LTYPE
  5
15
330
5
100
AcDbSymbolTableRecord
100
AcDbLinetypeTableRecord
  2
ByLayer
 70
    0
  3

 72
   65
 73
    0
 40
0
  0
LTYPE
  5
16
330
5
100
AcDbSymbolTableRecord
100
AcDbLinetypeTableRecord
  2
Continuous
 70
    0
  3
Solid line
 72
   65
 73
    0
 40
0
  0
LTYPE
  5
32
330
5
100
AcDbSymbolTableRecord
100
AcDbLinetypeTableRecord
  2
DOT
 70
    0
  3
Dot . . . . . . . . . . . . . . . . . . . . . .
 72
   65
 73
    2
 40
6.35
 49
0
 74
    0
 49
-6.35
 74
    0
  0
LTYPE
  5
33
330
5
100
AcDbSymbolTableRecord
100
AcDbLinetypeTableRecord
  2
DOTTINY
 70
    0
  3
Dot (.15x) .....................................
 72
   65
 73
    2
 40
0.9525
 49
0
 74
    0
 49
-0.9525
 74
    0
  0
LTYPE
  5
34
330
5
100
AcDbSymbolTableRecord
100
AcDbLinetypeTableRecord
  2
DOT2
 70
    0
  3
Dot (.5x) .....................................
 72
   65
 73
    2
 40
3.175
 49
0
 74
    0
 49
-3.175
 74
    0
  0
LTYPE
  5
35
330
5
100
AcDbSymbolTableRecord
100
AcDbLinetypeTableRecord
  2
DOTX2
 70
    0
  3
Dot (2x) .  .  .  .  .  .  .  .  .  .  .  .  .
 72
   65
 73
    2
 40
12.7
 49
0
 74
    0
 49
-12.7
 74
    0
  0
LTYPE
  5
36
330
5
100
AcDbSymbolTableRecord
100
AcDbLinetypeTableRecord
  2
DASHED
 70
    0
  3
Dashed _ _ _ _ _ _ _ _ _ _ _ _ _ _ _ _ _
 72
   65
 73
    2
 40
19.05
 49
12.7
 74
    0
 49
-6.35
 74
    0
  0
LTYPE
  5
37
330
5
100
AcDbSymbolTableRecord
100
AcDbLinetypeTableRecord
  2
DASHEDTINY
 70
    0
  3
Dashed (.15x) _ _ _ _ _ _ _ _ _ _ _ _ _ _ _ _ _
 72
   65
 73
    2
 40
2.8575
 49
1.905
 74
    0
 49
-0.9525
 74
    0
  0
LTYPE
  5
38
330
5
100
AcDbSymbolTableRecord
100
AcDbLinetypeTableRecord
  2
DASHED2
 70
    0
  3
Dashed (.5x) _ _ _ _ _ _ _ _ _ _ _ _ _ _ _ _ _
 72
   65
 73
    2
 40
9.524999999999999
 49
6.35
 74
    0
 49
-3.175
 74
    0
  0
LTYPE
  5
39
330
5
100
AcDbSymbolTableRecord
100
AcDbLinetypeTableRecord
  2
DASHEDX2
 70
    0
  3
Dashed (2x) ____  ____  ____  ____  ____  ___
 72
   65
 73
    2
 40
38.09999999999999
 49
25.4
 74
    0
 49
-12.7
 74
    0
  0
LTYPE
  5
3A
330
5
100
AcDbSymbolTableRecord
100
AcDbLinetypeTableRecord
  2
DASHDOT
 70
    0
  3
Dash dot __ . __ . __ . __ . __ . __ . __ . __
 72
   65
 73
    4
 40
25.4
 49
12.7
 74
    0
 49
-6.35
 74
    0
 49
0
 74
    0
 49
-6.35
 74
    0
  0
LTYPE
  5
3B
330
5
100
AcDbSymbolTableRecord
100
AcDbLinetypeTableRecord
  2
DASHDOTTINY
 70
    0
  3
Dash dot (.15x) _._._._._._._._._._._._._._._.
 72
   65
 73
    4
 40
3.81
 49
1.905
 74
    0
 49
-0.9525
 74
    0
 49
0
 74
    0
 49
-0.9525
 74
    0
  0
LTYPE
  5
3C
330
5
100
AcDbSymbolTableRecord
100
AcDbLinetypeTableRecord
  2
DASHDOT2
 70
    0
  3
Dash dot (.5x) _._._._._._._._._._._._._._._.
 72
   65
 73
    4
 40
12.7
 49
6.35
 74
    0
 49
-3.175
 74
    0
 49
0
 74
    0
 49
-3.175
 74
    0
  0
LTYPE
  5
3D
330
5
100
AcDbSymbolTableRecord
100
AcDbLinetypeTableRecord
  2
DASHDOTX2
 70
    0
  3
Dash dot (2x) ____  .  ____  .  ____  .  ___
 72
   65
 73
    4
 40
50.8
 49
25.4
 74
    0
 49
-12.7
 74
    0
 49
0
 74
    0
 49
-12.7
 74
    0
  0
LTYPE
  5
3E
330
5
100
AcDbSymbolTableRecord
100
AcDbLinetypeTableRecord
  2
DIVIDE
 70
    0
  3
Divide ____ . . ____ . . ____ . . ____ . . ____
 72
   65
 73
    6
 40
31.75
 49
12.7
 74
    0
 49
-6.35
 74
    0
 49
0
 74
    0
 49
-6.35
 74
    0
 49
0
 74
    0
 49
-6.35
 74
    0
  0
LTYPE
  5
3F
330
5
100
AcDbSymbolTableRecord
100
AcDbLinetypeTableRecord
  2
DIVIDETINY
 70
    0
  3
Divide (.15x) __..__..__..__..__..__..__..__.._
 72
   65
 73
    6
 40
4.7625
 49
1.905
 74
    0
 49
-0.9525
 74
    0
 49
0
 74
    0
 49
-0.9525
 74
    0
 49
0
 74
    0
 49
-0.9525
 74
    0
  0
LTYPE
  5
40
330
5
100
AcDbSymbolTableRecord
100
AcDbLinetypeTableRecord
  2
DIVIDE2
 70
    0
  3
Divide (.5x) __..__..__..__..__..__..__..__.._
 72
   65
 73
    6
 40
15.875
 49
6.35
 74
    0
 49
-3.175
 74
    0
 49
0
 74
    0
 49
-3.175
 74
    0
 49
0
 74
    0
 49
-3.175
 74
    0
  0
LTYPE
  5
41
330
5
100
AcDbSymbolTableRecord
100
AcDbLinetypeTableRecord
  2
DIVIDEX2
 70
    0
  3
Divide (2x) ________  .  .  ________  .  .  _
 72
   65
 73
    6
 40
63.5
 49
25.4
 74
    0
 49
-12.7
 74
    0
 49
0
 74
    0
 49
-12.7
 74
    0
 49
0
 74
    0
 49
-12.7
 74
    0
  0
LTYPE
  5
42
330
5
100
AcDbSymbolTableRecord
100
AcDbLinetypeTableRecord
  2
BORDER
 70
    0
  3
Border __ __ . __ __ . __ __ . __ __ . __ __ .
 72
   65
 73
    6
 40
44.45
 49
12.7
 74
    0
 49
-6.35
 74
    0
 49
12.7
 74
    0
 49
-6.35
 74
    0
 49
0
 74
    0
 49
-6.35
 74
    0
  0
LTYPE
  5
43
330
5
100
AcDbSymbolTableRecord
100
AcDbLinetypeTableRecord
  2
BORDERTINY
 70
    0
  3
Border (.15x) __.__.__.__.__.__.__.__.__.__.__.
 72
   65
 73
    6
 40
6.6675
 49
1.905
 74
    0
 49
-0.9525
 74
    0
 49
1.905
 74
    0
 49
-0.9525
 74
    0
 49
0
 74
    0
 49
-0.9525
 74
    0
  0
LTYPE
  5
44
330
5
100
AcDbSymbolTableRecord
100
AcDbLinetypeTableRecord
  2
BORDER2
 70
    0
  3
Border (.5x) __.__.__.__.__.__.__.__.__.__.__.
 72
   65
 73
    6
 40
22.225
 49
6.35
 74
    0
 49
-3.175
 74
    0
 49
6.35
 74
    0
 49
-3.175
 74
    0
 49
0
 74
    0
 49
-3.175
 74
    0
  0
LTYPE
  5
45
330
5
100
AcDbSymbolTableRecord
100
AcDbLinetypeTableRecord
  2
BORDERX2
 70
    0
  3
Border (2x) ____  ____  .  ____  ____  .  ___
 72
   65
 73
    6
 40
88.89999999999999
 49
25.4
 74
    0
 49
-12.7
 74
    0
 49
25.4
 74
    0
 49
-12.7
 74
    0
 49
0
 74
    0
 49
-12.7
 74
    0
  0
LTYPE
  5
46
330
5
100
AcDbSymbolTableRecord
100
AcDbLinetypeTableRecord
  2
CENTER
 70
    0
  3
Center ____ _ ____ _ ____ _ ____ _ ____ _ ____
 72
   65
 73
    4
 40
50.8
 49
31.75
 74
    0
 49
-6.35
 74
    0
 49
6.35
 74
    0
 49
-6.35
 74
    0
  0
LTYPE
  5
47
330
5
100
AcDbSymbolTableRecord
100
AcDbLinetypeTableRecord
  2
CENTERTINY
 70
    0
  3
Center (.15x) ___ _ ___ _ ___ _ ___ _ ___ _ ___
 72
   65
 73
    4
 40
7.619999999999999
 49
4.7625
 74
    0
 49
-0.9525
 74
    0
 49
0.9525
 74
    0
 49
-0.9525
 74
    0
  0
LTYPE
  5
48
330
5
100
AcDbSymbolTableRecord
100
AcDbLinetypeTableRecord
  2
CENTER2
 70
    0
  3
Center (.5x) ___ _ ___ _ ___ _ ___ _ ___ _ ___
 72
   65
 73
    4
 40
28.575
 49
19.05
 74
    0
 49
-3.175
 74
    0
 49
3.175
 74
    0
 49
-3.175
 74
    0
  0
LTYPE
  5
49
330
5
100
AcDbSymbolTableRecord
100
AcDbLinetypeTableRecord
  2
CENTERX2
 70
    0
  3
Center (2x) ________  __  ________  __  _____
 72
   65
 73
    4
 40
101.6
 49
63.5
 74
    0
 49
-12.7
 74
    0
 49
12.7
 74
    0
 49
-12.7
 74
    0
  0
ENDTAB
  0
TABLE
  2
LAYER
  5
2
330
0
100
AcDbSymbolTable
 70
    1
  0
LAYER
  5
10
330
2
100
AcDbSymbolTableRecord
100
AcDbLayerTableRecord
  2
0
 70
    4
 62
    7
  6
CONTINUOUS
370
    0
390
F
  0
LAYER
  5
4A
330
2
100
AcDbSymbolTableRecord
100
AcDbLayerTableRecord
  2
ajour
 70
    0
 62
    6
  6
CONTINUOUS
370
    0
390
F
  0
LAYER
  5
4B
330
2
100
AcDbSymbolTableRecord
100
AcDbLayerTableRecord
  2
ext1
 70
    4
 62
  136
420
32896
  6
CONTINUOUS
370
    0
390
F
  0
LAYER
  5
4C
330
2
100
AcDbSymbolTableRecord
100
AcDbLayerTableRecord
  2
ext2
 70
    4
 62
  176
420
  128
  6
CONTINUOUS
370
    0
390
F
  0
LAYER
  5
4D
330
2
100
AcDbSymbolTableRecord
100
AcDbLayerTableRecord
  2
ext3
 70
    4
 62
    5
  6
CONTINUOUS
370
    0
390
F
  0
LAYER
  5
4E
330
2
100
AcDbSymbolTableRecord
100
AcDbLayerTableRecord
  2
keycap
 70
    4
 62
   16
420
8388608
  6
CONTINUOUS
370
    0
390
F
  0
LAYER
  5
4F
330
2
100
AcDbSymbolTableRecord
100
AcDbLayerTableRecord
  2
pcb
 70
    4
 62
    2
  6
CONTINUOUS
370
    0
390
F
  0
LAYER
  5
50
330
2
100
AcDbSymbolTableRecord
100
AcDbLayerTableRecord
  2
percage
 70
    4
 62
    4
  6
CONTINUOUS
370
    0
390
F
  0
LAYER
  5
51
330
2
100
AcDbSymbolTableRecord
100
AcDbLayerTableRecord
  2
placement
 70
    4
 62
    1
  6
CONTINUOUS
370
    0
390
F
  0
LAYER
  5
52
330
2
100
AcDbSymbolTableRecord
100
AcDbLayerTableRecord
  2
rp2040
 70
    4
 62
    3
  6
CONTINUOUS
370
    0
390
F
  0
ENDTAB
  0
TABLE
  2
STYLE
  5
3
330
0
100
AcDbSymbolTable
 70
    3
  0
STYLE
  5
53
330
2
100
AcDbSymbolTableRecord
100
AcDbTextStyleTableRecord
  2
Standard
 70
    0
 40
0
 41
1
 50
0
 71
    0
 42
1
  3
txt
  4

  0
ENDTAB
  0
TABLE
  2
VIEW
  5
6
330
0
100
AcDbSymbolTable
 70
    0
  0
ENDTAB
  0
TABLE
  2
UCS
  5
7
330
0
100
AcDbSymbolTable
 70
    0
  0
ENDTAB
  0
TABLE
  2
APPID
  5
9
330
0
100
AcDbSymbolTable
 70
    1
  0
APPID
  5
12
330
9
100
AcDbSymbolTableRecord
100
AcDbRegAppTableRecord
  2
ACAD
 70
    0
  0
APPID
  5
54
330
9
100
AcDbSymbolTableRecord
100
AcDbRegAppTableRecord
  2
LibreCad
 70
    0
  0
ENDTAB
  0
TABLE
  2
DIMSTYLE
  5
A
330
0
100
AcDbSymbolTable
 70
    1
100
AcDbDimStyleTable
 71
    1
  0
DIMSTYLE
105
55
330
A
100
AcDbSymbolTableRecord
100
AcDbDimStyleTableRecord
  2
Standard
 70
    0
 40
2.5
 41
2.5
 42
0.625
 43
0.38
 44
1.25
 45
0
 46
0
 47
0
 48
0
 49
1
140
2.5
141
0.09
142
0
143
25.4
144
1
145
0
146
1
147
0.625
148
0
 71
    0
 72
    0
 73
    0
 74
    1
 75
    0
 76
    0
 77
    0
 78
    8
 79
    0
170
    0
171
    2
172
    0
173
    0
174
    0
175
    0
176
    0
177
    0
178
    0
179
    0
271
    2
272
    4
273
    2
274
    2
275
    0
276
    0
277
    2
278
   44
279
    0
280
    0
281
    0
282
    0
283
    1
284
    0
285
    0
286
    0
288
    0
289
    3
340
STANDARD
341

371
   -2
372
   -2
  0
ENDTAB
  0
TABLE
  2
BLOCK_RECORD
  5
1
330
0
100
AcDbSymbolTable
 70
    2
  0
BLOCK_RECORD
  5
1F
330
1
100
AcDbSymbolTableRecord
100
AcDbBlockTableRecord
  2
*Model_Space
 70
    0
280
    1
281
    0
  0
BLOCK_RECORD
  5
1E
330
1
100
AcDbSymbolTableRecord
100
AcDbBlockTableRecord
  2
*Paper_Space
 70
    0
280
    1
281
    0
  0
ENDTAB
  0
ENDSEC
  0
SECTION
  2
BLOCKS
  0
BLOCK
  5
20
330
1F
100
AcDbEntity
  8
0
100
AcDbBlockBegin
  2
*Model_Space
 70
    0
 10
0
 20
0
 30
0
  3
*Model_Space
  1

  0
ENDBLK
  5
21
330
1F
100
AcDbEntity
  8
0
100
AcDbBlockEnd
  0
BLOCK
  5
1C
330
1B
100
AcDbEntity
  8
0
100
AcDbBlockBegin
  2
*Paper_Space
 70
    0
 10
0
 20
0
 30
0
  3
*Paper_Space
  1

  0
ENDBLK
  5
1D
330
1F
100
AcDbEntity
  8
0
100
AcDbBlockEnd
  0
ENDSEC
  0
SECTION
  2
ENTITIES
  0
LINE
  5
56
100
AcDbEntity
  8
0
  6
ByLayer
 62
  256
370
   -1
100
AcDbLine
 10
-101.3650917
 20
-18.0368881
 11
-88.36509169999999
 21
-18.0368881
  0
LINE
  5
57
100
AcDbEntity
  8
0
  6
ByLayer
 62
  256
370
   -1
100
AcDbLine
 10
-101.3650917
 20
-32.0368881
 11
-88.36509169999999
 21
-32.0368881
  0
LINE
  5
58
100
AcDbEntity
  8
0
  6
ByLayer
 62
  256
370
   -1
100
AcDbLine
 10
-101.8650917
 20
-18.5368881
 11
-101.8650917
 21
-31.5368881
  0
LINE
  5
59
100
AcDbEntity
  8
0
  6
ByLayer
 62
  256
370
   -1
100
AcDbLine
 10
-87.86509169999999
 20
-18.5368881
 11
-87.86509169999999
 21
-31.5368881
  0
ARC
  5
5A
100
AcDbEntity
  8
0
  6
ByLayer
 62
  256
370
   -1
100
AcDbCircle
 10
-101.3650917
 20
-18.5368881
 40
0.5
100
AcDbArc
 50
90
 51
180
  0
ARC
  5
5B
100
AcDbEntity
  8
0
  6
ByLayer
 62
  256
370
   -1
100
AcDbCircle
 10
-88.36509169999999
 20
-18.5368881
 40
0.5
100
AcDbArc
 50
0
 51
90
  0
ARC
  5
5C
100
AcDbEntity
  8
0
  6
ByLayer
 62
  256
370
   -1
100
AcDbCircle
 10
-101.3650917
 20
-31.5368881
 40
0.5
100
AcDbArc
 50
180
 51
270
  0
ARC
  5
5D
100
AcDbEntity
  8
0
  6
ByLayer
 62
  256
370
   -1
100
AcDbCircle
 10
-88.36509169999999
 20
-31.5368881
 40
0.5
100
AcDbArc
 50
270
 51
0
  0
LINE
  5
5E
100
AcDbEntity
  8
0
  6
ByLayer
 62
  256
370
   -1
100
AcDbLine
 10
-102.9520795
 20
46.430947
 11
-90.14957870000001
 21
44.1735207
  0
LINE
  5
5F
100
AcDbEntity
  8
0
  6
ByLayer
 62
  256
370
   -1
100
AcDbLine
 10
-105.3831539
 20
32.64363850000001
 11
-92.58065310000001
 21
30.3862122
  0
LINE
  5
60
100
AcDbEntity
  8
0
  6
ByLayer
 62
  256
370
   -1
100
AcDbLine
 10
-103.5313074
 20
46.02536720000001
 11
-105.7887337
 21
33.2228664
  0
LINE
  5
61
100
AcDbEntity
  8
0
  6
ByLayer
 62
  256
370
   -1
100
AcDbLine
 10
-89.74399890000001
 20
43.59429280000001
 11
-92.0014252
 21
30.791792
  0
ARC
  5
62
100
AcDbEntity
  8
0
  6
ByLayer
 62
  256
370
   -1
100
AcDbCircle
 10
-103.0389035
 20
45.9385431
 40
0.5
100
AcDbArc
 50
80
 51
170
  0
ARC
  5
63
100
AcDbEntity
  8
0
  6
ByLayer
 62
  256
370
   -1
100
AcDbCircle
 10
-90.23640280000001
 20
43.6811168
 40
0.5
100
AcDbArc
 50
350
 51
80
  0
ARC
  5
64
100
AcDbEntity
  8
0
  6
ByLayer
 62
  256
370
   -1
100
AcDbCircle
 10
-105.2963298
 20
33.13604240000001
 40
0.5
100
AcDbArc
 50
170
 51
260
  0
ARC
  5
65
100
AcDbEntity
  8
0
  6
ByLayer
 62
  256
370
   -1
100
AcDbCircle
 10
-92.4938291
 20
30.8786161
 40
0.5
100
AcDbArc
 50
260
 51
350
  0
LINE
  5
66
100
AcDbEntity
  8
0
  6
ByLayer
 62
  256
370
   -1
100
AcDbLine
 10
-123.3666661
 20
40.3586509
 11
-110.5641653
 21
38.10122459999999
  0
LINE
  5
67
100
AcDbEntity
  8
0
  6
ByLayer
 62
  256
370
   -1
100
AcDbLine
 10
-125.7977405
 20
26.57134239999999
 11
-112.9952397
 21
24.3139161
  0
LINE
  5
68
100
AcDbEntity
  8
0
  6
ByLayer
 62
  256
370
   -1
100
AcDbLine
 10
-123.945894
 20
39.9530711
 11
-126.2033203
 21
27.1505703
  0
LINE
  5
69
100
AcDbEntity
  8
0
  6
ByLayer
 62
  256
370
   -1
100
AcDbLine
 10
-110.1585855
 20
37.5219967
 11
-112.4160118
 21
24.7194959
  0
ARC
  5
6A
100
AcDbEntity
  8
0
  6
ByLayer
 62
  256
370
   -1
100
AcDbCircle
 10
-123.4534901
 20
39.866247
 40
0.5
100
AcDbArc
 50
80
 51
170
  0
ARC
  5
6B
100
AcDbEntity
  8
0
  6
ByLayer
 62
  256
370
   -1
100
AcDbCircle
 10
-110.6509894
 20
37.6088207
 40
0.5
100
AcDbArc
 50
350
 51
80
  0
ARC
  5
6C
100
AcDbEntity
  8
0
  6
ByLayer
 62
  256
370
   -1
100
AcDbCircle
 10
-125.7109164
 20
27.06374629999999
 40
0.5
100
AcDbArc
 50
170
 51
260
  0
ARC
  5
6D
100
AcDbEntity
  8
0
  6
ByLayer
 62
  256
370
   -1
100
AcDbCircle
 10
-112.9084157
 20
24.80632
 40
0.5
100
AcDbArc
 50
260
 51
350
  0
LINE
  5
6E
100
AcDbEntity
  8
0
  6
ByLayer
 62
  256
370
   -1
100
AcDbLine
 10
-106.2600773
 20
27.6703593
 11
-93.4575765
 21
25.41293300000001
  0
LINE
  5
6F
100
AcDbEntity
  8
0
  6
ByLayer
 62
  256
370
   -1
100
AcDbLine
 10
-108.6911517
 20
13.88305080000001
 11
-95.8886509
 21
11.6256245
  0
LINE
  5
70
100
AcDbEntity
  8
0
  6
ByLayer
 62
  256
370
   -1
100
AcDbLine
 10
-106.8393052
 20
27.2647795
 11
-109.0967315
 21
14.4622787
  0
LINE
  5
71
100
AcDbEntity
  8
0
  6
ByLayer
 62
  256
370
   -1
100
AcDbLine
 10
-93.05199669999999
 20
24.8337051
 11
-95.30942300000001
 21
12.0312043
  0
ARC
  5
72
100
AcDbEntity
  8
0
  6
ByLayer
 62
  256
370
   -1
100
AcDbCircle
 10
-106.3469013
 20
27.1779554
 40
0.5
100
AcDbArc
 50
80
 51
170
  0
ARC
  5
73
100
AcDbEntity
  8
0
  6
ByLayer
 62
  256
370
   -1
100
AcDbCircle
 10
-93.54440059999999
 20
24.92052910000001
 40
0.5
100
AcDbArc
 50
350
 51
80
  0
ARC
  5
74
100
AcDbEntity
  8
0
  6
ByLayer
 62
  256
370
   -1
100
AcDbCircle
 10
-108.6043276
 20
14.37545470000001
 40
0.5
100
AcDbArc
 50
170
 51
260
  0
ARC
  5
75
100
AcDbEntity
  8
0
  6
ByLayer
 62
  256
370
   -1
100
AcDbCircle
 10
-95.80182690000001
 20
12.1180284
 40
0.5
100
AcDbArc
 50
260
 51
350
  0
LINE
  5
76
100
AcDbEntity
  8
0
  6
ByLayer
 62
  256
370
   -1
100
AcDbLine
 10
-126.6746639
 20
21.5980632
 11
-113.8721631
 21
19.34063689999999
  0
LINE
  5
77
100
AcDbEntity
  8
0
  6
ByLayer
 62
  256
370
   -1
100
AcDbLine
 10
-129.1057383
 20
7.810754700000004
 11
-116.3032375
 21
5.553328399999998
  0
LINE
  5
78
100
AcDbEntity
  8
0
  6
ByLayer
 62
  256
370
   -1
100
AcDbLine
 10
-127.2538918
 20
21.1924834
 11
-129.5113181
 21
8.389982599999996
  0
LINE
  5
79
100
AcDbEntity
  8
0
  6
ByLayer
 62
  256
370
   -1
100
AcDbLine
 10
-113.4665833
 20
18.761409
 11
-115.7240096
 21
5.958908199999996
  0
ARC
  5
7A
100
AcDbEntity
  8
0
  6
ByLayer
 62
  256
370
   -1
100
AcDbCircle
 10
-126.7614879
 20
21.1056593
 40
0.5
100
AcDbArc
 50
80
 51
170
  0
ARC
  5
7B
100
AcDbEntity
  8
0
  6
ByLayer
 62
  256
370
   -1
100
AcDbCircle
 10
-113.9589872
 20
18.84823299999999
 40
0.5
100
AcDbArc
 50
350
 51
80
  0
ARC
  5
7C
100
AcDbEntity
  8
0
  6
ByLayer
 62
  256
370
   -1
100
AcDbCircle
 10
-129.0189142
 20
8.303158600000003
 40
0.5
100
AcDbArc
 50
170
 51
260
  0
ARC
  5
7D
100
AcDbEntity
  8
0
  6
ByLayer
 62
  256
370
   -1
100
AcDbCircle
 10
-116.2164135
 20
6.045732299999997
 40
0.5
100
AcDbArc
 50
260
 51
350
  0
LINE
  5
7E
100
AcDbEntity
  8
0
  6
ByLayer
 62
  256
370
   -1
100
AcDbLine
 10
-109.5680751
 20
8.909771599999999
 11
-96.7655743
 21
6.652345300000007
  0
LINE
  5
7F
100
AcDbEntity
  8
0
  6
ByLayer
 62
  256
370
   -1
100
AcDbLine
 10
-111.9991495
 20
-4.877536899999996
 11
-99.1966487
 21
-7.134963200000001
  0
LINE
  5
80
100
AcDbEntity
  8
0
  6
ByLayer
 62
  256
370
   -1
100
AcDbLine
 10
-110.147303
 20
8.504191800000001
 11
-112.4047293
 21
-4.298309000000003
  0
LINE
  5
81
100
AcDbEntity
  8
0
  6
ByLayer
 62
  256
370
   -1
100
AcDbLine
 10
-96.3599945
 20
6.073117400000001
 11
-98.61742079999999
 21
-6.729383400000003
  0
ARC
  5
82
100
AcDbEntity
  8
0
  6
ByLayer
 62
  256
370
   -1
100
AcDbCircle
 10
-109.6548991
 20
8.4173677
 40
0.5
100
AcDbArc
 50
80
 51
170
  0
ARC
  5
83
100
AcDbEntity
  8
0
  6
ByLayer
 62
  256
370
   -1
100
AcDbCircle
 10
-96.8523984
 20
6.159941400000008
 40
0.5
100
AcDbArc
 50
350
 51
80
  0
ARC
  5
84
100
AcDbEntity
  8
0
  6
ByLayer
 62
  256
370
   -1
100
AcDbCircle
 10
-111.9123254
 20
-4.385132999999996
 40
0.5
100
AcDbArc
 50
170
 51
260
  0
ARC
  5
85
100
AcDbEntity
  8
0
  6
ByLayer
 62
  256
370
   -1
100
AcDbCircle
 10
-99.10982469999999
 20
-6.642559300000002
 40
0.5
100
AcDbArc
 50
260
 51
350
  0
LINE
  5
86
100
AcDbEntity
  8
0
  6
ByLayer
 62
  256
370
   -1
100
AcDbLine
 10
-129.9826616
 20
2.837475499999996
 11
-117.1801608
 21
0.5800492000000048
  0
LINE
  5
87
100
AcDbEntity
  8
0
  6
ByLayer
 62
  256
370
   -1
100
AcDbLine
 10
-132.413736
 20
-10.949833
 11
-119.6112352
 21
-13.2072593
  0
LINE
  5
88
100
AcDbEntity
  8
0
  6
ByLayer
 62
  256
370
   -1
100
AcDbLine
 10
-130.5618895
 20
2.431895699999998
 11
-132.8193158
 21
-10.37060509999999
  0
LINE
  5
89
100
AcDbEntity
  8
0
  6
ByLayer
 62
  256
370
   -1
100
AcDbLine
 10
-116.774581
 20
0.0008212999999983595
 11
-119.0320073
 21
-12.80167949999999
  0
ARC
  5
8A
100
AcDbEntity
  8
0
  6
ByLayer
 62
  256
370
   -1
100
AcDbCircle
 10
-130.0694856
 20
2.345071599999997
 40
0.5
100
AcDbArc
 50
80
 51
170
  0
ARC
  5
8B
100
AcDbEntity
  8
0
  6
ByLayer
 62
  256
370
   -1
100
AcDbCircle
 10
-117.2669849
 20
0.08764530000000548
 40
0.5
100
AcDbArc
 50
350
 51
80
  0
ARC
  5
8C
100
AcDbEntity
  8
0
  6
ByLayer
 62
  256
370
   -1
100
AcDbCircle
 10
-132.3269119
 20
-10.4574291
 40
0.5
100
AcDbArc
 50
170
 51
260
  0
ARC
  5
8D
100
AcDbEntity
  8
0
  6
ByLayer
 62
  256
370
   -1
100
AcDbCircle
 10
-119.5244112
 20
-12.7148554
 40
0.5
100
AcDbArc
 50
260
 51
350
  0
LINE
  5
8E
100
AcDbEntity
  8
0
  6
ByLayer
 62
  256
370
   -1
100
AcDbLine
 10
-79.122499
 20
55.7103513
 11
-66.430651
 21
52.89663640000001
  0
LINE
  5
8F
100
AcDbEntity
  8
0
  6
ByLayer
 62
  256
370
   -1
100
AcDbLine
 10
-82.15265360000001
 20
42.04220720000001
 11
-69.4608056
 21
39.2284923
  0
LINE
  5
90
100
AcDbEntity
  8
0
  6
ByLayer
 62
  256
370
   -1
100
AcDbLine
 10
-79.71886689999999
 20
55.3304231
 11
-82.5325818
 21
42.6385751
  0
LINE
  5
91
100
AcDbEntity
  8
0
  6
ByLayer
 62
  256
370
   -1
100
AcDbLine
 10
-66.0507228
 20
52.3002685
 11
-68.8644377
 21
39.60842049999999
  0
ARC
  5
92
100
AcDbEntity
  8
0
  6
ByLayer
 62
  256
370
   -1
100
AcDbCircle
 10
-79.2307189
 20
55.2222033
 40
0.5
100
AcDbArc
 50
77.5
 51
167.5
  0
ARC
  5
93
100
AcDbEntity
  8
0
  6
ByLayer
 62
  256
370
   -1
100
AcDbCircle
 10
-66.5388708
 20
52.4084884
 40
0.5
100
AcDbArc
 50
347.5
 51
77.5
  0
ARC
  5
94
100
AcDbEntity
  8
0
  6
ByLayer
 62
  256
370
   -1
100
AcDbCircle
 10
-82.04443380000001
 20
42.5303552
 40
0.5
100
AcDbArc
 50
167.5
 51
257.5
  0
ARC
  5
95
100
AcDbEntity
  8
0
  6
ByLayer
 62
  256
370
   -1
100
AcDbCircle
 10
-69.35258570000001
 20
39.71664029999999
 40
0.5
100
AcDbArc
 50
257.5
 51
347.5
  0
LINE
  5
96
100
AcDbEntity
  8
0
  6
ByLayer
 62
  256
370
   -1
100
AcDbLine
 10
-83.2456737
 20
37.11191239999999
 11
-70.5538257
 21
34.2981975
  0
LINE
  5
97
100
AcDbEntity
  8
0
  6
ByLayer
 62
  256
370
   -1
100
AcDbLine
 10
-86.2758283
 20
23.4437683
 11
-73.58398029999999
 21
20.63005340000001
  0
LINE
  5
98
100
AcDbEntity
  8
0
  6
ByLayer
 62
  256
370
   -1
100
AcDbLine
 10
-83.8420416
 20
36.7319842
 11
-86.6557565
 21
24.04013620000001
  0
LINE
  5
99
100
AcDbEntity
  8
0
  6
ByLayer
 62
  256
370
   -1
100
AcDbLine
 10
-70.1738975
 20
33.7018296
 11
-72.9876124
 21
21.0099816
  0
ARC
  5
9A
100
AcDbEntity
  8
0
  6
ByLayer
 62
  256
370
   -1
100
AcDbCircle
 10
-83.35389359999999
 20
36.6237644
 40
0.5
100
AcDbArc
 50
77.5
 51
167.5
  0
ARC
  5
9B
100
AcDbEntity
  8
0
  6
ByLayer
 62
  256
370
   -1
100
AcDbCircle
 10
-70.6620455
 20
33.81004949999999
 40
0.5
100
AcDbArc
 50
347.5
 51
77.5
  0
ARC
  5
9C
100
AcDbEntity
  8
0
  6
ByLayer
 62
  256
370
   -1
100
AcDbCircle
 10
-86.1676085
 20
23.93191630000001
 40
0.5
100
AcDbArc
 50
167.5
 51
257.5
  0
ARC
  5
9D
100
AcDbEntity
  8
0
  6
ByLayer
 62
  256
370
   -1
100
AcDbCircle
 10
-73.4757604
 20
21.1182014
 40
0.5
100
AcDbArc
 50
257.5
 51
347.5
  0
LINE
  5
9E
100
AcDbEntity
  8
0
  6
ByLayer
 62
  256
370
   -1
100
AcDbLine
 10
-87.3688483
 20
18.51347340000001
 11
-74.6770003
 21
15.6997585
  0
LINE
  5
9F
100
AcDbEntity
  8
0
  6
ByLayer
 62
  256
370
   -1
100
AcDbLine
 10
-90.3990029
 20
4.845329300000003
 11
-77.70715490000001
 21
2.031614399999995
  0
LINE
  5
A0
100
AcDbEntity
  8
0
  6
ByLayer
 62
  256
370
   -1
100
AcDbLine
 10
-87.9652162
 20
18.1335452
 11
-90.77893109999999
 21
5.441697200000007
  0
LINE
  5
A1
100
AcDbEntity
  8
0
  6
ByLayer
 62
  256
370
   -1
100
AcDbLine
 10
-74.29707209999999
 20
15.10339060000001
 11
-77.110787
 21
2.411542600000004
  0
ARC
  5
A2
100
AcDbEntity
  8
0
  6
ByLayer
 62
  256
370
   -1
100
AcDbCircle
 10
-87.47706819999999
 20
18.0253254
 40
0.5
100
AcDbArc
 50
77.5
 51
167.5
  0
ARC
  5
A3
100
AcDbEntity
  8
0
  6
ByLayer
 62
  256
370
   -1
100
AcDbCircle
 10
-74.7852201
 20
15.21161050000001
 40
0.5
100
AcDbArc
 50
347.5
 51
77.5
  0
ARC
  5
A4
100
AcDbEntity
  8
0
  6
ByLayer
 62
  256
370
   -1
100
AcDbCircle
 10
-90.2907831
 20
5.333477299999998
 40
0.5
100
AcDbArc
 50
167.5
 51
257.5
  0
ARC
  5
A5
100
AcDbEntity
  8
0
  6
ByLayer
 62
  256
370
   -1
100
AcDbCircle
 10
-77.598935
 20
2.519762400000005
 40
0.5
100
AcDbArc
 50
257.5
 51
347.5
  0
LINE
  5
A6
100
AcDbEntity
  8
0
  6
ByLayer
 62
  256
370
   -1
100
AcDbLine
 10
-58.7907505
 20
47.69943910000001
 11
-46.23371469999999
 21
44.33479149999999
  0
LINE
  5
A7
100
AcDbEntity
  8
0
  6
ByLayer
 62
  256
370
   -1
100
AcDbLine
 10
-62.4142171
 20
34.1764775
 11
-49.85718129999999
 21
30.81182989999999
  0
LINE
  5
A8
100
AcDbEntity
  8
0
  6
ByLayer
 62
  256
370
   -1
100
AcDbLine
 10
-59.4031229
 20
47.3458857
 11
-62.7677705
 21
34.7888499
  0
LINE
  5
A9
100
AcDbEntity
  8
0
  6
ByLayer
 62
  256
370
   -1
100
AcDbLine
 10
-45.8801613
 20
43.7224191
 11
-49.2448089
 21
31.1653833
  0
ARC
  5
AA
100
AcDbEntity
  8
0
  6
ByLayer
 62
  256
370
   -1
100
AcDbCircle
 10
-58.92016
 20
47.2164762
 40
0.5
100
AcDbArc
 50
75
 51
165
  0
ARC
  5
AB
100
AcDbEntity
  8
0
  6
ByLayer
 62
  256
370
   -1
100
AcDbCircle
 10
-46.3631242
 20
43.8518286
 40
0.5
100
AcDbArc
 50
345
 51
75
  0
ARC
  5
AC
100
AcDbEntity
  8
0
  6
ByLayer
 62
  256
370
   -1
100
AcDbCircle
 10
-62.28480759999999
 20
34.65944039999999
 40
0.5
100
AcDbArc
 50
165
 51
255
  0
ARC
  5
AD
100
AcDbEntity
  8
0
  6
ByLayer
 62
  256
370
   -1
100
AcDbCircle
 10
-49.7277718
 20
31.29479280000001
 40
0.5
100
AcDbArc
 50
255
 51
345
  0
LINE
  5
AE
100
AcDbEntity
  8
0
  6
ByLayer
 62
  256
370
   -1
100
AcDbLine
 10
-41.6224893
 20
38.16871449999999
 11
-29.0654535
 21
34.80406690000001
  0
LINE
  5
AF
100
AcDbEntity
  8
0
  6
ByLayer
 62
  256
370
   -1
100
AcDbLine
 10
-45.2459559
 20
24.64575289999999
 11
-32.6889201
 21
21.28110530000001
  0
LINE
  5
B0
100
AcDbEntity
  8
0
  6
ByLayer
 62
  256
370
   -1
100
AcDbLine
 10
-42.2348617
 20
37.81516110000001
 11
-45.59950929999999
 21
25.2581253
  0
LINE
  5
B1
100
AcDbEntity
  8
0
  6
ByLayer
 62
  256
370
   -1
100
AcDbLine
 10
-28.71190009999999
 20
34.19169450000001
 11
-32.07654770000001
 21
21.6346587
  0
ARC
  5
B2
100
AcDbEntity
  8
0
  6
ByLayer
 62
  256
370
   -1
100
AcDbCircle
 10
-41.75189879999999
 20
37.6857516
 40
0.5
100
AcDbArc
 50
75
 51
165
  0
ARC
  5
B3
100
AcDbEntity
  8
0
  6
ByLayer
 62
  256
370
   -1
100
AcDbCircle
 10
-29.194863
 20
34.32110399999999
 40
0.5
100
AcDbArc
 50
345
 51
75
  0
ARC
  5
B4
100
AcDbEntity
  8
0
  6
ByLayer
 62
  256
370
   -1
100
AcDbCircle
 10
-45.1165464
 20
25.12871580000001
 40
0.5
100
AcDbArc
 50
165
 51
255
  0
ARC
  5
B5
100
AcDbEntity
  8
0
  6
ByLayer
 62
  256
370
   -1
100
AcDbCircle
 10
-32.5595106
 20
21.7640682
 40
0.5
100
AcDbArc
 50
255
 51
345
  0
LINE
  5
B6
100
AcDbEntity
  8
0
  6
ByLayer
 62
  256
370
   -1
100
AcDbLine
 10
-24.454228
 20
28.63799
 11
-11.89719220000001
 21
25.2733424
  0
LINE
  5
B7
100
AcDbEntity
  8
0
  6
ByLayer
 62
  256
370
   -1
100
AcDbLine
 10
-28.0776946
 20
15.1150284
 11
-15.52065879999999
 21
11.7503808
  0
LINE
  5
B8
100
AcDbEntity
  8
0
  6
ByLayer
 62
  256
370
   -1
100
AcDbLine
 10
-25.0666004
 20
28.28443659999999
 11
-28.431248
 21
15.7274008
  0
LINE
  5
B9
100
AcDbEntity
  8
0
  6
ByLayer
 62
  256
370
   -1
100
AcDbLine
 10
-11.5436388
 20
24.66096999999999
 11
-14.90828639999999
 21
12.1039342
  0
ARC
  5
BA
100
AcDbEntity
  8
0
  6
ByLayer
 62
  256
370
   -1
100
AcDbCircle
 10
-24.58363749999999
 20
28.1550271
 40
0.5
100
AcDbArc
 50
75
 51
165
  0
ARC
  5
BB
100
AcDbEntity
  8
0
  6
ByLayer
 62
  256
370
   -1
100
AcDbCircle
 10
-12.02660169999999
 20
24.7903795
 40
0.5
100
AcDbArc
 50
345
 51
75
  0
ARC
  5
BC
100
AcDbEntity
  8
0
  6
ByLayer
 62
  256
370
   -1
100
AcDbCircle
 10
-27.94828509999999
 20
15.5979913
 40
0.5
100
AcDbArc
 50
165
 51
255
  0
ARC
  5
BD
100
AcDbEntity
  8
0
  6
ByLayer
 62
  256
370
   -1
100
AcDbCircle
 10
-15.3912493
 20
12.23334370000001
 40
0.5
100
AcDbArc
 50
255
 51
345
  0
LINE
  5
BE
100
AcDbEntity
  8
0
  6
ByLayer
 62
  256
370
   -1
100
AcDbLine
 10
-63.72125339999999
 20
29.29855209999999
 11
-51.1642176
 21
25.93390450000001
  0
LINE
  5
BF
100
AcDbEntity
  8
0
  6
ByLayer
 62
  256
370
   -1
100
AcDbLine
 10
-67.34472
 20
15.77559049999999
 11
-54.7876842
 21
12.41094290000001
  0
LINE
  5
C0
100
AcDbEntity
  8
0
  6
ByLayer
 62
  256
370
   -1
100
AcDbLine
 10
-64.33362579999999
 20
28.9449987
 11
-67.69827340000001
 21
16.38796289999999
  0
LINE
  5
C1
100
AcDbEntity
  8
0
  6
ByLayer
 62
  256
370
   -1
100
AcDbLine
 10
-50.81066420000001
 20
25.3215321
 11
-54.1753118
 21
12.7644963
  0
ARC
  5
C2
100
AcDbEntity
  8
0
  6
ByLayer
 62
  256
370
   -1
100
AcDbCircle
 10
-63.8506629
 20
28.81558920000001
 40
0.5
100
AcDbArc
 50
75
 51
165
  0
ARC
  5
C3
100
AcDbEntity
  8
0
  6
ByLayer
 62
  256
370
   -1
100
AcDbCircle
 10
-51.29362709999999
 20
25.45094159999999
 40
0.5
100
AcDbArc
 50
345
 51
75
  0
ARC
  5
C4
100
AcDbEntity
  8
0
  6
ByLayer
 62
  256
370
   -1
100
AcDbCircle
 10
-67.2153105
 20
16.25855340000001
 40
0.5
100
AcDbArc
 50
165
 51
255
  0
ARC
  5
C5
100
AcDbEntity
  8
0
  6
ByLayer
 62
  256
370
   -1
100
AcDbCircle
 10
-54.65827469999999
 20
12.8939058
 40
0.5
100
AcDbArc
 50
255
 51
345
  0
LINE
  5
C6
100
AcDbEntity
  8
0
  6
ByLayer
 62
  256
370
   -1
100
AcDbLine
 10
-46.5529921
 20
19.76782750000001
 11
-33.9959563
 21
16.4031799
  0
LINE
  5
C7
100
AcDbEntity
  8
0
  6
ByLayer
 62
  256
370
   -1
100
AcDbLine
 10
-50.1764587
 20
6.244865900000008
 11
-37.6194229
 21
2.880218299999996
  0
LINE
  5
C8
100
AcDbEntity
  8
0
  6
ByLayer
 62
  256
370
   -1
100
AcDbLine
 10
-47.1653645
 20
19.4142741
 11
-50.53001209999999
 21
6.857238300000006
  0
LINE
  5
C9
100
AcDbEntity
  8
0
  6
ByLayer
 62
  256
370
   -1
100
AcDbLine
 10
-33.64240289999999
 20
15.7908075
 11
-37.00705050000001
 21
3.233771700000005
  0
ARC
  5
CA
100
AcDbEntity
  8
0
  6
ByLayer
 62
  256
370
   -1
100
AcDbCircle
 10
-46.68240160000001
 20
19.28486459999999
 40
0.5
100
AcDbArc
 50
75
 51
165
  0
ARC
  5
CB
100
AcDbEntity
  8
0
  6
ByLayer
 62
  256
370
   -1
100
AcDbCircle
 10
-34.1253658
 20
15.92021700000001
 40
0.5
100
AcDbArc
 50
345
 51
75
  0
ARC
  5
CC
100
AcDbEntity
  8
0
  6
ByLayer
 62
  256
370
   -1
100
AcDbCircle
 10
-50.0470492
 20
6.727828799999997
 40
0.5
100
AcDbArc
 50
165
 51
255
  0
ARC
  5
CD
100
AcDbEntity
  8
0
  6
ByLayer
 62
  256
370
   -1
100
AcDbCircle
 10
-37.4900134
 20
3.3631812
 40
0.5
100
AcDbArc
 50
255
 51
345
  0
LINE
  5
CE
100
AcDbEntity
  8
0
  6
ByLayer
 62
  256
370
   -1
100
AcDbLine
 10
-29.3847308
 20
10.237103
 11
-16.82769500000001
 21
6.872455400000007
  0
LINE
  5
CF
100
AcDbEntity
  8
0
  6
ByLayer
 62
  256
370
   -1
100
AcDbLine
 10
-33.0081974
 20
-3.285858599999997
 11
-20.45116160000001
 21
-6.650506199999995
  0
LINE
  5
D0
100
AcDbEntity
  8
0
  6
ByLayer
 62
  256
370
   -1
100
AcDbLine
 10
-29.9971032
 20
9.883549600000009
 11
-33.3617508
 21
-2.673486199999999
  0
LINE
  5
D1
100
AcDbEntity
  8
0
  6
ByLayer
 62
  256
370
   -1
100
AcDbLine
 10
-16.4741416
 20
6.260083000000009
 11
-19.83878919999999
 21
-6.2969528
  0
ARC
  5
D2
100
AcDbEntity
  8
0
  6
ByLayer
 62
  256
370
   -1
100
AcDbCircle
 10
-29.51414029999999
 20
9.754140100000001
 40
0.5
100
AcDbArc
 50
75
 51
165
  0
ARC
  5
D3
100
AcDbEntity
  8
0
  6
ByLayer
 62
  256
370
   -1
100
AcDbCircle
 10
-16.9571045
 20
6.389492500000003
 40
0.5
100
AcDbArc
 50
345
 51
75
  0
ARC
  5
D4
100
AcDbEntity
  8
0
  6
ByLayer
 62
  256
370
   -1
100
AcDbCircle
 10
-32.87878790000001
 20
-2.802895699999993
 40
0.5
100
AcDbArc
 50
165
 51
255
  0
ARC
  5
D5
100
AcDbEntity
  8
0
  6
ByLayer
 62
  256
370
   -1
100
AcDbCircle
 10
-20.3217521
 20
-6.167543300000006
 40
0.5
100
AcDbArc
 50
255
 51
345
  0
LINE
  5
D6
100
AcDbEntity
  8
0
  6
ByLayer
 62
  256
370
   -1
100
AcDbLine
 10
-68.65175619999999
 20
10.89766510000001
 11
-56.0947204
 21
7.5330175
  0
LINE
  5
D7
100
AcDbEntity
  8
0
  6
ByLayer
 62
  256
370
   -1
100
AcDbLine
 10
-72.27522279999999
 20
-2.625296500000005
 11
-59.718187
 21
-5.989944100000002
  0
LINE
  5
D8
100
AcDbEntity
  8
0
  6
ByLayer
 62
  256
370
   -1
100
AcDbLine
 10
-69.26412859999999
 20
10.5441117
 11
-72.6287762
 21
-2.012924099999992
  0
LINE
  5
D9
100
AcDbEntity
  8
0
  6
ByLayer
 62
  256
370
   -1
100
AcDbLine
 10
-55.741167
 20
6.920645100000002
 11
-59.1058146
 21
-5.636390699999993
  0
ARC
  5
DA
100
AcDbEntity
  8
0
  6
ByLayer
 62
  256
370
   -1
100
AcDbCircle
 10
-68.7811657
 20
10.41470219999999
 40
0.5
100
AcDbArc
 50
75
 51
165
  0
ARC
  5
DB
100
AcDbEntity
  8
0
  6
ByLayer
 62
  256
370
   -1
100
AcDbCircle
 10
-56.22412989999999
 20
7.05005460000001
 40
0.5
100
AcDbArc
 50
345
 51
75
  0
ARC
  5
DC
100
AcDbEntity
  8
0
  6
ByLayer
 62
  256
370
   -1
100
AcDbCircle
 10
-72.1458133
 20
-2.142333600000001
 40
0.5
100
AcDbArc
 50
165
 51
255
  0
ARC
  5
DD
100
AcDbEntity
  8
0
  6
ByLayer
 62
  256
370
   -1
100
AcDbCircle
 10
-59.58877750000001
 20
-5.506981199999998
 40
0.5
100
AcDbArc
 50
255
 51
345
  0
LINE
  5
DE
100
AcDbEntity
  8
0
  6
ByLayer
 62
  256
370
   -1
100
AcDbLine
 10
-51.4834949
 20
1.366940499999998
 11
-38.9264591
 21
-1.9977071
  0
LINE
  5
DF
100
AcDbEntity
  8
0
  6
ByLayer
 62
  256
370
   -1
100
AcDbLine
 10
-55.1069615
 20
-12.1560211
 11
-42.5499257
 21
-15.5206687
  0
LINE
  5
E0
100
AcDbEntity
  8
0
  6
ByLayer
 62
  256
370
   -1
100
AcDbLine
 10
-52.09586729999999
 20
1.013387100000003
 11
-55.46051489999999
 21
-11.54364870000001
  0
LINE
  5
E1
100
AcDbEntity
  8
0
  6
ByLayer
 62
  256
370
   -1
100
AcDbLine
 10
-38.57290569999999
 20
-2.610079499999998
 11
-41.9375533
 21
-15.16711529999999
  0
ARC
  5
E2
100
AcDbEntity
  8
0
  6
ByLayer
 62
  256
370
   -1
100
AcDbCircle
 10
-51.61290440000001
 20
0.8839775999999944
 40
0.5
100
AcDbArc
 50
75
 51
165
  0
ARC
  5
E3
100
AcDbEntity
  8
0
  6
ByLayer
 62
  256
370
   -1
100
AcDbCircle
 10
-39.0558686
 20
-2.480670000000003
 40
0.5
100
AcDbArc
 50
345
 51
75
  0
ARC
  5
E4
100
AcDbEntity
  8
0
  6
ByLayer
 62
  256
370
   -1
100
AcDbCircle
 10
-54.977552
 20
-11.6730582
 40
0.5
100
AcDbArc
 50
165
 51
255
  0
ARC
  5
E5
100
AcDbEntity
  8
0
  6
ByLayer
 62
  256
370
   -1
100
AcDbCircle
 10
-42.42051619999999
 20
-15.0377058
 40
0.5
100
AcDbArc
 50
255
 51
345
  0
LINE
  5
E6
100
AcDbEntity
  8
0
  6
ByLayer
 62
  256
370
   -1
100
AcDbLine
 10
-34.3152336
 20
-8.163783999999993
 11
-21.7581978
 21
-11.5284316
  0
LINE
  5
E7
100
AcDbEntity
  8
0
  6
ByLayer
 62
  256
370
   -1
100
AcDbLine
 10
-37.9387002
 20
-21.68674559999999
 11
-25.38166440000001
 21
-25.05139319999999
  0
LINE
  5
E8
100
AcDbEntity
  8
0
  6
ByLayer
 62
  256
370
   -1
100
AcDbLine
 10
-34.927606
 20
-8.517337400000002
 11
-38.2922536
 21
-21.0743732
  0
LINE
  5
E9
100
AcDbEntity
  8
0
  6
ByLayer
 62
  256
370
   -1
100
AcDbLine
 10
-21.4046444
 20
-12.140804
 11
-24.76929199999999
 21
-24.6978398
  0
ARC
  5
EA
100
AcDbEntity
  8
0
  6
ByLayer
 62
  256
370
   -1
100
AcDbCircle
 10
-34.44464309999999
 20
-8.646746899999997
 40
0.5
100
AcDbArc
 50
75
 51
165
  0
ARC
  5
EB
100
AcDbEntity
  8
0
  6
ByLayer
 62
  256
370
   -1
100
AcDbCircle
 10
-21.8876073
 20
-12.01139449999999
 40
0.5
100
AcDbArc
 50
345
 51
75
  0
ARC
  5
EC
100
AcDbEntity
  8
0
  6
ByLayer
 62
  256
370
   -1
100
AcDbCircle
 10
-37.80929070000001
 20
-21.2037827
 40
0.5
100
AcDbArc
 50
165
 51
255
  0
ARC
  5
ED
100
AcDbEntity
  8
0
  6
ByLayer
 62
  256
370
   -1
100
AcDbCircle
 10
-25.2522549
 20
-24.5684303
 40
0.5
100
AcDbArc
 50
255
 51
345
  0
LINE
  5
EE
100
AcDbEntity
  8
0
  6
ByLayer
 62
  256
370
   -1
100
AcDbLine
 10
-62.79549059999999
 20
-19.0658881
 11
-50.5794866
 21
-23.51215000000001
  0
LINE
  5
EF
100
AcDbEntity
  8
0
  6
ByLayer
 62
  256
370
   -1
100
AcDbLine
 10
-67.5837726
 20
-32.2215848
 11
-55.36776860000001
 21
-36.6678467
  0
LINE
  5
F0
100
AcDbEntity
  8
0
  6
ByLayer
 62
  256
370
   -1
100
AcDbLine
 10
-63.436347
 20
-19.3647244
 11
-67.88260889999999
 21
-31.5807284
  0
LINE
  5
F1
100
AcDbEntity
  8
0
  6
ByLayer
 62
  256
370
   -1
100
AcDbLine
 10
-50.2806503
 20
-24.1530064
 11
-54.7269122
 21
-36.36901039999999
  0
ARC
  5
F2
100
AcDbEntity
  8
0
  6
ByLayer
 62
  256
370
   -1
100
AcDbCircle
 10
-62.9665007
 20
-19.5357344
 40
0.5
100
AcDbArc
 50
70
 51
160
  0
ARC
  5
F3
100
AcDbEntity
  8
0
  6
ByLayer
 62
  256
370
   -1
100
AcDbCircle
 10
-50.75049660000001
 20
-23.98199630000001
 40
0.5
100
AcDbArc
 50
340
 51
70
  0
ARC
  5
F4
100
AcDbEntity
  8
0
  6
ByLayer
 62
  256
370
   -1
100
AcDbCircle
 10
-67.41276259999999
 20
-31.7517385
 40
0.5
100
AcDbArc
 50
160
 51
250
  0
ARC
  5
F5
100
AcDbEntity
  8
0
  6
ByLayer
 62
  256
370
   -1
100
AcDbCircle
 10
-55.1967585
 20
-36.1980004
 40
0.5
100
AcDbArc
 50
250
 51
340
  0
LINE
  5
F6
100
AcDbEntity
  8
0
  6
ByLayer
 62
  256
370
   -1
100
AcDbLine
 10
-41.9982926
 20
-27.53371249999999
 11
-30.4671518
 21
-33.5364445
  0
LINE
  5
F7
100
AcDbEntity
  8
0
  6
ByLayer
 62
  256
370
   -1
100
AcDbLine
 10
-48.4627732
 20
-39.95186409999999
 11
-36.9316324
 21
-45.9545961
  0
LINE
  5
F8
100
AcDbEntity
  8
0
  6
ByLayer
 62
  256
370
   -1
100
AcDbLine
 10
-42.6726723
 20
-27.7463436
 11
-48.6754043
 21
-39.27748440000001
  0
LINE
  5
F9
100
AcDbEntity
  8
0
  6
ByLayer
 62
  256
370
   -1
100
AcDbLine
 10
-30.2545207
 20
-34.2108242
 11
-36.2572527
 21
-45.74196499999999
  0
ARC
  5
FA
100
AcDbEntity
  8
0
  6
ByLayer
 62
  256
370
   -1
100
AcDbCircle
 10
-42.2291669
 20
-27.9772179
 40
0.5
100
AcDbArc
 50
62.50000000000001
 51
152.5
  0
ARC
  5
FB
100
AcDbEntity
  8
0
  6
ByLayer
 62
  256
370
   -1
100
AcDbCircle
 10
-30.69802609999999
 20
-33.97994989999999
 40
0.5
100
AcDbArc
 50
332.5
 51
62.50000000000001
  0
ARC
  5
FC
100
AcDbEntity
  8
0
  6
ByLayer
 62
  256
370
   -1
100
AcDbCircle
 10
-48.2318989
 20
-39.5083587
 40
0.5
100
AcDbArc
 50
152.5
 51
242.5
  0
ARC
  5
FD
100
AcDbEntity
  8
0
  6
ByLayer
 62
  256
370
   -1
100
AcDbCircle
 10
-36.7007581
 20
-45.5110907
 40
0.5
100
AcDbArc
 50
242.5
 51
332.5
  0
LINE
  5
FE
100
AcDbEntity
  8
0
  6
ByLayer
 62
  256
370
   -1
100
AcDbLine
 10
-8.062688900000012
 20
-44.4030468
 11
-15.5191825
 21
-55.0520233
  0
LINE
  5
FF
100
AcDbEntity
  8
0
  6
ByLayer
 62
  256
370
   -1
100
AcDbLine
 10
-19.5308175
 20
-36.3729767
 11
-26.9873111
 21
-47.0219532
  0
LINE
  5
100
100
AcDbEntity
  8
0
  6
ByLayer
 62
  256
370
   -1
100
AcDbLine
 10
-8.185476700000009
 20
-43.7066825
 11
-18.8344532
 21
-36.2501889
  0
LINE
  5
101
100
AcDbEntity
  8
0
  6
ByLayer
 62
  256
370
   -1
100
AcDbLine
 10
-16.2155468
 20
-55.1748111
 11
-26.8645233
 21
-47.7183175
  0
ARC
  5
102
100
AcDbEntity
  8
0
  6
ByLayer
 62
  256
370
   -1
100
AcDbCircle
 10
-8.472264899999999
 20
-44.1162585
 40
0.5
100
AcDbArc
 50
325
 51
55
  0
ARC
  5
103
100
AcDbEntity
  8
0
  6
ByLayer
 62
  256
370
   -1
100
AcDbCircle
 10
-15.9287585
 20
-54.7652351
 40
0.5
100
AcDbArc
 50
235
 51
325
  0
ARC
  5
104
100
AcDbEntity
  8
0
  6
ByLayer
 62
  256
370
   -1
100
AcDbCircle
 10
-19.1212415
 20
-36.6597649
 40
0.5
100
AcDbArc
 50
55
 51
145
  0
ARC
  5
105
100
AcDbEntity
  8
0
  6
ByLayer
 62
  256
370
   -1
100
AcDbCircle
 10
-26.5777351
 20
-47.3087415
 40
0.5
100
AcDbArc
 50
145
 51
235
  0
LINE
  5
106
100
AcDbEntity
  8
keycap
  6
ByLayer
 62
  256
370
   -1
100
AcDbLine
 10
-1.527603466451964
 20
-39.47218070643419
 11
-17.91755009404397
 21
-62.87945037451006
  0
LINE
  5
107
100
AcDbEntity
  8
keycap
  6
ByLayer
 62
  256
370
   -1
100
AcDbLine
 10
-1.527603466451964
 20
-39.47218070643419
 11
-17.13244990595602
 21
-28.54554962548994
  0
LINE
  5
108
100
AcDbEntity
  8
keycap
  6
ByLayer
 62
  256
370
   -1
100
AcDbLine
 10
-17.91755009404397
 20
-62.87945037451006
 11
-33.52239653354805
 21
-51.95281929356581
  0
LINE
  5
109
100
AcDbEntity
  8
keycap
  6
ByLayer
 62
  256
370
   -1
100
AcDbLine
 10
-17.13244990595602
 20
-28.54554962548994
 11
-33.52239653354805
 21
-51.95281929356581
  0
LINE
  5
10A
100
AcDbEntity
  8
0
  6
ByLayer
 62
  256
370
   -1
100
AcDbLine
 10
101.3650917
 20
-18.03688809999997
 11
88.36509169999999
 21
-18.03688809999997
  0
LINE
  5
10B
100
AcDbEntity
  8
0
  6
ByLayer
 62
  256
370
   -1
100
AcDbLine
 10
101.3650917
 20
-32.03688809999997
 11
88.36509169999999
 21
-32.03688809999997
  0
LINE
  5
10C
100
AcDbEntity
  8
0
  6
ByLayer
 62
  256
370
   -1
100
AcDbLine
 10
101.8650917
 20
-18.53688809999997
 11
101.8650917
 21
-31.53688809999997
  0
LINE
  5
10D
100
AcDbEntity
  8
0
  6
ByLayer
 62
  256
370
   -1
100
AcDbLine
 10
87.86509169999999
 20
-18.53688809999997
 11
87.86509169999999
 21
-31.53688809999997
  0
ARC
  5
10E
100
AcDbEntity
  8
0
  6
ByLayer
 62
  256
370
   -1
100
AcDbCircle
 10
101.3650917
 20
-18.53688809999997
 40
0.5
100
AcDbArc
 50
0
 51
90
  0
ARC
  5
10F
100
AcDbEntity
  8
0
  6
ByLayer
 62
  256
370
   -1
100
AcDbCircle
 10
88.36509169999999
 20
-18.53688809999997
 40
0.5
100
AcDbArc
 50
90
 51
180
  0
ARC
  5
110
100
AcDbEntity
  8
0
  6
ByLayer
 62
  256
370
   -1
100
AcDbCircle
 10
101.3650917
 20
-31.53688809999997
 40
0.5
100
AcDbArc
 50
270
 51
0
  0
ARC
  5
111
100
AcDbEntity
  8
0
  6
ByLayer
 62
  256
370
   -1
100
AcDbCircle
 10
88.36509169999999
 20
-31.53688809999997
 40
0.5
100
AcDbArc
 50
180
 51
270
  0
LINE
  5
112
100
AcDbEntity
  8
0
  6
ByLayer
 62
  256
370
   -1
100
AcDbLine
 10
102.9520795
 20
46.43094700000006
 11
90.14957870000001
 21
44.17352069999991
  0
LINE
  5
113
100
AcDbEntity
  8
0
  6
ByLayer
 62
  256
370
   -1
100
AcDbLine
 10
105.3831539
 20
32.64363850000001
 11
92.58065310000001
 21
30.38621220000003
  0
LINE
  5
114
100
AcDbEntity
  8
0
  6
ByLayer
 62
  256
370
   -1
100
AcDbLine
 10
103.5313074
 20
46.02536719999995
 11
105.7887337
 21
33.22286639999997
  0
LINE
  5
115
100
AcDbEntity
  8
0
  6
ByLayer
 62
  256
370
   -1
100
AcDbLine
 10
89.74399890000001
 20
43.59429280000006
 11
92.0014252
 21
30.79179199999997
  0
ARC
  5
116
100
AcDbEntity
  8
0
  6
ByLayer
 62
  256
370
   -1
100
AcDbCircle
 10
103.0389035
 20
45.9385431
 40
0.5
100
AcDbArc
 50
9.999999999999989
 51
100
  0
ARC
  5
117
100
AcDbEntity
  8
0
  6
ByLayer
 62
  256
370
   -1
100
AcDbCircle
 10
90.23640280000001
 20
43.68111679999997
 40
0.5
100
AcDbArc
 50
100
 51
190
  0
ARC
  5
118
100
AcDbEntity
  8
0
  6
ByLayer
 62
  256
370
   -1
100
AcDbCircle
 10
105.2963298
 20
33.13604240000001
 40
0.5
100
AcDbArc
 50
280
 51
9.999999999999989
  0
ARC
  5
119
100
AcDbEntity
  8
0
  6
ByLayer
 62
  256
370
   -1
100
AcDbCircle
 10
92.4938291
 20
30.87861610000003
 40
0.5
100
AcDbArc
 50
190
 51
280
  0
LINE
  5
11A
100
AcDbEntity
  8
0
  6
ByLayer
 62
  256
370
   -1
100
AcDbLine
 10
123.3666661
 20
40.35865089999997
 11
110.5641653
 21
38.10122459999999
  0
LINE
  5
11B
100
AcDbEntity
  8
0
  6
ByLayer
 62
  256
370
   -1
100
AcDbLine
 10
125.7977405
 20
26.57134239999999
 11
112.9952397
 21
24.3139161
  0
LINE
  5
11C
100
AcDbEntity
  8
0
  6
ByLayer
 62
  256
370
   -1
100
AcDbLine
 10
123.945894
 20
39.95307109999997
 11
126.2033203
 21
27.1505703
  0
LINE
  5
11D
100
AcDbEntity
  8
0
  6
ByLayer
 62
  256
370
   -1
100
AcDbLine
 10
110.1585855
 20
37.52199669999997
 11
112.4160118
 21
24.7194959
  0
ARC
  5
11E
100
AcDbEntity
  8
0
  6
ByLayer
 62
  256
370
   -1
100
AcDbCircle
 10
123.4534901
 20
39.86624699999997
 40
0.5
100
AcDbArc
 50
9.999999999999989
 51
100
  0
ARC
  5
11F
100
AcDbEntity
  8
0
  6
ByLayer
 62
  256
370
   -1
100
AcDbCircle
 10
110.6509894
 20
37.6088207
 40
0.5
100
AcDbArc
 50
100
 51
190
  0
ARC
  5
120
100
AcDbEntity
  8
0
  6
ByLayer
 62
  256
370
   -1
100
AcDbCircle
 10
125.7109164
 20
27.06374629999999
 40
0.5
100
AcDbArc
 50
280
 51
9.999999999999989
  0
ARC
  5
121
100
AcDbEntity
  8
0
  6
ByLayer
 62
  256
370
   -1
100
AcDbCircle
 10
112.9084157
 20
24.80632
 40
0.5
100
AcDbArc
 50
190
 51
280
  0
LINE
  5
122
100
AcDbEntity
  8
0
  6
ByLayer
 62
  256
370
   -1
100
AcDbLine
 10
106.2600773
 20
27.67035929999994
 11
93.4575765
 21
25.41293300000001
  0
LINE
  5
123
100
AcDbEntity
  8
0
  6
ByLayer
 62
  256
370
   -1
100
AcDbLine
 10
108.6911517
 20
13.88305080000006
 11
95.8886509
 21
11.62562450000003
  0
LINE
  5
124
100
AcDbEntity
  8
0
  6
ByLayer
 62
  256
370
   -1
100
AcDbLine
 10
106.8393052
 20
27.2647795
 11
109.0967315
 21
14.46227870000008
  0
LINE
  5
125
100
AcDbEntity
  8
0
  6
ByLayer
 62
  256
370
   -1
100
AcDbLine
 10
93.05199669999999
 20
24.8337051
 11
95.30942300000001
 21
12.03120430000008
  0
ARC
  5
126
100
AcDbEntity
  8
0
  6
ByLayer
 62
  256
370
   -1
100
AcDbCircle
 10
106.3469013
 20
27.1779554
 40
0.5
100
AcDbArc
 50
9.999999999999989
 51
100
  0
ARC
  5
127
100
AcDbEntity
  8
0
  6
ByLayer
 62
  256
370
   -1
100
AcDbCircle
 10
93.54440059999999
 20
24.92052910000007
 40
0.5
100
AcDbArc
 50
100
 51
190
  0
ARC
  5
128
100
AcDbEntity
  8
0
  6
ByLayer
 62
  256
370
   -1
100
AcDbCircle
 10
108.6043276
 20
14.37545470000001
 40
0.5
100
AcDbArc
 50
280
 51
9.999999999999989
  0
ARC
  5
129
100
AcDbEntity
  8
0
  6
ByLayer
 62
  256
370
   -1
100
AcDbCircle
 10
95.80182690000001
 20
12.11802839999997
 40
0.5
100
AcDbArc
 50
190
 51
280
  0
LINE
  5
12A
100
AcDbEntity
  8
0
  6
ByLayer
 62
  256
370
   -1
100
AcDbLine
 10
126.6746639
 20
21.59806320000008
 11
113.8721631
 21
19.34063689999999
  0
LINE
  5
12B
100
AcDbEntity
  8
0
  6
ByLayer
 62
  256
370
   -1
100
AcDbLine
 10
129.1057383
 20
7.810754700000032
 11
116.3032375
 21
5.55332839999997
  0
LINE
  5
12C
100
AcDbEntity
  8
0
  6
ByLayer
 62
  256
370
   -1
100
AcDbLine
 10
127.2538918
 20
21.19248340000003
 11
129.5113181
 21
8.389982599999996
  0
LINE
  5
12D
100
AcDbEntity
  8
0
  6
ByLayer
 62
  256
370
   -1
100
AcDbLine
 10
113.4665833
 20
18.76140900000003
 11
115.7240096
 21
5.958908199999996
  0
ARC
  5
12E
100
AcDbEntity
  8
0
  6
ByLayer
 62
  256
370
   -1
100
AcDbCircle
 10
126.7614879
 20
21.10565930000003
 40
0.5
100
AcDbArc
 50
9.999999999999989
 51
100
  0
ARC
  5
12F
100
AcDbEntity
  8
0
  6
ByLayer
 62
  256
370
   -1
100
AcDbCircle
 10
113.9589872
 20
18.84823299999999
 40
0.5
100
AcDbArc
 50
100
 51
190
  0
ARC
  5
130
100
AcDbEntity
  8
0
  6
ByLayer
 62
  256
370
   -1
100
AcDbCircle
 10
129.0189142
 20
8.303158600000032
 40
0.5
100
AcDbArc
 50
280
 51
9.999999999999989
  0
ARC
  5
131
100
AcDbEntity
  8
0
  6
ByLayer
 62
  256
370
   -1
100
AcDbCircle
 10
116.2164135
 20
6.045732300000026
 40
0.5
100
AcDbArc
 50
190
 51
280
  0
LINE
  5
132
100
AcDbEntity
  8
0
  6
ByLayer
 62
  256
370
   -1
100
AcDbLine
 10
109.5680751
 20
8.909771599999999
 11
96.7655743
 21
6.652345299999979
  0
LINE
  5
133
100
AcDbEntity
  8
0
  6
ByLayer
 62
  256
370
   -1
100
AcDbLine
 10
111.9991495
 20
-4.877536899999967
 11
99.1966487
 21
-7.134963199999973
  0
LINE
  5
134
100
AcDbEntity
  8
0
  6
ByLayer
 62
  256
370
   -1
100
AcDbLine
 10
110.147303
 20
8.504191800000001
 11
112.4047293
 21
-4.298309000000003
  0
LINE
  5
135
100
AcDbEntity
  8
0
  6
ByLayer
 62
  256
370
   -1
100
AcDbLine
 10
96.3599945
 20
6.073117400000001
 11
98.61742079999999
 21
-6.729383400000003
  0
ARC
  5
136
100
AcDbEntity
  8
0
  6
ByLayer
 62
  256
370
   -1
100
AcDbCircle
 10
109.6548991
 20
8.4173677
 40
0.5
100
AcDbArc
 50
9.999999999999989
 51
100
  0
ARC
  5
137
100
AcDbEntity
  8
0
  6
ByLayer
 62
  256
370
   -1
100
AcDbCircle
 10
96.8523984
 20
6.15994139999998
 40
0.5
100
AcDbArc
 50
100
 51
190
  0
ARC
  5
138
100
AcDbEntity
  8
0
  6
ByLayer
 62
  256
370
   -1
100
AcDbCircle
 10
111.9123254
 20
-4.385133000000025
 40
0.5
100
AcDbArc
 50
280
 51
9.999999999999989
  0
ARC
  5
139
100
AcDbEntity
  8
0
  6
ByLayer
 62
  256
370
   -1
100
AcDbCircle
 10
99.10982469999999
 20
-6.64255930000003
 40
0.5
100
AcDbArc
 50
190
 51
280
  0
LINE
  5
13A
100
AcDbEntity
  8
0
  6
ByLayer
 62
  256
370
   -1
100
AcDbLine
 10
129.9826616
 20
2.837475499999996
 11
117.1801608
 21
0.5800492000000332
  0
LINE
  5
13B
100
AcDbEntity
  8
0
  6
ByLayer
 62
  256
370
   -1
100
AcDbLine
 10
132.413736
 20
-10.949833
 11
119.6112352
 21
-13.20725929999998
  0
LINE
  5
13C
100
AcDbEntity
  8
0
  6
ByLayer
 62
  256
370
   -1
100
AcDbLine
 10
130.5618895
 20
2.431895700000027
 11
132.8193158
 21
-10.37060509999996
  0
LINE
  5
13D
100
AcDbEntity
  8
0
  6
ByLayer
 62
  256
370
   -1
100
AcDbLine
 10
116.774581
 20
0.0008212999999983595
 11
119.0320073
 21
-12.80167949999999
  0
ARC
  5
13E
100
AcDbEntity
  8
0
  6
ByLayer
 62
  256
370
   -1
100
AcDbCircle
 10
130.0694856
 20
2.345071599999997
 40
0.5
100
AcDbArc
 50
9.999999999999989
 51
100
  0
ARC
  5
13F
100
AcDbEntity
  8
0
  6
ByLayer
 62
  256
370
   -1
100
AcDbCircle
 10
117.2669849
 20
0.08764529999997706
 40
0.5
100
AcDbArc
 50
100
 51
190
  0
ARC
  5
140
100
AcDbEntity
  8
0
  6
ByLayer
 62
  256
370
   -1
100
AcDbCircle
 10
132.3269119
 20
-10.45742910000003
 40
0.5
100
AcDbArc
 50
280
 51
9.999999999999989
  0
ARC
  5
141
100
AcDbEntity
  8
0
  6
ByLayer
 62
  256
370
   -1
100
AcDbCircle
 10
119.5244112
 20
-12.71485539999998
 40
0.5
100
AcDbArc
 50
190
 51
280
  0
LINE
  5
142
100
AcDbEntity
  8
0
  6
ByLayer
 62
  256
370
   -1
100
AcDbLine
 10
79.122499
 20
55.71035130000003
 11
66.430651
 21
52.89663640000006
  0
LINE
  5
143
100
AcDbEntity
  8
0
  6
ByLayer
 62
  256
370
   -1
100
AcDbLine
 10
82.15265360000001
 20
42.04220720000001
 11
69.4608056
 21
39.2284923
  0
LINE
  5
144
100
AcDbEntity
  8
0
  6
ByLayer
 62
  256
370
   -1
100
AcDbLine
 10
79.71886689999999
 20
55.33042310000003
 11
82.5325818
 21
42.63857510000005
  0
LINE
  5
145
100
AcDbEntity
  8
0
  6
ByLayer
 62
  256
370
   -1
100
AcDbLine
 10
66.0507228
 20
52.30026850000003
 11
68.8644377
 21
39.60842049999999
  0
ARC
  5
146
100
AcDbEntity
  8
0
  6
ByLayer
 62
  256
370
   -1
100
AcDbCircle
 10
79.2307189
 20
55.22220329999998
 40
0.5
100
AcDbArc
 50
12.50000000000001
 51
102.5
  0
ARC
  5
147
100
AcDbEntity
  8
0
  6
ByLayer
 62
  256
370
   -1
100
AcDbCircle
 10
66.5388708
 20
52.40848840000002
 40
0.5
100
AcDbArc
 50
102.5
 51
192.5
  0
ARC
  5
148
100
AcDbEntity
  8
0
  6
ByLayer
 62
  256
370
   -1
100
AcDbCircle
 10
82.04443380000001
 20
42.53035519999995
 40
0.5
100
AcDbArc
 50
282.5
 51
12.49999999999999
  0
ARC
  5
149
100
AcDbEntity
  8
0
  6
ByLayer
 62
  256
370
   -1
100
AcDbCircle
 10
69.35258570000001
 20
39.71664029999999
 40
0.5
100
AcDbArc
 50
192.5
 51
282.5
  0
LINE
  5
14A
100
AcDbEntity
  8
0
  6
ByLayer
 62
  256
370
   -1
100
AcDbLine
 10
83.2456737
 20
37.11191239999999
 11
70.5538257
 21
34.29819750000003
  0
LINE
  5
14B
100
AcDbEntity
  8
0
  6
ByLayer
 62
  256
370
   -1
100
AcDbLine
 10
86.2758283
 20
23.44376829999997
 11
73.58398029999999
 21
20.63005339999995
  0
LINE
  5
14C
100
AcDbEntity
  8
0
  6
ByLayer
 62
  256
370
   -1
100
AcDbLine
 10
83.8420416
 20
36.7319842
 11
86.6557565
 21
24.04013620000001
  0
LINE
  5
14D
100
AcDbEntity
  8
0
  6
ByLayer
 62
  256
370
   -1
100
AcDbLine
 10
70.1738975
 20
33.7018296
 11
72.9876124
 21
21.0099816
  0
ARC
  5
14E
100
AcDbEntity
  8
0
  6
ByLayer
 62
  256
370
   -1
100
AcDbCircle
 10
83.35389359999999
 20
36.6237644
 40
0.5
100
AcDbArc
 50
12.50000000000001
 51
102.5
  0
ARC
  5
14F
100
AcDbEntity
  8
0
  6
ByLayer
 62
  256
370
   -1
100
AcDbCircle
 10
70.6620455
 20
33.81004949999993
 40
0.5
100
AcDbArc
 50
102.5
 51
192.5
  0
ARC
  5
150
100
AcDbEntity
  8
0
  6
ByLayer
 62
  256
370
   -1
100
AcDbCircle
 10
86.1676085
 20
23.93191630000001
 40
0.5
100
AcDbArc
 50
282.5
 51
12.49999999999999
  0
ARC
  5
151
100
AcDbEntity
  8
0
  6
ByLayer
 62
  256
370
   -1
100
AcDbCircle
 10
73.4757604
 20
21.1182014
 40
0.5
100
AcDbArc
 50
192.5
 51
282.5
  0
LINE
  5
152
100
AcDbEntity
  8
0
  6
ByLayer
 62
  256
370
   -1
100
AcDbLine
 10
87.3688483
 20
18.51347340000001
 11
74.6770003
 21
15.69975849999994
  0
LINE
  5
153
100
AcDbEntity
  8
0
  6
ByLayer
 62
  256
370
   -1
100
AcDbLine
 10
90.3990029
 20
4.845329299999975
 11
77.70715490000001
 21
2.031614399999967
  0
LINE
  5
154
100
AcDbEntity
  8
0
  6
ByLayer
 62
  256
370
   -1
100
AcDbLine
 10
87.9652162
 20
18.13354520000003
 11
90.77893109999999
 21
5.441697200000007
  0
LINE
  5
155
100
AcDbEntity
  8
0
  6
ByLayer
 62
  256
370
   -1
100
AcDbLine
 10
74.29707209999999
 20
15.10339060000001
 11
77.110787
 21
2.411542600000004
  0
ARC
  5
156
100
AcDbEntity
  8
0
  6
ByLayer
 62
  256
370
   -1
100
AcDbCircle
 10
87.47706819999999
 20
18.02532539999997
 40
0.5
100
AcDbArc
 50
12.50000000000001
 51
102.5
  0
ARC
  5
157
100
AcDbEntity
  8
0
  6
ByLayer
 62
  256
370
   -1
100
AcDbCircle
 10
74.7852201
 20
15.21161050000001
 40
0.5
100
AcDbArc
 50
102.5
 51
192.5
  0
ARC
  5
158
100
AcDbEntity
  8
0
  6
ByLayer
 62
  256
370
   -1
100
AcDbCircle
 10
90.2907831
 20
5.333477299999998
 40
0.5
100
AcDbArc
 50
282.5
 51
12.49999999999999
  0
ARC
  5
159
100
AcDbEntity
  8
0
  6
ByLayer
 62
  256
370
   -1
100
AcDbCircle
 10
77.598935
 20
2.519762400000005
 40
0.5
100
AcDbArc
 50
192.5
 51
282.5
  0
LINE
  5
15A
100
AcDbEntity
  8
0
  6
ByLayer
 62
  256
370
   -1
100
AcDbLine
 10
58.7907505
 20
47.69943910000006
 11
46.23371469999999
 21
44.33479149999999
  0
LINE
  5
15B
100
AcDbEntity
  8
0
  6
ByLayer
 62
  256
370
   -1
100
AcDbLine
 10
62.4142171
 20
34.1764775
 11
49.85718129999999
 21
30.81182990000005
  0
LINE
  5
15C
100
AcDbEntity
  8
0
  6
ByLayer
 62
  256
370
   -1
100
AcDbLine
 10
59.4031229
 20
47.34588569999994
 11
62.7677705
 21
34.7888499
  0
LINE
  5
15D
100
AcDbEntity
  8
0
  6
ByLayer
 62
  256
370
   -1
100
AcDbLine
 10
45.8801613
 20
43.7224191
 11
49.2448089
 21
31.1653833
  0
ARC
  5
15E
100
AcDbEntity
  8
0
  6
ByLayer
 62
  256
370
   -1
100
AcDbCircle
 10
58.92016
 20
47.21647619999997
 40
0.5
100
AcDbArc
 50
15.00000000000001
 51
105
  0
ARC
  5
15F
100
AcDbEntity
  8
0
  6
ByLayer
 62
  256
370
   -1
100
AcDbCircle
 10
46.3631242
 20
43.8518286
 40
0.5
100
AcDbArc
 50
105
 51
195
  0
ARC
  5
160
100
AcDbEntity
  8
0
  6
ByLayer
 62
  256
370
   -1
100
AcDbCircle
 10
62.28480759999999
 20
34.65944039999999
 40
0.5
100
AcDbArc
 50
285
 51
14.99999999999998
  0
ARC
  5
161
100
AcDbEntity
  8
0
  6
ByLayer
 62
  256
370
   -1
100
AcDbCircle
 10
49.7277718
 20
31.29479280000001
 40
0.5
100
AcDbArc
 50
195
 51
285
  0
LINE
  5
162
100
AcDbEntity
  8
0
  6
ByLayer
 62
  256
370
   -1
100
AcDbLine
 10
45.2459559
 20
24.64575289999999
 11
32.6889201
 21
21.28110530000001
  0
LINE
  5
163
100
AcDbEntity
  8
0
  6
ByLayer
 62
  256
370
   -1
100
AcDbLine
 10
28.71190009999999
 20
34.19169450000001
 11
32.07654770000001
 21
21.63465869999997
  0
ARC
  5
164
100
AcDbEntity
  8
0
  6
ByLayer
 62
  256
370
   -1
100
AcDbCircle
 10
29.194863
 20
34.32110399999999
 40
0.5
100
AcDbArc
 50
105
 51
195
  0
ARC
  5
165
100
AcDbEntity
  8
0
  6
ByLayer
 62
  256
370
   -1
100
AcDbCircle
 10
45.1165464
 20
25.12871580000001
 40
0.5
100
AcDbArc
 50
285
 51
14.99999999999998
  0
ARC
  5
166
100
AcDbEntity
  8
0
  6
ByLayer
 62
  256
370
   -1
100
AcDbCircle
 10
32.5595106
 20
21.7640682
 40
0.5
100
AcDbArc
 50
195
 51
285
  0
LINE
  5
167
100
AcDbEntity
  8
0
  6
ByLayer
 62
  256
370
   -1
100
AcDbLine
 10
24.454228
 20
28.63799
 11
11.89719220000001
 21
25.27334240000003
  0
LINE
  5
168
100
AcDbEntity
  8
0
  6
ByLayer
 62
  256
370
   -1
100
AcDbLine
 10
28.0776946
 20
15.11502839999994
 11
15.52065879999999
 21
11.75038080000003
  0
LINE
  5
169
100
AcDbEntity
  8
0
  6
ByLayer
 62
  256
370
   -1
100
AcDbLine
 10
25.0666004
 20
28.28443659999999
 11
28.431248
 21
15.7274008
  0
LINE
  5
16A
100
AcDbEntity
  8
0
  6
ByLayer
 62
  256
370
   -1
100
AcDbLine
 10
11.5436388
 20
24.66096999999999
 11
14.90828639999999
 21
12.1039342
  0
ARC
  5
16B
100
AcDbEntity
  8
0
  6
ByLayer
 62
  256
370
   -1
100
AcDbCircle
 10
24.58363749999999
 20
28.15502709999997
 40
0.5
100
AcDbArc
 50
15.00000000000001
 51
105
  0
ARC
  5
16C
100
AcDbEntity
  8
0
  6
ByLayer
 62
  256
370
   -1
100
AcDbCircle
 10
12.02660169999999
 20
24.7903795
 40
0.5
100
AcDbArc
 50
105
 51
195
  0
ARC
  5
16D
100
AcDbEntity
  8
0
  6
ByLayer
 62
  256
370
   -1
100
AcDbCircle
 10
27.94828509999999
 20
15.59799130000003
 40
0.5
100
AcDbArc
 50
285
 51
14.99999999999998
  0
ARC
  5
16E
100
AcDbEntity
  8
0
  6
ByLayer
 62
  256
370
   -1
100
AcDbCircle
 10
15.3912493
 20
12.23334370000001
 40
0.5
100
AcDbArc
 50
195
 51
285
  0
LINE
  5
16F
100
AcDbEntity
  8
0
  6
ByLayer
 62
  256
370
   -1
100
AcDbLine
 10
63.72125339999999
 20
29.29855209999999
 11
51.1642176
 21
25.93390450000001
  0
LINE
  5
170
100
AcDbEntity
  8
0
  6
ByLayer
 62
  256
370
   -1
100
AcDbLine
 10
67.34472
 20
15.77559049999999
 11
54.7876842
 21
12.41094290000001
  0
LINE
  5
171
100
AcDbEntity
  8
0
  6
ByLayer
 62
  256
370
   -1
100
AcDbLine
 10
64.33362579999999
 20
28.94499869999997
 11
67.69827340000001
 21
16.38796289999999
  0
LINE
  5
172
100
AcDbEntity
  8
0
  6
ByLayer
 62
  256
370
   -1
100
AcDbLine
 10
50.81066420000001
 20
25.32153210000003
 11
54.1753118
 21
12.76449630000003
  0
ARC
  5
173
100
AcDbEntity
  8
0
  6
ByLayer
 62
  256
370
   -1
100
AcDbCircle
 10
63.8506629
 20
28.81558920000006
 40
0.5
100
AcDbArc
 50
15.00000000000001
 51
105
  0
ARC
  5
174
100
AcDbEntity
  8
0
  6
ByLayer
 62
  256
370
   -1
100
AcDbCircle
 10
51.29362709999999
 20
25.45094159999999
 40
0.5
100
AcDbArc
 50
105
 51
195
  0
ARC
  5
175
100
AcDbEntity
  8
0
  6
ByLayer
 62
  256
370
   -1
100
AcDbCircle
 10
67.2153105
 20
16.25855339999995
 40
0.5
100
AcDbArc
 50
285
 51
14.99999999999998
  0
ARC
  5
176
100
AcDbEntity
  8
0
  6
ByLayer
 62
  256
370
   -1
100
AcDbCircle
 10
54.65827469999999
 20
12.8939058
 40
0.5
100
AcDbArc
 50
195
 51
285
  0
LINE
  5
177
100
AcDbEntity
  8
0
  6
ByLayer
 62
  256
370
   -1
100
AcDbLine
 10
46.5529921
 20
19.76782750000001
 11
33.9959563
 21
16.4031799
  0
LINE
  5
178
100
AcDbEntity
  8
0
  6
ByLayer
 62
  256
370
   -1
100
AcDbLine
 10
50.1764587
 20
6.244865900000036
 11
37.6194229
 21
2.880218299999996
  0
LINE
  5
179
100
AcDbEntity
  8
0
  6
ByLayer
 62
  256
370
   -1
100
AcDbLine
 10
47.1653645
 20
19.4142741
 11
50.53001209999999
 21
6.857238300000006
  0
LINE
  5
17A
100
AcDbEntity
  8
0
  6
ByLayer
 62
  256
370
   -1
100
AcDbLine
 10
33.64240289999999
 20
15.79080749999994
 11
37.00705050000001
 21
3.233771700000034
  0
ARC
  5
17B
100
AcDbEntity
  8
0
  6
ByLayer
 62
  256
370
   -1
100
AcDbCircle
 10
46.68240160000001
 20
19.28486459999999
 40
0.5
100
AcDbArc
 50
15.00000000000001
 51
105
  0
ARC
  5
17C
100
AcDbEntity
  8
0
  6
ByLayer
 62
  256
370
   -1
100
AcDbCircle
 10
34.1253658
 20
15.92021700000001
 40
0.5
100
AcDbArc
 50
105
 51
195
  0
ARC
  5
17D
100
AcDbEntity
  8
0
  6
ByLayer
 62
  256
370
   -1
100
AcDbCircle
 10
50.0470492
 20
6.727828799999997
 40
0.5
100
AcDbArc
 50
285
 51
14.99999999999998
  0
ARC
  5
17E
100
AcDbEntity
  8
0
  6
ByLayer
 62
  256
370
   -1
100
AcDbCircle
 10
37.4900134
 20
3.363181199999943
 40
0.5
100
AcDbArc
 50
195
 51
285
  0
LINE
  5
17F
100
AcDbEntity
  8
0
  6
ByLayer
 62
  256
370
   -1
100
AcDbLine
 10
29.3847308
 20
10.23710299999998
 11
16.82769500000001
 21
6.872455400000035
  0
LINE
  5
180
100
AcDbEntity
  8
0
  6
ByLayer
 62
  256
370
   -1
100
AcDbLine
 10
33.0081974
 20
-3.285858600000026
 11
20.45116160000001
 21
-6.650506199999995
  0
LINE
  5
181
100
AcDbEntity
  8
0
  6
ByLayer
 62
  256
370
   -1
100
AcDbLine
 10
29.9971032
 20
9.883549600000009
 11
33.3617508
 21
-2.673486200000028
  0
LINE
  5
182
100
AcDbEntity
  8
0
  6
ByLayer
 62
  256
370
   -1
100
AcDbLine
 10
16.4741416
 20
6.260083000000009
 11
19.83878919999999
 21
-6.2969528
  0
ARC
  5
183
100
AcDbEntity
  8
0
  6
ByLayer
 62
  256
370
   -1
100
AcDbCircle
 10
29.51414029999999
 20
9.754140100000001
 40
0.5
100
AcDbArc
 50
15.00000000000001
 51
105
  0
ARC
  5
184
100
AcDbEntity
  8
0
  6
ByLayer
 62
  256
370
   -1
100
AcDbCircle
 10
16.9571045
 20
6.389492499999974
 40
0.5
100
AcDbArc
 50
105
 51
195
  0
ARC
  5
185
100
AcDbEntity
  8
0
  6
ByLayer
 62
  256
370
   -1
100
AcDbCircle
 10
32.87878790000001
 20
-2.802895699999993
 40
0.5
100
AcDbArc
 50
285
 51
14.99999999999998
  0
ARC
  5
186
100
AcDbEntity
  8
0
  6
ByLayer
 62
  256
370
   -1
100
AcDbCircle
 10
20.3217521
 20
-6.167543300000034
 40
0.5
100
AcDbArc
 50
195
 51
285
  0
LINE
  5
187
100
AcDbEntity
  8
0
  6
ByLayer
 62
  256
370
   -1
100
AcDbLine
 10
68.65175619999999
 20
10.89766510000001
 11
56.0947204
 21
7.533017499999971
  0
LINE
  5
188
100
AcDbEntity
  8
0
  6
ByLayer
 62
  256
370
   -1
100
AcDbLine
 10
72.27522279999999
 20
-2.625296500000005
 11
59.718187
 21
-5.989944100000002
  0
LINE
  5
189
100
AcDbEntity
  8
0
  6
ByLayer
 62
  256
370
   -1
100
AcDbLine
 10
69.26412859999999
 20
10.5441117
 11
72.6287762
 21
-2.012924099999992
  0
LINE
  5
18A
100
AcDbEntity
  8
0
  6
ByLayer
 62
  256
370
   -1
100
AcDbLine
 10
55.741167
 20
6.920645100000002
 11
59.1058146
 21
-5.636390699999964
  0
ARC
  5
18B
100
AcDbEntity
  8
0
  6
ByLayer
 62
  256
370
   -1
100
AcDbCircle
 10
68.7811657
 20
10.41470220000005
 40
0.5
100
AcDbArc
 50
15.00000000000001
 51
105
  0
ARC
  5
18C
100
AcDbEntity
  8
0
  6
ByLayer
 62
  256
370
   -1
100
AcDbCircle
 10
56.22412989999999
 20
7.05005460000001
 40
0.5
100
AcDbArc
 50
105
 51
195
  0
ARC
  5
18D
100
AcDbEntity
  8
0
  6
ByLayer
 62
  256
370
   -1
100
AcDbCircle
 10
72.1458133
 20
-2.142333600000001
 40
0.5
100
AcDbArc
 50
285
 51
14.99999999999998
  0
ARC
  5
18E
100
AcDbEntity
  8
0
  6
ByLayer
 62
  256
370
   -1
100
AcDbCircle
 10
59.58877750000001
 20
-5.506981199999998
 40
0.5
100
AcDbArc
 50
195
 51
285
  0
LINE
  5
18F
100
AcDbEntity
  8
0
  6
ByLayer
 62
  256
370
   -1
100
AcDbLine
 10
51.4834949
 20
1.366940499999998
 11
38.9264591
 21
-1.997707100000028
  0
LINE
  5
190
100
AcDbEntity
  8
0
  6
ByLayer
 62
  256
370
   -1
100
AcDbLine
 10
55.1069615
 20
-12.15602109999998
 11
42.5499257
 21
-15.5206687
  0
LINE
  5
191
100
AcDbEntity
  8
0
  6
ByLayer
 62
  256
370
   -1
100
AcDbLine
 10
52.09586729999999
 20
1.013387100000003
 11
55.46051489999999
 21
-11.54364870000001
  0
LINE
  5
192
100
AcDbEntity
  8
0
  6
ByLayer
 62
  256
370
   -1
100
AcDbLine
 10
38.57290569999999
 20
-2.610079499999998
 11
41.9375533
 21
-15.16711530000002
  0
ARC
  5
193
100
AcDbEntity
  8
0
  6
ByLayer
 62
  256
370
   -1
100
AcDbCircle
 10
51.61290440000001
 20
0.8839775999999944
 40
0.5
100
AcDbArc
 50
15.00000000000001
 51
105
  0
ARC
  5
194
100
AcDbEntity
  8
0
  6
ByLayer
 62
  256
370
   -1
100
AcDbCircle
 10
39.0558686
 20
-2.480669999999975
 40
0.5
100
AcDbArc
 50
105
 51
195
  0
ARC
  5
195
100
AcDbEntity
  8
0
  6
ByLayer
 62
  256
370
   -1
100
AcDbCircle
 10
54.977552
 20
-11.67305819999997
 40
0.5
100
AcDbArc
 50
285
 51
14.99999999999998
  0
ARC
  5
196
100
AcDbEntity
  8
0
  6
ByLayer
 62
  256
370
   -1
100
AcDbCircle
 10
42.42051619999999
 20
-15.03770580000003
 40
0.5
100
AcDbArc
 50
195
 51
285
  0
LINE
  5
197
100
AcDbEntity
  8
0
  6
ByLayer
 62
  256
370
   -1
100
AcDbLine
 10
34.3152336
 20
-8.163783999999993
 11
21.7581978
 21
-11.5284316
  0
LINE
  5
198
100
AcDbEntity
  8
0
  6
ByLayer
 62
  256
370
   -1
100
AcDbLine
 10
37.9387002
 20
-21.68674559999999
 11
25.38166440000001
 21
-25.05139319999999
  0
LINE
  5
199
100
AcDbEntity
  8
0
  6
ByLayer
 62
  256
370
   -1
100
AcDbLine
 10
34.927606
 20
-8.517337400000002
 11
38.2922536
 21
-21.0743732
  0
LINE
  5
19A
100
AcDbEntity
  8
0
  6
ByLayer
 62
  256
370
   -1
100
AcDbLine
 10
21.4046444
 20
-12.140804
 11
24.76929199999999
 21
-24.6978398
  0
ARC
  5
19B
100
AcDbEntity
  8
0
  6
ByLayer
 62
  256
370
   -1
100
AcDbCircle
 10
34.44464309999999
 20
-8.646746899999997
 40
0.5
100
AcDbArc
 50
15.00000000000001
 51
105
  0
ARC
  5
19C
100
AcDbEntity
  8
0
  6
ByLayer
 62
  256
370
   -1
100
AcDbCircle
 10
21.8876073
 20
-12.01139450000002
 40
0.5
100
AcDbArc
 50
105
 51
195
  0
ARC
  5
19D
100
AcDbEntity
  8
0
  6
ByLayer
 62
  256
370
   -1
100
AcDbCircle
 10
37.80929070000001
 20
-21.2037827
 40
0.5
100
AcDbArc
 50
285
 51
14.99999999999998
  0
ARC
  5
19E
100
AcDbEntity
  8
0
  6
ByLayer
 62
  256
370
   -1
100
AcDbCircle
 10
25.2522549
 20
-24.5684303
 40
0.5
100
AcDbArc
 50
195
 51
285
  0
LINE
  5
19F
100
AcDbEntity
  8
0
  6
ByLayer
 62
  256
370
   -1
100
AcDbLine
 10
62.79549059999999
 20
-19.06588809999997
 11
50.5794866
 21
-23.51215000000001
  0
LINE
  5
1A0
100
AcDbEntity
  8
0
  6
ByLayer
 62
  256
370
   -1
100
AcDbLine
 10
67.5837726
 20
-32.2215848
 11
55.36776860000001
 21
-36.6678467
  0
LINE
  5
1A1
100
AcDbEntity
  8
0
  6
ByLayer
 62
  256
370
   -1
100
AcDbLine
 10
63.436347
 20
-19.3647244
 11
67.88260889999999
 21
-31.58072839999997
  0
LINE
  5
1A2
100
AcDbEntity
  8
0
  6
ByLayer
 62
  256
370
   -1
100
AcDbLine
 10
50.2806503
 20
-24.1530064
 11
54.7269122
 21
-36.36901039999999
  0
ARC
  5
1A3
100
AcDbEntity
  8
0
  6
ByLayer
 62
  256
370
   -1
100
AcDbCircle
 10
62.9665007
 20
-19.53573440000002
 40
0.5
100
AcDbArc
 50
20
 51
110
  0
ARC
  5
1A4
100
AcDbEntity
  8
0
  6
ByLayer
 62
  256
370
   -1
100
AcDbCircle
 10
50.75049660000001
 20
-23.98199630000001
 40
0.5
100
AcDbArc
 50
110
 51
200
  0
ARC
  5
1A5
100
AcDbEntity
  8
0
  6
ByLayer
 62
  256
370
   -1
100
AcDbCircle
 10
67.41276259999999
 20
-31.7517385
 40
0.5
100
AcDbArc
 50
290
 51
19.99999999999998
  0
ARC
  5
1A6
100
AcDbEntity
  8
0
  6
ByLayer
 62
  256
370
   -1
100
AcDbCircle
 10
55.1967585
 20
-36.1980004
 40
0.5
100
AcDbArc
 50
200
 51
290
  0
LINE
  5
1A7
100
AcDbEntity
  8
0
  6
ByLayer
 62
  256
370
   -1
100
AcDbLine
 10
41.9982926
 20
-27.53371249999996
 11
30.4671518
 21
-33.5364445
  0
LINE
  5
1A8
100
AcDbEntity
  8
0
  6
ByLayer
 62
  256
370
   -1
100
AcDbLine
 10
48.4627732
 20
-39.95186409999999
 11
36.9316324
 21
-45.9545961
  0
LINE
  5
1A9
100
AcDbEntity
  8
0
  6
ByLayer
 62
  256
370
   -1
100
AcDbLine
 10
42.6726723
 20
-27.7463436
 11
48.6754043
 21
-39.27748440000001
  0
LINE
  5
1AA
100
AcDbEntity
  8
0
  6
ByLayer
 62
  256
370
   -1
100
AcDbLine
 10
30.2545207
 20
-34.2108242
 11
36.2572527
 21
-45.74196499999999
  0
ARC
  5
1AB
100
AcDbEntity
  8
0
  6
ByLayer
 62
  256
370
   -1
100
AcDbCircle
 10
42.2291669
 20
-27.9772179
 40
0.5
100
AcDbArc
 50
27.49999999999999
 51
117.5
  0
ARC
  5
1AC
100
AcDbEntity
  8
0
  6
ByLayer
 62
  256
370
   -1
100
AcDbCircle
 10
30.69802609999999
 20
-33.97994989999999
 40
0.5
100
AcDbArc
 50
117.5
 51
207.5
  0
ARC
  5
1AD
100
AcDbEntity
  8
0
  6
ByLayer
 62
  256
370
   -1
100
AcDbCircle
 10
48.2318989
 20
-39.5083587
 40
0.5
100
AcDbArc
 50
297.5
 51
27.50000000000002
  0
ARC
  5
1AE
100
AcDbEntity
  8
0
  6
ByLayer
 62
  256
370
   -1
100
AcDbCircle
 10
36.7007581
 20
-45.5110907
 40
0.5
100
AcDbArc
 50
207.5
 51
297.5
  0
LINE
  5
1AF
100
AcDbEntity
  8
0
  6
ByLayer
 62
  256
370
   -1
100
AcDbLine
 10
8.062688900000012
 20
-44.40304679999997
 11
15.5191825
 21
-55.0520233
  0
LINE
  5
1B0
100
AcDbEntity
  8
0
  6
ByLayer
 62
  256
370
   -1
100
AcDbLine
 10
19.5308175
 20
-36.3729767
 11
26.9873111
 21
-47.02195319999997
  0
LINE
  5
1B1
100
AcDbEntity
  8
0
  6
ByLayer
 62
  256
370
   -1
100
AcDbLine
 10
8.185476700000009
 20
-43.7066825
 11
18.8344532
 21
-36.2501889
  0
LINE
  5
1B2
100
AcDbEntity
  8
0
  6
ByLayer
 62
  256
370
   -1
100
AcDbLine
 10
16.2155468
 20
-55.1748111
 11
26.8645233
 21
-47.7183175
  0
ARC
  5
1B3
100
AcDbEntity
  8
0
  6
ByLayer
 62
  256
370
   -1
100
AcDbCircle
 10
8.472264899999999
 20
-44.1162585
 40
0.5
100
AcDbArc
 50
125
 51
215
  0
ARC
  5
1B4
100
AcDbEntity
  8
0
  6
ByLayer
 62
  256
370
   -1
100
AcDbCircle
 10
15.9287585
 20
-54.7652351
 40
0.5
100
AcDbArc
 50
215
 51
305
  0
ARC
  5
1B5
100
AcDbEntity
  8
0
  6
ByLayer
 62
  256
370
   -1
100
AcDbCircle
 10
19.1212415
 20
-36.6597649
 40
0.5
100
AcDbArc
 50
35.00000000000001
 51
125
  0
ARC
  5
1B6
100
AcDbEntity
  8
0
  6
ByLayer
 62
  256
370
   -1
100
AcDbCircle
 10
26.5777351
 20
-47.3087415
 40
0.5
100
AcDbArc
 50
305
 51
35.00000000000001
  0
LINE
  5
1B7
100
AcDbEntity
  8
keycap
  6
ByLayer
 62
  256
370
   -1
100
AcDbLine
 10
1.527603466451964
 20
-39.47218070643419
 11
17.91755009404397
 21
-62.87945037451006
  0
LINE
  5
1B8
100
AcDbEntity
  8
keycap
  6
ByLayer
 62
  256
370
   -1
100
AcDbLine
 10
1.527603466451964
 20
-39.47218070643419
 11
17.13244990595602
 21
-28.54554962548994
  0
LINE
  5
1B9
100
AcDbEntity
  8
keycap
  6
ByLayer
 62
  256
370
   -1
100
AcDbLine
 10
17.91755009404397
 20
-62.87945037451006
 11
33.52239653354805
 21
-51.95281929356584
  0
LINE
  5
1BA
100
AcDbEntity
  8
keycap
  6
ByLayer
 62
  256
370
   -1
100
AcDbLine
 10
17.13244990595602
 20
-28.54554962548994
 11
33.52239653354805
 21
-51.95281929356584
  0
LINE
  5
1BB
100
AcDbEntity
  8
keycap
  6
ByLayer
 62
  256
370
   -1
100
AcDbLine
 10
-49.62868845518024
 20
-42.19156645025505
 11
-38.09754765518024
 21
-48.19429845025505
  0
LINE
  5
1BC
100
AcDbEntity
  8
keycap
  6
ByLayer
 62
  256
370
   -1
100
AcDbLine
 10
-68.44737347258636
 20
-34.59430866359392
 11
-56.23136947258637
 21
-39.04057056359392
  0
LINE
  5
1BD
100
AcDbEntity
  8
keycap
  6
ByLayer
 62
  256
370
   -1
100
AcDbLine
 10
-101.3650917
 20
-34.5618881
 11
-88.36509169999999
 21
-34.5618881
  0
LINE
  5
1BE
100
AcDbEntity
  8
keycap
  6
ByLayer
 62
  256
370
   -1
100
AcDbLine
 10
-122.9282044535727
 20
42.84529047674052
 11
-110.1257036535727
 21
40.58786417674051
  0
LINE
  5
1BF
100
AcDbEntity
  8
keycap
  6
ByLayer
 62
  256
370
   -1
100
AcDbLine
 10
-102.5136178535727
 20
48.91758657674052
 11
-89.71111705357269
 21
46.66016027674051
  0
LINE
  5
1C0
100
AcDbEntity
  8
keycap
  6
ByLayer
 62
  256
370
   -1
100
AcDbLine
 10
-78.57598898603925
 20
58.17549872046811
 11
-65.88414098603924
 21
55.36178382046812
  0
LINE
  5
1C1
100
AcDbEntity
  8
keycap
  6
ByLayer
 62
  256
370
   -1
100
AcDbLine
 10
-58.13723241146747
 20
50.13840181147404
 11
-45.58019661146746
 21
46.77375421147403
  0
LINE
  5
1C2
100
AcDbEntity
  8
keycap
  6
ByLayer
 62
  256
370
   -1
100
AcDbLine
 10
-40.96897121146747
 20
40.60767721147403
 11
-28.41193541146747
 21
37.24302961147404
  0
LINE
  5
1C3
100
AcDbEntity
  8
keycap
  6
ByLayer
 62
  256
370
   -1
100
AcDbLine
 10
-23.80070991146746
 20
31.07695271147404
 11
-11.24367411146747
 21
27.71230511147404
  0
LINE
  5
1C4
100
AcDbEntity
  8
keycap
  6
ByLayer
 62
  256
370
   -1
100
AcDbLine
 10
-9.104676088525961
 20
24.00745191146746
 11
-12.46932368852596
 21
11.45041611146746
  0
LINE
  5
1C5
100
AcDbEntity
  8
keycap
  6
ByLayer
 62
  256
370
   -1
100
AcDbLine
 10
40.96897121146747
 20
40.60767721147403
 11
28.41193541146747
 21
37.24302961147404
  0
LINE
  5
1C6
100
AcDbEntity
  8
keycap
  6
ByLayer
 62
  256
370
   -1
100
AcDbLine
 10
58.13723241146746
 20
50.1384018114741
 11
45.58019661146745
 21
46.77375421147403
  0
LINE
  5
1C7
100
AcDbEntity
  8
keycap
  6
ByLayer
 62
  256
370
   -1
100
AcDbLine
 10
78.57598898603926
 20
58.17549872046814
 11
65.88414098603926
 21
55.36178382046818
  0
LINE
  5
1C8
100
AcDbEntity
  8
keycap
  6
ByLayer
 62
  256
370
   -1
100
AcDbLine
 10
82.18401432046811
 20
55.87693311396079
 11
84.99772922046812
 21
43.18508511396081
  0
LINE
  5
1C9
100
AcDbEntity
  8
keycap
  6
ByLayer
 62
  256
370
   -1
100
AcDbLine
 10
-82.18401432046811
 20
55.87693311396076
 11
-84.99772922046812
 21
43.18508511396075
  0
LINE
  5
1CA
100
AcDbEntity
  8
keycap
  6
ByLayer
 62
  256
370
   -1
100
AcDbLine
 10
129.7405313767405
 20
21.63094504642733
 11
131.9979576767405
 21
8.828444246427296
  0
LINE
  5
1CB
100
AcDbEntity
  8
keycap
  6
ByLayer
 62
  256
370
   -1
100
AcDbLine
 10
104.3900917
 20
-18.53688809999997
 11
104.3900917
 21
-31.53688809999997
  0
LINE
  5
1CC
100
AcDbEntity
  8
keycap
  6
ByLayer
 62
  256
370
   -1
100
AcDbLine
 10
101.3650917
 20
-34.56188809999997
 11
88.36509169999999
 21
-34.56188809999997
  0
LINE
  5
1CD
100
AcDbEntity
  8
keycap
  6
ByLayer
 62
  256
370
   -1
100
AcDbLine
 10
-104.3900917
 20
-18.5368881
 11
-104.3900917
 21
-31.5368881
  0
LINE
  5
1CE
100
AcDbEntity
  8
keycap
  6
ByLayer
 62
  256
370
   -1
100
AcDbLine
 10
-132.8521976464273
 20
-13.43647257674051
 11
-120.0496968464273
 21
-15.69389887674052
  0
LINE
  5
1CF
100
AcDbEntity
  8
keycap
  6
ByLayer
 62
  256
370
   -1
100
AcDbLine
 10
-133.0485290767405
 20
2.870357346427305
 11
-135.3059553767405
 21
-9.932143453572685
  0
LINE
  5
1D0
100
AcDbEntity
  8
keycap
  6
ByLayer
 62
  256
370
   -1
100
AcDbLine
 10
-129.7405313767405
 20
21.6309450464273
 11
-131.9979576767405
 21
8.828444246427296
  0
LINE
  5
1D1
100
AcDbEntity
  8
keycap
  6
ByLayer
 62
  256
370
   -1
100
AcDbLine
 10
-126.4325335767405
 20
40.39153274642732
 11
-128.6899598767405
 21
27.58903194642731
  0
LINE
  5
1D2
100
AcDbEntity
  8
keycap
  6
ByLayer
 62
  256
370
   -1
100
AcDbLine
 10
125.9072478418501
 20
43.37057620009998
 11
128.6899598767405
 21
27.58903194642731
  0
LINE
  5
1D3
100
AcDbEntity
  8
keycap
  6
ByLayer
 62
  256
370
   -1
100
AcDbLine
 10
125.9072478418501
 20
43.37057620009998
 11
110.1257036535727
 21
40.58786417674051
  0
LINE
  5
1D4
100
AcDbEntity
  8
keycap
  6
ByLayer
 62
  256
370
   -1
100
AcDbLine
 10
105.49266124185
 20
49.44287230010011
 11
108.2753732767405
 21
33.66132804642727
  0
LINE
  5
1D5
100
AcDbEntity
  8
keycap
  6
ByLayer
 62
  256
370
   -1
100
AcDbLine
 10
105.49266124185
 20
49.44287230010011
 11
89.71111705357268
 21
46.66016027674043
  0
LINE
  5
1D6
100
AcDbEntity
  8
keycap
  6
ByLayer
 62
  256
370
   -1
100
AcDbLine
 10
133.0485290767405
 20
2.870357346427333
 11
135.8312411001
 21
-12.91118684185007
  0
LINE
  5
1D7
100
AcDbEntity
  8
keycap
  6
ByLayer
 62
  256
370
   -1
100
AcDbLine
 10
135.8312411001
 20
-12.91118684185007
 11
120.0496968464273
 21
-15.69389887674049
  0
LINE
  5
1D8
100
AcDbEntity
  8
keycap
  6
ByLayer
 62
  256
370
   -1
100
AcDbLine
 10
23.80070991146748
 20
31.07695271147404
 11
8.321748487047163
 21
26.92937750051797
  0
LINE
  5
1D9
100
AcDbEntity
  8
keycap
  6
ByLayer
 62
  256
370
   -1
100
AcDbLine
 10
8.321748487047163
 20
26.92937750051797
 11
12.46932368852596
 21
11.45041611146746
  0
LINE
  5
1DA
100
AcDbEntity
  8
placement
  6
ByLayer
 62
  256
370
   -1
100
AcDbLine
 10
-123.4534901
 20
39.866247
 11
-112.9084157
 21
24.80632
  0
LINE
  5
1DB
100
AcDbEntity
  8
placement
  6
ByLayer
 62
  256
370
   -1
100
AcDbLine
 10
-126.7614879
 20
21.1056593
 11
-116.2164135
 21
6.045732299999997
  0
LINE
  5
1DC
100
AcDbEntity
  8
placement
  6
ByLayer
 62
  256
370
   -1
100
AcDbLine
 10
-130.0694856
 20
2.345071599999997
 11
-119.5244112
 21
-12.7148554
  0
LINE
  5
1DD
100
AcDbEntity
  8
placement
  6
ByLayer
 62
  256
370
   -1
100
AcDbLine
 10
-109.6548991
 20
8.4173677
 11
-99.10982469999999
 21
-6.642559300000002
  0
LINE
  5
1DE
100
AcDbEntity
  8
placement
  6
ByLayer
 62
  256
370
   -1
100
AcDbLine
 10
-106.3469013
 20
27.1779554
 11
-95.80182690000001
 21
12.1180284
  0
LINE
  5
1DF
100
AcDbEntity
  8
placement
  6
ByLayer
 62
  256
370
   -1
100
AcDbLine
 10
-103.0389035
 20
45.9385431
 11
-92.4938291
 21
30.8786161
  0
LINE
  5
1E0
100
AcDbEntity
  8
placement
  6
ByLayer
 62
  256
370
   -1
100
AcDbLine
 10
-79.2307189
 20
55.2222033
 11
-69.35258570000001
 21
39.71664029999999
  0
LINE
  5
1E1
100
AcDbEntity
  8
placement
  6
ByLayer
 62
  256
370
   -1
100
AcDbLine
 10
-83.35389359999999
 20
36.6237644
 11
-73.4757604
 21
21.1182014
  0
LINE
  5
1E2
100
AcDbEntity
  8
placement
  6
ByLayer
 62
  256
370
   -1
100
AcDbLine
 10
-87.47706819999999
 20
18.0253254
 11
-77.598935
 21
2.519762400000005
  0
LINE
  5
1E3
100
AcDbEntity
  8
placement
  6
ByLayer
 62
  256
370
   -1
100
AcDbLine
 10
-68.7811657
 20
10.41470219999999
 11
-59.58877750000001
 21
-5.506981199999998
  0
LINE
  5
1E4
100
AcDbEntity
  8
placement
  6
ByLayer
 62
  256
370
   -1
100
AcDbLine
 10
-63.8506629
 20
28.81558920000001
 11
-54.65827469999999
 21
12.8939058
  0
LINE
  5
1E5
100
AcDbEntity
  8
placement
  6
ByLayer
 62
  256
370
   -1
100
AcDbLine
 10
-58.92016
 20
47.2164762
 11
-49.7277718
 21
31.29479280000001
  0
LINE
  5
1E6
100
AcDbEntity
  8
placement
  6
ByLayer
 62
  256
370
   -1
100
AcDbLine
 10
-41.75189879999999
 20
37.6857516
 11
-32.5595106
 21
21.7640682
  0
LINE
  5
1E7
100
AcDbEntity
  8
placement
  6
ByLayer
 62
  256
370
   -1
100
AcDbLine
 10
-46.68240160000001
 20
19.28486459999999
 11
-37.4900134
 21
3.3631812
  0
LINE
  5
1E8
100
AcDbEntity
  8
placement
  6
ByLayer
 62
  256
370
   -1
100
AcDbLine
 10
-51.61290440000001
 20
0.8839775999999944
 11
-42.42051619999999
 21
-15.0377058
  0
LINE
  5
1E9
100
AcDbEntity
  8
placement
  6
ByLayer
 62
  256
370
   -1
100
AcDbLine
 10
-34.44464309999999
 20
-8.646746899999997
 11
-25.2522549
 21
-24.5684303
  0
LINE
  5
1EA
100
AcDbEntity
  8
placement
  6
ByLayer
 62
  256
370
   -1
100
AcDbLine
 10
-29.51414029999999
 20
9.754140100000001
 11
-20.3217521
 21
-6.167543300000006
  0
LINE
  5
1EB
100
AcDbEntity
  8
placement
  6
ByLayer
 62
  256
370
   -1
100
AcDbLine
 10
-24.58363749999999
 20
28.1550271
 11
-15.3912493
 21
12.23334370000001
  0
LINE
  5
1EC
100
AcDbEntity
  8
placement
  6
ByLayer
 62
  256
370
   -1
100
AcDbLine
 10
-101.3650917
 20
-18.5368881
 11
-88.36509169999999
 21
-31.5368881
  0
LINE
  5
1ED
100
AcDbEntity
  8
placement
  6
ByLayer
 62
  256
370
   -1
100
AcDbLine
 10
-67.41276259999999
 20
-31.7517385
 11
-50.75049660000001
 21
-23.98199630000001
  0
LINE
  5
1EE
100
AcDbEntity
  8
placement
  6
ByLayer
 62
  256
370
   -1
100
AcDbLine
 10
-42.2291669
 20
-27.9772179
 11
-36.7007581
 21
-45.5110907
  0
LINE
  5
1EF
100
AcDbEntity
  8
placement
  6
ByLayer
 62
  256
370
   -1
100
AcDbLine
 10
-26.5777351
 20
-47.3087415
 11
-8.472264899999999
 21
-44.1162585
  0
LINE
  5
1F0
100
AcDbEntity
  8
placement
  6
ByLayer
 62
  256
370
   -1
100
AcDbLine
 10
-126.2362021464273
 20
24.08470282325948
 11
-113.4337013464273
 21
21.82727652325948
  0
LINE
  5
1F1
100
AcDbEntity
  8
placement
  6
ByLayer
 62
  256
370
   -1
100
AcDbLine
 10
-129.5441999464273
 20
5.324115123259488
 11
-116.7416991464273
 21
3.066688823259482
  0
LINE
  5
1F2
100
AcDbEntity
  8
placement
  6
ByLayer
 62
  256
370
   -1
100
AcDbLine
 10
-132.8521976464273
 20
-13.43647257674051
 11
-120.0496968464273
 21
-15.69389887674052
  0
LINE
  5
1F3
100
AcDbEntity
  8
placement
  6
ByLayer
 62
  256
370
   -1
100
AcDbLine
 10
-112.4376111464273
 20
-7.364176476740512
 11
-99.63511034642731
 21
-9.621602776740517
  0
LINE
  5
1F4
100
AcDbEntity
  8
placement
  6
ByLayer
 62
  256
370
   -1
100
AcDbLine
 10
-109.1296133464273
 20
11.39641122325949
 11
-96.32711254642732
 21
9.138984923259486
  0
LINE
  5
1F5
100
AcDbEntity
  8
placement
  6
ByLayer
 62
  256
370
   -1
100
AcDbLine
 10
-105.8216155464273
 20
30.15699892325949
 11
-93.01911474642732
 21
27.89957262325949
  0
LINE
  5
1F6
100
AcDbEntity
  8
placement
  6
ByLayer
 62
  256
370
   -1
100
AcDbLine
 10
-82.69916361396076
 20
39.57705977953189
 11
-70.00731561396076
 21
36.76334487953188
  0
LINE
  5
1F7
100
AcDbEntity
  8
placement
  6
ByLayer
 62
  256
370
   -1
100
AcDbLine
 10
-86.82233831396076
 20
20.97862087953188
 11
-74.13049031396075
 21
18.16490597953189
  0
LINE
  5
1F8
100
AcDbEntity
  8
placement
  6
ByLayer
 62
  256
370
   -1
100
AcDbLine
 10
-90.94551291396075
 20
2.380181879531885
 11
-78.25366491396076
 21
-0.4335330204681229
  0
LINE
  5
1F9
100
AcDbEntity
  8
placement
  6
ByLayer
 62
  256
370
   -1
100
AcDbLine
 10
-72.92874088853253
 20
-5.06425921147404
 11
-60.37170508853254
 21
-8.428906811474038
  0
LINE
  5
1FA
100
AcDbEntity
  8
placement
  6
ByLayer
 62
  256
370
   -1
100
AcDbLine
 10
-67.99823808853253
 20
13.33662778852596
 11
-55.44120228853253
 21
9.971980188525972
  0
LINE
  5
1FB
100
AcDbEntity
  8
placement
  6
ByLayer
 62
  256
370
   -1
100
AcDbLine
 10
-63.06773531146747
 20
31.73751481147403
 11
-50.51069951146747
 21
28.37286721147405
  0
LINE
  5
1FC
100
AcDbEntity
  8
placement
  6
ByLayer
 62
  256
370
   -1
100
AcDbLine
 10
-101.3650917
 20
-34.5618881
 11
-88.36509169999999
 21
-34.5618881
  0
LINE
  5
1FD
100
AcDbEntity
  8
placement
  6
ByLayer
 62
  256
370
   -1
100
AcDbLine
 10
-68.44737347258636
 20
-34.59430866359393
 11
-56.23136947258637
 21
-39.04057056359392
  0
LINE
  5
1FE
100
AcDbEntity
  8
placement
  6
ByLayer
 62
  256
370
   -1
100
AcDbLine
 10
-49.62868845518024
 20
-42.19156645025505
 11
-38.09754765518024
 21
-48.19429845025505
  0
LINE
  5
1FF
100
AcDbEntity
  8
placement
  6
ByLayer
 62
  256
370
   -1
100
AcDbLine
 10
-17.66382729924259
 20
-57.24317001361089
 11
-28.31280379924259
 21
-49.78667641361089
  0
LINE
  5
200
100
AcDbEntity
  8
placement
  6
ByLayer
 62
  256
370
   -1
100
AcDbLine
 10
-38.59221828853254
 20
-24.12570831147403
 11
-26.03518248853254
 21
-27.49035591147403
  0
LINE
  5
201
100
AcDbEntity
  8
placement
  6
ByLayer
 62
  256
370
   -1
100
AcDbLine
 10
-55.76047958853253
 20
-14.59498381147404
 11
-43.20344378853254
 21
-17.95963141147404
  0
LINE
  5
202
100
AcDbEntity
  8
placement
  6
ByLayer
 62
  256
370
   -1
100
AcDbLine
 10
-45.89947398853253
 20
22.20679018852595
 11
-33.34243818853253
 21
18.84214258852597
  0
LINE
  5
203
100
AcDbEntity
  8
placement
  6
ByLayer
 62
  256
370
   -1
100
AcDbLine
 10
-50.82997678853253
 20
3.805903188525972
 11
-38.27294098853254
 21
0.4412555885259604
  0
LINE
  5
204
100
AcDbEntity
  8
placement
  6
ByLayer
 62
  256
370
   -1
100
AcDbLine
 10
-28.73121268853254
 20
12.67606568852596
 11
-16.17417688853253
 21
9.311418088525967
  0
LINE
  5
205
100
AcDbEntity
  8
placement
  6
ByLayer
 62
  256
370
   -1
100
AcDbLine
 10
-33.66171548853254
 20
-5.724821311474033
 11
-21.10467968853254
 21
-9.089468911474031
  0
LINE
  5
206
100
AcDbEntity
  8
placement
  6
ByLayer
 62
  256
370
   -1
100
AcDbLine
 10
123.4534901
 20
39.86624699999997
 11
112.9084157
 21
24.80632000000003
  0
LINE
  5
207
100
AcDbEntity
  8
placement
  6
ByLayer
 62
  256
370
   -1
100
AcDbLine
 10
126.7614879
 20
21.1056593
 11
116.2164135
 21
6.045732299999997
  0
LINE
  5
208
100
AcDbEntity
  8
placement
  6
ByLayer
 62
  256
370
   -1
100
AcDbLine
 10
130.0694856
 20
2.345071599999997
 11
119.5244112
 21
-12.7148554
  0
LINE
  5
209
100
AcDbEntity
  8
placement
  6
ByLayer
 62
  256
370
   -1
100
AcDbLine
 10
109.6548991
 20
8.4173677
 11
99.10982469999999
 21
-6.64255930000003
  0
LINE
  5
20A
100
AcDbEntity
  8
placement
  6
ByLayer
 62
  256
370
   -1
100
AcDbLine
 10
106.3469013
 20
27.1779554
 11
95.80182690000001
 21
12.1180284
  0
LINE
  5
20B
100
AcDbEntity
  8
placement
  6
ByLayer
 62
  256
370
   -1
100
AcDbLine
 10
103.0389035
 20
45.9385431
 11
92.4938291
 21
30.87861609999997
  0
LINE
  5
20C
100
AcDbEntity
  8
placement
  6
ByLayer
 62
  256
370
   -1
100
AcDbLine
 10
79.2307189
 20
55.22220329999998
 11
69.35258570000001
 21
39.71664029999999
  0
LINE
  5
20D
100
AcDbEntity
  8
placement
  6
ByLayer
 62
  256
370
   -1
100
AcDbLine
 10
83.35389359999999
 20
36.6237644
 11
73.4757604
 21
21.1182014
  0
LINE
  5
20E
100
AcDbEntity
  8
placement
  6
ByLayer
 62
  256
370
   -1
100
AcDbLine
 10
87.47706819999999
 20
18.0253254
 11
77.598935
 21
2.519762400000005
  0
LINE
  5
20F
100
AcDbEntity
  8
placement
  6
ByLayer
 62
  256
370
   -1
100
AcDbLine
 10
68.7811657
 20
10.41470220000002
 11
59.58877750000001
 21
-5.506981199999998
  0
LINE
  5
210
100
AcDbEntity
  8
placement
  6
ByLayer
 62
  256
370
   -1
100
AcDbLine
 10
63.8506629
 20
28.81558920000001
 11
54.65827469999999
 21
12.8939058
  0
LINE
  5
211
100
AcDbEntity
  8
placement
  6
ByLayer
 62
  256
370
   -1
100
AcDbLine
 10
58.92016
 20
47.21647619999997
 11
49.7277718
 21
31.29479280000001
  0
LINE
  5
212
100
AcDbEntity
  8
placement
  6
ByLayer
 62
  256
370
   -1
100
AcDbLine
 10
41.75189879999999
 20
37.6857516
 11
32.5595106
 21
21.76406819999997
  0
LINE
  5
213
100
AcDbEntity
  8
placement
  6
ByLayer
 62
  256
370
   -1
100
AcDbLine
 10
46.68240160000001
 20
19.28486459999999
 11
37.4900134
 21
3.3631812
  0
LINE
  5
214
100
AcDbEntity
  8
placement
  6
ByLayer
 62
  256
370
   -1
100
AcDbLine
 10
51.61290440000001
 20
0.8839775999999944
 11
42.42051619999999
 21
-15.0377058
  0
LINE
  5
215
100
AcDbEntity
  8
placement
  6
ByLayer
 62
  256
370
   -1
100
AcDbLine
 10
34.44464309999999
 20
-8.646746899999997
 11
25.2522549
 21
-24.5684303
  0
LINE
  5
216
100
AcDbEntity
  8
placement
  6
ByLayer
 62
  256
370
   -1
100
AcDbLine
 10
29.51414029999999
 20
9.754140100000029
 11
20.3217521
 21
-6.167543300000034
  0
LINE
  5
217
100
AcDbEntity
  8
placement
  6
ByLayer
 62
  256
370
   -1
100
AcDbLine
 10
24.58363749999999
 20
28.15502709999997
 11
15.3912493
 21
12.23334370000003
  0
LINE
  5
218
100
AcDbEntity
  8
placement
  6
ByLayer
 62
  256
370
   -1
100
AcDbLine
 10
101.3650917
 20
-18.5368881
 11
88.36509169999999
 21
-31.5368881
  0
LINE
  5
219
100
AcDbEntity
  8
placement
  6
ByLayer
 62
  256
370
   -1
100
AcDbLine
 10
67.41276259999999
 20
-31.7517385
 11
50.75049660000001
 21
-23.98199630000001
  0
LINE
  5
21A
100
AcDbEntity
  8
placement
  6
ByLayer
 62
  256
370
   -1
100
AcDbLine
 10
42.2291669
 20
-27.9772179
 11
36.7007581
 21
-45.5110907
  0
LINE
  5
21B
100
AcDbEntity
  8
placement
  6
ByLayer
 62
  256
370
   -1
100
AcDbLine
 10
26.5777351
 20
-47.3087415
 11
8.472264899999999
 21
-44.11625850000001
  0
LINE
  5
21C
100
AcDbEntity
  8
placement
  6
ByLayer
 62
  256
370
   -1
100
AcDbLine
 10
126.2362021464273
 20
24.08470282325948
 11
113.4337013464273
 21
21.82727652325946
  0
LINE
  5
21D
100
AcDbEntity
  8
placement
  6
ByLayer
 62
  256
370
   -1
100
AcDbLine
 10
129.5441999464273
 20
5.32411512325949
 11
116.7416991464273
 21
3.066688823259512
  0
LINE
  5
21E
100
AcDbEntity
  8
placement
  6
ByLayer
 62
  256
370
   -1
100
AcDbLine
 10
132.8521976464273
 20
-13.43647257674051
 11
120.0496968464273
 21
-15.69389887674052
  0
LINE
  5
21F
100
AcDbEntity
  8
placement
  6
ByLayer
 62
  256
370
   -1
100
AcDbLine
 10
112.4376111464273
 20
-7.36417647674051
 11
99.63511034642731
 21
-9.621602776740517
  0
LINE
  5
220
100
AcDbEntity
  8
placement
  6
ByLayer
 62
  256
370
   -1
100
AcDbLine
 10
109.1296133464273
 20
11.39641122325949
 11
96.32711254642732
 21
9.138984923259486
  0
LINE
  5
221
100
AcDbEntity
  8
placement
  6
ByLayer
 62
  256
370
   -1
100
AcDbLine
 10
105.8216155464273
 20
30.15699892325949
 11
93.01911474642732
 21
27.89957262325949
  0
LINE
  5
222
100
AcDbEntity
  8
placement
  6
ByLayer
 62
  256
370
   -1
100
AcDbLine
 10
82.69916361396076
 20
39.57705977953182
 11
70.00731561396076
 21
36.76334487953186
  0
LINE
  5
223
100
AcDbEntity
  8
placement
  6
ByLayer
 62
  256
370
   -1
100
AcDbLine
 10
86.82233831396076
 20
20.97862087953187
 11
74.13049031396075
 21
18.16490597953187
  0
LINE
  5
224
100
AcDbEntity
  8
placement
  6
ByLayer
 62
  256
370
   -1
100
AcDbLine
 10
90.94551291396075
 20
2.380181879531922
 11
78.25366491396076
 21
-0.433533020468114
  0
LINE
  5
225
100
AcDbEntity
  8
placement
  6
ByLayer
 62
  256
370
   -1
100
AcDbLine
 10
72.92874088853253
 20
-5.064259211474036
 11
60.37170508853254
 21
-8.428906811474034
  0
LINE
  5
226
100
AcDbEntity
  8
placement
  6
ByLayer
 62
  256
370
   -1
100
AcDbLine
 10
67.99823808853253
 20
13.33662778852593
 11
55.44120228853253
 21
9.971980188525951
  0
LINE
  5
227
100
AcDbEntity
  8
placement
  6
ByLayer
 62
  256
370
   -1
100
AcDbLine
 10
63.06773531146747
 20
31.73751481147402
 11
50.51069951146747
 21
28.37286721147404
  0
LINE
  5
228
100
AcDbEntity
  8
placement
  6
ByLayer
 62
  256
370
   -1
100
AcDbLine
 10
101.3650917
 20
-34.56188810000001
 11
88.36509169999999
 21
-34.56188810000001
  0
LINE
  5
229
100
AcDbEntity
  8
placement
  6
ByLayer
 62
  256
370
   -1
100
AcDbLine
 10
68.44737347258636
 20
-34.59430866359391
 11
56.23136947258637
 21
-39.04057056359392
  0
LINE
  5
22A
100
AcDbEntity
  8
placement
  6
ByLayer
 62
  256
370
   -1
100
AcDbLine
 10
49.62868845518024
 20
-42.19156645025506
 11
38.09754765518024
 21
-48.19429845025505
  0
LINE
  5
22B
100
AcDbEntity
  8
placement
  6
ByLayer
 62
  256
370
   -1
100
AcDbLine
 10
17.66382729924259
 20
-57.24317001361089
 11
28.31280379924259
 21
-49.78667641361091
  0
LINE
  5
22C
100
AcDbEntity
  8
placement
  6
ByLayer
 62
  256
370
   -1
100
AcDbLine
 10
38.59221828853254
 20
-24.12570831147403
 11
26.03518248853254
 21
-27.49035591147403
  0
LINE
  5
22D
100
AcDbEntity
  8
placement
  6
ByLayer
 62
  256
370
   -1
100
AcDbLine
 10
55.76047958853253
 20
-14.59498381147404
 11
43.20344378853254
 21
-17.95963141147406
  0
LINE
  5
22E
100
AcDbEntity
  8
placement
  6
ByLayer
 62
  256
370
   -1
100
AcDbLine
 10
45.89947398853253
 20
22.20679018852599
 11
33.34243818853253
 21
18.84214258852598
  0
LINE
  5
22F
100
AcDbEntity
  8
placement
  6
ByLayer
 62
  256
370
   -1
100
AcDbLine
 10
50.82997678853253
 20
3.805903188525976
 11
38.27294098853254
 21
0.4412555885259639
  0
LINE
  5
230
100
AcDbEntity
  8
placement
  6
ByLayer
 62
  256
370
   -1
100
AcDbLine
 10
28.73121268853254
 20
12.67606568852597
 11
16.17417688853253
 21
9.31141808852597
  0
LINE
  5
231
100
AcDbEntity
  8
placement
  6
ByLayer
 62
  256
370
   -1
100
AcDbLine
 10
33.66171548853254
 20
-5.724821311474029
 11
21.10467968853254
 21
-9.089468911474027
  0
LWPOLYLINE
  5
232
100
AcDbEntity
  8
rp2040
  6
ByLayer
 62
  256
370
   -1
100
AcDbPolyline
 90
    4
 70
    1
 43
0
 10
-10
 20
16
 10
9.999999999999947
 20
16
 10
9.999999999999947
 20
-8.000000000000041
 10
-10
 20
-8.000000000000041
  0
LINE
  5
233
100
AcDbEntity
  8
placement
  6
ByLayer
 62
  256
370
   -1
100
AcDbLine
 10
-10
 20
16
 11
9.999999999999947
 21
-8.000000000000041
  0
ARC
  5
234
100
AcDbEntity
  8
pcb
  6
ByLayer
 62
  256
370
   -1
100
AcDbCircle
 10
-123.5919882869949
 20
42.1041394091169
 40
4
100
AcDbArc
 50
109.2347424986064
 51
170.0000000502695
  0
LINE
  5
235
100
AcDbEntity
  8
pcb
  6
ByLayer
 62
  256
370
   -1
100
AcDbLine
 10
-127.5312192996532
 20
42.79873211632847
 11
-137.1238442259608
 21
-11.60374750976354
  0
ARC
  5
236
100
AcDbEntity
  8
pcb
  6
ByLayer
 62
  256
370
   -1
100
AcDbCircle
 10
-133.1846132133026
 20
-12.29834021697511
 40
4
100
AcDbArc
 50
170.0000000502694
 51
235.3018365481196
  0
LINE
  5
237
100
AcDbEntity
  8
pcb
  6
ByLayer
 62
  256
370
   -1
100
AcDbLine
 10
-135.4616258944555
 20
-15.58698936972292
 11
-109.7428096390881
 21
-33.39432242280422
  0
ARC
  5
238
100
AcDbEntity
  8
pcb
  6
ByLayer
 62
  256
370
   -1
100
AcDbCircle
 10
-101.2040120847646
 20
-21.0618881
 40
15
100
AcDbArc
 50
235.3018365481196
 51
270
  0
LINE
  5
239
100
AcDbEntity
  8
pcb
  6
ByLayer
 62
  256
370
   -1
100
AcDbLine
 10
-101.2040120847646
 20
-36.0618881
 11
-74.81973010512226
 21
-36.0618881
  0
ARC
  5
23A
100
AcDbEntity
  8
pcb
  6
ByLayer
 62
  256
370
   -1
100
AcDbCircle
 10
-74.81973010512226
 20
-51.0618881
 40
15
100
AcDbArc
 50
62.49999982702118
 51
90
  0
LINE
  5
23B
100
AcDbEntity
  8
pcb
  6
ByLayer
 62
  256
370
   -1
100
AcDbLine
 10
-67.8935008664278
 20
-37.75672562323729
 11
-34.20493379198091
 21
-55.29388375176594
  0
ARC
  5
23C
100
AcDbEntity
  8
pcb
  6
ByLayer
 62
  256
370
   -1
100
AcDbCircle
 10
-41.13116303067537
 20
-68.59904622852864
 40
15
100
AcDbArc
 50
55.00000007046612
 51
62.49999982702121
  0
ARC
  5
23D
100
AcDbEntity
  8
pcb
  6
ByLayer
 62
  256
370
   -1
100
AcDbCircle
 10
-10.48463118011257
 20
25.53832247014924
 40
4
100
AcDbArc
 50
0
 51
63.01066379254797
  0
LINE
  5
23E
100
AcDbEntity
  8
pcb
  6
ByLayer
 62
  256
370
   -1
100
AcDbLine
 10
-6.484631180112571
 20
21.5
 11
-6.484631180112571
 21
25.53832247014924
  0
ARC
  5
23F
100
AcDbEntity
  8
pcb
  6
ByLayer
 62
  256
370
   -1
100
AcDbCircle
 10
-2.484631180112571
 20
21.5
 40
4
100
AcDbArc
 50
180
 51
270
  0
ARC
  5
240
100
AcDbEntity
  8
pcb
  6
ByLayer
 62
  256
370
   -1
100
AcDbCircle
 10
123.5919882869949
 20
42.1041394091169
 40
4
100
AcDbArc
 50
9.999999949730533
 51
70.76525750139361
  0
LINE
  5
241
100
AcDbEntity
  8
pcb
  6
ByLayer
 62
  256
370
   -1
100
AcDbLine
 10
127.5312192996532
 20
42.79873211632847
 11
137.1238442259608
 21
-11.60374750976354
  0
ARC
  5
242
100
AcDbEntity
  8
pcb
  6
ByLayer
 62
  256
370
   -1
100
AcDbCircle
 10
133.1846132133026
 20
-12.29834021697511
 40
4
100
AcDbArc
 50
304.6981634518805
 51
9.999999949730585
  0
LINE
  5
243
100
AcDbEntity
  8
pcb
  6
ByLayer
 62
  256
370
   -1
100
AcDbLine
 10
135.4616258944555
 20
-15.58698936972291
 11
109.7428096390881
 21
-33.3943224228042
  0
ARC
  5
244
100
AcDbEntity
  8
pcb
  6
ByLayer
 62
  256
370
   -1
100
AcDbCircle
 10
101.2040120847646
 20
-21.06188810000001
 40
15
100
AcDbArc
 50
270
 51
304.6981634518805
  0
LINE
  5
245
100
AcDbEntity
  8
pcb
  6
ByLayer
 62
  256
370
   -1
100
AcDbLine
 10
101.2040120847646
 20
-36.06188809999998
 11
74.81973010512226
 21
-36.06188809999998
  0
ARC
  5
246
100
AcDbEntity
  8
pcb
  6
ByLayer
 62
  256
370
   -1
100
AcDbCircle
 10
74.81973010512226
 20
-51.06188809999998
 40
15
100
AcDbArc
 50
90
 51
117.5000001729788
  0
LINE
  5
247
100
AcDbEntity
  8
pcb
  6
ByLayer
 62
  256
370
   -1
100
AcDbLine
 10
67.8935008664278
 20
-37.75672562323728
 11
34.20493379198091
 21
-55.29388375176595
  0
ARC
  5
248
100
AcDbEntity
  8
pcb
  6
ByLayer
 62
  256
370
   -1
100
AcDbCircle
 10
41.13116303067537
 20
-68.59904622852864
 40
15
100
AcDbArc
 50
117.5000001729787
 51
124.9999999295339
  0
ARC
  5
249
100
AcDbEntity
  8
pcb
  6
ByLayer
 62
  256
370
   -1
100
AcDbCircle
 10
10.48463118011257
 20
25.53832247014924
 40
4
100
AcDbArc
 50
116.989336207452
 51
180
  0
LINE
  5
24A
100
AcDbEntity
  8
pcb
  6
ByLayer
 62
  256
370
   -1
100
AcDbLine
 10
6.484631180112571
 20
21.5
 11
6.484631180112571
 21
25.53832247014924
  0
ARC
  5
24B
100
AcDbEntity
  8
pcb
  6
ByLayer
 62
  256
370
   -1
100
AcDbCircle
 10
2.484631180112571
 20
21.5
 40
4
100
AcDbArc
 50
270
 51
0
  0
LINE
  5
24C
100
AcDbEntity
  8
pcb
  6
ByLayer
 62
  256
370
   -1
100
AcDbLine
 10
-2.484631180112572
 20
17.5
 11
2.48463118011257
 21
17.5
  0
LINE
  5
24D
100
AcDbEntity
  8
pcb
  6
ByLayer
 62
  256
370
   -1
100
AcDbLine
 10
-23.51244410718499
 20
-62.62418718440949
 11
-32.52751650052139
 21
-56.31176555361244
  0
ARC
  5
24E
100
AcDbEntity
  8
pcb
  6
ByLayer
 62
  256
370
   -1
100
AcDbCircle
 10
-14.90879757703101
 20
-50.33690650949329
 40
15
100
AcDbArc
 50
235.0000000704661
 51
270
  0
LINE
  5
24F
100
AcDbEntity
  8
pcb
  6
ByLayer
 62
  256
370
   -1
100
AcDbLine
 10
-14.90879757703101
 20
-65.33690650949329
 11
14.90879757703098
 21
-65.33690650949329
  0
LINE
  5
250
100
AcDbEntity
  8
pcb
  6
ByLayer
 62
  256
370
   -1
100
AcDbLine
 10
23.51244410718495
 20
-62.62418718440951
 11
32.52751650052139
 21
-56.31176555361245
  0
ARC
  5
251
100
AcDbEntity
  8
pcb
  6
ByLayer
 62
  256
370
   -1
100
AcDbCircle
 10
14.90879757703098
 20
-50.33690650949329
 40
15
100
AcDbArc
 50
270
 51
304.9999999295338
  0
LINE
  5
252
100
AcDbEntity
  8
pcb
  6
ByLayer
 62
  256
370
   -1
100
AcDbLine
 10
-124.9097452017119
 20
45.88084653487019
 11
-83.74256751145789
 21
60.24477025317937
  0
ARC
  5
253
100
AcDbEntity
  8
pcb
  6
ByLayer
 62
  256
370
   -1
100
AcDbCircle
 10
-82.42481059674091
 20
56.46806312742609
 40
4
100
AcDbArc
 50
77.5000002610802
 51
109.2347424986064
  0
LINE
  5
254
100
AcDbEntity
  8
pcb
  6
ByLayer
 62
  256
370
   -1
100
AcDbLine
 10
-81.55905215878329
 20
60.37324715985083
 11
-61.709192482533
 21
55.97263931031036
  0
LINE
  5
255
100
AcDbEntity
  8
pcb
  6
ByLayer
 62
  256
370
   -1
100
AcDbLine
 10
-60.75965228342626
 20
55.63181929665142
 11
-8.669332543048213
 21
29.10268648891503
  0
ARC
  5
256
100
AcDbEntity
  8
pcb
  6
ByLayer
 62
  256
370
   -1
100
AcDbCircle
 10
-62.57495092049062
 20
52.06745527788562
 40
4
100
AcDbArc
 50
63.01066379254797
 51
77.5000002610802
  0
LINE
  5
257
100
AcDbEntity
  8
pcb
  6
ByLayer
 62
  256
370
   -1
100
AcDbLine
 10
60.75965228342628
 20
55.63181929665143
 11
8.669332543048213
 21
29.10268648891503
  0
ARC
  5
258
100
AcDbEntity
  8
pcb
  6
ByLayer
 62
  256
370
   -1
100
AcDbCircle
 10
62.57495092049064
 20
52.06745527788564
 40
4
100
AcDbArc
 50
102.4999997389197
 51
116.9893362074521
  0
LINE
  5
259
100
AcDbEntity
  8
pcb
  6
ByLayer
 62
  256
370
   -1
100
AcDbLine
 10
81.55905215878332
 20
60.37324715985083
 11
61.70919248253302
 21
55.97263931031037
  0
LINE
  5
25A
100
AcDbEntity
  8
pcb
  6
ByLayer
 62
  256
370
   -1
100
AcDbLine
 10
124.9097452017119
 20
45.88084653487019
 11
83.74256751145791
 21
60.24477025317935
  0
ARC
  5
25B
100
AcDbEntity
  8
pcb
  6
ByLayer
 62
  256
370
   -1
100
AcDbCircle
 10
82.42481059674094
 20
56.46806312742608
 40
4
100
AcDbArc
 50
70.76525750139373
 51
102.4999997389198
  0
CIRCLE
  5
25C
100
AcDbEntity
  8
percage
  6
ByLayer
 62
  256
370
   -1
100
AcDbCircle
 10
110
 20
44
 40
1.1
  0
LINE
  5
25D
100
AcDbEntity
  8
percage
  6
ByLayer
 62
  256
370
   -1
100
AcDbLine
 10
81.88371157301742
 20
58.90880314769155
 11
62.03385189676712
 21
54.50819529815109
  0
LINE
  5
25E
100
AcDbEntity
  8
percage
  6
ByLayer
 62
  256
370
   -1
100
AcDbLine
 10
126.0540076699063
 20
42.53825985112413
 11
135.6466325962139
 21
-11.86421977496788
  0
LINE
  5
25F
100
AcDbEntity
  8
percage
  6
ByLayer
 62
  256
370
   -1
100
AcDbLine
 10
134.6077461390231
 20
-14.35374593744249
 11
108.8889298836558
 21
-32.16107899052378
  0
LINE
  5
260
100
AcDbEntity
  8
percage
  6
ByLayer
 62
  256
370
   -1
100
AcDbLine
 10
101.2040120847646
 20
-34.56188809999998
 11
74.81973010512226
 21
-34.56188809999998
  0
LINE
  5
261
100
AcDbEntity
  8
percage
  6
ByLayer
 62
  256
370
   -1
100
AcDbLine
 10
67.20087794255835
 20
-36.42620937556101
 11
33.51231086811147
 21
-53.96336750408968
  0
LINE
  5
262
100
AcDbEntity
  8
percage
  6
ByLayer
 62
  256
370
   -1
100
AcDbLine
 10
22.65207945416956
 20
-61.39545911691789
 11
31.66715184750599
 21
-55.08303748612083
  0
ARC
  5
263
100
AcDbEntity
  8
percage
  6
ByLayer
 62
  256
370
   -1
100
AcDbCircle
 10
14.90879757703098
 20
-50.33690650949329
 40
13.5
100
AcDbArc
 50
270
 51
304.9999999295338
  0
ARC
  5
264
100
AcDbEntity
  8
percage
  6
ByLayer
 62
  256
370
   -1
100
AcDbCircle
 10
41.13116303067537
 20
-68.59904622852864
 40
16.5
100
AcDbArc
 50
117.5000001729787
 51
124.9999999295339
  0
ARC
  5
265
100
AcDbEntity
  8
percage
  6
ByLayer
 62
  256
370
   -1
100
AcDbCircle
 10
74.81973010512226
 20
-51.06188809999998
 40
16.5
100
AcDbArc
 50
90
 51
117.5000001729788
  0
ARC
  5
266
100
AcDbEntity
  8
percage
  6
ByLayer
 62
  256
370
   -1
100
AcDbCircle
 10
101.2040120847646
 20
-21.06188810000001
 40
13.5
100
AcDbArc
 50
270
 51
304.6981634518805
  0
ARC
  5
267
100
AcDbEntity
  8
percage
  6
ByLayer
 62
  256
370
   -1
100
AcDbCircle
 10
133.1846132133026
 20
-12.29834021697511
 40
2.5
100
AcDbArc
 50
304.6981634518805
 51
9.999999949730585
  0
ARC
  5
268
100
AcDbEntity
  8
percage
  6
ByLayer
 62
  256
370
   -1
100
AcDbCircle
 10
123.5919882869949
 20
42.1041394091169
 40
2.5
100
AcDbArc
 50
9.999999949730533
 51
70.76525750139361
  0
ARC
  5
269
100
AcDbEntity
  8
percage
  6
ByLayer
 62
  256
370
   -1
100
AcDbCircle
 10
82.42481059674094
 20
56.46806312742608
 40
2.5
100
AcDbArc
 50
70.76525750139373
 51
102.4999997389198
  0
ARC
  5
26A
100
AcDbEntity
  8
percage
  6
ByLayer
 62
  256
370
   -1
100
AcDbCircle
 10
62.57495092049064
 20
52.06745527788564
 40
2.5
100
AcDbArc
 50
102.4999997389197
 51
116.9893362074521
  0
LINE
  5
26B
100
AcDbEntity
  8
percage
  6
ByLayer
 62
  256
370
   -1
100
AcDbLine
 10
7.984631180112571
 20
21.5
 11
7.984631180112571
 21
25.53832247014924
  0
ARC
  5
26C
100
AcDbEntity
  8
percage
  6
ByLayer
 62
  256
370
   -1
100
AcDbCircle
 10
10.48463118011257
 20
25.53832247014924
 40
2.5
100
AcDbArc
 50
116.989336207452
 51
180
  0
ARC
  5
26D
100
AcDbEntity
  8
percage
  6
ByLayer
 62
  256
370
   -1
100
AcDbCircle
 10
2.484631180112571
 20
21.5
 40
5.5
100
AcDbArc
 50
270
 51
0
  0
LINE
  5
26E
100
AcDbEntity
  8
0
  6
ByLayer
 62
  256
370
   -1
100
AcDbLine
 10
42.23486170005813
 20
37.81516109978306
 11
45.59950929999999
 21
25.25812530000003
  0
LINE
  5
26F
100
AcDbEntity
  8
0
  6
ByLayer
 62
  256
370
   -1
100
AcDbLine
 10
41.62248926441326
 20
38.16871449046456
 11
29.0654535
 21
34.80406690000001
  0
ARC
  5
270
100
AcDbEntity
  8
0
  6
ByLayer
 62
  256
370
   -1
100
AcDbCircle
 10
41.75189878689496
 20
37.68575157730137
 40
0.5
100
AcDbArc
 50
14.99999999174621
 51
104.9999999917468
  0
CIRCLE
  5
271
100
AcDbEntity
  8
percage
  6
ByLayer
 62
  256
370
   -1
100
AcDbCircle
 10
80.52602235407183
 20
-11.39914011105694
 40
1.1
  0
CIRCLE
  5
272
100
AcDbEntity
  8
percage
  6
ByLayer
 62
  256
370
   -1
100
AcDbCircle
 10
10
 20
-20
 40
1.1
  0
ARC
  5
273
100
AcDbEntity
  8
percage
  6
ByLayer
 62
  256
370
   -1
100
AcDbCircle
 10
13.70430615422763
 20
-18.17608017985352
 40
5
100
AcDbArc
 50
14.99999999174655
 51
89.99999999999996
  0
LINE
  5
274
100
AcDbEntity
  8
percage
  6
ByLayer
 62
  256
370
   -1
100
AcDbLine
 10
18.53393528585939
 20
-16.88198495503662
 11
18.93619303073084
 21
-18.38323129749998
  0
ARC
  5
275
100
AcDbEntity
  8
percage
  6
ByLayer
 62
  256
370
   -1
100
AcDbCircle
 10
14.10656389909908
 20
-19.67732652231687
 40
5
100
AcDbArc
 50
304.9999999295339
 51
14.99999999174655
  0
LINE
  5
276
100
AcDbEntity
  8
percage
  6
ByLayer
 62
  256
370
   -1
100
AcDbLine
 10
8.000000000000002
 20
-13.17608017985351
 11
13.70430615422763
 21
-13.17608017985351
  0
ARC
  5
277
100
AcDbEntity
  8
percage
  6
ByLayer
 62
  256
370
   -1
100
AcDbCircle
 10
8
 20
-18.17608017985351
 40
5
100
AcDbArc
 50
89.99999999999999
 51
180
  0
LINE
  5
278
100
AcDbEntity
  8
percage
  6
ByLayer
 62
  256
370
   -1
100
AcDbLine
 10
3
 20
-18.17608017985351
 11
3
 21
-23.95318858583288
  0
LINE
  5
279
100
AcDbEntity
  8
percage
  6
ByLayer
 62
  256
370
   -1
100
AcDbLine
 10
10.867882176718
 20
-28.04894881080494
 11
16.97444607581708
 21
-23.77308674728894
  0
ARC
  5
27A
100
AcDbEntity
  8
percage
  6
ByLayer
 62
  256
370
   -1
100
AcDbCircle
 10
8
 20
-23.95318858583288
 40
5
100
AcDbArc
 50
180
 51
304.9999999295339
  0
ARC
  5
27B
100
AcDbEntity
  8
percage
  6
ByLayer
 62
  256
370
   -1
100
AcDbCircle
 10
68.11390688636797
 20
-12.56604717552131
 40
3
100
AcDbArc
 50
104.9999999917466
 51
194.9999999917465
  0
LINE
  5
27C
100
AcDbEntity
  8
percage
  6
ByLayer
 62
  256
370
   -1
100
AcDbLine
 10
65.21612940738892
 20
-13.34250431041145
 11
66.25140558724244
 21
-17.20620761571685
  0
ARC
  5
27D
100
AcDbEntity
  8
percage
  6
ByLayer
 62
  256
370
   -1
100
AcDbCircle
 10
69.1491830662215
 20
-16.42975048082671
 40
3
100
AcDbArc
 50
194.9999999917466
 51
284.9999999917465
  0
LINE
  5
27E
100
AcDbEntity
  8
percage
  6
ByLayer
 62
  256
370
   -1
100
AcDbLine
 10
93.63753768702651
 20
-12.97394418110621
 11
69.92564020111163
 21
-19.32752795980576
  0
ARC
  5
27F
100
AcDbEntity
  8
percage
  6
ByLayer
 62
  256
370
   -1
100
AcDbCircle
 10
92.86108055213637
 20
-10.07616670212716
 40
3
100
AcDbArc
 50
284.9999999917465
 51
14.99999999174652
  0
LINE
  5
280
100
AcDbEntity
  8
percage
  6
ByLayer
 62
  256
370
   -1
100
AcDbLine
 10
91.04934723739272
 20
-3.314685917842699
 11
67.33744975147783
 21
-9.668269696542261
  0
LINE
  5
281
100
AcDbEntity
  8
percage
  6
ByLayer
 62
  256
370
   -1
100
AcDbLine
 10
94.72358185126191
 20
-5.436006261931611
 11
95.75885803111544
 21
-9.299709567237016
  0
ARC
  5
282
100
AcDbEntity
  8
percage
  6
ByLayer
 62
  256
370
   -1
100
AcDbCircle
 10
91.82580437228286
 20
-6.212463396821751
 40
3
100
AcDbArc
 50
14.9999999917466
 51
104.9999999917465
  0
ARC
  5
283
100
AcDbEntity
  8
percage
  6
ByLayer
 62
  256
370
   -1
100
AcDbCircle
 10
109.5801388588143
 20
43.53794621937943
 40
3
100
AcDbArc
 50
189.9999999497306
 51
279.9999999497307
  0
LINE
  5
284
100
AcDbEntity
  8
percage
  6
ByLayer
 62
  256
370
   -1
100
AcDbLine
 10
111.8764759097351
 20
40.89657256099395
 11
110.1010833892229
 21
40.58352295988574
  0
ARC
  5
285
100
AcDbEntity
  8
percage
  6
ByLayer
 62
  256
370
   -1
100
AcDbCircle
 10
111.3555313793265
 20
43.85099582048763
 40
3
100
AcDbArc
 50
279.9999999497307
 51
326.8118984372004
  0
LINE
  5
286
100
AcDbEntity
  8
percage
  6
ByLayer
 62
  256
370
   -1
100
AcDbLine
 10
113.8661653978517
 20
42.20882749019272
 11
115.7436156918628
 21
45.07917305055802
  0
LINE
  5
287
100
AcDbEntity
  8
percage
  6
ByLayer
 62
  256
370
   -1
100
AcDbLine
 10
124.415586358693
 20
44.46458136271271
 11
119.2425673964258
 21
46.26953506457807
  0
ARC
  5
288
100
AcDbEntity
  8
percage
  6
ByLayer
 62
  256
370
   -1
100
AcDbCircle
 10
118.2542497103881
 20
43.43700472026311
 40
3
100
AcDbArc
 50
70.76525750139366
 51
146.8118984372004
  0
LINE
  5
289
100
AcDbEntity
  8
percage
  6
ByLayer
 62
  256
370
   -1
100
AcDbLine
 10
103.5268076377069
 20
51.75302912501627
 11
83.24840866843904
 21
58.82850508102187
  0
LINE
  5
28A
100
AcDbEntity
  8
percage
  6
ByLayer
 62
  256
370
   -1
100
AcDbLine
 10
106.6257155993206
 20
43.01700168897074
 11
105.4929132111628
 21
49.44144331110999
  0
ARC
  5
28B
100
AcDbEntity
  8
percage
  6
ByLayer
 62
  256
370
   -1
100
AcDbCircle
 10
102.5384899516691
 20
48.92049878070131
 40
3
100
AcDbArc
 50
9.999999949730711
 51
70.76525750139366
  0
LINE
  5
28C
100
AcDbEntity
  8
percage
  6
ByLayer
 62
  256
370
   -1
100
AcDbLine
 10
36.89938105557177
 20
41.79666733678355
 11
9.350069531947346
 21
27.76604998187786
  0
ARC
  5
28D
100
AcDbEntity
  8
percage
  6
ByLayer
 62
  256
370
   -1
100
AcDbCircle
 10
38.26085503337004
 20
39.1233943227092
 40
3
100
AcDbArc
 50
14.9999999917466
 51
116.989336207452
  0
LINE
  5
28E
100
AcDbEntity
  8
percage
  6
ByLayer
 62
  256
370
   -1
100
AcDbLine
 10
61.44038927232541
 20
54.29518278961425
 11
47.87647891487583
 21
47.38720485708333
  0
ARC
  5
28F
100
AcDbEntity
  8
percage
  6
ByLayer
 62
  256
370
   -1
100
AcDbCircle
 10
49.23795289267409
 20
44.71393184300899
 40
3
100
AcDbArc
 50
116.989336207452
 51
194.9999999917466
  0
LINE
  5
290
100
AcDbEntity
  8
percage
  6
ByLayer
 62
  256
370
   -1
100
AcDbLine
 10
46.34017541369504
 20
43.93747470811885
 11
47.50735033075501
 21
39.58151861382116
  0
ARC
  5
291
100
AcDbEntity
  8
percage
  6
ByLayer
 62
  256
370
   -1
100
AcDbCircle
 10
44.60957285177597
 20
38.80506147893102
 40
3
100
AcDbArc
 50
284.9999999917465
 51
14.99999999174657
  0
LINE
  5
292
100
AcDbEntity
  8
percage
  6
ByLayer
 62
  256
370
   -1
100
AcDbLine
 10
45.3377337897696
 20
35.89434307300351
 11
45.3860299866661
 21
35.90728399995197
  0
LINE
  5
293
100
AcDbEntity
  8
percage
  6
ByLayer
 62
  256
370
   -1
100
AcDbLine
 10
41.15863251234911
 20
39.89985145759934
 11
41.66349917590041
 21
38.01566341709244
  0
ARC
  5
294
100
AcDbEntity
  8
percage
  6
ByLayer
 62
  256
370
   -1
100
AcDbCircle
 10
44.56127665487946
 20
38.79212055198258
 40
3
100
AcDbArc
 50
194.9999999917466
 51
284.9999999917466
  0
CIRCLE
  5
295
100
AcDbEntity
  8
percage
  6
ByLayer
 62
  256
370
   -1
100
AcDbCircle
 10
44.6644036251408
 20
38.46615489621144
 40
1.1
  0
CIRCLE
  5
296
100
AcDbEntity
  8
percage
  6
ByLayer
 62
  256
370
   -1
100
AcDbCircle
 10
-110
 20
44
 40
1.1
  0
LINE
  5
297
100
AcDbEntity
  8
percage
  6
ByLayer
 62
  256
370
   -1
100
AcDbLine
 10
-81.88371157301742
 20
58.90880314769154
 11
-62.03385189676712
 21
54.50819529815109
  0
LINE
  5
298
100
AcDbEntity
  8
percage
  6
ByLayer
 62
  256
370
   -1
100
AcDbLine
 10
-126.0540076699063
 20
42.53825985112415
 11
-135.6466325962139
 21
-11.86421977496788
  0
LINE
  5
299
100
AcDbEntity
  8
percage
  6
ByLayer
 62
  256
370
   -1
100
AcDbLine
 10
-134.6077461390231
 20
-14.35374593744245
 11
-108.8889298836558
 21
-32.16107899052378
  0
LINE
  5
29A
100
AcDbEntity
  8
percage
  6
ByLayer
 62
  256
370
   -1
100
AcDbLine
 10
-101.2040120847646
 20
-34.5618881
 11
-74.81973010512226
 21
-34.5618881
  0
LINE
  5
29B
100
AcDbEntity
  8
percage
  6
ByLayer
 62
  256
370
   -1
100
AcDbLine
 10
-67.20087794255835
 20
-36.42620937556101
 11
-33.51231086811147
 21
-53.96336750408968
  0
LINE
  5
29C
100
AcDbEntity
  8
percage
  6
ByLayer
 62
  256
370
   -1
100
AcDbLine
 10
-22.65207945416956
 20
-61.39545911691789
 11
-31.66715184750599
 21
-55.08303748612083
  0
ARC
  5
29D
100
AcDbEntity
  8
percage
  6
ByLayer
 62
  256
370
   -1
100
AcDbCircle
 10
-14.90879757703098
 20
-50.33690650949329
 40
13.5
100
AcDbArc
 50
235.0000000704662
 51
270
  0
ARC
  5
29E
100
AcDbEntity
  8
percage
  6
ByLayer
 62
  256
370
   -1
100
AcDbCircle
 10
-41.13116303067537
 20
-68.59904622852864
 40
16.5
100
AcDbArc
 50
55.00000007046606
 51
62.49999982702126
  0
ARC
  5
29F
100
AcDbEntity
  8
percage
  6
ByLayer
 62
  256
370
   -1
100
AcDbCircle
 10
-74.81973010512226
 20
-51.06188809999998
 40
16.5
100
AcDbArc
 50
62.49999982702116
 51
90
  0
ARC
  5
2A0
100
AcDbEntity
  8
percage
  6
ByLayer
 62
  256
370
   -1
100
AcDbCircle
 10
-101.2040120847646
 20
-21.06188810000003
 40
13.5
100
AcDbArc
 50
235.3018365481196
 51
270
  0
ARC
  5
2A1
100
AcDbEntity
  8
percage
  6
ByLayer
 62
  256
370
   -1
100
AcDbCircle
 10
-133.1846132133026
 20
-12.2983402169751
 40
2.5
100
AcDbArc
 50
170.0000000502694
 51
235.3018365481196
  0
ARC
  5
2A2
100
AcDbEntity
  8
percage
  6
ByLayer
 62
  256
370
   -1
100
AcDbCircle
 10
-123.5919882869949
 20
42.1041394091169
 40
2.5
100
AcDbArc
 50
109.2347424986064
 51
170.0000000502695
  0
ARC
  5
2A3
100
AcDbEntity
  8
percage
  6
ByLayer
 62
  256
370
   -1
100
AcDbCircle
 10
-82.42481059674094
 20
56.46806312742611
 40
2.5
100
AcDbArc
 50
77.50000026108022
 51
109.2347424986063
  0
ARC
  5
2A4
100
AcDbEntity
  8
percage
  6
ByLayer
 62
  256
370
   -1
100
AcDbCircle
 10
-62.57495092049064
 20
52.06745527788565
 40
2.5
100
AcDbArc
 50
63.01066379254792
 51
77.50000026108027
  0
LINE
  5
2A5
100
AcDbEntity
  8
percage
  6
ByLayer
 62
  256
370
   -1
100
AcDbLine
 10
-7.984631180112571
 20
21.5
 11
-7.984631180112571
 21
25.53832247014927
  0
ARC
  5
2A6
100
AcDbEntity
  8
percage
  6
ByLayer
 62
  256
370
   -1
100
AcDbCircle
 10
-10.48463118011257
 20
25.53832247014927
 40
2.5
100
AcDbArc
 50
0
 51
63.01066379254802
  0
ARC
  5
2A7
100
AcDbEntity
  8
percage
  6
ByLayer
 62
  256
370
   -1
100
AcDbCircle
 10
-2.484631180112571
 20
21.5
 40
5.5
100
AcDbArc
 50
180
 51
270
  0
CIRCLE
  5
2A8
100
AcDbEntity
  8
percage
  6
ByLayer
 62
  256
370
   -1
100
AcDbCircle
 10
-80.52602235407183
 20
-11.39914011105693
 40
1.1
  0
CIRCLE
  5
2A9
100
AcDbEntity
  8
percage
  6
ByLayer
 62
  256
370
   -1
100
AcDbCircle
 10
-10
 20
-20
 40
1.1
  0
ARC
  5
2AA
100
AcDbEntity
  8
percage
  6
ByLayer
 62
  256
370
   -1
100
AcDbCircle
 10
-13.70430615422763
 20
-18.17608017985348
 40
5
100
AcDbArc
 50
90.00000000000004
 51
165.0000000082535
  0
LINE
  5
2AB
100
AcDbEntity
  8
percage
  6
ByLayer
 62
  256
370
   -1
100
AcDbLine
 10
-18.53393528585939
 20
-16.88198495503661
 11
-18.93619303073084
 21
-18.38323129749997
  0
ARC
  5
2AC
100
AcDbEntity
  8
percage
  6
ByLayer
 62
  256
370
   -1
100
AcDbCircle
 10
-14.10656389909908
 20
-19.67732652231687
 40
5
100
AcDbArc
 50
165.0000000082535
 51
235.0000000704661
  0
LINE
  5
2AD
100
AcDbEntity
  8
percage
  6
ByLayer
 62
  256
370
   -1
100
AcDbLine
 10
-8.000000000000002
 20
-13.17608017985349
 11
-13.70430615422763
 21
-13.17608017985349
  0
ARC
  5
2AE
100
AcDbEntity
  8
percage
  6
ByLayer
 62
  256
370
   -1
100
AcDbCircle
 10
-8
 20
-18.17608017985349
 40
5
100
AcDbArc
 50
0
 51
90.00000000000001
  0
LINE
  5
2AF
100
AcDbEntity
  8
percage
  6
ByLayer
 62
  256
370
   -1
100
AcDbLine
 10
-3
 20
-18.17608017985349
 11
-3
 21
-23.95318858583288
  0
LINE
  5
2B0
100
AcDbEntity
  8
percage
  6
ByLayer
 62
  256
370
   -1
100
AcDbLine
 10
-10.867882176718
 20
-28.04894881080496
 11
-16.97444607581708
 21
-23.77308674728894
  0
ARC
  5
2B1
100
AcDbEntity
  8
percage
  6
ByLayer
 62
  256
370
   -1
100
AcDbCircle
 10
-8
 20
-23.95318858583288
 40
5
100
AcDbArc
 50
235.0000000704661
 51
0
  0
ARC
  5
2B2
100
AcDbEntity
  8
percage
  6
ByLayer
 62
  256
370
   -1
100
AcDbCircle
 10
-68.11390688636797
 20
-12.5660471755213
 40
3
100
AcDbArc
 50
345.0000000082535
 51
75.00000000825342
  0
LINE
  5
2B3
100
AcDbEntity
  8
percage
  6
ByLayer
 62
  256
370
   -1
100
AcDbLine
 10
-65.21612940738892
 20
-13.34250431041144
 11
-66.25140558724244
 21
-17.20620761571685
  0
ARC
  5
2B4
100
AcDbEntity
  8
percage
  6
ByLayer
 62
  256
370
   -1
100
AcDbCircle
 10
-69.1491830662215
 20
-16.42975048082672
 40
3
100
AcDbArc
 50
255.0000000082535
 51
345.0000000082534
  0
LINE
  5
2B5
100
AcDbEntity
  8
percage
  6
ByLayer
 62
  256
370
   -1
100
AcDbLine
 10
-93.63753768702651
 20
-12.9739441811062
 11
-69.92564020111163
 21
-19.32752795980576
  0
ARC
  5
2B6
100
AcDbEntity
  8
percage
  6
ByLayer
 62
  256
370
   -1
100
AcDbCircle
 10
-92.86108055213637
 20
-10.07616670212715
 40
3
100
AcDbArc
 50
165.0000000082535
 51
255.0000000082535
  0
LINE
  5
2B7
100
AcDbEntity
  8
percage
  6
ByLayer
 62
  256
370
   -1
100
AcDbLine
 10
-91.04934723739272
 20
-3.314685917842692
 11
-67.33744975147783
 21
-9.668269696542275
  0
LINE
  5
2B8
100
AcDbEntity
  8
percage
  6
ByLayer
 62
  256
370
   -1
100
AcDbLine
 10
-94.72358185126191
 20
-5.436006261931608
 11
-95.75885803111544
 21
-9.299709567237016
  0
ARC
  5
2B9
100
AcDbEntity
  8
percage
  6
ByLayer
 62
  256
370
   -1
100
AcDbCircle
 10
-91.82580437228286
 20
-6.212463396821742
 40
3
100
AcDbArc
 50
75.00000000825345
 51
165.0000000082534
  0
ARC
  5
2BA
100
AcDbEntity
  8
percage
  6
ByLayer
 62
  256
370
   -1
100
AcDbCircle
 10
-109.5801388588143
 20
43.53794621937941
 40
3
100
AcDbArc
 50
260.0000000502693
 51
350.0000000502694
  0
LINE
  5
2BB
100
AcDbEntity
  8
percage
  6
ByLayer
 62
  256
370
   -1
100
AcDbLine
 10
-111.8764759097351
 20
40.89657256099394
 11
-110.1010833892229
 21
40.58352295988571
  0
ARC
  5
2BC
100
AcDbEntity
  8
percage
  6
ByLayer
 62
  256
370
   -1
100
AcDbCircle
 10
-111.3555313793265
 20
43.85099582048771
 40
3
100
AcDbArc
 50
213.1881015627996
 51
260.0000000502693
  0
LINE
  5
2BD
100
AcDbEntity
  8
percage
  6
ByLayer
 62
  256
370
   -1
100
AcDbLine
 10
-113.8661653978517
 20
42.20882749019275
 11
-115.7436156918628
 21
45.079173050558
  0
LINE
  5
2BE
100
AcDbEntity
  8
percage
  6
ByLayer
 62
  256
370
   -1
100
AcDbLine
 10
-124.415586358693
 20
44.46458136271268
 11
-119.2425673964258
 21
46.26953506457811
  0
ARC
  5
2BF
100
AcDbEntity
  8
percage
  6
ByLayer
 62
  256
370
   -1
100
AcDbCircle
 10
-118.2542497103881
 20
43.4370047202631
 40
3
100
AcDbArc
 50
33.18810156279958
 51
109.2347424986063
  0
LINE
  5
2C0
100
AcDbEntity
  8
percage
  6
ByLayer
 62
  256
370
   -1
100
AcDbLine
 10
-103.5268076377069
 20
51.75302912501627
 11
-83.24840866843904
 21
58.82850508102185
  0
LINE
  5
2C1
100
AcDbEntity
  8
percage
  6
ByLayer
 62
  256
370
   -1
100
AcDbLine
 10
-106.6257155993206
 20
43.01700168897073
 11
-105.4929132111628
 21
49.44144331110999
  0
ARC
  5
2C2
100
AcDbEntity
  8
percage
  6
ByLayer
 62
  256
370
   -1
100
AcDbCircle
 10
-102.5384899516691
 20
48.92049878070131
 40
3
100
AcDbArc
 50
109.2347424986063
 51
170.0000000502693
  0
LINE
  5
2C3
100
AcDbEntity
  8
percage
  6
ByLayer
 62
  256
370
   -1
100
AcDbLine
 10
-36.89938105557177
 20
41.79666733678354
 11
-9.350069531947346
 21
27.76604998187786
  0
ARC
  5
2C4
100
AcDbEntity
  8
percage
  6
ByLayer
 62
  256
370
   -1
100
AcDbCircle
 10
-38.26085503337004
 20
39.12339432270921
 40
3
100
AcDbArc
 50
63.01066379254798
 51
165.0000000082534
  0
LINE
  5
2C5
100
AcDbEntity
  8
percage
  6
ByLayer
 62
  256
370
   -1
100
AcDbLine
 10
-61.44038927232541
 20
54.29518278961424
 11
-47.87647891487583
 21
47.38720485708334
  0
ARC
  5
2C6
100
AcDbEntity
  8
percage
  6
ByLayer
 62
  256
370
   -1
100
AcDbCircle
 10
-49.23795289267409
 20
44.71393184300906
 40
3
100
AcDbArc
 50
345.0000000082534
 51
63.01066379254797
  0
LINE
  5
2C7
100
AcDbEntity
  8
percage
  6
ByLayer
 62
  256
370
   -1
100
AcDbLine
 10
-46.34017541369504
 20
43.93747470811886
 11
-47.50735033075501
 21
39.58151861382119
  0
ARC
  5
2C8
100
AcDbEntity
  8
percage
  6
ByLayer
 62
  256
370
   -1
100
AcDbCircle
 10
-44.60957285177597
 20
38.80506147893099
 40
3
100
AcDbArc
 50
165.0000000082534
 51
255.0000000082535
  0
LINE
  5
2C9
100
AcDbEntity
  8
percage
  6
ByLayer
 62
  256
370
   -1
100
AcDbLine
 10
-45.3377337897696
 20
35.89434307300351
 11
-45.3860299866661
 21
35.90728399995194
  0
LINE
  5
2CA
100
AcDbEntity
  8
percage
  6
ByLayer
 62
  256
370
   -1
100
AcDbLine
 10
-41.15863251234911
 20
39.89985145759928
 11
-41.66349917590041
 21
38.01566341709244
  0
ARC
  5
2CB
100
AcDbEntity
  8
percage
  6
ByLayer
 62
  256
370
   -1
100
AcDbCircle
 10
-44.56127665487946
 20
38.79212055198258
 40
3
100
AcDbArc
 50
255.0000000082534
 51
345.0000000082534
  0
CIRCLE
  5
2CC
100
AcDbEntity
  8
percage
  6
ByLayer
 62
  256
370
   -1
100
AcDbCircle
 10
-44.6644036251408
 20
38.46615489621144
 40
1.1
  0
LINE
  5
2CD
100
AcDbEntity
  8
percage
  6
ByLayer
 62
  256
370
   -1
100
AcDbLine
 10
-2.484631180112572
 20
16
 11
2.48463118011257
 21
16
  0
LINE
  5
2CE
100
AcDbEntity
  8
percage
  6
ByLayer
 62
  256
370
   -1
100
AcDbLine
 10
-14.90879757703098
 20
-63.83690650949329
 11
14.90879757703098
 21
-63.83690650949329
  0
LINE
  5
2CF
100
AcDbEntity
  8
ext1
  6
ByLayer
 62
  256
370
   -1
100
AcDbLine
 10
-60.30582762416017
 20
56.52291030134287
 11
-8.215507883782124
 21
29.99377749360648
  0
ARC
  5
2D0
100
AcDbEntity
  8
ext1
  6
ByLayer
 62
  256
370
   -1
100
AcDbCircle
 10
-10.48463118011257
 20
25.53832247014924
 40
5
100
AcDbArc
 50
0
 51
63.01066379254797
  0
LINE
  5
2D1
100
AcDbEntity
  8
ext1
  6
ByLayer
 62
  256
370
   -1
100
AcDbLine
 10
-5.484631180112571
 20
21.5
 11
-5.484631180112571
 21
25.53832247014924
  0
ARC
  5
2D2
100
AcDbEntity
  8
ext1
  6
ByLayer
 62
  256
370
   -1
100
AcDbCircle
 10
-2.484631180112571
 20
21.5
 40
3
100
AcDbArc
 50
180
 51
270
  0
LINE
  5
2D3
100
AcDbEntity
  8
ext1
  6
ByLayer
 62
  256
370
   -1
100
AcDbLine
 10
-2.484631180112572
 20
18.5
 11
2.48463118011257
 21
18.5
  0
ARC
  5
2D4
100
AcDbEntity
  8
ext1
  6
ByLayer
 62
  256
370
   -1
100
AcDbCircle
 10
2.484631180112571
 20
21.5
 40
3
100
AcDbArc
 50
270
 51
0
  0
LINE
  5
2D5
100
AcDbEntity
  8
ext1
  6
ByLayer
 62
  256
370
   -1
100
AcDbLine
 10
5.484631180112571
 20
21.5
 11
5.484631180112571
 21
25.53832247014924
  0
ARC
  5
2D6
100
AcDbEntity
  8
ext1
  6
ByLayer
 62
  256
370
   -1
100
AcDbCircle
 10
10.48463118011257
 20
25.53832247014924
 40
5
100
AcDbArc
 50
116.989336207452
 51
180
  0
LINE
  5
2D7
100
AcDbEntity
  8
ext1
  6
ByLayer
 62
  256
370
   -1
100
AcDbLine
 10
60.30582762416019
 20
56.52291030134288
 11
8.215507883782125
 21
29.99377749360648
  0
LINE
  5
2D8
100
AcDbEntity
  8
ext1
  6
ByLayer
 62
  256
370
   -1
100
AcDbLine
 10
81.34261254929392
 20
61.34954316795702
 11
61.49275287304361
 21
56.94893531841656
  0
LINE
  5
2D9
100
AcDbEntity
  8
ext1
  6
ByLayer
 62
  256
370
   -1
100
AcDbLine
 10
125.2391844303911
 20
46.82502331630851
 11
84.07200674013716
 21
61.18894703461767
  0
ARC
  5
2DA
100
AcDbEntity
  8
ext1
  6
ByLayer
 62
  256
370
   -1
100
AcDbCircle
 10
82.42481059674094
 20
56.46806312742608
 40
5
100
AcDbArc
 50
70.76525750139373
 51
102.4999997389198
  0
ARC
  5
2DB
100
AcDbEntity
  8
ext1
  6
ByLayer
 62
  256
370
   -1
100
AcDbCircle
 10
62.57495092049064
 20
52.06745527788564
 40
5
100
AcDbArc
 50
102.4999997389197
 51
116.9893362074521
  0
ARC
  5
2DC
100
AcDbEntity
  8
ext1
  6
ByLayer
 62
  256
370
   -1
100
AcDbCircle
 10
123.5919882869949
 20
42.1041394091169
 40
5
100
AcDbArc
 50
9.999999949730533
 51
70.76525750139361
  0
LINE
  5
2DD
100
AcDbEntity
  8
ext1
  6
ByLayer
 62
  256
370
   -1
100
AcDbLine
 10
128.5160270528178
 20
42.97238029313137
 11
138.1086519791254
 21
-11.43009933296065
  0
LINE
  5
2DE
100
AcDbEntity
  8
ext1
  6
ByLayer
 62
  256
370
   -1
100
AcDbLine
 10
136.0308790647437
 20
-16.40915165790986
 11
110.3120628093763
 21
-34.21648471099115
  0
ARC
  5
2DF
100
AcDbEntity
  8
ext1
  6
ByLayer
 62
  256
370
   -1
100
AcDbCircle
 10
133.1846132133026
 20
-12.29834021697511
 40
5
100
AcDbArc
 50
304.6981634518805
 51
9.999999949730585
  0
ARC
  5
2E0
100
AcDbEntity
  8
ext1
  6
ByLayer
 62
  256
370
   -1
100
AcDbCircle
 10
101.2040120847646
 20
-21.06188810000001
 40
16
100
AcDbArc
 50
270
 51
304.6981634518805
  0
LINE
  5
2E1
100
AcDbEntity
  8
ext1
  6
ByLayer
 62
  256
370
   -1
100
AcDbLine
 10
101.2040120847646
 20
-37.06188809999998
 11
74.81973010512226
 21
-37.06188809999998
  0
ARC
  5
2E2
100
AcDbEntity
  8
ext1
  6
ByLayer
 62
  256
370
   -1
100
AcDbCircle
 10
74.81973010512226
 20
-51.06188809999998
 40
14
100
AcDbArc
 50
90
 51
117.5000001729788
  0
LINE
  5
2E3
100
AcDbEntity
  8
ext1
  6
ByLayer
 62
  256
370
   -1
100
AcDbLine
 10
68.35524948234077
 20
-38.64373645502146
 11
34.66668240789388
 21
-56.18089458355013
  0
LINE
  5
2E4
100
AcDbEntity
  8
ext1
  6
ByLayer
 62
  256
370
   -1
100
AcDbLine
 10
24.08602054252855
 20
-63.44333922940393
 11
33.10109293586499
 21
-57.13091759860687
  0
ARC
  5
2E5
100
AcDbEntity
  8
ext1
  6
ByLayer
 62
  256
370
   -1
100
AcDbCircle
 10
41.13116303067537
 20
-68.59904622852864
 40
14
100
AcDbArc
 50
117.5000001729787
 51
124.9999999295339
  0
ARC
  5
2E6
100
AcDbEntity
  8
ext1
  6
ByLayer
 62
  256
370
   -1
100
AcDbCircle
 10
14.90879757703098
 20
-50.33690650949329
 40
16
100
AcDbArc
 50
270
 51
304.9999999295338
  0
LINE
  5
2E7
100
AcDbEntity
  8
ext1
  6
ByLayer
 62
  256
370
   -1
100
AcDbLine
 10
-14.90879757703101
 20
-66.33690650949329
 11
14.90879757703098
 21
-66.33690650949329
  0
ARC
  5
2E8
100
AcDbEntity
  8
ext1
  6
ByLayer
 62
  256
370
   -1
100
AcDbCircle
 10
-14.90879757703101
 20
-50.33690650949329
 40
16
100
AcDbArc
 50
235.0000000704661
 51
270
  0
LINE
  5
2E9
100
AcDbEntity
  8
ext1
  6
ByLayer
 62
  256
370
   -1
100
AcDbLine
 10
-24.08602054252859
 20
-63.4433392294039
 11
-33.10109293586499
 21
-57.13091759860686
  0
LINE
  5
2EA
100
AcDbEntity
  8
ext1
  6
ByLayer
 62
  256
370
   -1
100
AcDbLine
 10
-68.35524948234077
 20
-38.64373645502147
 11
-34.66668240789388
 21
-56.18089458355012
  0
ARC
  5
2EB
100
AcDbEntity
  8
ext1
  6
ByLayer
 62
  256
370
   -1
100
AcDbCircle
 10
-41.13116303067537
 20
-68.59904622852864
 40
14
100
AcDbArc
 50
55.00000007046612
 51
62.49999982702121
  0
ARC
  5
2EC
100
AcDbEntity
  8
ext1
  6
ByLayer
 62
  256
370
   -1
100
AcDbCircle
 10
-74.81973010512226
 20
-51.0618881
 40
14
100
AcDbArc
 50
62.49999982702118
 51
90
  0
LINE
  5
2ED
100
AcDbEntity
  8
ext1
  6
ByLayer
 62
  256
370
   -1
100
AcDbLine
 10
-101.2040120847646
 20
-37.0618881
 11
-74.81973010512226
 21
-37.0618881
  0
ARC
  5
2EE
100
AcDbEntity
  8
ext1
  6
ByLayer
 62
  256
370
   -1
100
AcDbCircle
 10
-101.2040120847646
 20
-21.0618881
 40
16
100
AcDbArc
 50
235.3018365481196
 51
270
  0
LINE
  5
2EF
100
AcDbEntity
  8
ext1
  6
ByLayer
 62
  256
370
   -1
100
AcDbLine
 10
-136.0308790647437
 20
-16.40915165790987
 11
-110.3120628093763
 21
-34.21648471099117
  0
ARC
  5
2F0
100
AcDbEntity
  8
ext1
  6
ByLayer
 62
  256
370
   -1
100
AcDbCircle
 10
-133.1846132133026
 20
-12.29834021697511
 40
5
100
AcDbArc
 50
170.0000000502694
 51
235.3018365481196
  0
LINE
  5
2F1
100
AcDbEntity
  8
ext1
  6
ByLayer
 62
  256
370
   -1
100
AcDbLine
 10
-128.5160270528178
 20
42.97238029313137
 11
-138.1086519791254
 21
-11.43009933296065
  0
ARC
  5
2F2
100
AcDbEntity
  8
ext1
  6
ByLayer
 62
  256
370
   -1
100
AcDbCircle
 10
-123.5919882869949
 20
42.1041394091169
 40
5
100
AcDbArc
 50
109.2347424986064
 51
170.0000000502695
  0
LINE
  5
2F3
100
AcDbEntity
  8
ext1
  6
ByLayer
 62
  256
370
   -1
100
AcDbLine
 10
-125.2391844303911
 20
46.82502331630851
 11
-84.07200674013714
 21
61.18894703461769
  0
LINE
  5
2F4
100
AcDbEntity
  8
ext1
  6
ByLayer
 62
  256
370
   -1
100
AcDbLine
 10
-81.34261254929389
 20
61.34954316795702
 11
-61.49275287304359
 21
56.94893531841655
  0
ARC
  5
2F5
100
AcDbEntity
  8
ext1
  6
ByLayer
 62
  256
370
   -1
100
AcDbCircle
 10
-82.42481059674091
 20
56.46806312742609
 40
5
100
AcDbArc
 50
77.5000002610802
 51
109.2347424986064
  0
ARC
  5
2F6
100
AcDbEntity
  8
ext1
  6
ByLayer
 62
  256
370
   -1
100
AcDbCircle
 10
-62.57495092049062
 20
52.06745527788562
 40
5
100
AcDbArc
 50
63.01066379254797
 51
77.5000002610802
  0
ARC
  5
2F7
100
AcDbEntity
  8
ext3
  6
ByLayer
 62
  256
370
   -1
100
AcDbCircle
 10
-82.42481059674091
 20
56.46806312742609
 40
9
100
AcDbArc
 50
77.5000002610802
 51
109.2347424986064
  0
LINE
  5
2F8
100
AcDbEntity
  8
ext3
  6
ByLayer
 62
  256
370
   -1
100
AcDbLine
 10
-80.47685411133627
 20
65.25472720038177
 11
-60.62699443508597
 21
60.85411935084129
  0
ARC
  5
2F9
100
AcDbEntity
  8
ext3
  6
ByLayer
 62
  256
370
   -1
100
AcDbCircle
 10
-62.57495092049062
 20
52.06745527788562
 40
9
100
AcDbArc
 50
63.01066379254797
 51
77.5000002610802
  0
LINE
  5
2FA
100
AcDbEntity
  8
ext3
  6
ByLayer
 62
  256
370
   -1
100
AcDbLine
 10
80.47685411133629
 20
65.25472720038177
 11
60.626994435086
 21
60.8541193508413
  0
ARC
  5
2FB
100
AcDbEntity
  8
ext3
  6
ByLayer
 62
  256
370
   -1
100
AcDbCircle
 10
62.57495092049064
 20
52.06745527788564
 40
9
100
AcDbArc
 50
102.4999997389197
 51
116.9893362074521
  0
ARC
  5
2FC
100
AcDbEntity
  8
ext3
  6
ByLayer
 62
  256
370
   -1
100
AcDbCircle
 10
82.42481059674094
 20
56.46806312742608
 40
9
100
AcDbArc
 50
70.76525750139373
 51
102.4999997389198
  0
LINE
  5
2FD
100
AcDbEntity
  8
ext3
  6
ByLayer
 62
  256
370
   -1
100
AcDbLine
 10
126.5569413451081
 20
50.60173044206179
 11
85.38976365485414
 21
64.96565416037095
  0
ARC
  5
2FE
100
AcDbEntity
  8
ext3
  6
ByLayer
 62
  256
370
   -1
100
AcDbCircle
 10
123.5919882869949
 20
42.1041394091169
 40
9
100
AcDbArc
 50
9.999999949730533
 51
70.76525750139361
  0
LINE
  5
2FF
100
AcDbEntity
  8
ext3
  6
ByLayer
 62
  256
370
   -1
100
AcDbLine
 10
132.455258065476
 20
43.66697300034294
 11
142.0478829917836
 21
-10.73550662574908
  0
ARC
  5
300
100
AcDbEntity
  8
ext3
  6
ByLayer
 62
  256
370
   -1
100
AcDbCircle
 10
133.1846132133026
 20
-12.29834021697511
 40
9
100
AcDbArc
 50
304.6981634518805
 51
9.999999949730585
  0
LINE
  5
301
100
AcDbEntity
  8
ext3
  6
ByLayer
 62
  256
370
   -1
100
AcDbLine
 10
138.3078917458966
 20
-19.69780081065765
 11
112.5890754905293
 21
-37.50513386373894
  0
ARC
  5
302
100
AcDbEntity
  8
ext3
  6
ByLayer
 62
  256
370
   -1
100
AcDbCircle
 10
101.2040120847646
 20
-21.06188810000001
 40
20
100
AcDbArc
 50
270
 51
304.6981634518805
  0
LINE
  5
303
100
AcDbEntity
  8
ext3
  6
ByLayer
 62
  256
370
   -1
100
AcDbLine
 10
101.2040120847646
 20
-41.06188809999998
 11
74.81973010512226
 21
-41.06188809999998
  0
LINE
  5
304
100
AcDbEntity
  8
ext3
  6
ByLayer
 62
  256
370
   -1
100
AcDbLine
 10
70.20224394599262
 20
-42.19177978215818
 11
36.51367687154573
 21
-59.72893791068685
  0
ARC
  5
305
100
AcDbEntity
  8
ext3
  6
ByLayer
 62
  256
370
   -1
100
AcDbCircle
 10
74.81973010512226
 20
-51.06188809999998
 40
10
100
AcDbArc
 50
90
 51
117.5000001729788
  0
LINE
  5
306
100
AcDbEntity
  8
ext3
  6
ByLayer
 62
  256
370
   -1
100
AcDbLine
 10
26.38032628390294
 20
-66.71994740938159
 11
35.39539867723938
 21
-60.40752577858454
  0
ARC
  5
307
100
AcDbEntity
  8
ext3
  6
ByLayer
 62
  256
370
   -1
100
AcDbCircle
 10
41.13116303067537
 20
-68.59904622852864
 40
10
100
AcDbArc
 50
117.5000001729787
 51
124.9999999295339
  0
ARC
  5
308
100
AcDbEntity
  8
ext3
  6
ByLayer
 62
  256
370
   -1
100
AcDbCircle
 10
14.90879757703098
 20
-50.33690650949329
 40
20
100
AcDbArc
 50
270
 51
304.9999999295338
  0
LINE
  5
309
100
AcDbEntity
  8
ext3
  6
ByLayer
 62
  256
370
   -1
100
AcDbLine
 10
-14.90879757703101
 20
-70.33690650949329
 11
14.90879757703098
 21
-70.33690650949329
  0
ARC
  5
30A
100
AcDbEntity
  8
ext3
  6
ByLayer
 62
  256
370
   -1
100
AcDbCircle
 10
-14.90879757703101
 20
-50.33690650949329
 40
20
100
AcDbArc
 50
235.0000000704661
 51
270
  0
LINE
  5
30B
100
AcDbEntity
  8
ext3
  6
ByLayer
 62
  256
370
   -1
100
AcDbLine
 10
-26.38032628390298
 20
-66.71994740938156
 11
-35.39539867723938
 21
-60.40752577858451
  0
LINE
  5
30C
100
AcDbEntity
  8
ext3
  6
ByLayer
 62
  256
370
   -1
100
AcDbLine
 10
-70.20224394599262
 20
-42.19177978215819
 11
-36.51367687154574
 21
-59.72893791068684
  0
ARC
  5
30D
100
AcDbEntity
  8
ext3
  6
ByLayer
 62
  256
370
   -1
100
AcDbCircle
 10
-41.13116303067537
 20
-68.59904622852864
 40
10
100
AcDbArc
 50
55.00000007046612
 51
62.49999982702121
  0
LINE
  5
30E
100
AcDbEntity
  8
ext3
  6
ByLayer
 62
  256
370
   -1
100
AcDbLine
 10
-101.2040120847646
 20
-41.0618881
 11
-74.81973010512226
 21
-41.0618881
  0
ARC
  5
30F
100
AcDbEntity
  8
ext3
  6
ByLayer
 62
  256
370
   -1
100
AcDbCircle
 10
-74.81973010512226
 20
-51.0618881
 40
10
100
AcDbArc
 50
62.49999982702118
 51
90
  0
ARC
  5
310
100
AcDbEntity
  8
ext3
  6
ByLayer
 62
  256
370
   -1
100
AcDbCircle
 10
-101.2040120847646
 20
-21.0618881
 40
20
100
AcDbArc
 50
235.3018365481196
 51
270
  0
LINE
  5
311
100
AcDbEntity
  8
ext3
  6
ByLayer
 62
  256
370
   -1
100
AcDbLine
 10
-138.3078917458967
 20
-19.69780081065765
 11
-112.5890754905293
 21
-37.50513386373895
  0
ARC
  5
312
100
AcDbEntity
  8
ext3
  6
ByLayer
 62
  256
370
   -1
100
AcDbCircle
 10
-133.1846132133026
 20
-12.29834021697511
 40
9
100
AcDbArc
 50
170.0000000502694
 51
235.3018365481196
  0
LINE
  5
313
100
AcDbEntity
  8
ext3
  6
ByLayer
 62
  256
370
   -1
100
AcDbLine
 10
-132.455258065476
 20
43.66697300034294
 11
-142.0478829917836
 21
-10.73550662574908
  0
ARC
  5
314
100
AcDbEntity
  8
ext3
  6
ByLayer
 62
  256
370
   -1
100
AcDbCircle
 10
-123.5919882869949
 20
42.1041394091169
 40
9
100
AcDbArc
 50
109.2347424986064
 51
170.0000000502695
  0
LINE
  5
315
100
AcDbEntity
  8
ext3
  6
ByLayer
 62
  256
370
   -1
100
AcDbLine
 10
-126.5569413451081
 20
50.60173044206179
 11
-85.38976365485412
 21
64.96565416037097
  0
ARC
  5
316
100
AcDbEntity
  8
ajour
  6
ByLayer
 62
  256
370
   -1
100
AcDbCircle
 10
-91.82580437228286
 20
-6.212463396821742
 40
11
100
AcDbArc
 50
75.00000000825345
 51
165.0000000082534
  0
ARC
  5
317
100
AcDbEntity
  8
ajour
  6
ByLayer
 62
  256
370
   -1
100
AcDbCircle
 10
-89.43551155221834
 20
37.60549388679836
 40
10
100
AcDbArc
 50
109.2347424986063
 51
163.5906662319885
  0
LINE
  5
318
100
AcDbEntity
  8
ajour
  6
ByLayer
 62
  256
370
   -1
100
AcDbLine
 10
-92.72990383901077
 20
47.04726170118155
 11
-84.77270120173611
 21
49.82366411946052
  0
ARC
  5
319
100
AcDbEntity
  8
ajour
  6
ByLayer
 62
  256
370
   -1
100
AcDbCircle
 10
-81.47830891494368
 20
40.38189630507733
 40
10
100
AcDbArc
 50
77.50000026108029
 51
109.2347424986063
  0
ARC
  5
31A
100
AcDbEntity
  8
ajour
  6
ByLayer
 62
  256
370
   -1
100
AcDbCircle
 10
-20.99999999999999
 20
13.49929809241806
 40
10
100
AcDbArc
 50
0
 51
63.01066379254798
  0
LINE
  5
31B
100
AcDbEntity
  8
ajour
  6
ByLayer
 62
  256
370
   -1
100
AcDbLine
 10
-10.99999999999999
 20
13.49929809241806
 11
-10.99999999999999
 21
3.636137756632472
  0
ARC
  5
31C
100
AcDbEntity
  8
ajour
  6
ByLayer
 62
  256
370
   -1
100
AcDbCircle
 10
-13.70430615422763
 20
-18.17608017985348
 40
13
100
AcDbArc
 50
108.4939235018682
 51
165.0000000082535
  0
ARC
  5
31D
100
AcDbEntity
  8
ajour
  6
ByLayer
 62
  256
370
   -1
100
AcDbCircle
 10
-21
 20
3.636137756632474
 40
10
100
AcDbArc
 50
288.4939235018682
 51
0
  0
LINE
  5
31E
100
AcDbEntity
  8
ajour
  6
ByLayer
 62
  256
370
   -1
100
AcDbLine
 10
-26.2613418964702
 20
-14.81143259532956
 11
-26.66359964134165
 21
-16.31267893779295
  0
ARC
  5
31F
100
AcDbEntity
  8
ajour
  6
ByLayer
 62
  256
370
   -1
100
AcDbCircle
 10
-14.10656389909908
 20
-19.67732652231687
 40
13
100
AcDbArc
 50
165.0000000082535
 51
259.3154456093137
  0
ARC
  5
320
100
AcDbEntity
  8
ajour
  6
ByLayer
 62
  256
370
   -1
100
AcDbCircle
 10
-18
 20
-40.31324557934462
 40
8
100
AcDbArc
 50
0
 51
79.31544560931374
  0
LINE
  5
321
100
AcDbEntity
  8
ajour
  6
ByLayer
 62
  256
370
   -1
100
AcDbLine
 10
-10
 20
-40.31324557934462
 11
-10
 21
-44.00045430125734
  0
ARC
  5
322
100
AcDbEntity
  8
ajour
  6
ByLayer
 62
  256
370
   -1
100
AcDbCircle
 10
-18
 20
-44.00045430125734
 40
8
100
AcDbArc
 50
242.4999998270211
 51
0
  0
LINE
  5
323
100
AcDbEntity
  8
ajour
  6
ByLayer
 62
  256
370
   -1
100
AcDbLine
 10
-54.37898574977042
 20
-34.08180843694777
 11
-21.69398892730372
 21
-51.09654095553078
  0
ARC
  5
324
100
AcDbEntity
  8
ajour
  6
ByLayer
 62
  256
370
   -1
100
AcDbCircle
 10
-49.76149959064078
 20
-25.21170011910598
 40
10
100
AcDbArc
 50
165.0000000082534
 51
242.4999998270212
  0
ARC
  5
325
100
AcDbEntity
  8
ajour
  6
ByLayer
 62
  256
370
   -1
100
AcDbCircle
 10
-116.1954049200825
 20
-5.208694532482209
 40
10
100
AcDbArc
 50
170.0000000502695
 51
235.3018365481194
  0
LINE
  5
326
100
AcDbEntity
  8
ajour
  6
ByLayer
 62
  256
370
   -1
100
AcDbLine
 10
-121.8879366229649
 20
-13.43031741435167
 11
-119.4436507658809
 21
-15.12270527162514
  0
LINE
  5
327
100
AcDbEntity
  8
ajour
  6
ByLayer
 62
  256
370
   -1
100
AcDbLine
 10
-102.4509884618727
 20
-3.365453902224546
 11
-104.091860799735
 21
-9.489272839389487
  0
ARC
  5
328
100
AcDbEntity
  8
ajour
  6
ByLayer
 62
  256
370
   -1
100
AcDbCircle
 10
-113.7511190629985
 20
-6.901082389755682
 40
10
100
AcDbArc
 50
235.3018365481194
 51
345.0000000082534
  0
ARC
  5
329
100
AcDbEntity
  8
ajour
  6
ByLayer
 62
  256
370
   -1
100
AcDbCircle
 10
-109.5801388588143
 20
43.53794621937941
 40
11
100
AcDbArc
 50
265.3279979143814
 51
343.5906662319885
  0
LINE
  5
32A
100
AcDbEntity
  8
ajour
  6
ByLayer
 62
  256
370
   -1
100
AcDbLine
 10
-121.1386976014443
 20
24.34420452880987
 11
-126.0434824517281
 21
-3.472212764453303
  0
ARC
  5
32B
100
AcDbEntity
  8
ajour
  6
ByLayer
 62
  256
370
   -1
100
AcDbCircle
 10
-111.2906200697987
 20
22.60772276078095
 40
10
100
AcDbArc
 50
85.32799791438148
 51
170.0000000502695
  0
LINE
  5
32C
100
AcDbEntity
  8
ext3
  6
ByLayer
 62
  256
370
   -1
100
AcDbLine
 10
-58.49052898709581
 20
60.08727432010867
 11
-9.076493185321787
 21
34.92114892703789
  0
LINE
  5
32D
100
AcDbEntity
  8
ext3
  6
ByLayer
 62
  256
370
   -1
100
AcDbLine
 10
58.49052898709584
 20
60.08727432010868
 11
9.076493185321794
 21
34.92114892703789
  0
ARC
  5
32E
100
AcDbEntity
  8
ext3
  6
ByLayer
 62
  256
370
   -1
100
AcDbCircle
 10
0
 20
52.74296902086689
 40
20
100
AcDbArc
 50
243.010663792548
 51
296.989336207452
  0
LINE
  5
32F
100
AcDbEntity
  8
ajour
  6
ByLayer
 62
  256
370
   -1
100
AcDbLine
 10
-79.31391282004964
 20
50.14485638613918
 11
-75.07394771294206
 21
49.20487877237099
  0
ARC
  5
330
100
AcDbEntity
  8
ajour
  6
ByLayer
 62
  256
370
   -1
100
AcDbCircle
 10
-77.2383438078361
 20
39.44191869130913
 40
10
100
AcDbArc
 50
345.0000000082534
 51
77.5000002610803
  0
LINE
  5
331
100
AcDbEntity
  8
ajour
  6
ByLayer
 62
  256
370
   -1
100
AcDbLine
 10
-74.53465568509442
 20
10.89518706668182
 11
-67.57908554457261
 21
36.85372824167532
  0
LINE
  5
332
100
AcDbEntity
  8
ajour
  6
ByLayer
 62
  256
370
   -1
100
AcDbLine
 10
-88.97879487768567
 20
4.412720692768112
 11
-86.78210439799174
 21
3.824119253052134
  0
ARC
  5
333
100
AcDbEntity
  8
ajour
  6
ByLayer
 62
  256
370
   -1
100
AcDbCircle
 10
-84.19391394835793
 20
13.48337751631564
 40
10
100
AcDbArc
 50
255.0000000082533
 51
345.0000000082533
  0
LINE
  5
334
100
AcDbEntity
  8
ajour
  6
ByLayer
 62
  256
370
   -1
100
AcDbLine
 10
-32.64257121251143
 20
30.65095357208629
 11
-16.4617534073391
 21
22.41020813933256
  0
LINE
  5
335
100
AcDbEntity
  8
ajour
  6
ByLayer
 62
  256
370
   -1
100
AcDbLine
 10
-46.84007606843582
 20
24.32823397480559
 11
-59.42075785390428
 21
-22.62350966947217
  0
ARC
  5
336
100
AcDbEntity
  8
ajour
  6
ByLayer
 62
  256
370
   -1
100
AcDbCircle
 10
-37.18081780517232
 20
21.74004352517179
 40
10
100
AcDbArc
 50
63.01066379254802
 51
165.0000000082534
  0
ARC
  5
337
100
AcDbEntity
  8
ajour
  6
ByLayer
 62
  256
370
   -1
100
AcDbCircle
 10
91.82580437228286
 20
-6.212463396821751
 40
11
100
AcDbArc
 50
14.9999999917466
 51
104.9999999917465
  0
ARC
  5
338
100
AcDbEntity
  8
ajour
  6
ByLayer
 62
  256
370
   -1
100
AcDbCircle
 10
89.43551155221834
 20
37.60549388679838
 40
10
100
AcDbArc
 50
16.40933376801152
 51
70.76525750139368
  0
LINE
  5
339
100
AcDbEntity
  8
ajour
  6
ByLayer
 62
  256
370
   -1
100
AcDbLine
 10
92.72990383901077
 20
47.04726170118158
 11
84.77270120173611
 21
49.82366411946051
  0
ARC
  5
33A
100
AcDbEntity
  8
ajour
  6
ByLayer
 62
  256
370
   -1
100
AcDbCircle
 10
81.47830891494368
 20
40.38189630507734
 40
10
100
AcDbArc
 50
70.76525750139369
 51
102.4999997389197
  0
ARC
  5
33B
100
AcDbEntity
  8
ajour
  6
ByLayer
 62
  256
370
   -1
100
AcDbCircle
 10
20.99999999999999
 20
13.49929809241803
 40
10
100
AcDbArc
 50
116.989336207452
 51
180
  0
LINE
  5
33C
100
AcDbEntity
  8
ajour
  6
ByLayer
 62
  256
370
   -1
100
AcDbLine
 10
10.99999999999999
 20
13.49929809241803
 11
10.99999999999999
 21
3.636137756632486
  0
ARC
  5
33D
100
AcDbEntity
  8
ajour
  6
ByLayer
 62
  256
370
   -1
100
AcDbCircle
 10
13.70430615422763
 20
-18.17608017985348
 40
13
100
AcDbArc
 50
14.99999999174649
 51
71.50607649813182
  0
ARC
  5
33E
100
AcDbEntity
  8
ajour
  6
ByLayer
 62
  256
370
   -1
100
AcDbCircle
 10
21
 20
3.636137756632484
 40
10
100
AcDbArc
 50
180
 51
251.5060764981318
  0
LINE
  5
33F
100
AcDbEntity
  8
ajour
  6
ByLayer
 62
  256
370
   -1
100
AcDbLine
 10
26.2613418964702
 20
-14.81143259532957
 11
26.66359964134165
 21
-16.31267893779297
  0
ARC
  5
340
100
AcDbEntity
  8
ajour
  6
ByLayer
 62
  256
370
   -1
100
AcDbCircle
 10
14.10656389909908
 20
-19.67732652231688
 40
13
100
AcDbArc
 50
280.6845543906863
 51
14.99999999174652
  0
ARC
  5
341
100
AcDbEntity
  8
ajour
  6
ByLayer
 62
  256
370
   -1
100
AcDbCircle
 10
18
 20
-40.31324557934462
 40
8
100
AcDbArc
 50
100.6845543906863
 51
180
  0
LINE
  5
342
100
AcDbEntity
  8
ajour
  6
ByLayer
 62
  256
370
   -1
100
AcDbLine
 10
10
 20
-40.31324557934462
 11
10
 21
-44.00045430125736
  0
ARC
  5
343
100
AcDbEntity
  8
ajour
  6
ByLayer
 62
  256
370
   -1
100
AcDbCircle
 10
18
 20
-44.00045430125736
 40
8
100
AcDbArc
 50
180
 51
297.5000001729789
  0
LINE
  5
344
100
AcDbEntity
  8
ajour
  6
ByLayer
 62
  256
370
   -1
100
AcDbLine
 10
54.37898574977042
 20
-34.08180843694777
 11
21.69398892730372
 21
-51.09654095553078
  0
ARC
  5
345
100
AcDbEntity
  8
ajour
  6
ByLayer
 62
  256
370
   -1
100
AcDbCircle
 10
49.76149959064078
 20
-25.21170011910598
 40
10
100
AcDbArc
 50
297.5000001729788
 51
14.99999999174662
  0
ARC
  5
346
100
AcDbEntity
  8
ajour
  6
ByLayer
 62
  256
370
   -1
100
AcDbCircle
 10
116.1954049200825
 20
-5.208694532482216
 40
10
100
AcDbArc
 50
304.6981634518805
 51
9.999999949730432
  0
LINE
  5
347
100
AcDbEntity
  8
ajour
  6
ByLayer
 62
  256
370
   -1
100
AcDbLine
 10
121.8879366229649
 20
-13.43031741435168
 11
119.4436507658809
 21
-15.12270527162513
  0
LINE
  5
348
100
AcDbEntity
  8
ajour
  6
ByLayer
 62
  256
370
   -1
100
AcDbLine
 10
102.4509884618727
 20
-3.365453902224543
 11
104.091860799735
 21
-9.489272839389484
  0
ARC
  5
349
100
AcDbEntity
  8
ajour
  6
ByLayer
 62
  256
370
   -1
100
AcDbCircle
 10
113.7511190629985
 20
-6.901082389755691
 40
10
100
AcDbArc
 50
194.9999999917466
 51
304.6981634518806
  0
ARC
  5
34A
100
AcDbEntity
  8
ajour
  6
ByLayer
 62
  256
370
   -1
100
AcDbCircle
 10
109.5801388588143
 20
43.53794621937944
 40
11
100
AcDbArc
 50
196.4093337680116
 51
274.6720020856186
  0
LINE
  5
34B
100
AcDbEntity
  8
ajour
  6
ByLayer
 62
  256
370
   -1
100
AcDbLine
 10
121.1386976014443
 20
24.34420452880987
 11
126.0434824517281
 21
-3.472212764453303
  0
ARC
  5
34C
100
AcDbEntity
  8
ajour
  6
ByLayer
 62
  256
370
   -1
100
AcDbCircle
 10
111.2906200697987
 20
22.60772276078097
 40
10
100
AcDbArc
 50
9.999999949730533
 51
94.67200208561852
  0
LINE
  5
34D
100
AcDbEntity
  8
ajour
  6
ByLayer
 62
  256
370
   -1
100
AcDbLine
 10
79.31391282004964
 20
50.14485638613915
 11
75.07394771294206
 21
49.20487877237099
  0
ARC
  5
34E
100
AcDbEntity
  8
ajour
  6
ByLayer
 62
  256
370
   -1
100
AcDbCircle
 10
77.2383438078361
 20
39.44191869130916
 40
10
100
AcDbArc
 50
102.4999997389197
 51
194.9999999917466
  0
LINE
  5
34F
100
AcDbEntity
  8
ajour
  6
ByLayer
 62
  256
370
   -1
100
AcDbLine
 10
74.53465568509442
 20
10.89518706668183
 11
67.57908554457261
 21
36.85372824167533
  0
LINE
  5
350
100
AcDbEntity
  8
ajour
  6
ByLayer
 62
  256
370
   -1
100
AcDbLine
 10
88.97879487768567
 20
4.412720692768126
 11
86.78210439799174
 21
3.824119253052129
  0
ARC
  5
351
100
AcDbEntity
  8
ajour
  6
ByLayer
 62
  256
370
   -1
100
AcDbCircle
 10
84.19391394835793
 20
13.48337751631565
 40
10
100
AcDbArc
 50
194.9999999917467
 51
284.9999999917467
  0
LINE
  5
352
100
AcDbEntity
  8
ajour
  6
ByLayer
 62
  256
370
   -1
100
AcDbLine
 10
32.64257121251143
 20
30.6509535720863
 11
16.4617534073391
 21
22.41020813933255
  0
LINE
  5
353
100
AcDbEntity
  8
ajour
  6
ByLayer
 62
  256
370
   -1
100
AcDbLine
 10
46.84007606843582
 20
24.32823397480558
 11
59.42075785390428
 21
-22.62350966947217
  0
ARC
  5
354
100
AcDbEntity
  8
ajour
  6
ByLayer
 62
  256
370
   -1
100
AcDbCircle
 10
37.18081780517232
 20
21.74004352517175
 40
10
100
AcDbArc
 50
14.99999999174662
 51
116.989336207452
  0
LINE
  5
355
100
AcDbEntity
  8
ext2
  6
ByLayer
 62
  256
370
   -1
100
AcDbLine
 10
-80.69329372082566
 20
64.27843119227558
 11
-60.84343404457537
 21
59.87782334273511
  0
LINE
  5
356
100
AcDbEntity
  8
ext2
  6
ByLayer
 62
  256
370
   -1
100
AcDbLine
 10
-126.2275021164289
 20
49.65755366062346
 11
-85.06032442617487
 21
64.02147737893266
  0
ARC
  5
357
100
AcDbEntity
  8
ext2
  6
ByLayer
 62
  256
370
   -1
100
AcDbCircle
 10
-82.42481059674091
 20
56.46806312742609
 40
8
100
AcDbArc
 50
77.5000002610802
 51
109.2347424986064
  0
ARC
  5
358
100
AcDbEntity
  8
ext2
  6
ByLayer
 62
  256
370
   -1
100
AcDbCircle
 10
-62.57495092049062
 20
52.06745527788562
 40
8
100
AcDbArc
 50
63.01066379254797
 51
77.5000002610802
  0
LINE
  5
359
100
AcDbEntity
  8
ext2
  6
ByLayer
 62
  256
370
   -1
100
AcDbLine
 10
-58.9443536463619
 20
59.19618331541722
 11
-9.530317844587877
 21
34.03005792234644
  0
ARC
  5
35A
100
AcDbEntity
  8
ext2
  6
ByLayer
 62
  256
370
   -1
100
AcDbCircle
 10
0
 20
52.74296902086689
 40
21
100
AcDbArc
 50
243.010663792548
 51
296.989336207452
  0
ARC
  5
35B
100
AcDbEntity
  8
ext2
  6
ByLayer
 62
  256
370
   -1
100
AcDbCircle
 10
-123.5919882869949
 20
42.1041394091169
 40
8
100
AcDbArc
 50
109.2347424986064
 51
170.0000000502695
  0
LINE
  5
35C
100
AcDbEntity
  8
ext2
  6
ByLayer
 62
  256
370
   -1
100
AcDbLine
 10
-131.4704503123114
 20
43.49332482354004
 11
-141.063075238619
 21
-10.90915480255197
  0
LINE
  5
35D
100
AcDbEntity
  8
ext2
  6
ByLayer
 62
  256
370
   -1
100
AcDbLine
 10
-137.7386385756084
 20
-18.87563852247071
 11
-112.019822320241
 21
-36.68297157555201
  0
ARC
  5
35E
100
AcDbEntity
  8
ext2
  6
ByLayer
 62
  256
370
   -1
100
AcDbCircle
 10
-133.1846132133026
 20
-12.29834021697511
 40
8
100
AcDbArc
 50
170.0000000502694
 51
235.3018365481196
  0
LINE
  5
35F
100
AcDbEntity
  8
ext2
  6
ByLayer
 62
  256
370
   -1
100
AcDbLine
 10
-101.2040120847646
 20
-40.0618881
 11
-74.81973010512226
 21
-40.0618881
  0
ARC
  5
360
100
AcDbEntity
  8
ext2
  6
ByLayer
 62
  256
370
   -1
100
AcDbCircle
 10
-101.2040120847646
 20
-21.0618881
 40
19
100
AcDbArc
 50
235.3018365481196
 51
270
  0
LINE
  5
361
100
AcDbEntity
  8
ext2
  6
ByLayer
 62
  256
370
   -1
100
AcDbLine
 10
-69.74049533007965
 20
-41.304768950374
 11
-36.05192825563277
 21
-58.84192707890266
  0
ARC
  5
362
100
AcDbEntity
  8
ext2
  6
ByLayer
 62
  256
370
   -1
100
AcDbCircle
 10
-74.81973010512226
 20
-51.0618881
 40
11
100
AcDbArc
 50
62.49999982702118
 51
90
  0
ARC
  5
363
100
AcDbEntity
  8
ext2
  6
ByLayer
 62
  256
370
   -1
100
AcDbCircle
 10
-14.90879757703101
 20
-50.33690650949329
 40
19
100
AcDbArc
 50
235.0000000704661
 51
270
  0
LINE
  5
364
100
AcDbEntity
  8
ext2
  6
ByLayer
 62
  256
370
   -1
100
AcDbLine
 10
-25.80674984855938
 20
-65.90079536438715
 11
-34.82182224189579
 21
-59.5883737335901
  0
ARC
  5
365
100
AcDbEntity
  8
ext2
  6
ByLayer
 62
  256
370
   -1
100
AcDbCircle
 10
-41.13116303067537
 20
-68.59904622852864
 40
11
100
AcDbArc
 50
55.00000007046612
 51
62.49999982702121
  0
LINE
  5
366
100
AcDbEntity
  8
ext2
  6
ByLayer
 62
  256
370
   -1
100
AcDbLine
 10
-14.90879757703101
 20
-69.33690650949329
 11
14.90879757703098
 21
-69.33690650949329
  0
ARC
  5
367
100
AcDbEntity
  8
ext2
  6
ByLayer
 62
  256
370
   -1
100
AcDbCircle
 10
14.90879757703098
 20
-50.33690650949329
 40
19
100
AcDbArc
 50
270
 51
304.9999999295338
  0
LINE
  5
368
100
AcDbEntity
  8
ext2
  6
ByLayer
 62
  256
370
   -1
100
AcDbLine
 10
25.80674984855934
 20
-65.90079536438718
 11
34.82182224189578
 21
-59.58837373359012
  0
ARC
  5
369
100
AcDbEntity
  8
ext2
  6
ByLayer
 62
  256
370
   -1
100
AcDbCircle
 10
41.13116303067537
 20
-68.59904622852864
 40
11
100
AcDbArc
 50
117.5000001729787
 51
124.9999999295339
  0
LINE
  5
36A
100
AcDbEntity
  8
ext2
  6
ByLayer
 62
  256
370
   -1
100
AcDbLine
 10
69.74049533007965
 20
-41.304768950374
 11
36.05192825563277
 21
-58.84192707890266
  0
ARC
  5
36B
100
AcDbEntity
  8
ext2
  6
ByLayer
 62
  256
370
   -1
100
AcDbCircle
 10
74.81973010512226
 20
-51.06188809999998
 40
11
100
AcDbArc
 50
90
 51
117.5000001729788
  0
LINE
  5
36C
100
AcDbEntity
  8
ext2
  6
ByLayer
 62
  256
370
   -1
100
AcDbLine
 10
101.2040120847646
 20
-40.06188809999998
 11
74.81973010512226
 21
-40.06188809999998
  0
ARC
  5
36D
100
AcDbEntity
  8
ext2
  6
ByLayer
 62
  256
370
   -1
100
AcDbCircle
 10
101.2040120847646
 20
-21.06188810000001
 40
19
100
AcDbArc
 50
270
 51
304.6981634518805
  0
LINE
  5
36E
100
AcDbEntity
  8
ext2
  6
ByLayer
 62
  256
370
   -1
100
AcDbLine
 10
137.7386385756084
 20
-18.8756385224707
 11
112.019822320241
 21
-36.682971575552
  0
ARC
  5
36F
100
AcDbEntity
  8
ext2
  6
ByLayer
 62
  256
370
   -1
100
AcDbCircle
 10
133.1846132133026
 20
-12.29834021697511
 40
8
100
AcDbArc
 50
304.6981634518805
 51
9.999999949730585
  0
LINE
  5
370
100
AcDbEntity
  8
ext2
  6
ByLayer
 62
  256
370
   -1
100
AcDbLine
 10
131.4704503123114
 20
43.49332482354004
 11
141.063075238619
 21
-10.90915480255197
  0
ARC
  5
371
100
AcDbEntity
  8
ext2
  6
ByLayer
 62
  256
370
   -1
100
AcDbCircle
 10
123.5919882869949
 20
42.1041394091169
 40
8
100
AcDbArc
 50
9.999999949730533
 51
70.76525750139361
  0
LINE
  5
372
100
AcDbEntity
  8
ext2
  6
ByLayer
 62
  256
370
   -1
100
AcDbLine
 10
126.2275021164289
 20
49.65755366062346
 11
85.06032442617489
 21
64.02147737893263
  0
ARC
  5
373
100
AcDbEntity
  8
ext2
  6
ByLayer
 62
  256
370
   -1
100
AcDbCircle
 10
82.42481059674094
 20
56.46806312742608
 40
8
100
AcDbArc
 50
70.76525750139373
 51
102.4999997389198
  0
LINE
  5
374
100
AcDbEntity
  8
ext2
  6
ByLayer
 62
  256
370
   -1
100
AcDbLine
 10
80.69329372082569
 20
64.27843119227558
 11
60.8434340445754
 21
59.87782334273511
  0
ARC
  5
375
100
AcDbEntity
  8
ext2
  6
ByLayer
 62
  256
370
   -1
100
AcDbCircle
 10
62.57495092049064
 20
52.06745527788564
 40
8
100
AcDbArc
 50
102.4999997389197
 51
116.9893362074521
  0
LINE
  5
376
100
AcDbEntity
  8
ext2
  6
ByLayer
 62
  256
370
   -1
100
AcDbLine
 10
58.94435364636193
 20
59.19618331541724
 11
9.530317844587884
 21
34.03005792234644
  0
ENDSEC
  0
SECTION
  2
OBJECTS
  0
DICTIONARY
  5
C
330
0
100
AcDbDictionary
281
    1
  3
ACAD_GROUP
350
D
  0
DICTIONARY
  5
D
330
C
100
AcDbDictionary
281
    1
  0
PLOTSETTINGS
  5
377
100
AcDbPlotSettings
  6
1x1
 40
0
 41
0
 42
0
 43
0
  0
ENDSEC
  0
EOF
