999
dxfrw 0.6.3
  0
SECTION
  2
HEADER
  9
$ACADVER
  1
AC1021
  9
$DWGCODEPAGE
  3
ANSI_1252
  9
$INSBASE
 10
0
 20
0
 30
0
  9
$EXTMIN
 10
-112.4848846735011
 20
-45.90072742929688
 30
0
  9
$EXTMAX
 10
112.5897438025549
 20
44.92001822143552
 30
0
  9
$LIMMIN
 10
0
 20
0
  9
$LIMMAX
 10
420
 20
297
  9
$ORTHOMODE
 70
    0
  9
$REGENMODE
 70
    1
  9
$FILLMODE
 70
    1
  9
$QTEXTMODE
 70
    0
  9
$MIRRTEXT
 70
    0
  9
$LTSCALE
 40
1
  9
$ATTMODE
 70
    0
  9
$TEXTSIZE
 40
2.5
  9
$TRACEWID
 40
15.68
  9
$TEXTSTYLE
  7
STANDARD
  9
$CLAYER
  8
noname
  9
$CELTYPE
  6
BYLAYER
  9
$CECOLOR
 62
  256
  9
$CELTSCALE
 40
1
  9
$DISPSILH
 70
    0
  9
$DIMSCALE
 40
2.5
  9
$DIMASZ
 40
2.5
  9
$DIMEXO
 40
0.625
  9
$DIMDLI
 40
3.75
  9
$DIMRND
 40
0
  9
$DIMDLE
 40
0
  9
$DIMEXE
 40
1.25
  9
$DIMTP
 40
0
  9
$DIMTM
 40
0
  9
$DIMTXT
 40
2.5
  9
$DIMCEN
 40
2.5
  9
$DIMTSZ
 40
0
  9
$DIMTOL
 70
    0
  9
$DIMLIM
 70
    0
  9
$DIMTIH
 70
    0
  9
$DIMTOH
 70
    0
  9
$DIMSE1
 70
    0
  9
$DIMSE2
 70
    0
  9
$DIMTAD
 70
    1
  9
$DIMZIN
 70
    8
  9
$DIMBLK
  1

  9
$DIMASO
 70
    1
  9
$DIMSHO
 70
    1
  9
$DIMPOST
  1

  9
$DIMAPOST
  1

  9
$DIMALT
 70
    0
  9
$DIMALTD
 70
    3
  9
$DIMALTF
 40
0.03937
  9
$DIMLFAC
 40
1
  9
$DIMTOFL
 70
    1
  9
$DIMTVP
 40
0
  9
$DIMTIX
 70
    0
  9
$DIMSOXD
 70
    0
  9
$DIMSAH
 70
    0
  9
$DIMBLK1
  1

  9
$DIMBLK2
  1

  9
$DIMSTYLE
  2
Standard
  9
$DIMCLRD
 70
    0
  9
$DIMCLRE
 70
    0
  9
$DIMCLRT
 70
    0
  9
$DIMTFAC
 40
1
  9
$DIMGAP
 40
0.625
  9
$DIMJUST
 70
    0
  9
$DIMSD1
 70
    0
  9
$DIMSD2
 70
    0
  9
$DIMTOLJ
 70
    0
  9
$DIMTZIN
 70
    8
  9
$DIMALTZ
 70
    0
  9
$DIMALTTZ
 70
    0
  9
$DIMUPT
 70
    0
  9
$DIMDEC
 70
    2
  9
$DIMTDEC
 70
    2
  9
$DIMALTU
 70
    2
  9
$DIMALTTD
 70
    3
  9
$DIMTXSTY
  7
STANDARD
  9
$DIMAUNIT
 70
    0
  9
$DIMADEC
 70
    0
  9
$DIMALTRND
 40
0
  9
$DIMAZIN
 70
    0
  9
$DIMDSEP
 70
   44
  9
$DIMATFIT
 70
    3
  9
$DIMFRAC
 70
    0
  9
$DIMLDRBLK
  1
STANDARD
  9
$DIMLUNIT
 70
    2
  9
$DIMLWD
 70
   -2
  9
$DIMLWE
 70
   -2
  9
$DIMTMOVE
 70
    0
  9
$DIMFXL
 40
1
  9
$DIMFXLON
 70
    0
  9
$DIMJOGANG
 40
0.7854
  9
$DIMTFILL
 70
    0
  9
$DIMTFILLCLR
 70
    0
  9
$DIMARCSYM
 70
    0
  9
$DIMLTYPE
  6

  9
$DIMLTEX1
  6

  9
$DIMLTEX2
  6

  9
$LUNITS
 70
    2
  9
$LUPREC
 70
    4
  9
$SKETCHINC
 40
1
  9
$FILLETRAD
 40
0
  9
$AUNITS
 70
    0
  9
$AUPREC
 70
    2
  9
$MENU
  1
.
  9
$ELEVATION
 40
0
  9
$PELEVATION
 40
0
  9
$THICKNESS
 40
0
  9
$LIMCHECK
 70
    0
  9
$CHAMFERA
 40
0
  9
$CHAMFERB
 40
0
  9
$CHAMFERC
 40
0
  9
$CHAMFERD
 40
0
  9
$SKPOLY
 70
    0
  9
$USRTIMER
 70
    1
  9
$ANGBASE
 50
0
  9
$ANGDIR
 70
    0
  9
$PDMODE
 70
   34
  9
$PDSIZE
 40
0
  9
$PLINEWID
 40
0
  9
$SPLFRAME
 70
    0
  9
$SPLINETYPE
 70
    2
  9
$SPLINESEGS
 70
    8
  9
$HANDSEED
  5
20000
  9
$SURFTAB1
 70
    6
  9
$SURFTAB2
 70
    6
  9
$SURFTYPE
 70
    6
  9
$SURFU
 70
    6
  9
$SURFV
 70
    6
  9
$UCSBASE
  2

  9
$UCSNAME
  2

  9
$UCSORG
 10
0
 20
0
 30
0
  9
$UCSXDIR
 10
1
 20
0
 30
0
  9
$UCSYDIR
 10
0
 20
1
 30
0
  9
$UCSORTHOREF
  2

  9
$UCSORTHOVIEW
 70
    0
  9
$UCSORGTOP
 10
0
 20
0
 30
0
  9
$UCSORGBOTTOM
 10
0
 20
0
 30
0
  9
$UCSORGLEFT
 10
0
 20
0
 30
0
  9
$UCSORGRIGHT
 10
0
 20
0
 30
0
  9
$UCSORGFRONT
 10
0
 20
0
 30
0
  9
$UCSORGBACK
 10
0
 20
0
 30
0
  9
$PUCSBASE
  2

  9
$PUCSNAME
  2

  9
$PUCSORG
 10
0
 20
0
 30
0
  9
$PUCSXDIR
 10
1
 20
0
 30
0
  9
$PUCSYDIR
 10
0
 20
1
 30
0
  9
$PUCSORTHOREF
  2

  9
$PUCSORTHOVIEW
 70
    0
  9
$PUCSORGTOP
 10
0
 20
0
 30
0
  9
$PUCSORGBOTTOM
 10
0
 20
0
 30
0
  9
$PUCSORGLEFT
 10
0
 20
0
 30
0
  9
$PUCSORGRIGHT
 10
0
 20
0
 30
0
  9
$PUCSORGFRONT
 10
0
 20
0
 30
0
  9
$PUCSORGBACK
 10
0
 20
0
 30
0
  9
$USERI1
 70
    0
  9
$USERI2
 70
    0
  9
$USERI3
 70
    0
  9
$USERI4
 70
    0
  9
$USERI5
 70
    0
  9
$USERR1
 40
0
  9
$USERR2
 40
0
  9
$USERR3
 40
0
  9
$USERR4
 40
0
  9
$USERR5
 40
0
  9
$WORLDVIEW
 70
    1
  9
$SHADEDGE
 70
    3
  9
$SHADEDIF
 70
   70
  9
$TILEMODE
 70
    1
  9
$MAXACTVP
 70
   64
  9
$PINSBASE
 10
0
 20
0
 30
0
  9
$PLIMCHECK
 70
    0
  9
$PEXTMIN
 10
0
 20
0
 30
0
  9
$PEXTMAX
 10
0
 20
0
 30
0
  9
$GRIDMODE
 70
    1
  9
$SNAPSTYLE
 70
    0
  9
$PLIMMIN
 10
0
 20
0
  9
$PLIMMAX
 10
210
 20
297
  9
$UNITMODE
 70
    0
  9
$VISRETAIN
 70
    1
  9
$PLINEGEN
 70
    0
  9
$PSLTSCALE
 70
    1
  9
$TREEDEPTH
 70
 3020
  9
$CMLSTYLE
  2
Standard
  9
$CMLJUST
 70
    0
  9
$CMLSCALE
 40
20
  9
$PROXYGRAPHICS
 70
    1
  9
$MEASUREMENT
 70
    1
  9
$CELWEIGHT
370
   -1
  9
$ENDCAPS
280
    0
  9
$JOINSTYLE
280
    0
  9
$LWDISPLAY
290
    0
  9
$INSUNITS
 70
    4
  9
$HYPERLINKBASE
  1

  9
$STYLESHEET
  1

  9
$XEDIT
290
    1
  9
$CEPSNTYPE
380
    0
  9
$PSTYLEMODE
290
    1
  9
$EXTNAMES
290
    1
  9
$PSVPSCALE
 40
1
  9
$OLESTARTUP
290
    0
  9
$SORTENTS
280
  127
  9
$INDEXCTL
280
    0
  9
$HIDETEXT
280
    1
  9
$XCLIPFRAME
290
    0
  9
$HALOGAP
280
    0
  9
$OBSCOLOR
 70
  257
  9
$OBSLTYPE
280
    0
  9
$INTERSECTIONDISPLAY
280
    0
  9
$INTERSECTIONCOLOR
 70
  257
  9
$DIMASSOC
280
    1
  9
$PROJECTNAME
  1

  9
$CAMERADISPLAY
290
    0
  9
$LENSLENGTH
 40
50
  9
$CAMERAHEIGHT
 40
0
  9
$STEPSPERSEC
 40
2
  9
$STEPSIZE
 40
50
  9
$3DDWFPREC
 40
2
  9
$PSOLWIDTH
 40
5
  9
$PSOLHEIGHT
 40
80
  9
$LOFTANG1
 40
1.570796326794897
  9
$LOFTANG2
 40
1.570796326794897
  9
$LOFTMAG1
 40
0
  9
$LOFTMAG2
 40
0
  9
$LOFTPARAM
 70
    7
  9
$LOFTNORMALS
280
    1
  9
$LATITUDE
 40
1
  9
$LONGITUDE
 40
1
  9
$NORTHDIRECTION
 40
0
  9
$TIMEZONE
 70
-8000
  9
$LIGHTGLYPHDISPLAY
280
    1
  9
$TILEMODELIGHTSYNCH
280
    1
  9
$SOLIDHIST
280
    1
  9
$SHOWHIST
280
    1
  9
$DWFFRAME
280
    2
  9
$DGNFRAME
280
    0
  9
$REALWORLDSCALE
290
    1
  9
$INTERFERECOLOR
 62
    1
  9
$CSHADOW
280
    0
  9
$SHADOWPLANELOCATION
 40
0
  0
ENDSEC
  0
SECTION
  2
CLASSES
  0
ENDSEC
  0
SECTION
  2
TABLES
  0
TABLE
  2
VPORT
  5
8
330
0
100
AcDbSymbolTable
 70
    1
  0
VPORT
  5
31
330
2
100
AcDbSymbolTableRecord
100
AcDbViewportTableRecord
  2
*ACTIVE
 70
    0
 10
0
 20
0
 11
1
 21
1
 12
-29.84566241349161
 22
50.38166866130694
 13
0
 23
0
 14
10
 24
10
 15
10
 25
10
 16
0
 26
0
 36
1
 17
0
 27
0
 37
0
 40
202.3481148951404
 41
0.2733423545331529
 42
50
 43
0
 44
0
 50
0
 51
0
 71
    0
 72
  100
 73
    1
 74
    3
 75
    0
 76
    1
 77
    0
 78
    0
281
    0
 65
    1
110
0
120
0
130
0
111
1
121
0
131
0
112
0
122
1
132
0
 79
    0
146
0
348
10020
 60
    7
 61
    5
292
1
282
    1
141
0
142
0
 63
  250
421
3358443
  0
ENDTAB
  0
TABLE
  2
LTYPE
  5
5
330
0
100
AcDbSymbolTable
 70
    4
  0
LTYPE
  5
14
330
5
100
AcDbSymbolTableRecord
100
AcDbLinetypeTableRecord
  2
ByBlock
 70
    0
  3

 72
   65
 73
    0
 40
0
  0
LTYPE
  5
15
330
5
100
AcDbSymbolTableRecord
100
AcDbLinetypeTableRecord
  2
ByLayer
 70
    0
  3

 72
   65
 73
    0
 40
0
  0
LTYPE
  5
16
330
5
100
AcDbSymbolTableRecord
100
AcDbLinetypeTableRecord
  2
Continuous
 70
    0
  3
Solid line
 72
   65
 73
    0
 40
0
  0
LTYPE
  5
32
330
5
100
AcDbSymbolTableRecord
100
AcDbLinetypeTableRecord
  2
DOT
 70
    0
  3
Dot . . . . . . . . . . . . . . . . . . . . . .
 72
   65
 73
    2
 40
6.35
 49
0
 74
    0
 49
-6.35
 74
    0
  0
LTYPE
  5
33
330
5
100
AcDbSymbolTableRecord
100
AcDbLinetypeTableRecord
  2
DOTTINY
 70
    0
  3
Dot (.15x) .....................................
 72
   65
 73
    2
 40
0.9525
 49
0
 74
    0
 49
-0.9525
 74
    0
  0
LTYPE
  5
34
330
5
100
AcDbSymbolTableRecord
100
AcDbLinetypeTableRecord
  2
DOT2
 70
    0
  3
Dot (.5x) .....................................
 72
   65
 73
    2
 40
3.175
 49
0
 74
    0
 49
-3.175
 74
    0
  0
LTYPE
  5
35
330
5
100
AcDbSymbolTableRecord
100
AcDbLinetypeTableRecord
  2
DOTX2
 70
    0
  3
Dot (2x) .  .  .  .  .  .  .  .  .  .  .  .  .
 72
   65
 73
    2
 40
12.7
 49
0
 74
    0
 49
-12.7
 74
    0
  0
LTYPE
  5
36
330
5
100
AcDbSymbolTableRecord
100
AcDbLinetypeTableRecord
  2
DASHED
 70
    0
  3
Dashed _ _ _ _ _ _ _ _ _ _ _ _ _ _ _ _ _
 72
   65
 73
    2
 40
19.05
 49
12.7
 74
    0
 49
-6.35
 74
    0
  0
LTYPE
  5
37
330
5
100
AcDbSymbolTableRecord
100
AcDbLinetypeTableRecord
  2
DASHEDTINY
 70
    0
  3
Dashed (.15x) _ _ _ _ _ _ _ _ _ _ _ _ _ _ _ _ _
 72
   65
 73
    2
 40
2.8575
 49
1.905
 74
    0
 49
-0.9525
 74
    0
  0
LTYPE
  5
38
330
5
100
AcDbSymbolTableRecord
100
AcDbLinetypeTableRecord
  2
DASHED2
 70
    0
  3
Dashed (.5x) _ _ _ _ _ _ _ _ _ _ _ _ _ _ _ _ _
 72
   65
 73
    2
 40
9.524999999999999
 49
6.35
 74
    0
 49
-3.175
 74
    0
  0
LTYPE
  5
39
330
5
100
AcDbSymbolTableRecord
100
AcDbLinetypeTableRecord
  2
DASHEDX2
 70
    0
  3
Dashed (2x) ____  ____  ____  ____  ____  ___
 72
   65
 73
    2
 40
38.09999999999999
 49
25.4
 74
    0
 49
-12.7
 74
    0
  0
LTYPE
  5
3A
330
5
100
AcDbSymbolTableRecord
100
AcDbLinetypeTableRecord
  2
DASHDOT
 70
    0
  3
Dash dot __ . __ . __ . __ . __ . __ . __ . __
 72
   65
 73
    4
 40
25.4
 49
12.7
 74
    0
 49
-6.35
 74
    0
 49
0
 74
    0
 49
-6.35
 74
    0
  0
LTYPE
  5
3B
330
5
100
AcDbSymbolTableRecord
100
AcDbLinetypeTableRecord
  2
DASHDOTTINY
 70
    0
  3
Dash dot (.15x) _._._._._._._._._._._._._._._.
 72
   65
 73
    4
 40
3.81
 49
1.905
 74
    0
 49
-0.9525
 74
    0
 49
0
 74
    0
 49
-0.9525
 74
    0
  0
LTYPE
  5
3C
330
5
100
AcDbSymbolTableRecord
100
AcDbLinetypeTableRecord
  2
DASHDOT2
 70
    0
  3
Dash dot (.5x) _._._._._._._._._._._._._._._.
 72
   65
 73
    4
 40
12.7
 49
6.35
 74
    0
 49
-3.175
 74
    0
 49
0
 74
    0
 49
-3.175
 74
    0
  0
LTYPE
  5
3D
330
5
100
AcDbSymbolTableRecord
100
AcDbLinetypeTableRecord
  2
DASHDOTX2
 70
    0
  3
Dash dot (2x) ____  .  ____  .  ____  .  ___
 72
   65
 73
    4
 40
50.8
 49
25.4
 74
    0
 49
-12.7
 74
    0
 49
0
 74
    0
 49
-12.7
 74
    0
  0
LTYPE
  5
3E
330
5
100
AcDbSymbolTableRecord
100
AcDbLinetypeTableRecord
  2
DIVIDE
 70
    0
  3
Divide ____ . . ____ . . ____ . . ____ . . ____
 72
   65
 73
    6
 40
31.75
 49
12.7
 74
    0
 49
-6.35
 74
    0
 49
0
 74
    0
 49
-6.35
 74
    0
 49
0
 74
    0
 49
-6.35
 74
    0
  0
LTYPE
  5
3F
330
5
100
AcDbSymbolTableRecord
100
AcDbLinetypeTableRecord
  2
DIVIDETINY
 70
    0
  3
Divide (.15x) __..__..__..__..__..__..__..__.._
 72
   65
 73
    6
 40
4.7625
 49
1.905
 74
    0
 49
-0.9525
 74
    0
 49
0
 74
    0
 49
-0.9525
 74
    0
 49
0
 74
    0
 49
-0.9525
 74
    0
  0
LTYPE
  5
40
330
5
100
AcDbSymbolTableRecord
100
AcDbLinetypeTableRecord
  2
DIVIDE2
 70
    0
  3
Divide (.5x) __..__..__..__..__..__..__..__.._
 72
   65
 73
    6
 40
15.875
 49
6.35
 74
    0
 49
-3.175
 74
    0
 49
0
 74
    0
 49
-3.175
 74
    0
 49
0
 74
    0
 49
-3.175
 74
    0
  0
LTYPE
  5
41
330
5
100
AcDbSymbolTableRecord
100
AcDbLinetypeTableRecord
  2
DIVIDEX2
 70
    0
  3
Divide (2x) ________  .  .  ________  .  .  _
 72
   65
 73
    6
 40
63.5
 49
25.4
 74
    0
 49
-12.7
 74
    0
 49
0
 74
    0
 49
-12.7
 74
    0
 49
0
 74
    0
 49
-12.7
 74
    0
  0
LTYPE
  5
42
330
5
100
AcDbSymbolTableRecord
100
AcDbLinetypeTableRecord
  2
BORDER
 70
    0
  3
Border __ __ . __ __ . __ __ . __ __ . __ __ .
 72
   65
 73
    6
 40
44.45
 49
12.7
 74
    0
 49
-6.35
 74
    0
 49
12.7
 74
    0
 49
-6.35
 74
    0
 49
0
 74
    0
 49
-6.35
 74
    0
  0
LTYPE
  5
43
330
5
100
AcDbSymbolTableRecord
100
AcDbLinetypeTableRecord
  2
BORDERTINY
 70
    0
  3
Border (.15x) __.__.__.__.__.__.__.__.__.__.__.
 72
   65
 73
    6
 40
6.6675
 49
1.905
 74
    0
 49
-0.9525
 74
    0
 49
1.905
 74
    0
 49
-0.9525
 74
    0
 49
0
 74
    0
 49
-0.9525
 74
    0
  0
LTYPE
  5
44
330
5
100
AcDbSymbolTableRecord
100
AcDbLinetypeTableRecord
  2
BORDER2
 70
    0
  3
Border (.5x) __.__.__.__.__.__.__.__.__.__.__.
 72
   65
 73
    6
 40
22.225
 49
6.35
 74
    0
 49
-3.175
 74
    0
 49
6.35
 74
    0
 49
-3.175
 74
    0
 49
0
 74
    0
 49
-3.175
 74
    0
  0
LTYPE
  5
45
330
5
100
AcDbSymbolTableRecord
100
AcDbLinetypeTableRecord
  2
BORDERX2
 70
    0
  3
Border (2x) ____  ____  .  ____  ____  .  ___
 72
   65
 73
    6
 40
88.89999999999999
 49
25.4
 74
    0
 49
-12.7
 74
    0
 49
25.4
 74
    0
 49
-12.7
 74
    0
 49
0
 74
    0
 49
-12.7
 74
    0
  0
LTYPE
  5
46
330
5
100
AcDbSymbolTableRecord
100
AcDbLinetypeTableRecord
  2
CENTER
 70
    0
  3
Center ____ _ ____ _ ____ _ ____ _ ____ _ ____
 72
   65
 73
    4
 40
50.8
 49
31.75
 74
    0
 49
-6.35
 74
    0
 49
6.35
 74
    0
 49
-6.35
 74
    0
  0
LTYPE
  5
47
330
5
100
AcDbSymbolTableRecord
100
AcDbLinetypeTableRecord
  2
CENTERTINY
 70
    0
  3
Center (.15x) ___ _ ___ _ ___ _ ___ _ ___ _ ___
 72
   65
 73
    4
 40
7.619999999999999
 49
4.7625
 74
    0
 49
-0.9525
 74
    0
 49
0.9525
 74
    0
 49
-0.9525
 74
    0
  0
LTYPE
  5
48
330
5
100
AcDbSymbolTableRecord
100
AcDbLinetypeTableRecord
  2
CENTER2
 70
    0
  3
Center (.5x) ___ _ ___ _ ___ _ ___ _ ___ _ ___
 72
   65
 73
    4
 40
28.575
 49
19.05
 74
    0
 49
-3.175
 74
    0
 49
3.175
 74
    0
 49
-3.175
 74
    0
  0
LTYPE
  5
49
330
5
100
AcDbSymbolTableRecord
100
AcDbLinetypeTableRecord
  2
CENTERX2
 70
    0
  3
Center (2x) ________  __  ________  __  _____
 72
   65
 73
    4
 40
101.6
 49
63.5
 74
    0
 49
-12.7
 74
    0
 49
12.7
 74
    0
 49
-12.7
 74
    0
  0
ENDTAB
  0
TABLE
  2
LAYER
  5
2
330
0
100
AcDbSymbolTable
 70
    1
  0
LAYER
  5
10
330
2
100
AcDbSymbolTableRecord
100
AcDbLayerTableRecord
  2
0
 70
    4
 62
    7
  6
CONTINUOUS
370
    0
390
F
  0
LAYER
  5
4A
330
2
100
AcDbSymbolTableRecord
100
AcDbLayerTableRecord
  2
edge
 70
    4
 62
    2
  6
CONTINUOUS
370
    0
390
F
  0
LAYER
  5
4B
330
2
100
AcDbSymbolTableRecord
100
AcDbLayerTableRecord
  2
ext1
 70
    4
 62
  161
420
10527487
  6
CONTINUOUS
370
    0
390
F
  0
LAYER
  5
4C
330
2
100
AcDbSymbolTableRecord
100
AcDbLayerTableRecord
  2
int
 70
    4
 62
  136
420
32896
  6
CONTINUOUS
370
    0
390
F
  0
LAYER
  5
4D
330
2
100
AcDbSymbolTableRecord
100
AcDbLayerTableRecord
  2
mx
 70
    4
 62
  253
420
10526884
  6
CONTINUOUS
370
    0
390
F
  0
LAYER
  5
4E
330
2
100
AcDbSymbolTableRecord
100
AcDbLayerTableRecord
  2
noname
 70
    0
 62
    1
  6
CONTINUOUS
370
    0
390
F
  0
LAYER
  5
4F
330
2
100
AcDbSymbolTableRecord
100
AcDbLayerTableRecord
  2
percage
 70
    4
 62
    4
  6
CONTINUOUS
370
    0
390
F
  0
LAYER
  5
50
330
2
100
AcDbSymbolTableRecord
100
AcDbLayerTableRecord
  2
rpi
 70
    0
 62
    6
  6
CONTINUOUS
370
    0
390
F
  0
ENDTAB
  0
TABLE
  2
STYLE
  5
3
330
0
100
AcDbSymbolTable
 70
    3
  0
STYLE
  5
51
330
2
100
AcDbSymbolTableRecord
100
AcDbTextStyleTableRecord
  2
Standard
 70
    0
 40
0
 41
1
 50
0
 71
    0
 42
1
  3
txt
  4

  0
ENDTAB
  0
TABLE
  2
VIEW
  5
6
330
0
100
AcDbSymbolTable
 70
    0
  0
ENDTAB
  0
TABLE
  2
UCS
  5
7
330
0
100
AcDbSymbolTable
 70
    0
  0
ENDTAB
  0
TABLE
  2
APPID
  5
9
330
0
100
AcDbSymbolTable
 70
    1
  0
APPID
  5
12
330
9
100
AcDbSymbolTableRecord
100
AcDbRegAppTableRecord
  2
ACAD
 70
    0
  0
APPID
  5
52
330
9
100
AcDbSymbolTableRecord
100
AcDbRegAppTableRecord
  2
LibreCad
 70
    0
  0
ENDTAB
  0
TABLE
  2
DIMSTYLE
  5
A
330
0
100
AcDbSymbolTable
 70
    1
100
AcDbDimStyleTable
 71
    1
  0
DIMSTYLE
105
53
330
A
100
AcDbSymbolTableRecord
100
AcDbDimStyleTableRecord
  2
Standard
 70
    0
 40
2.5
 41
2.5
 42
0.625
 43
0.38
 44
1.25
 45
0
 46
0
 47
0
 48
0
 49
1
140
2.5
141
0.09
142
0
143
25.4
144
1
145
0
146
1
147
0.625
148
0
 71
    0
 72
    0
 73
    0
 74
    1
 75
    0
 76
    0
 77
    0
 78
    8
 79
    0
170
    0
171
    2
172
    0
173
    0
174
    0
175
    0
176
    0
177
    0
178
    0
179
    0
271
    2
272
    4
273
    2
274
    2
275
    0
276
    0
277
    2
278
   44
279
    0
280
    0
281
    0
282
    0
283
    1
284
    0
285
    0
286
    0
288
    0
289
    3
340
STANDARD
341

371
   -2
372
   -2
  0
ENDTAB
  0
TABLE
  2
BLOCK_RECORD
  5
1
330
0
100
AcDbSymbolTable
 70
    2
  0
BLOCK_RECORD
  5
1F
330
1
100
AcDbSymbolTableRecord
100
AcDbBlockTableRecord
  2
*Model_Space
 70
    0
280
    1
281
    0
  0
BLOCK_RECORD
  5
1E
330
1
100
AcDbSymbolTableRecord
100
AcDbBlockTableRecord
  2
*Paper_Space
 70
    0
280
    1
281
    0
  0
ENDTAB
  0
ENDSEC
  0
SECTION
  2
BLOCKS
  0
BLOCK
  5
20
330
1F
100
AcDbEntity
  8
0
100
AcDbBlockBegin
  2
*Model_Space
 70
    0
 10
0
 20
0
 30
0
  3
*Model_Space
  1

  0
ENDBLK
  5
21
330
1F
100
AcDbEntity
  8
0
100
AcDbBlockEnd
  0
BLOCK
  5
1C
330
1B
100
AcDbEntity
  8
0
100
AcDbBlockBegin
  2
*Paper_Space
 70
    0
 10
0
 20
0
 30
0
  3
*Paper_Space
  1

  0
ENDBLK
  5
1D
330
1F
100
AcDbEntity
  8
0
100
AcDbBlockEnd
  0
ENDSEC
  0
SECTION
  2
ENTITIES
  0
LINE
  5
54
100
AcDbEntity
  8
0
  6
ByLayer
 62
  256
370
   -1
100
AcDbLine
 10
-82.3085282
 20
41.0964153
 11
-68.44477520000001
 21
39.1479919
  0
LINE
  5
55
100
AcDbEntity
  8
0
  6
ByLayer
 62
  256
370
   -1
100
AcDbLine
 10
-84.25695160000001
 20
27.2326623
 11
-70.39319860000001
 21
25.2842389
  0
LINE
  5
56
100
AcDbEntity
  8
0
  6
ByLayer
 62
  256
370
   -1
100
AcDbLine
 10
-82.3085282
 20
41.0964153
 11
-84.25695160000001
 21
27.2326623
  0
LINE
  5
57
100
AcDbEntity
  8
0
  6
ByLayer
 62
  256
370
   -1
100
AcDbLine
 10
-68.44477520000001
 20
39.1479919
 11
-70.39319860000001
 21
25.2842389
  0
LINE
  5
58
100
AcDbEntity
  8
0
  6
ByLayer
 62
  256
370
   -1
100
AcDbLine
 10
-63.4934349
 20
38.4521264
 11
-49.6296819
 21
36.503703
  0
LINE
  5
59
100
AcDbEntity
  8
0
  6
ByLayer
 62
  256
370
   -1
100
AcDbLine
 10
-65.44185830000001
 20
24.5883734
 11
-51.5781053
 21
22.63995
  0
LINE
  5
5A
100
AcDbEntity
  8
0
  6
ByLayer
 62
  256
370
   -1
100
AcDbLine
 10
-63.4934349
 20
38.4521264
 11
-65.44185830000001
 21
24.5883734
  0
LINE
  5
5B
100
AcDbEntity
  8
0
  6
ByLayer
 62
  256
370
   -1
100
AcDbLine
 10
-49.6296819
 20
36.503703
 11
-51.5781053
 21
22.63995
  0
LINE
  5
5C
100
AcDbEntity
  8
0
  6
ByLayer
 62
  256
370
   -1
100
AcDbLine
 10
-44.6783416
 20
35.8078375
 11
-30.81458860000001
 21
33.8594141
  0
LINE
  5
5D
100
AcDbEntity
  8
0
  6
ByLayer
 62
  256
370
   -1
100
AcDbLine
 10
-46.62676500000001
 20
21.9440845
 11
-32.763012
 21
19.9956611
  0
LINE
  5
5E
100
AcDbEntity
  8
0
  6
ByLayer
 62
  256
370
   -1
100
AcDbLine
 10
-44.6783416
 20
35.8078375
 11
-46.62676500000001
 21
21.9440845
  0
LINE
  5
5F
100
AcDbEntity
  8
0
  6
ByLayer
 62
  256
370
   -1
100
AcDbLine
 10
-30.81458860000001
 20
33.8594141
 11
-32.763012
 21
19.9956611
  0
LINE
  5
60
100
AcDbEntity
  8
0
  6
ByLayer
 62
  256
370
   -1
100
AcDbLine
 10
-25.8632483
 20
33.1635486
 11
-11.99949530000001
 21
31.2151252
  0
LINE
  5
61
100
AcDbEntity
  8
0
  6
ByLayer
 62
  256
370
   -1
100
AcDbLine
 10
-27.81167170000001
 20
19.2997956
 11
-13.9479187
 21
17.3513722
  0
LINE
  5
62
100
AcDbEntity
  8
0
  6
ByLayer
 62
  256
370
   -1
100
AcDbLine
 10
-25.8632483
 20
33.1635486
 11
-27.81167170000001
 21
19.2997956
  0
LINE
  5
63
100
AcDbEntity
  8
0
  6
ByLayer
 62
  256
370
   -1
100
AcDbLine
 10
-11.99949530000001
 20
31.2151252
 11
-13.9479187
 21
17.3513722
  0
LINE
  5
64
100
AcDbEntity
  8
0
  6
ByLayer
 62
  256
370
   -1
100
AcDbLine
 10
-80.24904380000001
 20
21.6202498
 11
-66.38529080000001
 21
19.6718264
  0
LINE
  5
65
100
AcDbEntity
  8
0
  6
ByLayer
 62
  256
370
   -1
100
AcDbLine
 10
-82.19746720000001
 20
7.756496800000001
 11
-68.3337142
 21
5.808073399999998
  0
LINE
  5
66
100
AcDbEntity
  8
0
  6
ByLayer
 62
  256
370
   -1
100
AcDbLine
 10
-80.24904380000001
 20
21.6202498
 11
-82.19746720000001
 21
7.756496800000001
  0
LINE
  5
67
100
AcDbEntity
  8
0
  6
ByLayer
 62
  256
370
   -1
100
AcDbLine
 10
-66.38529080000001
 20
19.6718264
 11
-68.3337142
 21
5.808073399999998
  0
LINE
  5
68
100
AcDbEntity
  8
0
  6
ByLayer
 62
  256
370
   -1
100
AcDbLine
 10
-61.4339505
 20
18.9759609
 11
-47.5701975
 21
17.0275375
  0
LINE
  5
69
100
AcDbEntity
  8
0
  6
ByLayer
 62
  256
370
   -1
100
AcDbLine
 10
-63.3823739
 20
5.112207900000001
 11
-49.5186209
 21
3.163784499999998
  0
LINE
  5
6A
100
AcDbEntity
  8
0
  6
ByLayer
 62
  256
370
   -1
100
AcDbLine
 10
-61.4339505
 20
18.9759609
 11
-63.3823739
 21
5.112207900000001
  0
LINE
  5
6B
100
AcDbEntity
  8
0
  6
ByLayer
 62
  256
370
   -1
100
AcDbLine
 10
-47.5701975
 20
17.0275375
 11
-49.5186209
 21
3.163784499999998
  0
LINE
  5
6C
100
AcDbEntity
  8
0
  6
ByLayer
 62
  256
370
   -1
100
AcDbLine
 10
-42.61885720000001
 20
16.331672
 11
-28.75510420000001
 21
14.3832486
  0
LINE
  5
6D
100
AcDbEntity
  8
0
  6
ByLayer
 62
  256
370
   -1
100
AcDbLine
 10
-44.5672806
 20
2.467919000000002
 11
-30.7035276
 21
0.5194955999999991
  0
LINE
  5
6E
100
AcDbEntity
  8
0
  6
ByLayer
 62
  256
370
   -1
100
AcDbLine
 10
-42.61885720000001
 20
16.331672
 11
-44.5672806
 21
2.467919000000002
  0
LINE
  5
6F
100
AcDbEntity
  8
0
  6
ByLayer
 62
  256
370
   -1
100
AcDbLine
 10
-28.75510420000001
 20
14.3832486
 11
-30.7035276
 21
0.5194955999999991
  0
LINE
  5
70
100
AcDbEntity
  8
0
  6
ByLayer
 62
  256
370
   -1
100
AcDbLine
 10
-23.80376390000001
 20
13.6873831
 11
-9.940010900000004
 21
11.7389597
  0
LINE
  5
71
100
AcDbEntity
  8
0
  6
ByLayer
 62
  256
370
   -1
100
AcDbLine
 10
-25.7521873
 20
-0.1763698999999974
 11
-11.8884343
 21
-2.1247933
  0
LINE
  5
72
100
AcDbEntity
  8
0
  6
ByLayer
 62
  256
370
   -1
100
AcDbLine
 10
-23.80376390000001
 20
13.6873831
 11
-25.7521873
 21
-0.1763698999999974
  0
LINE
  5
73
100
AcDbEntity
  8
0
  6
ByLayer
 62
  256
370
   -1
100
AcDbLine
 10
-9.940010900000004
 20
11.7389597
 11
-11.8884343
 21
-2.1247933
  0
LINE
  5
74
100
AcDbEntity
  8
0
  6
ByLayer
 62
  256
370
   -1
100
AcDbLine
 10
-73.4857861
 20
1.483012000000002
 11
-59.6220331
 21
-0.4654114000000007
  0
LINE
  5
75
100
AcDbEntity
  8
0
  6
ByLayer
 62
  256
370
   -1
100
AcDbLine
 10
-75.43420950000001
 20
-12.380741
 11
-61.5704565
 21
-14.3291644
  0
LINE
  5
76
100
AcDbEntity
  8
0
  6
ByLayer
 62
  256
370
   -1
100
AcDbLine
 10
-73.4857861
 20
1.483012000000002
 11
-75.43420950000001
 21
-12.380741
  0
LINE
  5
77
100
AcDbEntity
  8
0
  6
ByLayer
 62
  256
370
   -1
100
AcDbLine
 10
-59.6220331
 20
-0.4654114000000007
 11
-61.5704565
 21
-14.3291644
  0
LINE
  5
78
100
AcDbEntity
  8
0
  6
ByLayer
 62
  256
370
   -1
100
AcDbLine
 10
-54.6706928
 20
-1.161276899999997
 11
-40.80693979999999
 21
-3.1097003
  0
LINE
  5
79
100
AcDbEntity
  8
0
  6
ByLayer
 62
  256
370
   -1
100
AcDbLine
 10
-56.6191162
 20
-15.0250299
 11
-42.75536320000001
 21
-16.9734533
  0
LINE
  5
7A
100
AcDbEntity
  8
0
  6
ByLayer
 62
  256
370
   -1
100
AcDbLine
 10
-54.6706928
 20
-1.161276899999997
 11
-56.6191162
 21
-15.0250299
  0
LINE
  5
7B
100
AcDbEntity
  8
0
  6
ByLayer
 62
  256
370
   -1
100
AcDbLine
 10
-40.80693979999999
 20
-3.1097003
 11
-42.75536320000001
 21
-16.9734533
  0
LINE
  5
7C
100
AcDbEntity
  8
0
  6
ByLayer
 62
  256
370
   -1
100
AcDbLine
 10
-35.8555995
 20
-3.805565800000004
 11
-21.99184649999999
 21
-5.753989199999999
  0
LINE
  5
7D
100
AcDbEntity
  8
0
  6
ByLayer
 62
  256
370
   -1
100
AcDbLine
 10
-37.80402290000001
 20
-17.6693188
 11
-23.9402699
 21
-19.6177422
  0
LINE
  5
7E
100
AcDbEntity
  8
0
  6
ByLayer
 62
  256
370
   -1
100
AcDbLine
 10
-35.8555995
 20
-3.805565800000004
 11
-37.80402290000001
 21
-17.6693188
  0
LINE
  5
7F
100
AcDbEntity
  8
0
  6
ByLayer
 62
  256
370
   -1
100
AcDbLine
 10
-21.99184649999999
 20
-5.753989199999999
 11
-23.9402699
 21
-19.6177422
  0
LINE
  5
80
100
AcDbEntity
  8
0
  6
ByLayer
 62
  256
370
   -1
100
AcDbLine
 10
-17.0405062
 20
-6.449854700000003
 11
-3.176753200000007
 21
-8.398278099999999
  0
LINE
  5
81
100
AcDbEntity
  8
0
  6
ByLayer
 62
  256
370
   -1
100
AcDbLine
 10
-18.98892960000001
 20
-20.31360770000001
 11
-5.125176600000003
 21
-22.2620311
  0
LINE
  5
82
100
AcDbEntity
  8
0
  6
ByLayer
 62
  256
370
   -1
100
AcDbLine
 10
-17.0405062
 20
-6.449854700000003
 11
-18.98892960000001
 21
-20.31360770000001
  0
LINE
  5
83
100
AcDbEntity
  8
0
  6
ByLayer
 62
  256
370
   -1
100
AcDbLine
 10
-3.176753200000007
 20
-8.398278099999999
 11
-5.125176600000003
 21
-22.2620311
  0
LINE
  5
84
100
AcDbEntity
  8
0
  6
ByLayer
 62
  256
370
   -1
100
AcDbLine
 10
-62.018755
 20
-19.315298
 11
-48.155002
 21
-21.26372139999999
  0
LINE
  5
85
100
AcDbEntity
  8
0
  6
ByLayer
 62
  256
370
   -1
100
AcDbLine
 10
-63.9671784
 20
-33.179051
 11
-50.1034254
 21
-35.1274744
  0
LINE
  5
86
100
AcDbEntity
  8
0
  6
ByLayer
 62
  256
370
   -1
100
AcDbLine
 10
-62.018755
 20
-19.315298
 11
-63.9671784
 21
-33.179051
  0
LINE
  5
87
100
AcDbEntity
  8
0
  6
ByLayer
 62
  256
370
   -1
100
AcDbLine
 10
-48.155002
 20
-21.26372139999999
 11
-50.1034254
 21
-35.1274744
  0
LINE
  5
88
100
AcDbEntity
  8
0
  6
ByLayer
 62
  256
370
   -1
100
AcDbLine
 10
-31.4442284
 20
-23.61226740000001
 11
-17.5804754
 21
-25.5606908
  0
LINE
  5
89
100
AcDbEntity
  8
0
  6
ByLayer
 62
  256
370
   -1
100
AcDbLine
 10
-33.3926518
 20
-37.4760204
 11
-19.52889880000001
 21
-39.42444380000001
  0
LINE
  5
8A
100
AcDbEntity
  8
0
  6
ByLayer
 62
  256
370
   -1
100
AcDbLine
 10
-31.4442284
 20
-23.61226740000001
 11
-33.3926518
 21
-37.4760204
  0
LINE
  5
8B
100
AcDbEntity
  8
0
  6
ByLayer
 62
  256
370
   -1
100
AcDbLine
 10
-17.5804754
 20
-25.5606908
 11
-19.52889880000001
 21
-39.42444380000001
  0
LINE
  5
8C
100
AcDbEntity
  8
0
  6
ByLayer
 62
  256
370
   -1
100
AcDbLine
 10
-39.93928340000001
 20
-23.4281929
 11
-33.007407
 21
-24.4024046
  0
LINE
  5
8D
100
AcDbEntity
  8
0
  6
ByLayer
 62
  256
370
   -1
100
AcDbLine
 10
-42.02688000000001
 20
-38.2822139
 11
-35.0950035
 21
-39.2564256
  0
LINE
  5
8E
100
AcDbEntity
  8
0
  6
ByLayer
 62
  256
370
   -1
100
AcDbLine
 10
-39.93928340000001
 20
-23.4281929
 11
-42.02688000000001
 21
-38.2822139
  0
LINE
  5
8F
100
AcDbEntity
  8
0
  6
ByLayer
 62
  256
370
   -1
100
AcDbLine
 10
-33.007407
 20
-24.4024046
 11
-35.0950035
 21
-39.2564256
  0
LINE
  5
90
100
AcDbEntity
  8
0
  6
ByLayer
 62
  256
370
   -1
100
AcDbLine
 10
-16.295643
 20
-26.7510898
 11
-9.363766499999997
 21
-27.7253015
  0
LINE
  5
91
100
AcDbEntity
  8
0
  6
ByLayer
 62
  256
370
   -1
100
AcDbLine
 10
-18.3832395
 20
-41.60511080000001
 11
-11.45136309999999
 21
-42.5793226
  0
LINE
  5
92
100
AcDbEntity
  8
0
  6
ByLayer
 62
  256
370
   -1
100
AcDbLine
 10
-16.295643
 20
-26.7510898
 11
-18.3832395
 21
-41.60511080000001
  0
LINE
  5
93
100
AcDbEntity
  8
0
  6
ByLayer
 62
  256
370
   -1
100
AcDbLine
 10
-9.363766499999997
 20
-27.7253015
 11
-11.45136309999999
 21
-42.5793226
  0
LINE
  5
94
100
AcDbEntity
  8
0
  6
ByLayer
 62
  256
370
   -1
100
AcDbLine
 10
7.4447768
 20
30.0740782
 11
21.3085298
 21
32.0225016
  0
LINE
  5
95
100
AcDbEntity
  8
0
  6
ByLayer
 62
  256
370
   -1
100
AcDbLine
 10
9.393200199999995
 20
16.2103252
 11
23.2569532
 21
18.1587486
  0
LINE
  5
96
100
AcDbEntity
  8
0
  6
ByLayer
 62
  256
370
   -1
100
AcDbLine
 10
7.4447768
 20
30.0740782
 11
9.393200199999995
 21
16.2103252
  0
LINE
  5
97
100
AcDbEntity
  8
0
  6
ByLayer
 62
  256
370
   -1
100
AcDbLine
 10
21.3085298
 20
32.0225016
 11
23.2569532
 21
18.1587486
  0
LINE
  5
98
100
AcDbEntity
  8
0
  6
ByLayer
 62
  256
370
   -1
100
AcDbLine
 10
26.2598701
 20
32.7183671
 11
40.1236231
 21
34.6667905
  0
LINE
  5
99
100
AcDbEntity
  8
0
  6
ByLayer
 62
  256
370
   -1
100
AcDbLine
 10
28.2082935
 20
18.8546141
 11
42.0720465
 21
20.8030375
  0
LINE
  5
9A
100
AcDbEntity
  8
0
  6
ByLayer
 62
  256
370
   -1
100
AcDbLine
 10
26.2598701
 20
32.7183671
 11
28.2082935
 21
18.8546141
  0
LINE
  5
9B
100
AcDbEntity
  8
0
  6
ByLayer
 62
  256
370
   -1
100
AcDbLine
 10
40.1236231
 20
34.6667905
 11
42.0720465
 21
20.8030375
  0
LINE
  5
9C
100
AcDbEntity
  8
0
  6
ByLayer
 62
  256
370
   -1
100
AcDbLine
 10
45.0749634
 20
35.362656
 11
58.9387164
 21
37.3110794
  0
LINE
  5
9D
100
AcDbEntity
  8
0
  6
ByLayer
 62
  256
370
   -1
100
AcDbLine
 10
47.0233868
 20
21.498903
 11
60.8871398
 21
23.4473264
  0
LINE
  5
9E
100
AcDbEntity
  8
0
  6
ByLayer
 62
  256
370
   -1
100
AcDbLine
 10
45.0749634
 20
35.362656
 11
47.0233868
 21
21.498903
  0
LINE
  5
9F
100
AcDbEntity
  8
0
  6
ByLayer
 62
  256
370
   -1
100
AcDbLine
 10
58.9387164
 20
37.3110794
 11
60.8871398
 21
23.4473264
  0
LINE
  5
A0
100
AcDbEntity
  8
0
  6
ByLayer
 62
  256
370
   -1
100
AcDbLine
 10
63.8900567
 20
38.0069449
 11
77.75380970000001
 21
39.9553683
  0
LINE
  5
A1
100
AcDbEntity
  8
0
  6
ByLayer
 62
  256
370
   -1
100
AcDbLine
 10
65.8384801
 20
24.1431919
 11
79.7022331
 21
26.0916153
  0
LINE
  5
A2
100
AcDbEntity
  8
0
  6
ByLayer
 62
  256
370
   -1
100
AcDbLine
 10
63.8900567
 20
38.0069449
 11
65.8384801
 21
24.1431919
  0
LINE
  5
A3
100
AcDbEntity
  8
0
  6
ByLayer
 62
  256
370
   -1
100
AcDbLine
 10
77.75380970000001
 20
39.9553683
 11
79.7022331
 21
26.0916153
  0
LINE
  5
A4
100
AcDbEntity
  8
0
  6
ByLayer
 62
  256
370
   -1
100
AcDbLine
 10
14.792839
 20
11.9200571
 11
28.65659199999999
 21
13.8684805
  0
LINE
  5
A5
100
AcDbEntity
  8
0
  6
ByLayer
 62
  256
370
   -1
100
AcDbLine
 10
16.74126240000001
 20
-1.943695900000002
 11
30.60501539999998
 21
0.004727500000001328
  0
LINE
  5
A6
100
AcDbEntity
  8
0
  6
ByLayer
 62
  256
370
   -1
100
AcDbLine
 10
14.792839
 20
11.9200571
 11
16.74126240000001
 21
-1.943695900000002
  0
LINE
  5
A7
100
AcDbEntity
  8
0
  6
ByLayer
 62
  256
370
   -1
100
AcDbLine
 10
28.65659199999999
 20
13.8684805
 11
30.60501539999998
 21
0.004727500000001328
  0
LINE
  5
A8
100
AcDbEntity
  8
0
  6
ByLayer
 62
  256
370
   -1
100
AcDbLine
 10
33.60793229999999
 20
14.564346
 11
47.47168529999999
 21
16.5127694
  0
LINE
  5
A9
100
AcDbEntity
  8
0
  6
ByLayer
 62
  256
370
   -1
100
AcDbLine
 10
35.55635570000001
 20
0.7005929999999978
 11
49.42010869999999
 21
2.649016400000001
  0
LINE
  5
AA
100
AcDbEntity
  8
0
  6
ByLayer
 62
  256
370
   -1
100
AcDbLine
 10
33.60793229999999
 20
14.564346
 11
35.55635570000001
 21
0.7005929999999978
  0
LINE
  5
AB
100
AcDbEntity
  8
0
  6
ByLayer
 62
  256
370
   -1
100
AcDbLine
 10
47.47168529999999
 20
16.5127694
 11
49.42010869999999
 21
2.649016400000001
  0
LINE
  5
AC
100
AcDbEntity
  8
0
  6
ByLayer
 62
  256
370
   -1
100
AcDbLine
 10
52.42302559999999
 20
17.208635
 11
66.28677859999999
 21
19.1570584
  0
LINE
  5
AD
100
AcDbEntity
  8
0
  6
ByLayer
 62
  256
370
   -1
100
AcDbLine
 10
54.37144900000001
 20
3.344881999999998
 11
68.23520199999999
 21
5.293305400000001
  0
LINE
  5
AE
100
AcDbEntity
  8
0
  6
ByLayer
 62
  256
370
   -1
100
AcDbLine
 10
52.42302559999999
 20
17.208635
 11
54.37144900000001
 21
3.344881999999998
  0
LINE
  5
AF
100
AcDbEntity
  8
0
  6
ByLayer
 62
  256
370
   -1
100
AcDbLine
 10
66.28677859999999
 20
19.1570584
 11
68.23520199999999
 21
5.293305400000001
  0
LINE
  5
B0
100
AcDbEntity
  8
0
  6
ByLayer
 62
  256
370
   -1
100
AcDbLine
 10
71.23811889999999
 20
19.8529239
 11
85.10187189999999
 21
21.8013473
  0
LINE
  5
B1
100
AcDbEntity
  8
0
  6
ByLayer
 62
  256
370
   -1
100
AcDbLine
 10
73.18654229999999
 20
5.989170899999998
 11
87.05029529999999
 21
7.937594300000001
  0
LINE
  5
B2
100
AcDbEntity
  8
0
  6
ByLayer
 62
  256
370
   -1
100
AcDbLine
 10
71.23811889999999
 20
19.8529239
 11
73.18654229999999
 21
5.989170899999998
  0
LINE
  5
B3
100
AcDbEntity
  8
0
  6
ByLayer
 62
  256
370
   -1
100
AcDbLine
 10
85.10187189999999
 20
21.8013473
 11
87.05029529999999
 21
7.937594300000001
  0
LINE
  5
B4
100
AcDbEntity
  8
0
  6
ByLayer
 62
  256
370
   -1
100
AcDbLine
 10
8.029581300000004
 20
-8.217180599999999
 11
21.89333429999999
 21
-6.268757200000003
  0
LINE
  5
B5
100
AcDbEntity
  8
0
  6
ByLayer
 62
  256
370
   -1
100
AcDbLine
 10
9.9780047
 20
-22.08093359999999
 11
23.84175769999999
 21
-20.1325102
  0
LINE
  5
B6
100
AcDbEntity
  8
0
  6
ByLayer
 62
  256
370
   -1
100
AcDbLine
 10
8.029581300000004
 20
-8.217180599999999
 11
9.9780047
 21
-22.08093359999999
  0
LINE
  5
B7
100
AcDbEntity
  8
0
  6
ByLayer
 62
  256
370
   -1
100
AcDbLine
 10
21.89333429999999
 20
-6.268757200000003
 11
23.84175769999999
 21
-20.1325102
  0
LINE
  5
B8
100
AcDbEntity
  8
0
  6
ByLayer
 62
  256
370
   -1
100
AcDbLine
 10
26.84467459999999
 20
-5.5728917
 11
40.70842759999999
 21
-3.624468300000004
  0
LINE
  5
B9
100
AcDbEntity
  8
0
  6
ByLayer
 62
  256
370
   -1
100
AcDbLine
 10
28.79309799999999
 20
-19.4366447
 11
42.65685099999999
 21
-17.48822130000001
  0
LINE
  5
BA
100
AcDbEntity
  8
0
  6
ByLayer
 62
  256
370
   -1
100
AcDbLine
 10
26.84467459999999
 20
-5.5728917
 11
28.79309799999999
 21
-19.4366447
  0
LINE
  5
BB
100
AcDbEntity
  8
0
  6
ByLayer
 62
  256
370
   -1
100
AcDbLine
 10
40.70842759999999
 20
-3.624468300000004
 11
42.65685099999999
 21
-17.48822130000001
  0
LINE
  5
BC
100
AcDbEntity
  8
0
  6
ByLayer
 62
  256
370
   -1
100
AcDbLine
 10
45.65976789999999
 20
-2.9286028
 11
59.52352089999999
 21
-0.9801793999999973
  0
LINE
  5
BD
100
AcDbEntity
  8
0
  6
ByLayer
 62
  256
370
   -1
100
AcDbLine
 10
47.60819129999999
 20
-16.7923558
 11
61.47194429999999
 21
-14.8439324
  0
LINE
  5
BE
100
AcDbEntity
  8
0
  6
ByLayer
 62
  256
370
   -1
100
AcDbLine
 10
45.65976789999999
 20
-2.9286028
 11
47.60819129999999
 21
-16.7923558
  0
LINE
  5
BF
100
AcDbEntity
  8
0
  6
ByLayer
 62
  256
370
   -1
100
AcDbLine
 10
59.52352089999999
 20
-0.9801793999999973
 11
61.47194429999999
 21
-14.8439324
  0
LINE
  5
C0
100
AcDbEntity
  8
0
  6
ByLayer
 62
  256
370
   -1
100
AcDbLine
 10
64.47486119999999
 20
-0.2843139000000008
 11
78.33861419999999
 21
1.664109500000002
  0
LINE
  5
C1
100
AcDbEntity
  8
0
  6
ByLayer
 62
  256
370
   -1
100
AcDbLine
 10
66.42328459999999
 20
-14.1480669
 11
80.28703759999999
 21
-12.1996435
  0
LINE
  5
C2
100
AcDbEntity
  8
0
  6
ByLayer
 62
  256
370
   -1
100
AcDbLine
 10
64.47486119999999
 20
-0.2843139000000008
 11
66.42328459999999
 21
-14.1480669
  0
LINE
  5
C3
100
AcDbEntity
  8
0
  6
ByLayer
 62
  256
370
   -1
100
AcDbLine
 10
78.33861419999999
 20
1.664109500000002
 11
80.28703759999999
 21
-12.1996435
  0
LINE
  5
C4
100
AcDbEntity
  8
0
  6
ByLayer
 62
  256
370
   -1
100
AcDbLine
 10
20.0814168
 20
-25.71012949999999
 11
33.9451698
 21
-23.7617061
  0
LINE
  5
C5
100
AcDbEntity
  8
0
  6
ByLayer
 62
  256
370
   -1
100
AcDbLine
 10
22.0298402
 20
-39.5738825
 11
35.8935932
 21
-37.6254591
  0
LINE
  5
C6
100
AcDbEntity
  8
0
  6
ByLayer
 62
  256
370
   -1
100
AcDbLine
 10
20.0814168
 20
-25.71012949999999
 11
22.0298402
 21
-39.5738825
  0
LINE
  5
C7
100
AcDbEntity
  8
0
  6
ByLayer
 62
  256
370
   -1
100
AcDbLine
 10
33.9451698
 20
-23.7617061
 11
35.8935932
 21
-37.6254591
  0
LINE
  5
C8
100
AcDbEntity
  8
0
  6
ByLayer
 62
  256
370
   -1
100
AcDbLine
 10
11.8647079
 20
-27.87474020000001
 11
18.7965844
 21
-26.90052850000001
  0
LINE
  5
C9
100
AcDbEntity
  8
0
  6
ByLayer
 62
  256
370
   -1
100
AcDbLine
 10
13.9523045
 20
-42.7287613
 11
20.88418089999999
 21
-41.7545495
  0
LINE
  5
CA
100
AcDbEntity
  8
0
  6
ByLayer
 62
  256
370
   -1
100
AcDbLine
 10
11.8647079
 20
-27.87474020000001
 11
13.9523045
 21
-42.7287613
  0
LINE
  5
CB
100
AcDbEntity
  8
0
  6
ByLayer
 62
  256
370
   -1
100
AcDbLine
 10
18.7965844
 20
-26.90052850000001
 11
20.88418089999999
 21
-41.7545495
  0
LINE
  5
CC
100
AcDbEntity
  8
0
  6
ByLayer
 62
  256
370
   -1
100
AcDbLine
 10
35.50834839999999
 20
-24.5518433
 11
42.44022480000001
 21
-23.5776316
  0
LINE
  5
CD
100
AcDbEntity
  8
0
  6
ByLayer
 62
  256
370
   -1
100
AcDbLine
 10
37.59594490000001
 20
-39.4058643
 11
44.52782139999999
 21
-38.43165260000001
  0
LINE
  5
CE
100
AcDbEntity
  8
0
  6
ByLayer
 62
  256
370
   -1
100
AcDbLine
 10
35.50834839999999
 20
-24.5518433
 11
37.59594490000001
 21
-39.4058643
  0
LINE
  5
CF
100
AcDbEntity
  8
0
  6
ByLayer
 62
  256
370
   -1
100
AcDbLine
 10
42.44022480000001
 20
-23.5776316
 11
44.52782139999999
 21
-38.43165260000001
  0
LINE
  5
D0
100
AcDbEntity
  8
0
  6
ByLayer
 62
  256
370
   -1
100
AcDbLine
 10
48.30405680000001
 20
-21.74369609999999
 11
62.16780979999999
 21
-19.7952727
  0
LINE
  5
D1
100
AcDbEntity
  8
0
  6
ByLayer
 62
  256
370
   -1
100
AcDbLine
 10
50.25248020000001
 20
-35.6074491
 11
64.11623320000001
 21
-33.6590257
  0
LINE
  5
D2
100
AcDbEntity
  8
0
  6
ByLayer
 62
  256
370
   -1
100
AcDbLine
 10
48.30405680000001
 20
-21.74369609999999
 11
50.25248020000001
 21
-35.6074491
  0
LINE
  5
D3
100
AcDbEntity
  8
0
  6
ByLayer
 62
  256
370
   -1
100
AcDbLine
 10
62.16780979999999
 20
-19.7952727
 11
64.11623320000001
 21
-33.6590257
  0
LINE
  5
D4
100
AcDbEntity
  8
mx
  6
ByLayer
 62
  256
370
   -1
100
AcDbLine
 10
10.49455613952801
 20
-43.71962986563207
 11
7.850267241286634
 21
-24.90453652100242
  0
LINE
  5
D5
100
AcDbEntity
  8
mx
  6
ByLayer
 62
  256
370
   -1
100
AcDbLine
 10
48.12474275871337
 20
-38.43105207899758
 11
45.48045386047198
 21
-19.61595873436791
  0
LINE
  5
D6
100
AcDbEntity
  8
mx
  6
ByLayer
 62
  256
370
   -1
100
AcDbLine
 10
-0.3531502762684314
 20
-6.270540660468553
 11
-2.997439164587061
 21
-25.08563393449418
  0
LINE
  5
D7
100
AcDbEntity
  8
mx
  6
ByLayer
 62
  256
370
   -1
100
AcDbLine
 10
-9.175892378564491
 20
33.34286262319413
 11
-11.82018127680587
 21
14.52776927856448
  0
LINE
  5
D8
100
AcDbEntity
  8
mx
  6
ByLayer
 62
  256
370
   -1
100
AcDbLine
 10
-7.116407987365761
 20
13.86669706056982
 11
-9.760696876805866
 21
-4.948396221435516
  0
LINE
  5
D9
100
AcDbEntity
  8
mx
  6
ByLayer
 62
  256
370
   -1
100
AcDbLine
 10
11.96923608199668
 20
14.04779449877276
 11
14.61352497680588
 21
-4.76729882143552
  0
LINE
  5
DA
100
AcDbEntity
  8
mx
  6
ByLayer
 62
  256
370
   -1
100
AcDbLine
 10
-45.3313990719915
 20
-19.13598393003663
 11
-47.97568797680587
 21
-37.95107732143552
  0
LINE
  5
DB
100
AcDbEntity
  8
mx
  6
ByLayer
 62
  256
370
   -1
100
AcDbLine
 10
-64.14649241662114
 20
-16.49169503179526
 11
-66.79078131486253
 21
-35.30678837642485
  0
LINE
  5
DC
100
AcDbEntity
  8
mx
  6
ByLayer
 62
  256
370
   -1
100
AcDbLine
 10
-82.37678123531585
 20
24.44385263518515
 11
-85.02107012475594
 21
5.62875935317981
  0
LINE
  5
DD
100
AcDbEntity
  8
mx
  6
ByLayer
 62
  256
370
   -1
100
AcDbLine
 10
-85.02107012475594
 20
5.62875935317981
 11
-0.3531502762684314
 21
-6.270540660468553
  0
LINE
  5
DE
100
AcDbEntity
  8
0
  6
ByLayer
 62
  256
370
   -1
100
AcDbLine
 10
-101.8598846735011
 20
2.154660981828608
 11
-87.85988467350114
 21
2.154660981828608
  0
LINE
  5
DF
100
AcDbEntity
  8
0
  6
ByLayer
 62
  256
370
   -1
100
AcDbLine
 10
-101.8598846735011
 20
-11.84533901817139
 11
-87.85988467350114
 21
-11.84533901817139
  0
LINE
  5
E0
100
AcDbEntity
  8
0
  6
ByLayer
 62
  256
370
   -1
100
AcDbLine
 10
-101.8598846735011
 20
2.154660981828608
 11
-101.8598846735011
 21
-11.84533901817139
  0
LINE
  5
E1
100
AcDbEntity
  8
0
  6
ByLayer
 62
  256
370
   -1
100
AcDbLine
 10
-87.85988467350114
 20
2.154660981828608
 11
-87.85988467350114
 21
-11.84533901817139
  0
LINE
  5
E2
100
AcDbEntity
  8
mx
  6
ByLayer
 62
  256
370
   -1
100
AcDbLine
 10
-111.4848846735011
 20
-14.34533901817139
 11
-111.4848846735011
 21
4.654660981828608
  0
LINE
  5
E3
100
AcDbEntity
  8
mx
  6
ByLayer
 62
  256
370
   -1
100
AcDbLine
 10
-111.4848846735011
 20
-14.34533901817139
 11
-78.23488467350114
 21
-14.34533901817139
  0
LINE
  5
E4
100
AcDbEntity
  8
mx
  6
ByLayer
 62
  256
370
   -1
100
AcDbLine
 10
-111.4848846735011
 20
4.654660981828608
 11
-78.23488467350114
 21
4.654660981828608
  0
LINE
  5
E5
100
AcDbEntity
  8
mx
  6
ByLayer
 62
  256
370
   -1
100
AcDbLine
 10
-78.23488467350114
 20
-14.34533901817139
 11
-78.23488467350114
 21
4.654660981828608
  0
LINE
  5
E6
100
AcDbEntity
  8
mx
  6
ByLayer
 62
  256
370
   -1
100
AcDbLine
 10
-86.02488467350111
 20
-14.34533901817138
 11
-86.02488467350112
 21
-33.34533901817139
  0
LINE
  5
E7
100
AcDbEntity
  8
mx
  6
ByLayer
 62
  256
370
   -1
100
AcDbLine
 10
-109.7748846735011
 20
-14.34533901817137
 11
-109.7748846735011
 21
-33.34533901817139
  0
LINE
  5
E8
100
AcDbEntity
  8
mx
  6
ByLayer
 62
  256
370
   -1
100
AcDbLine
 10
-109.7748846735011
 20
-33.34533901817139
 11
-86.02488467350112
 21
-33.34533901817139
  0
LINE
  5
E9
100
AcDbEntity
  8
0
  6
ByLayer
 62
  256
370
   -1
100
AcDbLine
 10
-104.8998846735011
 20
-16.84533901817139
 11
-90.89988467350112
 21
-16.84533901817139
  0
LINE
  5
EA
100
AcDbEntity
  8
0
  6
ByLayer
 62
  256
370
   -1
100
AcDbLine
 10
-104.8998846735011
 20
-30.84533901817139
 11
-90.89988467350112
 21
-30.84533901817139
  0
LINE
  5
EB
100
AcDbEntity
  8
0
  6
ByLayer
 62
  256
370
   -1
100
AcDbLine
 10
-104.8998846735011
 20
-16.84533901817139
 11
-104.8998846735011
 21
-30.84533901817139
  0
LINE
  5
EC
100
AcDbEntity
  8
0
  6
ByLayer
 62
  256
370
   -1
100
AcDbLine
 10
-90.89988467350112
 20
-16.84533901817139
 11
-90.89988467350112
 21
-30.84533901817139
  0
LINE
  5
ED
100
AcDbEntity
  8
mx
  6
ByLayer
 62
  256
370
   -1
100
AcDbLine
 10
-75.61352352421851
 20
4.306614914146773
 11
-78.25781241253713
 21
-14.50847835987889
  0
LINE
  5
EE
100
AcDbEntity
  8
mx
  6
ByLayer
 62
  256
370
   -1
100
AcDbLine
 10
-78.25781241253713
 20
-14.50847835987889
 11
-2.997439164587061
 21
-25.08563393449418
  0
LINE
  5
EF
100
AcDbEntity
  8
mx
  6
ByLayer
 62
  256
370
   -1
100
AcDbLine
 10
-5.641728097191158
 20
-43.90072742929688
 11
-2.997439177587546
 21
-25.08563393266709
  0
LINE
  5
F0
100
AcDbEntity
  8
mx
  6
ByLayer
 62
  256
370
   -1
100
AcDbLine
 10
-66.79078131486253
 20
-35.30678837642485
 11
-5.641728097191158
 21
-43.90072742929688
  0
LINE
  5
F1
100
AcDbEntity
  8
mx
  6
ByLayer
 62
  256
370
   -1
100
AcDbLine
 10
64.2955472307768
 20
-16.97166983251812
 11
66.93983612901822
 21
-35.7867631771478
  0
LINE
  5
F2
100
AcDbEntity
  8
mx
  6
ByLayer
 62
  256
370
   -1
100
AcDbLine
 10
10.49455613952801
 20
-43.71962986563207
 11
66.93983612901822
 21
-35.7867631771478
  0
LINE
  5
F3
100
AcDbEntity
  8
mx
  6
ByLayer
 62
  256
370
   -1
100
AcDbLine
 10
80.46635162089807
 20
4.487712437772826
 11
83.11064052400826
 21
-14.32738094150029
  0
LINE
  5
F4
100
AcDbEntity
  8
mx
  6
ByLayer
 62
  256
370
   -1
100
AcDbLine
 10
7.850267276058201
 20
-24.9045365161156
 11
83.11064052400826
 21
-14.32738094150029
  0
LINE
  5
F5
100
AcDbEntity
  8
0
  6
ByLayer
 62
  256
370
   -1
100
AcDbLine
 10
90.33974380255488
 20
2.321306959055358
 11
104.3397438025549
 21
2.321306959055358
  0
LINE
  5
F6
100
AcDbEntity
  8
0
  6
ByLayer
 62
  256
370
   -1
100
AcDbLine
 10
90.33974380255488
 20
-11.67869304094464
 11
104.3397438025549
 21
-11.67869304094464
  0
LINE
  5
F7
100
AcDbEntity
  8
0
  6
ByLayer
 62
  256
370
   -1
100
AcDbLine
 10
90.33974380255488
 20
2.321306959055358
 11
90.33974380255488
 21
-11.67869304094464
  0
LINE
  5
F8
100
AcDbEntity
  8
0
  6
ByLayer
 62
  256
370
   -1
100
AcDbLine
 10
104.3397438025549
 20
2.321306959055358
 11
104.3397438025549
 21
-11.67869304094464
  0
LINE
  5
F9
100
AcDbEntity
  8
mx
  6
ByLayer
 62
  256
370
   -1
100
AcDbLine
 10
83.08974380255488
 20
-14.17869304094464
 11
83.08974380255488
 21
4.821306959055358
  0
LINE
  5
FA
100
AcDbEntity
  8
mx
  6
ByLayer
 62
  256
370
   -1
100
AcDbLine
 10
83.08974380255488
 20
-14.17869304094464
 11
111.5897438025549
 21
-14.17869304094464
  0
LINE
  5
FB
100
AcDbEntity
  8
mx
  6
ByLayer
 62
  256
370
   -1
100
AcDbLine
 10
111.5897438025549
 20
-14.17869304094464
 11
111.5897438025549
 21
4.821306959055358
  0
LINE
  5
FC
100
AcDbEntity
  8
0
  6
ByLayer
 62
  256
370
   -1
100
AcDbLine
 10
90.81474380255486
 20
-16.67869304094464
 11
104.8147438025549
 21
-16.67869304094464
  0
LINE
  5
FD
100
AcDbEntity
  8
0
  6
ByLayer
 62
  256
370
   -1
100
AcDbLine
 10
104.8147438025549
 20
-16.67869304094464
 11
104.8147438025549
 21
-30.67869304094464
  0
LINE
  5
FE
100
AcDbEntity
  8
mx
  6
ByLayer
 62
  256
370
   -1
100
AcDbLine
 10
109.7110678358315
 20
-14.17869304094464
 11
109.7110678358314
 21
-33.17869304094464
  0
LINE
  5
FF
100
AcDbEntity
  8
mx
  6
ByLayer
 62
  256
370
   -1
100
AcDbLine
 10
85.96106783583146
 20
-14.17869304094463
 11
85.96106783583143
 21
-33.17869304094464
  0
LINE
  5
100
100
AcDbEntity
  8
mx
  6
ByLayer
 62
  256
370
   -1
100
AcDbLine
 10
85.96106783583143
 20
-33.17869304094464
 11
109.7110678358314
 21
-33.17869304094464
  0
LINE
  5
101
100
AcDbEntity
  8
0
  6
ByLayer
 62
  256
370
   -1
100
AcDbLine
 10
90.83606783583144
 20
-30.67869304094464
 11
104.8360678358314
 21
-30.67869304094464
  0
LINE
  5
102
100
AcDbEntity
  8
0
  6
ByLayer
 62
  256
370
   -1
100
AcDbLine
 10
90.83606783583144
 20
-16.67869304094464
 11
90.83606783583144
 21
-30.67869304094464
  0
LINE
  5
103
100
AcDbEntity
  8
mx
  6
ByLayer
 62
  256
370
   -1
100
AcDbLine
 10
79.88154712319414
 20
42.77897122143551
 11
82.52583602143551
 21
23.96387787680587
  0
LINE
  5
104
100
AcDbEntity
  8
mx
  6
ByLayer
 62
  256
370
   -1
100
AcDbLine
 10
-87.08055452475595
 20
25.1049248531798
 11
-7.116407987365761
 21
13.86669706056982
  0
LINE
  5
105
100
AcDbEntity
  8
mx
  6
ByLayer
 62
  256
370
   -1
100
AcDbLine
 10
-84.43626562319413
 20
43.92001822143552
 11
-87.08055452475595
 21
25.1049248531798
  0
LINE
  5
106
100
AcDbEntity
  8
mx
  6
ByLayer
 62
  256
370
   -1
100
AcDbLine
 10
-65.6211722785645
 20
41.27572932319414
 11
-68.26546118012629
 21
22.46063595493842
  0
LINE
  5
107
100
AcDbEntity
  8
mx
  6
ByLayer
 62
  256
370
   -1
100
AcDbLine
 10
-84.43626562651455
 20
43.92001819780948
 11
-9.175892378564491
 21
33.34286262319413
  0
LINE
  5
108
100
AcDbEntity
  8
0
  6
ByLayer
 62
  256
370
   -1
100
AcDbLine
 10
-103.6110701247559
 20
40.6677943
 11
-89.61107012475593
 21
40.6677943
  0
LINE
  5
109
100
AcDbEntity
  8
0
  6
ByLayer
 62
  256
370
   -1
100
AcDbLine
 10
-103.6110701247559
 20
26.6677943
 11
-89.61107012475593
 21
26.6677943
  0
LINE
  5
10A
100
AcDbEntity
  8
0
  6
ByLayer
 62
  256
370
   -1
100
AcDbLine
 10
-103.6110701247559
 20
40.6677943
 11
-103.6110701247559
 21
26.6677943
  0
LINE
  5
10B
100
AcDbEntity
  8
0
  6
ByLayer
 62
  256
370
   -1
100
AcDbLine
 10
-89.61107012475593
 20
40.6677943
 11
-89.61107012475593
 21
26.6677943
  0
LINE
  5
10C
100
AcDbEntity
  8
0
  6
ByLayer
 62
  256
370
   -1
100
AcDbLine
 10
-103.8960701247559
 20
21.6677943
 11
-89.89607012475594
 21
21.6677943
  0
LINE
  5
10D
100
AcDbEntity
  8
0
  6
ByLayer
 62
  256
370
   -1
100
AcDbLine
 10
-103.8960701247559
 20
7.667794299999997
 11
-89.89607012475594
 21
7.667794299999997
  0
LINE
  5
10E
100
AcDbEntity
  8
0
  6
ByLayer
 62
  256
370
   -1
100
AcDbLine
 10
-103.8960701247559
 20
21.6677943
 11
-103.8960701247559
 21
7.667794299999997
  0
LINE
  5
10F
100
AcDbEntity
  8
0
  6
ByLayer
 62
  256
370
   -1
100
AcDbLine
 10
-89.89607012475594
 20
21.6677943
 11
-89.89607012475594
 21
7.667794299999997
  0
LINE
  5
110
100
AcDbEntity
  8
mx
  6
ByLayer
 62
  256
370
   -1
100
AcDbLine
 10
-108.7710701247559
 20
4.654660981828608
 11
-108.771070124756
 21
24.1677943
  0
LINE
  5
111
100
AcDbEntity
  8
mx
  6
ByLayer
 62
  256
370
   -1
100
AcDbLine
 10
-108.771070124756
 20
24.1677943
 11
-85.02107012475594
 21
24.1677943
  0
LINE
  5
112
100
AcDbEntity
  8
mx
  6
ByLayer
 62
  256
370
   -1
100
AcDbLine
 10
-85.02107012475594
 20
4.654660981828608
 11
-85.02107012475594
 21
24.1677943
  0
LINE
  5
113
100
AcDbEntity
  8
mx
  6
ByLayer
 62
  256
370
   -1
100
AcDbLine
 10
-106.1110701247559
 20
43.1677943
 11
-87.11107012475593
 21
43.16779429999999
  0
LINE
  5
114
100
AcDbEntity
  8
mx
  6
ByLayer
 62
  256
370
   -1
100
AcDbLine
 10
-106.1110701247559
 20
43.1677943
 11
-106.1110701247559
 21
24.1677943
  0
LINE
  5
115
100
AcDbEntity
  8
mx
  6
ByLayer
 62
  256
370
   -1
100
AcDbLine
 10
-87.11107012475593
 20
43.16779429999999
 11
-87.11107012475593
 21
24.1677943
  0
LINE
  5
116
100
AcDbEntity
  8
mx
  6
ByLayer
 62
  256
370
   -1
100
AcDbLine
 10
87.22960934040819
 20
24.62495009895106
 11
89.8738982214355
 21
5.80985687680586
  0
LINE
  5
117
100
AcDbEntity
  8
mx
  6
ByLayer
 62
  256
370
   -1
100
AcDbLine
 10
106.1829283804297
 20
43.62495009895106
 11
82.43292838042967
 21
43.62495009895106
  0
LINE
  5
118
100
AcDbEntity
  8
mx
  6
ByLayer
 62
  256
370
   -1
100
AcDbLine
 10
106.1829283804297
 20
43.62495009895106
 11
106.1829283804297
 21
24.62495009895106
  0
LINE
  5
119
100
AcDbEntity
  8
mx
  6
ByLayer
 62
  256
370
   -1
100
AcDbLine
 10
82.43292838042967
 20
43.62495009895106
 11
82.43292838042967
 21
24.62495009895107
  0
LINE
  5
11A
100
AcDbEntity
  8
mx
  6
ByLayer
 62
  256
370
   -1
100
AcDbLine
 10
108.8738982214355
 20
24.62495009895106
 11
82.43292838042967
 21
24.62495009895107
  0
LINE
  5
11B
100
AcDbEntity
  8
mx
  6
ByLayer
 62
  256
370
   -1
100
AcDbLine
 10
89.8738982214355
 20
4.821306959055358
 11
89.8738982214355
 21
24.62495009895106
  0
LINE
  5
11C
100
AcDbEntity
  8
mx
  6
ByLayer
 62
  256
370
   -1
100
AcDbLine
 10
108.8738982214355
 20
4.821306959055358
 11
108.8738982214355
 21
24.62495009895106
  0
LINE
  5
11D
100
AcDbEntity
  8
mx
  6
ByLayer
 62
  256
370
   -1
100
AcDbLine
 10
83.08974380255488
 20
4.821306959055358
 11
111.5897438025549
 21
4.821306959055358
  0
LINE
  5
11E
100
AcDbEntity
  8
mx
  6
ByLayer
 62
  256
370
   -1
100
AcDbLine
 10
5.205978372948
 20
-6.08944313684248
 11
89.8738982214355
 21
5.80985687680586
  0
LINE
  5
11F
100
AcDbEntity
  8
mx
  6
ByLayer
 62
  256
370
   -1
100
AcDbLine
 10
5.205978372948
 20
-6.08944313684248
 11
7.850267276058201
 21
-24.9045365161156
  0
LINE
  5
120
100
AcDbEntity
  8
mx
  6
ByLayer
 62
  256
370
   -1
100
AcDbLine
 10
7.26546277348544
 20
13.38672230219052
 11
87.22960934040819
 21
24.62495009895106
  0
LINE
  5
121
100
AcDbEntity
  8
mx
  6
ByLayer
 62
  256
370
   -1
100
AcDbLine
 10
4.621173875244051
 20
32.20181564682023
 11
79.88154712319414
 21
42.77897122143551
  0
LINE
  5
122
100
AcDbEntity
  8
mx
  6
ByLayer
 62
  256
370
   -1
100
AcDbLine
 10
4.621173875244051
 20
32.20181564682023
 11
7.26546277348544
 21
13.38672230219052
  0
LINE
  5
123
100
AcDbEntity
  8
0
  6
ByLayer
 62
  256
370
   -1
100
AcDbLine
 10
87.28660434715307
 20
41.12495009895106
 11
101.2866043471531
 21
41.12495009895106
  0
LINE
  5
124
100
AcDbEntity
  8
0
  6
ByLayer
 62
  256
370
   -1
100
AcDbLine
 10
101.2866043471531
 20
41.12495009895106
 11
101.2866043471531
 21
27.12495009895106
  0
LINE
  5
125
100
AcDbEntity
  8
0
  6
ByLayer
 62
  256
370
   -1
100
AcDbLine
 10
87.30792838042966
 20
27.12495009895106
 11
101.3079283804297
 21
27.12495009895106
  0
LINE
  5
126
100
AcDbEntity
  8
0
  6
ByLayer
 62
  256
370
   -1
100
AcDbLine
 10
87.30792838042966
 20
41.12495009895106
 11
87.30792838042966
 21
27.12495009895106
  0
LINE
  5
127
100
AcDbEntity
  8
0
  6
ByLayer
 62
  256
370
   -1
100
AcDbLine
 10
92.3738982214355
 20
22.12495009895106
 11
106.3738982214355
 21
22.12495009895106
  0
LINE
  5
128
100
AcDbEntity
  8
0
  6
ByLayer
 62
  256
370
   -1
100
AcDbLine
 10
92.3738982214355
 20
8.124950098951061
 11
106.3738982214355
 21
8.124950098951061
  0
LINE
  5
129
100
AcDbEntity
  8
0
  6
ByLayer
 62
  256
370
   -1
100
AcDbLine
 10
92.3738982214355
 20
22.12495009895106
 11
92.3738982214355
 21
8.124950098951061
  0
LINE
  5
12A
100
AcDbEntity
  8
0
  6
ByLayer
 62
  256
370
   -1
100
AcDbLine
 10
106.3738982214355
 20
22.12495009895106
 11
106.3738982214355
 21
8.124950098951061
  0
LINE
  5
12B
100
AcDbEntity
  8
mx
  6
ByLayer
 62
  256
370
   -1
100
AcDbLine
 10
-46.80607896897182
 20
38.6314404298769
 11
-49.45036787053362
 21
19.81634706162118
  0
LINE
  5
12C
100
AcDbEntity
  8
mx
  6
ByLayer
 62
  256
370
   -1
100
AcDbLine
 10
-27.99098565937915
 20
35.98715153655967
 11
-30.63527456094094
 21
17.17205816830393
  0
LINE
  5
12D
100
AcDbEntity
  8
mx
  6
ByLayer
 62
  256
370
   -1
100
AcDbLine
 10
-25.93150129695844
 20
16.51098595388709
 11
-28.57579018639854
 21
-2.304107328118255
  0
LINE
  5
12E
100
AcDbEntity
  8
mx
  6
ByLayer
 62
  256
370
   -1
100
AcDbLine
 10
-44.74659460655111
 20
19.15527484720435
 11
-47.39088349599122
 21
0.3401815651990061
  0
LINE
  5
12F
100
AcDbEntity
  8
mx
  6
ByLayer
 62
  256
370
   -1
100
AcDbLine
 10
-63.56168791614379
 20
21.79956374052161
 11
-66.2059768055839
 21
2.984470458516267
  0
LINE
  5
130
100
AcDbEntity
  8
mx
  6
ByLayer
 62
  256
370
   -1
100
AcDbLine
 10
-19.16824358586111
 20
-3.626251767151292
 11
-21.81253247417974
 21
-22.44134504117692
  0
LINE
  5
131
100
AcDbEntity
  8
mx
  6
ByLayer
 62
  256
370
   -1
100
AcDbLine
 10
-37.98333689545378
 20
-0.9819628738340311
 11
-40.62762578377242
 21
-19.79705614785966
  0
LINE
  5
132
100
AcDbEntity
  8
mx
  6
ByLayer
 62
  256
370
   -1
100
AcDbLine
 10
-56.79843020504646
 20
1.66232601948323
 11
-59.44271909336509
 21
-17.1527672545424
  0
LINE
  5
133
100
AcDbEntity
  8
mx
  6
ByLayer
 62
  256
370
   -1
100
AcDbLine
 10
24.02107168254068
 20
-3.44515424352523
 11
26.66536058565088
 21
-22.26024762279835
  0
LINE
  5
134
100
AcDbEntity
  8
mx
  6
ByLayer
 62
  256
370
   -1
100
AcDbLine
 10
42.83616499213335
 20
-0.8008653502079808
 11
45.48045389524356
 21
-19.6159587294811
  0
LINE
  5
135
100
AcDbEntity
  8
mx
  6
ByLayer
 62
  256
370
   -1
100
AcDbLine
 10
61.65125830172602
 20
1.843423543109269
 11
64.29554720483623
 21
-16.97166983616385
  0
LINE
  5
136
100
AcDbEntity
  8
mx
  6
ByLayer
 62
  256
370
   -1
100
AcDbLine
 10
30.78432939158936
 20
16.69208339209002
 11
33.42861828639855
 21
-2.123009928118254
  0
LINE
  5
137
100
AcDbEntity
  8
mx
  6
ByLayer
 62
  256
370
   -1
100
AcDbLine
 10
49.59942270118203
 20
19.33637228540729
 11
52.24371159599123
 21
0.5212789651990128
  0
LINE
  5
138
100
AcDbEntity
  8
mx
  6
ByLayer
 62
  256
370
   -1
100
AcDbLine
 10
68.4145160107747
 20
21.98066117872456
 11
71.0588049055839
 21
3.165567858516279
  0
LINE
  5
139
100
AcDbEntity
  8
mx
  6
ByLayer
 62
  256
370
   -1
100
AcDbLine
 10
61.06645381360146
 20
40.13468232811827
 11
63.71074271184283
 21
21.31958898348863
  0
LINE
  5
13A
100
AcDbEntity
  8
mx
  6
ByLayer
 62
  256
370
   -1
100
AcDbLine
 10
42.25136050400879
 20
37.49039343480102
 11
44.89564940225016
 21
18.67530009017138
  0
LINE
  5
13B
100
AcDbEntity
  8
mx
  6
ByLayer
 62
  256
370
   -1
100
AcDbLine
 10
23.43626719441611
 20
34.84610454148378
 11
26.08055609265748
 21
16.03101119685413
  0
LINE
  5
13C
100
AcDbEntity
  8
mx
  6
ByLayer
 62
  256
370
   -1
100
AcDbLine
 10
-83.93123850096428
 20
-14.46030497580662
 11
-65.02926932105809
 21
-16.38788405897725
  0
LINE
  5
13D
100
AcDbEntity
  8
mx
  6
ByLayer
 62
  256
370
   -1
100
AcDbLine
 10
-85.85881758413493
 20
-33.3622741557128
 11
-83.93123850096428
 21
-14.46030497580662
  0
LINE
  5
13E
100
AcDbEntity
  8
mx
  6
ByLayer
 62
  256
370
   -1
100
AcDbLine
 10
-66.95684840422872
 20
-35.28985323888343
 11
-65.02926932105809
 21
-16.38788405897725
  0
LINE
  5
13F
100
AcDbEntity
  8
mx
  6
ByLayer
 62
  256
370
   -1
100
AcDbLine
 10
-85.85881758413493
 20
-33.3622741557128
 11
-66.95684840422872
 21
-35.28985323888343
  0
LINE
  5
140
100
AcDbEntity
  8
mx
  6
ByLayer
 62
  256
370
   -1
100
AcDbLine
 10
64.45750267771284
 20
-16.94935515987845
 11
83.28138075893185
 21
-14.36834489577597
  0
LINE
  5
141
100
AcDbEntity
  8
mx
  6
ByLayer
 62
  256
370
   -1
100
AcDbLine
 10
67.03851294181531
 20
-35.77323324109747
 11
64.45750267771284
 21
-16.94935515987845
  0
LINE
  5
142
100
AcDbEntity
  8
mx
  6
ByLayer
 62
  256
370
   -1
100
AcDbLine
 10
85.86239102303432
 20
-33.19222297699498
 11
83.28138075893185
 21
-14.36834489577597
  0
LINE
  5
143
100
AcDbEntity
  8
mx
  6
ByLayer
 62
  256
370
   -1
100
AcDbLine
 10
67.03851294181531
 20
-35.77323324109747
 11
85.86239102303432
 21
-33.19222297699498
  0
LINE
  5
144
100
AcDbEntity
  8
0
  6
ByLayer
 62
  256
370
   -1
100
AcDbLine
 10
-83.11808754951956
 20
-31.12880177456339
 11
-81.69776611981487
 21
-17.20103501042199
  0
LINE
  5
145
100
AcDbEntity
  8
0
  6
ByLayer
 62
  256
370
   -1
100
AcDbLine
 10
-83.11808754951956
 20
-31.12880177456339
 11
-69.19032078537813
 21
-32.54912320426806
  0
LINE
  5
146
100
AcDbEntity
  8
0
  6
ByLayer
 62
  256
370
   -1
100
AcDbLine
 10
-81.69776611981487
 20
-17.20103501042199
 11
-67.76999935567345
 21
-18.62135644012667
  0
LINE
  5
147
100
AcDbEntity
  8
0
  6
ByLayer
 62
  256
370
   -1
100
AcDbLine
 10
-69.19032078537813
 20
-32.54912320426806
 11
-67.76999935567345
 21
-18.62135644012667
  0
LINE
  5
148
100
AcDbEntity
  8
0
  6
ByLayer
 62
  256
370
   -1
100
AcDbLine
 10
67.27393535472882
 20
-19.08657460949905
 11
81.14416130931124
 21
-17.18477757279195
  0
LINE
  5
149
100
AcDbEntity
  8
0
  6
ByLayer
 62
  256
370
   -1
100
AcDbLine
 10
83.04595834601834
 20
-31.05500352737439
 11
81.14416130931124
 21
-17.18477757279195
  0
LINE
  5
14A
100
AcDbEntity
  8
0
  6
ByLayer
 62
  256
370
   -1
100
AcDbLine
 10
69.17573239143591
 20
-32.95680056408148
 11
67.27393535472882
 21
-19.08657460949905
  0
LINE
  5
14B
100
AcDbEntity
  8
0
  6
ByLayer
 62
  256
370
   -1
100
AcDbLine
 10
69.17573239143591
 20
-32.95680056408148
 11
83.04595834601834
 21
-31.05500352737439
  0
ARC
  5
14C
100
AcDbEntity
  8
edge
  6
ByLayer
 62
  256
370
   -1
100
AcDbCircle
 10
108.5897438025549
 20
40.92001822143552
 40
3
100
AcDbArc
 50
0
 51
90
  0
ARC
  5
14D
100
AcDbEntity
  8
edge
  6
ByLayer
 62
  256
370
   -1
100
AcDbCircle
 10
-108.4848846735011
 20
40.92001822143552
 40
3
100
AcDbArc
 50
90
 51
180
  0
CIRCLE
  5
14E
100
AcDbEntity
  8
percage
  6
ByLayer
 62
  256
370
   -1
100
AcDbCircle
 10
108.5897438025549
 20
40.92001822143552
 40
1.1
  0
CIRCLE
  5
14F
100
AcDbEntity
  8
percage
  6
ByLayer
 62
  256
370
   -1
100
AcDbCircle
 10
-108.4848846735011
 20
40.92001822143552
 40
1.1
  0
CIRCLE
  5
150
100
AcDbEntity
  8
percage
  6
ByLayer
 62
  256
370
   -1
100
AcDbCircle
 10
2.426414038349786
 20
-24.9950852277483
 40
1.1
  0
LINE
  5
151
100
AcDbEntity
  8
noname
  6
ByLayer
 62
  256
370
   -1
100
AcDbLine
 10
-103.6110701247559
 20
40.6677943
 11
-89.61107012475593
 21
26.6677943
  0
LINE
  5
152
100
AcDbEntity
  8
noname
  6
ByLayer
 62
  256
370
   -1
100
AcDbLine
 10
-82.3085282
 20
41.0964153
 11
-70.39319860000001
 21
25.2842389
  0
LINE
  5
153
100
AcDbEntity
  8
noname
  6
ByLayer
 62
  256
370
   -1
100
AcDbLine
 10
-63.4934349
 20
38.4521264
 11
-51.5781053
 21
22.63995
  0
LINE
  5
154
100
AcDbEntity
  8
noname
  6
ByLayer
 62
  256
370
   -1
100
AcDbLine
 10
-44.6783416
 20
35.8078375
 11
-32.76301200000001
 21
19.9956611
  0
LINE
  5
155
100
AcDbEntity
  8
noname
  6
ByLayer
 62
  256
370
   -1
100
AcDbLine
 10
-25.8632483
 20
33.1635486
 11
-13.94791870000001
 21
17.3513722
  0
LINE
  5
156
100
AcDbEntity
  8
noname
  6
ByLayer
 62
  256
370
   -1
100
AcDbLine
 10
-80.24904380000001
 20
21.6202498
 11
-68.33371420000002
 21
5.808073400000001
  0
LINE
  5
157
100
AcDbEntity
  8
noname
  6
ByLayer
 62
  256
370
   -1
100
AcDbLine
 10
-61.4339505
 20
18.9759609
 11
-49.51862090000001
 21
3.163784500000002
  0
LINE
  5
158
100
AcDbEntity
  8
noname
  6
ByLayer
 62
  256
370
   -1
100
AcDbLine
 10
-42.61885720000001
 20
16.331672
 11
-30.70352760000002
 21
0.5194956000000026
  0
LINE
  5
159
100
AcDbEntity
  8
noname
  6
ByLayer
 62
  256
370
   -1
100
AcDbLine
 10
-23.80376390000001
 20
13.6873831
 11
-11.88843430000002
 21
-2.124793299999999
  0
LINE
  5
15A
100
AcDbEntity
  8
noname
  6
ByLayer
 62
  256
370
   -1
100
AcDbLine
 10
-73.4857861
 20
1.483012000000002
 11
-61.57045650000001
 21
-14.3291644
  0
LINE
  5
15B
100
AcDbEntity
  8
noname
  6
ByLayer
 62
  256
370
   -1
100
AcDbLine
 10
-54.6706928
 20
-1.161276899999997
 11
-42.75536320000001
 21
-16.9734533
  0
LINE
  5
15C
100
AcDbEntity
  8
noname
  6
ByLayer
 62
  256
370
   -1
100
AcDbLine
 10
-62.018755
 20
-19.315298
 11
-50.10342540000001
 21
-35.1274744
  0
LINE
  5
15D
100
AcDbEntity
  8
noname
  6
ByLayer
 62
  256
370
   -1
100
AcDbLine
 10
-31.4442284
 20
-23.61226740000001
 11
-19.52889880000001
 21
-39.42444380000001
  0
LINE
  5
15E
100
AcDbEntity
  8
noname
  6
ByLayer
 62
  256
370
   -1
100
AcDbLine
 10
-35.8555995
 20
-3.805565800000004
 11
-23.9402699
 21
-19.6177422
  0
LINE
  5
15F
100
AcDbEntity
  8
noname
  6
ByLayer
 62
  256
370
   -1
100
AcDbLine
 10
-17.0405062
 20
-6.449854700000003
 11
-5.125176600000007
 21
-22.2620311
  0
LINE
  5
160
100
AcDbEntity
  8
noname
  6
ByLayer
 62
  256
370
   -1
100
AcDbLine
 10
-103.8960701247559
 20
21.6677943
 11
-89.89607012475592
 21
7.667794300000008
  0
LINE
  5
161
100
AcDbEntity
  8
noname
  6
ByLayer
 62
  256
370
   -1
100
AcDbLine
 10
-101.8598846735011
 20
2.154660981828608
 11
-87.85988467350113
 21
-11.84533901817139
  0
LINE
  5
162
100
AcDbEntity
  8
noname
  6
ByLayer
 62
  256
370
   -1
100
AcDbLine
 10
-104.8998846735011
 20
-16.84533901817139
 11
-90.89988467350113
 21
-30.84533901817138
  0
LINE
  5
163
100
AcDbEntity
  8
noname
  6
ByLayer
 62
  256
370
   -1
100
AcDbLine
 10
87.30792838042966
 20
41.12495009895106
 11
101.3079283804296
 21
27.12495009895107
  0
LINE
  5
164
100
AcDbEntity
  8
noname
  6
ByLayer
 62
  256
370
   -1
100
AcDbLine
 10
92.3738982214355
 20
22.12495009895106
 11
106.3738982214355
 21
8.124950098951068
  0
LINE
  5
165
100
AcDbEntity
  8
noname
  6
ByLayer
 62
  256
370
   -1
100
AcDbLine
 10
90.33974380255488
 20
2.321306959055358
 11
104.3397438025548
 21
-11.67869304094464
  0
LINE
  5
166
100
AcDbEntity
  8
noname
  6
ByLayer
 62
  256
370
   -1
100
AcDbLine
 10
90.83606783583144
 20
-16.67869304094464
 11
104.8360678358314
 21
-30.67869304094463
  0
LINE
  5
167
100
AcDbEntity
  8
noname
  6
ByLayer
 62
  256
370
   -1
100
AcDbLine
 10
20.0814168
 20
-25.71012949999999
 11
35.8935932
 21
-37.6254591
  0
LINE
  5
168
100
AcDbEntity
  8
noname
  6
ByLayer
 62
  256
370
   -1
100
AcDbLine
 10
8.029581300000004
 20
-8.217180599999999
 11
23.8417577
 21
-20.13251020000001
  0
LINE
  5
169
100
AcDbEntity
  8
noname
  6
ByLayer
 62
  256
370
   -1
100
AcDbLine
 10
26.84467459999999
 20
-5.5728917
 11
42.65685099999999
 21
-17.48822130000001
  0
LINE
  5
16A
100
AcDbEntity
  8
noname
  6
ByLayer
 62
  256
370
   -1
100
AcDbLine
 10
45.65976789999999
 20
-2.9286028
 11
61.47194429999999
 21
-14.84393240000001
  0
LINE
  5
16B
100
AcDbEntity
  8
noname
  6
ByLayer
 62
  256
370
   -1
100
AcDbLine
 10
64.47486119999999
 20
-0.2843139000000008
 11
80.28703759999999
 21
-12.19964350000001
  0
LINE
  5
16C
100
AcDbEntity
  8
noname
  6
ByLayer
 62
  256
370
   -1
100
AcDbLine
 10
48.30405680000001
 20
-21.74369609999999
 11
64.11623320000001
 21
-33.6590257
  0
LINE
  5
16D
100
AcDbEntity
  8
noname
  6
ByLayer
 62
  256
370
   -1
100
AcDbLine
 10
14.792839
 20
11.9200571
 11
30.6050154
 21
0.004727499999988893
  0
LINE
  5
16E
100
AcDbEntity
  8
noname
  6
ByLayer
 62
  256
370
   -1
100
AcDbLine
 10
33.60793229999999
 20
14.564346
 11
49.42010869999999
 21
2.64901639999999
  0
LINE
  5
16F
100
AcDbEntity
  8
noname
  6
ByLayer
 62
  256
370
   -1
100
AcDbLine
 10
52.42302559999999
 20
17.208635
 11
68.23520199999999
 21
5.293305399999991
  0
LINE
  5
170
100
AcDbEntity
  8
noname
  6
ByLayer
 62
  256
370
   -1
100
AcDbLine
 10
71.23811889999999
 20
19.8529239
 11
87.05029529999999
 21
7.93759429999999
  0
LINE
  5
171
100
AcDbEntity
  8
noname
  6
ByLayer
 62
  256
370
   -1
100
AcDbLine
 10
63.8900567
 20
38.0069449
 11
79.7022331
 21
26.09161529999999
  0
LINE
  5
172
100
AcDbEntity
  8
noname
  6
ByLayer
 62
  256
370
   -1
100
AcDbLine
 10
45.0749634
 20
35.362656
 11
60.8871398
 21
23.44732639999999
  0
LINE
  5
173
100
AcDbEntity
  8
noname
  6
ByLayer
 62
  256
370
   -1
100
AcDbLine
 10
26.2598701
 20
32.7183671
 11
42.0720465
 21
20.80303749999999
  0
LINE
  5
174
100
AcDbEntity
  8
noname
  6
ByLayer
 62
  256
370
   -1
100
AcDbLine
 10
7.4447768
 20
30.0740782
 11
23.2569532
 21
18.15874859999999
  0
LINE
  5
175
100
AcDbEntity
  8
noname
  6
ByLayer
 62
  256
370
   -1
100
AcDbLine
 10
-81.69776611981487
 20
-17.20103501042199
 11
-69.19032078537813
 21
-32.54912320426806
  0
LINE
  5
176
100
AcDbEntity
  8
noname
  6
ByLayer
 62
  256
370
   -1
100
AcDbLine
 10
67.27393535472882
 20
-19.08657460949905
 11
83.04595834601834
 21
-31.05500352737439
  0
ARC
  5
177
100
AcDbEntity
  8
edge
  6
ByLayer
 62
  256
370
   -1
100
AcDbCircle
 10
1.782126341112871
 20
133.7953983458411
 40
100
100
AcDbArc
 50
262.0000000758986
 51
277.9999999241014
  0
LINE
  5
178
100
AcDbEntity
  8
edge
  6
ByLayer
 62
  256
370
   -1
100
AcDbLine
 10
87.80790300258877
 20
43.92001822143552
 11
108.5897438025549
 21
43.92001822143552
  0
LINE
  5
179
100
AcDbEntity
  8
edge
  6
ByLayer
 62
  256
370
   -1
100
AcDbLine
 10
15.69943630594049
 20
34.76859145324804
 11
73.89059303776115
 21
42.94682511402853
  0
ARC
  5
17A
100
AcDbEntity
  8
edge
  6
ByLayer
 62
  256
370
   -1
100
AcDbCircle
 10
87.80790300258877
 20
-56.07998177856448
 40
100
100
AcDbArc
 50
90
 51
97.99999992410137
  0
LINE
  5
17B
100
AcDbEntity
  8
edge
  6
ByLayer
 62
  256
370
   -1
100
AcDbLine
 10
-70.3263403555347
 20
42.94682511402854
 11
-12.13518362371484
 21
34.76859145324811
  0
LINE
  5
17C
100
AcDbEntity
  8
edge
  6
ByLayer
 62
  256
370
   -1
100
AcDbLine
 10
-108.4848846735011
 20
43.92001822143552
 11
-84.24365032036241
 21
43.92001822143552
  0
ARC
  5
17D
100
AcDbEntity
  8
edge
  6
ByLayer
 62
  256
370
   -1
100
AcDbCircle
 10
-84.24365032036241
 20
-56.07998177856448
 40
100
100
AcDbArc
 50
82.00000007589858
 51
90
  0
LINE
  5
17E
100
AcDbEntity
  8
edge
  6
ByLayer
 62
  256
370
   -1
100
AcDbLine
 10
111.5897438025549
 20
-31.17869304094464
 11
111.5897438025549
 21
40.92001822143552
  0
ARC
  5
17F
100
AcDbEntity
  8
edge
  6
ByLayer
 62
  256
370
   -1
100
AcDbCircle
 10
108.5897438025549
 20
-31.17869304094464
 40
3
100
AcDbArc
 50
270
 51
0
  0
LINE
  5
180
100
AcDbEntity
  8
edge
  6
ByLayer
 62
  256
370
   -1
100
AcDbLine
 10
-111.4848846735011
 20
40.92001822143552
 11
-111.4848846735011
 21
-31.34533901817139
  0
ARC
  5
181
100
AcDbEntity
  8
edge
  6
ByLayer
 62
  256
370
   -1
100
AcDbCircle
 10
-108.4848846735011
 20
-31.34533901817139
 40
3
100
AcDbArc
 50
180.0000000000001
 51
270
  0
LINE
  5
182
100
AcDbEntity
  8
edge
  6
ByLayer
 62
  256
370
   -1
100
AcDbLine
 10
-108.4848846735011
 20
-34.34533901817139
 11
-92.52440720924233
 21
-34.34533901817139
  0
ARC
  5
183
100
AcDbEntity
  8
edge
  6
ByLayer
 62
  256
370
   -1
100
AcDbCircle
 10
-92.52440720924233
 20
-134.3453390181714
 40
100
100
AcDbArc
 50
82.56255688567585
 51
90
  0
LINE
  5
184
100
AcDbEntity
  8
edge
  6
ByLayer
 62
  256
370
   -1
100
AcDbLine
 10
92.91453677068569
 20
-34.17869304094464
 11
108.5897438025549
 21
-34.17869304094464
  0
ARC
  5
185
100
AcDbEntity
  8
edge
  6
ByLayer
 62
  256
370
   -1
100
AcDbCircle
 10
92.91453677068569
 20
-134.1786930409446
 40
100
100
AcDbArc
 50
90
 51
97.95528348963263
  0
LINE
  5
186
100
AcDbEntity
  8
edge
  6
ByLayer
 62
  256
370
   -1
100
AcDbLine
 10
79.07451641005818
 20
-35.14105455729833
 11
16.12193982664299
 21
-43.93836591294315
  0
ARC
  5
187
100
AcDbEntity
  8
edge
  6
ByLayer
 62
  256
370
   -1
100
AcDbCircle
 10
2.281919466015495
 20
55.09927257070313
 40
100
100
AcDbArc
 50
270
 51
277.9552834896326
  0
LINE
  5
188
100
AcDbEntity
  8
edge
  6
ByLayer
 62
  256
370
   -1
100
AcDbLine
 10
1.332873131180381
 20
-44.90072742929688
 11
2.28191946601545
 21
-44.90072742929688
  0
LINE
  5
189
100
AcDbEntity
  8
edge
  6
ByLayer
 62
  256
370
   -1
100
AcDbLine
 10
-79.5800440378423
 20
-35.1866608196047
 11
-11.61149004021956
 21
-44.05940562786355
  0
ARC
  5
18A
100
AcDbEntity
  8
edge
  6
ByLayer
 62
  256
370
   -1
100
AcDbCircle
 10
1.332873131180463
 20
55.09927257070312
 40
100
100
AcDbArc
 50
262.5625568856759
 51
269.9999999999999
  0
CIRCLE
  5
18B
100
AcDbEntity
  8
percage
  6
ByLayer
 62
  256
370
   -1
100
AcDbCircle
 10
108.5897438025549
 20
-31.17869304094464
 40
1.1
  0
CIRCLE
  5
18C
100
AcDbEntity
  8
percage
  6
ByLayer
 62
  256
370
   -1
100
AcDbCircle
 10
-108.4848846735011
 20
-31.34533901817139
 40
1.1
  0
ARC
  5
18D
100
AcDbEntity
  8
ext1
  6
ByLayer
 62
  256
370
   -1
100
AcDbCircle
 10
108.5897438025549
 20
40.92001822143552
 40
4
100
AcDbArc
 50
0
 51
90
  0
LINE
  5
18E
100
AcDbEntity
  8
ext1
  6
ByLayer
 62
  256
370
   -1
100
AcDbLine
 10
87.80790300258877
 20
44.92001822143552
 11
108.5897438025549
 21
44.92001822143552
  0
LINE
  5
18F
100
AcDbEntity
  8
ext1
  6
ByLayer
 62
  256
370
   -1
100
AcDbLine
 10
112.5897438025549
 20
-31.17869304094464
 11
112.5897438025549
 21
40.92001822143552
  0
ARC
  5
190
100
AcDbEntity
  8
ext1
  6
ByLayer
 62
  256
370
   -1
100
AcDbCircle
 10
108.5897438025549
 20
-31.17869304094464
 40
4
100
AcDbArc
 50
270
 51
0
  0
LINE
  5
191
100
AcDbEntity
  8
ext1
  6
ByLayer
 62
  256
370
   -1
100
AcDbLine
 10
92.91453677068569
 20
-35.17869304094464
 11
108.5897438025549
 21
-35.17869304094464
  0
ARC
  5
192
100
AcDbEntity
  8
ext1
  6
ByLayer
 62
  256
370
   -1
100
AcDbCircle
 10
92.91453677068569
 20
-134.1786930409446
 40
99
100
AcDbArc
 50
90
 51
97.95528348963263
  0
LINE
  5
193
100
AcDbEntity
  8
ext1
  6
ByLayer
 62
  256
370
   -1
100
AcDbLine
 10
79.21291661366446
 20
-36.13143094213479
 11
16.26034003024927
 21
-44.92874229777962
  0
ARC
  5
194
100
AcDbEntity
  8
ext1
  6
ByLayer
 62
  256
370
   -1
100
AcDbCircle
 10
2.281919466015495
 20
55.09927257070313
 40
101
100
AcDbArc
 50
270
 51
277.9552834896326
  0
ARC
  5
195
100
AcDbEntity
  8
ext1
  6
ByLayer
 62
  256
370
   -1
100
AcDbCircle
 10
1.332873131180463
 20
55.09927257070312
 40
101
100
AcDbArc
 50
262.5625568856759
 51
269.9999999999999
  0
LINE
  5
196
100
AcDbEntity
  8
ext1
  6
ByLayer
 62
  256
370
   -1
100
AcDbLine
 10
1.33287313118038
 20
-45.90072742929688
 11
2.28191946601545
 21
-45.90072742929688
  0
LINE
  5
197
100
AcDbEntity
  8
ext1
  6
ByLayer
 62
  256
370
   -1
100
AcDbLine
 10
-79.7094876695563
 20
-36.17824760159037
 11
-11.74093367193356
 21
-45.05099240984921
  0
LINE
  5
198
100
AcDbEntity
  8
ext1
  6
ByLayer
 62
  256
370
   -1
100
AcDbLine
 10
-108.4848846735011
 20
-35.34533901817139
 11
-92.52440720924233
 21
-35.34533901817139
  0
ARC
  5
199
100
AcDbEntity
  8
ext1
  6
ByLayer
 62
  256
370
   -1
100
AcDbCircle
 10
-92.52440720924233
 20
-134.3453390181714
 40
99
100
AcDbArc
 50
82.56255688567585
 51
90
  0
ARC
  5
19A
100
AcDbEntity
  8
ext1
  6
ByLayer
 62
  256
370
   -1
100
AcDbCircle
 10
-108.4848846735011
 20
-31.34533901817139
 40
4
100
AcDbArc
 50
180.0000000000001
 51
270
  0
LINE
  5
19B
100
AcDbEntity
  8
ext1
  6
ByLayer
 62
  256
370
   -1
100
AcDbLine
 10
-112.4848846735011
 20
40.92001822143552
 11
-112.4848846735011
 21
-31.34533901817139
  0
ARC
  5
19C
100
AcDbEntity
  8
ext1
  6
ByLayer
 62
  256
370
   -1
100
AcDbCircle
 10
-108.4848846735011
 20
40.92001822143552
 40
4
100
AcDbArc
 50
90
 51
180
  0
LINE
  5
19D
100
AcDbEntity
  8
ext1
  6
ByLayer
 62
  256
370
   -1
100
AcDbLine
 10
-108.4848846735011
 20
44.92001822143552
 11
-84.24365032036241
 21
44.92001822143552
  0
ARC
  5
19E
100
AcDbEntity
  8
ext1
  6
ByLayer
 62
  256
370
   -1
100
AcDbCircle
 10
-84.24365032036241
 20
-56.07998177856448
 40
101
100
AcDbArc
 50
82.00000007589858
 51
90
  0
LINE
  5
19F
100
AcDbEntity
  8
ext1
  6
ByLayer
 62
  256
370
   -1
100
AcDbLine
 10
-70.18716725588642
 20
43.93709318295447
 11
-11.99601052406656
 21
35.75885952217404
  0
ARC
  5
1A0
100
AcDbEntity
  8
ext1
  6
ByLayer
 62
  256
370
   -1
100
AcDbCircle
 10
1.782126341112871
 20
133.7953983458411
 40
99
100
AcDbArc
 50
262.0000000758986
 51
277.9999999241014
  0
LINE
  5
1A1
100
AcDbEntity
  8
ext1
  6
ByLayer
 62
  256
370
   -1
100
AcDbLine
 10
15.56026320629222
 20
35.75885952217397
 11
73.75141993811287
 21
43.93709318295446
  0
ARC
  5
1A2
100
AcDbEntity
  8
ext1
  6
ByLayer
 62
  256
370
   -1
100
AcDbCircle
 10
87.80790300258877
 20
-56.07998177856448
 40
101
100
AcDbArc
 50
90
 51
97.99999992410137
  0
ARC
  5
1A3
100
AcDbEntity
  8
int
  6
ByLayer
 62
  256
370
   -1
100
AcDbCircle
 10
-84.24365032036241
 20
-56.07998177856448
 40
99
100
AcDbArc
 50
82.00000007589858
 51
90
  0
LINE
  5
1A4
100
AcDbEntity
  8
int
  6
ByLayer
 62
  256
370
   -1
100
AcDbLine
 10
-70.46551345518297
 20
41.95655704510261
 11
-12.27435672336311
 21
33.77832338432219
  0
ARC
  5
1A5
100
AcDbEntity
  8
int
  6
ByLayer
 62
  256
370
   -1
100
AcDbCircle
 10
-92.52440720924233
 20
-134.3453390181714
 40
101
100
AcDbArc
 50
82.56255688567585
 51
90
  0
ARC
  5
1A6
100
AcDbEntity
  8
int
  6
ByLayer
 62
  256
370
   -1
100
AcDbCircle
 10
92.91453677068569
 20
-134.1786930409446
 40
101
100
AcDbArc
 50
90
 51
97.95528348963263
  0
ARC
  5
1A7
100
AcDbEntity
  8
int
  6
ByLayer
 62
  256
370
   -1
100
AcDbCircle
 10
87.80790300258877
 20
-56.07998177856448
 40
99
100
AcDbArc
 50
90
 51
97.99999992410137
  0
LINE
  5
1A8
100
AcDbEntity
  8
int
  6
ByLayer
 62
  256
370
   -1
100
AcDbLine
 10
15.83860940558877
 20
33.77832338432211
 11
74.02976613740942
 21
41.9565570451026
  0
ARC
  5
1A9
100
AcDbEntity
  8
int
  6
ByLayer
 62
  256
370
   -1
100
AcDbCircle
 10
1.782126341112871
 20
133.7953983458411
 40
101
100
AcDbArc
 50
262.0000000758986
 51
277.9999999241014
  0
LINE
  5
1AA
100
AcDbEntity
  8
int
  6
ByLayer
 62
  256
370
   -1
100
AcDbLine
 10
87.80790300258877
 20
42.92001822143552
 11
103.4897438025548
 21
42.92001822143552
  0
ARC
  5
1AB
100
AcDbEntity
  8
int
  6
ByLayer
 62
  256
370
   -1
100
AcDbCircle
 10
103.4897438025548
 20
40.92001822143551
 40
2
100
AcDbArc
 50
0
 51
90
  0
ARC
  5
1AC
100
AcDbEntity
  8
int
  6
ByLayer
 62
  256
370
   -1
100
AcDbCircle
 10
108.5897438025549
 20
35.82001822143451
 40
2
100
AcDbArc
 50
0
 51
90
  0
LINE
  5
1AD
100
AcDbEntity
  8
int
  6
ByLayer
 62
  256
370
   -1
100
AcDbLine
 10
-103.384884673501
 20
-33.34533901817139
 11
-92.52440720924233
 21
-33.34533901817139
  0
ARC
  5
1AE
100
AcDbEntity
  8
int
  6
ByLayer
 62
  256
370
   -1
100
AcDbCircle
 10
-103.384884673501
 20
-31.34533901817139
 40
2
100
AcDbArc
 50
180
 51
270
  0
ARC
  5
1AF
100
AcDbEntity
  8
int
  6
ByLayer
 62
  256
370
   -1
100
AcDbCircle
 10
-108.4848846735011
 20
-26.24533901817118
 40
2
100
AcDbArc
 50
179.9999999999998
 51
270
  0
LINE
  5
1B0
100
AcDbEntity
  8
int
  6
ByLayer
 62
  256
370
   -1
100
AcDbLine
 10
-110.4848846735011
 20
35.82001822143573
 11
-110.4848846735011
 21
-26.24533901817117
  0
ARC
  5
1B1
100
AcDbEntity
  8
int
  6
ByLayer
 62
  256
370
   -1
100
AcDbCircle
 10
-108.4848846735011
 20
35.82001822143573
 40
2
100
AcDbArc
 50
90
 51
180
  0
LINE
  5
1B2
100
AcDbEntity
  8
int
  6
ByLayer
 62
  256
370
   -1
100
AcDbLine
 10
-103.3848846735012
 20
42.92001822143552
 11
-84.24365032036241
 21
42.92001822143552
  0
ARC
  5
1B3
100
AcDbEntity
  8
int
  6
ByLayer
 62
  256
370
   -1
100
AcDbCircle
 10
-103.3848846735012
 20
40.92001822143553
 40
2
100
AcDbArc
 50
90
 51
180
  0
LINE
  5
1B4
100
AcDbEntity
  8
int
  6
ByLayer
 62
  256
370
   -1
100
AcDbLine
 10
110.5897438025549
 20
-26.07869304094475
 11
110.5897438025549
 21
35.82001822143451
  0
ARC
  5
1B5
100
AcDbEntity
  8
int
  6
ByLayer
 62
  256
370
   -1
100
AcDbCircle
 10
108.5897438025549
 20
-26.07869304094475
 40
2
100
AcDbArc
 50
270
 51
0
  0
LINE
  5
1B6
100
AcDbEntity
  8
int
  6
ByLayer
 62
  256
370
   -1
100
AcDbLine
 10
92.91453677068569
 20
-33.17869304094464
 11
103.489743802555
 21
-33.17869304094464
  0
ARC
  5
1B7
100
AcDbEntity
  8
int
  6
ByLayer
 62
  256
370
   -1
100
AcDbCircle
 10
103.489743802555
 20
-31.17869304094463
 40
2
100
AcDbArc
 50
270
 51
359.9999999999999
  0
ARC
  5
1B8
100
AcDbEntity
  8
int
  6
ByLayer
 62
  256
370
   -1
100
AcDbCircle
 10
108.5897438025549
 20
-31.17869304094464
 40
3.1
100
AcDbArc
 50
90.00000000000027
 51
180
  0
ARC
  5
1B9
100
AcDbEntity
  8
int
  6
ByLayer
 62
  256
370
   -1
100
AcDbCircle
 10
108.5897438025549
 20
40.92001822143552
 40
3.1
100
AcDbArc
 50
180
 51
270
  0
ARC
  5
1BA
100
AcDbEntity
  8
int
  6
ByLayer
 62
  256
370
   -1
100
AcDbCircle
 10
-108.4848846735011
 20
40.92001822143552
 40
3.1
100
AcDbArc
 50
270
 51
360.0000000000001
  0
ARC
  5
1BB
100
AcDbEntity
  8
int
  6
ByLayer
 62
  256
370
   -1
100
AcDbCircle
 10
-108.4848846735011
 20
-31.34533901817139
 40
3.1
100
AcDbArc
 50
0
 51
90
  0
ARC
  5
1BC
100
AcDbEntity
  8
int
  6
ByLayer
 62
  256
370
   -1
100
AcDbCircle
 10
2.439139822426128
 20
-15.14355035901912
 40
5
100
AcDbArc
 50
7.999999924101341
 51
172.0000000758986
  0
LINE
  5
1BD
100
AcDbEntity
  8
int
  6
ByLayer
 62
  256
370
   -1
100
AcDbLine
 10
-5.93456428508689
 20
-38.79906859224263
 11
-2.512200522203523
 21
-14.44768486077773
  0
ARC
  5
1BE
100
AcDbEntity
  8
int
  6
ByLayer
 62
  256
370
   -1
100
AcDbCircle
 10
-10.88590462971654
 20
-38.10320309400125
 40
5
100
AcDbArc
 50
262.5311590499157
 51
352.0000000758986
  0
LINE
  5
1BF
100
AcDbEntity
  8
int
  6
ByLayer
 62
  256
370
   -1
100
AcDbLine
 10
10.78882663691022
 20
-38.62817667096854
 11
7.390480167055779
 21
-14.44768486077774
  0
ARC
  5
1C0
100
AcDbEntity
  8
int
  6
ByLayer
 62
  256
370
   -1
100
AcDbCircle
 10
15.74016698153988
 20
-37.93231117272716
 40
5
100
AcDbArc
 50
187.9999999241014
 51
278.2314870253877
  0
LINE
  5
1C1
100
AcDbEntity
  8
int
  6
ByLayer
 62
  256
370
   -1
100
AcDbLine
 10
78.9361162064519
 20
-34.15067817246186
 11
16.45603121108904
 21
-42.88079966971814
  0
LINE
  5
1C2
100
AcDbEntity
  8
int
  6
ByLayer
 62
  256
370
   -1
100
AcDbLine
 10
-79.4506004061283
 20
-34.19507403761904
 11
-11.53583961699832
 21
-43.06078158680467
  0
LINE
  5
1C3
100
AcDbEntity
  8
noname
  6
ByLayer
 62
  256
370
   -1
100
AcDbLine
 10
-105.6110701247559
 20
40.6677943
 11
-105.6110701247559
 21
26.6677943
  0
LINE
  5
1C4
100
AcDbEntity
  8
noname
  6
ByLayer
 62
  256
370
   -1
100
AcDbLine
 10
-105.8960701247559
 20
21.6677943
 11
-105.8960701247559
 21
7.667794299999998
  0
LINE
  5
1C5
100
AcDbEntity
  8
noname
  6
ByLayer
 62
  256
370
   -1
100
AcDbLine
 10
-84.28906433785185
 20
41.37476149929655
 11
-86.23748773785186
 21
27.51100849929655
  0
LINE
  5
1C6
100
AcDbEntity
  8
noname
  6
ByLayer
 62
  256
370
   -1
100
AcDbLine
 10
-65.47397103785185
 20
38.73047259929655
 11
-67.42239443785186
 21
24.86671959929655
  0
LINE
  5
1C7
100
AcDbEntity
  8
noname
  6
ByLayer
 62
  256
370
   -1
100
AcDbLine
 10
-82.22957993785187
 20
21.89859599929655
 11
-84.17800333785186
 21
8.034842999296554
  0
LINE
  5
1C8
100
AcDbEntity
  8
noname
  6
ByLayer
 62
  256
370
   -1
100
AcDbLine
 10
-63.41448663785187
 20
19.25430709929655
 11
-65.36291003785186
 21
5.390554099296555
  0
LINE
  5
1C9
100
AcDbEntity
  8
noname
  6
ByLayer
 62
  256
370
   -1
100
AcDbLine
 10
-75.46632223785186
 20
1.761358199296556
 11
-77.41474563785187
 21
-12.10239480070345
  0
LINE
  5
1CA
100
AcDbEntity
  8
noname
  6
ByLayer
 62
  256
370
   -1
100
AcDbLine
 10
-103.8598846735011
 20
2.154660981828609
 11
-103.8598846735011
 21
-11.84533901817139
  0
LINE
  5
1CB
100
AcDbEntity
  8
noname
  6
ByLayer
 62
  256
370
   -1
100
AcDbLine
 10
-106.8998846735011
 20
-16.84533901817139
 11
-106.8998846735011
 21
-30.84533901817139
  0
LINE
  5
1CC
100
AcDbEntity
  8
noname
  6
ByLayer
 62
  256
370
   -1
100
AcDbLine
 10
-85.10776851582547
 20
-30.92589871317701
 11
-83.68744708612078
 21
-16.99813194903561
  0
LINE
  5
1CD
100
AcDbEntity
  8
noname
  6
ByLayer
 62
  256
370
   -1
100
AcDbLine
 10
-63.99929113785186
 20
-19.03695180070345
 11
-65.94771453785187
 21
-32.90070480070344
  0
LINE
  5
1CE
100
AcDbEntity
  8
noname
  6
ByLayer
 62
  256
370
   -1
100
AcDbLine
 10
-56.65122893785185
 20
-0.8829307007034431
 11
-58.59965233785186
 21
-14.74668370070345
  0
LINE
  5
1CF
100
AcDbEntity
  8
noname
  6
ByLayer
 62
  256
370
   -1
100
AcDbLine
 10
-44.59939333785186
 20
16.61001819929655
 11
-46.54781673785186
 21
2.746265199296556
  0
LINE
  5
1D0
100
AcDbEntity
  8
noname
  6
ByLayer
 62
  256
370
   -1
100
AcDbLine
 10
-46.65887773785187
 20
36.08618369929656
 11
-48.60730113785188
 21
22.22243069929655
  0
LINE
  5
1D1
100
AcDbEntity
  8
noname
  6
ByLayer
 62
  256
370
   -1
100
AcDbLine
 10
-37.83613563785185
 20
-3.52721960070345
 11
-39.78455903785186
 21
-17.39097260070345
  0
LINE
  5
1D2
100
AcDbEntity
  8
noname
  6
ByLayer
 62
  256
370
   -1
100
AcDbLine
 10
-25.78430003785187
 20
13.96572929929655
 11
-27.73272343785186
 21
0.1019762992965564
  0
LINE
  5
1D3
100
AcDbEntity
  8
noname
  6
ByLayer
 62
  256
370
   -1
100
AcDbLine
 10
-27.84378443785186
 20
33.44189479929656
 11
-29.79220783785187
 21
19.57814179929655
  0
LINE
  5
1D4
100
AcDbEntity
  8
noname
  6
ByLayer
 62
  256
370
   -1
100
AcDbLine
 10
-19.02104233785186
 20
-6.17150850070345
 11
-20.96946573785187
 21
-20.03526150070346
  0
LINE
  5
1D5
100
AcDbEntity
  8
noname
  6
ByLayer
 62
  256
370
   -1
100
AcDbLine
 10
-44.19392972429628
 20
-21.8204137985931
 11
-46.14235312429628
 21
-35.68416679859311
  0
LINE
  5
1D6
100
AcDbEntity
  8
noname
  6
ByLayer
 62
  256
370
   -1
100
AcDbLine
 10
23.28906593785186
 20
32.30084779929655
 11
25.23748933785186
 21
18.43709479929655
  0
LINE
  5
1D7
100
AcDbEntity
  8
noname
  6
ByLayer
 62
  256
370
   -1
100
AcDbLine
 10
42.10415923785186
 20
34.94513669929655
 11
44.05258263785186
 21
21.08138369929655
  0
LINE
  5
1D8
100
AcDbEntity
  8
noname
  6
ByLayer
 62
  256
370
   -1
100
AcDbLine
 10
60.91925253785186
 20
37.58942559929655
 11
62.86767593785186
 21
23.72567259929655
  0
LINE
  5
1D9
100
AcDbEntity
  8
noname
  6
ByLayer
 62
  256
370
   -1
100
AcDbLine
 10
79.73434583785186
 20
40.23371449929655
 11
81.68276923785186
 21
26.36996149929655
  0
LINE
  5
1DA
100
AcDbEntity
  8
noname
  6
ByLayer
 62
  256
370
   -1
100
AcDbLine
 10
103.2866043471531
 20
41.12495009895106
 11
103.2866043471531
 21
27.12495009895106
  0
LINE
  5
1DB
100
AcDbEntity
  8
noname
  6
ByLayer
 62
  256
370
   -1
100
AcDbLine
 10
108.3738982214355
 20
22.12495009895106
 11
108.3738982214355
 21
8.124950098951061
  0
LINE
  5
1DC
100
AcDbEntity
  8
noname
  6
ByLayer
 62
  256
370
   -1
100
AcDbLine
 10
106.3397438025549
 20
2.321306959055358
 11
106.3397438025549
 21
-11.67869304094464
  0
LINE
  5
1DD
100
AcDbEntity
  8
noname
  6
ByLayer
 62
  256
370
   -1
100
AcDbLine
 10
106.8147438025549
 20
-16.67869304094464
 11
106.8147438025549
 21
-30.67869304094464
  0
LINE
  5
1DE
100
AcDbEntity
  8
noname
  6
ByLayer
 62
  256
370
   -1
100
AcDbLine
 10
85.02741919667297
 20
-30.78331823641623
 11
83.12562215996587
 21
-16.91309228183379
  0
LINE
  5
1DF
100
AcDbEntity
  8
noname
  6
ByLayer
 62
  256
370
   -1
100
AcDbLine
 10
80.31915033785185
 20
1.942455699296554
 11
82.26757373785185
 21
-11.92129730070345
  0
LINE
  5
1E0
100
AcDbEntity
  8
noname
  6
ByLayer
 62
  256
370
   -1
100
AcDbLine
 10
61.50405703785185
 20
-0.7018332007034447
 11
63.45248043785185
 21
-14.56558620070345
  0
LINE
  5
1E1
100
AcDbEntity
  8
noname
  6
ByLayer
 62
  256
370
   -1
100
AcDbLine
 10
68.26731473785185
 20
19.43540459929655
 11
70.21573813785184
 21
5.571651599296554
  0
LINE
  5
1E2
100
AcDbEntity
  8
noname
  6
ByLayer
 62
  256
370
   -1
100
AcDbLine
 10
64.14834593785186
 20
-19.51692650070344
 11
66.09676933785187
 21
-33.38067950070344
  0
LINE
  5
1E3
100
AcDbEntity
  8
noname
  6
ByLayer
 62
  256
370
   -1
100
AcDbLine
 10
46.32352066214816
 20
-22.02204229929654
 11
48.27194406214815
 21
-35.88579529929655
  0
LINE
  5
1E4
100
AcDbEntity
  8
noname
  6
ByLayer
 62
  256
370
   -1
100
AcDbLine
 10
42.68896373785185
 20
-3.346122100703452
 11
44.63738713785185
 21
-17.20987510070346
  0
LINE
  5
1E5
100
AcDbEntity
  8
noname
  6
ByLayer
 62
  256
370
   -1
100
AcDbLine
 10
23.87387043785185
 20
-5.990411000703451
 11
25.82229383785185
 21
-19.85416400070345
  0
LINE
  5
1E6
100
AcDbEntity
  8
noname
  6
ByLayer
 62
  256
370
   -1
100
AcDbLine
 10
30.63712813785185
 20
14.14682669929655
 11
32.58555153785184
 21
0.2830736992965539
  0
LINE
  5
1E7
100
AcDbEntity
  8
noname
  6
ByLayer
 62
  256
370
   -1
100
AcDbLine
 10
49.45222143785185
 20
16.79111559929655
 11
51.40064483785186
 21
2.927362599296554
  0
LINE
  5
1E8
100
AcDbEntity
  8
noname
  6
ByLayer
 62
  256
370
   -1
100
AcDbLine
 10
87.08240803785185
 20
22.07969349929655
 11
89.03083143785184
 21
8.215940499296554
  0
LINE
  5
1E9
100
AcDbEntity
  8
noname
  6
ByLayer
 62
  256
370
   -1
100
AcDbLine
 10
-103.6110701247559
 20
24.6677943
 11
-89.61107012475593
 21
24.6677943
  0
LINE
  5
1EA
100
AcDbEntity
  8
noname
  6
ByLayer
 62
  256
370
   -1
100
AcDbLine
 10
-104.8998846735011
 20
-14.84533901817139
 11
-90.89988467350112
 21
-14.84533901817139
  0
LINE
  5
1EB
100
AcDbEntity
  8
noname
  6
ByLayer
 62
  256
370
   -1
100
AcDbLine
 10
90.81474380255486
 20
-14.67869304094464
 11
104.8147438025549
 21
-14.67869304094464
  0
LINE
  5
1EC
100
AcDbEntity
  8
rpi
  6
ByLayer
 62
  256
370
   -1
100
AcDbLine
 10
8.999999999999998
 20
-5.750000000000003
 11
-9.000000000000002
 21
-5.750000000000001
  0
LINE
  5
1ED
100
AcDbEntity
  8
rpi
  6
ByLayer
 62
  256
370
   -1
100
AcDbLine
 10
-9.000000000000002
 20
-5.750000000000001
 11
-9
 21
17.75
  0
CIRCLE
  5
1EE
100
AcDbEntity
  8
rpi
  6
ByLayer
 62
  256
370
   -1
100
AcDbCircle
 10
7.620000000000003
 20
16.16
 40
0.7
  0
CIRCLE
  5
1EF
100
AcDbEntity
  8
rpi
  6
ByLayer
 62
  256
370
   -1
100
AcDbCircle
 10
7.620000000000003
 20
13.62
 40
0.7
  0
CIRCLE
  5
1F0
100
AcDbEntity
  8
rpi
  6
ByLayer
 62
  256
370
   -1
100
AcDbCircle
 10
7.620000000000001
 20
11.08
 40
0.7
  0
CIRCLE
  5
1F1
100
AcDbEntity
  8
rpi
  6
ByLayer
 62
  256
370
   -1
100
AcDbCircle
 10
7.620000000000001
 20
8.539999999999997
 40
0.7
  0
CIRCLE
  5
1F2
100
AcDbEntity
  8
rpi
  6
ByLayer
 62
  256
370
   -1
100
AcDbCircle
 10
7.620000000000001
 20
5.999999999999998
 40
0.7
  0
CIRCLE
  5
1F3
100
AcDbEntity
  8
rpi
  6
ByLayer
 62
  256
370
   -1
100
AcDbCircle
 10
7.619999999999999
 20
3.459999999999999
 40
0.7
  0
CIRCLE
  5
1F4
100
AcDbEntity
  8
rpi
  6
ByLayer
 62
  256
370
   -1
100
AcDbCircle
 10
7.619999999999999
 20
0.919999999999999
 40
0.7
  0
CIRCLE
  5
1F5
100
AcDbEntity
  8
rpi
  6
ByLayer
 62
  256
370
   -1
100
AcDbCircle
 10
7.619999999999999
 20
-1.620000000000001
 40
0.7
  0
CIRCLE
  5
1F6
100
AcDbEntity
  8
rpi
  6
ByLayer
 62
  256
370
   -1
100
AcDbCircle
 10
7.619999999999999
 20
-4.160000000000002
 40
0.7
  0
CIRCLE
  5
1F7
100
AcDbEntity
  8
rpi
  6
ByLayer
 62
  256
370
   -1
100
AcDbCircle
 10
5.079999999999998
 20
-4.160000000000001
 40
0.7
  0
CIRCLE
  5
1F8
100
AcDbEntity
  8
rpi
  6
ByLayer
 62
  256
370
   -1
100
AcDbCircle
 10
2.539999999999999
 20
-4.160000000000001
 40
0.7
  0
CIRCLE
  5
1F9
100
AcDbEntity
  8
rpi
  6
ByLayer
 62
  256
370
   -1
100
AcDbCircle
 10
-1.498801083243961e-15
 20
-4.16
 40
0.7
  0
CIRCLE
  5
1FA
100
AcDbEntity
  8
rpi
  6
ByLayer
 62
  256
370
   -1
100
AcDbCircle
 10
-2.540000000000001
 20
-4.16
 40
0.7
  0
CIRCLE
  5
1FB
100
AcDbEntity
  8
rpi
  6
ByLayer
 62
  256
370
   -1
100
AcDbCircle
 10
-5.080000000000001
 20
-4.16
 40
0.7
  0
CIRCLE
  5
1FC
100
AcDbEntity
  8
rpi
  6
ByLayer
 62
  256
370
   -1
100
AcDbCircle
 10
-7.620000000000002
 20
-4.159999999999999
 40
0.7
  0
CIRCLE
  5
1FD
100
AcDbEntity
  8
rpi
  6
ByLayer
 62
  256
370
   -1
100
AcDbCircle
 10
-7.620000000000001
 20
-1.619999999999999
 40
0.7
  0
CIRCLE
  5
1FE
100
AcDbEntity
  8
rpi
  6
ByLayer
 62
  256
370
   -1
100
AcDbCircle
 10
-7.620000000000001
 20
0.9200000000000008
 40
0.7
  0
CIRCLE
  5
1FF
100
AcDbEntity
  8
rpi
  6
ByLayer
 62
  256
370
   -1
100
AcDbCircle
 10
-7.62
 20
3.460000000000001
 40
0.7
  0
CIRCLE
  5
200
100
AcDbEntity
  8
rpi
  6
ByLayer
 62
  256
370
   -1
100
AcDbCircle
 10
-7.62
 20
6
 40
0.7
  0
CIRCLE
  5
201
100
AcDbEntity
  8
rpi
  6
ByLayer
 62
  256
370
   -1
100
AcDbCircle
 10
-7.619999999999999
 20
8.540000000000001
 40
0.7
  0
CIRCLE
  5
202
100
AcDbEntity
  8
rpi
  6
ByLayer
 62
  256
370
   -1
100
AcDbCircle
 10
-7.619999999999999
 20
11.08
 40
0.7
  0
CIRCLE
  5
203
100
AcDbEntity
  8
rpi
  6
ByLayer
 62
  256
370
   -1
100
AcDbCircle
 10
-7.619999999999998
 20
13.62
 40
0.7
  0
CIRCLE
  5
204
100
AcDbEntity
  8
rpi
  6
ByLayer
 62
  256
370
   -1
100
AcDbCircle
 10
-7.619999999999998
 20
16.16
 40
0.7
  0
LINE
  5
205
100
AcDbEntity
  8
rpi
  6
ByLayer
 62
  256
370
   -1
100
AcDbLine
 10
4
 20
21.75
 11
-3.999999999999999
 21
21.75
  0
LINE
  5
206
100
AcDbEntity
  8
rpi
  6
ByLayer
 62
  256
370
   -1
100
AcDbLine
 10
4
 20
21.75
 11
3.999999999999999
 21
17.74999999999999
  0
LINE
  5
207
100
AcDbEntity
  8
rpi
  6
ByLayer
 62
  256
370
   -1
100
AcDbLine
 10
-3.999999999999999
 20
21.75
 11
-4
 21
17.75
  0
LINE
  5
208
100
AcDbEntity
  8
rpi
  6
ByLayer
 62
  256
370
   -1
100
AcDbLine
 10
8.999999999999998
 20
-5.750000000000003
 11
9.000000000000004
 21
17.74999999999999
  0
LINE
  5
209
100
AcDbEntity
  8
rpi
  6
ByLayer
 62
  256
370
   -1
100
AcDbLine
 10
9.000000000000004
 20
17.74999999999999
 11
-9
 21
17.75
  0
LINE
  5
20A
100
AcDbEntity
  8
noname
  6
ByLayer
 62
  256
370
   -1
100
AcDbLine
 10
-9
 20
17.75
 11
8.999999999999998
 21
-5.750000000000003
  0
ENDSEC
  0
SECTION
  2
OBJECTS
  0
DICTIONARY
  5
C
330
0
100
AcDbDictionary
281
    1
  3
ACAD_GROUP
350
D
  0
DICTIONARY
  5
D
330
C
100
AcDbDictionary
281
    1
  0
PLOTSETTINGS
  5
20B
100
AcDbPlotSettings
  6
1x1
 40
0
 41
0
 42
0
 43
0
  0
ENDSEC
  0
EOF
