999
dxfrw 0.6.3
  0
SECTION
  2
HEADER
  9
$ACADVER
  1
AC1021
  9
$DWGCODEPAGE
  3
ANSI_1252
  9
$INSBASE
 10
0
 20
0
 30
0
  9
$EXTMIN
 10
-113.2796621426007
 20
-45.91037279300263
 30
0
  9
$EXTMAX
 10
113.2796621426006
 20
45.91037279300264
 30
0
  9
$LIMMIN
 10
0
 20
0
  9
$LIMMAX
 10
420
 20
297
  9
$ORTHOMODE
 70
    0
  9
$REGENMODE
 70
    1
  9
$FILLMODE
 70
    1
  9
$QTEXTMODE
 70
    0
  9
$MIRRTEXT
 70
    0
  9
$LTSCALE
 40
1
  9
$ATTMODE
 70
    0
  9
$TEXTSIZE
 40
2.5
  9
$TRACEWID
 40
15.68
  9
$TEXTSTYLE
  7
STANDARD
  9
$CLAYER
  8
edge
  9
$CELTYPE
  6
BYLAYER
  9
$CECOLOR
 62
  256
  9
$CELTSCALE
 40
1
  9
$DISPSILH
 70
    0
  9
$DIMSCALE
 40
2.5
  9
$DIMASZ
 40
2.5
  9
$DIMEXO
 40
0.625
  9
$DIMDLI
 40
3.75
  9
$DIMRND
 40
0
  9
$DIMDLE
 40
0
  9
$DIMEXE
 40
1.25
  9
$DIMTP
 40
0
  9
$DIMTM
 40
0
  9
$DIMTXT
 40
2.5
  9
$DIMCEN
 40
2.5
  9
$DIMTSZ
 40
0
  9
$DIMTOL
 70
    0
  9
$DIMLIM
 70
    0
  9
$DIMTIH
 70
    0
  9
$DIMTOH
 70
    0
  9
$DIMSE1
 70
    0
  9
$DIMSE2
 70
    0
  9
$DIMTAD
 70
    1
  9
$DIMZIN
 70
    8
  9
$DIMBLK
  1

  9
$DIMASO
 70
    1
  9
$DIMSHO
 70
    1
  9
$DIMPOST
  1

  9
$DIMAPOST
  1

  9
$DIMALT
 70
    0
  9
$DIMALTD
 70
    3
  9
$DIMALTF
 40
0.03937
  9
$DIMLFAC
 40
1
  9
$DIMTOFL
 70
    1
  9
$DIMTVP
 40
0
  9
$DIMTIX
 70
    0
  9
$DIMSOXD
 70
    0
  9
$DIMSAH
 70
    0
  9
$DIMBLK1
  1

  9
$DIMBLK2
  1

  9
$DIMSTYLE
  2
STANDARD
  9
$DIMCLRD
 70
    0
  9
$DIMCLRE
 70
    0
  9
$DIMCLRT
 70
    0
  9
$DIMTFAC
 40
1
  9
$DIMGAP
 40
0.625
  9
$DIMJUST
 70
    0
  9
$DIMSD1
 70
    0
  9
$DIMSD2
 70
    0
  9
$DIMTOLJ
 70
    0
  9
$DIMTZIN
 70
    8
  9
$DIMALTZ
 70
    0
  9
$DIMALTTZ
 70
    0
  9
$DIMUPT
 70
    0
  9
$DIMDEC
 70
    2
  9
$DIMTDEC
 70
    2
  9
$DIMALTU
 70
    2
  9
$DIMALTTD
 70
    3
  9
$DIMTXSTY
  7
STANDARD
  9
$DIMAUNIT
 70
    0
  9
$DIMADEC
 70
    0
  9
$DIMALTRND
 40
0
  9
$DIMAZIN
 70
    0
  9
$DIMDSEP
 70
   44
  9
$DIMATFIT
 70
    3
  9
$DIMFRAC
 70
    0
  9
$DIMLDRBLK
  1
STANDARD
  9
$DIMLUNIT
 70
    2
  9
$DIMLWD
 70
   -2
  9
$DIMLWE
 70
   -2
  9
$DIMTMOVE
 70
    0
  9
$DIMFXL
 40
1
  9
$DIMFXLON
 70
    0
  9
$DIMJOGANG
 40
0.7854
  9
$DIMTFILL
 70
    0
  9
$DIMTFILLCLR
 70
    0
  9
$DIMARCSYM
 70
    0
  9
$DIMLTYPE
  6

  9
$DIMLTEX1
  6

  9
$DIMLTEX2
  6

  9
$LUNITS
 70
    2
  9
$LUPREC
 70
    4
  9
$SKETCHINC
 40
1
  9
$FILLETRAD
 40
0
  9
$AUNITS
 70
    0
  9
$AUPREC
 70
    2
  9
$MENU
  1
.
  9
$ELEVATION
 40
0
  9
$PELEVATION
 40
0
  9
$THICKNESS
 40
0
  9
$LIMCHECK
 70
    0
  9
$CHAMFERA
 40
0
  9
$CHAMFERB
 40
0
  9
$CHAMFERC
 40
0
  9
$CHAMFERD
 40
0
  9
$SKPOLY
 70
    0
  9
$USRTIMER
 70
    1
  9
$ANGBASE
 50
0
  9
$ANGDIR
 70
    0
  9
$PDMODE
 70
   34
  9
$PDSIZE
 40
0
  9
$PLINEWID
 40
0
  9
$SPLFRAME
 70
    0
  9
$SPLINETYPE
 70
    2
  9
$SPLINESEGS
 70
    8
  9
$HANDSEED
  5
20000
  9
$SURFTAB1
 70
    6
  9
$SURFTAB2
 70
    6
  9
$SURFTYPE
 70
    6
  9
$SURFU
 70
    6
  9
$SURFV
 70
    6
  9
$UCSBASE
  2

  9
$UCSNAME
  2

  9
$UCSORG
 10
0
 20
0
 30
0
  9
$UCSXDIR
 10
1
 20
0
 30
0
  9
$UCSYDIR
 10
0
 20
1
 30
0
  9
$UCSORTHOREF
  2

  9
$UCSORTHOVIEW
 70
    0
  9
$UCSORGTOP
 10
0
 20
0
 30
0
  9
$UCSORGBOTTOM
 10
0
 20
0
 30
0
  9
$UCSORGLEFT
 10
0
 20
0
 30
0
  9
$UCSORGRIGHT
 10
0
 20
0
 30
0
  9
$UCSORGFRONT
 10
0
 20
0
 30
0
  9
$UCSORGBACK
 10
0
 20
0
 30
0
  9
$PUCSBASE
  2

  9
$PUCSNAME
  2

  9
$PUCSORG
 10
0
 20
0
 30
0
  9
$PUCSXDIR
 10
1
 20
0
 30
0
  9
$PUCSYDIR
 10
0
 20
1
 30
0
  9
$PUCSORTHOREF
  2

  9
$PUCSORTHOVIEW
 70
    0
  9
$PUCSORGTOP
 10
0
 20
0
 30
0
  9
$PUCSORGBOTTOM
 10
0
 20
0
 30
0
  9
$PUCSORGLEFT
 10
0
 20
0
 30
0
  9
$PUCSORGRIGHT
 10
0
 20
0
 30
0
  9
$PUCSORGFRONT
 10
0
 20
0
 30
0
  9
$PUCSORGBACK
 10
0
 20
0
 30
0
  9
$USERI1
 70
    0
  9
$USERI2
 70
    0
  9
$USERI3
 70
    0
  9
$USERI4
 70
    0
  9
$USERI5
 70
    0
  9
$USERR1
 40
0
  9
$USERR2
 40
0
  9
$USERR3
 40
0
  9
$USERR4
 40
0
  9
$USERR5
 40
0
  9
$WORLDVIEW
 70
    1
  9
$SHADEDGE
 70
    3
  9
$SHADEDIF
 70
   70
  9
$TILEMODE
 70
    1
  9
$MAXACTVP
 70
   64
  9
$PINSBASE
 10
0
 20
0
 30
0
  9
$PLIMCHECK
 70
    0
  9
$PEXTMIN
 10
0
 20
0
 30
0
  9
$PEXTMAX
 10
0
 20
0
 30
0
  9
$GRIDMODE
 70
    1
  9
$SNAPSTYLE
 70
    0
  9
$PLIMMIN
 10
0
 20
0
  9
$PLIMMAX
 10
210
 20
297
  9
$UNITMODE
 70
    0
  9
$VISRETAIN
 70
    1
  9
$PLINEGEN
 70
    0
  9
$PSLTSCALE
 70
    1
  9
$TREEDEPTH
 70
 3020
  9
$CMLSTYLE
  2
Standard
  9
$CMLJUST
 70
    0
  9
$CMLSCALE
 40
20
  9
$PROXYGRAPHICS
 70
    1
  9
$MEASUREMENT
 70
    1
  9
$CELWEIGHT
370
   -1
  9
$ENDCAPS
280
    0
  9
$JOINSTYLE
280
    0
  9
$LWDISPLAY
290
    0
  9
$INSUNITS
 70
    0
  9
$HYPERLINKBASE
  1

  9
$STYLESHEET
  1

  9
$XEDIT
290
    1
  9
$CEPSNTYPE
380
    0
  9
$PSTYLEMODE
290
    1
  9
$EXTNAMES
290
    1
  9
$PSVPSCALE
 40
1
  9
$OLESTARTUP
290
    0
  9
$SORTENTS
280
  127
  9
$INDEXCTL
280
    0
  9
$HIDETEXT
280
    1
  9
$XCLIPFRAME
290
    0
  9
$HALOGAP
280
    0
  9
$OBSCOLOR
 70
  257
  9
$OBSLTYPE
280
    0
  9
$INTERSECTIONDISPLAY
280
    0
  9
$INTERSECTIONCOLOR
 70
  257
  9
$DIMASSOC
280
    1
  9
$PROJECTNAME
  1

  9
$CAMERADISPLAY
290
    0
  9
$LENSLENGTH
 40
50
  9
$CAMERAHEIGHT
 40
0
  9
$STEPSPERSEC
 40
2
  9
$STEPSIZE
 40
50
  9
$3DDWFPREC
 40
2
  9
$PSOLWIDTH
 40
5
  9
$PSOLHEIGHT
 40
80
  9
$LOFTANG1
 40
1.570796326794897
  9
$LOFTANG2
 40
1.570796326794897
  9
$LOFTMAG1
 40
0
  9
$LOFTMAG2
 40
0
  9
$LOFTPARAM
 70
    7
  9
$LOFTNORMALS
280
    1
  9
$LATITUDE
 40
1
  9
$LONGITUDE
 40
1
  9
$NORTHDIRECTION
 40
0
  9
$TIMEZONE
 70
-8000
  9
$LIGHTGLYPHDISPLAY
280
    1
  9
$TILEMODELIGHTSYNCH
280
    1
  9
$SOLIDHIST
280
    1
  9
$SHOWHIST
280
    1
  9
$DWFFRAME
280
    2
  9
$DGNFRAME
280
    0
  9
$REALWORLDSCALE
290
    1
  9
$INTERFERECOLOR
 62
    1
  9
$CSHADOW
280
    0
  9
$SHADOWPLANELOCATION
 40
0
  0
ENDSEC
  0
SECTION
  2
CLASSES
  0
ENDSEC
  0
SECTION
  2
TABLES
  0
TABLE
  2
VPORT
  5
8
330
0
100
AcDbSymbolTable
 70
    1
  0
VPORT
  5
31
330
2
100
AcDbSymbolTableRecord
100
AcDbViewportTableRecord
  2
*ACTIVE
 70
    0
 10
0
 20
0
 11
1
 21
1
 12
57.72015482470387
 22
39.30320702858624
 13
0
 23
0
 14
10
 24
10
 15
10
 25
10
 16
0
 26
0
 36
1
 17
0
 27
0
 37
0
 40
156.8012762082865
 41
1.471128608923884
 42
50
 43
0
 44
0
 50
0
 51
0
 71
    0
 72
  100
 73
    1
 74
    3
 75
    0
 76
    1
 77
    0
 78
    0
281
    0
 65
    1
110
0
120
0
130
0
111
1
121
0
131
0
112
0
122
1
132
0
 79
    0
146
0
348
10020
 60
    7
 61
    5
292
1
282
    1
141
0
142
0
 63
  250
421
3358443
  0
ENDTAB
  0
TABLE
  2
LTYPE
  5
5
330
0
100
AcDbSymbolTable
 70
    4
  0
LTYPE
  5
14
330
5
100
AcDbSymbolTableRecord
100
AcDbLinetypeTableRecord
  2
ByBlock
 70
    0
  3

 72
   65
 73
    0
 40
0
  0
LTYPE
  5
15
330
5
100
AcDbSymbolTableRecord
100
AcDbLinetypeTableRecord
  2
ByLayer
 70
    0
  3

 72
   65
 73
    0
 40
0
  0
LTYPE
  5
16
330
5
100
AcDbSymbolTableRecord
100
AcDbLinetypeTableRecord
  2
Continuous
 70
    0
  3
Solid line
 72
   65
 73
    0
 40
0
  0
LTYPE
  5
32
330
5
100
AcDbSymbolTableRecord
100
AcDbLinetypeTableRecord
  2
DOT
 70
    0
  3
Dot . . . . . . . . . . . . . . . . . . . . . .
 72
   65
 73
    2
 40
6.35
 49
0
 74
    0
 49
-6.35
 74
    0
  0
LTYPE
  5
33
330
5
100
AcDbSymbolTableRecord
100
AcDbLinetypeTableRecord
  2
DOTTINY
 70
    0
  3
Dot (.15x) .....................................
 72
   65
 73
    2
 40
0.9525
 49
0
 74
    0
 49
-0.9525
 74
    0
  0
LTYPE
  5
34
330
5
100
AcDbSymbolTableRecord
100
AcDbLinetypeTableRecord
  2
DOT2
 70
    0
  3
Dot (.5x) .....................................
 72
   65
 73
    2
 40
3.175
 49
0
 74
    0
 49
-3.175
 74
    0
  0
LTYPE
  5
35
330
5
100
AcDbSymbolTableRecord
100
AcDbLinetypeTableRecord
  2
DOTX2
 70
    0
  3
Dot (2x) .  .  .  .  .  .  .  .  .  .  .  .  .
 72
   65
 73
    2
 40
12.7
 49
0
 74
    0
 49
-12.7
 74
    0
  0
LTYPE
  5
36
330
5
100
AcDbSymbolTableRecord
100
AcDbLinetypeTableRecord
  2
DASHED
 70
    0
  3
Dashed _ _ _ _ _ _ _ _ _ _ _ _ _ _ _ _ _
 72
   65
 73
    2
 40
19.05
 49
12.7
 74
    0
 49
-6.35
 74
    0
  0
LTYPE
  5
37
330
5
100
AcDbSymbolTableRecord
100
AcDbLinetypeTableRecord
  2
DASHEDTINY
 70
    0
  3
Dashed (.15x) _ _ _ _ _ _ _ _ _ _ _ _ _ _ _ _ _
 72
   65
 73
    2
 40
2.8575
 49
1.905
 74
    0
 49
-0.9525
 74
    0
  0
LTYPE
  5
38
330
5
100
AcDbSymbolTableRecord
100
AcDbLinetypeTableRecord
  2
DASHED2
 70
    0
  3
Dashed (.5x) _ _ _ _ _ _ _ _ _ _ _ _ _ _ _ _ _
 72
   65
 73
    2
 40
9.524999999999999
 49
6.35
 74
    0
 49
-3.175
 74
    0
  0
LTYPE
  5
39
330
5
100
AcDbSymbolTableRecord
100
AcDbLinetypeTableRecord
  2
DASHEDX2
 70
    0
  3
Dashed (2x) ____  ____  ____  ____  ____  ___
 72
   65
 73
    2
 40
38.09999999999999
 49
25.4
 74
    0
 49
-12.7
 74
    0
  0
LTYPE
  5
3A
330
5
100
AcDbSymbolTableRecord
100
AcDbLinetypeTableRecord
  2
DASHDOT
 70
    0
  3
Dash dot __ . __ . __ . __ . __ . __ . __ . __
 72
   65
 73
    4
 40
25.4
 49
12.7
 74
    0
 49
-6.35
 74
    0
 49
0
 74
    0
 49
-6.35
 74
    0
  0
LTYPE
  5
3B
330
5
100
AcDbSymbolTableRecord
100
AcDbLinetypeTableRecord
  2
DASHDOTTINY
 70
    0
  3
Dash dot (.15x) _._._._._._._._._._._._._._._.
 72
   65
 73
    4
 40
3.81
 49
1.905
 74
    0
 49
-0.9525
 74
    0
 49
0
 74
    0
 49
-0.9525
 74
    0
  0
LTYPE
  5
3C
330
5
100
AcDbSymbolTableRecord
100
AcDbLinetypeTableRecord
  2
DASHDOT2
 70
    0
  3
Dash dot (.5x) _._._._._._._._._._._._._._._.
 72
   65
 73
    4
 40
12.7
 49
6.35
 74
    0
 49
-3.175
 74
    0
 49
0
 74
    0
 49
-3.175
 74
    0
  0
LTYPE
  5
3D
330
5
100
AcDbSymbolTableRecord
100
AcDbLinetypeTableRecord
  2
DASHDOTX2
 70
    0
  3
Dash dot (2x) ____  .  ____  .  ____  .  ___
 72
   65
 73
    4
 40
50.8
 49
25.4
 74
    0
 49
-12.7
 74
    0
 49
0
 74
    0
 49
-12.7
 74
    0
  0
LTYPE
  5
3E
330
5
100
AcDbSymbolTableRecord
100
AcDbLinetypeTableRecord
  2
DIVIDE
 70
    0
  3
Divide ____ . . ____ . . ____ . . ____ . . ____
 72
   65
 73
    6
 40
31.75
 49
12.7
 74
    0
 49
-6.35
 74
    0
 49
0
 74
    0
 49
-6.35
 74
    0
 49
0
 74
    0
 49
-6.35
 74
    0
  0
LTYPE
  5
3F
330
5
100
AcDbSymbolTableRecord
100
AcDbLinetypeTableRecord
  2
DIVIDETINY
 70
    0
  3
Divide (.15x) __..__..__..__..__..__..__..__.._
 72
   65
 73
    6
 40
4.7625
 49
1.905
 74
    0
 49
-0.9525
 74
    0
 49
0
 74
    0
 49
-0.9525
 74
    0
 49
0
 74
    0
 49
-0.9525
 74
    0
  0
LTYPE
  5
40
330
5
100
AcDbSymbolTableRecord
100
AcDbLinetypeTableRecord
  2
DIVIDE2
 70
    0
  3
Divide (.5x) __..__..__..__..__..__..__..__.._
 72
   65
 73
    6
 40
15.875
 49
6.35
 74
    0
 49
-3.175
 74
    0
 49
0
 74
    0
 49
-3.175
 74
    0
 49
0
 74
    0
 49
-3.175
 74
    0
  0
LTYPE
  5
41
330
5
100
AcDbSymbolTableRecord
100
AcDbLinetypeTableRecord
  2
DIVIDEX2
 70
    0
  3
Divide (2x) ________  .  .  ________  .  .  _
 72
   65
 73
    6
 40
63.5
 49
25.4
 74
    0
 49
-12.7
 74
    0
 49
0
 74
    0
 49
-12.7
 74
    0
 49
0
 74
    0
 49
-12.7
 74
    0
  0
LTYPE
  5
42
330
5
100
AcDbSymbolTableRecord
100
AcDbLinetypeTableRecord
  2
BORDER
 70
    0
  3
Border __ __ . __ __ . __ __ . __ __ . __ __ .
 72
   65
 73
    6
 40
44.45
 49
12.7
 74
    0
 49
-6.35
 74
    0
 49
12.7
 74
    0
 49
-6.35
 74
    0
 49
0
 74
    0
 49
-6.35
 74
    0
  0
LTYPE
  5
43
330
5
100
AcDbSymbolTableRecord
100
AcDbLinetypeTableRecord
  2
BORDERTINY
 70
    0
  3
Border (.15x) __.__.__.__.__.__.__.__.__.__.__.
 72
   65
 73
    6
 40
6.6675
 49
1.905
 74
    0
 49
-0.9525
 74
    0
 49
1.905
 74
    0
 49
-0.9525
 74
    0
 49
0
 74
    0
 49
-0.9525
 74
    0
  0
LTYPE
  5
44
330
5
100
AcDbSymbolTableRecord
100
AcDbLinetypeTableRecord
  2
BORDER2
 70
    0
  3
Border (.5x) __.__.__.__.__.__.__.__.__.__.__.
 72
   65
 73
    6
 40
22.225
 49
6.35
 74
    0
 49
-3.175
 74
    0
 49
6.35
 74
    0
 49
-3.175
 74
    0
 49
0
 74
    0
 49
-3.175
 74
    0
  0
LTYPE
  5
45
330
5
100
AcDbSymbolTableRecord
100
AcDbLinetypeTableRecord
  2
BORDERX2
 70
    0
  3
Border (2x) ____  ____  .  ____  ____  .  ___
 72
   65
 73
    6
 40
88.89999999999999
 49
25.4
 74
    0
 49
-12.7
 74
    0
 49
25.4
 74
    0
 49
-12.7
 74
    0
 49
0
 74
    0
 49
-12.7
 74
    0
  0
LTYPE
  5
46
330
5
100
AcDbSymbolTableRecord
100
AcDbLinetypeTableRecord
  2
CENTER
 70
    0
  3
Center ____ _ ____ _ ____ _ ____ _ ____ _ ____
 72
   65
 73
    4
 40
50.8
 49
31.75
 74
    0
 49
-6.35
 74
    0
 49
6.35
 74
    0
 49
-6.35
 74
    0
  0
LTYPE
  5
47
330
5
100
AcDbSymbolTableRecord
100
AcDbLinetypeTableRecord
  2
CENTERTINY
 70
    0
  3
Center (.15x) ___ _ ___ _ ___ _ ___ _ ___ _ ___
 72
   65
 73
    4
 40
7.619999999999999
 49
4.7625
 74
    0
 49
-0.9525
 74
    0
 49
0.9525
 74
    0
 49
-0.9525
 74
    0
  0
LTYPE
  5
48
330
5
100
AcDbSymbolTableRecord
100
AcDbLinetypeTableRecord
  2
CENTER2
 70
    0
  3
Center (.5x) ___ _ ___ _ ___ _ ___ _ ___ _ ___
 72
   65
 73
    4
 40
28.575
 49
19.05
 74
    0
 49
-3.175
 74
    0
 49
3.175
 74
    0
 49
-3.175
 74
    0
  0
LTYPE
  5
49
330
5
100
AcDbSymbolTableRecord
100
AcDbLinetypeTableRecord
  2
CENTERX2
 70
    0
  3
Center (2x) ________  __  ________  __  _____
 72
   65
 73
    4
 40
101.6
 49
63.5
 74
    0
 49
-12.7
 74
    0
 49
12.7
 74
    0
 49
-12.7
 74
    0
  0
ENDTAB
  0
TABLE
  2
LAYER
  5
2
330
0
100
AcDbSymbolTable
 70
    1
  0
LAYER
  5
10
330
2
100
AcDbSymbolTableRecord
100
AcDbLayerTableRecord
  2
0
 70
    0
 62
    7
  6
CONTINUOUS
370
    0
390
F
  0
LAYER
  5
4A
330
2
100
AcDbSymbolTableRecord
100
AcDbLayerTableRecord
  2
edge
 70
    0
 62
    2
  6
CONTINUOUS
370
    0
390
F
  0
LAYER
  5
4B
330
2
100
AcDbSymbolTableRecord
100
AcDbLayerTableRecord
  2
mx
 70
    0
 62
  136
420
32896
  6
CONTINUOUS
370
    0
390
F
  0
LAYER
  5
4C
330
2
100
AcDbSymbolTableRecord
100
AcDbLayerTableRecord
  2
percage
 70
    0
 62
  155
420
6256547
  6
CONTINUOUS
370
    0
390
F
  0
LAYER
  5
4D
330
2
100
AcDbSymbolTableRecord
100
AcDbLayerTableRecord
  2
placement
 70
    0
 62
    1
  6
CONTINUOUS
370
    0
390
F
  0
LAYER
  5
4E
330
2
100
AcDbSymbolTableRecord
100
AcDbLayerTableRecord
  2
rpi
 70
    0
 62
    3
  6
CONTINUOUS
370
    0
390
F
  0
ENDTAB
  0
TABLE
  2
STYLE
  5
3
330
0
100
AcDbSymbolTable
 70
    3
  0
STYLE
  5
4F
330
2
100
AcDbSymbolTableRecord
100
AcDbTextStyleTableRecord
  2
Standard
 70
    0
 40
0
 41
1
 50
0
 71
    0
 42
1
  3
txt
  4

  0
ENDTAB
  0
TABLE
  2
VIEW
  5
6
330
0
100
AcDbSymbolTable
 70
    0
  0
ENDTAB
  0
TABLE
  2
UCS
  5
7
330
0
100
AcDbSymbolTable
 70
    0
  0
ENDTAB
  0
TABLE
  2
APPID
  5
9
330
0
100
AcDbSymbolTable
 70
    1
  0
APPID
  5
12
330
9
100
AcDbSymbolTableRecord
100
AcDbRegAppTableRecord
  2
ACAD
 70
    0
  0
APPID
  5
50
330
9
100
AcDbSymbolTableRecord
100
AcDbRegAppTableRecord
  2
LibreCad
 70
    0
  0
ENDTAB
  0
TABLE
  2
DIMSTYLE
  5
A
330
0
100
AcDbSymbolTable
 70
    1
100
AcDbDimStyleTable
 71
    1
  0
DIMSTYLE
105
51
330
A
100
AcDbSymbolTableRecord
100
AcDbDimStyleTableRecord
  2
Standard
 70
    0
 40
2.5
 41
2.5
 42
0.625
 43
0.38
 44
1.25
 45
0
 46
0
 47
0
 48
0
 49
1
140
2.5
141
0.09
142
0
143
25.4
144
1
145
0
146
1
147
0.625
148
0
 71
    0
 72
    0
 73
    0
 74
    1
 75
    0
 76
    0
 77
    0
 78
    8
 79
    0
170
    0
171
    2
172
    0
173
    0
174
    0
175
    0
176
    0
177
    0
178
    0
179
    0
271
    2
272
    4
273
    2
274
    2
275
    0
276
    0
277
    2
278
   44
279
    0
280
    0
281
    0
282
    0
283
    1
284
    0
285
    0
286
    0
288
    0
289
    3
340
STANDARD
341

371
   -2
372
   -2
  0
ENDTAB
  0
TABLE
  2
BLOCK_RECORD
  5
1
330
0
100
AcDbSymbolTable
 70
    2
  0
BLOCK_RECORD
  5
1F
330
1
100
AcDbSymbolTableRecord
100
AcDbBlockTableRecord
  2
*Model_Space
 70
    0
280
    1
281
    0
  0
BLOCK_RECORD
  5
1E
330
1
100
AcDbSymbolTableRecord
100
AcDbBlockTableRecord
  2
*Paper_Space
 70
    0
280
    1
281
    0
  0
ENDTAB
  0
ENDSEC
  0
SECTION
  2
BLOCKS
  0
BLOCK
  5
20
330
1F
100
AcDbEntity
  8
0
100
AcDbBlockBegin
  2
*Model_Space
 70
    0
 10
0
 20
0
 30
0
  3
*Model_Space
  1

  0
ENDBLK
  5
21
330
1F
100
AcDbEntity
  8
0
100
AcDbBlockEnd
  0
BLOCK
  5
1C
330
1B
100
AcDbEntity
  8
0
100
AcDbBlockBegin
  2
*Paper_Space
 70
    0
 10
0
 20
0
 30
0
  3
*Paper_Space
  1

  0
ENDBLK
  5
1D
330
1F
100
AcDbEntity
  8
0
100
AcDbBlockEnd
  0
ENDSEC
  0
SECTION
  2
ENTITIES
  0
LINE
  5
52
100
AcDbEntity
  8
0
  6
ByLayer
 62
  256
370
   -1
100
AcDbLine
 10
-86.85240428568548
 20
25.09527948691279
 11
-84.20811536744424
 21
43.91037279300263
  0
LINE
  5
53
100
AcDbEntity
  8
0
  6
ByLayer
 62
  256
370
   -1
100
AcDbLine
 10
-68.03731097959565
 20
22.45099056867155
 11
-65.3930220613544
 21
41.26608387476138
  0
LINE
  5
54
100
AcDbEntity
  8
0
  6
ByLayer
 62
  256
370
   -1
100
AcDbLine
 10
-49.22221767350581
 20
19.8067016504303
 11
-46.57792875526457
 21
38.62179495652013
  0
LINE
  5
55
100
AcDbEntity
  8
0
  6
ByLayer
 62
  256
370
   -1
100
AcDbLine
 10
-30.40712436741597
 20
17.16241273218905
 11
-27.76283544917472
 21
35.97750603827889
  0
LINE
  5
56
100
AcDbEntity
  8
0
  6
ByLayer
 62
  256
370
   -1
100
AcDbLine
 10
-11.59203106132614
 20
14.5181238139478
 11
-8.947742143084895
 21
33.33321712003765
  0
LINE
  5
57
100
AcDbEntity
  8
0
  6
ByLayer
 62
  256
370
   -1
100
AcDbLine
 10
-84.20811536744424
 20
43.91037279300263
 11
-8.947742143084895
 21
33.33321712003765
  0
LINE
  5
58
100
AcDbEntity
  8
0
  6
ByLayer
 62
  256
370
   -1
100
AcDbLine
 10
-84.79291987740427
 20
5.619113951262648
 11
-82.14863095916303
 21
24.43420725735248
  0
LINE
  5
59
100
AcDbEntity
  8
0
  6
ByLayer
 62
  256
370
   -1
100
AcDbLine
 10
-65.97782657131442
 20
2.9748250330214
 11
-63.33353765307318
 21
21.78991833911124
  0
LINE
  5
5A
100
AcDbEntity
  8
0
  6
ByLayer
 62
  256
370
   -1
100
AcDbLine
 10
-47.1627332652246
 20
0.330536114780152
 11
-44.51844434698335
 21
19.14562942086999
  0
LINE
  5
5B
100
AcDbEntity
  8
0
  6
ByLayer
 62
  256
370
   -1
100
AcDbLine
 10
-28.34763995913475
 20
-2.313752803461096
 11
-25.70335104089351
 21
16.50134050262874
  0
LINE
  5
5C
100
AcDbEntity
  8
0
  6
ByLayer
 62
  256
370
   -1
100
AcDbLine
 10
-9.532546653044918
 20
-4.958041721702344
 11
-6.888257734803673
 21
13.85705158438749
  0
LINE
  5
5D
100
AcDbEntity
  8
0
  6
ByLayer
 62
  256
370
   -1
100
AcDbLine
 10
-78.02966214260059
 20
-14.51812381394781
 11
-75.38537322435934
 21
4.296969492142026
  0
LINE
  5
5E
100
AcDbEntity
  8
0
  6
ByLayer
 62
  256
370
   -1
100
AcDbLine
 10
-59.21456883651076
 20
-17.16241273218905
 11
-56.57027991826951
 21
1.652680573900781
  0
LINE
  5
5F
100
AcDbEntity
  8
0
  6
ByLayer
 62
  256
370
   -1
100
AcDbLine
 10
-40.39947553042091
 20
-19.80670165043031
 11
-37.75518661217967
 21
-0.9916083443404666
  0
LINE
  5
60
100
AcDbEntity
  8
0
  6
ByLayer
 62
  256
370
   -1
100
AcDbLine
 10
-21.58438222433108
 20
-22.45099056867155
 11
-18.94009330608984
 21
-3.635897262581715
  0
LINE
  5
61
100
AcDbEntity
  8
0
  6
ByLayer
 62
  256
370
   -1
100
AcDbLine
 10
-2.769288918241244
 20
-25.09527948691279
 11
-0.125
 21
-6.280186180822959
  0
LINE
  5
62
100
AcDbEntity
  8
0
  6
ByLayer
 62
  256
370
   -1
100
AcDbLine
 10
-86.85240428568548
 20
25.09527948691279
 11
-6.888257734803673
 21
13.85705158438749
  0
LINE
  5
63
100
AcDbEntity
  8
0
  6
ByLayer
 62
  256
370
   -1
100
AcDbLine
 10
-84.79291987740427
 20
5.619113951262648
 11
-0.125
 21
-6.280186180822959
  0
LINE
  5
64
100
AcDbEntity
  8
0
  6
ByLayer
 62
  256
370
   -1
100
AcDbLine
 10
-78.02966214260059
 20
-14.51812381394781
 11
-2.769288918241244
 21
-25.09527948691279
  0
LINE
  5
65
100
AcDbEntity
  8
0
  6
ByLayer
 62
  256
370
   -1
100
AcDbLine
 10
7.519288918241259
 20
-25.09527948691279
 11
4.875000000000014
 21
-6.280186180822955
  0
LINE
  5
66
100
AcDbEntity
  8
0
  6
ByLayer
 62
  256
370
   -1
100
AcDbLine
 10
14.28254665304493
 20
-4.95804172170234
 11
11.63825773480369
 21
13.8570515843875
  0
LINE
  5
67
100
AcDbEntity
  8
0
  6
ByLayer
 62
  256
370
   -1
100
AcDbLine
 10
6.934484408281236
 20
13.19597935482718
 11
4.290195490039991
 21
32.01107266091703
  0
LINE
  5
68
100
AcDbEntity
  8
0
  6
ByLayer
 62
  256
370
   -1
100
AcDbLine
 10
25.74957771437107
 20
15.84026827306842
 11
23.10528879612983
 21
34.65536157915827
  0
LINE
  5
69
100
AcDbEntity
  8
0
  6
ByLayer
 62
  256
370
   -1
100
AcDbLine
 10
33.09763995913478
 20
-2.313752803461099
 11
30.45335104089354
 21
16.50134050262874
  0
LINE
  5
6A
100
AcDbEntity
  8
0
  6
ByLayer
 62
  256
370
   -1
100
AcDbLine
 10
26.33438222433109
 20
-22.45099056867156
 11
23.69009330608985
 21
-3.635897262581715
  0
LINE
  5
6B
100
AcDbEntity
  8
0
  6
ByLayer
 62
  256
370
   -1
100
AcDbLine
 10
45.14947553042091
 20
-19.80670165043032
 11
42.5051866121797
 21
-0.9916083443404773
  0
LINE
  5
6C
100
AcDbEntity
  8
0
  6
ByLayer
 62
  256
370
   -1
100
AcDbLine
 10
44.56467102046091
 20
18.48455719130966
 11
41.92038210221963
 21
37.29965049739951
  0
LINE
  5
6D
100
AcDbEntity
  8
0
  6
ByLayer
 62
  256
370
   -1
100
AcDbLine
 10
63.37976432655077
 20
21.1288461095509
 11
60.7354754083095
 21
39.94393941564075
  0
LINE
  5
6E
100
AcDbEntity
  8
0
  6
ByLayer
 62
  256
370
   -1
100
AcDbLine
 10
82.19485763264058
 20
23.77313502779213
 11
79.5505687143993
 21
42.58822833388199
  0
LINE
  5
6F
100
AcDbEntity
  8
0
  6
ByLayer
 62
  256
370
   -1
100
AcDbLine
 10
51.9127332652246
 20
0.3305361147801378
 11
49.26844434698339
 21
19.14562942086997
  0
LINE
  5
70
100
AcDbEntity
  8
0
  6
ByLayer
 62
  256
370
   -1
100
AcDbLine
 10
70.72782657131441
 20
2.974825033021379
 11
68.08353765307319
 21
21.78991833911122
  0
LINE
  5
71
100
AcDbEntity
  8
0
  6
ByLayer
 62
  256
370
   -1
100
AcDbLine
 10
89.54291987740427
 20
5.619113951262619
 11
86.898630959163
 21
24.43420725735245
  0
LINE
  5
72
100
AcDbEntity
  8
0
  6
ByLayer
 62
  256
370
   -1
100
AcDbLine
 10
63.96456883651078
 20
-17.16241273218909
 11
61.32027991826951
 21
1.652680573900764
  0
LINE
  5
73
100
AcDbEntity
  8
0
  6
ByLayer
 62
  256
370
   -1
100
AcDbLine
 10
82.77966214260059
 20
-14.51812381394785
 11
80.13537322435937
 21
4.296969492142004
  0
LINE
  5
74
100
AcDbEntity
  8
0
  6
ByLayer
 62
  256
370
   -1
100
AcDbLine
 10
4.290195490039991
 20
32.01107266091703
 11
79.5505687143993
 21
42.58822833388199
  0
LINE
  5
75
100
AcDbEntity
  8
0
  6
ByLayer
 62
  256
370
   -1
100
AcDbLine
 10
86.898630959163
 20
24.43420725735245
 11
6.934484408281236
 21
13.19597935482718
  0
LINE
  5
76
100
AcDbEntity
  8
0
  6
ByLayer
 62
  256
370
   -1
100
AcDbLine
 10
4.875000000000014
 20
-6.280186180822955
 11
89.54291987740427
 21
5.619113951262619
  0
LINE
  5
77
100
AcDbEntity
  8
0
  6
ByLayer
 62
  256
370
   -1
100
AcDbLine
 10
82.77966214260059
 20
-14.51812381394785
 11
7.519288918241259
 21
-25.09527948691279
  0
LINE
  5
78
100
AcDbEntity
  8
mx
  6
ByLayer
 62
  256
370
   -1
100
AcDbLine
 10
-84.02880136143139
 20
27.22301690636656
 11
-82.08037794799047
 21
41.08676986874853
  0
LINE
  5
79
100
AcDbEntity
  8
mx
  6
ByLayer
 62
  256
370
   -1
100
AcDbLine
 10
-82.08037794799047
 20
41.08676986874853
 11
-68.21662498560849
 21
39.13834645530762
  0
LINE
  5
7A
100
AcDbEntity
  8
mx
  6
ByLayer
 62
  256
370
   -1
100
AcDbLine
 10
-84.02880136143139
 20
27.22301690636656
 11
-70.16504839904941
 21
25.27459349292564
  0
LINE
  5
7B
100
AcDbEntity
  8
mx
  6
ByLayer
 62
  256
370
   -1
100
AcDbLine
 10
-70.16504839904941
 20
25.27459349292564
 11
-68.21662498560849
 21
39.13834645530762
  0
LINE
  5
7C
100
AcDbEntity
  8
mx
  6
ByLayer
 62
  256
370
   -1
100
AcDbLine
 10
-65.21370805534156
 20
24.57872798812531
 11
-63.26528464190064
 21
38.44248095050729
  0
LINE
  5
7D
100
AcDbEntity
  8
mx
  6
ByLayer
 62
  256
370
   -1
100
AcDbLine
 10
-63.26528464190064
 20
38.44248095050729
 11
-49.40153167951865
 21
36.49405753706637
  0
LINE
  5
7E
100
AcDbEntity
  8
mx
  6
ByLayer
 62
  256
370
   -1
100
AcDbLine
 10
-65.21370805534156
 20
24.57872798812531
 11
-51.34995509295958
 21
22.63030457468439
  0
LINE
  5
7F
100
AcDbEntity
  8
mx
  6
ByLayer
 62
  256
370
   -1
100
AcDbLine
 10
-51.34995509295958
 20
22.63030457468439
 11
-49.40153167951865
 21
36.49405753706637
  0
LINE
  5
80
100
AcDbEntity
  8
mx
  6
ByLayer
 62
  256
370
   -1
100
AcDbLine
 10
-46.39861474925172
 20
21.93443906988406
 11
-44.45019133581081
 21
35.79819203226604
  0
LINE
  5
81
100
AcDbEntity
  8
mx
  6
ByLayer
 62
  256
370
   -1
100
AcDbLine
 10
-44.45019133581081
 20
35.79819203226604
 11
-30.58643837342882
 21
33.84976861882512
  0
LINE
  5
82
100
AcDbEntity
  8
mx
  6
ByLayer
 62
  256
370
   -1
100
AcDbLine
 10
-46.39861474925172
 20
21.93443906988406
 11
-32.53486178686974
 21
19.98601565644314
  0
LINE
  5
83
100
AcDbEntity
  8
mx
  6
ByLayer
 62
  256
370
   -1
100
AcDbLine
 10
-32.53486178686974
 20
19.98601565644314
 11
-30.58643837342882
 21
33.84976861882512
  0
LINE
  5
84
100
AcDbEntity
  8
mx
  6
ByLayer
 62
  256
370
   -1
100
AcDbLine
 10
-27.58352144316188
 20
19.29015015164282
 11
-25.63509802972096
 21
33.1539031140248
  0
LINE
  5
85
100
AcDbEntity
  8
mx
  6
ByLayer
 62
  256
370
   -1
100
AcDbLine
 10
-25.63509802972096
 20
33.1539031140248
 11
-11.77134506733898
 21
31.20547970058388
  0
LINE
  5
86
100
AcDbEntity
  8
mx
  6
ByLayer
 62
  256
370
   -1
100
AcDbLine
 10
-27.58352144316188
 20
19.29015015164282
 11
-13.71976848077989
 21
17.3417267382019
  0
LINE
  5
87
100
AcDbEntity
  8
mx
  6
ByLayer
 62
  256
370
   -1
100
AcDbLine
 10
-13.71976848077989
 20
17.3417267382019
 11
-11.77134506733898
 21
31.20547970058388
  0
LINE
  5
88
100
AcDbEntity
  8
mx
  6
ByLayer
 62
  256
370
   -1
100
AcDbLine
 10
-81.96931695315018
 20
7.74685137071641
 11
-80.02089353970926
 21
21.61060433309839
  0
LINE
  5
89
100
AcDbEntity
  8
mx
  6
ByLayer
 62
  256
370
   -1
100
AcDbLine
 10
-80.02089353970926
 20
21.61060433309839
 11
-66.15714057732728
 21
19.66218091965747
  0
LINE
  5
8A
100
AcDbEntity
  8
mx
  6
ByLayer
 62
  256
370
   -1
100
AcDbLine
 10
-81.96931695315018
 20
7.74685137071641
 11
-68.10556399076819
 21
5.798427957275493
  0
LINE
  5
8B
100
AcDbEntity
  8
mx
  6
ByLayer
 62
  256
370
   -1
100
AcDbLine
 10
-68.10556399076819
 20
5.798427957275493
 11
-66.15714057732728
 21
19.66218091965747
  0
LINE
  5
8C
100
AcDbEntity
  8
mx
  6
ByLayer
 62
  256
370
   -1
100
AcDbLine
 10
-63.15422364706033
 20
5.102562452475162
 11
-61.20580023361942
 21
18.96631541485714
  0
LINE
  5
8D
100
AcDbEntity
  8
mx
  6
ByLayer
 62
  256
370
   -1
100
AcDbLine
 10
-61.20580023361942
 20
18.96631541485714
 11
-47.34204727123743
 21
17.01789200141622
  0
LINE
  5
8E
100
AcDbEntity
  8
mx
  6
ByLayer
 62
  256
370
   -1
100
AcDbLine
 10
-63.15422364706033
 20
5.102562452475162
 11
-49.29047068467835
 21
3.154139039034245
  0
LINE
  5
8F
100
AcDbEntity
  8
mx
  6
ByLayer
 62
  256
370
   -1
100
AcDbLine
 10
-49.29047068467835
 20
3.154139039034245
 11
-47.34204727123743
 21
17.01789200141622
  0
LINE
  5
90
100
AcDbEntity
  8
mx
  6
ByLayer
 62
  256
370
   -1
100
AcDbLine
 10
-44.33913034097051
 20
2.458273534233914
 11
-42.39070692752959
 21
16.32202649661589
  0
LINE
  5
91
100
AcDbEntity
  8
mx
  6
ByLayer
 62
  256
370
   -1
100
AcDbLine
 10
-42.39070692752959
 20
16.32202649661589
 11
-28.52695396514761
 21
14.37360308317498
  0
LINE
  5
92
100
AcDbEntity
  8
mx
  6
ByLayer
 62
  256
370
   -1
100
AcDbLine
 10
-44.33913034097051
 20
2.458273534233914
 11
-30.47537737858852
 21
0.5098501207929971
  0
LINE
  5
93
100
AcDbEntity
  8
mx
  6
ByLayer
 62
  256
370
   -1
100
AcDbLine
 10
-30.47537737858852
 20
0.5098501207929971
 11
-28.52695396514761
 21
14.37360308317498
  0
LINE
  5
94
100
AcDbEntity
  8
mx
  6
ByLayer
 62
  256
370
   -1
100
AcDbLine
 10
-25.52403703488066
 20
-0.1860153840073338
 11
-23.57561362143975
 21
13.67773757837465
  0
LINE
  5
95
100
AcDbEntity
  8
mx
  6
ByLayer
 62
  256
370
   -1
100
AcDbLine
 10
-23.57561362143975
 20
13.67773757837465
 11
-9.711860659057763
 21
11.72931416493373
  0
LINE
  5
96
100
AcDbEntity
  8
mx
  6
ByLayer
 62
  256
370
   -1
100
AcDbLine
 10
-25.52403703488066
 20
-0.1860153840073338
 11
-11.66028407249868
 21
-2.134438797448247
  0
LINE
  5
97
100
AcDbEntity
  8
mx
  6
ByLayer
 62
  256
370
   -1
100
AcDbLine
 10
-11.66028407249868
 20
-2.134438797448247
 11
-9.711860659057763
 21
11.72931416493373
  0
LINE
  5
98
100
AcDbEntity
  8
mx
  6
ByLayer
 62
  256
370
   -1
100
AcDbLine
 10
-75.2060592183465
 20
-12.39038639449405
 11
-73.25763580490559
 21
1.473366567887933
  0
LINE
  5
99
100
AcDbEntity
  8
mx
  6
ByLayer
 62
  256
370
   -1
100
AcDbLine
 10
-73.25763580490559
 20
1.473366567887933
 11
-59.3938828425236
 21
-0.4750568455529844
  0
LINE
  5
9A
100
AcDbEntity
  8
mx
  6
ByLayer
 62
  256
370
   -1
100
AcDbLine
 10
-75.2060592183465
 20
-12.39038639449405
 11
-61.34230625596452
 21
-14.33880980793496
  0
LINE
  5
9B
100
AcDbEntity
  8
mx
  6
ByLayer
 62
  256
370
   -1
100
AcDbLine
 10
-61.34230625596452
 20
-14.33880980793496
 11
-59.3938828425236
 21
-0.4750568455529844
  0
LINE
  5
9C
100
AcDbEntity
  8
mx
  6
ByLayer
 62
  256
370
   -1
100
AcDbLine
 10
-56.39096591225667
 20
-15.0346753127353
 11
-54.44254249881575
 21
-1.170922350353312
  0
LINE
  5
9D
100
AcDbEntity
  8
mx
  6
ByLayer
 62
  256
370
   -1
100
AcDbLine
 10
-54.44254249881575
 20
-1.170922350353312
 11
-40.57878953643377
 21
-3.119345763794229
  0
LINE
  5
9E
100
AcDbEntity
  8
mx
  6
ByLayer
 62
  256
370
   -1
100
AcDbLine
 10
-56.39096591225667
 20
-15.0346753127353
 11
-42.52721294987468
 21
-16.98309872617621
  0
LINE
  5
9F
100
AcDbEntity
  8
mx
  6
ByLayer
 62
  256
370
   -1
100
AcDbLine
 10
-42.52721294987468
 20
-16.98309872617621
 11
-40.57878953643377
 21
-3.119345763794229
  0
LINE
  5
A0
100
AcDbEntity
  8
mx
  6
ByLayer
 62
  256
370
   -1
100
AcDbLine
 10
-37.57587260616683
 20
-17.67896423097654
 11
-35.62744919272591
 21
-3.81521126859456
  0
LINE
  5
A1
100
AcDbEntity
  8
mx
  6
ByLayer
 62
  256
370
   -1
100
AcDbLine
 10
-35.62744919272591
 20
-3.81521126859456
 11
-21.76369623034392
 21
-5.76363468203548
  0
LINE
  5
A2
100
AcDbEntity
  8
mx
  6
ByLayer
 62
  256
370
   -1
100
AcDbLine
 10
-37.57587260616683
 20
-17.67896423097654
 11
-23.71211964378485
 21
-19.62738764441746
  0
LINE
  5
A3
100
AcDbEntity
  8
mx
  6
ByLayer
 62
  256
370
   -1
100
AcDbLine
 10
-23.71211964378485
 20
-19.62738764441746
 11
-21.76369623034392
 21
-5.76363468203548
  0
LINE
  5
A4
100
AcDbEntity
  8
mx
  6
ByLayer
 62
  256
370
   -1
100
AcDbLine
 10
-18.76077930007699
 20
-20.32325314921778
 11
-16.81235588663607
 21
-6.459500186835808
  0
LINE
  5
A5
100
AcDbEntity
  8
mx
  6
ByLayer
 62
  256
370
   -1
100
AcDbLine
 10
-16.81235588663607
 20
-6.459500186835808
 11
-2.948602924254089
 21
-8.407923600276725
  0
LINE
  5
A6
100
AcDbEntity
  8
mx
  6
ByLayer
 62
  256
370
   -1
100
AcDbLine
 10
-18.76077930007699
 20
-20.32325314921778
 11
-4.89702633769501
 21
-22.2716765626587
  0
LINE
  5
A7
100
AcDbEntity
  8
mx
  6
ByLayer
 62
  256
370
   -1
100
AcDbLine
 10
-4.89702633769501
 20
-22.2716765626587
 11
-2.948602924254089
 21
-8.407923600276725
  0
LINE
  5
A8
100
AcDbEntity
  8
mx
  6
ByLayer
 62
  256
370
   -1
100
AcDbLine
 10
44.74398502647372
 20
35.17191307794575
 11
58.60773798885575
 21
37.12033649138667
  0
LINE
  5
A9
100
AcDbEntity
  8
mx
  6
ByLayer
 62
  256
370
   -1
100
AcDbLine
 10
60.55616140229668
 20
23.25658352900467
 11
58.60773798885575
 21
37.12033649138667
  0
LINE
  5
AA
100
AcDbEntity
  8
mx
  6
ByLayer
 62
  256
370
   -1
100
AcDbLine
 10
46.69240843991469
 20
21.30816011556375
 11
44.74398502647372
 21
35.17191307794575
  0
LINE
  5
AB
100
AcDbEntity
  8
mx
  6
ByLayer
 62
  256
370
   -1
100
AcDbLine
 10
60.55616140229668
 20
23.25658352900467
 11
46.69240843991469
 21
21.30816011556375
  0
LINE
  5
AC
100
AcDbEntity
  8
mx
  6
ByLayer
 62
  256
370
   -1
100
AcDbLine
 10
63.55907833256356
 20
37.81620199618699
 11
77.42283129494558
 21
39.76462540962791
  0
LINE
  5
AD
100
AcDbEntity
  8
mx
  6
ByLayer
 62
  256
370
   -1
100
AcDbLine
 10
79.37125470838652
 20
25.90087244724592
 11
77.42283129494558
 21
39.76462540962791
  0
LINE
  5
AE
100
AcDbEntity
  8
mx
  6
ByLayer
 62
  256
370
   -1
100
AcDbLine
 10
65.50750174600452
 20
23.952449033805
 11
63.55907833256356
 21
37.81620199618699
  0
LINE
  5
AF
100
AcDbEntity
  8
mx
  6
ByLayer
 62
  256
370
   -1
100
AcDbLine
 10
79.37125470838652
 20
25.90087244724592
 11
65.50750174600452
 21
23.952449033805
  0
LINE
  5
B0
100
AcDbEntity
  8
mx
  6
ByLayer
 62
  256
370
   -1
100
AcDbLine
 10
25.92889172038386
 20
32.52762415970451
 11
39.79264468276588
 21
34.47604757314543
  0
LINE
  5
B1
100
AcDbEntity
  8
mx
  6
ByLayer
 62
  256
370
   -1
100
AcDbLine
 10
41.74106809620682
 20
20.61229461076343
 11
39.79264468276588
 21
34.47604757314543
  0
LINE
  5
B2
100
AcDbEntity
  8
mx
  6
ByLayer
 62
  256
370
   -1
100
AcDbLine
 10
27.87731513382482
 20
18.66387119732251
 11
25.92889172038386
 21
32.52762415970451
  0
LINE
  5
B3
100
AcDbEntity
  8
mx
  6
ByLayer
 62
  256
370
   -1
100
AcDbLine
 10
41.74106809620682
 20
20.61229461076343
 11
27.87731513382482
 21
18.66387119732251
  0
LINE
  5
B4
100
AcDbEntity
  8
mx
  6
ByLayer
 62
  256
370
   -1
100
AcDbLine
 10
7.113798414294038
 20
29.88333524146327
 11
20.97755137667606
 21
31.83175865490419
  0
LINE
  5
B5
100
AcDbEntity
  8
mx
  6
ByLayer
 62
  256
370
   -1
100
AcDbLine
 10
22.925974790117
 20
17.96800569252219
 11
20.97755137667606
 21
31.83175865490419
  0
LINE
  5
B6
100
AcDbEntity
  8
mx
  6
ByLayer
 62
  256
370
   -1
100
AcDbLine
 10
9.062221827735002
 20
16.01958227908127
 11
7.113798414294038
 21
29.88333524146327
  0
LINE
  5
B7
100
AcDbEntity
  8
mx
  6
ByLayer
 62
  256
370
   -1
100
AcDbLine
 10
22.925974790117
 20
17.96800569252219
 11
9.062221827735002
 21
16.01958227908127
  0
LINE
  5
B8
100
AcDbEntity
  8
mx
  6
ByLayer
 62
  256
370
   -1
100
AcDbLine
 10
14.46186065905775
 20
11.72931416493373
 11
28.32561362143977
 21
13.67773757837465
  0
LINE
  5
B9
100
AcDbEntity
  8
mx
  6
ByLayer
 62
  256
370
   -1
100
AcDbLine
 10
30.27403703488071
 20
-0.186015384007348
 11
28.32561362143977
 21
13.67773757837465
  0
LINE
  5
BA
100
AcDbEntity
  8
mx
  6
ByLayer
 62
  256
370
   -1
100
AcDbLine
 10
16.41028407249871
 20
-2.134438797448269
 11
14.46186065905775
 21
11.72931416493373
  0
LINE
  5
BB
100
AcDbEntity
  8
mx
  6
ByLayer
 62
  256
370
   -1
100
AcDbLine
 10
30.27403703488071
 20
-0.186015384007348
 11
16.41028407249871
 21
-2.134438797448269
  0
LINE
  5
BC
100
AcDbEntity
  8
mx
  6
ByLayer
 62
  256
370
   -1
100
AcDbLine
 10
33.27695396514761
 20
14.37360308317497
 11
47.14070692752964
 21
16.32202649661589
  0
LINE
  5
BD
100
AcDbEntity
  8
mx
  6
ByLayer
 62
  256
370
   -1
100
AcDbLine
 10
49.08913034097057
 20
2.458273534233893
 11
47.14070692752964
 21
16.32202649661589
  0
LINE
  5
BE
100
AcDbEntity
  8
mx
  6
ByLayer
 62
  256
370
   -1
100
AcDbLine
 10
35.22537737858858
 20
0.5098501207929758
 11
33.27695396514761
 21
14.37360308317497
  0
LINE
  5
BF
100
AcDbEntity
  8
mx
  6
ByLayer
 62
  256
370
   -1
100
AcDbLine
 10
49.08913034097057
 20
2.458273534233893
 11
35.22537737858858
 21
0.5098501207929758
  0
LINE
  5
C0
100
AcDbEntity
  8
mx
  6
ByLayer
 62
  256
370
   -1
100
AcDbLine
 10
52.09204727123742
 20
17.01789200141621
 11
65.95580023361944
 21
18.96631541485713
  0
LINE
  5
C1
100
AcDbEntity
  8
mx
  6
ByLayer
 62
  256
370
   -1
100
AcDbLine
 10
67.90422364706038
 20
5.102562452475134
 11
65.95580023361944
 21
18.96631541485713
  0
LINE
  5
C2
100
AcDbEntity
  8
mx
  6
ByLayer
 62
  256
370
   -1
100
AcDbLine
 10
54.04047068467838
 20
3.154139039034217
 11
52.09204727123742
 21
17.01789200141621
  0
LINE
  5
C3
100
AcDbEntity
  8
mx
  6
ByLayer
 62
  256
370
   -1
100
AcDbLine
 10
67.90422364706038
 20
5.102562452475134
 11
54.04047068467838
 21
3.154139039034217
  0
LINE
  5
C4
100
AcDbEntity
  8
mx
  6
ByLayer
 62
  256
370
   -1
100
AcDbLine
 10
70.90714057732723
 20
19.66218091965744
 11
84.77089353970925
 21
21.61060433309837
  0
LINE
  5
C5
100
AcDbEntity
  8
mx
  6
ByLayer
 62
  256
370
   -1
100
AcDbLine
 10
86.71931695315018
 20
7.746851370716364
 11
84.77089353970925
 21
21.61060433309837
  0
LINE
  5
C6
100
AcDbEntity
  8
mx
  6
ByLayer
 62
  256
370
   -1
100
AcDbLine
 10
72.85556399076819
 20
5.79842795727545
 11
70.90714057732723
 21
19.66218091965744
  0
LINE
  5
C7
100
AcDbEntity
  8
mx
  6
ByLayer
 62
  256
370
   -1
100
AcDbLine
 10
86.71931695315018
 20
7.746851370716364
 11
72.85556399076819
 21
5.79842795727545
  0
LINE
  5
C8
100
AcDbEntity
  8
mx
  6
ByLayer
 62
  256
370
   -1
100
AcDbLine
 10
64.1438828425236
 20
-0.4750568455529987
 11
78.00763580490562
 21
1.473366567887922
  0
LINE
  5
C9
100
AcDbEntity
  8
mx
  6
ByLayer
 62
  256
370
   -1
100
AcDbLine
 10
79.95605921834655
 20
-12.39038639449408
 11
78.00763580490562
 21
1.473366567887922
  0
LINE
  5
CA
100
AcDbEntity
  8
mx
  6
ByLayer
 62
  256
370
   -1
100
AcDbLine
 10
66.09230625596456
 20
-14.33880980793499
 11
64.1438828425236
 21
-0.4750568455529987
  0
LINE
  5
CB
100
AcDbEntity
  8
mx
  6
ByLayer
 62
  256
370
   -1
100
AcDbLine
 10
79.95605921834655
 20
-12.39038639449408
 11
66.09230625596456
 21
-14.33880980793499
  0
LINE
  5
CC
100
AcDbEntity
  8
mx
  6
ByLayer
 62
  256
370
   -1
100
AcDbLine
 10
45.32878953643373
 20
-3.119345763794239
 11
59.19254249881575
 21
-1.170922350353319
  0
LINE
  5
CD
100
AcDbEntity
  8
mx
  6
ByLayer
 62
  256
370
   -1
100
AcDbLine
 10
61.14096591225669
 20
-15.03467531273532
 11
59.19254249881575
 21
-1.170922350353319
  0
LINE
  5
CE
100
AcDbEntity
  8
mx
  6
ByLayer
 62
  256
370
   -1
100
AcDbLine
 10
47.27721294987469
 20
-16.98309872617623
 11
45.32878953643373
 21
-3.119345763794239
  0
LINE
  5
CF
100
AcDbEntity
  8
mx
  6
ByLayer
 62
  256
370
   -1
100
AcDbLine
 10
61.14096591225669
 20
-15.03467531273532
 11
47.27721294987469
 21
-16.98309872617623
  0
LINE
  5
D0
100
AcDbEntity
  8
mx
  6
ByLayer
 62
  256
370
   -1
100
AcDbLine
 10
26.51369623034392
 20
-5.76363468203548
 11
40.37744919272595
 21
-3.81521126859456
  0
LINE
  5
D1
100
AcDbEntity
  8
mx
  6
ByLayer
 62
  256
370
   -1
100
AcDbLine
 10
42.32587260616688
 20
-17.67896423097655
 11
40.37744919272595
 21
-3.81521126859456
  0
LINE
  5
D2
100
AcDbEntity
  8
mx
  6
ByLayer
 62
  256
370
   -1
100
AcDbLine
 10
28.46211964378489
 20
-19.62738764441747
 11
26.51369623034392
 21
-5.76363468203548
  0
LINE
  5
D3
100
AcDbEntity
  8
mx
  6
ByLayer
 62
  256
370
   -1
100
AcDbLine
 10
42.32587260616688
 20
-17.67896423097655
 11
28.46211964378489
 21
-19.62738764441747
  0
LINE
  5
D4
100
AcDbEntity
  8
mx
  6
ByLayer
 62
  256
370
   -1
100
AcDbLine
 10
7.698602924254061
 20
-8.407923600276717
 11
21.56235588663608
 21
-6.459500186835797
  0
LINE
  5
D5
100
AcDbEntity
  8
mx
  6
ByLayer
 62
  256
370
   -1
100
AcDbLine
 10
23.51077930007702
 20
-20.3232531492178
 11
21.56235588663608
 21
-6.459500186835797
  0
LINE
  5
D6
100
AcDbEntity
  8
mx
  6
ByLayer
 62
  256
370
   -1
100
AcDbLine
 10
9.647026337695024
 20
-22.27167656265871
 11
7.698602924254061
 21
-8.407923600276717
  0
LINE
  5
D7
100
AcDbEntity
  8
mx
  6
ByLayer
 62
  256
370
   -1
100
AcDbLine
 10
23.51077930007702
 20
-20.3232531492178
 11
9.647026337695024
 21
-22.27167656265871
  0
LINE
  5
D8
100
AcDbEntity
  8
rpi
  6
ByLayer
 62
  256
370
   -1
100
AcDbLine
 10
-9.711860659057763
 20
16.04259028707999
 11
8.288139340942237
 21
16.04259028707999
  0
LINE
  5
D9
100
AcDbEntity
  8
rpi
  6
ByLayer
 62
  256
370
   -1
100
AcDbLine
 10
8.288139340942237
 20
16.04259028707999
 11
8.288139340942237
 21
-7.457409712920011
  0
LINE
  5
DA
100
AcDbEntity
  8
rpi
  6
ByLayer
 62
  256
370
   -1
100
AcDbLine
 10
8.288139340942237
 20
-7.457409712920011
 11
-9.711860659057763
 21
-7.457409712920011
  0
LINE
  5
DB
100
AcDbEntity
  8
rpi
  6
ByLayer
 62
  256
370
   -1
100
AcDbLine
 10
-9.711860659057763
 20
-7.457409712920011
 11
-9.711860659057763
 21
16.04259028707999
  0
CIRCLE
  5
DC
100
AcDbEntity
  8
rpi
  6
ByLayer
 62
  256
370
   -1
100
AcDbCircle
 10
-8.331860659057767
 20
-5.867409712920008
 40
0.5
  0
CIRCLE
  5
DD
100
AcDbEntity
  8
rpi
  6
ByLayer
 62
  256
370
   -1
100
AcDbCircle
 10
-5.791860659057761
 20
-5.867409712920008
 40
0.5
  0
CIRCLE
  5
DE
100
AcDbEntity
  8
rpi
  6
ByLayer
 62
  256
370
   -1
100
AcDbCircle
 10
-3.251860659057769
 20
-5.867409712920008
 40
0.5
  0
CIRCLE
  5
DF
100
AcDbEntity
  8
rpi
  6
ByLayer
 62
  256
370
   -1
100
AcDbCircle
 10
-0.7118606590577627
 20
-5.867409712920008
 40
0.5
  0
CIRCLE
  5
E0
100
AcDbEntity
  8
rpi
  6
ByLayer
 62
  256
370
   -1
100
AcDbCircle
 10
1.828139340942244
 20
-5.867409712920011
 40
0.5
  0
CIRCLE
  5
E1
100
AcDbEntity
  8
rpi
  6
ByLayer
 62
  256
370
   -1
100
AcDbCircle
 10
4.368139340942236
 20
-5.867409712920011
 40
0.5
  0
CIRCLE
  5
E2
100
AcDbEntity
  8
rpi
  6
ByLayer
 62
  256
370
   -1
100
AcDbCircle
 10
6.908139340942242
 20
-5.867409712920011
 40
0.5
  0
CIRCLE
  5
E3
100
AcDbEntity
  8
rpi
  6
ByLayer
 62
  256
370
   -1
100
AcDbCircle
 10
6.908139340942242
 20
-3.327409712920012
 40
0.5
  0
CIRCLE
  5
E4
100
AcDbEntity
  8
rpi
  6
ByLayer
 62
  256
370
   -1
100
AcDbCircle
 10
6.908139340942242
 20
-0.7874097129200059
 40
0.5
  0
CIRCLE
  5
E5
100
AcDbEntity
  8
rpi
  6
ByLayer
 62
  256
370
   -1
100
AcDbCircle
 10
6.908139340942242
 20
1.75259028707999
 40
0.5
  0
CIRCLE
  5
E6
100
AcDbEntity
  8
rpi
  6
ByLayer
 62
  256
370
   -1
100
AcDbCircle
 10
6.908139340942242
 20
4.292590287079989
 40
0.5
  0
CIRCLE
  5
E7
100
AcDbEntity
  8
rpi
  6
ByLayer
 62
  256
370
   -1
100
AcDbCircle
 10
6.908139340942242
 20
6.832590287079991
 40
0.5
  0
CIRCLE
  5
E8
100
AcDbEntity
  8
rpi
  6
ByLayer
 62
  256
370
   -1
100
AcDbCircle
 10
6.908139340942242
 20
9.372590287079989
 40
0.5
  0
CIRCLE
  5
E9
100
AcDbEntity
  8
rpi
  6
ByLayer
 62
  256
370
   -1
100
AcDbCircle
 10
6.908139340942242
 20
11.91259028707999
 40
0.5
  0
CIRCLE
  5
EA
100
AcDbEntity
  8
rpi
  6
ByLayer
 62
  256
370
   -1
100
AcDbCircle
 10
6.908139340942242
 20
14.45259028707999
 40
0.5
  0
CIRCLE
  5
EB
100
AcDbEntity
  8
rpi
  6
ByLayer
 62
  256
370
   -1
100
AcDbCircle
 10
-8.331860659057767
 20
14.45259028707999
 40
0.5
  0
CIRCLE
  5
EC
100
AcDbEntity
  8
rpi
  6
ByLayer
 62
  256
370
   -1
100
AcDbCircle
 10
-8.331860659057767
 20
11.91259028708
 40
0.5
  0
CIRCLE
  5
ED
100
AcDbEntity
  8
rpi
  6
ByLayer
 62
  256
370
   -1
100
AcDbCircle
 10
-8.331860659057767
 20
9.372590287079992
 40
0.5
  0
CIRCLE
  5
EE
100
AcDbEntity
  8
rpi
  6
ByLayer
 62
  256
370
   -1
100
AcDbCircle
 10
-8.331860659057767
 20
6.832590287079995
 40
0.5
  0
CIRCLE
  5
EF
100
AcDbEntity
  8
rpi
  6
ByLayer
 62
  256
370
   -1
100
AcDbCircle
 10
-8.331860659057767
 20
4.292590287079992
 40
0.5
  0
CIRCLE
  5
F0
100
AcDbEntity
  8
rpi
  6
ByLayer
 62
  256
370
   -1
100
AcDbCircle
 10
-8.331860659057767
 20
1.752590287079993
 40
0.5
  0
CIRCLE
  5
F1
100
AcDbEntity
  8
rpi
  6
ByLayer
 62
  256
370
   -1
100
AcDbCircle
 10
-8.331860659057767
 20
-0.7874097129200024
 40
0.5
  0
CIRCLE
  5
F2
100
AcDbEntity
  8
rpi
  6
ByLayer
 62
  256
370
   -1
100
AcDbCircle
 10
-8.331860659057767
 20
-3.327409712920009
 40
0.5
  0
LINE
  5
F3
100
AcDbEntity
  8
0
  6
ByLayer
 62
  256
370
   -1
100
AcDbLine
 10
82.10194998969962
 20
24.43420725735245
 11
82.10194998969962
 21
43.43420725735245
  0
LINE
  5
F4
100
AcDbEntity
  8
0
  6
ByLayer
 62
  256
370
   -1
100
AcDbLine
 10
82.77966214260059
 20
-14.51812381394785
 11
82.77966214260059
 21
4.481876186052155
  0
LINE
  5
F5
100
AcDbEntity
  8
0
  6
ByLayer
 62
  256
370
   -1
100
AcDbLine
 10
89.54291987740427
 20
4.958041721702301
 11
89.54291987740427
 21
23.9580417217023
  0
LINE
  5
F6
100
AcDbEntity
  8
0
  6
ByLayer
 62
  256
370
   -1
100
AcDbLine
 10
-78.02966214260064
 20
4.48187618605219
 11
-78.02966214260064
 21
-14.51812381394781
  0
LINE
  5
F7
100
AcDbEntity
  8
0
  6
ByLayer
 62
  256
370
   -1
100
AcDbLine
 10
-86.85240428568548
 20
25.09527948691279
 11
-86.85240428568548
 21
43.91037279300263
  0
LINE
  5
F8
100
AcDbEntity
  8
0
  6
ByLayer
 62
  256
370
   -1
100
AcDbLine
 10
-84.79291987740427
 20
5.288577836482492
 11
-84.79291987740426
 21
24.28857783648249
  0
LINE
  5
F9
100
AcDbEntity
  8
0
  6
ByLayer
 62
  256
370
   -1
100
AcDbLine
 10
7.519288918241259
 20
-25.09527948691279
 11
10.1635778364825
 21
-43.91037279300263
  0
LINE
  5
FA
100
AcDbEntity
  8
0
  6
ByLayer
 62
  256
370
   -1
100
AcDbLine
 10
45.14947553042091
 20
-19.80670165043031
 11
47.79376444866219
 21
-38.62179495652014
  0
LINE
  5
FB
100
AcDbEntity
  8
0
  6
ByLayer
 62
  256
370
   -1
100
AcDbLine
 10
63.96456883651075
 20
-17.16241273218903
 11
66.60885775475202
 21
-35.97750603827891
  0
LINE
  5
FC
100
AcDbEntity
  8
0
  6
ByLayer
 62
  256
370
   -1
100
AcDbLine
 10
85.44993800194604
 20
-33.51812381394785
 11
85.44993800194604
 21
-14.51812381394785
  0
LINE
  5
FD
100
AcDbEntity
  8
0
  6
ByLayer
 62
  256
370
   -1
100
AcDbLine
 10
85.44993800194604
 20
-33.51812381394784
 11
10.1635778364825
 21
-43.91037279300263
  0
LINE
  5
FE
100
AcDbEntity
  8
0
  6
ByLayer
 62
  256
370
   -1
100
AcDbLine
 10
82.77966214260059
 20
-14.51812381394777
 11
85.44993800194604
 21
-33.51812381394784
  0
LINE
  5
FF
100
AcDbEntity
  8
0
  6
ByLayer
 62
  256
370
   -1
100
AcDbLine
 10
-2.769288918241244
 20
-25.09527948691279
 11
-5.413577836482503
 21
-43.91037279300263
  0
LINE
  5
100
100
AcDbEntity
  8
0
  6
ByLayer
 62
  256
370
   -1
100
AcDbLine
 10
-40.39947553042091
 20
-19.80670165043022
 11
-43.04376444866217
 21
-38.62179495652006
  0
LINE
  5
101
100
AcDbEntity
  8
0
  6
ByLayer
 62
  256
370
   -1
100
AcDbLine
 10
-63.9183421630332
 20
-16.50134050262861
 11
-66.56263108127447
 21
-35.31643380871858
  0
LINE
  5
102
100
AcDbEntity
  8
0
  6
ByLayer
 62
  256
370
   -1
100
AcDbLine
 10
-66.56263108127447
 20
-35.31643380871858
 11
-5.413577836482503
 21
-43.91037279300263
  0
LINE
  5
103
100
AcDbEntity
  8
0
  6
ByLayer
 62
  256
370
   -1
100
AcDbLine
 10
-85.49661897140949
 20
-33.51812381394781
 11
-85.49661897140949
 21
-14.51812381394781
  0
LINE
  5
104
100
AcDbEntity
  8
0
  6
ByLayer
 62
  256
370
   -1
100
AcDbLine
 10
-109.2466189714095
 20
-33.51812381394781
 11
-109.2466189714095
 21
-14.51812381394781
  0
LINE
  5
105
100
AcDbEntity
  8
0
  6
ByLayer
 62
  256
370
   -1
100
AcDbLine
 10
-85.49661897140949
 20
-33.51812381394781
 11
-109.2466189714095
 21
-33.51812381394781
  0
LINE
  5
106
100
AcDbEntity
  8
0
  6
ByLayer
 62
  256
370
   -1
100
AcDbLine
 10
109.199938001946
 20
-33.51812381394785
 11
109.199938001946
 21
-14.51812381394785
  0
LINE
  5
107
100
AcDbEntity
  8
0
  6
ByLayer
 62
  256
370
   -1
100
AcDbLine
 10
85.44993800194604
 20
-33.51812381394785
 11
109.199938001946
 21
-33.51812381394785
  0
LINE
  5
108
100
AcDbEntity
  8
0
  6
ByLayer
 62
  256
370
   -1
100
AcDbLine
 10
-83.70012400331056
 20
-14.60324591770975
 11
-64.76613611317576
 21
-16.4015559124805
  0
LINE
  5
109
100
AcDbEntity
  8
0
  6
ByLayer
 62
  256
370
   -1
100
AcDbLine
 10
-66.5626310812747
 20
-35.31643380871856
 11
-64.76613611317576
 21
-16.4015559124805
  0
LINE
  5
10A
100
AcDbEntity
  8
0
  6
ByLayer
 62
  256
370
   -1
100
AcDbLine
 10
-85.4966189714095
 20
-33.51812381394782
 11
-83.70012400331056
 21
-14.60324591770975
  0
LINE
  5
10B
100
AcDbEntity
  8
0
  6
ByLayer
 62
  256
370
   -1
100
AcDbLine
 10
-85.4966189714095
 20
-33.51812381394782
 11
-66.5626310812747
 21
-35.31643380871856
  0
LINE
  5
10C
100
AcDbEntity
  8
0
  6
ByLayer
 62
  256
370
   -1
100
AcDbLine
 10
-86.85240428568548
 20
43.91037279300263
 11
-105.8524042856855
 21
43.91037279300264
  0
LINE
  5
10D
100
AcDbEntity
  8
0
  6
ByLayer
 62
  256
370
   -1
100
AcDbLine
 10
-86.85240428568548
 20
25.09527948691279
 11
-105.8524042856855
 21
25.09527948691279
  0
LINE
  5
10E
100
AcDbEntity
  8
0
  6
ByLayer
 62
  256
370
   -1
100
AcDbLine
 10
-105.8524042856855
 20
25.09527948691279
 11
-105.8524042856855
 21
43.91037279300264
  0
LINE
  5
10F
100
AcDbEntity
  8
0
  6
ByLayer
 62
  256
370
   -1
100
AcDbLine
 10
-108.5429198774043
 20
24.2885778364825
 11
-84.79291987740426
 21
24.28857783648249
  0
LINE
  5
110
100
AcDbEntity
  8
0
  6
ByLayer
 62
  256
370
   -1
100
AcDbLine
 10
-108.5429198774043
 20
5.288577836482496
 11
-84.79291987740427
 21
5.288577836482492
  0
LINE
  5
111
100
AcDbEntity
  8
0
  6
ByLayer
 62
  256
370
   -1
100
AcDbLine
 10
-108.5429198774043
 20
5.288577836482496
 11
-108.5429198774043
 21
24.2885778364825
  0
LINE
  5
112
100
AcDbEntity
  8
0
  6
ByLayer
 62
  256
370
   -1
100
AcDbLine
 10
-78.02966214260064
 20
4.48187618605219
 11
-111.2796621426006
 21
4.481876186052194
  0
LINE
  5
113
100
AcDbEntity
  8
0
  6
ByLayer
 62
  256
370
   -1
100
AcDbLine
 10
-78.02966214260064
 20
-14.51812381394781
 11
-111.2796621426006
 21
-14.51812381394781
  0
LINE
  5
114
100
AcDbEntity
  8
0
  6
ByLayer
 62
  256
370
   -1
100
AcDbLine
 10
-111.2796621426006
 20
4.481876186052194
 11
-111.2796621426006
 21
-14.51812381394781
  0
LINE
  5
115
100
AcDbEntity
  8
0
  6
ByLayer
 62
  256
370
   -1
100
AcDbLine
 10
82.10194998969962
 20
43.43420725735245
 11
105.8519499896996
 21
43.43420725735244
  0
LINE
  5
116
100
AcDbEntity
  8
0
  6
ByLayer
 62
  256
370
   -1
100
AcDbLine
 10
105.8519499896996
 20
24.43420725735244
 11
82.10194998969962
 21
24.43420725735245
  0
LINE
  5
117
100
AcDbEntity
  8
0
  6
ByLayer
 62
  256
370
   -1
100
AcDbLine
 10
105.8519499896996
 20
24.43420725735244
 11
105.8519499896996
 21
43.43420725735244
  0
LINE
  5
118
100
AcDbEntity
  8
0
  6
ByLayer
 62
  256
370
   -1
100
AcDbLine
 10
89.54291987740427
 20
23.9580417217023
 11
108.5429198774043
 21
23.95804172170229
  0
LINE
  5
119
100
AcDbEntity
  8
0
  6
ByLayer
 62
  256
370
   -1
100
AcDbLine
 10
89.54291987740427
 20
4.958041721702301
 11
108.5429198774043
 21
4.958041721702298
  0
LINE
  5
11A
100
AcDbEntity
  8
0
  6
ByLayer
 62
  256
370
   -1
100
AcDbLine
 10
108.5429198774043
 20
4.958041721702298
 11
108.5429198774043
 21
23.95804172170229
  0
LINE
  5
11B
100
AcDbEntity
  8
0
  6
ByLayer
 62
  256
370
   -1
100
AcDbLine
 10
82.77966214260059
 20
4.481876186052155
 11
111.2796621426006
 21
4.481876186052155
  0
LINE
  5
11C
100
AcDbEntity
  8
0
  6
ByLayer
 62
  256
370
   -1
100
AcDbLine
 10
82.77966214260059
 20
-14.51812381394785
 11
111.2796621426006
 21
-14.51812381394785
  0
LINE
  5
11D
100
AcDbEntity
  8
0
  6
ByLayer
 62
  256
370
   -1
100
AcDbLine
 10
111.2796621426006
 20
-14.51812381394785
 11
111.2796621426006
 21
4.481876186052155
  0
LINE
  5
11E
100
AcDbEntity
  8
mx
  6
ByLayer
 62
  256
370
   -1
100
AcDbLine
 10
-89.35240428568548
 20
41.41037279300263
 11
-103.3524042856855
 21
41.41037279300264
  0
LINE
  5
11F
100
AcDbEntity
  8
mx
  6
ByLayer
 62
  256
370
   -1
100
AcDbLine
 10
-89.35240428568548
 20
27.59527948691279
 11
-89.35240428568548
 21
41.41037279300263
  0
LINE
  5
120
100
AcDbEntity
  8
mx
  6
ByLayer
 62
  256
370
   -1
100
AcDbLine
 10
-103.3524042856855
 20
27.59527948691279
 11
-103.3524042856855
 21
41.41037279300264
  0
LINE
  5
121
100
AcDbEntity
  8
mx
  6
ByLayer
 62
  256
370
   -1
100
AcDbLine
 10
-89.35240428568548
 20
27.59527948691279
 11
-103.3524042856855
 21
27.59527948691279
  0
LINE
  5
122
100
AcDbEntity
  8
mx
  6
ByLayer
 62
  256
370
   -1
100
AcDbLine
 10
-87.65466214260064
 20
1.98187618605219
 11
-87.65466214260064
 21
-12.01812381394781
  0
LINE
  5
123
100
AcDbEntity
  8
mx
  6
ByLayer
 62
  256
370
   -1
100
AcDbLine
 10
-87.65466214260064
 20
-12.01812381394781
 11
-101.6546621426006
 21
-12.01812381394781
  0
LINE
  5
124
100
AcDbEntity
  8
mx
  6
ByLayer
 62
  256
370
   -1
100
AcDbLine
 10
-101.6546621426006
 20
1.981876186052194
 11
-101.6546621426006
 21
-12.01812381394781
  0
LINE
  5
125
100
AcDbEntity
  8
mx
  6
ByLayer
 62
  256
370
   -1
100
AcDbLine
 10
-87.65466214260064
 20
1.98187618605219
 11
-101.6546621426006
 21
1.981876186052194
  0
LINE
  5
126
100
AcDbEntity
  8
mx
  6
ByLayer
 62
  256
370
   -1
100
AcDbLine
 10
-104.3716189714095
 20
-31.01812381394781
 11
-104.3716189714095
 21
-17.01812381394781
  0
LINE
  5
127
100
AcDbEntity
  8
mx
  6
ByLayer
 62
  256
370
   -1
100
AcDbLine
 10
-90.37161897140949
 20
-31.01812381394781
 11
-104.3716189714095
 21
-31.01812381394781
  0
LINE
  5
128
100
AcDbEntity
  8
mx
  6
ByLayer
 62
  256
370
   -1
100
AcDbLine
 10
-90.37161897140949
 20
-17.01812381394781
 11
-104.3716189714095
 21
-17.01812381394781
  0
LINE
  5
129
100
AcDbEntity
  8
mx
  6
ByLayer
 62
  256
370
   -1
100
AcDbLine
 10
-90.37161897140949
 20
-31.01812381394781
 11
-90.37161897140949
 21
-17.01812381394781
  0
LINE
  5
12A
100
AcDbEntity
  8
mx
  6
ByLayer
 62
  256
370
   -1
100
AcDbLine
 10
-103.6679198774043
 20
7.788577836482492
 11
-103.6679198774043
 21
21.7885778364825
  0
LINE
  5
12B
100
AcDbEntity
  8
mx
  6
ByLayer
 62
  256
370
   -1
100
AcDbLine
 10
-103.6679198774043
 20
7.788577836482492
 11
-89.66791987740427
 21
7.788577836482492
  0
LINE
  5
12C
100
AcDbEntity
  8
mx
  6
ByLayer
 62
  256
370
   -1
100
AcDbLine
 10
-103.6679198774043
 20
21.7885778364825
 11
-89.66791987740426
 21
21.78857783648249
  0
LINE
  5
12D
100
AcDbEntity
  8
mx
  6
ByLayer
 62
  256
370
   -1
100
AcDbLine
 10
-89.66791987740427
 20
7.788577836482492
 11
-89.66791987740426
 21
21.78857783648249
  0
LINE
  5
12E
100
AcDbEntity
  8
mx
  6
ByLayer
 62
  256
370
   -1
100
AcDbLine
 10
-68.81504988760879
 20
-32.59125316867421
 11
-67.4913167532201
 21
-18.65397471881458
  0
LINE
  5
12F
100
AcDbEntity
  8
mx
  6
ByLayer
 62
  256
370
   -1
100
AcDbLine
 10
-82.77143833136516
 20
-31.26570500761373
 11
-68.81504988760879
 21
-32.59125316867421
  0
LINE
  5
130
100
AcDbEntity
  8
mx
  6
ByLayer
 62
  256
370
   -1
100
AcDbLine
 10
-81.44770519697647
 20
-17.32842655775409
 11
-67.4913167532201
 21
-18.65397471881458
  0
LINE
  5
131
100
AcDbEntity
  8
mx
  6
ByLayer
 62
  256
370
   -1
100
AcDbLine
 10
-82.77143833136516
 20
-31.26570500761373
 11
-81.44770519697647
 21
-17.32842655775409
  0
LINE
  5
132
100
AcDbEntity
  8
mx
  6
ByLayer
 62
  256
370
   -1
100
AcDbLine
 10
-30.81261487136317
 20
-37.816201996187
 11
-28.86419145792224
 21
-23.95244903380501
  0
LINE
  5
133
100
AcDbEntity
  8
mx
  6
ByLayer
 62
  256
370
   -1
100
AcDbLine
 10
-16.94886190898117
 20
-39.76462540962792
 11
-30.81261487136317
 21
-37.816201996187
  0
LINE
  5
134
100
AcDbEntity
  8
mx
  6
ByLayer
 62
  256
370
   -1
100
AcDbLine
 10
-28.86419145792224
 20
-23.95244903380501
 11
-15.00043849554025
 21
-25.90087244724592
  0
LINE
  5
135
100
AcDbEntity
  8
mx
  6
ByLayer
 62
  256
370
   -1
100
AcDbLine
 10
-16.94886190898117
 20
-39.76462540962792
 11
-15.00043849554025
 21
-25.90087244724592
  0
LINE
  5
136
100
AcDbEntity
  8
mx
  6
ByLayer
 62
  256
370
   -1
100
AcDbLine
 10
-47.52346027382704
 20
-35.46816639154149
 11
-45.57496511793625
 21
-21.60390295510391
  0
LINE
  5
137
100
AcDbEntity
  8
mx
  6
ByLayer
 62
  256
370
   -1
100
AcDbLine
 10
-47.52346027382704
 20
-35.46816639154149
 11
-61.38741926580865
 21
-33.52120895487563
  0
LINE
  5
138
100
AcDbEntity
  8
mx
  6
ByLayer
 62
  256
370
   -1
100
AcDbLine
 10
-59.43871808031824
 20
-19.65547954166298
 11
-45.57496511793625
 21
-21.60390295510391
  0
LINE
  5
139
100
AcDbEntity
  8
mx
  6
ByLayer
 62
  256
370
   -1
100
AcDbLine
 10
-61.38741926580865
 20
-33.52120895487563
 11
-59.43871808031824
 21
-19.65547954166298
  0
LINE
  5
13A
100
AcDbEntity
  8
mx
  6
ByLayer
 62
  256
370
   -1
100
AcDbLine
 10
92.04291987740427
 20
7.458041721702301
 11
92.04291987740427
 21
21.4580417217023
  0
LINE
  5
13B
100
AcDbEntity
  8
mx
  6
ByLayer
 62
  256
370
   -1
100
AcDbLine
 10
92.04291987740427
 20
7.458041721702301
 11
106.0429198774043
 21
7.458041721702298
  0
LINE
  5
13C
100
AcDbEntity
  8
mx
  6
ByLayer
 62
  256
370
   -1
100
AcDbLine
 10
92.04291987740427
 20
21.4580417217023
 11
106.0429198774043
 21
21.4580417217023
  0
LINE
  5
13D
100
AcDbEntity
  8
mx
  6
ByLayer
 62
  256
370
   -1
100
AcDbLine
 10
106.0429198774043
 20
7.458041721702298
 11
106.0429198774043
 21
21.4580417217023
  0
LINE
  5
13E
100
AcDbEntity
  8
mx
  6
ByLayer
 62
  256
370
   -1
100
AcDbLine
 10
104.0296621426006
 20
-12.01812381394785
 11
104.0296621426006
 21
1.981876186052155
  0
LINE
  5
13F
100
AcDbEntity
  8
mx
  6
ByLayer
 62
  256
370
   -1
100
AcDbLine
 10
90.02966214260059
 20
-12.01812381394785
 11
104.0296621426006
 21
-12.01812381394785
  0
LINE
  5
140
100
AcDbEntity
  8
mx
  6
ByLayer
 62
  256
370
   -1
100
AcDbLine
 10
90.02966214260059
 20
1.981876186052155
 11
104.0296621426006
 21
1.981876186052155
  0
LINE
  5
141
100
AcDbEntity
  8
mx
  6
ByLayer
 62
  256
370
   -1
100
AcDbLine
 10
90.02966214260059
 20
-12.01812381394785
 11
90.02966214260059
 21
1.981876186052155
  0
LINE
  5
142
100
AcDbEntity
  8
mx
  6
ByLayer
 62
  256
370
   -1
100
AcDbLine
 10
100.9769499896996
 20
40.93420725735244
 11
100.9769499896996
 21
26.93420725735244
  0
LINE
  5
143
100
AcDbEntity
  8
mx
  6
ByLayer
 62
  256
370
   -1
100
AcDbLine
 10
100.9769499896996
 20
26.93420725735244
 11
86.97694998969962
 21
26.93420725735244
  0
LINE
  5
144
100
AcDbEntity
  8
mx
  6
ByLayer
 62
  256
370
   -1
100
AcDbLine
 10
86.97694998969962
 20
40.93420725735245
 11
100.9769499896996
 21
40.93420725735244
  0
LINE
  5
145
100
AcDbEntity
  8
mx
  6
ByLayer
 62
  256
370
   -1
100
AcDbLine
 10
86.97694998969962
 20
40.93420725735245
 11
86.97694998969962
 21
26.93420725735244
  0
LINE
  5
146
100
AcDbEntity
  8
mx
  6
ByLayer
 62
  256
370
   -1
100
AcDbLine
 10
104.3249380019461
 20
-31.01812381394785
 11
104.3249380019461
 21
-17.01812381394785
  0
LINE
  5
147
100
AcDbEntity
  8
mx
  6
ByLayer
 62
  256
370
   -1
100
AcDbLine
 10
90.32493800194607
 20
-31.01812381394785
 11
104.3249380019461
 21
-31.01812381394785
  0
LINE
  5
148
100
AcDbEntity
  8
mx
  6
ByLayer
 62
  256
370
   -1
100
AcDbLine
 10
90.32493800194604
 20
-17.01812381394785
 11
104.3249380019461
 21
-17.01812381394785
  0
LINE
  5
149
100
AcDbEntity
  8
mx
  6
ByLayer
 62
  256
370
   -1
100
AcDbLine
 10
90.32493800194607
 20
-31.01812381394785
 11
90.32493800194604
 21
-17.01812381394785
  0
LINE
  5
14A
100
AcDbEntity
  8
mx
  6
ByLayer
 62
  256
370
   -1
100
AcDbLine
 10
33.65447016985387
 20
-23.94678823000944
 11
19.79067536448368
 21
-25.89521752409883
  0
LINE
  5
14B
100
AcDbEntity
  8
mx
  6
ByLayer
 62
  256
370
   -1
100
AcDbLine
 10
19.79067536448368
 20
-25.89521752409883
 11
21.70906952765455
 21
-39.79297095542024
  0
LINE
  5
14C
100
AcDbEntity
  8
mx
  6
ByLayer
 62
  256
370
   -1
100
AcDbLine
 10
33.65447016985387
 20
-23.94678823000944
 11
35.5775677008247
 21
-37.87861507921113
  0
LINE
  5
14D
100
AcDbEntity
  8
mx
  6
ByLayer
 62
  256
370
   -1
100
AcDbLine
 10
21.70906952765455
 20
-39.79297095542024
 11
35.5775677008247
 21
-37.87861507921113
  0
LINE
  5
14E
100
AcDbEntity
  8
mx
  6
ByLayer
 62
  256
370
   -1
100
AcDbLine
 10
49.93537005079619
 20
-35.89671747538183
 11
63.80386822396633
 21
-33.98236159917273
  0
LINE
  5
14F
100
AcDbEntity
  8
mx
  6
ByLayer
 62
  256
370
   -1
100
AcDbLine
 10
61.87119801458897
 20
-19.98118574614016
 11
63.80386822396633
 21
-33.98236159917273
  0
LINE
  5
150
100
AcDbEntity
  8
mx
  6
ByLayer
 62
  256
370
   -1
100
AcDbLine
 10
80.68640489467529
 20
-17.33688086611465
 11
66.82261008930513
 21
-19.28531016020405
  0
LINE
  5
151
100
AcDbEntity
  8
mx
  6
ByLayer
 62
  256
370
   -1
100
AcDbLine
 10
66.82261008930513
 20
-19.28531016020405
 11
68.75696009216205
 21
-33.29865523061815
  0
LINE
  5
152
100
AcDbEntity
  8
mx
  6
ByLayer
 62
  256
370
   -1
100
AcDbLine
 10
80.68640489467529
 20
-17.33688086611465
 11
82.62545826533221
 21
-31.38429935440902
  0
LINE
  5
153
100
AcDbEntity
  8
mx
  6
ByLayer
 62
  256
370
   -1
100
AcDbLine
 10
82.62545826533221
 20
-31.38429935440902
 11
68.75696009216205
 21
-33.29865523061815
  0
LINE
  5
154
100
AcDbEntity
  8
mx
  6
ByLayer
 62
  256
370
   -1
100
AcDbLine
 10
48.00740320921884
 20
-21.92961504022955
 11
49.93537005079619
 21
-35.89671747538183
  0
LINE
  5
155
100
AcDbEntity
  8
mx
  6
ByLayer
 62
  256
370
   -1
100
AcDbLine
 10
48.00740320921884
 20
-21.92961504022955
 11
61.87119801458897
 21
-19.98118574614016
  0
CIRCLE
  5
156
100
AcDbEntity
  8
percage
  6
ByLayer
 62
  256
370
   -1
100
AcDbCircle
 10
2.375
 20
-25.09527948691279
 40
1.1
  0
CIRCLE
  5
157
100
AcDbEntity
  8
percage
  6
ByLayer
 62
  256
370
   -1
100
AcDbCircle
 10
-109.5725553614141
 20
-42.20326601181608
 40
1.1
  0
CIRCLE
  5
158
100
AcDbEntity
  8
percage
  6
ByLayer
 62
  256
370
   -1
100
AcDbCircle
 10
-109.5725553614141
 20
42.20326601181608
 40
1.1
  0
CIRCLE
  5
159
100
AcDbEntity
  8
percage
  6
ByLayer
 62
  256
370
   -1
100
AcDbCircle
 10
109.572555361414
 20
42.20326601181605
 40
1.1
  0
CIRCLE
  5
15A
100
AcDbEntity
  8
percage
  6
ByLayer
 62
  256
370
   -1
100
AcDbCircle
 10
109.572555361414
 20
-42.20326601181608
 40
1.1
  0
LINE
  5
15B
100
AcDbEntity
  8
placement
  6
ByLayer
 62
  256
370
   -1
100
AcDbLine
 10
-103.3524042856855
 20
41.41037279300264
 11
-89.35240428568548
 21
27.59527948691279
  0
LINE
  5
15C
100
AcDbEntity
  8
placement
  6
ByLayer
 62
  256
370
   -1
100
AcDbLine
 10
-82.08037794799047
 20
41.08676986874853
 11
-70.16504839904941
 21
25.27459349292564
  0
LINE
  5
15D
100
AcDbEntity
  8
placement
  6
ByLayer
 62
  256
370
   -1
100
AcDbLine
 10
-63.26528464190064
 20
38.44248095050729
 11
-51.34995509295958
 21
22.63030457468439
  0
LINE
  5
15E
100
AcDbEntity
  8
placement
  6
ByLayer
 62
  256
370
   -1
100
AcDbLine
 10
-44.45019133581081
 20
35.79819203226604
 11
-32.53486178686975
 21
19.98601565644315
  0
LINE
  5
15F
100
AcDbEntity
  8
placement
  6
ByLayer
 62
  256
370
   -1
100
AcDbLine
 10
-25.63509802972096
 20
33.1539031140248
 11
-13.7197684807799
 21
17.34172673820191
  0
LINE
  5
160
100
AcDbEntity
  8
placement
  6
ByLayer
 62
  256
370
   -1
100
AcDbLine
 10
-23.57561362143975
 20
13.67773757837465
 11
-11.66028407249869
 21
-2.134438797448245
  0
LINE
  5
161
100
AcDbEntity
  8
placement
  6
ByLayer
 62
  256
370
   -1
100
AcDbLine
 10
-42.39070692752959
 20
16.32202649661589
 11
-30.47537737858853
 21
0.5098501207930006
  0
LINE
  5
162
100
AcDbEntity
  8
placement
  6
ByLayer
 62
  256
370
   -1
100
AcDbLine
 10
-61.20580023361942
 20
18.96631541485714
 11
-49.29047068467836
 21
3.154139039034249
  0
LINE
  5
163
100
AcDbEntity
  8
placement
  6
ByLayer
 62
  256
370
   -1
100
AcDbLine
 10
-80.02089353970926
 20
21.61060433309839
 11
-68.1055639907682
 21
5.798427957275496
  0
LINE
  5
164
100
AcDbEntity
  8
placement
  6
ByLayer
 62
  256
370
   -1
100
AcDbLine
 10
-73.25763580490559
 20
1.473366567887933
 11
-61.34230625596453
 21
-14.33880980793496
  0
LINE
  5
165
100
AcDbEntity
  8
placement
  6
ByLayer
 62
  256
370
   -1
100
AcDbLine
 10
-54.44254249881575
 20
-1.170922350353312
 11
-42.52721294987469
 21
-16.98309872617621
  0
LINE
  5
166
100
AcDbEntity
  8
placement
  6
ByLayer
 62
  256
370
   -1
100
AcDbLine
 10
-59.43871808031824
 20
-19.65547954166298
 11
-47.52338853137718
 21
-35.46765591748588
  0
LINE
  5
167
100
AcDbEntity
  8
placement
  6
ByLayer
 62
  256
370
   -1
100
AcDbLine
 10
-35.62744919272591
 20
-3.81521126859456
 11
-23.71211964378485
 21
-19.62738764441745
  0
LINE
  5
168
100
AcDbEntity
  8
placement
  6
ByLayer
 62
  256
370
   -1
100
AcDbLine
 10
-16.81235588663607
 20
-6.459500186835808
 11
-4.89702633769501
 21
-22.2716765626587
  0
LINE
  5
169
100
AcDbEntity
  8
placement
  6
ByLayer
 62
  256
370
   -1
100
AcDbLine
 10
-28.86419145792224
 20
-23.95244903380501
 11
-16.94886190898118
 21
-39.7646254096279
  0
LINE
  5
16A
100
AcDbEntity
  8
placement
  6
ByLayer
 62
  256
370
   -1
100
AcDbLine
 10
-103.6679198774043
 20
21.7885778364825
 11
-89.66791987740427
 21
7.973484530392653
  0
LINE
  5
16B
100
AcDbEntity
  8
placement
  6
ByLayer
 62
  256
370
   -1
100
AcDbLine
 10
-101.6546621426006
 20
1.981876186052194
 11
-87.65466214260064
 21
-11.83321712003765
  0
LINE
  5
16C
100
AcDbEntity
  8
placement
  6
ByLayer
 62
  256
370
   -1
100
AcDbLine
 10
-104.3716189714095
 20
-17.01812381394781
 11
-90.37161897140949
 21
-30.83321712003765
  0
LINE
  5
16D
100
AcDbEntity
  8
placement
  6
ByLayer
 62
  256
370
   -1
100
AcDbLine
 10
86.97694998969962
 20
40.93420725735245
 11
100.9769499896996
 21
27.11911395126261
  0
LINE
  5
16E
100
AcDbEntity
  8
placement
  6
ByLayer
 62
  256
370
   -1
100
AcDbLine
 10
92.04291987740427
 20
21.4580417217023
 11
106.0429198774043
 21
7.642948415612459
  0
LINE
  5
16F
100
AcDbEntity
  8
placement
  6
ByLayer
 62
  256
370
   -1
100
AcDbLine
 10
90.02966214260059
 20
1.981876186052155
 11
104.0296621426006
 21
-11.83321712003769
  0
LINE
  5
170
100
AcDbEntity
  8
placement
  6
ByLayer
 62
  256
370
   -1
100
AcDbLine
 10
90.32493800194604
 20
-17.01812381394785
 11
104.324938001946
 21
-30.83321712003769
  0
LINE
  5
171
100
AcDbEntity
  8
placement
  6
ByLayer
 62
  256
370
   -1
100
AcDbLine
 10
7.113798414294038
 20
29.88333524146327
 11
22.925974790117
 21
17.96800569252219
  0
LINE
  5
172
100
AcDbEntity
  8
placement
  6
ByLayer
 62
  256
370
   -1
100
AcDbLine
 10
25.92889172038386
 20
32.52762415970451
 11
41.74106809620682
 21
20.61229461076343
  0
LINE
  5
173
100
AcDbEntity
  8
placement
  6
ByLayer
 62
  256
370
   -1
100
AcDbLine
 10
44.74398502647372
 20
35.17191307794575
 11
60.55616140229668
 21
23.25658352900467
  0
LINE
  5
174
100
AcDbEntity
  8
placement
  6
ByLayer
 62
  256
370
   -1
100
AcDbLine
 10
63.55907833256356
 20
37.81620199618699
 11
79.37125470838652
 21
25.90087244724591
  0
LINE
  5
175
100
AcDbEntity
  8
placement
  6
ByLayer
 62
  256
370
   -1
100
AcDbLine
 10
14.46186065905775
 20
11.72931416493373
 11
30.27403703488071
 21
-0.1860153840073497
  0
LINE
  5
176
100
AcDbEntity
  8
placement
  6
ByLayer
 62
  256
370
   -1
100
AcDbLine
 10
33.27695396514761
 20
14.37360308317497
 11
49.08913034097057
 21
2.458273534233893
  0
LINE
  5
177
100
AcDbEntity
  8
placement
  6
ByLayer
 62
  256
370
   -1
100
AcDbLine
 10
52.09204727123742
 20
17.01789200141621
 11
67.90422364706038
 21
5.102562452475134
  0
LINE
  5
178
100
AcDbEntity
  8
placement
  6
ByLayer
 62
  256
370
   -1
100
AcDbLine
 10
70.90714057732723
 20
19.66218091965744
 11
86.71931695315018
 21
7.746851370716367
  0
LINE
  5
179
100
AcDbEntity
  8
placement
  6
ByLayer
 62
  256
370
   -1
100
AcDbLine
 10
7.698602924254061
 20
-8.407923600276717
 11
23.51077930007702
 21
-20.32325314921779
  0
LINE
  5
17A
100
AcDbEntity
  8
placement
  6
ByLayer
 62
  256
370
   -1
100
AcDbLine
 10
26.51369623034392
 20
-5.76363468203548
 11
42.32587260616688
 21
-17.67896423097656
  0
LINE
  5
17B
100
AcDbEntity
  8
placement
  6
ByLayer
 62
  256
370
   -1
100
AcDbLine
 10
45.32878953643373
 20
-3.119345763794239
 11
61.14096591225669
 21
-15.03467531273532
  0
LINE
  5
17C
100
AcDbEntity
  8
placement
  6
ByLayer
 62
  256
370
   -1
100
AcDbLine
 10
64.1438828425236
 20
-0.4750568455529987
 11
79.95605921834655
 21
-12.39038639449408
  0
LINE
  5
17D
100
AcDbEntity
  8
placement
  6
ByLayer
 62
  256
370
   -1
100
AcDbLine
 10
48.00740320921884
 20
-21.92961504022955
 11
63.81957958504179
 21
-33.84494458917062
  0
LINE
  5
17E
100
AcDbEntity
  8
placement
  6
ByLayer
 62
  256
370
   -1
100
AcDbLine
 10
19.79067536448368
 20
-25.89521752409883
 11
35.60285174030663
 21
-37.81054707303991
  0
LINE
  5
17F
100
AcDbEntity
  8
placement
  6
ByLayer
 62
  256
370
   -1
100
AcDbLine
 10
-81.44770519697647
 20
-17.32842655775409
 11
-68.81504988760879
 21
-32.59125316867421
  0
LINE
  5
180
100
AcDbEntity
  8
placement
  6
ByLayer
 62
  256
370
   -1
100
AcDbLine
 10
66.82261008930513
 20
-19.28531016020405
 11
82.62545826533221
 21
-31.38429935440902
  0
LINE
  5
181
100
AcDbEntity
  8
edge
  6
ByLayer
 62
  256
370
   -1
100
AcDbLine
 10
-110.2796621426006
 20
45.91037279300264
 11
110.2796621426006
 21
45.91037279300259
  0
LINE
  5
182
100
AcDbEntity
  8
edge
  6
ByLayer
 62
  256
370
   -1
100
AcDbLine
 10
-113.2796621426006
 20
42.91037279300264
 11
-113.2796621426007
 21
-42.91037279300263
  0
ARC
  5
183
100
AcDbEntity
  8
edge
  6
ByLayer
 62
  256
370
   -1
100
AcDbCircle
 10
-110.2796621426006
 20
42.91037279300264
 40
3
100
AcDbArc
 50
90
 51
180
  0
ARC
  5
184
100
AcDbEntity
  8
edge
  6
ByLayer
 62
  256
370
   -1
100
AcDbCircle
 10
110.2796621426006
 20
-42.91037279300263
 40
3
100
AcDbArc
 50
270
 51
0
  0
LINE
  5
185
100
AcDbEntity
  8
edge
  6
ByLayer
 62
  256
370
   -1
100
AcDbLine
 10
113.2796621426006
 20
-42.91037279300263
 11
113.2796621426006
 21
42.91037279300259
  0
LINE
  5
186
100
AcDbEntity
  8
edge
  6
ByLayer
 62
  256
370
   -1
100
AcDbLine
 10
-110.2796621426006
 20
-45.91037279300263
 11
110.2796621426006
 21
-45.91037279300263
  0
ARC
  5
187
100
AcDbEntity
  8
edge
  6
ByLayer
 62
  256
370
   -1
100
AcDbCircle
 10
110.2796621426006
 20
42.91037279300259
 40
3
100
AcDbArc
 50
0
 51
90
  0
ARC
  5
188
100
AcDbEntity
  8
edge
  6
ByLayer
 62
  256
370
   -1
100
AcDbCircle
 10
-110.2796621426007
 20
-42.91037279300263
 40
3
100
AcDbArc
 50
180
 51
270.0000000000009
  0
ENDSEC
  0
SECTION
  2
OBJECTS
  0
DICTIONARY
  5
C
330
0
100
AcDbDictionary
281
    1
  3
ACAD_GROUP
350
D
  0
DICTIONARY
  5
D
330
C
100
AcDbDictionary
281
    1
  0
PLOTSETTINGS
  5
189
100
AcDbPlotSettings
  6
1x1
 40
0
 41
0
 42
0
 43
0
  0
ENDSEC
  0
EOF
