999
dxfrw 0.6.3
  0
SECTION
  2
HEADER
  9
$ACADVER
  1
AC1021
  9
$DWGCODEPAGE
  3
ANSI_1252
  9
$INSBASE
 10
0
 20
0
 30
0
  9
$EXTMIN
 10
-119.7373164911055
 20
-52.11037237691322
 30
0
  9
$EXTMAX
 10
119.7373119885047
 20
60.61037310002013
 30
0
  9
$LIMMIN
 10
0
 20
0
  9
$LIMMAX
 10
420
 20
297
  9
$ORTHOMODE
 70
    0
  9
$REGENMODE
 70
    1
  9
$FILLMODE
 70
    1
  9
$QTEXTMODE
 70
    0
  9
$MIRRTEXT
 70
    0
  9
$LTSCALE
 40
1
  9
$ATTMODE
 70
    0
  9
$TEXTSIZE
 40
2.5
  9
$TRACEWID
 40
15.68
  9
$TEXTSTYLE
  7
STANDARD
  9
$CLAYER
  8
rpi-cut
  9
$CELTYPE
  6
BYLAYER
  9
$CECOLOR
 62
  256
  9
$CELTSCALE
 40
1
  9
$DISPSILH
 70
    0
  9
$DIMSCALE
 40
2.5
  9
$DIMASZ
 40
2.5
  9
$DIMEXO
 40
0.625
  9
$DIMDLI
 40
3.75
  9
$DIMRND
 40
0
  9
$DIMDLE
 40
0
  9
$DIMEXE
 40
1.25
  9
$DIMTP
 40
0
  9
$DIMTM
 40
0
  9
$DIMTXT
 40
2.5
  9
$DIMCEN
 40
2.5
  9
$DIMTSZ
 40
0
  9
$DIMTOL
 70
    0
  9
$DIMLIM
 70
    0
  9
$DIMTIH
 70
    0
  9
$DIMTOH
 70
    0
  9
$DIMSE1
 70
    0
  9
$DIMSE2
 70
    0
  9
$DIMTAD
 70
    1
  9
$DIMZIN
 70
    8
  9
$DIMBLK
  1

  9
$DIMASO
 70
    1
  9
$DIMSHO
 70
    1
  9
$DIMPOST
  1

  9
$DIMAPOST
  1

  9
$DIMALT
 70
    0
  9
$DIMALTD
 70
    3
  9
$DIMALTF
 40
0.03937
  9
$DIMLFAC
 40
1
  9
$DIMTOFL
 70
    1
  9
$DIMTVP
 40
0
  9
$DIMTIX
 70
    0
  9
$DIMSOXD
 70
    0
  9
$DIMSAH
 70
    0
  9
$DIMBLK1
  1

  9
$DIMBLK2
  1

  9
$DIMSTYLE
  2
Standard
  9
$DIMCLRD
 70
    0
  9
$DIMCLRE
 70
    0
  9
$DIMCLRT
 70
    0
  9
$DIMTFAC
 40
1
  9
$DIMGAP
 40
0.625
  9
$DIMJUST
 70
    0
  9
$DIMSD1
 70
    0
  9
$DIMSD2
 70
    0
  9
$DIMTOLJ
 70
    0
  9
$DIMTZIN
 70
    8
  9
$DIMALTZ
 70
    0
  9
$DIMALTTZ
 70
    0
  9
$DIMUPT
 70
    0
  9
$DIMDEC
 70
    2
  9
$DIMTDEC
 70
    2
  9
$DIMALTU
 70
    2
  9
$DIMALTTD
 70
    3
  9
$DIMTXSTY
  7
STANDARD
  9
$DIMAUNIT
 70
    0
  9
$DIMADEC
 70
    0
  9
$DIMALTRND
 40
0
  9
$DIMAZIN
 70
    0
  9
$DIMDSEP
 70
   44
  9
$DIMATFIT
 70
    3
  9
$DIMFRAC
 70
    0
  9
$DIMLDRBLK
  1
STANDARD
  9
$DIMLUNIT
 70
    2
  9
$DIMLWD
 70
   -2
  9
$DIMLWE
 70
   -2
  9
$DIMTMOVE
 70
    0
  9
$DIMFXL
 40
1
  9
$DIMFXLON
 70
    0
  9
$DIMJOGANG
 40
0.7854
  9
$DIMTFILL
 70
    0
  9
$DIMTFILLCLR
 70
    0
  9
$DIMARCSYM
 70
    0
  9
$DIMLTYPE
  6

  9
$DIMLTEX1
  6

  9
$DIMLTEX2
  6

  9
$LUNITS
 70
    2
  9
$LUPREC
 70
    4
  9
$SKETCHINC
 40
1
  9
$FILLETRAD
 40
0
  9
$AUNITS
 70
    0
  9
$AUPREC
 70
    2
  9
$MENU
  1
.
  9
$ELEVATION
 40
0
  9
$PELEVATION
 40
0
  9
$THICKNESS
 40
0
  9
$LIMCHECK
 70
    0
  9
$CHAMFERA
 40
0
  9
$CHAMFERB
 40
0
  9
$CHAMFERC
 40
0
  9
$CHAMFERD
 40
0
  9
$SKPOLY
 70
    0
  9
$USRTIMER
 70
    1
  9
$ANGBASE
 50
0
  9
$ANGDIR
 70
    0
  9
$PDMODE
 70
   34
  9
$PDSIZE
 40
0
  9
$PLINEWID
 40
0
  9
$SPLFRAME
 70
    0
  9
$SPLINETYPE
 70
    2
  9
$SPLINESEGS
 70
    8
  9
$HANDSEED
  5
20000
  9
$SURFTAB1
 70
    6
  9
$SURFTAB2
 70
    6
  9
$SURFTYPE
 70
    6
  9
$SURFU
 70
    6
  9
$SURFV
 70
    6
  9
$UCSBASE
  2

  9
$UCSNAME
  2

  9
$UCSORG
 10
0
 20
0
 30
0
  9
$UCSXDIR
 10
1
 20
0
 30
0
  9
$UCSYDIR
 10
0
 20
1
 30
0
  9
$UCSORTHOREF
  2

  9
$UCSORTHOVIEW
 70
    0
  9
$UCSORGTOP
 10
0
 20
0
 30
0
  9
$UCSORGBOTTOM
 10
0
 20
0
 30
0
  9
$UCSORGLEFT
 10
0
 20
0
 30
0
  9
$UCSORGRIGHT
 10
0
 20
0
 30
0
  9
$UCSORGFRONT
 10
0
 20
0
 30
0
  9
$UCSORGBACK
 10
0
 20
0
 30
0
  9
$PUCSBASE
  2

  9
$PUCSNAME
  2

  9
$PUCSORG
 10
0
 20
0
 30
0
  9
$PUCSXDIR
 10
1
 20
0
 30
0
  9
$PUCSYDIR
 10
0
 20
1
 30
0
  9
$PUCSORTHOREF
  2

  9
$PUCSORTHOVIEW
 70
    0
  9
$PUCSORGTOP
 10
0
 20
0
 30
0
  9
$PUCSORGBOTTOM
 10
0
 20
0
 30
0
  9
$PUCSORGLEFT
 10
0
 20
0
 30
0
  9
$PUCSORGRIGHT
 10
0
 20
0
 30
0
  9
$PUCSORGFRONT
 10
0
 20
0
 30
0
  9
$PUCSORGBACK
 10
0
 20
0
 30
0
  9
$USERI1
 70
    0
  9
$USERI2
 70
    0
  9
$USERI3
 70
    0
  9
$USERI4
 70
    0
  9
$USERI5
 70
    0
  9
$USERR1
 40
0
  9
$USERR2
 40
0
  9
$USERR3
 40
0
  9
$USERR4
 40
0
  9
$USERR5
 40
0
  9
$WORLDVIEW
 70
    1
  9
$SHADEDGE
 70
    3
  9
$SHADEDIF
 70
   70
  9
$TILEMODE
 70
    1
  9
$MAXACTVP
 70
   64
  9
$PINSBASE
 10
0
 20
0
 30
0
  9
$PLIMCHECK
 70
    0
  9
$PEXTMIN
 10
0
 20
0
 30
0
  9
$PEXTMAX
 10
0
 20
0
 30
0
  9
$GRIDMODE
 70
    1
  9
$SNAPSTYLE
 70
    0
  9
$PLIMMIN
 10
0
 20
0
  9
$PLIMMAX
 10
210
 20
297
  9
$UNITMODE
 70
    0
  9
$VISRETAIN
 70
    1
  9
$PLINEGEN
 70
    0
  9
$PSLTSCALE
 70
    1
  9
$TREEDEPTH
 70
 3020
  9
$CMLSTYLE
  2
Standard
  9
$CMLJUST
 70
    0
  9
$CMLSCALE
 40
20
  9
$PROXYGRAPHICS
 70
    1
  9
$MEASUREMENT
 70
    1
  9
$CELWEIGHT
370
   -1
  9
$ENDCAPS
280
    0
  9
$JOINSTYLE
280
    0
  9
$LWDISPLAY
290
    0
  9
$INSUNITS
 70
    4
  9
$HYPERLINKBASE
  1

  9
$STYLESHEET
  1

  9
$XEDIT
290
    1
  9
$CEPSNTYPE
380
    0
  9
$PSTYLEMODE
290
    1
  9
$EXTNAMES
290
    1
  9
$PSVPSCALE
 40
1
  9
$OLESTARTUP
290
    0
  9
$SORTENTS
280
  127
  9
$INDEXCTL
280
    0
  9
$HIDETEXT
280
    1
  9
$XCLIPFRAME
290
    0
  9
$HALOGAP
280
    0
  9
$OBSCOLOR
 70
  257
  9
$OBSLTYPE
280
    0
  9
$INTERSECTIONDISPLAY
280
    0
  9
$INTERSECTIONCOLOR
 70
  257
  9
$DIMASSOC
280
    1
  9
$PROJECTNAME
  1

  9
$CAMERADISPLAY
290
    0
  9
$LENSLENGTH
 40
50
  9
$CAMERAHEIGHT
 40
0
  9
$STEPSPERSEC
 40
2
  9
$STEPSIZE
 40
50
  9
$3DDWFPREC
 40
2
  9
$PSOLWIDTH
 40
5
  9
$PSOLHEIGHT
 40
80
  9
$LOFTANG1
 40
1.570796326794897
  9
$LOFTANG2
 40
1.570796326794897
  9
$LOFTMAG1
 40
0
  9
$LOFTMAG2
 40
0
  9
$LOFTPARAM
 70
    7
  9
$LOFTNORMALS
280
    1
  9
$LATITUDE
 40
1
  9
$LONGITUDE
 40
1
  9
$NORTHDIRECTION
 40
0
  9
$TIMEZONE
 70
-8000
  9
$LIGHTGLYPHDISPLAY
280
    1
  9
$TILEMODELIGHTSYNCH
280
    1
  9
$SOLIDHIST
280
    1
  9
$SHOWHIST
280
    1
  9
$DWFFRAME
280
    2
  9
$DGNFRAME
280
    0
  9
$REALWORLDSCALE
290
    1
  9
$INTERFERECOLOR
 62
    1
  9
$CSHADOW
280
    0
  9
$SHADOWPLANELOCATION
 40
0
  0
ENDSEC
  0
SECTION
  2
CLASSES
  0
ENDSEC
  0
SECTION
  2
TABLES
  0
TABLE
  2
VPORT
  5
8
330
0
100
AcDbSymbolTable
 70
    1
  0
VPORT
  5
31
330
2
100
AcDbSymbolTableRecord
100
AcDbViewportTableRecord
  2
*ACTIVE
 70
    0
 10
0
 20
0
 11
1
 21
1
 12
61.36912471689259
 22
57.61795572441749
 13
0
 23
0
 14
10
 24
10
 15
10
 25
10
 16
0
 26
0
 36
1
 17
0
 27
0
 37
0
 40
221.7691108351277
 41
1.106901217861976
 42
50
 43
0
 44
0
 50
0
 51
0
 71
    0
 72
  100
 73
    1
 74
    3
 75
    0
 76
    1
 77
    0
 78
    0
281
    0
 65
    1
110
0
120
0
130
0
111
1
121
0
131
0
112
0
122
1
132
0
 79
    0
146
0
348
10020
 60
    7
 61
    5
292
1
282
    1
141
0
142
0
 63
  250
421
3358443
  0
ENDTAB
  0
TABLE
  2
LTYPE
  5
5
330
0
100
AcDbSymbolTable
 70
    4
  0
LTYPE
  5
14
330
5
100
AcDbSymbolTableRecord
100
AcDbLinetypeTableRecord
  2
ByBlock
 70
    0
  3

 72
   65
 73
    0
 40
0
  0
LTYPE
  5
15
330
5
100
AcDbSymbolTableRecord
100
AcDbLinetypeTableRecord
  2
ByLayer
 70
    0
  3

 72
   65
 73
    0
 40
0
  0
LTYPE
  5
16
330
5
100
AcDbSymbolTableRecord
100
AcDbLinetypeTableRecord
  2
Continuous
 70
    0
  3
Solid line
 72
   65
 73
    0
 40
0
  0
LTYPE
  5
32
330
5
100
AcDbSymbolTableRecord
100
AcDbLinetypeTableRecord
  2
DOT
 70
    0
  3
Dot . . . . . . . . . . . . . . . . . . . . . .
 72
   65
 73
    2
 40
6.35
 49
0
 74
    0
 49
-6.35
 74
    0
  0
LTYPE
  5
33
330
5
100
AcDbSymbolTableRecord
100
AcDbLinetypeTableRecord
  2
DOTTINY
 70
    0
  3
Dot (.15x) .....................................
 72
   65
 73
    2
 40
0.9525
 49
0
 74
    0
 49
-0.9525
 74
    0
  0
LTYPE
  5
34
330
5
100
AcDbSymbolTableRecord
100
AcDbLinetypeTableRecord
  2
DOT2
 70
    0
  3
Dot (.5x) .....................................
 72
   65
 73
    2
 40
3.175
 49
0
 74
    0
 49
-3.175
 74
    0
  0
LTYPE
  5
35
330
5
100
AcDbSymbolTableRecord
100
AcDbLinetypeTableRecord
  2
DOTX2
 70
    0
  3
Dot (2x) .  .  .  .  .  .  .  .  .  .  .  .  .
 72
   65
 73
    2
 40
12.7
 49
0
 74
    0
 49
-12.7
 74
    0
  0
LTYPE
  5
36
330
5
100
AcDbSymbolTableRecord
100
AcDbLinetypeTableRecord
  2
DASHED
 70
    0
  3
Dashed _ _ _ _ _ _ _ _ _ _ _ _ _ _ _ _ _
 72
   65
 73
    2
 40
19.05
 49
12.7
 74
    0
 49
-6.35
 74
    0
  0
LTYPE
  5
37
330
5
100
AcDbSymbolTableRecord
100
AcDbLinetypeTableRecord
  2
DASHEDTINY
 70
    0
  3
Dashed (.15x) _ _ _ _ _ _ _ _ _ _ _ _ _ _ _ _ _
 72
   65
 73
    2
 40
2.8575
 49
1.905
 74
    0
 49
-0.9525
 74
    0
  0
LTYPE
  5
38
330
5
100
AcDbSymbolTableRecord
100
AcDbLinetypeTableRecord
  2
DASHED2
 70
    0
  3
Dashed (.5x) _ _ _ _ _ _ _ _ _ _ _ _ _ _ _ _ _
 72
   65
 73
    2
 40
9.524999999999999
 49
6.35
 74
    0
 49
-3.175
 74
    0
  0
LTYPE
  5
39
330
5
100
AcDbSymbolTableRecord
100
AcDbLinetypeTableRecord
  2
DASHEDX2
 70
    0
  3
Dashed (2x) ____  ____  ____  ____  ____  ___
 72
   65
 73
    2
 40
38.09999999999999
 49
25.4
 74
    0
 49
-12.7
 74
    0
  0
LTYPE
  5
3A
330
5
100
AcDbSymbolTableRecord
100
AcDbLinetypeTableRecord
  2
DASHDOT
 70
    0
  3
Dash dot __ . __ . __ . __ . __ . __ . __ . __
 72
   65
 73
    4
 40
25.4
 49
12.7
 74
    0
 49
-6.35
 74
    0
 49
0
 74
    0
 49
-6.35
 74
    0
  0
LTYPE
  5
3B
330
5
100
AcDbSymbolTableRecord
100
AcDbLinetypeTableRecord
  2
DASHDOTTINY
 70
    0
  3
Dash dot (.15x) _._._._._._._._._._._._._._._.
 72
   65
 73
    4
 40
3.81
 49
1.905
 74
    0
 49
-0.9525
 74
    0
 49
0
 74
    0
 49
-0.9525
 74
    0
  0
LTYPE
  5
3C
330
5
100
AcDbSymbolTableRecord
100
AcDbLinetypeTableRecord
  2
DASHDOT2
 70
    0
  3
Dash dot (.5x) _._._._._._._._._._._._._._._.
 72
   65
 73
    4
 40
12.7
 49
6.35
 74
    0
 49
-3.175
 74
    0
 49
0
 74
    0
 49
-3.175
 74
    0
  0
LTYPE
  5
3D
330
5
100
AcDbSymbolTableRecord
100
AcDbLinetypeTableRecord
  2
DASHDOTX2
 70
    0
  3
Dash dot (2x) ____  .  ____  .  ____  .  ___
 72
   65
 73
    4
 40
50.8
 49
25.4
 74
    0
 49
-12.7
 74
    0
 49
0
 74
    0
 49
-12.7
 74
    0
  0
LTYPE
  5
3E
330
5
100
AcDbSymbolTableRecord
100
AcDbLinetypeTableRecord
  2
DIVIDE
 70
    0
  3
Divide ____ . . ____ . . ____ . . ____ . . ____
 72
   65
 73
    6
 40
31.75
 49
12.7
 74
    0
 49
-6.35
 74
    0
 49
0
 74
    0
 49
-6.35
 74
    0
 49
0
 74
    0
 49
-6.35
 74
    0
  0
LTYPE
  5
3F
330
5
100
AcDbSymbolTableRecord
100
AcDbLinetypeTableRecord
  2
DIVIDETINY
 70
    0
  3
Divide (.15x) __..__..__..__..__..__..__..__.._
 72
   65
 73
    6
 40
4.7625
 49
1.905
 74
    0
 49
-0.9525
 74
    0
 49
0
 74
    0
 49
-0.9525
 74
    0
 49
0
 74
    0
 49
-0.9525
 74
    0
  0
LTYPE
  5
40
330
5
100
AcDbSymbolTableRecord
100
AcDbLinetypeTableRecord
  2
DIVIDE2
 70
    0
  3
Divide (.5x) __..__..__..__..__..__..__..__.._
 72
   65
 73
    6
 40
15.875
 49
6.35
 74
    0
 49
-3.175
 74
    0
 49
0
 74
    0
 49
-3.175
 74
    0
 49
0
 74
    0
 49
-3.175
 74
    0
  0
LTYPE
  5
41
330
5
100
AcDbSymbolTableRecord
100
AcDbLinetypeTableRecord
  2
DIVIDEX2
 70
    0
  3
Divide (2x) ________  .  .  ________  .  .  _
 72
   65
 73
    6
 40
63.5
 49
25.4
 74
    0
 49
-12.7
 74
    0
 49
0
 74
    0
 49
-12.7
 74
    0
 49
0
 74
    0
 49
-12.7
 74
    0
  0
LTYPE
  5
42
330
5
100
AcDbSymbolTableRecord
100
AcDbLinetypeTableRecord
  2
BORDER
 70
    0
  3
Border __ __ . __ __ . __ __ . __ __ . __ __ .
 72
   65
 73
    6
 40
44.45
 49
12.7
 74
    0
 49
-6.35
 74
    0
 49
12.7
 74
    0
 49
-6.35
 74
    0
 49
0
 74
    0
 49
-6.35
 74
    0
  0
LTYPE
  5
43
330
5
100
AcDbSymbolTableRecord
100
AcDbLinetypeTableRecord
  2
BORDERTINY
 70
    0
  3
Border (.15x) __.__.__.__.__.__.__.__.__.__.__.
 72
   65
 73
    6
 40
6.6675
 49
1.905
 74
    0
 49
-0.9525
 74
    0
 49
1.905
 74
    0
 49
-0.9525
 74
    0
 49
0
 74
    0
 49
-0.9525
 74
    0
  0
LTYPE
  5
44
330
5
100
AcDbSymbolTableRecord
100
AcDbLinetypeTableRecord
  2
BORDER2
 70
    0
  3
Border (.5x) __.__.__.__.__.__.__.__.__.__.__.
 72
   65
 73
    6
 40
22.225
 49
6.35
 74
    0
 49
-3.175
 74
    0
 49
6.35
 74
    0
 49
-3.175
 74
    0
 49
0
 74
    0
 49
-3.175
 74
    0
  0
LTYPE
  5
45
330
5
100
AcDbSymbolTableRecord
100
AcDbLinetypeTableRecord
  2
BORDERX2
 70
    0
  3
Border (2x) ____  ____  .  ____  ____  .  ___
 72
   65
 73
    6
 40
88.89999999999999
 49
25.4
 74
    0
 49
-12.7
 74
    0
 49
25.4
 74
    0
 49
-12.7
 74
    0
 49
0
 74
    0
 49
-12.7
 74
    0
  0
LTYPE
  5
46
330
5
100
AcDbSymbolTableRecord
100
AcDbLinetypeTableRecord
  2
CENTER
 70
    0
  3
Center ____ _ ____ _ ____ _ ____ _ ____ _ ____
 72
   65
 73
    4
 40
50.8
 49
31.75
 74
    0
 49
-6.35
 74
    0
 49
6.35
 74
    0
 49
-6.35
 74
    0
  0
LTYPE
  5
47
330
5
100
AcDbSymbolTableRecord
100
AcDbLinetypeTableRecord
  2
CENTERTINY
 70
    0
  3
Center (.15x) ___ _ ___ _ ___ _ ___ _ ___ _ ___
 72
   65
 73
    4
 40
7.619999999999999
 49
4.7625
 74
    0
 49
-0.9525
 74
    0
 49
0.9525
 74
    0
 49
-0.9525
 74
    0
  0
LTYPE
  5
48
330
5
100
AcDbSymbolTableRecord
100
AcDbLinetypeTableRecord
  2
CENTER2
 70
    0
  3
Center (.5x) ___ _ ___ _ ___ _ ___ _ ___ _ ___
 72
   65
 73
    4
 40
28.575
 49
19.05
 74
    0
 49
-3.175
 74
    0
 49
3.175
 74
    0
 49
-3.175
 74
    0
  0
LTYPE
  5
49
330
5
100
AcDbSymbolTableRecord
100
AcDbLinetypeTableRecord
  2
CENTERX2
 70
    0
  3
Center (2x) ________  __  ________  __  _____
 72
   65
 73
    4
 40
101.6
 49
63.5
 74
    0
 49
-12.7
 74
    0
 49
12.7
 74
    0
 49
-12.7
 74
    0
  0
ENDTAB
  0
TABLE
  2
LAYER
  5
2
330
0
100
AcDbSymbolTable
 70
    1
  0
LAYER
  5
10
330
2
100
AcDbSymbolTableRecord
100
AcDbLayerTableRecord
  2
0
 70
    4
 62
    7
  6
CONTINUOUS
370
    0
390
F
  0
LAYER
  5
4A
330
2
100
AcDbSymbolTableRecord
100
AcDbLayerTableRecord
  2
3dg3
 70
    4
 62
    2
  6
CONTINUOUS
370
    0
390
F
  0
LAYER
  5
4B
330
2
100
AcDbSymbolTableRecord
100
AcDbLayerTableRecord
  2
ajour
 70
    4
 62
    3
  6
CONTINUOUS
370
    0
390
F
  0
LAYER
  5
4C
330
2
100
AcDbSymbolTableRecord
100
AcDbLayerTableRecord
  2
ext1
 70
    4
 62
  171
420
4937727
  6
CONTINUOUS
370
    0
390
F
  0
LAYER
  5
4D
330
2
100
AcDbSymbolTableRecord
100
AcDbLayerTableRecord
  2
ext2
 70
    4
 62
  160
420
4277503
  6
CONTINUOUS
370
    0
390
F
  0
LAYER
  5
4E
330
2
100
AcDbSymbolTableRecord
100
AcDbLayerTableRecord
  2
ext3
 70
    4
 62
    5
  6
CONTINUOUS
370
    0
390
F
  0
LAYER
  5
4F
330
2
100
AcDbSymbolTableRecord
100
AcDbLayerTableRecord
  2
int
 70
    4
 62
  136
420
32896
  6
CONTINUOUS
370
    0
390
F
  0
LAYER
  5
50
330
2
100
AcDbSymbolTableRecord
100
AcDbLayerTableRecord
  2
mx
 70
    4
 62
    8
  6
CONTINUOUS
370
    0
390
F
  0
LAYER
  5
51
330
2
100
AcDbSymbolTableRecord
100
AcDbLayerTableRecord
  2
percage
 70
    4
 62
    4
  6
CONTINUOUS
370
    0
390
F
  0
LAYER
  5
52
330
2
100
AcDbSymbolTableRecord
100
AcDbLayerTableRecord
  2
placement
 70
    4
 62
    1
  6
CONTINUOUS
370
    0
390
F
  0
LAYER
  5
53
330
2
100
AcDbSymbolTableRecord
100
AcDbLayerTableRecord
  2
rpi
 70
    4
 62
    6
  6
CONTINUOUS
370
    0
390
F
  0
LAYER
  5
54
330
2
100
AcDbSymbolTableRecord
100
AcDbLayerTableRecord
  2
rpi-cut
 70
    0
 62
  216
420
8388736
  6
CONTINUOUS
370
    0
390
F
  0
ENDTAB
  0
TABLE
  2
STYLE
  5
3
330
0
100
AcDbSymbolTable
 70
    3
  0
STYLE
  5
55
330
2
100
AcDbSymbolTableRecord
100
AcDbTextStyleTableRecord
  2
Standard
 70
    0
 40
0
 41
1
 50
0
 71
    0
 42
1
  3
txt
  4

  0
ENDTAB
  0
TABLE
  2
VIEW
  5
6
330
0
100
AcDbSymbolTable
 70
    0
  0
ENDTAB
  0
TABLE
  2
UCS
  5
7
330
0
100
AcDbSymbolTable
 70
    0
  0
ENDTAB
  0
TABLE
  2
APPID
  5
9
330
0
100
AcDbSymbolTable
 70
    1
  0
APPID
  5
12
330
9
100
AcDbSymbolTableRecord
100
AcDbRegAppTableRecord
  2
ACAD
 70
    0
  0
APPID
  5
56
330
9
100
AcDbSymbolTableRecord
100
AcDbRegAppTableRecord
  2
LibreCad
 70
    0
  0
ENDTAB
  0
TABLE
  2
DIMSTYLE
  5
A
330
0
100
AcDbSymbolTable
 70
    1
100
AcDbDimStyleTable
 71
    1
  0
DIMSTYLE
105
57
330
A
100
AcDbSymbolTableRecord
100
AcDbDimStyleTableRecord
  2
Standard
 70
    0
 40
2.5
 41
2.5
 42
0.625
 43
0.38
 44
1.25
 45
0
 46
0
 47
0
 48
0
 49
1
140
2.5
141
0.09
142
0
143
25.4
144
1
145
0
146
1
147
0.625
148
0
 71
    0
 72
    0
 73
    0
 74
    1
 75
    0
 76
    0
 77
    0
 78
    8
 79
    0
170
    0
171
    2
172
    0
173
    0
174
    0
175
    0
176
    0
177
    0
178
    0
179
    0
271
    2
272
    4
273
    2
274
    2
275
    0
276
    0
277
    2
278
   44
279
    0
280
    0
281
    0
282
    0
283
    1
284
    0
285
    0
286
    0
288
    0
289
    3
340
STANDARD
341

371
   -2
372
   -2
  0
ENDTAB
  0
TABLE
  2
BLOCK_RECORD
  5
1
330
0
100
AcDbSymbolTable
 70
    2
  0
BLOCK_RECORD
  5
1F
330
1
100
AcDbSymbolTableRecord
100
AcDbBlockTableRecord
  2
*Model_Space
 70
    0
280
    1
281
    0
  0
BLOCK_RECORD
  5
1E
330
1
100
AcDbSymbolTableRecord
100
AcDbBlockTableRecord
  2
*Paper_Space
 70
    0
280
    1
281
    0
  0
ENDTAB
  0
ENDSEC
  0
SECTION
  2
BLOCKS
  0
BLOCK
  5
20
330
1F
100
AcDbEntity
  8
0
100
AcDbBlockBegin
  2
*Model_Space
 70
    0
 10
0
 20
0
 30
0
  3
*Model_Space
  1

  0
ENDBLK
  5
21
330
1F
100
AcDbEntity
  8
0
100
AcDbBlockEnd
  0
BLOCK
  5
1C
330
1B
100
AcDbEntity
  8
0
100
AcDbBlockBegin
  2
*Paper_Space
 70
    0
 10
0
 20
0
 30
0
  3
*Paper_Space
  1

  0
ENDBLK
  5
1D
330
1F
100
AcDbEntity
  8
0
100
AcDbBlockEnd
  0
ENDSEC
  0
SECTION
  2
ENTITIES
  0
LINE
  5
58
100
AcDbEntity
  8
0
  6
ByLayer
 62
  256
370
   -1
100
AcDbLine
 10
-44.73077341639161
 20
35.79819240221068
 11
-30.86702041639163
 21
33.84976900221068
  0
LINE
  5
59
100
AcDbEntity
  8
0
  6
ByLayer
 62
  256
370
   -1
100
AcDbLine
 10
-46.67919681639162
 20
21.93443940221068
 11
-32.81544381639162
 21
19.98601600221068
  0
LINE
  5
5A
100
AcDbEntity
  8
0
  6
ByLayer
 62
  256
370
   -1
100
AcDbLine
 10
-44.73077341639161
 20
35.79819240221068
 11
-46.67919681639162
 21
21.93443940221068
  0
LINE
  5
5B
100
AcDbEntity
  8
0
  6
ByLayer
 62
  256
370
   -1
100
AcDbLine
 10
-30.86702041639163
 20
33.84976900221068
 11
-32.81544381639162
 21
19.98601600221068
  0
LINE
  5
5C
100
AcDbEntity
  8
0
  6
ByLayer
 62
  256
370
   -1
100
AcDbLine
 10
-82.36096001639162
 20
41.08677020221068
 11
-68.49720701639163
 21
39.13834680221068
  0
LINE
  5
5D
100
AcDbEntity
  8
0
  6
ByLayer
 62
  256
370
   -1
100
AcDbLine
 10
-84.30938341639163
 20
27.22301720221068
 11
-70.44563041639162
 21
25.27459380221068
  0
LINE
  5
5E
100
AcDbEntity
  8
0
  6
ByLayer
 62
  256
370
   -1
100
AcDbLine
 10
-82.36096001639162
 20
41.08677020221068
 11
-84.30938341639163
 21
27.22301720221068
  0
LINE
  5
5F
100
AcDbEntity
  8
0
  6
ByLayer
 62
  256
370
   -1
100
AcDbLine
 10
-68.49720701639163
 20
39.13834680221068
 11
-70.44563041639162
 21
25.27459380221068
  0
LINE
  5
60
100
AcDbEntity
  8
0
  6
ByLayer
 62
  256
370
   -1
100
AcDbLine
 10
-63.54586671639162
 20
38.44248130221068
 11
-49.68211371639162
 21
36.49405790221068
  0
LINE
  5
61
100
AcDbEntity
  8
0
  6
ByLayer
 62
  256
370
   -1
100
AcDbLine
 10
-65.49429011639162
 20
24.57872830221068
 11
-51.63053711639162
 21
22.63030490221068
  0
LINE
  5
62
100
AcDbEntity
  8
0
  6
ByLayer
 62
  256
370
   -1
100
AcDbLine
 10
-63.54586671639162
 20
38.44248130221068
 11
-65.49429011639162
 21
24.57872830221068
  0
LINE
  5
63
100
AcDbEntity
  8
0
  6
ByLayer
 62
  256
370
   -1
100
AcDbLine
 10
-49.68211371639162
 20
36.49405790221068
 11
-51.63053711639162
 21
22.63030490221068
  0
LINE
  5
64
100
AcDbEntity
  8
0
  6
ByLayer
 62
  256
370
   -1
100
AcDbLine
 10
-25.91568011639161
 20
33.15390350221068
 11
-12.05192711639162
 21
31.20548010221068
  0
LINE
  5
65
100
AcDbEntity
  8
0
  6
ByLayer
 62
  256
370
   -1
100
AcDbLine
 10
-27.86410351639162
 20
19.29015050221068
 11
-14.00035051639162
 21
17.34172710221068
  0
LINE
  5
66
100
AcDbEntity
  8
0
  6
ByLayer
 62
  256
370
   -1
100
AcDbLine
 10
-25.91568011639161
 20
33.15390350221068
 11
-27.86410351639162
 21
19.29015050221068
  0
LINE
  5
67
100
AcDbEntity
  8
0
  6
ByLayer
 62
  256
370
   -1
100
AcDbLine
 10
-12.05192711639162
 20
31.20548010221068
 11
-14.00035051639162
 21
17.34172710221068
  0
LINE
  5
68
100
AcDbEntity
  8
0
  6
ByLayer
 62
  256
370
   -1
100
AcDbLine
 10
-80.30147561639163
 20
21.61060470221068
 11
-66.43772261639162
 21
19.66218130221068
  0
LINE
  5
69
100
AcDbEntity
  8
0
  6
ByLayer
 62
  256
370
   -1
100
AcDbLine
 10
-82.24989901639162
 20
7.746851702210684
 11
-68.38614601639162
 21
5.798428302210681
  0
LINE
  5
6A
100
AcDbEntity
  8
0
  6
ByLayer
 62
  256
370
   -1
100
AcDbLine
 10
-80.30147561639163
 20
21.61060470221068
 11
-82.24989901639162
 21
7.746851702210684
  0
LINE
  5
6B
100
AcDbEntity
  8
0
  6
ByLayer
 62
  256
370
   -1
100
AcDbLine
 10
-66.43772261639162
 20
19.66218130221068
 11
-68.38614601639162
 21
5.798428302210681
  0
LINE
  5
6C
100
AcDbEntity
  8
0
  6
ByLayer
 62
  256
370
   -1
100
AcDbLine
 10
-61.48638231639162
 20
18.96631580221068
 11
-47.62262931639162
 21
17.01789240221068
  0
LINE
  5
6D
100
AcDbEntity
  8
0
  6
ByLayer
 62
  256
370
   -1
100
AcDbLine
 10
-63.43480571639162
 20
5.102562802210684
 11
-49.57105271639162
 21
3.154139402210681
  0
LINE
  5
6E
100
AcDbEntity
  8
0
  6
ByLayer
 62
  256
370
   -1
100
AcDbLine
 10
-61.48638231639162
 20
18.96631580221068
 11
-63.43480571639162
 21
5.102562802210684
  0
LINE
  5
6F
100
AcDbEntity
  8
0
  6
ByLayer
 62
  256
370
   -1
100
AcDbLine
 10
-47.62262931639162
 20
17.01789240221068
 11
-49.57105271639162
 21
3.154139402210681
  0
LINE
  5
70
100
AcDbEntity
  8
0
  6
ByLayer
 62
  256
370
   -1
100
AcDbLine
 10
-42.67128901639163
 20
16.32202690221068
 11
-28.80753601639162
 21
14.37360350221068
  0
LINE
  5
71
100
AcDbEntity
  8
0
  6
ByLayer
 62
  256
370
   -1
100
AcDbLine
 10
-44.61971241639162
 20
2.458273902210685
 11
-30.75595941639162
 21
0.5098505022106821
  0
LINE
  5
72
100
AcDbEntity
  8
0
  6
ByLayer
 62
  256
370
   -1
100
AcDbLine
 10
-42.67128901639163
 20
16.32202690221068
 11
-44.61971241639162
 21
2.458273902210685
  0
LINE
  5
73
100
AcDbEntity
  8
0
  6
ByLayer
 62
  256
370
   -1
100
AcDbLine
 10
-28.80753601639162
 20
14.37360350221068
 11
-30.75595941639162
 21
0.5098505022106821
  0
LINE
  5
74
100
AcDbEntity
  8
0
  6
ByLayer
 62
  256
370
   -1
100
AcDbLine
 10
-23.85619571639162
 20
13.67773800221068
 11
-9.992442716391622
 21
11.72931460221069
  0
LINE
  5
75
100
AcDbEntity
  8
0
  6
ByLayer
 62
  256
370
   -1
100
AcDbLine
 10
-25.80461911639162
 20
-0.1860149977893144
 11
-11.94086611639162
 21
-2.134438397789317
  0
LINE
  5
76
100
AcDbEntity
  8
0
  6
ByLayer
 62
  256
370
   -1
100
AcDbLine
 10
-23.85619571639162
 20
13.67773800221068
 11
-25.80461911639162
 21
-0.1860149977893144
  0
LINE
  5
77
100
AcDbEntity
  8
0
  6
ByLayer
 62
  256
370
   -1
100
AcDbLine
 10
-9.992442716391622
 20
11.72931460221069
 11
-11.94086611639162
 21
-2.134438397789317
  0
LINE
  5
78
100
AcDbEntity
  8
0
  6
ByLayer
 62
  256
370
   -1
100
AcDbLine
 10
-73.53821791639162
 20
1.473366902210685
 11
-59.67446491639162
 21
-0.4750564977893177
  0
LINE
  5
79
100
AcDbEntity
  8
0
  6
ByLayer
 62
  256
370
   -1
100
AcDbLine
 10
-75.48664131639163
 20
-12.39038609778932
 11
-61.62288831639162
 21
-14.33880949778932
  0
LINE
  5
7A
100
AcDbEntity
  8
0
  6
ByLayer
 62
  256
370
   -1
100
AcDbLine
 10
-73.53821791639162
 20
1.473366902210685
 11
-75.48664131639163
 21
-12.39038609778932
  0
LINE
  5
7B
100
AcDbEntity
  8
0
  6
ByLayer
 62
  256
370
   -1
100
AcDbLine
 10
-59.67446491639162
 20
-0.4750564977893177
 11
-61.62288831639162
 21
-14.33880949778932
  0
LINE
  5
7C
100
AcDbEntity
  8
0
  6
ByLayer
 62
  256
370
   -1
100
AcDbLine
 10
-54.72312461639162
 20
-1.170921997789314
 11
-40.85937161639161
 21
-3.119345397789317
  0
LINE
  5
7D
100
AcDbEntity
  8
0
  6
ByLayer
 62
  256
370
   -1
100
AcDbLine
 10
-56.67154801639162
 20
-15.03467499778932
 11
-42.80779501639162
 21
-16.98309839778932
  0
LINE
  5
7E
100
AcDbEntity
  8
0
  6
ByLayer
 62
  256
370
   -1
100
AcDbLine
 10
-54.72312461639162
 20
-1.170921997789314
 11
-56.67154801639162
 21
-15.03467499778932
  0
LINE
  5
7F
100
AcDbEntity
  8
0
  6
ByLayer
 62
  256
370
   -1
100
AcDbLine
 10
-40.85937161639161
 20
-3.119345397789317
 11
-42.80779501639162
 21
-16.98309839778932
  0
LINE
  5
80
100
AcDbEntity
  8
0
  6
ByLayer
 62
  256
370
   -1
100
AcDbLine
 10
-35.90803131639161
 20
-3.815210897789321
 11
-22.04427831639161
 21
-5.763634297789316
  0
LINE
  5
81
100
AcDbEntity
  8
0
  6
ByLayer
 62
  256
370
   -1
100
AcDbLine
 10
-37.85645471639162
 20
-17.67896389778932
 11
-23.99270171639162
 21
-19.62738729778931
  0
LINE
  5
82
100
AcDbEntity
  8
0
  6
ByLayer
 62
  256
370
   -1
100
AcDbLine
 10
-35.90803131639161
 20
-3.815210897789321
 11
-37.85645471639162
 21
-17.67896389778932
  0
LINE
  5
83
100
AcDbEntity
  8
0
  6
ByLayer
 62
  256
370
   -1
100
AcDbLine
 10
-22.04427831639161
 20
-5.763634297789316
 11
-23.99270171639162
 21
-19.62738729778931
  0
LINE
  5
84
100
AcDbEntity
  8
0
  6
ByLayer
 62
  256
370
   -1
100
AcDbLine
 10
-17.09293801639161
 20
-6.45949979778932
 11
-3.229185016391625
 21
-8.407923197789316
  0
LINE
  5
85
100
AcDbEntity
  8
0
  6
ByLayer
 62
  256
370
   -1
100
AcDbLine
 10
-19.04136141639162
 20
-20.32325279778932
 11
-5.177608416391621
 21
-22.27167619778932
  0
LINE
  5
86
100
AcDbEntity
  8
0
  6
ByLayer
 62
  256
370
   -1
100
AcDbLine
 10
-17.09293801639161
 20
-6.45949979778932
 11
-19.04136141639162
 21
-20.32325279778932
  0
LINE
  5
87
100
AcDbEntity
  8
0
  6
ByLayer
 62
  256
370
   -1
100
AcDbLine
 10
-3.229185016391625
 20
-8.407923197789316
 11
-5.177608416391621
 21
-22.27167619778932
  0
LINE
  5
88
100
AcDbEntity
  8
0
  6
ByLayer
 62
  256
370
   -1
100
AcDbLine
 10
-62.07118681639162
 20
-19.32494309778932
 11
-48.20743381639162
 21
-21.27336649778931
  0
LINE
  5
89
100
AcDbEntity
  8
0
  6
ByLayer
 62
  256
370
   -1
100
AcDbLine
 10
-64.01961021639161
 20
-33.18869609778932
 11
-50.15585721639162
 21
-35.13711949778931
  0
LINE
  5
8A
100
AcDbEntity
  8
0
  6
ByLayer
 62
  256
370
   -1
100
AcDbLine
 10
-62.07118681639162
 20
-19.32494309778932
 11
-64.01961021639161
 21
-33.18869609778932
  0
LINE
  5
8B
100
AcDbEntity
  8
0
  6
ByLayer
 62
  256
370
   -1
100
AcDbLine
 10
-48.20743381639162
 20
-21.27336649778931
 11
-50.15585721639162
 21
-35.13711949778931
  0
LINE
  5
8C
100
AcDbEntity
  8
0
  6
ByLayer
 62
  256
370
   -1
100
AcDbLine
 10
-31.49666021639162
 20
-23.62191249778932
 11
-17.63290721639162
 21
-25.57033589778932
  0
LINE
  5
8D
100
AcDbEntity
  8
0
  6
ByLayer
 62
  256
370
   -1
100
AcDbLine
 10
-33.44508361639161
 20
-37.48566549778931
 11
-19.58133061639163
 21
-39.43408889778932
  0
LINE
  5
8E
100
AcDbEntity
  8
0
  6
ByLayer
 62
  256
370
   -1
100
AcDbLine
 10
-31.49666021639162
 20
-23.62191249778932
 11
-33.44508361639161
 21
-37.48566549778931
  0
LINE
  5
8F
100
AcDbEntity
  8
0
  6
ByLayer
 62
  256
370
   -1
100
AcDbLine
 10
-17.63290721639162
 20
-25.57033589778932
 11
-19.58133061639163
 21
-39.43408889778932
  0
LINE
  5
90
100
AcDbEntity
  8
0
  6
ByLayer
 62
  256
370
   -1
100
AcDbLine
 10
-39.99171521639163
 20
-23.43783799778932
 11
-33.05983881639162
 21
-24.41204969778931
  0
LINE
  5
91
100
AcDbEntity
  8
0
  6
ByLayer
 62
  256
370
   -1
100
AcDbLine
 10
-42.07931181639162
 20
-38.29185899778932
 11
-35.14743531639162
 21
-39.26607069778932
  0
LINE
  5
92
100
AcDbEntity
  8
0
  6
ByLayer
 62
  256
370
   -1
100
AcDbLine
 10
-39.99171521639163
 20
-23.43783799778932
 11
-42.07931181639162
 21
-38.29185899778932
  0
LINE
  5
93
100
AcDbEntity
  8
0
  6
ByLayer
 62
  256
370
   -1
100
AcDbLine
 10
-33.05983881639162
 20
-24.41204969778931
 11
-35.14743531639162
 21
-39.26607069778932
  0
LINE
  5
94
100
AcDbEntity
  8
0
  6
ByLayer
 62
  256
370
   -1
100
AcDbLine
 10
-16.34807481639162
 20
-26.76073489778932
 11
-9.416198316391615
 21
-27.73494659778932
  0
LINE
  5
95
100
AcDbEntity
  8
0
  6
ByLayer
 62
  256
370
   -1
100
AcDbLine
 10
-18.43567131639162
 20
-41.61475589778932
 11
-11.50379491639161
 21
-42.58896769778931
  0
LINE
  5
96
100
AcDbEntity
  8
0
  6
ByLayer
 62
  256
370
   -1
100
AcDbLine
 10
-16.34807481639162
 20
-26.76073489778932
 11
-18.43567131639162
 21
-41.61475589778932
  0
LINE
  5
97
100
AcDbEntity
  8
0
  6
ByLayer
 62
  256
370
   -1
100
AcDbLine
 10
-9.416198316391615
 20
-27.73494659778932
 11
-11.50379491639161
 21
-42.58896769778931
  0
LINE
  5
98
100
AcDbEntity
  8
0
  6
ByLayer
 62
  256
370
   -1
100
AcDbLine
 10
63.83762488360838
 20
37.99729980221068
 11
77.70137788360839
 21
39.94572320221068
  0
LINE
  5
99
100
AcDbEntity
  8
0
  6
ByLayer
 62
  256
370
   -1
100
AcDbLine
 10
65.78604828360838
 20
24.13354680221068
 11
79.64980128360838
 21
26.08197020221068
  0
LINE
  5
9A
100
AcDbEntity
  8
0
  6
ByLayer
 62
  256
370
   -1
100
AcDbLine
 10
63.83762488360838
 20
37.99729980221068
 11
65.78604828360838
 21
24.13354680221068
  0
LINE
  5
9B
100
AcDbEntity
  8
0
  6
ByLayer
 62
  256
370
   -1
100
AcDbLine
 10
77.70137788360839
 20
39.94572320221068
 11
79.64980128360838
 21
26.08197020221068
  0
LINE
  5
9C
100
AcDbEntity
  8
0
  6
ByLayer
 62
  256
370
   -1
100
AcDbLine
 10
7.392344983608382
 20
30.06443310221068
 11
21.25609798360838
 21
32.01285650221068
  0
LINE
  5
9D
100
AcDbEntity
  8
0
  6
ByLayer
 62
  256
370
   -1
100
AcDbLine
 10
9.340768383608378
 20
16.20068010221068
 11
23.20452138360838
 21
18.14910350221068
  0
LINE
  5
9E
100
AcDbEntity
  8
0
  6
ByLayer
 62
  256
370
   -1
100
AcDbLine
 10
7.392344983608382
 20
30.06443310221068
 11
9.340768383608378
 21
16.20068010221068
  0
LINE
  5
9F
100
AcDbEntity
  8
0
  6
ByLayer
 62
  256
370
   -1
100
AcDbLine
 10
21.25609798360838
 20
32.01285650221068
 11
23.20452138360838
 21
18.14910350221068
  0
LINE
  5
A0
100
AcDbEntity
  8
0
  6
ByLayer
 62
  256
370
   -1
100
AcDbLine
 10
26.20743828360838
 20
32.70872200221068
 11
40.07119128360839
 21
34.65714540221068
  0
LINE
  5
A1
100
AcDbEntity
  8
0
  6
ByLayer
 62
  256
370
   -1
100
AcDbLine
 10
28.15586168360838
 20
18.84496900221068
 11
42.01961468360838
 21
20.79339240221068
  0
LINE
  5
A2
100
AcDbEntity
  8
0
  6
ByLayer
 62
  256
370
   -1
100
AcDbLine
 10
26.20743828360838
 20
32.70872200221068
 11
28.15586168360838
 21
18.84496900221068
  0
LINE
  5
A3
100
AcDbEntity
  8
0
  6
ByLayer
 62
  256
370
   -1
100
AcDbLine
 10
40.07119128360839
 20
34.65714540221068
 11
42.01961468360838
 21
20.79339240221068
  0
LINE
  5
A4
100
AcDbEntity
  8
0
  6
ByLayer
 62
  256
370
   -1
100
AcDbLine
 10
45.02253158360838
 20
35.35301090221068
 11
58.88628458360839
 21
37.30143430221068
  0
LINE
  5
A5
100
AcDbEntity
  8
0
  6
ByLayer
 62
  256
370
   -1
100
AcDbLine
 10
46.97095498360838
 20
21.48925790221068
 11
60.83470798360838
 21
23.43768130221068
  0
LINE
  5
A6
100
AcDbEntity
  8
0
  6
ByLayer
 62
  256
370
   -1
100
AcDbLine
 10
45.02253158360838
 20
35.35301090221068
 11
46.97095498360838
 21
21.48925790221068
  0
LINE
  5
A7
100
AcDbEntity
  8
0
  6
ByLayer
 62
  256
370
   -1
100
AcDbLine
 10
58.88628458360839
 20
37.30143430221068
 11
60.83470798360838
 21
23.43768130221068
  0
LINE
  5
A8
100
AcDbEntity
  8
0
  6
ByLayer
 62
  256
370
   -1
100
AcDbLine
 10
14.74040718360838
 20
11.91041200221068
 11
28.60416018360837
 21
13.85883540221068
  0
LINE
  5
A9
100
AcDbEntity
  8
0
  6
ByLayer
 62
  256
370
   -1
100
AcDbLine
 10
16.68883058360839
 20
-1.953340997789319
 11
30.55258358360837
 21
-0.004917597789315664
  0
LINE
  5
AA
100
AcDbEntity
  8
0
  6
ByLayer
 62
  256
370
   -1
100
AcDbLine
 10
14.74040718360838
 20
11.91041200221068
 11
16.68883058360839
 21
-1.953340997789319
  0
LINE
  5
AB
100
AcDbEntity
  8
0
  6
ByLayer
 62
  256
370
   -1
100
AcDbLine
 10
28.60416018360837
 20
13.85883540221068
 11
30.55258358360837
 21
-0.004917597789315664
  0
LINE
  5
AC
100
AcDbEntity
  8
0
  6
ByLayer
 62
  256
370
   -1
100
AcDbLine
 10
33.55550048360837
 20
14.55470090221068
 11
47.41925348360837
 21
16.50312430221068
  0
LINE
  5
AD
100
AcDbEntity
  8
0
  6
ByLayer
 62
  256
370
   -1
100
AcDbLine
 10
35.50392388360839
 20
0.6909479022106808
 11
49.36767688360837
 21
2.639371302210684
  0
LINE
  5
AE
100
AcDbEntity
  8
0
  6
ByLayer
 62
  256
370
   -1
100
AcDbLine
 10
33.55550048360837
 20
14.55470090221068
 11
35.50392388360839
 21
0.6909479022106808
  0
LINE
  5
AF
100
AcDbEntity
  8
0
  6
ByLayer
 62
  256
370
   -1
100
AcDbLine
 10
47.41925348360837
 20
16.50312430221068
 11
49.36767688360837
 21
2.639371302210684
  0
LINE
  5
B0
100
AcDbEntity
  8
0
  6
ByLayer
 62
  256
370
   -1
100
AcDbLine
 10
52.37059378360837
 20
17.19898990221068
 11
66.23434678360837
 21
19.14741330221068
  0
LINE
  5
B1
100
AcDbEntity
  8
0
  6
ByLayer
 62
  256
370
   -1
100
AcDbLine
 10
54.31901718360839
 20
3.335236902210681
 11
68.18277018360837
 21
5.283660302210684
  0
LINE
  5
B2
100
AcDbEntity
  8
0
  6
ByLayer
 62
  256
370
   -1
100
AcDbLine
 10
52.37059378360837
 20
17.19898990221068
 11
54.31901718360839
 21
3.335236902210681
  0
LINE
  5
B3
100
AcDbEntity
  8
0
  6
ByLayer
 62
  256
370
   -1
100
AcDbLine
 10
66.23434678360837
 20
19.14741330221068
 11
68.18277018360837
 21
5.283660302210684
  0
LINE
  5
B4
100
AcDbEntity
  8
0
  6
ByLayer
 62
  256
370
   -1
100
AcDbLine
 10
71.18568708360837
 20
19.84327880221068
 11
85.04944008360837
 21
21.79170220221068
  0
LINE
  5
B5
100
AcDbEntity
  8
0
  6
ByLayer
 62
  256
370
   -1
100
AcDbLine
 10
73.13411048360837
 20
5.979525802210681
 11
86.99786348360837
 21
7.927949202210684
  0
LINE
  5
B6
100
AcDbEntity
  8
0
  6
ByLayer
 62
  256
370
   -1
100
AcDbLine
 10
71.18568708360837
 20
19.84327880221068
 11
73.13411048360837
 21
5.979525802210681
  0
LINE
  5
B7
100
AcDbEntity
  8
0
  6
ByLayer
 62
  256
370
   -1
100
AcDbLine
 10
85.04944008360837
 20
21.79170220221068
 11
86.99786348360837
 21
7.927949202210684
  0
LINE
  5
B8
100
AcDbEntity
  8
0
  6
ByLayer
 62
  256
370
   -1
100
AcDbLine
 10
7.977149483608386
 20
-8.226825697789316
 11
21.84090248360837
 21
-6.27840229778932
  0
LINE
  5
B9
100
AcDbEntity
  8
0
  6
ByLayer
 62
  256
370
   -1
100
AcDbLine
 10
9.925572883608382
 20
-22.09057869778931
 11
23.78932588360837
 21
-20.14215529778932
  0
LINE
  5
BA
100
AcDbEntity
  8
0
  6
ByLayer
 62
  256
370
   -1
100
AcDbLine
 10
7.977149483608386
 20
-8.226825697789316
 11
9.925572883608382
 21
-22.09057869778931
  0
LINE
  5
BB
100
AcDbEntity
  8
0
  6
ByLayer
 62
  256
370
   -1
100
AcDbLine
 10
21.84090248360837
 20
-6.27840229778932
 11
23.78932588360837
 21
-20.14215529778932
  0
LINE
  5
BC
100
AcDbEntity
  8
0
  6
ByLayer
 62
  256
370
   -1
100
AcDbLine
 10
26.79224278360837
 20
-5.582536797789317
 11
40.65599578360838
 21
-3.634113397789321
  0
LINE
  5
BD
100
AcDbEntity
  8
0
  6
ByLayer
 62
  256
370
   -1
100
AcDbLine
 10
28.74066618360837
 20
-19.44628979778932
 11
42.60441918360837
 21
-17.49786639778932
  0
LINE
  5
BE
100
AcDbEntity
  8
0
  6
ByLayer
 62
  256
370
   -1
100
AcDbLine
 10
26.79224278360837
 20
-5.582536797789317
 11
28.74066618360837
 21
-19.44628979778932
  0
LINE
  5
BF
100
AcDbEntity
  8
0
  6
ByLayer
 62
  256
370
   -1
100
AcDbLine
 10
40.65599578360838
 20
-3.634113397789321
 11
42.60441918360837
 21
-17.49786639778932
  0
LINE
  5
C0
100
AcDbEntity
  8
0
  6
ByLayer
 62
  256
370
   -1
100
AcDbLine
 10
45.60733608360837
 20
-2.938247897789317
 11
59.47108908360838
 21
-0.9898244977893143
  0
LINE
  5
C1
100
AcDbEntity
  8
0
  6
ByLayer
 62
  256
370
   -1
100
AcDbLine
 10
47.55575948360837
 20
-16.80200089778931
 11
61.41951248360837
 21
-14.85357749778932
  0
LINE
  5
C2
100
AcDbEntity
  8
0
  6
ByLayer
 62
  256
370
   -1
100
AcDbLine
 10
45.60733608360837
 20
-2.938247897789317
 11
47.55575948360837
 21
-16.80200089778931
  0
LINE
  5
C3
100
AcDbEntity
  8
0
  6
ByLayer
 62
  256
370
   -1
100
AcDbLine
 10
59.47108908360838
 20
-0.9898244977893143
 11
61.41951248360837
 21
-14.85357749778932
  0
LINE
  5
C4
100
AcDbEntity
  8
0
  6
ByLayer
 62
  256
370
   -1
100
AcDbLine
 10
64.42242938360837
 20
-0.2939589977893178
 11
78.28618238360838
 21
1.654464402210685
  0
LINE
  5
C5
100
AcDbEntity
  8
0
  6
ByLayer
 62
  256
370
   -1
100
AcDbLine
 10
66.37085278360837
 20
-14.15771199778932
 11
80.23460578360837
 21
-12.20928859778932
  0
LINE
  5
C6
100
AcDbEntity
  8
0
  6
ByLayer
 62
  256
370
   -1
100
AcDbLine
 10
64.42242938360837
 20
-0.2939589977893178
 11
66.37085278360837
 21
-14.15771199778932
  0
LINE
  5
C7
100
AcDbEntity
  8
0
  6
ByLayer
 62
  256
370
   -1
100
AcDbLine
 10
78.28618238360838
 20
1.654464402210685
 11
80.23460578360837
 21
-12.20928859778932
  0
LINE
  5
C8
100
AcDbEntity
  8
0
  6
ByLayer
 62
  256
370
   -1
100
AcDbLine
 10
20.02898498360838
 20
-25.71977459778931
 11
33.89273798360838
 21
-23.77135119778931
  0
LINE
  5
C9
100
AcDbEntity
  8
0
  6
ByLayer
 62
  256
370
   -1
100
AcDbLine
 10
21.97740838360838
 20
-39.58352759778931
 11
35.84116138360838
 21
-37.63510419778932
  0
LINE
  5
CA
100
AcDbEntity
  8
0
  6
ByLayer
 62
  256
370
   -1
100
AcDbLine
 10
20.02898498360838
 20
-25.71977459778931
 11
21.97740838360838
 21
-39.58352759778931
  0
LINE
  5
CB
100
AcDbEntity
  8
0
  6
ByLayer
 62
  256
370
   -1
100
AcDbLine
 10
33.89273798360838
 20
-23.77135119778931
 11
35.84116138360838
 21
-37.63510419778932
  0
LINE
  5
CC
100
AcDbEntity
  8
0
  6
ByLayer
 62
  256
370
   -1
100
AcDbLine
 10
11.81227608360838
 20
-27.88438529778932
 11
18.74415258360838
 21
-26.91017359778932
  0
LINE
  5
CD
100
AcDbEntity
  8
0
  6
ByLayer
 62
  256
370
   -1
100
AcDbLine
 10
13.89987268360838
 20
-42.73840639778932
 11
20.83174908360837
 21
-41.76419459778931
  0
LINE
  5
CE
100
AcDbEntity
  8
0
  6
ByLayer
 62
  256
370
   -1
100
AcDbLine
 10
11.81227608360838
 20
-27.88438529778932
 11
13.89987268360838
 21
-42.73840639778932
  0
LINE
  5
CF
100
AcDbEntity
  8
0
  6
ByLayer
 62
  256
370
   -1
100
AcDbLine
 10
18.74415258360838
 20
-26.91017359778932
 11
20.83174908360837
 21
-41.76419459778931
  0
LINE
  5
D0
100
AcDbEntity
  8
0
  6
ByLayer
 62
  256
370
   -1
100
AcDbLine
 10
35.45591658360837
 20
-24.56148839778932
 11
42.38779298360839
 21
-23.58727669778932
  0
LINE
  5
D1
100
AcDbEntity
  8
0
  6
ByLayer
 62
  256
370
   -1
100
AcDbLine
 10
37.54351308360839
 20
-39.41550939778932
 11
44.47538958360838
 21
-38.44129769778932
  0
LINE
  5
D2
100
AcDbEntity
  8
0
  6
ByLayer
 62
  256
370
   -1
100
AcDbLine
 10
35.45591658360837
 20
-24.56148839778932
 11
37.54351308360839
 21
-39.41550939778932
  0
LINE
  5
D3
100
AcDbEntity
  8
0
  6
ByLayer
 62
  256
370
   -1
100
AcDbLine
 10
42.38779298360839
 20
-23.58727669778932
 11
44.47538958360838
 21
-38.44129769778932
  0
LINE
  5
D4
100
AcDbEntity
  8
0
  6
ByLayer
 62
  256
370
   -1
100
AcDbLine
 10
48.25162498360839
 20
-21.75334119778931
 11
62.11537798360837
 21
-19.80491779778932
  0
LINE
  5
D5
100
AcDbEntity
  8
0
  6
ByLayer
 62
  256
370
   -1
100
AcDbLine
 10
50.20004838360839
 20
-35.61709419778931
 11
64.06380138360839
 21
-33.66867079778932
  0
LINE
  5
D6
100
AcDbEntity
  8
0
  6
ByLayer
 62
  256
370
   -1
100
AcDbLine
 10
48.25162498360839
 20
-21.75334119778931
 11
50.20004838360839
 21
-35.61709419778931
  0
LINE
  5
D7
100
AcDbEntity
  8
0
  6
ByLayer
 62
  256
370
   -1
100
AcDbLine
 10
62.11537798360837
 20
-19.80491779778932
 11
64.06380138360839
 21
-33.66867079778932
  0
LINE
  5
D8
100
AcDbEntity
  8
mx
  6
ByLayer
 62
  256
370
   -1
100
AcDbLine
 10
-84.48869744290617
 20
43.91037310002014
 11
-9.228324194956102
 21
33.33321752540482
  0
LINE
  5
D9
100
AcDbEntity
  8
mx
  6
ByLayer
 62
  256
370
   -1
100
AcDbLine
 10
-84.48869744290617
 20
43.91037310002014
 11
-87.13298634004076
 21
25.09527976326584
  0
LINE
  5
DA
100
AcDbEntity
  8
mx
  6
ByLayer
 62
  256
370
   -1
100
AcDbLine
 10
-82.42921305060064
 20
24.43420754527119
 11
-85.0735019423368
 21
5.619114246928504
  0
LINE
  5
DB
100
AcDbEntity
  8
mx
  6
ByLayer
 62
  256
370
   -1
100
AcDbLine
 10
-85.0735019423368
 20
5.619114246928504
 11
-0.4055820938493042
 21
-6.280185766719818
  0
LINE
  5
DC
100
AcDbEntity
  8
mx
  6
ByLayer
 62
  256
370
   -1
100
AcDbLine
 10
4.568742059959249
 20
32.19217054115552
 11
79.82911530790932
 21
42.76932611577085
  0
LINE
  5
DD
100
AcDbEntity
  8
mx
  6
ByLayer
 62
  256
370
   -1
100
AcDbLine
 10
79.82911530790932
 20
42.76932611577085
 11
82.47340418893666
 21
23.95423289362567
  0
LINE
  5
DE
100
AcDbEntity
  8
mx
  6
ByLayer
 62
  256
370
   -1
100
AcDbLine
 10
4.568742059959249
 20
32.19217054115552
 11
7.213030940986556
 21
13.37707731901033
  0
LINE
  5
DF
100
AcDbEntity
  8
mx
  6
ByLayer
 62
  256
370
   -1
100
AcDbLine
 10
7.213030940986556
 20
13.37707731901033
 11
87.17717750790933
 21
24.61530511577086
  0
LINE
  5
E0
100
AcDbEntity
  8
mx
  6
ByLayer
 62
  256
370
   -1
100
AcDbLine
 10
11.91680424617738
 20
14.03814953921862
 11
14.56109314560804
 21
-4.77694381387299
  0
LINE
  5
E1
100
AcDbEntity
  8
mx
  6
ByLayer
 62
  256
370
   -1
100
AcDbLine
 10
80.41391980680251
 20
4.478067323646258
 11
83.05820870725751
 21
-14.33702603673417
  0
LINE
  5
E2
100
AcDbEntity
  8
mx
  6
ByLayer
 62
  256
370
   -1
100
AcDbLine
 10
87.17717750790933
 20
24.61530511577086
 11
89.82146640733995
 21
5.800211762679318
  0
LINE
  5
E3
100
AcDbEntity
  8
mx
  6
ByLayer
 62
  256
370
   -1
100
AcDbLine
 10
5.15354655885244
 20
-6.099088250969125
 11
89.82146640733995
 21
5.800211762679318
  0
LINE
  5
E4
100
AcDbEntity
  8
mx
  6
ByLayer
 62
  256
370
   -1
100
AcDbLine
 10
-64.19892424412475
 20
-16.50134020865052
 11
-66.84321313125415
 21
-35.31643347421416
  0
LINE
  5
E5
100
AcDbEntity
  8
mx
  6
ByLayer
 62
  256
370
   -1
100
AcDbLine
 10
-75.66595534179937
 20
4.296969807895472
 11
-78.31024424004073
 21
-14.51812353673414
  0
LINE
  5
E6
100
AcDbEntity
  8
mx
  6
ByLayer
 62
  256
370
   -1
100
AcDbLine
 10
-78.31024424004073
 20
-14.51812353673414
 11
-3.049870992090675
 21
-25.09527911134947
  0
LINE
  5
E7
100
AcDbEntity
  8
mx
  6
ByLayer
 62
  256
370
   -1
100
AcDbLine
 10
-0.4055820938493042
 20
-6.280185766719818
 11
-5.694159879220052
 21
-43.91037237691317
  0
LINE
  5
E8
100
AcDbEntity
  8
mx
  6
ByLayer
 62
  256
370
   -1
100
AcDbLine
 10
-66.84321313125415
 20
-35.31643347421416
 11
-5.694159879220052
 21
-43.91037237691317
  0
LINE
  5
E9
100
AcDbEntity
  8
mx
  6
ByLayer
 62
  256
370
   -1
100
AcDbLine
 10
5.15354655885244
 20
-6.099088250969125
 11
10.44212435032526
 21
-43.72927490458092
  0
LINE
  5
EA
100
AcDbEntity
  8
mx
  6
ByLayer
 62
  256
370
   -1
100
AcDbLine
 10
10.44212435032526
 20
-43.72927490458092
 11
66.8874043050439
 21
-35.79640822098345
  0
LINE
  5
EB
100
AcDbEntity
  8
mx
  6
ByLayer
 62
  256
370
   -1
100
AcDbLine
 10
64.24311541402605
 20
-16.98131492775201
 11
66.8874043050439
 21
-35.79640822098345
  0
LINE
  5
EC
100
AcDbEntity
  8
mx
  6
ByLayer
 62
  256
370
   -1
100
AcDbLine
 10
7.797835459307436
 20
-24.91418161134948
 11
83.05820870725751
 21
-14.33702603673417
  0
LINE
  5
ED
100
AcDbEntity
  8
0
  6
ByLayer
 62
  256
370
   -1
100
AcDbLine
 10
-101.9123164911055
 20
2.145015875410159
 11
-87.91231649110549
 21
2.145015875410159
  0
LINE
  5
EE
100
AcDbEntity
  8
0
  6
ByLayer
 62
  256
370
   -1
100
AcDbLine
 10
-101.9123164911055
 20
-11.85498412458984
 11
-87.91231649110549
 21
-11.85498412458984
  0
LINE
  5
EF
100
AcDbEntity
  8
0
  6
ByLayer
 62
  256
370
   -1
100
AcDbLine
 10
-101.9123164911055
 20
2.145015875410159
 11
-101.9123164911055
 21
-11.85498412458984
  0
LINE
  5
F0
100
AcDbEntity
  8
0
  6
ByLayer
 62
  256
370
   -1
100
AcDbLine
 10
-87.91231649110549
 20
2.145015875410159
 11
-87.91231649110549
 21
-11.85498412458984
  0
LINE
  5
F1
100
AcDbEntity
  8
mx
  6
ByLayer
 62
  256
370
   -1
100
AcDbLine
 10
-109.8273164911055
 20
-14.35498412458984
 11
-109.8273164911055
 21
-33.35498412458985
  0
LINE
  5
F2
100
AcDbEntity
  8
mx
  6
ByLayer
 62
  256
370
   -1
100
AcDbLine
 10
-111.5373164911055
 20
-14.35498412458984
 11
-111.5373164911055
 21
4.645015875410159
  0
LINE
  5
F3
100
AcDbEntity
  8
mx
  6
ByLayer
 62
  256
370
   -1
100
AcDbLine
 10
-111.5373164911055
 20
-14.35498412458984
 11
-78.28731649110549
 21
-14.35498412458983
  0
LINE
  5
F4
100
AcDbEntity
  8
mx
  6
ByLayer
 62
  256
370
   -1
100
AcDbLine
 10
-111.5373164911055
 20
4.645015875410159
 11
-78.28731649110549
 21
4.645015875410159
  0
LINE
  5
F5
100
AcDbEntity
  8
mx
  6
ByLayer
 62
  256
370
   -1
100
AcDbLine
 10
-78.28731649110549
 20
-14.35498412458983
 11
-78.28731649110549
 21
4.645015875410159
  0
LINE
  5
F6
100
AcDbEntity
  8
0
  6
ByLayer
 62
  256
370
   -1
100
AcDbLine
 10
-103.9485019423368
 20
21.65814920221068
 11
-89.9485019423368
 21
21.65814920221068
  0
LINE
  5
F7
100
AcDbEntity
  8
0
  6
ByLayer
 62
  256
370
   -1
100
AcDbLine
 10
-103.9485019423368
 20
7.65814920221068
 11
-89.9485019423368
 21
7.65814920221068
  0
LINE
  5
F8
100
AcDbEntity
  8
0
  6
ByLayer
 62
  256
370
   -1
100
AcDbLine
 10
-103.9485019423368
 20
21.65814920221068
 11
-103.9485019423368
 21
7.65814920221068
  0
LINE
  5
F9
100
AcDbEntity
  8
0
  6
ByLayer
 62
  256
370
   -1
100
AcDbLine
 10
-89.9485019423368
 20
21.65814920221068
 11
-89.9485019423368
 21
7.65814920221068
  0
LINE
  5
FA
100
AcDbEntity
  8
mx
  6
ByLayer
 62
  256
370
   -1
100
AcDbLine
 10
-108.8235019423368
 20
5.15814920221068
 11
-108.8235019423368
 21
24.15814920221068
  0
LINE
  5
FB
100
AcDbEntity
  8
mx
  6
ByLayer
 62
  256
370
   -1
100
AcDbLine
 10
-108.8235019423368
 20
24.15814920221068
 11
-85.0735019423368
 21
24.15814920221068
  0
LINE
  5
FC
100
AcDbEntity
  8
mx
  6
ByLayer
 62
  256
370
   -1
100
AcDbLine
 10
-85.0735019423368
 20
5.15814920221068
 11
-85.0735019423368
 21
24.15814920221068
  0
LINE
  5
FD
100
AcDbEntity
  8
mx
  6
ByLayer
 62
  256
370
   -1
100
AcDbLine
 10
-108.8235019423368
 20
5.15814920221068
 11
-85.0735019423368
 21
5.15814920221068
  0
LINE
  5
FE
100
AcDbEntity
  8
0
  6
ByLayer
 62
  256
370
   -1
100
AcDbLine
 10
-103.6329863400408
 20
40.65814920221068
 11
-89.63298634004076
 21
40.65814920221068
  0
LINE
  5
FF
100
AcDbEntity
  8
0
  6
ByLayer
 62
  256
370
   -1
100
AcDbLine
 10
-103.6329863400408
 20
26.65814920221068
 11
-89.63298634004076
 21
26.65814920221068
  0
LINE
  5
100
100
AcDbEntity
  8
0
  6
ByLayer
 62
  256
370
   -1
100
AcDbLine
 10
-103.6329863400408
 20
40.65814920221068
 11
-103.6329863400408
 21
26.65814920221068
  0
LINE
  5
101
100
AcDbEntity
  8
0
  6
ByLayer
 62
  256
370
   -1
100
AcDbLine
 10
-89.63298634004076
 20
40.65814920221068
 11
-89.63298634004076
 21
26.65814920221068
  0
LINE
  5
102
100
AcDbEntity
  8
mx
  6
ByLayer
 62
  256
370
   -1
100
AcDbLine
 10
-106.1329863400408
 20
43.15814920221068
 11
-106.1329863400408
 21
24.15814920221068
  0
LINE
  5
103
100
AcDbEntity
  8
mx
  6
ByLayer
 62
  256
370
   -1
100
AcDbLine
 10
-106.1329863400408
 20
43.15814920221068
 11
-87.13298634004076
 21
43.15814920221068
  0
LINE
  5
104
100
AcDbEntity
  8
mx
  6
ByLayer
 62
  256
370
   -1
100
AcDbLine
 10
-87.13298634004076
 20
43.15814920221068
 11
-87.13298634004076
 21
24.15814920221068
  0
LINE
  5
105
100
AcDbEntity
  8
0
  6
ByLayer
 62
  256
370
   -1
100
AcDbLine
 10
90.28731198850468
 20
2.311661844606114
 11
104.2873119885047
 21
2.311661844606114
  0
LINE
  5
106
100
AcDbEntity
  8
0
  6
ByLayer
 62
  256
370
   -1
100
AcDbLine
 10
90.28731198850468
 20
-11.68833815539389
 11
104.2873119885047
 21
-11.68833815539389
  0
LINE
  5
107
100
AcDbEntity
  8
0
  6
ByLayer
 62
  256
370
   -1
100
AcDbLine
 10
90.28731198850468
 20
2.311661844606114
 11
90.28731198850468
 21
-11.68833815539389
  0
LINE
  5
108
100
AcDbEntity
  8
0
  6
ByLayer
 62
  256
370
   -1
100
AcDbLine
 10
104.2873119885047
 20
2.311661844606114
 11
104.2873119885047
 21
-11.68833815539389
  0
LINE
  5
109
100
AcDbEntity
  8
mx
  6
ByLayer
 62
  256
370
   -1
100
AcDbLine
 10
83.03731198850468
 20
4.811661844606114
 11
111.5373119885047
 21
4.811661844606114
  0
LINE
  5
10A
100
AcDbEntity
  8
mx
  6
ByLayer
 62
  256
370
   -1
100
AcDbLine
 10
109.6373119885047
 20
-14.18833815539389
 11
109.6373119885047
 21
-33.18833815539391
  0
LINE
  5
10B
100
AcDbEntity
  8
mx
  6
ByLayer
 62
  256
370
   -1
100
AcDbLine
 10
111.5373119885047
 20
-14.18833815539389
 11
111.5373119885047
 21
4.811661844606114
  0
LINE
  5
10C
100
AcDbEntity
  8
mx
  6
ByLayer
 62
  256
370
   -1
100
AcDbLine
 10
83.03731198850468
 20
-14.18833815539389
 11
111.5373119885047
 21
-14.18833815539389
  0
LINE
  5
10D
100
AcDbEntity
  8
mx
  6
ByLayer
 62
  256
370
   -1
100
AcDbLine
 10
83.03731198850468
 20
-14.18833815539389
 11
83.03731198850468
 21
4.811661844606114
  0
LINE
  5
10E
100
AcDbEntity
  8
0
  6
ByLayer
 62
  256
370
   -1
100
AcDbLine
 10
92.32146640733995
 20
21.65814920221068
 11
106.32146640734
 21
21.65814920221068
  0
LINE
  5
10F
100
AcDbEntity
  8
0
  6
ByLayer
 62
  256
370
   -1
100
AcDbLine
 10
92.32146640733995
 20
7.65814920221068
 11
106.32146640734
 21
7.65814920221068
  0
LINE
  5
110
100
AcDbEntity
  8
0
  6
ByLayer
 62
  256
370
   -1
100
AcDbLine
 10
92.32146640733995
 20
21.65814920221068
 11
92.32146640733995
 21
7.65814920221068
  0
LINE
  5
111
100
AcDbEntity
  8
0
  6
ByLayer
 62
  256
370
   -1
100
AcDbLine
 10
106.32146640734
 20
21.65814920221068
 11
106.32146640734
 21
7.65814920221068
  0
LINE
  5
112
100
AcDbEntity
  8
mx
  6
ByLayer
 62
  256
370
   -1
100
AcDbLine
 10
108.82146640734
 20
24.15814920221068
 11
108.82146640734
 21
5.15814920221068
  0
LINE
  5
113
100
AcDbEntity
  8
mx
  6
ByLayer
 62
  256
370
   -1
100
AcDbLine
 10
89.82146640733995
 20
24.15814920221068
 11
89.82146640733995
 21
5.15814920221068
  0
LINE
  5
114
100
AcDbEntity
  8
mx
  6
ByLayer
 62
  256
370
   -1
100
AcDbLine
 10
89.82146640733995
 20
5.15814920221068
 11
108.82146640734
 21
5.15814920221068
  0
LINE
  5
115
100
AcDbEntity
  8
0
  6
ByLayer
 62
  256
370
   -1
100
AcDbLine
 10
87.25549654793079
 20
41.11530511577085
 11
101.2554965479308
 21
41.11530511577085
  0
LINE
  5
116
100
AcDbEntity
  8
0
  6
ByLayer
 62
  256
370
   -1
100
AcDbLine
 10
87.25549654793079
 20
27.11530511577086
 11
101.2554965479308
 21
27.11530511577086
  0
LINE
  5
117
100
AcDbEntity
  8
0
  6
ByLayer
 62
  256
370
   -1
100
AcDbLine
 10
87.25549654793079
 20
41.11530511577085
 11
87.25549654793079
 21
27.11530511577086
  0
LINE
  5
118
100
AcDbEntity
  8
0
  6
ByLayer
 62
  256
370
   -1
100
AcDbLine
 10
101.2554965479308
 20
41.11530511577085
 11
101.2554965479308
 21
27.11530511577086
  0
LINE
  5
119
100
AcDbEntity
  8
mx
  6
ByLayer
 62
  256
370
   -1
100
AcDbLine
 10
82.38049654793079
 20
43.61530511577085
 11
106.1304965479308
 21
43.61530511577085
  0
LINE
  5
11A
100
AcDbEntity
  8
mx
  6
ByLayer
 62
  256
370
   -1
100
AcDbLine
 10
82.38049654793079
 20
24.61530511577086
 11
82.38049654793079
 21
43.61530511577085
  0
LINE
  5
11B
100
AcDbEntity
  8
mx
  6
ByLayer
 62
  256
370
   -1
100
AcDbLine
 10
89.82146640733995
 20
24.15814920221068
 11
108.82146640734
 21
24.15814920221068
  0
LINE
  5
11C
100
AcDbEntity
  8
mx
  6
ByLayer
 62
  256
370
   -1
100
AcDbLine
 10
106.1304965479308
 20
24.61530511577086
 11
106.1304965479308
 21
43.61530511577085
  0
LINE
  5
11D
100
AcDbEntity
  8
mx
  6
ByLayer
 62
  256
370
   -1
100
AcDbLine
 10
82.38049654793079
 20
24.61530511577086
 11
106.1304965479308
 21
24.61530511577086
  0
ARC
  5
11E
100
AcDbEntity
  8
3dg3
  6
ByLayer
 62
  256
370
   -1
100
AcDbCircle
 10
-108.5373164911055
 20
40.91037310002014
 40
3
100
AcDbArc
 50
90.00000000000007
 51
180
  0
LINE
  5
11F
100
AcDbEntity
  8
3dg3
  6
ByLayer
 62
  256
370
   -1
100
AcDbLine
 10
-111.5373164911055
 20
40.91037310002015
 11
-111.5373164911055
 21
-40.91037237691319
  0
ARC
  5
120
100
AcDbEntity
  8
3dg3
  6
ByLayer
 62
  256
370
   -1
100
AcDbCircle
 10
-108.5373164911055
 20
-40.91037237691317
 40
3
100
AcDbArc
 50
180.0000000000003
 51
270.0000000000002
  0
LINE
  5
121
100
AcDbEntity
  8
3dg3
  6
ByLayer
 62
  256
370
   -1
100
AcDbLine
 10
108.5373119885047
 20
-43.9103723769132
 11
-108.5373164911055
 21
-43.91037237691317
  0
ARC
  5
122
100
AcDbEntity
  8
3dg3
  6
ByLayer
 62
  256
370
   -1
100
AcDbCircle
 10
108.5373119885047
 20
-40.91037237691322
 40
3
100
AcDbArc
 50
270
 51
2.798888119687895e-13
  0
LINE
  5
123
100
AcDbEntity
  8
3dg3
  6
ByLayer
 62
  256
370
   -1
100
AcDbLine
 10
111.5373119885047
 20
40.91037310002012
 11
111.5373119885047
 21
-40.9103723769132
  0
LINE
  5
124
100
AcDbEntity
  8
3dg3
  6
ByLayer
 62
  256
370
   -1
100
AcDbLine
 10
108.5373119885047
 20
43.91037310002012
 11
-108.5373164911055
 21
43.91037310002014
  0
ARC
  5
125
100
AcDbEntity
  8
3dg3
  6
ByLayer
 62
  256
370
   -1
100
AcDbCircle
 10
108.5373119885047
 20
40.91037310002012
 40
3
100
AcDbArc
 50
0
 51
90
  0
LINE
  5
126
100
AcDbEntity
  8
mx
  6
ByLayer
 62
  256
370
   -1
100
AcDbLine
 10
-9.228324194956102
 20
33.33321752540482
 11
-11.87261309209068
 21
14.51812418865052
  0
LINE
  5
127
100
AcDbEntity
  8
mx
  6
ByLayer
 62
  256
370
   -1
100
AcDbLine
 10
-7.168839802650581
 20
13.85705197065587
 11
-9.813128694386734
 21
-4.958041327686786
  0
LINE
  5
128
100
AcDbEntity
  8
mx
  6
ByLayer
 62
  256
370
   -1
100
AcDbLine
 10
-87.13298634004076
 20
25.09527976326584
 11
-7.168839802650581
 21
13.85705197065587
  0
LINE
  5
129
100
AcDbEntity
  8
mx
  6
ByLayer
 62
  256
370
   -1
100
AcDbLine
 10
-86.07731649110549
 20
-14.35498412458985
 11
-86.07731649110549
 21
-33.35498412458985
  0
LINE
  5
12A
100
AcDbEntity
  8
mx
  6
ByLayer
 62
  256
370
   -1
100
AcDbLine
 10
-109.8273164911055
 20
-33.35498412458985
 11
-86.07731649110549
 21
-33.35498412458985
  0
LINE
  5
12B
100
AcDbEntity
  8
0
  6
ByLayer
 62
  256
370
   -1
100
AcDbLine
 10
-104.9523164911055
 20
-16.85498412458986
 11
-90.95231649110548
 21
-16.85498412458986
  0
LINE
  5
12C
100
AcDbEntity
  8
0
  6
ByLayer
 62
  256
370
   -1
100
AcDbLine
 10
-104.9523164911055
 20
-30.85498412458986
 11
-90.95231649110548
 21
-30.85498412458986
  0
LINE
  5
12D
100
AcDbEntity
  8
0
  6
ByLayer
 62
  256
370
   -1
100
AcDbLine
 10
-104.9523164911055
 20
-16.85498412458986
 11
-104.9523164911055
 21
-30.85498412458986
  0
LINE
  5
12E
100
AcDbEntity
  8
0
  6
ByLayer
 62
  256
370
   -1
100
AcDbLine
 10
-90.95231649110548
 20
-16.85498412458986
 11
-90.95231649110548
 21
-30.85498412458986
  0
LINE
  5
12F
100
AcDbEntity
  8
mx
  6
ByLayer
 62
  256
370
   -1
100
AcDbLine
 10
85.88731198850468
 20
-14.18833815539389
 11
85.88731198850468
 21
-33.18833815539389
  0
LINE
  5
130
100
AcDbEntity
  8
mx
  6
ByLayer
 62
  256
370
   -1
100
AcDbLine
 10
85.88731198850468
 20
-33.18833815539389
 11
109.6373119885047
 21
-33.18833815539389
  0
LINE
  5
131
100
AcDbEntity
  8
0
  6
ByLayer
 62
  256
370
   -1
100
AcDbLine
 10
90.76231198850469
 20
-16.68833815539391
 11
104.7623119885047
 21
-16.68833815539391
  0
LINE
  5
132
100
AcDbEntity
  8
0
  6
ByLayer
 62
  256
370
   -1
100
AcDbLine
 10
90.76231198850469
 20
-30.68833815539391
 11
104.7623119885047
 21
-30.68833815539391
  0
LINE
  5
133
100
AcDbEntity
  8
0
  6
ByLayer
 62
  256
370
   -1
100
AcDbLine
 10
90.76231198850469
 20
-16.68833815539391
 11
90.76231198850469
 21
-30.68833815539391
  0
LINE
  5
134
100
AcDbEntity
  8
0
  6
ByLayer
 62
  256
370
   -1
100
AcDbLine
 10
104.7623119885047
 20
-16.68833815539391
 11
104.7623119885047
 21
-30.68833815539391
  0
CIRCLE
  5
135
100
AcDbEntity
  8
percage
  6
ByLayer
 62
  256
370
   -1
100
AcDbCircle
 10
108.5373119885047
 20
40.91037310002012
 40
1.1
  0
CIRCLE
  5
136
100
AcDbEntity
  8
percage
  6
ByLayer
 62
  256
370
   -1
100
AcDbCircle
 10
108.5373119885047
 20
-40.91037237691322
 40
1.1
  0
CIRCLE
  5
137
100
AcDbEntity
  8
percage
  6
ByLayer
 62
  256
370
   -1
100
AcDbCircle
 10
-108.5373164911055
 20
-40.91037237691317
 40
1.1
  0
CIRCLE
  5
138
100
AcDbEntity
  8
percage
  6
ByLayer
 62
  256
370
   -1
100
AcDbCircle
 10
-108.5373164911055
 20
40.91037310002014
 40
1.1
  0
CIRCLE
  5
139
100
AcDbEntity
  8
percage
  6
ByLayer
 62
  256
370
   -1
100
AcDbCircle
 10
2.373982233608378
 20
-25.00473036134947
 40
1.1
  0
LINE
  5
13A
100
AcDbEntity
  8
rpi
  6
ByLayer
 62
  256
370
   -1
100
AcDbLine
 10
8.999997748699599
 20
18.42768120438168
 11
8.999997748699599
 21
-5.07231879561832
  0
LINE
  5
13B
100
AcDbEntity
  8
rpi
  6
ByLayer
 62
  256
370
   -1
100
AcDbLine
 10
-9.000002251300401
 20
18.42768120438169
 11
-9.000002251300401
 21
-5.072318795618316
  0
LINE
  5
13C
100
AcDbEntity
  8
rpi
  6
ByLayer
 62
  256
370
   -1
100
AcDbLine
 10
-9.000002251300401
 20
-5.072318795618316
 11
8.999997748699599
 21
-5.07231879561832
  0
CIRCLE
  5
13D
100
AcDbEntity
  8
rpi
  6
ByLayer
 62
  256
370
   -1
100
AcDbCircle
 10
7.619997748699599
 20
16.83768120438168
 40
0.7
  0
CIRCLE
  5
13E
100
AcDbEntity
  8
rpi
  6
ByLayer
 62
  256
370
   -1
100
AcDbCircle
 10
7.619997748699599
 20
14.29768120438168
 40
0.7
  0
CIRCLE
  5
13F
100
AcDbEntity
  8
rpi
  6
ByLayer
 62
  256
370
   -1
100
AcDbCircle
 10
7.619997748699599
 20
11.75768120438168
 40
0.7
  0
CIRCLE
  5
140
100
AcDbEntity
  8
rpi
  6
ByLayer
 62
  256
370
   -1
100
AcDbCircle
 10
7.619997748699599
 20
9.217681204381684
 40
0.7
  0
CIRCLE
  5
141
100
AcDbEntity
  8
rpi
  6
ByLayer
 62
  256
370
   -1
100
AcDbCircle
 10
7.619997748699599
 20
6.677681204381682
 40
0.7
  0
CIRCLE
  5
142
100
AcDbEntity
  8
rpi
  6
ByLayer
 62
  256
370
   -1
100
AcDbCircle
 10
7.619997748699599
 20
4.137681204381682
 40
0.7
  0
CIRCLE
  5
143
100
AcDbEntity
  8
rpi
  6
ByLayer
 62
  256
370
   -1
100
AcDbCircle
 10
7.619997748699599
 20
1.597681204381682
 40
0.7
  0
CIRCLE
  5
144
100
AcDbEntity
  8
rpi
  6
ByLayer
 62
  256
370
   -1
100
AcDbCircle
 10
7.619997748699599
 20
-0.9423187956183177
 40
0.7
  0
CIRCLE
  5
145
100
AcDbEntity
  8
rpi
  6
ByLayer
 62
  256
370
   -1
100
AcDbCircle
 10
7.619997748699599
 20
-3.482318795618318
 40
0.7
  0
CIRCLE
  5
146
100
AcDbEntity
  8
rpi
  6
ByLayer
 62
  256
370
   -1
100
AcDbCircle
 10
5.079997748699599
 20
-3.482318795618318
 40
0.7
  0
CIRCLE
  5
147
100
AcDbEntity
  8
rpi
  6
ByLayer
 62
  256
370
   -1
100
AcDbCircle
 10
2.539997748699599
 20
-3.482318795618317
 40
0.7
  0
CIRCLE
  5
148
100
AcDbEntity
  8
rpi
  6
ByLayer
 62
  256
370
   -1
100
AcDbCircle
 10
-2.251300401212575e-06
 20
-3.482318795618316
 40
0.7
  0
CIRCLE
  5
149
100
AcDbEntity
  8
rpi
  6
ByLayer
 62
  256
370
   -1
100
AcDbCircle
 10
-2.540002251300401
 20
-3.482318795618316
 40
0.7
  0
CIRCLE
  5
14A
100
AcDbEntity
  8
rpi
  6
ByLayer
 62
  256
370
   -1
100
AcDbCircle
 10
-5.080002251300401
 20
-3.482318795618315
 40
0.7
  0
CIRCLE
  5
14B
100
AcDbEntity
  8
rpi
  6
ByLayer
 62
  256
370
   -1
100
AcDbCircle
 10
-7.620002251300401
 20
-3.482318795618314
 40
0.7
  0
CIRCLE
  5
14C
100
AcDbEntity
  8
rpi
  6
ByLayer
 62
  256
370
   -1
100
AcDbCircle
 10
-7.620002251300401
 20
-0.9423187956183141
 40
0.7
  0
CIRCLE
  5
14D
100
AcDbEntity
  8
rpi
  6
ByLayer
 62
  256
370
   -1
100
AcDbCircle
 10
-7.620002251300401
 20
1.597681204381686
 40
0.7
  0
CIRCLE
  5
14E
100
AcDbEntity
  8
rpi
  6
ByLayer
 62
  256
370
   -1
100
AcDbCircle
 10
-7.620002251300401
 20
4.137681204381686
 40
0.7
  0
CIRCLE
  5
14F
100
AcDbEntity
  8
rpi
  6
ByLayer
 62
  256
370
   -1
100
AcDbCircle
 10
-7.620002251300401
 20
6.677681204381686
 40
0.7
  0
CIRCLE
  5
150
100
AcDbEntity
  8
rpi
  6
ByLayer
 62
  256
370
   -1
100
AcDbCircle
 10
-7.620002251300401
 20
9.217681204381687
 40
0.7
  0
CIRCLE
  5
151
100
AcDbEntity
  8
rpi
  6
ByLayer
 62
  256
370
   -1
100
AcDbCircle
 10
-7.620002251300401
 20
11.75768120438169
 40
0.7
  0
CIRCLE
  5
152
100
AcDbEntity
  8
rpi
  6
ByLayer
 62
  256
370
   -1
100
AcDbCircle
 10
-7.620002251300401
 20
14.29768120438169
 40
0.7
  0
CIRCLE
  5
153
100
AcDbEntity
  8
rpi
  6
ByLayer
 62
  256
370
   -1
100
AcDbCircle
 10
-7.620002251300401
 20
16.83768120438169
 40
0.7
  0
LINE
  5
154
100
AcDbEntity
  8
rpi
  6
ByLayer
 62
  256
370
   -1
100
AcDbLine
 10
-4.000002251300399
 20
22.42768120438169
 11
3.999997748699601
 21
22.42768120438168
  0
LINE
  5
155
100
AcDbEntity
  8
rpi
  6
ByLayer
 62
  256
370
   -1
100
AcDbLine
 10
3.999997748699601
 20
22.42768120438168
 11
3.999997748699601
 21
18.42768120438168
  0
LINE
  5
156
100
AcDbEntity
  8
rpi
  6
ByLayer
 62
  256
370
   -1
100
AcDbLine
 10
-4.000002251300399
 20
22.42768120438169
 11
-4.000002251300399
 21
18.42768120438169
  0
LINE
  5
157
100
AcDbEntity
  8
rpi
  6
ByLayer
 62
  256
370
   -1
100
AcDbLine
 10
-9.000002251300401
 20
18.42768120438169
 11
8.999997748699599
 21
18.42768120438168
  0
LINE
  5
158
100
AcDbEntity
  8
mx
  6
ByLayer
 62
  256
370
   -1
100
AcDbLine
 10
-28.04341750454878
 20
35.97750641872208
 11
-30.68770640168336
 21
17.16241308196778
  0
LINE
  5
159
100
AcDbEntity
  8
mx
  6
ByLayer
 62
  256
370
   -1
100
AcDbLine
 10
-46.85851081414145
 20
38.62179531203934
 11
-49.50279971127603
 21
19.80670197528504
  0
LINE
  5
15A
100
AcDbEntity
  8
mx
  6
ByLayer
 62
  256
370
   -1
100
AcDbLine
 10
-65.67360412373412
 20
41.26608420535661
 11
-68.31789302086869
 21
22.4509908686023
  0
LINE
  5
15B
100
AcDbEntity
  8
mx
  6
ByLayer
 62
  256
370
   -1
100
AcDbLine
 10
23.38383536955192
 20
34.83645943447277
 11
26.02812425057923
 21
16.02136621232758
  0
LINE
  5
15C
100
AcDbEntity
  8
mx
  6
ByLayer
 62
  256
370
   -1
100
AcDbLine
 10
42.1989286791446
 20
37.48074832779002
 11
44.84321756017191
 21
18.66565510564483
  0
LINE
  5
15D
100
AcDbEntity
  8
mx
  6
ByLayer
 62
  256
370
   -1
100
AcDbLine
 10
61.01402198873727
 20
40.12503722110727
 11
63.65831086976458
 21
21.30994399896208
  0
LINE
  5
15E
100
AcDbEntity
  8
mx
  6
ByLayer
 62
  256
370
   -1
100
AcDbLine
 10
30.73189755577005
 20
16.6824384325359
 11
33.37618645520071
 21
-2.132654920555707
  0
LINE
  5
15F
100
AcDbEntity
  8
mx
  6
ByLayer
 62
  256
370
   -1
100
AcDbLine
 10
49.54699086536272
 20
19.32672732585318
 11
52.19127976479338
 21
0.511633972761576
  0
LINE
  5
160
100
AcDbEntity
  8
mx
  6
ByLayer
 62
  256
370
   -1
100
AcDbLine
 10
68.36208417495538
 20
21.97101621917047
 11
71.00637307438605
 21
3.155922866078859
  0
LINE
  5
161
100
AcDbEntity
  8
mx
  6
ByLayer
 62
  256
370
   -1
100
AcDbLine
 10
61.59882649720983
 20
1.833778430329011
 11
64.24311539766484
 21
-16.98131493005142
  0
LINE
  5
162
100
AcDbEntity
  8
mx
  6
ByLayer
 62
  256
370
   -1
100
AcDbLine
 10
42.78373318761716
 20
-0.810510462988236
 11
45.42802208807215
 21
-19.62560382336867
  0
LINE
  5
163
100
AcDbEntity
  8
mx
  6
ByLayer
 62
  256
370
   -1
100
AcDbLine
 10
23.96863987802449
 20
-3.454799356305483
 11
26.61292877847949
 21
-22.26989271668591
  0
LINE
  5
164
100
AcDbEntity
  8
mx
  6
ByLayer
 62
  256
370
   -1
100
AcDbLine
 10
-56.8508620322067
 20
1.65268091457823
 11
-59.49515093044806
 21
-17.16241243005138
  0
LINE
  5
165
100
AcDbEntity
  8
mx
  6
ByLayer
 62
  256
370
   -1
100
AcDbLine
 10
-38.03576872261402
 20
-0.9916079787390117
 11
-40.68005762085538
 21
-19.80670132336862
  0
LINE
  5
166
100
AcDbEntity
  8
mx
  6
ByLayer
 62
  256
370
   -1
100
AcDbLine
 10
-19.22067541302135
 20
-3.635896872056255
 11
-21.8649643112627
 21
-22.45099021668586
  0
LINE
  5
167
100
AcDbEntity
  8
mx
  6
ByLayer
 62
  256
370
   -1
100
AcDbLine
 10
-63.61411974100796
 20
21.78991865195393
 11
-66.25840863274414
 21
2.974825353611246
  0
LINE
  5
168
100
AcDbEntity
  8
mx
  6
ByLayer
 62
  256
370
   -1
100
AcDbLine
 10
-44.79902643141529
 20
19.14562975863667
 11
-47.44331532315145
 21
0.3305364602939873
  0
LINE
  5
169
100
AcDbEntity
  8
mx
  6
ByLayer
 62
  256
370
   -1
100
AcDbLine
 10
-25.98393312182262
 20
16.50134086531941
 11
-28.62822201355878
 21
-2.313752433023271
  0
LINE
  5
16A
100
AcDbEntity
  8
mx
  6
ByLayer
 62
  256
370
   -1
100
AcDbLine
 10
45.42802210443337
 20
-19.62560382106926
 11
48.07231099545123
 21
-38.4406971143007
  0
LINE
  5
16B
100
AcDbEntity
  8
mx
  6
ByLayer
 62
  256
370
   -1
100
AcDbLine
 10
-45.38383093453209
 20
-19.14562910196779
 11
-48.02811982166148
 21
-37.96072236753144
  0
LINE
  5
16C
100
AcDbEntity
  8
mx
  6
ByLayer
 62
  256
370
   -1
100
AcDbLine
 10
66.97561413044026
 20
-35.78429987767254
 11
85.79910216310832
 21
-33.20044649870482
  0
LINE
  5
16D
100
AcDbEntity
  8
mx
  6
ByLayer
 62
  256
370
   -1
100
AcDbLine
 10
85.79910216310832
 20
-33.20044649870482
 11
83.2152487841406
 21
-14.37695846603677
  0
LINE
  5
16E
100
AcDbEntity
  8
mx
  6
ByLayer
 62
  256
370
   -1
100
AcDbLine
 10
83.2152487841406
 20
-14.37695846603677
 11
64.39176075147255
 21
-16.96081184500449
  0
LINE
  5
16F
100
AcDbEntity
  8
mx
  6
ByLayer
 62
  256
370
   -1
100
AcDbLine
 10
64.39176075147255
 20
-16.96081184500449
 11
66.97561413044026
 21
-35.78429987767254
  0
LINE
  5
170
100
AcDbEntity
  8
0
  6
ByLayer
 62
  256
370
   -1
100
AcDbLine
 10
81.07845475075898
 20
-17.1937139149362
 11
67.20851620037199
 21
-19.0976058783861
  0
LINE
  5
171
100
AcDbEntity
  8
0
  6
ByLayer
 62
  256
370
   -1
100
AcDbLine
 10
82.98234671420889
 20
-31.0636524653232
 11
81.07845475075898
 21
-17.1937139149362
  0
LINE
  5
172
100
AcDbEntity
  8
0
  6
ByLayer
 62
  256
370
   -1
100
AcDbLine
 10
67.20851620037199
 20
-19.0976058783861
 11
69.1124081638219
 21
-32.9675444287731
  0
LINE
  5
173
100
AcDbEntity
  8
0
  6
ByLayer
 62
  256
370
   -1
100
AcDbLine
 10
69.1124081638219
 20
-32.9675444287731
 11
82.98234671420889
 21
-31.0636524653232
  0
LINE
  5
174
100
AcDbEntity
  8
mx
  6
ByLayer
 62
  256
370
   -1
100
AcDbLine
 10
-83.98367032690949
 20
-14.46995008129893
 11
-65.08170114613516
 21
-16.39752915595642
  0
LINE
  5
175
100
AcDbEntity
  8
mx
  6
ByLayer
 62
  256
370
   -1
100
AcDbLine
 10
-67.00928022079266
 20
-35.29949833673075
 11
-65.08170114613516
 21
-16.39752915595642
  0
LINE
  5
176
100
AcDbEntity
  8
mx
  6
ByLayer
 62
  256
370
   -1
100
AcDbLine
 10
-85.91124940156699
 20
-33.37191926207326
 11
-83.98367032690949
 21
-14.46995008129893
  0
LINE
  5
177
100
AcDbEntity
  8
mx
  6
ByLayer
 62
  256
370
   -1
100
AcDbLine
 10
-85.91124940156699
 20
-33.37191926207326
 11
-67.00928022079266
 21
-35.29949833673075
  0
LINE
  5
178
100
AcDbEntity
  8
0
  6
ByLayer
 62
  256
370
   -1
100
AcDbLine
 10
-81.75019794452569
 20
-17.21068011490838
 11
-67.8224311797446
 21
-18.63100153834022
  0
LINE
  5
179
100
AcDbEntity
  8
0
  6
ByLayer
 62
  256
370
   -1
100
AcDbLine
 10
-69.24275260317644
 20
-32.5587683031213
 11
-67.8224311797446
 21
-18.63100153834022
  0
LINE
  5
17A
100
AcDbEntity
  8
0
  6
ByLayer
 62
  256
370
   -1
100
AcDbLine
 10
-83.17051936795754
 20
-31.13844687968947
 11
-69.24275260317644
 21
-32.5587683031213
  0
LINE
  5
17B
100
AcDbEntity
  8
0
  6
ByLayer
 62
  256
370
   -1
100
AcDbLine
 10
-83.17051936795754
 20
-31.13844687968947
 11
-81.75019794452569
 21
-17.21068011490838
  0
LINE
  5
17C
100
AcDbEntity
  8
ext1
  6
ByLayer
 62
  256
370
   -1
100
AcDbLine
 10
108.5373119885047
 20
44.61037310002012
 11
-108.5373164911055
 21
44.61037310002015
  0
LINE
  5
17D
100
AcDbEntity
  8
ext1
  6
ByLayer
 62
  256
370
   -1
100
AcDbLine
 10
108.5373119885047
 20
-44.6103723769132
 11
-108.5373164911055
 21
-44.61037237691318
  0
LINE
  5
17E
100
AcDbEntity
  8
ext1
  6
ByLayer
 62
  256
370
   -1
100
AcDbLine
 10
112.2373119885047
 20
40.91037310002012
 11
112.2373119885047
 21
-40.9103723769132
  0
LINE
  5
17F
100
AcDbEntity
  8
ext1
  6
ByLayer
 62
  256
370
   -1
100
AcDbLine
 10
-112.2373164911055
 20
40.91037310002015
 11
-112.2373164911055
 21
-40.91037237691319
  0
ARC
  5
180
100
AcDbEntity
  8
ext1
  6
ByLayer
 62
  256
370
   -1
100
AcDbCircle
 10
-108.5373164911055
 20
40.91037310002014
 40
3.7
100
AcDbArc
 50
90.00000000000007
 51
180
  0
ARC
  5
181
100
AcDbEntity
  8
ext1
  6
ByLayer
 62
  256
370
   -1
100
AcDbCircle
 10
-108.5373164911055
 20
-40.91037237691317
 40
3.7
100
AcDbArc
 50
180.0000000000003
 51
270.0000000000002
  0
ARC
  5
182
100
AcDbEntity
  8
ext1
  6
ByLayer
 62
  256
370
   -1
100
AcDbCircle
 10
108.5373119885047
 20
-40.91037237691322
 40
3.7
100
AcDbArc
 50
270
 51
2.798888119687895e-13
  0
ARC
  5
183
100
AcDbEntity
  8
ext1
  6
ByLayer
 62
  256
370
   -1
100
AcDbCircle
 10
108.5373119885047
 20
40.91037310002012
 40
3.7
100
AcDbArc
 50
0
 51
90
  0
LINE
  5
184
100
AcDbEntity
  8
ext2
  6
ByLayer
 62
  256
370
   -1
100
AcDbLine
 10
118.2373119885047
 20
40.91037310002012
 11
118.2373119885047
 21
-40.9103723769132
  0
LINE
  5
185
100
AcDbEntity
  8
ext2
  6
ByLayer
 62
  256
370
   -1
100
AcDbLine
 10
108.5373119885047
 20
-50.6103723769132
 11
-108.5373164911055
 21
-50.61037237691318
  0
LINE
  5
186
100
AcDbEntity
  8
ext2
  6
ByLayer
 62
  256
370
   -1
100
AcDbLine
 10
108.5373119885047
 20
50.61037310002012
 11
-108.5373164911055
 21
50.61037310002015
  0
ARC
  5
187
100
AcDbEntity
  8
ext2
  6
ByLayer
 62
  256
370
   -1
100
AcDbCircle
 10
108.5373119885047
 20
40.91037310002012
 40
9.699999999999999
100
AcDbArc
 50
0
 51
90
  0
ARC
  5
188
100
AcDbEntity
  8
ext2
  6
ByLayer
 62
  256
370
   -1
100
AcDbCircle
 10
108.5373119885047
 20
-40.91037237691322
 40
9.699999999999999
100
AcDbArc
 50
270
 51
2.798888119687895e-13
  0
LINE
  5
189
100
AcDbEntity
  8
ext2
  6
ByLayer
 62
  256
370
   -1
100
AcDbLine
 10
-118.2373164911055
 20
40.91037310002015
 11
-118.2373164911055
 21
-40.91037237691319
  0
ARC
  5
18A
100
AcDbEntity
  8
ext2
  6
ByLayer
 62
  256
370
   -1
100
AcDbCircle
 10
-108.5373164911055
 20
-40.91037237691317
 40
9.699999999999999
100
AcDbArc
 50
180.0000000000003
 51
270.0000000000002
  0
ARC
  5
18B
100
AcDbEntity
  8
ext2
  6
ByLayer
 62
  256
370
   -1
100
AcDbCircle
 10
-108.5373164911055
 20
40.91037310002014
 40
9.699999999999999
100
AcDbArc
 50
90.00000000000007
 51
180
  0
LINE
  5
18C
100
AcDbEntity
  8
ext3
  6
ByLayer
 62
  256
370
   -1
100
AcDbLine
 10
108.5373119885047
 20
52.11037310002012
 11
-108.5373164911055
 21
52.11037310002015
  0
LINE
  5
18D
100
AcDbEntity
  8
ext3
  6
ByLayer
 62
  256
370
   -1
100
AcDbLine
 10
108.5373119885047
 20
-52.1103723769132
 11
-108.5373164911055
 21
-52.11037237691318
  0
ARC
  5
18E
100
AcDbEntity
  8
ext3
  6
ByLayer
 62
  256
370
   -1
100
AcDbCircle
 10
108.5373119885047
 20
-40.91037237691322
 40
11.2
100
AcDbArc
 50
270
 51
2.798888119687895e-13
  0
ARC
  5
18F
100
AcDbEntity
  8
ext3
  6
ByLayer
 62
  256
370
   -1
100
AcDbCircle
 10
108.5373119885047
 20
40.91037310002012
 40
11.2
100
AcDbArc
 50
0
 51
90
  0
LINE
  5
190
100
AcDbEntity
  8
ext3
  6
ByLayer
 62
  256
370
   -1
100
AcDbLine
 10
119.7373119885047
 20
40.91037310002012
 11
119.7373119885047
 21
-40.9103723769132
  0
ARC
  5
191
100
AcDbEntity
  8
ext3
  6
ByLayer
 62
  256
370
   -1
100
AcDbCircle
 10
-108.5373164911055
 20
40.91037310002014
 40
11.2
100
AcDbArc
 50
90.00000000000007
 51
180
  0
ARC
  5
192
100
AcDbEntity
  8
ext3
  6
ByLayer
 62
  256
370
   -1
100
AcDbCircle
 10
-108.5373164911055
 20
-40.91037237691317
 40
11.2
100
AcDbArc
 50
180.0000000000003
 51
270.0000000000002
  0
LINE
  5
193
100
AcDbEntity
  8
ext3
  6
ByLayer
 62
  256
370
   -1
100
AcDbLine
 10
-119.7373164911055
 20
40.91037310002015
 11
-119.7373164911055
 21
-40.91037237691319
  0
LINE
  5
194
100
AcDbEntity
  8
int
  6
ByLayer
 62
  256
370
   -1
100
AcDbLine
 10
-110.0373164911055
 20
35.51500471593332
 11
-110.0373164911055
 21
-35.51500399282666
  0
LINE
  5
195
100
AcDbEntity
  8
int
  6
ByLayer
 62
  256
370
   -1
100
AcDbLine
 10
110.0373119885047
 20
35.51500471593332
 11
110.0373119885047
 21
-35.51500399282672
  0
ARC
  5
196
100
AcDbEntity
  8
int
  6
ByLayer
 62
  256
370
   -1
100
AcDbCircle
 10
107.0373119885047
 20
35.51500471593332
 40
3
100
AcDbArc
 50
0
 51
72.32734259150716
  0
ARC
  5
197
100
AcDbEntity
  8
int
  6
ByLayer
 62
  256
370
   -1
100
AcDbCircle
 10
103.1419436044182
 20
39.4103731000201
 40
3
100
AcDbArc
 50
17.67265740848779
 51
90
  0
ARC
  5
198
100
AcDbEntity
  8
int
  6
ByLayer
 62
  256
370
   -1
100
AcDbCircle
 10
108.858782381785
 20
41.23184349329998
 40
3
100
AcDbArc
 50
197.6726574084878
 51
252.3273425915073
  0
ARC
  5
199
100
AcDbEntity
  8
int
  6
ByLayer
 62
  256
370
   -1
100
AcDbCircle
 10
-107.0373164911055
 20
35.51500471593332
 40
3
100
AcDbArc
 50
107.6726574084897
 51
180
  0
ARC
  5
19A
100
AcDbEntity
  8
int
  6
ByLayer
 62
  256
370
   -1
100
AcDbCircle
 10
-103.1419481070187
 20
39.41037310002014
 40
3
100
AcDbArc
 50
90.00000000000028
 51
162.3273425915116
  0
ARC
  5
19B
100
AcDbEntity
  8
int
  6
ByLayer
 62
  256
370
   -1
100
AcDbCircle
 10
-108.8587868843855
 20
41.23184349330008
 40
3
100
AcDbArc
 50
287.6726574084895
 51
342.3273425915116
  0
ARC
  5
19C
100
AcDbEntity
  8
int
  6
ByLayer
 62
  256
370
   -1
100
AcDbCircle
 10
-107.0373164911055
 20
-35.51500399282666
 40
3
100
AcDbArc
 50
180
 51
252.3273425915114
  0
ARC
  5
19D
100
AcDbEntity
  8
int
  6
ByLayer
 62
  256
370
   -1
100
AcDbCircle
 10
107.0373119885047
 20
-35.51500399282672
 40
3
100
AcDbArc
 50
287.6726574084886
 51
0
  0
ARC
  5
19E
100
AcDbEntity
  8
int
  6
ByLayer
 62
  256
370
   -1
100
AcDbCircle
 10
2.386708030392321
 20
-22.33849197987733
 40
5
100
AcDbArc
 50
7.999999924101392
 51
172.0000000758986
  0
ARC
  5
19F
100
AcDbEntity
  8
int
  6
ByLayer
 62
  256
370
   -1
100
AcDbCircle
 10
-26.04341750454877
 20
40.41037310002012
 40
2
100
AcDbArc
 50
89.9999999999999
 51
180
  0
LINE
  5
1A0
100
AcDbEntity
  8
int
  6
ByLayer
 62
  256
370
   -1
100
AcDbLine
 10
-28.04341750454878
 20
40.41037310002012
 11
-28.04341750454878
 21
39.79298458858233
  0
ARC
  5
1A1
100
AcDbEntity
  8
int
  6
ByLayer
 62
  256
370
   -1
100
AcDbCircle
 10
-30.04341750454878
 20
39.79298458858233
 40
2
100
AcDbArc
 50
262.0000000758987
 51
0
  0
LINE
  5
1A2
100
AcDbEntity
  8
int
  6
ByLayer
 62
  256
370
   -1
100
AcDbLine
 10
21.38383536955193
 20
42.41037310002012
 11
-26.04341750454877
 21
42.41037310002012
  0
ARC
  5
1A3
100
AcDbEntity
  8
int
  6
ByLayer
 62
  256
370
   -1
100
AcDbCircle
 10
21.38383536955193
 20
40.41037310002012
 40
2
100
AcDbArc
 50
0
 51
90
  0
LINE
  5
1A4
100
AcDbEntity
  8
int
  6
ByLayer
 62
  256
370
   -1
100
AcDbLine
 10
23.38383536955192
 20
40.41037310002012
 11
23.38383536955192
 21
38.65193760433303
  0
ARC
  5
1A5
100
AcDbEntity
  8
int
  6
ByLayer
 62
  256
370
   -1
100
AcDbCircle
 10
25.38383536955192
 20
38.65193760433303
 40
2
100
AcDbArc
 50
180
 51
277.9999999241015
  0
LINE
  5
1A6
100
AcDbEntity
  8
int
  6
ByLayer
 62
  256
370
   -1
100
AcDbLine
 10
25.66218156884848
 20
36.67140146648117
 11
52.64782928617942
 21
40.46398688520612
  0
LINE
  5
1A7
100
AcDbEntity
  8
int
  6
ByLayer
 62
  256
370
   -1
100
AcDbLine
 10
103.1419436044182
 20
42.41037310002012
 11
80.48244921583478
 21
42.41037310002012
  0
ARC
  5
1A8
100
AcDbEntity
  8
int
  6
ByLayer
 62
  256
370
   -1
100
AcDbCircle
 10
80.48244921583478
 20
-157.5896268999799
 40
200
100
AcDbArc
 50
90
 51
97.9999999241014
  0
LINE
  5
1A9
100
AcDbEntity
  8
int
  6
ByLayer
 62
  256
370
   -1
100
AcDbLine
 10
-49.18844017959382
 20
40.46398688520618
 11
-30.32176370384533
 21
37.81244845073046
  0
LINE
  5
1AA
100
AcDbEntity
  8
int
  6
ByLayer
 62
  256
370
   -1
100
AcDbLine
 10
-77.02306010924913
 20
42.41037310002014
 11
-103.1419481070187
 21
42.41037310002014
  0
ARC
  5
1AB
100
AcDbEntity
  8
int
  6
ByLayer
 62
  256
370
   -1
100
AcDbCircle
 10
-77.02306010924917
 20
-157.5896268999799
 40
200
100
AcDbArc
 50
82.0000000758986
 51
89.99999999999999
  0
ARC
  5
1AC
100
AcDbEntity
  8
int
  6
ByLayer
 62
  256
370
   -1
100
AcDbCircle
 10
-108.8587868843855
 20
-41.23184277019345
 40
3
100
AcDbArc
 50
12.72342727559393
 51
72.32734259151114
  0
ARC
  5
1AD
100
AcDbEntity
  8
int
  6
ByLayer
 62
  256
370
   -1
100
AcDbCircle
 10
-103.0061194583579
 20
-39.91037237691317
 40
3
100
AcDbArc
 50
192.723427275594
 51
270
  0
ARC
  5
1AE
100
AcDbEntity
  8
int
  6
ByLayer
 62
  256
370
   -1
100
AcDbCircle
 10
108.8587823817846
 20
-41.23184277019351
 40
3
100
AcDbArc
 50
107.6726574084883
 51
167.2765727244058
  0
ARC
  5
1AF
100
AcDbEntity
  8
int
  6
ByLayer
 62
  256
370
   -1
100
AcDbCircle
 10
103.006114955757
 20
-39.91037237691322
 40
3
100
AcDbArc
 50
270
 51
347.2765727244059
  0
LINE
  5
1B0
100
AcDbEntity
  8
rpi-cut
  6
ByLayer
 62
  256
370
   -1
100
AcDbLine
 10
10
 20
60.61037310002013
 11
-10
 21
60.61037310002013
  0
LINE
  5
1B1
100
AcDbEntity
  8
int
  6
ByLayer
 62
  256
370
   -1
100
AcDbLine
 10
103.006114955757
 20
-42.9103723769132
 11
12.06560858461128
 21
-42.91037237691319
  0
LINE
  5
1B2
100
AcDbEntity
  8
int
  6
ByLayer
 62
  256
370
   -1
100
AcDbLine
 10
10.08507244675943
 20
-41.18871857620974
 11
7.338048375021971
 21
-21.64262648163594
  0
ARC
  5
1B3
100
AcDbEntity
  8
int
  6
ByLayer
 62
  256
370
   -1
100
AcDbCircle
 10
12.06560858461129
 20
-40.91037237691319
 40
2
100
AcDbArc
 50
187.9999999241013
 51
269.9999999999998
  0
LINE
  5
1B4
100
AcDbEntity
  8
int
  6
ByLayer
 62
  256
370
   -1
100
AcDbLine
 10
-7.292192523826655
 20
-42.91037237691319
 11
-103.0061194583579
 21
-42.91037237691317
  0
LINE
  5
1B5
100
AcDbEntity
  8
int
  6
ByLayer
 62
  256
370
   -1
100
AcDbLine
 10
-5.311656385974794
 20
-41.18871857620975
 11
-2.564632314237331
 21
-21.64262648163594
  0
ARC
  5
1B6
100
AcDbEntity
  8
int
  6
ByLayer
 62
  256
370
   -1
100
AcDbCircle
 10
-7.292192523826654
 20
-40.9103723769132
 40
2
100
AcDbArc
 50
270
 51
352.0000000758987
  0
LINE
  5
1B7
100
AcDbEntity
  8
placement
  6
ByLayer
 62
  256
370
   -1
100
AcDbLine
 10
-103.6329863400408
 20
40.65814920221068
 11
-89.63298634004076
 21
26.65814920221068
  0
LINE
  5
1B8
100
AcDbEntity
  8
placement
  6
ByLayer
 62
  256
370
   -1
100
AcDbLine
 10
-82.36096001639162
 20
41.08677020221068
 11
-70.44563041639162
 21
25.27459380221068
  0
LINE
  5
1B9
100
AcDbEntity
  8
placement
  6
ByLayer
 62
  256
370
   -1
100
AcDbLine
 10
-63.54586671639162
 20
38.44248130221068
 11
-51.63053711639162
 21
22.63030490221068
  0
LINE
  5
1BA
100
AcDbEntity
  8
placement
  6
ByLayer
 62
  256
370
   -1
100
AcDbLine
 10
-44.73077341639161
 20
35.79819240221068
 11
-32.81544381639162
 21
19.98601600221068
  0
LINE
  5
1BB
100
AcDbEntity
  8
placement
  6
ByLayer
 62
  256
370
   -1
100
AcDbLine
 10
-25.91568011639161
 20
33.15390350221068
 11
-14.00035051639162
 21
17.34172710221068
  0
LINE
  5
1BC
100
AcDbEntity
  8
placement
  6
ByLayer
 62
  256
370
   -1
100
AcDbLine
 10
-103.9485019423368
 20
21.65814920221068
 11
-89.9485019423368
 21
7.65814920221068
  0
LINE
  5
1BD
100
AcDbEntity
  8
placement
  6
ByLayer
 62
  256
370
   -1
100
AcDbLine
 10
-80.30147561639163
 20
21.61060470221068
 11
-68.38614601639162
 21
5.798428302210681
  0
LINE
  5
1BE
100
AcDbEntity
  8
placement
  6
ByLayer
 62
  256
370
   -1
100
AcDbLine
 10
-61.48638231639162
 20
18.96631580221068
 11
-49.57105271639162
 21
3.154139402210681
  0
LINE
  5
1BF
100
AcDbEntity
  8
placement
  6
ByLayer
 62
  256
370
   -1
100
AcDbLine
 10
-42.67128901639163
 20
16.32202690221068
 11
-30.75595941639162
 21
0.5098505022106821
  0
LINE
  5
1C0
100
AcDbEntity
  8
placement
  6
ByLayer
 62
  256
370
   -1
100
AcDbLine
 10
-23.85619571639162
 20
13.67773800221068
 11
-11.94086611639162
 21
-2.134438397789317
  0
LINE
  5
1C1
100
AcDbEntity
  8
placement
  6
ByLayer
 62
  256
370
   -1
100
AcDbLine
 10
-101.9123164911055
 20
2.145015875410159
 11
-87.91231649110549
 21
-11.85498412458984
  0
LINE
  5
1C2
100
AcDbEntity
  8
placement
  6
ByLayer
 62
  256
370
   -1
100
AcDbLine
 10
-73.53821791639162
 20
1.473366902210685
 11
-61.62288831639162
 21
-14.33880949778932
  0
LINE
  5
1C3
100
AcDbEntity
  8
placement
  6
ByLayer
 62
  256
370
   -1
100
AcDbLine
 10
-54.72312461639162
 20
-1.170921997789314
 11
-42.80779501639162
 21
-16.98309839778932
  0
LINE
  5
1C4
100
AcDbEntity
  8
placement
  6
ByLayer
 62
  256
370
   -1
100
AcDbLine
 10
-35.90803131639161
 20
-3.815210897789321
 11
-23.99270171639162
 21
-19.62738729778931
  0
LINE
  5
1C5
100
AcDbEntity
  8
placement
  6
ByLayer
 62
  256
370
   -1
100
AcDbLine
 10
-17.09293801639161
 20
-6.45949979778932
 11
-5.177608416391621
 21
-22.27167619778932
  0
LINE
  5
1C6
100
AcDbEntity
  8
placement
  6
ByLayer
 62
  256
370
   -1
100
AcDbLine
 10
-104.9523164911055
 20
-16.85498412458986
 11
-90.95231649110548
 21
-30.85498412458986
  0
LINE
  5
1C7
100
AcDbEntity
  8
placement
  6
ByLayer
 62
  256
370
   -1
100
AcDbLine
 10
-81.75019794452569
 20
-17.21068011490838
 11
-69.24275260317644
 21
-32.5587683031213
  0
LINE
  5
1C8
100
AcDbEntity
  8
placement
  6
ByLayer
 62
  256
370
   -1
100
AcDbLine
 10
-62.07118681639162
 20
-19.32494309778932
 11
-50.15585721639162
 21
-35.13711949778931
  0
LINE
  5
1C9
100
AcDbEntity
  8
placement
  6
ByLayer
 62
  256
370
   -1
100
AcDbLine
 10
-31.49666021639162
 20
-23.62191249778932
 11
-19.58133061639163
 21
-39.43408889778932
  0
LINE
  5
1CA
100
AcDbEntity
  8
placement
  6
ByLayer
 62
  256
370
   -1
100
AcDbLine
 10
7.392344983608382
 20
30.06443310221068
 11
23.20452138360838
 21
18.14910350221068
  0
LINE
  5
1CB
100
AcDbEntity
  8
placement
  6
ByLayer
 62
  256
370
   -1
100
AcDbLine
 10
26.20743828360838
 20
32.70872200221068
 11
42.01961468360838
 21
20.79339240221069
  0
LINE
  5
1CC
100
AcDbEntity
  8
placement
  6
ByLayer
 62
  256
370
   -1
100
AcDbLine
 10
45.02253158360838
 20
35.35301090221068
 11
60.83470798360838
 21
23.43768130221068
  0
LINE
  5
1CD
100
AcDbEntity
  8
placement
  6
ByLayer
 62
  256
370
   -1
100
AcDbLine
 10
63.83762488360838
 20
37.99729980221068
 11
79.64980128360838
 21
26.08197020221068
  0
LINE
  5
1CE
100
AcDbEntity
  8
placement
  6
ByLayer
 62
  256
370
   -1
100
AcDbLine
 10
14.74040718360838
 20
11.91041200221068
 11
30.55258358360838
 21
-0.004917597789315664
  0
LINE
  5
1CF
100
AcDbEntity
  8
placement
  6
ByLayer
 62
  256
370
   -1
100
AcDbLine
 10
33.55550048360837
 20
14.55470090221068
 11
49.36767688360837
 21
2.639371302210684
  0
LINE
  5
1D0
100
AcDbEntity
  8
placement
  6
ByLayer
 62
  256
370
   -1
100
AcDbLine
 10
52.37059378360837
 20
17.19898990221068
 11
68.18277018360837
 21
5.283660302210684
  0
LINE
  5
1D1
100
AcDbEntity
  8
placement
  6
ByLayer
 62
  256
370
   -1
100
AcDbLine
 10
71.18568708360837
 20
19.84327880221068
 11
86.99786348360837
 21
7.927949202210684
  0
LINE
  5
1D2
100
AcDbEntity
  8
placement
  6
ByLayer
 62
  256
370
   -1
100
AcDbLine
 10
7.977149483608386
 20
-8.226825697789316
 11
23.78932588360838
 21
-20.14215529778932
  0
LINE
  5
1D3
100
AcDbEntity
  8
placement
  6
ByLayer
 62
  256
370
   -1
100
AcDbLine
 10
26.79224278360837
 20
-5.582536797789317
 11
42.60441918360837
 21
-17.49786639778932
  0
LINE
  5
1D4
100
AcDbEntity
  8
placement
  6
ByLayer
 62
  256
370
   -1
100
AcDbLine
 10
45.60733608360837
 20
-2.938247897789317
 11
61.41951248360837
 21
-14.85357749778932
  0
LINE
  5
1D5
100
AcDbEntity
  8
placement
  6
ByLayer
 62
  256
370
   -1
100
AcDbLine
 10
64.42242938360837
 20
-0.2939589977893178
 11
80.23460578360837
 21
-12.20928859778932
  0
LINE
  5
1D6
100
AcDbEntity
  8
placement
  6
ByLayer
 62
  256
370
   -1
100
AcDbLine
 10
48.25162498360839
 20
-21.75334119778931
 11
64.06380138360839
 21
-33.66867079778931
  0
LINE
  5
1D7
100
AcDbEntity
  8
placement
  6
ByLayer
 62
  256
370
   -1
100
AcDbLine
 10
20.02898498360838
 20
-25.71977459778931
 11
35.84116138360838
 21
-37.63510419778931
  0
LINE
  5
1D8
100
AcDbEntity
  8
placement
  6
ByLayer
 62
  256
370
   -1
100
AcDbLine
 10
67.20851620037199
 20
-19.0976058783861
 11
82.98234671420889
 21
-31.0636524653232
  0
LINE
  5
1D9
100
AcDbEntity
  8
placement
  6
ByLayer
 62
  256
370
   -1
100
AcDbLine
 10
87.25549654793079
 20
41.11530511577085
 11
101.2554965479308
 21
27.11530511577086
  0
LINE
  5
1DA
100
AcDbEntity
  8
placement
  6
ByLayer
 62
  256
370
   -1
100
AcDbLine
 10
92.32146640733995
 20
21.65814920221068
 11
106.32146640734
 21
7.65814920221068
  0
LINE
  5
1DB
100
AcDbEntity
  8
placement
  6
ByLayer
 62
  256
370
   -1
100
AcDbLine
 10
90.28731198850468
 20
2.311661844606114
 11
104.2873119885047
 21
-11.68833815539389
  0
LINE
  5
1DC
100
AcDbEntity
  8
placement
  6
ByLayer
 62
  256
370
   -1
100
AcDbLine
 10
90.76231198850469
 20
-16.68833815539391
 11
104.7623119885047
 21
-30.68833815539391
  0
LINE
  5
1DD
100
AcDbEntity
  8
placement
  6
ByLayer
 62
  256
370
   -1
100
AcDbLine
 10
8.999997748699599
 20
-5.07231879561832
 11
-9.000002251300401
 21
18.42768120438169
  0
LINE
  5
1DE
100
AcDbEntity
  8
placement
  6
ByLayer
 62
  256
370
   -1
100
AcDbLine
 10
-105.1329863400408
 20
26.65814920221068
 11
-105.1329863400408
 21
36.65814920221068
  0
LINE
  5
1DF
100
AcDbEntity
  8
placement
  6
ByLayer
 62
  256
370
   -1
100
AcDbLine
 10
-105.4485019423368
 20
7.65814920221068
 11
-105.4485019423368
 21
17.65814920221068
  0
LINE
  5
1E0
100
AcDbEntity
  8
placement
  6
ByLayer
 62
  256
370
   -1
100
AcDbLine
 10
-103.4123164911055
 20
-11.85498412458984
 11
-103.4123164911055
 21
-1.854984124589844
  0
LINE
  5
1E1
100
AcDbEntity
  8
placement
  6
ByLayer
 62
  256
370
   -1
100
AcDbLine
 10
-106.4523164911055
 20
-30.85498412458986
 11
-106.4523164911055
 21
-20.85498412458987
  0
LINE
  5
1E2
100
AcDbEntity
  8
placement
  6
ByLayer
 62
  256
370
   -1
100
AcDbLine
 10
102.7554965479308
 20
27.11530511577086
 11
102.7554965479308
 21
37.11530511577085
  0
LINE
  5
1E3
100
AcDbEntity
  8
placement
  6
ByLayer
 62
  256
370
   -1
100
AcDbLine
 10
107.82146640734
 20
7.65814920221068
 11
107.82146640734
 21
17.65814920221068
  0
LINE
  5
1E4
100
AcDbEntity
  8
placement
  6
ByLayer
 62
  256
370
   -1
100
AcDbLine
 10
105.7873119885047
 20
-11.68833815539389
 11
105.7873119885047
 21
-1.68833815539389
  0
LINE
  5
1E5
100
AcDbEntity
  8
placement
  6
ByLayer
 62
  256
370
   -1
100
AcDbLine
 10
106.2623119885047
 20
-30.68833815539391
 11
106.2623119885047
 21
-20.68833815539391
  0
LINE
  5
1E6
100
AcDbEntity
  8
placement
  6
ByLayer
 62
  256
370
   -1
100
AcDbLine
 10
65.54986622829271
 20
-33.46468237313397
 11
64.18994339725707
 21
-23.55758340857177
  0
LINE
  5
1E7
100
AcDbEntity
  8
placement
  6
ByLayer
 62
  256
370
   -1
100
AcDbLine
 10
47.32291528373673
 20
-25.92317315800238
 11
48.7146462802195
 21
-35.82585384726173
  0
LINE
  5
1E8
100
AcDbEntity
  8
placement
  6
ByLayer
 62
  256
370
   -1
100
AcDbLine
 10
25.27539072829271
 20
-19.93816687313397
 11
23.91546789725706
 21
-10.03106790857178
  0
LINE
  5
1E9
100
AcDbEntity
  8
placement
  6
ByLayer
 62
  256
370
   -1
100
AcDbLine
 10
44.09048402829269
 20
-17.29387797313397
 11
42.73056119725705
 21
-7.386779008571779
  0
LINE
  5
1EA
100
AcDbEntity
  8
placement
  6
ByLayer
 62
  256
370
   -1
100
AcDbLine
 10
62.90557732829269
 20
-14.64958907313397
 11
61.54565449725705
 21
-4.742490108571779
  0
LINE
  5
1EB
100
AcDbEntity
  8
placement
  6
ByLayer
 62
  256
370
   -1
100
AcDbLine
 10
32.0386484282927
 20
0.1990708268660306
 11
30.67872559725706
 21
10.10616979142822
  0
LINE
  5
1EC
100
AcDbEntity
  8
placement
  6
ByLayer
 62
  256
370
   -1
100
AcDbLine
 10
50.85374172829269
 20
2.84335972686603
 11
49.49381889725704
 21
12.75045869142822
  0
LINE
  5
1ED
100
AcDbEntity
  8
placement
  6
ByLayer
 62
  256
370
   -1
100
AcDbLine
 10
69.66883502829269
 20
5.487648726866031
 11
68.30891219725704
 21
15.39474769142822
  0
LINE
  5
1EE
100
AcDbEntity
  8
placement
  6
ByLayer
 62
  256
370
   -1
100
AcDbLine
 10
81.72067062829269
 20
-12.00530017313397
 11
80.36074779725705
 21
-2.09820120857178
  0
LINE
  5
1EF
100
AcDbEntity
  8
placement
  6
ByLayer
 62
  256
370
   -1
100
AcDbLine
 10
88.48392832829269
 20
8.13193762686603
 11
87.12400549725704
 21
18.03903659142822
  0
LINE
  5
1F0
100
AcDbEntity
  8
placement
  6
ByLayer
 62
  256
370
   -1
100
AcDbLine
 10
81.1358661282927
 20
26.28595862686603
 11
79.77594329725706
 21
36.19305759142822
  0
LINE
  5
1F1
100
AcDbEntity
  8
placement
  6
ByLayer
 62
  256
370
   -1
100
AcDbLine
 10
62.3207728282927
 20
23.64166972686603
 11
60.96084999725706
 21
33.54876869142822
  0
LINE
  5
1F2
100
AcDbEntity
  8
placement
  6
ByLayer
 62
  256
370
   -1
100
AcDbLine
 10
43.5056795282927
 20
20.99738082686603
 11
42.14575669725706
 21
30.90447979142822
  0
LINE
  5
1F3
100
AcDbEntity
  8
placement
  6
ByLayer
 62
  256
370
   -1
100
AcDbLine
 10
24.6905862282927
 20
18.35309192686603
 11
23.33066339725706
 21
28.26019089142822
  0
LINE
  5
1F4
100
AcDbEntity
  8
placement
  6
ByLayer
 62
  256
370
   -1
100
AcDbLine
 10
-27.95777462329774
 20
29.40159084094238
 11
-29.34950561978052
 21
19.4989101516831
  0
LINE
  5
1F5
100
AcDbEntity
  8
placement
  6
ByLayer
 62
  256
370
   -1
100
AcDbLine
 10
-46.77286792329775
 20
32.04587974094238
 11
-48.16459891978052
 21
22.1431990516831
  0
LINE
  5
1F6
100
AcDbEntity
  8
placement
  6
ByLayer
 62
  256
370
   -1
100
AcDbLine
 10
-65.58796122329775
 20
34.69016864094237
 11
-66.97969221978052
 21
24.7874879516831
  0
LINE
  5
1F7
100
AcDbEntity
  8
placement
  6
ByLayer
 62
  256
370
   -1
100
AcDbLine
 10
-84.40305452329775
 20
37.33445754094238
 11
-85.79478551978052
 21
27.4317768516831
  0
LINE
  5
1F8
100
AcDbEntity
  8
placement
  6
ByLayer
 62
  256
370
   -1
100
AcDbLine
 10
-25.89829022329774
 20
9.925425340942382
 11
-27.29002121978052
 21
0.02274465168310158
  0
LINE
  5
1F9
100
AcDbEntity
  8
placement
  6
ByLayer
 62
  256
370
   -1
100
AcDbLine
 10
-44.71338352329774
 20
12.56971424094238
 11
-46.10511451978051
 21
2.667033551683101
  0
LINE
  5
1FA
100
AcDbEntity
  8
placement
  6
ByLayer
 62
  256
370
   -1
100
AcDbLine
 10
-63.52847682329774
 20
15.21400314094238
 11
-64.92020781978052
 21
5.3113224516831
  0
LINE
  5
1FB
100
AcDbEntity
  8
placement
  6
ByLayer
 62
  256
370
   -1
100
AcDbLine
 10
-82.34357012329775
 20
17.85829204094238
 11
-83.73530111978052
 21
7.9556113516831
  0
LINE
  5
1FC
100
AcDbEntity
  8
placement
  6
ByLayer
 62
  256
370
   -1
100
AcDbLine
 10
-19.13503252329775
 20
-10.21181245905763
 11
-20.52676351978052
 21
-20.11449314831691
  0
LINE
  5
1FD
100
AcDbEntity
  8
placement
  6
ByLayer
 62
  256
370
   -1
100
AcDbLine
 10
-37.95012582329775
 20
-7.567523559057619
 11
-39.34185681978052
 21
-17.4702042483169
  0
LINE
  5
1FE
100
AcDbEntity
  8
placement
  6
ByLayer
 62
  256
370
   -1
100
AcDbLine
 10
-56.76521912329774
 20
-4.92323465905762
 11
-58.15695011978052
 21
-14.8259153483169
  0
LINE
  5
1FF
100
AcDbEntity
  8
placement
  6
ByLayer
 62
  256
370
   -1
100
AcDbLine
 10
-75.58031242329776
 20
-2.278945759057621
 11
-76.97204341978052
 21
-12.1816264483169
  0
LINE
  5
200
100
AcDbEntity
  8
placement
  6
ByLayer
 62
  256
370
   -1
100
AcDbLine
 10
-64.11328132329774
 20
-23.07725575905762
 11
-65.5050123197805
 21
-32.97993644831691
  0
LINE
  5
201
100
AcDbEntity
  8
placement
  6
ByLayer
 62
  256
370
   -1
100
AcDbLine
 10
-47.27872411651996
 20
-25.44319845800239
 11
-48.67045511300272
 21
-35.34587914726173
  0
ARC
  5
202
100
AcDbEntity
  8
ajour
  6
ByLayer
 62
  256
370
   -1
100
AcDbCircle
 10
2.386708030392321
 20
-22.33849197987733
 40
15
100
AcDbArc
 50
7.999999924101392
 51
172.0000000758986
  0
ARC
  5
203
100
AcDbEntity
  8
ajour
  6
ByLayer
 62
  256
370
   -1
100
AcDbCircle
 10
-95.03731649110549
 20
27.41037310002014
 40
5
100
AcDbArc
 50
90
 51
180
  0
LINE
  5
204
100
AcDbEntity
  8
ajour
  6
ByLayer
 62
  256
370
   -1
100
AcDbLine
 10
-100.0373164911055
 20
27.41037310002014
 11
-100.0373164911055
 21
-27.91037237691318
  0
ARC
  5
205
100
AcDbEntity
  8
ajour
  6
ByLayer
 62
  256
370
   -1
100
AcDbCircle
 10
-95.03731649110549
 20
-27.91037237691318
 40
5
100
AcDbArc
 50
180
 51
270
  0
LINE
  5
206
100
AcDbEntity
  8
ajour
  6
ByLayer
 62
  256
370
   -1
100
AcDbLine
 10
-13.64157978592492
 20
-28.60623787515457
 11
-12.46731300349663
 21
-20.25089548515318
  0
ARC
  5
207
100
AcDbEntity
  8
ajour
  6
ByLayer
 62
  256
370
   -1
100
AcDbCircle
 10
-18.59292013055458
 20
-27.91037237691319
 40
5
100
AcDbArc
 50
270
 51
352.0000000758986
  0
LINE
  5
208
100
AcDbEntity
  8
ajour
  6
ByLayer
 62
  256
370
   -1
100
AcDbLine
 10
18.41499584670957
 20
-28.60623787515458
 11
17.24072906428128
 21
-20.25089548515318
  0
ARC
  5
209
100
AcDbEntity
  8
ajour
  6
ByLayer
 62
  256
370
   -1
100
AcDbCircle
 10
23.36633619133922
 20
-27.91037237691319
 40
5
100
AcDbArc
 50
187.9999999241014
 51
270
  0
ARC
  5
20A
100
AcDbEntity
  8
ajour
  6
ByLayer
 62
  256
370
   -1
100
AcDbCircle
 10
95.03731198850468
 20
-27.9103723769132
 40
5
100
AcDbArc
 50
270
 51
359.9999999999999
  0
LINE
  5
20B
100
AcDbEntity
  8
ajour
  6
ByLayer
 62
  256
370
   -1
100
AcDbLine
 10
100.0373119885047
 20
27.41037310002012
 11
100.0373119885047
 21
-27.91037237691321
  0
ARC
  5
20C
100
AcDbEntity
  8
ajour
  6
ByLayer
 62
  256
370
   -1
100
AcDbCircle
 10
95.03731198850468
 20
27.41037310002012
 40
5
100
AcDbArc
 50
0
 51
90
  0
LINE
  5
20D
100
AcDbEntity
  8
ajour
  6
ByLayer
 62
  256
370
   -1
100
AcDbLine
 10
95.03731198850468
 20
32.41037310002012
 11
74.18903620082108
 21
32.41037310002012
  0
LINE
  5
20E
100
AcDbEntity
  8
ajour
  6
ByLayer
 62
  256
370
   -1
100
AcDbLine
 10
-70.7296470942352
 20
32.41037310002014
 11
-95.03731649110549
 21
32.41037310002014
  0
ARC
  5
20F
100
AcDbEntity
  8
ajour
  6
ByLayer
 62
  256
370
   -1
100
AcDbCircle
 10
-28.04341750454877
 20
29.90976776147117
 40
2
100
AcDbArc
 50
270.0000000000001
 51
1.017777498068325e-13
  0
LINE
  5
210
100
AcDbEntity
  8
ajour
  6
ByLayer
 62
  256
370
   -1
100
AcDbLine
 10
-26.04341750454877
 20
30.41037310002012
 11
-26.04341750454877
 21
29.90976776147117
  0
ARC
  5
211
100
AcDbEntity
  8
ajour
  6
ByLayer
 62
  256
370
   -1
100
AcDbCircle
 10
-24.04341750454877
 20
30.41037310002012
 40
2
100
AcDbArc
 50
90
 51
180.0000000000002
  0
LINE
  5
212
100
AcDbEntity
  8
ajour
  6
ByLayer
 62
  256
370
   -1
100
AcDbLine
 10
19.38383536955193
 20
32.41037310002012
 11
-24.04341750454877
 21
32.41037310002012
  0
ARC
  5
213
100
AcDbEntity
  8
ajour
  6
ByLayer
 62
  256
370
   -1
100
AcDbCircle
 10
19.38383536955193
 20
30.41037310002012
 40
2
100
AcDbArc
 50
1.017777498068325e-13
 51
90
  0
LINE
  5
214
100
AcDbEntity
  8
ajour
  6
ByLayer
 62
  256
370
   -1
100
AcDbLine
 10
21.38383536955193
 20
30.41037310002012
 11
21.38383536955193
 21
28.76872077722187
  0
ARC
  5
215
100
AcDbEntity
  8
ajour
  6
ByLayer
 62
  256
370
   -1
100
AcDbCircle
 10
23.38383536955193
 20
28.76872077722187
 40
2
100
AcDbArc
 50
180
 51
270
  0
LINE
  5
216
100
AcDbEntity
  8
ajour
  6
ByLayer
 62
  256
370
   -1
100
AcDbLine
 10
23.38383536955193
 20
26.76872077722187
 11
24.95610822699336
 21
26.76872077722187
  0
ARC
  5
217
100
AcDbEntity
  8
ajour
  6
ByLayer
 62
  256
370
   -1
100
AcDbCircle
 10
24.95610822699336
 20
56.76872077722188
 40
30
100
AcDbArc
 50
270
 51
277.9999999241014
  0
LINE
  5
218
100
AcDbEntity
  8
ajour
  6
ByLayer
 62
  256
370
   -1
100
AcDbLine
 10
-29.61569036199006
 20
27.90976776147117
 11
-28.04341750454877
 21
27.90976776147117
  0
ARC
  5
219
100
AcDbEntity
  8
ajour
  6
ByLayer
 62
  256
370
   -1
100
AcDbCircle
 10
74.18903620082108
 20
-67.58962689997989
 40
100
100
AcDbArc
 50
90
 51
94.77310440718001
  0
ARC
  5
21A
100
AcDbEntity
  8
ajour
  6
ByLayer
 62
  256
370
   -1
100
AcDbCircle
 10
66.28408014063058
 20
27.08091587699199
 40
5
100
AcDbArc
 50
94.77310440718013
 51
180
  0
LINE
  5
21B
100
AcDbEntity
  8
ajour
  6
ByLayer
 62
  256
370
   -1
100
AcDbLine
 10
95.03731198850468
 20
-32.9103723769132
 11
66.28408014063058
 21
-32.9103723769132
  0
LINE
  5
21C
100
AcDbEntity
  8
ajour
  6
ByLayer
 62
  256
370
   -1
100
AcDbLine
 10
61.28408014063059
 20
27.08091587699199
 11
61.28408014063058
 21
-27.9103723769132
  0
ARC
  5
21D
100
AcDbEntity
  8
ajour
  6
ByLayer
 62
  256
370
   -1
100
AcDbCircle
 10
66.28408014063058
 20
-27.9103723769132
 40
5
100
AcDbArc
 50
180
 51
270
  0
LINE
  5
21E
100
AcDbEntity
  8
ajour
  6
ByLayer
 62
  256
370
   -1
100
AcDbLine
 10
36.28408014063056
 20
-32.91037237691319
 11
23.36633619133922
 21
-32.91037237691319
  0
ARC
  5
21F
100
AcDbEntity
  8
ajour
  6
ByLayer
 62
  256
370
   -1
100
AcDbCircle
 10
36.28408014063057
 20
-27.91037237691319
 40
5
100
AcDbArc
 50
269.9999999999999
 51
359.9999999999999
  0
LINE
  5
220
100
AcDbEntity
  8
ajour
  6
ByLayer
 62
  256
370
   -1
100
AcDbLine
 10
29.13130121644167
 20
27.06067870944397
 11
35.5882146423892
 21
27.96813870320543
  0
LINE
  5
221
100
AcDbEntity
  8
ajour
  6
ByLayer
 62
  256
370
   -1
100
AcDbLine
 10
41.28408014063059
 20
23.01679835857577
 11
41.28408014063058
 21
-27.9103723769132
  0
ARC
  5
222
100
AcDbEntity
  8
ajour
  6
ByLayer
 62
  256
370
   -1
100
AcDbCircle
 10
36.28408014063058
 20
23.01679835857577
 40
5
100
AcDbArc
 50
0
 51
97.99999992410137
  0
LINE
  5
223
100
AcDbEntity
  8
ajour
  6
ByLayer
 62
  256
370
   -1
100
AcDbLine
 10
-62.7040192206923
 20
-32.91037237691318
 11
-95.03731649110549
 21
-32.91037237691317
  0
ARC
  5
224
100
AcDbEntity
  8
ajour
  6
ByLayer
 62
  256
370
   -1
100
AcDbCircle
 10
-62.7040192206923
 20
-27.91037237691318
 40
5
100
AcDbArc
 50
270
 51
359.9999999999999
  0
LINE
  5
225
100
AcDbEntity
  8
ajour
  6
ByLayer
 62
  256
370
   -1
100
AcDbLine
 10
-57.7040192206923
 20
27.07076237259503
 11
-57.7040192206923
 21
-27.91037237691319
  0
ARC
  5
226
100
AcDbEntity
  8
ajour
  6
ByLayer
 62
  256
370
   -1
100
AcDbCircle
 10
-70.72964709423525
 20
-67.58962689997986
 40
100
100
AcDbArc
 50
85.15385961713208
 51
89.99999999999997
  0
ARC
  5
227
100
AcDbEntity
  8
ajour
  6
ByLayer
 62
  256
370
   -1
100
AcDbCircle
 10
-62.7040192206923
 20
27.07076237259503
 40
5
100
AcDbArc
 50
0
 51
85.15385961713213
  0
LINE
  5
228
100
AcDbEntity
  8
ajour
  6
ByLayer
 62
  256
370
   -1
100
AcDbLine
 10
-18.59292013055458
 20
-32.91037237691319
 11
-32.7040192206923
 21
-32.91037237691319
  0
ARC
  5
229
100
AcDbEntity
  8
ajour
  6
ByLayer
 62
  256
370
   -1
100
AcDbCircle
 10
-32.7040192206923
 20
-27.91037237691319
 40
5
100
AcDbArc
 50
180
 51
270
  0
LINE
  5
22A
100
AcDbEntity
  8
ajour
  6
ByLayer
 62
  256
370
   -1
100
AcDbLine
 10
-37.7040192206923
 20
23.04628794575989
 11
-37.7040192206923
 21
-27.91037237691319
  0
ARC
  5
22B
100
AcDbEntity
  8
ajour
  6
ByLayer
 62
  256
370
   -1
100
AcDbCircle
 10
-29.61569036199006
 20
57.90976776147116
 40
30
100
AcDbArc
 50
264.9377532686445
 51
270
  0
ARC
  5
22C
100
AcDbEntity
  8
ajour
  6
ByLayer
 62
  256
370
   -1
100
AcDbCircle
 10
-32.7040192206923
 20
23.04628794575989
 40
5
100
AcDbArc
 50
84.93775326864456
 51
180
  0
LINE
  5
22D
100
AcDbEntity
  8
placement
  6
ByLayer
 62
  256
370
   -1
100
AcDbLine
 10
86.94518630003373
 20
-30.51968333290894
 11
85.58526346899806
 21
-20.61258436834677
  0
LINE
  5
22E
100
AcDbEntity
  8
placement
  6
ByLayer
 62
  256
370
   -1
100
AcDbLine
 10
-87.14988130075214
 20
-30.73264075870894
 11
-86.13536599830083
 21
-20.78423592672242
  0
LINE
  5
22F
100
AcDbEntity
  8
rpi-cut
  6
ByLayer
 62
  256
370
   -1
100
AcDbLine
 10
-10
 20
29.91037310002013
 11
-10
 21
60.61037310002013
  0
LINE
  5
230
100
AcDbEntity
  8
rpi-cut
  6
ByLayer
 62
  256
370
   -1
100
AcDbLine
 10
10
 20
29.91037310002013
 11
10
 21
60.61037310002013
  0
LINE
  5
231
100
AcDbEntity
  8
rpi-cut
  6
ByLayer
 62
  256
370
   -1
100
AcDbLine
 10
10
 20
29.91037310002013
 11
-10
 21
29.91037310002013
  0
ENDSEC
  0
SECTION
  2
OBJECTS
  0
DICTIONARY
  5
C
330
0
100
AcDbDictionary
281
    1
  3
ACAD_GROUP
350
D
  0
DICTIONARY
  5
D
330
C
100
AcDbDictionary
281
    1
  0
PLOTSETTINGS
  5
232
100
AcDbPlotSettings
  6
1x1
 40
0
 41
0
 42
0
 43
0
  0
ENDSEC
  0
EOF
