999
dxfrw 0.6.3
  0
SECTION
  2
HEADER
  9
$ACADVER
  1
AC1021
  9
$DWGCODEPAGE
  3
ANSI_1252
  9
$INSBASE
 10
0
 20
0
 30
0
  9
$EXTMIN
 10
-122.9490250494383
 20
-47.98691944293497
 30
0
  9
$EXTMAX
 10
122.9490250494383
 20
60
 30
0
  9
$LIMMIN
 10
0
 20
0
  9
$LIMMAX
 10
420
 20
297
  9
$ORTHOMODE
 70
    0
  9
$REGENMODE
 70
    1
  9
$FILLMODE
 70
    1
  9
$QTEXTMODE
 70
    0
  9
$MIRRTEXT
 70
    0
  9
$LTSCALE
 40
1
  9
$ATTMODE
 70
    0
  9
$TEXTSIZE
 40
2.5
  9
$TRACEWID
 40
15.68
  9
$TEXTSTYLE
  7
STANDARD
  9
$CLAYER
  8
placement
  9
$CELTYPE
  6
BYLAYER
  9
$CECOLOR
 62
  256
  9
$CELTSCALE
 40
1
  9
$DISPSILH
 70
    0
  9
$DIMSCALE
 40
2.5
  9
$DIMASZ
 40
2.5
  9
$DIMEXO
 40
0.625
  9
$DIMDLI
 40
3.75
  9
$DIMRND
 40
0
  9
$DIMDLE
 40
0
  9
$DIMEXE
 40
1.25
  9
$DIMTP
 40
0
  9
$DIMTM
 40
0
  9
$DIMTXT
 40
2.5
  9
$DIMCEN
 40
2.5
  9
$DIMTSZ
 40
0
  9
$DIMTOL
 70
    0
  9
$DIMLIM
 70
    0
  9
$DIMTIH
 70
    0
  9
$DIMTOH
 70
    0
  9
$DIMSE1
 70
    0
  9
$DIMSE2
 70
    0
  9
$DIMTAD
 70
    1
  9
$DIMZIN
 70
    8
  9
$DIMBLK
  1

  9
$DIMASO
 70
    1
  9
$DIMSHO
 70
    1
  9
$DIMPOST
  1

  9
$DIMAPOST
  1

  9
$DIMALT
 70
    0
  9
$DIMALTD
 70
    3
  9
$DIMALTF
 40
0.03937
  9
$DIMLFAC
 40
1
  9
$DIMTOFL
 70
    1
  9
$DIMTVP
 40
0
  9
$DIMTIX
 70
    0
  9
$DIMSOXD
 70
    0
  9
$DIMSAH
 70
    0
  9
$DIMBLK1
  1

  9
$DIMBLK2
  1

  9
$DIMSTYLE
  2
STANDARD
  9
$DIMCLRD
 70
    0
  9
$DIMCLRE
 70
    0
  9
$DIMCLRT
 70
    0
  9
$DIMTFAC
 40
1
  9
$DIMGAP
 40
0.625
  9
$DIMJUST
 70
    0
  9
$DIMSD1
 70
    0
  9
$DIMSD2
 70
    0
  9
$DIMTOLJ
 70
    0
  9
$DIMTZIN
 70
    8
  9
$DIMALTZ
 70
    0
  9
$DIMALTTZ
 70
    0
  9
$DIMUPT
 70
    0
  9
$DIMDEC
 70
    2
  9
$DIMTDEC
 70
    2
  9
$DIMALTU
 70
    2
  9
$DIMALTTD
 70
    3
  9
$DIMTXSTY
  7
STANDARD
  9
$DIMAUNIT
 70
    0
  9
$DIMADEC
 70
    0
  9
$DIMALTRND
 40
0
  9
$DIMAZIN
 70
    0
  9
$DIMDSEP
 70
   44
  9
$DIMATFIT
 70
    3
  9
$DIMFRAC
 70
    0
  9
$DIMLDRBLK
  1
STANDARD
  9
$DIMLUNIT
 70
    2
  9
$DIMLWD
 70
   -2
  9
$DIMLWE
 70
   -2
  9
$DIMTMOVE
 70
    0
  9
$DIMFXL
 40
1
  9
$DIMFXLON
 70
    0
  9
$DIMJOGANG
 40
0.7854
  9
$DIMTFILL
 70
    0
  9
$DIMTFILLCLR
 70
    0
  9
$DIMARCSYM
 70
    0
  9
$DIMLTYPE
  6

  9
$DIMLTEX1
  6

  9
$DIMLTEX2
  6

  9
$LUNITS
 70
    2
  9
$LUPREC
 70
    4
  9
$SKETCHINC
 40
1
  9
$FILLETRAD
 40
0
  9
$AUNITS
 70
    0
  9
$AUPREC
 70
    2
  9
$MENU
  1
.
  9
$ELEVATION
 40
0
  9
$PELEVATION
 40
0
  9
$THICKNESS
 40
0
  9
$LIMCHECK
 70
    0
  9
$CHAMFERA
 40
0
  9
$CHAMFERB
 40
0
  9
$CHAMFERC
 40
0
  9
$CHAMFERD
 40
0
  9
$SKPOLY
 70
    0
  9
$USRTIMER
 70
    1
  9
$ANGBASE
 50
0
  9
$ANGDIR
 70
    0
  9
$PDMODE
 70
   34
  9
$PDSIZE
 40
0
  9
$PLINEWID
 40
0
  9
$SPLFRAME
 70
    0
  9
$SPLINETYPE
 70
    2
  9
$SPLINESEGS
 70
    8
  9
$HANDSEED
  5
20000
  9
$SURFTAB1
 70
    6
  9
$SURFTAB2
 70
    6
  9
$SURFTYPE
 70
    6
  9
$SURFU
 70
    6
  9
$SURFV
 70
    6
  9
$UCSBASE
  2

  9
$UCSNAME
  2

  9
$UCSORG
 10
0
 20
0
 30
0
  9
$UCSXDIR
 10
1
 20
0
 30
0
  9
$UCSYDIR
 10
0
 20
1
 30
0
  9
$UCSORTHOREF
  2

  9
$UCSORTHOVIEW
 70
    0
  9
$UCSORGTOP
 10
0
 20
0
 30
0
  9
$UCSORGBOTTOM
 10
0
 20
0
 30
0
  9
$UCSORGLEFT
 10
0
 20
0
 30
0
  9
$UCSORGRIGHT
 10
0
 20
0
 30
0
  9
$UCSORGFRONT
 10
0
 20
0
 30
0
  9
$UCSORGBACK
 10
0
 20
0
 30
0
  9
$PUCSBASE
  2

  9
$PUCSNAME
  2

  9
$PUCSORG
 10
0
 20
0
 30
0
  9
$PUCSXDIR
 10
1
 20
0
 30
0
  9
$PUCSYDIR
 10
0
 20
1
 30
0
  9
$PUCSORTHOREF
  2

  9
$PUCSORTHOVIEW
 70
    0
  9
$PUCSORGTOP
 10
0
 20
0
 30
0
  9
$PUCSORGBOTTOM
 10
0
 20
0
 30
0
  9
$PUCSORGLEFT
 10
0
 20
0
 30
0
  9
$PUCSORGRIGHT
 10
0
 20
0
 30
0
  9
$PUCSORGFRONT
 10
0
 20
0
 30
0
  9
$PUCSORGBACK
 10
0
 20
0
 30
0
  9
$USERI1
 70
    0
  9
$USERI2
 70
    0
  9
$USERI3
 70
    0
  9
$USERI4
 70
    0
  9
$USERI5
 70
    0
  9
$USERR1
 40
0
  9
$USERR2
 40
0
  9
$USERR3
 40
0
  9
$USERR4
 40
0
  9
$USERR5
 40
0
  9
$WORLDVIEW
 70
    1
  9
$SHADEDGE
 70
    3
  9
$SHADEDIF
 70
   70
  9
$TILEMODE
 70
    1
  9
$MAXACTVP
 70
   64
  9
$PINSBASE
 10
0
 20
0
 30
0
  9
$PLIMCHECK
 70
    0
  9
$PEXTMIN
 10
0
 20
0
 30
0
  9
$PEXTMAX
 10
0
 20
0
 30
0
  9
$GRIDMODE
 70
    1
  9
$SNAPSTYLE
 70
    0
  9
$PLIMMIN
 10
0
 20
0
  9
$PLIMMAX
 10
210
 20
297
  9
$UNITMODE
 70
    0
  9
$VISRETAIN
 70
    1
  9
$PLINEGEN
 70
    0
  9
$PSLTSCALE
 70
    1
  9
$TREEDEPTH
 70
 3020
  9
$CMLSTYLE
  2
Standard
  9
$CMLJUST
 70
    0
  9
$CMLSCALE
 40
20
  9
$PROXYGRAPHICS
 70
    1
  9
$MEASUREMENT
 70
    1
  9
$CELWEIGHT
370
   -1
  9
$ENDCAPS
280
    0
  9
$JOINSTYLE
280
    0
  9
$LWDISPLAY
290
    0
  9
$INSUNITS
 70
    0
  9
$HYPERLINKBASE
  1

  9
$STYLESHEET
  1

  9
$XEDIT
290
    1
  9
$CEPSNTYPE
380
    0
  9
$PSTYLEMODE
290
    1
  9
$EXTNAMES
290
    1
  9
$PSVPSCALE
 40
1
  9
$OLESTARTUP
290
    0
  9
$SORTENTS
280
  127
  9
$INDEXCTL
280
    0
  9
$HIDETEXT
280
    1
  9
$XCLIPFRAME
290
    0
  9
$HALOGAP
280
    0
  9
$OBSCOLOR
 70
  257
  9
$OBSLTYPE
280
    0
  9
$INTERSECTIONDISPLAY
280
    0
  9
$INTERSECTIONCOLOR
 70
  257
  9
$DIMASSOC
280
    1
  9
$PROJECTNAME
  1

  9
$CAMERADISPLAY
290
    0
  9
$LENSLENGTH
 40
50
  9
$CAMERAHEIGHT
 40
0
  9
$STEPSPERSEC
 40
2
  9
$STEPSIZE
 40
50
  9
$3DDWFPREC
 40
2
  9
$PSOLWIDTH
 40
5
  9
$PSOLHEIGHT
 40
80
  9
$LOFTANG1
 40
1.570796326794897
  9
$LOFTANG2
 40
1.570796326794897
  9
$LOFTMAG1
 40
0
  9
$LOFTMAG2
 40
0
  9
$LOFTPARAM
 70
    7
  9
$LOFTNORMALS
280
    1
  9
$LATITUDE
 40
1
  9
$LONGITUDE
 40
1
  9
$NORTHDIRECTION
 40
0
  9
$TIMEZONE
 70
-8000
  9
$LIGHTGLYPHDISPLAY
280
    1
  9
$TILEMODELIGHTSYNCH
280
    1
  9
$SOLIDHIST
280
    1
  9
$SHOWHIST
280
    1
  9
$DWFFRAME
280
    2
  9
$DGNFRAME
280
    0
  9
$REALWORLDSCALE
290
    1
  9
$INTERFERECOLOR
 62
    1
  9
$CSHADOW
280
    0
  9
$SHADOWPLANELOCATION
 40
0
  0
ENDSEC
  0
SECTION
  2
CLASSES
  0
ENDSEC
  0
SECTION
  2
TABLES
  0
TABLE
  2
VPORT
  5
8
330
0
100
AcDbSymbolTable
 70
    1
  0
VPORT
  5
31
330
2
100
AcDbSymbolTableRecord
100
AcDbViewportTableRecord
  2
*ACTIVE
 70
    0
 10
0
 20
0
 11
1
 21
1
 12
62.97024275646415
 22
58.18390601488017
 13
0
 23
0
 14
10
 24
10
 15
10
 25
10
 16
0
 26
0
 36
1
 17
0
 27
0
 37
0
 40
220.4706361592118
 41
1.14246947082768
 42
50
 43
0
 44
0
 50
0
 51
0
 71
    0
 72
  100
 73
    1
 74
    3
 75
    0
 76
    1
 77
    0
 78
    0
281
    0
 65
    1
110
0
120
0
130
0
111
1
121
0
131
0
112
0
122
1
132
0
 79
    0
146
0
348
10020
 60
    7
 61
    5
292
1
282
    1
141
0
142
0
 63
  250
421
3358443
  0
ENDTAB
  0
TABLE
  2
LTYPE
  5
5
330
0
100
AcDbSymbolTable
 70
    4
  0
LTYPE
  5
14
330
5
100
AcDbSymbolTableRecord
100
AcDbLinetypeTableRecord
  2
ByBlock
 70
    0
  3

 72
   65
 73
    0
 40
0
  0
LTYPE
  5
15
330
5
100
AcDbSymbolTableRecord
100
AcDbLinetypeTableRecord
  2
ByLayer
 70
    0
  3

 72
   65
 73
    0
 40
0
  0
LTYPE
  5
16
330
5
100
AcDbSymbolTableRecord
100
AcDbLinetypeTableRecord
  2
Continuous
 70
    0
  3
Solid line
 72
   65
 73
    0
 40
0
  0
LTYPE
  5
32
330
5
100
AcDbSymbolTableRecord
100
AcDbLinetypeTableRecord
  2
DOT
 70
    0
  3
Dot . . . . . . . . . . . . . . . . . . . . . .
 72
   65
 73
    2
 40
6.35
 49
0
 74
    0
 49
-6.35
 74
    0
  0
LTYPE
  5
33
330
5
100
AcDbSymbolTableRecord
100
AcDbLinetypeTableRecord
  2
DOTTINY
 70
    0
  3
Dot (.15x) .....................................
 72
   65
 73
    2
 40
0.9525
 49
0
 74
    0
 49
-0.9525
 74
    0
  0
LTYPE
  5
34
330
5
100
AcDbSymbolTableRecord
100
AcDbLinetypeTableRecord
  2
DOT2
 70
    0
  3
Dot (.5x) .....................................
 72
   65
 73
    2
 40
3.175
 49
0
 74
    0
 49
-3.175
 74
    0
  0
LTYPE
  5
35
330
5
100
AcDbSymbolTableRecord
100
AcDbLinetypeTableRecord
  2
DOTX2
 70
    0
  3
Dot (2x) .  .  .  .  .  .  .  .  .  .  .  .  .
 72
   65
 73
    2
 40
12.7
 49
0
 74
    0
 49
-12.7
 74
    0
  0
LTYPE
  5
36
330
5
100
AcDbSymbolTableRecord
100
AcDbLinetypeTableRecord
  2
DASHED
 70
    0
  3
Dashed _ _ _ _ _ _ _ _ _ _ _ _ _ _ _ _ _
 72
   65
 73
    2
 40
19.05
 49
12.7
 74
    0
 49
-6.35
 74
    0
  0
LTYPE
  5
37
330
5
100
AcDbSymbolTableRecord
100
AcDbLinetypeTableRecord
  2
DASHEDTINY
 70
    0
  3
Dashed (.15x) _ _ _ _ _ _ _ _ _ _ _ _ _ _ _ _ _
 72
   65
 73
    2
 40
2.8575
 49
1.905
 74
    0
 49
-0.9525
 74
    0
  0
LTYPE
  5
38
330
5
100
AcDbSymbolTableRecord
100
AcDbLinetypeTableRecord
  2
DASHED2
 70
    0
  3
Dashed (.5x) _ _ _ _ _ _ _ _ _ _ _ _ _ _ _ _ _
 72
   65
 73
    2
 40
9.524999999999999
 49
6.35
 74
    0
 49
-3.175
 74
    0
  0
LTYPE
  5
39
330
5
100
AcDbSymbolTableRecord
100
AcDbLinetypeTableRecord
  2
DASHEDX2
 70
    0
  3
Dashed (2x) ____  ____  ____  ____  ____  ___
 72
   65
 73
    2
 40
38.09999999999999
 49
25.4
 74
    0
 49
-12.7
 74
    0
  0
LTYPE
  5
3A
330
5
100
AcDbSymbolTableRecord
100
AcDbLinetypeTableRecord
  2
DASHDOT
 70
    0
  3
Dash dot __ . __ . __ . __ . __ . __ . __ . __
 72
   65
 73
    4
 40
25.4
 49
12.7
 74
    0
 49
-6.35
 74
    0
 49
0
 74
    0
 49
-6.35
 74
    0
  0
LTYPE
  5
3B
330
5
100
AcDbSymbolTableRecord
100
AcDbLinetypeTableRecord
  2
DASHDOTTINY
 70
    0
  3
Dash dot (.15x) _._._._._._._._._._._._._._._.
 72
   65
 73
    4
 40
3.81
 49
1.905
 74
    0
 49
-0.9525
 74
    0
 49
0
 74
    0
 49
-0.9525
 74
    0
  0
LTYPE
  5
3C
330
5
100
AcDbSymbolTableRecord
100
AcDbLinetypeTableRecord
  2
DASHDOT2
 70
    0
  3
Dash dot (.5x) _._._._._._._._._._._._._._._.
 72
   65
 73
    4
 40
12.7
 49
6.35
 74
    0
 49
-3.175
 74
    0
 49
0
 74
    0
 49
-3.175
 74
    0
  0
LTYPE
  5
3D
330
5
100
AcDbSymbolTableRecord
100
AcDbLinetypeTableRecord
  2
DASHDOTX2
 70
    0
  3
Dash dot (2x) ____  .  ____  .  ____  .  ___
 72
   65
 73
    4
 40
50.8
 49
25.4
 74
    0
 49
-12.7
 74
    0
 49
0
 74
    0
 49
-12.7
 74
    0
  0
LTYPE
  5
3E
330
5
100
AcDbSymbolTableRecord
100
AcDbLinetypeTableRecord
  2
DIVIDE
 70
    0
  3
Divide ____ . . ____ . . ____ . . ____ . . ____
 72
   65
 73
    6
 40
31.75
 49
12.7
 74
    0
 49
-6.35
 74
    0
 49
0
 74
    0
 49
-6.35
 74
    0
 49
0
 74
    0
 49
-6.35
 74
    0
  0
LTYPE
  5
3F
330
5
100
AcDbSymbolTableRecord
100
AcDbLinetypeTableRecord
  2
DIVIDETINY
 70
    0
  3
Divide (.15x) __..__..__..__..__..__..__..__.._
 72
   65
 73
    6
 40
4.7625
 49
1.905
 74
    0
 49
-0.9525
 74
    0
 49
0
 74
    0
 49
-0.9525
 74
    0
 49
0
 74
    0
 49
-0.9525
 74
    0
  0
LTYPE
  5
40
330
5
100
AcDbSymbolTableRecord
100
AcDbLinetypeTableRecord
  2
DIVIDE2
 70
    0
  3
Divide (.5x) __..__..__..__..__..__..__..__.._
 72
   65
 73
    6
 40
15.875
 49
6.35
 74
    0
 49
-3.175
 74
    0
 49
0
 74
    0
 49
-3.175
 74
    0
 49
0
 74
    0
 49
-3.175
 74
    0
  0
LTYPE
  5
41
330
5
100
AcDbSymbolTableRecord
100
AcDbLinetypeTableRecord
  2
DIVIDEX2
 70
    0
  3
Divide (2x) ________  .  .  ________  .  .  _
 72
   65
 73
    6
 40
63.5
 49
25.4
 74
    0
 49
-12.7
 74
    0
 49
0
 74
    0
 49
-12.7
 74
    0
 49
0
 74
    0
 49
-12.7
 74
    0
  0
LTYPE
  5
42
330
5
100
AcDbSymbolTableRecord
100
AcDbLinetypeTableRecord
  2
BORDER
 70
    0
  3
Border __ __ . __ __ . __ __ . __ __ . __ __ .
 72
   65
 73
    6
 40
44.45
 49
12.7
 74
    0
 49
-6.35
 74
    0
 49
12.7
 74
    0
 49
-6.35
 74
    0
 49
0
 74
    0
 49
-6.35
 74
    0
  0
LTYPE
  5
43
330
5
100
AcDbSymbolTableRecord
100
AcDbLinetypeTableRecord
  2
BORDERTINY
 70
    0
  3
Border (.15x) __.__.__.__.__.__.__.__.__.__.__.
 72
   65
 73
    6
 40
6.6675
 49
1.905
 74
    0
 49
-0.9525
 74
    0
 49
1.905
 74
    0
 49
-0.9525
 74
    0
 49
0
 74
    0
 49
-0.9525
 74
    0
  0
LTYPE
  5
44
330
5
100
AcDbSymbolTableRecord
100
AcDbLinetypeTableRecord
  2
BORDER2
 70
    0
  3
Border (.5x) __.__.__.__.__.__.__.__.__.__.__.
 72
   65
 73
    6
 40
22.225
 49
6.35
 74
    0
 49
-3.175
 74
    0
 49
6.35
 74
    0
 49
-3.175
 74
    0
 49
0
 74
    0
 49
-3.175
 74
    0
  0
LTYPE
  5
45
330
5
100
AcDbSymbolTableRecord
100
AcDbLinetypeTableRecord
  2
BORDERX2
 70
    0
  3
Border (2x) ____  ____  .  ____  ____  .  ___
 72
   65
 73
    6
 40
88.89999999999999
 49
25.4
 74
    0
 49
-12.7
 74
    0
 49
25.4
 74
    0
 49
-12.7
 74
    0
 49
0
 74
    0
 49
-12.7
 74
    0
  0
LTYPE
  5
46
330
5
100
AcDbSymbolTableRecord
100
AcDbLinetypeTableRecord
  2
CENTER
 70
    0
  3
Center ____ _ ____ _ ____ _ ____ _ ____ _ ____
 72
   65
 73
    4
 40
50.8
 49
31.75
 74
    0
 49
-6.35
 74
    0
 49
6.35
 74
    0
 49
-6.35
 74
    0
  0
LTYPE
  5
47
330
5
100
AcDbSymbolTableRecord
100
AcDbLinetypeTableRecord
  2
CENTERTINY
 70
    0
  3
Center (.15x) ___ _ ___ _ ___ _ ___ _ ___ _ ___
 72
   65
 73
    4
 40
7.619999999999999
 49
4.7625
 74
    0
 49
-0.9525
 74
    0
 49
0.9525
 74
    0
 49
-0.9525
 74
    0
  0
LTYPE
  5
48
330
5
100
AcDbSymbolTableRecord
100
AcDbLinetypeTableRecord
  2
CENTER2
 70
    0
  3
Center (.5x) ___ _ ___ _ ___ _ ___ _ ___ _ ___
 72
   65
 73
    4
 40
28.575
 49
19.05
 74
    0
 49
-3.175
 74
    0
 49
3.175
 74
    0
 49
-3.175
 74
    0
  0
LTYPE
  5
49
330
5
100
AcDbSymbolTableRecord
100
AcDbLinetypeTableRecord
  2
CENTERX2
 70
    0
  3
Center (2x) ________  __  ________  __  _____
 72
   65
 73
    4
 40
101.6
 49
63.5
 74
    0
 49
-12.7
 74
    0
 49
12.7
 74
    0
 49
-12.7
 74
    0
  0
ENDTAB
  0
TABLE
  2
LAYER
  5
2
330
0
100
AcDbSymbolTable
 70
    1
  0
LAYER
  5
10
330
2
100
AcDbSymbolTableRecord
100
AcDbLayerTableRecord
  2
0
 70
    4
 62
    7
  6
CONTINUOUS
370
    0
390
F
  0
LAYER
  5
4A
330
2
100
AcDbSymbolTableRecord
100
AcDbLayerTableRecord
  2
ajour
 70
    4
 62
    3
  6
CONTINUOUS
370
    0
390
F
  0
LAYER
  5
4B
330
2
100
AcDbSymbolTableRecord
100
AcDbLayerTableRecord
  2
edge
 70
    4
 62
    2
  6
CONTINUOUS
370
    0
390
F
  0
LAYER
  5
4C
330
2
100
AcDbSymbolTableRecord
100
AcDbLayerTableRecord
  2
ext1
 70
    4
 62
  171
420
8621055
  6
CONTINUOUS
370
    0
390
F
  0
LAYER
  5
4D
330
2
100
AcDbSymbolTableRecord
100
AcDbLayerTableRecord
  2
ext2
 70
    4
 62
  160
420
3366911
  6
CONTINUOUS
370
    0
390
F
  0
LAYER
  5
4E
330
2
100
AcDbSymbolTableRecord
100
AcDbLayerTableRecord
  2
ext3
 70
    4
 62
    5
  6
CONTINUOUS
370
    0
390
F
  0
LAYER
  5
4F
330
2
100
AcDbSymbolTableRecord
100
AcDbLayerTableRecord
  2
int
 70
    4
 62
  132
420
49858
  6
CONTINUOUS
370
    0
390
F
  0
LAYER
  5
50
330
2
100
AcDbSymbolTableRecord
100
AcDbLayerTableRecord
  2
percage
 70
    4
 62
    4
  6
CONTINUOUS
370
    0
390
F
  0
LAYER
  5
51
330
2
100
AcDbSymbolTableRecord
100
AcDbLayerTableRecord
  2
placement
 70
    0
 62
    1
  6
CONTINUOUS
370
    0
390
F
  0
LAYER
  5
52
330
2
100
AcDbSymbolTableRecord
100
AcDbLayerTableRecord
  2
rpi
 70
    4
 62
    3
  6
CONTINUOUS
370
    0
390
F
  0
LAYER
  5
53
330
2
100
AcDbSymbolTableRecord
100
AcDbLayerTableRecord
  2
rpi-decoup
 70
    4
 62
   92
420
50944
  6
CONTINUOUS
370
    0
390
F
  0
ENDTAB
  0
TABLE
  2
STYLE
  5
3
330
0
100
AcDbSymbolTable
 70
    3
  0
STYLE
  5
54
330
2
100
AcDbSymbolTableRecord
100
AcDbTextStyleTableRecord
  2
Standard
 70
    0
 40
0
 41
1
 50
0
 71
    0
 42
1
  3
txt
  4

  0
ENDTAB
  0
TABLE
  2
VIEW
  5
6
330
0
100
AcDbSymbolTable
 70
    0
  0
ENDTAB
  0
TABLE
  2
UCS
  5
7
330
0
100
AcDbSymbolTable
 70
    0
  0
ENDTAB
  0
TABLE
  2
APPID
  5
9
330
0
100
AcDbSymbolTable
 70
    1
  0
APPID
  5
12
330
9
100
AcDbSymbolTableRecord
100
AcDbRegAppTableRecord
  2
ACAD
 70
    0
  0
APPID
  5
55
330
9
100
AcDbSymbolTableRecord
100
AcDbRegAppTableRecord
  2
LibreCad
 70
    0
  0
ENDTAB
  0
TABLE
  2
DIMSTYLE
  5
A
330
0
100
AcDbSymbolTable
 70
    1
100
AcDbDimStyleTable
 71
    1
  0
DIMSTYLE
105
56
330
A
100
AcDbSymbolTableRecord
100
AcDbDimStyleTableRecord
  2
Standard
 70
    0
 40
2.5
 41
2.5
 42
0.625
 43
0.38
 44
1.25
 45
0
 46
0
 47
0
 48
0
 49
1
140
2.5
141
0.09
142
0
143
25.4
144
1
145
0
146
1
147
0.625
148
0
 71
    0
 72
    0
 73
    0
 74
    1
 75
    0
 76
    0
 77
    0
 78
    8
 79
    0
170
    0
171
    2
172
    0
173
    0
174
    0
175
    0
176
    0
177
    0
178
    0
179
    0
271
    2
272
    4
273
    2
274
    2
275
    0
276
    0
277
    2
278
   44
279
    0
280
    0
281
    0
282
    0
283
    1
284
    0
285
    0
286
    0
288
    0
289
    3
340
STANDARD
341

371
   -2
372
   -2
  0
ENDTAB
  0
TABLE
  2
BLOCK_RECORD
  5
1
330
0
100
AcDbSymbolTable
 70
    2
  0
BLOCK_RECORD
  5
1F
330
1
100
AcDbSymbolTableRecord
100
AcDbBlockTableRecord
  2
*Model_Space
 70
    0
280
    1
281
    0
  0
BLOCK_RECORD
  5
1E
330
1
100
AcDbSymbolTableRecord
100
AcDbBlockTableRecord
  2
*Paper_Space
 70
    0
280
    1
281
    0
  0
ENDTAB
  0
ENDSEC
  0
SECTION
  2
BLOCKS
  0
BLOCK
  5
20
330
1F
100
AcDbEntity
  8
0
100
AcDbBlockBegin
  2
*Model_Space
 70
    0
 10
0
 20
0
 30
0
  3
*Model_Space
  1

  0
ENDBLK
  5
21
330
1F
100
AcDbEntity
  8
0
100
AcDbBlockEnd
  0
BLOCK
  5
1C
330
1B
100
AcDbEntity
  8
0
100
AcDbBlockBegin
  2
*Paper_Space
 70
    0
 10
0
 20
0
 30
0
  3
*Paper_Space
  1

  0
ENDBLK
  5
1D
330
1F
100
AcDbEntity
  8
0
100
AcDbBlockEnd
  0
ENDSEC
  0
SECTION
  2
ENTITIES
  0
LWPOLYLINE
  5
57
100
AcDbEntity
  8
0
  6
ByLayer
 62
  256
370
   -1
100
AcDbPolyline
 90
    4
 70
    1
 43
0
 10
-113.5117726609315
 20
24.28691944293497
 10
-94.51177266093154
 20
24.28691944293497
 10
-94.51177266093154
 20
43.28691944293497
 10
-113.5117726609315
 20
43.28691944293497
  0
LWPOLYLINE
  5
58
100
AcDbEntity
  8
0
  6
ByLayer
 62
  256
370
   -1
100
AcDbPolyline
 90
    4
 70
    1
 43
0
 10
-94.51177266093154
 20
24.28691944293497
 10
-75.65339577974642
 20
21.97140191823716
 10
-73.33787825504862
 20
40.82977879942229
 10
-92.19625513623373
 20
43.14529632412008
  0
LWPOLYLINE
  5
59
100
AcDbEntity
  8
0
  6
ByLayer
 62
  256
370
   -1
100
AcDbPolyline
 90
    4
 70
    1
 43
0
 10
-75.65339577974642
 20
21.97140191823716
 10
-56.7950188985613
 20
19.65588439353936
 10
-54.4795013738635
 20
38.51426127472448
 10
-73.33787825504862
 20
40.82977879942229
  0
LWPOLYLINE
  5
5A
100
AcDbEntity
  8
0
  6
ByLayer
 62
  256
370
   -1
100
AcDbPolyline
 90
    4
 70
    1
 43
0
 10
-56.7950188985613
 20
19.65588439353936
 10
-37.93664201737617
 20
17.34036686884156
 10
-35.62112449267838
 20
36.19874375002668
 10
-54.47950137386349
 20
38.51426127472448
  0
LWPOLYLINE
  5
5B
100
AcDbEntity
  8
0
  6
ByLayer
 62
  256
370
   -1
100
AcDbPolyline
 90
    4
 70
    1
 43
0
 10
-92.11269596533306
 20
4.849663180575394
 10
-73.25431908414794
 20
2.534145655877591
 10
-70.93880155945014
 20
21.39252253706271
 10
-89.79717844063526
 20
23.70804006176051
  0
LWPOLYLINE
  5
5C
100
AcDbEntity
  8
0
  6
ByLayer
 62
  256
370
   -1
100
AcDbPolyline
 90
    4
 70
    1
 43
0
 10
-73.25431908414794
 20
2.534145655877591
 10
-54.39594220296281
 20
0.2186281311797913
 10
-52.08042467826502
 20
19.07700501236491
 10
-70.93880155945014
 20
21.39252253706271
  0
LWPOLYLINE
  5
5D
100
AcDbEntity
  8
0
  6
ByLayer
 62
  256
370
   -1
100
AcDbPolyline
 90
    4
 70
    1
 43
0
 10
-54.39594220296281
 20
0.2186281311797913
 10
-35.53756532177769
 20
-2.096889393518012
 10
-33.2220477970799
 20
16.76148748766711
 10
-52.08042467826502
 20
19.07700501236491
  0
LWPOLYLINE
  5
5E
100
AcDbEntity
  8
0
  6
ByLayer
 62
  256
370
   -1
100
AcDbPolyline
 90
    4
 70
    1
 43
0
 10
-35.53756532177769
 20
-2.096889393518012
 10
-16.67918844059258
 20
-4.412406918215815
 10
-14.36367091589477
 20
14.44596996296931
 10
-33.2220477970799
 20
16.76148748766711
  0
LWPOLYLINE
  5
5F
100
AcDbEntity
  8
0
  6
ByLayer
 62
  256
370
   -1
100
AcDbPolyline
 90
    4
 70
    1
 43
0
 10
-84.9990250494383
 20
-15.16647246295863
 10
-66.14064816825318
 20
-17.48198998765643
 10
-63.82513064355538
 20
1.376386893528689
 10
-82.68350752474049
 20
3.691904418226493
  0
LWPOLYLINE
  5
60
100
AcDbEntity
  8
0
  6
ByLayer
 62
  256
370
   -1
100
AcDbPolyline
 90
    4
 70
    1
 43
0
 10
-66.14064816825318
 20
-17.48198998765643
 10
-47.28227128706806
 20
-19.79750751235423
 10
-44.96675376237026
 20
-0.9391306311691139
 10
-63.82513064355538
 20
1.376386893528689
  0
LWPOLYLINE
  5
61
100
AcDbEntity
  8
0
  6
ByLayer
 62
  256
370
   -1
100
AcDbPolyline
 90
    4
 70
    1
 43
0
 10
-47.28227128706806
 20
-19.79750751235423
 10
-28.42389440588293
 20
-22.11302503705203
 10
-26.10837688118514
 20
-3.254648155866917
 10
-44.96675376237025
 20
-0.9391306311691139
  0
LWPOLYLINE
  5
62
100
AcDbEntity
  8
0
  6
ByLayer
 62
  256
370
   -1
100
AcDbPolyline
 90
    4
 70
    1
 43
0
 10
-28.42389440588293
 20
-22.11302503705203
 10
-9.56551752469781
 20
-24.42854256174984
 10
-7.25
 20
-5.570165680564717
 10
-26.10837688118514
 20
-3.254648155866914
  0
LWPOLYLINE
  5
63
100
AcDbEntity
  8
0
  6
ByLayer
 62
  256
370
   -1
100
AcDbPolyline
 90
    4
 70
    1
 43
0
 10
-118.2490250494383
 20
3.83352753704137
 10
-84.9990250494383
 20
3.83352753704137
 10
-84.9990250494383
 20
-15.16647246295863
 10
-118.2490250494383
 20
-15.16647246295863
  0
LWPOLYLINE
  5
64
100
AcDbEntity
  8
0
  6
ByLayer
 62
  256
370
   -1
100
AcDbPolyline
 90
    4
 70
    1
 43
0
 10
-115.8626959653331
 20
23.56022348998817
 10
-92.11269596533306
 20
23.56022348998817
 10
-92.11269596533306
 20
4.560223489988168
 10
-115.8626959653331
 20
4.560223489988168
  0
LWPOLYLINE
  5
65
100
AcDbEntity
  8
0
  6
ByLayer
 62
  256
370
   -1
100
AcDbPolyline
 90
    4
 70
    1
 43
0
 10
-115.8626959653331
 20
-15.16647246295863
 10
-92.11269596533306
 20
-15.16647246295863
 10
-92.11269596533306
 20
-34.16647246295863
 10
-115.8626959653331
 20
-34.16647246295863
  0
LWPOLYLINE
  5
66
100
AcDbEntity
  8
0
  6
ByLayer
 62
  256
370
   -1
100
AcDbPolyline
 90
    4
 70
    1
 43
0
 10
-51.99686550736433
 20
-19.21862813117978
 10
-9.565517524697825
 20
-24.42854256174984
 10
-11.88103504939562
 20
-43.28691944293495
 10
-54.31238303206214
 20
-38.0770050123649
  0
LWPOLYLINE
  5
67
100
AcDbEntity
  8
0
  6
ByLayer
 62
  256
370
   -1
100
AcDbPolyline
 90
    4
 70
    1
 43
0
 10
-73.17075991324725
 20
-35.76148748766711
 10
-54.31238303206214
 20
-38.07700501236491
 10
-51.99686550736434
 20
-19.21862813117979
 10
-70.85524238854946
 20
-16.90311060648199
  0
LWPOLYLINE
  5
68
100
AcDbEntity
  8
0
  6
ByLayer
 62
  256
370
   -1
100
AcDbPolyline
 90
    4
 70
    1
 43
0
 10
82.61269596533307
 20
4.849663180575387
 10
63.75431908414794
 20
2.534145655877591
 10
61.43880155945013
 20
21.39252253706271
 10
80.29717844063526
 20
23.70804006176051
  0
LWPOLYLINE
  5
69
100
AcDbEntity
  8
0
  6
ByLayer
 62
  256
370
   -1
100
AcDbPolyline
 90
    4
 70
    1
 43
0
 10
63.75431908414794
 20
2.534145655877591
 10
44.8959422029628
 20
0.2186281311797913
 10
42.58042467826502
 20
19.07700501236491
 10
61.43880155945013
 20
21.39252253706271
  0
LWPOLYLINE
  5
6A
100
AcDbEntity
  8
0
  6
ByLayer
 62
  256
370
   -1
100
AcDbPolyline
 90
    4
 70
    1
 43
0
 10
44.8959422029628
 20
0.2186281311797913
 10
26.03756532177769
 20
-2.096889393518012
 10
23.72204779707991
 20
16.76148748766711
 10
42.58042467826502
 20
19.07700501236491
  0
LWPOLYLINE
  5
6B
100
AcDbEntity
  8
0
  6
ByLayer
 62
  256
370
   -1
100
AcDbPolyline
 90
    4
 70
    1
 43
0
 10
26.03756532177769
 20
-2.096889393518012
 10
7.179188440592583
 20
-4.412406918215815
 10
4.863670915894772
 20
14.44596996296931
 10
23.72204779707991
 20
16.76148748766711
  0
LWPOLYLINE
  5
6C
100
AcDbEntity
  8
0
  6
ByLayer
 62
  256
370
   -1
100
AcDbPolyline
 90
    4
 70
    1
 43
0
 10
75.4990250494383
 20
-15.16647246295863
 10
56.64064816825319
 20
-17.48198998765643
 10
54.32513064355538
 20
1.376386893528689
 10
73.18350752474049
 20
3.691904418226493
  0
LWPOLYLINE
  5
6D
100
AcDbEntity
  8
0
  6
ByLayer
 62
  256
370
   -1
100
AcDbPolyline
 90
    4
 70
    1
 43
0
 10
56.64064816825319
 20
-17.48198998765643
 10
37.78227128706806
 20
-19.79750751235424
 10
35.46675376237025
 20
-0.9391306311691139
 10
54.32513064355538
 20
1.376386893528689
  0
LWPOLYLINE
  5
6E
100
AcDbEntity
  8
0
  6
ByLayer
 62
  256
370
   -1
100
AcDbPolyline
 90
    4
 70
    1
 43
0
 10
37.78227128706806
 20
-19.79750751235424
 10
18.92389440588292
 20
-22.11302503705203
 10
16.60837688118514
 20
-3.254648155866917
 10
35.46675376237025
 20
-0.9391306311691139
  0
LWPOLYLINE
  5
6F
100
AcDbEntity
  8
0
  6
ByLayer
 62
  256
370
   -1
100
AcDbPolyline
 90
    4
 70
    1
 43
0
 10
18.92389440588292
 20
-22.11302503705203
 10
0.06551752469781036
 20
-24.42854256174982
 10
-2.25
 20
-5.570165680564717
 10
16.60837688118514
 20
-3.254648155866914
  0
LWPOLYLINE
  5
70
100
AcDbEntity
  8
0
  6
ByLayer
 62
  256
370
   -1
100
AcDbPolyline
 90
    4
 70
    1
 43
0
 10
75.58258422033896
 20
23.12916068058607
 10
56.72420733915385
 20
20.81364315588826
 10
54.40868981445604
 20
39.67202003707338
 10
73.26706669564115
 20
41.98753756177119
  0
LWPOLYLINE
  5
71
100
AcDbEntity
  8
0
  6
ByLayer
 62
  256
370
   -1
100
AcDbPolyline
 90
    4
 70
    1
 43
0
 10
56.72420733915385
 20
20.81364315588826
 10
37.86583045796871
 20
18.49812563119046
 10
35.5503129332709
 20
37.35650251237558
 10
54.40868981445604
 20
39.67202003707338
  0
LWPOLYLINE
  5
72
100
AcDbEntity
  8
0
  6
ByLayer
 62
  256
370
   -1
100
AcDbPolyline
 90
    4
 70
    1
 43
0
 10
37.86583045796871
 20
18.49812563119046
 10
19.00745357678358
 20
16.18260810649266
 10
16.69193605208579
 20
35.04098498767777
 10
35.5503129332709
 20
37.35650251237558
  0
LWPOLYLINE
  5
73
100
AcDbEntity
  8
0
  6
ByLayer
 62
  256
370
   -1
100
AcDbPolyline
 90
    4
 70
    1
 43
0
 10
19.00745357678358
 20
16.18260810649266
 10
0.1490766955984668
 20
13.86709058179486
 10
-2.166440829099329
 20
32.72546746297998
 10
16.69193605208579
 20
35.04098498767778
  0
LWPOLYLINE
  5
74
100
AcDbEntity
  8
0
  6
ByLayer
 62
  256
370
   -1
100
AcDbPolyline
 90
    4
 70
    1
 43
0
 10
94.5115067697057
 20
23.70804006176051
 10
75.5115067697057
 20
23.70804006176051
 10
75.5115067697057
 20
42.7080400617605
 10
94.5115067697057
 20
42.7080400617605
  0
LWPOLYLINE
  5
75
100
AcDbEntity
  8
0
  6
ByLayer
 62
  256
370
   -1
100
AcDbPolyline
 90
    4
 70
    1
 43
0
 10
113.5115067697057
 20
23.70804006176051
 10
94.5115067697057
 20
23.70804006176051
 10
94.5115067697057
 20
42.7080400617605
 10
113.5115067697057
 20
42.7080400617605
  0
LWPOLYLINE
  5
76
100
AcDbEntity
  8
0
  6
ByLayer
 62
  256
370
   -1
100
AcDbPolyline
 90
    4
 70
    1
 43
0
 10
75.4990250494383
 20
3.833527537041363
 10
99.2490250494383
 20
3.833527537041363
 10
99.2490250494383
 20
-15.16647246295864
 10
75.4990250494383
 20
-15.16647246295864
  0
LWPOLYLINE
  5
77
100
AcDbEntity
  8
0
  6
ByLayer
 62
  256
370
   -1
100
AcDbPolyline
 90
    4
 70
    1
 43
0
 10
118.2490250494383
 20
-15.16647246295864
 10
99.2490250494383
 20
-15.16647246295864
 10
99.2490250494383
 20
3.833527537041352
 10
118.2490250494383
 20
3.833527537041352
  0
LWPOLYLINE
  5
78
100
AcDbEntity
  8
0
  6
ByLayer
 62
  256
370
   -1
100
AcDbPolyline
 90
    4
 70
    1
 43
0
 10
82.61269596533307
 20
23.27078379940094
 10
115.8626959653331
 20
23.27078379940094
 10
115.8626959653331
 20
4.270783799400938
 10
82.61269596533307
 20
4.270783799400938
  0
LWPOLYLINE
  5
79
100
AcDbEntity
  8
0
  6
ByLayer
 62
  256
370
   -1
100
AcDbPolyline
 90
    4
 70
    1
 43
0
 10
92.11269596533307
 20
-15.16647246295864
 10
115.8626959653331
 20
-15.16647246295864
 10
115.8626959653331
 20
-34.16647246295864
 10
92.11269596533307
 20
-34.16647246295864
  0
ARC
  5
7A
100
AcDbEntity
  8
edge
  6
ByLayer
 62
  256
370
   -1
100
AcDbCircle
 10
113.4490250494383
 20
38.48691944293494
 40
5
100
AcDbArc
 50
0
 51
90
  0
LINE
  5
7B
100
AcDbEntity
  8
edge
  6
ByLayer
 62
  256
370
   -1
100
AcDbLine
 10
118.4490250494383
 20
38.48691944293494
 11
118.4490250494383
 21
-38.48691944293497
  0
ARC
  5
7C
100
AcDbEntity
  8
edge
  6
ByLayer
 62
  256
370
   -1
100
AcDbCircle
 10
113.4490250494383
 20
-38.48691944293497
 40
5
100
AcDbArc
 50
270
 51
0
  0
LINE
  5
7D
100
AcDbEntity
  8
edge
  6
ByLayer
 62
  256
370
   -1
100
AcDbLine
 10
113.4490250494383
 20
-43.48691944293497
 11
-113.4490250494383
 21
-43.48691944293494
  0
ARC
  5
7E
100
AcDbEntity
  8
edge
  6
ByLayer
 62
  256
370
   -1
100
AcDbCircle
 10
-113.4490250494383
 20
-38.48691944293494
 40
5
100
AcDbArc
 50
180
 51
270.0000000000002
  0
LINE
  5
7F
100
AcDbEntity
  8
edge
  6
ByLayer
 62
  256
370
   -1
100
AcDbLine
 10
-118.4490250494383
 20
-38.48691944293494
 11
-118.4490250494383
 21
38.48691944293497
  0
LINE
  5
80
100
AcDbEntity
  8
edge
  6
ByLayer
 62
  256
370
   -1
100
AcDbLine
 10
113.4490250494383
 20
43.48691944293495
 11
-113.4490250494383
 21
43.48691944293496
  0
ARC
  5
81
100
AcDbEntity
  8
edge
  6
ByLayer
 62
  256
370
   -1
100
AcDbCircle
 10
-113.4490250494383
 20
38.48691944293496
 40
5
100
AcDbArc
 50
90.00000000000024
 51
180
  0
CIRCLE
  5
82
100
AcDbEntity
  8
percage
  6
ByLayer
 62
  256
370
   -1
100
AcDbCircle
 10
113.4490250494383
 20
38.48691944293494
 40
1.5
  0
CIRCLE
  5
83
100
AcDbEntity
  8
percage
  6
ByLayer
 62
  256
370
   -1
100
AcDbCircle
 10
113.4490250494383
 20
-38.48691944293497
 40
1.5
  0
CIRCLE
  5
84
100
AcDbEntity
  8
percage
  6
ByLayer
 62
  256
370
   -1
100
AcDbCircle
 10
-113.4490250494383
 20
-38.48691944293494
 40
1.5
  0
CIRCLE
  5
85
100
AcDbEntity
  8
percage
  6
ByLayer
 62
  256
370
   -1
100
AcDbCircle
 10
-113.4490250494383
 20
38.48691944293496
 40
1.5
  0
CIRCLE
  5
86
100
AcDbEntity
  8
percage
  6
ByLayer
 62
  256
370
   -1
100
AcDbCircle
 10
-4.75
 20
-24.42854256174983
 40
1.5
  0
LWPOLYLINE
  5
87
100
AcDbEntity
  8
placement
  6
ByLayer
 62
  256
370
   -1
100
AcDbPolyline
 90
    4
 70
    1
 43
0
 10
97.0115067697057
 20
40.2080400617605
 10
111.0115067697057
 20
40.2080400617605
 10
111.0115067697057
 20
26.20804006176051
 10
97.0115067697057
 20
26.20804006176051
  0
LINE
  5
88
100
AcDbEntity
  8
placement
  6
ByLayer
 62
  256
370
   -1
100
AcDbLine
 10
97.01150676970569
 20
40.20804006176051
 11
111.0115067697057
 21
26.20804006176051
  0
LWPOLYLINE
  5
89
100
AcDbEntity
  8
placement
  6
ByLayer
 62
  256
370
   -1
100
AcDbPolyline
 90
    4
 70
    1
 43
0
 10
78.0115067697057
 20
40.2080400617605
 10
92.01150676970572
 20
40.2080400617605
 10
92.01150676970572
 20
26.20804006176051
 10
78.0115067697057
 20
26.20804006176051
  0
LINE
  5
8A
100
AcDbEntity
  8
placement
  6
ByLayer
 62
  256
370
   -1
100
AcDbLine
 10
78.01150676970569
 20
40.20804006176051
 11
92.01150676970572
 21
26.20804006176051
  0
LWPOLYLINE
  5
8B
100
AcDbEntity
  8
placement
  6
ByLayer
 62
  256
370
   -1
100
AcDbPolyline
 90
    4
 70
    1
 43
0
 10
101.7490250494383
 20
1.333527537041352
 10
115.7490250494383
 20
1.333527537041352
 10
115.7490250494383
 20
-12.66647246295864
 10
101.7490250494383
 20
-12.66647246295864
  0
LINE
  5
8C
100
AcDbEntity
  8
placement
  6
ByLayer
 62
  256
370
   -1
100
AcDbLine
 10
101.7490250494383
 20
1.333527537041359
 11
115.7490250494383
 21
-12.66647246295864
  0
LWPOLYLINE
  5
8D
100
AcDbEntity
  8
placement
  6
ByLayer
 62
  256
370
   -1
100
AcDbPolyline
 90
    4
 70
    1
 43
0
 10
-23.9316848605947
 20
-6.040686893483096
 10
-10.03603873761618
 20
-7.746857701155163
 10
-11.74220954528824
 20
-21.64250382413367
 10
-25.63785566826677
 20
-19.9363330164616
  0
LINE
  5
8E
100
AcDbEntity
  8
placement
  6
ByLayer
 62
  256
370
   -1
100
AcDbLine
 10
-23.93168486059471
 20
-6.040686893483088
 11
-11.74220954528824
 21
-21.64250382413367
  0
LWPOLYLINE
  5
8F
100
AcDbEntity
  8
placement
  6
ByLayer
 62
  256
370
   -1
100
AcDbPolyline
 90
    4
 70
    1
 43
0
 10
-31.04535577648946
 20
13.97544875005092
 10
-17.14970965351094
 20
12.26927794237886
 10
-18.855880461183
 20
-1.626368180599645
 10
-32.75152658416152
 20
0.07980262707242147
  0
LINE
  5
90
100
AcDbEntity
  8
placement
  6
ByLayer
 62
  256
370
   -1
100
AcDbLine
 10
-31.04535577648947
 20
13.97544875005093
 11
-18.855880461183
 21
-1.626368180599645
  0
LWPOLYLINE
  5
91
100
AcDbEntity
  8
placement
  6
ByLayer
 62
  256
370
   -1
100
AcDbPolyline
 90
    4
 70
    1
 43
0
 10
-33.44443247208794
 20
33.4127050124105
 10
-19.54878634910942
 20
31.70653420473843
 10
-21.25495715678148
 20
17.81088808175993
 10
-35.15060327976001
 20
19.51705888943199
  0
LINE
  5
92
100
AcDbEntity
  8
placement
  6
ByLayer
 62
  256
370
   -1
100
AcDbLine
 10
-33.44443247208795
 20
33.41270501241051
 11
-21.25495715678148
 21
17.81088808175993
  0
LWPOLYLINE
  5
93
100
AcDbEntity
  8
placement
  6
ByLayer
 62
  256
370
   -1
100
AcDbPolyline
 90
    4
 70
    1
 43
0
 10
-42.79006174177982
 20
-3.725169368785295
 10
-28.89441561880129
 20
-5.431340176457361
 10
-30.60058642647336
 20
-19.32698629943587
 10
-44.49623254945188
 20
-17.6208154917638
  0
LINE
  5
94
100
AcDbEntity
  8
placement
  6
ByLayer
 62
  256
370
   -1
100
AcDbLine
 10
-42.79006174177983
 20
-3.725169368785281
 11
-30.60058642647336
 21
-19.32698629943587
  0
LWPOLYLINE
  5
95
100
AcDbEntity
  8
placement
  6
ByLayer
 62
  256
370
   -1
100
AcDbPolyline
 90
    4
 70
    1
 43
0
 10
-49.90373265767457
 20
16.29096627474873
 10
-36.00808653469605
 20
14.58479546707666
 10
-37.71425734236811
 20
0.689149344098162
 10
-51.60990346534664
 20
2.395320151770228
  0
LINE
  5
96
100
AcDbEntity
  8
placement
  6
ByLayer
 62
  256
370
   -1
100
AcDbLine
 10
-49.90373265767459
 20
16.29096627474874
 11
-37.71425734236811
 21
0.689149344098162
  0
LWPOLYLINE
  5
97
100
AcDbEntity
  8
placement
  6
ByLayer
 62
  256
370
   -1
100
AcDbPolyline
 90
    4
 70
    1
 43
0
 10
-52.30280935327306
 20
35.7282225371083
 10
-38.40716323029453
 20
34.02205172943624
 10
-40.1133340379666
 20
20.12640560645773
 10
-54.00898016094512
 20
21.8325764141298
  0
LINE
  5
98
100
AcDbEntity
  8
placement
  6
ByLayer
 62
  256
370
   -1
100
AcDbLine
 10
-52.30280935327307
 20
35.72822253710831
 11
-40.1133340379666
 21
20.12640560645773
  0
LWPOLYLINE
  5
99
100
AcDbEntity
  8
placement
  6
ByLayer
 62
  256
370
   -1
100
AcDbPolyline
 90
    4
 70
    1
 43
0
 10
-61.64843862296495
 20
-1.409651844087492
 10
-47.75279249998643
 20
-3.115822651759558
 10
-49.45896330765849
 20
-17.01146877473806
 10
-63.35460943063701
 20
-15.305297967066
  0
LINE
  5
9A
100
AcDbEntity
  8
placement
  6
ByLayer
 62
  256
370
   -1
100
AcDbLine
 10
-61.64843862296496
 20
-1.409651844087477
 11
-49.45896330765849
 21
-17.01146877473806
  0
LWPOLYLINE
  5
9B
100
AcDbEntity
  8
placement
  6
ByLayer
 62
  256
370
   -1
100
AcDbPolyline
 90
    4
 70
    1
 43
0
 10
-68.7621095388597
 20
18.60648379944653
 10
-54.86646341588119
 20
16.90031299177446
 10
-56.57263422355324
 20
3.004666868795965
 10
-70.46828034653177
 20
4.710837676468032
  0
LINE
  5
9C
100
AcDbEntity
  8
placement
  6
ByLayer
 62
  256
370
   -1
100
AcDbLine
 10
-68.76210953885972
 20
18.60648379944654
 11
-56.57263422355324
 21
3.004666868795965
  0
LWPOLYLINE
  5
9D
100
AcDbEntity
  8
placement
  6
ByLayer
 62
  256
370
   -1
100
AcDbPolyline
 90
    4
 70
    1
 43
0
 10
-71.16118623445819
 20
38.0437400618061
 10
-57.26554011147967
 20
36.33756925413404
 10
-58.97171091915173
 20
22.44192313115553
 10
-72.86735704213025
 20
24.1480939388276
  0
LINE
  5
9E
100
AcDbEntity
  8
placement
  6
ByLayer
 62
  256
370
   -1
100
AcDbLine
 10
-71.1611862344582
 20
38.04374006180611
 11
-58.97171091915173
 21
22.44192313115553
  0
LWPOLYLINE
  5
9F
100
AcDbEntity
  8
placement
  6
ByLayer
 62
  256
370
   -1
100
AcDbPolyline
 90
    4
 70
    1
 43
0
 10
-80.50681550415007
 20
0.9058656806103045
 10
-66.61116938117155
 20
-0.8003051270617618
 10
-68.31734018884362
 20
-14.69595125004027
 10
-82.21298631182214
 20
-12.9897804423682
  0
LINE
  5
A0
100
AcDbEntity
  8
placement
  6
ByLayer
 62
  256
370
   -1
100
AcDbLine
 10
-80.50681550415008
 20
0.9058656806103187
 11
-68.31734018884362
 21
-14.69595125004027
  0
LWPOLYLINE
  5
A1
100
AcDbEntity
  8
placement
  6
ByLayer
 62
  256
370
   -1
100
AcDbPolyline
 90
    4
 70
    1
 43
0
 10
-87.62048642004483
 20
20.92200132414433
 10
-73.72484029706631
 20
19.21583051647226
 10
-75.43101110473836
 20
5.320184393493761
 10
-89.32665722771689
 20
7.026355201165828
  0
LINE
  5
A2
100
AcDbEntity
  8
placement
  6
ByLayer
 62
  256
370
   -1
100
AcDbLine
 10
-87.62048642004484
 20
20.92200132414434
 11
-75.43101110473836
 21
5.320184393493761
  0
LWPOLYLINE
  5
A3
100
AcDbEntity
  8
placement
  6
ByLayer
 62
  256
370
   -1
100
AcDbPolyline
 90
    4
 70
    1
 43
0
 10
-90.01956311564331
 20
40.3592575865039
 10
-76.12391699266479
 20
38.65308677883183
 10
-77.83008780033686
 20
24.75744065585333
 10
-91.72573392331537
 20
26.4636114635254
  0
LINE
  5
A4
100
AcDbEntity
  8
placement
  6
ByLayer
 62
  256
370
   -1
100
AcDbLine
 10
-90.01956311564332
 20
40.35925758650391
 11
-77.83008780033686
 21
24.75744065585333
  0
LWPOLYLINE
  5
A5
100
AcDbEntity
  8
placement
  6
ByLayer
 62
  256
370
   -1
100
AcDbPolyline
 90
    4
 70
    1
 43
0
 10
14.4316848605947
 20
-6.040686893483096
 10
0.5360387376161775
 20
-7.746857701155163
 10
2.242209545288242
 20
-21.64250382413367
 10
16.13785566826677
 20
-19.9363330164616
  0
LINE
  5
A6
100
AcDbEntity
  8
placement
  6
ByLayer
 62
  256
370
   -1
100
AcDbLine
 10
14.43168486059471
 20
-6.040686893483088
 11
2.242209545288242
 21
-21.64250382413367
  0
LWPOLYLINE
  5
A7
100
AcDbEntity
  8
placement
  6
ByLayer
 62
  256
370
   -1
100
AcDbPolyline
 90
    4
 70
    1
 43
0
 10
21.54535577648946
 20
13.97544875005093
 10
7.649709653510936
 20
12.26927794237886
 10
9.355880461182998
 20
-1.626368180599645
 10
23.25152658416152
 20
0.07980262707242147
  0
LINE
  5
A8
100
AcDbEntity
  8
placement
  6
ByLayer
 62
  256
370
   -1
100
AcDbLine
 10
21.54535577648947
 20
13.97544875005093
 11
9.355880461182998
 21
-1.626368180599645
  0
LWPOLYLINE
  5
A9
100
AcDbEntity
  8
placement
  6
ByLayer
 62
  256
370
   -1
100
AcDbPolyline
 90
    4
 70
    1
 43
0
 10
33.29006174177981
 20
-3.725169368785293
 10
19.39441561880129
 20
-5.431340176457359
 10
21.10058642647335
 20
-19.32698629943586
 10
34.99623254945188
 20
-17.6208154917638
  0
LINE
  5
AA
100
AcDbEntity
  8
placement
  6
ByLayer
 62
  256
370
   -1
100
AcDbLine
 10
33.29006174177982
 20
-3.725169368785284
 11
21.10058642647335
 21
-19.32698629943586
  0
LWPOLYLINE
  5
AB
100
AcDbEntity
  8
placement
  6
ByLayer
 62
  256
370
   -1
100
AcDbPolyline
 90
    4
 70
    1
 43
0
 10
14.51524403149536
 20
32.25494625006159
 10
0.6195979085168339
 20
30.54877544238952
 10
2.325768716188898
 20
16.65312931941102
 10
16.22141483916742
 20
18.35930012708308
  0
LINE
  5
AC
100
AcDbEntity
  8
placement
  6
ByLayer
 62
  256
370
   -1
100
AcDbLine
 10
14.51524403149537
 20
32.2549462500616
 11
2.325768716188898
 21
16.65312931941102
  0
LWPOLYLINE
  5
AD
100
AcDbEntity
  8
placement
  6
ByLayer
 62
  256
370
   -1
100
AcDbPolyline
 90
    4
 70
    1
 43
0
 10
33.37362091268047
 20
34.5704637747594
 10
19.47797478970194
 20
32.86429296708734
 10
21.18414559737401
 20
18.96864684410884
 10
35.07979172035253
 20
20.6748176517809
  0
LINE
  5
AE
100
AcDbEntity
  8
placement
  6
ByLayer
 62
  256
370
   -1
100
AcDbLine
 10
33.37362091268048
 20
34.57046377475942
 11
21.18414559737401
 21
18.96864684410884
  0
LWPOLYLINE
  5
AF
100
AcDbEntity
  8
placement
  6
ByLayer
 62
  256
370
   -1
100
AcDbPolyline
 90
    4
 70
    1
 43
0
 10
40.40373265767458
 20
16.29096627474873
 10
26.50808653469606
 20
14.58479546707667
 10
28.21425734236812
 20
0.689149344098162
 10
42.10990346534665
 20
2.395320151770228
  0
LINE
  5
B0
100
AcDbEntity
  8
placement
  6
ByLayer
 62
  256
370
   -1
100
AcDbLine
 10
40.4037326576746
 20
16.29096627474874
 11
28.21425734236812
 21
0.689149344098162
  0
LWPOLYLINE
  5
B1
100
AcDbEntity
  8
placement
  6
ByLayer
 62
  256
370
   -1
100
AcDbPolyline
 90
    4
 70
    1
 43
0
 10
52.2319977938656
 20
36.88598129945721
 10
38.33635167088708
 20
35.17981049178514
 10
40.04252247855914
 20
21.28416436880664
 10
53.93816860153767
 20
22.99033517647871
  0
LINE
  5
B2
100
AcDbEntity
  8
placement
  6
ByLayer
 62
  256
370
   -1
100
AcDbLine
 10
52.23199779386562
 20
36.88598129945722
 11
40.04252247855914
 21
21.28416436880664
  0
LWPOLYLINE
  5
B3
100
AcDbEntity
  8
placement
  6
ByLayer
 62
  256
370
   -1
100
AcDbPolyline
 90
    4
 70
    1
 43
0
 10
59.26210953885969
 20
18.60648379944654
 10
45.36646341588117
 20
16.90031299177447
 10
47.07263422355323
 20
3.004666868795965
 10
60.96828034653176
 20
4.710837676468032
  0
LINE
  5
B4
100
AcDbEntity
  8
placement
  6
ByLayer
 62
  256
370
   -1
100
AcDbLine
 10
59.2621095388597
 20
18.60648379944654
 11
47.07263422355323
 21
3.004666868795965
  0
LWPOLYLINE
  5
B5
100
AcDbEntity
  8
placement
  6
ByLayer
 62
  256
370
   -1
100
AcDbPolyline
 90
    4
 70
    1
 43
0
 10
71.09037467505071
 20
39.20149882415502
 10
57.19472855207219
 20
37.49532801648295
 10
58.90089935974425
 20
23.59968189350445
 10
72.79654548272278
 20
25.30585270117652
  0
LINE
  5
B6
100
AcDbEntity
  8
placement
  6
ByLayer
 62
  256
370
   -1
100
AcDbLine
 10
71.09037467505073
 20
39.20149882415503
 11
58.90089935974425
 21
23.59968189350445
  0
LWPOLYLINE
  5
B7
100
AcDbEntity
  8
placement
  6
ByLayer
 62
  256
370
   -1
100
AcDbPolyline
 90
    4
 70
    1
 43
0
 10
78.12048642004483
 20
20.92200132414434
 10
64.22484029706631
 20
19.21583051647227
 10
65.93101110473837
 20
5.320184393493765
 10
79.82665722771689
 20
7.026355201165831
  0
LINE
  5
B8
100
AcDbEntity
  8
placement
  6
ByLayer
 62
  256
370
   -1
100
AcDbLine
 10
78.12048642004484
 20
20.92200132414434
 11
65.93101110473837
 21
5.320184393493765
  0
LWPOLYLINE
  5
B9
100
AcDbEntity
  8
placement
  6
ByLayer
 62
  256
370
   -1
100
AcDbPolyline
 90
    4
 70
    1
 43
0
 10
71.00681550415007
 20
0.9058656806103103
 10
57.11116938117155
 20
-0.8003051270617565
 10
58.81734018884361
 20
-14.69595125004026
 10
72.71298631182214
 20
-12.98978044236819
  0
LINE
  5
BA
100
AcDbEntity
  8
placement
  6
ByLayer
 62
  256
370
   -1
100
AcDbLine
 10
71.00681550415008
 20
0.9058656806103191
 11
58.81734018884361
 21
-14.69595125004026
  0
LWPOLYLINE
  5
BB
100
AcDbEntity
  8
placement
  6
ByLayer
 62
  256
370
   -1
100
AcDbPolyline
 90
    4
 70
    1
 43
0
 10
52.14843862296495
 20
-1.409651844087486
 10
38.25279249998643
 20
-3.115822651759553
 10
39.95896330765849
 20
-17.01146877473806
 10
53.85460943063701
 20
-15.30529796706599
  0
LINE
  5
BC
100
AcDbEntity
  8
placement
  6
ByLayer
 62
  256
370
   -1
100
AcDbLine
 10
52.14843862296496
 20
-1.409651844087477
 11
39.95896330765849
 21
-17.01146877473806
  0
LWPOLYLINE
  5
BD
100
AcDbEntity
  8
placement
  6
ByLayer
 62
  256
370
   -1
100
AcDbPolyline
 90
    4
 70
    1
 43
0
 10
-111.0117726609316
 20
40.78691944293497
 10
-97.01177266093154
 20
40.78691944293497
 10
-97.01177266093154
 20
26.78691944293497
 10
-111.0117726609316
 20
26.78691944293497
  0
LINE
  5
BE
100
AcDbEntity
  8
placement
  6
ByLayer
 62
  256
370
   -1
100
AcDbLine
 10
-111.0117726609316
 20
40.78691944293497
 11
-97.01177266093154
 21
26.78691944293497
  0
LWPOLYLINE
  5
BF
100
AcDbEntity
  8
0
  6
ByLayer
 62
  256
370
   -1
100
AcDbPolyline
 90
    4
 70
    1
 43
0
 10
37.78227128706805
 20
-19.79750751235422
 10
0.06551752469781036
 20
-24.42854256174982
 10
2.381035049395612
 20
-43.28691944293494
 10
40.09778881176585
 20
-38.65588439353934
  0
LWPOLYLINE
  5
C0
100
AcDbEntity
  8
0
  6
ByLayer
 62
  256
370
   -1
100
AcDbPolyline
 90
    4
 70
    1
 43
0
 10
37.78227128706805
 20
-19.79750751235422
 10
61.35524238854944
 20
-16.90311060648197
 10
63.67075991324725
 20
-35.76148748766708
 10
40.09778881176585
 20
-38.65588439353934
  0
LWPOLYLINE
  5
C1
100
AcDbEntity
  8
placement
  6
ByLayer
 62
  256
370
   -1
100
AcDbPolyline
 90
    4
 70
    1
 43
0
 10
80.3740250494383
 20
1.333527537041356
 10
94.37402504943832
 20
1.333527537041356
 10
94.37402504943832
 20
-12.66647246295864
 10
80.3740250494383
 20
-12.66647246295864
  0
LINE
  5
C2
100
AcDbEntity
  8
placement
  6
ByLayer
 62
  256
370
   -1
100
AcDbLine
 10
80.37402504943829
 20
1.333527537041363
 11
94.37402504943832
 21
-12.66647246295864
  0
LWPOLYLINE
  5
C3
100
AcDbEntity
  8
placement
  6
ByLayer
 62
  256
370
   -1
100
AcDbPolyline
 90
    4
 70
    1
 43
0
 10
96.98769596533307
 20
-17.66647246295864
 10
110.9876959653331
 20
-17.66647246295864
 10
110.9876959653331
 20
-31.66647246295864
 10
96.98769596533307
 20
-31.66647246295864
  0
LINE
  5
C4
100
AcDbEntity
  8
placement
  6
ByLayer
 62
  256
370
   -1
100
AcDbLine
 10
96.98769596533306
 20
-17.66647246295864
 11
110.9876959653331
 21
-31.66647246295864
  0
LWPOLYLINE
  5
C5
100
AcDbEntity
  8
placement
  6
ByLayer
 62
  256
370
   -1
100
AcDbPolyline
 90
    4
 70
    1
 43
0
 10
-110.9876959653331
 20
-17.66647246295864
 10
-96.98769596533305
 20
-17.66647246295864
 10
-96.98769596533305
 20
-31.66647246295863
 10
-110.9876959653331
 20
-31.66647246295863
  0
LINE
  5
C6
100
AcDbEntity
  8
placement
  6
ByLayer
 62
  256
370
   -1
100
AcDbLine
 10
-110.9876959653331
 20
-17.66647246295863
 11
-96.98769596533305
 21
-31.66647246295863
  0
LWPOLYLINE
  5
C7
100
AcDbEntity
  8
placement
  6
ByLayer
 62
  256
370
   -1
100
AcDbPolyline
 90
    4
 70
    1
 43
0
 10
-110.9876959653331
 20
21.06022348998816
 10
-96.98769596533305
 20
21.06022348998816
 10
-96.98769596533305
 20
7.060223489988168
 10
-110.9876959653331
 20
7.060223489988168
  0
LINE
  5
C8
100
AcDbEntity
  8
placement
  6
ByLayer
 62
  256
370
   -1
100
AcDbLine
 10
-110.9876959653331
 20
21.06022348998817
 11
-96.98769596533305
 21
7.060223489988168
  0
LWPOLYLINE
  5
C9
100
AcDbEntity
  8
placement
  6
ByLayer
 62
  256
370
   -1
100
AcDbPolyline
 90
    4
 70
    1
 43
0
 10
-108.6240250494383
 20
1.33352753704137
 10
-94.62402504943829
 20
1.33352753704137
 10
-94.62402504943829
 20
-12.66647246295862
 10
-108.6240250494383
 20
-12.66647246295862
  0
LINE
  5
CA
100
AcDbEntity
  8
placement
  6
ByLayer
 62
  256
370
   -1
100
AcDbLine
 10
-108.6240250494383
 20
1.333527537041377
 11
-94.62402504943829
 21
-12.66647246295862
  0
LWPOLYLINE
  5
CB
100
AcDbEntity
  8
placement
  6
ByLayer
 62
  256
370
   -1
100
AcDbPolyline
 90
    4
 70
    1
 43
0
 10
92.23769596533307
 20
20.77078379940093
 10
106.2376959653331
 20
20.77078379940093
 10
106.2376959653331
 20
6.770783799400938
 10
92.23769596533307
 20
6.770783799400938
  0
LINE
  5
CC
100
AcDbEntity
  8
placement
  6
ByLayer
 62
  256
370
   -1
100
AcDbLine
 10
92.23769596533306
 20
20.77078379940094
 11
106.2376959653331
 21
6.770783799400938
  0
LWPOLYLINE
  5
CD
100
AcDbEntity
  8
placement
  6
ByLayer
 62
  256
370
   -1
100
AcDbPolyline
 90
    4
 70
    1
 43
0
 10
56.82125325781087
 20
-19.97858903468538
 10
42.92560713483235
 20
-21.68475984235745
 10
44.63177794250441
 20
-35.58040596533596
 10
58.52742406548293
 20
-33.87423515766389
  0
LINE
  5
CE
100
AcDbEntity
  8
placement
  6
ByLayer
 62
  256
370
   -1
100
AcDbLine
 10
56.82125325781088
 20
-19.97858903468537
 11
44.63177794250441
 21
-35.58040596533596
  0
LWPOLYLINE
  5
CF
100
AcDbEntity
  8
placement
  6
ByLayer
 62
  256
370
   -1
100
AcDbPolyline
 90
    4
 70
    1
 43
0
 10
26.17639082588506
 20
-23.7413050123193
 10
12.28074470290654
 20
-25.44747581999137
 10
13.9869155105786
 20
-39.34312194296987
 10
27.88256163355713
 20
-37.63695113529781
  0
LINE
  5
D0
100
AcDbEntity
  8
placement
  6
ByLayer
 62
  256
370
   -1
100
AcDbLine
 10
26.17639082588508
 20
-23.74130501231929
 11
13.9869155105786
 21
-39.34312194296987
  0
LWPOLYLINE
  5
D1
100
AcDbEntity
  8
placement
  6
ByLayer
 62
  256
370
   -1
100
AcDbPolyline
 90
    4
 70
    1
 43
0
 10
-38.0336879360332
 20
-23.45186532173209
 10
-24.13804181305468
 20
-25.15803612940416
 10
-25.84421262072674
 20
-39.05368225238266
 10
-39.73985874370527
 20
-37.3475114447106
  0
LINE
  5
D2
100
AcDbEntity
  8
placement
  6
ByLayer
 62
  256
370
   -1
100
AcDbLine
 10
-38.03368793603322
 20
-23.45186532173208
 11
-25.84421262072674
 21
-39.05368225238266
  0
LWPOLYLINE
  5
D3
100
AcDbEntity
  8
placement
  6
ByLayer
 62
  256
370
   -1
100
AcDbPolyline
 90
    4
 70
    1
 43
0
 10
-68.67855036795902
 20
-19.68914934409817
 10
-54.7829042449805
 20
-21.39532015177024
 10
-56.48907505265256
 20
-35.29096627474874
 10
-70.38472117563109
 20
-33.58479546707667
  0
LINE
  5
D4
100
AcDbEntity
  8
placement
  6
ByLayer
 62
  256
370
   -1
100
AcDbLine
 10
-68.67855036795903
 20
-19.68914934409816
 11
-56.48907505265256
 21
-35.29096627474874
  0
CIRCLE
  5
D5
100
AcDbEntity
  8
rpi
  6
ByLayer
 62
  256
370
   -1
100
AcDbCircle
 10
-14.91000000000001
 20
15.11314229884484
 40
0.5
  0
CIRCLE
  5
D6
100
AcDbEntity
  8
rpi
  6
ByLayer
 62
  256
370
   -1
100
AcDbCircle
 10
-14.91000000000001
 20
12.57314229884484
 40
0.5
  0
CIRCLE
  5
D7
100
AcDbEntity
  8
rpi
  6
ByLayer
 62
  256
370
   -1
100
AcDbCircle
 10
-14.91000000000001
 20
10.03314229884484
 40
0.5
  0
CIRCLE
  5
D8
100
AcDbEntity
  8
rpi
  6
ByLayer
 62
  256
370
   -1
100
AcDbCircle
 10
-14.91000000000001
 20
7.493142298844838
 40
0.5
  0
CIRCLE
  5
D9
100
AcDbEntity
  8
rpi
  6
ByLayer
 62
  256
370
   -1
100
AcDbCircle
 10
-14.91000000000001
 20
4.953142298844838
 40
0.5
  0
CIRCLE
  5
DA
100
AcDbEntity
  8
rpi
  6
ByLayer
 62
  256
370
   -1
100
AcDbCircle
 10
-14.91000000000001
 20
2.413142298844838
 40
0.5
  0
CIRCLE
  5
DB
100
AcDbEntity
  8
rpi
  6
ByLayer
 62
  256
370
   -1
100
AcDbCircle
 10
-14.91000000000001
 20
-0.1268577011551622
 40
0.5
  0
CIRCLE
  5
DC
100
AcDbEntity
  8
rpi
  6
ByLayer
 62
  256
370
   -1
100
AcDbCircle
 10
-14.91000000000001
 20
-2.666857701155162
 40
0.5
  0
CIRCLE
  5
DD
100
AcDbEntity
  8
rpi
  6
ByLayer
 62
  256
370
   -1
100
AcDbCircle
 10
-14.91000000000001
 20
-5.206857701155162
 40
0.5
  0
CIRCLE
  5
DE
100
AcDbEntity
  8
rpi
  6
ByLayer
 62
  256
370
   -1
100
AcDbCircle
 10
-12.37
 20
-5.206857701155162
 40
0.5
  0
CIRCLE
  5
DF
100
AcDbEntity
  8
rpi
  6
ByLayer
 62
  256
370
   -1
100
AcDbCircle
 10
-9.830000000000004
 20
-5.206857701155163
 40
0.5
  0
CIRCLE
  5
E0
100
AcDbEntity
  8
rpi
  6
ByLayer
 62
  256
370
   -1
100
AcDbCircle
 10
-7.290000000000005
 20
-5.206857701155163
 40
0.5
  0
CIRCLE
  5
E1
100
AcDbEntity
  8
rpi
  6
ByLayer
 62
  256
370
   -1
100
AcDbCircle
 10
-4.750000000000004
 20
-5.206857701155163
 40
0.5
  0
CIRCLE
  5
E2
100
AcDbEntity
  8
rpi
  6
ByLayer
 62
  256
370
   -1
100
AcDbCircle
 10
-2.210000000000006
 20
-5.206857701155164
 40
0.5
  0
CIRCLE
  5
E3
100
AcDbEntity
  8
rpi
  6
ByLayer
 62
  256
370
   -1
100
AcDbCircle
 10
0.3299999999999944
 20
-5.206857701155164
 40
0.5
  0
CIRCLE
  5
E4
100
AcDbEntity
  8
rpi
  6
ByLayer
 62
  256
370
   -1
100
AcDbCircle
 10
0.3299999999999946
 20
-2.666857701155164
 40
0.5
  0
CIRCLE
  5
E5
100
AcDbEntity
  8
rpi
  6
ByLayer
 62
  256
370
   -1
100
AcDbCircle
 10
0.3299999999999947
 20
-0.126857701155164
 40
0.5
  0
CIRCLE
  5
E6
100
AcDbEntity
  8
rpi
  6
ByLayer
 62
  256
370
   -1
100
AcDbCircle
 10
0.3299999999999949
 20
2.413142298844836
 40
0.5
  0
CIRCLE
  5
E7
100
AcDbEntity
  8
rpi
  6
ByLayer
 62
  256
370
   -1
100
AcDbCircle
 10
0.3299999999999951
 20
4.953142298844837
 40
0.5
  0
CIRCLE
  5
E8
100
AcDbEntity
  8
rpi
  6
ByLayer
 62
  256
370
   -1
100
AcDbCircle
 10
0.3299999999999952
 20
7.493142298844837
 40
0.5
  0
CIRCLE
  5
E9
100
AcDbEntity
  8
rpi
  6
ByLayer
 62
  256
370
   -1
100
AcDbCircle
 10
0.3299999999999954
 20
10.03314229884484
 40
0.5
  0
CIRCLE
  5
EA
100
AcDbEntity
  8
rpi
  6
ByLayer
 62
  256
370
   -1
100
AcDbCircle
 10
0.3299999999999956
 20
12.57314229884484
 40
0.5
  0
CIRCLE
  5
EB
100
AcDbEntity
  8
rpi
  6
ByLayer
 62
  256
370
   -1
100
AcDbCircle
 10
0.3299999999999957
 20
15.11314229884484
 40
0.5
  0
LWPOLYLINE
  5
EC
100
AcDbEntity
  8
rpi
  6
ByLayer
 62
  256
370
   -1
100
AcDbPolyline
 90
    4
 70
    1
 43
0
 10
-16.18000000000001
 20
16.38314229884484
 10
1.599999999999994
 20
16.38314229884484
 10
1.599999999999994
 20
-6.476857701155163
 10
-16.18000000000001
 20
-6.476857701155163
  0
LINE
  5
ED
100
AcDbEntity
  8
placement
  6
ByLayer
 62
  256
370
   -1
100
AcDbLine
 10
-74.85244934541289
 20
24.3918326256379
 11
-73.14627853774083
 21
38.2874787486164
  0
LINE
  5
EE
100
AcDbEntity
  8
placement
  6
ByLayer
 62
  256
370
   -1
100
AcDbLine
 10
-55.99407246422776
 20
22.07631510094009
 11
-54.2879016565557
 21
35.9719612239186
  0
LINE
  5
EF
100
AcDbEntity
  8
placement
  6
ByLayer
 62
  256
370
   -1
100
AcDbLine
 10
-37.13569558304265
 20
19.76079757624229
 11
-35.42952477537058
 21
33.65644369922079
  0
LINE
  5
F0
100
AcDbEntity
  8
placement
  6
ByLayer
 62
  256
370
   -1
100
AcDbLine
 10
-94.98769596533305
 20
21.06022348998816
 11
-94.98769596533305
 21
7.060223489988167
  0
LINE
  5
F1
100
AcDbEntity
  8
placement
  6
ByLayer
 62
  256
370
   -1
100
AcDbLine
 10
-91.31174953099953
 20
7.270093887976124
 11
-89.60557872332747
 21
21.16574001095462
  0
LINE
  5
F2
100
AcDbEntity
  8
placement
  6
ByLayer
 62
  256
370
   -1
100
AcDbLine
 10
-92.62402504943829
 20
1.333527537041369
 11
-92.62402504943829
 21
-12.66647246295862
  0
LINE
  5
F3
100
AcDbEntity
  8
placement
  6
ByLayer
 62
  256
370
   -1
100
AcDbLine
 10
-84.19807861510478
 20
-12.7460417555579
 11
-82.49190780743271
 21
1.1496043674206
  0
LINE
  5
F4
100
AcDbEntity
  8
placement
  6
ByLayer
 62
  256
370
   -1
100
AcDbLine
 10
-72.45337264981441
 20
4.954576363278328
 11
-70.74720184214235
 21
18.85022248625683
  0
LINE
  5
F5
100
AcDbEntity
  8
placement
  6
ByLayer
 62
  256
370
   -1
100
AcDbLine
 10
-53.59499576862928
 20
2.639058838580524
 11
-51.88882496095722
 21
16.53470496155902
  0
LINE
  5
F6
100
AcDbEntity
  8
placement
  6
ByLayer
 62
  256
370
   -1
100
AcDbLine
 10
-34.73661888744417
 20
0.3235413138827175
 11
-33.0304480797721
 21
14.21918743686122
  0
LINE
  5
F7
100
AcDbEntity
  8
placement
  6
ByLayer
 62
  256
370
   -1
100
AcDbLine
 10
-46.48132485273452
 20
-17.3770768049535
 11
-44.77515404506246
 21
-3.481430681974999
  0
LINE
  5
F8
100
AcDbEntity
  8
placement
  6
ByLayer
 62
  256
370
   -1
100
AcDbLine
 10
-65.33970173391965
 20
-15.0615592802557
 11
-63.63353092624759
 21
-1.165913157277196
  0
LINE
  5
F9
100
AcDbEntity
  8
placement
  6
ByLayer
 62
  256
370
   -1
100
AcDbLine
 10
-27.62294797154941
 20
-19.6925943296513
 11
-25.91677716387735
 21
-5.7969482066728
  0
LINE
  5
FA
100
AcDbEntity
  8
placement
  6
ByLayer
 62
  256
370
   -1
100
AcDbLine
 10
-72.36981347891373
 20
-33.34105678026638
 11
-70.66364267124166
 21
-19.44541065728788
  0
LINE
  5
FB
100
AcDbEntity
  8
placement
  6
ByLayer
 62
  256
370
   -1
100
AcDbLine
 10
-94.98769596533305
 20
-17.66647246295864
 11
-94.98769596533305
 21
-31.66647246295863
  0
LINE
  5
FC
100
AcDbEntity
  8
placement
  6
ByLayer
 62
  256
370
   -1
100
AcDbLine
 10
-52.79781194169786
 20
-21.63905883858054
 11
-54.50398274936992
 21
-35.53470496155904
  0
LINE
  5
FD
100
AcDbEntity
  8
placement
  6
ByLayer
 62
  256
370
   -1
100
AcDbLine
 10
18.12294797154941
 20
-19.6925943296513
 11
16.41677716387735
 21
-5.796948206672801
  0
LINE
  5
FE
100
AcDbEntity
  8
placement
  6
ByLayer
 62
  256
370
   -1
100
AcDbLine
 10
40.94051483154971
 20
-21.92849852916774
 11
42.64668563922177
 21
-35.82414465214625
  0
LINE
  5
FF
100
AcDbEntity
  8
placement
  6
ByLayer
 62
  256
370
   -1
100
AcDbLine
 10
60.51251636876557
 20
-33.63049647085359
 11
58.80634556109351
 21
-19.73485034787508
  0
LINE
  5
100
100
AcDbEntity
  8
placement
  6
ByLayer
 62
  256
370
   -1
100
AcDbLine
 10
94.98769596533307
 20
-31.66647246295864
 11
94.98769596533307
 21
-17.66647246295864
  0
LINE
  5
101
100
AcDbEntity
  8
placement
  6
ByLayer
 62
  256
370
   -1
100
AcDbLine
 10
99.7490250494383
 20
-12.66647246295864
 11
99.7490250494383
 21
1.333527537041352
  0
LINE
  5
102
100
AcDbEntity
  8
placement
  6
ByLayer
 62
  256
370
   -1
100
AcDbLine
 10
96.37402504943832
 20
1.333527537041355
 11
96.37402504943832
 21
-12.66647246295864
  0
LINE
  5
103
100
AcDbEntity
  8
placement
  6
ByLayer
 62
  256
370
   -1
100
AcDbLine
 10
74.69807861510478
 20
-12.7460417555579
 11
72.99190780743271
 21
1.149604367420606
  0
LINE
  5
104
100
AcDbEntity
  8
placement
  6
ByLayer
 62
  256
370
   -1
100
AcDbLine
 10
55.83970173391965
 20
-15.0615592802557
 11
54.13353092624759
 21
-1.16591315727719
  0
LINE
  5
105
100
AcDbEntity
  8
placement
  6
ByLayer
 62
  256
370
   -1
100
AcDbLine
 10
36.98132485273452
 20
-17.3770768049535
 11
35.27515404506245
 21
-3.481430681974997
  0
LINE
  5
106
100
AcDbEntity
  8
placement
  6
ByLayer
 62
  256
370
   -1
100
AcDbLine
 10
90.23769596533307
 20
6.770783799400938
 11
90.23769596533307
 21
20.77078379940093
  0
LINE
  5
107
100
AcDbEntity
  8
placement
  6
ByLayer
 62
  256
370
   -1
100
AcDbLine
 10
81.81174953099953
 20
7.270093887976127
 11
80.10557872332747
 21
21.16574001095463
  0
LINE
  5
108
100
AcDbEntity
  8
placement
  6
ByLayer
 62
  256
370
   -1
100
AcDbLine
 10
62.9533726498144
 20
4.954576363278327
 11
61.24720184214233
 21
18.85022248625683
  0
LINE
  5
109
100
AcDbEntity
  8
placement
  6
ByLayer
 62
  256
370
   -1
100
AcDbLine
 10
44.09499576862929
 20
2.639058838580524
 11
42.38882496095722
 21
16.53470496155903
  0
LINE
  5
10A
100
AcDbEntity
  8
placement
  6
ByLayer
 62
  256
370
   -1
100
AcDbLine
 10
25.23661888744417
 20
0.3235413138827167
 11
23.5304480797721
 21
14.21918743686122
  0
LINE
  5
10B
100
AcDbEntity
  8
placement
  6
ByLayer
 62
  256
370
   -1
100
AcDbLine
 10
18.20650714245007
 20
18.60303881389338
 11
16.500336334778
 21
32.49868493687188
  0
LINE
  5
10C
100
AcDbEntity
  8
placement
  6
ByLayer
 62
  256
370
   -1
100
AcDbLine
 10
37.06488402363517
 20
20.9185563385912
 11
35.35871321596311
 21
34.8142024615697
  0
LINE
  5
10D
100
AcDbEntity
  8
placement
  6
ByLayer
 62
  256
370
   -1
100
AcDbLine
 10
55.92326090482031
 20
23.234073863289
 11
54.21709009714824
 21
37.1297199862675
  0
LINE
  5
10E
100
AcDbEntity
  8
placement
  6
ByLayer
 62
  256
370
   -1
100
AcDbLine
 10
95.0115067697057
 20
26.20804006176051
 11
95.0115067697057
 21
40.2080400617605
  0
ARC
  5
10F
100
AcDbEntity
  8
int
  6
ByLayer
 62
  256
370
   -1
100
AcDbCircle
 10
-105.1876692285091
 20
36.48691944293496
 40
5
100
AcDbArc
 50
89.99999999999969
 51
166.3910393692172
  0
ARC
  5
110
100
AcDbEntity
  8
int
  6
ByLayer
 62
  256
370
   -1
100
AcDbCircle
 10
-113.4490250494383
 20
38.48691944293496
 40
3.5
100
AcDbArc
 50
283.6089606307827
 51
346.3910393692173
  0
ARC
  5
111
100
AcDbEntity
  8
int
  6
ByLayer
 62
  256
370
   -1
100
AcDbCircle
 10
-111.4490250494383
 20
30.22556362200582
 40
5
100
AcDbArc
 50
103.6089606307829
 51
180.0000000000001
  0
ARC
  5
112
100
AcDbEntity
  8
int
  6
ByLayer
 62
  256
370
   -1
100
AcDbCircle
 10
-105.1876692285094
 20
-36.48691944293494
 40
5
100
AcDbArc
 50
193.6089606307835
 51
269.9999999999998
  0
LINE
  5
113
100
AcDbEntity
  8
int
  6
ByLayer
 62
  256
370
   -1
100
AcDbLine
 10
-116.4490250494383
 20
-30.22556362200572
 11
-116.4490250494383
 21
30.22556362200582
  0
ARC
  5
114
100
AcDbEntity
  8
int
  6
ByLayer
 62
  256
370
   -1
100
AcDbCircle
 10
-113.4490250494383
 20
-38.48691944293494
 40
3.5
100
AcDbArc
 50
13.60896063078331
 51
76.39103936921725
  0
ARC
  5
115
100
AcDbEntity
  8
int
  6
ByLayer
 62
  256
370
   -1
100
AcDbCircle
 10
-111.4490250494383
 20
-30.22556362200572
 40
5
100
AcDbArc
 50
180
 51
256.3910393692173
  0
ARC
  5
116
100
AcDbEntity
  8
int
  6
ByLayer
 62
  256
370
   -1
100
AcDbCircle
 10
111.4490250494383
 20
-30.22556362200559
 40
5
100
AcDbArc
 50
283.6089606307827
 51
0
  0
ARC
  5
117
100
AcDbEntity
  8
int
  6
ByLayer
 62
  256
370
   -1
100
AcDbCircle
 10
113.4490250494383
 20
-38.48691944293497
 40
3.5
100
AcDbArc
 50
103.6089606307828
 51
166.3910393692173
  0
ARC
  5
118
100
AcDbEntity
  8
int
  6
ByLayer
 62
  256
370
   -1
100
AcDbCircle
 10
105.1876692285091
 20
-36.48691944293498
 40
5
100
AcDbArc
 50
270
 51
346.3910393692173
  0
LINE
  5
119
100
AcDbEntity
  8
int
  6
ByLayer
 62
  256
370
   -1
100
AcDbLine
 10
116.4490250494383
 20
30.22556362200546
 11
116.4490250494383
 21
-30.22556362200559
  0
ARC
  5
11A
100
AcDbEntity
  8
int
  6
ByLayer
 62
  256
370
   -1
100
AcDbCircle
 10
111.4490250494383
 20
30.22556362200546
 40
5
100
AcDbArc
 50
0
 51
76.39103936921768
  0
ARC
  5
11B
100
AcDbEntity
  8
int
  6
ByLayer
 62
  256
370
   -1
100
AcDbCircle
 10
113.4490250494383
 20
38.48691944293494
 40
3.5
100
AcDbArc
 50
193.6089606307822
 51
256.3910393692175
  0
ARC
  5
11C
100
AcDbEntity
  8
int
  6
ByLayer
 62
  256
370
   -1
100
AcDbCircle
 10
105.1876692285087
 20
36.48691944293493
 40
5
100
AcDbArc
 50
13.60896063078219
 51
90
  0
ARC
  5
11D
100
AcDbEntity
  8
int
  6
ByLayer
 62
  256
370
   -1
100
AcDbCircle
 10
-4.75
 20
-24.42854256174983
 40
5.5
100
AcDbArc
 50
6.999999999999972
 51
173.000002318699
  0
ARC
  5
11E
100
AcDbEntity
  8
int
  6
ByLayer
 62
  256
370
   -1
100
AcDbCircle
 10
-16.80943567787596
 20
-36.48691944293495
 40
5
100
AcDbArc
 50
270
 51
353
  0
ARC
  5
11F
100
AcDbEntity
  8
int
  6
ByLayer
 62
  256
370
   -1
100
AcDbCircle
 10
7.30943567787596
 20
-36.48691944293495
 40
5
100
AcDbArc
 50
187
 51
270.0000000000001
  0
LINE
  5
120
100
AcDbEntity
  8
int
  6
ByLayer
 62
  256
370
   -1
100
AcDbLine
 10
-10.20900386115284
 20
-23.75826139394157
 11
-11.84670491966935
 21
-37.09626615996069
  0
LINE
  5
121
100
AcDbEntity
  8
int
  6
ByLayer
 62
  256
370
   -1
100
AcDbLine
 10
0.7090038340272713
 20
-23.75826117302152
 11
2.346704919669349
 21
-37.09626615996069
  0
LWPOLYLINE
  5
122
100
AcDbEntity
  8
0
  6
ByLayer
 62
  256
370
   -1
100
AcDbPolyline
 90
    4
 70
    1
 43
0
 10
-37.93664201737618
 20
17.34036686884156
 10
-19.07826513619106
 20
15.02484934414376
 10
-16.76274761149326
 20
33.88322622532888
 10
-35.62112449267838
 20
36.19874375002669
  0
LWPOLYLINE
  5
123
100
AcDbEntity
  8
rpi-decoup
  6
ByLayer
 62
  256
370
   -1
100
AcDbPolyline
 90
    4
 70
    1
 43
0
 10
-16.18000000000001
 20
60
 10
1.599999999999995
 20
60
 10
1.599999999999995
 20
30
 10
-16.18000000000001
 20
30
  0
ARC
  5
124
100
AcDbEntity
  8
int
  6
ByLayer
 62
  256
370
   -1
100
AcDbCircle
 10
9.597230076711433
 20
39.48691944293495
 40
2
100
AcDbArc
 50
7.000000000000022
 51
90
  0
LINE
  5
125
100
AcDbEntity
  8
int
  6
ByLayer
 62
  256
370
   -1
100
AcDbLine
 10
12.04267435459212
 20
35.9813921698166
 11
11.58232237999408
 21
39.73065812974525
  0
ARC
  5
126
100
AcDbEntity
  8
int
  6
ByLayer
 62
  256
370
   -1
100
AcDbCircle
 10
14.02776665787479
 20
36.2251308566269
 40
2
100
AcDbArc
 50
187
 51
276.999999999999
  0
LINE
  5
127
100
AcDbEntity
  8
int
  6
ByLayer
 62
  256
370
   -1
100
AcDbLine
 10
9.597230076711433
 20
41.48691944293495
 11
-28.66857341857051
 21
41.48691944293495
  0
ARC
  5
128
100
AcDbEntity
  8
int
  6
ByLayer
 62
  256
370
   -1
100
AcDbCircle
 10
-28.66857341857051
 20
39.48691944293495
 40
2
100
AcDbArc
 50
90.0000000000001
 51
173
  0
LINE
  5
129
100
AcDbEntity
  8
int
  6
ByLayer
 62
  256
370
   -1
100
AcDbLine
 10
-30.9718627951847
 20
37.13915093216549
 11
-30.65366572185315
 21
39.73065812974525
  0
ARC
  5
12A
100
AcDbEntity
  8
int
  6
ByLayer
 62
  256
370
   -1
100
AcDbCircle
 10
-32.9569550984674
 20
37.3828896189758
 40
2
100
AcDbArc
 50
262.9999999999997
 51
353
  0
LINE
  5
12B
100
AcDbEntity
  8
int
  6
ByLayer
 62
  256
370
   -1
100
AcDbLine
 10
-84.01586623479034
 20
41.48691944293495
 11
-105.187669228509
 21
41.48691944293496
  0
LINE
  5
12C
100
AcDbEntity
  8
int
  6
ByLayer
 62
  256
370
   -1
100
AcDbLine
 10
-81.57847936668739
 20
41.3378424757614
 11
-33.20069378527771
 21
35.39779731569315
  0
ARC
  5
12D
100
AcDbEntity
  8
int
  6
ByLayer
 62
  256
370
   -1
100
AcDbCircle
 10
-84.01586623479034
 20
21.48691944293496
 40
20
100
AcDbArc
 50
83
 51
90
  0
LINE
  5
12E
100
AcDbEntity
  8
int
  6
ByLayer
 62
  256
370
   -1
100
AcDbLine
 10
105.1876692285087
 20
41.48691944293494
 11
74.51586623479038
 21
41.48691944293495
  0
LINE
  5
12F
100
AcDbEntity
  8
int
  6
ByLayer
 62
  256
370
   -1
100
AcDbLine
 10
72.07847936668742
 20
41.33784247576139
 11
14.27150534468505
 21
34.24003855334425
  0
ARC
  5
130
100
AcDbEntity
  8
int
  6
ByLayer
 62
  256
370
   -1
100
AcDbCircle
 10
74.51586623479038
 20
21.48691944293495
 40
20
100
AcDbArc
 50
90
 51
97.00000000000003
  0
LINE
  5
131
100
AcDbEntity
  8
int
  6
ByLayer
 62
  256
370
   -1
100
AcDbLine
 10
-92.11269596533306
 20
-41.48691944293495
 11
-105.1876692285095
 21
-41.48691944293494
  0
ARC
  5
132
100
AcDbEntity
  8
int
  6
ByLayer
 62
  256
370
   -1
100
AcDbCircle
 10
-92.11269596533306
 20
-39.48691944293495
 40
2
100
AcDbArc
 50
270
 51
0
  0
LINE
  5
133
100
AcDbEntity
  8
int
  6
ByLayer
 62
  256
370
   -1
100
AcDbLine
 10
-16.80943567787596
 20
-41.48691944293495
 11
-73.15585221652989
 21
-41.48691944293495
  0
ARC
  5
134
100
AcDbEntity
  8
int
  6
ByLayer
 62
  256
370
   -1
100
AcDbCircle
 10
-73.15585221652989
 20
-39.48691944293495
 40
2
100
AcDbArc
 50
180
 51
270
  0
LINE
  5
135
100
AcDbEntity
  8
int
  6
ByLayer
 62
  256
370
   -1
100
AcDbLine
 10
-90.11269596533306
 20
-23.48691944293494
 11
-90.11269596533306
 21
-39.48691944293495
  0
ARC
  5
136
100
AcDbEntity
  8
int
  6
ByLayer
 62
  256
370
   -1
100
AcDbCircle
 10
-88.11269596533306
 20
-23.48691944293494
 40
2
100
AcDbArc
 50
89.99999999999959
 51
179.9999999999999
  0
LINE
  5
137
100
AcDbEntity
  8
int
  6
ByLayer
 62
  256
370
   -1
100
AcDbLine
 10
-77.15585221652989
 20
-21.48691944293494
 11
-88.11269596533305
 21
-21.48691944293494
  0
LINE
  5
138
100
AcDbEntity
  8
int
  6
ByLayer
 62
  256
370
   -1
100
AcDbLine
 10
-75.15585221652989
 20
-23.48691944293494
 11
-75.15585221652989
 21
-39.48691944293495
  0
ARC
  5
139
100
AcDbEntity
  8
int
  6
ByLayer
 62
  256
370
   -1
100
AcDbCircle
 10
-77.15585221652989
 20
-23.48691944293494
 40
2
100
AcDbArc
 50
1.017777498068325e-13
 51
90
  0
LINE
  5
13A
100
AcDbEntity
  8
int
  6
ByLayer
 62
  256
370
   -1
100
AcDbLine
 10
63.67075991324725
 20
-41.48691944293496
 11
7.309435677875967
 21
-41.48691944293495
  0
ARC
  5
13B
100
AcDbEntity
  8
int
  6
ByLayer
 62
  256
370
   -1
100
AcDbCircle
 10
63.67075991324725
 20
-39.48691944293496
 40
2
100
AcDbArc
 50
270
 51
0
  0
LINE
  5
13C
100
AcDbEntity
  8
int
  6
ByLayer
 62
  256
370
   -1
100
AcDbLine
 10
105.1876692285091
 20
-41.48691944293497
 11
92.11269596533307
 21
-41.48691944293497
  0
ARC
  5
13D
100
AcDbEntity
  8
int
  6
ByLayer
 62
  256
370
   -1
100
AcDbCircle
 10
92.11269596533307
 20
-39.48691944293498
 40
2
100
AcDbArc
 50
180.0000000000004
 51
270
  0
ARC
  5
13E
100
AcDbEntity
  8
ext1
  6
ByLayer
 62
  256
370
   -1
100
AcDbCircle
 10
113.4490250494383
 20
38.48691944293494
 40
5.5
100
AcDbArc
 50
0
 51
90
  0
LINE
  5
13F
100
AcDbEntity
  8
ext1
  6
ByLayer
 62
  256
370
   -1
100
AcDbLine
 10
118.9490250494383
 20
38.48691944293494
 11
118.9490250494383
 21
-38.48691944293497
  0
LINE
  5
140
100
AcDbEntity
  8
ext1
  6
ByLayer
 62
  256
370
   -1
100
AcDbLine
 10
113.4490250494383
 20
43.98691944293495
 11
-113.4490250494383
 21
43.98691944293496
  0
LINE
  5
141
100
AcDbEntity
  8
ext1
  6
ByLayer
 62
  256
370
   -1
100
AcDbLine
 10
113.4490250494383
 20
-43.98691944293497
 11
-113.4490250494383
 21
-43.98691944293494
  0
ARC
  5
142
100
AcDbEntity
  8
ext1
  6
ByLayer
 62
  256
370
   -1
100
AcDbCircle
 10
113.4490250494383
 20
-38.48691944293497
 40
5.5
100
AcDbArc
 50
270
 51
0
  0
ARC
  5
143
100
AcDbEntity
  8
ext1
  6
ByLayer
 62
  256
370
   -1
100
AcDbCircle
 10
-113.4490250494383
 20
-38.48691944293494
 40
5.5
100
AcDbArc
 50
180
 51
270.0000000000002
  0
LINE
  5
144
100
AcDbEntity
  8
ext1
  6
ByLayer
 62
  256
370
   -1
100
AcDbLine
 10
-118.9490250494383
 20
-38.48691944293494
 11
-118.9490250494383
 21
38.48691944293497
  0
ARC
  5
145
100
AcDbEntity
  8
ext1
  6
ByLayer
 62
  256
370
   -1
100
AcDbCircle
 10
-113.4490250494383
 20
38.48691944293496
 40
5.5
100
AcDbArc
 50
90.00000000000024
 51
180
  0
ARC
  5
146
100
AcDbEntity
  8
ext3
  6
ByLayer
 62
  256
370
   -1
100
AcDbCircle
 10
-113.4490250494383
 20
38.48691944293496
 40
9.5
100
AcDbArc
 50
90.00000000000024
 51
180
  0
LINE
  5
147
100
AcDbEntity
  8
ext3
  6
ByLayer
 62
  256
370
   -1
100
AcDbLine
 10
113.4490250494383
 20
47.98691944293495
 11
-113.4490250494383
 21
47.98691944293496
  0
LINE
  5
148
100
AcDbEntity
  8
ext3
  6
ByLayer
 62
  256
370
   -1
100
AcDbLine
 10
-122.9490250494383
 20
-38.48691944293494
 11
-122.9490250494383
 21
38.48691944293497
  0
ARC
  5
149
100
AcDbEntity
  8
ext3
  6
ByLayer
 62
  256
370
   -1
100
AcDbCircle
 10
-113.4490250494383
 20
-38.48691944293494
 40
9.5
100
AcDbArc
 50
180
 51
270.0000000000002
  0
LINE
  5
14A
100
AcDbEntity
  8
ext3
  6
ByLayer
 62
  256
370
   -1
100
AcDbLine
 10
113.4490250494383
 20
-47.98691944293497
 11
-113.4490250494383
 21
-47.98691944293494
  0
ARC
  5
14B
100
AcDbEntity
  8
ext3
  6
ByLayer
 62
  256
370
   -1
100
AcDbCircle
 10
113.4490250494383
 20
-38.48691944293497
 40
9.5
100
AcDbArc
 50
270
 51
0
  0
LINE
  5
14C
100
AcDbEntity
  8
ext3
  6
ByLayer
 62
  256
370
   -1
100
AcDbLine
 10
122.9490250494383
 20
38.48691944293494
 11
122.9490250494383
 21
-38.48691944293497
  0
ARC
  5
14D
100
AcDbEntity
  8
ext3
  6
ByLayer
 62
  256
370
   -1
100
AcDbCircle
 10
113.4490250494383
 20
38.48691944293494
 40
9.5
100
AcDbArc
 50
0
 51
90
  0
ARC
  5
14E
100
AcDbEntity
  8
ext2
  6
ByLayer
 62
  256
370
   -1
100
AcDbCircle
 10
113.4490250494383
 20
38.48691944293494
 40
8.5
100
AcDbArc
 50
0
 51
90
  0
LINE
  5
14F
100
AcDbEntity
  8
ext2
  6
ByLayer
 62
  256
370
   -1
100
AcDbLine
 10
121.9490250494383
 20
38.48691944293494
 11
121.9490250494383
 21
-38.48691944293497
  0
LINE
  5
150
100
AcDbEntity
  8
ext2
  6
ByLayer
 62
  256
370
   -1
100
AcDbLine
 10
113.4490250494383
 20
46.98691944293495
 11
-113.4490250494383
 21
46.98691944293496
  0
ARC
  5
151
100
AcDbEntity
  8
ext2
  6
ByLayer
 62
  256
370
   -1
100
AcDbCircle
 10
-113.4490250494383
 20
-38.48691944293494
 40
8.5
100
AcDbArc
 50
180
 51
270.0000000000002
  0
LINE
  5
152
100
AcDbEntity
  8
ext2
  6
ByLayer
 62
  256
370
   -1
100
AcDbLine
 10
-121.9490250494383
 20
-38.48691944293494
 11
-121.9490250494383
 21
38.48691944293497
  0
LINE
  5
153
100
AcDbEntity
  8
ext2
  6
ByLayer
 62
  256
370
   -1
100
AcDbLine
 10
113.4490250494383
 20
-46.98691944293497
 11
-113.4490250494383
 21
-46.98691944293494
  0
ARC
  5
154
100
AcDbEntity
  8
ext2
  6
ByLayer
 62
  256
370
   -1
100
AcDbCircle
 10
-113.4490250494383
 20
38.48691944293496
 40
8.5
100
AcDbArc
 50
90.00000000000024
 51
180
  0
ARC
  5
155
100
AcDbEntity
  8
ext2
  6
ByLayer
 62
  256
370
   -1
100
AcDbCircle
 10
113.4490250494383
 20
-38.48691944293497
 40
8.5
100
AcDbArc
 50
270
 51
0
  0
ARC
  5
156
100
AcDbEntity
  8
ajour
  6
ByLayer
 62
  256
370
   -1
100
AcDbCircle
 10
-101.4490250494383
 20
26.48691944293496
 40
5
100
AcDbArc
 50
90
 51
180
  0
ARC
  5
157
100
AcDbEntity
  8
ajour
  6
ByLayer
 62
  256
370
   -1
100
AcDbCircle
 10
-60.15585221652989
 20
-26.48691944293495
 40
5
100
AcDbArc
 50
180
 51
270
  0
ARC
  5
158
100
AcDbEntity
  8
ajour
  6
ByLayer
 62
  256
370
   -1
100
AcDbCircle
 10
-31.18000000000001
 20
20.03703993466588
 40
5
100
AcDbArc
 50
0
 51
82.99999999999996
  0
LINE
  5
159
100
AcDbEntity
  8
ajour
  6
ByLayer
 62
  256
370
   -1
100
AcDbLine
 10
-26.18000000000001
 20
-26.48691944293495
 11
-26.18000000000001
 21
20.03703993466588
  0
LINE
  5
15A
100
AcDbEntity
  8
ajour
  6
ByLayer
 62
  256
370
   -1
100
AcDbLine
 10
-31.18000000000001
 20
-31.48691944293495
 11
-60.15585221652989
 21
-31.48691944293495
  0
ARC
  5
15B
100
AcDbEntity
  8
ajour
  6
ByLayer
 62
  256
370
   -1
100
AcDbCircle
 10
-31.18000000000001
 20
-26.48691944293495
 40
5
100
AcDbArc
 50
269.9999999999999
 51
0
  0
ARC
  5
15C
100
AcDbEntity
  8
ajour
  6
ByLayer
 62
  256
370
   -1
100
AcDbCircle
 10
101.4490250494383
 20
26.48691944293494
 40
5
100
AcDbArc
 50
0
 51
90
  0
ARC
  5
15D
100
AcDbEntity
  8
ajour
  6
ByLayer
 62
  256
370
   -1
100
AcDbCircle
 10
16.59999999999999
 20
19.41329436527912
 40
5
100
AcDbArc
 50
97
 51
180
  0
LINE
  5
15E
100
AcDbEntity
  8
ajour
  6
ByLayer
 62
  256
370
   -1
100
AcDbLine
 10
101.4490250494383
 20
31.48691944293494
 11
80.02050204833384
 21
31.48691944293495
  0
LINE
  5
15F
100
AcDbEntity
  8
ajour
  6
ByLayer
 62
  256
370
   -1
100
AcDbLine
 10
67.83356770781913
 20
30.74153460706714
 11
15.99065328297426
 21
24.37602512348574
  0
ARC
  5
160
100
AcDbEntity
  8
ajour
  6
ByLayer
 62
  256
370
   -1
100
AcDbCircle
 10
80.02050204833381
 20
-68.51308055706505
 40
100
100
AcDbArc
 50
89.99999999999999
 51
96.99999999999997
  0
LINE
  5
161
100
AcDbEntity
  8
ajour
  6
ByLayer
 62
  256
370
   -1
100
AcDbLine
 10
-77.33356770781909
 20
30.74153460706715
 11
-30.57065328297427
 21
24.99977069287249
  0
LINE
  5
162
100
AcDbEntity
  8
ajour
  6
ByLayer
 62
  256
370
   -1
100
AcDbLine
 10
-89.52050204833377
 20
31.48691944293495
 11
-101.4490250494383
 21
31.48691944293496
  0
ARC
  5
163
100
AcDbEntity
  8
ajour
  6
ByLayer
 62
  256
370
   -1
100
AcDbCircle
 10
-89.52050204833381
 20
-68.51308055706505
 40
100
100
AcDbArc
 50
83.00000000000001
 51
89.99999999999997
  0
LINE
  5
164
100
AcDbEntity
  8
ajour
  6
ByLayer
 62
  256
370
   -1
100
AcDbLine
 10
-106.4490250494383
 20
-6.486919442934944
 11
-106.4490250494383
 21
26.48691944293496
  0
ARC
  5
165
100
AcDbEntity
  8
ajour
  6
ByLayer
 62
  256
370
   -1
100
AcDbCircle
 10
-101.4490250494383
 20
-6.486919442934944
 40
5
100
AcDbArc
 50
180
 51
270
  0
LINE
  5
166
100
AcDbEntity
  8
ajour
  6
ByLayer
 62
  256
370
   -1
100
AcDbLine
 10
-70.15585221652989
 20
-11.48691944293494
 11
-101.4490250494383
 21
-11.48691944293494
  0
LINE
  5
167
100
AcDbEntity
  8
ajour
  6
ByLayer
 62
  256
370
   -1
100
AcDbLine
 10
-65.15585221652989
 20
-16.48691944293494
 11
-65.15585221652989
 21
-26.48691944293495
  0
ARC
  5
168
100
AcDbEntity
  8
ajour
  6
ByLayer
 62
  256
370
   -1
100
AcDbCircle
 10
-70.15585221652989
 20
-16.48691944293494
 40
5
100
AcDbArc
 50
0
 51
90
  0
LINE
  5
169
100
AcDbEntity
  8
0
  6
ByLayer
 62
  256
370
   -1
100
AcDbLine
 10
67.34278861037504
 20
-16.52570784816201
 11
68.40663122264681
 21
-35.49590128144875
  0
LINE
  5
16A
100
AcDbEntity
  8
0
  6
ByLayer
 62
  256
370
   -1
100
AcDbLine
 10
87.37682465593353
 20
-34.43205866917697
 11
68.40663122264681
 21
-35.49590128144875
  0
LINE
  5
16B
100
AcDbEntity
  8
0
  6
ByLayer
 62
  256
370
   -1
100
AcDbLine
 10
86.31298204366176
 20
-15.46186523589024
 11
67.34278861037504
 21
-16.52570784816201
  0
LINE
  5
16C
100
AcDbEntity
  8
0
  6
ByLayer
 62
  256
370
   -1
100
AcDbLine
 10
86.31298204366176
 20
-15.46186523589024
 11
87.37682465593353
 21
-34.43205866917697
  0
LINE
  5
16D
100
AcDbEntity
  8
placement
  6
ByLayer
 62
  256
370
   -1
100
AcDbLine
 10
69.97884598479062
 20
-18.88180664040082
 11
84.74076728151793
 21
-32.07595987693816
  0
LINE
  5
16E
100
AcDbEntity
  8
placement
  6
ByLayer
 62
  256
370
   -1
100
AcDbLine
 10
69.97884598479062
 20
-18.88180664040082
 11
70.76273001488561
 21
-32.85984390703316
  0
LINE
  5
16F
100
AcDbEntity
  8
placement
  6
ByLayer
 62
  256
370
   -1
100
AcDbLine
 10
84.74076728151793
 20
-32.07595987693816
 11
70.76273001488561
 21
-32.85984390703316
  0
LINE
  5
170
100
AcDbEntity
  8
placement
  6
ByLayer
 62
  256
370
   -1
100
AcDbLine
 10
83.95688325142294
 20
-18.09792261030583
 11
69.97884598479062
 21
-18.88180664040082
  0
LINE
  5
171
100
AcDbEntity
  8
placement
  6
ByLayer
 62
  256
370
   -1
100
AcDbLine
 10
83.95688325142294
 20
-18.09792261030583
 11
84.74076728151793
 21
-32.07595987693816
  0
LINE
  5
172
100
AcDbEntity
  8
placement
  6
ByLayer
 62
  256
370
   -1
100
AcDbLine
 10
67.98198351812886
 20
-18.99379007327153
 11
68.76586754822384
 21
-32.97182733990387
  0
LINE
  5
173
100
AcDbEntity
  8
placement
  6
ByLayer
 62
  256
370
   -1
100
AcDbLine
 10
85.9537457180847
 20
-17.98593917743512
 11
86.7376297481797
 21
-31.96397644406745
  0
LINE
  5
174
100
AcDbEntity
  8
int
  6
ByLayer
 62
  256
370
   -1
100
AcDbLine
 10
90.11269596533307
 20
-39.48691944293499
 11
90.11269596533307
 21
-37.48691944293498
  0
ARC
  5
175
100
AcDbEntity
  8
int
  6
ByLayer
 62
  256
370
   -1
100
AcDbCircle
 10
88.11269596533307
 20
-37.48691944293498
 40
2
100
AcDbArc
 50
0
 51
90
  0
LINE
  5
176
100
AcDbEntity
  8
int
  6
ByLayer
 62
  256
370
   -1
100
AcDbLine
 10
65.67075991324725
 20
-37.48691944293496
 11
65.67075991324725
 21
-39.48691944293496
  0
LINE
  5
177
100
AcDbEntity
  8
int
  6
ByLayer
 62
  256
370
   -1
100
AcDbLine
 10
88.11269596533307
 20
-35.48691944293497
 11
67.67075991324725
 21
-35.48691944293496
  0
ARC
  5
178
100
AcDbEntity
  8
int
  6
ByLayer
 62
  256
370
   -1
100
AcDbCircle
 10
67.67075991324725
 20
-37.48691944293496
 40
2
100
AcDbArc
 50
90
 51
180
  0
LINE
  5
179
100
AcDbEntity
  8
ajour
  6
ByLayer
 62
  256
370
   -1
100
AcDbLine
 10
106.4490250494383
 20
26.48691944293494
 11
106.4490250494383
 21
-20.48691944293498
  0
ARC
  5
17A
100
AcDbEntity
  8
ajour
  6
ByLayer
 62
  256
370
   -1
100
AcDbCircle
 10
101.4490250494383
 20
-20.48691944293498
 40
5
100
AcDbArc
 50
270
 51
359.9999999999999
  0
LINE
  5
17B
100
AcDbEntity
  8
ajour
  6
ByLayer
 62
  256
370
   -1
100
AcDbLine
 10
101.4490250494383
 20
-25.48691944293497
 11
16.59999999999999
 21
-25.48691944293494
  0
LINE
  5
17C
100
AcDbEntity
  8
ajour
  6
ByLayer
 62
  256
370
   -1
100
AcDbLine
 10
11.59999999999999
 20
19.41329436527912
 11
11.59999999999999
 21
-20.48691944293495
  0
ARC
  5
17D
100
AcDbEntity
  8
ajour
  6
ByLayer
 62
  256
370
   -1
100
AcDbCircle
 10
16.59999999999999
 20
-20.48691944293495
 40
5
100
AcDbArc
 50
180.0000000000001
 51
270.0000000000001
  0
ARC
  5
17E
100
AcDbEntity
  8
ajour
  6
ByLayer
 62
  256
370
   -1
100
AcDbCircle
 10
-14.18000000000001
 20
-4.476857701155163
 40
3
100
AcDbArc
 50
180
 51
270
  0
LINE
  5
17F
100
AcDbEntity
  8
ajour
  6
ByLayer
 62
  256
370
   -1
100
AcDbLine
 10
-0.4000000000000055
 20
-7.476857701155163
 11
-14.18000000000001
 21
-7.476857701155163
  0
ARC
  5
180
100
AcDbEntity
  8
ajour
  6
ByLayer
 62
  256
370
   -1
100
AcDbCircle
 10
-0.4000000000000057
 20
-4.476857701155163
 40
3
100
AcDbArc
 50
270
 51
359.9999999999999
  0
LINE
  5
181
100
AcDbEntity
  8
ajour
  6
ByLayer
 62
  256
370
   -1
100
AcDbLine
 10
-17.18000000000001
 20
-4.476857701155163
 11
-17.18000000000001
 21
56.99999999999999
  0
ARC
  5
182
100
AcDbEntity
  8
ajour
  6
ByLayer
 62
  256
370
   -1
100
AcDbCircle
 10
-14.18000000000001
 20
57
 40
3
100
AcDbArc
 50
90
 51
180.0000000000001
  0
LINE
  5
183
100
AcDbEntity
  8
ajour
  6
ByLayer
 62
  256
370
   -1
100
AcDbLine
 10
-14.18000000000001
 20
60
 11
-0.4000000000000039
 21
60
  0
LINE
  5
184
100
AcDbEntity
  8
ajour
  6
ByLayer
 62
  256
370
   -1
100
AcDbLine
 10
2.599999999999994
 20
57
 11
2.599999999999994
 21
-4.476857701155168
  0
ARC
  5
185
100
AcDbEntity
  8
ajour
  6
ByLayer
 62
  256
370
   -1
100
AcDbCircle
 10
-0.4000000000000057
 20
57
 40
3
100
AcDbArc
 50
0
 51
89.99999999999997
  0
LINE
  5
186
100
AcDbEntity
  8
placement
  6
ByLayer
 62
  256
370
   -1
100
AcDbLine
 10
-95.51177266093154
 20
40.78691944293497
 11
-95.51177266093154
 21
26.78691944293497
  0
LINE
  5
187
100
AcDbEntity
  8
placement
  6
ByLayer
 62
  256
370
   -1
100
AcDbLine
 10
-93.21455315077736
 20
26.64641547863312
 11
-91.5083823431053
 21
40.54206160161162
  0
LINE
  5
188
100
AcDbEntity
  8
placement
  6
ByLayer
 62
  256
370
   -1
100
AcDbLine
 10
74.28536471018477
 20
25.48865671628424
 11
72.5791939025127
 21
39.38430283926274
  0
LINE
  5
189
100
AcDbEntity
  8
placement
  6
ByLayer
 62
  256
370
   -1
100
AcDbLine
 10
76.5115067697057
 20
26.20804006176051
 11
76.5115067697057
 21
40.2080400617605
  0
LINE
  5
18A
100
AcDbEntity
  8
placement
  6
ByLayer
 62
  256
370
   -1
100
AcDbLine
 10
-16.18000000000001
 20
16.38314229884484
 11
1.599999999999994
 21
-6.476857701155163
  0
ENDSEC
  0
SECTION
  2
OBJECTS
  0
DICTIONARY
  5
C
330
0
100
AcDbDictionary
281
    1
  3
ACAD_GROUP
350
D
  0
DICTIONARY
  5
D
330
C
100
AcDbDictionary
281
    1
  0
PLOTSETTINGS
  5
18B
100
AcDbPlotSettings
  6
1x1
 40
0
 41
0
 42
0
 43
0
  0
ENDSEC
  0
EOF
