999
dxfrw 0.6.3
  0
SECTION
  2
HEADER
  9
$ACADVER
  1
AC1021
  9
$DWGCODEPAGE
  3
ANSI_1252
  9
$INSBASE
 10
0
 20
0
 30
0
  9
$EXTMIN
 10
-126.75
 20
-51.75
 30
0
  9
$EXTMAX
 10
126.75
 20
66
 30
0
  9
$LIMMIN
 10
0
 20
0
  9
$LIMMAX
 10
420
 20
297
  9
$ORTHOMODE
 70
    0
  9
$REGENMODE
 70
    1
  9
$FILLMODE
 70
    1
  9
$QTEXTMODE
 70
    0
  9
$MIRRTEXT
 70
    0
  9
$LTSCALE
 40
1
  9
$ATTMODE
 70
    0
  9
$TEXTSIZE
 40
2.5
  9
$TRACEWID
 40
15.68
  9
$TEXTSTYLE
  7
STANDARD
  9
$CLAYER
  8
rpi-cut
  9
$CELTYPE
  6
BYLAYER
  9
$CECOLOR
 62
  256
  9
$CELTSCALE
 40
1
  9
$DISPSILH
 70
    0
  9
$DIMSCALE
 40
1
  9
$DIMASZ
 40
2.5
  9
$DIMEXO
 40
0.625
  9
$DIMDLI
 40
3.75
  9
$DIMRND
 40
0
  9
$DIMDLE
 40
0
  9
$DIMEXE
 40
1.25
  9
$DIMTP
 40
0
  9
$DIMTM
 40
0
  9
$DIMTXT
 40
2.5
  9
$DIMCEN
 40
2.5
  9
$DIMTSZ
 40
0
  9
$DIMTOL
 70
    0
  9
$DIMLIM
 70
    0
  9
$DIMTIH
 70
    0
  9
$DIMTOH
 70
    0
  9
$DIMSE1
 70
    0
  9
$DIMSE2
 70
    0
  9
$DIMTAD
 70
    1
  9
$DIMZIN
 70
    8
  9
$DIMBLK
  1

  9
$DIMASO
 70
    1
  9
$DIMSHO
 70
    1
  9
$DIMPOST
  1

  9
$DIMAPOST
  1

  9
$DIMALT
 70
    0
  9
$DIMALTD
 70
    3
  9
$DIMALTF
 40
0.03937
  9
$DIMLFAC
 40
1
  9
$DIMTOFL
 70
    1
  9
$DIMTVP
 40
0
  9
$DIMTIX
 70
    0
  9
$DIMSOXD
 70
    0
  9
$DIMSAH
 70
    0
  9
$DIMBLK1
  1

  9
$DIMBLK2
  1

  9
$DIMSTYLE
  2
STANDARD
  9
$DIMCLRD
 70
    0
  9
$DIMCLRE
 70
    0
  9
$DIMCLRT
 70
    0
  9
$DIMTFAC
 40
1
  9
$DIMGAP
 40
0.625
  9
$DIMJUST
 70
    0
  9
$DIMSD1
 70
    0
  9
$DIMSD2
 70
    0
  9
$DIMTOLJ
 70
    0
  9
$DIMTZIN
 70
    8
  9
$DIMALTZ
 70
    0
  9
$DIMALTTZ
 70
    0
  9
$DIMUPT
 70
    0
  9
$DIMDEC
 70
    2
  9
$DIMTDEC
 70
    2
  9
$DIMALTU
 70
    2
  9
$DIMALTTD
 70
    3
  9
$DIMTXSTY
  7
STANDARD
  9
$DIMAUNIT
 70
    0
  9
$DIMADEC
 70
    0
  9
$DIMALTRND
 40
0
  9
$DIMAZIN
 70
    0
  9
$DIMDSEP
 70
   44
  9
$DIMATFIT
 70
    3
  9
$DIMFRAC
 70
    0
  9
$DIMLDRBLK
  1
STANDARD
  9
$DIMLUNIT
 70
    2
  9
$DIMLWD
 70
   -2
  9
$DIMLWE
 70
   -2
  9
$DIMTMOVE
 70
    0
  9
$DIMFXL
 40
1
  9
$DIMFXLON
 70
    0
  9
$DIMJOGANG
 40
0.7854
  9
$DIMTFILL
 70
    0
  9
$DIMTFILLCLR
 70
    0
  9
$DIMARCSYM
 70
    0
  9
$DIMLTYPE
  6

  9
$DIMLTEX1
  6

  9
$DIMLTEX2
  6

  9
$LUNITS
 70
    2
  9
$LUPREC
 70
    4
  9
$SKETCHINC
 40
1
  9
$FILLETRAD
 40
0
  9
$AUNITS
 70
    0
  9
$AUPREC
 70
    2
  9
$MENU
  1
.
  9
$ELEVATION
 40
0
  9
$PELEVATION
 40
0
  9
$THICKNESS
 40
0
  9
$LIMCHECK
 70
    0
  9
$CHAMFERA
 40
0
  9
$CHAMFERB
 40
0
  9
$CHAMFERC
 40
0
  9
$CHAMFERD
 40
0
  9
$SKPOLY
 70
    0
  9
$USRTIMER
 70
    1
  9
$ANGBASE
 50
0
  9
$ANGDIR
 70
    0
  9
$PDMODE
 70
   34
  9
$PDSIZE
 40
0
  9
$PLINEWID
 40
0
  9
$SPLFRAME
 70
    0
  9
$SPLINETYPE
 70
    2
  9
$SPLINESEGS
 70
    8
  9
$HANDSEED
  5
20000
  9
$SURFTAB1
 70
    6
  9
$SURFTAB2
 70
    6
  9
$SURFTYPE
 70
    6
  9
$SURFU
 70
    6
  9
$SURFV
 70
    6
  9
$UCSBASE
  2

  9
$UCSNAME
  2

  9
$UCSORG
 10
0
 20
0
 30
0
  9
$UCSXDIR
 10
1
 20
0
 30
0
  9
$UCSYDIR
 10
0
 20
1
 30
0
  9
$UCSORTHOREF
  2

  9
$UCSORTHOVIEW
 70
    0
  9
$UCSORGTOP
 10
0
 20
0
 30
0
  9
$UCSORGBOTTOM
 10
0
 20
0
 30
0
  9
$UCSORGLEFT
 10
0
 20
0
 30
0
  9
$UCSORGRIGHT
 10
0
 20
0
 30
0
  9
$UCSORGFRONT
 10
0
 20
0
 30
0
  9
$UCSORGBACK
 10
0
 20
0
 30
0
  9
$PUCSBASE
  2

  9
$PUCSNAME
  2

  9
$PUCSORG
 10
0
 20
0
 30
0
  9
$PUCSXDIR
 10
1
 20
0
 30
0
  9
$PUCSYDIR
 10
0
 20
1
 30
0
  9
$PUCSORTHOREF
  2

  9
$PUCSORTHOVIEW
 70
    0
  9
$PUCSORGTOP
 10
0
 20
0
 30
0
  9
$PUCSORGBOTTOM
 10
0
 20
0
 30
0
  9
$PUCSORGLEFT
 10
0
 20
0
 30
0
  9
$PUCSORGRIGHT
 10
0
 20
0
 30
0
  9
$PUCSORGFRONT
 10
0
 20
0
 30
0
  9
$PUCSORGBACK
 10
0
 20
0
 30
0
  9
$USERI1
 70
    0
  9
$USERI2
 70
    0
  9
$USERI3
 70
    0
  9
$USERI4
 70
    0
  9
$USERI5
 70
    0
  9
$USERR1
 40
0
  9
$USERR2
 40
0
  9
$USERR3
 40
0
  9
$USERR4
 40
0
  9
$USERR5
 40
0
  9
$WORLDVIEW
 70
    1
  9
$SHADEDGE
 70
    3
  9
$SHADEDIF
 70
   70
  9
$TILEMODE
 70
    1
  9
$MAXACTVP
 70
   64
  9
$PINSBASE
 10
0
 20
0
 30
0
  9
$PLIMCHECK
 70
    0
  9
$PEXTMIN
 10
0
 20
0
 30
0
  9
$PEXTMAX
 10
0
 20
0
 30
0
  9
$GRIDMODE
 70
    1
  9
$SNAPSTYLE
 70
    0
  9
$PLIMMIN
 10
0
 20
0
  9
$PLIMMAX
 10
210
 20
297
  9
$UNITMODE
 70
    0
  9
$VISRETAIN
 70
    1
  9
$PLINEGEN
 70
    0
  9
$PSLTSCALE
 70
    1
  9
$TREEDEPTH
 70
 3020
  9
$CMLSTYLE
  2
Standard
  9
$CMLJUST
 70
    0
  9
$CMLSCALE
 40
20
  9
$PROXYGRAPHICS
 70
    1
  9
$MEASUREMENT
 70
    1
  9
$CELWEIGHT
370
   -1
  9
$ENDCAPS
280
    0
  9
$JOINSTYLE
280
    0
  9
$LWDISPLAY
290
    0
  9
$INSUNITS
 70
    0
  9
$HYPERLINKBASE
  1

  9
$STYLESHEET
  1

  9
$XEDIT
290
    1
  9
$CEPSNTYPE
380
    0
  9
$PSTYLEMODE
290
    1
  9
$EXTNAMES
290
    1
  9
$PSVPSCALE
 40
1
  9
$OLESTARTUP
290
    0
  9
$SORTENTS
280
  127
  9
$INDEXCTL
280
    0
  9
$HIDETEXT
280
    1
  9
$XCLIPFRAME
290
    0
  9
$HALOGAP
280
    0
  9
$OBSCOLOR
 70
  257
  9
$OBSLTYPE
280
    0
  9
$INTERSECTIONDISPLAY
280
    0
  9
$INTERSECTIONCOLOR
 70
  257
  9
$DIMASSOC
280
    1
  9
$PROJECTNAME
  1

  9
$CAMERADISPLAY
290
    0
  9
$LENSLENGTH
 40
50
  9
$CAMERAHEIGHT
 40
0
  9
$STEPSPERSEC
 40
2
  9
$STEPSIZE
 40
50
  9
$3DDWFPREC
 40
2
  9
$PSOLWIDTH
 40
5
  9
$PSOLHEIGHT
 40
80
  9
$LOFTANG1
 40
1.570796326794897
  9
$LOFTANG2
 40
1.570796326794897
  9
$LOFTMAG1
 40
0
  9
$LOFTMAG2
 40
0
  9
$LOFTPARAM
 70
    7
  9
$LOFTNORMALS
280
    1
  9
$LATITUDE
 40
1
  9
$LONGITUDE
 40
1
  9
$NORTHDIRECTION
 40
0
  9
$TIMEZONE
 70
-8000
  9
$LIGHTGLYPHDISPLAY
280
    1
  9
$TILEMODELIGHTSYNCH
280
    1
  9
$SOLIDHIST
280
    1
  9
$SHOWHIST
280
    1
  9
$DWFFRAME
280
    2
  9
$DGNFRAME
280
    0
  9
$REALWORLDSCALE
290
    1
  9
$INTERFERECOLOR
 62
    1
  9
$CSHADOW
280
    0
  9
$SHADOWPLANELOCATION
 40
0
  0
ENDSEC
  0
SECTION
  2
CLASSES
  0
ENDSEC
  0
SECTION
  2
TABLES
  0
TABLE
  2
VPORT
  5
8
330
0
100
AcDbSymbolTable
 70
    1
  0
VPORT
  5
31
330
2
100
AcDbSymbolTableRecord
100
AcDbViewportTableRecord
  2
*ACTIVE
 70
    0
 10
0
 20
0
 11
1
 21
1
 12
64.58378746594005
 22
47.66076294277929
 13
0
 23
0
 14
10
 24
10
 15
10
 25
10
 16
0
 26
0
 36
1
 17
0
 27
0
 37
0
 40
176.1376021798365
 41
1.465359477124183
 42
50
 43
0
 44
0
 50
0
 51
0
 71
    0
 72
  100
 73
    1
 74
    3
 75
    0
 76
    1
 77
    0
 78
    0
281
    0
 65
    1
110
0
120
0
130
0
111
1
121
0
131
0
112
0
122
1
132
0
 79
    0
146
0
348
10020
 60
    7
 61
    5
292
1
282
    1
141
0
142
0
 63
  250
421
3358443
  0
ENDTAB
  0
TABLE
  2
LTYPE
  5
5
330
0
100
AcDbSymbolTable
 70
    4
  0
LTYPE
  5
14
330
5
100
AcDbSymbolTableRecord
100
AcDbLinetypeTableRecord
  2
ByBlock
 70
    0
  3

 72
   65
 73
    0
 40
0
  0
LTYPE
  5
15
330
5
100
AcDbSymbolTableRecord
100
AcDbLinetypeTableRecord
  2
ByLayer
 70
    0
  3

 72
   65
 73
    0
 40
0
  0
LTYPE
  5
16
330
5
100
AcDbSymbolTableRecord
100
AcDbLinetypeTableRecord
  2
Continuous
 70
    0
  3
Solid line
 72
   65
 73
    0
 40
0
  0
LTYPE
  5
32
330
5
100
AcDbSymbolTableRecord
100
AcDbLinetypeTableRecord
  2
DOT
 70
    0
  3
Dot . . . . . . . . . . . . . . . . . . . . . .
 72
   65
 73
    2
 40
6.35
 49
0
 74
    0
 49
-6.35
 74
    0
  0
LTYPE
  5
33
330
5
100
AcDbSymbolTableRecord
100
AcDbLinetypeTableRecord
  2
DOTTINY
 70
    0
  3
Dot (.15x) .....................................
 72
   65
 73
    2
 40
0.9525
 49
0
 74
    0
 49
-0.9525
 74
    0
  0
LTYPE
  5
34
330
5
100
AcDbSymbolTableRecord
100
AcDbLinetypeTableRecord
  2
DOT2
 70
    0
  3
Dot (.5x) .....................................
 72
   65
 73
    2
 40
3.175
 49
0
 74
    0
 49
-3.175
 74
    0
  0
LTYPE
  5
35
330
5
100
AcDbSymbolTableRecord
100
AcDbLinetypeTableRecord
  2
DOTX2
 70
    0
  3
Dot (2x) .  .  .  .  .  .  .  .  .  .  .  .  .
 72
   65
 73
    2
 40
12.7
 49
0
 74
    0
 49
-12.7
 74
    0
  0
LTYPE
  5
36
330
5
100
AcDbSymbolTableRecord
100
AcDbLinetypeTableRecord
  2
DASHED
 70
    0
  3
Dashed _ _ _ _ _ _ _ _ _ _ _ _ _ _ _ _ _
 72
   65
 73
    2
 40
19.05
 49
12.7
 74
    0
 49
-6.35
 74
    0
  0
LTYPE
  5
37
330
5
100
AcDbSymbolTableRecord
100
AcDbLinetypeTableRecord
  2
DASHEDTINY
 70
    0
  3
Dashed (.15x) _ _ _ _ _ _ _ _ _ _ _ _ _ _ _ _ _
 72
   65
 73
    2
 40
2.8575
 49
1.905
 74
    0
 49
-0.9525
 74
    0
  0
LTYPE
  5
38
330
5
100
AcDbSymbolTableRecord
100
AcDbLinetypeTableRecord
  2
DASHED2
 70
    0
  3
Dashed (.5x) _ _ _ _ _ _ _ _ _ _ _ _ _ _ _ _ _
 72
   65
 73
    2
 40
9.524999999999999
 49
6.35
 74
    0
 49
-3.175
 74
    0
  0
LTYPE
  5
39
330
5
100
AcDbSymbolTableRecord
100
AcDbLinetypeTableRecord
  2
DASHEDX2
 70
    0
  3
Dashed (2x) ____  ____  ____  ____  ____  ___
 72
   65
 73
    2
 40
38.09999999999999
 49
25.4
 74
    0
 49
-12.7
 74
    0
  0
LTYPE
  5
3A
330
5
100
AcDbSymbolTableRecord
100
AcDbLinetypeTableRecord
  2
DASHDOT
 70
    0
  3
Dash dot __ . __ . __ . __ . __ . __ . __ . __
 72
   65
 73
    4
 40
25.4
 49
12.7
 74
    0
 49
-6.35
 74
    0
 49
0
 74
    0
 49
-6.35
 74
    0
  0
LTYPE
  5
3B
330
5
100
AcDbSymbolTableRecord
100
AcDbLinetypeTableRecord
  2
DASHDOTTINY
 70
    0
  3
Dash dot (.15x) _._._._._._._._._._._._._._._.
 72
   65
 73
    4
 40
3.81
 49
1.905
 74
    0
 49
-0.9525
 74
    0
 49
0
 74
    0
 49
-0.9525
 74
    0
  0
LTYPE
  5
3C
330
5
100
AcDbSymbolTableRecord
100
AcDbLinetypeTableRecord
  2
DASHDOT2
 70
    0
  3
Dash dot (.5x) _._._._._._._._._._._._._._._.
 72
   65
 73
    4
 40
12.7
 49
6.35
 74
    0
 49
-3.175
 74
    0
 49
0
 74
    0
 49
-3.175
 74
    0
  0
LTYPE
  5
3D
330
5
100
AcDbSymbolTableRecord
100
AcDbLinetypeTableRecord
  2
DASHDOTX2
 70
    0
  3
Dash dot (2x) ____  .  ____  .  ____  .  ___
 72
   65
 73
    4
 40
50.8
 49
25.4
 74
    0
 49
-12.7
 74
    0
 49
0
 74
    0
 49
-12.7
 74
    0
  0
LTYPE
  5
3E
330
5
100
AcDbSymbolTableRecord
100
AcDbLinetypeTableRecord
  2
DIVIDE
 70
    0
  3
Divide ____ . . ____ . . ____ . . ____ . . ____
 72
   65
 73
    6
 40
31.75
 49
12.7
 74
    0
 49
-6.35
 74
    0
 49
0
 74
    0
 49
-6.35
 74
    0
 49
0
 74
    0
 49
-6.35
 74
    0
  0
LTYPE
  5
3F
330
5
100
AcDbSymbolTableRecord
100
AcDbLinetypeTableRecord
  2
DIVIDETINY
 70
    0
  3
Divide (.15x) __..__..__..__..__..__..__..__.._
 72
   65
 73
    6
 40
4.7625
 49
1.905
 74
    0
 49
-0.9525
 74
    0
 49
0
 74
    0
 49
-0.9525
 74
    0
 49
0
 74
    0
 49
-0.9525
 74
    0
  0
LTYPE
  5
40
330
5
100
AcDbSymbolTableRecord
100
AcDbLinetypeTableRecord
  2
DIVIDE2
 70
    0
  3
Divide (.5x) __..__..__..__..__..__..__..__.._
 72
   65
 73
    6
 40
15.875
 49
6.35
 74
    0
 49
-3.175
 74
    0
 49
0
 74
    0
 49
-3.175
 74
    0
 49
0
 74
    0
 49
-3.175
 74
    0
  0
LTYPE
  5
41
330
5
100
AcDbSymbolTableRecord
100
AcDbLinetypeTableRecord
  2
DIVIDEX2
 70
    0
  3
Divide (2x) ________  .  .  ________  .  .  _
 72
   65
 73
    6
 40
63.5
 49
25.4
 74
    0
 49
-12.7
 74
    0
 49
0
 74
    0
 49
-12.7
 74
    0
 49
0
 74
    0
 49
-12.7
 74
    0
  0
LTYPE
  5
42
330
5
100
AcDbSymbolTableRecord
100
AcDbLinetypeTableRecord
  2
BORDER
 70
    0
  3
Border __ __ . __ __ . __ __ . __ __ . __ __ .
 72
   65
 73
    6
 40
44.45
 49
12.7
 74
    0
 49
-6.35
 74
    0
 49
12.7
 74
    0
 49
-6.35
 74
    0
 49
0
 74
    0
 49
-6.35
 74
    0
  0
LTYPE
  5
43
330
5
100
AcDbSymbolTableRecord
100
AcDbLinetypeTableRecord
  2
BORDERTINY
 70
    0
  3
Border (.15x) __.__.__.__.__.__.__.__.__.__.__.
 72
   65
 73
    6
 40
6.6675
 49
1.905
 74
    0
 49
-0.9525
 74
    0
 49
1.905
 74
    0
 49
-0.9525
 74
    0
 49
0
 74
    0
 49
-0.9525
 74
    0
  0
LTYPE
  5
44
330
5
100
AcDbSymbolTableRecord
100
AcDbLinetypeTableRecord
  2
BORDER2
 70
    0
  3
Border (.5x) __.__.__.__.__.__.__.__.__.__.__.
 72
   65
 73
    6
 40
22.225
 49
6.35
 74
    0
 49
-3.175
 74
    0
 49
6.35
 74
    0
 49
-3.175
 74
    0
 49
0
 74
    0
 49
-3.175
 74
    0
  0
LTYPE
  5
45
330
5
100
AcDbSymbolTableRecord
100
AcDbLinetypeTableRecord
  2
BORDERX2
 70
    0
  3
Border (2x) ____  ____  .  ____  ____  .  ___
 72
   65
 73
    6
 40
88.89999999999999
 49
25.4
 74
    0
 49
-12.7
 74
    0
 49
25.4
 74
    0
 49
-12.7
 74
    0
 49
0
 74
    0
 49
-12.7
 74
    0
  0
LTYPE
  5
46
330
5
100
AcDbSymbolTableRecord
100
AcDbLinetypeTableRecord
  2
CENTER
 70
    0
  3
Center ____ _ ____ _ ____ _ ____ _ ____ _ ____
 72
   65
 73
    4
 40
50.8
 49
31.75
 74
    0
 49
-6.35
 74
    0
 49
6.35
 74
    0
 49
-6.35
 74
    0
  0
LTYPE
  5
47
330
5
100
AcDbSymbolTableRecord
100
AcDbLinetypeTableRecord
  2
CENTERTINY
 70
    0
  3
Center (.15x) ___ _ ___ _ ___ _ ___ _ ___ _ ___
 72
   65
 73
    4
 40
7.619999999999999
 49
4.7625
 74
    0
 49
-0.9525
 74
    0
 49
0.9525
 74
    0
 49
-0.9525
 74
    0
  0
LTYPE
  5
48
330
5
100
AcDbSymbolTableRecord
100
AcDbLinetypeTableRecord
  2
CENTER2
 70
    0
  3
Center (.5x) ___ _ ___ _ ___ _ ___ _ ___ _ ___
 72
   65
 73
    4
 40
28.575
 49
19.05
 74
    0
 49
-3.175
 74
    0
 49
3.175
 74
    0
 49
-3.175
 74
    0
  0
LTYPE
  5
49
330
5
100
AcDbSymbolTableRecord
100
AcDbLinetypeTableRecord
  2
CENTERX2
 70
    0
  3
Center (2x) ________  __  ________  __  _____
 72
   65
 73
    4
 40
101.6
 49
63.5
 74
    0
 49
-12.7
 74
    0
 49
12.7
 74
    0
 49
-12.7
 74
    0
  0
ENDTAB
  0
TABLE
  2
LAYER
  5
2
330
0
100
AcDbSymbolTable
 70
    1
  0
LAYER
  5
10
330
2
100
AcDbSymbolTableRecord
100
AcDbLayerTableRecord
  2
0
 70
    4
 62
    7
  6
CONTINUOUS
370
    0
390
F
  0
LAYER
  5
4A
330
2
100
AcDbSymbolTableRecord
100
AcDbLayerTableRecord
  2
ajour
 70
    4
 62
    3
  6
CONTINUOUS
370
    0
390
F
  0
LAYER
  5
4B
330
2
100
AcDbSymbolTableRecord
100
AcDbLayerTableRecord
  2
edge
 70
    4
 62
    2
  6
CONTINUOUS
370
    0
390
F
  0
LAYER
  5
4C
330
2
100
AcDbSymbolTableRecord
100
AcDbLayerTableRecord
  2
ext1
 70
    4
 62
  160
420
2510591
  6
CONTINUOUS
370
    0
390
F
  0
LAYER
  5
4D
330
2
100
AcDbSymbolTableRecord
100
AcDbLayerTableRecord
  2
ext2
 70
    4
 62
    5
  6
CONTINUOUS
370
    0
390
F
  0
LAYER
  5
4E
330
2
100
AcDbSymbolTableRecord
100
AcDbLayerTableRecord
  2
ext3
 70
    4
 62
  176
420
  128
  6
CONTINUOUS
370
    0
390
F
  0
LAYER
  5
4F
330
2
100
AcDbSymbolTableRecord
100
AcDbLayerTableRecord
  2
int
 70
    4
 62
  136
420
32896
  6
CONTINUOUS
370
    0
390
F
  0
LAYER
  5
50
330
2
100
AcDbSymbolTableRecord
100
AcDbLayerTableRecord
  2
mx
 70
    4
 62
    8
  6
CONTINUOUS
370
    0
390
F
  0
LAYER
  5
51
330
2
100
AcDbSymbolTableRecord
100
AcDbLayerTableRecord
  2
percage
 70
    4
 62
  136
420
32896
  6
CONTINUOUS
370
    0
390
F
  0
LAYER
  5
52
330
2
100
AcDbSymbolTableRecord
100
AcDbLayerTableRecord
  2
placement
 70
    4
 62
    1
  6
CONTINUOUS
370
    0
390
F
  0
LAYER
  5
53
330
2
100
AcDbSymbolTableRecord
100
AcDbLayerTableRecord
  2
rpi
 70
    4
 62
    6
  6
CONTINUOUS
370
    0
390
F
  0
LAYER
  5
54
330
2
100
AcDbSymbolTableRecord
100
AcDbLayerTableRecord
  2
rpi-cut
 70
    4
 62
  211
420
16487423
  6
CONTINUOUS
370
    0
390
F
  0
LAYER
  5
55
330
2
100
AcDbSymbolTableRecord
100
AcDbLayerTableRecord
  2
up-cut
 70
    4
 62
  162
420
2377149
  6
CONTINUOUS
370
    0
390
F
  0
ENDTAB
  0
TABLE
  2
STYLE
  5
3
330
0
100
AcDbSymbolTable
 70
    3
  0
STYLE
  5
56
330
2
100
AcDbSymbolTableRecord
100
AcDbTextStyleTableRecord
  2
Standard
 70
    0
 40
0
 41
1
 50
0
 71
    0
 42
1
  3
txt
  4

  0
ENDTAB
  0
TABLE
  2
VIEW
  5
6
330
0
100
AcDbSymbolTable
 70
    0
  0
ENDTAB
  0
TABLE
  2
UCS
  5
7
330
0
100
AcDbSymbolTable
 70
    0
  0
ENDTAB
  0
TABLE
  2
APPID
  5
9
330
0
100
AcDbSymbolTable
 70
    1
  0
APPID
  5
12
330
9
100
AcDbSymbolTableRecord
100
AcDbRegAppTableRecord
  2
ACAD
 70
    0
  0
APPID
  5
57
330
9
100
AcDbSymbolTableRecord
100
AcDbRegAppTableRecord
  2
LibreCad
 70
    0
  0
ENDTAB
  0
TABLE
  2
DIMSTYLE
  5
A
330
0
100
AcDbSymbolTable
 70
    1
100
AcDbDimStyleTable
 71
    1
  0
DIMSTYLE
105
58
330
A
100
AcDbSymbolTableRecord
100
AcDbDimStyleTableRecord
  2
Standard
 70
    0
 40
1
 41
2.5
 42
0.625
 43
0.38
 44
1.25
 45
0
 46
0
 47
0
 48
0
 49
1
140
2.5
141
0.09
142
0
143
25.4
144
1
145
0
146
1
147
0.625
148
0
 71
    0
 72
    0
 73
    0
 74
    1
 75
    0
 76
    0
 77
    0
 78
    8
 79
    0
170
    0
171
    2
172
    0
173
    0
174
    0
175
    0
176
    0
177
    0
178
    0
179
    0
271
    2
272
    4
273
    2
274
    2
275
    0
276
    0
277
    2
278
   44
279
    0
280
    0
281
    0
282
    0
283
    1
284
    0
285
    0
286
    0
288
    0
289
    3
340
STANDARD
341

371
   -2
372
   -2
  0
ENDTAB
  0
TABLE
  2
BLOCK_RECORD
  5
1
330
0
100
AcDbSymbolTable
 70
    2
  0
BLOCK_RECORD
  5
1F
330
1
100
AcDbSymbolTableRecord
100
AcDbBlockTableRecord
  2
*Model_Space
 70
    0
280
    1
281
    0
  0
BLOCK_RECORD
  5
1E
330
1
100
AcDbSymbolTableRecord
100
AcDbBlockTableRecord
  2
*Paper_Space
 70
    0
280
    1
281
    0
  0
ENDTAB
  0
ENDSEC
  0
SECTION
  2
BLOCKS
  0
BLOCK
  5
20
330
1F
100
AcDbEntity
  8
0
100
AcDbBlockBegin
  2
*Model_Space
 70
    0
 10
0
 20
0
 30
0
  3
*Model_Space
  1

  0
ENDBLK
  5
21
330
1F
100
AcDbEntity
  8
0
100
AcDbBlockEnd
  0
BLOCK
  5
1C
330
1B
100
AcDbEntity
  8
0
100
AcDbBlockBegin
  2
*Paper_Space
 70
    0
 10
0
 20
0
 30
0
  3
*Paper_Space
  1

  0
ENDBLK
  5
1D
330
1F
100
AcDbEntity
  8
0
100
AcDbBlockEnd
  0
ENDSEC
  0
SECTION
  2
ENTITIES
  0
LINE
  5
59
100
AcDbEntity
  8
0
  6
ByLayer
 62
  256
370
   -1
100
AcDbLine
 10
-112.2338414883204
 20
24.59196570383257
 11
-112.2338414883204
 21
43.59196570383257
  0
LINE
  5
5A
100
AcDbEntity
  8
0
  6
ByLayer
 62
  256
370
   -1
100
AcDbLine
 10
-112.2338414883204
 20
24.59196570383257
 11
-93.23384148832041
 21
24.59196570383257
  0
LINE
  5
5B
100
AcDbEntity
  8
0
  6
ByLayer
 62
  256
370
   -1
100
AcDbLine
 10
-112.2338414883204
 20
43.59196570383257
 11
-93.23384148832041
 21
43.59196570383257
  0
LINE
  5
5C
100
AcDbEntity
  8
0
  6
ByLayer
 62
  256
370
   -1
100
AcDbLine
 10
-93.23384148832041
 20
24.59196570383257
 11
-93.23384148832041
 21
43.59196570383257
  0
LINE
  5
5D
100
AcDbEntity
  8
0
  6
ByLayer
 62
  256
370
   -1
100
AcDbLine
 10
-116.9852891560301
 20
24.50902887628967
 11
-116.9852891560301
 21
24.50902887628967
  0
LINE
  5
5E
100
AcDbEntity
  8
0
  6
ByLayer
 62
  256
370
   -1
100
AcDbLine
 10
-116.9852891560301
 20
24.50902887628967
 11
-116.9852891560301
 21
24.50902887628967
  0
LINE
  5
5F
100
AcDbEntity
  8
0
  6
ByLayer
 62
  256
370
   -1
100
AcDbLine
 10
-116.9852891560301
 20
24.50902887628967
 11
-116.9852891560301
 21
24.50902887628967
  0
LINE
  5
60
100
AcDbEntity
  8
0
  6
ByLayer
 62
  256
370
   -1
100
AcDbLine
 10
-93.23384148832041
 20
24.59196570383257
 11
-92.40507312837902
 21
43.57388191388787
  0
LINE
  5
61
100
AcDbEntity
  8
0
  6
ByLayer
 62
  256
370
   -1
100
AcDbLine
 10
-93.23384148832041
 20
24.59196570383257
 11
-74.25192527826511
 21
23.76319734389119
  0
LINE
  5
62
100
AcDbEntity
  8
0
  6
ByLayer
 62
  256
370
   -1
100
AcDbLine
 10
-92.40507312837902
 20
43.57388191388787
 11
-73.42315691832373
 21
42.74511355394649
  0
LINE
  5
63
100
AcDbEntity
  8
0
  6
ByLayer
 62
  256
370
   -1
100
AcDbLine
 10
-74.25192527826511
 20
23.76319734389119
 11
-73.42315691832373
 21
42.74511355394649
  0
LINE
  5
64
100
AcDbEntity
  8
0
  6
ByLayer
 62
  256
370
   -1
100
AcDbLine
 10
-74.25192527826509
 20
23.76319734389119
 11
-72.5959661660596
 21
42.69089660763436
  0
LINE
  5
65
100
AcDbEntity
  8
0
  6
ByLayer
 62
  256
370
   -1
100
AcDbLine
 10
-74.25192527826509
 20
23.76319734389119
 11
-55.32422601452193
 21
22.10723823168568
  0
LINE
  5
66
100
AcDbEntity
  8
0
  6
ByLayer
 62
  256
370
   -1
100
AcDbLine
 10
-72.5959661660596
 20
42.69089660763436
 11
-53.66826690231643
 21
41.03493749542885
  0
LINE
  5
67
100
AcDbEntity
  8
0
  6
ByLayer
 62
  256
370
   -1
100
AcDbLine
 10
-55.32422601452193
 20
22.10723823168568
 11
-53.66826690231643
 21
41.03493749542885
  0
LINE
  5
68
100
AcDbEntity
  8
0
  6
ByLayer
 62
  256
370
   -1
100
AcDbLine
 10
-55.32422601452192
 20
22.10723823168568
 11
-52.84422836234094
 21
40.94469059778808
  0
LINE
  5
69
100
AcDbEntity
  8
0
  6
ByLayer
 62
  256
370
   -1
100
AcDbLine
 10
-55.32422601452192
 20
22.10723823168568
 11
-36.48677364841951
 21
19.6272405795047
  0
LINE
  5
6A
100
AcDbEntity
  8
0
  6
ByLayer
 62
  256
370
   -1
100
AcDbLine
 10
-52.84422836234094
 20
40.94469059778808
 11
-34.00677599623853
 21
38.4646929456071
  0
LINE
  5
6B
100
AcDbEntity
  8
0
  6
ByLayer
 62
  256
370
   -1
100
AcDbLine
 10
-36.48677364841951
 20
19.6272405795047
 11
-34.00677599623853
 21
38.4646929456071
  0
LINE
  5
6C
100
AcDbEntity
  8
0
  6
ByLayer
 62
  256
370
   -1
100
AcDbLine
 10
-36.48677364841951
 20
19.6272405795047
 11
-33.18745827274782
 21
38.33858788673666
  0
LINE
  5
6D
100
AcDbEntity
  8
0
  6
ByLayer
 62
  256
370
   -1
100
AcDbLine
 10
-36.48677364841951
 20
19.6272405795047
 11
-17.77542634118755
 21
16.32792520383303
  0
LINE
  5
6E
100
AcDbEntity
  8
0
  6
ByLayer
 62
  256
370
   -1
100
AcDbLine
 10
-33.18745827274782
 20
38.33858788673666
 11
-14.47611096551587
 21
35.03927251106498
  0
LINE
  5
6F
100
AcDbEntity
  8
0
  6
ByLayer
 62
  256
370
   -1
100
AcDbLine
 10
-17.77542634118755
 20
16.32792520383303
 11
-14.47611096551587
 21
35.03927251106498
  0
LINE
  5
70
100
AcDbEntity
  8
0
  6
ByLayer
 62
  256
370
   -1
100
AcDbLine
 10
-89.64828468696886
 20
5.420212443831751
 11
-88.48836243580658
 21
24.38477361384723
  0
LINE
  5
71
100
AcDbEntity
  8
0
  6
ByLayer
 62
  256
370
   -1
100
AcDbLine
 10
-89.64828468696886
 20
5.420212443831751
 11
-70.68372351695339
 21
4.260290192669469
  0
LINE
  5
72
100
AcDbEntity
  8
0
  6
ByLayer
 62
  256
370
   -1
100
AcDbLine
 10
-88.48836243580658
 20
24.38477361384723
 11
-69.52380126579111
 21
23.22485136268494
  0
LINE
  5
73
100
AcDbEntity
  8
0
  6
ByLayer
 62
  256
370
   -1
100
AcDbLine
 10
-70.68372351695339
 20
4.260290192669469
 11
-69.52380126579111
 21
23.22485136268494
  0
LINE
  5
74
100
AcDbEntity
  8
0
  6
ByLayer
 62
  256
370
   -1
100
AcDbLine
 10
-70.68372351695338
 20
4.260290192669469
 11
-68.69768271486795
 21
23.15620620466667
  0
LINE
  5
75
100
AcDbEntity
  8
0
  6
ByLayer
 62
  256
370
   -1
100
AcDbLine
 10
-70.68372351695338
 20
4.260290192669469
 11
-51.78780750495619
 21
2.274249390584053
  0
LINE
  5
76
100
AcDbEntity
  8
0
  6
ByLayer
 62
  256
370
   -1
100
AcDbLine
 10
-68.69768271486795
 20
23.15620620466667
 11
-49.80176670287076
 21
21.17016540258125
  0
LINE
  5
77
100
AcDbEntity
  8
0
  6
ByLayer
 62
  256
370
   -1
100
AcDbLine
 10
-51.78780750495619
 20
2.274249390584053
 11
-49.80176670287076
 21
21.17016540258125
  0
LINE
  5
78
100
AcDbEntity
  8
0
  6
ByLayer
 62
  256
370
   -1
100
AcDbLine
 10
-51.78780750495618
 20
2.274249390584053
 11
-48.97942869349356
 21
21.06555079446048
  0
LINE
  5
79
100
AcDbEntity
  8
0
  6
ByLayer
 62
  256
370
   -1
100
AcDbLine
 10
-51.78780750495618
 20
2.274249390584053
 11
-32.99650610107975
 21
-0.5341294208785501
  0
LINE
  5
7A
100
AcDbEntity
  8
0
  6
ByLayer
 62
  256
370
   -1
100
AcDbLine
 10
-48.97942869349356
 20
21.06555079446048
 11
-30.18812728961714
 21
18.25717198299787
  0
LINE
  5
7B
100
AcDbEntity
  8
0
  6
ByLayer
 62
  256
370
   -1
100
AcDbLine
 10
-32.99650610107975
 20
-0.5341294208785501
 11
-30.18812728961714
 21
18.25717198299787
  0
LINE
  5
7C
100
AcDbEntity
  8
0
  6
ByLayer
 62
  256
370
   -1
100
AcDbLine
 10
-32.99650610107975
 20
-0.5341294208785501
 11
-29.37113518892538
 21
18.11678706462707
  0
LINE
  5
7D
100
AcDbEntity
  8
0
  6
ByLayer
 62
  256
370
   -1
100
AcDbLine
 10
-32.99650610107975
 20
-0.5341294208785501
 11
-14.34558961557413
 21
-4.159500333032902
  0
LINE
  5
7E
100
AcDbEntity
  8
0
  6
ByLayer
 62
  256
370
   -1
100
AcDbLine
 10
-29.37113518892538
 20
18.11678706462707
 11
-10.72021870341976
 21
14.49141615247271
  0
LINE
  5
7F
100
AcDbEntity
  8
0
  6
ByLayer
 62
  256
370
   -1
100
AcDbLine
 10
-14.34558961557413
 20
-4.159500333032902
 11
-10.72021870341976
 21
14.49141615247271
  0
LINE
  5
80
100
AcDbEntity
  8
0
  6
ByLayer
 62
  256
370
   -1
100
AcDbLine
 10
-84.21177539109792
 20
5.05871922891609
 11
-84.2117753910979
 21
-13.94128077108391
  0
LINE
  5
81
100
AcDbEntity
  8
0
  6
ByLayer
 62
  256
370
   -1
100
AcDbLine
 10
-84.21958241446644
 20
-13.97800992828897
 11
-82.72885959563739
 21
4.963419412640469
  0
LINE
  5
82
100
AcDbEntity
  8
0
  6
ByLayer
 62
  256
370
   -1
100
AcDbLine
 10
-84.21958241446644
 20
-13.97800992828897
 11
-65.278153073537
 21
-15.46873274711801
  0
LINE
  5
83
100
AcDbEntity
  8
0
  6
ByLayer
 62
  256
370
   -1
100
AcDbLine
 10
-82.72885959563739
 20
4.963419412640469
 11
-63.78743025470796
 21
3.472696593811417
  0
LINE
  5
84
100
AcDbEntity
  8
0
  6
ByLayer
 62
  256
370
   -1
100
AcDbLine
 10
-65.278153073537
 20
-15.46873274711801
 11
-63.78743025470796
 21
3.472696593811417
  0
LINE
  5
85
100
AcDbEntity
  8
0
  6
ByLayer
 62
  256
370
   -1
100
AcDbLine
 10
-65.27815307353698
 20
-15.46873274711801
 11
-62.96263554883917
 21
3.389644134067105
  0
LINE
  5
86
100
AcDbEntity
  8
0
  6
ByLayer
 62
  256
370
   -1
100
AcDbLine
 10
-65.27815307353698
 20
-15.46873274711801
 11
-46.41977619235189
 21
-17.78425027181582
  0
LINE
  5
87
100
AcDbEntity
  8
0
  6
ByLayer
 62
  256
370
   -1
100
AcDbLine
 10
-62.96263554883917
 20
3.389644134067105
 11
-44.10425866765405
 21
1.074126609369298
  0
LINE
  5
88
100
AcDbEntity
  8
0
  6
ByLayer
 62
  256
370
   -1
100
AcDbLine
 10
-46.41977619235189
 20
-17.78425027181582
 11
-44.10425866765405
 21
1.074126609369298
  0
LINE
  5
89
100
AcDbEntity
  8
0
  6
ByLayer
 62
  256
370
   -1
100
AcDbLine
 10
-46.41977619235186
 20
-17.78425027181582
 11
-43.28387168099897
 21
0.9551761573915767
  0
LINE
  5
8A
100
AcDbEntity
  8
0
  6
ByLayer
 62
  256
370
   -1
100
AcDbLine
 10
-46.41977619235186
 20
-17.78425027181582
 11
-27.68034976314445
 21
-20.92015478316869
  0
LINE
  5
8B
100
AcDbEntity
  8
0
  6
ByLayer
 62
  256
370
   -1
100
AcDbLine
 10
-43.28387168099897
 20
0.9551761573915767
 11
-24.54444525179156
 21
-2.1807283539613
  0
LINE
  5
8C
100
AcDbEntity
  8
0
  6
ByLayer
 62
  256
370
   -1
100
AcDbLine
 10
-27.68034976314445
 20
-20.92015478316869
 11
-24.54444525179156
 21
-2.1807283539613
  0
LINE
  5
8D
100
AcDbEntity
  8
0
  6
ByLayer
 62
  256
370
   -1
100
AcDbLine
 10
-27.68034976314445
 20
-20.92015478316869
 11
-23.73002763760701
 21
-2.335350369226386
  0
LINE
  5
8E
100
AcDbEntity
  8
0
  6
ByLayer
 62
  256
370
   -1
100
AcDbLine
 10
-27.68034976314445
 20
-20.92015478316869
 11
-9.095545349202155
 21
-24.87047690870613
  0
LINE
  5
8F
100
AcDbEntity
  8
0
  6
ByLayer
 62
  256
370
   -1
100
AcDbLine
 10
-23.73002763760701
 20
-2.335350369226386
 11
-5.145223223664701
 21
-6.285672494763823
  0
LINE
  5
90
100
AcDbEntity
  8
0
  6
ByLayer
 62
  256
370
   -1
100
AcDbLine
 10
-9.095545349202155
 20
-24.87047690870613
 11
-5.145223223664701
 21
-6.285672494763823
  0
LINE
  5
91
100
AcDbEntity
  8
0
  6
ByLayer
 62
  256
370
   -1
100
AcDbLine
 10
-84.21177539109792
 20
5.05871922891609
 11
-117.4617753910979
 21
5.058719228916093
  0
LINE
  5
92
100
AcDbEntity
  8
0
  6
ByLayer
 62
  256
370
   -1
100
AcDbLine
 10
-117.4617753910979
 20
-13.9412807710839
 11
-84.2117753910979
 21
-13.94128077108391
  0
LINE
  5
93
100
AcDbEntity
  8
0
  6
ByLayer
 62
  256
370
   -1
100
AcDbLine
 10
-117.4617753910979
 20
5.058719228916093
 11
-117.4617753910979
 21
-13.9412807710839
  0
LINE
  5
94
100
AcDbEntity
  8
0
  6
ByLayer
 62
  256
370
   -1
100
AcDbLine
 10
-52.5423698044769
 20
-17.03249030356411
 11
-54.56368013339191
 21
-35.92466605317594
  0
LINE
  5
95
100
AcDbEntity
  8
0
  6
ByLayer
 62
  256
370
   -1
100
AcDbLine
 10
-54.56368013339191
 20
-35.92466605317594
 11
-73.45300294905248
 21
-33.90366096516806
  0
LINE
  5
96
100
AcDbEntity
  8
0
  6
ByLayer
 62
  256
370
   -1
100
AcDbLine
 10
-73.45300294905248
 20
-33.90366096516806
 11
-71.43169262013747
 21
-15.01148521555623
  0
LINE
  5
97
100
AcDbEntity
  8
0
  6
ByLayer
 62
  256
370
   -1
100
AcDbLine
 10
-71.43169262013747
 20
-15.01148521555623
 11
-52.5423698044769
 21
-17.03249030356411
  0
LINE
  5
98
100
AcDbEntity
  8
0
  6
ByLayer
 62
  256
370
   -1
100
AcDbLine
 10
-54.56375671015054
 20
-35.92465209258071
 11
-12.5069522430169
 21
-43.59196570383257
  0
LINE
  5
99
100
AcDbEntity
  8
0
  6
ByLayer
 62
  256
370
   -1
100
AcDbLine
 10
-9.098796764396909
 20
-24.9001365736069
 11
-51.15541229463926
 21
-17.23178674903947
  0
LINE
  5
9A
100
AcDbEntity
  8
0
  6
ByLayer
 62
  256
370
   -1
100
AcDbLine
 10
-51.15541229463926
 20
-17.23178674903947
 11
-54.56375671015054
 21
-35.92465209258071
  0
LINE
  5
9B
100
AcDbEntity
  8
0
  6
ByLayer
 62
  256
370
   -1
100
AcDbLine
 10
-9.098796764396909
 20
-24.9001365736069
 11
-12.5069522430169
 21
-43.59196570383257
  0
LINE
  5
9C
100
AcDbEntity
  8
0
  6
ByLayer
 62
  256
370
   -1
100
AcDbLine
 10
-90.85884148832041
 20
-13.9412807710839
 11
-90.85884148832041
 21
-32.94128077108391
  0
LINE
  5
9D
100
AcDbEntity
  8
0
  6
ByLayer
 62
  256
370
   -1
100
AcDbLine
 10
-114.6088414883204
 20
-32.94128077108391
 11
-90.85884148832041
 21
-32.94128077108391
  0
LINE
  5
9E
100
AcDbEntity
  8
0
  6
ByLayer
 62
  256
370
   -1
100
AcDbLine
 10
-114.6088414883204
 20
-13.9412807710839
 11
-114.6088414883204
 21
-32.94128077108391
  0
LINE
  5
9F
100
AcDbEntity
  8
0
  6
ByLayer
 62
  256
370
   -1
100
AcDbLine
 10
-114.6088414883204
 20
24.32534246637433
 11
-90.85884148832041
 21
24.32534246637433
  0
LINE
  5
A0
100
AcDbEntity
  8
0
  6
ByLayer
 62
  256
370
   -1
100
AcDbLine
 10
-90.85884148832041
 20
24.32534246637433
 11
-90.85884148832041
 21
5.325342466374334
  0
LINE
  5
A1
100
AcDbEntity
  8
0
  6
ByLayer
 62
  256
370
   -1
100
AcDbLine
 10
-114.6088414883204
 20
24.32534246637433
 11
-114.6088414883204
 21
5.325342466374334
  0
LINE
  5
A2
100
AcDbEntity
  8
0
  6
ByLayer
 62
  256
370
   -1
100
AcDbLine
 10
-114.6088414883204
 20
5.325342466374334
 11
-90.85884148832041
 21
5.325342466374334
  0
LINE
  5
A3
100
AcDbEntity
  8
0
  6
ByLayer
 62
  256
370
   -1
100
AcDbLine
 10
121.7352891560302
 20
24.50902887628967
 11
121.7352891560302
 21
24.50902887628967
  0
LINE
  5
A4
100
AcDbEntity
  8
0
  6
ByLayer
 62
  256
370
   -1
100
AcDbLine
 10
121.7352891560302
 20
24.50902887628967
 11
121.7352891560302
 21
24.50902887628967
  0
LINE
  5
A5
100
AcDbEntity
  8
0
  6
ByLayer
 62
  256
370
   -1
100
AcDbLine
 10
121.7352891560302
 20
24.50902887628967
 11
121.7352891560302
 21
24.50902887628967
  0
LINE
  5
A6
100
AcDbEntity
  8
0
  6
ByLayer
 62
  256
370
   -1
100
AcDbLine
 10
94.39828468696901
 20
5.420212443831758
 11
93.23836243580671
 21
24.38477361384724
  0
LINE
  5
A7
100
AcDbEntity
  8
0
  6
ByLayer
 62
  256
370
   -1
100
AcDbLine
 10
94.39828468696901
 20
5.420212443831758
 11
75.43372351695352
 21
4.260290192669476
  0
LINE
  5
A8
100
AcDbEntity
  8
0
  6
ByLayer
 62
  256
370
   -1
100
AcDbLine
 10
93.23836243580671
 20
24.38477361384724
 11
74.27380126579122
 21
23.22485136268494
  0
LINE
  5
A9
100
AcDbEntity
  8
0
  6
ByLayer
 62
  256
370
   -1
100
AcDbLine
 10
75.43372351695352
 20
4.260290192669476
 11
74.27380126579122
 21
23.22485136268494
  0
LINE
  5
AA
100
AcDbEntity
  8
0
  6
ByLayer
 62
  256
370
   -1
100
AcDbLine
 10
75.43372351695352
 20
4.260290192669476
 11
73.44768271486809
 21
23.15620620466667
  0
LINE
  5
AB
100
AcDbEntity
  8
0
  6
ByLayer
 62
  256
370
   -1
100
AcDbLine
 10
75.43372351695352
 20
4.260290192669476
 11
56.53780750495632
 21
2.27424939058406
  0
LINE
  5
AC
100
AcDbEntity
  8
0
  6
ByLayer
 62
  256
370
   -1
100
AcDbLine
 10
73.44768271486809
 20
23.15620620466667
 11
54.55176670287089
 21
21.17016540258125
  0
LINE
  5
AD
100
AcDbEntity
  8
0
  6
ByLayer
 62
  256
370
   -1
100
AcDbLine
 10
56.53780750495632
 20
2.27424939058406
 11
54.55176670287089
 21
21.17016540258125
  0
LINE
  5
AE
100
AcDbEntity
  8
0
  6
ByLayer
 62
  256
370
   -1
100
AcDbLine
 10
56.53780750495632
 20
2.27424939058406
 11
53.72942869349366
 21
21.06555079446048
  0
LINE
  5
AF
100
AcDbEntity
  8
0
  6
ByLayer
 62
  256
370
   -1
100
AcDbLine
 10
56.53780750495632
 20
2.27424939058406
 11
37.74650610107987
 21
-0.534129420878543
  0
LINE
  5
B0
100
AcDbEntity
  8
0
  6
ByLayer
 62
  256
370
   -1
100
AcDbLine
 10
53.72942869349366
 20
21.06555079446048
 11
34.93812728961727
 21
18.25717198299788
  0
LINE
  5
B1
100
AcDbEntity
  8
0
  6
ByLayer
 62
  256
370
   -1
100
AcDbLine
 10
37.74650610107987
 20
-0.534129420878543
 11
34.93812728961727
 21
18.25717198299788
  0
LINE
  5
B2
100
AcDbEntity
  8
0
  6
ByLayer
 62
  256
370
   -1
100
AcDbLine
 10
37.74650610107987
 20
-0.534129420878543
 11
34.12113518892549
 21
18.11678706462708
  0
LINE
  5
B3
100
AcDbEntity
  8
0
  6
ByLayer
 62
  256
370
   -1
100
AcDbLine
 10
37.74650610107987
 20
-0.534129420878543
 11
19.09558961557427
 21
-4.159500333032895
  0
LINE
  5
B4
100
AcDbEntity
  8
0
  6
ByLayer
 62
  256
370
   -1
100
AcDbLine
 10
34.12113518892549
 20
18.11678706462708
 11
15.47021870341987
 21
14.49141615247272
  0
LINE
  5
B5
100
AcDbEntity
  8
0
  6
ByLayer
 62
  256
370
   -1
100
AcDbLine
 10
19.09558961557427
 20
-4.159500333032895
 11
15.47021870341987
 21
14.49141615247272
  0
LINE
  5
B6
100
AcDbEntity
  8
0
  6
ByLayer
 62
  256
370
   -1
100
AcDbLine
 10
88.96177539109804
 20
5.058719228916097
 11
88.96177539109804
 21
-13.94128077108389
  0
LINE
  5
B7
100
AcDbEntity
  8
0
  6
ByLayer
 62
  256
370
   -1
100
AcDbLine
 10
88.96958241446656
 20
-13.97800992828897
 11
87.4788595956375
 21
4.963419412640476
  0
LINE
  5
B8
100
AcDbEntity
  8
0
  6
ByLayer
 62
  256
370
   -1
100
AcDbLine
 10
88.96958241446656
 20
-13.97800992828897
 11
70.0281530735371
 21
-15.46873274711801
  0
LINE
  5
B9
100
AcDbEntity
  8
0
  6
ByLayer
 62
  256
370
   -1
100
AcDbLine
 10
87.4788595956375
 20
4.963419412640476
 11
68.5374302547081
 21
3.472696593811424
  0
LINE
  5
BA
100
AcDbEntity
  8
0
  6
ByLayer
 62
  256
370
   -1
100
AcDbLine
 10
70.0281530735371
 20
-15.46873274711801
 11
68.5374302547081
 21
3.472696593811424
  0
LINE
  5
BB
100
AcDbEntity
  8
0
  6
ByLayer
 62
  256
370
   -1
100
AcDbLine
 10
70.0281530735371
 20
-15.46873274711801
 11
67.71263554883932
 21
3.389644134067112
  0
LINE
  5
BC
100
AcDbEntity
  8
0
  6
ByLayer
 62
  256
370
   -1
100
AcDbLine
 10
70.0281530735371
 20
-15.46873274711801
 11
51.16977619235199
 21
-17.78425027181582
  0
LINE
  5
BD
100
AcDbEntity
  8
0
  6
ByLayer
 62
  256
370
   -1
100
AcDbLine
 10
67.71263554883932
 20
3.389644134067112
 11
48.85425866765415
 21
1.074126609369305
  0
LINE
  5
BE
100
AcDbEntity
  8
0
  6
ByLayer
 62
  256
370
   -1
100
AcDbLine
 10
51.16977619235199
 20
-17.78425027181582
 11
48.85425866765415
 21
1.074126609369305
  0
LINE
  5
BF
100
AcDbEntity
  8
0
  6
ByLayer
 62
  256
370
   -1
100
AcDbLine
 10
51.16977619235199
 20
-17.78425027181582
 11
48.03387168099907
 21
0.9551761573915838
  0
LINE
  5
C0
100
AcDbEntity
  8
0
  6
ByLayer
 62
  256
370
   -1
100
AcDbLine
 10
51.16977619235199
 20
-17.78425027181582
 11
32.43034976314458
 21
-20.92015478316869
  0
LINE
  5
C1
100
AcDbEntity
  8
0
  6
ByLayer
 62
  256
370
   -1
100
AcDbLine
 10
48.03387168099907
 20
0.9551761573915838
 11
29.29444525179166
 21
-2.180728353961292
  0
LINE
  5
C2
100
AcDbEntity
  8
0
  6
ByLayer
 62
  256
370
   -1
100
AcDbLine
 10
32.43034976314458
 20
-20.92015478316869
 11
29.29444525179166
 21
-2.180728353961292
  0
LINE
  5
C3
100
AcDbEntity
  8
0
  6
ByLayer
 62
  256
370
   -1
100
AcDbLine
 10
32.43034976314458
 20
-20.92015478316869
 11
28.48002763760711
 21
-2.335350369226379
  0
LINE
  5
C4
100
AcDbEntity
  8
0
  6
ByLayer
 62
  256
370
   -1
100
AcDbLine
 10
32.43034976314458
 20
-20.92015478316869
 11
13.8455453492023
 21
-24.87047690870613
  0
LINE
  5
C5
100
AcDbEntity
  8
0
  6
ByLayer
 62
  256
370
   -1
100
AcDbLine
 10
28.48002763760711
 20
-2.335350369226379
 11
9.895223223664829
 21
-6.285672494763809
  0
LINE
  5
C6
100
AcDbEntity
  8
0
  6
ByLayer
 62
  256
370
   -1
100
AcDbLine
 10
13.8455453492023
 20
-24.87047690870613
 11
9.895223223664829
 21
-6.285672494763809
  0
LINE
  5
C7
100
AcDbEntity
  8
0
  6
ByLayer
 62
  256
370
   -1
100
AcDbLine
 10
13.84879676439704
 20
-24.9001365736069
 11
17.25695224301704
 21
-43.59196570383257
  0
LINE
  5
C8
100
AcDbEntity
  8
0
  6
ByLayer
 62
  256
370
   -1
100
AcDbLine
 10
13.84879676439704
 20
-24.9001365736069
 11
51.22465816712837
 21
-18.08524724841633
  0
LINE
  5
C9
100
AcDbEntity
  8
0
  6
ByLayer
 62
  256
370
   -1
100
AcDbLine
 10
54.63298155462483
 20
-36.77799726504192
 11
17.25695224301704
 21
-43.59196570383257
  0
LINE
  5
CA
100
AcDbEntity
  8
0
  6
ByLayer
 62
  256
370
   -1
100
AcDbLine
 10
51.22465816712837
 20
-18.08524724841633
 11
54.63298155462483
 21
-36.77799726504192
  0
LINE
  5
CB
100
AcDbEntity
  8
0
  6
ByLayer
 62
  256
370
   -1
100
AcDbLine
 10
85.98752942873971
 20
24.48827096442488
 11
85.98752942873971
 21
43.48827096442488
  0
LINE
  5
CC
100
AcDbEntity
  8
0
  6
ByLayer
 62
  256
370
   -1
100
AcDbLine
 10
67.03855436147505
 20
23.09674521899988
 11
65.64702861605001
 21
42.04572028626458
  0
LINE
  5
CD
100
AcDbEntity
  8
0
  6
ByLayer
 62
  256
370
   -1
100
AcDbLine
 10
85.98752942873971
 20
24.48827096442488
 11
84.59600368331472
 21
43.43724603168958
  0
LINE
  5
CE
100
AcDbEntity
  8
0
  6
ByLayer
 62
  256
370
   -1
100
AcDbLine
 10
65.64702861605001
 20
42.04572028626458
 11
84.59600368331472
 21
43.43724603168958
  0
LINE
  5
CF
100
AcDbEntity
  8
0
  6
ByLayer
 62
  256
370
   -1
100
AcDbLine
 10
85.98752942873971
 20
24.48827096442488
 11
67.03855436147505
 21
23.09674521899988
  0
LINE
  5
D0
100
AcDbEntity
  8
0
  6
ByLayer
 62
  256
370
   -1
100
AcDbLine
 10
48.16831202024382
 20
20.88000121411256
 11
45.95156801535647
 21
39.75024355534379
  0
LINE
  5
D1
100
AcDbEntity
  8
0
  6
ByLayer
 62
  256
370
   -1
100
AcDbLine
 10
67.03855436147505
 20
23.09674521899988
 11
64.82181035658765
 21
41.96698756023112
  0
LINE
  5
D2
100
AcDbEntity
  8
0
  6
ByLayer
 62
  256
370
   -1
100
AcDbLine
 10
45.95156801535647
 20
39.75024355534379
 11
64.82181035658765
 21
41.96698756023112
  0
LINE
  5
D3
100
AcDbEntity
  8
0
  6
ByLayer
 62
  256
370
   -1
100
AcDbLine
 10
67.03855436147505
 20
23.09674521899988
 11
48.16831202024382
 21
20.88000121411256
  0
LINE
  5
D4
100
AcDbEntity
  8
0
  6
ByLayer
 62
  256
370
   -1
100
AcDbLine
 10
29.41272298385699
 20
17.8422586479677
 11
26.37498041771214
 21
36.59784768435446
  0
LINE
  5
D5
100
AcDbEntity
  8
0
  6
ByLayer
 62
  256
370
   -1
100
AcDbLine
 10
48.16831202024382
 20
20.88000121411256
 11
45.1305694540989
 21
39.63559025049933
  0
LINE
  5
D6
100
AcDbEntity
  8
0
  6
ByLayer
 62
  256
370
   -1
100
AcDbLine
 10
26.37498041771214
 20
36.59784768435446
 11
45.1305694540989
 21
39.63559025049933
  0
LINE
  5
D7
100
AcDbEntity
  8
0
  6
ByLayer
 62
  256
370
   -1
100
AcDbLine
 10
48.16831202024382
 20
20.88000121411256
 11
29.41272298385699
 21
17.8422586479677
  0
LINE
  5
D8
100
AcDbEntity
  8
0
  6
ByLayer
 62
  256
370
   -1
100
AcDbLine
 10
10.80748958204347
 20
13.98930003619394
 11
6.95453097026973
 21
32.59453343800748
  0
LINE
  5
D9
100
AcDbEntity
  8
0
  6
ByLayer
 62
  256
370
   -1
100
AcDbLine
 10
29.41272298385699
 20
17.84225864796767
 11
25.55976437208328
 21
36.44749204978122
  0
LINE
  5
DA
100
AcDbEntity
  8
0
  6
ByLayer
 62
  256
370
   -1
100
AcDbLine
 10
6.95453097026973
 20
32.59453343800748
 11
25.55976437208328
 21
36.44749204978122
  0
LINE
  5
DB
100
AcDbEntity
  8
0
  6
ByLayer
 62
  256
370
   -1
100
AcDbLine
 10
29.41272298385699
 20
17.84225864796767
 11
10.80748958204347
 21
13.98930003619394
  0
LINE
  5
DC
100
AcDbEntity
  8
0
  6
ByLayer
 62
  256
370
   -1
100
AcDbLine
 10
114.6088414883205
 20
-13.94128077108391
 11
114.6088414883205
 21
-32.94128077108391
  0
LINE
  5
DD
100
AcDbEntity
  8
0
  6
ByLayer
 62
  256
370
   -1
100
AcDbLine
 10
109.7375294287397
 20
24.4882709644248
 11
109.7375294287397
 21
43.48827096442487
  0
LINE
  5
DE
100
AcDbEntity
  8
0
  6
ByLayer
 62
  256
370
   -1
100
AcDbLine
 10
85.98752942873971
 20
24.48827096442515
 11
109.7375294287397
 21
24.4882709644248
  0
LINE
  5
DF
100
AcDbEntity
  8
0
  6
ByLayer
 62
  256
370
   -1
100
AcDbLine
 10
94.39828468696902
 20
24.27349509667048
 11
94.39828468696902
 21
5.273495096670466
  0
LINE
  5
E0
100
AcDbEntity
  8
0
  6
ByLayer
 62
  256
370
   -1
100
AcDbLine
 10
113.398284686969
 20
24.27349509667048
 11
113.398284686969
 21
5.273495096670462
  0
LINE
  5
E1
100
AcDbEntity
  8
0
  6
ByLayer
 62
  256
370
   -1
100
AcDbLine
 10
94.39828468696902
 20
24.27349509667048
 11
113.398284686969
 21
24.27349509667048
  0
LINE
  5
E2
100
AcDbEntity
  8
0
  6
ByLayer
 62
  256
370
   -1
100
AcDbLine
 10
113.398284686969
 20
5.273495096670462
 11
94.39828468696902
 21
5.273495096670466
  0
LINE
  5
E3
100
AcDbEntity
  8
0
  6
ByLayer
 62
  256
370
   -1
100
AcDbLine
 10
88.96177539109804
 20
5.058719228916097
 11
117.461775391098
 21
5.058719228916091
  0
LINE
  5
E4
100
AcDbEntity
  8
0
  6
ByLayer
 62
  256
370
   -1
100
AcDbLine
 10
90.85884148832052
 20
-13.9412807710839
 11
90.85884148832052
 21
-32.94128077108391
  0
LINE
  5
E5
100
AcDbEntity
  8
0
  6
ByLayer
 62
  256
370
   -1
100
AcDbLine
 10
90.85884148832052
 20
-32.94128077108391
 11
114.6088414883205
 21
-32.94128077108391
  0
LINE
  5
E6
100
AcDbEntity
  8
0
  6
ByLayer
 62
  256
370
   -1
100
AcDbLine
 10
52.08495879822305
 20
-17.94962558736201
 11
54.63298155462483
 21
-36.77799726504192
  0
LINE
  5
E7
100
AcDbEntity
  8
0
  6
ByLayer
 62
  256
370
   -1
100
AcDbLine
 10
54.63298155462483
 20
-36.77799726504192
 11
73.45850993349583
 21
-34.23035928912946
  0
LINE
  5
E8
100
AcDbEntity
  8
0
  6
ByLayer
 62
  256
370
   -1
100
AcDbLine
 10
73.45850993349583
 20
-34.23035928912946
 11
70.91048717709404
 21
-15.40198761144958
  0
LINE
  5
E9
100
AcDbEntity
  8
0
  6
ByLayer
 62
  256
370
   -1
100
AcDbLine
 10
70.91048717709404
 20
-15.40198761144958
 11
52.08495879822305
 21
-17.94962558736201
  0
ARC
  5
EA
100
AcDbEntity
  8
edge
  6
ByLayer
 62
  256
370
   -1
100
AcDbCircle
 10
115
 20
39.99999999999994
 40
5
100
AcDbArc
 50
0
 51
89.99999999999983
  0
LINE
  5
EB
100
AcDbEntity
  8
edge
  6
ByLayer
 62
  256
370
   -1
100
AcDbLine
 10
120
 20
39.99999999999994
 11
120
 21
-40.00000000000002
  0
ARC
  5
EC
100
AcDbEntity
  8
edge
  6
ByLayer
 62
  256
370
   -1
100
AcDbCircle
 10
115
 20
-40
 40
5
100
AcDbArc
 50
270.0000000000002
 51
359.9999999999997
  0
LINE
  5
ED
100
AcDbEntity
  8
edge
  6
ByLayer
 62
  256
370
   -1
100
AcDbLine
 10
-115
 20
-45
 11
115
 21
-45
  0
ARC
  5
EE
100
AcDbEntity
  8
edge
  6
ByLayer
 62
  256
370
   -1
100
AcDbCircle
 10
-115
 20
-40
 40
5
100
AcDbArc
 50
180
 51
270
  0
LINE
  5
EF
100
AcDbEntity
  8
edge
  6
ByLayer
 62
  256
370
   -1
100
AcDbLine
 10
-120
 20
40
 11
-120
 21
-40
  0
LINE
  5
F0
100
AcDbEntity
  8
edge
  6
ByLayer
 62
  256
370
   -1
100
AcDbLine
 10
-115
 20
45
 11
115
 21
44.99999999999994
  0
ARC
  5
F1
100
AcDbEntity
  8
edge
  6
ByLayer
 62
  256
370
   -1
100
AcDbCircle
 10
-115
 20
40
 40
5
100
AcDbArc
 50
90
 51
180
  0
CIRCLE
  5
F2
100
AcDbEntity
  8
percage
  6
ByLayer
 62
  256
370
   -1
100
AcDbCircle
 10
-115
 20
40
 40
1.1
  0
CIRCLE
  5
F3
100
AcDbEntity
  8
percage
  6
ByLayer
 62
  256
370
   -1
100
AcDbCircle
 10
-115
 20
-40
 40
1.1
  0
CIRCLE
  5
F4
100
AcDbEntity
  8
percage
  6
ByLayer
 62
  256
370
   -1
100
AcDbCircle
 10
115
 20
-40
 40
1.1
  0
CIRCLE
  5
F5
100
AcDbEntity
  8
percage
  6
ByLayer
 62
  256
370
   -1
100
AcDbCircle
 10
115
 20
39.99999999999994
 40
1.1
  0
LINE
  5
F6
100
AcDbEntity
  8
0
  6
ByLayer
 62
  256
370
   -1
100
AcDbLine
 10
-7.124999999999931
 20
-16.59978992675668
 11
-7.124999999999933
 21
-35.59978992675669
  0
LINE
  5
F7
100
AcDbEntity
  8
0
  6
ByLayer
 62
  256
370
   -1
100
AcDbLine
 10
-7.124999999999931
 20
-16.59978992675668
 11
11.87500000000007
 21
-16.59978992675668
  0
LINE
  5
F8
100
AcDbEntity
  8
0
  6
ByLayer
 62
  256
370
   -1
100
AcDbLine
 10
-7.124999999999933
 20
-35.59978992675669
 11
11.87500000000007
 21
-35.59978992675668
  0
LINE
  5
F9
100
AcDbEntity
  8
0
  6
ByLayer
 62
  256
370
   -1
100
AcDbLine
 10
11.87500000000007
 20
-35.59978992675668
 11
11.87500000000007
 21
-16.59978992675668
  0
CIRCLE
  5
FA
100
AcDbEntity
  8
percage
  6
ByLayer
 62
  256
370
   -1
100
AcDbCircle
 10
2.37500000000007
 20
-6.285672494763816
 40
1.1
  0
LINE
  5
FB
100
AcDbEntity
  8
0
  6
ByLayer
 62
  256
370
   -1
100
AcDbLine
 10
117.461775391098
 20
5.05871922891609
 11
117.461775391098
 21
-13.9412807710839
  0
LINE
  5
FC
100
AcDbEntity
  8
0
  6
ByLayer
 62
  256
370
   -1
100
AcDbLine
 10
88.96177539109804
 20
-13.9412807710839
 11
117.461775391098
 21
-13.9412807710839
  0
ARC
  5
FD
100
AcDbEntity
  8
int
  6
ByLayer
 62
  256
370
   -1
100
AcDbCircle
 10
2.37500000000007
 20
-6.285672494763816
 40
4.1
100
AcDbArc
 50
30.53672175557572
 51
147.5897508737443
  0
ARC
  5
FE
100
AcDbEntity
  8
int
  6
ByLayer
 62
  256
370
   -1
100
AcDbCircle
 10
-107.9707752916839
 20
-39
 40
3
100
AcDbArc
 50
188.0967497697953
 51
270
  0
ARC
  5
FF
100
AcDbEntity
  8
int
  6
ByLayer
 62
  256
370
   -1
100
AcDbCircle
 10
-114
 20
-32.9707752916845
 40
3
100
AcDbArc
 50
179.9999999999999
 51
261.9032502302039
  0
LINE
  5
100
100
AcDbEntity
  8
int
  6
ByLayer
 62
  256
370
   -1
100
AcDbLine
 10
-117
 20
32.97077529168394
 11
-117
 21
-32.9707752916845
  0
ARC
  5
101
100
AcDbEntity
  8
int
  6
ByLayer
 62
  256
370
   -1
100
AcDbCircle
 10
-114
 20
32.97077529168394
 40
3
100
AcDbArc
 50
98.09674976979538
 51
180
  0
ARC
  5
102
100
AcDbEntity
  8
int
  6
ByLayer
 62
  256
370
   -1
100
AcDbCircle
 10
-107.9707752916844
 20
39
 40
3
100
AcDbArc
 50
90
 51
171.9032502302042
  0
ARC
  5
103
100
AcDbEntity
  8
int
  6
ByLayer
 62
  256
370
   -1
100
AcDbCircle
 10
107.9707752916839
 20
38.99999999999995
 40
3
100
AcDbArc
 50
8.096749769795222
 51
89.99999999999946
  0
ARC
  5
104
100
AcDbEntity
  8
int
  6
ByLayer
 62
  256
370
   -1
100
AcDbCircle
 10
114
 20
32.97077529168389
 40
3
100
AcDbArc
 50
0
 51
81.90325023020458
  0
ARC
  5
105
100
AcDbEntity
  8
int
  6
ByLayer
 62
  256
370
   -1
100
AcDbCircle
 10
107.9707752916841
 20
-39
 40
3
100
AcDbArc
 50
270
 51
351.9032502302045
  0
LINE
  5
106
100
AcDbEntity
  8
int
  6
ByLayer
 62
  256
370
   -1
100
AcDbLine
 10
117
 20
32.97077529168389
 11
117
 21
-32.97077529168392
  0
ARC
  5
107
100
AcDbEntity
  8
int
  6
ByLayer
 62
  256
370
   -1
100
AcDbCircle
 10
114
 20
-32.97077529168392
 40
3
100
AcDbArc
 50
278.0967497697953
 51
0
  0
ARC
  5
108
100
AcDbEntity
  8
int
  6
ByLayer
 62
  256
370
   -1
100
AcDbCircle
 10
115
 20
-40
 40
4.1
100
AcDbArc
 50
98.09674976979531
 51
171.9032502302045
  0
ARC
  5
109
100
AcDbEntity
  8
int
  6
ByLayer
 62
  256
370
   -1
100
AcDbCircle
 10
115
 20
39.99999999999994
 40
4.1
100
AcDbArc
 50
188.0967497697953
 51
261.9032502302047
  0
ARC
  5
10A
100
AcDbEntity
  8
int
  6
ByLayer
 62
  256
370
   -1
100
AcDbCircle
 10
-115
 20
40
 40
4.1
100
AcDbArc
 50
278.0967497697953
 51
351.903250230204
  0
ARC
  5
10B
100
AcDbEntity
  8
int
  6
ByLayer
 62
  256
370
   -1
100
AcDbCircle
 10
-115
 20
-40
 40
4.1
100
AcDbArc
 50
8.096749769795348
 51
81.90325023020414
  0
LINE
  5
10C
100
AcDbEntity
  8
mx
  6
ByLayer
 62
  256
370
   -1
100
AcDbLine
 10
-109.7338414883204
 20
27.09196570383257
 11
-109.7338414883204
 21
41.09196570383257
  0
LINE
  5
10D
100
AcDbEntity
  8
mx
  6
ByLayer
 62
  256
370
   -1
100
AcDbLine
 10
-109.7338414883204
 20
41.09196570383257
 11
-95.73384148832041
 21
41.09196570383257
  0
LINE
  5
10E
100
AcDbEntity
  8
mx
  6
ByLayer
 62
  256
370
   -1
100
AcDbLine
 10
-109.7338414883204
 20
27.09196570383257
 11
-95.73384148832041
 21
27.09196570383257
  0
LINE
  5
10F
100
AcDbEntity
  8
mx
  6
ByLayer
 62
  256
370
   -1
100
AcDbLine
 10
-95.73384148832041
 20
27.09196570383257
 11
-95.73384148832041
 21
41.09196570383257
  0
LINE
  5
110
100
AcDbEntity
  8
mx
  6
ByLayer
 62
  256
370
   -1
100
AcDbLine
 10
-90.0165010428377
 20
40.96721289151988
 11
-76.02982594069171
 21
40.35654146840518
  0
LINE
  5
111
100
AcDbEntity
  8
mx
  6
ByLayer
 62
  256
370
   -1
100
AcDbLine
 10
-76.6404973638064
 20
26.36986636625917
 11
-76.02982594069171
 21
40.35654146840518
  0
LINE
  5
112
100
AcDbEntity
  8
mx
  6
ByLayer
 62
  256
370
   -1
100
AcDbLine
 10
-90.62717246595241
 20
26.98053778937388
 11
-90.0165010428377
 21
40.96721289151988
  0
LINE
  5
113
100
AcDbEntity
  8
mx
  6
ByLayer
 62
  256
370
   -1
100
AcDbLine
 10
-90.62717246595241
 20
26.98053778937388
 11
-76.6404973638064
 21
26.36986636625917
  0
LINE
  5
114
100
AcDbEntity
  8
mx
  6
ByLayer
 62
  256
370
   -1
100
AcDbLine
 10
-71.54354917616658
 20
26.03579473225141
 11
-70.32336877769937
 21
39.98252050553585
  0
LINE
  5
115
100
AcDbEntity
  8
mx
  6
ByLayer
 62
  256
370
   -1
100
AcDbLine
 10
-70.32336877769937
 20
39.98252050553585
 11
-56.37664300441494
 21
38.76234010706864
  0
LINE
  5
116
100
AcDbEntity
  8
mx
  6
ByLayer
 62
  256
370
   -1
100
AcDbLine
 10
-71.54354917616658
 20
26.03579473225141
 11
-57.59682340288215
 21
24.81561433378419
  0
LINE
  5
117
100
AcDbEntity
  8
mx
  6
ByLayer
 62
  256
370
   -1
100
AcDbLine
 10
-57.59682340288215
 20
24.81561433378419
 11
-56.37664300441494
 21
38.76234010706864
  0
LINE
  5
118
100
AcDbEntity
  8
mx
  6
ByLayer
 62
  256
370
   -1
100
AcDbLine
 10
-52.51929838053727
 20
24.25953490457008
 11
-50.69193168945655
 21
38.13976296380343
  0
LINE
  5
119
100
AcDbEntity
  8
mx
  6
ByLayer
 62
  256
370
   -1
100
AcDbLine
 10
-50.69193168945655
 20
38.13976296380343
 11
-36.81170363022319
 21
36.31239627272271
  0
LINE
  5
11A
100
AcDbEntity
  8
mx
  6
ByLayer
 62
  256
370
   -1
100
AcDbLine
 10
-52.51929838053727
 20
24.25953490457008
 11
-38.6390703213039
 21
22.43216821348936
  0
LINE
  5
11B
100
AcDbEntity
  8
mx
  6
ByLayer
 62
  256
370
   -1
100
AcDbLine
 10
-38.6390703213039
 20
22.43216821348936
 11
-36.81170363022319
 21
36.31239627272271
  0
LINE
  5
11C
100
AcDbEntity
  8
mx
  6
ByLayer
 62
  256
370
   -1
100
AcDbLine
 10
-31.15955933438462
 20
35.44244806003881
 11
-17.37225079221372
 21
33.01137357270179
  0
LINE
  5
11D
100
AcDbEntity
  8
mx
  6
ByLayer
 62
  256
370
   -1
100
AcDbLine
 10
-19.80332527955074
 20
19.22406503053087
 11
-17.37225079221372
 21
33.01137357270179
  0
LINE
  5
11E
100
AcDbEntity
  8
mx
  6
ByLayer
 62
  256
370
   -1
100
AcDbLine
 10
-33.59063382172167
 20
21.6551395178679
 11
-31.15955933438462
 21
35.44244806003881
  0
LINE
  5
11F
100
AcDbEntity
  8
mx
  6
ByLayer
 62
  256
370
   -1
100
AcDbLine
 10
-33.59063382172167
 20
21.6551395178679
 11
-19.80332527955074
 21
19.22406503053087
  0
LINE
  5
120
100
AcDbEntity
  8
0
  6
ByLayer
 62
  256
370
   -1
100
AcDbLine
 10
85.98752942873971
 20
43.48827096442488
 11
109.7375294287397
 21
43.48827096442487
  0
LINE
  5
121
100
AcDbEntity
  8
mx
  6
ByLayer
 62
  256
370
   -1
100
AcDbLine
 10
96.89828468696902
 20
21.77349509667048
 11
110.898284686969
 21
21.77349509667048
  0
LINE
  5
122
100
AcDbEntity
  8
mx
  6
ByLayer
 62
  256
370
   -1
100
AcDbLine
 10
90.89564678858919
 20
21.73681526895543
 11
76.92175961068303
 21
20.88213571546742
  0
LINE
  5
123
100
AcDbEntity
  8
mx
  6
ByLayer
 62
  256
370
   -1
100
AcDbLine
 10
51.6264125629129
 20
18.22348760823166
 11
37.78019047584608
 21
16.15415585241712
  0
LINE
  5
124
100
AcDbEntity
  8
mx
  6
ByLayer
 62
  256
370
   -1
100
AcDbLine
 10
71.22269913461653
 20
20.40858030807686
 11
57.29939259946072
 21
18.9451818223297
  0
LINE
  5
125
100
AcDbEntity
  8
mx
  6
ByLayer
 62
  256
370
   -1
100
AcDbLine
 10
32.1440897187477
 20
15.18569661756656
 11
18.4013091504804
 21
12.51437068229493
  0
LINE
  5
126
100
AcDbEntity
  8
mx
  6
ByLayer
 62
  256
370
   -1
100
AcDbLine
 10
9.90955623521543
 20
30.65344464984435
 11
23.61867558392014
 21
33.49246678483553
  0
LINE
  5
127
100
AcDbEntity
  8
mx
  6
ByLayer
 62
  256
370
   -1
100
AcDbLine
 10
26.4576977189113
 20
19.7833474361308
 11
23.61867558392014
 21
33.49246678483553
  0
LINE
  5
128
100
AcDbEntity
  8
mx
  6
ByLayer
 62
  256
370
   -1
100
AcDbLine
 10
12.7485783702066
 20
16.94432530113963
 11
9.90955623521543
 21
30.65344464984435
  0
LINE
  5
129
100
AcDbEntity
  8
mx
  6
ByLayer
 62
  256
370
   -1
100
AcDbLine
 10
26.4576977189113
 20
19.7833474361308
 11
12.7485783702066
 21
16.94432530113963
  0
LINE
  5
12A
100
AcDbEntity
  8
mx
  6
ByLayer
 62
  256
370
   -1
100
AcDbLine
 10
31.48086067730987
 20
20.70980227987976
 11
29.2425240496242
 21
34.52970999090159
  0
LINE
  5
12B
100
AcDbEntity
  8
mx
  6
ByLayer
 62
  256
370
   -1
100
AcDbLine
 10
45.30076838833175
 20
22.94813890756544
 11
31.48086067730987
 21
20.70980227987976
  0
LINE
  5
12C
100
AcDbEntity
  8
mx
  6
ByLayer
 62
  256
370
   -1
100
AcDbLine
 10
29.2425240496242
 20
34.52970999090159
 11
43.06243176064602
 21
36.76804661858728
  0
LINE
  5
12D
100
AcDbEntity
  8
mx
  6
ByLayer
 62
  256
370
   -1
100
AcDbLine
 10
45.30076838833175
 20
22.94813890756544
 11
43.06243176064602
 21
36.76804661858728
  0
LINE
  5
12E
100
AcDbEntity
  8
mx
  6
ByLayer
 62
  256
370
   -1
100
AcDbLine
 10
64.26395089488048
 20
25.28799500009776
 11
50.35956180134171
 21
23.65460468070711
  0
LINE
  5
12F
100
AcDbEntity
  8
mx
  6
ByLayer
 62
  256
370
   -1
100
AcDbLine
 10
83.31114774285948
 20
26.79846166466695
 11
69.34874506171711
 21
25.77312690488011
  0
LINE
  5
130
100
AcDbEntity
  8
mx
  6
ByLayer
 62
  256
370
   -1
100
AcDbLine
 10
68.32341030193024
 20
39.73552958602252
 11
82.28581298307265
 21
40.76086434580936
  0
LINE
  5
131
100
AcDbEntity
  8
mx
  6
ByLayer
 62
  256
370
   -1
100
AcDbLine
 10
48.72617148195102
 20
37.55899377424591
 11
62.63056057548979
 21
39.19238409363657
  0
LINE
  5
132
100
AcDbEntity
  8
mx
  6
ByLayer
 62
  256
370
   -1
100
AcDbLine
 10
15.77113512399241
 20
-21.90532867982722
 11
12.86037145254375
 21
-8.211262269553922
  0
LINE
  5
133
100
AcDbEntity
  8
mx
  6
ByLayer
 62
  256
370
   -1
100
AcDbLine
 10
26.554437862817
 20
-5.300498598105292
 11
12.86037145254375
 21
-8.211262269553922
  0
LINE
  5
134
100
AcDbEntity
  8
mx
  6
ByLayer
 62
  256
370
   -1
100
AcDbLine
 10
29.46520153426566
 20
-18.99456500837858
 11
15.77113512399241
 21
-21.90532867982722
  0
LINE
  5
135
100
AcDbEntity
  8
mx
  6
ByLayer
 62
  256
370
   -1
100
AcDbLine
 10
29.46520153426566
 20
-18.99456500837858
 11
26.554437862817
 21
-5.300498598105292
  0
LINE
  5
136
100
AcDbEntity
  8
mx
  6
ByLayer
 62
  256
370
   -1
100
AcDbLine
 10
45.98077669180769
 20
-1.923156861103188
 11
32.17277827028644
 21
-4.233823343152674
  0
LINE
  5
137
100
AcDbEntity
  8
mx
  6
ByLayer
 62
  256
370
   -1
100
AcDbLine
 10
48.29144317385721
 20
-15.73115528262444
 11
45.98077669180769
 21
-1.923156861103188
  0
LINE
  5
138
100
AcDbEntity
  8
mx
  6
ByLayer
 62
  256
370
   -1
100
AcDbLine
 10
34.48344475233596
 20
-18.04182176467392
 11
32.17277827028644
 21
-4.233823343152674
  0
LINE
  5
139
100
AcDbEntity
  8
mx
  6
ByLayer
 62
  256
370
   -1
100
AcDbLine
 10
48.29144317385721
 20
-15.73115528262444
 11
34.48344475233596
 21
-18.04182176467392
  0
LINE
  5
13A
100
AcDbEntity
  8
mx
  6
ByLayer
 62
  256
370
   -1
100
AcDbLine
 10
53.34646821294242
 20
-14.99821153419965
 11
51.64029740527032
 21
-1.10256541122113
  0
LINE
  5
13B
100
AcDbEntity
  8
mx
  6
ByLayer
 62
  256
370
   -1
100
AcDbLine
 10
67.24211433592092
 20
-13.29204072652757
 11
53.34646821294242
 21
-14.99821153419965
  0
LINE
  5
13C
100
AcDbEntity
  8
mx
  6
ByLayer
 62
  256
370
   -1
100
AcDbLine
 10
72.3242986685503
 20
-12.78029167346558
 11
71.22587132836053
 21
1.176550998798216
  0
LINE
  5
13D
100
AcDbEntity
  8
mx
  6
ByLayer
 62
  256
370
   -1
100
AcDbLine
 10
86.28114134081414
 20
-11.68186433327576
 11
72.3242986685503
 21
-12.78029167346558
  0
LINE
  5
13E
100
AcDbEntity
  8
mx
  6
ByLayer
 62
  256
370
   -1
100
AcDbLine
 10
85.1827140006243
 20
2.274978338988044
 11
71.22587132836053
 21
1.176550998798216
  0
LINE
  5
13F
100
AcDbEntity
  8
mx
  6
ByLayer
 62
  256
370
   -1
100
AcDbLine
 10
86.28114134081414
 20
-11.68186433327576
 11
85.1827140006243
 21
2.274978338988044
  0
LINE
  5
140
100
AcDbEntity
  8
mx
  6
ByLayer
 62
  256
370
   -1
100
AcDbLine
 10
54.89764227639169
 20
-20.0917767612144
 11
56.7751327284772
 21
-33.96531378687327
  0
LINE
  5
141
100
AcDbEntity
  8
mx
  6
ByLayer
 62
  256
370
   -1
100
AcDbLine
 10
56.7751327284772
 20
-33.96531378687327
 11
70.6458264553272
 21
-32.08820811527708
  0
LINE
  5
142
100
AcDbEntity
  8
mx
  6
ByLayer
 62
  256
370
   -1
100
AcDbLine
 10
68.76833600324164
 20
-18.21467108961822
 11
54.89764227639169
 21
-20.0917767612144
  0
LINE
  5
143
100
AcDbEntity
  8
mx
  6
ByLayer
 62
  256
370
   -1
100
AcDbLine
 10
70.6458264553272
 20
-32.08820811527708
 11
68.76833600324164
 21
-18.21467108961822
  0
LINE
  5
144
100
AcDbEntity
  8
mx
  6
ByLayer
 62
  256
370
   -1
100
AcDbLine
 10
96.89828468696902
 20
21.77349509667048
 11
96.89828468696902
 21
7.773495096670465
  0
LINE
  5
145
100
AcDbEntity
  8
mx
  6
ByLayer
 62
  256
370
   -1
100
AcDbLine
 10
110.898284686969
 20
7.773495096670463
 11
96.89828468696902
 21
7.773495096670465
  0
LINE
  5
146
100
AcDbEntity
  8
mx
  6
ByLayer
 62
  256
370
   -1
100
AcDbLine
 10
110.898284686969
 20
21.77349509667048
 11
110.898284686969
 21
7.773495096670463
  0
LINE
  5
147
100
AcDbEntity
  8
mx
  6
ByLayer
 62
  256
370
   -1
100
AcDbLine
 10
91.75032634207719
 20
7.762928091049284
 11
90.89564678858919
 21
21.73681526895543
  0
LINE
  5
148
100
AcDbEntity
  8
mx
  6
ByLayer
 62
  256
370
   -1
100
AcDbLine
 10
91.75032634207719
 20
7.762928091049284
 11
77.77643916417105
 21
6.908248537561287
  0
LINE
  5
149
100
AcDbEntity
  8
mx
  6
ByLayer
 62
  256
370
   -1
100
AcDbLine
 10
77.77643916417105
 20
6.908248537561287
 11
76.92175961068303
 21
20.88213571546742
  0
LINE
  5
14A
100
AcDbEntity
  8
mx
  6
ByLayer
 62
  256
370
   -1
100
AcDbLine
 10
72.6860976203637
 20
6.485273772921024
 11
71.22269913461653
 21
20.40858030807686
  0
LINE
  5
14B
100
AcDbEntity
  8
mx
  6
ByLayer
 62
  256
370
   -1
100
AcDbLine
 10
72.6860976203637
 20
6.485273772921024
 11
58.76279108520787
 21
5.021875287173877
  0
LINE
  5
14C
100
AcDbEntity
  8
mx
  6
ByLayer
 62
  256
370
   -1
100
AcDbLine
 10
53.6957443187275
 20
4.377265521164825
 11
51.6264125629129
 21
18.22348760823166
  0
LINE
  5
14D
100
AcDbEntity
  8
mx
  6
ByLayer
 62
  256
370
   -1
100
AcDbLine
 10
53.6957443187275
 20
4.377265521164825
 11
39.84952223166064
 21
2.307933765350275
  0
LINE
  5
14E
100
AcDbEntity
  8
mx
  6
ByLayer
 62
  256
370
   -1
100
AcDbLine
 10
39.84952223166064
 20
2.307933765350275
 11
37.78019047584608
 21
16.15415585241712
  0
LINE
  5
14F
100
AcDbEntity
  8
mx
  6
ByLayer
 62
  256
370
   -1
100
AcDbLine
 10
67.24211433592092
 20
-13.29204072652757
 11
65.53594352824886
 21
0.6036053964509384
  0
LINE
  5
150
100
AcDbEntity
  8
mx
  6
ByLayer
 62
  256
370
   -1
100
AcDbLine
 10
65.53594352824886
 20
0.6036053964509384
 11
51.64029740527032
 21
-1.10256541122113
  0
LINE
  5
151
100
AcDbEntity
  8
mx
  6
ByLayer
 62
  256
370
   -1
100
AcDbLine
 10
58.76279108520787
 20
5.021875287173877
 11
57.29939259946072
 21
18.9451818223297
  0
LINE
  5
152
100
AcDbEntity
  8
mx
  6
ByLayer
 62
  256
370
   -1
100
AcDbLine
 10
34.81541565401935
 20
1.442916049299255
 11
32.1440897187477
 21
15.18569661756656
  0
LINE
  5
153
100
AcDbEntity
  8
mx
  6
ByLayer
 62
  256
370
   -1
100
AcDbLine
 10
34.81541565401935
 20
1.442916049299255
 11
21.07263508575206
 21
-1.228409885972374
  0
LINE
  5
154
100
AcDbEntity
  8
mx
  6
ByLayer
 62
  256
370
   -1
100
AcDbLine
 10
21.07263508575206
 20
-1.228409885972374
 11
18.4013091504804
 21
12.51437068229493
  0
LINE
  5
155
100
AcDbEntity
  8
mx
  6
ByLayer
 62
  256
370
   -1
100
AcDbLine
 10
50.35956180134171
 20
23.65460468070711
 11
48.72617148195102
 21
37.55899377424591
  0
LINE
  5
156
100
AcDbEntity
  8
mx
  6
ByLayer
 62
  256
370
   -1
100
AcDbLine
 10
69.34874506171711
 20
25.77312690488011
 11
68.32341030193024
 21
39.73552958602252
  0
LINE
  5
157
100
AcDbEntity
  8
mx
  6
ByLayer
 62
  256
370
   -1
100
AcDbLine
 10
83.31114774285948
 20
26.79846166466695
 11
82.28581298307265
 21
40.76086434580936
  0
LINE
  5
158
100
AcDbEntity
  8
mx
  6
ByLayer
 62
  256
370
   -1
100
AcDbLine
 10
64.26395089488048
 20
25.28799500009776
 11
62.63056057548979
 21
39.19238409363657
  0
LINE
  5
159
100
AcDbEntity
  8
mx
  6
ByLayer
 62
  256
370
   -1
100
AcDbLine
 10
-87.00032634207706
 20
7.762928091049276
 11
-86.14564678858908
 21
21.73681526895542
  0
LINE
  5
15A
100
AcDbEntity
  8
mx
  6
ByLayer
 62
  256
370
   -1
100
AcDbLine
 10
-87.00032634207706
 20
7.762928091049276
 11
-73.0264391641709
 21
6.908248537561279
  0
LINE
  5
15B
100
AcDbEntity
  8
mx
  6
ByLayer
 62
  256
370
   -1
100
AcDbLine
 10
-73.0264391641709
 20
6.908248537561279
 11
-72.1717596106829
 21
20.88213571546741
  0
LINE
  5
15C
100
AcDbEntity
  8
mx
  6
ByLayer
 62
  256
370
   -1
100
AcDbLine
 10
-67.93609762036355
 20
6.485273772921017
 11
-66.47269913461639
 21
20.40858030807685
  0
LINE
  5
15D
100
AcDbEntity
  8
mx
  6
ByLayer
 62
  256
370
   -1
100
AcDbLine
 10
-67.93609762036355
 20
6.485273772921017
 11
-54.01279108520774
 21
5.021875287173871
  0
LINE
  5
15E
100
AcDbEntity
  8
mx
  6
ByLayer
 62
  256
370
   -1
100
AcDbLine
 10
-66.47269913461639
 20
20.40858030807685
 11
-52.54939259946058
 21
18.9451818223297
  0
LINE
  5
15F
100
AcDbEntity
  8
mx
  6
ByLayer
 62
  256
370
   -1
100
AcDbLine
 10
-54.01279108520774
 20
5.021875287173871
 11
-52.54939259946058
 21
18.9451818223297
  0
LINE
  5
160
100
AcDbEntity
  8
mx
  6
ByLayer
 62
  256
370
   -1
100
AcDbLine
 10
-46.8764125629128
 20
18.22348760823166
 11
-33.03019047584597
 21
16.15415585241711
  0
LINE
  5
161
100
AcDbEntity
  8
mx
  6
ByLayer
 62
  256
370
   -1
100
AcDbLine
 10
-35.09952223166052
 20
2.307933765350269
 11
-33.03019047584597
 21
16.15415585241711
  0
LINE
  5
162
100
AcDbEntity
  8
mx
  6
ByLayer
 62
  256
370
   -1
100
AcDbLine
 10
-48.94574431872736
 20
4.377265521164819
 11
-46.8764125629128
 21
18.22348760823166
  0
LINE
  5
163
100
AcDbEntity
  8
mx
  6
ByLayer
 62
  256
370
   -1
100
AcDbLine
 10
-48.94574431872736
 20
4.377265521164819
 11
-35.09952223166052
 21
2.307933765350269
  0
LINE
  5
164
100
AcDbEntity
  8
mx
  6
ByLayer
 62
  256
370
   -1
100
AcDbLine
 10
-16.32263508575193
 20
-1.22840988597238
 11
-13.65130915048029
 21
12.51437068229491
  0
LINE
  5
165
100
AcDbEntity
  8
mx
  6
ByLayer
 62
  256
370
   -1
100
AcDbLine
 10
-30.06541565401923
 20
1.442916049299248
 11
-16.32263508575193
 21
-1.22840988597238
  0
LINE
  5
166
100
AcDbEntity
  8
mx
  6
ByLayer
 62
  256
370
   -1
100
AcDbLine
 10
-27.39408971874759
 20
15.18569661756655
 11
-13.65130915048029
 21
12.51437068229491
  0
LINE
  5
167
100
AcDbEntity
  8
mx
  6
ByLayer
 62
  256
370
   -1
100
AcDbLine
 10
-30.06541565401923
 20
1.442916049299248
 11
-27.39408971874759
 21
15.18569661756655
  0
LINE
  5
168
100
AcDbEntity
  8
mx
  6
ByLayer
 62
  256
370
   -1
100
AcDbLine
 10
-11.02113512399227
 20
-21.90532867982721
 11
-8.110371452543617
 21
-8.211262269553938
  0
LINE
  5
169
100
AcDbEntity
  8
mx
  6
ByLayer
 62
  256
370
   -1
100
AcDbLine
 10
-24.71520153426554
 20
-18.99456500837858
 11
-11.02113512399227
 21
-21.90532867982721
  0
LINE
  5
16A
100
AcDbEntity
  8
mx
  6
ByLayer
 62
  256
370
   -1
100
AcDbLine
 10
-21.8044378628169
 20
-5.300498598105301
 11
-8.110371452543617
 21
-8.211262269553938
  0
LINE
  5
16B
100
AcDbEntity
  8
mx
  6
ByLayer
 62
  256
370
   -1
100
AcDbLine
 10
-24.71520153426554
 20
-18.99456500837858
 11
-21.8044378628169
 21
-5.300498598105301
  0
LINE
  5
16C
100
AcDbEntity
  8
mx
  6
ByLayer
 62
  256
370
   -1
100
AcDbLine
 10
-41.23077669180759
 20
-1.923156861103196
 11
-27.42277827028633
 21
-4.233823343152686
  0
LINE
  5
16D
100
AcDbEntity
  8
mx
  6
ByLayer
 62
  256
370
   -1
100
AcDbLine
 10
-43.5414431738571
 20
-15.73115528262443
 11
-41.23077669180759
 21
-1.923156861103196
  0
LINE
  5
16E
100
AcDbEntity
  8
mx
  6
ByLayer
 62
  256
370
   -1
100
AcDbLine
 10
-29.73344475233583
 20
-18.04182176467392
 11
-27.42277827028633
 21
-4.233823343152686
  0
LINE
  5
16F
100
AcDbEntity
  8
mx
  6
ByLayer
 62
  256
370
   -1
100
AcDbLine
 10
-43.5414431738571
 20
-15.73115528262443
 11
-29.73344475233583
 21
-18.04182176467392
  0
LINE
  5
170
100
AcDbEntity
  8
mx
  6
ByLayer
 62
  256
370
   -1
100
AcDbLine
 10
-60.78594352824873
 20
0.6036053964509313
 11
-46.89029740527022
 21
-1.102565411221137
  0
LINE
  5
171
100
AcDbEntity
  8
mx
  6
ByLayer
 62
  256
370
   -1
100
AcDbLine
 10
-48.59646821294231
 20
-14.99821153419965
 11
-46.89029740527022
 21
-1.102565411221137
  0
LINE
  5
172
100
AcDbEntity
  8
mx
  6
ByLayer
 62
  256
370
   -1
100
AcDbLine
 10
-62.49211433592081
 20
-13.29204072652758
 11
-60.78594352824873
 21
0.6036053964509313
  0
LINE
  5
173
100
AcDbEntity
  8
mx
  6
ByLayer
 62
  256
370
   -1
100
AcDbLine
 10
-62.49211433592081
 20
-13.29204072652758
 11
-48.59646821294231
 21
-14.99821153419965
  0
LINE
  5
174
100
AcDbEntity
  8
mx
  6
ByLayer
 62
  256
370
   -1
100
AcDbLine
 10
-80.43271400062419
 20
2.274978338988038
 11
-66.4758713283604
 21
1.17655099879821
  0
LINE
  5
175
100
AcDbEntity
  8
mx
  6
ByLayer
 62
  256
370
   -1
100
AcDbLine
 10
-81.53114134081402
 20
-11.68186433327576
 11
-80.43271400062419
 21
2.274978338988038
  0
LINE
  5
176
100
AcDbEntity
  8
mx
  6
ByLayer
 62
  256
370
   -1
100
AcDbLine
 10
-67.5742986685502
 20
-12.78029167346558
 11
-66.4758713283604
 21
1.17655099879821
  0
LINE
  5
177
100
AcDbEntity
  8
mx
  6
ByLayer
 62
  256
370
   -1
100
AcDbLine
 10
-81.53114134081402
 20
-11.68186433327576
 11
-67.5742986685502
 21
-12.78029167346558
  0
LINE
  5
178
100
AcDbEntity
  8
mx
  6
ByLayer
 62
  256
370
   -1
100
AcDbLine
 10
-69.21184190688788
 20
-17.76325969957292
 11
-55.2941442884936
 21
-19.25234101681369
  0
LINE
  5
179
100
AcDbEntity
  8
mx
  6
ByLayer
 62
  256
370
   -1
100
AcDbLine
 10
-55.2941442884936
 20
-19.25234101681369
 11
-56.78353084664149
 21
-33.17289156915925
  0
LINE
  5
17A
100
AcDbEntity
  8
mx
  6
ByLayer
 62
  256
370
   -1
100
AcDbLine
 10
-70.70122846503578
 20
-31.68381025191847
 11
-69.21184190688788
 21
-17.76325969957292
  0
LINE
  5
17B
100
AcDbEntity
  8
mx
  6
ByLayer
 62
  256
370
   -1
100
AcDbLine
 10
-56.78353084664149
 20
-33.17289156915925
 11
-70.70122846503578
 21
-31.68381025191847
  0
LINE
  5
17C
100
AcDbEntity
  8
mx
  6
ByLayer
 62
  256
370
   -1
100
AcDbLine
 10
-4.624999999999931
 20
-19.09978992675668
 11
-4.624999999999932
 21
-33.09978992675669
  0
LINE
  5
17D
100
AcDbEntity
  8
mx
  6
ByLayer
 62
  256
370
   -1
100
AcDbLine
 10
-4.624999999999932
 20
-33.09978992675669
 11
9.375000000000069
 21
-33.09978992675668
  0
LINE
  5
17E
100
AcDbEntity
  8
mx
  6
ByLayer
 62
  256
370
   -1
100
AcDbLine
 10
-4.624999999999931
 20
-19.09978992675668
 11
9.375000000000069
 21
-19.09978992675668
  0
LINE
  5
17F
100
AcDbEntity
  8
mx
  6
ByLayer
 62
  256
370
   -1
100
AcDbLine
 10
9.375000000000069
 20
-33.09978992675668
 11
9.375000000000069
 21
-19.09978992675668
  0
LINE
  5
180
100
AcDbEntity
  8
mx
  6
ByLayer
 62
  256
370
   -1
100
AcDbLine
 10
-86.14564678858908
 20
21.73681526895542
 11
-72.1717596106829
 21
20.88213571546741
  0
LINE
  5
181
100
AcDbEntity
  8
mx
  6
ByLayer
 62
  256
370
   -1
100
AcDbLine
 10
-109.7338414883204
 20
7.825342466374334
 11
-109.7338414883204
 21
21.82534246637433
  0
LINE
  5
182
100
AcDbEntity
  8
mx
  6
ByLayer
 62
  256
370
   -1
100
AcDbLine
 10
-109.7338414883204
 20
21.82534246637433
 11
-95.73384148832039
 21
21.82534246637433
  0
LINE
  5
183
100
AcDbEntity
  8
mx
  6
ByLayer
 62
  256
370
   -1
100
AcDbLine
 10
-109.7338414883204
 20
7.825342466374334
 11
-95.73384148832039
 21
7.825342466374334
  0
LINE
  5
184
100
AcDbEntity
  8
mx
  6
ByLayer
 62
  256
370
   -1
100
AcDbLine
 10
-95.73384148832039
 20
7.825342466374334
 11
-95.73384148832039
 21
21.82534246637433
  0
LINE
  5
185
100
AcDbEntity
  8
mx
  6
ByLayer
 62
  256
370
   -1
100
AcDbLine
 10
-93.8367753910979
 20
2.55871922891609
 11
-107.8367753910979
 21
2.558719228916092
  0
LINE
  5
186
100
AcDbEntity
  8
mx
  6
ByLayer
 62
  256
370
   -1
100
AcDbLine
 10
-93.8367753910979
 20
-11.44128077108391
 11
-93.8367753910979
 21
2.55871922891609
  0
LINE
  5
187
100
AcDbEntity
  8
mx
  6
ByLayer
 62
  256
370
   -1
100
AcDbLine
 10
-107.8367753910979
 20
-11.4412807710839
 11
-107.8367753910979
 21
2.558719228916092
  0
LINE
  5
188
100
AcDbEntity
  8
mx
  6
ByLayer
 62
  256
370
   -1
100
AcDbLine
 10
-107.8367753910979
 20
-11.4412807710839
 11
-93.8367753910979
 21
-11.44128077108391
  0
LINE
  5
189
100
AcDbEntity
  8
mx
  6
ByLayer
 62
  256
370
   -1
100
AcDbLine
 10
-109.7338414883204
 20
-16.4412807710839
 11
-95.73384148832039
 21
-16.44128077108391
  0
LINE
  5
18A
100
AcDbEntity
  8
mx
  6
ByLayer
 62
  256
370
   -1
100
AcDbLine
 10
-95.73384148832039
 20
-30.44128077108391
 11
-95.73384148832039
 21
-16.44128077108391
  0
LINE
  5
18B
100
AcDbEntity
  8
mx
  6
ByLayer
 62
  256
370
   -1
100
AcDbLine
 10
-109.7338414883204
 20
-30.44128077108391
 11
-109.7338414883204
 21
-16.4412807710839
  0
LINE
  5
18C
100
AcDbEntity
  8
mx
  6
ByLayer
 62
  256
370
   -1
100
AcDbLine
 10
-109.7338414883204
 20
-30.44128077108391
 11
-95.73384148832039
 21
-30.44128077108391
  0
LINE
  5
18D
100
AcDbEntity
  8
mx
  6
ByLayer
 62
  256
370
   -1
100
AcDbLine
 10
-39.97346786235696
 20
-36.04338009243828
 11
-37.46240936046736
 21
-22.26970370798402
  0
LINE
  5
18E
100
AcDbEntity
  8
mx
  6
ByLayer
 62
  256
370
   -1
100
AcDbLine
 10
-39.97346786235696
 20
-36.04338009243828
 11
-26.20047926493308
 21
-38.55431320489502
  0
LINE
  5
18F
100
AcDbEntity
  8
mx
  6
ByLayer
 62
  256
370
   -1
100
AcDbLine
 10
-23.68948262875218
 20
-24.78097616667678
 11
-37.46240936046736
 21
-22.26970370798402
  0
LINE
  5
190
100
AcDbEntity
  8
mx
  6
ByLayer
 62
  256
370
   -1
100
AcDbLine
 10
-26.20047926493308
 20
-38.55431320489502
 11
-23.68948262875218
 21
-24.78097616667678
  0
LINE
  5
191
100
AcDbEntity
  8
mx
  6
ByLayer
 62
  256
370
   -1
100
AcDbLine
 10
96.21177539109803
 20
-30.44128077108391
 11
110.211775391098
 21
-30.44128077108391
  0
LINE
  5
192
100
AcDbEntity
  8
mx
  6
ByLayer
 62
  256
370
   -1
100
AcDbLine
 10
110.211775391098
 20
-30.44128077108391
 11
110.211775391098
 21
-16.4412807710839
  0
LINE
  5
193
100
AcDbEntity
  8
mx
  6
ByLayer
 62
  256
370
   -1
100
AcDbLine
 10
96.21177539109803
 20
-30.44128077108391
 11
96.21177539109803
 21
-16.4412807710839
  0
LINE
  5
194
100
AcDbEntity
  8
mx
  6
ByLayer
 62
  256
370
   -1
100
AcDbLine
 10
96.21177539109803
 20
-16.4412807710839
 11
110.211775391098
 21
-16.4412807710839
  0
LINE
  5
195
100
AcDbEntity
  8
mx
  6
ByLayer
 62
  256
370
   -1
100
AcDbLine
 10
96.21177539109803
 20
-11.4412807710839
 11
96.21177539109803
 21
2.558719228916095
  0
LINE
  5
196
100
AcDbEntity
  8
mx
  6
ByLayer
 62
  256
370
   -1
100
AcDbLine
 10
96.21177539109803
 20
2.558719228916095
 11
110.211775391098
 21
2.558719228916093
  0
LINE
  5
197
100
AcDbEntity
  8
mx
  6
ByLayer
 62
  256
370
   -1
100
AcDbLine
 10
96.21177539109803
 20
-11.4412807710839
 11
110.211775391098
 21
-11.4412807710839
  0
LINE
  5
198
100
AcDbEntity
  8
mx
  6
ByLayer
 62
  256
370
   -1
100
AcDbLine
 10
110.211775391098
 20
-11.4412807710839
 11
110.211775391098
 21
2.558719228916093
  0
LINE
  5
199
100
AcDbEntity
  8
mx
  6
ByLayer
 62
  256
370
   -1
100
AcDbLine
 10
90.86252942873971
 20
26.98827096442508
 11
104.8625294287397
 21
26.98827096442487
  0
LINE
  5
19A
100
AcDbEntity
  8
mx
  6
ByLayer
 62
  256
370
   -1
100
AcDbLine
 10
104.8625294287397
 20
26.98827096442487
 11
104.8625294287397
 21
40.98827096442487
  0
LINE
  5
19B
100
AcDbEntity
  8
mx
  6
ByLayer
 62
  256
370
   -1
100
AcDbLine
 10
90.86252942873971
 20
26.98827096442508
 11
90.86252942873971
 21
40.98827096442487
  0
LINE
  5
19C
100
AcDbEntity
  8
mx
  6
ByLayer
 62
  256
370
   -1
100
AcDbLine
 10
90.86252942873971
 20
40.98827096442487
 11
104.8625294287397
 21
40.98827096442487
  0
LINE
  5
19D
100
AcDbEntity
  8
mx
  6
ByLayer
 62
  256
370
   -1
100
AcDbLine
 10
42.38301968914229
 20
-36.4700637257358
 11
39.87163233987478
 21
-22.69650688339183
  0
LINE
  5
19E
100
AcDbEntity
  8
mx
  6
ByLayer
 62
  256
370
   -1
100
AcDbLine
 10
26.09870561234009
 20
-25.20777934132237
 11
39.87163233987478
 21
-22.69650688339183
  0
LINE
  5
19F
100
AcDbEntity
  8
mx
  6
ByLayer
 62
  256
370
   -1
100
AcDbLine
 10
42.38301968914229
 20
-36.4700637257358
 11
28.61003108753792
 21
-38.9809968389547
  0
LINE
  5
1A0
100
AcDbEntity
  8
mx
  6
ByLayer
 62
  256
370
   -1
100
AcDbLine
 10
28.61003108753792
 20
-38.9809968389547
 11
26.09870561234009
 21
-25.20777934132237
  0
LINE
  5
1A1
100
AcDbEntity
  8
placement
  6
ByLayer
 62
  256
370
   -1
100
AcDbLine
 10
-109.7338414883204
 20
25.84196570383257
 11
-95.73384148832041
 21
25.84196570383257
  0
LINE
  5
1A2
100
AcDbEntity
  8
placement
  6
ByLayer
 62
  256
370
   -1
100
AcDbLine
 10
-90.68169670015908
 20
25.73172751239655
 11
-76.69502159801307
 21
25.12105608928185
  0
LINE
  5
1A3
100
AcDbEntity
  8
placement
  6
ByLayer
 62
  256
370
   -1
100
AcDbLine
 10
-71.65249385460115
 20
24.79055135963673
 11
-57.70576808131673
 21
23.57037096116951
  0
LINE
  5
1A4
100
AcDbEntity
  8
placement
  6
ByLayer
 62
  256
370
   -1
100
AcDbLine
 10
-52.68245612081233
 20
23.02022882785282
 11
-38.80222806157897
 21
21.1928621367721
  0
LINE
  5
1A5
100
AcDbEntity
  8
placement
  6
ByLayer
 62
  256
370
   -1
100
AcDbLine
 10
-33.80769404380533
 20
20.42412982660264
 11
-20.02038550163441
 21
17.99305533926561
  0
LINE
  5
1A6
100
AcDbEntity
  8
placement
  6
ByLayer
 62
  256
370
   -1
100
AcDbLine
 10
-109.7338414883204
 20
6.575342466374334
 11
-95.73384148832039
 21
6.575342466374334
  0
LINE
  5
1A7
100
AcDbEntity
  8
placement
  6
ByLayer
 62
  256
370
   -1
100
AcDbLine
 10
-87.07663701649562
 20
6.515259593021943
 11
-73.10274983858946
 21
5.660580039533945
  0
LINE
  5
1A8
100
AcDbEntity
  8
placement
  6
ByLayer
 62
  256
370
   -1
100
AcDbLine
 10
-68.06675819944812
 20
5.242121403710676
 11
-54.14345166429231
 21
3.778722917963529
  0
LINE
  5
1A9
100
AcDbEntity
  8
placement
  6
ByLayer
 62
  256
370
   -1
100
AcDbLine
 10
-49.13050608263938
 20
3.140995691962423
 11
-35.28428399557253
 21
1.071663936147873
  0
LINE
  5
1AA
100
AcDbEntity
  8
placement
  6
ByLayer
 62
  256
370
   -1
100
AcDbLine
 10
-30.30392689823991
 20
0.2158820699896684
 11
-16.56114632997261
 21
-2.45544386528196
  0
LINE
  5
1AB
100
AcDbEntity
  8
placement
  6
ByLayer
 62
  256
370
   -1
100
AcDbLine
 10
-24.97509114778774
 20
-20.21724950929583
 11
-11.28102473751447
 21
-23.12801318074447
  0
LINE
  5
1AC
100
AcDbEntity
  8
placement
  6
ByLayer
 62
  256
370
   -1
100
AcDbLine
 10
-43.74775268118294
 20
-16.96401228454597
 11
-29.93975425966168
 21
-19.27467876659546
  0
LINE
  5
1AD
100
AcDbEntity
  8
placement
  6
ByLayer
 62
  256
370
   -1
100
AcDbLine
 10
-62.64445101517725
 20
-14.53272341607923
 11
-48.74880489219875
 21
-16.2388942237513
  0
LINE
  5
1AE
100
AcDbEntity
  8
placement
  6
ByLayer
 62
  256
370
   -1
100
AcDbLine
 10
-81.62921521047382
 20
-12.92801100044217
 11
-67.67237253821
 21
-14.02643834063199
  0
LINE
  5
1AF
100
AcDbEntity
  8
placement
  6
ByLayer
 62
  256
370
   -1
100
AcDbLine
 10
-107.8367753910979
 20
-12.6912807710839
 11
-93.8367753910979
 21
-12.69128077108391
  0
LINE
  5
1B0
100
AcDbEntity
  8
placement
  6
ByLayer
 62
  256
370
   -1
100
AcDbLine
 10
-109.7338414883204
 20
-31.69128077108391
 11
-95.73384148832039
 21
-31.69128077108391
  0
LINE
  5
1B1
100
AcDbEntity
  8
placement
  6
ByLayer
 62
  256
370
   -1
100
AcDbLine
 10
-56.91651178933326
 20
-34.41579786847581
 11
-70.83420940772756
 21
-32.92671655123504
  0
LINE
  5
1B2
100
AcDbEntity
  8
placement
  6
ByLayer
 62
  256
370
   -1
100
AcDbLine
 10
-4.624999999999932
 20
-34.34978992675669
 11
9.375000000000069
 21
-34.34978992675668
  0
LINE
  5
1B3
100
AcDbEntity
  8
placement
  6
ByLayer
 62
  256
370
   -1
100
AcDbLine
 10
-57.31545461740858
 20
-38.14451676642551
 11
-71.23315223580288
 21
-36.65543544918474
  0
LINE
  5
1B4
100
AcDbEntity
  8
placement
  6
ByLayer
 62
  256
370
   -1
100
AcDbLine
 10
56.94276580455627
 20
-35.20402244987852
 11
70.81345953140627
 21
-33.32691677828234
  0
LINE
  5
1B5
100
AcDbEntity
  8
placement
  6
ByLayer
 62
  256
370
   -1
100
AcDbLine
 10
57.44566503279349
 20
-38.92014843889429
 11
71.31635875964348
 21
-37.0430427672981
  0
LINE
  5
1B6
100
AcDbEntity
  8
placement
  6
ByLayer
 62
  256
370
   -1
100
AcDbLine
 10
29.72509114778786
 20
-20.21724950929583
 11
16.03102473751461
 21
-23.12801318074447
  0
LINE
  5
1B7
100
AcDbEntity
  8
placement
  6
ByLayer
 62
  256
370
   -1
100
AcDbLine
 10
48.49775268118306
 20
-16.96401228454598
 11
34.6897542596618
 21
-19.27467876659546
  0
LINE
  5
1B8
100
AcDbEntity
  8
placement
  6
ByLayer
 62
  256
370
   -1
100
AcDbLine
 10
67.39445101517735
 20
-14.53272341607923
 11
53.49880489219886
 21
-16.2388942237513
  0
LINE
  5
1B9
100
AcDbEntity
  8
placement
  6
ByLayer
 62
  256
370
   -1
100
AcDbLine
 10
86.37921521047394
 20
-12.92801100044217
 11
72.4223725382101
 21
-14.02643834063199
  0
LINE
  5
1BA
100
AcDbEntity
  8
placement
  6
ByLayer
 62
  256
370
   -1
100
AcDbLine
 10
96.21177539109803
 20
-12.6912807710839
 11
110.211775391098
 21
-12.6912807710839
  0
LINE
  5
1BB
100
AcDbEntity
  8
placement
  6
ByLayer
 62
  256
370
   -1
100
AcDbLine
 10
96.21177539109803
 20
-31.69128077108391
 11
110.211775391098
 21
-31.69128077108391
  0
LINE
  5
1BC
100
AcDbEntity
  8
placement
  6
ByLayer
 62
  256
370
   -1
100
AcDbLine
 10
110.898284686969
 20
6.523495096670463
 11
96.89828468696902
 21
6.523495096670465
  0
LINE
  5
1BD
100
AcDbEntity
  8
placement
  6
ByLayer
 62
  256
370
   -1
100
AcDbLine
 10
90.86252942873969
 20
25.73827096442508
 11
104.8625294287397
 21
25.73827096442487
  0
LINE
  5
1BE
100
AcDbEntity
  8
placement
  6
ByLayer
 62
  256
370
   -1
100
AcDbLine
 10
83.40269548926902
 20
25.55181856813638
 11
69.44029280812666
 21
24.52648380834954
  0
LINE
  5
1BF
100
AcDbEntity
  8
placement
  6
ByLayer
 62
  256
370
   -1
100
AcDbLine
 10
91.82663701649575
 20
6.51525959302195
 11
77.85274983858962
 21
5.660580039533953
  0
LINE
  5
1C0
100
AcDbEntity
  8
placement
  6
ByLayer
 62
  256
370
   -1
100
AcDbLine
 10
64.40978931625465
 20
24.04653168817465
 11
50.50540022271587
 21
22.413141368784
  0
LINE
  5
1C1
100
AcDbEntity
  8
placement
  6
ByLayer
 62
  256
370
   -1
100
AcDbLine
 10
45.50061987294654
 20
21.71421857622421
 11
31.68071216192467
 21
19.47588194853852
  0
LINE
  5
1C2
100
AcDbEntity
  8
placement
  6
ByLayer
 62
  256
370
   -1
100
AcDbLine
 10
26.71118183810694
 20
18.5593189228536
 11
13.00206248940224
 21
15.72029678786242
  0
LINE
  5
1C3
100
AcDbEntity
  8
placement
  6
ByLayer
 62
  256
370
   -1
100
AcDbLine
 10
35.05392689824003
 20
0.2158820699896755
 11
21.31114632997274
 21
-2.455443865281953
  0
LINE
  5
1C4
100
AcDbEntity
  8
placement
  6
ByLayer
 62
  256
370
   -1
100
AcDbLine
 10
53.88050608263951
 20
3.140995691962429
 11
40.03428399557266
 21
1.071663936147879
  0
LINE
  5
1C5
100
AcDbEntity
  8
placement
  6
ByLayer
 62
  256
370
   -1
100
AcDbLine
 10
72.81675819944826
 20
5.242121403710683
 11
58.89345166429244
 21
3.778722917963536
  0
LINE
  5
1C6
100
AcDbEntity
  8
placement
  6
ByLayer
 62
  256
370
   -1
100
AcDbLine
 10
-109.7338414883204
 20
41.09196570383257
 11
-95.73384148832041
 21
27.09196570383257
  0
LINE
  5
1C7
100
AcDbEntity
  8
placement
  6
ByLayer
 62
  256
370
   -1
100
AcDbLine
 10
-90.0165010428377
 20
40.96721289151988
 11
-76.6404973638064
 21
26.36986636625917
  0
LINE
  5
1C8
100
AcDbEntity
  8
placement
  6
ByLayer
 62
  256
370
   -1
100
AcDbLine
 10
-70.32336877769937
 20
39.98252050553585
 11
-57.59682340288215
 21
24.81561433378419
  0
LINE
  5
1C9
100
AcDbEntity
  8
placement
  6
ByLayer
 62
  256
370
   -1
100
AcDbLine
 10
-50.69193168945655
 20
38.13976296380343
 11
-38.6390703213039
 21
22.43216821348936
  0
LINE
  5
1CA
100
AcDbEntity
  8
placement
  6
ByLayer
 62
  256
370
   -1
100
AcDbLine
 10
-31.15955933438462
 20
35.44244806003881
 11
-19.80332527955074
 21
19.22406503053087
  0
LINE
  5
1CB
100
AcDbEntity
  8
placement
  6
ByLayer
 62
  256
370
   -1
100
AcDbLine
 10
-27.39408971874759
 20
15.18569661756655
 11
-16.32263508575193
 21
-1.22840988597238
  0
LINE
  5
1CC
100
AcDbEntity
  8
placement
  6
ByLayer
 62
  256
370
   -1
100
AcDbLine
 10
-46.8764125629128
 20
18.22348760823166
 11
-35.09952223166052
 21
2.307933765350269
  0
LINE
  5
1CD
100
AcDbEntity
  8
placement
  6
ByLayer
 62
  256
370
   -1
100
AcDbLine
 10
-66.47269913461639
 20
20.40858030807685
 11
-54.01279108520774
 21
5.021875287173871
  0
LINE
  5
1CE
100
AcDbEntity
  8
placement
  6
ByLayer
 62
  256
370
   -1
100
AcDbLine
 10
-86.14564678858908
 20
21.73681526895542
 11
-73.0264391641709
 21
6.908248537561279
  0
LINE
  5
1CF
100
AcDbEntity
  8
placement
  6
ByLayer
 62
  256
370
   -1
100
AcDbLine
 10
-109.7338414883204
 20
21.82534246637433
 11
-95.73384148832039
 21
7.825342466374334
  0
LINE
  5
1D0
100
AcDbEntity
  8
placement
  6
ByLayer
 62
  256
370
   -1
100
AcDbLine
 10
-107.8367753910979
 20
2.558719228916092
 11
-93.8367753910979
 21
-11.44128077108391
  0
LINE
  5
1D1
100
AcDbEntity
  8
placement
  6
ByLayer
 62
  256
370
   -1
100
AcDbLine
 10
-80.43271400062419
 20
2.274978338988038
 11
-67.5742986685502
 21
-12.78029167346558
  0
LINE
  5
1D2
100
AcDbEntity
  8
placement
  6
ByLayer
 62
  256
370
   -1
100
AcDbLine
 10
-60.78594352824873
 20
0.6036053964509313
 11
-48.59646821294231
 21
-14.99821153419965
  0
LINE
  5
1D3
100
AcDbEntity
  8
placement
  6
ByLayer
 62
  256
370
   -1
100
AcDbLine
 10
-41.23077669180759
 20
-1.923156861103196
 11
-29.73344475233583
 21
-18.04182176467392
  0
LINE
  5
1D4
100
AcDbEntity
  8
placement
  6
ByLayer
 62
  256
370
   -1
100
AcDbLine
 10
-21.8044378628169
 20
-5.300498598105301
 11
-11.02113512399227
 21
-21.90532867982721
  0
LINE
  5
1D5
100
AcDbEntity
  8
placement
  6
ByLayer
 62
  256
370
   -1
100
AcDbLine
 10
-37.46240936046736
 20
-22.26970370798402
 11
-26.20047926493308
 21
-38.55431320489502
  0
LINE
  5
1D6
100
AcDbEntity
  8
placement
  6
ByLayer
 62
  256
370
   -1
100
AcDbLine
 10
-69.21184190688788
 20
-17.76325969957292
 11
-56.78353084664149
 21
-33.17289156915925
  0
LINE
  5
1D7
100
AcDbEntity
  8
placement
  6
ByLayer
 62
  256
370
   -1
100
AcDbLine
 10
-109.7338414883204
 20
-16.4412807710839
 11
-95.73384148832039
 21
-30.44128077108391
  0
LINE
  5
1D8
100
AcDbEntity
  8
placement
  6
ByLayer
 62
  256
370
   -1
100
AcDbLine
 10
-4.624999999999931
 20
-19.09978992675668
 11
9.375000000000069
 21
-33.09978992675668
  0
LINE
  5
1D9
100
AcDbEntity
  8
placement
  6
ByLayer
 62
  256
370
   -1
100
AcDbLine
 10
9.90955623521543
 20
30.65344464984435
 11
26.4576977189113
 21
19.7833474361308
  0
LINE
  5
1DA
100
AcDbEntity
  8
placement
  6
ByLayer
 62
  256
370
   -1
100
AcDbLine
 10
18.4013091504804
 20
12.51437068229493
 11
34.81541565401935
 21
1.442916049299255
  0
LINE
  5
1DB
100
AcDbEntity
  8
placement
  6
ByLayer
 62
  256
370
   -1
100
AcDbLine
 10
12.86037145254375
 20
-8.211262269553922
 11
29.46520153426566
 21
-18.99456500837858
  0
LINE
  5
1DC
100
AcDbEntity
  8
placement
  6
ByLayer
 62
  256
370
   -1
100
AcDbLine
 10
32.17277827028644
 20
-4.233823343152674
 11
48.29144317385721
 21
-15.73115528262444
  0
LINE
  5
1DD
100
AcDbEntity
  8
placement
  6
ByLayer
 62
  256
370
   -1
100
AcDbLine
 10
37.78019047584608
 20
16.15415585241712
 11
53.6957443187275
 21
4.377265521164825
  0
LINE
  5
1DE
100
AcDbEntity
  8
placement
  6
ByLayer
 62
  256
370
   -1
100
AcDbLine
 10
29.2425240496242
 20
34.52970999090159
 11
45.30076838833175
 21
22.94813890756544
  0
LINE
  5
1DF
100
AcDbEntity
  8
placement
  6
ByLayer
 62
  256
370
   -1
100
AcDbLine
 10
48.72617148195102
 20
37.55899377424591
 11
64.26395089488048
 21
25.28799500009776
  0
LINE
  5
1E0
100
AcDbEntity
  8
placement
  6
ByLayer
 62
  256
370
   -1
100
AcDbLine
 10
68.32341030193024
 20
39.73552958602252
 11
83.31114774285948
 21
26.79846166466695
  0
LINE
  5
1E1
100
AcDbEntity
  8
placement
  6
ByLayer
 62
  256
370
   -1
100
AcDbLine
 10
90.86252942873971
 20
40.98827096442487
 11
104.8625294287397
 21
26.98827096442487
  0
LINE
  5
1E2
100
AcDbEntity
  8
placement
  6
ByLayer
 62
  256
370
   -1
100
AcDbLine
 10
96.89828468696902
 20
21.77349509667048
 11
110.898284686969
 21
7.773495096670463
  0
LINE
  5
1E3
100
AcDbEntity
  8
placement
  6
ByLayer
 62
  256
370
   -1
100
AcDbLine
 10
96.21177539109803
 20
2.558719228916095
 11
110.211775391098
 21
-11.4412807710839
  0
LINE
  5
1E4
100
AcDbEntity
  8
placement
  6
ByLayer
 62
  256
370
   -1
100
AcDbLine
 10
71.22587132836053
 20
1.176550998798216
 11
86.28114134081414
 21
-11.68186433327576
  0
LINE
  5
1E5
100
AcDbEntity
  8
placement
  6
ByLayer
 62
  256
370
   -1
100
AcDbLine
 10
51.64029740527032
 20
-1.10256541122113
 11
67.24211433592092
 21
-13.29204072652757
  0
LINE
  5
1E6
100
AcDbEntity
  8
placement
  6
ByLayer
 62
  256
370
   -1
100
AcDbLine
 10
54.89764227639169
 20
-20.0917767612144
 11
70.6458264553272
 21
-32.08820811527708
  0
LINE
  5
1E7
100
AcDbEntity
  8
placement
  6
ByLayer
 62
  256
370
   -1
100
AcDbLine
 10
26.09870561234009
 20
-25.20777934132237
 11
42.38301968914229
 21
-36.4700637257358
  0
LINE
  5
1E8
100
AcDbEntity
  8
placement
  6
ByLayer
 62
  256
370
   -1
100
AcDbLine
 10
96.21177539109803
 20
-16.4412807710839
 11
110.211775391098
 21
-30.44128077108391
  0
LINE
  5
1E9
100
AcDbEntity
  8
placement
  6
ByLayer
 62
  256
370
   -1
100
AcDbLine
 10
76.92175961068303
 20
20.88213571546742
 11
91.75032634207719
 21
7.762928091049284
  0
LINE
  5
1EA
100
AcDbEntity
  8
placement
  6
ByLayer
 62
  256
370
   -1
100
AcDbLine
 10
57.29939259946072
 20
18.9451818223297
 11
72.6860976203637
 21
6.485273772921024
  0
LINE
  5
1EB
100
AcDbEntity
  8
int
  6
ByLayer
 62
  256
370
   -1
100
AcDbLine
 10
5.906345146515202
 20
-4.202501484936723
 11
9.518365805315483
 21
-10.32551843707429
  0
ARC
  5
1EC
100
AcDbEntity
  8
int
  6
ByLayer
 62
  256
370
   -1
100
AcDbCircle
 10
6.934454733753335
 20
-11.84978992675668
 40
3
100
AcDbArc
 50
269.9999999999999
 51
30.53672217859451
  0
LINE
  5
1ED
100
AcDbEntity
  8
int
  6
ByLayer
 62
  256
370
   -1
100
AcDbLine
 10
-2.460451807924592
 20
-14.84978992675668
 11
6.934454733753333
 21
-14.84978992675668
  0
LINE
  5
1EE
100
AcDbEntity
  8
int
  6
ByLayer
 62
  256
370
   -1
100
AcDbLine
 10
-1.086351457323226
 20
-4.08816343018959
 11
-4.993148014017972
 21
-10.241856492923
  0
ARC
  5
1EF
100
AcDbEntity
  8
int
  6
ByLayer
 62
  256
370
   -1
100
AcDbCircle
 10
-2.460451807924592
 20
-11.84978992675668
 40
3
100
AcDbArc
 50
147.5897515083014
 51
270
  0
LINE
  5
1F0
100
AcDbEntity
  8
ext1
  6
ByLayer
 62
  256
370
   -1
100
AcDbLine
 10
-115
 20
45.75
 11
115
 21
45.74999999999994
  0
LINE
  5
1F1
100
AcDbEntity
  8
ext1
  6
ByLayer
 62
  256
370
   -1
100
AcDbLine
 10
-115
 20
-45.75
 11
115
 21
-45.75
  0
ARC
  5
1F2
100
AcDbEntity
  8
ext1
  6
ByLayer
 62
  256
370
   -1
100
AcDbCircle
 10
115
 20
-40
 40
5.75
100
AcDbArc
 50
270.0000000000002
 51
359.9999999999997
  0
LINE
  5
1F3
100
AcDbEntity
  8
ext1
  6
ByLayer
 62
  256
370
   -1
100
AcDbLine
 10
120.75
 20
39.99999999999994
 11
120.75
 21
-40.00000000000002
  0
ARC
  5
1F4
100
AcDbEntity
  8
ext1
  6
ByLayer
 62
  256
370
   -1
100
AcDbCircle
 10
115
 20
39.99999999999994
 40
5.75
100
AcDbArc
 50
0
 51
89.99999999999983
  0
ARC
  5
1F5
100
AcDbEntity
  8
ext1
  6
ByLayer
 62
  256
370
   -1
100
AcDbCircle
 10
-115
 20
-40
 40
5.75
100
AcDbArc
 50
180
 51
270
  0
LINE
  5
1F6
100
AcDbEntity
  8
ext1
  6
ByLayer
 62
  256
370
   -1
100
AcDbLine
 10
-120.75
 20
40
 11
-120.75
 21
-40
  0
ARC
  5
1F7
100
AcDbEntity
  8
ext1
  6
ByLayer
 62
  256
370
   -1
100
AcDbCircle
 10
-115
 20
40
 40
5.75
100
AcDbArc
 50
90
 51
180
  0
ARC
  5
1F8
100
AcDbEntity
  8
ext2
  6
ByLayer
 62
  256
370
   -1
100
AcDbCircle
 10
-115
 20
-40
 40
10.75
100
AcDbArc
 50
180
 51
270
  0
LINE
  5
1F9
100
AcDbEntity
  8
ext2
  6
ByLayer
 62
  256
370
   -1
100
AcDbLine
 10
-115
 20
-50.75
 11
115
 21
-50.75
  0
ARC
  5
1FA
100
AcDbEntity
  8
ext2
  6
ByLayer
 62
  256
370
   -1
100
AcDbCircle
 10
115
 20
-40
 40
10.75
100
AcDbArc
 50
270.0000000000002
 51
359.9999999999997
  0
LINE
  5
1FB
100
AcDbEntity
  8
ext3
  6
ByLayer
 62
  256
370
   -1
100
AcDbLine
 10
-115
 20
-51.75
 11
115
 21
-51.75
  0
ARC
  5
1FC
100
AcDbEntity
  8
ext3
  6
ByLayer
 62
  256
370
   -1
100
AcDbCircle
 10
115
 20
-40
 40
11.75
100
AcDbArc
 50
270.0000000000002
 51
359.9999999999997
  0
ARC
  5
1FD
100
AcDbEntity
  8
ext3
  6
ByLayer
 62
  256
370
   -1
100
AcDbCircle
 10
-115
 20
-40
 40
11.75
100
AcDbArc
 50
180
 51
270
  0
ARC
  5
1FE
100
AcDbEntity
  8
ajour
  6
ByLayer
 62
  256
370
   -1
100
AcDbCircle
 10
2.37500000000007
 20
-6.285672494763816
 40
14.1
100
AcDbArc
 50
30.53672175557572
 51
147.5897508737443
  0
LINE
  5
1FF
100
AcDbEntity
  8
ajour
  6
ByLayer
 62
  256
370
   -1
100
AcDbLine
 10
-9.528672144301165
 20
1.271614682589364
 11
-21.81401368360592
 21
-18.07933433833688
  0
ARC
  5
200
100
AcDbEntity
  8
ajour
  6
ByLayer
 62
  256
370
   -1
100
AcDbCircle
 10
-47.14097574453973
 20
-2
 40
30
100
AcDbArc
 50
270
 51
327.5897515083014
  0
LINE
  5
201
100
AcDbEntity
  8
ajour
  6
ByLayer
 62
  256
370
   -1
100
AcDbLine
 10
14.51938205172236
 20
0.8784034806712313
 11
25.20918651441085
 21
-17.24271489682384
  0
ARC
  5
202
100
AcDbEntity
  8
ajour
  6
ByLayer
 62
  256
370
   -1
100
AcDbCircle
 10
51.04829723003232
 20
-2
 40
30
100
AcDbArc
 50
210.5367221785945
 51
270
  0
ARC
  5
203
100
AcDbEntity
  8
ajour
  6
ByLayer
 62
  256
370
   -1
100
AcDbCircle
 10
102
 20
26.99999999999995
 40
5
100
AcDbArc
 50
0
 51
90.00000000000033
  0
LINE
  5
204
100
AcDbEntity
  8
ajour
  6
ByLayer
 62
  256
370
   -1
100
AcDbLine
 10
107
 20
26.99999999999995
 11
107
 21
-27.00000000000001
  0
LINE
  5
205
100
AcDbEntity
  8
ajour
  6
ByLayer
 62
  256
370
   -1
100
AcDbLine
 10
51.04829723003232
 20
-32
 11
102
 21
-32
  0
ARC
  5
206
100
AcDbEntity
  8
ajour
  6
ByLayer
 62
  256
370
   -1
100
AcDbCircle
 10
102
 20
-27
 40
5
100
AcDbArc
 50
270
 51
359.9999999999999
  0
LINE
  5
207
100
AcDbEntity
  8
ajour
  6
ByLayer
 62
  256
370
   -1
100
AcDbLine
 10
-102
 20
32
 11
102
 21
31.99999999999994
  0
ARC
  5
208
100
AcDbEntity
  8
ajour
  6
ByLayer
 62
  256
370
   -1
100
AcDbCircle
 10
-102
 20
27
 40
5
100
AcDbArc
 50
90
 51
180
  0
LINE
  5
209
100
AcDbEntity
  8
ajour
  6
ByLayer
 62
  256
370
   -1
100
AcDbLine
 10
-107
 20
27
 11
-107
 21
-27
  0
LINE
  5
20A
100
AcDbEntity
  8
ajour
  6
ByLayer
 62
  256
370
   -1
100
AcDbLine
 10
-102
 20
-32
 11
-47.14097574453972
 21
-32
  0
ARC
  5
20B
100
AcDbEntity
  8
ajour
  6
ByLayer
 62
  256
370
   -1
100
AcDbCircle
 10
-102
 20
-27
 40
5
100
AcDbArc
 50
180
 51
270
  0
LINE
  5
20C
100
AcDbEntity
  8
rpi
  6
ByLayer
 62
  256
370
   -1
100
AcDbLine
 10
6.239210002376931
 20
41.99999999999997
 11
-13.76078999762307
 21
41.99999999999997
  0
LINE
  5
20D
100
AcDbEntity
  8
rpi
  6
ByLayer
 62
  256
370
   -1
100
AcDbLine
 10
6.23921000237693
 20
15.99999999999997
 11
6.239210002376931
 21
41.99999999999997
  0
LINE
  5
20E
100
AcDbEntity
  8
rpi
  6
ByLayer
 62
  256
370
   -1
100
AcDbLine
 10
-13.76078999762307
 20
15.99999999999998
 11
-13.76078999762307
 21
41.99999999999997
  0
LINE
  5
20F
100
AcDbEntity
  8
rpi
  6
ByLayer
 62
  256
370
   -1
100
AcDbLine
 10
6.23921000237693
 20
15.99999999999997
 11
-13.76078999762307
 21
15.99999999999998
  0
LINE
  5
210
100
AcDbEntity
  8
rpi-cut
  6
ByLayer
 62
  256
370
   -1
100
AcDbLine
 10
4.239210002376932
 20
66
 11
-11.76078999762307
 21
66
  0
LINE
  5
211
100
AcDbEntity
  8
placement
  6
ByLayer
 62
  256
370
   -1
100
AcDbLine
 10
-13.76078999762307
 20
41.99999999999997
 11
6.23921000237693
 21
15.99999999999997
  0
LINE
  5
212
100
AcDbEntity
  8
int
  6
ByLayer
 62
  256
370
   -1
100
AcDbLine
 10
90.85884148832052
 20
-42
 11
107.9707752916841
 21
-42
  0
ARC
  5
213
100
AcDbEntity
  8
int
  6
ByLayer
 62
  256
370
   -1
100
AcDbCircle
 10
90.85884148832052
 20
-40
 40
2
100
AcDbArc
 50
180
 51
270
  0
LINE
  5
214
100
AcDbEntity
  8
int
  6
ByLayer
 62
  256
370
   -1
100
AcDbLine
 10
88.85884148832052
 20
-40
 11
88.85884148832052
 21
-36
  0
ARC
  5
215
100
AcDbEntity
  8
int
  6
ByLayer
 62
  256
370
   -1
100
AcDbCircle
 10
86.85884148832052
 20
-36
 40
2
100
AcDbArc
 50
0
 51
90
  0
LINE
  5
216
100
AcDbEntity
  8
int
  6
ByLayer
 62
  256
370
   -1
100
AcDbLine
 10
77.45850993349583
 20
-34
 11
86.85884148832052
 21
-34
  0
ARC
  5
217
100
AcDbEntity
  8
int
  6
ByLayer
 62
  256
370
   -1
100
AcDbCircle
 10
77.45850993349583
 20
-36
 40
2
100
AcDbArc
 50
90
 51
180
  0
LINE
  5
218
100
AcDbEntity
  8
int
  6
ByLayer
 62
  256
370
   -1
100
AcDbLine
 10
75.45850993349583
 20
-40
 11
75.45850993349583
 21
-36
  0
ARC
  5
219
100
AcDbEntity
  8
int
  6
ByLayer
 62
  256
370
   -1
100
AcDbCircle
 10
73.45850993349583
 20
-40
 40
2
100
AcDbArc
 50
269.9999999999996
 51
0
  0
ARC
  5
21A
100
AcDbEntity
  8
int
  6
ByLayer
 62
  256
370
   -1
100
AcDbCircle
 10
-73.45300294905248
 20
-40
 40
2
100
AcDbArc
 50
180
 51
270
  0
LINE
  5
21B
100
AcDbEntity
  8
int
  6
ByLayer
 62
  256
370
   -1
100
AcDbLine
 10
-75.45300294905248
 20
-40
 11
-75.45300294905248
 21
-36
  0
ARC
  5
21C
100
AcDbEntity
  8
int
  6
ByLayer
 62
  256
370
   -1
100
AcDbCircle
 10
-77.45300294905248
 20
-36
 40
2
100
AcDbArc
 50
0
 51
90
  0
LINE
  5
21D
100
AcDbEntity
  8
int
  6
ByLayer
 62
  256
370
   -1
100
AcDbLine
 10
-86.85884148832041
 20
-34
 11
-77.45300294905248
 21
-34
  0
ARC
  5
21E
100
AcDbEntity
  8
int
  6
ByLayer
 62
  256
370
   -1
100
AcDbCircle
 10
-86.85884148832041
 20
-36
 40
2
100
AcDbArc
 50
90
 51
180
  0
LINE
  5
21F
100
AcDbEntity
  8
int
  6
ByLayer
 62
  256
370
   -1
100
AcDbLine
 10
-88.85884148832041
 20
-40
 11
-88.85884148832041
 21
-36
  0
LINE
  5
220
100
AcDbEntity
  8
int
  6
ByLayer
 62
  256
370
   -1
100
AcDbLine
 10
-107.9707752916839
 20
-42
 11
-90.85884148832041
 21
-42
  0
ARC
  5
221
100
AcDbEntity
  8
int
  6
ByLayer
 62
  256
370
   -1
100
AcDbCircle
 10
-90.85884148832041
 20
-40
 40
2
100
AcDbArc
 50
270
 51
0
  0
ARC
  5
222
100
AcDbEntity
  8
int
  6
ByLayer
 62
  256
370
   -1
100
AcDbCircle
 10
10.23921000237693
 20
37.35962992720435
 40
2
100
AcDbArc
 50
180
 51
281.7
  0
ARC
  5
223
100
AcDbEntity
  8
int
  6
ByLayer
 62
  256
370
   -1
100
AcDbCircle
 10
-17.76078999762307
 20
39.68015649493584
 40
2
100
AcDbArc
 50
259.9999999999999
 51
2.035554996136651e-13
  0
LINE
  5
224
100
AcDbEntity
  8
int
  6
ByLayer
 62
  256
370
   -1
100
AcDbLine
 10
-15.76078999762307
 20
39.68015649493584
 11
-15.76078999762307
 21
39.99999999999997
  0
ARC
  5
225
100
AcDbEntity
  8
int
  6
ByLayer
 62
  256
370
   -1
100
AcDbCircle
 10
-13.76078999762307
 20
39.99999999999997
 40
2
100
AcDbArc
 50
90
 51
180
  0
LINE
  5
226
100
AcDbEntity
  8
int
  6
ByLayer
 62
  256
370
   -1
100
AcDbLine
 10
8.239210002376931
 20
37.35962992720435
 11
8.239210002376931
 21
39.99999999999996
  0
LINE
  5
227
100
AcDbEntity
  8
int
  6
ByLayer
 62
  256
370
   -1
100
AcDbLine
 10
-13.76078999762307
 20
41.99999999999997
 11
6.239210002376929
 21
41.99999999999996
  0
ARC
  5
228
100
AcDbEntity
  8
int
  6
ByLayer
 62
  256
370
   -1
100
AcDbCircle
 10
6.239210002376931
 20
39.99999999999996
 40
2
100
AcDbArc
 50
0
 51
90.00000000000006
  0
LINE
  5
229
100
AcDbEntity
  8
int
  6
ByLayer
 62
  256
370
   -1
100
AcDbLine
 10
-25.20291443033762
 20
38.96155060244159
 11
-18.10808635295693
 21
37.71054098891141
  0
LINE
  5
22A
100
AcDbEntity
  8
int
  6
ByLayer
 62
  256
370
   -1
100
AcDbLine
 10
-107.9707752916844
 20
42
 11
-59.9325499637237
 21
41.99999999999999
  0
ARC
  5
22B
100
AcDbEntity
  8
int
  6
ByLayer
 62
  256
370
   -1
100
AcDbCircle
 10
-59.93254996372377
 20
-158
 40
200
100
AcDbArc
 50
79.99999999999997
 51
89.99999999999999
  0
LINE
  5
22C
100
AcDbEntity
  8
int
  6
ByLayer
 62
  256
370
   -1
100
AcDbLine
 10
10.64478459308996
 20
35.40118430596082
 11
22.4434098005053
 21
37.84456212435306
  0
LINE
  5
22D
100
AcDbEntity
  8
int
  6
ByLayer
 62
  256
370
   -1
100
AcDbLine
 10
63.00086887180786
 20
41.99999999999995
 11
107.970775291684
 21
41.99999999999994
  0
ARC
  5
22E
100
AcDbEntity
  8
int
  6
ByLayer
 62
  256
370
   -1
100
AcDbCircle
 10
63.00086887180782
 20
-158.0000000000001
 40
200
100
AcDbArc
 50
89.99999999999999
 51
101.7
  0
LINE
  5
22F
100
AcDbEntity
  8
int
  6
ByLayer
 62
  256
370
   -1
100
AcDbLine
 10
-73.45300294905248
 20
-42
 11
-11.85201486330715
 21
-42
  0
ARC
  5
230
100
AcDbEntity
  8
int
  6
ByLayer
 62
  256
370
   -1
100
AcDbCircle
 10
-11.85201486330716
 20
-40
 40
2
100
AcDbArc
 50
270.0000000000003
 51
349.6665491258659
  0
LINE
  5
231
100
AcDbEntity
  8
int
  6
ByLayer
 62
  256
370
   -1
100
AcDbLine
 10
-9.680656213320901
 20
-39.24103671848091
 11
-9.88445390223078
 21
-40.35875320827579
  0
ARC
  5
232
100
AcDbEntity
  8
int
  6
ByLayer
 62
  256
370
   -1
100
AcDbCircle
 10
-7.713095252244517
 20
-39.59978992675669
 40
2
100
AcDbArc
 50
90.00000000000006
 51
169.6665491258658
  0
LINE
  5
233
100
AcDbEntity
  8
int
  6
ByLayer
 62
  256
370
   -1
100
AcDbLine
 10
-7.713095252244519
 20
-37.59978992675669
 11
12.46309525224465
 21
-37.59978992675668
  0
ARC
  5
234
100
AcDbEntity
  8
int
  6
ByLayer
 62
  256
370
   -1
100
AcDbCircle
 10
12.46309525224465
 20
-39.59978992675667
 40
2
100
AcDbArc
 50
10.33345087413418
 51
90
  0
LINE
  5
235
100
AcDbEntity
  8
int
  6
ByLayer
 62
  256
370
   -1
100
AcDbLine
 10
14.43065621332103
 20
-39.24103671848088
 11
14.63445390223092
 21
-40.35875320827579
  0
LINE
  5
236
100
AcDbEntity
  8
int
  6
ByLayer
 62
  256
370
   -1
100
AcDbLine
 10
16.6020148633073
 20
-42
 11
73.45850993349582
 21
-42
  0
ARC
  5
237
100
AcDbEntity
  8
int
  6
ByLayer
 62
  256
370
   -1
100
AcDbCircle
 10
16.6020148633073
 20
-40
 40
2
100
AcDbArc
 50
190.3334508741344
 51
270
  0
ARC
  5
238
100
AcDbEntity
  8
ext2
  6
ByLayer
 62
  256
370
   -1
100
AcDbCircle
 10
115
 20
39.99999999999994
 40
10.75
100
AcDbArc
 50
0
 51
89.99999999999983
  0
LINE
  5
239
100
AcDbEntity
  8
ext2
  6
ByLayer
 62
  256
370
   -1
100
AcDbLine
 10
-115
 20
50.75
 11
115
 21
50.74999999999994
  0
ARC
  5
23A
100
AcDbEntity
  8
ext2
  6
ByLayer
 62
  256
370
   -1
100
AcDbCircle
 10
-115
 20
40
 40
10.75
100
AcDbArc
 50
90
 51
180
  0
LINE
  5
23B
100
AcDbEntity
  8
ext2
  6
ByLayer
 62
  256
370
   -1
100
AcDbLine
 10
125.75
 20
39.99999850584895
 11
125.75
 21
-40.00000000000002
  0
LINE
  5
23C
100
AcDbEntity
  8
ext2
  6
ByLayer
 62
  256
370
   -1
100
AcDbLine
 10
-125.75
 20
40
 11
-125.75
 21
-40
  0
ARC
  5
23D
100
AcDbEntity
  8
ext3
  6
ByLayer
 62
  256
370
   -1
100
AcDbCircle
 10
115
 20
39.99999999999994
 40
11.75
100
AcDbArc
 50
0
 51
89.99999999999983
  0
LINE
  5
23E
100
AcDbEntity
  8
ext3
  6
ByLayer
 62
  256
370
   -1
100
AcDbLine
 10
-115
 20
51.75
 11
115
 21
51.74999999999994
  0
ARC
  5
23F
100
AcDbEntity
  8
ext3
  6
ByLayer
 62
  256
370
   -1
100
AcDbCircle
 10
-115
 20
40
 40
11.75
100
AcDbArc
 50
90
 51
180
  0
LINE
  5
240
100
AcDbEntity
  8
ext3
  6
ByLayer
 62
  256
370
   -1
100
AcDbLine
 10
126.75
 20
40.00000132856989
 11
126.75
 21
-40.00000000000002
  0
LINE
  5
241
100
AcDbEntity
  8
ext3
  6
ByLayer
 62
  256
370
   -1
100
AcDbLine
 10
-126.75
 20
40.00000058678747
 11
-126.75
 21
-40
  0
LINE
  5
242
100
AcDbEntity
  8
rpi-cut
  6
ByLayer
 62
  256
370
   -1
100
AcDbLine
 10
-11.76078999762307
 20
38.49999999999997
 11
-11.76078999762307
 21
66
  0
LINE
  5
243
100
AcDbEntity
  8
rpi-cut
  6
ByLayer
 62
  256
370
   -1
100
AcDbLine
 10
4.23921000237693
 20
38.49999999999997
 11
4.239210002376932
 21
66
  0
LINE
  5
244
100
AcDbEntity
  8
rpi-cut
  6
ByLayer
 62
  256
370
   -1
100
AcDbLine
 10
4.23921000237693
 20
38.49999999999997
 11
-11.76078999762307
 21
38.49999999999997
  0
ENDSEC
  0
SECTION
  2
OBJECTS
  0
DICTIONARY
  5
C
330
0
100
AcDbDictionary
281
    1
  3
ACAD_GROUP
350
D
  0
DICTIONARY
  5
D
330
C
100
AcDbDictionary
281
    1
  0
PLOTSETTINGS
  5
245
100
AcDbPlotSettings
  6
1x1
 40
0
 41
0
 42
0
 43
0
  0
ENDSEC
  0
EOF
