<?xml version="1.0" encoding="UTF-8" standalone="no"?>
<!-- Generated by Pixelmator Pro 3.2.2 -->

<svg
   width="258.52957"
   height="110.7142"
   viewBox="0 0 258.52957 110.71422"
   version="1.1"
   id="svg107"
   sodipodi:docname="Ada_logo.svg"
   inkscape:version="1.2.2 (b0a8486541, 2022-12-01)"
   xmlns:inkscape="http://www.inkscape.org/namespaces/inkscape"
   xmlns:sodipodi="http://sodipodi.sourceforge.net/DTD/sodipodi-0.dtd"
   xmlns="http://www.w3.org/2000/svg"
   xmlns:svg="http://www.w3.org/2000/svg">
  <defs
     id="defs111" />
  <sodipodi:namedview
     id="namedview109"
     pagecolor="#ffffff"
     bordercolor="#000000"
     borderopacity="0.25"
     inkscape:showpageshadow="2"
     inkscape:pageopacity="0.0"
     inkscape:pagecheckerboard="0"
     inkscape:deskcolor="#d1d1d1"
     showgrid="false"
     inkscape:zoom="1.1616576"
     inkscape:cx="106.74402"
     inkscape:cy="163.12896"
     inkscape:window-width="1676"
     inkscape:window-height="1016"
     inkscape:window-x="1280"
     inkscape:window-y="0"
     inkscape:window-maximized="1"
     inkscape:current-layer="svg107" />
  <path
     id="path293"
     fill="#005a00"
     stroke="none"
     d="m 203.26537,70.990873 c 0.002,-4.58614 4.84336,-6.27221 12.71147,-7.11357 6.53395,-0.7205 11.73867,-1.80446 15.12853,-3.97503 l -0.003,5.7929 c -0.004,6.91413 -5.84196,10.27439 -13.63441,11.03836 -3.17871,-0.29632 -6.50493,-0.57432 -9.95879,-0.82835 -2.68664,-1.0236 -4.24492,-2.76125 -4.24382,-4.91431 z m -150.669684,1.97445 33.522858,0.0172 2.74636,8.11459 c -14.429832,2.61161 -28.795433,6.05395 -42.654773,10.39532 z m 16.726997,-49.23459 11.720162,34.40453 -23.477433,-0.0121 z m 74.537597,17.29787 c 8.83498,0.004 15.97054,7.97484 15.96546,17.87087 -0.004,6.99854 -3.76516,13.02488 -9.1939,15.82159 -4.08755,0.13428 -8.22809,0.31999 -12.40933,0.56096 -6.04915,-2.44164 -10.34901,-8.72259 -10.34506,-16.39896 0.005,-10.138 7.14882,-17.85899 15.98283,-17.85446 z m 102.13605,39.34432 c -0.008,-0.22841 -0.0168,-0.45501 -0.0167,-0.6686 l 0.0166,-32.34746 c 0.003,-4.94777 -1.92458,-21.24301 -27.21732,-21.25599 -16.33768,-0.008 -27.71873,8.79667 -29.29817,20.62401 l 15.97556,0.008 c 1.45507,-5.31037 7.9918,-7.84134 13.68008,-7.83842 7.1387,0.004 11.37233,2.66172 11.37067,5.91991 -0.003,5.06867 -7.38494,6.27316 -17.79281,7.23289 -13.7958,1.1993 -25.53727,4.81435 -25.54446,18.81538 -7e-4,1.39056 0.13855,2.70018 0.38281,3.94537 -3.82457,-0.14012 -7.74939,-0.24341 -11.7612,-0.30441 L 175.82959,0.0082 159.85593,0 l -0.0172,33.554133 c -4.8378,-4.58927 -11.13078,-7.24803 -18.39145,-7.25175 -16.21667,-0.008 -29.65688,13.98468 -29.66636,32.45256 -0.004,6.87878 1.88807,13.14557 5.10302,18.29511 -4.00638,0.43634 -8.02985,0.93519 -12.06185,1.49676 L 79.496168,5.994196 59.286367,5.98382 27.0081,98.229143 C 17.592768,101.91534 8.536102,106.06954 0,110.7142 41.325285,92.757143 143.22121,68.471733 258.52956,83.440363 c -0.54995,-0.60984 -5.02078,-1.7744 -12.53323,-3.06744" />
</svg>
