999
dxfrw 0.6.3
  0
SECTION
  2
HEADER
  9
$ACADVER
  1
AC1021
  9
$DWGCODEPAGE
  3
ANSI_1252
  9
$INSBASE
 10
0
 20
0
 30
0
  9
$EXTMIN
 10
-107.9847164796823
 20
-39.3883463417927
 30
0
  9
$EXTMAX
 10
107.9847164796823
 20
69.3883463417927
 30
0
  9
$LIMMIN
 10
0
 20
0
  9
$LIMMAX
 10
420
 20
297
  9
$ORTHOMODE
 70
    0
  9
$REGENMODE
 70
    1
  9
$FILLMODE
 70
    1
  9
$QTEXTMODE
 70
    0
  9
$MIRRTEXT
 70
    0
  9
$LTSCALE
 40
1
  9
$ATTMODE
 70
    0
  9
$TEXTSIZE
 40
2.5
  9
$TRACEWID
 40
15.68
  9
$TEXTSTYLE
  7
STANDARD
  9
$CLAYER
  8
percage
  9
$CELTYPE
  6
BYLAYER
  9
$CECOLOR
 62
  256
  9
$CELTSCALE
 40
1
  9
$DISPSILH
 70
    0
  9
$DIMSCALE
 40
2.5
  9
$DIMASZ
 40
2.5
  9
$DIMEXO
 40
0.625
  9
$DIMDLI
 40
3.75
  9
$DIMRND
 40
0
  9
$DIMDLE
 40
0
  9
$DIMEXE
 40
1.25
  9
$DIMTP
 40
0
  9
$DIMTM
 40
0
  9
$DIMTXT
 40
2.5
  9
$DIMCEN
 40
2.5
  9
$DIMTSZ
 40
0
  9
$DIMTOL
 70
    0
  9
$DIMLIM
 70
    0
  9
$DIMTIH
 70
    0
  9
$DIMTOH
 70
    0
  9
$DIMSE1
 70
    0
  9
$DIMSE2
 70
    0
  9
$DIMTAD
 70
    1
  9
$DIMZIN
 70
    8
  9
$DIMBLK
  1

  9
$DIMASO
 70
    1
  9
$DIMSHO
 70
    1
  9
$DIMPOST
  1

  9
$DIMAPOST
  1

  9
$DIMALT
 70
    0
  9
$DIMALTD
 70
    3
  9
$DIMALTF
 40
0.03937
  9
$DIMLFAC
 40
1
  9
$DIMTOFL
 70
    1
  9
$DIMTVP
 40
0
  9
$DIMTIX
 70
    0
  9
$DIMSOXD
 70
    0
  9
$DIMSAH
 70
    0
  9
$DIMBLK1
  1

  9
$DIMBLK2
  1

  9
$DIMSTYLE
  2
STANDARD
  9
$DIMCLRD
 70
    0
  9
$DIMCLRE
 70
    0
  9
$DIMCLRT
 70
    0
  9
$DIMTFAC
 40
1
  9
$DIMGAP
 40
0.625
  9
$DIMJUST
 70
    0
  9
$DIMSD1
 70
    0
  9
$DIMSD2
 70
    0
  9
$DIMTOLJ
 70
    0
  9
$DIMTZIN
 70
    8
  9
$DIMALTZ
 70
    0
  9
$DIMALTTZ
 70
    0
  9
$DIMUPT
 70
    0
  9
$DIMDEC
 70
    2
  9
$DIMTDEC
 70
    2
  9
$DIMALTU
 70
    2
  9
$DIMALTTD
 70
    3
  9
$DIMTXSTY
  7
STANDARD
  9
$DIMAUNIT
 70
    0
  9
$DIMADEC
 70
    0
  9
$DIMALTRND
 40
0
  9
$DIMAZIN
 70
    0
  9
$DIMDSEP
 70
   44
  9
$DIMATFIT
 70
    3
  9
$DIMFRAC
 70
    0
  9
$DIMLDRBLK
  1
STANDARD
  9
$DIMLUNIT
 70
    2
  9
$DIMLWD
 70
   -2
  9
$DIMLWE
 70
   -2
  9
$DIMTMOVE
 70
    0
  9
$DIMFXL
 40
1
  9
$DIMFXLON
 70
    0
  9
$DIMJOGANG
 40
0.7854
  9
$DIMTFILL
 70
    0
  9
$DIMTFILLCLR
 70
    0
  9
$DIMARCSYM
 70
    0
  9
$DIMLTYPE
  6

  9
$DIMLTEX1
  6

  9
$DIMLTEX2
  6

  9
$LUNITS
 70
    2
  9
$LUPREC
 70
    4
  9
$SKETCHINC
 40
1
  9
$FILLETRAD
 40
0
  9
$AUNITS
 70
    0
  9
$AUPREC
 70
    2
  9
$MENU
  1
.
  9
$ELEVATION
 40
0
  9
$PELEVATION
 40
0
  9
$THICKNESS
 40
0
  9
$LIMCHECK
 70
    0
  9
$CHAMFERA
 40
0
  9
$CHAMFERB
 40
0
  9
$CHAMFERC
 40
0
  9
$CHAMFERD
 40
0
  9
$SKPOLY
 70
    0
  9
$USRTIMER
 70
    1
  9
$ANGBASE
 50
0
  9
$ANGDIR
 70
    0
  9
$PDMODE
 70
   34
  9
$PDSIZE
 40
0
  9
$PLINEWID
 40
0
  9
$SPLFRAME
 70
    0
  9
$SPLINETYPE
 70
    2
  9
$SPLINESEGS
 70
    8
  9
$HANDSEED
  5
20000
  9
$SURFTAB1
 70
    6
  9
$SURFTAB2
 70
    6
  9
$SURFTYPE
 70
    6
  9
$SURFU
 70
    6
  9
$SURFV
 70
    6
  9
$UCSBASE
  2

  9
$UCSNAME
  2

  9
$UCSORG
 10
0
 20
0
 30
0
  9
$UCSXDIR
 10
1
 20
0
 30
0
  9
$UCSYDIR
 10
0
 20
1
 30
0
  9
$UCSORTHOREF
  2

  9
$UCSORTHOVIEW
 70
    0
  9
$UCSORGTOP
 10
0
 20
0
 30
0
  9
$UCSORGBOTTOM
 10
0
 20
0
 30
0
  9
$UCSORGLEFT
 10
0
 20
0
 30
0
  9
$UCSORGRIGHT
 10
0
 20
0
 30
0
  9
$UCSORGFRONT
 10
0
 20
0
 30
0
  9
$UCSORGBACK
 10
0
 20
0
 30
0
  9
$PUCSBASE
  2

  9
$PUCSNAME
  2

  9
$PUCSORG
 10
0
 20
0
 30
0
  9
$PUCSXDIR
 10
1
 20
0
 30
0
  9
$PUCSYDIR
 10
0
 20
1
 30
0
  9
$PUCSORTHOREF
  2

  9
$PUCSORTHOVIEW
 70
    0
  9
$PUCSORGTOP
 10
0
 20
0
 30
0
  9
$PUCSORGBOTTOM
 10
0
 20
0
 30
0
  9
$PUCSORGLEFT
 10
0
 20
0
 30
0
  9
$PUCSORGRIGHT
 10
0
 20
0
 30
0
  9
$PUCSORGFRONT
 10
0
 20
0
 30
0
  9
$PUCSORGBACK
 10
0
 20
0
 30
0
  9
$USERI1
 70
    0
  9
$USERI2
 70
    0
  9
$USERI3
 70
    0
  9
$USERI4
 70
    0
  9
$USERI5
 70
    0
  9
$USERR1
 40
0
  9
$USERR2
 40
0
  9
$USERR3
 40
0
  9
$USERR4
 40
0
  9
$USERR5
 40
0
  9
$WORLDVIEW
 70
    1
  9
$SHADEDGE
 70
    3
  9
$SHADEDIF
 70
   70
  9
$TILEMODE
 70
    1
  9
$MAXACTVP
 70
   64
  9
$PINSBASE
 10
0
 20
0
 30
0
  9
$PLIMCHECK
 70
    0
  9
$PEXTMIN
 10
0
 20
0
 30
0
  9
$PEXTMAX
 10
0
 20
0
 30
0
  9
$GRIDMODE
 70
    1
  9
$SNAPSTYLE
 70
    0
  9
$PLIMMIN
 10
0
 20
0
  9
$PLIMMAX
 10
210
 20
297
  9
$UNITMODE
 70
    0
  9
$VISRETAIN
 70
    1
  9
$PLINEGEN
 70
    0
  9
$PSLTSCALE
 70
    1
  9
$TREEDEPTH
 70
 3020
  9
$CMLSTYLE
  2
Standard
  9
$CMLJUST
 70
    0
  9
$CMLSCALE
 40
20
  9
$PROXYGRAPHICS
 70
    1
  9
$MEASUREMENT
 70
    1
  9
$CELWEIGHT
370
   -1
  9
$ENDCAPS
280
    0
  9
$JOINSTYLE
280
    0
  9
$LWDISPLAY
290
    0
  9
$INSUNITS
 70
    4
  9
$HYPERLINKBASE
  1

  9
$STYLESHEET
  1

  9
$XEDIT
290
    1
  9
$CEPSNTYPE
380
    0
  9
$PSTYLEMODE
290
    1
  9
$EXTNAMES
290
    1
  9
$PSVPSCALE
 40
1
  9
$OLESTARTUP
290
    0
  9
$SORTENTS
280
  127
  9
$INDEXCTL
280
    0
  9
$HIDETEXT
280
    1
  9
$XCLIPFRAME
290
    0
  9
$HALOGAP
280
    0
  9
$OBSCOLOR
 70
  257
  9
$OBSLTYPE
280
    0
  9
$INTERSECTIONDISPLAY
280
    0
  9
$INTERSECTIONCOLOR
 70
  257
  9
$DIMASSOC
280
    1
  9
$PROJECTNAME
  1

  9
$CAMERADISPLAY
290
    0
  9
$LENSLENGTH
 40
50
  9
$CAMERAHEIGHT
 40
0
  9
$STEPSPERSEC
 40
2
  9
$STEPSIZE
 40
50
  9
$3DDWFPREC
 40
2
  9
$PSOLWIDTH
 40
5
  9
$PSOLHEIGHT
 40
80
  9
$LOFTANG1
 40
1.570796326794897
  9
$LOFTANG2
 40
1.570796326794897
  9
$LOFTMAG1
 40
0
  9
$LOFTMAG2
 40
0
  9
$LOFTPARAM
 70
    7
  9
$LOFTNORMALS
280
    1
  9
$LATITUDE
 40
1
  9
$LONGITUDE
 40
1
  9
$NORTHDIRECTION
 40
0
  9
$TIMEZONE
 70
-8000
  9
$LIGHTGLYPHDISPLAY
280
    1
  9
$TILEMODELIGHTSYNCH
280
    1
  9
$SOLIDHIST
280
    1
  9
$SHOWHIST
280
    1
  9
$DWFFRAME
280
    2
  9
$DGNFRAME
280
    0
  9
$REALWORLDSCALE
290
    1
  9
$INTERFERECOLOR
 62
    1
  9
$CSHADOW
280
    0
  9
$SHADOWPLANELOCATION
 40
0
  0
ENDSEC
  0
SECTION
  2
CLASSES
  0
ENDSEC
  0
SECTION
  2
TABLES
  0
TABLE
  2
VPORT
  5
8
330
0
100
AcDbSymbolTable
 70
    1
  0
VPORT
  5
31
330
2
100
AcDbSymbolTableRecord
100
AcDbViewportTableRecord
  2
*ACTIVE
 70
    0
 10
0
 20
0
 11
1
 21
1
 12
54.84937979920371
 22
41.90835425282908
 13
0
 23
0
 14
10
 24
10
 15
10
 25
10
 16
0
 26
0
 36
1
 17
0
 27
0
 37
0
 40
137.2948538098818
 41
1.598002496878901
 42
50
 43
0
 44
0
 50
0
 51
0
 71
    0
 72
  100
 73
    1
 74
    3
 75
    0
 76
    1
 77
    0
 78
    0
281
    0
 65
    1
110
0
120
0
130
0
111
1
121
0
131
0
112
0
122
1
132
0
 79
    0
146
0
348
10020
 60
    7
 61
    5
292
1
282
    1
141
0
142
0
 63
  250
421
3358443
  0
ENDTAB
  0
TABLE
  2
LTYPE
  5
5
330
0
100
AcDbSymbolTable
 70
    4
  0
LTYPE
  5
14
330
5
100
AcDbSymbolTableRecord
100
AcDbLinetypeTableRecord
  2
ByBlock
 70
    0
  3

 72
   65
 73
    0
 40
0
  0
LTYPE
  5
15
330
5
100
AcDbSymbolTableRecord
100
AcDbLinetypeTableRecord
  2
ByLayer
 70
    0
  3

 72
   65
 73
    0
 40
0
  0
LTYPE
  5
16
330
5
100
AcDbSymbolTableRecord
100
AcDbLinetypeTableRecord
  2
Continuous
 70
    0
  3
Solid line
 72
   65
 73
    0
 40
0
  0
LTYPE
  5
32
330
5
100
AcDbSymbolTableRecord
100
AcDbLinetypeTableRecord
  2
DOT
 70
    0
  3
Dot . . . . . . . . . . . . . . . . . . . . . .
 72
   65
 73
    2
 40
6.35
 49
0
 74
    0
 49
-6.35
 74
    0
  0
LTYPE
  5
33
330
5
100
AcDbSymbolTableRecord
100
AcDbLinetypeTableRecord
  2
DOTTINY
 70
    0
  3
Dot (.15x) .....................................
 72
   65
 73
    2
 40
0.9525
 49
0
 74
    0
 49
-0.9525
 74
    0
  0
LTYPE
  5
34
330
5
100
AcDbSymbolTableRecord
100
AcDbLinetypeTableRecord
  2
DOT2
 70
    0
  3
Dot (.5x) .....................................
 72
   65
 73
    2
 40
3.175
 49
0
 74
    0
 49
-3.175
 74
    0
  0
LTYPE
  5
35
330
5
100
AcDbSymbolTableRecord
100
AcDbLinetypeTableRecord
  2
DOTX2
 70
    0
  3
Dot (2x) .  .  .  .  .  .  .  .  .  .  .  .  .
 72
   65
 73
    2
 40
12.7
 49
0
 74
    0
 49
-12.7
 74
    0
  0
LTYPE
  5
36
330
5
100
AcDbSymbolTableRecord
100
AcDbLinetypeTableRecord
  2
DASHED
 70
    0
  3
Dashed _ _ _ _ _ _ _ _ _ _ _ _ _ _ _ _ _
 72
   65
 73
    2
 40
19.05
 49
12.7
 74
    0
 49
-6.35
 74
    0
  0
LTYPE
  5
37
330
5
100
AcDbSymbolTableRecord
100
AcDbLinetypeTableRecord
  2
DASHEDTINY
 70
    0
  3
Dashed (.15x) _ _ _ _ _ _ _ _ _ _ _ _ _ _ _ _ _
 72
   65
 73
    2
 40
2.8575
 49
1.905
 74
    0
 49
-0.9525
 74
    0
  0
LTYPE
  5
38
330
5
100
AcDbSymbolTableRecord
100
AcDbLinetypeTableRecord
  2
DASHED2
 70
    0
  3
Dashed (.5x) _ _ _ _ _ _ _ _ _ _ _ _ _ _ _ _ _
 72
   65
 73
    2
 40
9.524999999999999
 49
6.35
 74
    0
 49
-3.175
 74
    0
  0
LTYPE
  5
39
330
5
100
AcDbSymbolTableRecord
100
AcDbLinetypeTableRecord
  2
DASHEDX2
 70
    0
  3
Dashed (2x) ____  ____  ____  ____  ____  ___
 72
   65
 73
    2
 40
38.09999999999999
 49
25.4
 74
    0
 49
-12.7
 74
    0
  0
LTYPE
  5
3A
330
5
100
AcDbSymbolTableRecord
100
AcDbLinetypeTableRecord
  2
DASHDOT
 70
    0
  3
Dash dot __ . __ . __ . __ . __ . __ . __ . __
 72
   65
 73
    4
 40
25.4
 49
12.7
 74
    0
 49
-6.35
 74
    0
 49
0
 74
    0
 49
-6.35
 74
    0
  0
LTYPE
  5
3B
330
5
100
AcDbSymbolTableRecord
100
AcDbLinetypeTableRecord
  2
DASHDOTTINY
 70
    0
  3
Dash dot (.15x) _._._._._._._._._._._._._._._.
 72
   65
 73
    4
 40
3.81
 49
1.905
 74
    0
 49
-0.9525
 74
    0
 49
0
 74
    0
 49
-0.9525
 74
    0
  0
LTYPE
  5
3C
330
5
100
AcDbSymbolTableRecord
100
AcDbLinetypeTableRecord
  2
DASHDOT2
 70
    0
  3
Dash dot (.5x) _._._._._._._._._._._._._._._.
 72
   65
 73
    4
 40
12.7
 49
6.35
 74
    0
 49
-3.175
 74
    0
 49
0
 74
    0
 49
-3.175
 74
    0
  0
LTYPE
  5
3D
330
5
100
AcDbSymbolTableRecord
100
AcDbLinetypeTableRecord
  2
DASHDOTX2
 70
    0
  3
Dash dot (2x) ____  .  ____  .  ____  .  ___
 72
   65
 73
    4
 40
50.8
 49
25.4
 74
    0
 49
-12.7
 74
    0
 49
0
 74
    0
 49
-12.7
 74
    0
  0
LTYPE
  5
3E
330
5
100
AcDbSymbolTableRecord
100
AcDbLinetypeTableRecord
  2
DIVIDE
 70
    0
  3
Divide ____ . . ____ . . ____ . . ____ . . ____
 72
   65
 73
    6
 40
31.75
 49
12.7
 74
    0
 49
-6.35
 74
    0
 49
0
 74
    0
 49
-6.35
 74
    0
 49
0
 74
    0
 49
-6.35
 74
    0
  0
LTYPE
  5
3F
330
5
100
AcDbSymbolTableRecord
100
AcDbLinetypeTableRecord
  2
DIVIDETINY
 70
    0
  3
Divide (.15x) __..__..__..__..__..__..__..__.._
 72
   65
 73
    6
 40
4.7625
 49
1.905
 74
    0
 49
-0.9525
 74
    0
 49
0
 74
    0
 49
-0.9525
 74
    0
 49
0
 74
    0
 49
-0.9525
 74
    0
  0
LTYPE
  5
40
330
5
100
AcDbSymbolTableRecord
100
AcDbLinetypeTableRecord
  2
DIVIDE2
 70
    0
  3
Divide (.5x) __..__..__..__..__..__..__..__.._
 72
   65
 73
    6
 40
15.875
 49
6.35
 74
    0
 49
-3.175
 74
    0
 49
0
 74
    0
 49
-3.175
 74
    0
 49
0
 74
    0
 49
-3.175
 74
    0
  0
LTYPE
  5
41
330
5
100
AcDbSymbolTableRecord
100
AcDbLinetypeTableRecord
  2
DIVIDEX2
 70
    0
  3
Divide (2x) ________  .  .  ________  .  .  _
 72
   65
 73
    6
 40
63.5
 49
25.4
 74
    0
 49
-12.7
 74
    0
 49
0
 74
    0
 49
-12.7
 74
    0
 49
0
 74
    0
 49
-12.7
 74
    0
  0
LTYPE
  5
42
330
5
100
AcDbSymbolTableRecord
100
AcDbLinetypeTableRecord
  2
BORDER
 70
    0
  3
Border __ __ . __ __ . __ __ . __ __ . __ __ .
 72
   65
 73
    6
 40
44.45
 49
12.7
 74
    0
 49
-6.35
 74
    0
 49
12.7
 74
    0
 49
-6.35
 74
    0
 49
0
 74
    0
 49
-6.35
 74
    0
  0
LTYPE
  5
43
330
5
100
AcDbSymbolTableRecord
100
AcDbLinetypeTableRecord
  2
BORDERTINY
 70
    0
  3
Border (.15x) __.__.__.__.__.__.__.__.__.__.__.
 72
   65
 73
    6
 40
6.6675
 49
1.905
 74
    0
 49
-0.9525
 74
    0
 49
1.905
 74
    0
 49
-0.9525
 74
    0
 49
0
 74
    0
 49
-0.9525
 74
    0
  0
LTYPE
  5
44
330
5
100
AcDbSymbolTableRecord
100
AcDbLinetypeTableRecord
  2
BORDER2
 70
    0
  3
Border (.5x) __.__.__.__.__.__.__.__.__.__.__.
 72
   65
 73
    6
 40
22.225
 49
6.35
 74
    0
 49
-3.175
 74
    0
 49
6.35
 74
    0
 49
-3.175
 74
    0
 49
0
 74
    0
 49
-3.175
 74
    0
  0
LTYPE
  5
45
330
5
100
AcDbSymbolTableRecord
100
AcDbLinetypeTableRecord
  2
BORDERX2
 70
    0
  3
Border (2x) ____  ____  .  ____  ____  .  ___
 72
   65
 73
    6
 40
88.89999999999999
 49
25.4
 74
    0
 49
-12.7
 74
    0
 49
25.4
 74
    0
 49
-12.7
 74
    0
 49
0
 74
    0
 49
-12.7
 74
    0
  0
LTYPE
  5
46
330
5
100
AcDbSymbolTableRecord
100
AcDbLinetypeTableRecord
  2
CENTER
 70
    0
  3
Center ____ _ ____ _ ____ _ ____ _ ____ _ ____
 72
   65
 73
    4
 40
50.8
 49
31.75
 74
    0
 49
-6.35
 74
    0
 49
6.35
 74
    0
 49
-6.35
 74
    0
  0
LTYPE
  5
47
330
5
100
AcDbSymbolTableRecord
100
AcDbLinetypeTableRecord
  2
CENTERTINY
 70
    0
  3
Center (.15x) ___ _ ___ _ ___ _ ___ _ ___ _ ___
 72
   65
 73
    4
 40
7.619999999999999
 49
4.7625
 74
    0
 49
-0.9525
 74
    0
 49
0.9525
 74
    0
 49
-0.9525
 74
    0
  0
LTYPE
  5
48
330
5
100
AcDbSymbolTableRecord
100
AcDbLinetypeTableRecord
  2
CENTER2
 70
    0
  3
Center (.5x) ___ _ ___ _ ___ _ ___ _ ___ _ ___
 72
   65
 73
    4
 40
28.575
 49
19.05
 74
    0
 49
-3.175
 74
    0
 49
3.175
 74
    0
 49
-3.175
 74
    0
  0
LTYPE
  5
49
330
5
100
AcDbSymbolTableRecord
100
AcDbLinetypeTableRecord
  2
CENTERX2
 70
    0
  3
Center (2x) ________  __  ________  __  _____
 72
   65
 73
    4
 40
101.6
 49
63.5
 74
    0
 49
-12.7
 74
    0
 49
12.7
 74
    0
 49
-12.7
 74
    0
  0
ENDTAB
  0
TABLE
  2
LAYER
  5
2
330
0
100
AcDbSymbolTable
 70
    1
  0
LAYER
  5
10
330
2
100
AcDbSymbolTableRecord
100
AcDbLayerTableRecord
  2
0
 70
    4
 62
    7
  6
CONTINUOUS
370
    0
390
F
  0
LAYER
  5
4A
330
2
100
AcDbSymbolTableRecord
100
AcDbLayerTableRecord
  2
edge
 70
    4
 62
    2
  6
CONTINUOUS
370
    0
390
F
  0
LAYER
  5
4B
330
2
100
AcDbSymbolTableRecord
100
AcDbLayerTableRecord
  2
int
 70
    4
 62
   56
420
8421376
  6
CONTINUOUS
370
    0
390
F
  0
LAYER
  5
4C
330
2
100
AcDbSymbolTableRecord
100
AcDbLayerTableRecord
  2
percage
 70
    4
 62
    4
  6
CONTINUOUS
370
    0
390
F
  0
LAYER
  5
4D
330
2
100
AcDbSymbolTableRecord
100
AcDbLayerTableRecord
  2
rpi
 70
    4
 62
    3
  6
CONTINUOUS
370
    0
390
F
  0
LAYER
  5
4E
330
2
100
AcDbSymbolTableRecord
100
AcDbLayerTableRecord
  2
sw
 70
    4
 62
    1
  6
CONTINUOUS
370
    0
390
F
  0
ENDTAB
  0
TABLE
  2
STYLE
  5
3
330
0
100
AcDbSymbolTable
 70
    3
  0
STYLE
  5
4F
330
2
100
AcDbSymbolTableRecord
100
AcDbTextStyleTableRecord
  2
Standard
 70
    0
 40
0
 41
1
 50
0
 71
    0
 42
1
  3
txt
  4

  0
ENDTAB
  0
TABLE
  2
VIEW
  5
6
330
0
100
AcDbSymbolTable
 70
    0
  0
ENDTAB
  0
TABLE
  2
UCS
  5
7
330
0
100
AcDbSymbolTable
 70
    0
  0
ENDTAB
  0
TABLE
  2
APPID
  5
9
330
0
100
AcDbSymbolTable
 70
    1
  0
APPID
  5
12
330
9
100
AcDbSymbolTableRecord
100
AcDbRegAppTableRecord
  2
ACAD
 70
    0
  0
APPID
  5
50
330
9
100
AcDbSymbolTableRecord
100
AcDbRegAppTableRecord
  2
LibreCad
 70
    0
  0
ENDTAB
  0
TABLE
  2
DIMSTYLE
  5
A
330
0
100
AcDbSymbolTable
 70
    1
100
AcDbDimStyleTable
 71
    1
  0
DIMSTYLE
105
51
330
A
100
AcDbSymbolTableRecord
100
AcDbDimStyleTableRecord
  2
Standard
 70
    0
 40
2.5
 41
2.5
 42
0.625
 43
0.38
 44
1.25
 45
0
 46
0
 47
0
 48
0
 49
1
140
2.5
141
0.09
142
0
143
25.4
144
1
145
0
146
1
147
0.625
148
0
 71
    0
 72
    0
 73
    0
 74
    1
 75
    0
 76
    0
 77
    0
 78
    8
 79
    0
170
    0
171
    2
172
    0
173
    0
174
    0
175
    0
176
    0
177
    0
178
    0
179
    0
271
    2
272
    4
273
    2
274
    2
275
    0
276
    0
277
    2
278
   44
279
    0
280
    0
281
    0
282
    0
283
    1
284
    0
285
    0
286
    0
288
    0
289
    3
340
STANDARD
341

371
   -2
372
   -2
  0
ENDTAB
  0
TABLE
  2
BLOCK_RECORD
  5
1
330
0
100
AcDbSymbolTable
 70
    2
  0
BLOCK_RECORD
  5
1F
330
1
100
AcDbSymbolTableRecord
100
AcDbBlockTableRecord
  2
*Model_Space
 70
    0
280
    1
281
    0
  0
BLOCK_RECORD
  5
1E
330
1
100
AcDbSymbolTableRecord
100
AcDbBlockTableRecord
  2
*Paper_Space
 70
    0
280
    1
281
    0
  0
ENDTAB
  0
ENDSEC
  0
SECTION
  2
BLOCKS
  0
BLOCK
  5
20
330
1F
100
AcDbEntity
  8
0
100
AcDbBlockBegin
  2
*Model_Space
 70
    0
 10
0
 20
0
 30
0
  3
*Model_Space
  1

  0
ENDBLK
  5
21
330
1F
100
AcDbEntity
  8
0
100
AcDbBlockEnd
  0
BLOCK
  5
1C
330
1B
100
AcDbEntity
  8
0
100
AcDbBlockBegin
  2
*Paper_Space
 70
    0
 10
0
 20
0
 30
0
  3
*Paper_Space
  1

  0
ENDBLK
  5
1D
330
1F
100
AcDbEntity
  8
0
100
AcDbBlockEnd
  0
ENDSEC
  0
SECTION
  2
ENTITIES
  0
LWPOLYLINE
  5
52
100
AcDbEntity
  8
0
  6
ByLayer
 62
  256
370
   -1
100
AcDbPolyline
 90
    4
 70
    1
 43
0
 10
-103.1214499750513
 20
22.3883463417927
 10
-85.12144997505126
 20
22.3883463417927
 10
-85.12144997505126
 20
39.3883463417927
 10
-103.1214499750513
 20
39.3883463417927
  0
LWPOLYLINE
  5
53
100
AcDbEntity
  8
0
  6
ByLayer
 62
  256
370
   -1
100
AcDbPolyline
 90
    4
 70
    1
 43
0
 10
-85.12144997505126
 20
22.3883463417927
 10
-67.29662473770301
 20
19.88323052451153
 10
-64.93068202138188
 20
36.71778769311823
 10
-82.75550725873015
 20
39.22290351039941
  0
LWPOLYLINE
  5
54
100
AcDbEntity
  8
0
  6
ByLayer
 62
  256
370
   -1
100
AcDbPolyline
 90
    4
 70
    1
 43
0
 10
-67.29662473770301
 20
19.88323052451153
 10
-49.47179950035473
 20
17.37811470723035
 10
-47.10585678403362
 20
34.21267187583705
 10
-64.93068202138188
 20
36.71778769311823
  0
LWPOLYLINE
  5
55
100
AcDbEntity
  8
0
  6
ByLayer
 62
  256
370
   -1
100
AcDbPolyline
 90
    4
 70
    1
 43
0
 10
-49.47179950035473
 20
17.37811470723035
 10
-31.64697426300647
 20
14.87299888994917
 10
-29.28103154668536
 20
31.70755605855587
 10
-47.10585678403362
 20
34.21267187583705
  0
LWPOLYLINE
  5
56
100
AcDbEntity
  8
0
  6
ByLayer
 62
  256
370
   -1
100
AcDbPolyline
 90
    4
 70
    1
 43
0
 10
-31.64697426300647
 20
14.87299888994917
 10
-13.82214902565821
 20
12.367883072668
 10
-11.45620630933709
 20
29.20244024127469
 10
-29.28103154668536
 20
31.70755605855587
  0
LWPOLYLINE
  5
57
100
AcDbEntity
  8
0
  6
ByLayer
 62
  256
370
   -1
100
AcDbPolyline
 90
    4
 70
    1
 43
0
 10
-83.03118638203532
 20
4.927510218865713
 10
-65.20636114468704
 20
2.422394401584533
 10
-62.84041842836594
 20
19.25695157019123
 10
-80.6652436657142
 20
21.76206738747241
  0
LWPOLYLINE
  5
58
100
AcDbEntity
  8
0
  6
ByLayer
 62
  256
370
   -1
100
AcDbPolyline
 90
    4
 70
    1
 43
0
 10
-65.20636114468704
 20
2.422394401584533
 10
-47.38153590733878
 20
-0.08272141569664626
 10
-45.01559319101767
 20
16.75183575291005
 10
-62.84041842836594
 20
19.25695157019123
  0
LWPOLYLINE
  5
59
100
AcDbEntity
  8
0
  6
ByLayer
 62
  256
370
   -1
100
AcDbPolyline
 90
    4
 70
    1
 43
0
 10
-47.38153590733878
 20
-0.08272141569664626
 10
-29.55671066999052
 20
-2.587837232977826
 10
-27.19076795366941
 20
14.24671993562888
 10
-45.01559319101767
 20
16.75183575291005
  0
LWPOLYLINE
  5
5A
100
AcDbEntity
  8
0
  6
ByLayer
 62
  256
370
   -1
100
AcDbPolyline
 90
    4
 70
    1
 43
0
 10
-29.55671066999052
 20
-2.587837232977826
 10
-11.73188543264226
 20
-5.092953050258995
 10
-9.365942716321143
 20
11.74160411834769
 10
-27.19076795366941
 20
14.24671993562887
  0
LWPOLYLINE
  5
5B
100
AcDbEntity
  8
0
  6
ByLayer
 62
  256
370
   -1
100
AcDbPolyline
 90
    4
 70
    1
 43
0
 10
-76.48471647968228
 20
-13.15960485838158
 10
-58.65989124233402
 20
-15.66472067566274
 10
-56.29394852601291
 20
1.169836492943944
 10
-74.11877376336118
 20
3.674952310225123
  0
LWPOLYLINE
  5
5C
100
AcDbEntity
  8
0
  6
ByLayer
 62
  256
370
   -1
100
AcDbPolyline
 90
    4
 70
    1
 43
0
 10
-58.65989124233402
 20
-15.66472067566276
 10
-40.83506600498576
 20
-18.16983649294392
 10
-38.46912328866465
 20
-1.335279324337236
 10
-56.29394852601291
 20
1.169836492943944
  0
LWPOLYLINE
  5
5D
100
AcDbEntity
  8
0
  6
ByLayer
 62
  256
370
   -1
100
AcDbPolyline
 90
    4
 70
    1
 43
0
 10
-40.83506600498576
 20
-18.16983649294392
 10
-23.0102407676375
 20
-20.6749523102251
 10
-20.64429805131638
 20
-3.840395141618405
 10
-38.46912328866465
 20
-1.335279324337236
  0
LWPOLYLINE
  5
5E
100
AcDbEntity
  8
0
  6
ByLayer
 62
  256
370
   -1
100
AcDbPolyline
 90
    4
 70
    1
 43
0
 10
-23.0102407676375
 20
-20.6749523102251
 10
-5.185415530289234
 20
-23.18006812750629
 10
-2.819472813968162
 20
-6.345510958899585
 10
-20.64429805131638
 20
-3.840395141618416
  0
LWPOLYLINE
  5
5F
100
AcDbEntity
  8
rpi
  6
ByLayer
 62
  256
370
   -1
100
AcDbPolyline
 90
    4
 70
    1
 43
0
 10
-11.45620630933709
 20
12.03537150845818
 10
7.043793690662909
 20
12.03537150845818
 10
7.043793690662909
 20
36.03537150845818
 10
-11.45620630933709
 20
36.03537150845818
  0
CIRCLE
  5
60
100
AcDbEntity
  8
rpi
  6
ByLayer
 62
  256
370
   -1
100
AcDbCircle
 10
5.413793690662914
 20
34.19537150845818
 40
0.5
  0
CIRCLE
  5
61
100
AcDbEntity
  8
rpi
  6
ByLayer
 62
  256
370
   -1
100
AcDbCircle
 10
5.413793690662914
 20
31.65537150845818
 40
0.5
  0
CIRCLE
  5
62
100
AcDbEntity
  8
rpi
  6
ByLayer
 62
  256
370
   -1
100
AcDbCircle
 10
5.413793690662914
 20
29.11537150845817
 40
0.5
  0
CIRCLE
  5
63
100
AcDbEntity
  8
rpi
  6
ByLayer
 62
  256
370
   -1
100
AcDbCircle
 10
5.413793690662914
 20
26.57537150845818
 40
0.5
  0
CIRCLE
  5
64
100
AcDbEntity
  8
rpi
  6
ByLayer
 62
  256
370
   -1
100
AcDbCircle
 10
5.413793690662914
 20
24.03537150845818
 40
0.5
  0
CIRCLE
  5
65
100
AcDbEntity
  8
rpi
  6
ByLayer
 62
  256
370
   -1
100
AcDbCircle
 10
5.413793690662914
 20
21.49537150845818
 40
0.5
  0
CIRCLE
  5
66
100
AcDbEntity
  8
rpi
  6
ByLayer
 62
  256
370
   -1
100
AcDbCircle
 10
5.413793690662914
 20
18.95537150845818
 40
0.5
  0
CIRCLE
  5
67
100
AcDbEntity
  8
rpi
  6
ByLayer
 62
  256
370
   -1
100
AcDbCircle
 10
5.413793690662914
 20
16.41537150845818
 40
0.5
  0
CIRCLE
  5
68
100
AcDbEntity
  8
rpi
  6
ByLayer
 62
  256
370
   -1
100
AcDbCircle
 10
5.413793690662914
 20
13.87537150845818
 40
0.5
  0
CIRCLE
  5
69
100
AcDbEntity
  8
rpi
  6
ByLayer
 62
  256
370
   -1
100
AcDbCircle
 10
2.873793690662907
 20
13.87537150845818
 40
0.5
  0
CIRCLE
  5
6A
100
AcDbEntity
  8
rpi
  6
ByLayer
 62
  256
370
   -1
100
AcDbCircle
 10
0.3337936906629153
 20
13.87537150845818
 40
0.5
  0
CIRCLE
  5
6B
100
AcDbEntity
  8
rpi
  6
ByLayer
 62
  256
370
   -1
100
AcDbCircle
 10
-2.206206309337091
 20
13.87537150845818
 40
0.5
  0
CIRCLE
  5
6C
100
AcDbEntity
  8
rpi
  6
ByLayer
 62
  256
370
   -1
100
AcDbCircle
 10
-4.746206309337097
 20
13.87537150845818
 40
0.5
  0
CIRCLE
  5
6D
100
AcDbEntity
  8
rpi
  6
ByLayer
 62
  256
370
   -1
100
AcDbCircle
 10
-7.286206309337089
 20
13.87537150845818
 40
0.5
  0
CIRCLE
  5
6E
100
AcDbEntity
  8
rpi
  6
ByLayer
 62
  256
370
   -1
100
AcDbCircle
 10
-9.826206309337095
 20
13.87537150845818
 40
0.5
  0
CIRCLE
  5
6F
100
AcDbEntity
  8
rpi
  6
ByLayer
 62
  256
370
   -1
100
AcDbCircle
 10
-9.826206309337095
 20
16.41537150845818
 40
0.5
  0
CIRCLE
  5
70
100
AcDbEntity
  8
rpi
  6
ByLayer
 62
  256
370
   -1
100
AcDbCircle
 10
-9.826206309337095
 20
18.95537150845818
 40
0.5
  0
CIRCLE
  5
71
100
AcDbEntity
  8
rpi
  6
ByLayer
 62
  256
370
   -1
100
AcDbCircle
 10
-9.826206309337095
 20
21.49537150845818
 40
0.5
  0
CIRCLE
  5
72
100
AcDbEntity
  8
rpi
  6
ByLayer
 62
  256
370
   -1
100
AcDbCircle
 10
-9.826206309337095
 20
24.03537150845818
 40
0.5
  0
CIRCLE
  5
73
100
AcDbEntity
  8
rpi
  6
ByLayer
 62
  256
370
   -1
100
AcDbCircle
 10
-9.826206309337095
 20
26.57537150845818
 40
0.5
  0
CIRCLE
  5
74
100
AcDbEntity
  8
rpi
  6
ByLayer
 62
  256
370
   -1
100
AcDbCircle
 10
-9.826206309337095
 20
29.11537150845818
 40
0.5
  0
CIRCLE
  5
75
100
AcDbEntity
  8
rpi
  6
ByLayer
 62
  256
370
   -1
100
AcDbCircle
 10
-9.826206309337095
 20
31.65537150845818
 40
0.5
  0
CIRCLE
  5
76
100
AcDbEntity
  8
rpi
  6
ByLayer
 62
  256
370
   -1
100
AcDbCircle
 10
-9.826206309337095
 20
34.19537150845818
 40
0.5
  0
LWPOLYLINE
  5
77
100
AcDbEntity
  8
0
  6
ByLayer
 62
  256
370
   -1
100
AcDbPolyline
 90
    4
 70
    1
 43
0
 10
80.70903735637708
 20
21.13578843315213
 10
62.88421211902883
 20
18.63067261587095
 10
60.51826940270772
 20
35.46522978447764
 10
78.34309464005597
 20
37.97034560175882
  0
LWPOLYLINE
  5
78
100
AcDbEntity
  8
0
  6
ByLayer
 62
  256
370
   -1
100
AcDbPolyline
 90
    4
 70
    1
 43
0
 10
62.88421211902883
 20
18.63067261587095
 10
45.05938688168055
 20
16.12555679858977
 10
42.69344416535944
 20
32.96011396719647
 10
60.51826940270772
 20
35.46522978447764
  0
LWPOLYLINE
  5
79
100
AcDbEntity
  8
0
  6
ByLayer
 62
  256
370
   -1
100
AcDbPolyline
 90
    4
 70
    1
 43
0
 10
45.05938688168055
 20
16.12555679858977
 10
27.23456164433227
 20
13.62044098130859
 10
24.86861892801117
 20
30.45499814991528
 10
42.69344416535944
 20
32.96011396719647
  0
LWPOLYLINE
  5
7A
100
AcDbEntity
  8
0
  6
ByLayer
 62
  256
370
   -1
100
AcDbPolyline
 90
    4
 70
    1
 43
0
 10
27.23456164433227
 20
13.62044098130859
 10
9.409736406984024
 20
11.11532516402741
 10
7.043793690662909
 20
27.94988233263411
 10
24.86861892801117
 20
30.45499814991529
  0
LWPOLYLINE
  5
7B
100
AcDbEntity
  8
0
  6
ByLayer
 62
  256
370
   -1
100
AcDbPolyline
 90
    4
 70
    1
 43
0
 10
87.53118638203526
 20
4.92751021886572
 10
69.70636114468701
 20
2.42239440158454
 10
67.34041842836589
 20
19.25695157019124
 10
85.16524366571414
 20
21.76206738747242
  0
LWPOLYLINE
  5
7C
100
AcDbEntity
  8
0
  6
ByLayer
 62
  256
370
   -1
100
AcDbPolyline
 90
    4
 70
    1
 43
0
 10
69.70636114468701
 20
2.42239440158454
 10
51.88153590733873
 20
-0.0827214156966356
 10
49.51559319101762
 20
16.75183575291006
 10
67.34041842836589
 20
19.25695157019124
  0
LWPOLYLINE
  5
7D
100
AcDbEntity
  8
0
  6
ByLayer
 62
  256
370
   -1
100
AcDbPolyline
 90
    4
 70
    1
 43
0
 10
51.88153590733873
 20
-0.0827214156966356
 10
34.05671066999045
 20
-2.587837232977808
 10
31.69076795366934
 20
14.24671993562888
 10
49.51559319101762
 20
16.75183575291006
  0
LWPOLYLINE
  5
7E
100
AcDbEntity
  8
0
  6
ByLayer
 62
  256
370
   -1
100
AcDbPolyline
 90
    4
 70
    1
 43
0
 10
34.05671066999045
 20
-2.587837232977815
 10
16.2318854326422
 20
-5.092953050258991
 10
13.86594271632109
 20
11.74160411834771
 10
31.69076795366934
 20
14.24671993562888
  0
LWPOLYLINE
  5
7F
100
AcDbEntity
  8
0
  6
ByLayer
 62
  256
370
   -1
100
AcDbPolyline
 90
    4
 70
    1
 43
0
 10
80.98471647968225
 20
-13.15960485838158
 10
63.159891242334
 20
-15.66472067566276
 10
60.79394852601288
 20
1.169836492943951
 10
78.61877376336113
 20
3.67495231022513
  0
LWPOLYLINE
  5
80
100
AcDbEntity
  8
0
  6
ByLayer
 62
  256
370
   -1
100
AcDbPolyline
 90
    4
 70
    1
 43
0
 10
63.159891242334
 20
-15.66472067566276
 10
45.33506600498572
 20
-18.16983649294392
 10
42.9691232886646
 20
-1.335279324337225
 10
60.79394852601288
 20
1.169836492943951
  0
LWPOLYLINE
  5
81
100
AcDbEntity
  8
0
  6
ByLayer
 62
  256
370
   -1
100
AcDbPolyline
 90
    4
 70
    1
 43
0
 10
45.33506600498572
 20
-18.16983649294392
 10
27.51024076763744
 20
-20.6749523102251
 10
25.14429805131633
 20
-3.840395141618412
 10
42.9691232886646
 20
-1.335279324337225
  0
LWPOLYLINE
  5
82
100
AcDbEntity
  8
0
  6
ByLayer
 62
  256
370
   -1
100
AcDbPolyline
 90
    4
 70
    1
 43
0
 10
27.51024076763744
 20
-20.6749523102251
 10
9.685415530289191
 20
-23.18006812750628
 10
7.319472813968076
 20
-6.345510958899585
 10
25.14429805131633
 20
-3.840395141618409
  0
LWPOLYLINE
  5
83
100
AcDbEntity
  8
0
  6
ByLayer
 62
  256
370
   -1
100
AcDbPolyline
 90
    4
 70
    1
 43
0
 10
-43.20100872130688
 20
-35.00439366155063
 10
-12.00756455594741
 20
-39.38834634179269
 10
-9.641621839626296
 20
-22.553789173186
 10
-40.83506600498576
 20
-18.16983649294394
  0
LWPOLYLINE
  5
84
100
AcDbEntity
  8
0
  6
ByLayer
 62
  256
370
   -1
100
AcDbPolyline
 90
    4
 70
    1
 43
0
 10
16.50756455594737
 20
-39.38834634179269
 10
47.70100872130683
 20
-35.00439366155063
 10
45.33506600498572
 20
-18.16983649294394
 10
14.14162183962625
 20
-22.553789173186
  0
LWPOLYLINE
  5
85
100
AcDbEntity
  8
0
  6
ByLayer
 62
  256
370
   -1
100
AcDbPolyline
 90
    4
 70
    1
 43
0
 10
47.70100872130683
 20
-35.00439366155063
 10
69.98204026799218
 20
-31.87299888994916
 10
67.61609755167106
 20
-15.03844172134247
 10
45.33506600498572
 20
-18.16983649294394
  0
LWPOLYLINE
  5
86
100
AcDbEntity
  8
0
  6
ByLayer
 62
  256
370
   -1
100
AcDbPolyline
 90
    4
 70
    1
 43
0
 10
-65.48204026799219
 20
-31.87299888994913
 10
-43.20100872130686
 20
-35.0043936615506
 10
-40.83506600498575
 20
-18.16983649294391
 10
-63.11609755167108
 20
-15.03844172134244
  0
LWPOLYLINE
  5
87
100
AcDbEntity
  8
0
  6
ByLayer
 62
  256
370
   -1
100
AcDbPolyline
 90
    4
 70
    1
 43
0
 10
-107.9847164796823
 20
-13.15960485838158
 10
-76.48471647968228
 20
-13.15960485838158
 10
-76.48471647968228
 20
3.840395141618423
 10
-107.9847164796823
 20
3.840395141618423
  0
LWPOLYLINE
  5
88
100
AcDbEntity
  8
0
  6
ByLayer
 62
  256
370
   -1
100
AcDbPolyline
 90
    4
 70
    1
 43
0
 10
-105.5311863820353
 20
4.614370741705564
 10
-83.03118638203532
 20
4.614370741705564
 10
-83.03118638203532
 20
21.61437074170556
 10
-105.5311863820353
 20
21.61437074170556
  0
LWPOLYLINE
  5
89
100
AcDbEntity
  8
0
  6
ByLayer
 62
  256
370
   -1
100
AcDbPolyline
 90
    4
 70
    1
 43
0
 10
-107.9847164796823
 20
-30.15960485838158
 10
-85.48471647968228
 20
-30.15960485838158
 10
-85.48471647968228
 20
-13.15960485838158
 10
-107.9847164796823
 20
-13.15960485838158
  0
LWPOLYLINE
  5
8A
100
AcDbEntity
  8
0
  6
ByLayer
 62
  256
370
   -1
100
AcDbPolyline
 90
    4
 70
    1
 43
0
 10
80.62101958938035
 20
21.76206738747242
 10
103.1210195893804
 20
21.76206738747242
 10
103.1210195893804
 20
38.76206738747242
 10
80.62101958938035
 20
38.76206738747242
  0
LWPOLYLINE
  5
8B
100
AcDbEntity
  8
0
  6
ByLayer
 62
  256
370
   -1
100
AcDbPolyline
 90
    4
 70
    1
 43
0
 10
80.98471647968228
 20
-13.15960485838158
 10
107.9847164796823
 20
-13.15960485838158
 10
107.9847164796823
 20
3.840395141618423
 10
80.98471647968228
 20
3.840395141618423
  0
LWPOLYLINE
  5
8C
100
AcDbEntity
  8
0
  6
ByLayer
 62
  256
370
   -1
100
AcDbPolyline
 90
    4
 70
    1
 43
0
 10
87.53118638203526
 20
4.301231264545422
 10
105.5311863820353
 20
4.301231264545422
 10
105.5311863820353
 20
21.30123126454542
 10
87.53118638203526
 20
21.30123126454542
  0
LWPOLYLINE
  5
8D
100
AcDbEntity
  8
0
  6
ByLayer
 62
  256
370
   -1
100
AcDbPolyline
 90
    4
 70
    1
 43
0
 10
85.48471647968225
 20
-30.15960485838158
 10
107.9847164796822
 20
-30.15960485838158
 10
107.9847164796822
 20
-13.15960485838158
 10
85.48471647968225
 20
-13.15960485838158
  0
LWPOLYLINE
  5
8E
100
AcDbEntity
  8
0
  6
ByLayer
 62
  256
370
   -1
100
AcDbPolyline
 90
    4
 70
    1
 43
0
 10
89.98471647968228
 20
-30.15960485838158
 10
107.9847164796823
 20
-30.15960485838158
 10
107.9847164796823
 20
-13.15960485838158
 10
89.98471647968228
 20
-13.15960485838158
  0
LWPOLYLINE
  5
8F
100
AcDbEntity
  8
0
  6
ByLayer
 62
  256
370
   -1
100
AcDbPolyline
 90
    4
 70
    1
 43
0
 10
-107.9847164796823
 20
-30.15960485838158
 10
-80.98471647968228
 20
-30.15960485838158
 10
-80.98471647968228
 20
-13.15960485838158
 10
-107.9847164796823
 20
-13.15960485838158
  0
LWPOLYLINE
  5
90
100
AcDbEntity
  8
0
  6
ByLayer
 62
  256
370
   -1
100
AcDbPolyline
 90
    4
 70
    1
 43
0
 10
-107.9847164796823
 20
-30.15960485838158
 10
-76.48471647968228
 20
-30.15960485838158
 10
-76.48471647968228
 20
-13.15960485838158
 10
-107.9847164796823
 20
-13.15960485838158
  0
LWPOLYLINE
  5
91
100
AcDbEntity
  8
0
  6
ByLayer
 62
  256
370
   -1
100
AcDbPolyline
 90
    4
 70
    1
 43
0
 10
80.98471647968228
 20
-30.15960485838158
 10
107.9847164796823
 20
-30.15960485838158
 10
107.9847164796823
 20
-13.15960485838158
 10
80.98471647968228
 20
-13.15960485838158
  0
ARC
  5
92
100
AcDbEntity
  8
edge
  6
ByLayer
 62
  256
370
   -1
100
AcDbCircle
 10
103.9847164796823
 20
35.3883463417927
 40
4
100
AcDbArc
 50
1.017777498068325e-13
 51
90
  0
ARC
  5
93
100
AcDbEntity
  8
edge
  6
ByLayer
 62
  256
370
   -1
100
AcDbCircle
 10
103.9847164796823
 20
-35.3883463417927
 40
4
100
AcDbArc
 50
270
 51
1.017777498068325e-13
  0
LINE
  5
94
100
AcDbEntity
  8
edge
  6
ByLayer
 62
  256
370
   -1
100
AcDbLine
 10
107.9847164796823
 20
-35.38834634179269
 11
107.9847164796823
 21
35.38834634179271
  0
LINE
  5
95
100
AcDbEntity
  8
edge
  6
ByLayer
 62
  256
370
   -1
100
AcDbLine
 10
-103.9847164796823
 20
39.3883463417927
 11
103.9847164796823
 21
39.3883463417927
  0
ARC
  5
96
100
AcDbEntity
  8
edge
  6
ByLayer
 62
  256
370
   -1
100
AcDbCircle
 10
-103.9847164796823
 20
35.3883463417927
 40
4
100
AcDbArc
 50
90
 51
180
  0
LINE
  5
97
100
AcDbEntity
  8
edge
  6
ByLayer
 62
  256
370
   -1
100
AcDbLine
 10
-107.9847164796823
 20
-35.38834634179269
 11
-107.9847164796823
 21
35.3883463417927
  0
LINE
  5
98
100
AcDbEntity
  8
edge
  6
ByLayer
 62
  256
370
   -1
100
AcDbLine
 10
-103.9847164796823
 20
-39.3883463417927
 11
103.9847164796823
 21
-39.3883463417927
  0
ARC
  5
99
100
AcDbEntity
  8
edge
  6
ByLayer
 62
  256
370
   -1
100
AcDbCircle
 10
-103.9847164796823
 20
-35.38834634179269
 40
4
100
AcDbArc
 50
180
 51
269.9999999999998
  0
CIRCLE
  5
9A
100
AcDbEntity
  8
percage
  6
ByLayer
 62
  256
370
   -1
100
AcDbCircle
 10
74.30040701567665
 20
-22.59902328986202
 40
1.2
  0
CIRCLE
  5
9B
100
AcDbEntity
  8
percage
  6
ByLayer
 62
  256
370
   -1
100
AcDbCircle
 10
-70.98337837383724
 20
-22.51630187416536
 40
1.2
  0
CIRCLE
  5
9C
100
AcDbEntity
  8
percage
  6
ByLayer
 62
  256
370
   -1
100
AcDbCircle
 10
2.249999999999986
 20
-23.1800681275063
 40
1.2
  0
LWPOLYLINE
  5
9D
100
AcDbEntity
  8
0
  6
ByLayer
 62
  256
370
   -1
100
AcDbPolyline
 90
    4
 70
    1
 43
0
 10
-13.12144997505126
 20
52.3883463417927
 10
4.878550024948737
 20
52.3883463417927
 10
4.878550024948737
 20
69.3883463417927
 10
-13.12144997505126
 20
69.3883463417927
  0
LWPOLYLINE
  5
9E
100
AcDbEntity
  8
0
  6
ByLayer
 62
  256
370
   -1
100
AcDbPolyline
 90
    4
 70
    1
 43
0
 10
-13.12144997505126
 20
52.3883463417927
 10
9.378550024948737
 20
52.3883463417927
 10
9.378550024948737
 20
69.3883463417927
 10
-13.12144997505126
 20
69.3883463417927
  0
LWPOLYLINE
  5
9F
100
AcDbEntity
  8
0
  6
ByLayer
 62
  256
370
   -1
100
AcDbPolyline
 90
    4
 70
    1
 43
0
 10
-13.12144997505126
 20
52.3883463417927
 10
13.87855002494874
 20
52.3883463417927
 10
13.87855002494874
 20
69.3883463417927
 10
-13.12144997505126
 20
69.3883463417927
  0
LWPOLYLINE
  5
A0
100
AcDbEntity
  8
0
  6
ByLayer
 62
  256
370
   -1
100
AcDbPolyline
 90
    4
 70
    1
 43
0
 10
-13.12144997505126
 20
52.3883463417927
 10
18.37855002494874
 20
52.3883463417927
 10
18.37855002494874
 20
69.3883463417927
 10
-13.12144997505126
 20
69.3883463417927
  0
LWPOLYLINE
  5
A1
100
AcDbEntity
  8
sw
  6
ByLayer
 62
  256
370
   -1
100
AcDbPolyline
 90
    4
 70
    1
 43
0
 10
-101.6214499750513
 20
38.3883463417927
 10
-86.62144997505128
 20
38.3883463417927
 10
-86.62144997505128
 20
23.3883463417927
 10
-101.6214499750513
 20
23.3883463417927
  0
LINE
  5
A2
100
AcDbEntity
  8
sw
  6
ByLayer
 62
  256
370
   -1
100
AcDbLine
 10
-101.6214499750513
 20
38.3883463417927
 11
-86.62144997505128
 21
23.38834634179271
  0
LINE
  5
A3
100
AcDbEntity
  8
sw
  6
ByLayer
 62
  256
370
   -1
100
AcDbLine
 10
-86.62144997505128
 20
38.3883463417927
 11
-101.6214499750513
 21
23.38834634179271
  0
LWPOLYLINE
  5
A4
100
AcDbEntity
  8
sw
  6
ByLayer
 62
  256
370
   -1
100
AcDbPolyline
 90
    4
 70
    1
 43
0
 10
-101.7811863820353
 20
20.61437074170556
 10
-86.78118638203532
 20
20.61437074170556
 10
-86.78118638203532
 20
5.61437074170556
 10
-101.7811863820353
 20
5.61437074170556
  0
LINE
  5
A5
100
AcDbEntity
  8
sw
  6
ByLayer
 62
  256
370
   -1
100
AcDbLine
 10
-101.7811863820353
 20
20.61437074170556
 11
-86.78118638203532
 21
5.614370741705564
  0
LINE
  5
A6
100
AcDbEntity
  8
sw
  6
ByLayer
 62
  256
370
   -1
100
AcDbLine
 10
-86.78118638203532
 20
20.61437074170556
 11
-101.7811863820353
 21
5.614370741705564
  0
LWPOLYLINE
  5
A7
100
AcDbEntity
  8
sw
  6
ByLayer
 62
  256
370
   -1
100
AcDbPolyline
 90
    4
 70
    1
 43
0
 10
-99.73471647968226
 20
2.840395141618444
 10
-84.73471647968228
 20
2.840395141618444
 10
-84.73471647968228
 20
-12.15960485838156
 10
-99.73471647968226
 20
-12.15960485838156
  0
LINE
  5
A8
100
AcDbEntity
  8
sw
  6
ByLayer
 62
  256
370
   -1
100
AcDbLine
 10
-99.73471647968226
 20
2.840395141618444
 11
-84.73471647968228
 21
-12.15960485838155
  0
LINE
  5
A9
100
AcDbEntity
  8
sw
  6
ByLayer
 62
  256
370
   -1
100
AcDbLine
 10
-84.73471647968228
 20
2.840395141618444
 11
-99.73471647968226
 21
-12.15960485838155
  0
LWPOLYLINE
  5
AA
100
AcDbEntity
  8
sw
  6
ByLayer
 62
  256
370
   -1
100
AcDbPolyline
 90
    4
 70
    1
 43
0
 10
-99.73471647968226
 20
-14.15960485838158
 10
-84.73471647968228
 20
-14.15960485838158
 10
-84.73471647968228
 20
-29.15960485838158
 10
-99.73471647968226
 20
-29.15960485838158
  0
LINE
  5
AB
100
AcDbEntity
  8
sw
  6
ByLayer
 62
  256
370
   -1
100
AcDbLine
 10
-99.73471647968226
 20
-14.15960485838158
 11
-84.73471647968228
 21
-29.15960485838158
  0
LINE
  5
AC
100
AcDbEntity
  8
sw
  6
ByLayer
 62
  256
370
   -1
100
AcDbLine
 10
-84.73471647968228
 20
-14.15960485838158
 11
-99.73471647968226
 21
-29.15960485838158
  0
LWPOLYLINE
  5
AD
100
AcDbEntity
  8
sw
  6
ByLayer
 62
  256
370
   -1
100
AcDbPolyline
 90
    4
 70
    1
 43
0
 10
-101.9847164796823
 20
-14.15960485838158
 10
-86.98471647968228
 20
-14.15960485838158
 10
-86.98471647968228
 20
-29.15960485838158
 10
-101.9847164796823
 20
-29.15960485838158
  0
LINE
  5
AE
100
AcDbEntity
  8
sw
  6
ByLayer
 62
  256
370
   -1
100
AcDbLine
 10
-101.9847164796823
 20
-14.15960485838158
 11
-86.98471647968228
 21
-29.15960485838158
  0
LINE
  5
AF
100
AcDbEntity
  8
sw
  6
ByLayer
 62
  256
370
   -1
100
AcDbLine
 10
-86.98471647968228
 20
-14.15960485838158
 11
-101.9847164796823
 21
-29.15960485838158
  0
LWPOLYLINE
  5
B0
100
AcDbEntity
  8
sw
  6
ByLayer
 62
  256
370
   -1
100
AcDbPolyline
 90
    4
 70
    1
 43
0
 10
-104.2347164796823
 20
-14.15960485838158
 10
-89.23471647968228
 20
-14.15960485838158
 10
-89.23471647968228
 20
-29.15960485838158
 10
-104.2347164796823
 20
-29.15960485838158
  0
LINE
  5
B1
100
AcDbEntity
  8
sw
  6
ByLayer
 62
  256
370
   -1
100
AcDbLine
 10
-104.2347164796823
 20
-14.15960485838158
 11
-89.23471647968228
 21
-29.15960485838157
  0
LINE
  5
B2
100
AcDbEntity
  8
sw
  6
ByLayer
 62
  256
370
   -1
100
AcDbLine
 10
-89.23471647968228
 20
-14.15960485838158
 11
-104.2347164796823
 21
-29.15960485838157
  0
LWPOLYLINE
  5
B3
100
AcDbEntity
  8
sw
  6
ByLayer
 62
  256
370
   -1
100
AcDbPolyline
 90
    4
 70
    1
 43
0
 10
-81.40927825657786
 20
38.02387579021773
 10
-66.55525722545433
 20
35.93627927581675
 10
-68.64285373985531
 20
21.0822582446932
 10
-83.49687477097885
 20
23.16985475909418
  0
LINE
  5
B4
100
AcDbEntity
  8
sw
  6
ByLayer
 62
  256
370
   -1
100
AcDbLine
 10
-81.40927825657786
 20
38.02387579021773
 11
-68.64285373985531
 21
21.0822582446932
  0
LINE
  5
B5
100
AcDbEntity
  8
sw
  6
ByLayer
 62
  256
370
   -1
100
AcDbLine
 10
-66.55525722545433
 20
35.93627927581675
 11
-83.49687477097885
 21
23.16985475909418
  0
LWPOLYLINE
  5
B6
100
AcDbEntity
  8
sw
  6
ByLayer
 62
  256
370
   -1
100
AcDbPolyline
 90
    4
 70
    1
 43
0
 10
-79.31901466356192
 20
20.56303966729073
 10
-64.46499363243838
 20
18.47544315288976
 10
-66.55259014683936
 20
3.621422121766206
 10
-81.4066111779629
 20
5.709018636167184
  0
LINE
  5
B7
100
AcDbEntity
  8
sw
  6
ByLayer
 62
  256
370
   -1
100
AcDbLine
 10
-64.46499363243838
 20
18.47544315288976
 11
-81.4066111779629
 21
5.709018636167188
  0
LINE
  5
B8
100
AcDbEntity
  8
sw
  6
ByLayer
 62
  256
370
   -1
100
AcDbLine
 10
-79.31901466356192
 20
20.56303966729074
 11
-66.55259014683936
 21
3.621422121766213
  0
LWPOLYLINE
  5
B9
100
AcDbEntity
  8
sw
  6
ByLayer
 62
  256
370
   -1
100
AcDbPolyline
 90
    4
 70
    1
 43
0
 10
-61.49418942621364
 20
18.05792385000955
 10
-46.6401683950901
 20
15.97032733560858
 10
-48.72776490949109
 20
1.116306304485026
 10
-63.58178594061462
 20
3.203902818886005
  0
LINE
  5
BA
100
AcDbEntity
  8
sw
  6
ByLayer
 62
  256
370
   -1
100
AcDbLine
 10
-46.6401683950901
 20
15.97032733560858
 11
-63.58178594061462
 21
3.203902818886008
  0
LINE
  5
BB
100
AcDbEntity
  8
sw
  6
ByLayer
 62
  256
370
   -1
100
AcDbLine
 10
-61.49418942621364
 20
18.05792385000956
 11
-48.72776490949109
 21
1.116306304485033
  0
LWPOLYLINE
  5
BC
100
AcDbEntity
  8
sw
  6
ByLayer
 62
  256
370
   -1
100
AcDbPolyline
 90
    4
 70
    1
 43
0
 10
-63.58445301922961
 20
35.51875997293655
 10
-48.73043198810608
 20
33.43116345853557
 10
-50.81802850250706
 20
18.57714242741202
 10
-65.6720495336306
 20
20.664738941813
  0
LINE
  5
BD
100
AcDbEntity
  8
sw
  6
ByLayer
 62
  256
370
   -1
100
AcDbLine
 10
-48.73043198810608
 20
33.43116345853557
 11
-65.6720495336306
 21
20.664738941813
  0
LINE
  5
BE
100
AcDbEntity
  8
sw
  6
ByLayer
 62
  256
370
   -1
100
AcDbLine
 10
-63.58445301922961
 20
35.51875997293656
 11
-50.81802850250706
 21
18.57714242741203
  0
LWPOLYLINE
  5
BF
100
AcDbEntity
  8
sw
  6
ByLayer
 62
  256
370
   -1
100
AcDbPolyline
 90
    4
 70
    1
 43
0
 10
-45.75962778188134
 20
33.01364415565537
 10
-30.9056067507578
 20
30.9260476412544
 10
-32.99320326515879
 20
16.07202661013084
 10
-47.84722429628233
 20
18.15962312453182
  0
LINE
  5
C0
100
AcDbEntity
  8
sw
  6
ByLayer
 62
  256
370
   -1
100
AcDbLine
 10
-30.9056067507578
 20
30.9260476412544
 11
-47.84722429628233
 21
18.15962312453183
  0
LINE
  5
C1
100
AcDbEntity
  8
sw
  6
ByLayer
 62
  256
370
   -1
100
AcDbLine
 10
-45.75962778188134
 20
33.01364415565538
 11
-32.99320326515879
 21
16.07202661013085
  0
LWPOLYLINE
  5
C2
100
AcDbEntity
  8
sw
  6
ByLayer
 62
  256
370
   -1
100
AcDbPolyline
 90
    4
 70
    1
 43
0
 10
-27.93480254453307
 20
30.5085283383742
 10
-13.08078151340953
 20
28.42093182397322
 10
-15.16837802781052
 20
13.56691079284967
 10
-30.02239905893405
 20
15.65450730725065
  0
LINE
  5
C3
100
AcDbEntity
  8
sw
  6
ByLayer
 62
  256
370
   -1
100
AcDbLine
 10
-13.08078151340953
 20
28.42093182397322
 11
-30.02239905893405
 21
15.65450730725065
  0
LINE
  5
C4
100
AcDbEntity
  8
sw
  6
ByLayer
 62
  256
370
   -1
100
AcDbLine
 10
-27.93480254453307
 20
30.50852833837421
 11
-15.16837802781052
 21
13.56691079284967
  0
LWPOLYLINE
  5
C5
100
AcDbEntity
  8
sw
  6
ByLayer
 62
  256
370
   -1
100
AcDbPolyline
 90
    4
 70
    1
 43
0
 10
-43.66936418886538
 20
15.55280803272838
 10
-28.81534315774184
 20
13.4652115183274
 10
-30.90293967214283
 20
-1.388809512796152
 10
-45.75696070326637
 20
0.698787001604826
  0
LINE
  5
C6
100
AcDbEntity
  8
sw
  6
ByLayer
 62
  256
370
   -1
100
AcDbLine
 10
-28.81534315774184
 20
13.4652115183274
 11
-45.75696070326637
 21
0.6987870016048295
  0
LINE
  5
C7
100
AcDbEntity
  8
sw
  6
ByLayer
 62
  256
370
   -1
100
AcDbLine
 10
-43.66936418886538
 20
15.55280803272838
 11
-30.90293967214283
 21
-1.388809512796146
  0
LWPOLYLINE
  5
C8
100
AcDbEntity
  8
sw
  6
ByLayer
 62
  256
370
   -1
100
AcDbPolyline
 90
    4
 70
    1
 43
0
 10
-25.84453895151712
 20
13.0476922154472
 10
-10.99051792039358
 20
10.96009570104622
 10
-13.07811443479456
 20
-3.893925330077328
 10
-27.9321354659181
 20
-1.806328815676349
  0
LINE
  5
C9
100
AcDbEntity
  8
sw
  6
ByLayer
 62
  256
370
   -1
100
AcDbLine
 10
-10.99051792039358
 20
10.96009570104622
 11
-27.9321354659181
 21
-1.806328815676346
  0
LINE
  5
CA
100
AcDbEntity
  8
sw
  6
ByLayer
 62
  256
370
   -1
100
AcDbLine
 10
-25.84453895151712
 20
13.04769221544721
 11
-13.07811443479456
 21
-3.893925330077321
  0
LWPOLYLINE
  5
CB
100
AcDbEntity
  8
sw
  6
ByLayer
 62
  256
370
   -1
100
AcDbPolyline
 90
    4
 70
    1
 43
0
 10
-72.77254476120885
 20
2.475924590043444
 10
-57.91852373008531
 20
0.3883280756424661
 10
-60.0061202444863
 20
-14.46569295548109
 10
-74.86014127560983
 20
-12.37809644108011
  0
LINE
  5
CC
100
AcDbEntity
  8
sw
  6
ByLayer
 62
  256
370
   -1
100
AcDbLine
 10
-57.91852373008531
 20
0.3883280756424661
 11
-74.86014127560983
 21
-12.3780964410801
  0
LINE
  5
CD
100
AcDbEntity
  8
sw
  6
ByLayer
 62
  256
370
   -1
100
AcDbLine
 10
-72.77254476120885
 20
2.475924590043451
 11
-60.0061202444863
 21
-14.46569295548108
  0
LWPOLYLINE
  5
CE
100
AcDbEntity
  8
sw
  6
ByLayer
 62
  256
370
   -1
100
AcDbPolyline
 90
    4
 70
    1
 43
0
 10
-54.94771952386061
 20
-0.02919122723771217
 10
-40.09369849273708
 20
-2.11678774163869
 10
-42.18129500713806
 20
-16.97080877276224
 10
-57.0353160382616
 20
-14.88321225836126
  0
LINE
  5
CF
100
AcDbEntity
  8
sw
  6
ByLayer
 62
  256
370
   -1
100
AcDbLine
 10
-40.09369849273708
 20
-2.11678774163869
 11
-57.0353160382616
 21
-14.88321225836126
  0
LINE
  5
D0
100
AcDbEntity
  8
sw
  6
ByLayer
 62
  256
370
   -1
100
AcDbLine
 10
-54.94771952386061
 20
-0.02919122723770506
 11
-42.18129500713806
 21
-16.97080877276223
  0
LWPOLYLINE
  5
D1
100
AcDbEntity
  8
sw
  6
ByLayer
 62
  256
370
   -1
100
AcDbPolyline
 90
    4
 70
    1
 43
0
 10
-37.12289428651234
 20
-2.534307044518908
 10
-22.2688732553888
 20
-4.621903558919886
 10
-24.35646976978979
 20
-19.47592459004344
 10
-39.21049080091333
 20
-17.38832807564246
  0
LINE
  5
D2
100
AcDbEntity
  8
sw
  6
ByLayer
 62
  256
370
   -1
100
AcDbLine
 10
-22.2688732553888
 20
-4.621903558919886
 11
-39.21049080091333
 21
-17.38832807564246
  0
LINE
  5
D3
100
AcDbEntity
  8
sw
  6
ByLayer
 62
  256
370
   -1
100
AcDbLine
 10
-37.12289428651234
 20
-2.534307044518901
 11
-24.35646976978979
 21
-19.47592459004343
  0
LWPOLYLINE
  5
D4
100
AcDbEntity
  8
sw
  6
ByLayer
 62
  256
370
   -1
100
AcDbPolyline
 90
    4
 70
    1
 43
0
 10
-19.2980690491641
 20
-5.03942286180008
 10
-4.444048018040561
 20
-7.127019376201059
 10
-6.531644532441547
 20
-21.98104040732461
 10
-21.38566556356508
 20
-19.89344389292363
  0
LINE
  5
D5
100
AcDbEntity
  8
sw
  6
ByLayer
 62
  256
370
   -1
100
AcDbLine
 10
-4.444048018040561
 20
-7.127019376201059
 11
-21.38566556356508
 21
-19.89344389292363
  0
LINE
  5
D6
100
AcDbEntity
  8
sw
  6
ByLayer
 62
  256
370
   -1
100
AcDbLine
 10
-19.2980690491641
 20
-5.039422861800073
 11
-6.531644532441547
 21
-21.9810404073246
  0
LWPOLYLINE
  5
D7
100
AcDbEntity
  8
sw
  6
ByLayer
 62
  256
370
   -1
100
AcDbPolyline
 90
    4
 70
    1
 43
0
 10
-59.54176539485025
 20
-16.55060891868427
 10
-44.68774436372671
 20
-18.63820543308525
 10
-46.7753408781277
 20
-33.4922264642088
 10
-61.62936190925124
 20
-31.40462994980782
  0
LINE
  5
D8
100
AcDbEntity
  8
sw
  6
ByLayer
 62
  256
370
   -1
100
AcDbLine
 10
-44.68774436372671
 20
-18.63820543308525
 11
-61.62936190925124
 21
-31.40462994980782
  0
LINE
  5
D9
100
AcDbEntity
  8
sw
  6
ByLayer
 62
  256
370
   -1
100
AcDbLine
 10
-59.54176539485025
 20
-16.55060891868426
 11
-46.7753408781277
 21
-33.49222646420879
  0
LWPOLYLINE
  5
DA
100
AcDbEntity
  8
sw
  6
ByLayer
 62
  256
370
   -1
100
AcDbPolyline
 90
    4
 70
    1
 43
0
 10
-32.80452753882786
 20
-20.30828264460605
 10
-17.95050650770433
 20
-22.39587915900703
 10
-20.03810302210531
 20
-37.24990019013057
 10
-34.89212405322885
 20
-35.1623036757296
  0
LINE
  5
DB
100
AcDbEntity
  8
sw
  6
ByLayer
 62
  256
370
   -1
100
AcDbLine
 10
-17.95050650770433
 20
-22.39587915900703
 11
-34.89212405322885
 21
-35.1623036757296
  0
LINE
  5
DC
100
AcDbEntity
  8
sw
  6
ByLayer
 62
  256
370
   -1
100
AcDbLine
 10
-32.80452753882786
 20
-20.30828264460605
 11
-20.03810302210531
 21
-37.24990019013057
  0
LWPOLYLINE
  5
DD
100
AcDbEntity
  8
sw
  6
ByLayer
 62
  256
370
   -1
100
AcDbPolyline
 90
    4
 70
    1
 43
0
 10
8.668368894735337
 20
27.16837391533264
 10
23.52238992585888
 20
29.25597042973362
 10
25.60998644025986
 20
14.40194939861006
 10
10.75596540913632
 20
12.31435288420908
  0
LINE
  5
DE
100
AcDbEntity
  8
sw
  6
ByLayer
 62
  256
370
   -1
100
AcDbLine
 10
8.668368894735337
 20
27.16837391533264
 11
25.60998644025986
 21
14.40194939861007
  0
LINE
  5
DF
100
AcDbEntity
  8
sw
  6
ByLayer
 62
  256
370
   -1
100
AcDbLine
 10
23.52238992585888
 20
29.25597042973362
 11
10.75596540913632
 21
12.31435288420909
  0
LWPOLYLINE
  5
E0
100
AcDbEntity
  8
sw
  6
ByLayer
 62
  256
370
   -1
100
AcDbPolyline
 90
    4
 70
    1
 43
0
 10
26.49319413208362
 20
29.67348973261382
 10
41.34721516320715
 20
31.7610862470148
 10
43.43481167760814
 20
16.90706521589124
 10
28.5807906464846
 20
14.81946870149026
  0
LINE
  5
E1
100
AcDbEntity
  8
sw
  6
ByLayer
 62
  256
370
   -1
100
AcDbLine
 10
26.49319413208362
 20
29.67348973261382
 11
43.43481167760814
 21
16.90706521589125
  0
LINE
  5
E2
100
AcDbEntity
  8
sw
  6
ByLayer
 62
  256
370
   -1
100
AcDbLine
 10
41.34721516320715
 20
31.7610862470148
 11
28.5807906464846
 21
14.81946870149027
  0
LWPOLYLINE
  5
E3
100
AcDbEntity
  8
sw
  6
ByLayer
 62
  256
370
   -1
100
AcDbPolyline
 90
    4
 70
    1
 43
0
 10
44.31801936943189
 20
32.178605549895
 10
59.17204040055543
 20
34.26620206429598
 10
61.25963691495642
 20
19.41218103317243
 10
46.40561588383288
 20
17.32458451877145
  0
LINE
  5
E4
100
AcDbEntity
  8
sw
  6
ByLayer
 62
  256
370
   -1
100
AcDbLine
 10
44.31801936943189
 20
32.178605549895
 11
61.25963691495642
 21
19.41218103317243
  0
LINE
  5
E5
100
AcDbEntity
  8
sw
  6
ByLayer
 62
  256
370
   -1
100
AcDbLine
 10
59.17204040055543
 20
34.26620206429598
 11
46.40561588383288
 21
17.32458451877145
  0
LWPOLYLINE
  5
E6
100
AcDbEntity
  8
sw
  6
ByLayer
 62
  256
370
   -1
100
AcDbPolyline
 90
    4
 70
    1
 43
0
 10
62.14284460678014
 20
34.68372136717618
 10
76.99686563790368
 20
36.77131788157716
 10
79.08446215230467
 20
21.9172968504536
 10
64.23044112118113
 20
19.82970033605262
  0
LINE
  5
E7
100
AcDbEntity
  8
sw
  6
ByLayer
 62
  256
370
   -1
100
AcDbLine
 10
62.14284460678014
 20
34.68372136717618
 11
79.08446215230467
 21
21.91729685045361
  0
LINE
  5
E8
100
AcDbEntity
  8
sw
  6
ByLayer
 62
  256
370
   -1
100
AcDbLine
 10
76.99686563790368
 20
36.77131788157716
 11
64.23044112118113
 21
19.82970033605262
  0
LWPOLYLINE
  5
E9
100
AcDbEntity
  8
sw
  6
ByLayer
 62
  256
370
   -1
100
AcDbPolyline
 90
    4
 70
    1
 43
0
 10
68.96499363243832
 20
18.47544315288977
 10
83.81901466356186
 20
20.56303966729075
 10
85.90661117796284
 20
5.709018636167197
 10
71.05259014683931
 20
3.621422121766217
  0
LINE
  5
EA
100
AcDbEntity
  8
sw
  6
ByLayer
 62
  256
370
   -1
100
AcDbLine
 10
68.96499363243832
 20
18.47544315288977
 11
85.90661117796284
 21
5.7090186361672
  0
LINE
  5
EB
100
AcDbEntity
  8
sw
  6
ByLayer
 62
  256
370
   -1
100
AcDbLine
 10
83.81901466356186
 20
20.56303966729075
 11
71.05259014683931
 21
3.62142212176622
  0
LWPOLYLINE
  5
EC
100
AcDbEntity
  8
sw
  6
ByLayer
 62
  256
370
   -1
100
AcDbPolyline
 90
    4
 70
    1
 43
0
 10
51.14016839509007
 20
15.97032733560859
 10
65.99418942621361
 20
18.05792385000957
 10
68.08178594061459
 20
3.203902818886018
 10
53.22776490949106
 20
1.116306304485038
  0
LINE
  5
ED
100
AcDbEntity
  8
sw
  6
ByLayer
 62
  256
370
   -1
100
AcDbLine
 10
51.14016839509007
 20
15.97032733560859
 11
68.08178594061459
 21
3.203902818886021
  0
LINE
  5
EE
100
AcDbEntity
  8
sw
  6
ByLayer
 62
  256
370
   -1
100
AcDbLine
 10
65.99418942621361
 20
18.05792385000957
 11
53.22776490949106
 21
1.116306304485041
  0
LWPOLYLINE
  5
EF
100
AcDbEntity
  8
sw
  6
ByLayer
 62
  256
370
   -1
100
AcDbPolyline
 90
    4
 70
    1
 43
0
 10
62.41852373008534
 20
0.3883280756424732
 10
77.27254476120888
 20
2.475924590043455
 10
79.36014127560986
 20
-12.3780964410801
 10
64.50612024448633
 20
-14.46569295548108
  0
LINE
  5
F0
100
AcDbEntity
  8
sw
  6
ByLayer
 62
  256
370
   -1
100
AcDbLine
 10
62.41852373008534
 20
0.3883280756424732
 11
79.36014127560986
 21
-12.3780964410801
  0
LINE
  5
F1
100
AcDbEntity
  8
sw
  6
ByLayer
 62
  256
370
   -1
100
AcDbLine
 10
77.27254476120888
 20
2.475924590043455
 11
64.50612024448633
 21
-14.46569295548108
  0
LWPOLYLINE
  5
F2
100
AcDbEntity
  8
sw
  6
ByLayer
 62
  256
370
   -1
100
AcDbPolyline
 90
    4
 70
    1
 43
0
 10
44.59369849273706
 20
-2.116787741638706
 10
59.4477195238606
 20
-0.0291912272377246
 10
61.53531603826158
 20
-14.88321225836128
 10
46.68129500713805
 20
-16.97080877276226
  0
LINE
  5
F3
100
AcDbEntity
  8
sw
  6
ByLayer
 62
  256
370
   -1
100
AcDbLine
 10
44.59369849273706
 20
-2.116787741638706
 11
61.53531603826158
 21
-14.88321225836128
  0
LINE
  5
F4
100
AcDbEntity
  8
sw
  6
ByLayer
 62
  256
370
   -1
100
AcDbLine
 10
59.4477195238606
 20
-0.0291912272377246
 11
46.68129500713805
 21
-16.97080877276225
  0
LWPOLYLINE
  5
F5
100
AcDbEntity
  8
sw
  6
ByLayer
 62
  256
370
   -1
100
AcDbPolyline
 90
    4
 70
    1
 43
0
 10
26.76887325538878
 20
-4.621903558919872
 10
41.62289428651232
 20
-2.53430704451889
 10
43.71049080091331
 20
-17.38832807564244
 10
28.85646976978976
 20
-19.47592459004343
  0
LINE
  5
F6
100
AcDbEntity
  8
sw
  6
ByLayer
 62
  256
370
   -1
100
AcDbLine
 10
26.76887325538878
 20
-4.621903558919872
 11
43.71049080091331
 21
-17.38832807564244
  0
LINE
  5
F7
100
AcDbEntity
  8
sw
  6
ByLayer
 62
  256
370
   -1
100
AcDbLine
 10
41.62289428651232
 20
-2.53430704451889
 11
28.85646976978976
 21
-19.47592459004342
  0
LWPOLYLINE
  5
F8
100
AcDbEntity
  8
sw
  6
ByLayer
 62
  256
370
   -1
100
AcDbPolyline
 90
    4
 70
    1
 43
0
 10
8.944048018040505
 20
-7.127019376201051
 10
23.79806904916405
 20
-5.03942286180007
 10
25.88566556356503
 20
-19.89344389292362
 10
11.03164453244149
 20
-21.98104040732461
  0
LINE
  5
F9
100
AcDbEntity
  8
sw
  6
ByLayer
 62
  256
370
   -1
100
AcDbLine
 10
8.944048018040505
 20
-7.127019376201051
 11
25.88566556356503
 21
-19.89344389292362
  0
LINE
  5
FA
100
AcDbEntity
  8
sw
  6
ByLayer
 62
  256
370
   -1
100
AcDbLine
 10
23.79806904916405
 20
-5.03942286180007
 11
11.03164453244149
 21
-21.9810404073246
  0
LWPOLYLINE
  5
FB
100
AcDbEntity
  8
sw
  6
ByLayer
 62
  256
370
   -1
100
AcDbPolyline
 90
    4
 70
    1
 43
0
 10
15.49051792039351
 20
10.96009570104624
 10
30.34453895151706
 20
13.04769221544722
 10
32.43213546591804
 20
-1.806328815676331
 10
17.5781144347945
 20
-3.893925330077311
  0
LINE
  5
FC
100
AcDbEntity
  8
sw
  6
ByLayer
 62
  256
370
   -1
100
AcDbLine
 10
15.49051792039351
 20
10.96009570104624
 11
32.43213546591804
 21
-1.806328815676327
  0
LINE
  5
FD
100
AcDbEntity
  8
sw
  6
ByLayer
 62
  256
370
   -1
100
AcDbLine
 10
30.34453895151706
 20
13.04769221544722
 11
17.5781144347945
 21
-3.893925330077307
  0
LWPOLYLINE
  5
FE
100
AcDbEntity
  8
sw
  6
ByLayer
 62
  256
370
   -1
100
AcDbPolyline
 90
    4
 70
    1
 43
0
 10
33.31534315774179
 20
13.46521151832741
 10
48.16936418886533
 20
15.5528080327284
 10
50.25696070326632
 20
0.6987870016048419
 10
35.40293967214278
 20
-1.388809512796138
  0
LINE
  5
FF
100
AcDbEntity
  8
sw
  6
ByLayer
 62
  256
370
   -1
100
AcDbLine
 10
33.31534315774179
 20
13.46521151832741
 11
50.25696070326632
 21
0.6987870016048454
  0
LINE
  5
100
100
AcDbEntity
  8
sw
  6
ByLayer
 62
  256
370
   -1
100
AcDbLine
 10
48.16936418886533
 20
15.5528080327284
 11
35.40293967214278
 21
-1.388809512796135
  0
LWPOLYLINE
  5
101
100
AcDbEntity
  8
sw
  6
ByLayer
 62
  256
370
   -1
100
AcDbPolyline
 90
    4
 70
    1
 43
0
 10
89.03118638203526
 20
20.30123126454542
 10
104.0311863820352
 20
20.30123126454542
 10
104.0311863820352
 20
5.301231264545422
 10
89.03118638203526
 20
5.301231264545422
  0
LINE
  5
102
100
AcDbEntity
  8
sw
  6
ByLayer
 62
  256
370
   -1
100
AcDbLine
 10
89.03118638203526
 20
20.30123126454542
 11
104.0311863820352
 21
5.301231264545425
  0
LINE
  5
103
100
AcDbEntity
  8
sw
  6
ByLayer
 62
  256
370
   -1
100
AcDbLine
 10
104.0311863820352
 20
20.30123126454542
 11
89.03118638203526
 21
5.301231264545425
  0
LWPOLYLINE
  5
104
100
AcDbEntity
  8
sw
  6
ByLayer
 62
  256
370
   -1
100
AcDbPolyline
 90
    4
 70
    1
 43
0
 10
86.98471647968225
 20
2.840395141618426
 10
101.9847164796822
 20
2.840395141618426
 10
101.9847164796822
 20
-12.15960485838157
 10
86.98471647968225
 20
-12.15960485838157
  0
LINE
  5
105
100
AcDbEntity
  8
sw
  6
ByLayer
 62
  256
370
   -1
100
AcDbLine
 10
86.98471647968225
 20
2.840395141618426
 11
101.9847164796822
 21
-12.15960485838157
  0
LINE
  5
106
100
AcDbEntity
  8
sw
  6
ByLayer
 62
  256
370
   -1
100
AcDbLine
 10
101.9847164796822
 20
2.840395141618426
 11
86.98471647968225
 21
-12.15960485838157
  0
LWPOLYLINE
  5
107
100
AcDbEntity
  8
sw
  6
ByLayer
 62
  256
370
   -1
100
AcDbPolyline
 90
    4
 70
    1
 43
0
 10
86.98471647968228
 20
-14.15960485838157
 10
101.9847164796823
 20
-14.15960485838157
 10
101.9847164796823
 20
-29.15960485838157
 10
86.98471647968228
 20
-29.15960485838157
  0
LINE
  5
108
100
AcDbEntity
  8
sw
  6
ByLayer
 62
  256
370
   -1
100
AcDbLine
 10
86.98471647968228
 20
-14.15960485838157
 11
101.9847164796823
 21
-29.15960485838157
  0
LINE
  5
109
100
AcDbEntity
  8
sw
  6
ByLayer
 62
  256
370
   -1
100
AcDbLine
 10
101.9847164796823
 20
-14.15960485838157
 11
86.98471647968228
 21
-29.15960485838157
  0
LWPOLYLINE
  5
10A
100
AcDbEntity
  8
sw
  6
ByLayer
 62
  256
370
   -1
100
AcDbPolyline
 90
    4
 70
    1
 43
0
 10
89.23471647968226
 20
-14.15960485838157
 10
104.2347164796822
 20
-14.15960485838157
 10
104.2347164796822
 20
-29.15960485838157
 10
89.23471647968226
 20
-29.15960485838157
  0
LINE
  5
10B
100
AcDbEntity
  8
sw
  6
ByLayer
 62
  256
370
   -1
100
AcDbLine
 10
89.23471647968226
 20
-14.15960485838157
 11
104.2347164796822
 21
-29.15960485838157
  0
LINE
  5
10C
100
AcDbEntity
  8
sw
  6
ByLayer
 62
  256
370
   -1
100
AcDbLine
 10
104.2347164796822
 20
-14.15960485838157
 11
89.23471647968226
 21
-29.15960485838157
  0
LWPOLYLINE
  5
10D
100
AcDbEntity
  8
sw
  6
ByLayer
 62
  256
370
   -1
100
AcDbPolyline
 90
    4
 70
    1
 43
0
 10
91.48471647968229
 20
-14.15960485838157
 10
106.4847164796823
 20
-14.15960485838157
 10
106.4847164796823
 20
-29.15960485838157
 10
91.48471647968229
 20
-29.15960485838157
  0
LINE
  5
10E
100
AcDbEntity
  8
sw
  6
ByLayer
 62
  256
370
   -1
100
AcDbLine
 10
91.48471647968229
 20
-14.15960485838157
 11
106.4847164796823
 21
-29.15960485838157
  0
LINE
  5
10F
100
AcDbEntity
  8
sw
  6
ByLayer
 62
  256
370
   -1
100
AcDbLine
 10
106.4847164796823
 20
-14.15960485838157
 11
91.48471647968229
 21
-29.15960485838157
  0
LWPOLYLINE
  5
110
100
AcDbEntity
  8
sw
  6
ByLayer
 62
  256
370
   -1
100
AcDbPolyline
 90
    4
 70
    1
 43
0
 10
84.37101958938037
 20
37.76206738747243
 10
99.37101958938035
 20
37.76206738747243
 10
99.37101958938035
 20
22.76206738747242
 10
84.37101958938037
 20
22.76206738747242
  0
LINE
  5
111
100
AcDbEntity
  8
sw
  6
ByLayer
 62
  256
370
   -1
100
AcDbLine
 10
84.37101958938037
 20
37.76206738747243
 11
99.37101958938035
 21
22.76206738747243
  0
LINE
  5
112
100
AcDbEntity
  8
sw
  6
ByLayer
 62
  256
370
   -1
100
AcDbLine
 10
99.37101958938035
 20
37.76206738747243
 11
84.37101958938037
 21
22.76206738747243
  0
LWPOLYLINE
  5
113
100
AcDbEntity
  8
sw
  6
ByLayer
 62
  256
370
   -1
100
AcDbPolyline
 90
    4
 70
    1
 43
0
 10
22.45050650770428
 20
-22.39587915900702
 10
37.30452753882783
 20
-20.30828264460604
 10
39.39212405322881
 20
-35.1623036757296
 10
24.53810302210526
 20
-37.24990019013057
  0
LINE
  5
114
100
AcDbEntity
  8
sw
  6
ByLayer
 62
  256
370
   -1
100
AcDbLine
 10
22.45050650770428
 20
-22.39587915900702
 11
39.39212405322881
 21
-35.16230367572959
  0
LINE
  5
115
100
AcDbEntity
  8
sw
  6
ByLayer
 62
  256
370
   -1
100
AcDbLine
 10
37.30452753882783
 20
-20.30828264460604
 11
24.53810302210526
 21
-37.24990019013057
  0
LWPOLYLINE
  5
116
100
AcDbEntity
  8
sw
  6
ByLayer
 62
  256
370
   -1
100
AcDbPolyline
 90
    4
 70
    1
 43
0
 10
49.18774436372667
 20
-18.63820543308526
 10
64.04176539485022
 20
-16.55060891868428
 10
66.1293619092512
 20
-31.40462994980783
 10
51.27534087812765
 20
-33.49222646420882
  0
LINE
  5
117
100
AcDbEntity
  8
sw
  6
ByLayer
 62
  256
370
   -1
100
AcDbLine
 10
49.18774436372667
 20
-18.63820543308526
 11
66.1293619092512
 21
-31.40462994980783
  0
LINE
  5
118
100
AcDbEntity
  8
sw
  6
ByLayer
 62
  256
370
   -1
100
AcDbLine
 10
64.04176539485022
 20
-16.55060891868428
 11
51.27534087812765
 21
-33.49222646420881
  0
ARC
  5
119
100
AcDbEntity
  8
int
  6
ByLayer
 62
  256
370
   -1
100
AcDbCircle
 10
-97.86589306337061
 20
34.38834634179273
 40
4
100
AcDbArc
 50
90
 51
170.7182009133232
  0
ARC
  5
11A
100
AcDbEntity
  8
int
  6
ByLayer
 62
  256
370
   -1
100
AcDbCircle
 10
-103.9847164796823
 20
35.3883463417927
 40
2.2
100
AcDbArc
 50
279.2817990866772
 51
350.7182009133233
  0
ARC
  5
11B
100
AcDbEntity
  8
int
  6
ByLayer
 62
  256
370
   -1
100
AcDbCircle
 10
-102.9847164796823
 20
29.26952292548118
 40
4
100
AcDbArc
 50
99.28179908667727
 51
180.0000000000001
  0
ARC
  5
11C
100
AcDbEntity
  8
int
  6
ByLayer
 62
  256
370
   -1
100
AcDbCircle
 10
97.86589306337061
 20
34.38834634179275
 40
4
100
AcDbArc
 50
9.281799086676804
 51
90
  0
ARC
  5
11D
100
AcDbEntity
  8
int
  6
ByLayer
 62
  256
370
   -1
100
AcDbCircle
 10
103.9847164796823
 20
35.3883463417927
 40
2.2
100
AcDbArc
 50
189.2817990866767
 51
260.7182009133228
  0
ARC
  5
11E
100
AcDbEntity
  8
int
  6
ByLayer
 62
  256
370
   -1
100
AcDbCircle
 10
102.9847164796823
 20
29.26952292548118
 40
4
100
AcDbArc
 50
359.9999999999999
 51
80.71820091332272
  0
ARC
  5
11F
100
AcDbEntity
  8
int
  6
ByLayer
 62
  256
370
   -1
100
AcDbCircle
 10
-70.98337837383724
 20
-22.51630187416536
 40
4.2
100
AcDbArc
 50
0
 51
180.0000311572008
  0
LINE
  5
120
100
AcDbEntity
  8
int
  6
ByLayer
 62
  256
370
   -1
100
AcDbLine
 10
-66.78337837383724
 20
-22.51630187416536
 11
-66.78337837383724
 21
-34.3883463417927
  0
ARC
  5
121
100
AcDbEntity
  8
int
  6
ByLayer
 62
  256
370
   -1
100
AcDbCircle
 10
-62.78337837383723
 20
-34.3883463417927
 40
4
100
AcDbArc
 50
180
 51
270
  0
LINE
  5
122
100
AcDbEntity
  8
int
  6
ByLayer
 62
  256
370
   -1
100
AcDbLine
 10
-75.18337837383724
 20
-22.51630187416536
 11
-75.18337837383724
 21
-34.3883463417927
  0
ARC
  5
123
100
AcDbEntity
  8
int
  6
ByLayer
 62
  256
370
   -1
100
AcDbCircle
 10
-79.18337837383724
 20
-34.3883463417927
 40
4
100
AcDbArc
 50
270
 51
0
  0
ARC
  5
124
100
AcDbEntity
  8
int
  6
ByLayer
 62
  256
370
   -1
100
AcDbCircle
 10
74.30040701567665
 20
-22.59902328986202
 40
4.2
100
AcDbArc
 50
359.9999793194567
 51
180
  0
LINE
  5
125
100
AcDbEntity
  8
int
  6
ByLayer
 62
  256
370
   -1
100
AcDbLine
 10
78.50040701567666
 20
-22.59902328986202
 11
78.50040701567666
 21
-34.3883463417927
  0
ARC
  5
126
100
AcDbEntity
  8
int
  6
ByLayer
 62
  256
370
   -1
100
AcDbCircle
 10
82.50040701567666
 20
-34.3883463417927
 40
4
100
AcDbArc
 50
180
 51
270
  0
LINE
  5
127
100
AcDbEntity
  8
int
  6
ByLayer
 62
  256
370
   -1
100
AcDbLine
 10
70.10040701567665
 20
-22.59902328986202
 11
70.10040701567665
 21
-34.3883463417927
  0
ARC
  5
128
100
AcDbEntity
  8
int
  6
ByLayer
 62
  256
370
   -1
100
AcDbCircle
 10
66.10040701567665
 20
-34.3883463417927
 40
4
100
AcDbArc
 50
270.0000000000002
 51
0
  0
ARC
  5
129
100
AcDbEntity
  8
int
  6
ByLayer
 62
  256
370
   -1
100
AcDbCircle
 10
2.249999999999986
 20
-23.1800681275063
 40
5.2
100
AcDbArc
 50
8.000004441257333
 51
172.0000000000002
  0
LINE
  5
12A
100
AcDbEntity
  8
int
  6
ByLayer
 62
  256
370
   -1
100
AcDbLine
 10
13.11563444298371
 20
-38.3883463417927
 11
66.10040701567667
 21
-38.3883463417927
  0
LINE
  5
12B
100
AcDbEntity
  8
int
  6
ByLayer
 62
  256
370
   -1
100
AcDbLine
 10
7.399394013553447
 20
-22.45636840166699
 11
9.154562168017428
 21
-34.94503874563296
  0
ARC
  5
12C
100
AcDbEntity
  8
int
  6
ByLayer
 62
  256
370
   -1
100
AcDbCircle
 10
13.11563444298371
 20
-34.3883463417927
 40
4
100
AcDbArc
 50
188
 51
270
  0
LINE
  5
12D
100
AcDbEntity
  8
int
  6
ByLayer
 62
  256
370
   -1
100
AcDbLine
 10
-2.899393957456182
 20
-22.45636800251397
 11
-4.65456216801743
 21
-34.94503874563295
  0
LINE
  5
12E
100
AcDbEntity
  8
int
  6
ByLayer
 62
  256
370
   -1
100
AcDbLine
 10
-62.78337837383723
 20
-38.3883463417927
 11
-8.615634442983719
 21
-38.3883463417927
  0
ARC
  5
12F
100
AcDbEntity
  8
int
  6
ByLayer
 62
  256
370
   -1
100
AcDbCircle
 10
-8.615634442983712
 20
-34.3883463417927
 40
4
100
AcDbArc
 50
269.9999999999999
 51
352.0000000000001
  0
LINE
  5
130
100
AcDbEntity
  8
sw
  6
ByLayer
 62
  256
370
   -1
100
AcDbLine
 10
-11.45620630933709
 20
36.03537150845818
 11
7.043793690662909
 21
12.03537150845818
  0
LINE
  5
131
100
AcDbEntity
  8
sw
  6
ByLayer
 62
  256
370
   -1
100
AcDbLine
 10
7
 20
36
 11
-11.45620630933709
 21
12.03537150845818
  0
LWPOLYLINE
  5
132
100
AcDbEntity
  8
0
  6
ByLayer
 62
  256
370
   -1
100
AcDbPolyline
 90
    4
 70
    1
 43
0
 10
-69.93824657732928
 20
-31.24671993562884
 10
-43.20100872130688
 20
-35.00439366155061
 10
-40.83506600498576
 20
-18.16983649294391
 10
-67.57230386100817
 20
-14.41216276702215
  0
LWPOLYLINE
  5
133
100
AcDbEntity
  8
sw
  6
ByLayer
 62
  256
370
   -1
100
AcDbPolyline
 90
    4
 70
    1
 43
0
 10
-61.7698685495188
 20
-16.23746944152412
 10
-46.91584751839526
 20
-18.3250659559251
 10
-49.00344403279625
 20
-33.17908698704865
 10
-63.85746506391979
 20
-31.09149047264767
  0
LINE
  5
134
100
AcDbEntity
  8
sw
  6
ByLayer
 62
  256
370
   -1
100
AcDbLine
 10
-46.91584751839526
 20
-18.3250659559251
 11
-63.85746506391979
 21
-31.09149047264767
  0
LINE
  5
135
100
AcDbEntity
  8
sw
  6
ByLayer
 62
  256
370
   -1
100
AcDbLine
 10
-61.7698685495188
 20
-16.23746944152411
 11
-49.00344403279625
 21
-33.17908698704863
  0
LWPOLYLINE
  5
136
100
AcDbEntity
  8
0
  6
ByLayer
 62
  256
370
   -1
100
AcDbPolyline
 90
    4
 70
    1
 43
0
 10
47.70100872130683
 20
-35.00439366155064
 10
74.43824657732924
 20
-31.24671993562887
 10
72.07230386100812
 20
-14.41216276702218
 10
45.33506600498572
 20
-18.16983649294394
  0
LWPOLYLINE
  5
137
100
AcDbEntity
  8
sw
  6
ByLayer
 62
  256
370
   -1
100
AcDbPolyline
 90
    4
 70
    1
 43
0
 10
51.41584751839522
 20
-18.32506595592513
 10
66.26986854951875
 20
-16.23746944152414
 10
68.35746506391973
 20
-31.0914904726477
 10
53.5034440327962
 20
-33.17908698704868
  0
LINE
  5
138
100
AcDbEntity
  8
sw
  6
ByLayer
 62
  256
370
   -1
100
AcDbLine
 10
51.41584751839522
 20
-18.32506595592513
 11
68.35746506391973
 21
-31.0914904726477
  0
LINE
  5
139
100
AcDbEntity
  8
sw
  6
ByLayer
 62
  256
370
   -1
100
AcDbLine
 10
66.26986854951875
 20
-16.23746944152414
 11
53.5034440327962
 21
-33.17908698704867
  0
CIRCLE
  5
13A
100
AcDbEntity
  8
percage
  6
ByLayer
 62
  256
370
   -1
100
AcDbCircle
 10
-46.81243039658819
 20
36.30050910881489
 40
1.2
  0
ARC
  5
13B
100
AcDbEntity
  8
int
  6
ByLayer
 62
  256
370
   -1
100
AcDbCircle
 10
-39.87098720713441
 20
34.38834634179273
 40
4
100
AcDbArc
 50
90
 51
164.5986898947029
  0
ARC
  5
13C
100
AcDbEntity
  8
int
  6
ByLayer
 62
  256
370
   -1
100
AcDbCircle
 10
-46.81243039658819
 20
36.30050910881489
 40
3.2
100
AcDbArc
 50
195.4013101052969
 51
344.598689894703
  0
LINE
  5
13D
100
AcDbEntity
  8
int
  6
ByLayer
 62
  256
370
   -1
100
AcDbLine
 10
-97.86589306337061
 20
38.38834634179273
 11
-53.75387358604195
 21
38.38834634179275
  0
ARC
  5
13E
100
AcDbEntity
  8
int
  6
ByLayer
 62
  256
370
   -1
100
AcDbCircle
 10
-53.75387358604195
 20
34.38834634179275
 40
4
100
AcDbArc
 50
15.40131010529692
 51
90.0000000000001
  0
CIRCLE
  5
13F
100
AcDbEntity
  8
percage
  6
ByLayer
 62
  256
370
   -1
100
AcDbCircle
 10
42.31200001091729
 20
35.67423015449462
 40
1.2
  0
LINE
  5
140
100
AcDbEntity
  8
int
  6
ByLayer
 62
  256
370
   -1
100
AcDbLine
 10
49.39624328880036
 20
38.38834634179274
 11
97.86589306337061
 21
38.38834634179275
  0
ARC
  5
141
100
AcDbEntity
  8
int
  6
ByLayer
 62
  256
370
   -1
100
AcDbCircle
 10
49.39624328880036
 20
34.38834634179274
 40
4
100
AcDbArc
 50
90
 51
169.7120682950395
  0
ARC
  5
142
100
AcDbEntity
  8
int
  6
ByLayer
 62
  256
370
   -1
100
AcDbCircle
 10
42.31200001091729
 20
35.67423015449462
 40
3.2
100
AcDbArc
 50
190.2879317049606
 51
349.7120682950394
  0
LINE
  5
143
100
AcDbEntity
  8
int
  6
ByLayer
 62
  256
370
   -1
100
AcDbLine
 10
-39.87098720713441
 20
38.38834634179274
 11
35.22775673303429
 21
38.38834634179274
  0
ARC
  5
144
100
AcDbEntity
  8
int
  6
ByLayer
 62
  256
370
   -1
100
AcDbCircle
 10
35.22775673303428
 20
34.38834634179274
 40
4
100
AcDbArc
 50
10.28793170496056
 51
89.9999999999999
  0
LINE
  5
145
100
AcDbEntity
  8
int
  6
ByLayer
 62
  256
370
   -1
100
AcDbLine
 10
106.9847164796823
 20
-30.9030668939731
 11
106.9847164796823
 21
29.26952292548118
  0
ARC
  5
146
100
AcDbEntity
  8
int
  6
ByLayer
 62
  256
370
   -1
100
AcDbCircle
 10
102.9847164796823
 20
-30.9030668939731
 40
4
100
AcDbArc
 50
314.9999829805795
 51
0
  0
LINE
  5
147
100
AcDbEntity
  8
int
  6
ByLayer
 62
  256
370
   -1
100
AcDbLine
 10
102.3278612458691
 20
-37.21677430670867
 11
105.8131427642584
 21
-33.73149485888908
  0
LINE
  5
148
100
AcDbEntity
  8
int
  6
ByLayer
 62
  256
370
   -1
100
AcDbLine
 10
82.50040701567666
 20
-38.3883463417927
 11
99.49943496129296
 21
-38.3883463417927
  0
ARC
  5
149
100
AcDbEntity
  8
int
  6
ByLayer
 62
  256
370
   -1
100
AcDbCircle
 10
99.49943496129296
 20
-34.3883463417927
 40
4
100
AcDbArc
 50
270
 51
314.9999829805796
  0
LINE
  5
14A
100
AcDbEntity
  8
int
  6
ByLayer
 62
  256
370
   -1
100
AcDbLine
 10
-106.9847164796823
 20
-30.90306333267375
 11
-106.9847164796823
 21
29.26952292548118
  0
ARC
  5
14B
100
AcDbEntity
  8
int
  6
ByLayer
 62
  256
370
   -1
100
AcDbCircle
 10
-102.9847164796823
 20
-30.90306333267375
 40
4
100
AcDbArc
 50
180
 51
224.9999855562619
  0
LINE
  5
14C
100
AcDbEntity
  8
int
  6
ByLayer
 62
  256
370
   -1
100
AcDbLine
 10
-105.8131443174488
 20
-33.73148974439945
 11
-102.3278630655449
 21
-37.21677275351838
  0
LINE
  5
14D
100
AcDbEntity
  8
int
  6
ByLayer
 62
  256
370
   -1
100
AcDbLine
 10
-99.49943522777841
 20
-38.3883463417927
 11
-79.18337837383724
 21
-38.3883463417927
  0
ARC
  5
14E
100
AcDbEntity
  8
int
  6
ByLayer
 62
  256
370
   -1
100
AcDbCircle
 10
-99.49943522777841
 20
-34.3883463417927
 40
4
100
AcDbArc
 50
224.9999855562619
 51
270
  0
ENDSEC
  0
SECTION
  2
OBJECTS
  0
DICTIONARY
  5
C
330
0
100
AcDbDictionary
281
    1
  3
ACAD_GROUP
350
D
  0
DICTIONARY
  5
D
330
C
100
AcDbDictionary
281
    1
  0
PLOTSETTINGS
  5
14F
100
AcDbPlotSettings
  6
1x1
 40
0
 41
0
 42
0
 43
0
  0
ENDSEC
  0
EOF
