999
dxfrw 0.6.3
  0
SECTION
  2
HEADER
  9
$ACADVER
  1
AC1021
  9
$DWGCODEPAGE
  3
ANSI_1252
  9
$INSBASE
 10
0
 20
0
 30
0
  9
$EXTMIN
 10
-117.0083333214355
 20
-49.4485066354614
 30
0
  9
$EXTMAX
 10
117.0083333214356
 20
49.44850663546138
 30
0
  9
$LIMMIN
 10
0
 20
0
  9
$LIMMAX
 10
420
 20
297
  9
$ORTHOMODE
 70
    0
  9
$REGENMODE
 70
    1
  9
$FILLMODE
 70
    1
  9
$QTEXTMODE
 70
    0
  9
$MIRRTEXT
 70
    0
  9
$LTSCALE
 40
1
  9
$ATTMODE
 70
    0
  9
$TEXTSIZE
 40
2.5
  9
$TRACEWID
 40
15.68
  9
$TEXTSTYLE
  7
STANDARD
  9
$CLAYER
  8
ext2
  9
$CELTYPE
  6
BYLAYER
  9
$CECOLOR
 62
  256
  9
$CELTSCALE
 40
1
  9
$DISPSILH
 70
    0
  9
$DIMSCALE
 40
2.5
  9
$DIMASZ
 40
2.5
  9
$DIMEXO
 40
0.625
  9
$DIMDLI
 40
3.75
  9
$DIMRND
 40
0
  9
$DIMDLE
 40
0
  9
$DIMEXE
 40
1.25
  9
$DIMTP
 40
0
  9
$DIMTM
 40
0
  9
$DIMTXT
 40
2.5
  9
$DIMCEN
 40
2.5
  9
$DIMTSZ
 40
0
  9
$DIMTOL
 70
    0
  9
$DIMLIM
 70
    0
  9
$DIMTIH
 70
    0
  9
$DIMTOH
 70
    0
  9
$DIMSE1
 70
    0
  9
$DIMSE2
 70
    0
  9
$DIMTAD
 70
    1
  9
$DIMZIN
 70
    8
  9
$DIMBLK
  1

  9
$DIMASO
 70
    1
  9
$DIMSHO
 70
    1
  9
$DIMPOST
  1

  9
$DIMAPOST
  1

  9
$DIMALT
 70
    0
  9
$DIMALTD
 70
    3
  9
$DIMALTF
 40
0.03937
  9
$DIMLFAC
 40
1
  9
$DIMTOFL
 70
    1
  9
$DIMTVP
 40
0
  9
$DIMTIX
 70
    0
  9
$DIMSOXD
 70
    0
  9
$DIMSAH
 70
    0
  9
$DIMBLK1
  1

  9
$DIMBLK2
  1

  9
$DIMSTYLE
  2
Standard
  9
$DIMCLRD
 70
    0
  9
$DIMCLRE
 70
    0
  9
$DIMCLRT
 70
    0
  9
$DIMTFAC
 40
1
  9
$DIMGAP
 40
0.625
  9
$DIMJUST
 70
    0
  9
$DIMSD1
 70
    0
  9
$DIMSD2
 70
    0
  9
$DIMTOLJ
 70
    0
  9
$DIMTZIN
 70
    8
  9
$DIMALTZ
 70
    0
  9
$DIMALTTZ
 70
    0
  9
$DIMUPT
 70
    0
  9
$DIMDEC
 70
    2
  9
$DIMTDEC
 70
    2
  9
$DIMALTU
 70
    2
  9
$DIMALTTD
 70
    3
  9
$DIMTXSTY
  7
STANDARD
  9
$DIMAUNIT
 70
    0
  9
$DIMADEC
 70
    0
  9
$DIMALTRND
 40
0
  9
$DIMAZIN
 70
    0
  9
$DIMDSEP
 70
   44
  9
$DIMATFIT
 70
    3
  9
$DIMFRAC
 70
    0
  9
$DIMLDRBLK
  1
STANDARD
  9
$DIMLUNIT
 70
    2
  9
$DIMLWD
 70
   -2
  9
$DIMLWE
 70
   -2
  9
$DIMTMOVE
 70
    0
  9
$DIMFXL
 40
1
  9
$DIMFXLON
 70
    0
  9
$DIMJOGANG
 40
0.7854
  9
$DIMTFILL
 70
    0
  9
$DIMTFILLCLR
 70
    0
  9
$DIMARCSYM
 70
    0
  9
$DIMLTYPE
  6

  9
$DIMLTEX1
  6

  9
$DIMLTEX2
  6

  9
$LUNITS
 70
    2
  9
$LUPREC
 70
    4
  9
$SKETCHINC
 40
1
  9
$FILLETRAD
 40
0
  9
$AUNITS
 70
    0
  9
$AUPREC
 70
    2
  9
$MENU
  1
.
  9
$ELEVATION
 40
0
  9
$PELEVATION
 40
0
  9
$THICKNESS
 40
0
  9
$LIMCHECK
 70
    0
  9
$CHAMFERA
 40
0
  9
$CHAMFERB
 40
0
  9
$CHAMFERC
 40
0
  9
$CHAMFERD
 40
0
  9
$SKPOLY
 70
    0
  9
$USRTIMER
 70
    1
  9
$ANGBASE
 50
0
  9
$ANGDIR
 70
    0
  9
$PDMODE
 70
   34
  9
$PDSIZE
 40
0
  9
$PLINEWID
 40
0
  9
$SPLFRAME
 70
    0
  9
$SPLINETYPE
 70
    2
  9
$SPLINESEGS
 70
    8
  9
$HANDSEED
  5
20000
  9
$SURFTAB1
 70
    6
  9
$SURFTAB2
 70
    6
  9
$SURFTYPE
 70
    6
  9
$SURFU
 70
    6
  9
$SURFV
 70
    6
  9
$UCSBASE
  2

  9
$UCSNAME
  2

  9
$UCSORG
 10
0
 20
0
 30
0
  9
$UCSXDIR
 10
1
 20
0
 30
0
  9
$UCSYDIR
 10
0
 20
1
 30
0
  9
$UCSORTHOREF
  2

  9
$UCSORTHOVIEW
 70
    0
  9
$UCSORGTOP
 10
0
 20
0
 30
0
  9
$UCSORGBOTTOM
 10
0
 20
0
 30
0
  9
$UCSORGLEFT
 10
0
 20
0
 30
0
  9
$UCSORGRIGHT
 10
0
 20
0
 30
0
  9
$UCSORGFRONT
 10
0
 20
0
 30
0
  9
$UCSORGBACK
 10
0
 20
0
 30
0
  9
$PUCSBASE
  2

  9
$PUCSNAME
  2

  9
$PUCSORG
 10
0
 20
0
 30
0
  9
$PUCSXDIR
 10
1
 20
0
 30
0
  9
$PUCSYDIR
 10
0
 20
1
 30
0
  9
$PUCSORTHOREF
  2

  9
$PUCSORTHOVIEW
 70
    0
  9
$PUCSORGTOP
 10
0
 20
0
 30
0
  9
$PUCSORGBOTTOM
 10
0
 20
0
 30
0
  9
$PUCSORGLEFT
 10
0
 20
0
 30
0
  9
$PUCSORGRIGHT
 10
0
 20
0
 30
0
  9
$PUCSORGFRONT
 10
0
 20
0
 30
0
  9
$PUCSORGBACK
 10
0
 20
0
 30
0
  9
$USERI1
 70
    0
  9
$USERI2
 70
    0
  9
$USERI3
 70
    0
  9
$USERI4
 70
    0
  9
$USERI5
 70
    0
  9
$USERR1
 40
0
  9
$USERR2
 40
0
  9
$USERR3
 40
0
  9
$USERR4
 40
0
  9
$USERR5
 40
0
  9
$WORLDVIEW
 70
    1
  9
$SHADEDGE
 70
    3
  9
$SHADEDIF
 70
   70
  9
$TILEMODE
 70
    1
  9
$MAXACTVP
 70
   64
  9
$PINSBASE
 10
0
 20
0
 30
0
  9
$PLIMCHECK
 70
    0
  9
$PEXTMIN
 10
0
 20
0
 30
0
  9
$PEXTMAX
 10
0
 20
0
 30
0
  9
$GRIDMODE
 70
    1
  9
$SNAPSTYLE
 70
    0
  9
$PLIMMIN
 10
0
 20
0
  9
$PLIMMAX
 10
210
 20
297
  9
$UNITMODE
 70
    0
  9
$VISRETAIN
 70
    1
  9
$PLINEGEN
 70
    0
  9
$PSLTSCALE
 70
    1
  9
$TREEDEPTH
 70
 3020
  9
$CMLSTYLE
  2
Standard
  9
$CMLJUST
 70
    0
  9
$CMLSCALE
 40
20
  9
$PROXYGRAPHICS
 70
    1
  9
$MEASUREMENT
 70
    1
  9
$CELWEIGHT
370
   -1
  9
$ENDCAPS
280
    0
  9
$JOINSTYLE
280
    0
  9
$LWDISPLAY
290
    0
  9
$INSUNITS
 70
    4
  9
$HYPERLINKBASE
  1

  9
$STYLESHEET
  1

  9
$XEDIT
290
    1
  9
$CEPSNTYPE
380
    0
  9
$PSTYLEMODE
290
    1
  9
$EXTNAMES
290
    1
  9
$PSVPSCALE
 40
1
  9
$OLESTARTUP
290
    0
  9
$SORTENTS
280
  127
  9
$INDEXCTL
280
    0
  9
$HIDETEXT
280
    1
  9
$XCLIPFRAME
290
    0
  9
$HALOGAP
280
    0
  9
$OBSCOLOR
 70
  257
  9
$OBSLTYPE
280
    0
  9
$INTERSECTIONDISPLAY
280
    0
  9
$INTERSECTIONCOLOR
 70
  257
  9
$DIMASSOC
280
    1
  9
$PROJECTNAME
  1

  9
$CAMERADISPLAY
290
    0
  9
$LENSLENGTH
 40
50
  9
$CAMERAHEIGHT
 40
0
  9
$STEPSPERSEC
 40
2
  9
$STEPSIZE
 40
50
  9
$3DDWFPREC
 40
2
  9
$PSOLWIDTH
 40
5
  9
$PSOLHEIGHT
 40
80
  9
$LOFTANG1
 40
1.570796326794897
  9
$LOFTANG2
 40
1.570796326794897
  9
$LOFTMAG1
 40
0
  9
$LOFTMAG2
 40
0
  9
$LOFTPARAM
 70
    7
  9
$LOFTNORMALS
280
    1
  9
$LATITUDE
 40
1
  9
$LONGITUDE
 40
1
  9
$NORTHDIRECTION
 40
0
  9
$TIMEZONE
 70
-8000
  9
$LIGHTGLYPHDISPLAY
280
    1
  9
$TILEMODELIGHTSYNCH
280
    1
  9
$SOLIDHIST
280
    1
  9
$SHOWHIST
280
    1
  9
$DWFFRAME
280
    2
  9
$DGNFRAME
280
    0
  9
$REALWORLDSCALE
290
    1
  9
$INTERFERECOLOR
 62
    1
  9
$CSHADOW
280
    0
  9
$SHADOWPLANELOCATION
 40
0
  0
ENDSEC
  0
SECTION
  2
CLASSES
  0
ENDSEC
  0
SECTION
  2
TABLES
  0
TABLE
  2
VPORT
  5
8
330
0
100
AcDbSymbolTable
 70
    1
  0
VPORT
  5
31
330
2
100
AcDbSymbolTableRecord
100
AcDbViewportTableRecord
  2
*ACTIVE
 70
    0
 10
0
 20
0
 11
1
 21
1
 12
59.5574331636113
 22
36.57707310048153
 13
0
 23
0
 14
10
 24
10
 15
10
 25
10
 16
0
 26
0
 36
1
 17
0
 27
0
 37
0
 40
146.1167894014001
 41
1.62778505897772
 42
50
 43
0
 44
0
 50
0
 51
0
 71
    0
 72
  100
 73
    1
 74
    3
 75
    0
 76
    1
 77
    0
 78
    0
281
    0
 65
    1
110
0
120
0
130
0
111
1
121
0
131
0
112
0
122
1
132
0
 79
    0
146
0
348
10020
 60
    7
 61
    5
292
1
282
    1
141
0
142
0
 63
  250
421
3358443
  0
ENDTAB
  0
TABLE
  2
LTYPE
  5
5
330
0
100
AcDbSymbolTable
 70
    4
  0
LTYPE
  5
14
330
5
100
AcDbSymbolTableRecord
100
AcDbLinetypeTableRecord
  2
ByBlock
 70
    0
  3

 72
   65
 73
    0
 40
0
  0
LTYPE
  5
15
330
5
100
AcDbSymbolTableRecord
100
AcDbLinetypeTableRecord
  2
ByLayer
 70
    0
  3

 72
   65
 73
    0
 40
0
  0
LTYPE
  5
16
330
5
100
AcDbSymbolTableRecord
100
AcDbLinetypeTableRecord
  2
Continuous
 70
    0
  3
Solid line
 72
   65
 73
    0
 40
0
  0
LTYPE
  5
32
330
5
100
AcDbSymbolTableRecord
100
AcDbLinetypeTableRecord
  2
DOT
 70
    0
  3
Dot . . . . . . . . . . . . . . . . . . . . . .
 72
   65
 73
    2
 40
6.35
 49
0
 74
    0
 49
-6.35
 74
    0
  0
LTYPE
  5
33
330
5
100
AcDbSymbolTableRecord
100
AcDbLinetypeTableRecord
  2
DOTTINY
 70
    0
  3
Dot (.15x) .....................................
 72
   65
 73
    2
 40
0.9525
 49
0
 74
    0
 49
-0.9525
 74
    0
  0
LTYPE
  5
34
330
5
100
AcDbSymbolTableRecord
100
AcDbLinetypeTableRecord
  2
DOT2
 70
    0
  3
Dot (.5x) .....................................
 72
   65
 73
    2
 40
3.175
 49
0
 74
    0
 49
-3.175
 74
    0
  0
LTYPE
  5
35
330
5
100
AcDbSymbolTableRecord
100
AcDbLinetypeTableRecord
  2
DOTX2
 70
    0
  3
Dot (2x) .  .  .  .  .  .  .  .  .  .  .  .  .
 72
   65
 73
    2
 40
12.7
 49
0
 74
    0
 49
-12.7
 74
    0
  0
LTYPE
  5
36
330
5
100
AcDbSymbolTableRecord
100
AcDbLinetypeTableRecord
  2
DASHED
 70
    0
  3
Dashed _ _ _ _ _ _ _ _ _ _ _ _ _ _ _ _ _
 72
   65
 73
    2
 40
19.05
 49
12.7
 74
    0
 49
-6.35
 74
    0
  0
LTYPE
  5
37
330
5
100
AcDbSymbolTableRecord
100
AcDbLinetypeTableRecord
  2
DASHEDTINY
 70
    0
  3
Dashed (.15x) _ _ _ _ _ _ _ _ _ _ _ _ _ _ _ _ _
 72
   65
 73
    2
 40
2.8575
 49
1.905
 74
    0
 49
-0.9525
 74
    0
  0
LTYPE
  5
38
330
5
100
AcDbSymbolTableRecord
100
AcDbLinetypeTableRecord
  2
DASHED2
 70
    0
  3
Dashed (.5x) _ _ _ _ _ _ _ _ _ _ _ _ _ _ _ _ _
 72
   65
 73
    2
 40
9.524999999999999
 49
6.35
 74
    0
 49
-3.175
 74
    0
  0
LTYPE
  5
39
330
5
100
AcDbSymbolTableRecord
100
AcDbLinetypeTableRecord
  2
DASHEDX2
 70
    0
  3
Dashed (2x) ____  ____  ____  ____  ____  ___
 72
   65
 73
    2
 40
38.09999999999999
 49
25.4
 74
    0
 49
-12.7
 74
    0
  0
LTYPE
  5
3A
330
5
100
AcDbSymbolTableRecord
100
AcDbLinetypeTableRecord
  2
DASHDOT
 70
    0
  3
Dash dot __ . __ . __ . __ . __ . __ . __ . __
 72
   65
 73
    4
 40
25.4
 49
12.7
 74
    0
 49
-6.35
 74
    0
 49
0
 74
    0
 49
-6.35
 74
    0
  0
LTYPE
  5
3B
330
5
100
AcDbSymbolTableRecord
100
AcDbLinetypeTableRecord
  2
DASHDOTTINY
 70
    0
  3
Dash dot (.15x) _._._._._._._._._._._._._._._.
 72
   65
 73
    4
 40
3.81
 49
1.905
 74
    0
 49
-0.9525
 74
    0
 49
0
 74
    0
 49
-0.9525
 74
    0
  0
LTYPE
  5
3C
330
5
100
AcDbSymbolTableRecord
100
AcDbLinetypeTableRecord
  2
DASHDOT2
 70
    0
  3
Dash dot (.5x) _._._._._._._._._._._._._._._.
 72
   65
 73
    4
 40
12.7
 49
6.35
 74
    0
 49
-3.175
 74
    0
 49
0
 74
    0
 49
-3.175
 74
    0
  0
LTYPE
  5
3D
330
5
100
AcDbSymbolTableRecord
100
AcDbLinetypeTableRecord
  2
DASHDOTX2
 70
    0
  3
Dash dot (2x) ____  .  ____  .  ____  .  ___
 72
   65
 73
    4
 40
50.8
 49
25.4
 74
    0
 49
-12.7
 74
    0
 49
0
 74
    0
 49
-12.7
 74
    0
  0
LTYPE
  5
3E
330
5
100
AcDbSymbolTableRecord
100
AcDbLinetypeTableRecord
  2
DIVIDE
 70
    0
  3
Divide ____ . . ____ . . ____ . . ____ . . ____
 72
   65
 73
    6
 40
31.75
 49
12.7
 74
    0
 49
-6.35
 74
    0
 49
0
 74
    0
 49
-6.35
 74
    0
 49
0
 74
    0
 49
-6.35
 74
    0
  0
LTYPE
  5
3F
330
5
100
AcDbSymbolTableRecord
100
AcDbLinetypeTableRecord
  2
DIVIDETINY
 70
    0
  3
Divide (.15x) __..__..__..__..__..__..__..__.._
 72
   65
 73
    6
 40
4.7625
 49
1.905
 74
    0
 49
-0.9525
 74
    0
 49
0
 74
    0
 49
-0.9525
 74
    0
 49
0
 74
    0
 49
-0.9525
 74
    0
  0
LTYPE
  5
40
330
5
100
AcDbSymbolTableRecord
100
AcDbLinetypeTableRecord
  2
DIVIDE2
 70
    0
  3
Divide (.5x) __..__..__..__..__..__..__..__.._
 72
   65
 73
    6
 40
15.875
 49
6.35
 74
    0
 49
-3.175
 74
    0
 49
0
 74
    0
 49
-3.175
 74
    0
 49
0
 74
    0
 49
-3.175
 74
    0
  0
LTYPE
  5
41
330
5
100
AcDbSymbolTableRecord
100
AcDbLinetypeTableRecord
  2
DIVIDEX2
 70
    0
  3
Divide (2x) ________  .  .  ________  .  .  _
 72
   65
 73
    6
 40
63.5
 49
25.4
 74
    0
 49
-12.7
 74
    0
 49
0
 74
    0
 49
-12.7
 74
    0
 49
0
 74
    0
 49
-12.7
 74
    0
  0
LTYPE
  5
42
330
5
100
AcDbSymbolTableRecord
100
AcDbLinetypeTableRecord
  2
BORDER
 70
    0
  3
Border __ __ . __ __ . __ __ . __ __ . __ __ .
 72
   65
 73
    6
 40
44.45
 49
12.7
 74
    0
 49
-6.35
 74
    0
 49
12.7
 74
    0
 49
-6.35
 74
    0
 49
0
 74
    0
 49
-6.35
 74
    0
  0
LTYPE
  5
43
330
5
100
AcDbSymbolTableRecord
100
AcDbLinetypeTableRecord
  2
BORDERTINY
 70
    0
  3
Border (.15x) __.__.__.__.__.__.__.__.__.__.__.
 72
   65
 73
    6
 40
6.6675
 49
1.905
 74
    0
 49
-0.9525
 74
    0
 49
1.905
 74
    0
 49
-0.9525
 74
    0
 49
0
 74
    0
 49
-0.9525
 74
    0
  0
LTYPE
  5
44
330
5
100
AcDbSymbolTableRecord
100
AcDbLinetypeTableRecord
  2
BORDER2
 70
    0
  3
Border (.5x) __.__.__.__.__.__.__.__.__.__.__.
 72
   65
 73
    6
 40
22.225
 49
6.35
 74
    0
 49
-3.175
 74
    0
 49
6.35
 74
    0
 49
-3.175
 74
    0
 49
0
 74
    0
 49
-3.175
 74
    0
  0
LTYPE
  5
45
330
5
100
AcDbSymbolTableRecord
100
AcDbLinetypeTableRecord
  2
BORDERX2
 70
    0
  3
Border (2x) ____  ____  .  ____  ____  .  ___
 72
   65
 73
    6
 40
88.89999999999999
 49
25.4
 74
    0
 49
-12.7
 74
    0
 49
25.4
 74
    0
 49
-12.7
 74
    0
 49
0
 74
    0
 49
-12.7
 74
    0
  0
LTYPE
  5
46
330
5
100
AcDbSymbolTableRecord
100
AcDbLinetypeTableRecord
  2
CENTER
 70
    0
  3
Center ____ _ ____ _ ____ _ ____ _ ____ _ ____
 72
   65
 73
    4
 40
50.8
 49
31.75
 74
    0
 49
-6.35
 74
    0
 49
6.35
 74
    0
 49
-6.35
 74
    0
  0
LTYPE
  5
47
330
5
100
AcDbSymbolTableRecord
100
AcDbLinetypeTableRecord
  2
CENTERTINY
 70
    0
  3
Center (.15x) ___ _ ___ _ ___ _ ___ _ ___ _ ___
 72
   65
 73
    4
 40
7.619999999999999
 49
4.7625
 74
    0
 49
-0.9525
 74
    0
 49
0.9525
 74
    0
 49
-0.9525
 74
    0
  0
LTYPE
  5
48
330
5
100
AcDbSymbolTableRecord
100
AcDbLinetypeTableRecord
  2
CENTER2
 70
    0
  3
Center (.5x) ___ _ ___ _ ___ _ ___ _ ___ _ ___
 72
   65
 73
    4
 40
28.575
 49
19.05
 74
    0
 49
-3.175
 74
    0
 49
3.175
 74
    0
 49
-3.175
 74
    0
  0
LTYPE
  5
49
330
5
100
AcDbSymbolTableRecord
100
AcDbLinetypeTableRecord
  2
CENTERX2
 70
    0
  3
Center (2x) ________  __  ________  __  _____
 72
   65
 73
    4
 40
101.6
 49
63.5
 74
    0
 49
-12.7
 74
    0
 49
12.7
 74
    0
 49
-12.7
 74
    0
  0
ENDTAB
  0
TABLE
  2
LAYER
  5
2
330
0
100
AcDbSymbolTable
 70
    1
  0
LAYER
  5
10
330
2
100
AcDbSymbolTableRecord
100
AcDbLayerTableRecord
  2
0
 70
    4
 62
    7
  6
CONTINUOUS
370
    0
390
F
  0
LAYER
  5
4A
330
2
100
AcDbSymbolTableRecord
100
AcDbLayerTableRecord
  2
1
 70
    4
 62
    5
  6
CONTINUOUS
370
    0
390
F
  0
LAYER
  5
4B
330
2
100
AcDbSymbolTableRecord
100
AcDbLayerTableRecord
  2
edge
 70
    4
 62
    2
  6
CONTINUOUS
370
    0
390
F
  0
LAYER
  5
4C
330
2
100
AcDbSymbolTableRecord
100
AcDbLayerTableRecord
  2
ext1
 70
    4
 62
    6
  6
CONTINUOUS
370
    0
390
F
  0
LAYER
  5
4D
330
2
100
AcDbSymbolTableRecord
100
AcDbLayerTableRecord
  2
ext2
 70
    4
 62
  212
420
12648641
  6
CONTINUOUS
370
    0
390
F
  0
LAYER
  5
4E
330
2
100
AcDbSymbolTableRecord
100
AcDbLayerTableRecord
  2
ext3
 70
    4
 62
  214
420
11468975
  6
CONTINUOUS
370
    0
390
F
  0
LAYER
  5
4F
330
2
100
AcDbSymbolTableRecord
100
AcDbLayerTableRecord
  2
int
 70
    4
 62
    4
  6
CONTINUOUS
370
    0
390
F
  0
LAYER
  5
50
330
2
100
AcDbSymbolTableRecord
100
AcDbLayerTableRecord
  2
keycap
 70
    4
 62
  136
420
32896
  6
CONTINUOUS
370
   -3
390
F
  0
LAYER
  5
51
330
2
100
AcDbSymbolTableRecord
100
AcDbLayerTableRecord
  2
percage
 70
    4
 62
    4
  6
CONTINUOUS
370
    0
390
F
  0
LAYER
  5
52
330
2
100
AcDbSymbolTableRecord
100
AcDbLayerTableRecord
  2
placement
 70
    4
 62
    1
  6
CONTINUOUS
370
    0
390
F
  0
LAYER
  5
53
330
2
100
AcDbSymbolTableRecord
100
AcDbLayerTableRecord
  2
rpi
 70
    4
 62
    3
  6
CONTINUOUS
370
    0
390
F
  0
ENDTAB
  0
TABLE
  2
STYLE
  5
3
330
0
100
AcDbSymbolTable
 70
    3
  0
STYLE
  5
54
330
2
100
AcDbSymbolTableRecord
100
AcDbTextStyleTableRecord
  2
Standard
 70
    0
 40
0
 41
1
 50
0
 71
    0
 42
1
  3
txt
  4

  0
ENDTAB
  0
TABLE
  2
VIEW
  5
6
330
0
100
AcDbSymbolTable
 70
    0
  0
ENDTAB
  0
TABLE
  2
UCS
  5
7
330
0
100
AcDbSymbolTable
 70
    0
  0
ENDTAB
  0
TABLE
  2
APPID
  5
9
330
0
100
AcDbSymbolTable
 70
    1
  0
APPID
  5
12
330
9
100
AcDbSymbolTableRecord
100
AcDbRegAppTableRecord
  2
ACAD
 70
    0
  0
APPID
  5
55
330
9
100
AcDbSymbolTableRecord
100
AcDbRegAppTableRecord
  2
LibreCad
 70
    0
  0
ENDTAB
  0
TABLE
  2
DIMSTYLE
  5
A
330
0
100
AcDbSymbolTable
 70
    1
100
AcDbDimStyleTable
 71
    1
  0
DIMSTYLE
105
56
330
A
100
AcDbSymbolTableRecord
100
AcDbDimStyleTableRecord
  2
Standard
 70
    0
 40
2.5
 41
2.5
 42
0.625
 43
0.38
 44
1.25
 45
0
 46
0
 47
0
 48
0
 49
1
140
2.5
141
0.09
142
0
143
25.4
144
1
145
0
146
1
147
0.625
148
0
 71
    0
 72
    0
 73
    0
 74
    1
 75
    0
 76
    0
 77
    0
 78
    8
 79
    0
170
    0
171
    2
172
    0
173
    0
174
    0
175
    0
176
    0
177
    0
178
    0
179
    0
271
    2
272
    4
273
    2
274
    2
275
    0
276
    0
277
    2
278
   44
279
    0
280
    0
281
    0
282
    0
283
    1
284
    0
285
    0
286
    0
288
    0
289
    3
340
STANDARD
341

371
   -2
372
   -2
  0
ENDTAB
  0
TABLE
  2
BLOCK_RECORD
  5
1
330
0
100
AcDbSymbolTable
 70
    2
  0
BLOCK_RECORD
  5
1F
330
1
100
AcDbSymbolTableRecord
100
AcDbBlockTableRecord
  2
*Model_Space
 70
    0
280
    1
281
    0
  0
BLOCK_RECORD
  5
1E
330
1
100
AcDbSymbolTableRecord
100
AcDbBlockTableRecord
  2
*Paper_Space
 70
    0
280
    1
281
    0
  0
ENDTAB
  0
ENDSEC
  0
SECTION
  2
BLOCKS
  0
BLOCK
  5
20
330
1F
100
AcDbEntity
  8
0
100
AcDbBlockBegin
  2
*Model_Space
 70
    0
 10
0
 20
0
 30
0
  3
*Model_Space
  1

  0
ENDBLK
  5
21
330
1F
100
AcDbEntity
  8
0
100
AcDbBlockEnd
  0
BLOCK
  5
1C
330
1B
100
AcDbEntity
  8
0
100
AcDbBlockBegin
  2
*Paper_Space
 70
    0
 10
0
 20
0
 30
0
  3
*Paper_Space
  1

  0
ENDBLK
  5
1D
330
1F
100
AcDbEntity
  8
0
100
AcDbBlockEnd
  0
ENDSEC
  0
SECTION
  2
ENTITIES
  0
LINE
  5
57
100
AcDbEntity
  8
0
  6
ByLayer
 62
  256
370
   -1
100
AcDbLine
 10
-62.49539809999997
 20
41.12490371402586
 11
-48.63164509999996
 21
39.17648031402586
  0
LINE
  5
58
100
AcDbEntity
  8
0
  6
ByLayer
 62
  256
370
   -1
100
AcDbLine
 10
-64.44382149999997
 20
27.26115071402586
 11
-50.58006849999996
 21
25.31272731402586
  0
LINE
  5
59
100
AcDbEntity
  8
0
  6
ByLayer
 62
  256
370
   -1
100
AcDbLine
 10
-62.49539809999997
 20
41.12490371402586
 11
-64.44382149999997
 21
27.26115071402586
  0
LINE
  5
5A
100
AcDbEntity
  8
0
  6
ByLayer
 62
  256
370
   -1
100
AcDbLine
 10
-48.63164509999996
 20
39.17648031402586
 11
-50.58006849999996
 21
25.31272731402586
  0
LINE
  5
5B
100
AcDbEntity
  8
0
  6
ByLayer
 62
  256
370
   -1
100
AcDbLine
 10
-81.97156359999998
 20
39.06541931402586
 11
-68.10781059999998
 21
37.11699591402586
  0
LINE
  5
5C
100
AcDbEntity
  8
0
  6
ByLayer
 62
  256
370
   -1
100
AcDbLine
 10
-83.91998699999998
 20
25.20166631402586
 11
-70.05623399999998
 21
23.25324291402586
  0
LINE
  5
5D
100
AcDbEntity
  8
0
  6
ByLayer
 62
  256
370
   -1
100
AcDbLine
 10
-81.97156359999998
 20
39.06541931402586
 11
-83.91998699999998
 21
25.20166631402586
  0
LINE
  5
5E
100
AcDbEntity
  8
0
  6
ByLayer
 62
  256
370
   -1
100
AcDbLine
 10
-68.10781059999998
 20
37.11699591402586
 11
-70.05623399999998
 21
23.25324291402586
  0
LINE
  5
5F
100
AcDbEntity
  8
0
  6
ByLayer
 62
  256
370
   -1
100
AcDbLine
 10
-44.34137699999996
 20
33.77684151402585
 11
-30.47762399999997
 21
31.82841811402586
  0
LINE
  5
60
100
AcDbEntity
  8
0
  6
ByLayer
 62
  256
370
   -1
100
AcDbLine
 10
-46.28980039999997
 20
19.91308851402586
 11
-32.42604739999997
 21
17.96466511402586
  0
LINE
  5
61
100
AcDbEntity
  8
0
  6
ByLayer
 62
  256
370
   -1
100
AcDbLine
 10
-44.34137699999996
 20
33.77684151402585
 11
-46.28980039999997
 21
19.91308851402586
  0
LINE
  5
62
100
AcDbEntity
  8
0
  6
ByLayer
 62
  256
370
   -1
100
AcDbLine
 10
-30.47762399999997
 20
31.82841811402586
 11
-32.42604739999997
 21
17.96466511402586
  0
LINE
  5
63
100
AcDbEntity
  8
0
  6
ByLayer
 62
  256
370
   -1
100
AcDbLine
 10
-25.52628369999996
 20
31.13255251402586
 11
-11.66253069999997
 21
29.18412911402586
  0
LINE
  5
64
100
AcDbEntity
  8
0
  6
ByLayer
 62
  256
370
   -1
100
AcDbLine
 10
-27.47470709999997
 20
17.26879951402586
 11
-13.61095409999997
 21
15.32037611402586
  0
LINE
  5
65
100
AcDbEntity
  8
0
  6
ByLayer
 62
  256
370
   -1
100
AcDbLine
 10
-25.52628369999996
 20
31.13255251402586
 11
-27.47470709999997
 21
17.26879951402586
  0
LINE
  5
66
100
AcDbEntity
  8
0
  6
ByLayer
 62
  256
370
   -1
100
AcDbLine
 10
-11.66253069999997
 20
29.18412911402586
 11
-13.61095409999997
 21
15.32037611402586
  0
LINE
  5
67
100
AcDbEntity
  8
0
  6
ByLayer
 62
  256
370
   -1
100
AcDbLine
 10
-101.4477291
 20
37.00593491402586
 11
-87.58397609999997
 21
35.05751151402585
  0
LINE
  5
68
100
AcDbEntity
  8
0
  6
ByLayer
 62
  256
370
   -1
100
AcDbLine
 10
-103.3961525
 20
23.14218191402586
 11
-89.53239949999997
 21
21.19375851402586
  0
LINE
  5
69
100
AcDbEntity
  8
0
  6
ByLayer
 62
  256
370
   -1
100
AcDbLine
 10
-101.4477291
 20
37.00593491402586
 11
-103.3961525
 21
23.14218191402586
  0
LINE
  5
6A
100
AcDbEntity
  8
0
  6
ByLayer
 62
  256
370
   -1
100
AcDbLine
 10
-87.58397609999997
 20
35.05751151402585
 11
-89.53239949999997
 21
21.19375851402586
  0
LINE
  5
6B
100
AcDbEntity
  8
0
  6
ByLayer
 62
  256
370
   -1
100
AcDbLine
 10
-65.13968699999997
 20
22.30981041402586
 11
-51.27593399999997
 21
20.36138701402586
  0
LINE
  5
6C
100
AcDbEntity
  8
0
  6
ByLayer
 62
  256
370
   -1
100
AcDbLine
 10
-67.08811039999996
 20
8.446057414025859
 11
-53.22435739999997
 21
6.497634014025856
  0
LINE
  5
6D
100
AcDbEntity
  8
0
  6
ByLayer
 62
  256
370
   -1
100
AcDbLine
 10
-65.13968699999997
 20
22.30981041402586
 11
-67.08811039999996
 21
8.446057414025859
  0
LINE
  5
6E
100
AcDbEntity
  8
0
  6
ByLayer
 62
  256
370
   -1
100
AcDbLine
 10
-51.27593399999997
 20
20.36138701402586
 11
-53.22435739999997
 21
6.497634014025856
  0
LINE
  5
6F
100
AcDbEntity
  8
0
  6
ByLayer
 62
  256
370
   -1
100
AcDbLine
 10
-84.61585249999997
 20
20.25032601402586
 11
-70.75209949999997
 21
18.30190261402586
  0
LINE
  5
70
100
AcDbEntity
  8
0
  6
ByLayer
 62
  256
370
   -1
100
AcDbLine
 10
-86.56427589999997
 20
6.386573014025856
 11
-72.70052289999997
 21
4.438149614025853
  0
LINE
  5
71
100
AcDbEntity
  8
0
  6
ByLayer
 62
  256
370
   -1
100
AcDbLine
 10
-84.61585249999997
 20
20.25032601402586
 11
-86.56427589999997
 21
6.386573014025856
  0
LINE
  5
72
100
AcDbEntity
  8
0
  6
ByLayer
 62
  256
370
   -1
100
AcDbLine
 10
-70.75209949999997
 20
18.30190261402586
 11
-72.70052289999997
 21
4.438149614025853
  0
LINE
  5
73
100
AcDbEntity
  8
0
  6
ByLayer
 62
  256
370
   -1
100
AcDbLine
 10
-46.98566589999997
 20
14.96174811402586
 11
-33.12191289999996
 21
13.01332471402586
  0
LINE
  5
74
100
AcDbEntity
  8
0
  6
ByLayer
 62
  256
370
   -1
100
AcDbLine
 10
-48.93408929999996
 20
1.097995114025857
 11
-35.07033629999996
 21
-0.8504282859741463
  0
LINE
  5
75
100
AcDbEntity
  8
0
  6
ByLayer
 62
  256
370
   -1
100
AcDbLine
 10
-46.98566589999997
 20
14.96174811402586
 11
-48.93408929999996
 21
1.097995114025857
  0
LINE
  5
76
100
AcDbEntity
  8
0
  6
ByLayer
 62
  256
370
   -1
100
AcDbLine
 10
-33.12191289999996
 20
13.01332471402586
 11
-35.07033629999996
 21
-0.8504282859741463
  0
LINE
  5
77
100
AcDbEntity
  8
0
  6
ByLayer
 62
  256
370
   -1
100
AcDbLine
 10
-28.17057259999996
 20
12.31745921402586
 11
-14.30681959999996
 21
10.36903581402586
  0
LINE
  5
78
100
AcDbEntity
  8
0
  6
ByLayer
 62
  256
370
   -1
100
AcDbLine
 10
-30.11899599999996
 20
-1.546293785974143
 11
-16.25524299999996
 21
-3.494717185974146
  0
LINE
  5
79
100
AcDbEntity
  8
0
  6
ByLayer
 62
  256
370
   -1
100
AcDbLine
 10
-28.17057259999996
 20
12.31745921402586
 11
-30.11899599999996
 21
-1.546293785974143
  0
LINE
  5
7A
100
AcDbEntity
  8
0
  6
ByLayer
 62
  256
370
   -1
100
AcDbLine
 10
-14.30681959999996
 20
10.36903581402586
 11
-16.25524299999996
 21
-3.494717185974146
  0
LINE
  5
7B
100
AcDbEntity
  8
0
  6
ByLayer
 62
  256
370
   -1
100
AcDbLine
 10
-104.0920181
 20
18.19084161402586
 11
-90.22826509999997
 21
16.24241821402586
  0
LINE
  5
7C
100
AcDbEntity
  8
0
  6
ByLayer
 62
  256
370
   -1
100
AcDbLine
 10
-106.0404415
 20
4.327088614025854
 11
-92.17668849999997
 21
2.378665214025858
  0
LINE
  5
7D
100
AcDbEntity
  8
0
  6
ByLayer
 62
  256
370
   -1
100
AcDbLine
 10
-104.0920181
 20
18.19084161402586
 11
-106.0404415
 21
4.327088614025854
  0
LINE
  5
7E
100
AcDbEntity
  8
0
  6
ByLayer
 62
  256
370
   -1
100
AcDbLine
 10
-90.22826509999997
 20
16.24241821402586
 11
-92.17668849999997
 21
2.378665214025858
  0
LINE
  5
7F
100
AcDbEntity
  8
0
  6
ByLayer
 62
  256
370
   -1
100
AcDbLine
 10
-67.78397589999997
 20
3.494717114025853
 11
-53.92022289999996
 21
1.546293714025858
  0
LINE
  5
80
100
AcDbEntity
  8
0
  6
ByLayer
 62
  256
370
   -1
100
AcDbLine
 10
-69.73239929999997
 20
-10.36903588597414
 11
-55.86864629999996
 21
-12.31745928597415
  0
LINE
  5
81
100
AcDbEntity
  8
0
  6
ByLayer
 62
  256
370
   -1
100
AcDbLine
 10
-67.78397589999997
 20
3.494717114025853
 11
-69.73239929999997
 21
-10.36903588597414
  0
LINE
  5
82
100
AcDbEntity
  8
0
  6
ByLayer
 62
  256
370
   -1
100
AcDbLine
 10
-53.92022289999996
 20
1.546293714025858
 11
-55.86864629999996
 21
-12.31745928597415
  0
LINE
  5
83
100
AcDbEntity
  8
0
  6
ByLayer
 62
  256
370
   -1
100
AcDbLine
 10
-87.26014139999997
 20
1.435232714025858
 11
-73.39638839999996
 21
-0.5131906859741446
  0
LINE
  5
84
100
AcDbEntity
  8
0
  6
ByLayer
 62
  256
370
   -1
100
AcDbLine
 10
-89.20856479999996
 20
-12.42852028597414
 11
-75.34481179999997
 21
-14.37694368597414
  0
LINE
  5
85
100
AcDbEntity
  8
0
  6
ByLayer
 62
  256
370
   -1
100
AcDbLine
 10
-87.26014139999997
 20
1.435232714025858
 11
-89.20856479999996
 21
-12.42852028597414
  0
LINE
  5
86
100
AcDbEntity
  8
0
  6
ByLayer
 62
  256
370
   -1
100
AcDbLine
 10
-73.39638839999996
 20
-0.5131906859741446
 11
-75.34481179999997
 21
-14.37694368597414
  0
LINE
  5
87
100
AcDbEntity
  8
0
  6
ByLayer
 62
  256
370
   -1
100
AcDbLine
 10
-49.62995479999996
 20
-3.853345185974142
 11
-35.76620179999997
 21
-5.801768585974145
  0
LINE
  5
88
100
AcDbEntity
  8
0
  6
ByLayer
 62
  256
370
   -1
100
AcDbLine
 10
-51.57837819999997
 20
-17.71709818597414
 11
-37.71462519999996
 21
-19.66552158597415
  0
LINE
  5
89
100
AcDbEntity
  8
0
  6
ByLayer
 62
  256
370
   -1
100
AcDbLine
 10
-49.62995479999996
 20
-3.853345185974142
 11
-51.57837819999997
 21
-17.71709818597414
  0
LINE
  5
8A
100
AcDbEntity
  8
0
  6
ByLayer
 62
  256
370
   -1
100
AcDbLine
 10
-35.76620179999997
 20
-5.801768585974145
 11
-37.71462519999996
 21
-19.66552158597415
  0
LINE
  5
8B
100
AcDbEntity
  8
0
  6
ByLayer
 62
  256
370
   -1
100
AcDbLine
 10
-30.81486149999997
 20
-6.497634085974141
 11
-16.95110849999997
 21
-8.446057485974144
  0
LINE
  5
8C
100
AcDbEntity
  8
0
  6
ByLayer
 62
  256
370
   -1
100
AcDbLine
 10
-32.76328489999997
 20
-20.36138708597414
 11
-18.89953189999996
 21
-22.30981048597414
  0
LINE
  5
8D
100
AcDbEntity
  8
0
  6
ByLayer
 62
  256
370
   -1
100
AcDbLine
 10
-30.81486149999997
 20
-6.497634085974141
 11
-32.76328489999997
 21
-20.36138708597414
  0
LINE
  5
8E
100
AcDbEntity
  8
0
  6
ByLayer
 62
  256
370
   -1
100
AcDbLine
 10
-16.95110849999997
 20
-8.446057485974144
 11
-18.89953189999996
 21
-22.30981048597414
  0
LINE
  5
8F
100
AcDbEntity
  8
0
  6
ByLayer
 62
  256
370
   -1
100
AcDbLine
 10
-106.736307
 20
-0.624251685974144
 11
-92.87255399999997
 21
-2.57267508597414
  0
LINE
  5
90
100
AcDbEntity
  8
0
  6
ByLayer
 62
  256
370
   -1
100
AcDbLine
 10
-108.6847304
 20
-14.48800468597414
 11
-94.82097739999998
 21
-16.43642808597414
  0
LINE
  5
91
100
AcDbEntity
  8
0
  6
ByLayer
 62
  256
370
   -1
100
AcDbLine
 10
-106.736307
 20
-0.624251685974144
 11
-108.6847304
 21
-14.48800468597414
  0
LINE
  5
92
100
AcDbEntity
  8
0
  6
ByLayer
 62
  256
370
   -1
100
AcDbLine
 10
-92.87255399999997
 20
-2.57267508597414
 11
-94.82097739999998
 21
-16.43642808597414
  0
LINE
  5
93
100
AcDbEntity
  8
0
  6
ByLayer
 62
  256
370
   -1
100
AcDbLine
 10
-75.79311039999997
 20
-19.36307728597414
 11
-61.92935739999997
 21
-21.31150068597414
  0
LINE
  5
94
100
AcDbEntity
  8
0
  6
ByLayer
 62
  256
370
   -1
100
AcDbLine
 10
-77.74153379999997
 20
-33.22683028597415
 11
-63.87778079999996
 21
-35.17525368597414
  0
LINE
  5
95
100
AcDbEntity
  8
0
  6
ByLayer
 62
  256
370
   -1
100
AcDbLine
 10
-75.79311039999997
 20
-19.36307728597414
 11
-77.74153379999997
 21
-33.22683028597415
  0
LINE
  5
96
100
AcDbEntity
  8
0
  6
ByLayer
 62
  256
370
   -1
100
AcDbLine
 10
-61.92935739999997
 20
-21.31150068597414
 11
-63.87778079999996
 21
-35.17525368597414
  0
LINE
  5
97
100
AcDbEntity
  8
0
  6
ByLayer
 62
  256
370
   -1
100
AcDbLine
 10
-56.97801709999997
 20
-22.00736618597415
 11
-43.11426409999996
 21
-23.95578958597414
  0
LINE
  5
98
100
AcDbEntity
  8
0
  6
ByLayer
 62
  256
370
   -1
100
AcDbLine
 10
-58.92644049999996
 20
-35.87111918597414
 11
-45.06268749999996
 21
-37.81954258597415
  0
LINE
  5
99
100
AcDbEntity
  8
0
  6
ByLayer
 62
  256
370
   -1
100
AcDbLine
 10
-56.97801709999997
 20
-22.00736618597415
 11
-58.92644049999996
 21
-35.87111918597414
  0
LINE
  5
9A
100
AcDbEntity
  8
0
  6
ByLayer
 62
  256
370
   -1
100
AcDbLine
 10
-43.11426409999996
 20
-23.95578958597414
 11
-45.06268749999996
 21
-37.81954258597415
  0
LINE
  5
9B
100
AcDbEntity
  8
0
  6
ByLayer
 62
  256
370
   -1
100
AcDbLine
 10
-35.81103709999996
 20
-24.98219128597414
 11
-21.94728409999997
 21
-26.93061468597415
  0
LINE
  5
9C
100
AcDbEntity
  8
0
  6
ByLayer
 62
  256
370
   -1
100
AcDbLine
 10
-37.75946049999997
 20
-38.84594428597414
 11
-23.89570749999996
 21
-40.79436768597414
  0
LINE
  5
9D
100
AcDbEntity
  8
0
  6
ByLayer
 62
  256
370
   -1
100
AcDbLine
 10
-35.81103709999996
 20
-24.98219128597414
 11
-37.75946049999997
 21
-38.84594428597414
  0
LINE
  5
9E
100
AcDbEntity
  8
0
  6
ByLayer
 62
  256
370
   -1
100
AcDbLine
 10
-21.94728409999997
 20
-26.93061468597415
 11
-23.89570749999996
 21
-40.79436768597414
  0
LINE
  5
9F
100
AcDbEntity
  8
0
  6
ByLayer
 62
  256
370
   -1
100
AcDbLine
 10
48.63164510000002
 20
39.17648031402586
 11
62.49539810000002
 21
41.12490371402586
  0
LINE
  5
A0
100
AcDbEntity
  8
0
  6
ByLayer
 62
  256
370
   -1
100
AcDbLine
 10
50.58006850000005
 20
25.31272731402586
 11
64.44382150000004
 21
27.26115071402586
  0
LINE
  5
A1
100
AcDbEntity
  8
0
  6
ByLayer
 62
  256
370
   -1
100
AcDbLine
 10
48.63164510000002
 20
39.17648031402586
 11
50.58006850000005
 21
25.31272731402586
  0
LINE
  5
A2
100
AcDbEntity
  8
0
  6
ByLayer
 62
  256
370
   -1
100
AcDbLine
 10
62.49539810000002
 20
41.12490371402586
 11
64.44382150000004
 21
27.26115071402586
  0
LINE
  5
A3
100
AcDbEntity
  8
0
  6
ByLayer
 62
  256
370
   -1
100
AcDbLine
 10
11.66253070000003
 20
29.18412911402586
 11
25.52628370000003
 21
31.13255251402586
  0
LINE
  5
A4
100
AcDbEntity
  8
0
  6
ByLayer
 62
  256
370
   -1
100
AcDbLine
 10
13.61095410000002
 20
15.32037611402586
 11
27.47470710000002
 21
17.26879951402586
  0
LINE
  5
A5
100
AcDbEntity
  8
0
  6
ByLayer
 62
  256
370
   -1
100
AcDbLine
 10
11.66253070000003
 20
29.18412911402586
 11
13.61095410000002
 21
15.32037611402586
  0
LINE
  5
A6
100
AcDbEntity
  8
0
  6
ByLayer
 62
  256
370
   -1
100
AcDbLine
 10
25.52628370000003
 20
31.13255251402586
 11
27.47470710000002
 21
17.26879951402586
  0
LINE
  5
A7
100
AcDbEntity
  8
0
  6
ByLayer
 62
  256
370
   -1
100
AcDbLine
 10
30.47762400000003
 20
31.82841811402586
 11
44.34137700000003
 21
33.77684151402585
  0
LINE
  5
A8
100
AcDbEntity
  8
0
  6
ByLayer
 62
  256
370
   -1
100
AcDbLine
 10
32.42604740000002
 20
17.96466511402586
 11
46.28980040000003
 21
19.91308851402586
  0
LINE
  5
A9
100
AcDbEntity
  8
0
  6
ByLayer
 62
  256
370
   -1
100
AcDbLine
 10
30.47762400000003
 20
31.82841811402586
 11
32.42604740000002
 21
17.96466511402586
  0
LINE
  5
AA
100
AcDbEntity
  8
0
  6
ByLayer
 62
  256
370
   -1
100
AcDbLine
 10
44.34137700000003
 20
33.77684151402585
 11
46.28980040000003
 21
19.91308851402586
  0
LINE
  5
AB
100
AcDbEntity
  8
0
  6
ByLayer
 62
  256
370
   -1
100
AcDbLine
 10
68.10781060000002
 20
37.11699591402586
 11
81.97156360000002
 21
39.06541931402586
  0
LINE
  5
AC
100
AcDbEntity
  8
0
  6
ByLayer
 62
  256
370
   -1
100
AcDbLine
 10
70.05623400000002
 20
23.25324291402586
 11
83.91998700000002
 21
25.20166631402586
  0
LINE
  5
AD
100
AcDbEntity
  8
0
  6
ByLayer
 62
  256
370
   -1
100
AcDbLine
 10
68.10781060000002
 20
37.11699591402586
 11
70.05623400000002
 21
23.25324291402586
  0
LINE
  5
AE
100
AcDbEntity
  8
0
  6
ByLayer
 62
  256
370
   -1
100
AcDbLine
 10
81.97156360000002
 20
39.06541931402586
 11
83.91998700000002
 21
25.20166631402586
  0
LINE
  5
AF
100
AcDbEntity
  8
0
  6
ByLayer
 62
  256
370
   -1
100
AcDbLine
 10
87.58397610000003
 20
35.05751151402585
 11
101.4477291
 21
37.00593491402586
  0
LINE
  5
B0
100
AcDbEntity
  8
0
  6
ByLayer
 62
  256
370
   -1
100
AcDbLine
 10
89.53239950000003
 20
21.19375851402586
 11
103.3961525
 21
23.14218191402586
  0
LINE
  5
B1
100
AcDbEntity
  8
0
  6
ByLayer
 62
  256
370
   -1
100
AcDbLine
 10
87.58397610000003
 20
35.05751151402585
 11
89.53239950000003
 21
21.19375851402586
  0
LINE
  5
B2
100
AcDbEntity
  8
0
  6
ByLayer
 62
  256
370
   -1
100
AcDbLine
 10
101.4477291
 20
37.00593491402586
 11
103.3961525
 21
23.14218191402586
  0
LINE
  5
B3
100
AcDbEntity
  8
0
  6
ByLayer
 62
  256
370
   -1
100
AcDbLine
 10
51.27593400000004
 20
20.36138701402586
 11
65.13968700000004
 21
22.30981041402586
  0
LINE
  5
B4
100
AcDbEntity
  8
0
  6
ByLayer
 62
  256
370
   -1
100
AcDbLine
 10
53.22435740000004
 20
6.497634014025856
 11
67.08811040000003
 21
8.446057414025859
  0
LINE
  5
B5
100
AcDbEntity
  8
0
  6
ByLayer
 62
  256
370
   -1
100
AcDbLine
 10
51.27593400000004
 20
20.36138701402586
 11
53.22435740000004
 21
6.497634014025856
  0
LINE
  5
B6
100
AcDbEntity
  8
0
  6
ByLayer
 62
  256
370
   -1
100
AcDbLine
 10
65.13968700000004
 20
22.30981041402586
 11
67.08811040000003
 21
8.446057414025859
  0
LINE
  5
B7
100
AcDbEntity
  8
0
  6
ByLayer
 62
  256
370
   -1
100
AcDbLine
 10
14.30681960000005
 20
10.36903581402586
 11
28.17057260000005
 21
12.31745921402586
  0
LINE
  5
B8
100
AcDbEntity
  8
0
  6
ByLayer
 62
  256
370
   -1
100
AcDbLine
 10
16.25524300000004
 20
-3.494717185974146
 11
30.11899600000005
 21
-1.546293785974143
  0
LINE
  5
B9
100
AcDbEntity
  8
0
  6
ByLayer
 62
  256
370
   -1
100
AcDbLine
 10
14.30681960000005
 20
10.36903581402586
 11
16.25524300000004
 21
-3.494717185974146
  0
LINE
  5
BA
100
AcDbEntity
  8
0
  6
ByLayer
 62
  256
370
   -1
100
AcDbLine
 10
28.17057260000005
 20
12.31745921402586
 11
30.11899600000005
 21
-1.546293785974143
  0
LINE
  5
BB
100
AcDbEntity
  8
0
  6
ByLayer
 62
  256
370
   -1
100
AcDbLine
 10
33.12191290000005
 20
13.01332471402586
 11
46.98566590000002
 21
14.96174811402586
  0
LINE
  5
BC
100
AcDbEntity
  8
0
  6
ByLayer
 62
  256
370
   -1
100
AcDbLine
 10
35.07033630000004
 20
-0.8504282859741463
 11
48.93408930000005
 21
1.097995114025857
  0
LINE
  5
BD
100
AcDbEntity
  8
0
  6
ByLayer
 62
  256
370
   -1
100
AcDbLine
 10
33.12191290000005
 20
13.01332471402586
 11
35.07033630000004
 21
-0.8504282859741463
  0
LINE
  5
BE
100
AcDbEntity
  8
0
  6
ByLayer
 62
  256
370
   -1
100
AcDbLine
 10
46.98566590000002
 20
14.96174811402586
 11
48.93408930000005
 21
1.097995114025857
  0
LINE
  5
BF
100
AcDbEntity
  8
0
  6
ByLayer
 62
  256
370
   -1
100
AcDbLine
 10
70.75209950000004
 20
18.30190261402586
 11
84.61585250000002
 21
20.25032601402586
  0
LINE
  5
C0
100
AcDbEntity
  8
0
  6
ByLayer
 62
  256
370
   -1
100
AcDbLine
 10
72.70052290000004
 20
4.438149614025853
 11
86.56427590000004
 21
6.386573014025856
  0
LINE
  5
C1
100
AcDbEntity
  8
0
  6
ByLayer
 62
  256
370
   -1
100
AcDbLine
 10
70.75209950000004
 20
18.30190261402586
 11
72.70052290000004
 21
4.438149614025853
  0
LINE
  5
C2
100
AcDbEntity
  8
0
  6
ByLayer
 62
  256
370
   -1
100
AcDbLine
 10
84.61585250000002
 20
20.25032601402586
 11
86.56427590000004
 21
6.386573014025856
  0
LINE
  5
C3
100
AcDbEntity
  8
0
  6
ByLayer
 62
  256
370
   -1
100
AcDbLine
 10
90.22826510000002
 20
16.24241821402586
 11
104.0920181
 21
18.19084161402586
  0
LINE
  5
C4
100
AcDbEntity
  8
0
  6
ByLayer
 62
  256
370
   -1
100
AcDbLine
 10
92.17668850000004
 20
2.378665214025858
 11
106.0404415
 21
4.327088614025854
  0
LINE
  5
C5
100
AcDbEntity
  8
0
  6
ByLayer
 62
  256
370
   -1
100
AcDbLine
 10
90.22826510000002
 20
16.24241821402586
 11
92.17668850000004
 21
2.378665214025858
  0
LINE
  5
C6
100
AcDbEntity
  8
0
  6
ByLayer
 62
  256
370
   -1
100
AcDbLine
 10
104.0920181
 20
18.19084161402586
 11
106.0404415
 21
4.327088614025854
  0
LINE
  5
C7
100
AcDbEntity
  8
0
  6
ByLayer
 62
  256
370
   -1
100
AcDbLine
 10
53.92022290000003
 20
1.546293714025858
 11
67.78397590000003
 21
3.494717114025853
  0
LINE
  5
C8
100
AcDbEntity
  8
0
  6
ByLayer
 62
  256
370
   -1
100
AcDbLine
 10
55.86864630000003
 20
-12.31745928597415
 11
69.73239930000003
 21
-10.36903588597414
  0
LINE
  5
C9
100
AcDbEntity
  8
0
  6
ByLayer
 62
  256
370
   -1
100
AcDbLine
 10
53.92022290000003
 20
1.546293714025858
 11
55.86864630000003
 21
-12.31745928597415
  0
LINE
  5
CA
100
AcDbEntity
  8
0
  6
ByLayer
 62
  256
370
   -1
100
AcDbLine
 10
67.78397590000003
 20
3.494717114025853
 11
69.73239930000003
 21
-10.36903588597414
  0
LINE
  5
CB
100
AcDbEntity
  8
0
  6
ByLayer
 62
  256
370
   -1
100
AcDbLine
 10
16.95110850000004
 20
-8.446057485974144
 11
30.81486150000004
 21
-6.497634085974141
  0
LINE
  5
CC
100
AcDbEntity
  8
0
  6
ByLayer
 62
  256
370
   -1
100
AcDbLine
 10
18.89953190000004
 20
-22.30981048597414
 11
32.76328490000004
 21
-20.36138708597414
  0
LINE
  5
CD
100
AcDbEntity
  8
0
  6
ByLayer
 62
  256
370
   -1
100
AcDbLine
 10
16.95110850000004
 20
-8.446057485974144
 11
18.89953190000004
 21
-22.30981048597414
  0
LINE
  5
CE
100
AcDbEntity
  8
0
  6
ByLayer
 62
  256
370
   -1
100
AcDbLine
 10
30.81486150000004
 20
-6.497634085974141
 11
32.76328490000004
 21
-20.36138708597414
  0
LINE
  5
CF
100
AcDbEntity
  8
0
  6
ByLayer
 62
  256
370
   -1
100
AcDbLine
 10
35.76620180000004
 20
-5.801768585974145
 11
49.62995480000004
 21
-3.853345185974142
  0
LINE
  5
D0
100
AcDbEntity
  8
0
  6
ByLayer
 62
  256
370
   -1
100
AcDbLine
 10
37.71462520000004
 20
-19.66552158597415
 11
51.57837820000004
 21
-17.71709818597414
  0
LINE
  5
D1
100
AcDbEntity
  8
0
  6
ByLayer
 62
  256
370
   -1
100
AcDbLine
 10
35.76620180000004
 20
-5.801768585974145
 11
37.71462520000004
 21
-19.66552158597415
  0
LINE
  5
D2
100
AcDbEntity
  8
0
  6
ByLayer
 62
  256
370
   -1
100
AcDbLine
 10
49.62995480000004
 20
-3.853345185974142
 11
51.57837820000004
 21
-17.71709818597414
  0
LINE
  5
D3
100
AcDbEntity
  8
0
  6
ByLayer
 62
  256
370
   -1
100
AcDbLine
 10
73.39638840000003
 20
-0.5131906859741446
 11
87.26014140000004
 21
1.435232714025858
  0
LINE
  5
D4
100
AcDbEntity
  8
0
  6
ByLayer
 62
  256
370
   -1
100
AcDbLine
 10
75.34481180000003
 20
-14.37694368597414
 11
89.20856480000003
 21
-12.42852028597414
  0
LINE
  5
D5
100
AcDbEntity
  8
0
  6
ByLayer
 62
  256
370
   -1
100
AcDbLine
 10
73.39638840000003
 20
-0.5131906859741446
 11
75.34481180000003
 21
-14.37694368597414
  0
LINE
  5
D6
100
AcDbEntity
  8
0
  6
ByLayer
 62
  256
370
   -1
100
AcDbLine
 10
87.26014140000004
 20
1.435232714025858
 11
89.20856480000003
 21
-12.42852028597414
  0
LINE
  5
D7
100
AcDbEntity
  8
0
  6
ByLayer
 62
  256
370
   -1
100
AcDbLine
 10
92.87255400000004
 20
-2.57267508597414
 11
106.736307
 21
-0.624251685974144
  0
LINE
  5
D8
100
AcDbEntity
  8
0
  6
ByLayer
 62
  256
370
   -1
100
AcDbLine
 10
94.82097740000003
 20
-16.43642808597414
 11
108.6847304
 21
-14.48800468597414
  0
LINE
  5
D9
100
AcDbEntity
  8
0
  6
ByLayer
 62
  256
370
   -1
100
AcDbLine
 10
92.87255400000004
 20
-2.57267508597414
 11
94.82097740000003
 21
-16.43642808597414
  0
LINE
  5
DA
100
AcDbEntity
  8
0
  6
ByLayer
 62
  256
370
   -1
100
AcDbLine
 10
106.736307
 20
-0.624251685974144
 11
108.6847304
 21
-14.48800468597414
  0
LINE
  5
DB
100
AcDbEntity
  8
0
  6
ByLayer
 62
  256
370
   -1
100
AcDbLine
 10
21.94728410000003
 20
-26.93061468597415
 11
35.81103710000003
 21
-24.98219128597414
  0
LINE
  5
DC
100
AcDbEntity
  8
0
  6
ByLayer
 62
  256
370
   -1
100
AcDbLine
 10
23.89570750000002
 20
-40.79436768597414
 11
37.75946050000002
 21
-38.84594428597414
  0
LINE
  5
DD
100
AcDbEntity
  8
0
  6
ByLayer
 62
  256
370
   -1
100
AcDbLine
 10
21.94728410000003
 20
-26.93061468597415
 11
23.89570750000002
 21
-40.79436768597414
  0
LINE
  5
DE
100
AcDbEntity
  8
0
  6
ByLayer
 62
  256
370
   -1
100
AcDbLine
 10
35.81103710000003
 20
-24.98219128597414
 11
37.75946050000002
 21
-38.84594428597414
  0
LINE
  5
DF
100
AcDbEntity
  8
0
  6
ByLayer
 62
  256
370
   -1
100
AcDbLine
 10
43.11426410000005
 20
-23.95578958597414
 11
56.97801710000002
 21
-22.00736618597415
  0
LINE
  5
E0
100
AcDbEntity
  8
0
  6
ByLayer
 62
  256
370
   -1
100
AcDbLine
 10
45.06268750000005
 20
-37.81954258597415
 11
58.92644050000005
 21
-35.87111918597414
  0
LINE
  5
E1
100
AcDbEntity
  8
0
  6
ByLayer
 62
  256
370
   -1
100
AcDbLine
 10
43.11426410000005
 20
-23.95578958597414
 11
45.06268750000005
 21
-37.81954258597415
  0
LINE
  5
E2
100
AcDbEntity
  8
0
  6
ByLayer
 62
  256
370
   -1
100
AcDbLine
 10
56.97801710000002
 20
-22.00736618597415
 11
58.92644050000005
 21
-35.87111918597414
  0
LINE
  5
E3
100
AcDbEntity
  8
0
  6
ByLayer
 62
  256
370
   -1
100
AcDbLine
 10
61.92935740000002
 20
-21.31150068597414
 11
75.79311040000002
 21
-19.36307728597414
  0
LINE
  5
E4
100
AcDbEntity
  8
0
  6
ByLayer
 62
  256
370
   -1
100
AcDbLine
 10
63.87778080000005
 20
-35.17525368597414
 11
77.74153380000004
 21
-33.22683028597415
  0
LINE
  5
E5
100
AcDbEntity
  8
0
  6
ByLayer
 62
  256
370
   -1
100
AcDbLine
 10
61.92935740000002
 20
-21.31150068597414
 11
63.87778080000005
 21
-35.17525368597414
  0
LINE
  5
E6
100
AcDbEntity
  8
0
  6
ByLayer
 62
  256
370
   -1
100
AcDbLine
 10
75.79311040000002
 20
-19.36307728597414
 11
77.74153380000004
 21
-33.22683028597415
  0
LINE
  5
E7
100
AcDbEntity
  8
keycap
  6
ByLayer
 62
  256
370
   -1
100
AcDbLine
 10
84.09930102319414
 20
41.88902223546137
 11
84.76037324118879
 21
37.18524894602127
  0
LINE
  5
E8
100
AcDbEntity
  8
keycap
  6
ByLayer
 62
  256
370
   -1
100
AcDbLine
 10
84.76037324118879
 20
37.18524894602127
 11
103.5754666370079
 21
39.82953785145686
  0
LINE
  5
E9
100
AcDbEntity
  8
keycap
  6
ByLayer
 62
  256
370
   -1
100
AcDbLine
 10
65.28420774118881
 20
39.24473334602126
 11
84.09930102319414
 21
41.88902223546137
  0
LINE
  5
EA
100
AcDbEntity
  8
keycap
  6
ByLayer
 62
  256
370
   -1
100
AcDbLine
 10
64.62313552319414
 20
43.94850663546138
 11
65.28420774118881
 21
39.24473334602126
  0
LINE
  5
EB
100
AcDbEntity
  8
keycap
  6
ByLayer
 62
  256
370
   -1
100
AcDbLine
 10
45.8080421785645
 20
41.30421773721999
 11
64.62313552319414
 21
43.94850663546138
  0
LINE
  5
EC
100
AcDbEntity
  8
keycap
  6
ByLayer
 62
  256
370
   -1
100
AcDbLine
 10
45.8080421785645
 20
41.30421773721999
 11
46.46911441366146
 21
36.60044432609074
  0
LINE
  5
ED
100
AcDbEntity
  8
keycap
  6
ByLayer
 62
  256
370
   -1
100
AcDbLine
 10
8.838927794315239
 20
31.31186653943361
 11
46.46911441366146
 21
36.60044432609074
  0
LINE
  5
EE
100
AcDbEntity
  8
keycap
  6
ByLayer
 62
  256
370
   -1
100
AcDbLine
 10
8.838927794315239
 20
31.31186653943361
 11
19.41608335866333
 21
-43.9485066354614
  0
LINE
  5
EF
100
AcDbEntity
  8
keycap
  6
ByLayer
 62
  256
370
   -1
100
AcDbLine
 10
103.5754666370079
 20
39.82953785145686
 11
111.5083333214355
 21
-16.61574210916828
  0
LINE
  5
F0
100
AcDbEntity
  8
1
  6
ByLayer
 62
  256
370
   -1
100
AcDbLine
 10
24.29917076369911
 20
-26.60007857430949
 11
38.1629237636991
 21
-24.65165517430948
  0
LINE
  5
F1
100
AcDbEntity
  8
1
  6
ByLayer
 62
  256
370
   -1
100
AcDbLine
 10
26.2475941636991
 20
-40.46383157430947
 11
40.1113471636991
 21
-38.51540817430948
  0
LINE
  5
F2
100
AcDbEntity
  8
1
  6
ByLayer
 62
  256
370
   -1
100
AcDbLine
 10
24.29917076369911
 20
-26.60007857430949
 11
26.2475941636991
 21
-40.46383157430947
  0
LINE
  5
F3
100
AcDbEntity
  8
1
  6
ByLayer
 62
  256
370
   -1
100
AcDbLine
 10
38.1629237636991
 20
-24.65165517430948
 11
40.1113471636991
 21
-38.51540817430948
  0
LINE
  5
F4
100
AcDbEntity
  8
1
  6
ByLayer
 62
  256
370
   -1
100
AcDbLine
 10
50.16992406438903
 20
-22.96418134599823
 11
64.03367706438902
 21
-21.01575794599822
  0
LINE
  5
F5
100
AcDbEntity
  8
1
  6
ByLayer
 62
  256
370
   -1
100
AcDbLine
 10
52.11834746438902
 20
-36.82793434599822
 11
65.98210046438902
 21
-34.87951094599823
  0
LINE
  5
F6
100
AcDbEntity
  8
1
  6
ByLayer
 62
  256
370
   -1
100
AcDbLine
 10
50.16992406438903
 20
-22.96418134599823
 11
52.11834746438902
 21
-36.82793434599822
  0
LINE
  5
F7
100
AcDbEntity
  8
1
  6
ByLayer
 62
  256
370
   -1
100
AcDbLine
 10
64.03367706438902
 20
-21.01575794599822
 11
65.98210046438902
 21
-34.87951094599823
  0
LINE
  5
F8
100
AcDbEntity
  8
1
  6
ByLayer
 62
  256
370
   -1
100
AcDbLine
 10
73.68879070137987
 20
-19.65882022935163
 11
87.55254370137988
 21
-17.71039682935162
  0
LINE
  5
F9
100
AcDbEntity
  8
1
  6
ByLayer
 62
  256
370
   -1
100
AcDbLine
 10
75.63721410137987
 20
-33.52257322935162
 11
89.50096710137987
 21
-31.57414982935163
  0
LINE
  5
FA
100
AcDbEntity
  8
1
  6
ByLayer
 62
  256
370
   -1
100
AcDbLine
 10
73.68879070137987
 20
-19.65882022935163
 11
75.63721410137987
 21
-33.52257322935162
  0
LINE
  5
FB
100
AcDbEntity
  8
1
  6
ByLayer
 62
  256
370
   -1
100
AcDbLine
 10
87.55254370137988
 20
-17.71039682935162
 11
89.50096710137987
 21
-31.57414982935163
  0
LINE
  5
FC
100
AcDbEntity
  8
keycap
  6
ByLayer
 62
  256
370
   -1
100
AcDbLine
 10
92.69323991800589
 20
-19.26003101567347
 11
111.5083333214355
 21
-16.61574210916828
  0
LINE
  5
FD
100
AcDbEntity
  8
keycap
  6
ByLayer
 62
  256
370
   -1
100
AcDbLine
 10
19.41608335866333
 20
-43.9485066354614
 11
94.67645659703403
 21
-33.37135106219228
  0
LINE
  5
FE
100
AcDbEntity
  8
keycap
  6
ByLayer
 62
  256
370
   -1
100
AcDbLine
 10
92.69323991800589
 20
-19.26003101567347
 11
94.67645659703403
 21
-33.37135106219228
  0
LINE
  5
FF
100
AcDbEntity
  8
keycap
  6
ByLayer
 62
  256
370
   -1
100
AcDbLine
 10
-84.09930102319412
 20
41.88902223546138
 11
-84.76037324118876
 21
37.18524894602127
  0
LINE
  5
100
100
AcDbEntity
  8
keycap
  6
ByLayer
 62
  256
370
   -1
100
AcDbLine
 10
-84.76037324118876
 20
37.18524894602127
 11
-103.5754666370079
 21
39.82953785145685
  0
LINE
  5
101
100
AcDbEntity
  8
keycap
  6
ByLayer
 62
  256
370
   -1
100
AcDbLine
 10
-65.28420774118878
 20
39.24473334602128
 11
-84.09930102319412
 21
41.88902223546138
  0
LINE
  5
102
100
AcDbEntity
  8
keycap
  6
ByLayer
 62
  256
370
   -1
100
AcDbLine
 10
-64.62313552319411
 20
43.94850663546141
 11
-65.28420774118878
 21
39.24473334602128
  0
LINE
  5
103
100
AcDbEntity
  8
keycap
  6
ByLayer
 62
  256
370
   -1
100
AcDbLine
 10
-45.80804217856446
 20
41.30421773721999
 11
-64.62313552319411
 21
43.94850663546141
  0
LINE
  5
104
100
AcDbEntity
  8
keycap
  6
ByLayer
 62
  256
370
   -1
100
AcDbLine
 10
-45.80804217856446
 20
41.30421773721999
 11
-46.46911441366142
 21
36.60044432609072
  0
LINE
  5
105
100
AcDbEntity
  8
keycap
  6
ByLayer
 62
  256
370
   -1
100
AcDbLine
 10
-8.838927794315197
 20
31.31186653943362
 11
-46.46911441366142
 21
36.60044432609072
  0
LINE
  5
106
100
AcDbEntity
  8
keycap
  6
ByLayer
 62
  256
370
   -1
100
AcDbLine
 10
-8.838927794315197
 20
31.31186653943362
 11
-19.41608335866328
 21
-43.9485066354614
  0
LINE
  5
107
100
AcDbEntity
  8
keycap
  6
ByLayer
 62
  256
370
   -1
100
AcDbLine
 10
-103.5754666370079
 20
39.82953785145685
 11
-111.5083333214355
 21
-16.61574210916827
  0
LINE
  5
108
100
AcDbEntity
  8
keycap
  6
ByLayer
 62
  256
370
   -1
100
AcDbLine
 10
-92.69323991800586
 20
-19.26003101567347
 11
-111.5083333214355
 21
-16.61574210916827
  0
LINE
  5
109
100
AcDbEntity
  8
keycap
  6
ByLayer
 62
  256
370
   -1
100
AcDbLine
 10
-19.41608335866328
 20
-43.9485066354614
 11
-94.676456597034
 21
-33.37135106219228
  0
LINE
  5
10A
100
AcDbEntity
  8
keycap
  6
ByLayer
 62
  256
370
   -1
100
AcDbLine
 10
-92.69323991800586
 20
-19.26003101567347
 11
-94.676456597034
 21
-33.37135106219228
  0
LINE
  5
10B
100
AcDbEntity
  8
1
  6
ByLayer
 62
  256
370
   -1
100
AcDbLine
 10
-24.29917076369906
 20
-26.60007857430949
 11
-38.16292376369906
 21
-24.65165517430948
  0
LINE
  5
10C
100
AcDbEntity
  8
1
  6
ByLayer
 62
  256
370
   -1
100
AcDbLine
 10
-26.24759416369906
 20
-40.46383157430947
 11
-40.11134716369906
 21
-38.51540817430948
  0
LINE
  5
10D
100
AcDbEntity
  8
1
  6
ByLayer
 62
  256
370
   -1
100
AcDbLine
 10
-24.29917076369906
 20
-26.60007857430949
 11
-26.24759416369906
 21
-40.46383157430947
  0
LINE
  5
10E
100
AcDbEntity
  8
1
  6
ByLayer
 62
  256
370
   -1
100
AcDbLine
 10
-38.16292376369906
 20
-24.65165517430948
 11
-40.11134716369906
 21
-38.51540817430948
  0
LINE
  5
10F
100
AcDbEntity
  8
1
  6
ByLayer
 62
  256
370
   -1
100
AcDbLine
 10
-50.16992406438899
 20
-22.96418134599823
 11
-64.033677064389
 21
-21.01575794599822
  0
LINE
  5
110
100
AcDbEntity
  8
1
  6
ByLayer
 62
  256
370
   -1
100
AcDbLine
 10
-52.11834746438898
 20
-36.82793434599822
 11
-65.98210046438899
 21
-34.87951094599823
  0
LINE
  5
111
100
AcDbEntity
  8
1
  6
ByLayer
 62
  256
370
   -1
100
AcDbLine
 10
-50.16992406438899
 20
-22.96418134599823
 11
-52.11834746438898
 21
-36.82793434599822
  0
LINE
  5
112
100
AcDbEntity
  8
1
  6
ByLayer
 62
  256
370
   -1
100
AcDbLine
 10
-64.033677064389
 20
-21.01575794599822
 11
-65.98210046438899
 21
-34.87951094599823
  0
LINE
  5
113
100
AcDbEntity
  8
1
  6
ByLayer
 62
  256
370
   -1
100
AcDbLine
 10
-73.68879070137984
 20
-19.65882022935163
 11
-87.55254370137985
 21
-17.71039682935162
  0
LINE
  5
114
100
AcDbEntity
  8
1
  6
ByLayer
 62
  256
370
   -1
100
AcDbLine
 10
-75.63721410137984
 20
-33.52257322935162
 11
-89.50096710137984
 21
-31.57414982935163
  0
LINE
  5
115
100
AcDbEntity
  8
1
  6
ByLayer
 62
  256
370
   -1
100
AcDbLine
 10
-73.68879070137984
 20
-19.65882022935163
 11
-75.63721410137984
 21
-33.52257322935162
  0
LINE
  5
116
100
AcDbEntity
  8
1
  6
ByLayer
 62
  256
370
   -1
100
AcDbLine
 10
-87.55254370137985
 20
-17.71039682935162
 11
-89.50096710137984
 21
-31.57414982935163
  0
LINE
  5
117
100
AcDbEntity
  8
0
  6
ByLayer
 62
  256
370
   -1
100
AcDbLine
 10
-6.99999999999998
 20
6.999999999999992
 11
7.00000000000002
 21
6.999999999999992
  0
LINE
  5
118
100
AcDbEntity
  8
0
  6
ByLayer
 62
  256
370
   -1
100
AcDbLine
 10
-6.99999999999998
 20
-7.000000000000008
 11
7.00000000000002
 21
-7.000000000000008
  0
LINE
  5
119
100
AcDbEntity
  8
0
  6
ByLayer
 62
  256
370
   -1
100
AcDbLine
 10
-6.99999999999998
 20
6.999999999999992
 11
-6.99999999999998
 21
-7.000000000000008
  0
LINE
  5
11A
100
AcDbEntity
  8
0
  6
ByLayer
 62
  256
370
   -1
100
AcDbLine
 10
7.00000000000002
 20
6.999999999999992
 11
7.00000000000002
 21
-7.000000000000008
  0
ARC
  5
11B
100
AcDbEntity
  8
edge
  6
ByLayer
 62
  256
370
   -1
100
AcDbCircle
 10
106.5083333214355
 20
38.94850663546138
 40
5
100
AcDbArc
 50
7.63333123551244e-14
 51
90.00000000000033
  0
LINE
  5
11C
100
AcDbEntity
  8
edge
  6
ByLayer
 62
  256
370
   -1
100
AcDbLine
 10
111.5083333214355
 20
-38.9485066354614
 11
111.5083333214355
 21
38.94850663546138
  0
ARC
  5
11D
100
AcDbEntity
  8
edge
  6
ByLayer
 62
  256
370
   -1
100
AcDbCircle
 10
106.5083333214356
 20
-38.9485066354614
 40
5
100
AcDbArc
 50
270.0000000000002
 51
0
  0
LINE
  5
11E
100
AcDbEntity
  8
edge
  6
ByLayer
 62
  256
370
   -1
100
AcDbLine
 10
-106.5083333214355
 20
43.94850663546138
 11
106.5083333214355
 21
43.94850663546138
  0
ARC
  5
11F
100
AcDbEntity
  8
edge
  6
ByLayer
 62
  256
370
   -1
100
AcDbCircle
 10
-106.5083333214355
 20
38.94850663546138
 40
5
100
AcDbArc
 50
90
 51
179.9999999999999
  0
LINE
  5
120
100
AcDbEntity
  8
edge
  6
ByLayer
 62
  256
370
   -1
100
AcDbLine
 10
-106.5083333214355
 20
-43.9485066354614
 11
106.5083333214356
 21
-43.9485066354614
  0
LINE
  5
121
100
AcDbEntity
  8
edge
  6
ByLayer
 62
  256
370
   -1
100
AcDbLine
 10
-111.5083333214355
 20
-38.9485066354614
 11
-111.5083333214355
 21
38.94850663546138
  0
ARC
  5
122
100
AcDbEntity
  8
edge
  6
ByLayer
 62
  256
370
   -1
100
AcDbCircle
 10
-106.5083333214355
 20
-38.9485066354614
 40
5
100
AcDbArc
 50
180
 51
270
  0
CIRCLE
  5
123
100
AcDbEntity
  8
rpi
  6
ByLayer
 62
  256
370
   -1
100
AcDbCircle
 10
7.62
 20
29.20999999999999
 40
0.5
  0
CIRCLE
  5
124
100
AcDbEntity
  8
rpi
  6
ByLayer
 62
  256
370
   -1
100
AcDbCircle
 10
7.62
 20
26.66999999999999
 40
0.5
  0
CIRCLE
  5
125
100
AcDbEntity
  8
rpi
  6
ByLayer
 62
  256
370
   -1
100
AcDbCircle
 10
7.62
 20
24.13
 40
0.5
  0
CIRCLE
  5
126
100
AcDbEntity
  8
rpi
  6
ByLayer
 62
  256
370
   -1
100
AcDbCircle
 10
7.62
 20
21.59
 40
0.5
  0
CIRCLE
  5
127
100
AcDbEntity
  8
rpi
  6
ByLayer
 62
  256
370
   -1
100
AcDbCircle
 10
7.62
 20
19.05
 40
0.5
  0
CIRCLE
  5
128
100
AcDbEntity
  8
rpi
  6
ByLayer
 62
  256
370
   -1
100
AcDbCircle
 10
7.62
 20
16.51
 40
0.5
  0
CIRCLE
  5
129
100
AcDbEntity
  8
rpi
  6
ByLayer
 62
  256
370
   -1
100
AcDbCircle
 10
7.62
 20
13.97
 40
0.5
  0
CIRCLE
  5
12A
100
AcDbEntity
  8
rpi
  6
ByLayer
 62
  256
370
   -1
100
AcDbCircle
 10
7.62
 20
11.43
 40
0.5
  0
CIRCLE
  5
12B
100
AcDbEntity
  8
rpi
  6
ByLayer
 62
  256
370
   -1
100
AcDbCircle
 10
7.62
 20
8.890000000000001
 40
0.5
  0
CIRCLE
  5
12C
100
AcDbEntity
  8
rpi
  6
ByLayer
 62
  256
370
   -1
100
AcDbCircle
 10
5.08
 20
8.890000000000001
 40
0.5
  0
CIRCLE
  5
12D
100
AcDbEntity
  8
rpi
  6
ByLayer
 62
  256
370
   -1
100
AcDbCircle
 10
2.54
 20
8.890000000000001
 40
0.5
  0
CIRCLE
  5
12E
100
AcDbEntity
  8
rpi
  6
ByLayer
 62
  256
370
   -1
100
AcDbCircle
 10
0
 20
8.890000000000001
 40
0.5
  0
CIRCLE
  5
12F
100
AcDbEntity
  8
rpi
  6
ByLayer
 62
  256
370
   -1
100
AcDbCircle
 10
-2.54
 20
8.890000000000001
 40
0.5
  0
CIRCLE
  5
130
100
AcDbEntity
  8
rpi
  6
ByLayer
 62
  256
370
   -1
100
AcDbCircle
 10
-5.08
 20
8.890000000000001
 40
0.5
  0
CIRCLE
  5
131
100
AcDbEntity
  8
rpi
  6
ByLayer
 62
  256
370
   -1
100
AcDbCircle
 10
-7.62
 20
8.890000000000001
 40
0.5
  0
CIRCLE
  5
132
100
AcDbEntity
  8
rpi
  6
ByLayer
 62
  256
370
   -1
100
AcDbCircle
 10
-7.62
 20
11.43
 40
0.5
  0
CIRCLE
  5
133
100
AcDbEntity
  8
rpi
  6
ByLayer
 62
  256
370
   -1
100
AcDbCircle
 10
-7.62
 20
13.97
 40
0.5
  0
CIRCLE
  5
134
100
AcDbEntity
  8
rpi
  6
ByLayer
 62
  256
370
   -1
100
AcDbCircle
 10
-7.62
 20
16.51
 40
0.5
  0
CIRCLE
  5
135
100
AcDbEntity
  8
rpi
  6
ByLayer
 62
  256
370
   -1
100
AcDbCircle
 10
-7.62
 20
19.05
 40
0.5
  0
CIRCLE
  5
136
100
AcDbEntity
  8
rpi
  6
ByLayer
 62
  256
370
   -1
100
AcDbCircle
 10
-7.62
 20
21.59
 40
0.5
  0
CIRCLE
  5
137
100
AcDbEntity
  8
rpi
  6
ByLayer
 62
  256
370
   -1
100
AcDbCircle
 10
-7.62
 20
24.13
 40
0.5
  0
CIRCLE
  5
138
100
AcDbEntity
  8
rpi
  6
ByLayer
 62
  256
370
   -1
100
AcDbCircle
 10
-7.62
 20
26.66999999999999
 40
0.5
  0
CIRCLE
  5
139
100
AcDbEntity
  8
rpi
  6
ByLayer
 62
  256
370
   -1
100
AcDbCircle
 10
-7.62
 20
29.20999999999999
 40
0.5
  0
LINE
  5
13A
100
AcDbEntity
  8
rpi
  6
ByLayer
 62
  256
370
   -1
100
AcDbLine
 10
-8.890000000000001
 20
30.48
 11
8.890000000000001
 21
30.47999999999999
  0
LINE
  5
13B
100
AcDbEntity
  8
rpi
  6
ByLayer
 62
  256
370
   -1
100
AcDbLine
 10
8.890000000000001
 20
7.620000000000001
 11
8.890000000000001
 21
30.47999999999999
  0
LINE
  5
13C
100
AcDbEntity
  8
rpi
  6
ByLayer
 62
  256
370
   -1
100
AcDbLine
 10
-8.890000000000001
 20
7.620000000000001
 11
-8.890000000000001
 21
30.48
  0
LINE
  5
13D
100
AcDbEntity
  8
rpi
  6
ByLayer
 62
  256
370
   -1
100
AcDbLine
 10
8.890000000000001
 20
7.620000000000001
 11
-8.890000000000001
 21
7.620000000000001
  0
CIRCLE
  5
13E
100
AcDbEntity
  8
percage
  6
ByLayer
 62
  256
370
   -1
100
AcDbCircle
 10
106.5083333214356
 20
-38.9485066354614
 40
1.5
  0
CIRCLE
  5
13F
100
AcDbEntity
  8
percage
  6
ByLayer
 62
  256
370
   -1
100
AcDbCircle
 10
106.5083333214355
 20
38.94850663546138
 40
1.5
  0
CIRCLE
  5
140
100
AcDbEntity
  8
percage
  6
ByLayer
 62
  256
370
   -1
100
AcDbCircle
 10
-106.5083333214355
 20
38.94850663546138
 40
1.5
  0
CIRCLE
  5
141
100
AcDbEntity
  8
percage
  6
ByLayer
 62
  256
370
   -1
100
AcDbCircle
 10
-106.5083333214355
 20
-38.9485066354614
 40
1.5
  0
CIRCLE
  5
142
100
AcDbEntity
  8
percage
  6
ByLayer
 62
  256
370
   -1
100
AcDbCircle
 10
0
 20
-20
 40
1.5
  0
LINE
  5
143
100
AcDbEntity
  8
placement
  6
ByLayer
 62
  256
370
   -1
100
AcDbLine
 10
-8.890000000000001
 20
30.48
 11
8.890000000000001
 21
7.620000000000001
  0
LINE
  5
144
100
AcDbEntity
  8
placement
  6
ByLayer
 62
  256
370
   -1
100
AcDbLine
 10
-6.99999999999998
 20
6.999999999999992
 11
7.00000000000002
 21
-7.000000000000008
  0
LINE
  5
145
100
AcDbEntity
  8
placement
  6
ByLayer
 62
  256
370
   -1
100
AcDbLine
 10
101.4477291
 20
37.00593491402586
 11
89.53239949999997
 21
21.19375851402584
  0
LINE
  5
146
100
AcDbEntity
  8
placement
  6
ByLayer
 62
  256
370
   -1
100
AcDbLine
 10
81.97156359999998
 20
39.06541931402587
 11
70.05623399999998
 21
23.25324291402586
  0
LINE
  5
147
100
AcDbEntity
  8
placement
  6
ByLayer
 62
  256
370
   -1
100
AcDbLine
 10
62.49539809999997
 20
41.12490371402586
 11
50.58006849999996
 21
25.31272731402587
  0
LINE
  5
148
100
AcDbEntity
  8
placement
  6
ByLayer
 62
  256
370
   -1
100
AcDbLine
 10
44.34137699999996
 20
33.77684151402585
 11
32.42604739999997
 21
17.96466511402587
  0
LINE
  5
149
100
AcDbEntity
  8
placement
  6
ByLayer
 62
  256
370
   -1
100
AcDbLine
 10
25.52628369999996
 20
31.13255251402586
 11
13.61095409999997
 21
15.32037611402585
  0
LINE
  5
14A
100
AcDbEntity
  8
placement
  6
ByLayer
 62
  256
370
   -1
100
AcDbLine
 10
104.0920181
 20
18.19084161402585
 11
92.17668849999997
 21
2.378665214025855
  0
LINE
  5
14B
100
AcDbEntity
  8
placement
  6
ByLayer
 62
  256
370
   -1
100
AcDbLine
 10
84.61585259999998
 20
20.25032601402586
 11
72.70052299999998
 21
4.438149614025857
  0
LINE
  5
14C
100
AcDbEntity
  8
placement
  6
ByLayer
 62
  256
370
   -1
100
AcDbLine
 10
65.13968709999997
 20
22.30981041402586
 11
53.22435749999996
 21
6.497634014025863
  0
LINE
  5
14D
100
AcDbEntity
  8
placement
  6
ByLayer
 62
  256
370
   -1
100
AcDbLine
 10
46.98566599999996
 20
14.96174821402583
 11
35.07033639999997
 21
-0.8504281859741383
  0
LINE
  5
14E
100
AcDbEntity
  8
placement
  6
ByLayer
 62
  256
370
   -1
100
AcDbLine
 10
28.17057269999997
 20
12.31745921402586
 11
16.25524309999997
 21
-3.494717185974142
  0
LINE
  5
14F
100
AcDbEntity
  8
placement
  6
ByLayer
 62
  256
370
   -1
100
AcDbLine
 10
106.736307
 20
-0.6242516859741425
 11
94.82097739999996
 21
-16.43642808597414
  0
LINE
  5
150
100
AcDbEntity
  8
placement
  6
ByLayer
 62
  256
370
   -1
100
AcDbLine
 10
87.26014149999997
 20
1.435232714025853
 11
75.34481189999997
 21
-14.37694368597413
  0
LINE
  5
151
100
AcDbEntity
  8
placement
  6
ByLayer
 62
  256
370
   -1
100
AcDbLine
 10
67.78397599999997
 20
3.494717114025862
 11
55.86864639999995
 21
-12.31745928597415
  0
LINE
  5
152
100
AcDbEntity
  8
placement
  6
ByLayer
 62
  256
370
   -1
100
AcDbLine
 10
49.62995489999995
 20
-3.853345085974153
 11
37.71462529999997
 21
-19.66552148597415
  0
LINE
  5
153
100
AcDbEntity
  8
placement
  6
ByLayer
 62
  256
370
   -1
100
AcDbLine
 10
30.81486159999996
 20
-6.497634085974139
 11
18.89953199999997
 21
-22.30981048597414
  0
LINE
  5
154
100
AcDbEntity
  8
placement
  6
ByLayer
 62
  256
370
   -1
100
AcDbLine
 10
75.79311041368473
 20
-19.36307738334621
 11
63.87778079999996
 21
-35.17525368597414
  0
LINE
  5
155
100
AcDbEntity
  8
placement
  6
ByLayer
 62
  256
370
   -1
100
AcDbLine
 10
56.97801711257791
 20
-22.00736627547088
 11
45.06268749999995
 21
-37.81954258597414
  0
LINE
  5
156
100
AcDbEntity
  8
placement
  6
ByLayer
 62
  256
370
   -1
100
AcDbLine
 10
35.81103709999996
 20
-24.98219128597414
 11
23.89570749999996
 21
-40.79436768597414
  0
LINE
  5
157
100
AcDbEntity
  8
placement
  6
ByLayer
 62
  256
370
   -1
100
AcDbLine
 10
24.29917076369906
 20
-26.60007857430949
 11
40.11134716369905
 21
-38.51540817430947
  0
LINE
  5
158
100
AcDbEntity
  8
placement
  6
ByLayer
 62
  256
370
   -1
100
AcDbLine
 10
50.16992406438899
 20
-22.96418134599823
 11
65.98210045070424
 21
-34.87951084862613
  0
LINE
  5
159
100
AcDbEntity
  8
placement
  6
ByLayer
 62
  256
370
   -1
100
AcDbLine
 10
73.68879070137984
 20
-19.65882022935163
 11
89.50096710137984
 21
-31.57414982935163
  0
LINE
  5
15A
100
AcDbEntity
  8
placement
  6
ByLayer
 62
  256
370
   -1
100
AcDbLine
 10
27.50681983785189
 20
31.41089871332241
 11
29.45524323785188
 21
17.54714571332241
  0
LINE
  5
15B
100
AcDbEntity
  8
placement
  6
ByLayer
 62
  256
370
   -1
100
AcDbLine
 10
46.32191313785189
 20
34.0551877133224
 11
48.27033653785189
 21
20.19143471332241
  0
LINE
  5
15C
100
AcDbEntity
  8
placement
  6
ByLayer
 62
  256
370
   -1
100
AcDbLine
 10
64.47593423785187
 20
41.40324991332242
 11
66.4243576378519
 21
27.53949691332242
  0
LINE
  5
15D
100
AcDbEntity
  8
placement
  6
ByLayer
 62
  256
370
   -1
100
AcDbLine
 10
83.95209973785188
 20
39.34376551332241
 11
85.90052313785188
 21
25.48001251332241
  0
LINE
  5
15E
100
AcDbEntity
  8
placement
  6
ByLayer
 62
  256
370
   -1
100
AcDbLine
 10
86.59638863785187
 20
20.52867221332242
 11
88.5448120378519
 21
6.664919213322412
  0
LINE
  5
15F
100
AcDbEntity
  8
placement
  6
ByLayer
 62
  256
370
   -1
100
AcDbLine
 10
67.12022313785189
 20
22.58815661332241
 11
69.06864653785189
 21
8.724403613322412
  0
LINE
  5
160
100
AcDbEntity
  8
placement
  6
ByLayer
 62
  256
370
   -1
100
AcDbLine
 10
48.96620203785188
 20
15.24009431332242
 11
50.91462543785191
 21
1.376341313322413
  0
LINE
  5
161
100
AcDbEntity
  8
placement
  6
ByLayer
 62
  256
370
   -1
100
AcDbLine
 10
30.15110873785191
 20
12.59580541332241
 11
32.09953213785191
 21
-1.26794758667759
  0
LINE
  5
162
100
AcDbEntity
  8
placement
  6
ByLayer
 62
  256
370
   -1
100
AcDbLine
 10
32.7953976378519
 20
-6.219287886677589
 11
34.7438210378519
 21
-20.08304088667759
  0
LINE
  5
163
100
AcDbEntity
  8
placement
  6
ByLayer
 62
  256
370
   -1
100
AcDbLine
 10
51.61049093785191
 20
-3.574998986677589
 11
53.5589143378519
 21
-17.43875198667759
  0
LINE
  5
164
100
AcDbEntity
  8
placement
  6
ByLayer
 62
  256
370
   -1
100
AcDbLine
 10
69.76451203785189
 20
3.773063313322405
 11
71.71293543785188
 21
-10.09068968667759
  0
LINE
  5
165
100
AcDbEntity
  8
placement
  6
ByLayer
 62
  256
370
   -1
100
AcDbLine
 10
89.24067753785189
 20
1.713578913322411
 11
91.18910093785189
 21
-12.15017408667759
  0
LINE
  5
166
100
AcDbEntity
  8
placement
  6
ByLayer
 62
  256
370
   -1
100
AcDbLine
 10
95.09932359929658
 20
-18.416964223826
 11
108.9630765992966
 21
-16.468540823826
  0
LINE
  5
167
100
AcDbEntity
  8
placement
  6
ByLayer
 62
  256
370
   -1
100
AcDbLine
 10
89.53307983923173
 20
-17.43205063005507
 11
91.48150323923173
 21
-31.29580363005508
  0
LINE
  5
168
100
AcDbEntity
  8
placement
  6
ByLayer
 62
  256
370
   -1
100
AcDbLine
 10
41.13372796214819
 20
-24.23413578527069
 11
43.0821513621482
 21
-38.0978887852707
  0
LINE
  5
169
100
AcDbEntity
  8
placement
  6
ByLayer
 62
  256
370
   -1
100
AcDbLine
 10
19.96674796214817
 20
-27.2089608852707
 11
21.91517136214816
 21
-41.07271388527069
  0
LINE
  5
16A
100
AcDbEntity
  8
placement
  6
ByLayer
 62
  256
370
   -1
100
AcDbLine
 10
-101.4477291
 20
37.00593491402586
 11
-89.53239949999997
 21
21.19375851402587
  0
LINE
  5
16B
100
AcDbEntity
  8
placement
  6
ByLayer
 62
  256
370
   -1
100
AcDbLine
 10
-81.97156359999998
 20
39.06541931402585
 11
-70.05623399999998
 21
23.25324291402583
  0
LINE
  5
16C
100
AcDbEntity
  8
placement
  6
ByLayer
 62
  256
370
   -1
100
AcDbLine
 10
-62.49539809999997
 20
41.12490371402592
 11
-50.58006849999996
 21
25.31272731402586
  0
LINE
  5
16D
100
AcDbEntity
  8
placement
  6
ByLayer
 62
  256
370
   -1
100
AcDbLine
 10
-44.34137699999996
 20
33.77684151402585
 11
-32.42604739999997
 21
17.96466511402586
  0
LINE
  5
16E
100
AcDbEntity
  8
placement
  6
ByLayer
 62
  256
370
   -1
100
AcDbLine
 10
-25.52628369999996
 20
31.13255251402586
 11
-13.61095409999997
 21
15.32037611402585
  0
LINE
  5
16F
100
AcDbEntity
  8
placement
  6
ByLayer
 62
  256
370
   -1
100
AcDbLine
 10
-104.0920181
 20
18.19084161402586
 11
-92.17668849999997
 21
2.378665214025862
  0
LINE
  5
170
100
AcDbEntity
  8
placement
  6
ByLayer
 62
  256
370
   -1
100
AcDbLine
 10
-84.61585259999998
 20
20.25032601402583
 11
-72.70052299999998
 21
4.438149614025864
  0
LINE
  5
171
100
AcDbEntity
  8
placement
  6
ByLayer
 62
  256
370
   -1
100
AcDbLine
 10
-65.13968709999997
 20
22.30981041402589
 11
-53.22435749999996
 21
6.497634014025863
  0
LINE
  5
172
100
AcDbEntity
  8
placement
  6
ByLayer
 62
  256
370
   -1
100
AcDbLine
 10
-46.98566599999996
 20
14.96174821402584
 11
-35.07033639999997
 21
-0.8504281859741383
  0
LINE
  5
173
100
AcDbEntity
  8
placement
  6
ByLayer
 62
  256
370
   -1
100
AcDbLine
 10
-28.17057269999997
 20
12.31745921402586
 11
-16.25524309999997
 21
-3.494717185974107
  0
LINE
  5
174
100
AcDbEntity
  8
placement
  6
ByLayer
 62
  256
370
   -1
100
AcDbLine
 10
-106.736307
 20
-0.624251685974146
 11
-94.82097739999996
 21
-16.43642808597414
  0
LINE
  5
175
100
AcDbEntity
  8
placement
  6
ByLayer
 62
  256
370
   -1
100
AcDbLine
 10
-87.26014149999997
 20
1.435232714025863
 11
-75.34481189999997
 21
-14.37694368597412
  0
LINE
  5
176
100
AcDbEntity
  8
placement
  6
ByLayer
 62
  256
370
   -1
100
AcDbLine
 10
-67.78397599999997
 20
3.494717114025859
 11
-55.86864639999995
 21
-12.31745928597415
  0
LINE
  5
177
100
AcDbEntity
  8
placement
  6
ByLayer
 62
  256
370
   -1
100
AcDbLine
 10
-49.62995489999995
 20
-3.853345085974157
 11
-37.71462529999997
 21
-19.66552148597416
  0
LINE
  5
178
100
AcDbEntity
  8
placement
  6
ByLayer
 62
  256
370
   -1
100
AcDbLine
 10
-30.81486159999996
 20
-6.497634085974143
 11
-18.89953199999997
 21
-22.30981048597414
  0
LINE
  5
179
100
AcDbEntity
  8
placement
  6
ByLayer
 62
  256
370
   -1
100
AcDbLine
 10
-75.79311041368473
 20
-19.36307738334623
 11
-63.87778079999996
 21
-35.17525368597414
  0
LINE
  5
17A
100
AcDbEntity
  8
placement
  6
ByLayer
 62
  256
370
   -1
100
AcDbLine
 10
-56.97801711257791
 20
-22.00736627547086
 11
-45.06268749999995
 21
-37.81954258597413
  0
LINE
  5
17B
100
AcDbEntity
  8
placement
  6
ByLayer
 62
  256
370
   -1
100
AcDbLine
 10
-35.81103709999996
 20
-24.98219128597414
 11
-23.89570749999996
 21
-40.79436768597414
  0
LINE
  5
17C
100
AcDbEntity
  8
placement
  6
ByLayer
 62
  256
370
   -1
100
AcDbLine
 10
-24.29917076369906
 20
-26.60007857430947
 11
-40.11134716369905
 21
-38.51540817430947
  0
LINE
  5
17D
100
AcDbEntity
  8
placement
  6
ByLayer
 62
  256
370
   -1
100
AcDbLine
 10
-50.16992406438899
 20
-22.96418134599825
 11
-65.98210045070424
 21
-34.87951084862609
  0
LINE
  5
17E
100
AcDbEntity
  8
placement
  6
ByLayer
 62
  256
370
   -1
100
AcDbLine
 10
-73.68879070137984
 20
-19.65882022935164
 11
-89.50096710137984
 21
-31.57414982935163
  0
LINE
  5
17F
100
AcDbEntity
  8
placement
  6
ByLayer
 62
  256
370
   -1
100
AcDbLine
 10
-27.50681983785189
 20
31.41089871332241
 11
-29.45524323785188
 21
17.54714571332243
  0
LINE
  5
180
100
AcDbEntity
  8
placement
  6
ByLayer
 62
  256
370
   -1
100
AcDbLine
 10
-46.32191313785189
 20
34.0551877133224
 11
-48.27033653785189
 21
20.1914347133224
  0
LINE
  5
181
100
AcDbEntity
  8
placement
  6
ByLayer
 62
  256
370
   -1
100
AcDbLine
 10
-64.47593423785187
 20
41.40324991332241
 11
-66.4243576378519
 21
27.53949691332237
  0
LINE
  5
182
100
AcDbEntity
  8
placement
  6
ByLayer
 62
  256
370
   -1
100
AcDbLine
 10
-83.95209973785188
 20
39.34376551332241
 11
-85.90052313785188
 21
25.48001251332243
  0
LINE
  5
183
100
AcDbEntity
  8
placement
  6
ByLayer
 62
  256
370
   -1
100
AcDbLine
 10
-86.59638863785187
 20
20.5286722133224
 11
-88.5448120378519
 21
6.664919213322428
  0
LINE
  5
184
100
AcDbEntity
  8
placement
  6
ByLayer
 62
  256
370
   -1
100
AcDbLine
 10
-67.12022313785189
 20
22.58815661332244
 11
-69.06864653785189
 21
8.724403613322405
  0
LINE
  5
185
100
AcDbEntity
  8
placement
  6
ByLayer
 62
  256
370
   -1
100
AcDbLine
 10
-48.96620203785188
 20
15.24009431332242
 11
-50.91462543785191
 21
1.376341313322414
  0
LINE
  5
186
100
AcDbEntity
  8
placement
  6
ByLayer
 62
  256
370
   -1
100
AcDbLine
 10
-30.15110873785191
 20
12.59580541332241
 11
-32.09953213785191
 21
-1.267947586677596
  0
LINE
  5
187
100
AcDbEntity
  8
placement
  6
ByLayer
 62
  256
370
   -1
100
AcDbLine
 10
-32.7953976378519
 20
-6.219287886677622
 11
-34.7438210378519
 21
-20.0830408866776
  0
LINE
  5
188
100
AcDbEntity
  8
placement
  6
ByLayer
 62
  256
370
   -1
100
AcDbLine
 10
-51.61049093785191
 20
-3.574998986677609
 11
-53.5589143378519
 21
-17.43875198667759
  0
LINE
  5
189
100
AcDbEntity
  8
placement
  6
ByLayer
 62
  256
370
   -1
100
AcDbLine
 10
-69.76451203785189
 20
3.773063313322415
 11
-71.71293543785188
 21
-10.09068968667757
  0
LINE
  5
18A
100
AcDbEntity
  8
placement
  6
ByLayer
 62
  256
370
   -1
100
AcDbLine
 10
-89.24067753785189
 20
1.713578913322405
 11
-91.18910093785189
 21
-12.1501740866776
  0
LINE
  5
18B
100
AcDbEntity
  8
placement
  6
ByLayer
 62
  256
370
   -1
100
AcDbLine
 10
-95.09932359929658
 20
-18.416964223826
 11
-108.9630765992966
 21
-16.46854082382604
  0
LINE
  5
18C
100
AcDbEntity
  8
placement
  6
ByLayer
 62
  256
370
   -1
100
AcDbLine
 10
-89.53307983923173
 20
-17.43205063005508
 11
-91.48150323923173
 21
-31.29580363005508
  0
LINE
  5
18D
100
AcDbEntity
  8
placement
  6
ByLayer
 62
  256
370
   -1
100
AcDbLine
 10
-41.13372796214819
 20
-24.23413578527069
 11
-43.0821513621482
 21
-38.0978887852707
  0
LINE
  5
18E
100
AcDbEntity
  8
placement
  6
ByLayer
 62
  256
370
   -1
100
AcDbLine
 10
-19.96674796214817
 20
-27.2089608852707
 11
-21.91517136214816
 21
-41.0727138852707
  0
LINE
  5
18F
100
AcDbEntity
  8
placement
  6
ByLayer
 62
  256
370
   -1
100
AcDbLine
 10
89.81074569929658
 20
19.213222376174
 11
103.6744986992965
 21
21.161645776174
  0
LINE
  5
190
100
AcDbEntity
  8
placement
  6
ByLayer
 62
  256
370
   -1
100
AcDbLine
 10
92.45503469929659
 20
0.3981290761739977
 11
106.3187876992965
 21
2.346552476173994
  0
LINE
  5
191
100
AcDbEntity
  8
placement
  6
ByLayer
 62
  256
370
   -1
100
AcDbLine
 10
-103.6744986992965
 20
21.161645776174
 11
-89.81074569929652
 21
19.213222376174
  0
LINE
  5
192
100
AcDbEntity
  8
placement
  6
ByLayer
 62
  256
370
   -1
100
AcDbLine
 10
-106.3187876992965
 20
2.346552476173994
 11
-92.45503469929652
 21
0.398129076173998
  0
ARC
  5
193
100
AcDbEntity
  8
int
  6
ByLayer
 62
  256
370
   -1
100
AcDbCircle
 10
95.95198413533146
 20
36.94850663546138
 40
5
100
AcDbArc
 50
45.00000000000005
 51
89.99999999999952
  0
LINE
  5
194
100
AcDbEntity
  8
int
  6
ByLayer
 62
  256
370
   -1
100
AcDbLine
 10
99.4875180412642
 20
40.48404054139412
 11
108.0438672273682
 21
31.92769135529009
  0
ARC
  5
195
100
AcDbEntity
  8
int
  6
ByLayer
 62
  256
370
   -1
100
AcDbCircle
 10
104.5083333214355
 20
28.39215744935735
 40
5
100
AcDbArc
 50
5.088887490341627e-14
 51
44.99999999999997
  0
ARC
  5
196
100
AcDbEntity
  8
int
  6
ByLayer
 62
  256
370
   -1
100
AcDbCircle
 10
-95.95198413533147
 20
36.94850663546138
 40
5
100
AcDbArc
 50
90
 51
135
  0
LINE
  5
197
100
AcDbEntity
  8
int
  6
ByLayer
 62
  256
370
   -1
100
AcDbLine
 10
-108.0438672273682
 20
31.92769135529007
 11
-99.48751804126421
 21
40.48404054139412
  0
ARC
  5
198
100
AcDbEntity
  8
int
  6
ByLayer
 62
  256
370
   -1
100
AcDbCircle
 10
-104.5083333214355
 20
28.39215744935733
 40
5
100
AcDbArc
 50
135
 51
180.0000000000001
  0
ARC
  5
199
100
AcDbEntity
  8
int
  6
ByLayer
 62
  256
370
   -1
100
AcDbCircle
 10
15.00480190074466
 20
-36.9485066354614
 40
5
100
AcDbArc
 50
187.9999999241014
 51
270
  0
ARC
  5
19A
100
AcDbEntity
  8
int
  6
ByLayer
 62
  256
370
   -1
100
AcDbCircle
 10
-15.00480190074465
 20
-36.9485066354614
 40
5
100
AcDbArc
 50
269.9999999999999
 51
352.0000000758986
  0
ARC
  5
19B
100
AcDbEntity
  8
int
  6
ByLayer
 62
  256
370
   -1
100
AcDbCircle
 10
0
 20
-20
 40
7.5
100
AcDbArc
 50
8.000000498908969
 51
171.9999988193231
  0
LINE
  5
19C
100
AcDbEntity
  8
int
  6
ByLayer
 62
  256
370
   -1
100
AcDbLine
 10
-10.053461556115
 20
-37.64437213370278
 11
-7.427010494052539
 21
-18.95620158975333
  0
LINE
  5
19D
100
AcDbEntity
  8
int
  6
ByLayer
 62
  256
370
   -1
100
AcDbLine
 10
7.427010506472794
 20
-18.95620167812804
 11
10.05346155611501
 21
-37.64437213370278
  0
ARC
  5
19E
100
AcDbEntity
  8
int
  6
ByLayer
 62
  256
370
   -1
100
AcDbCircle
 10
-19.23814429933132
 20
39.94850663546138
 40
2
100
AcDbArc
 50
90
 51
172.0000000758985
  0
LINE
  5
19F
100
AcDbEntity
  8
int
  6
ByLayer
 62
  256
370
   -1
100
AcDbLine
 10
-21.21868043718318
 20
40.22685283475793
 11
-21.85961398009211
 21
35.6663736656491
  0
ARC
  5
1A0
100
AcDbEntity
  8
int
  6
ByLayer
 62
  256
370
   -1
100
AcDbCircle
 10
-23.84015011794398
 20
35.94471986494566
 40
2
100
AcDbArc
 50
262.0000000758991
 51
352.0000000758985
  0
LINE
  5
1A1
100
AcDbEntity
  8
int
  6
ByLayer
 62
  256
370
   -1
100
AcDbLine
 10
-43.92385767663376
 20
36.74764571737144
 11
-24.11849631724051
 21
33.9641837270938
  0
ARC
  5
1A2
100
AcDbEntity
  8
int
  6
ByLayer
 62
  256
370
   -1
100
AcDbCircle
 10
-43.6455114773372
 20
38.7281818552233
 40
2
100
AcDbArc
 50
172.0000000758987
 51
262.0000000758985
  0
LINE
  5
1A3
100
AcDbEntity
  8
int
  6
ByLayer
 62
  256
370
   -1
100
AcDbLine
 10
-95.95198413533147
 20
41.94850663546138
 11
-47.51331630508547
 21
41.94850663546138
  0
LINE
  5
1A4
100
AcDbEntity
  8
int
  6
ByLayer
 62
  256
370
   -1
100
AcDbLine
 10
-45.5327801672336
 20
39.67016043616482
 11
-45.62604761518906
 21
39.00652805451985
  0
ARC
  5
1A5
100
AcDbEntity
  8
int
  6
ByLayer
 62
  256
370
   -1
100
AcDbCircle
 10
-47.51331630508547
 20
39.94850663546138
 40
2
100
AcDbArc
 50
352.0000000758985
 51
90
  0
ARC
  5
1A6
100
AcDbEntity
  8
int
  6
ByLayer
 62
  256
370
   -1
100
AcDbCircle
 10
19.23814429933133
 20
39.94850663546136
 40
2
100
AcDbArc
 50
7.999999924101519
 51
90
  0
LINE
  5
1A7
100
AcDbEntity
  8
int
  6
ByLayer
 62
  256
370
   -1
100
AcDbLine
 10
21.21868043718319
 20
40.22685283475793
 11
21.85961398009211
 21
35.6663736656491
  0
ARC
  5
1A8
100
AcDbEntity
  8
int
  6
ByLayer
 62
  256
370
   -1
100
AcDbCircle
 10
23.84015011794398
 20
35.94471986494565
 40
2
100
AcDbArc
 50
187.9999999241015
 51
277.9999999241009
  0
LINE
  5
1A9
100
AcDbEntity
  8
int
  6
ByLayer
 62
  256
370
   -1
100
AcDbLine
 10
43.92385767663377
 20
36.74764571737143
 11
24.11849631724052
 21
33.9641837270938
  0
ARC
  5
1AA
100
AcDbEntity
  8
int
  6
ByLayer
 62
  256
370
   -1
100
AcDbCircle
 10
43.64551147733721
 20
38.72818185522328
 40
2
100
AcDbArc
 50
277.9999999241015
 51
7.99999992410129
  0
LINE
  5
1AB
100
AcDbEntity
  8
int
  6
ByLayer
 62
  256
370
   -1
100
AcDbLine
 10
45.53278016723361
 20
39.67016043616481
 11
45.62604761518907
 21
39.00652805451983
  0
ARC
  5
1AC
100
AcDbEntity
  8
int
  6
ByLayer
 62
  256
370
   -1
100
AcDbCircle
 10
47.51331630508548
 20
39.94850663546136
 40
2
100
AcDbArc
 50
90
 51
187.9999999241015
  0
LINE
  5
1AD
100
AcDbEntity
  8
int
  6
ByLayer
 62
  256
370
   -1
100
AcDbLine
 10
47.51331630508548
 20
41.94850663546136
 11
95.9519841353315
 21
41.94850663546138
  0
LINE
  5
1AE
100
AcDbEntity
  8
int
  6
ByLayer
 62
  256
370
   -1
100
AcDbLine
 10
-19.23814429933132
 20
41.94850663546138
 11
19.23814429933133
 21
41.94850663546136
  0
LINE
  5
1AF
100
AcDbEntity
  8
int
  6
ByLayer
 62
  256
370
   -1
100
AcDbLine
 10
109.5083333214355
 20
-22.73530319986508
 11
109.5083333214355
 21
28.39215744935736
  0
ARC
  5
1B0
100
AcDbEntity
  8
int
  6
ByLayer
 62
  256
370
   -1
100
AcDbCircle
 10
104.5083333214355
 20
-22.73530319986508
 40
5
100
AcDbArc
 50
315.0000000000001
 51
0
  0
LINE
  5
1B1
100
AcDbEntity
  8
int
  6
ByLayer
 62
  256
370
   -1
100
AcDbLine
 10
93.83066379177191
 20
-40.48404054139414
 11
108.0438672273682
 21
-26.27083710579781
  0
LINE
  5
1B2
100
AcDbEntity
  8
int
  6
ByLayer
 62
  256
370
   -1
100
AcDbLine
 10
15.00480190074466
 20
-41.9485066354614
 11
90.29512988583917
 21
-41.9485066354614
  0
ARC
  5
1B3
100
AcDbEntity
  8
int
  6
ByLayer
 62
  256
370
   -1
100
AcDbCircle
 10
90.29512988583917
 20
-36.9485066354614
 40
5
100
AcDbArc
 50
270
 51
315
  0
LINE
  5
1B4
100
AcDbEntity
  8
int
  6
ByLayer
 62
  256
370
   -1
100
AcDbLine
 10
-109.5083333214355
 20
-24.14951676223805
 11
-109.5083333214355
 21
28.39215744935732
  0
ARC
  5
1B5
100
AcDbEntity
  8
int
  6
ByLayer
 62
  256
370
   -1
100
AcDbCircle
 10
-104.5083333214355
 20
-24.14951676223805
 40
5
100
AcDbArc
 50
180
 51
224.9999999999999
  0
LINE
  5
1B6
100
AcDbEntity
  8
int
  6
ByLayer
 62
  256
370
   -1
100
AcDbLine
 10
-108.0438672273683
 20
-27.68505066817079
 11
-95.24487735414492
 21
-40.48404054139414
  0
LINE
  5
1B7
100
AcDbEntity
  8
int
  6
ByLayer
 62
  256
370
   -1
100
AcDbLine
 10
-91.70934344821218
 20
-41.9485066354614
 11
-15.00480190074465
 21
-41.9485066354614
  0
ARC
  5
1B8
100
AcDbEntity
  8
int
  6
ByLayer
 62
  256
370
   -1
100
AcDbCircle
 10
-91.70934344821218
 20
-36.9485066354614
 40
5
100
AcDbArc
 50
225
 51
270
  0
ARC
  5
1B9
100
AcDbEntity
  8
ext1
  6
ByLayer
 62
  256
370
   -1
100
AcDbCircle
 10
106.5083333214356
 20
-38.9485066354614
 40
5.5
100
AcDbArc
 50
270.0000000000002
 51
0
  0
LINE
  5
1BA
100
AcDbEntity
  8
ext1
  6
ByLayer
 62
  256
370
   -1
100
AcDbLine
 10
112.0083333214355
 20
-38.9485066354614
 11
112.0083333214355
 21
38.94850663546138
  0
ARC
  5
1BB
100
AcDbEntity
  8
ext1
  6
ByLayer
 62
  256
370
   -1
100
AcDbCircle
 10
106.5083333214355
 20
38.94850663546138
 40
5.5
100
AcDbArc
 50
7.63333123551244e-14
 51
90.00000000000033
  0
LINE
  5
1BC
100
AcDbEntity
  8
ext1
  6
ByLayer
 62
  256
370
   -1
100
AcDbLine
 10
-106.5083333214355
 20
44.44850663546138
 11
106.5083333214355
 21
44.44850663546138
  0
ARC
  5
1BD
100
AcDbEntity
  8
ext1
  6
ByLayer
 62
  256
370
   -1
100
AcDbCircle
 10
-106.5083333214355
 20
38.94850663546138
 40
5.5
100
AcDbArc
 50
90
 51
179.9999999999999
  0
LINE
  5
1BE
100
AcDbEntity
  8
ext1
  6
ByLayer
 62
  256
370
   -1
100
AcDbLine
 10
-112.0083333214355
 20
-38.9485066354614
 11
-112.0083333214355
 21
38.94850663546138
  0
ARC
  5
1BF
100
AcDbEntity
  8
ext1
  6
ByLayer
 62
  256
370
   -1
100
AcDbCircle
 10
-106.5083333214355
 20
-38.9485066354614
 40
5.5
100
AcDbArc
 50
180
 51
270
  0
LINE
  5
1C0
100
AcDbEntity
  8
ext1
  6
ByLayer
 62
  256
370
   -1
100
AcDbLine
 10
-106.5083333214355
 20
-44.4485066354614
 11
106.5083333214356
 21
-44.4485066354614
  0
LINE
  5
1C1
100
AcDbEntity
  8
ext2
  6
ByLayer
 62
  256
370
   -1
100
AcDbLine
 10
115.0083333214355
 20
-38.9485066354614
 11
115.0083333214355
 21
38.94850663546138
  0
ARC
  5
1C2
100
AcDbEntity
  8
ext2
  6
ByLayer
 62
  256
370
   -1
100
AcDbCircle
 10
106.5083333214356
 20
-38.9485066354614
 40
8.5
100
AcDbArc
 50
270.0000000000002
 51
0
  0
LINE
  5
1C3
100
AcDbEntity
  8
ext2
  6
ByLayer
 62
  256
370
   -1
100
AcDbLine
 10
-106.5083333214355
 20
-47.4485066354614
 11
106.5083333214356
 21
-47.4485066354614
  0
ARC
  5
1C4
100
AcDbEntity
  8
ext2
  6
ByLayer
 62
  256
370
   -1
100
AcDbCircle
 10
106.5083333214355
 20
38.94850663546138
 40
8.5
100
AcDbArc
 50
7.63333123551244e-14
 51
90.00000000000033
  0
LINE
  5
1C5
100
AcDbEntity
  8
ext2
  6
ByLayer
 62
  256
370
   -1
100
AcDbLine
 10
-106.5083333214355
 20
47.44850663546138
 11
106.5083333214355
 21
47.44850663546138
  0
ARC
  5
1C6
100
AcDbEntity
  8
ext2
  6
ByLayer
 62
  256
370
   -1
100
AcDbCircle
 10
-106.5083333214355
 20
38.94850663546138
 40
8.5
100
AcDbArc
 50
90
 51
179.9999999999999
  0
LINE
  5
1C7
100
AcDbEntity
  8
ext2
  6
ByLayer
 62
  256
370
   -1
100
AcDbLine
 10
-115.0083333214355
 20
-38.9485066354614
 11
-115.0083333214355
 21
38.94850663546138
  0
ARC
  5
1C8
100
AcDbEntity
  8
ext2
  6
ByLayer
 62
  256
370
   -1
100
AcDbCircle
 10
-106.5083333214355
 20
-38.9485066354614
 40
8.5
100
AcDbArc
 50
180
 51
270
  0
ARC
  5
1C9
100
AcDbEntity
  8
ext3
  6
ByLayer
 62
  256
370
   -1
100
AcDbCircle
 10
-106.5083333214355
 20
-38.9485066354614
 40
10.5
100
AcDbArc
 50
180
 51
270
  0
LINE
  5
1CA
100
AcDbEntity
  8
ext3
  6
ByLayer
 62
  256
370
   -1
100
AcDbLine
 10
-117.0083333214355
 20
-38.9485066354614
 11
-117.0083333214355
 21
38.94850663546138
  0
LINE
  5
1CB
100
AcDbEntity
  8
ext3
  6
ByLayer
 62
  256
370
   -1
100
AcDbLine
 10
-106.5083333214355
 20
-49.4485066354614
 11
106.5083333214356
 21
-49.4485066354614
  0
ARC
  5
1CC
100
AcDbEntity
  8
ext3
  6
ByLayer
 62
  256
370
   -1
100
AcDbCircle
 10
106.5083333214356
 20
-38.9485066354614
 40
10.5
100
AcDbArc
 50
270.0000000000002
 51
0
  0
LINE
  5
1CD
100
AcDbEntity
  8
ext3
  6
ByLayer
 62
  256
370
   -1
100
AcDbLine
 10
117.0083333214355
 20
-38.9485066354614
 11
117.0083333214355
 21
38.94850663546138
  0
ARC
  5
1CE
100
AcDbEntity
  8
ext3
  6
ByLayer
 62
  256
370
   -1
100
AcDbCircle
 10
106.5083333214355
 20
38.94850663546138
 40
10.5
100
AcDbArc
 50
7.63333123551244e-14
 51
90.00000000000033
  0
LINE
  5
1CF
100
AcDbEntity
  8
ext3
  6
ByLayer
 62
  256
370
   -1
100
AcDbLine
 10
-106.5083333214355
 20
49.44850663546138
 11
106.5083333214355
 21
49.44850663546138
  0
ARC
  5
1D0
100
AcDbEntity
  8
ext3
  6
ByLayer
 62
  256
370
   -1
100
AcDbCircle
 10
-106.5083333214355
 20
38.94850663546138
 40
10.5
100
AcDbArc
 50
90
 51
179.9999999999999
  0
ENDSEC
  0
SECTION
  2
OBJECTS
  0
DICTIONARY
  5
C
330
0
100
AcDbDictionary
281
    1
  3
ACAD_GROUP
350
D
  0
DICTIONARY
  5
D
330
C
100
AcDbDictionary
281
    1
  0
PLOTSETTINGS
  5
1D1
100
AcDbPlotSettings
  6
1x1
 40
0
 41
0
 42
0
 43
0
  0
ENDSEC
  0
EOF
