999
dxfrw 0.6.3
  0
SECTION
  2
HEADER
  9
$ACADVER
  1
AC1021
  9
$DWGCODEPAGE
  3
ANSI_1252
  9
$INSBASE
 10
0
 20
0
 30
0
  9
$EXTMIN
 10
-122.0549711846793
 20
-55.72887365106074
 30
0
  9
$EXTMAX
 10
122.0549711846793
 20
60
 30
0
  9
$LIMMIN
 10
0
 20
0
  9
$LIMMAX
 10
420
 20
297
  9
$ORTHOMODE
 70
    0
  9
$REGENMODE
 70
    1
  9
$FILLMODE
 70
    1
  9
$QTEXTMODE
 70
    0
  9
$MIRRTEXT
 70
    0
  9
$LTSCALE
 40
1
  9
$ATTMODE
 70
    0
  9
$TEXTSIZE
 40
2.5
  9
$TRACEWID
 40
15.68
  9
$TEXTSTYLE
  7
STANDARD
  9
$CLAYER
  8
0
  9
$CELTYPE
  6
BYLAYER
  9
$CECOLOR
 62
  256
  9
$CELTSCALE
 40
1
  9
$DISPSILH
 70
    0
  9
$DIMSCALE
 40
2.5
  9
$DIMASZ
 40
2.5
  9
$DIMEXO
 40
0.625
  9
$DIMDLI
 40
3.75
  9
$DIMRND
 40
0
  9
$DIMDLE
 40
0
  9
$DIMEXE
 40
1.25
  9
$DIMTP
 40
0
  9
$DIMTM
 40
0
  9
$DIMTXT
 40
2.5
  9
$DIMCEN
 40
2.5
  9
$DIMTSZ
 40
0
  9
$DIMTOL
 70
    0
  9
$DIMLIM
 70
    0
  9
$DIMTIH
 70
    0
  9
$DIMTOH
 70
    0
  9
$DIMSE1
 70
    0
  9
$DIMSE2
 70
    0
  9
$DIMTAD
 70
    1
  9
$DIMZIN
 70
    8
  9
$DIMBLK
  1

  9
$DIMASO
 70
    1
  9
$DIMSHO
 70
    1
  9
$DIMPOST
  1

  9
$DIMAPOST
  1

  9
$DIMALT
 70
    0
  9
$DIMALTD
 70
    3
  9
$DIMALTF
 40
0.03937
  9
$DIMLFAC
 40
1
  9
$DIMTOFL
 70
    1
  9
$DIMTVP
 40
0
  9
$DIMTIX
 70
    0
  9
$DIMSOXD
 70
    0
  9
$DIMSAH
 70
    0
  9
$DIMBLK1
  1

  9
$DIMBLK2
  1

  9
$DIMSTYLE
  2
STANDARD
  9
$DIMCLRD
 70
    0
  9
$DIMCLRE
 70
    0
  9
$DIMCLRT
 70
    0
  9
$DIMTFAC
 40
1
  9
$DIMGAP
 40
0.625
  9
$DIMJUST
 70
    0
  9
$DIMSD1
 70
    0
  9
$DIMSD2
 70
    0
  9
$DIMTOLJ
 70
    0
  9
$DIMTZIN
 70
    8
  9
$DIMALTZ
 70
    0
  9
$DIMALTTZ
 70
    0
  9
$DIMUPT
 70
    0
  9
$DIMDEC
 70
    2
  9
$DIMTDEC
 70
    2
  9
$DIMALTU
 70
    2
  9
$DIMALTTD
 70
    3
  9
$DIMTXSTY
  7
STANDARD
  9
$DIMAUNIT
 70
    0
  9
$DIMADEC
 70
    0
  9
$DIMALTRND
 40
0
  9
$DIMAZIN
 70
    0
  9
$DIMDSEP
 70
   44
  9
$DIMATFIT
 70
    3
  9
$DIMFRAC
 70
    0
  9
$DIMLDRBLK
  1
STANDARD
  9
$DIMLUNIT
 70
    2
  9
$DIMLWD
 70
   -2
  9
$DIMLWE
 70
   -2
  9
$DIMTMOVE
 70
    0
  9
$DIMFXL
 40
1
  9
$DIMFXLON
 70
    0
  9
$DIMJOGANG
 40
0.7854
  9
$DIMTFILL
 70
    0
  9
$DIMTFILLCLR
 70
    0
  9
$DIMARCSYM
 70
    0
  9
$DIMLTYPE
  6

  9
$DIMLTEX1
  6

  9
$DIMLTEX2
  6

  9
$LUNITS
 70
    2
  9
$LUPREC
 70
    4
  9
$SKETCHINC
 40
1
  9
$FILLETRAD
 40
0
  9
$AUNITS
 70
    0
  9
$AUPREC
 70
    2
  9
$MENU
  1
.
  9
$ELEVATION
 40
0
  9
$PELEVATION
 40
0
  9
$THICKNESS
 40
0
  9
$LIMCHECK
 70
    0
  9
$CHAMFERA
 40
0
  9
$CHAMFERB
 40
0
  9
$CHAMFERC
 40
0
  9
$CHAMFERD
 40
0
  9
$SKPOLY
 70
    0
  9
$USRTIMER
 70
    1
  9
$ANGBASE
 50
0
  9
$ANGDIR
 70
    0
  9
$PDMODE
 70
   34
  9
$PDSIZE
 40
0
  9
$PLINEWID
 40
0
  9
$SPLFRAME
 70
    0
  9
$SPLINETYPE
 70
    2
  9
$SPLINESEGS
 70
    8
  9
$HANDSEED
  5
20000
  9
$SURFTAB1
 70
    6
  9
$SURFTAB2
 70
    6
  9
$SURFTYPE
 70
    6
  9
$SURFU
 70
    6
  9
$SURFV
 70
    6
  9
$UCSBASE
  2

  9
$UCSNAME
  2

  9
$UCSORG
 10
0
 20
0
 30
0
  9
$UCSXDIR
 10
1
 20
0
 30
0
  9
$UCSYDIR
 10
0
 20
1
 30
0
  9
$UCSORTHOREF
  2

  9
$UCSORTHOVIEW
 70
    0
  9
$UCSORGTOP
 10
0
 20
0
 30
0
  9
$UCSORGBOTTOM
 10
0
 20
0
 30
0
  9
$UCSORGLEFT
 10
0
 20
0
 30
0
  9
$UCSORGRIGHT
 10
0
 20
0
 30
0
  9
$UCSORGFRONT
 10
0
 20
0
 30
0
  9
$UCSORGBACK
 10
0
 20
0
 30
0
  9
$PUCSBASE
  2

  9
$PUCSNAME
  2

  9
$PUCSORG
 10
0
 20
0
 30
0
  9
$PUCSXDIR
 10
1
 20
0
 30
0
  9
$PUCSYDIR
 10
0
 20
1
 30
0
  9
$PUCSORTHOREF
  2

  9
$PUCSORTHOVIEW
 70
    0
  9
$PUCSORGTOP
 10
0
 20
0
 30
0
  9
$PUCSORGBOTTOM
 10
0
 20
0
 30
0
  9
$PUCSORGLEFT
 10
0
 20
0
 30
0
  9
$PUCSORGRIGHT
 10
0
 20
0
 30
0
  9
$PUCSORGFRONT
 10
0
 20
0
 30
0
  9
$PUCSORGBACK
 10
0
 20
0
 30
0
  9
$USERI1
 70
    0
  9
$USERI2
 70
    0
  9
$USERI3
 70
    0
  9
$USERI4
 70
    0
  9
$USERI5
 70
    0
  9
$USERR1
 40
0
  9
$USERR2
 40
0
  9
$USERR3
 40
0
  9
$USERR4
 40
0
  9
$USERR5
 40
0
  9
$WORLDVIEW
 70
    1
  9
$SHADEDGE
 70
    3
  9
$SHADEDIF
 70
   70
  9
$TILEMODE
 70
    1
  9
$MAXACTVP
 70
   64
  9
$PINSBASE
 10
0
 20
0
 30
0
  9
$PLIMCHECK
 70
    0
  9
$PEXTMIN
 10
0
 20
0
 30
0
  9
$PEXTMAX
 10
0
 20
0
 30
0
  9
$GRIDMODE
 70
    1
  9
$SNAPSTYLE
 70
    0
  9
$PLIMMIN
 10
0
 20
0
  9
$PLIMMAX
 10
210
 20
297
  9
$UNITMODE
 70
    0
  9
$VISRETAIN
 70
    1
  9
$PLINEGEN
 70
    0
  9
$PSLTSCALE
 70
    1
  9
$TREEDEPTH
 70
 3020
  9
$CMLSTYLE
  2
Standard
  9
$CMLJUST
 70
    0
  9
$CMLSCALE
 40
20
  9
$PROXYGRAPHICS
 70
    1
  9
$MEASUREMENT
 70
    1
  9
$CELWEIGHT
370
   -1
  9
$ENDCAPS
280
    0
  9
$JOINSTYLE
280
    0
  9
$LWDISPLAY
290
    0
  9
$INSUNITS
 70
    0
  9
$HYPERLINKBASE
  1

  9
$STYLESHEET
  1

  9
$XEDIT
290
    1
  9
$CEPSNTYPE
380
    0
  9
$PSTYLEMODE
290
    1
  9
$EXTNAMES
290
    1
  9
$PSVPSCALE
 40
1
  9
$OLESTARTUP
290
    0
  9
$SORTENTS
280
  127
  9
$INDEXCTL
280
    0
  9
$HIDETEXT
280
    1
  9
$XCLIPFRAME
290
    0
  9
$HALOGAP
280
    0
  9
$OBSCOLOR
 70
  257
  9
$OBSLTYPE
280
    0
  9
$INTERSECTIONDISPLAY
280
    0
  9
$INTERSECTIONCOLOR
 70
  257
  9
$DIMASSOC
280
    1
  9
$PROJECTNAME
  1

  9
$CAMERADISPLAY
290
    0
  9
$LENSLENGTH
 40
50
  9
$CAMERAHEIGHT
 40
0
  9
$STEPSPERSEC
 40
2
  9
$STEPSIZE
 40
50
  9
$3DDWFPREC
 40
2
  9
$PSOLWIDTH
 40
5
  9
$PSOLHEIGHT
 40
80
  9
$LOFTANG1
 40
1.570796326794897
  9
$LOFTANG2
 40
1.570796326794897
  9
$LOFTMAG1
 40
0
  9
$LOFTMAG2
 40
0
  9
$LOFTPARAM
 70
    7
  9
$LOFTNORMALS
280
    1
  9
$LATITUDE
 40
1
  9
$LONGITUDE
 40
1
  9
$NORTHDIRECTION
 40
0
  9
$TIMEZONE
 70
-8000
  9
$LIGHTGLYPHDISPLAY
280
    1
  9
$TILEMODELIGHTSYNCH
280
    1
  9
$SOLIDHIST
280
    1
  9
$SHOWHIST
280
    1
  9
$DWFFRAME
280
    2
  9
$DGNFRAME
280
    0
  9
$REALWORLDSCALE
290
    1
  9
$INTERFERECOLOR
 62
    1
  9
$CSHADOW
280
    0
  9
$SHADOWPLANELOCATION
 40
0
  0
ENDSEC
  0
SECTION
  2
CLASSES
  0
ENDSEC
  0
SECTION
  2
TABLES
  0
TABLE
  2
VPORT
  5
8
330
0
100
AcDbSymbolTable
 70
    1
  0
VPORT
  5
31
330
2
100
AcDbSymbolTableRecord
100
AcDbViewportTableRecord
  2
*ACTIVE
 70
    0
 10
0
 20
0
 11
1
 21
1
 12
62.026298777157
 22
39.25335816332157
 13
0
 23
0
 14
10
 24
10
 15
10
 25
10
 16
0
 26
0
 36
1
 17
0
 27
0
 37
0
 40
152.4188920031265
 41
1.62778505897772
 42
50
 43
0
 44
0
 50
0
 51
0
 71
    0
 72
  100
 73
    1
 74
    3
 75
    0
 76
    1
 77
    0
 78
    0
281
    0
 65
    1
110
0
120
0
130
0
111
1
121
0
131
0
112
0
122
1
132
0
 79
    0
146
0
348
10020
 60
    7
 61
    5
292
1
282
    1
141
0
142
0
 63
  250
421
3358443
  0
ENDTAB
  0
TABLE
  2
LTYPE
  5
5
330
0
100
AcDbSymbolTable
 70
    4
  0
LTYPE
  5
14
330
5
100
AcDbSymbolTableRecord
100
AcDbLinetypeTableRecord
  2
ByBlock
 70
    0
  3

 72
   65
 73
    0
 40
0
  0
LTYPE
  5
15
330
5
100
AcDbSymbolTableRecord
100
AcDbLinetypeTableRecord
  2
ByLayer
 70
    0
  3

 72
   65
 73
    0
 40
0
  0
LTYPE
  5
16
330
5
100
AcDbSymbolTableRecord
100
AcDbLinetypeTableRecord
  2
Continuous
 70
    0
  3
Solid line
 72
   65
 73
    0
 40
0
  0
LTYPE
  5
32
330
5
100
AcDbSymbolTableRecord
100
AcDbLinetypeTableRecord
  2
DOT
 70
    0
  3
Dot . . . . . . . . . . . . . . . . . . . . . .
 72
   65
 73
    2
 40
6.35
 49
0
 74
    0
 49
-6.35
 74
    0
  0
LTYPE
  5
33
330
5
100
AcDbSymbolTableRecord
100
AcDbLinetypeTableRecord
  2
DOTTINY
 70
    0
  3
Dot (.15x) .....................................
 72
   65
 73
    2
 40
0.9525
 49
0
 74
    0
 49
-0.9525
 74
    0
  0
LTYPE
  5
34
330
5
100
AcDbSymbolTableRecord
100
AcDbLinetypeTableRecord
  2
DOT2
 70
    0
  3
Dot (.5x) .....................................
 72
   65
 73
    2
 40
3.175
 49
0
 74
    0
 49
-3.175
 74
    0
  0
LTYPE
  5
35
330
5
100
AcDbSymbolTableRecord
100
AcDbLinetypeTableRecord
  2
DOTX2
 70
    0
  3
Dot (2x) .  .  .  .  .  .  .  .  .  .  .  .  .
 72
   65
 73
    2
 40
12.7
 49
0
 74
    0
 49
-12.7
 74
    0
  0
LTYPE
  5
36
330
5
100
AcDbSymbolTableRecord
100
AcDbLinetypeTableRecord
  2
DASHED
 70
    0
  3
Dashed _ _ _ _ _ _ _ _ _ _ _ _ _ _ _ _ _
 72
   65
 73
    2
 40
19.05
 49
12.7
 74
    0
 49
-6.35
 74
    0
  0
LTYPE
  5
37
330
5
100
AcDbSymbolTableRecord
100
AcDbLinetypeTableRecord
  2
DASHEDTINY
 70
    0
  3
Dashed (.15x) _ _ _ _ _ _ _ _ _ _ _ _ _ _ _ _ _
 72
   65
 73
    2
 40
2.8575
 49
1.905
 74
    0
 49
-0.9525
 74
    0
  0
LTYPE
  5
38
330
5
100
AcDbSymbolTableRecord
100
AcDbLinetypeTableRecord
  2
DASHED2
 70
    0
  3
Dashed (.5x) _ _ _ _ _ _ _ _ _ _ _ _ _ _ _ _ _
 72
   65
 73
    2
 40
9.524999999999999
 49
6.35
 74
    0
 49
-3.175
 74
    0
  0
LTYPE
  5
39
330
5
100
AcDbSymbolTableRecord
100
AcDbLinetypeTableRecord
  2
DASHEDX2
 70
    0
  3
Dashed (2x) ____  ____  ____  ____  ____  ___
 72
   65
 73
    2
 40
38.09999999999999
 49
25.4
 74
    0
 49
-12.7
 74
    0
  0
LTYPE
  5
3A
330
5
100
AcDbSymbolTableRecord
100
AcDbLinetypeTableRecord
  2
DASHDOT
 70
    0
  3
Dash dot __ . __ . __ . __ . __ . __ . __ . __
 72
   65
 73
    4
 40
25.4
 49
12.7
 74
    0
 49
-6.35
 74
    0
 49
0
 74
    0
 49
-6.35
 74
    0
  0
LTYPE
  5
3B
330
5
100
AcDbSymbolTableRecord
100
AcDbLinetypeTableRecord
  2
DASHDOTTINY
 70
    0
  3
Dash dot (.15x) _._._._._._._._._._._._._._._.
 72
   65
 73
    4
 40
3.81
 49
1.905
 74
    0
 49
-0.9525
 74
    0
 49
0
 74
    0
 49
-0.9525
 74
    0
  0
LTYPE
  5
3C
330
5
100
AcDbSymbolTableRecord
100
AcDbLinetypeTableRecord
  2
DASHDOT2
 70
    0
  3
Dash dot (.5x) _._._._._._._._._._._._._._._.
 72
   65
 73
    4
 40
12.7
 49
6.35
 74
    0
 49
-3.175
 74
    0
 49
0
 74
    0
 49
-3.175
 74
    0
  0
LTYPE
  5
3D
330
5
100
AcDbSymbolTableRecord
100
AcDbLinetypeTableRecord
  2
DASHDOTX2
 70
    0
  3
Dash dot (2x) ____  .  ____  .  ____  .  ___
 72
   65
 73
    4
 40
50.8
 49
25.4
 74
    0
 49
-12.7
 74
    0
 49
0
 74
    0
 49
-12.7
 74
    0
  0
LTYPE
  5
3E
330
5
100
AcDbSymbolTableRecord
100
AcDbLinetypeTableRecord
  2
DIVIDE
 70
    0
  3
Divide ____ . . ____ . . ____ . . ____ . . ____
 72
   65
 73
    6
 40
31.75
 49
12.7
 74
    0
 49
-6.35
 74
    0
 49
0
 74
    0
 49
-6.35
 74
    0
 49
0
 74
    0
 49
-6.35
 74
    0
  0
LTYPE
  5
3F
330
5
100
AcDbSymbolTableRecord
100
AcDbLinetypeTableRecord
  2
DIVIDETINY
 70
    0
  3
Divide (.15x) __..__..__..__..__..__..__..__.._
 72
   65
 73
    6
 40
4.7625
 49
1.905
 74
    0
 49
-0.9525
 74
    0
 49
0
 74
    0
 49
-0.9525
 74
    0
 49
0
 74
    0
 49
-0.9525
 74
    0
  0
LTYPE
  5
40
330
5
100
AcDbSymbolTableRecord
100
AcDbLinetypeTableRecord
  2
DIVIDE2
 70
    0
  3
Divide (.5x) __..__..__..__..__..__..__..__.._
 72
   65
 73
    6
 40
15.875
 49
6.35
 74
    0
 49
-3.175
 74
    0
 49
0
 74
    0
 49
-3.175
 74
    0
 49
0
 74
    0
 49
-3.175
 74
    0
  0
LTYPE
  5
41
330
5
100
AcDbSymbolTableRecord
100
AcDbLinetypeTableRecord
  2
DIVIDEX2
 70
    0
  3
Divide (2x) ________  .  .  ________  .  .  _
 72
   65
 73
    6
 40
63.5
 49
25.4
 74
    0
 49
-12.7
 74
    0
 49
0
 74
    0
 49
-12.7
 74
    0
 49
0
 74
    0
 49
-12.7
 74
    0
  0
LTYPE
  5
42
330
5
100
AcDbSymbolTableRecord
100
AcDbLinetypeTableRecord
  2
BORDER
 70
    0
  3
Border __ __ . __ __ . __ __ . __ __ . __ __ .
 72
   65
 73
    6
 40
44.45
 49
12.7
 74
    0
 49
-6.35
 74
    0
 49
12.7
 74
    0
 49
-6.35
 74
    0
 49
0
 74
    0
 49
-6.35
 74
    0
  0
LTYPE
  5
43
330
5
100
AcDbSymbolTableRecord
100
AcDbLinetypeTableRecord
  2
BORDERTINY
 70
    0
  3
Border (.15x) __.__.__.__.__.__.__.__.__.__.__.
 72
   65
 73
    6
 40
6.6675
 49
1.905
 74
    0
 49
-0.9525
 74
    0
 49
1.905
 74
    0
 49
-0.9525
 74
    0
 49
0
 74
    0
 49
-0.9525
 74
    0
  0
LTYPE
  5
44
330
5
100
AcDbSymbolTableRecord
100
AcDbLinetypeTableRecord
  2
BORDER2
 70
    0
  3
Border (.5x) __.__.__.__.__.__.__.__.__.__.__.
 72
   65
 73
    6
 40
22.225
 49
6.35
 74
    0
 49
-3.175
 74
    0
 49
6.35
 74
    0
 49
-3.175
 74
    0
 49
0
 74
    0
 49
-3.175
 74
    0
  0
LTYPE
  5
45
330
5
100
AcDbSymbolTableRecord
100
AcDbLinetypeTableRecord
  2
BORDERX2
 70
    0
  3
Border (2x) ____  ____  .  ____  ____  .  ___
 72
   65
 73
    6
 40
88.89999999999999
 49
25.4
 74
    0
 49
-12.7
 74
    0
 49
25.4
 74
    0
 49
-12.7
 74
    0
 49
0
 74
    0
 49
-12.7
 74
    0
  0
LTYPE
  5
46
330
5
100
AcDbSymbolTableRecord
100
AcDbLinetypeTableRecord
  2
CENTER
 70
    0
  3
Center ____ _ ____ _ ____ _ ____ _ ____ _ ____
 72
   65
 73
    4
 40
50.8
 49
31.75
 74
    0
 49
-6.35
 74
    0
 49
6.35
 74
    0
 49
-6.35
 74
    0
  0
LTYPE
  5
47
330
5
100
AcDbSymbolTableRecord
100
AcDbLinetypeTableRecord
  2
CENTERTINY
 70
    0
  3
Center (.15x) ___ _ ___ _ ___ _ ___ _ ___ _ ___
 72
   65
 73
    4
 40
7.619999999999999
 49
4.7625
 74
    0
 49
-0.9525
 74
    0
 49
0.9525
 74
    0
 49
-0.9525
 74
    0
  0
LTYPE
  5
48
330
5
100
AcDbSymbolTableRecord
100
AcDbLinetypeTableRecord
  2
CENTER2
 70
    0
  3
Center (.5x) ___ _ ___ _ ___ _ ___ _ ___ _ ___
 72
   65
 73
    4
 40
28.575
 49
19.05
 74
    0
 49
-3.175
 74
    0
 49
3.175
 74
    0
 49
-3.175
 74
    0
  0
LTYPE
  5
49
330
5
100
AcDbSymbolTableRecord
100
AcDbLinetypeTableRecord
  2
CENTERX2
 70
    0
  3
Center (2x) ________  __  ________  __  _____
 72
   65
 73
    4
 40
101.6
 49
63.5
 74
    0
 49
-12.7
 74
    0
 49
12.7
 74
    0
 49
-12.7
 74
    0
  0
ENDTAB
  0
TABLE
  2
LAYER
  5
2
330
0
100
AcDbSymbolTable
 70
    1
  0
LAYER
  5
10
330
2
100
AcDbSymbolTableRecord
100
AcDbLayerTableRecord
  2
0
 70
    0
 62
    7
  6
CONTINUOUS
370
    0
390
F
  0
LAYER
  5
4A
330
2
100
AcDbSymbolTableRecord
100
AcDbLayerTableRecord
  2
dispo1
 70
    0
 62
    3
  6
CONTINUOUS
370
    0
390
F
  0
LAYER
  5
4B
330
2
100
AcDbSymbolTableRecord
100
AcDbLayerTableRecord
  2
dispo2
 70
    0
 62
  253
420
10526884
  6
CONTINUOUS
370
    0
390
F
  0
LAYER
  5
4C
330
2
100
AcDbSymbolTableRecord
100
AcDbLayerTableRecord
  2
dispo3
 70
    0
 62
    1
  6
CONTINUOUS
370
    0
390
F
  0
LAYER
  5
4D
330
2
100
AcDbSymbolTableRecord
100
AcDbLayerTableRecord
  2
ext1
 70
    0
 62
    6
  6
CONTINUOUS
370
    0
390
F
  0
LAYER
  5
4E
330
2
100
AcDbSymbolTableRecord
100
AcDbLayerTableRecord
  2
ext2
 70
    0
 62
  201
420
14772991
  6
CONTINUOUS
370
    0
390
F
  0
LAYER
  5
4F
330
2
100
AcDbSymbolTableRecord
100
AcDbLayerTableRecord
  2
ext3
 70
    0
 62
    6
  6
CONTINUOUS
370
    0
390
F
  0
LAYER
  5
50
330
2
100
AcDbSymbolTableRecord
100
AcDbLayerTableRecord
  2
int
 70
    0
 62
  151
420
10596351
  6
CONTINUOUS
370
    0
390
F
  0
LAYER
  5
51
330
2
100
AcDbSymbolTableRecord
100
AcDbLayerTableRecord
  2
pcb
 70
    0
 62
    2
  6
CONTINUOUS
370
    0
390
F
  0
LAYER
  5
52
330
2
100
AcDbSymbolTableRecord
100
AcDbLayerTableRecord
  2
percage
 70
    0
 62
    4
  6
CONTINUOUS
370
    0
390
F
  0
LAYER
  5
53
330
2
100
AcDbSymbolTableRecord
100
AcDbLayerTableRecord
  2
rpi
 70
    0
 62
    3
  6
CONTINUOUS
370
    0
390
F
  0
LAYER
  5
54
330
2
100
AcDbSymbolTableRecord
100
AcDbLayerTableRecord
  2
rpi-decoup
 70
    0
 62
    3
  6
CONTINUOUS
370
    0
390
F
  0
ENDTAB
  0
TABLE
  2
STYLE
  5
3
330
0
100
AcDbSymbolTable
 70
    3
  0
STYLE
  5
55
330
2
100
AcDbSymbolTableRecord
100
AcDbTextStyleTableRecord
  2
Standard
 70
    0
 40
0
 41
1
 50
0
 71
    0
 42
1
  3
txt
  4

  0
ENDTAB
  0
TABLE
  2
VIEW
  5
6
330
0
100
AcDbSymbolTable
 70
    0
  0
ENDTAB
  0
TABLE
  2
UCS
  5
7
330
0
100
AcDbSymbolTable
 70
    0
  0
ENDTAB
  0
TABLE
  2
APPID
  5
9
330
0
100
AcDbSymbolTable
 70
    1
  0
APPID
  5
12
330
9
100
AcDbSymbolTableRecord
100
AcDbRegAppTableRecord
  2
ACAD
 70
    0
  0
APPID
  5
56
330
9
100
AcDbSymbolTableRecord
100
AcDbRegAppTableRecord
  2
LibreCad
 70
    0
  0
ENDTAB
  0
TABLE
  2
DIMSTYLE
  5
A
330
0
100
AcDbSymbolTable
 70
    1
100
AcDbDimStyleTable
 71
    1
  0
DIMSTYLE
105
57
330
A
100
AcDbSymbolTableRecord
100
AcDbDimStyleTableRecord
  2
Standard
 70
    0
 40
2.5
 41
2.5
 42
0.625
 43
0.38
 44
1.25
 45
0
 46
0
 47
0
 48
0
 49
1
140
2.5
141
0.09
142
0
143
25.4
144
1
145
0
146
1
147
0.625
148
0
 71
    0
 72
    0
 73
    0
 74
    1
 75
    0
 76
    0
 77
    0
 78
    8
 79
    0
170
    0
171
    2
172
    0
173
    0
174
    0
175
    0
176
    0
177
    0
178
    0
179
    0
271
    2
272
    4
273
    2
274
    2
275
    0
276
    0
277
    2
278
   44
279
    0
280
    0
281
    0
282
    0
283
    1
284
    0
285
    0
286
    0
288
    0
289
    3
340
STANDARD
341

371
   -2
372
   -2
  0
ENDTAB
  0
TABLE
  2
BLOCK_RECORD
  5
1
330
0
100
AcDbSymbolTable
 70
    2
  0
BLOCK_RECORD
  5
1F
330
1
100
AcDbSymbolTableRecord
100
AcDbBlockTableRecord
  2
*Model_Space
 70
    0
280
    1
281
    0
  0
BLOCK_RECORD
  5
1E
330
1
100
AcDbSymbolTableRecord
100
AcDbBlockTableRecord
  2
*Paper_Space
 70
    0
280
    1
281
    0
  0
ENDTAB
  0
ENDSEC
  0
SECTION
  2
BLOCKS
  0
BLOCK
  5
20
330
1F
100
AcDbEntity
  8
0
100
AcDbBlockBegin
  2
*Model_Space
 70
    0
 10
0
 20
0
 30
0
  3
*Model_Space
  1

  0
ENDBLK
  5
21
330
1F
100
AcDbEntity
  8
0
100
AcDbBlockEnd
  0
BLOCK
  5
1C
330
1B
100
AcDbEntity
  8
0
100
AcDbBlockBegin
  2
*Paper_Space
 70
    0
 10
0
 20
0
 30
0
  3
*Paper_Space
  1

  0
ENDBLK
  5
1D
330
1F
100
AcDbEntity
  8
0
100
AcDbBlockEnd
  0
ENDSEC
  0
SECTION
  2
ENTITIES
  0
LWPOLYLINE
  5
58
100
AcDbEntity
  8
0
  6
ByLayer
 62
  256
370
   -1
100
AcDbPolyline
 90
    4
 70
    1
 43
0
 10
9.292402206971158
 20
32.23170617096279
 10
27.87720662091346
 20
36.18202829650023
 10
31.82752874645089
 20
17.59722388255792
 10
13.24272433250859
 20
13.64690175702049
  0
LWPOLYLINE
  5
59
100
AcDbEntity
  8
0
  6
ByLayer
 62
  256
370
   -1
100
AcDbPolyline
 90
    4
 70
    1
 43
0
 10
27.87720662091346
 20
36.18202829650023
 10
46.46201103485577
 20
40.13235042203766
 10
50.4123331603932
 20
21.54754600809535
 10
31.82752874645089
 20
17.59722388255792
  0
LWPOLYLINE
  5
5A
100
AcDbEntity
  8
0
  6
ByLayer
 62
  256
370
   -1
100
AcDbPolyline
 90
    4
 70
    1
 43
0
 10
13.24272433250859
 20
13.64690175702049
 10
31.82752874645089
 20
17.59722388255792
 10
35.77785087198832
 20
-0.9875805313843884
 10
17.19304645804601
 20
-4.937902656921814
  0
LWPOLYLINE
  5
5B
100
AcDbEntity
  8
0
  6
ByLayer
 62
  256
370
   -1
100
AcDbPolyline
 90
    4
 70
    1
 43
0
 10
31.82752874645089
 20
17.59722388255792
 10
50.4123331603932
 20
21.54754600809535
 10
54.36265528593063
 20
2.962741594153041
 10
35.77785087198832
 20
-0.9875805313843884
  0
LWPOLYLINE
  5
5C
100
AcDbEntity
  8
0
  6
ByLayer
 62
  256
370
   -1
100
AcDbPolyline
 90
    4
 70
    1
 43
0
 10
17.19304645804601
 20
-4.937902656921814
 10
35.77785087198832
 20
-0.9875805313843884
 10
39.72817299752575
 20
-19.5723849453267
 10
21.14336858358344
 20
-23.52270707086412
  0
LWPOLYLINE
  5
5D
100
AcDbEntity
  8
0
  6
ByLayer
 62
  256
370
   -1
100
AcDbPolyline
 90
    4
 70
    1
 43
0
 10
35.77785087198832
 20
-0.9875805313843884
 10
54.36265528593063
 20
2.962741594153041
 10
58.31297741146805
 20
-15.62206281978927
 10
39.72817299752575
 20
-19.5723849453267
  0
LWPOLYLINE
  5
5E
100
AcDbEntity
  8
0
  6
ByLayer
 62
  256
370
   -1
100
AcDbPolyline
 90
    4
 70
    1
 43
0
 10
12.83854690799664
 20
-30.14406923711842
 10
40.7157535289101
 20
-24.21858604881228
 10
44.66607565444752
 20
-42.80339046275459
 10
16.78886903353407
 20
-48.72887365106073
  0
LWPOLYLINE
  5
5F
100
AcDbEntity
  8
0
  6
ByLayer
 62
  256
370
   -1
100
AcDbPolyline
 90
    4
 70
    1
 43
0
 10
-9.292402206971158
 20
32.23170617096278
 10
-27.87720662091346
 20
36.18202829650023
 10
-31.82752874645089
 20
17.59722388255789
 10
-13.24272433250859
 20
13.6469017570205
  0
LWPOLYLINE
  5
60
100
AcDbEntity
  8
0
  6
ByLayer
 62
  256
370
   -1
100
AcDbPolyline
 90
    4
 70
    1
 43
0
 10
-27.87720662091346
 20
36.18202829650023
 10
-46.46201103485577
 20
40.13235042203767
 10
-50.4123331603932
 20
21.54754600809535
 10
-31.82752874645089
 20
17.59722388255789
  0
LWPOLYLINE
  5
61
100
AcDbEntity
  8
0
  6
ByLayer
 62
  256
370
   -1
100
AcDbPolyline
 90
    4
 70
    1
 43
0
 10
-13.24272433250859
 20
13.6469017570205
 10
-31.82752874645089
 20
17.59722388255789
 10
-35.77785087198832
 20
-0.9875805313843884
 10
-17.19304645804601
 20
-4.937902656921786
  0
LWPOLYLINE
  5
62
100
AcDbEntity
  8
0
  6
ByLayer
 62
  256
370
   -1
100
AcDbPolyline
 90
    4
 70
    1
 43
0
 10
-31.82752874645089
 20
17.59722388255789
 10
-50.4123331603932
 20
21.54754600809535
 10
-54.36265528593063
 20
2.962741594153005
 10
-35.77785087198832
 20
-0.9875805313843884
  0
LWPOLYLINE
  5
63
100
AcDbEntity
  8
0
  6
ByLayer
 62
  256
370
   -1
100
AcDbPolyline
 90
    4
 70
    1
 43
0
 10
-17.19304645804601
 20
-4.937902656921786
 10
-35.77785087198832
 20
-0.9875805313843884
 10
-39.72817299752575
 20
-19.5723849453267
 10
-21.14336858358344
 20
-23.52270707086412
  0
LWPOLYLINE
  5
64
100
AcDbEntity
  8
0
  6
ByLayer
 62
  256
370
   -1
100
AcDbPolyline
 90
    4
 70
    1
 43
0
 10
-35.77785087198832
 20
-0.9875805313843884
 10
-54.36265528593063
 20
2.962741594153005
 10
-58.31297741146805
 20
-15.62206281978927
 10
-39.72817299752575
 20
-19.5723849453267
  0
LWPOLYLINE
  5
65
100
AcDbEntity
  8
0
  6
ByLayer
 62
  256
370
   -1
100
AcDbPolyline
 90
    4
 70
    1
 43
0
 10
-12.83854690799664
 20
-30.14406923711839
 10
-40.7157535289101
 20
-24.21858604881228
 10
-44.66607565444752
 20
-42.80339046275459
 10
-16.78886903353407
 20
-48.72887365106076
  0
LWPOLYLINE
  5
66
100
AcDbEntity
  8
0
  6
ByLayer
 62
  256
370
   -1
100
AcDbPolyline
 90
    4
 70
    1
 43
0
 10
-63.94675904633799
 20
-19.2806833918905
 10
-40.7157535289101
 20
-24.21858604881228
 10
-44.66607565444752
 20
-42.80339046275459
 10
-67.89708117187541
 20
-37.86548780583281
  0
LINE
  5
67
100
AcDbEntity
  8
dispo2
  6
ByLayer
 62
  256
370
   -1
100
AcDbLine
 10
70.44858908829113
 20
44.93822944222602
 11
89.34450510028834
 21
46.92427024431144
  0
LINE
  5
68
100
AcDbEntity
  8
dispo2
  6
ByLayer
 62
  256
370
   -1
100
AcDbLine
 10
89.34450510028834
 20
46.92427024431144
 11
95.30262750654455
 21
-9.763477791680145
  0
LINE
  5
69
100
AcDbEntity
  8
dispo2
  6
ByLayer
 62
  256
370
   -1
100
AcDbLine
 10
95.30262750654455
 20
-9.763477791680145
 11
76.40671149454737
 21
-11.74951859376556
  0
LINE
  5
6A
100
AcDbEntity
  8
dispo2
  6
ByLayer
 62
  256
370
   -1
100
AcDbLine
 10
76.40671149454737
 20
-11.74951859376556
 11
70.44858908829113
 21
44.93822944222602
  0
LINE
  5
6B
100
AcDbEntity
  8
dispo2
  6
ByLayer
 62
  256
370
   -1
100
AcDbLine
 10
45.47443050347141
 20
44.77855152552326
 11
64.05923491741373
 21
48.72887365106068
  0
LINE
  5
6C
100
AcDbEntity
  8
dispo2
  6
ByLayer
 62
  256
370
   -1
100
AcDbLine
 10
64.05923491741373
 20
48.72887365106068
 11
75.91020129402601
 21
-7.025539590766236
  0
LINE
  5
6D
100
AcDbEntity
  8
dispo2
  6
ByLayer
 62
  256
370
   -1
100
AcDbLine
 10
75.91020129402601
 20
-7.025539590766236
 11
57.3253968800837
 21
-10.97586171630369
  0
LINE
  5
6E
100
AcDbEntity
  8
dispo2
  6
ByLayer
 62
  256
370
   -1
100
AcDbLine
 10
57.3253968800837
 20
-10.97586171630369
 11
45.47443050347141
 21
44.77855152552326
  0
LINE
  5
6F
100
AcDbEntity
  8
dispo2
  6
ByLayer
 62
  256
370
   -1
100
AcDbLine
 10
72.43462989037654
 20
26.04231343022883
 11
91.33054590237376
 21
28.02835423231424
  0
LINE
  5
70
100
AcDbEntity
  8
dispo2
  6
ByLayer
 62
  256
370
   -1
100
AcDbLine
 10
74.42067069246195
 20
7.146397418231633
 11
93.31658670445917
 21
9.132438220317049
  0
LINE
  5
71
100
AcDbEntity
  8
dispo2
  6
ByLayer
 62
  256
370
   -1
100
AcDbLine
 10
49.42475262900882
 20
26.19374711158094
 11
68.00955704295114
 21
30.14406923711837
  0
LINE
  5
72
100
AcDbEntity
  8
dispo2
  6
ByLayer
 62
  256
370
   -1
100
AcDbLine
 10
53.37507475454623
 20
7.608942697638632
 11
71.95987916848856
 21
11.55926482317606
  0
LINE
  5
73
100
AcDbEntity
  8
dispo2
  6
ByLayer
 62
  256
370
   -1
100
AcDbLine
 10
95.30262750654457
 20
42.48652220831985
 11
114.3026275065446
 21
42.48652220831985
  0
LINE
  5
74
100
AcDbEntity
  8
dispo2
  6
ByLayer
 62
  256
370
   -1
100
AcDbLine
 10
114.3026275065446
 20
42.48652220831985
 11
114.3026275065446
 21
-14.51347779168015
  0
LINE
  5
75
100
AcDbEntity
  8
dispo2
  6
ByLayer
 62
  256
370
   -1
100
AcDbLine
 10
114.3026275065446
 20
-14.51347779168015
 11
95.30262750654455
 21
-14.51347779168015
  0
LINE
  5
76
100
AcDbEntity
  8
dispo2
  6
ByLayer
 62
  256
370
   -1
100
AcDbLine
 10
95.30262750654455
 20
-14.51347779168015
 11
95.30262750654457
 21
42.48652220831985
  0
LINE
  5
77
100
AcDbEntity
  8
dispo2
  6
ByLayer
 62
  256
370
   -1
100
AcDbLine
 10
95.30262750654457
 20
23.48652220831985
 11
114.3026275065446
 21
23.48652220831985
  0
LINE
  5
78
100
AcDbEntity
  8
dispo2
  6
ByLayer
 62
  256
370
   -1
100
AcDbLine
 10
95.30262750654457
 20
4.486522208319847
 11
114.3026275065446
 21
4.486522208319847
  0
LINE
  5
79
100
AcDbEntity
  8
dispo2
  6
ByLayer
 62
  256
370
   -1
100
AcDbLine
 10
-70.44858908829113
 20
44.938229442226
 11
-89.34450510028834
 21
46.92427024431141
  0
LINE
  5
7A
100
AcDbEntity
  8
dispo2
  6
ByLayer
 62
  256
370
   -1
100
AcDbLine
 10
-89.34450510028834
 20
46.92427024431141
 11
-95.30262750654455
 21
-9.763477791680145
  0
LINE
  5
7B
100
AcDbEntity
  8
dispo2
  6
ByLayer
 62
  256
370
   -1
100
AcDbLine
 10
-95.30262750654455
 20
-9.763477791680145
 11
-76.40671149454737
 21
-11.74951859376556
  0
LINE
  5
7C
100
AcDbEntity
  8
dispo2
  6
ByLayer
 62
  256
370
   -1
100
AcDbLine
 10
-76.40671149454737
 20
-11.74951859376556
 11
-70.44858908829113
 21
44.938229442226
  0
LINE
  5
7D
100
AcDbEntity
  8
dispo2
  6
ByLayer
 62
  256
370
   -1
100
AcDbLine
 10
-45.47443050347141
 20
44.77855152552327
 11
-64.05923491741373
 21
48.7288736510607
  0
LINE
  5
7E
100
AcDbEntity
  8
dispo2
  6
ByLayer
 62
  256
370
   -1
100
AcDbLine
 10
-64.05923491741373
 20
48.7288736510607
 11
-75.91020129402601
 21
-7.025539590766236
  0
LINE
  5
7F
100
AcDbEntity
  8
dispo2
  6
ByLayer
 62
  256
370
   -1
100
AcDbLine
 10
-75.91020129402601
 20
-7.025539590766236
 11
-57.3253968800837
 21
-10.97586171630369
  0
LINE
  5
80
100
AcDbEntity
  8
dispo2
  6
ByLayer
 62
  256
370
   -1
100
AcDbLine
 10
-57.3253968800837
 20
-10.97586171630369
 11
-45.47443050347141
 21
44.77855152552327
  0
LINE
  5
81
100
AcDbEntity
  8
dispo2
  6
ByLayer
 62
  256
370
   -1
100
AcDbLine
 10
-72.43462989037654
 20
26.04231343022882
 11
-91.33054590237376
 21
28.02835423231423
  0
LINE
  5
82
100
AcDbEntity
  8
dispo2
  6
ByLayer
 62
  256
370
   -1
100
AcDbLine
 10
-74.42067069246195
 20
7.14639741823164
 11
-93.31658670445917
 21
9.132438220317049
  0
LINE
  5
83
100
AcDbEntity
  8
dispo2
  6
ByLayer
 62
  256
370
   -1
100
AcDbLine
 10
-49.42475262900882
 20
26.19374711158094
 11
-68.00955704295114
 21
30.14406923711836
  0
LINE
  5
84
100
AcDbEntity
  8
dispo2
  6
ByLayer
 62
  256
370
   -1
100
AcDbLine
 10
-53.37507475454623
 20
7.608942697638632
 11
-71.95987916848856
 21
11.55926482317605
  0
LINE
  5
85
100
AcDbEntity
  8
dispo2
  6
ByLayer
 62
  256
370
   -1
100
AcDbLine
 10
-95.30262750654457
 20
42.48652220831985
 11
-114.3026275065446
 21
42.48652220831985
  0
LINE
  5
86
100
AcDbEntity
  8
dispo2
  6
ByLayer
 62
  256
370
   -1
100
AcDbLine
 10
-114.3026275065446
 20
42.48652220831985
 11
-114.3026275065446
 21
-14.51347779168015
  0
LINE
  5
87
100
AcDbEntity
  8
dispo2
  6
ByLayer
 62
  256
370
   -1
100
AcDbLine
 10
-114.3026275065446
 20
-14.51347779168015
 11
-95.30262750654455
 21
-14.51347779168015
  0
LINE
  5
88
100
AcDbEntity
  8
dispo2
  6
ByLayer
 62
  256
370
   -1
100
AcDbLine
 10
-95.30262750654455
 20
-14.51347779168015
 11
-95.30262750654457
 21
42.48652220831984
  0
LINE
  5
89
100
AcDbEntity
  8
dispo2
  6
ByLayer
 62
  256
370
   -1
100
AcDbLine
 10
-95.30262750654457
 20
23.48652220831985
 11
-114.3026275065446
 21
23.48652220831985
  0
LINE
  5
8A
100
AcDbEntity
  8
dispo2
  6
ByLayer
 62
  256
370
   -1
100
AcDbLine
 10
-95.30262750654457
 20
4.486522208319847
 11
-114.3026275065446
 21
4.486522208319847
  0
LINE
  5
8B
100
AcDbEntity
  8
dispo1
  6
ByLayer
 62
  256
370
   -1
100
AcDbLine
 10
45.47443050347141
 20
44.77855152552323
 11
57.32539688008369
 21
-10.97586171630369
  0
LINE
  5
8C
100
AcDbEntity
  8
dispo1
  6
ByLayer
 62
  256
370
   -1
100
AcDbLine
 10
57.32539688008369
 20
-10.97586171630369
 11
75.910201294026
 21
-7.025539590766265
  0
LINE
  5
8D
100
AcDbEntity
  8
dispo1
  6
ByLayer
 62
  256
370
   -1
100
AcDbLine
 10
76.89778182541035
 20
-11.67174069425185
 11
95.48258623935268
 21
-7.721418568714419
  0
LINE
  5
8E
100
AcDbEntity
  8
dispo1
  6
ByLayer
 62
  256
370
   -1
100
AcDbLine
 10
96.47016677073704
 20
-12.3676196722
 11
115.0549711846793
 21
-8.417297546662574
  0
LINE
  5
8F
100
AcDbEntity
  8
dispo1
  6
ByLayer
 62
  256
370
   -1
100
AcDbLine
 10
115.0549711846793
 20
-8.417297546662574
 11
103.204004808067
 21
47.33711569516436
  0
LINE
  5
90
100
AcDbEntity
  8
dispo1
  6
ByLayer
 62
  256
370
   -1
100
AcDbLine
 10
103.204004808067
 20
47.33711569516436
 11
84.61920039412475
 21
43.38679356962693
  0
LINE
  5
91
100
AcDbEntity
  8
dispo1
  6
ByLayer
 62
  256
370
   -1
100
AcDbLine
 10
83.63161986274039
 20
48.0329946731125
 11
65.04681544879807
 21
44.08267254757508
  0
LINE
  5
92
100
AcDbEntity
  8
dispo1
  6
ByLayer
 62
  256
370
   -1
100
AcDbLine
 10
64.0592349174137
 20
48.72887365106069
 11
45.4744305034714
 21
44.77855152552323
  0
LINE
  5
93
100
AcDbEntity
  8
dispo1
  6
ByLayer
 62
  256
370
   -1
100
AcDbLine
 10
76.89778182541035
 20
-11.67174069425185
 11
64.0592349174137
 21
48.72887365106069
  0
LINE
  5
94
100
AcDbEntity
  8
dispo1
  6
ByLayer
 62
  256
370
   -1
100
AcDbLine
 10
83.63161986274039
 20
48.0329946731125
 11
96.47016677073704
 21
-12.3676196722
  0
LINE
  5
95
100
AcDbEntity
  8
dispo1
  6
ByLayer
 62
  256
370
   -1
100
AcDbLine
 10
68.00955704295114
 20
30.14406923711838
 11
49.42475262900885
 21
26.19374711158093
  0
LINE
  5
96
100
AcDbEntity
  8
dispo1
  6
ByLayer
 62
  256
370
   -1
100
AcDbLine
 10
71.95987916848858
 20
11.55926482317608
 11
53.3750747545463
 21
7.608942697638621
  0
LINE
  5
97
100
AcDbEntity
  8
dispo1
  6
ByLayer
 62
  256
370
   -1
100
AcDbLine
 10
87.5819419882778
 20
29.44819025917019
 11
68.99713757433548
 21
25.49786813363277
  0
LINE
  5
98
100
AcDbEntity
  8
dispo1
  6
ByLayer
 62
  256
370
   -1
100
AcDbLine
 10
91.53226411381522
 20
10.86338584522788
 11
72.94745969987289
 21
6.913063719690456
  0
LINE
  5
99
100
AcDbEntity
  8
dispo1
  6
ByLayer
 62
  256
370
   -1
100
AcDbLine
 10
107.1543269336045
 20
28.75231128122206
 11
88.56952251966217
 21
24.80198915568462
  0
LINE
  5
9A
100
AcDbEntity
  8
dispo1
  6
ByLayer
 62
  256
370
   -1
100
AcDbLine
 10
111.1046490591419
 20
10.16750686727975
 11
92.5198446451996
 21
6.217184741742319
  0
LINE
  5
9B
100
AcDbEntity
  8
dispo1
  6
ByLayer
 62
  256
370
   -1
100
AcDbLine
 10
-45.47443050347141
 20
44.77855152552321
 11
-57.32539688008369
 21
-10.97586171630369
  0
LINE
  5
9C
100
AcDbEntity
  8
dispo1
  6
ByLayer
 62
  256
370
   -1
100
AcDbLine
 10
-57.32539688008369
 20
-10.97586171630369
 11
-75.910201294026
 21
-7.025539590766265
  0
LINE
  5
9D
100
AcDbEntity
  8
dispo1
  6
ByLayer
 62
  256
370
   -1
100
AcDbLine
 10
-76.89778182541035
 20
-11.67174069425185
 11
-95.48258623935268
 21
-7.721418568714419
  0
LINE
  5
9E
100
AcDbEntity
  8
dispo1
  6
ByLayer
 62
  256
370
   -1
100
AcDbLine
 10
-96.47016677073704
 20
-12.3676196722
 11
-115.0549711846793
 21
-8.417297546662574
  0
LINE
  5
9F
100
AcDbEntity
  8
dispo1
  6
ByLayer
 62
  256
370
   -1
100
AcDbLine
 10
-115.0549711846793
 20
-8.417297546662574
 11
-103.204004808067
 21
47.33711569516437
  0
LINE
  5
A0
100
AcDbEntity
  8
dispo1
  6
ByLayer
 62
  256
370
   -1
100
AcDbLine
 10
-103.204004808067
 20
47.33711569516437
 11
-84.61920039412475
 21
43.3867935696269
  0
LINE
  5
A1
100
AcDbEntity
  8
dispo1
  6
ByLayer
 62
  256
370
   -1
100
AcDbLine
 10
-83.63161986274039
 20
48.0329946731125
 11
-65.04681544879807
 21
44.08267254757508
  0
LINE
  5
A2
100
AcDbEntity
  8
dispo1
  6
ByLayer
 62
  256
370
   -1
100
AcDbLine
 10
-64.0592349174137
 20
48.72887365106069
 11
-45.4744305034714
 21
44.77855152552321
  0
LINE
  5
A3
100
AcDbEntity
  8
dispo1
  6
ByLayer
 62
  256
370
   -1
100
AcDbLine
 10
-76.89778182541035
 20
-11.67174069425185
 11
-64.0592349174137
 21
48.72887365106069
  0
LINE
  5
A4
100
AcDbEntity
  8
dispo1
  6
ByLayer
 62
  256
370
   -1
100
AcDbLine
 10
-83.63161986274039
 20
48.0329946731125
 11
-96.47016677073704
 21
-12.3676196722
  0
LINE
  5
A5
100
AcDbEntity
  8
dispo1
  6
ByLayer
 62
  256
370
   -1
100
AcDbLine
 10
-68.00955704295114
 20
30.14406923711838
 11
-49.42475262900885
 21
26.19374711158094
  0
LINE
  5
A6
100
AcDbEntity
  8
dispo1
  6
ByLayer
 62
  256
370
   -1
100
AcDbLine
 10
-71.95987916848858
 20
11.55926482317607
 11
-53.3750747545463
 21
7.608942697638621
  0
LINE
  5
A7
100
AcDbEntity
  8
dispo1
  6
ByLayer
 62
  256
370
   -1
100
AcDbLine
 10
-87.5819419882778
 20
29.44819025917019
 11
-68.99713757433548
 21
25.49786813363277
  0
LINE
  5
A8
100
AcDbEntity
  8
dispo1
  6
ByLayer
 62
  256
370
   -1
100
AcDbLine
 10
-91.53226411381522
 20
10.86338584522788
 11
-72.94745969987289
 21
6.913063719690456
  0
LINE
  5
A9
100
AcDbEntity
  8
dispo1
  6
ByLayer
 62
  256
370
   -1
100
AcDbLine
 10
-107.1543269336045
 20
28.75231128122207
 11
-88.56952251966217
 21
24.80198915568461
  0
LINE
  5
AA
100
AcDbEntity
  8
dispo1
  6
ByLayer
 62
  256
370
   -1
100
AcDbLine
 10
-111.1046490591419
 20
10.16750686727976
 11
-92.5198446451996
 21
6.217184741742319
  0
LINE
  5
AB
100
AcDbEntity
  8
dispo3
  6
ByLayer
 62
  256
370
   -1
100
AcDbLine
 10
95.42555039139476
 20
-16.49462903565823
 11
95.42555039139475
 21
40.50537096434176
  0
LINE
  5
AC
100
AcDbEntity
  8
dispo3
  6
ByLayer
 62
  256
370
   -1
100
AcDbLine
 10
76.47183343645811
 20
-13.07000203679661
 11
72.49571443304296
 21
43.79114882801337
  0
LINE
  5
AD
100
AcDbEntity
  8
dispo3
  6
ByLayer
 62
  256
370
   -1
100
AcDbLine
 10
49.39253012535997
 20
45.46941820196582
 11
57.3253968800837
 21
-10.97586171630369
  0
LINE
  5
AE
100
AcDbEntity
  8
dispo3
  6
ByLayer
 62
  256
370
   -1
100
AcDbLine
 10
68.2076234314498
 20
48.11370712020705
 11
76.14049018617354
 21
-8.331572798062446
  0
LINE
  5
AF
100
AcDbEntity
  8
dispo3
  6
ByLayer
 62
  256
370
   -1
100
AcDbLine
 10
95.42555039139478
 20
-11.74462903565823
 11
91.44943138797963
 21
45.11652182915175
  0
LINE
  5
B0
100
AcDbEntity
  8
dispo3
  6
ByLayer
 62
  256
370
   -1
100
AcDbLine
 10
114.4255503913948
 20
-16.49462903565824
 11
114.4255503913948
 21
40.50537096434176
  0
LINE
  5
B1
100
AcDbEntity
  8
dispo3
  6
ByLayer
 62
  256
370
   -1
100
AcDbLine
 10
49.39253012535997
 20
45.46941820196582
 11
68.2076234314498
 21
48.11370712020705
  0
LINE
  5
B2
100
AcDbEntity
  8
dispo3
  6
ByLayer
 62
  256
370
   -1
100
AcDbLine
 10
52.03681904360121
 20
26.65432489587598
 11
70.85191234969105
 21
29.29861381411722
  0
LINE
  5
B3
100
AcDbEntity
  8
dispo3
  6
ByLayer
 62
  256
370
   -1
100
AcDbLine
 10
54.68110796184246
 20
7.839231589786145
 11
73.49620126793229
 21
10.48352050802739
  0
LINE
  5
B4
100
AcDbEntity
  8
dispo3
  6
ByLayer
 62
  256
370
   -1
100
AcDbLine
 10
57.3253968800837
 20
-10.97586171630369
 11
76.14049018617354
 21
-8.331572798062446
  0
LINE
  5
B5
100
AcDbEntity
  8
dispo3
  6
ByLayer
 62
  256
370
   -1
100
AcDbLine
 10
76.47183343645811
 20
-13.07000203679661
 11
95.42555039139476
 21
-11.74462903565805
  0
LINE
  5
B6
100
AcDbEntity
  8
dispo3
  6
ByLayer
 62
  256
370
   -1
100
AcDbLine
 10
75.14646043531955
 20
5.88371491814004
 11
94.10017739025621
 21
7.209087919278598
  0
LINE
  5
B7
100
AcDbEntity
  8
dispo3
  6
ByLayer
 62
  256
370
   -1
100
AcDbLine
 10
73.821087434181
 20
24.83743187307669
 11
92.77480438911765
 21
26.16280487421525
  0
LINE
  5
B8
100
AcDbEntity
  8
dispo3
  6
ByLayer
 62
  256
370
   -1
100
AcDbLine
 10
72.49571443304244
 20
43.79114882801333
 11
91.44943138797909
 21
45.11652182915189
  0
LINE
  5
B9
100
AcDbEntity
  8
dispo3
  6
ByLayer
 62
  256
370
   -1
100
AcDbLine
 10
95.42555039139475
 20
40.50537096434176
 11
114.4255503913948
 21
40.50537096434176
  0
LINE
  5
BA
100
AcDbEntity
  8
dispo3
  6
ByLayer
 62
  256
370
   -1
100
AcDbLine
 10
95.42555039139475
 20
21.50537096434176
 11
114.4255503913948
 21
21.50537096434176
  0
LINE
  5
BB
100
AcDbEntity
  8
dispo3
  6
ByLayer
 62
  256
370
   -1
100
AcDbLine
 10
95.42555039139475
 20
2.505370964341765
 11
114.4255503913948
 21
2.505370964341758
  0
LINE
  5
BC
100
AcDbEntity
  8
dispo3
  6
ByLayer
 62
  256
370
   -1
100
AcDbLine
 10
95.42555039139475
 20
-16.49462903565824
 11
114.4255503913948
 21
-16.49462903565824
  0
LINE
  5
BD
100
AcDbEntity
  8
dispo3
  6
ByLayer
 62
  256
370
   -1
100
AcDbLine
 10
-95.42555039139476
 20
-16.49462903565823
 11
-95.42555039139475
 21
40.50537096434175
  0
LINE
  5
BE
100
AcDbEntity
  8
dispo3
  6
ByLayer
 62
  256
370
   -1
100
AcDbLine
 10
-76.47183343645811
 20
-13.07000203679659
 11
-72.49571443304296
 21
43.7911488280134
  0
LINE
  5
BF
100
AcDbEntity
  8
dispo3
  6
ByLayer
 62
  256
370
   -1
100
AcDbLine
 10
-49.39253012535997
 20
45.46941820196579
 11
-57.3253968800837
 21
-10.97586171630369
  0
LINE
  5
C0
100
AcDbEntity
  8
dispo3
  6
ByLayer
 62
  256
370
   -1
100
AcDbLine
 10
-68.2076234314498
 20
48.11370712020704
 11
-76.14049018617354
 21
-8.331572798062446
  0
LINE
  5
C1
100
AcDbEntity
  8
dispo3
  6
ByLayer
 62
  256
370
   -1
100
AcDbLine
 10
-95.42555039139478
 20
-11.74462903565823
 11
-91.44943138797963
 21
45.11652182915174
  0
LINE
  5
C2
100
AcDbEntity
  8
dispo3
  6
ByLayer
 62
  256
370
   -1
100
AcDbLine
 10
-114.4255503913948
 20
-16.49462903565825
 11
-114.4255503913948
 21
40.50537096434176
  0
LINE
  5
C3
100
AcDbEntity
  8
dispo3
  6
ByLayer
 62
  256
370
   -1
100
AcDbLine
 10
-49.39253012535997
 20
45.46941820196579
 11
-68.2076234314498
 21
48.11370712020704
  0
LINE
  5
C4
100
AcDbEntity
  8
dispo3
  6
ByLayer
 62
  256
370
   -1
100
AcDbLine
 10
-52.03681904360121
 20
26.65432489587595
 11
-70.85191234969105
 21
29.2986138141172
  0
LINE
  5
C5
100
AcDbEntity
  8
dispo3
  6
ByLayer
 62
  256
370
   -1
100
AcDbLine
 10
-54.68110796184246
 20
7.839231589786117
 11
-73.49620126793229
 21
10.48352050802739
  0
LINE
  5
C6
100
AcDbEntity
  8
dispo3
  6
ByLayer
 62
  256
370
   -1
100
AcDbLine
 10
-57.3253968800837
 20
-10.97586171630369
 11
-76.14049018617354
 21
-8.331572798062446
  0
LINE
  5
C7
100
AcDbEntity
  8
dispo3
  6
ByLayer
 62
  256
370
   -1
100
AcDbLine
 10
-76.47183343645811
 20
-13.07000203679659
 11
-95.42555039139476
 21
-11.74462903565804
  0
LINE
  5
C8
100
AcDbEntity
  8
dispo3
  6
ByLayer
 62
  256
370
   -1
100
AcDbLine
 10
-75.14646043531955
 20
5.883714918140033
 11
-94.10017739025621
 21
7.209087919278591
  0
LINE
  5
C9
100
AcDbEntity
  8
dispo3
  6
ByLayer
 62
  256
370
   -1
100
AcDbLine
 10
-73.821087434181
 20
24.83743187307666
 11
-92.77480438911765
 21
26.16280487421528
  0
LINE
  5
CA
100
AcDbEntity
  8
dispo3
  6
ByLayer
 62
  256
370
   -1
100
AcDbLine
 10
-72.49571443304244
 20
43.79114882801338
 11
-91.44943138797909
 21
45.11652182915188
  0
LINE
  5
CB
100
AcDbEntity
  8
dispo3
  6
ByLayer
 62
  256
370
   -1
100
AcDbLine
 10
-95.42555039139475
 20
40.50537096434175
 11
-114.4255503913948
 21
40.50537096434176
  0
LINE
  5
CC
100
AcDbEntity
  8
dispo3
  6
ByLayer
 62
  256
370
   -1
100
AcDbLine
 10
-95.42555039139475
 20
21.50537096434172
 11
-114.4255503913948
 21
21.50537096434173
  0
LINE
  5
CD
100
AcDbEntity
  8
dispo3
  6
ByLayer
 62
  256
370
   -1
100
AcDbLine
 10
-95.42555039139475
 20
2.505370964341779
 11
-114.4255503913948
 21
2.505370964341786
  0
LINE
  5
CE
100
AcDbEntity
  8
dispo3
  6
ByLayer
 62
  256
370
   -1
100
AcDbLine
 10
-95.42555039139475
 20
-16.49462903565825
 11
-114.4255503913948
 21
-16.49462903565824
  0
ARC
  5
CF
100
AcDbEntity
  8
pcb
  6
ByLayer
 62
  256
370
   -1
100
AcDbCircle
 10
110.0549711846793
 20
43.72887365106069
 40
5
100
AcDbArc
 50
1.526666247102488e-13
 51
89.99999999999952
  0
ARC
  5
D0
100
AcDbEntity
  8
pcb
  6
ByLayer
 62
  256
370
   -1
100
AcDbCircle
 10
-110.0549711846793
 20
43.72887365106069
 40
5
100
AcDbArc
 50
90
 51
179.9999999999999
  0
LINE
  5
D1
100
AcDbEntity
  8
pcb
  6
ByLayer
 62
  256
370
   -1
100
AcDbLine
 10
-110.0549711846793
 20
48.72887365106069
 11
-64.05923491741372
 21
48.72887365106069
  0
LINE
  5
D2
100
AcDbEntity
  8
pcb
  6
ByLayer
 62
  256
370
   -1
100
AcDbLine
 10
110.0549711846793
 20
48.72887365106069
 11
64.05923491741372
 21
48.72887365106069
  0
LINE
  5
D3
100
AcDbEntity
  8
pcb
  6
ByLayer
 62
  256
370
   -1
100
AcDbLine
 10
16.78886903353407
 20
-48.72887365106073
 11
111.0945296387681
 21
-28.68358668679213
  0
LINE
  5
D4
100
AcDbEntity
  8
pcb
  6
ByLayer
 62
  256
370
   -1
100
AcDbLine
 10
115.0549711846793
 20
-23.7928486831231
 11
115.0549711846793
 21
43.7288736510607
  0
ARC
  5
D5
100
AcDbEntity
  8
pcb
  6
ByLayer
 62
  256
370
   -1
100
AcDbCircle
 10
110.0549711846793
 20
-23.79284868312309
 40
5
100
AcDbArc
 50
281.9999999999999
 51
359.9999999999998
  0
LINE
  5
D6
100
AcDbEntity
  8
pcb
  6
ByLayer
 62
  256
370
   -1
100
AcDbLine
 10
-115.0549711846793
 20
-23.79284868312308
 11
-115.0549711846793
 21
43.7288736510607
  0
LINE
  5
D7
100
AcDbEntity
  8
pcb
  6
ByLayer
 62
  256
370
   -1
100
AcDbLine
 10
-16.78886903353407
 20
-48.72887365106073
 11
-111.0945296387681
 21
-28.6835866867921
  0
ARC
  5
D8
100
AcDbEntity
  8
pcb
  6
ByLayer
 62
  256
370
   -1
100
AcDbCircle
 10
-110.0549711846793
 20
-23.79284868312308
 40
5
100
AcDbArc
 50
179.9999999999999
 51
257.9999999999999
  0
LINE
  5
D9
100
AcDbEntity
  8
pcb
  6
ByLayer
 62
  256
370
   -1
100
AcDbLine
 10
-16.78886903353401
 20
-48.72887365106074
 11
16.78886903353407
 21
-48.72887365106073
  0
LINE
  5
DA
100
AcDbEntity
  8
pcb
  6
ByLayer
 62
  256
370
   -1
100
AcDbLine
 10
-8.30482167558681
 20
36.87790727444823
 11
8.304821675586821
 21
36.87790727444822
  0
LINE
  5
DB
100
AcDbEntity
  8
pcb
  6
ByLayer
 62
  256
370
   -1
100
AcDbLine
 10
8.304821675586821
 20
36.87790727444822
 11
64.05923491741372
 21
48.72887365106069
  0
LINE
  5
DC
100
AcDbEntity
  8
pcb
  6
ByLayer
 62
  256
370
   -1
100
AcDbLine
 10
-8.30482167558681
 20
36.87790727444823
 11
-64.05923491741372
 21
48.72887365106069
  0
CIRCLE
  5
DD
100
AcDbEntity
  8
rpi
  6
ByLayer
 62
  256
370
   -1
100
AcDbCircle
 10
7.619999999999997
 20
17.78
 40
0.7493
  0
CIRCLE
  5
DE
100
AcDbEntity
  8
rpi
  6
ByLayer
 62
  256
370
   -1
100
AcDbCircle
 10
7.619999999999997
 20
15.24
 40
0.7493
  0
CIRCLE
  5
DF
100
AcDbEntity
  8
rpi
  6
ByLayer
 62
  256
370
   -1
100
AcDbCircle
 10
7.619999999999997
 20
12.7
 40
0.7493
  0
CIRCLE
  5
E0
100
AcDbEntity
  8
rpi
  6
ByLayer
 62
  256
370
   -1
100
AcDbCircle
 10
7.619999999999996
 20
10.16
 40
0.7493
  0
CIRCLE
  5
E1
100
AcDbEntity
  8
rpi
  6
ByLayer
 62
  256
370
   -1
100
AcDbCircle
 10
7.619999999999996
 20
7.62
 40
0.7493
  0
CIRCLE
  5
E2
100
AcDbEntity
  8
rpi
  6
ByLayer
 62
  256
370
   -1
100
AcDbCircle
 10
7.619999999999996
 20
5.08
 40
0.7493
  0
CIRCLE
  5
E3
100
AcDbEntity
  8
rpi
  6
ByLayer
 62
  256
370
   -1
100
AcDbCircle
 10
7.619999999999995
 20
2.54
 40
0.7493
  0
CIRCLE
  5
E4
100
AcDbEntity
  8
rpi
  6
ByLayer
 62
  256
370
   -1
100
AcDbCircle
 10
7.619999999999995
 20
0
 40
0.7493
  0
CIRCLE
  5
E5
100
AcDbEntity
  8
rpi
  6
ByLayer
 62
  256
370
   -1
100
AcDbCircle
 10
7.619999999999997
 20
20.32
 40
0.7493
  0
CIRCLE
  5
E6
100
AcDbEntity
  8
rpi
  6
ByLayer
 62
  256
370
   -1
100
AcDbCircle
 10
5.079999999999994
 20
0
 40
0.7493
  0
CIRCLE
  5
E7
100
AcDbEntity
  8
rpi
  6
ByLayer
 62
  256
370
   -1
100
AcDbCircle
 10
2.539999999999994
 20
0
 40
0.7493
  0
CIRCLE
  5
E8
100
AcDbEntity
  8
rpi
  6
ByLayer
 62
  256
370
   -1
100
AcDbCircle
 10
-5.700941996030782e-15
 20
0
 40
0.7493
  0
CIRCLE
  5
E9
100
AcDbEntity
  8
rpi
  6
ByLayer
 62
  256
370
   -1
100
AcDbCircle
 10
-2.540000000000005
 20
0
 40
0.7493
  0
CIRCLE
  5
EA
100
AcDbEntity
  8
rpi
  6
ByLayer
 62
  256
370
   -1
100
AcDbCircle
 10
-5.080000000000006
 20
0
 40
0.7493
  0
CIRCLE
  5
EB
100
AcDbEntity
  8
rpi
  6
ByLayer
 62
  256
370
   -1
100
AcDbCircle
 10
-7.620000000000007
 20
0
 40
0.7493
  0
CIRCLE
  5
EC
100
AcDbEntity
  8
rpi
  6
ByLayer
 62
  256
370
   -1
100
AcDbCircle
 10
-7.620000000000007
 20
2.54
 40
0.7493
  0
CIRCLE
  5
ED
100
AcDbEntity
  8
rpi
  6
ByLayer
 62
  256
370
   -1
100
AcDbCircle
 10
-7.620000000000006
 20
5.08
 40
0.7493
  0
CIRCLE
  5
EE
100
AcDbEntity
  8
rpi
  6
ByLayer
 62
  256
370
   -1
100
AcDbCircle
 10
-7.620000000000006
 20
7.62
 40
0.7493
  0
CIRCLE
  5
EF
100
AcDbEntity
  8
rpi
  6
ByLayer
 62
  256
370
   -1
100
AcDbCircle
 10
-7.620000000000006
 20
10.16
 40
0.7493
  0
CIRCLE
  5
F0
100
AcDbEntity
  8
rpi
  6
ByLayer
 62
  256
370
   -1
100
AcDbCircle
 10
-7.620000000000005
 20
12.7
 40
0.7493
  0
CIRCLE
  5
F1
100
AcDbEntity
  8
rpi
  6
ByLayer
 62
  256
370
   -1
100
AcDbCircle
 10
-7.620000000000005
 20
15.24
 40
0.7493
  0
CIRCLE
  5
F2
100
AcDbEntity
  8
rpi
  6
ByLayer
 62
  256
370
   -1
100
AcDbCircle
 10
-7.620000000000005
 20
17.78
 40
0.7493
  0
CIRCLE
  5
F3
100
AcDbEntity
  8
rpi
  6
ByLayer
 62
  256
370
   -1
100
AcDbCircle
 10
-7.620000000000005
 20
20.32
 40
0.7493
  0
LINE
  5
F4
100
AcDbEntity
  8
rpi
  6
ByLayer
 62
  256
370
   -1
100
AcDbLine
 10
-8.890000000000004
 20
21.59
 11
-8.890000000000006
 21
-1.27
  0
LINE
  5
F5
100
AcDbEntity
  8
rpi
  6
ByLayer
 62
  256
370
   -1
100
AcDbLine
 10
-8.890000000000004
 20
21.59
 11
8.889999999999999
 21
21.59
  0
LINE
  5
F6
100
AcDbEntity
  8
rpi
  6
ByLayer
 62
  256
370
   -1
100
AcDbLine
 10
-8.890000000000006
 20
-1.27
 11
8.889999999999995
 21
-1.27
  0
LINE
  5
F7
100
AcDbEntity
  8
rpi
  6
ByLayer
 62
  256
370
   -1
100
AcDbLine
 10
8.889999999999999
 20
21.59
 11
8.889999999999995
 21
-1.27
  0
LINE
  5
F8
100
AcDbEntity
  8
0
  6
ByLayer
 62
  256
370
   -1
100
AcDbLine
 10
-9.5
 20
-5.572034618559202
 11
9.5
 21
-5.572034618559206
  0
LINE
  5
F9
100
AcDbEntity
  8
0
  6
ByLayer
 62
  256
370
   -1
100
AcDbLine
 10
9.5
 20
-5.572034618559206
 11
9.5
 21
-24.5720346185592
  0
LINE
  5
FA
100
AcDbEntity
  8
0
  6
ByLayer
 62
  256
370
   -1
100
AcDbLine
 10
9.5
 20
-24.5720346185592
 11
-9.5
 21
-24.5720346185592
  0
LINE
  5
FB
100
AcDbEntity
  8
0
  6
ByLayer
 62
  256
370
   -1
100
AcDbLine
 10
-9.5
 20
-24.5720346185592
 11
-9.5
 21
-5.572034618559202
  0
CIRCLE
  5
FC
100
AcDbEntity
  8
percage
  6
ByLayer
 62
  256
370
   -1
100
AcDbCircle
 10
110.0549711846793
 20
-23.79284868312309
 40
1.5
  0
CIRCLE
  5
FD
100
AcDbEntity
  8
percage
  6
ByLayer
 62
  256
370
   -1
100
AcDbCircle
 10
-110.0549711846793
 20
-23.79284868312308
 40
1.5
  0
CIRCLE
  5
FE
100
AcDbEntity
  8
percage
  6
ByLayer
 62
  256
370
   -1
100
AcDbCircle
 10
-110.0549711846793
 20
43.72887365106069
 40
1.5
  0
CIRCLE
  5
FF
100
AcDbEntity
  8
percage
  6
ByLayer
 62
  256
370
   -1
100
AcDbCircle
 10
110.0549711846793
 20
43.72887365106069
 40
1.5
  0
CIRCLE
  5
100
100
AcDbEntity
  8
percage
  6
ByLayer
 62
  256
370
   -1
100
AcDbCircle
 10
0
 20
-30
 40
1.5
  0
LINE
  5
101
100
AcDbEntity
  8
0
  6
ByLayer
 62
  256
370
   -1
100
AcDbLine
 10
-46.46201103485576
 20
40.13235042203767
 11
-31.82752874645089
 21
17.59722388255789
  0
LINE
  5
102
100
AcDbEntity
  8
0
  6
ByLayer
 62
  256
370
   -1
100
AcDbLine
 10
-31.82752874645089
 20
17.59722388255789
 11
-17.19304645804601
 21
-4.937902656921787
  0
LINE
  5
103
100
AcDbEntity
  8
0
  6
ByLayer
 62
  256
370
   -1
100
AcDbLine
 10
-27.87720662091346
 20
36.18202829650023
 11
-13.24272433250859
 21
13.6469017570205
  0
LINE
  5
104
100
AcDbEntity
  8
0
  6
ByLayer
 62
  256
370
   -1
100
AcDbLine
 10
-50.4123331603932
 20
21.54754600809535
 11
-35.77785087198832
 21
-0.9875805313843886
  0
LINE
  5
105
100
AcDbEntity
  8
0
  6
ByLayer
 62
  256
370
   -1
100
AcDbLine
 10
-35.77785087198832
 20
-0.9875805313843886
 11
-21.14336858358344
 21
-23.52270707086412
  0
LINE
  5
106
100
AcDbEntity
  8
0
  6
ByLayer
 62
  256
370
   -1
100
AcDbLine
 10
-54.36265528593063
 20
2.962741594153004
 11
-39.72817299752575
 21
-19.5723849453267
  0
LINE
  5
107
100
AcDbEntity
  8
0
  6
ByLayer
 62
  256
370
   -1
100
AcDbLine
 10
-63.94675904633799
 20
-19.28068339189049
 11
-44.66607565444751
 21
-42.80339046275459
  0
LINE
  5
108
100
AcDbEntity
  8
0
  6
ByLayer
 62
  256
370
   -1
100
AcDbLine
 10
-40.7157535289101
 20
-24.21858604881228
 11
-16.78886903353407
 21
-48.72887365106076
  0
LINE
  5
109
100
AcDbEntity
  8
0
  6
ByLayer
 62
  256
370
   -1
100
AcDbLine
 10
46.46201103485576
 20
40.13235042203763
 11
31.82752874645089
 21
17.59722388255793
  0
LINE
  5
10A
100
AcDbEntity
  8
0
  6
ByLayer
 62
  256
370
   -1
100
AcDbLine
 10
31.82752874645089
 20
17.59722388255793
 11
17.19304645804601
 21
-4.937902656921799
  0
LINE
  5
10B
100
AcDbEntity
  8
0
  6
ByLayer
 62
  256
370
   -1
100
AcDbLine
 10
27.87720662091346
 20
36.18202829650019
 11
13.24272433250859
 21
13.6469017570205
  0
LINE
  5
10C
100
AcDbEntity
  8
0
  6
ByLayer
 62
  256
370
   -1
100
AcDbLine
 10
50.4123331603932
 20
21.54754600809533
 11
35.77785087198832
 21
-0.9875805313843882
  0
LINE
  5
10D
100
AcDbEntity
  8
0
  6
ByLayer
 62
  256
370
   -1
100
AcDbLine
 10
35.77785087198832
 20
-0.9875805313843882
 11
21.14336858358344
 21
-23.52270707086412
  0
LINE
  5
10E
100
AcDbEntity
  8
0
  6
ByLayer
 62
  256
370
   -1
100
AcDbLine
 10
54.36265528593063
 20
2.962741594153
 11
39.72817299752575
 21
-19.57238494532671
  0
LINE
  5
10F
100
AcDbEntity
  8
0
  6
ByLayer
 62
  256
370
   -1
100
AcDbLine
 10
40.7157535289101
 20
-24.21858604881229
 11
16.78886903353407
 21
-48.72887365106076
  0
LINE
  5
110
100
AcDbEntity
  8
0
  6
ByLayer
 62
  256
370
   -1
100
AcDbLine
 10
-9.5
 20
-5.572034618559202
 11
9.5
 21
-24.5720346185592
  0
LINE
  5
111
100
AcDbEntity
  8
dispo1
  6
ByLayer
 62
  256
370
   -1
100
AcDbLine
 10
68.00955704295113
 20
30.14406923711837
 11
45.47443050347141
 21
44.77855152552323
  0
LINE
  5
112
100
AcDbEntity
  8
dispo1
  6
ByLayer
 62
  256
370
   -1
100
AcDbLine
 10
49.42475262900884
 20
26.19374711158093
 11
71.95987916848856
 21
11.55926482317608
  0
LINE
  5
113
100
AcDbEntity
  8
dispo1
  6
ByLayer
 62
  256
370
   -1
100
AcDbLine
 10
53.37507475454626
 20
7.608942697638613
 11
75.91020129402598
 21
-7.025539590766268
  0
LINE
  5
114
100
AcDbEntity
  8
dispo1
  6
ByLayer
 62
  256
370
   -1
100
AcDbLine
 10
87.58194198827778
 20
29.44819025917022
 11
65.04681544879806
 21
44.08267254757508
  0
LINE
  5
115
100
AcDbEntity
  8
dispo1
  6
ByLayer
 62
  256
370
   -1
100
AcDbLine
 10
68.99713757433548
 20
25.49786813363277
 11
91.5322641138152
 21
10.86338584522792
  0
LINE
  5
116
100
AcDbEntity
  8
dispo1
  6
ByLayer
 62
  256
370
   -1
100
AcDbLine
 10
72.94745969987291
 20
6.913063719690456
 11
95.48258623935263
 21
-7.721418568714419
  0
LINE
  5
117
100
AcDbEntity
  8
dispo1
  6
ByLayer
 62
  256
370
   -1
100
AcDbLine
 10
107.1543269336045
 20
28.75231128122206
 11
84.61920039412475
 21
43.38679356962692
  0
LINE
  5
118
100
AcDbEntity
  8
dispo1
  6
ByLayer
 62
  256
370
   -1
100
AcDbLine
 10
88.56952251966217
 20
24.80198915568462
 11
111.1046490591419
 21
10.16750686727976
  0
LINE
  5
119
100
AcDbEntity
  8
dispo1
  6
ByLayer
 62
  256
370
   -1
100
AcDbLine
 10
92.5198446451996
 20
6.217184741742301
 11
115.0549711846793
 21
-8.417297546662574
  0
LINE
  5
11A
100
AcDbEntity
  8
dispo1
  6
ByLayer
 62
  256
370
   -1
100
AcDbLine
 10
-68.00955704295113
 20
30.14406923711837
 11
-45.47443050347141
 21
44.77855152552322
  0
LINE
  5
11B
100
AcDbEntity
  8
dispo1
  6
ByLayer
 62
  256
370
   -1
100
AcDbLine
 10
-49.42475262900884
 20
26.19374711158094
 11
-71.95987916848856
 21
11.55926482317608
  0
LINE
  5
11C
100
AcDbEntity
  8
dispo1
  6
ByLayer
 62
  256
370
   -1
100
AcDbLine
 10
-53.37507475454626
 20
7.608942697638608
 11
-75.91020129402598
 21
-7.025539590766275
  0
LINE
  5
11D
100
AcDbEntity
  8
dispo1
  6
ByLayer
 62
  256
370
   -1
100
AcDbLine
 10
-87.58194198827778
 20
29.44819025917022
 11
-65.04681544879806
 21
44.08267254757509
  0
LINE
  5
11E
100
AcDbEntity
  8
dispo1
  6
ByLayer
 62
  256
370
   -1
100
AcDbLine
 10
-68.99713757433548
 20
25.49786813363279
 11
-91.5322641138152
 21
10.86338584522793
  0
LINE
  5
11F
100
AcDbEntity
  8
dispo1
  6
ByLayer
 62
  256
370
   -1
100
AcDbLine
 10
-72.94745969987291
 20
6.913063719690456
 11
-95.48258623935263
 21
-7.721418568714419
  0
LINE
  5
120
100
AcDbEntity
  8
dispo1
  6
ByLayer
 62
  256
370
   -1
100
AcDbLine
 10
-107.1543269336045
 20
28.75231128122206
 11
-84.61920039412475
 21
43.38679356962694
  0
LINE
  5
121
100
AcDbEntity
  8
dispo1
  6
ByLayer
 62
  256
370
   -1
100
AcDbLine
 10
-88.56952251966217
 20
24.80198915568463
 11
-111.1046490591419
 21
10.16750686727978
  0
LINE
  5
122
100
AcDbEntity
  8
dispo1
  6
ByLayer
 62
  256
370
   -1
100
AcDbLine
 10
-92.5198446451996
 20
6.217184741742301
 11
-115.0549711846793
 21
-8.41729754666256
  0
LINE
  5
123
100
AcDbEntity
  8
dispo2
  6
ByLayer
 62
  256
370
   -1
100
AcDbLine
 10
45.47443050347141
 20
44.77855152552327
 11
68.00955704295116
 21
30.14406923711837
  0
LINE
  5
124
100
AcDbEntity
  8
dispo2
  6
ByLayer
 62
  256
370
   -1
100
AcDbLine
 10
49.42475262900884
 20
26.19374711158094
 11
71.95987916848858
 21
11.55926482317607
  0
LINE
  5
125
100
AcDbEntity
  8
dispo2
  6
ByLayer
 62
  256
370
   -1
100
AcDbLine
 10
53.37507475454627
 20
7.60894269763864
 11
75.91020129402601
 21
-7.025539590766233
  0
LINE
  5
126
100
AcDbEntity
  8
dispo2
  6
ByLayer
 62
  256
370
   -1
100
AcDbLine
 10
74.42067069246195
 20
7.146397418231634
 11
95.30262750654455
 21
-9.763477791680144
  0
LINE
  5
127
100
AcDbEntity
  8
dispo2
  6
ByLayer
 62
  256
370
   -1
100
AcDbLine
 10
72.43462989037654
 20
26.04231343022883
 11
93.31658670445916
 21
9.132438220317049
  0
LINE
  5
128
100
AcDbEntity
  8
dispo2
  6
ByLayer
 62
  256
370
   -1
100
AcDbLine
 10
70.44858908829113
 20
44.93822944222602
 11
91.33054590237374
 21
28.02835423231424
  0
LINE
  5
129
100
AcDbEntity
  8
dispo2
  6
ByLayer
 62
  256
370
   -1
100
AcDbLine
 10
95.30262750654457
 20
42.48652220831985
 11
114.3026275065446
 21
23.48652220831985
  0
LINE
  5
12A
100
AcDbEntity
  8
dispo2
  6
ByLayer
 62
  256
370
   -1
100
AcDbLine
 10
114.3026275065446
 20
23.48652220831985
 11
95.30262750654455
 21
4.486522208319847
  0
LINE
  5
12B
100
AcDbEntity
  8
dispo2
  6
ByLayer
 62
  256
370
   -1
100
AcDbLine
 10
95.30262750654455
 20
4.486522208319847
 11
114.3026275065446
 21
-14.51347779168015
  0
LINE
  5
12C
100
AcDbEntity
  8
dispo2
  6
ByLayer
 62
  256
370
   -1
100
AcDbLine
 10
-45.47443050347141
 20
44.77855152552324
 11
-68.00955704295116
 21
30.14406923711839
  0
LINE
  5
12D
100
AcDbEntity
  8
dispo2
  6
ByLayer
 62
  256
370
   -1
100
AcDbLine
 10
-49.42475262900884
 20
26.19374711158095
 11
-71.95987916848858
 21
11.55926482317606
  0
LINE
  5
12E
100
AcDbEntity
  8
dispo2
  6
ByLayer
 62
  256
370
   -1
100
AcDbLine
 10
-53.37507475454627
 20
7.608942697638638
 11
-75.91020129402601
 21
-7.025539590766232
  0
LINE
  5
12F
100
AcDbEntity
  8
dispo2
  6
ByLayer
 62
  256
370
   -1
100
AcDbLine
 10
-74.42067069246195
 20
7.146397418231639
 11
-95.30262750654455
 21
-9.763477791680154
  0
LINE
  5
130
100
AcDbEntity
  8
dispo2
  6
ByLayer
 62
  256
370
   -1
100
AcDbLine
 10
-72.43462989037654
 20
26.04231343022882
 11
-93.31658670445916
 21
9.132438220317049
  0
LINE
  5
131
100
AcDbEntity
  8
dispo2
  6
ByLayer
 62
  256
370
   -1
100
AcDbLine
 10
-70.44858908829113
 20
44.93822944222605
 11
-91.33054590237374
 21
28.02835423231425
  0
LINE
  5
132
100
AcDbEntity
  8
dispo2
  6
ByLayer
 62
  256
370
   -1
100
AcDbLine
 10
-95.30262750654457
 20
42.48652220831986
 11
-114.3026275065446
 21
23.48652220831986
  0
LINE
  5
133
100
AcDbEntity
  8
dispo2
  6
ByLayer
 62
  256
370
   -1
100
AcDbLine
 10
-114.3026275065446
 20
23.48652220831986
 11
-95.30262750654455
 21
4.486522208319834
  0
LINE
  5
134
100
AcDbEntity
  8
dispo2
  6
ByLayer
 62
  256
370
   -1
100
AcDbLine
 10
-95.30262750654455
 20
4.486522208319834
 11
-114.3026275065446
 21
-14.51347779168015
  0
LINE
  5
135
100
AcDbEntity
  8
dispo3
  6
ByLayer
 62
  256
370
   -1
100
AcDbLine
 10
49.39253012535997
 20
45.46941820196583
 11
70.85191234969105
 21
29.29861381411722
  0
LINE
  5
136
100
AcDbEntity
  8
dispo3
  6
ByLayer
 62
  256
370
   -1
100
AcDbLine
 10
70.85191234969105
 20
29.29861381411722
 11
54.68110796184246
 21
7.839231589786146
  0
LINE
  5
137
100
AcDbEntity
  8
dispo3
  6
ByLayer
 62
  256
370
   -1
100
AcDbLine
 10
54.68110796184246
 20
7.839231589786146
 11
76.14049018617352
 21
-8.331572798062448
  0
LINE
  5
138
100
AcDbEntity
  8
dispo3
  6
ByLayer
 62
  256
370
   -1
100
AcDbLine
 10
76.47183343645811
 20
-13.07000203679661
 11
94.10017739025638
 21
7.20908791927861
  0
LINE
  5
139
100
AcDbEntity
  8
dispo3
  6
ByLayer
 62
  256
370
   -1
100
AcDbLine
 10
94.10017739025638
 20
7.20908791927861
 11
73.82108743418135
 21
24.83743187307671
  0
LINE
  5
13A
100
AcDbEntity
  8
dispo3
  6
ByLayer
 62
  256
370
   -1
100
AcDbLine
 10
73.82108743418135
 20
24.83743187307671
 11
91.44943138797962
 21
45.11652182915193
  0
LINE
  5
13B
100
AcDbEntity
  8
dispo3
  6
ByLayer
 62
  256
370
   -1
100
AcDbLine
 10
95.42555039139475
 20
40.50537096434176
 11
114.4255503913948
 21
21.50537096434176
  0
LINE
  5
13C
100
AcDbEntity
  8
dispo3
  6
ByLayer
 62
  256
370
   -1
100
AcDbLine
 10
114.4255503913948
 20
21.50537096434176
 11
95.42555039139476
 21
2.505370964341765
  0
LINE
  5
13D
100
AcDbEntity
  8
dispo3
  6
ByLayer
 62
  256
370
   -1
100
AcDbLine
 10
95.42555039139476
 20
2.505370964341765
 11
114.4255503913948
 21
-16.49462903565824
  0
LINE
  5
13E
100
AcDbEntity
  8
dispo3
  6
ByLayer
 62
  256
370
   -1
100
AcDbLine
 10
-49.39253012535997
 20
45.46941820196582
 11
-70.85191234969105
 21
29.29861381411722
  0
LINE
  5
13F
100
AcDbEntity
  8
dispo3
  6
ByLayer
 62
  256
370
   -1
100
AcDbLine
 10
-70.85191234969105
 20
29.29861381411722
 11
-54.68110796184246
 21
7.839231589786144
  0
LINE
  5
140
100
AcDbEntity
  8
dispo3
  6
ByLayer
 62
  256
370
   -1
100
AcDbLine
 10
-54.68110796184246
 20
7.839231589786144
 11
-76.14049018617352
 21
-8.331572798062437
  0
LINE
  5
141
100
AcDbEntity
  8
dispo3
  6
ByLayer
 62
  256
370
   -1
100
AcDbLine
 10
-76.47183343645811
 20
-13.07000203679661
 11
-94.10017739025638
 21
7.209087919278608
  0
LINE
  5
142
100
AcDbEntity
  8
dispo3
  6
ByLayer
 62
  256
370
   -1
100
AcDbLine
 10
-94.10017739025638
 20
7.209087919278608
 11
-73.82108743418135
 21
24.83743187307671
  0
LINE
  5
143
100
AcDbEntity
  8
dispo3
  6
ByLayer
 62
  256
370
   -1
100
AcDbLine
 10
-73.82108743418135
 20
24.83743187307671
 11
-91.44943138797962
 21
45.11652182915194
  0
LINE
  5
144
100
AcDbEntity
  8
dispo3
  6
ByLayer
 62
  256
370
   -1
100
AcDbLine
 10
-95.42555039139475
 20
40.50537096434174
 11
-114.4255503913948
 21
21.50537096434177
  0
LINE
  5
145
100
AcDbEntity
  8
dispo3
  6
ByLayer
 62
  256
370
   -1
100
AcDbLine
 10
-114.4255503913948
 20
21.50537096434177
 11
-95.42555039139476
 21
2.505370964341764
  0
LINE
  5
146
100
AcDbEntity
  8
dispo3
  6
ByLayer
 62
  256
370
   -1
100
AcDbLine
 10
-95.42555039139476
 20
2.505370964341764
 11
-114.4255503913948
 21
-16.49462903565824
  0
LINE
  5
147
100
AcDbEntity
  8
rpi
  6
ByLayer
 62
  256
370
   -1
100
AcDbLine
 10
-8.890000000000004
 20
21.59
 11
8.889999999999995
 21
-1.27
  0
ARC
  5
148
100
AcDbEntity
  8
ext1
  6
ByLayer
 62
  256
370
   -1
100
AcDbCircle
 10
110.0549711846793
 20
43.72887365106069
 40
6
100
AcDbArc
 50
1.526666247102488e-13
 51
89.99999999999952
  0
LINE
  5
149
100
AcDbEntity
  8
ext1
  6
ByLayer
 62
  256
370
   -1
100
AcDbLine
 10
116.0549711846793
 20
-23.7928486831231
 11
116.0549711846793
 21
43.7288736510607
  0
ARC
  5
14A
100
AcDbEntity
  8
ext1
  6
ByLayer
 62
  256
370
   -1
100
AcDbCircle
 10
110.0549711846793
 20
-23.79284868312309
 40
6
100
AcDbArc
 50
281.9999999999999
 51
359.9999999999998
  0
ARC
  5
14B
100
AcDbEntity
  8
ext1
  6
ByLayer
 62
  256
370
   -1
100
AcDbCircle
 10
-110.0549711846793
 20
-23.79284868312308
 40
6
100
AcDbArc
 50
179.9999999999999
 51
257.9999999999999
  0
LINE
  5
14C
100
AcDbEntity
  8
ext1
  6
ByLayer
 62
  256
370
   -1
100
AcDbLine
 10
-116.0549711846793
 20
-23.79284868312308
 11
-116.0549711846793
 21
43.7288736510607
  0
ARC
  5
14D
100
AcDbEntity
  8
ext1
  6
ByLayer
 62
  256
370
   -1
100
AcDbCircle
 10
-110.0549711846793
 20
43.72887365106069
 40
6
100
AcDbArc
 50
90
 51
179.9999999999999
  0
LINE
  5
14E
100
AcDbEntity
  8
ext1
  6
ByLayer
 62
  256
370
   -1
100
AcDbLine
 10
-110.0549711846793
 20
49.72887365106069
 11
-63.95413068214805
 21
49.72887365106069
  0
LINE
  5
14F
100
AcDbEntity
  8
ext1
  6
ByLayer
 62
  256
370
   -1
100
AcDbLine
 10
-8.096909984769047
 20
37.85605487518204
 11
-63.95413068214805
 21
49.72887365106069
  0
LINE
  5
150
100
AcDbEntity
  8
ext1
  6
ByLayer
 62
  256
370
   -1
100
AcDbLine
 10
8.096909984769058
 20
37.85605487518202
 11
63.95413068214802
 21
49.72887365106069
  0
LINE
  5
151
100
AcDbEntity
  8
ext1
  6
ByLayer
 62
  256
370
   -1
100
AcDbLine
 10
110.0549711846793
 20
49.72887365106069
 11
63.95413068214802
 21
49.72887365106069
  0
LINE
  5
152
100
AcDbEntity
  8
ext1
  6
ByLayer
 62
  256
370
   -1
100
AcDbLine
 10
16.89397326879973
 20
-49.72887365106074
 11
111.3024413295858
 21
-29.66173428752593
  0
LINE
  5
153
100
AcDbEntity
  8
ext1
  6
ByLayer
 62
  256
370
   -1
100
AcDbLine
 10
-16.8939732687997
 20
-49.72887365106074
 11
-111.3024413295859
 21
-29.66173428752591
  0
LINE
  5
154
100
AcDbEntity
  8
ext1
  6
ByLayer
 62
  256
370
   -1
100
AcDbLine
 10
-16.8939732687997
 20
-49.72887365106074
 11
16.89397326879973
 21
-49.72887365106074
  0
LINE
  5
155
100
AcDbEntity
  8
ext1
  6
ByLayer
 62
  256
370
   -1
100
AcDbLine
 10
-8.096909984769047
 20
37.85605487518204
 11
8.096909984769058
 21
37.85605487518202
  0
ARC
  5
156
100
AcDbEntity
  8
ext2
  6
ByLayer
 62
  256
370
   -1
100
AcDbCircle
 10
110.0549711846793
 20
43.72887365106069
 40
10
100
AcDbArc
 50
1.526666247102488e-13
 51
89.99999999999952
  0
ARC
  5
157
100
AcDbEntity
  8
ext2
  6
ByLayer
 62
  256
370
   -1
100
AcDbCircle
 10
-110.0549711846793
 20
43.72887365106069
 40
10
100
AcDbArc
 50
90
 51
179.9999999999999
  0
LINE
  5
158
100
AcDbEntity
  8
ext2
  6
ByLayer
 62
  256
370
   -1
100
AcDbLine
 10
110.0549711846794
 20
53.72887365106069
 11
-110.0549711846793
 21
53.72887365106069
  0
LINE
  5
159
100
AcDbEntity
  8
ext2
  6
ByLayer
 62
  256
370
   -1
100
AcDbLine
 10
120.0549711846793
 20
-32.8033904627546
 11
120.0549711846793
 21
43.7288736510607
  0
ARC
  5
15A
100
AcDbEntity
  8
ext2
  6
ByLayer
 62
  256
370
   -1
100
AcDbCircle
 10
110.0549711846793
 20
-32.8033904627546
 40
10
100
AcDbArc
 50
270
 51
0
  0
LINE
  5
15B
100
AcDbEntity
  8
ext2
  6
ByLayer
 62
  256
370
   -1
100
AcDbLine
 10
-120.0549711846793
 20
-32.80339046275459
 11
-120.0549711846793
 21
43.7288736510607
  0
ARC
  5
15C
100
AcDbEntity
  8
ext2
  6
ByLayer
 62
  256
370
   -1
100
AcDbCircle
 10
-110.0549711846793
 20
-32.80339046275459
 40
10
100
AcDbArc
 50
180
 51
270
  0
LINE
  5
15D
100
AcDbEntity
  8
ext3
  6
ByLayer
 62
  256
370
   -1
100
AcDbLine
 10
110.0549711846794
 20
55.72887365106069
 11
-110.0549711846793
 21
55.72887365106069
  0
ARC
  5
15E
100
AcDbEntity
  8
ext3
  6
ByLayer
 62
  256
370
   -1
100
AcDbCircle
 10
110.0549711846793
 20
43.72887365106069
 40
12
100
AcDbArc
 50
1.526666247102488e-13
 51
89.99999999999952
  0
ARC
  5
15F
100
AcDbEntity
  8
ext3
  6
ByLayer
 62
  256
370
   -1
100
AcDbCircle
 10
110.0549711846793
 20
-32.8033904627546
 40
12
100
AcDbArc
 50
270
 51
0
  0
ARC
  5
160
100
AcDbEntity
  8
ext3
  6
ByLayer
 62
  256
370
   -1
100
AcDbCircle
 10
-110.0549711846793
 20
-32.80339046275459
 40
12
100
AcDbArc
 50
180
 51
270
  0
LINE
  5
161
100
AcDbEntity
  8
ext3
  6
ByLayer
 62
  256
370
   -1
100
AcDbLine
 10
-122.0549711846793
 20
-32.80339046275459
 11
-122.0549711846793
 21
43.7288736510607
  0
ARC
  5
162
100
AcDbEntity
  8
ext3
  6
ByLayer
 62
  256
370
   -1
100
AcDbCircle
 10
-110.0549711846793
 20
43.72887365106069
 40
12
100
AcDbArc
 50
90
 51
179.9999999999999
  0
LINE
  5
163
100
AcDbEntity
  8
ext3
  6
ByLayer
 62
  256
370
   -1
100
AcDbLine
 10
122.0549711846793
 20
-32.8033904627546
 11
122.0549711846793
 21
43.7288736510607
  0
LINE
  5
164
100
AcDbEntity
  8
ext3
  6
ByLayer
 62
  256
370
   -1
100
AcDbLine
 10
110.0549711846793
 20
-44.8033904627546
 11
69.97599820135628
 21
-44.80339046275459
  0
ARC
  5
165
100
AcDbEntity
  8
ext3
  6
ByLayer
 62
  256
370
   -1
100
AcDbCircle
 10
69.97599820135628
 20
-54.80339046275459
 40
10
100
AcDbArc
 50
90
 51
101.9999999999999
  0
LINE
  5
166
100
AcDbEntity
  8
ext3
  6
ByLayer
 62
  256
370
   -1
100
AcDbLine
 10
18.55267323591455
 20
-55.5103496583988
 11
67.89688129317869
 21
-45.02191445541654
  0
ARC
  5
167
100
AcDbEntity
  8
ext3
  6
ByLayer
 62
  256
370
   -1
100
AcDbCircle
 10
16.47355632773696
 20
-45.72887365106074
 40
10
100
AcDbArc
 50
270
 51
282
  0
LINE
  5
168
100
AcDbEntity
  8
ext3
  6
ByLayer
 62
  256
370
   -1
100
AcDbLine
 10
-16.47355632773701
 20
-55.72887365106074
 11
16.47355632773696
 21
-55.72887365106074
  0
ARC
  5
169
100
AcDbEntity
  8
ext3
  6
ByLayer
 62
  256
370
   -1
100
AcDbCircle
 10
-16.47355632773701
 20
-45.72887365106074
 40
10
100
AcDbArc
 50
258
 51
270
  0
LINE
  5
16A
100
AcDbEntity
  8
ext3
  6
ByLayer
 62
  256
370
   -1
100
AcDbLine
 10
-18.55267323591461
 20
-55.51034965839879
 11
-67.89688129317861
 21
-45.02191445541654
  0
LINE
  5
16B
100
AcDbEntity
  8
ext3
  6
ByLayer
 62
  256
370
   -1
100
AcDbLine
 10
-69.97599820135622
 20
-44.80339046275459
 11
-110.0549711846793
 21
-44.80339046275459
  0
ARC
  5
16C
100
AcDbEntity
  8
ext3
  6
ByLayer
 62
  256
370
   -1
100
AcDbCircle
 10
-69.97599820135622
 20
-54.80339046275459
 40
10
100
AcDbArc
 50
77.9999999999999
 51
90
  0
LINE
  5
16D
100
AcDbEntity
  8
ext2
  6
ByLayer
 62
  256
370
   -1
100
AcDbLine
 10
-69.76578973082491
 20
-42.80339046275459
 11
-110.0549711846793
 21
-42.80339046275459
  0
ARC
  5
16E
100
AcDbEntity
  8
ext2
  6
ByLayer
 62
  256
370
   -1
100
AcDbCircle
 10
-69.76578973082491
 20
-52.80339046275459
 40
10
100
AcDbArc
 50
78.00000000000007
 51
90
  0
LINE
  5
16F
100
AcDbEntity
  8
ext2
  6
ByLayer
 62
  256
370
   -1
100
AcDbLine
 10
-18.34246476538327
 20
-53.51034965839879
 11
-67.68667282264732
 21
-43.02191445541653
  0
ARC
  5
170
100
AcDbEntity
  8
ext2
  6
ByLayer
 62
  256
370
   -1
100
AcDbCircle
 10
-16.26334785720567
 20
-43.72887365106074
 40
10
100
AcDbArc
 50
258
 51
270
  0
LINE
  5
171
100
AcDbEntity
  8
ext2
  6
ByLayer
 62
  256
370
   -1
100
AcDbLine
 10
-16.26334785720567
 20
-53.72887365106074
 11
16.26334785720564
 21
-53.72887365106074
  0
ARC
  5
172
100
AcDbEntity
  8
ext2
  6
ByLayer
 62
  256
370
   -1
100
AcDbCircle
 10
16.26334785720564
 20
-43.72887365106074
 40
10
100
AcDbArc
 50
270
 51
281.9999999999999
  0
LINE
  5
173
100
AcDbEntity
  8
ext2
  6
ByLayer
 62
  256
370
   -1
100
AcDbLine
 10
110.0549711846793
 20
-42.8033904627546
 11
69.76578973082496
 21
-42.80339046275459
  0
LINE
  5
174
100
AcDbEntity
  8
ext2
  6
ByLayer
 62
  256
370
   -1
100
AcDbLine
 10
18.34246476538324
 20
-53.51034965839879
 11
67.68667282264737
 21
-43.02191445541654
  0
ARC
  5
175
100
AcDbEntity
  8
ext2
  6
ByLayer
 62
  256
370
   -1
100
AcDbCircle
 10
69.76578973082496
 20
-52.80339046275459
 40
10
100
AcDbArc
 50
90
 51
102
  0
LINE
  5
176
100
AcDbEntity
  8
rpi-decoup
  6
ByLayer
 62
  256
370
   -1
100
AcDbLine
 10
-20
 20
60
 11
20
 21
60
  0
LINE
  5
177
100
AcDbEntity
  8
rpi-decoup
  6
ByLayer
 62
  256
370
   -1
100
AcDbLine
 10
20
 20
60
 11
20
 21
30
  0
LINE
  5
178
100
AcDbEntity
  8
rpi-decoup
  6
ByLayer
 62
  256
370
   -1
100
AcDbLine
 10
20
 20
30
 11
-20
 21
30
  0
LINE
  5
179
100
AcDbEntity
  8
rpi-decoup
  6
ByLayer
 62
  256
370
   -1
100
AcDbLine
 10
-20
 20
30
 11
-20
 21
60
  0
LINE
  5
17A
100
AcDbEntity
  8
int
  6
ByLayer
 62
  256
370
   -1
100
AcDbLine
 10
-113.0549711846793
 20
-15.5314928621938
 11
-113.0549711846793
 21
35.467517830132
  0
LINE
  5
17B
100
AcDbEntity
  8
int
  6
ByLayer
 62
  256
370
   -1
100
AcDbLine
 10
113.0549711846793
 20
-15.53149286219391
 11
113.0549711846793
 21
35.46751783013123
  0
ARC
  5
17C
100
AcDbEntity
  8
int
  6
ByLayer
 62
  256
370
   -1
100
AcDbCircle
 10
101.7936153637502
 20
41.72887365106069
 40
5
100
AcDbArc
 50
18.72086361149737
 51
90
  0
ARC
  5
17D
100
AcDbEntity
  8
int
  6
ByLayer
 62
  256
370
   -1
100
AcDbCircle
 10
108.0549711846793
 20
35.46751783013122
 40
5
100
AcDbArc
 50
7.63333123551244e-14
 51
71.2791363884987
  0
ARC
  5
17E
100
AcDbEntity
  8
int
  6
ByLayer
 62
  256
370
   -1
100
AcDbCircle
 10
111.2645500372277
 20
44.93845250360848
 40
5
100
AcDbArc
 50
198.7208636114974
 51
251.2791363884988
  0
ARC
  5
17F
100
AcDbEntity
  8
int
  6
ByLayer
 62
  256
370
   -1
100
AcDbCircle
 10
101.5583224279935
 20
-23.55418593883203
 40
5
100
AcDbArc
 50
282.0000000000001
 51
352.0752803153224
  0
ARC
  5
180
100
AcDbEntity
  8
int
  6
ByLayer
 62
  256
370
   -1
100
AcDbCircle
 10
108.0549711846793
 20
-15.53149286219391
 40
5
100
AcDbArc
 50
289.9247196846768
 51
0
  0
ARC
  5
181
100
AcDbEntity
  8
int
  6
ByLayer
 62
  256
370
   -1
100
AcDbCircle
 10
111.462823147931
 20
-24.93290472406667
 40
5
100
AcDbArc
 50
109.9247196846768
 51
172.0752803153224
  0
ARC
  5
182
100
AcDbEntity
  8
int
  6
ByLayer
 62
  256
370
   -1
100
AcDbCircle
 10
-5.985686155604316
 20
-31.5720346185592
 40
5
100
AcDbArc
 50
90
 51
168
  0
LINE
  5
183
100
AcDbEntity
  8
int
  6
ByLayer
 62
  256
370
   -1
100
AcDbLine
 10
5.985686155604311
 20
-26.5720346185592
 11
-5.985686155604316
 21
-26.5720346185592
  0
ARC
  5
184
100
AcDbEntity
  8
int
  6
ByLayer
 62
  256
370
   -1
100
AcDbCircle
 10
5.98568615560431
 20
-31.5720346185592
 40
5
100
AcDbArc
 50
11.99999999999997
 51
89.99999999999999
  0
LINE
  5
185
100
AcDbEntity
  8
int
  6
ByLayer
 62
  256
370
   -1
100
AcDbLine
 10
13.37719199634214
 20
-42.29766382755961
 11
10.87642415927334
 21
-30.53247616447041
  0
ARC
  5
186
100
AcDbEntity
  8
int
  6
ByLayer
 62
  256
370
   -1
100
AcDbCircle
 10
18.26793000001117
 20
-41.25810537347081
 40
5
100
AcDbArc
 50
192
 51
282
  0
LINE
  5
187
100
AcDbEntity
  8
int
  6
ByLayer
 62
  256
370
   -1
100
AcDbLine
 10
-13.37719199634214
 20
-42.2976638275596
 11
-10.87642415927334
 21
-30.53247616447041
  0
ARC
  5
188
100
AcDbEntity
  8
int
  6
ByLayer
 62
  256
370
   -1
100
AcDbCircle
 10
-18.26793000001117
 20
-41.25810537347081
 40
5
100
AcDbArc
 50
258
 51
348.0000000000001
  0
ARC
  5
189
100
AcDbEntity
  8
int
  6
ByLayer
 62
  256
370
   -1
100
AcDbCircle
 10
-108.0549711846793
 20
-15.5314928621938
 40
5
100
AcDbArc
 50
180
 51
250.0752803153222
  0
ARC
  5
18A
100
AcDbEntity
  8
int
  6
ByLayer
 62
  256
370
   -1
100
AcDbCircle
 10
-101.5583224279937
 20
-23.55418593883198
 40
5
100
AcDbArc
 50
187.9247196846769
 51
257.9999999999999
  0
ARC
  5
18B
100
AcDbEntity
  8
int
  6
ByLayer
 62
  256
370
   -1
100
AcDbCircle
 10
-111.4628231479311
 20
-24.9329047240665
 40
5
100
AcDbArc
 50
7.924719684676962
 51
70.07528031532235
  0
ARC
  5
18C
100
AcDbEntity
  8
int
  6
ByLayer
 62
  256
370
   -1
100
AcDbCircle
 10
-108.0549711846793
 20
35.467517830132
 40
5
100
AcDbArc
 50
108.7208636114977
 51
180
  0
ARC
  5
18D
100
AcDbEntity
  8
int
  6
ByLayer
 62
  256
370
   -1
100
AcDbCircle
 10
-101.79361536375
 20
41.72887365106068
 40
5
100
AcDbArc
 50
90
 51
161.2791363884967
  0
ARC
  5
18E
100
AcDbEntity
  8
int
  6
ByLayer
 62
  256
370
   -1
100
AcDbCircle
 10
-111.2645500372272
 20
44.93845250360945
 40
5
100
AcDbArc
 50
288.7208636114979
 51
341.2791363884966
  0
LINE
  5
18F
100
AcDbEntity
  8
int
  6
ByLayer
 62
  256
370
   -1
100
AcDbLine
 10
-101.79361536375
 20
46.72887365106069
 11
-64.79496456427341
 21
46.72887365106069
  0
ARC
  5
190
100
AcDbEntity
  8
int
  6
ByLayer
 62
  256
370
   -1
100
AcDbCircle
 10
-64.79496456427341
 20
41.72887365106069
 40
5
100
AcDbArc
 50
77.99999999999987
 51
90
  0
LINE
  5
191
100
AcDbEntity
  8
int
  6
ByLayer
 62
  256
370
   -1
100
AcDbLine
 10
-9.029067423878635
 20
34.98716927077922
 11
-63.75540611018461
 21
46.6196116547297
  0
ARC
  5
192
100
AcDbEntity
  8
int
  6
ByLayer
 62
  256
370
   -1
100
AcDbCircle
 10
-7.989508969789824
 20
39.87790727444824
 40
5
100
AcDbArc
 50
257.9999999999998
 51
269.9999999999999
  0
LINE
  5
193
100
AcDbEntity
  8
int
  6
ByLayer
 62
  256
370
   -1
100
AcDbLine
 10
-7.989508969789829
 20
34.87790727444823
 11
7.989508969789763
 21
34.87790727444822
  0
ARC
  5
194
100
AcDbEntity
  8
int
  6
ByLayer
 62
  256
370
   -1
100
AcDbCircle
 10
7.989508969789767
 20
39.87790727444822
 40
5
100
AcDbArc
 50
269.9999999999999
 51
282.0000000000002
  0
LINE
  5
195
100
AcDbEntity
  8
int
  6
ByLayer
 62
  256
370
   -1
100
AcDbLine
 10
9.029067423878582
 20
34.98716927077919
 11
63.75540611018462
 21
46.61961165472971
  0
LINE
  5
196
100
AcDbEntity
  8
int
  6
ByLayer
 62
  256
370
   -1
100
AcDbLine
 10
101.7936153637502
 20
46.72887365106069
 11
64.79496456427344
 21
46.72887365106069
  0
ARC
  5
197
100
AcDbEntity
  8
int
  6
ByLayer
 62
  256
370
   -1
100
AcDbCircle
 10
64.79496456427344
 20
41.72887365106069
 40
5
100
AcDbArc
 50
90
 51
102.0000000000003
  0
LINE
  5
198
100
AcDbEntity
  8
int
  6
ByLayer
 62
  256
370
   -1
100
AcDbLine
 10
19.30748845409997
 20
-46.14884337713984
 11
102.5978808820823
 21
-28.44492394250106
  0
LINE
  5
199
100
AcDbEntity
  8
int
  6
ByLayer
 62
  256
370
   -1
100
AcDbLine
 10
-19.30748845409997
 20
-46.14884337713984
 11
-102.5978808820825
 21
-28.44492394250101
  0
LINE
  5
19A
100
AcDbEntity
  8
0
  6
ByLayer
 62
  256
370
   -1
100
AcDbLine
 10
-59.30055794285241
 20
-20.26826392327486
 11
-63.25088006838983
 21
-38.85306833721717
  0
LINE
  5
19B
100
AcDbEntity
  8
0
  6
ByLayer
 62
  256
370
   -1
100
AcDbLine
 10
-59.30055794285241
 20
-20.26826392327486
 11
-44.6660756544475
 21
-42.80339046275459
  0
LINE
  5
19C
100
AcDbEntity
  8
0
  6
ByLayer
 62
  256
370
   -1
100
AcDbLine
 10
-86.48188558581772
 20
-33.91516568029538
 11
-82.5315634602803
 21
-15.33036126635307
  0
LINE
  5
19D
100
AcDbEntity
  8
0
  6
ByLayer
 62
  256
370
   -1
100
AcDbLine
 10
-82.5315634602803
 20
-15.33036126635307
 11
-63.25088006838983
 21
-38.85306833721717
  0
LINE
  5
19E
100
AcDbEntity
  8
0
  6
ByLayer
 62
  256
370
   -1
100
AcDbLine
 10
-86.48188558581772
 20
-33.91516568029538
 11
-63.25088006838983
 21
-38.85306833721717
  0
LINE
  5
19F
100
AcDbEntity
  8
0
  6
ByLayer
 62
  256
370
   -1
100
AcDbLine
 10
-82.5315634602803
 20
-15.33036126635307
 11
-59.30055794285241
 21
-20.26826392327487
  0
LINE
  5
1A0
100
AcDbEntity
  8
0
  6
ByLayer
 62
  256
370
   -1
100
AcDbLine
 10
-82.53156346028032
 20
-15.33036126635307
 11
-67.89708117187541
 21
-37.8654878058328
  0
LWPOLYLINE
  5
1A1
100
AcDbEntity
  8
0
  6
ByLayer
 62
  256
370
   -1
100
AcDbPolyline
 90
    4
 70
    1
 43
0
 10
63.94675904633799
 20
-19.2806833918905
 10
40.7157535289101
 20
-24.21858604881229
 10
44.66607565444752
 20
-42.80339046275459
 10
67.89708117187541
 20
-37.86548780583281
  0
LINE
  5
1A2
100
AcDbEntity
  8
0
  6
ByLayer
 62
  256
370
   -1
100
AcDbLine
 10
63.94675904633799
 20
-19.28068339189051
 11
44.66607565444751
 21
-42.80339046275459
  0
LINE
  5
1A3
100
AcDbEntity
  8
0
  6
ByLayer
 62
  256
370
   -1
100
AcDbLine
 10
59.30055794285241
 20
-20.26826392327486
 11
63.25088006838983
 21
-38.85306833721717
  0
LINE
  5
1A4
100
AcDbEntity
  8
0
  6
ByLayer
 62
  256
370
   -1
100
AcDbLine
 10
59.30055794285241
 20
-20.26826392327486
 11
44.6660756544475
 21
-42.80339046275459
  0
LINE
  5
1A5
100
AcDbEntity
  8
0
  6
ByLayer
 62
  256
370
   -1
100
AcDbLine
 10
86.48188558581772
 20
-33.9151656802954
 11
82.5315634602803
 21
-15.33036126635306
  0
LINE
  5
1A6
100
AcDbEntity
  8
0
  6
ByLayer
 62
  256
370
   -1
100
AcDbLine
 10
82.5315634602803
 20
-15.33036126635306
 11
63.25088006838983
 21
-38.85306833721717
  0
LINE
  5
1A7
100
AcDbEntity
  8
0
  6
ByLayer
 62
  256
370
   -1
100
AcDbLine
 10
86.48188558581772
 20
-33.9151656802954
 11
63.25088006838983
 21
-38.85306833721717
  0
LINE
  5
1A8
100
AcDbEntity
  8
0
  6
ByLayer
 62
  256
370
   -1
100
AcDbLine
 10
82.5315634602803
 20
-15.33036126635306
 11
59.30055794285241
 21
-20.26826392327487
  0
LINE
  5
1A9
100
AcDbEntity
  8
0
  6
ByLayer
 62
  256
370
   -1
100
AcDbLine
 10
82.53156346028032
 20
-15.33036126635307
 11
67.89708117187541
 21
-37.8654878058328
  0
ENDSEC
  0
SECTION
  2
OBJECTS
  0
DICTIONARY
  5
C
330
0
100
AcDbDictionary
281
    1
  3
ACAD_GROUP
350
D
  0
DICTIONARY
  5
D
330
C
100
AcDbDictionary
281
    1
  0
PLOTSETTINGS
  5
1AA
100
AcDbPlotSettings
  6
1x1
 40
0
 41
0
 42
0
 43
0
  0
ENDSEC
  0
EOF
