999
dxfrw 0.6.3
  0
SECTION
  2
HEADER
  9
$ACADVER
  1
AC1021
  9
$DWGCODEPAGE
  3
ANSI_1252
  9
$INSBASE
 10
0
 20
0
 30
0
  9
$EXTMIN
 10
-80.81878731666387
 20
-68.93026202723489
 30
0
  9
$EXTMAX
 10
81.58994738456528
 20
58.10925132165848
 30
0
  9
$LIMMIN
 10
0
 20
0
  9
$LIMMAX
 10
420
 20
297
  9
$ORTHOMODE
 70
    0
  9
$REGENMODE
 70
    1
  9
$FILLMODE
 70
    1
  9
$QTEXTMODE
 70
    0
  9
$MIRRTEXT
 70
    0
  9
$LTSCALE
 40
1
  9
$ATTMODE
 70
    0
  9
$TEXTSIZE
 40
2.5
  9
$TRACEWID
 40
15.68
  9
$TEXTSTYLE
  7
STANDARD
  9
$CLAYER
  8
ajour
  9
$CELTYPE
  6
BYLAYER
  9
$CECOLOR
 62
  256
  9
$CELTSCALE
 40
1
  9
$DISPSILH
 70
    0
  9
$DIMSCALE
 40
2.5
  9
$DIMASZ
 40
2.5
  9
$DIMEXO
 40
0.625
  9
$DIMDLI
 40
3.75
  9
$DIMRND
 40
0
  9
$DIMDLE
 40
0
  9
$DIMEXE
 40
1.25
  9
$DIMTP
 40
0
  9
$DIMTM
 40
0
  9
$DIMTXT
 40
2.5
  9
$DIMCEN
 40
2.5
  9
$DIMTSZ
 40
0
  9
$DIMTOL
 70
    0
  9
$DIMLIM
 70
    0
  9
$DIMTIH
 70
    0
  9
$DIMTOH
 70
    0
  9
$DIMSE1
 70
    0
  9
$DIMSE2
 70
    0
  9
$DIMTAD
 70
    1
  9
$DIMZIN
 70
    8
  9
$DIMBLK
  1

  9
$DIMASO
 70
    1
  9
$DIMSHO
 70
    1
  9
$DIMPOST
  1

  9
$DIMAPOST
  1

  9
$DIMALT
 70
    0
  9
$DIMALTD
 70
    3
  9
$DIMALTF
 40
0.03937
  9
$DIMLFAC
 40
1
  9
$DIMTOFL
 70
    1
  9
$DIMTVP
 40
0
  9
$DIMTIX
 70
    0
  9
$DIMSOXD
 70
    0
  9
$DIMSAH
 70
    0
  9
$DIMBLK1
  1

  9
$DIMBLK2
  1

  9
$DIMSTYLE
  2
Standard
  9
$DIMCLRD
 70
    0
  9
$DIMCLRE
 70
    0
  9
$DIMCLRT
 70
    0
  9
$DIMTFAC
 40
1
  9
$DIMGAP
 40
0.625
  9
$DIMJUST
 70
    0
  9
$DIMSD1
 70
    0
  9
$DIMSD2
 70
    0
  9
$DIMTOLJ
 70
    0
  9
$DIMTZIN
 70
    8
  9
$DIMALTZ
 70
    0
  9
$DIMALTTZ
 70
    0
  9
$DIMUPT
 70
    0
  9
$DIMDEC
 70
    2
  9
$DIMTDEC
 70
    2
  9
$DIMALTU
 70
    2
  9
$DIMALTTD
 70
    3
  9
$DIMTXSTY
  7
STANDARD
  9
$DIMAUNIT
 70
    0
  9
$DIMADEC
 70
    0
  9
$DIMALTRND
 40
0
  9
$DIMAZIN
 70
    0
  9
$DIMDSEP
 70
   44
  9
$DIMATFIT
 70
    3
  9
$DIMFRAC
 70
    0
  9
$DIMLDRBLK
  1
STANDARD
  9
$DIMLUNIT
 70
    2
  9
$DIMLWD
 70
   -2
  9
$DIMLWE
 70
   -2
  9
$DIMTMOVE
 70
    0
  9
$DIMFXL
 40
1
  9
$DIMFXLON
 70
    0
  9
$DIMJOGANG
 40
0.7854
  9
$DIMTFILL
 70
    0
  9
$DIMTFILLCLR
 70
    0
  9
$DIMARCSYM
 70
    0
  9
$DIMLTYPE
  6

  9
$DIMLTEX1
  6

  9
$DIMLTEX2
  6

  9
$LUNITS
 70
    2
  9
$LUPREC
 70
    4
  9
$SKETCHINC
 40
1
  9
$FILLETRAD
 40
0
  9
$AUNITS
 70
    0
  9
$AUPREC
 70
    2
  9
$MENU
  1
.
  9
$ELEVATION
 40
0
  9
$PELEVATION
 40
0
  9
$THICKNESS
 40
0
  9
$LIMCHECK
 70
    0
  9
$CHAMFERA
 40
0
  9
$CHAMFERB
 40
0
  9
$CHAMFERC
 40
0
  9
$CHAMFERD
 40
0
  9
$SKPOLY
 70
    0
  9
$USRTIMER
 70
    1
  9
$ANGBASE
 50
0
  9
$ANGDIR
 70
    0
  9
$PDMODE
 70
   34
  9
$PDSIZE
 40
0
  9
$PLINEWID
 40
0
  9
$SPLFRAME
 70
    0
  9
$SPLINETYPE
 70
    2
  9
$SPLINESEGS
 70
    8
  9
$HANDSEED
  5
20000
  9
$SURFTAB1
 70
    6
  9
$SURFTAB2
 70
    6
  9
$SURFTYPE
 70
    6
  9
$SURFU
 70
    6
  9
$SURFV
 70
    6
  9
$UCSBASE
  2

  9
$UCSNAME
  2

  9
$UCSORG
 10
0
 20
0
 30
0
  9
$UCSXDIR
 10
1
 20
0
 30
0
  9
$UCSYDIR
 10
0
 20
1
 30
0
  9
$UCSORTHOREF
  2

  9
$UCSORTHOVIEW
 70
    0
  9
$UCSORGTOP
 10
0
 20
0
 30
0
  9
$UCSORGBOTTOM
 10
0
 20
0
 30
0
  9
$UCSORGLEFT
 10
0
 20
0
 30
0
  9
$UCSORGRIGHT
 10
0
 20
0
 30
0
  9
$UCSORGFRONT
 10
0
 20
0
 30
0
  9
$UCSORGBACK
 10
0
 20
0
 30
0
  9
$PUCSBASE
  2

  9
$PUCSNAME
  2

  9
$PUCSORG
 10
0
 20
0
 30
0
  9
$PUCSXDIR
 10
1
 20
0
 30
0
  9
$PUCSYDIR
 10
0
 20
1
 30
0
  9
$PUCSORTHOREF
  2

  9
$PUCSORTHOVIEW
 70
    0
  9
$PUCSORGTOP
 10
0
 20
0
 30
0
  9
$PUCSORGBOTTOM
 10
0
 20
0
 30
0
  9
$PUCSORGLEFT
 10
0
 20
0
 30
0
  9
$PUCSORGRIGHT
 10
0
 20
0
 30
0
  9
$PUCSORGFRONT
 10
0
 20
0
 30
0
  9
$PUCSORGBACK
 10
0
 20
0
 30
0
  9
$USERI1
 70
    0
  9
$USERI2
 70
    0
  9
$USERI3
 70
    0
  9
$USERI4
 70
    0
  9
$USERI5
 70
    0
  9
$USERR1
 40
0
  9
$USERR2
 40
0
  9
$USERR3
 40
0
  9
$USERR4
 40
0
  9
$USERR5
 40
0
  9
$WORLDVIEW
 70
    1
  9
$SHADEDGE
 70
    3
  9
$SHADEDIF
 70
   70
  9
$TILEMODE
 70
    1
  9
$MAXACTVP
 70
   64
  9
$PINSBASE
 10
0
 20
0
 30
0
  9
$PLIMCHECK
 70
    0
  9
$PEXTMIN
 10
0
 20
0
 30
0
  9
$PEXTMAX
 10
0
 20
0
 30
0
  9
$GRIDMODE
 70
    1
  9
$SNAPSTYLE
 70
    0
  9
$PLIMMIN
 10
0
 20
0
  9
$PLIMMAX
 10
210
 20
297
  9
$UNITMODE
 70
    0
  9
$VISRETAIN
 70
    1
  9
$PLINEGEN
 70
    0
  9
$PSLTSCALE
 70
    1
  9
$TREEDEPTH
 70
 3020
  9
$CMLSTYLE
  2
Standard
  9
$CMLJUST
 70
    0
  9
$CMLSCALE
 40
20
  9
$PROXYGRAPHICS
 70
    1
  9
$MEASUREMENT
 70
    1
  9
$CELWEIGHT
370
   -1
  9
$ENDCAPS
280
    0
  9
$JOINSTYLE
280
    0
  9
$LWDISPLAY
290
    0
  9
$INSUNITS
 70
    4
  9
$HYPERLINKBASE
  1

  9
$STYLESHEET
  1

  9
$XEDIT
290
    1
  9
$CEPSNTYPE
380
    0
  9
$PSTYLEMODE
290
    1
  9
$EXTNAMES
290
    1
  9
$PSVPSCALE
 40
1
  9
$OLESTARTUP
290
    0
  9
$SORTENTS
280
  127
  9
$INDEXCTL
280
    0
  9
$HIDETEXT
280
    1
  9
$XCLIPFRAME
290
    0
  9
$HALOGAP
280
    0
  9
$OBSCOLOR
 70
  257
  9
$OBSLTYPE
280
    0
  9
$INTERSECTIONDISPLAY
280
    0
  9
$INTERSECTIONCOLOR
 70
  257
  9
$DIMASSOC
280
    1
  9
$PROJECTNAME
  1

  9
$CAMERADISPLAY
290
    0
  9
$LENSLENGTH
 40
50
  9
$CAMERAHEIGHT
 40
0
  9
$STEPSPERSEC
 40
2
  9
$STEPSIZE
 40
50
  9
$3DDWFPREC
 40
2
  9
$PSOLWIDTH
 40
5
  9
$PSOLHEIGHT
 40
80
  9
$LOFTANG1
 40
1.570796326794897
  9
$LOFTANG2
 40
1.570796326794897
  9
$LOFTMAG1
 40
0
  9
$LOFTMAG2
 40
0
  9
$LOFTPARAM
 70
    7
  9
$LOFTNORMALS
280
    1
  9
$LATITUDE
 40
1
  9
$LONGITUDE
 40
1
  9
$NORTHDIRECTION
 40
0
  9
$TIMEZONE
 70
-8000
  9
$LIGHTGLYPHDISPLAY
280
    1
  9
$TILEMODELIGHTSYNCH
280
    1
  9
$SOLIDHIST
280
    1
  9
$SHOWHIST
280
    1
  9
$DWFFRAME
280
    2
  9
$DGNFRAME
280
    0
  9
$REALWORLDSCALE
290
    1
  9
$INTERFERECOLOR
 62
    1
  9
$CSHADOW
280
    0
  9
$SHADOWPLANELOCATION
 40
0
  0
ENDSEC
  0
SECTION
  2
CLASSES
  0
ENDSEC
  0
SECTION
  2
TABLES
  0
TABLE
  2
VPORT
  5
8
330
0
100
AcDbSymbolTable
 70
    1
  0
VPORT
  5
31
330
2
100
AcDbSymbolTableRecord
100
AcDbViewportTableRecord
  2
*ACTIVE
 70
    0
 10
0
 20
0
 11
1
 21
1
 12
47.30194645969434
 22
29.90158758344963
 13
0
 23
0
 14
10
 24
10
 15
10
 25
10
 16
0
 26
0
 36
1
 17
0
 27
0
 37
0
 40
130.4182238103001
 41
1.444300518134715
 42
50
 43
0
 44
0
 50
0
 51
0
 71
    0
 72
  100
 73
    1
 74
    3
 75
    0
 76
    1
 77
    0
 78
    0
281
    0
 65
    1
110
0
120
0
130
0
111
1
121
0
131
0
112
0
122
1
132
0
 79
    0
146
0
348
10020
 60
    7
 61
    5
292
1
282
    1
141
0
142
0
 63
  250
421
3358443
  0
ENDTAB
  0
TABLE
  2
LTYPE
  5
5
330
0
100
AcDbSymbolTable
 70
    4
  0
LTYPE
  5
14
330
5
100
AcDbSymbolTableRecord
100
AcDbLinetypeTableRecord
  2
ByBlock
 70
    0
  3

 72
   65
 73
    0
 40
0
  0
LTYPE
  5
15
330
5
100
AcDbSymbolTableRecord
100
AcDbLinetypeTableRecord
  2
ByLayer
 70
    0
  3

 72
   65
 73
    0
 40
0
  0
LTYPE
  5
16
330
5
100
AcDbSymbolTableRecord
100
AcDbLinetypeTableRecord
  2
Continuous
 70
    0
  3
Solid line
 72
   65
 73
    0
 40
0
  0
LTYPE
  5
32
330
5
100
AcDbSymbolTableRecord
100
AcDbLinetypeTableRecord
  2
DOT
 70
    0
  3
Dot . . . . . . . . . . . . . . . . . . . . . .
 72
   65
 73
    2
 40
6.35
 49
0
 74
    0
 49
-6.35
 74
    0
  0
LTYPE
  5
33
330
5
100
AcDbSymbolTableRecord
100
AcDbLinetypeTableRecord
  2
DOTTINY
 70
    0
  3
Dot (.15x) .....................................
 72
   65
 73
    2
 40
0.9525
 49
0
 74
    0
 49
-0.9525
 74
    0
  0
LTYPE
  5
34
330
5
100
AcDbSymbolTableRecord
100
AcDbLinetypeTableRecord
  2
DOT2
 70
    0
  3
Dot (.5x) .....................................
 72
   65
 73
    2
 40
3.175
 49
0
 74
    0
 49
-3.175
 74
    0
  0
LTYPE
  5
35
330
5
100
AcDbSymbolTableRecord
100
AcDbLinetypeTableRecord
  2
DOTX2
 70
    0
  3
Dot (2x) .  .  .  .  .  .  .  .  .  .  .  .  .
 72
   65
 73
    2
 40
12.7
 49
0
 74
    0
 49
-12.7
 74
    0
  0
LTYPE
  5
36
330
5
100
AcDbSymbolTableRecord
100
AcDbLinetypeTableRecord
  2
DASHED
 70
    0
  3
Dashed _ _ _ _ _ _ _ _ _ _ _ _ _ _ _ _ _
 72
   65
 73
    2
 40
19.05
 49
12.7
 74
    0
 49
-6.35
 74
    0
  0
LTYPE
  5
37
330
5
100
AcDbSymbolTableRecord
100
AcDbLinetypeTableRecord
  2
DASHEDTINY
 70
    0
  3
Dashed (.15x) _ _ _ _ _ _ _ _ _ _ _ _ _ _ _ _ _
 72
   65
 73
    2
 40
2.8575
 49
1.905
 74
    0
 49
-0.9525
 74
    0
  0
LTYPE
  5
38
330
5
100
AcDbSymbolTableRecord
100
AcDbLinetypeTableRecord
  2
DASHED2
 70
    0
  3
Dashed (.5x) _ _ _ _ _ _ _ _ _ _ _ _ _ _ _ _ _
 72
   65
 73
    2
 40
9.524999999999999
 49
6.35
 74
    0
 49
-3.175
 74
    0
  0
LTYPE
  5
39
330
5
100
AcDbSymbolTableRecord
100
AcDbLinetypeTableRecord
  2
DASHEDX2
 70
    0
  3
Dashed (2x) ____  ____  ____  ____  ____  ___
 72
   65
 73
    2
 40
38.09999999999999
 49
25.4
 74
    0
 49
-12.7
 74
    0
  0
LTYPE
  5
3A
330
5
100
AcDbSymbolTableRecord
100
AcDbLinetypeTableRecord
  2
DASHDOT
 70
    0
  3
Dash dot __ . __ . __ . __ . __ . __ . __ . __
 72
   65
 73
    4
 40
25.4
 49
12.7
 74
    0
 49
-6.35
 74
    0
 49
0
 74
    0
 49
-6.35
 74
    0
  0
LTYPE
  5
3B
330
5
100
AcDbSymbolTableRecord
100
AcDbLinetypeTableRecord
  2
DASHDOTTINY
 70
    0
  3
Dash dot (.15x) _._._._._._._._._._._._._._._.
 72
   65
 73
    4
 40
3.81
 49
1.905
 74
    0
 49
-0.9525
 74
    0
 49
0
 74
    0
 49
-0.9525
 74
    0
  0
LTYPE
  5
3C
330
5
100
AcDbSymbolTableRecord
100
AcDbLinetypeTableRecord
  2
DASHDOT2
 70
    0
  3
Dash dot (.5x) _._._._._._._._._._._._._._._.
 72
   65
 73
    4
 40
12.7
 49
6.35
 74
    0
 49
-3.175
 74
    0
 49
0
 74
    0
 49
-3.175
 74
    0
  0
LTYPE
  5
3D
330
5
100
AcDbSymbolTableRecord
100
AcDbLinetypeTableRecord
  2
DASHDOTX2
 70
    0
  3
Dash dot (2x) ____  .  ____  .  ____  .  ___
 72
   65
 73
    4
 40
50.8
 49
25.4
 74
    0
 49
-12.7
 74
    0
 49
0
 74
    0
 49
-12.7
 74
    0
  0
LTYPE
  5
3E
330
5
100
AcDbSymbolTableRecord
100
AcDbLinetypeTableRecord
  2
DIVIDE
 70
    0
  3
Divide ____ . . ____ . . ____ . . ____ . . ____
 72
   65
 73
    6
 40
31.75
 49
12.7
 74
    0
 49
-6.35
 74
    0
 49
0
 74
    0
 49
-6.35
 74
    0
 49
0
 74
    0
 49
-6.35
 74
    0
  0
LTYPE
  5
3F
330
5
100
AcDbSymbolTableRecord
100
AcDbLinetypeTableRecord
  2
DIVIDETINY
 70
    0
  3
Divide (.15x) __..__..__..__..__..__..__..__.._
 72
   65
 73
    6
 40
4.7625
 49
1.905
 74
    0
 49
-0.9525
 74
    0
 49
0
 74
    0
 49
-0.9525
 74
    0
 49
0
 74
    0
 49
-0.9525
 74
    0
  0
LTYPE
  5
40
330
5
100
AcDbSymbolTableRecord
100
AcDbLinetypeTableRecord
  2
DIVIDE2
 70
    0
  3
Divide (.5x) __..__..__..__..__..__..__..__.._
 72
   65
 73
    6
 40
15.875
 49
6.35
 74
    0
 49
-3.175
 74
    0
 49
0
 74
    0
 49
-3.175
 74
    0
 49
0
 74
    0
 49
-3.175
 74
    0
  0
LTYPE
  5
41
330
5
100
AcDbSymbolTableRecord
100
AcDbLinetypeTableRecord
  2
DIVIDEX2
 70
    0
  3
Divide (2x) ________  .  .  ________  .  .  _
 72
   65
 73
    6
 40
63.5
 49
25.4
 74
    0
 49
-12.7
 74
    0
 49
0
 74
    0
 49
-12.7
 74
    0
 49
0
 74
    0
 49
-12.7
 74
    0
  0
LTYPE
  5
42
330
5
100
AcDbSymbolTableRecord
100
AcDbLinetypeTableRecord
  2
BORDER
 70
    0
  3
Border __ __ . __ __ . __ __ . __ __ . __ __ .
 72
   65
 73
    6
 40
44.45
 49
12.7
 74
    0
 49
-6.35
 74
    0
 49
12.7
 74
    0
 49
-6.35
 74
    0
 49
0
 74
    0
 49
-6.35
 74
    0
  0
LTYPE
  5
43
330
5
100
AcDbSymbolTableRecord
100
AcDbLinetypeTableRecord
  2
BORDERTINY
 70
    0
  3
Border (.15x) __.__.__.__.__.__.__.__.__.__.__.
 72
   65
 73
    6
 40
6.6675
 49
1.905
 74
    0
 49
-0.9525
 74
    0
 49
1.905
 74
    0
 49
-0.9525
 74
    0
 49
0
 74
    0
 49
-0.9525
 74
    0
  0
LTYPE
  5
44
330
5
100
AcDbSymbolTableRecord
100
AcDbLinetypeTableRecord
  2
BORDER2
 70
    0
  3
Border (.5x) __.__.__.__.__.__.__.__.__.__.__.
 72
   65
 73
    6
 40
22.225
 49
6.35
 74
    0
 49
-3.175
 74
    0
 49
6.35
 74
    0
 49
-3.175
 74
    0
 49
0
 74
    0
 49
-3.175
 74
    0
  0
LTYPE
  5
45
330
5
100
AcDbSymbolTableRecord
100
AcDbLinetypeTableRecord
  2
BORDERX2
 70
    0
  3
Border (2x) ____  ____  .  ____  ____  .  ___
 72
   65
 73
    6
 40
88.89999999999999
 49
25.4
 74
    0
 49
-12.7
 74
    0
 49
25.4
 74
    0
 49
-12.7
 74
    0
 49
0
 74
    0
 49
-12.7
 74
    0
  0
LTYPE
  5
46
330
5
100
AcDbSymbolTableRecord
100
AcDbLinetypeTableRecord
  2
CENTER
 70
    0
  3
Center ____ _ ____ _ ____ _ ____ _ ____ _ ____
 72
   65
 73
    4
 40
50.8
 49
31.75
 74
    0
 49
-6.35
 74
    0
 49
6.35
 74
    0
 49
-6.35
 74
    0
  0
LTYPE
  5
47
330
5
100
AcDbSymbolTableRecord
100
AcDbLinetypeTableRecord
  2
CENTERTINY
 70
    0
  3
Center (.15x) ___ _ ___ _ ___ _ ___ _ ___ _ ___
 72
   65
 73
    4
 40
7.619999999999999
 49
4.7625
 74
    0
 49
-0.9525
 74
    0
 49
0.9525
 74
    0
 49
-0.9525
 74
    0
  0
LTYPE
  5
48
330
5
100
AcDbSymbolTableRecord
100
AcDbLinetypeTableRecord
  2
CENTER2
 70
    0
  3
Center (.5x) ___ _ ___ _ ___ _ ___ _ ___ _ ___
 72
   65
 73
    4
 40
28.575
 49
19.05
 74
    0
 49
-3.175
 74
    0
 49
3.175
 74
    0
 49
-3.175
 74
    0
  0
LTYPE
  5
49
330
5
100
AcDbSymbolTableRecord
100
AcDbLinetypeTableRecord
  2
CENTERX2
 70
    0
  3
Center (2x) ________  __  ________  __  _____
 72
   65
 73
    4
 40
101.6
 49
63.5
 74
    0
 49
-12.7
 74
    0
 49
12.7
 74
    0
 49
-12.7
 74
    0
  0
ENDTAB
  0
TABLE
  2
LAYER
  5
2
330
0
100
AcDbSymbolTable
 70
    1
  0
LAYER
  5
10
330
2
100
AcDbSymbolTableRecord
100
AcDbLayerTableRecord
  2
0
 70
    4
 62
    2
  6
CONTINUOUS
370
    0
390
F
  0
LAYER
  5
4A
330
2
100
AcDbSymbolTableRecord
100
AcDbLayerTableRecord
  2
ajour
 70
    0
 62
    3
  6
CONTINUOUS
370
    0
390
F
  0
LAYER
  5
4B
330
2
100
AcDbSymbolTableRecord
100
AcDbLayerTableRecord
  2
ext1
 70
    4
 62
  136
420
32896
  6
CONTINUOUS
370
    0
390
F
  0
LAYER
  5
4C
330
2
100
AcDbSymbolTableRecord
100
AcDbLayerTableRecord
  2
ext2
 70
    4
 62
    5
  6
CONTINUOUS
370
    0
390
F
  0
LAYER
  5
4D
330
2
100
AcDbSymbolTableRecord
100
AcDbLayerTableRecord
  2
ext3
 70
    4
 62
   96
420
32768
  6
CONTINUOUS
370
    0
390
F
  0
LAYER
  5
4E
330
2
100
AcDbSymbolTableRecord
100
AcDbLayerTableRecord
  2
int
 70
    4
 62
    4
  6
CONTINUOUS
370
    0
390
F
  0
LAYER
  5
4F
330
2
100
AcDbSymbolTableRecord
100
AcDbLayerTableRecord
  2
noname
 70
    4
 62
  216
420
8388736
  6
CONTINUOUS
370
    0
390
F
  0
LAYER
  5
50
330
2
100
AcDbSymbolTableRecord
100
AcDbLayerTableRecord
  2
noname1
 70
    4
 62
    1
  6
CONTINUOUS
370
    0
390
F
  0
LAYER
  5
51
330
2
100
AcDbSymbolTableRecord
100
AcDbLayerTableRecord
  2
percage
 70
    4
 62
  136
420
32896
  6
CONTINUOUS
370
    0
390
F
  0
LAYER
  5
52
330
2
100
AcDbSymbolTableRecord
100
AcDbLayerTableRecord
  2
rpi
 70
    4
 62
    3
  6
CONTINUOUS
370
    0
390
F
  0
ENDTAB
  0
TABLE
  2
STYLE
  5
3
330
0
100
AcDbSymbolTable
 70
    3
  0
STYLE
  5
53
330
2
100
AcDbSymbolTableRecord
100
AcDbTextStyleTableRecord
  2
Standard
 70
    0
 40
0
 41
1
 50
0
 71
    0
 42
1
  3
txt
  4

  0
ENDTAB
  0
TABLE
  2
VIEW
  5
6
330
0
100
AcDbSymbolTable
 70
    0
  0
ENDTAB
  0
TABLE
  2
UCS
  5
7
330
0
100
AcDbSymbolTable
 70
    0
  0
ENDTAB
  0
TABLE
  2
APPID
  5
9
330
0
100
AcDbSymbolTable
 70
    1
  0
APPID
  5
12
330
9
100
AcDbSymbolTableRecord
100
AcDbRegAppTableRecord
  2
ACAD
 70
    0
  0
APPID
  5
54
330
9
100
AcDbSymbolTableRecord
100
AcDbRegAppTableRecord
  2
LibreCad
 70
    0
  0
ENDTAB
  0
TABLE
  2
DIMSTYLE
  5
A
330
0
100
AcDbSymbolTable
 70
    1
100
AcDbDimStyleTable
 71
    1
  0
DIMSTYLE
105
55
330
A
100
AcDbSymbolTableRecord
100
AcDbDimStyleTableRecord
  2
Standard
 70
    0
 40
2.5
 41
2.5
 42
0.625
 43
0.38
 44
1.25
 45
0
 46
0
 47
0
 48
0
 49
1
140
2.5
141
0.09
142
0
143
25.4
144
1
145
0
146
1
147
0.625
148
0
 71
    0
 72
    0
 73
    0
 74
    1
 75
    0
 76
    0
 77
    0
 78
    8
 79
    0
170
    0
171
    2
172
    0
173
    0
174
    0
175
    0
176
    0
177
    0
178
    0
179
    0
271
    2
272
    4
273
    2
274
    2
275
    0
276
    0
277
    2
278
   44
279
    0
280
    0
281
    0
282
    0
283
    1
284
    0
285
    0
286
    0
288
    0
289
    3
340
STANDARD
341

371
   -2
372
   -2
  0
ENDTAB
  0
TABLE
  2
BLOCK_RECORD
  5
1
330
0
100
AcDbSymbolTable
 70
    2
  0
BLOCK_RECORD
  5
1F
330
1
100
AcDbSymbolTableRecord
100
AcDbBlockTableRecord
  2
*Model_Space
 70
    0
280
    1
281
    0
  0
BLOCK_RECORD
  5
1E
330
1
100
AcDbSymbolTableRecord
100
AcDbBlockTableRecord
  2
*Paper_Space
 70
    0
280
    1
281
    0
  0
ENDTAB
  0
ENDSEC
  0
SECTION
  2
BLOCKS
  0
BLOCK
  5
20
330
1F
100
AcDbEntity
  8
0
100
AcDbBlockBegin
  2
*Model_Space
 70
    0
 10
0
 20
0
 30
0
  3
*Model_Space
  1

  0
ENDBLK
  5
21
330
1F
100
AcDbEntity
  8
0
100
AcDbBlockEnd
  0
BLOCK
  5
1C
330
1B
100
AcDbEntity
  8
0
100
AcDbBlockBegin
  2
*Paper_Space
 70
    0
 10
0
 20
0
 30
0
  3
*Paper_Space
  1

  0
ENDBLK
  5
1D
330
1F
100
AcDbEntity
  8
0
100
AcDbBlockEnd
  0
ENDSEC
  0
SECTION
  2
ENTITIES
  0
LINE
  5
56
100
AcDbEntity
  8
noname
  6
ByLayer
 62
  256
370
   -1
100
AcDbLine
 10
-66.22553574550717
 20
-15.15034157850917
 11
-48.29403117580624
 21
-13.58153824916476
  0
LINE
  5
57
100
AcDbEntity
  8
noname
  6
ByLayer
 62
  256
370
   -1
100
AcDbLine
 10
-48.29403117580624
 20
-13.58153824916476
 11
-46.72522784646181
 21
-31.51304281886572
  0
LINE
  5
58
100
AcDbEntity
  8
noname
  6
ByLayer
 62
  256
370
   -1
100
AcDbLine
 10
-46.72522784646181
 20
-31.51304281886572
 11
-64.65673241616277
 21
-33.08184614821013
  0
LINE
  5
59
100
AcDbEntity
  8
noname
  6
ByLayer
 62
  256
370
   -1
100
AcDbLine
 10
-64.65673241616277
 20
-33.08184614821013
 11
-66.22553574550717
 21
-15.15034157850917
  0
LINE
  5
5A
100
AcDbEntity
  8
noname
  6
ByLayer
 62
  256
370
   -1
100
AcDbLine
 10
-67.88149481836395
 20
3.777357728678014
 11
-49.94999024866298
 21
5.346161058022426
  0
LINE
  5
5B
100
AcDbEntity
  8
noname
  6
ByLayer
 62
  256
370
   -1
100
AcDbLine
 10
-49.94999024866298
 20
5.346161058022426
 11
-48.38118691931859
 21
-12.58534351167853
  0
LINE
  5
5C
100
AcDbEntity
  8
noname
  6
ByLayer
 62
  256
370
   -1
100
AcDbLine
 10
-48.38118691931859
 20
-12.58534351167853
 11
-66.31269148901954
 21
-14.15414684102294
  0
LINE
  5
5D
100
AcDbEntity
  8
noname
  6
ByLayer
 62
  256
370
   -1
100
AcDbLine
 10
-66.31269148901954
 20
-14.15414684102294
 11
-67.88149481836395
 21
3.777357728678014
  0
LINE
  5
5E
100
AcDbEntity
  8
noname
  6
ByLayer
 62
  256
370
   -1
100
AcDbLine
 10
-69.53745389122072
 20
22.70505703586522
 11
-51.60594932151976
 21
24.27386036520963
  0
LINE
  5
5F
100
AcDbEntity
  8
noname
  6
ByLayer
 62
  256
370
   -1
100
AcDbLine
 10
-51.60594932151976
 20
24.27386036520963
 11
-50.03714599217535
 21
6.342355795508661
  0
LINE
  5
60
100
AcDbEntity
  8
noname
  6
ByLayer
 62
  256
370
   -1
100
AcDbLine
 10
-50.03714599217535
 20
6.342355795508661
 11
-67.96865056187632
 21
4.773552466164256
  0
LINE
  5
61
100
AcDbEntity
  8
noname
  6
ByLayer
 62
  256
370
   -1
100
AcDbLine
 10
-67.96865056187632
 20
4.773552466164256
 11
-69.53745389122072
 21
22.70505703586522
  0
LINE
  5
62
100
AcDbEntity
  8
noname
  6
ByLayer
 62
  256
370
   -1
100
AcDbLine
 10
-47.33327230334778
 20
-8.729338460478571
 11
-29.40176773364684
 21
-7.160535131134163
  0
LINE
  5
63
100
AcDbEntity
  8
noname
  6
ByLayer
 62
  256
370
   -1
100
AcDbLine
 10
-29.40176773364684
 20
-7.160535131134163
 11
-27.83296440430242
 21
-25.09203970083512
  0
LINE
  5
64
100
AcDbEntity
  8
noname
  6
ByLayer
 62
  256
370
   -1
100
AcDbLine
 10
-27.83296440430242
 20
-25.09203970083512
 11
-45.76446897400339
 21
-26.66084303017954
  0
LINE
  5
65
100
AcDbEntity
  8
noname
  6
ByLayer
 62
  256
370
   -1
100
AcDbLine
 10
-45.76446897400339
 20
-26.66084303017954
 11
-47.33327230334778
 21
-8.729338460478571
  0
LINE
  5
66
100
AcDbEntity
  8
noname
  6
ByLayer
 62
  256
370
   -1
100
AcDbLine
 10
-48.98923137620456
 20
10.19836084670862
 11
-31.05772680650361
 21
11.76716417605303
  0
LINE
  5
67
100
AcDbEntity
  8
noname
  6
ByLayer
 62
  256
370
   -1
100
AcDbLine
 10
-31.05772680650361
 20
11.76716417605303
 11
-29.48892347715919
 21
-6.164340393647935
  0
LINE
  5
68
100
AcDbEntity
  8
noname
  6
ByLayer
 62
  256
370
   -1
100
AcDbLine
 10
-29.48892347715919
 20
-6.164340393647935
 11
-47.42042804686015
 21
-7.73314372299234
  0
LINE
  5
69
100
AcDbEntity
  8
noname
  6
ByLayer
 62
  256
370
   -1
100
AcDbLine
 10
-47.42042804686015
 20
-7.73314372299234
 11
-48.98923137620456
 21
10.19836084670862
  0
LINE
  5
6A
100
AcDbEntity
  8
noname
  6
ByLayer
 62
  256
370
   -1
100
AcDbLine
 10
-50.64519044906133
 20
29.12606015389582
 11
-32.71368587936038
 21
30.69486348324022
  0
LINE
  5
6B
100
AcDbEntity
  8
noname
  6
ByLayer
 62
  256
370
   -1
100
AcDbLine
 10
-32.71368587936038
 20
30.69486348324022
 11
-31.14488255001596
 21
12.76335891353925
  0
LINE
  5
6C
100
AcDbEntity
  8
noname
  6
ByLayer
 62
  256
370
   -1
100
AcDbLine
 10
-31.14488255001596
 20
12.76335891353925
 11
-49.07638711971693
 21
11.19455558419484
  0
LINE
  5
6D
100
AcDbEntity
  8
noname
  6
ByLayer
 62
  256
370
   -1
100
AcDbLine
 10
-49.07638711971693
 20
11.19455558419484
 11
-50.64519044906133
 21
29.12606015389582
  0
LINE
  5
6E
100
AcDbEntity
  8
noname
  6
ByLayer
 62
  256
370
   -1
100
AcDbLine
 10
-28.56353407085719
 20
2.758881111212964
 11
-10.58820237584827
 21
3.700928344603002
  0
LINE
  5
6F
100
AcDbEntity
  8
noname
  6
ByLayer
 62
  256
370
   -1
100
AcDbLine
 10
-10.58820237584827
 20
3.700928344603002
 11
-9.646155142458227
 21
-14.27440335040592
  0
LINE
  5
70
100
AcDbEntity
  8
noname
  6
ByLayer
 62
  256
370
   -1
100
AcDbLine
 10
-9.646155142458227
 20
-14.27440335040592
 11
-27.62148683746715
 21
-15.21645058379596
  0
LINE
  5
71
100
AcDbEntity
  8
noname
  6
ByLayer
 62
  256
370
   -1
100
AcDbLine
 10
-27.62148683746715
 20
-15.21645058379596
 11
-28.56353407085719
 21
2.758881111212964
  0
LINE
  5
72
100
AcDbEntity
  8
noname
  6
ByLayer
 62
  256
370
   -1
100
AcDbLine
 10
-29.55791724423526
 20
21.73284224057758
 11
-11.58258554922632
 21
22.67488947396764
  0
LINE
  5
73
100
AcDbEntity
  8
noname
  6
ByLayer
 62
  256
370
   -1
100
AcDbLine
 10
-11.58258554922632
 20
22.67488947396764
 11
-10.64053831583628
 21
4.699557778958702
  0
LINE
  5
74
100
AcDbEntity
  8
noname
  6
ByLayer
 62
  256
370
   -1
100
AcDbLine
 10
-10.64053831583628
 20
4.699557778958702
 11
-28.61587001084521
 21
3.757510545568658
  0
LINE
  5
75
100
AcDbEntity
  8
noname
  6
ByLayer
 62
  256
370
   -1
100
AcDbLine
 10
-28.61587001084521
 20
3.757510545568658
 11
-29.55791724423526
 21
21.73284224057758
  0
LINE
  5
76
100
AcDbEntity
  8
noname
  6
ByLayer
 62
  256
370
   -1
100
AcDbLine
 10
-30.55230041761332
 20
40.70680336994222
 11
-12.57696872260439
 21
41.64885060333226
  0
LINE
  5
77
100
AcDbEntity
  8
noname
  6
ByLayer
 62
  256
370
   -1
100
AcDbLine
 10
-12.57696872260439
 20
41.64885060333226
 11
-11.63492148921435
 21
23.67351890832332
  0
LINE
  5
78
100
AcDbEntity
  8
noname
  6
ByLayer
 62
  256
370
   -1
100
AcDbLine
 10
-11.63492148921435
 20
23.67351890832332
 11
-29.61025318422327
 21
22.73147167493328
  0
LINE
  5
79
100
AcDbEntity
  8
noname
  6
ByLayer
 62
  256
370
   -1
100
AcDbLine
 10
-29.61025318422327
 20
22.73147167493328
 11
-30.55230041761332
 21
40.70680336994222
  0
LINE
  5
7A
100
AcDbEntity
  8
noname
  6
ByLayer
 62
  256
370
   -1
100
AcDbLine
 10
-9.155700893796407
 20
8.8415576528662
 11
8.8415576528662
 21
9.155700893796407
  0
LINE
  5
7B
100
AcDbEntity
  8
noname
  6
ByLayer
 62
  256
370
   -1
100
AcDbLine
 10
8.8415576528662
 20
9.155700893796407
 11
9.155700893796421
 21
-8.841557652866195
  0
LINE
  5
7C
100
AcDbEntity
  8
noname
  6
ByLayer
 62
  256
370
   -1
100
AcDbLine
 10
9.155700893796421
 20
-8.841557652866195
 11
-8.8415576528662
 21
-9.155700893796407
  0
LINE
  5
7D
100
AcDbEntity
  8
noname
  6
ByLayer
 62
  256
370
   -1
100
AcDbLine
 10
-8.8415576528662
 20
-9.155700893796407
 11
-9.155700893796407
 21
8.8415576528662
  0
LINE
  5
7E
100
AcDbEntity
  8
noname
  6
ByLayer
 62
  256
370
   -1
100
AcDbLine
 10
-9.487296573765136
 20
27.83866388272466
 11
8.509961972897472
 21
28.15280712365487
  0
LINE
  5
7F
100
AcDbEntity
  8
noname
  6
ByLayer
 62
  256
370
   -1
100
AcDbLine
 10
8.509961972897472
 20
28.15280712365487
 11
8.824105213827679
 21
10.15554857699226
  0
LINE
  5
80
100
AcDbEntity
  8
noname
  6
ByLayer
 62
  256
370
   -1
100
AcDbLine
 10
8.824105213827679
 20
10.15554857699226
 11
-9.173153332834929
 21
9.841405336062049
  0
LINE
  5
81
100
AcDbEntity
  8
noname
  6
ByLayer
 62
  256
370
   -1
100
AcDbLine
 10
-9.173153332834929
 20
9.841405336062049
 11
-9.487296573765136
 21
27.83866388272466
  0
LINE
  5
82
100
AcDbEntity
  8
noname
  6
ByLayer
 62
  256
370
   -1
100
AcDbLine
 10
-9.818892253733864
 20
46.83577011258312
 11
8.178366292928743
 21
47.14991335351333
  0
LINE
  5
83
100
AcDbEntity
  8
noname
  6
ByLayer
 62
  256
370
   -1
100
AcDbLine
 10
8.178366292928743
 20
47.14991335351333
 11
8.49250953385895
 21
29.15265480685071
  0
LINE
  5
84
100
AcDbEntity
  8
noname
  6
ByLayer
 62
  256
370
   -1
100
AcDbLine
 10
8.49250953385895
 20
29.15265480685071
 11
-9.504749012803671
 21
28.83851156592052
  0
LINE
  5
85
100
AcDbEntity
  8
noname
  6
ByLayer
 62
  256
370
   -1
100
AcDbLine
 10
-9.504749012803671
 20
28.83851156592052
 11
-9.818892253733864
 21
46.83577011258312
  0
LINE
  5
86
100
AcDbEntity
  8
noname
  6
ByLayer
 62
  256
370
   -1
100
AcDbLine
 10
10.45994730733121
 20
4.588951121728082
 11
28.45994729047013
 21
4.588951067683453
  0
LINE
  5
87
100
AcDbEntity
  8
noname
  6
ByLayer
 62
  256
370
   -1
100
AcDbLine
 10
28.45994729047013
 20
4.588951067683453
 11
28.45994723642551
 21
-13.41104891545548
  0
LINE
  5
88
100
AcDbEntity
  8
noname
  6
ByLayer
 62
  256
370
   -1
100
AcDbLine
 10
28.45994723642551
 20
-13.41104891545548
 11
10.45994725328659
 21
-13.41104886141084
  0
LINE
  5
89
100
AcDbEntity
  8
noname
  6
ByLayer
 62
  256
370
   -1
100
AcDbLine
 10
10.45994725328659
 20
-13.41104886141084
 11
10.45994730733121
 21
4.588951121728082
  0
LINE
  5
8A
100
AcDbEntity
  8
noname
  6
ByLayer
 62
  256
370
   -1
100
AcDbLine
 10
10.45994734930916
 20
23.58895109489909
 11
28.45994733244808
 21
23.58895104085445
  0
LINE
  5
8B
100
AcDbEntity
  8
noname
  6
ByLayer
 62
  256
370
   -1
100
AcDbLine
 10
28.45994733244808
 20
23.58895104085445
 11
28.45994727840346
 21
5.588951057715535
  0
LINE
  5
8C
100
AcDbEntity
  8
noname
  6
ByLayer
 62
  256
370
   -1
100
AcDbLine
 10
28.45994727840346
 20
5.588951057715535
 11
10.45994729526453
 21
5.588951111760161
  0
LINE
  5
8D
100
AcDbEntity
  8
noname
  6
ByLayer
 62
  256
370
   -1
100
AcDbLine
 10
10.45994729526453
 20
5.588951111760161
 11
10.45994734930916
 21
23.58895109489909
  0
LINE
  5
8E
100
AcDbEntity
  8
noname
  6
ByLayer
 62
  256
370
   -1
100
AcDbLine
 10
10.45994739128711
 20
42.58895106807009
 11
28.45994737442604
 21
42.58895101402546
  0
LINE
  5
8F
100
AcDbEntity
  8
noname
  6
ByLayer
 62
  256
370
   -1
100
AcDbLine
 10
28.45994737442604
 20
42.58895101402546
 11
28.4599473203814
 21
24.58895103088654
  0
LINE
  5
90
100
AcDbEntity
  8
noname
  6
ByLayer
 62
  256
370
   -1
100
AcDbLine
 10
28.4599473203814
 20
24.58895103088654
 11
10.45994733724248
 21
24.58895108493117
  0
LINE
  5
91
100
AcDbEntity
  8
noname
  6
ByLayer
 62
  256
370
   -1
100
AcDbLine
 10
10.45994733724248
 20
24.58895108493117
 11
10.45994739128711
 21
42.58895106807009
  0
LINE
  5
92
100
AcDbEntity
  8
noname
  6
ByLayer
 62
  256
370
   -1
100
AcDbLine
 10
29.83994730283338
 20
1.73895105764786
 11
47.8399472859723
 21
1.738951003603235
  0
LINE
  5
93
100
AcDbEntity
  8
noname
  6
ByLayer
 62
  256
370
   -1
100
AcDbLine
 10
47.8399472859723
 20
1.738951003603235
 11
47.83994723192767
 21
-16.2610489795357
  0
LINE
  5
94
100
AcDbEntity
  8
noname
  6
ByLayer
 62
  256
370
   -1
100
AcDbLine
 10
47.83994723192767
 20
-16.2610489795357
 11
29.83994724878875
 21
-16.26104892549107
  0
LINE
  5
95
100
AcDbEntity
  8
noname
  6
ByLayer
 62
  256
370
   -1
100
AcDbLine
 10
29.83994724878875
 20
-16.26104892549107
 11
29.83994730283338
 21
1.73895105764786
  0
LINE
  5
96
100
AcDbEntity
  8
noname
  6
ByLayer
 62
  256
370
   -1
100
AcDbLine
 10
29.83994734481132
 20
20.73895103081886
 11
47.83994732795025
 21
20.73895097677423
  0
LINE
  5
97
100
AcDbEntity
  8
noname
  6
ByLayer
 62
  256
370
   -1
100
AcDbLine
 10
47.83994732795025
 20
20.73895097677423
 11
47.83994727390562
 21
2.738950993635317
  0
LINE
  5
98
100
AcDbEntity
  8
noname
  6
ByLayer
 62
  256
370
   -1
100
AcDbLine
 10
47.83994727390562
 20
2.738950993635317
 11
29.83994729076669
 21
2.738951047679937
  0
LINE
  5
99
100
AcDbEntity
  8
noname
  6
ByLayer
 62
  256
370
   -1
100
AcDbLine
 10
29.83994729076669
 20
2.738951047679937
 11
29.83994734481132
 21
20.73895103081886
  0
LINE
  5
9A
100
AcDbEntity
  8
noname
  6
ByLayer
 62
  256
370
   -1
100
AcDbLine
 10
29.83994738678927
 20
39.73895100398987
 11
47.83994736992819
 21
39.73895094994523
  0
LINE
  5
9B
100
AcDbEntity
  8
noname
  6
ByLayer
 62
  256
370
   -1
100
AcDbLine
 10
47.83994736992819
 20
39.73895094994523
 11
47.83994731588356
 21
21.73895096680631
  0
LINE
  5
9C
100
AcDbEntity
  8
noname
  6
ByLayer
 62
  256
370
   -1
100
AcDbLine
 10
47.83994731588356
 20
21.73895096680631
 11
29.83994733274464
 21
21.73895102085095
  0
LINE
  5
9D
100
AcDbEntity
  8
noname
  6
ByLayer
 62
  256
370
   -1
100
AcDbLine
 10
29.83994733274464
 20
21.73895102085095
 11
29.83994738678927
 21
39.73895100398987
  0
LINE
  5
9E
100
AcDbEntity
  8
noname
  6
ByLayer
 62
  256
370
   -1
100
AcDbLine
 10
-26.32213784780443
 20
-21.85754924549524
 11
-8.346806152795494
 21
-20.91550201210521
  0
LINE
  5
9F
100
AcDbEntity
  8
noname
  6
ByLayer
 62
  256
370
   -1
100
AcDbLine
 10
-8.346806152795494
 20
-20.91550201210521
 11
-7.404758919405452
 21
-38.89083370711413
  0
LINE
  5
A0
100
AcDbEntity
  8
noname
  6
ByLayer
 62
  256
370
   -1
100
AcDbLine
 10
-7.404758919405452
 20
-38.89083370711413
 11
-25.38009061441437
 21
-39.83288094050417
  0
LINE
  5
A1
100
AcDbEntity
  8
noname
  6
ByLayer
 62
  256
370
   -1
100
AcDbLine
 10
-25.38009061441437
 20
-39.83288094050417
 11
-26.32213784780443
 21
-21.85754924549524
  0
LINE
  5
A2
100
AcDbEntity
  8
noname
  6
ByLayer
 62
  256
370
   -1
100
AcDbLine
 10
25.46869678939736
 20
-20.96794204842168
 11
42.85536165705179
 21
-25.62668482233835
  0
LINE
  5
A3
100
AcDbEntity
  8
noname
  6
ByLayer
 62
  256
370
   -1
100
AcDbLine
 10
42.85536165705179
 20
-25.62668482233835
 11
38.19661888313512
 21
-43.01334968999279
  0
LINE
  5
A4
100
AcDbEntity
  8
noname
  6
ByLayer
 62
  256
370
   -1
100
AcDbLine
 10
38.19661888313512
 20
-43.01334968999279
 11
20.80995401548068
 21
-38.35460691607611
  0
LINE
  5
A5
100
AcDbEntity
  8
noname
  6
ByLayer
 62
  256
370
   -1
100
AcDbLine
 10
20.80995401548068
 20
-38.35460691607611
 11
25.46869678939736
 21
-20.96794204842168
  0
LINE
  5
A6
100
AcDbEntity
  8
noname
  6
ByLayer
 62
  256
370
   -1
100
AcDbLine
 10
51.77467264337276
 20
-23.68724041955019
 11
67.36312993999749
 21
-32.6872403752486
  0
LINE
  5
A7
100
AcDbEntity
  8
noname
  6
ByLayer
 62
  256
370
   -1
100
AcDbLine
 10
67.36312993999749
 20
-32.6872403752486
 11
53.11312995683702
 21
-57.36896438030546
  0
LINE
  5
A8
100
AcDbEntity
  8
noname
  6
ByLayer
 62
  256
370
   -1
100
AcDbLine
 10
53.11312995683702
 20
-57.36896438030546
 11
37.5246726602123
 21
-48.36896442460704
  0
LINE
  5
A9
100
AcDbEntity
  8
noname
  6
ByLayer
 62
  256
370
   -1
100
AcDbLine
 10
37.5246726602123
 20
-48.36896442460704
 11
51.77467264337276
 21
-23.68724041955019
  0
LINE
  5
AA
100
AcDbEntity
  8
noname
  6
ByLayer
 62
  256
370
   -1
100
AcDbLine
 10
0.9599473290809186
 20
-20.11104882894479
 11
18.95994731221985
 21
-20.11104888298941
  0
LINE
  5
AB
100
AcDbEntity
  8
noname
  6
ByLayer
 62
  256
370
   -1
100
AcDbLine
 10
18.95994731221985
 20
-20.11104888298941
 11
18.95994725817523
 21
-38.11104886612834
  0
LINE
  5
AC
100
AcDbEntity
  8
noname
  6
ByLayer
 62
  256
370
   -1
100
AcDbLine
 10
18.95994725817523
 20
-38.11104886612834
 11
0.9599472750362921
 21
-38.11104881208371
  0
LINE
  5
AD
100
AcDbEntity
  8
noname
  6
ByLayer
 62
  256
370
   -1
100
AcDbLine
 10
0.9599472750362921
 20
-38.11104881208371
 11
0.9599473290809186
 21
-20.11104882894479
  0
LINE
  5
AE
100
AcDbEntity
  8
noname1
  6
ByLayer
 62
  256
370
   -1
100
AcDbLine
 10
-9.155700893796407
 20
8.8415576528662
 11
9.155700893796414
 21
-8.841557652866197
  0
ARC
  5
AF
100
AcDbEntity
  8
0
  6
ByLayer
 62
  256
370
   -1
100
AcDbCircle
 10
72.58994737555783
 20
41.61395103119077
 40
1
100
AcDbArc
 50
359.9999998279706
 51
90.00000004079443
  0
ARC
  5
B0
100
AcDbEntity
  8
0
  6
ByLayer
 62
  256
370
   -1
100
AcDbCircle
 10
53.79942762558757
 20
-59.93026202723489
 40
1
100
AcDbArc
 50
240.0000001674904
 51
330.0000001376399
  0
ARC
  5
B1
100
AcDbEntity
  8
0
  6
ByLayer
 62
  256
370
   -1
100
AcDbCircle
 10
-27.15439101101637
 20
-41.80344118255691
 40
1
100
AcDbArc
 50
182.9999999006696
 51
273.0000000787131
  0
LINE
  5
B2
100
AcDbEntity
  8
0
  6
ByLayer
 62
  256
370
   -1
100
AcDbLine
 10
-28.82134708348995
 20
-29.10334669754005
 11
-28.15302054586168
 21
-41.85577713706859
  0
ARC
  5
B3
100
AcDbEntity
  8
0
  6
ByLayer
 62
  256
370
   -1
100
AcDbCircle
 10
-29.81997661833525
 20
-29.15568265205172
 40
1
100
AcDbArc
 50
2.999999900669564
 51
94.99999993196199
  0
LINE
  5
B4
100
AcDbEntity
  8
0
  6
ByLayer
 62
  256
370
   -1
100
AcDbLine
 10
-43.02839038925771
 20
-29.30744926692316
 11
-29.90713235989993
 21
-28.15948795385648
  0
ARC
  5
B5
100
AcDbEntity
  8
0
  6
ByLayer
 62
  256
370
   -1
100
AcDbCircle
 10
-42.94123464769304
 20
-30.30364396511841
 40
1
100
AcDbArc
 50
94.99999993196199
 51
185.0000001693515
  0
LINE
  5
B6
100
AcDbEntity
  8
0
  6
ByLayer
 62
  256
370
   -1
100
AcDbLine
 10
-43.69775104501478
 20
-33.130335128242
 11
-43.93742934552715
 21
-30.39079971081055
  0
ARC
  5
B7
100
AcDbEntity
  8
0
  6
ByLayer
 62
  256
370
   -1
100
AcDbCircle
 10
-44.6939457428489
 20
-33.21749087393414
 40
1
100
AcDbArc
 50
274.99999993017
 51
5.000000169351503
  0
LINE
  5
B8
100
AcDbEntity
  8
0
  6
ByLayer
 62
  256
370
   -1
100
AcDbLine
 10
-66.27402472869404
 20
-36.10932295412361
 11
-44.60679000131539
 21
-34.21368557213213
  0
ARC
  5
B9
100
AcDbEntity
  8
0
  6
ByLayer
 62
  256
370
   -1
100
AcDbCircle
 10
-66.36118047022764
 20
-35.11312825592567
 40
1
100
AcDbArc
 50
184.9999998933728
 51
274.9999999301697
  0
LINE
  5
BA
100
AcDbEntity
  8
0
  6
ByLayer
 62
  256
370
   -1
100
AcDbLine
 10
-67.3573751684816
 20
-35.2002839968194
 11
-72.56493069800759
 21
24.32234935101042
  0
ARC
  5
BB
100
AcDbEntity
  8
0
  6
ByLayer
 62
  256
370
   -1
100
AcDbCircle
 10
-71.56873599975363
 20
24.40950509190417
 40
1
100
AcDbArc
 50
95.00000001013369
 51
184.9999998933728
  0
LINE
  5
BC
100
AcDbEntity
  8
0
  6
ByLayer
 62
  256
370
   -1
100
AcDbLine
 10
-54.34202790478737
 20
26.92046660071299
 11
-71.65589174267747
 21
25.4056997899805
  0
ARC
  5
BD
100
AcDbEntity
  8
0
  6
ByLayer
 62
  256
370
   -1
100
AcDbCircle
 10
-54.42918364771121
 20
27.91666129878933
 40
1
100
AcDbArc
 50
275.0000000101336
 51
5.000000169351503
  0
LINE
  5
BE
100
AcDbEntity
  8
0
  6
ByLayer
 62
  256
370
   -1
100
AcDbLine
 10
-53.67266725055721
 20
30.74335246383018
 11
-53.4329889498771
 21
28.00381704448147
  0
ARC
  5
BF
100
AcDbEntity
  8
0
  6
ByLayer
 62
  256
370
   -1
100
AcDbCircle
 10
-52.676472552723
 20
30.83050820952236
 40
1
100
AcDbArc
 50
94.9999999622689
 51
185.0000001693515
  0
LINE
  5
C0
100
AcDbEntity
  8
0
  6
ByLayer
 62
  256
370
   -1
100
AcDbLine
 10
-34.01823375595605
 20
33.46671241070343
 11
-52.76362829481468
 21
31.82670290767148
  0
ARC
  5
C1
100
AcDbEntity
  8
0
  6
ByLayer
 62
  256
370
   -1
100
AcDbCircle
 10
-34.10538949804769
 20
34.46290710885256
 40
1
100
AcDbArc
 50
274.9999999622688
 51
2.999999835264383
  0
LINE
  5
C2
100
AcDbEntity
  8
0
  6
ByLayer
 62
  256
370
   -1
100
AcDbLine
 10
-33.52149019896682
 20
42.42876781586082
 11
-33.10675996314264
 21
34.51524306222428
  0
ARC
  5
C3
100
AcDbEntity
  8
0
  6
ByLayer
 62
  256
370
   -1
100
AcDbCircle
 10
-32.52286066406175
 20
42.48110376923251
 40
1
100
AcDbArc
 50
93.00000006767
 51
182.9999998352643
  0
LINE
  5
C4
100
AcDbEntity
  8
0
  6
ByLayer
 62
  256
370
   -1
100
AcDbLine
 10
-13.6183392404901
 20
44.47322012389922
 11
-32.57519662148415
 21
43.47973330392528
  0
ARC
  5
C5
100
AcDbEntity
  8
0
  6
ByLayer
 62
  256
370
   -1
100
AcDbCircle
 10
-13.67067519791249
 20
45.471849658592
 40
1
100
AcDbArc
 50
273.0000000676699
 51
0.9999997999913419
  0
LINE
  5
C6
100
AcDbEntity
  8
0
  6
ByLayer
 62
  256
370
   -1
100
AcDbLine
 10
-12.72617762082841
 20
48.66030884000706
 11
-12.67082750269516
 21
45.48930206153899
  0
ARC
  5
C7
100
AcDbEntity
  8
0
  6
ByLayer
 62
  256
370
   -1
100
AcDbCircle
 10
-11.72632992561105
 20
48.67776124295408
 40
1
100
AcDbArc
 50
90.99999984714115
 51
180.9999997999916
  0
LINE
  5
C8
100
AcDbEntity
  8
0
  6
ByLayer
 62
  256
370
   -1
100
AcDbLine
 10
10.0029050146039
 20
50.05719871968449
 11
-11.74378232938086
 21
49.67760893815703
  0
ARC
  5
C9
100
AcDbEntity
  8
0
  6
ByLayer
 62
  256
370
   -1
100
AcDbCircle
 10
10.02035741837371
 20
49.05735102448153
 40
1
100
AcDbArc
 50
0.9999995640381016
 51
90.99999984714115
  0
LINE
  5
CA
100
AcDbEntity
  8
0
  6
ByLayer
 62
  256
370
   -1
100
AcDbLine
 10
11.06608232341542
 20
46.44649869078975
 11
11.02020511366291
 21
49.074803423311
  0
ARC
  5
CB
100
AcDbEntity
  8
0
  6
ByLayer
 62
  256
370
   -1
100
AcDbCircle
 10
12.06593001870462
 20
46.46395108961922
 40
1
100
AcDbArc
 50
180.9999995640381
 51
269.9999999704943
  0
LINE
  5
CC
100
AcDbEntity
  8
0
  6
ByLayer
 62
  256
370
   -1
100
AcDbLine
 10
72.58994737484582
 20
42.61395103119077
 11
32.33494736080488
 21
42.61395100252955
  0
ARC
  5
CD
100
AcDbEntity
  8
0
  6
ByLayer
 62
  256
370
   -1
100
AcDbCircle
 10
32.33494736009288
 20
43.61395100252955
 40
1
100
AcDbArc
 50
180.0000003414053
 51
270.000000040794
  0
LINE
  5
CE
100
AcDbEntity
  8
0
  6
ByLayer
 62
  256
370
   -1
100
AcDbLine
 10
30.33494735554302
 20
45.46395108021115
 11
12.06593001818963
 21
45.46395108961921
  0
LINE
  5
CF
100
AcDbEntity
  8
0
  6
ByLayer
 62
  256
370
   -1
100
AcDbLine
 10
31.33494736009288
 20
43.6139509965709
 11
31.33494735502803
 21
44.4639510861698
  0
ARC
  5
D0
100
AcDbEntity
  8
0
  6
ByLayer
 62
  256
370
   -1
100
AcDbCircle
 10
30.33494735502805
 20
44.46395108021116
 40
1
100
AcDbArc
 50
3.414053195070352e-07
 51
89.999999970494
  0
LINE
  5
D1
100
AcDbEntity
  8
0
  6
ByLayer
 62
  256
370
   -1
100
AcDbLine
 10
54.66545303057315
 20
-60.43026202515446
 11
72.25020122548884
 21
-29.97258454428231
  0
LINE
  5
D2
100
AcDbEntity
  8
0
  6
ByLayer
 62
  256
370
   -1
100
AcDbLine
 10
73.58994737555784
 20
41.6139510281883
 11
73.58994717563311
 21
-24.97258459511136
  0
ARC
  5
D3
100
AcDbEntity
  8
0
  6
ByLayer
 62
  256
370
   -1
100
AcDbCircle
 10
63.58994717563311
 20
-24.97258456508656
 40
10
100
AcDbArc
 50
330.0000001376398
 51
359.9999998279706
  0
LINE
  5
D4
100
AcDbEntity
  8
0
  6
ByLayer
 62
  256
370
   -1
100
AcDbLine
 10
-27.10205505340149
 20
-42.80207071723957
 11
15.07720570223044
 21
-40.59154927113138
  0
LINE
  5
D5
100
AcDbEntity
  8
0
  6
ByLayer
 62
  256
370
   -1
100
AcDbLine
 10
53.2994276281192
 20
-60.79628743248094
 11
20.60056525306292
 21
-41.91759056549742
  0
ARC
  5
D6
100
AcDbEntity
  8
0
  6
ByLayer
 62
  256
370
   -1
100
AcDbCircle
 10
15.60056527837909
 20
-50.57784461795811
 40
10
100
AcDbArc
 50
60.00000016749053
 51
93.0000000787132
  0
LINE
  5
D7
100
AcDbEntity
  8
rpi
  6
ByLayer
 62
  256
370
   -1
100
AcDbLine
 10
50.71494724982904
 20
-0.2610490586868792
 11
70.71494724982901
 21
-0.2610491187364641
  0
LINE
  5
D8
100
AcDbEntity
  8
rpi
  6
ByLayer
 62
  256
370
   -1
100
AcDbLine
 10
50.71494732489098
 20
24.73895094131311
 11
50.71494724982904
 21
-0.2610490586868792
  0
LINE
  5
D9
100
AcDbEntity
  8
rpi
  6
ByLayer
 62
  256
370
   -1
100
AcDbLine
 10
70.714947324891
 20
24.73895088126352
 11
70.71494724982901
 21
-0.2610491187364641
  0
LINE
  5
DA
100
AcDbEntity
  8
rpi
  6
ByLayer
 62
  256
370
   -1
100
AcDbLine
 10
50.71494732489098
 20
24.73895094131311
 11
70.714947324891
 21
24.73895088126352
  0
LINE
  5
DB
100
AcDbEntity
  8
noname1
  6
ByLayer
 62
  256
370
   -1
100
AcDbLine
 10
-30.55230041761332
 20
40.70680336994222
 11
-11.63492148921435
 21
23.67351890832332
  0
LINE
  5
DC
100
AcDbEntity
  8
noname1
  6
ByLayer
 62
  256
370
   -1
100
AcDbLine
 10
-29.55791724423526
 20
21.73284224057758
 11
-10.64053831583628
 21
4.699557778958702
  0
LINE
  5
DD
100
AcDbEntity
  8
noname1
  6
ByLayer
 62
  256
370
   -1
100
AcDbLine
 10
-28.56353407085719
 20
2.758881111212964
 11
-9.646155142458227
 21
-14.27440335040592
  0
LINE
  5
DE
100
AcDbEntity
  8
noname1
  6
ByLayer
 62
  256
370
   -1
100
AcDbLine
 10
-26.32213784780443
 20
-21.85754924549524
 11
-7.404758919405452
 21
-38.89083370711413
  0
LINE
  5
DF
100
AcDbEntity
  8
noname1
  6
ByLayer
 62
  256
370
   -1
100
AcDbLine
 10
-9.818892253733864
 20
46.83577011258312
 11
8.49250953385895
 21
29.15265480685071
  0
LINE
  5
E0
100
AcDbEntity
  8
noname1
  6
ByLayer
 62
  256
370
   -1
100
AcDbLine
 10
-9.487296573765136
 20
27.83866388272466
 11
8.824105213827679
 21
10.15554857699225
  0
LINE
  5
E1
100
AcDbEntity
  8
noname1
  6
ByLayer
 62
  256
370
   -1
100
AcDbLine
 10
10.45994739128711
 20
42.58895106807009
 11
28.4599473203814
 21
24.58895103088654
  0
LINE
  5
E2
100
AcDbEntity
  8
noname1
  6
ByLayer
 62
  256
370
   -1
100
AcDbLine
 10
10.45994734930915
 20
23.58895109489909
 11
28.45994727840345
 21
5.588951057715541
  0
LINE
  5
E3
100
AcDbEntity
  8
noname1
  6
ByLayer
 62
  256
370
   -1
100
AcDbLine
 10
10.4599473073312
 20
4.588951121728082
 11
28.45994723642549
 21
-13.41104891545547
  0
LINE
  5
E4
100
AcDbEntity
  8
noname1
  6
ByLayer
 62
  256
370
   -1
100
AcDbLine
 10
29.83994738678926
 20
39.73895100398987
 11
47.83994731588356
 21
21.73895096680632
  0
LINE
  5
E5
100
AcDbEntity
  8
noname1
  6
ByLayer
 62
  256
370
   -1
100
AcDbLine
 10
29.83994734481131
 20
20.73895103081886
 11
47.83994727390561
 21
2.738950993635314
  0
LINE
  5
E6
100
AcDbEntity
  8
noname1
  6
ByLayer
 62
  256
370
   -1
100
AcDbLine
 10
29.83994730283337
 20
1.73895105764786
 11
47.83994723192767
 21
-16.26104897953569
  0
LINE
  5
E7
100
AcDbEntity
  8
noname1
  6
ByLayer
 62
  256
370
   -1
100
AcDbLine
 10
0.9599473290809115
 20
-20.11104882894479
 11
18.95994725817521
 21
-38.11104886612834
  0
LINE
  5
E8
100
AcDbEntity
  8
noname1
  6
ByLayer
 62
  256
370
   -1
100
AcDbLine
 10
25.46869678939736
 20
-20.96794204842168
 11
38.19661888313512
 21
-43.01334968999279
  0
LINE
  5
E9
100
AcDbEntity
  8
noname1
  6
ByLayer
 62
  256
370
   -1
100
AcDbLine
 10
51.77467264337277
 20
-23.68724041955019
 11
53.11312995683702
 21
-57.36896438030546
  0
LINE
  5
EA
100
AcDbEntity
  8
noname1
  6
ByLayer
 62
  256
370
   -1
100
AcDbLine
 10
50.71494732489098
 20
24.73895094131311
 11
70.714947249829
 21
-0.2610491187364641
  0
LINE
  5
EB
100
AcDbEntity
  8
ext1
  6
ByLayer
 62
  256
370
   -1
100
AcDbLine
 10
9.985452610834097
 20
51.05704641488744
 11
-11.76123473315066
 21
50.67745663335998
  0
ARC
  5
EC
100
AcDbEntity
  8
ext1
  6
ByLayer
 62
  256
370
   -1
100
AcDbCircle
 10
10.02035741837371
 20
49.05735102448153
 40
2
100
AcDbArc
 50
0.9999995640381016
 51
90.99999984714115
  0
ARC
  5
ED
100
AcDbEntity
  8
ext1
  6
ByLayer
 62
  256
370
   -1
100
AcDbCircle
 10
-11.72632992561105
 20
48.67776124295408
 40
2
100
AcDbArc
 50
90.99999984714115
 51
180.9999997999916
  0
ARC
  5
EE
100
AcDbEntity
  8
ext1
  6
ByLayer
 62
  256
370
   -1
100
AcDbCircle
 10
72.58994737555783
 20
41.61395103119077
 40
2
100
AcDbArc
 50
359.9999998279706
 51
90.00000004079443
  0
LINE
  5
EF
100
AcDbEntity
  8
ext1
  6
ByLayer
 62
  256
370
   -1
100
AcDbLine
 10
74.58994737555784
 20
41.61395102518581
 11
74.58994717563311
 21
-24.97258459811384
  0
LINE
  5
F0
100
AcDbEntity
  8
ext1
  6
ByLayer
 62
  256
370
   -1
100
AcDbLine
 10
55.53147843555872
 20
-60.93026202307404
 11
73.11622663047442
 21
-30.47258454220188
  0
ARC
  5
F1
100
AcDbEntity
  8
ext1
  6
ByLayer
 62
  256
370
   -1
100
AcDbCircle
 10
63.58994717563311
 20
-24.97258456508656
 40
11
100
AcDbArc
 50
330.0000001376398
 51
359.9999998279706
  0
ARC
  5
F2
100
AcDbEntity
  8
ext1
  6
ByLayer
 62
  256
370
   -1
100
AcDbCircle
 10
53.79942762558757
 20
-59.93026202723489
 40
2
100
AcDbArc
 50
240.0000001674904
 51
330.0000001376399
  0
LINE
  5
F3
100
AcDbEntity
  8
ext1
  6
ByLayer
 62
  256
370
   -1
100
AcDbLine
 10
52.79942763065082
 20
-61.66231283772701
 11
20.10056525559454
 21
-42.78361597074349
  0
LINE
  5
F4
100
AcDbEntity
  8
ext1
  6
ByLayer
 62
  256
370
   -1
100
AcDbLine
 10
-27.04971909578662
 20
-43.80070025192225
 11
15.12954165984531
 21
-41.59017880581406
  0
ARC
  5
F5
100
AcDbEntity
  8
ext1
  6
ByLayer
 62
  256
370
   -1
100
AcDbCircle
 10
15.60056527837909
 20
-50.57784461795811
 40
9
100
AcDbArc
 50
60.00000016749053
 51
93.0000000787132
  0
ARC
  5
F6
100
AcDbEntity
  8
ext1
  6
ByLayer
 62
  256
370
   -1
100
AcDbCircle
 10
-27.15439101101637
 20
-41.80344118255691
 40
2
100
AcDbArc
 50
182.9999999006696
 51
273.0000000787131
  0
ARC
  5
F7
100
AcDbEntity
  8
ext1
  6
ByLayer
 62
  256
370
   -1
100
AcDbCircle
 10
-44.6939457428489
 20
-33.21749087393414
 40
2
100
AcDbArc
 50
274.99999993017
 51
5.000000169351503
  0
LINE
  5
F8
100
AcDbEntity
  8
ext1
  6
ByLayer
 62
  256
370
   -1
100
AcDbLine
 10
-66.18686898716051
 20
-37.10551765232157
 11
-44.51963425978186
 21
-35.2098802703301
  0
ARC
  5
F9
100
AcDbEntity
  8
ext1
  6
ByLayer
 62
  256
370
   -1
100
AcDbCircle
 10
-66.36118047022764
 20
-35.11312825592567
 40
2
100
AcDbArc
 50
184.9999998933728
 51
274.9999999301697
  0
LINE
  5
FA
100
AcDbEntity
  8
ext1
  6
ByLayer
 62
  256
370
   -1
100
AcDbLine
 10
-68.35356986673554
 20
-35.28743973771314
 11
-73.56112539626153
 21
24.23519361011668
  0
ARC
  5
FB
100
AcDbEntity
  8
ext1
  6
ByLayer
 62
  256
370
   -1
100
AcDbCircle
 10
-71.56873599975363
 20
24.40950509190417
 40
2
100
AcDbArc
 50
95.00000001013369
 51
184.9999998933728
  0
ARC
  5
FC
100
AcDbEntity
  8
ext1
  6
ByLayer
 62
  256
370
   -1
100
AcDbCircle
 10
-52.676472552723
 20
30.83050820952236
 40
2
100
AcDbArc
 50
94.9999999622689
 51
185.0000001693515
  0
ARC
  5
FD
100
AcDbEntity
  8
ext1
  6
ByLayer
 62
  256
370
   -1
100
AcDbCircle
 10
-32.52286066406175
 20
42.48110376923251
 40
2
100
AcDbArc
 50
93.00000006767
 51
182.9999998352643
  0
LINE
  5
FE
100
AcDbEntity
  8
ext1
  6
ByLayer
 62
  256
370
   -1
100
AcDbLine
 10
30.334947356058
 20
46.46395108021115
 11
13.04862728879261
 21
46.46395108911315
  0
LINE
  5
FF
100
AcDbEntity
  8
ext1
  6
ByLayer
 62
  256
370
   -1
100
AcDbLine
 10
12.0487795940184
 20
47.44649869028368
 11
12.0200528089521
 21
49.09225582214047
  0
ARC
  5
100
100
AcDbEntity
  8
ext1
  6
ByLayer
 62
  256
370
   -1
100
AcDbCircle
 10
13.04862728930758
 20
47.46395108911315
 40
1
100
AcDbArc
 50
180.9999995640379
 51
269.999999970494
  0
LINE
  5
101
100
AcDbEntity
  8
ext1
  6
ByLayer
 62
  256
370
   -1
100
AcDbLine
 10
-13.72602531604572
 20
48.64285643706005
 11
-13.68752878745303
 21
46.43739134986645
  0
LINE
  5
102
100
AcDbEntity
  8
ext1
  6
ByLayer
 62
  256
370
   -1
100
AcDbLine
 10
-14.63504052524796
 20
45.42130941222667
 11
-32.62753257890654
 21
44.47836283861804
  0
ARC
  5
103
100
AcDbEntity
  8
ext1
  6
ByLayer
 62
  256
370
   -1
100
AcDbCircle
 10
-14.68737648267034
 20
46.41993894691943
 40
1
100
AcDbArc
 50
273.0000000676699
 51
0.9999997999918762
  0
LINE
  5
104
100
AcDbEntity
  8
ext1
  6
ByLayer
 62
  256
370
   -1
100
AcDbLine
 10
72.58994737413383
 20
43.61395103119077
 11
33.3311950129092
 21
43.61395100323887
  0
ARC
  5
105
100
AcDbEntity
  8
ext1
  6
ByLayer
 62
  256
370
   -1
100
AcDbCircle
 10
30.33494735502805
 20
44.46395108021116
 40
2
100
AcDbArc
 50
2.865982510695319
 51
89.999999970494
  0
ARC
  5
106
100
AcDbEntity
  8
ext1
  6
ByLayer
 62
  256
370
   -1
100
AcDbCircle
 10
33.33119501219721
 20
44.61395100323887
 40
1
100
AcDbArc
 50
182.8659825106953
 51
270.0000000407937
  0
LINE
  5
107
100
AcDbEntity
  8
ext1
  6
ByLayer
 62
  256
370
   -1
100
AcDbLine
 10
-35.06740353343888
 20
34.37874178724138
 11
-52.85078403690631
 21
32.82289760582062
  0
LINE
  5
108
100
AcDbEntity
  8
ext1
  6
ByLayer
 62
  256
370
   -1
100
AcDbLine
 10
-34.52011973387187
 20
42.37643186248911
 11
-34.15592974062547
 21
35.42727243876222
  0
ARC
  5
109
100
AcDbEntity
  8
ext1
  6
ByLayer
 62
  256
370
   -1
100
AcDbCircle
 10
-35.15455927553052
 20
35.37493648539051
 40
1
100
AcDbArc
 50
274.9999999622689
 51
2.999999835264231
  0
LINE
  5
10A
100
AcDbEntity
  8
ext1
  6
ByLayer
 62
  256
370
   -1
100
AcDbLine
 10
-55.42537834855588
 20
27.82950555562327
 11
-71.74304748560132
 21
26.40189448805683
  0
LINE
  5
10B
100
AcDbEntity
  8
ext1
  6
ByLayer
 62
  256
370
   -1
100
AcDbLine
 10
-54.66886194839135
 20
30.65619671813803
 11
-54.51633939364559
 21
28.91285599939177
  0
ARC
  5
10C
100
AcDbEntity
  8
ext1
  6
ByLayer
 62
  256
370
   -1
100
AcDbCircle
 10
-55.51253409147973
 20
28.8257002536996
 40
1
100
AcDbArc
 50
275.0000000101335
 51
5.000000169352012
  0
LINE
  5
10D
100
AcDbEntity
  8
ext1
  6
ByLayer
 62
  256
370
   -1
100
AcDbLine
 10
-42.70155634718065
 20
-33.04317938254984
 11
-42.85407890163975
 21
-31.29983866708001
  0
ARC
  5
10E
100
AcDbEntity
  8
ext1
  6
ByLayer
 62
  256
370
   -1
100
AcDbCircle
 10
-41.85788420380562
 20
-31.21268292138786
 40
1
100
AcDbArc
 50
94.9999999319618
 51
185.0000001693519
  0
LINE
  5
10F
100
AcDbEntity
  8
ext1
  6
ByLayer
 62
  256
370
   -1
100
AcDbLine
 10
-41.9450399453703
 20
-30.21648822319261
 11
-30.85156642731763
 21
-29.24593506451217
  0
LINE
  5
110
100
AcDbEntity
  8
ext1
  6
ByLayer
 62
  256
370
   -1
100
AcDbLine
 10
-29.76578115090764
 20
-30.18979380819574
 11
-29.15165008070699
 21
-41.90811309158026
  0
ARC
  5
111
100
AcDbEntity
  8
ext1
  6
ByLayer
 62
  256
370
   -1
100
AcDbCircle
 10
-30.76441068575295
 20
-30.24212976270742
 40
1
100
AcDbArc
 50
2.999999900669538
 51
94.9999999319618
  0
ARC
  5
112
100
AcDbEntity
  8
ext2
  6
ByLayer
 62
  256
370
   -1
100
AcDbCircle
 10
53.79942762558757
 20
-59.93026202723489
 40
7
100
AcDbArc
 50
240.0000001674904
 51
330.0000001376399
  0
ARC
  5
113
100
AcDbEntity
  8
ext2
  6
ByLayer
 62
  256
370
   -1
100
AcDbCircle
 10
75.58994738456528
 20
44.61395103332674
 40
4
100
AcDbArc
 50
359.9999998279706
 51
90.00000004079415
  0
ARC
  5
114
100
AcDbEntity
  8
ext2
  6
ByLayer
 62
  256
370
   -1
100
AcDbCircle
 10
-27.15439101101637
 20
-41.80344118255691
 40
7
100
AcDbArc
 50
189.7874167232794
 51
273.0000000787131
  0
ARC
  5
115
100
AcDbEntity
  8
ext2
  6
ByLayer
 62
  256
370
   -1
100
AcDbCircle
 10
-37.99428882770325
 20
-43.67336506437308
 40
4
100
AcDbArc
 50
9.78741672327947
 51
94.99999993016989
  0
LINE
  5
116
100
AcDbEntity
  8
ext2
  6
ByLayer
 62
  256
370
   -1
100
AcDbLine
 10
-26.78803930771229
 20
-48.79384792533563
 11
15.39122144791967
 21
-46.58332647922744
  0
LINE
  5
117
100
AcDbEntity
  8
ext2
  6
ByLayer
 62
  256
370
   -1
100
AcDbLine
 10
50.29942764330891
 20
-65.99243986395736
 11
17.60056526825267
 21
-47.11374299697385
  0
ARC
  5
118
100
AcDbEntity
  8
ext2
  6
ByLayer
 62
  256
370
   -1
100
AcDbCircle
 10
15.60056527837914
 20
-50.57784461795813
 40
4
100
AcDbArc
 50
60.00000016749046
 51
93.00000007871323
  0
LINE
  5
119
100
AcDbEntity
  8
ext2
  6
ByLayer
 62
  256
370
   -1
100
AcDbLine
 10
59.86160546048659
 20
-63.43026201267191
 11
79.05404878592125
 21
-30.18797486721135
  0
LINE
  5
11A
100
AcDbEntity
  8
ext2
  6
ByLayer
 62
  256
370
   -1
100
AcDbLine
 10
79.58994738456528
 20
44.61395102131682
 11
79.58994716597897
 21
-28.18797488754298
  0
ARC
  5
11B
100
AcDbEntity
  8
ext2
  6
ByLayer
 62
  256
370
   -1
100
AcDbCircle
 10
75.58994716597897
 20
-28.18797487553305
 40
4
100
AcDbArc
 50
330.0000001376397
 51
359.9999998279704
  0
LINE
  5
11C
100
AcDbEntity
  8
ext2
  6
ByLayer
 62
  256
370
   -1
100
AcDbLine
 10
-68.73967437600621
 20
-42.34795836807994
 11
-38.34291179383737
 21
-39.68858627158121
  0
ARC
  5
11D
100
AcDbEntity
  8
ext2
  6
ByLayer
 62
  256
370
   -1
100
AcDbCircle
 10
-69.08829734214034
 20
-38.36317957528806
 40
4
100
AcDbArc
 50
184.9999998933728
 51
274.99999993017
  0
LINE
  5
11E
100
AcDbEntity
  8
ext2
  6
ByLayer
 62
  256
370
   -1
100
AcDbLine
 10
-73.0730761351561
 20
-38.71180253886304
 11
-78.80356610967964
 21
26.78799899431947
  0
ARC
  5
11F
100
AcDbEntity
  8
ext2
  6
ByLayer
 62
  256
370
   -1
100
AcDbCircle
 10
-74.81878731666387
 20
27.13662195789444
 40
4
100
AcDbArc
 50
95.0000000101337
 51
184.9999998933727
  0
LINE
  5
120
100
AcDbEntity
  8
ext2
  6
ByLayer
 62
  256
370
   -1
100
AcDbLine
 10
-63.83071466993226
 20
32.11323310067655
 11
-75.16741028835928
 21
31.12140075019976
  0
ARC
  5
121
100
AcDbEntity
  8
ext2
  6
ByLayer
 62
  256
370
   -1
100
AcDbCircle
 10
-64.17933764162767
 20
36.09801189298188
 40
4
100
AcDbArc
 50
275.0000000101337
 51
341.0305177624941
  0
ARC
  5
122
100
AcDbEntity
  8
ext2
  6
ByLayer
 62
  256
370
   -1
100
AcDbCircle
 10
-56.61380283678831
 20
33.49749596017857
 40
4
100
AcDbArc
 50
94.99999996226889
 51
161.030517762494
  0
ARC
  5
123
100
AcDbEntity
  8
ext2
  6
ByLayer
 62
  256
370
   -1
100
AcDbCircle
 10
-35.67575712825517
 20
45.31998450168049
 40
4
100
AcDbArc
 50
93.0000000676699
 51
182.9999998352644
  0
LINE
  5
124
100
AcDbEntity
  8
ext2
  6
ByLayer
 62
  256
370
   -1
100
AcDbLine
 10
-39.553399355773
 20
42.88051531118095
 11
-39.67027526787537
 21
45.11064068819367
  0
LINE
  5
125
100
AcDbEntity
  8
ext2
  6
ByLayer
 62
  256
370
   -1
100
AcDbLine
 10
-43.19929452702666
 20
38.68639270509756
 11
-56.96242580515484
 21
37.48227475277513
  0
ARC
  5
126
100
AcDbEntity
  8
ext2
  6
ByLayer
 62
  256
370
   -1
100
AcDbCircle
 10
-43.54791749539319
 20
42.67117149769413
 40
4
100
AcDbArc
 50
274.9999999622688
 51
2.999999835264434
  0
LINE
  5
127
100
AcDbEntity
  8
ext2
  6
ByLayer
 62
  256
370
   -1
100
AcDbLine
 10
-22.61164293104374
 20
50.01013511476792
 11
-35.88510095794472
 21
49.31450264045155
  0
ARC
  5
128
100
AcDbEntity
  8
ext2
  6
ByLayer
 62
  256
370
   -1
100
AcDbCircle
 10
-22.82098676073328
 20
54.00465325353896
 40
4
100
AcDbArc
 50
273.0000000676699
 51
342.6413809819601
  0
ARC
  5
129
100
AcDbEntity
  8
ext2
  6
ByLayer
 62
  256
370
   -1
100
AcDbCircle
 10
-15.18533830342962
 20
51.61784102035507
 40
4
100
AcDbArc
 50
90.99999984714104
 51
162.6413809819601
  0
LINE
  5
12A
100
AcDbEntity
  8
ext2
  6
ByLayer
 62
  256
370
   -1
100
AcDbLine
 10
12.89773369241497
 20
56.10864210247029
 11
-15.25514791850881
 21
55.61723180116687
  0
LINE
  5
12B
100
AcDbEntity
  8
ext2
  6
ByLayer
 62
  256
370
   -1
100
AcDbLine
 10
30.33494735863287
 20
51.46395108021115
 11
20.23018672880659
 21
51.46395108541484
  0
ARC
  5
12C
100
AcDbEntity
  8
ext2
  6
ByLayer
 62
  256
370
   -1
100
AcDbCircle
 10
12.96754330749417
 20
52.10925132165848
 40
4
100
AcDbArc
 50
24.79276629881296
 51
90.99999984714117
  0
ARC
  5
12D
100
AcDbEntity
  8
ext2
  6
ByLayer
 62
  256
370
   -1
100
AcDbCircle
 10
20.23018673086649
 20
55.46395108541483
 40
4
100
AcDbArc
 50
204.792766298813
 51
269.9999999704941
  0
LINE
  5
12E
100
AcDbEntity
  8
ext2
  6
ByLayer
 62
  256
370
   -1
100
AcDbLine
 10
75.58994738171731
 20
48.61395103332674
 11
37.72260606708041
 21
48.61395100636551
  0
ARC
  5
12F
100
AcDbEntity
  8
ext2
  6
ByLayer
 62
  256
370
   -1
100
AcDbCircle
 10
30.33494735502805
 20
44.46395108021116
 40
7
100
AcDbArc
 50
47.80891327424186
 51
89.999999970494
  0
ARC
  5
130
100
AcDbEntity
  8
ext2
  6
ByLayer
 62
  256
370
   -1
100
AcDbCircle
 10
37.72260606423244
 20
52.61395100636552
 40
4
100
AcDbArc
 50
227.8089132742417
 51
270.0000000407941
  0
LINE
  5
131
100
AcDbEntity
  8
ext3
  6
ByLayer
 62
  256
370
   -1
100
AcDbLine
 10
12.86282888487537
 20
58.1083374928762
 11
-15.29005272604841
 21
57.61692719157278
  0
ARC
  5
132
100
AcDbEntity
  8
ext3
  6
ByLayer
 62
  256
370
   -1
100
AcDbCircle
 10
12.96754330749417
 20
52.10925132165848
 40
6
100
AcDbArc
 50
24.79276629881296
 51
90.99999984714117
  0
LINE
  5
133
100
AcDbEntity
  8
ext3
  6
ByLayer
 62
  256
370
   -1
100
AcDbLine
 10
30.33494735966282
 20
53.46395108021115
 11
20.23018672983654
 21
53.46395108541484
  0
ARC
  5
134
100
AcDbEntity
  8
ext3
  6
ByLayer
 62
  256
370
   -1
100
AcDbCircle
 10
20.23018673086649
 20
55.46395108541483
 40
2
100
AcDbArc
 50
204.792766298813
 51
269.9999999704941
  0
ARC
  5
135
100
AcDbEntity
  8
ext3
  6
ByLayer
 62
  256
370
   -1
100
AcDbCircle
 10
30.33494735502805
 20
44.46395108021116
 40
9
100
AcDbArc
 50
47.80891327424186
 51
89.999999970494
  0
ARC
  5
136
100
AcDbEntity
  8
ext3
  6
ByLayer
 62
  256
370
   -1
100
AcDbCircle
 10
37.72260606423244
 20
52.61395100636552
 40
2
100
AcDbArc
 50
227.8089132742417
 51
270.0000000407941
  0
LINE
  5
137
100
AcDbEntity
  8
ext3
  6
ByLayer
 62
  256
370
   -1
100
AcDbLine
 10
75.58994738029332
 20
50.61395103332674
 11
37.72260606565642
 21
50.61395100636551
  0
ARC
  5
138
100
AcDbEntity
  8
ext3
  6
ByLayer
 62
  256
370
   -1
100
AcDbCircle
 10
75.58994738456528
 20
44.61395103332674
 40
6
100
AcDbArc
 50
359.9999998279706
 51
90.00000004079415
  0
LINE
  5
139
100
AcDbEntity
  8
ext3
  6
ByLayer
 62
  256
370
   -1
100
AcDbLine
 10
81.58994738456528
 20
44.61395101531186
 11
81.58994716597897
 21
-28.18797489354794
  0
ARC
  5
13A
100
AcDbEntity
  8
ext3
  6
ByLayer
 62
  256
370
   -1
100
AcDbCircle
 10
75.58994716597897
 20
-28.18797487553305
 40
6
100
AcDbArc
 50
330.0000001376397
 51
359.9999998279704
  0
LINE
  5
13B
100
AcDbEntity
  8
ext3
  6
ByLayer
 62
  256
370
   -1
100
AcDbLine
 10
61.59365627045773
 20
-64.43026200851106
 11
80.7860995958924
 21
-31.1879748630505
  0
ARC
  5
13C
100
AcDbEntity
  8
ext3
  6
ByLayer
 62
  256
370
   -1
100
AcDbCircle
 10
53.79942762558757
 20
-59.93026202723489
 40
9
100
AcDbArc
 50
240.0000001674904
 51
330.0000001376399
  0
LINE
  5
13D
100
AcDbEntity
  8
ext3
  6
ByLayer
 62
  256
370
   -1
100
AcDbLine
 10
49.29942764837214
 20
-67.7244906744495
 11
16.6005652733159
 21
-48.84579380746599
  0
LINE
  5
13E
100
AcDbEntity
  8
ext3
  6
ByLayer
 62
  256
370
   -1
100
AcDbLine
 10
-26.68336739248256
 20
-50.79110699470098
 11
15.4958933631494
 21
-48.58058554859279
  0
ARC
  5
13F
100
AcDbEntity
  8
ext3
  6
ByLayer
 62
  256
370
   -1
100
AcDbCircle
 10
15.60056527837914
 20
-50.57784461795813
 40
2
100
AcDbArc
 50
60.00000016749046
 51
93.00000007871323
  0
ARC
  5
140
100
AcDbEntity
  8
ext3
  6
ByLayer
 62
  256
370
   -1
100
AcDbCircle
 10
-27.15439101101637
 20
-41.80344118255691
 40
9
100
AcDbArc
 50
189.7874167232794
 51
273.0000000787131
  0
LINE
  5
141
100
AcDbEntity
  8
ext3
  6
ByLayer
 62
  256
370
   -1
100
AcDbLine
 10
-68.56536289293915
 20
-44.34034776447588
 11
-38.16860031077031
 21
-41.68097566797714
  0
ARC
  5
142
100
AcDbEntity
  8
ext3
  6
ByLayer
 62
  256
370
   -1
100
AcDbCircle
 10
-37.99428882770325
 20
-43.67336506437308
 40
2
100
AcDbArc
 50
9.78741672327947
 51
94.99999993016989
  0
ARC
  5
143
100
AcDbEntity
  8
ext3
  6
ByLayer
 62
  256
370
   -1
100
AcDbCircle
 10
-69.08829734214034
 20
-38.36317957528806
 40
6
100
AcDbArc
 50
184.9999998933728
 51
274.99999993017
  0
LINE
  5
144
100
AcDbEntity
  8
ext3
  6
ByLayer
 62
  256
370
   -1
100
AcDbLine
 10
-75.06546553166399
 20
-38.88611402065053
 11
-80.79595550618752
 21
26.61368751253198
  0
ARC
  5
145
100
AcDbEntity
  8
ext3
  6
ByLayer
 62
  256
370
   -1
100
AcDbCircle
 10
-74.81878731666387
 20
27.13662195789444
 40
6
100
AcDbArc
 50
95.0000000101337
 51
184.9999998933727
  0
LINE
  5
146
100
AcDbEntity
  8
ext3
  6
ByLayer
 62
  256
370
   -1
100
AcDbLine
 10
-64.00502615577996
 20
34.10562249682921
 11
-75.34172177420697
 21
33.11379014635242
  0
ARC
  5
147
100
AcDbEntity
  8
ext3
  6
ByLayer
 62
  256
370
   -1
100
AcDbCircle
 10
-64.17933764162767
 20
36.09801189298188
 40
2
100
AcDbArc
 50
275.0000000101337
 51
341.0305177624941
  0
ARC
  5
148
100
AcDbEntity
  8
ext3
  6
ByLayer
 62
  256
370
   -1
100
AcDbCircle
 10
-56.61380283678831
 20
33.49749596017857
 40
6
100
AcDbArc
 50
94.99999996226889
 51
161.030517762494
  0
LINE
  5
149
100
AcDbEntity
  8
ext3
  6
ByLayer
 62
  256
370
   -1
100
AcDbLine
 10
-43.37360601120992
 20
40.67878210139584
 11
-57.1367372893381
 21
39.47466414907341
  0
ARC
  5
14A
100
AcDbEntity
  8
ext3
  6
ByLayer
 62
  256
370
   -1
100
AcDbCircle
 10
-43.54791749539319
 20
42.67117149769413
 40
2
100
AcDbArc
 50
274.9999999622688
 51
2.999999835264434
  0
LINE
  5
14B
100
AcDbEntity
  8
ext3
  6
ByLayer
 62
  256
370
   -1
100
AcDbLine
 10
-41.55065842558309
 20
42.77584340443754
 11
-41.66753433768547
 21
45.00596878145026
  0
ARC
  5
14C
100
AcDbEntity
  8
ext3
  6
ByLayer
 62
  256
370
   -1
100
AcDbCircle
 10
-35.67575712825517
 20
45.31998450168049
 40
6
100
AcDbArc
 50
93.0000000676699
 51
182.9999998352644
  0
LINE
  5
14D
100
AcDbEntity
  8
ext3
  6
ByLayer
 62
  256
370
   -1
100
AcDbLine
 10
-22.71631484588851
 20
52.00739418415344
 11
-35.98977287278949
 21
51.31176170983707
  0
ARC
  5
14E
100
AcDbEntity
  8
ext3
  6
ByLayer
 62
  256
370
   -1
100
AcDbCircle
 10
-22.82098676073328
 20
54.00465325353896
 40
2
100
AcDbArc
 50
273.0000000676699
 51
342.6413809819601
  0
ARC
  5
14F
100
AcDbEntity
  8
ext3
  6
ByLayer
 62
  256
370
   -1
100
AcDbCircle
 10
-15.18533830342962
 20
51.61784102035507
 40
6
100
AcDbArc
 50
90.99999984714104
 51
162.6413809819601
  0
ARC
  5
150
100
AcDbEntity
  8
int
  6
ByLayer
 62
  256
370
   -1
100
AcDbCircle
 10
15.60056527837909
 20
-50.57784461795811
 40
12
100
AcDbArc
 50
60.00000016749053
 51
93.0000000787132
  0
ARC
  5
151
100
AcDbEntity
  8
int
  6
ByLayer
 62
  256
370
   -1
100
AcDbCircle
 10
50.58994736955289
 20
39.61395101552694
 40
1
100
AcDbArc
 50
359.9999998279708
 51
90.00000004079415
  0
LINE
  5
152
100
AcDbEntity
  8
int
  6
ByLayer
 62
  256
370
   -1
100
AcDbLine
 10
51.58994736955289
 20
39.61395101252447
 11
51.58994734553305
 21
31.61395101995341
  0
ARC
  5
153
100
AcDbEntity
  8
int
  6
ByLayer
 62
  256
370
   -1
100
AcDbCircle
 10
52.58994734553305
 20
31.61395101695094
 40
1
100
AcDbArc
 50
179.9999998279708
 51
270.0000000407941
  0
LINE
  5
154
100
AcDbEntity
  8
int
  6
ByLayer
 62
  256
370
   -1
100
AcDbLine
 10
70.58994733881609
 20
30.61395102976678
 11
52.58994734624504
 21
30.61395101695094
  0
ARC
  5
155
100
AcDbEntity
  8
int
  6
ByLayer
 62
  256
370
   -1
100
AcDbCircle
 10
70.58994733952808
 20
29.61395102976678
 40
1
100
AcDbArc
 50
359.9999998279706
 51
90.00000004079415
  0
LINE
  5
156
100
AcDbEntity
  8
int
  6
ByLayer
 62
  256
370
   -1
100
AcDbLine
 10
52.56737681346623
 20
-58.06423662757304
 11
21.60056524799968
 21
-40.18553975500528
  0
ARC
  5
157
100
AcDbEntity
  8
int
  6
ByLayer
 62
  256
370
   -1
100
AcDbCircle
 10
53.06737681093461
 20
-57.19821122232697
 40
1
100
AcDbArc
 50
240.0000001674903
 51
330.0000001376396
  0
ARC
  5
158
100
AcDbEntity
  8
int
  6
ByLayer
 62
  256
370
   -1
100
AcDbCircle
 10
-46.86064663062917
 20
-31.39941296133296
 40
1
100
AcDbArc
 50
274.9999999301698
 51
5.000000169351835
  0
LINE
  5
159
100
AcDbEntity
  8
int
  6
ByLayer
 62
  256
370
   -1
100
AcDbLine
 10
-64.45594681408566
 20
-33.94262207454867
 11
-46.77349088909564
 21
-32.39560765953092
  0
ARC
  5
15A
100
AcDbEntity
  8
int
  6
ByLayer
 62
  256
370
   -1
100
AcDbCircle
 10
-64.5431025556192
 20
-32.9464273763507
 40
1
100
AcDbArc
 50
184.9999998933726
 51
274.9999999301702
  0
ARC
  5
15B
100
AcDbEntity
  8
int
  6
ByLayer
 62
  256
370
   -1
100
AcDbCircle
 10
-50.50977166504047
 20
29.01243029803734
 40
1
100
AcDbArc
 50
94.99999996226852
 51
185.0000001693521
  0
ARC
  5
15C
100
AcDbEntity
  8
int
  6
ByLayer
 62
  256
370
   -1
100
AcDbCircle
 10
-30.42092968793283
 20
40.5885166142672
 40
1
100
AcDbArc
 50
93.00000006767
 51
182.9999998352642
  0
ARC
  5
15D
100
AcDbEntity
  8
int
  6
ByLayer
 62
  256
370
   -1
100
AcDbCircle
 10
-9.691729729311167
 20
46.71297066005904
 40
1
100
AcDbArc
 50
90.99999984714138
 51
180.9999997999919
  0
LINE
  5
15E
100
AcDbEntity
  8
int
  6
ByLayer
 62
  256
370
   -1
100
AcDbLine
 10
8.038114421856964
 20
48.02259852156651
 11
-9.70918213308097
 21
47.712818355262
  0
ARC
  5
15F
100
AcDbEntity
  8
int
  6
ByLayer
 62
  256
370
   -1
100
AcDbCircle
 10
8.055566825626764
 20
47.02275082636356
 40
1
100
AcDbArc
 50
0.9999995640379744
 51
90.9999998471412
  0
ARC
  5
160
100
AcDbEntity
  8
int
  6
ByLayer
 62
  256
370
   -1
100
AcDbCircle
 10
28.33494736694531
 20
42.4639510812411
 40
1
100
AcDbArc
 50
3.414061337290337e-07
 51
89.99999997049423
  0
LINE
  5
161
100
AcDbEntity
  8
int
  6
ByLayer
 62
  256
370
   -1
100
AcDbLine
 10
50.5899473688409
 20
40.61395101552695
 11
30.33494737272216
 21
40.61395100110556
  0
LINE
  5
162
100
AcDbEntity
  8
int
  6
ByLayer
 62
  256
370
   -1
100
AcDbLine
 10
29.33494737201016
 20
41.61395099514692
 11
29.33494736694531
 21
42.46395108719976
  0
ARC
  5
163
100
AcDbEntity
  8
int
  6
ByLayer
 62
  256
370
   -1
100
AcDbCircle
 10
30.33494737201016
 20
41.61395100110557
 40
1
100
AcDbArc
 50
180.0000003414053
 51
270.0000000407941
  0
LINE
  5
164
100
AcDbEntity
  8
int
  6
ByLayer
 62
  256
370
   -1
100
AcDbLine
 10
28.33494736746029
 20
43.4639510812411
 11
10.10053547698368
 21
43.46395109063134
  0
LINE
  5
165
100
AcDbEntity
  8
int
  6
ByLayer
 62
  256
370
   -1
100
AcDbLine
 10
9.100687782209468
 20
44.44649869180187
 11
9.055414520915948
 21
47.04020322519303
  0
ARC
  5
166
100
AcDbEntity
  8
int
  6
ByLayer
 62
  256
370
   -1
100
AcDbCircle
 10
10.10053547749865
 20
44.46395109063134
 40
1
100
AcDbArc
 50
180.9999995640379
 51
269.9999999704942
  0
LINE
  5
167
100
AcDbEntity
  8
int
  6
ByLayer
 62
  256
370
   -1
100
AcDbLine
 10
-11.58493667097435
 20
42.57704154724434
 11
-30.47326564535522
 21
41.58714614895996
  0
LINE
  5
168
100
AcDbEntity
  8
int
  6
ByLayer
 62
  256
370
   -1
100
AcDbLine
 10
-10.69157742452848
 20
46.69551825711203
 11
-10.63742493317942
 21
43.59312348488412
  0
ARC
  5
169
100
AcDbEntity
  8
int
  6
ByLayer
 62
  256
370
   -1
100
AcDbCircle
 10
-11.63727262839674
 20
43.5756710819371
 40
1
100
AcDbArc
 50
273.0000000676698
 51
0.9999997999918762
  0
LINE
  5
16A
100
AcDbEntity
  8
int
  6
ByLayer
 62
  256
370
   -1
100
AcDbLine
 10
-31.91989420099039
 20
31.64265365762753
 11
-50.5969274071321
 21
30.00862499618647
  0
LINE
  5
16B
100
AcDbEntity
  8
int
  6
ByLayer
 62
  256
370
   -1
100
AcDbLine
 10
-31.41955922283788
 20
40.5361806608955
 11
-31.00842040817697
 21
32.69118430914837
  0
ARC
  5
16C
100
AcDbEntity
  8
int
  6
ByLayer
 62
  256
370
   -1
100
AcDbCircle
 10
-32.00704994308202
 20
32.63884835577667
 40
1
100
AcDbArc
 50
274.9999999622689
 51
2.999999835264205
  0
LINE
  5
16D
100
AcDbEntity
  8
int
  6
ByLayer
 62
  256
370
   -1
100
AcDbLine
 10
-51.50596636287461
 20
28.92527455234518
 11
-51.26628806234012
 21
26.18573913466091
  0
ARC
  5
16E
100
AcDbEntity
  8
int
  6
ByLayer
 62
  256
370
   -1
100
AcDbCircle
 10
-52.26248276017429
 20
26.09858338896875
 40
1
100
AcDbArc
 50
275.0000000101335
 51
5.00000016935186
  0
LINE
  5
16F
100
AcDbEntity
  8
int
  6
ByLayer
 62
  256
370
   -1
100
AcDbLine
 10
-52.17532701725045
 20
25.10238869089242
 11
-69.48919086473735
 21
23.58762187932031
  0
ARC
  5
170
100
AcDbEntity
  8
int
  6
ByLayer
 62
  256
370
   -1
100
AcDbCircle
 10
-69.4020351218135
 20
22.59142718124398
 40
1
100
AcDbArc
 50
95.0000000101339
 51
184.9999998933729
  0
LINE
  5
171
100
AcDbEntity
  8
int
  6
ByLayer
 62
  256
370
   -1
100
AcDbLine
 10
-45.86445193279503
 20
-31.3122572156408
 11
-46.10413023330194
 21
-28.57272179827167
  0
ARC
  5
172
100
AcDbEntity
  8
int
  6
ByLayer
 62
  256
370
   -1
100
AcDbCircle
 10
-45.10793553546785
 20
-28.48556605257951
 40
1
100
AcDbArc
 50
94.9999999319618
 51
185.0000001693518
  0
LINE
  5
173
100
AcDbEntity
  8
int
  6
ByLayer
 62
  256
370
   -1
100
AcDbLine
 10
-45.19509127703253
 20
-27.48937135438427
 11
-28.01826422506458
 21
-25.98659373254509
  0
ARC
  5
174
100
AcDbEntity
  8
int
  6
ByLayer
 62
  256
370
   -1
100
AcDbCircle
 10
-27.93110848349989
 20
-26.98278843074033
 40
1
100
AcDbArc
 50
2.999999900669538
 51
94.99999993196199
  0
LINE
  5
175
100
AcDbEntity
  8
int
  6
ByLayer
 62
  256
370
   -1
100
AcDbLine
 10
-25.20946789305939
 20
-40.70013973231923
 11
14.97253378700071
 21
-38.59429020176604
  0
LINE
  5
176
100
AcDbEntity
  8
int
  6
ByLayer
 62
  256
370
   -1
100
AcDbLine
 10
-26.26043338551969
 20
-39.75384615214823
 11
-26.93247894865459
 21
-26.93045247622866
  0
ARC
  5
177
100
AcDbEntity
  8
int
  6
ByLayer
 62
  256
370
   -1
100
AcDbCircle
 10
-25.26180385067426
 20
-39.70151019763655
 40
1
100
AcDbArc
 50
182.9999999006696
 51
273.0000000787131
  0
LINE
  5
178
100
AcDbEntity
  8
int
  6
ByLayer
 62
  256
370
   -1
100
AcDbLine
 10
53.93340221592018
 20
-57.69821122024654
 11
68.62090214938554
 21
-32.25871495818681
  0
ARC
  5
179
100
AcDbEntity
  8
int
  6
ByLayer
 62
  256
370
   -1
100
AcDbCircle
 10
67.75487674439995
 20
-31.75871496026723
 40
1
100
AcDbArc
 50
330.0000001376401
 51
60.00000016749008
  0
LINE
  5
17A
100
AcDbEntity
  8
int
  6
ByLayer
 62
  256
370
   -1
100
AcDbLine
 10
71.58994733952809
 20
29.6139510267643
 11
71.58994720947882
 21
-13.70000000300248
  0
ARC
  5
17B
100
AcDbEntity
  8
int
  6
ByLayer
 62
  256
370
   -1
100
AcDbCircle
 10
70.58994720947884
 20
-13.7
 40
1
100
AcDbArc
 50
270
 51
359.9999998279706
  0
LINE
  5
17C
100
AcDbEntity
  8
int
  6
ByLayer
 62
  256
370
   -1
100
AcDbLine
 10
58.86856967898193
 20
-14.7
 11
70.58994720947884
 21
-14.7
  0
LINE
  5
17D
100
AcDbEntity
  8
int
  6
ByLayer
 62
  256
370
   -1
100
AcDbLine
 10
56.36856969164003
 20
-24.03012702623035
 11
68.25487674186834
 21
-30.89268955502115
  0
ARC
  5
17E
100
AcDbEntity
  8
int
  6
ByLayer
 62
  256
370
   -1
100
AcDbCircle
 10
58.86856967898193
 20
-19.7
 40
5
100
AcDbArc
 50
90
 51
240.0000001674906
  0
ARC
  5
17F
100
AcDbEntity
  8
int
  6
ByLayer
 62
  256
370
   -1
100
AcDbCircle
 10
-59.00289827702584
 20
6.557954130836459
 40
4.1
100
AcDbArc
 50
274.9999998716773
 51
454.9999998716774
  0
LINE
  5
180
100
AcDbEntity
  8
int
  6
ByLayer
 62
  256
370
   -1
100
AcDbLine
 10
-68.28828887675581
 20
9.861249071026464
 11
-59.3602368131436
 21
10.64235239381293
  0
LINE
  5
181
100
AcDbEntity
  8
int
  6
ByLayer
 62
  256
370
   -1
100
AcDbLine
 10
-69.37163931552629
 20
10.77028802841966
 11
-70.39822982006743
 21
22.50427144035024
  0
ARC
  5
182
100
AcDbEntity
  8
int
  6
ByLayer
 62
  256
370
   -1
100
AcDbCircle
 10
-68.37544461727234
 20
10.85744376931341
 40
1
100
AcDbArc
 50
184.9999998933728
 51
274.999999871677
  0
LINE
  5
183
100
AcDbEntity
  8
int
  6
ByLayer
 62
  256
370
   -1
100
AcDbLine
 10
-67.57361180067269
 20
1.692452545410045
 11
-58.64555974090808
 21
2.473555867859988
  0
LINE
  5
184
100
AcDbEntity
  8
int
  6
ByLayer
 62
  256
370
   -1
100
AcDbLine
 10
-65.53929725387314
 20
-33.03358311724444
 11
-68.4826507584101
 21
0.6091021062293507
  0
ARC
  5
185
100
AcDbEntity
  8
int
  6
ByLayer
 62
  256
370
   -1
100
AcDbCircle
 10
-67.48645606015616
 20
0.696257847123102
 40
1
100
AcDbArc
 50
94.99999987167783
 51
184.9999998933732
  0
CIRCLE
  5
186
100
AcDbEntity
  8
percage
  6
ByLayer
 62
  256
370
   -1
100
AcDbCircle
 10
60
 20
-20
 40
1.1
  0
CIRCLE
  5
187
100
AcDbEntity
  8
percage
  6
ByLayer
 62
  256
370
   -1
100
AcDbCircle
 10
61.08994658689114
 20
35.11395068693468
 40
1.1
  0
CIRCLE
  5
188
100
AcDbEntity
  8
percage
  6
ByLayer
 62
  256
370
   -1
100
AcDbCircle
 10
-59.00289827702584
 20
6.557954130836459
 40
1.1
  0
LINE
  5
189
100
AcDbEntity
  8
noname1
  6
ByLayer
 62
  256
370
   -1
100
AcDbLine
 10
-69.53745389122072
 20
22.70505703586522
 11
-50.03714599217535
 21
6.342355795508661
  0
LINE
  5
18A
100
AcDbEntity
  8
noname1
  6
ByLayer
 62
  256
370
   -1
100
AcDbLine
 10
-67.88149481836395
 20
3.777357728678014
 11
-48.38118691931859
 21
-12.58534351167853
  0
LINE
  5
18B
100
AcDbEntity
  8
noname1
  6
ByLayer
 62
  256
370
   -1
100
AcDbLine
 10
-66.22553574550717
 20
-15.15034157850917
 11
-46.72522784646181
 21
-31.51304281886571
  0
LINE
  5
18C
100
AcDbEntity
  8
noname1
  6
ByLayer
 62
  256
370
   -1
100
AcDbLine
 10
-50.64519044906133
 20
29.12606015389582
 11
-31.14488255001596
 21
12.76335891353925
  0
LINE
  5
18D
100
AcDbEntity
  8
noname1
  6
ByLayer
 62
  256
370
   -1
100
AcDbLine
 10
-48.98923137620456
 20
10.19836084670862
 11
-29.48892347715919
 21
-6.164340393647936
  0
LINE
  5
18E
100
AcDbEntity
  8
noname1
  6
ByLayer
 62
  256
370
   -1
100
AcDbLine
 10
-47.33327230334778
 20
-8.729338460478569
 11
-27.83296440430242
 21
-25.09203970083512
  0
ARC
  5
18F
100
AcDbEntity
  8
ajour
  6
ByLayer
 62
  256
370
   -1
100
AcDbCircle
 10
46.58994732751816
 20
25.61395101267899
 40
5
100
AcDbArc
 50
179.9999998279706
 51
270.000000040794
  0
LINE
  5
190
100
AcDbEntity
  8
ajour
  6
ByLayer
 62
  256
370
   -1
100
AcDbLine
 10
-41.83282123339497
 20
-17.15701247148581
 11
-28.88982164071145
 21
-16.02464675059267
  0
ARC
  5
191
100
AcDbEntity
  8
ajour
  6
ByLayer
 62
  256
370
   -1
100
AcDbCircle
 10
-42.26859994121841
 20
-12.1760389805096
 40
5
100
AcDbArc
 50
184.9999998933728
 51
274.9999999319619
  0
LINE
  5
192
100
AcDbEntity
  8
ajour
  6
ByLayer
 62
  256
370
   -1
100
AcDbLine
 10
-47.24957343248813
 20
-12.61181768497832
 11
-49.6681452560132
 21
15.03258534843087
  0
ARC
  5
193
100
AcDbEntity
  8
ajour
  6
ByLayer
 62
  256
370
   -1
100
AcDbCircle
 10
-44.68717176474348
 20
15.46836405289958
 40
5
100
AcDbArc
 50
94.9999999622688
 51
184.9999998933727
  0
LINE
  5
194
100
AcDbEntity
  8
ajour
  6
ByLayer
 62
  256
370
   -1
100
AcDbLine
 10
-25.63065661255528
 20
20.61395096125855
 11
-45.12295047520163
 21
20.44933754364529
  0
ARC
  5
195
100
AcDbEntity
  8
ajour
  6
ByLayer
 62
  256
370
   -1
100
AcDbCircle
 10
-27.93110848349989
 20
-26.98278843074033
 40
11
100
AcDbArc
 50
7.154030720640863
 51
94.99999993196199
  0
ARC
  5
196
100
AcDbEntity
  8
ajour
  6
ByLayer
 62
  256
370
   -1
100
AcDbCircle
 10
-12.05566946341903
 20
-24.99019315831439
 40
5
100
AcDbArc
 50
187.1540307206408
 51
273.0000000787131
  0
ARC
  5
197
100
AcDbEntity
  8
ajour
  6
ByLayer
 62
  256
370
   -1
100
AcDbCircle
 10
56.58994725112254
 20
0.169773019117685
 40
5
100
AcDbArc
 50
276.5419776174774
 51
359.9999998279705
  0
LINE
  5
198
100
AcDbEntity
  8
ajour
  6
ByLayer
 62
  256
370
   -1
100
AcDbLine
 10
61.58994729749337
 20
15.6139510047865
 11
61.58994725112254
 21
0.1697730041052807
  0
ARC
  5
199
100
AcDbEntity
  8
ajour
  6
ByLayer
 62
  256
370
   -1
100
AcDbCircle
 10
56.58994729749338
 20
15.6139510197989
 40
5
100
AcDbArc
 50
359.9999998279706
 51
90.00000004079415
  0
LINE
  5
19A
100
AcDbEntity
  8
ajour
  6
ByLayer
 62
  256
370
   -1
100
AcDbLine
 10
-11.79398967534471
 20
-29.98334083172776
 11
39.30159759504795
 21
-27.30553450133554
  0
ARC
  5
19B
100
AcDbEntity
  8
ajour
  6
ByLayer
 62
  256
370
   -1
100
AcDbCircle
 10
58.86856967898193
 20
-19.7
 40
15
100
AcDbArc
 50
96.54197761747739
 51
187.5053831411879
  0
ARC
  5
19C
100
AcDbEntity
  8
ajour
  6
ByLayer
 62
  256
370
   -1
100
AcDbCircle
 10
39.03991780697362
 20
-22.31238682792217
 40
5
100
AcDbArc
 50
273.0000000787132
 51
7.505383141188109
  0
ARC
  5
19D
100
AcDbEntity
  8
ajour
  6
ByLayer
 62
  256
370
   -1
100
AcDbCircle
 10
-25.63065661611523
 20
25.61395096125855
 40
5
100
AcDbArc
 50
270.000000040794
 51
4.079440501094991e-08
  0
ARC
  5
19E
100
AcDbEntity
  8
ajour
  6
ByLayer
 62
  256
370
   -1
100
AcDbCircle
 10
-15.63065661611524
 20
25.61395096837852
 40
5
100
AcDbArc
 50
90.00000004079398
 51
180.0000000407944
  0
LINE
  5
19F
100
AcDbEntity
  8
ajour
  6
ByLayer
 62
  256
370
   -1
100
AcDbLine
 10
41.58994732751817
 20
25.6139509905467
 11
41.58994732751817
 21
25.61395102769139
  0
ARC
  5
1A0
100
AcDbEntity
  8
ajour
  6
ByLayer
 62
  256
370
   -1
100
AcDbCircle
 10
36.58994732751817
 20
25.61395100555909
 40
5
100
AcDbArc
 50
359.9999998279706
 51
90.00000004079391
  0
LINE
  5
1A1
100
AcDbEntity
  8
ajour
  6
ByLayer
 62
  256
370
   -1
100
AcDbLine
 10
46.58994733107811
 20
20.61395101267899
 11
56.58994729393342
 21
20.6139510197989
  0
LINE
  5
1A2
100
AcDbEntity
  8
ajour
  6
ByLayer
 62
  256
370
   -1
100
AcDbLine
 10
36.58994732395823
 20
30.61395100555909
 11
-15.63065661967519
 21
30.61395096837852
  0
ENDSEC
  0
SECTION
  2
OBJECTS
  0
DICTIONARY
  5
C
330
0
100
AcDbDictionary
281
    1
  3
ACAD_GROUP
350
D
  0
DICTIONARY
  5
D
330
C
100
AcDbDictionary
281
    1
  0
PLOTSETTINGS
  5
1A3
100
AcDbPlotSettings
  6
1x1
 40
0
 41
0
 42
0
 43
0
  0
ENDSEC
  0
EOF
