999
dxfrw 0.6.3
  0
SECTION
  2
HEADER
  9
$ACADVER
  1
AC1021
  9
$DWGCODEPAGE
  3
ANSI_1252
  9
$INSBASE
 10
0
 20
0
 30
0
  9
$EXTMIN
 10
-113.5
 20
-47
 30
0
  9
$EXTMAX
 10
113.5
 20
57.29276596973121
 30
0
  9
$LIMMIN
 10
0
 20
0
  9
$LIMMAX
 10
420
 20
297
  9
$ORTHOMODE
 70
    0
  9
$REGENMODE
 70
    1
  9
$FILLMODE
 70
    1
  9
$QTEXTMODE
 70
    0
  9
$MIRRTEXT
 70
    0
  9
$LTSCALE
 40
1
  9
$ATTMODE
 70
    0
  9
$TEXTSIZE
 40
2.5
  9
$TRACEWID
 40
15.68
  9
$TEXTSTYLE
  7
STANDARD
  9
$CLAYER
  8
ajour
  9
$CELTYPE
  6
BYLAYER
  9
$CECOLOR
 62
  256
  9
$CELTSCALE
 40
1
  9
$DISPSILH
 70
    0
  9
$DIMSCALE
 40
2.5
  9
$DIMASZ
 40
2.5
  9
$DIMEXO
 40
0.625
  9
$DIMDLI
 40
3.75
  9
$DIMRND
 40
0
  9
$DIMDLE
 40
0
  9
$DIMEXE
 40
1.25
  9
$DIMTP
 40
0
  9
$DIMTM
 40
0
  9
$DIMTXT
 40
2.5
  9
$DIMCEN
 40
2.5
  9
$DIMTSZ
 40
0
  9
$DIMTOL
 70
    0
  9
$DIMLIM
 70
    0
  9
$DIMTIH
 70
    0
  9
$DIMTOH
 70
    0
  9
$DIMSE1
 70
    0
  9
$DIMSE2
 70
    0
  9
$DIMTAD
 70
    1
  9
$DIMZIN
 70
    8
  9
$DIMBLK
  1

  9
$DIMASO
 70
    1
  9
$DIMSHO
 70
    1
  9
$DIMPOST
  1

  9
$DIMAPOST
  1

  9
$DIMALT
 70
    0
  9
$DIMALTD
 70
    3
  9
$DIMALTF
 40
0.03937
  9
$DIMLFAC
 40
1
  9
$DIMTOFL
 70
    1
  9
$DIMTVP
 40
0
  9
$DIMTIX
 70
    0
  9
$DIMSOXD
 70
    0
  9
$DIMSAH
 70
    0
  9
$DIMBLK1
  1

  9
$DIMBLK2
  1

  9
$DIMSTYLE
  2
Standard
  9
$DIMCLRD
 70
    0
  9
$DIMCLRE
 70
    0
  9
$DIMCLRT
 70
    0
  9
$DIMTFAC
 40
1
  9
$DIMGAP
 40
0.625
  9
$DIMJUST
 70
    0
  9
$DIMSD1
 70
    0
  9
$DIMSD2
 70
    0
  9
$DIMTOLJ
 70
    0
  9
$DIMTZIN
 70
    8
  9
$DIMALTZ
 70
    0
  9
$DIMALTTZ
 70
    0
  9
$DIMUPT
 70
    0
  9
$DIMDEC
 70
    2
  9
$DIMTDEC
 70
    2
  9
$DIMALTU
 70
    2
  9
$DIMALTTD
 70
    3
  9
$DIMTXSTY
  7
STANDARD
  9
$DIMAUNIT
 70
    0
  9
$DIMADEC
 70
    0
  9
$DIMALTRND
 40
0
  9
$DIMAZIN
 70
    0
  9
$DIMDSEP
 70
   44
  9
$DIMATFIT
 70
    3
  9
$DIMFRAC
 70
    0
  9
$DIMLDRBLK
  1
STANDARD
  9
$DIMLUNIT
 70
    2
  9
$DIMLWD
 70
   -2
  9
$DIMLWE
 70
   -2
  9
$DIMTMOVE
 70
    0
  9
$DIMFXL
 40
1
  9
$DIMFXLON
 70
    0
  9
$DIMJOGANG
 40
0.7854
  9
$DIMTFILL
 70
    0
  9
$DIMTFILLCLR
 70
    0
  9
$DIMARCSYM
 70
    0
  9
$DIMLTYPE
  6

  9
$DIMLTEX1
  6

  9
$DIMLTEX2
  6

  9
$LUNITS
 70
    2
  9
$LUPREC
 70
    4
  9
$SKETCHINC
 40
1
  9
$FILLETRAD
 40
0
  9
$AUNITS
 70
    0
  9
$AUPREC
 70
    2
  9
$MENU
  1
.
  9
$ELEVATION
 40
0
  9
$PELEVATION
 40
0
  9
$THICKNESS
 40
0
  9
$LIMCHECK
 70
    0
  9
$CHAMFERA
 40
0
  9
$CHAMFERB
 40
0
  9
$CHAMFERC
 40
0
  9
$CHAMFERD
 40
0
  9
$SKPOLY
 70
    0
  9
$USRTIMER
 70
    1
  9
$ANGBASE
 50
0
  9
$ANGDIR
 70
    0
  9
$PDMODE
 70
   34
  9
$PDSIZE
 40
0
  9
$PLINEWID
 40
0
  9
$SPLFRAME
 70
    0
  9
$SPLINETYPE
 70
    2
  9
$SPLINESEGS
 70
    8
  9
$HANDSEED
  5
20000
  9
$SURFTAB1
 70
    6
  9
$SURFTAB2
 70
    6
  9
$SURFTYPE
 70
    6
  9
$SURFU
 70
    6
  9
$SURFV
 70
    6
  9
$UCSBASE
  2

  9
$UCSNAME
  2

  9
$UCSORG
 10
0
 20
0
 30
0
  9
$UCSXDIR
 10
1
 20
0
 30
0
  9
$UCSYDIR
 10
0
 20
1
 30
0
  9
$UCSORTHOREF
  2

  9
$UCSORTHOVIEW
 70
    0
  9
$UCSORGTOP
 10
0
 20
0
 30
0
  9
$UCSORGBOTTOM
 10
0
 20
0
 30
0
  9
$UCSORGLEFT
 10
0
 20
0
 30
0
  9
$UCSORGRIGHT
 10
0
 20
0
 30
0
  9
$UCSORGFRONT
 10
0
 20
0
 30
0
  9
$UCSORGBACK
 10
0
 20
0
 30
0
  9
$PUCSBASE
  2

  9
$PUCSNAME
  2

  9
$PUCSORG
 10
0
 20
0
 30
0
  9
$PUCSXDIR
 10
1
 20
0
 30
0
  9
$PUCSYDIR
 10
0
 20
1
 30
0
  9
$PUCSORTHOREF
  2

  9
$PUCSORTHOVIEW
 70
    0
  9
$PUCSORGTOP
 10
0
 20
0
 30
0
  9
$PUCSORGBOTTOM
 10
0
 20
0
 30
0
  9
$PUCSORGLEFT
 10
0
 20
0
 30
0
  9
$PUCSORGRIGHT
 10
0
 20
0
 30
0
  9
$PUCSORGFRONT
 10
0
 20
0
 30
0
  9
$PUCSORGBACK
 10
0
 20
0
 30
0
  9
$USERI1
 70
    0
  9
$USERI2
 70
    0
  9
$USERI3
 70
    0
  9
$USERI4
 70
    0
  9
$USERI5
 70
    0
  9
$USERR1
 40
0
  9
$USERR2
 40
0
  9
$USERR3
 40
0
  9
$USERR4
 40
0
  9
$USERR5
 40
0
  9
$WORLDVIEW
 70
    1
  9
$SHADEDGE
 70
    3
  9
$SHADEDIF
 70
   70
  9
$TILEMODE
 70
    1
  9
$MAXACTVP
 70
   64
  9
$PINSBASE
 10
0
 20
0
 30
0
  9
$PLIMCHECK
 70
    0
  9
$PEXTMIN
 10
0
 20
0
 30
0
  9
$PEXTMAX
 10
0
 20
0
 30
0
  9
$GRIDMODE
 70
    1
  9
$SNAPSTYLE
 70
    0
  9
$PLIMMIN
 10
0
 20
0
  9
$PLIMMAX
 10
210
 20
297
  9
$UNITMODE
 70
    0
  9
$VISRETAIN
 70
    1
  9
$PLINEGEN
 70
    0
  9
$PSLTSCALE
 70
    1
  9
$TREEDEPTH
 70
 3020
  9
$CMLSTYLE
  2
Standard
  9
$CMLJUST
 70
    0
  9
$CMLSCALE
 40
20
  9
$PROXYGRAPHICS
 70
    1
  9
$MEASUREMENT
 70
    1
  9
$CELWEIGHT
370
   -1
  9
$ENDCAPS
280
    0
  9
$JOINSTYLE
280
    0
  9
$LWDISPLAY
290
    0
  9
$INSUNITS
 70
    4
  9
$HYPERLINKBASE
  1

  9
$STYLESHEET
  1

  9
$XEDIT
290
    1
  9
$CEPSNTYPE
380
    0
  9
$PSTYLEMODE
290
    1
  9
$EXTNAMES
290
    1
  9
$PSVPSCALE
 40
1
  9
$OLESTARTUP
290
    0
  9
$SORTENTS
280
  127
  9
$INDEXCTL
280
    0
  9
$HIDETEXT
280
    1
  9
$XCLIPFRAME
290
    0
  9
$HALOGAP
280
    0
  9
$OBSCOLOR
 70
  257
  9
$OBSLTYPE
280
    0
  9
$INTERSECTIONDISPLAY
280
    0
  9
$INTERSECTIONCOLOR
 70
  257
  9
$DIMASSOC
280
    1
  9
$PROJECTNAME
  1

  9
$CAMERADISPLAY
290
    0
  9
$LENSLENGTH
 40
50
  9
$CAMERAHEIGHT
 40
0
  9
$STEPSPERSEC
 40
2
  9
$STEPSIZE
 40
50
  9
$3DDWFPREC
 40
2
  9
$PSOLWIDTH
 40
5
  9
$PSOLHEIGHT
 40
80
  9
$LOFTANG1
 40
1.570796326794897
  9
$LOFTANG2
 40
1.570796326794897
  9
$LOFTMAG1
 40
0
  9
$LOFTMAG2
 40
0
  9
$LOFTPARAM
 70
    7
  9
$LOFTNORMALS
280
    1
  9
$LATITUDE
 40
1
  9
$LONGITUDE
 40
1
  9
$NORTHDIRECTION
 40
0
  9
$TIMEZONE
 70
-8000
  9
$LIGHTGLYPHDISPLAY
280
    1
  9
$TILEMODELIGHTSYNCH
280
    1
  9
$SOLIDHIST
280
    1
  9
$SHOWHIST
280
    1
  9
$DWFFRAME
280
    2
  9
$DGNFRAME
280
    0
  9
$REALWORLDSCALE
290
    1
  9
$INTERFERECOLOR
 62
    1
  9
$CSHADOW
280
    0
  9
$SHADOWPLANELOCATION
 40
0
  0
ENDSEC
  0
SECTION
  2
CLASSES
  0
ENDSEC
  0
SECTION
  2
TABLES
  0
TABLE
  2
VPORT
  5
8
330
0
100
AcDbSymbolTable
 70
    1
  0
VPORT
  5
31
330
2
100
AcDbSymbolTableRecord
100
AcDbViewportTableRecord
  2
*ACTIVE
 70
    0
 10
0
 20
0
 11
1
 21
1
 12
58.4404255319149
 22
70.03191489361703
 13
0
 23
0
 14
10
 24
10
 15
10
 25
10
 16
0
 26
0
 36
1
 17
0
 27
0
 37
0
 40
269.5021276595745
 41
0.8661887694145759
 42
50
 43
0
 44
0
 50
0
 51
0
 71
    0
 72
  100
 73
    1
 74
    3
 75
    0
 76
    1
 77
    0
 78
    0
281
    0
 65
    1
110
0
120
0
130
0
111
1
121
0
131
0
112
0
122
1
132
0
 79
    0
146
0
348
10020
 60
    7
 61
    5
292
1
282
    1
141
0
142
0
 63
  250
421
3358443
  0
ENDTAB
  0
TABLE
  2
LTYPE
  5
5
330
0
100
AcDbSymbolTable
 70
    4
  0
LTYPE
  5
14
330
5
100
AcDbSymbolTableRecord
100
AcDbLinetypeTableRecord
  2
ByBlock
 70
    0
  3

 72
   65
 73
    0
 40
0
  0
LTYPE
  5
15
330
5
100
AcDbSymbolTableRecord
100
AcDbLinetypeTableRecord
  2
ByLayer
 70
    0
  3

 72
   65
 73
    0
 40
0
  0
LTYPE
  5
16
330
5
100
AcDbSymbolTableRecord
100
AcDbLinetypeTableRecord
  2
Continuous
 70
    0
  3
Solid line
 72
   65
 73
    0
 40
0
  0
LTYPE
  5
32
330
5
100
AcDbSymbolTableRecord
100
AcDbLinetypeTableRecord
  2
DOT
 70
    0
  3
Dot . . . . . . . . . . . . . . . . . . . . . .
 72
   65
 73
    2
 40
6.35
 49
0
 74
    0
 49
-6.35
 74
    0
  0
LTYPE
  5
33
330
5
100
AcDbSymbolTableRecord
100
AcDbLinetypeTableRecord
  2
DOTTINY
 70
    0
  3
Dot (.15x) .....................................
 72
   65
 73
    2
 40
0.9525
 49
0
 74
    0
 49
-0.9525
 74
    0
  0
LTYPE
  5
34
330
5
100
AcDbSymbolTableRecord
100
AcDbLinetypeTableRecord
  2
DOT2
 70
    0
  3
Dot (.5x) .....................................
 72
   65
 73
    2
 40
3.175
 49
0
 74
    0
 49
-3.175
 74
    0
  0
LTYPE
  5
35
330
5
100
AcDbSymbolTableRecord
100
AcDbLinetypeTableRecord
  2
DOTX2
 70
    0
  3
Dot (2x) .  .  .  .  .  .  .  .  .  .  .  .  .
 72
   65
 73
    2
 40
12.7
 49
0
 74
    0
 49
-12.7
 74
    0
  0
LTYPE
  5
36
330
5
100
AcDbSymbolTableRecord
100
AcDbLinetypeTableRecord
  2
DASHED
 70
    0
  3
Dashed _ _ _ _ _ _ _ _ _ _ _ _ _ _ _ _ _
 72
   65
 73
    2
 40
19.05
 49
12.7
 74
    0
 49
-6.35
 74
    0
  0
LTYPE
  5
37
330
5
100
AcDbSymbolTableRecord
100
AcDbLinetypeTableRecord
  2
DASHEDTINY
 70
    0
  3
Dashed (.15x) _ _ _ _ _ _ _ _ _ _ _ _ _ _ _ _ _
 72
   65
 73
    2
 40
2.8575
 49
1.905
 74
    0
 49
-0.9525
 74
    0
  0
LTYPE
  5
38
330
5
100
AcDbSymbolTableRecord
100
AcDbLinetypeTableRecord
  2
DASHED2
 70
    0
  3
Dashed (.5x) _ _ _ _ _ _ _ _ _ _ _ _ _ _ _ _ _
 72
   65
 73
    2
 40
9.524999999999999
 49
6.35
 74
    0
 49
-3.175
 74
    0
  0
LTYPE
  5
39
330
5
100
AcDbSymbolTableRecord
100
AcDbLinetypeTableRecord
  2
DASHEDX2
 70
    0
  3
Dashed (2x) ____  ____  ____  ____  ____  ___
 72
   65
 73
    2
 40
38.09999999999999
 49
25.4
 74
    0
 49
-12.7
 74
    0
  0
LTYPE
  5
3A
330
5
100
AcDbSymbolTableRecord
100
AcDbLinetypeTableRecord
  2
DASHDOT
 70
    0
  3
Dash dot __ . __ . __ . __ . __ . __ . __ . __
 72
   65
 73
    4
 40
25.4
 49
12.7
 74
    0
 49
-6.35
 74
    0
 49
0
 74
    0
 49
-6.35
 74
    0
  0
LTYPE
  5
3B
330
5
100
AcDbSymbolTableRecord
100
AcDbLinetypeTableRecord
  2
DASHDOTTINY
 70
    0
  3
Dash dot (.15x) _._._._._._._._._._._._._._._.
 72
   65
 73
    4
 40
3.81
 49
1.905
 74
    0
 49
-0.9525
 74
    0
 49
0
 74
    0
 49
-0.9525
 74
    0
  0
LTYPE
  5
3C
330
5
100
AcDbSymbolTableRecord
100
AcDbLinetypeTableRecord
  2
DASHDOT2
 70
    0
  3
Dash dot (.5x) _._._._._._._._._._._._._._._.
 72
   65
 73
    4
 40
12.7
 49
6.35
 74
    0
 49
-3.175
 74
    0
 49
0
 74
    0
 49
-3.175
 74
    0
  0
LTYPE
  5
3D
330
5
100
AcDbSymbolTableRecord
100
AcDbLinetypeTableRecord
  2
DASHDOTX2
 70
    0
  3
Dash dot (2x) ____  .  ____  .  ____  .  ___
 72
   65
 73
    4
 40
50.8
 49
25.4
 74
    0
 49
-12.7
 74
    0
 49
0
 74
    0
 49
-12.7
 74
    0
  0
LTYPE
  5
3E
330
5
100
AcDbSymbolTableRecord
100
AcDbLinetypeTableRecord
  2
DIVIDE
 70
    0
  3
Divide ____ . . ____ . . ____ . . ____ . . ____
 72
   65
 73
    6
 40
31.75
 49
12.7
 74
    0
 49
-6.35
 74
    0
 49
0
 74
    0
 49
-6.35
 74
    0
 49
0
 74
    0
 49
-6.35
 74
    0
  0
LTYPE
  5
3F
330
5
100
AcDbSymbolTableRecord
100
AcDbLinetypeTableRecord
  2
DIVIDETINY
 70
    0
  3
Divide (.15x) __..__..__..__..__..__..__..__.._
 72
   65
 73
    6
 40
4.7625
 49
1.905
 74
    0
 49
-0.9525
 74
    0
 49
0
 74
    0
 49
-0.9525
 74
    0
 49
0
 74
    0
 49
-0.9525
 74
    0
  0
LTYPE
  5
40
330
5
100
AcDbSymbolTableRecord
100
AcDbLinetypeTableRecord
  2
DIVIDE2
 70
    0
  3
Divide (.5x) __..__..__..__..__..__..__..__.._
 72
   65
 73
    6
 40
15.875
 49
6.35
 74
    0
 49
-3.175
 74
    0
 49
0
 74
    0
 49
-3.175
 74
    0
 49
0
 74
    0
 49
-3.175
 74
    0
  0
LTYPE
  5
41
330
5
100
AcDbSymbolTableRecord
100
AcDbLinetypeTableRecord
  2
DIVIDEX2
 70
    0
  3
Divide (2x) ________  .  .  ________  .  .  _
 72
   65
 73
    6
 40
63.5
 49
25.4
 74
    0
 49
-12.7
 74
    0
 49
0
 74
    0
 49
-12.7
 74
    0
 49
0
 74
    0
 49
-12.7
 74
    0
  0
LTYPE
  5
42
330
5
100
AcDbSymbolTableRecord
100
AcDbLinetypeTableRecord
  2
BORDER
 70
    0
  3
Border __ __ . __ __ . __ __ . __ __ . __ __ .
 72
   65
 73
    6
 40
44.45
 49
12.7
 74
    0
 49
-6.35
 74
    0
 49
12.7
 74
    0
 49
-6.35
 74
    0
 49
0
 74
    0
 49
-6.35
 74
    0
  0
LTYPE
  5
43
330
5
100
AcDbSymbolTableRecord
100
AcDbLinetypeTableRecord
  2
BORDERTINY
 70
    0
  3
Border (.15x) __.__.__.__.__.__.__.__.__.__.__.
 72
   65
 73
    6
 40
6.6675
 49
1.905
 74
    0
 49
-0.9525
 74
    0
 49
1.905
 74
    0
 49
-0.9525
 74
    0
 49
0
 74
    0
 49
-0.9525
 74
    0
  0
LTYPE
  5
44
330
5
100
AcDbSymbolTableRecord
100
AcDbLinetypeTableRecord
  2
BORDER2
 70
    0
  3
Border (.5x) __.__.__.__.__.__.__.__.__.__.__.
 72
   65
 73
    6
 40
22.225
 49
6.35
 74
    0
 49
-3.175
 74
    0
 49
6.35
 74
    0
 49
-3.175
 74
    0
 49
0
 74
    0
 49
-3.175
 74
    0
  0
LTYPE
  5
45
330
5
100
AcDbSymbolTableRecord
100
AcDbLinetypeTableRecord
  2
BORDERX2
 70
    0
  3
Border (2x) ____  ____  .  ____  ____  .  ___
 72
   65
 73
    6
 40
88.89999999999999
 49
25.4
 74
    0
 49
-12.7
 74
    0
 49
25.4
 74
    0
 49
-12.7
 74
    0
 49
0
 74
    0
 49
-12.7
 74
    0
  0
LTYPE
  5
46
330
5
100
AcDbSymbolTableRecord
100
AcDbLinetypeTableRecord
  2
CENTER
 70
    0
  3
Center ____ _ ____ _ ____ _ ____ _ ____ _ ____
 72
   65
 73
    4
 40
50.8
 49
31.75
 74
    0
 49
-6.35
 74
    0
 49
6.35
 74
    0
 49
-6.35
 74
    0
  0
LTYPE
  5
47
330
5
100
AcDbSymbolTableRecord
100
AcDbLinetypeTableRecord
  2
CENTERTINY
 70
    0
  3
Center (.15x) ___ _ ___ _ ___ _ ___ _ ___ _ ___
 72
   65
 73
    4
 40
7.619999999999999
 49
4.7625
 74
    0
 49
-0.9525
 74
    0
 49
0.9525
 74
    0
 49
-0.9525
 74
    0
  0
LTYPE
  5
48
330
5
100
AcDbSymbolTableRecord
100
AcDbLinetypeTableRecord
  2
CENTER2
 70
    0
  3
Center (.5x) ___ _ ___ _ ___ _ ___ _ ___ _ ___
 72
   65
 73
    4
 40
28.575
 49
19.05
 74
    0
 49
-3.175
 74
    0
 49
3.175
 74
    0
 49
-3.175
 74
    0
  0
LTYPE
  5
49
330
5
100
AcDbSymbolTableRecord
100
AcDbLinetypeTableRecord
  2
CENTERX2
 70
    0
  3
Center (2x) ________  __  ________  __  _____
 72
   65
 73
    4
 40
101.6
 49
63.5
 74
    0
 49
-12.7
 74
    0
 49
12.7
 74
    0
 49
-12.7
 74
    0
  0
ENDTAB
  0
TABLE
  2
LAYER
  5
2
330
0
100
AcDbSymbolTable
 70
    1
  0
LAYER
  5
10
330
2
100
AcDbSymbolTableRecord
100
AcDbLayerTableRecord
  2
0
 70
    4
 62
    7
  6
CONTINUOUS
370
    0
390
F
  0
LAYER
  5
4A
330
2
100
AcDbSymbolTableRecord
100
AcDbLayerTableRecord
  2
ajour
 70
    0
 62
    3
  6
CONTINUOUS
370
    0
390
F
  0
LAYER
  5
4B
330
2
100
AcDbSymbolTableRecord
100
AcDbLayerTableRecord
  2
edge
 70
    4
 62
    2
  6
CONTINUOUS
370
    0
390
F
  0
LAYER
  5
4C
330
2
100
AcDbSymbolTableRecord
100
AcDbLayerTableRecord
  2
ext1
 70
    4
 62
  161
420
10068991
  6
CONTINUOUS
370
    0
390
F
  0
LAYER
  5
4D
330
2
100
AcDbSymbolTableRecord
100
AcDbLayerTableRecord
  2
ext2
 70
    4
 62
  171
420
6716927
  6
CONTINUOUS
370
    0
390
F
  0
LAYER
  5
4E
330
2
100
AcDbSymbolTableRecord
100
AcDbLayerTableRecord
  2
ext3
 70
    4
 62
  160
420
2503167
  6
CONTINUOUS
370
    0
390
F
  0
LAYER
  5
4F
330
2
100
AcDbSymbolTableRecord
100
AcDbLayerTableRecord
  2
int
 70
    4
 62
  136
420
32896
  6
CONTINUOUS
370
    0
390
F
  0
LAYER
  5
50
330
2
100
AcDbSymbolTableRecord
100
AcDbLayerTableRecord
  2
keycap
 70
    4
 62
    1
  6
CONTINUOUS
370
    0
390
F
  0
LAYER
  5
51
330
2
100
AcDbSymbolTableRecord
100
AcDbLayerTableRecord
  2
percage
 70
    4
 62
    4
  6
CONTINUOUS
370
    0
390
F
  0
LAYER
  5
52
330
2
100
AcDbSymbolTableRecord
100
AcDbLayerTableRecord
  2
placement
 70
    4
 62
    1
  6
CONTINUOUS
370
    0
390
F
  0
LAYER
  5
53
330
2
100
AcDbSymbolTableRecord
100
AcDbLayerTableRecord
  2
rpi
 70
    4
 62
    6
  6
CONTINUOUS
370
    0
390
F
  0
LAYER
  5
54
330
2
100
AcDbSymbolTableRecord
100
AcDbLayerTableRecord
  2
rpi-cut
 70
    4
 62
   11
420
16739179
  6
CONTINUOUS
370
    0
390
F
  0
ENDTAB
  0
TABLE
  2
STYLE
  5
3
330
0
100
AcDbSymbolTable
 70
    3
  0
STYLE
  5
55
330
2
100
AcDbSymbolTableRecord
100
AcDbTextStyleTableRecord
  2
Standard
 70
    0
 40
0
 41
1
 50
0
 71
    0
 42
1
  3
txt
  4

  0
ENDTAB
  0
TABLE
  2
VIEW
  5
6
330
0
100
AcDbSymbolTable
 70
    0
  0
ENDTAB
  0
TABLE
  2
UCS
  5
7
330
0
100
AcDbSymbolTable
 70
    0
  0
ENDTAB
  0
TABLE
  2
APPID
  5
9
330
0
100
AcDbSymbolTable
 70
    1
  0
APPID
  5
12
330
9
100
AcDbSymbolTableRecord
100
AcDbRegAppTableRecord
  2
ACAD
 70
    0
  0
APPID
  5
56
330
9
100
AcDbSymbolTableRecord
100
AcDbRegAppTableRecord
  2
LibreCad
 70
    0
  0
ENDTAB
  0
TABLE
  2
DIMSTYLE
  5
A
330
0
100
AcDbSymbolTable
 70
    1
100
AcDbDimStyleTable
 71
    1
  0
DIMSTYLE
105
57
330
A
100
AcDbSymbolTableRecord
100
AcDbDimStyleTableRecord
  2
Standard
 70
    0
 40
2.5
 41
2.5
 42
0.625
 43
0.38
 44
1.25
 45
0
 46
0
 47
0
 48
0
 49
1
140
2.5
141
0.09
142
0
143
25.4
144
1
145
0
146
1
147
0.625
148
0
 71
    0
 72
    0
 73
    0
 74
    1
 75
    0
 76
    0
 77
    0
 78
    8
 79
    0
170
    0
171
    2
172
    0
173
    0
174
    0
175
    0
176
    0
177
    0
178
    0
179
    0
271
    2
272
    4
273
    2
274
    2
275
    0
276
    0
277
    2
278
   44
279
    0
280
    0
281
    0
282
    0
283
    1
284
    0
285
    0
286
    0
288
    0
289
    3
340
STANDARD
341

371
   -2
372
   -2
  0
ENDTAB
  0
TABLE
  2
BLOCK_RECORD
  5
1
330
0
100
AcDbSymbolTable
 70
    2
  0
BLOCK_RECORD
  5
1F
330
1
100
AcDbSymbolTableRecord
100
AcDbBlockTableRecord
  2
*Model_Space
 70
    0
280
    1
281
    0
  0
BLOCK_RECORD
  5
1E
330
1
100
AcDbSymbolTableRecord
100
AcDbBlockTableRecord
  2
*Paper_Space
 70
    0
280
    1
281
    0
  0
ENDTAB
  0
ENDSEC
  0
SECTION
  2
BLOCKS
  0
BLOCK
  5
20
330
1F
100
AcDbEntity
  8
0
100
AcDbBlockBegin
  2
*Model_Space
 70
    0
 10
0
 20
0
 30
0
  3
*Model_Space
  1

  0
ENDBLK
  5
21
330
1F
100
AcDbEntity
  8
0
100
AcDbBlockEnd
  0
BLOCK
  5
1C
330
1B
100
AcDbEntity
  8
0
100
AcDbBlockBegin
  2
*Paper_Space
 70
    0
 10
0
 20
0
 30
0
  3
*Paper_Space
  1

  0
ENDBLK
  5
1D
330
1F
100
AcDbEntity
  8
0
100
AcDbBlockEnd
  0
ENDSEC
  0
SECTION
  2
ENTITIES
  0
LINE
  5
58
100
AcDbEntity
  8
0
  6
ByLayer
 62
  256
370
   -1
100
AcDbLine
 10
-101.71556498771
 20
40.75407339816341
 11
-87.79225848771003
 21
39.29067489816342
  0
LINE
  5
59
100
AcDbEntity
  8
0
  6
ByLayer
 62
  256
370
   -1
100
AcDbLine
 10
-103.17896348771
 20
26.83076689816341
 11
-89.25565698771004
 21
25.36736839816341
  0
LINE
  5
5A
100
AcDbEntity
  8
0
  6
ByLayer
 62
  256
370
   -1
100
AcDbLine
 10
-101.71556498771
 20
40.75407339816341
 11
-103.17896348771
 21
26.83076689816341
  0
LINE
  5
5B
100
AcDbEntity
  8
0
  6
ByLayer
 62
  256
370
   -1
100
AcDbLine
 10
-87.79225848771003
 20
39.29067489816342
 11
-89.25565698771004
 21
25.36736839816341
  0
LINE
  5
5C
100
AcDbEntity
  8
0
  6
ByLayer
 62
  256
370
   -1
100
AcDbLine
 10
-82.81964888771003
 20
38.76803259816342
 11
-68.89634238771004
 21
37.3046340981634
  0
LINE
  5
5D
100
AcDbEntity
  8
0
  6
ByLayer
 62
  256
370
   -1
100
AcDbLine
 10
-84.28304738771004
 20
24.84472609816341
 11
-70.35974088771003
 21
23.38132759816341
  0
LINE
  5
5E
100
AcDbEntity
  8
0
  6
ByLayer
 62
  256
370
   -1
100
AcDbLine
 10
-82.81964888771003
 20
38.76803259816342
 11
-84.28304738771004
 21
24.84472609816341
  0
LINE
  5
5F
100
AcDbEntity
  8
0
  6
ByLayer
 62
  256
370
   -1
100
AcDbLine
 10
-68.89634238771004
 20
37.3046340981634
 11
-70.35974088771003
 21
23.38132759816341
  0
LINE
  5
60
100
AcDbEntity
  8
0
  6
ByLayer
 62
  256
370
   -1
100
AcDbLine
 10
-63.92373288771003
 20
36.78199179816342
 11
-50.00042638771004
 21
35.31859329816341
  0
LINE
  5
61
100
AcDbEntity
  8
0
  6
ByLayer
 62
  256
370
   -1
100
AcDbLine
 10
-65.38713138771004
 20
22.85868529816341
 11
-51.46382488771003
 21
21.39528679816341
  0
LINE
  5
62
100
AcDbEntity
  8
0
  6
ByLayer
 62
  256
370
   -1
100
AcDbLine
 10
-63.92373288771003
 20
36.78199179816342
 11
-65.38713138771004
 21
22.85868529816341
  0
LINE
  5
63
100
AcDbEntity
  8
0
  6
ByLayer
 62
  256
370
   -1
100
AcDbLine
 10
-50.00042638771004
 20
35.31859329816341
 11
-51.46382488771003
 21
21.39528679816341
  0
LINE
  5
64
100
AcDbEntity
  8
0
  6
ByLayer
 62
  256
370
   -1
100
AcDbLine
 10
-45.02781688771003
 20
34.79595099816341
 11
-31.10451038771004
 21
33.33255249816341
  0
LINE
  5
65
100
AcDbEntity
  8
0
  6
ByLayer
 62
  256
370
   -1
100
AcDbLine
 10
-46.49121538771004
 20
20.87264449816341
 11
-32.56790888771003
 21
19.40924599816341
  0
LINE
  5
66
100
AcDbEntity
  8
0
  6
ByLayer
 62
  256
370
   -1
100
AcDbLine
 10
-45.02781688771003
 20
34.79595099816341
 11
-46.49121538771004
 21
20.87264449816341
  0
LINE
  5
67
100
AcDbEntity
  8
0
  6
ByLayer
 62
  256
370
   -1
100
AcDbLine
 10
-31.10451038771004
 20
33.33255249816341
 11
-32.56790888771003
 21
19.40924599816341
  0
LINE
  5
68
100
AcDbEntity
  8
0
  6
ByLayer
 62
  256
370
   -1
100
AcDbLine
 10
-26.13190088771003
 20
32.80991019816341
 11
-12.20859438771004
 21
31.34651169816341
  0
LINE
  5
69
100
AcDbEntity
  8
0
  6
ByLayer
 62
  256
370
   -1
100
AcDbLine
 10
-27.59529938771003
 20
18.88660369816341
 11
-13.67199288771003
 21
17.42320519816341
  0
LINE
  5
6A
100
AcDbEntity
  8
0
  6
ByLayer
 62
  256
370
   -1
100
AcDbLine
 10
-26.13190088771003
 20
32.80991019816341
 11
-27.59529938771003
 21
18.88660369816341
  0
LINE
  5
6B
100
AcDbEntity
  8
0
  6
ByLayer
 62
  256
370
   -1
100
AcDbLine
 10
-12.20859438771004
 20
31.34651169816341
 11
-13.67199288771003
 21
17.42320519816341
  0
LINE
  5
6C
100
AcDbEntity
  8
0
  6
ByLayer
 62
  256
370
   -1
100
AcDbLine
 10
-101.33961628771
 20
21.60990229816341
 11
-87.41630978771003
 21
20.14650379816341
  0
LINE
  5
6D
100
AcDbEntity
  8
0
  6
ByLayer
 62
  256
370
   -1
100
AcDbLine
 10
-102.80301478771
 20
7.686595798163411
 11
-88.87970828771003
 21
6.223197298163408
  0
LINE
  5
6E
100
AcDbEntity
  8
0
  6
ByLayer
 62
  256
370
   -1
100
AcDbLine
 10
-101.33961628771
 20
21.60990229816341
 11
-102.80301478771
 21
7.686595798163411
  0
LINE
  5
6F
100
AcDbEntity
  8
0
  6
ByLayer
 62
  256
370
   -1
100
AcDbLine
 10
-87.41630978771003
 20
20.14650379816341
 11
-88.87970828771003
 21
6.223197298163408
  0
LINE
  5
70
100
AcDbEntity
  8
0
  6
ByLayer
 62
  256
370
   -1
100
AcDbLine
 10
-80.08171068771003
 20
19.37560639816341
 11
-66.15840418771003
 21
17.91220789816341
  0
LINE
  5
71
100
AcDbEntity
  8
0
  6
ByLayer
 62
  256
370
   -1
100
AcDbLine
 10
-81.54510918771004
 20
5.452299898163405
 11
-67.62180268771004
 21
3.988901398163408
  0
LINE
  5
72
100
AcDbEntity
  8
0
  6
ByLayer
 62
  256
370
   -1
100
AcDbLine
 10
-80.08171068771003
 20
19.37560639816341
 11
-81.54510918771004
 21
5.452299898163405
  0
LINE
  5
73
100
AcDbEntity
  8
0
  6
ByLayer
 62
  256
370
   -1
100
AcDbLine
 10
-66.15840418771003
 20
17.91220789816341
 11
-67.62180268771004
 21
3.988901398163408
  0
LINE
  5
74
100
AcDbEntity
  8
0
  6
ByLayer
 62
  256
370
   -1
100
AcDbLine
 10
-61.18579468771004
 20
17.38956559816341
 11
-47.26248818771003
 21
15.92616709816341
  0
LINE
  5
75
100
AcDbEntity
  8
0
  6
ByLayer
 62
  256
370
   -1
100
AcDbLine
 10
-62.64919318771004
 20
3.466259098163407
 11
-48.72588668771003
 21
2.00286059816341
  0
LINE
  5
76
100
AcDbEntity
  8
0
  6
ByLayer
 62
  256
370
   -1
100
AcDbLine
 10
-61.18579468771004
 20
17.38956559816341
 11
-62.64919318771004
 21
3.466259098163407
  0
LINE
  5
77
100
AcDbEntity
  8
0
  6
ByLayer
 62
  256
370
   -1
100
AcDbLine
 10
-47.26248818771003
 20
15.92616709816341
 11
-48.72588668771003
 21
2.00286059816341
  0
LINE
  5
78
100
AcDbEntity
  8
0
  6
ByLayer
 62
  256
370
   -1
100
AcDbLine
 10
-42.28987868771003
 20
15.40352479816341
 11
-28.36657218771003
 21
13.94012629816341
  0
LINE
  5
79
100
AcDbEntity
  8
0
  6
ByLayer
 62
  256
370
   -1
100
AcDbLine
 10
-43.75327718771004
 20
1.480218298163409
 11
-29.82997068771003
 21
0.01681979816340554
  0
LINE
  5
7A
100
AcDbEntity
  8
0
  6
ByLayer
 62
  256
370
   -1
100
AcDbLine
 10
-42.28987868771003
 20
15.40352479816341
 11
-43.75327718771004
 21
1.480218298163409
  0
LINE
  5
7B
100
AcDbEntity
  8
0
  6
ByLayer
 62
  256
370
   -1
100
AcDbLine
 10
-28.36657218771003
 20
13.94012629816341
 11
-29.82997068771003
 21
0.01681979816340554
  0
LINE
  5
7C
100
AcDbEntity
  8
0
  6
ByLayer
 62
  256
370
   -1
100
AcDbLine
 10
-23.39396268771003
 20
13.41748399816341
 11
-9.470656187710034
 21
11.95408549816341
  0
LINE
  5
7D
100
AcDbEntity
  8
0
  6
ByLayer
 62
  256
370
   -1
100
AcDbLine
 10
-24.85736118771004
 20
-0.5058225018365885
 11
-10.93405468771003
 21
-1.969221001836592
  0
LINE
  5
7E
100
AcDbEntity
  8
0
  6
ByLayer
 62
  256
370
   -1
100
AcDbLine
 10
-23.39396268771003
 20
13.41748399816341
 11
-24.85736118771004
 21
-0.5058225018365885
  0
LINE
  5
7F
100
AcDbEntity
  8
0
  6
ByLayer
 62
  256
370
   -1
100
AcDbLine
 10
-9.470656187710034
 20
11.95408549816341
 11
-10.93405468771003
 21
-1.969221001836592
  0
LINE
  5
80
100
AcDbEntity
  8
0
  6
ByLayer
 62
  256
370
   -1
100
AcDbLine
 10
-98.60167808771004
 20
2.217476098163411
 11
-84.67837158771003
 21
0.7540775981634074
  0
LINE
  5
81
100
AcDbEntity
  8
0
  6
ByLayer
 62
  256
370
   -1
100
AcDbLine
 10
-100.06507658771
 20
-11.70583040183659
 11
-86.14177008771003
 21
-13.16922890183659
  0
LINE
  5
82
100
AcDbEntity
  8
0
  6
ByLayer
 62
  256
370
   -1
100
AcDbLine
 10
-98.60167808771004
 20
2.217476098163411
 11
-100.06507658771
 21
-11.70583040183659
  0
LINE
  5
83
100
AcDbEntity
  8
0
  6
ByLayer
 62
  256
370
   -1
100
AcDbLine
 10
-84.67837158771003
 20
0.7540775981634074
 11
-86.14177008771003
 21
-13.16922890183659
  0
LINE
  5
84
100
AcDbEntity
  8
0
  6
ByLayer
 62
  256
370
   -1
100
AcDbLine
 10
-72.61979348771004
 20
-0.5133300018365912
 11
-58.69648698771003
 21
-1.976728501836595
  0
LINE
  5
85
100
AcDbEntity
  8
0
  6
ByLayer
 62
  256
370
   -1
100
AcDbLine
 10
-74.08319198771002
 20
-14.43663650183659
 11
-60.15988548771004
 21
-15.90003500183659
  0
LINE
  5
86
100
AcDbEntity
  8
0
  6
ByLayer
 62
  256
370
   -1
100
AcDbLine
 10
-72.61979348771004
 20
-0.5133300018365912
 11
-74.08319198771002
 21
-14.43663650183659
  0
LINE
  5
87
100
AcDbEntity
  8
0
  6
ByLayer
 62
  256
370
   -1
100
AcDbLine
 10
-58.69648698771003
 20
-1.976728501836595
 11
-60.15988548771004
 21
-15.90003500183659
  0
LINE
  5
88
100
AcDbEntity
  8
0
  6
ByLayer
 62
  256
370
   -1
100
AcDbLine
 10
-53.72387748771003
 20
-2.499370801836589
 11
-39.80057098771003
 21
-3.962769301836593
  0
LINE
  5
89
100
AcDbEntity
  8
0
  6
ByLayer
 62
  256
370
   -1
100
AcDbLine
 10
-55.18727598771003
 20
-16.42267730183659
 11
-41.26396948771003
 21
-17.88607580183659
  0
LINE
  5
8A
100
AcDbEntity
  8
0
  6
ByLayer
 62
  256
370
   -1
100
AcDbLine
 10
-53.72387748771003
 20
-2.499370801836589
 11
-55.18727598771003
 21
-16.42267730183659
  0
LINE
  5
8B
100
AcDbEntity
  8
0
  6
ByLayer
 62
  256
370
   -1
100
AcDbLine
 10
-39.80057098771003
 20
-3.962769301836593
 11
-41.26396948771003
 21
-17.88607580183659
  0
LINE
  5
8C
100
AcDbEntity
  8
0
  6
ByLayer
 62
  256
370
   -1
100
AcDbLine
 10
-34.82796148771003
 20
-4.485411601836594
 11
-20.90465498771003
 21
-5.948810101836591
  0
LINE
  5
8D
100
AcDbEntity
  8
0
  6
ByLayer
 62
  256
370
   -1
100
AcDbLine
 10
-36.29135998771004
 20
-18.40871810183659
 11
-22.36805348771003
 21
-19.87211660183659
  0
LINE
  5
8E
100
AcDbEntity
  8
0
  6
ByLayer
 62
  256
370
   -1
100
AcDbLine
 10
-34.82796148771003
 20
-4.485411601836594
 11
-36.29135998771004
 21
-18.40871810183659
  0
LINE
  5
8F
100
AcDbEntity
  8
0
  6
ByLayer
 62
  256
370
   -1
100
AcDbLine
 10
-20.90465498771003
 20
-5.948810101836591
 11
-22.36805348771003
 21
-19.87211660183659
  0
LINE
  5
90
100
AcDbEntity
  8
0
  6
ByLayer
 62
  256
370
   -1
100
AcDbLine
 10
-15.93204548771003
 20
-6.471452401836592
 11
-2.008738987710032
 21
-7.934850901836588
  0
LINE
  5
91
100
AcDbEntity
  8
0
  6
ByLayer
 62
  256
370
   -1
100
AcDbLine
 10
-17.39544398771004
 20
-20.39475890183659
 11
-3.472137487710029
 21
-21.85815740183659
  0
LINE
  5
92
100
AcDbEntity
  8
0
  6
ByLayer
 62
  256
370
   -1
100
AcDbLine
 10
-15.93204548771003
 20
-6.471452401836592
 11
-17.39544398771004
 21
-20.39475890183659
  0
LINE
  5
93
100
AcDbEntity
  8
0
  6
ByLayer
 62
  256
370
   -1
100
AcDbLine
 10
-2.008738987710032
 20
-7.934850901836588
 11
-3.472137487710029
 21
-21.85815740183659
  0
LINE
  5
94
100
AcDbEntity
  8
0
  6
ByLayer
 62
  256
370
   -1
100
AcDbLine
 10
-86.41578188771004
 20
-18.16797050183659
 11
-72.49247538771004
 21
-19.63136900183659
  0
LINE
  5
95
100
AcDbEntity
  8
0
  6
ByLayer
 62
  256
370
   -1
100
AcDbLine
 10
-87.87918038771004
 20
-32.09127700183659
 11
-73.95587388771003
 21
-33.5546755018366
  0
LINE
  5
96
100
AcDbEntity
  8
0
  6
ByLayer
 62
  256
370
   -1
100
AcDbLine
 10
-86.41578188771004
 20
-18.16797050183659
 11
-87.87918038771004
 21
-32.09127700183659
  0
LINE
  5
97
100
AcDbEntity
  8
0
  6
ByLayer
 62
  256
370
   -1
100
AcDbLine
 10
-72.49247538771004
 20
-19.63136900183659
 11
-73.95587388771003
 21
-33.5546755018366
  0
LINE
  5
98
100
AcDbEntity
  8
0
  6
ByLayer
 62
  256
370
   -1
100
AcDbLine
 10
-62.79588678771003
 20
-20.65052150183659
 11
-48.87258028771004
 21
-22.11392000183659
  0
LINE
  5
99
100
AcDbEntity
  8
0
  6
ByLayer
 62
  256
370
   -1
100
AcDbLine
 10
-64.25928528771004
 20
-34.57382800183659
 11
-50.33597878771003
 21
-36.0372265018366
  0
LINE
  5
9A
100
AcDbEntity
  8
0
  6
ByLayer
 62
  256
370
   -1
100
AcDbLine
 10
-62.79588678771003
 20
-20.65052150183659
 11
-64.25928528771004
 21
-34.57382800183659
  0
LINE
  5
9B
100
AcDbEntity
  8
0
  6
ByLayer
 62
  256
370
   -1
100
AcDbLine
 10
-48.87258028771004
 20
-22.11392000183659
 11
-50.33597878771003
 21
-36.0372265018366
  0
LINE
  5
9C
100
AcDbEntity
  8
0
  6
ByLayer
 62
  256
370
   -1
100
AcDbLine
 10
-29.72803378771003
 20
-24.1260929018366
 11
-15.80472728771004
 21
-25.58949140183659
  0
LINE
  5
9D
100
AcDbEntity
  8
0
  6
ByLayer
 62
  256
370
   -1
100
AcDbLine
 10
-31.19143228771003
 20
-38.0493994018366
 11
-17.26812578771003
 21
-39.51279790183659
  0
LINE
  5
9E
100
AcDbEntity
  8
0
  6
ByLayer
 62
  256
370
   -1
100
AcDbLine
 10
-29.72803378771003
 20
-24.1260929018366
 11
-31.19143228771003
 21
-38.0493994018366
  0
LINE
  5
9F
100
AcDbEntity
  8
0
  6
ByLayer
 62
  256
370
   -1
100
AcDbLine
 10
-15.80472728771004
 20
-25.58949140183659
 11
-17.26812578771003
 21
-39.51279790183659
  0
LINE
  5
A0
100
AcDbEntity
  8
0
  6
ByLayer
 62
  256
370
   -1
100
AcDbLine
 10
7.484615412289969
 20
30.35349129816341
 11
21.40792191228996
 21
31.81688979816342
  0
LINE
  5
A1
100
AcDbEntity
  8
0
  6
ByLayer
 62
  256
370
   -1
100
AcDbLine
 10
8.948013912289966
 20
16.43018479816341
 11
22.87132041228998
 21
17.89358329816341
  0
LINE
  5
A2
100
AcDbEntity
  8
0
  6
ByLayer
 62
  256
370
   -1
100
AcDbLine
 10
7.484615412289969
 20
30.35349129816341
 11
8.948013912289966
 21
16.43018479816341
  0
LINE
  5
A3
100
AcDbEntity
  8
0
  6
ByLayer
 62
  256
370
   -1
100
AcDbLine
 10
21.40792191228996
 20
31.81688979816342
 11
22.87132041228998
 21
17.89358329816341
  0
LINE
  5
A4
100
AcDbEntity
  8
0
  6
ByLayer
 62
  256
370
   -1
100
AcDbLine
 10
26.38053141228997
 20
32.33953209816342
 11
40.30383791228996
 21
33.80293059816341
  0
LINE
  5
A5
100
AcDbEntity
  8
0
  6
ByLayer
 62
  256
370
   -1
100
AcDbLine
 10
27.84392991228998
 20
18.41622559816341
 11
41.76723641228998
 21
19.87962409816341
  0
LINE
  5
A6
100
AcDbEntity
  8
0
  6
ByLayer
 62
  256
370
   -1
100
AcDbLine
 10
26.38053141228997
 20
32.33953209816342
 11
27.84392991228998
 21
18.41622559816341
  0
LINE
  5
A7
100
AcDbEntity
  8
0
  6
ByLayer
 62
  256
370
   -1
100
AcDbLine
 10
40.30383791228996
 20
33.80293059816341
 11
41.76723641228998
 21
19.87962409816341
  0
LINE
  5
A8
100
AcDbEntity
  8
0
  6
ByLayer
 62
  256
370
   -1
100
AcDbLine
 10
45.27644741228997
 20
34.32557289816341
 11
59.19975391228996
 21
35.78897139816341
  0
LINE
  5
A9
100
AcDbEntity
  8
0
  6
ByLayer
 62
  256
370
   -1
100
AcDbLine
 10
46.73984591228998
 20
20.40226639816341
 11
60.66315241228997
 21
21.86566489816341
  0
LINE
  5
AA
100
AcDbEntity
  8
0
  6
ByLayer
 62
  256
370
   -1
100
AcDbLine
 10
45.27644741228997
 20
34.32557289816341
 11
46.73984591228998
 21
20.40226639816341
  0
LINE
  5
AB
100
AcDbEntity
  8
0
  6
ByLayer
 62
  256
370
   -1
100
AcDbLine
 10
59.19975391228996
 20
35.78897139816341
 11
60.66315241228997
 21
21.86566489816341
  0
LINE
  5
AC
100
AcDbEntity
  8
0
  6
ByLayer
 62
  256
370
   -1
100
AcDbLine
 10
64.17236341228997
 20
36.31161369816341
 11
78.09566991228996
 21
37.77501219816341
  0
LINE
  5
AD
100
AcDbEntity
  8
0
  6
ByLayer
 62
  256
370
   -1
100
AcDbLine
 10
65.63576191228998
 20
22.38830719816341
 11
79.55906841228997
 21
23.85170569816341
  0
LINE
  5
AE
100
AcDbEntity
  8
0
  6
ByLayer
 62
  256
370
   -1
100
AcDbLine
 10
64.17236341228997
 20
36.31161369816341
 11
65.63576191228998
 21
22.38830719816341
  0
LINE
  5
AF
100
AcDbEntity
  8
0
  6
ByLayer
 62
  256
370
   -1
100
AcDbLine
 10
78.09566991228996
 20
37.77501219816341
 11
79.55906841228997
 21
23.85170569816341
  0
LINE
  5
B0
100
AcDbEntity
  8
0
  6
ByLayer
 62
  256
370
   -1
100
AcDbLine
 10
85.43026901228995
 20
38.54590959816341
 11
99.35357551228998
 21
40.00930809816342
  0
LINE
  5
B1
100
AcDbEntity
  8
0
  6
ByLayer
 62
  256
370
   -1
100
AcDbLine
 10
86.89366751228997
 20
24.62260309816341
 11
100.81697401229
 21
26.08600159816341
  0
LINE
  5
B2
100
AcDbEntity
  8
0
  6
ByLayer
 62
  256
370
   -1
100
AcDbLine
 10
85.43026901228995
 20
38.54590959816341
 11
86.89366751228997
 21
24.62260309816341
  0
LINE
  5
B3
100
AcDbEntity
  8
0
  6
ByLayer
 62
  256
370
   -1
100
AcDbLine
 10
99.35357551228998
 20
40.00930809816342
 11
100.81697401229
 21
26.08600159816341
  0
LINE
  5
B4
100
AcDbEntity
  8
0
  6
ByLayer
 62
  256
370
   -1
100
AcDbLine
 10
14.19463521228997
 20
11.95408549816341
 11
28.11794171228996
 21
13.41748399816341
  0
LINE
  5
B5
100
AcDbEntity
  8
0
  6
ByLayer
 62
  256
370
   -1
100
AcDbLine
 10
15.65803371228996
 20
-1.969221001836592
 11
29.58134021228997
 21
-0.5058225018365885
  0
LINE
  5
B6
100
AcDbEntity
  8
0
  6
ByLayer
 62
  256
370
   -1
100
AcDbLine
 10
14.19463521228997
 20
11.95408549816341
 11
15.65803371228996
 21
-1.969221001836592
  0
LINE
  5
B7
100
AcDbEntity
  8
0
  6
ByLayer
 62
  256
370
   -1
100
AcDbLine
 10
28.11794171228996
 20
13.41748399816341
 11
29.58134021228997
 21
-0.5058225018365885
  0
LINE
  5
B8
100
AcDbEntity
  8
0
  6
ByLayer
 62
  256
370
   -1
100
AcDbLine
 10
33.09055121228997
 20
13.94012629816341
 11
47.01385771228996
 21
15.40352479816341
  0
LINE
  5
B9
100
AcDbEntity
  8
0
  6
ByLayer
 62
  256
370
   -1
100
AcDbLine
 10
34.55394971228998
 20
0.01681979816340554
 11
48.47725621228997
 21
1.480218298163409
  0
LINE
  5
BA
100
AcDbEntity
  8
0
  6
ByLayer
 62
  256
370
   -1
100
AcDbLine
 10
33.09055121228997
 20
13.94012629816341
 11
34.55394971228998
 21
0.01681979816340554
  0
LINE
  5
BB
100
AcDbEntity
  8
0
  6
ByLayer
 62
  256
370
   -1
100
AcDbLine
 10
47.01385771228996
 20
15.40352479816341
 11
48.47725621228997
 21
1.480218298163409
  0
LINE
  5
BC
100
AcDbEntity
  8
0
  6
ByLayer
 62
  256
370
   -1
100
AcDbLine
 10
51.98646721228997
 20
15.92616709816341
 11
65.90977371228996
 21
17.38956559816341
  0
LINE
  5
BD
100
AcDbEntity
  8
0
  6
ByLayer
 62
  256
370
   -1
100
AcDbLine
 10
53.44986571228998
 20
2.00286059816341
 11
67.37317221228997
 21
3.466259098163407
  0
LINE
  5
BE
100
AcDbEntity
  8
0
  6
ByLayer
 62
  256
370
   -1
100
AcDbLine
 10
51.98646721228997
 20
15.92616709816341
 11
53.44986571228998
 21
2.00286059816341
  0
LINE
  5
BF
100
AcDbEntity
  8
0
  6
ByLayer
 62
  256
370
   -1
100
AcDbLine
 10
65.90977371228996
 20
17.38956559816341
 11
67.37317221228997
 21
3.466259098163407
  0
LINE
  5
C0
100
AcDbEntity
  8
0
  6
ByLayer
 62
  256
370
   -1
100
AcDbLine
 10
70.88238321228997
 20
17.91220789816341
 11
84.80568971228996
 21
19.37560639816341
  0
LINE
  5
C1
100
AcDbEntity
  8
0
  6
ByLayer
 62
  256
370
   -1
100
AcDbLine
 10
72.34578171228998
 20
3.988901398163408
 11
86.26908821228997
 21
5.452299898163405
  0
LINE
  5
C2
100
AcDbEntity
  8
0
  6
ByLayer
 62
  256
370
   -1
100
AcDbLine
 10
70.88238321228997
 20
17.91220789816341
 11
72.34578171228998
 21
3.988901398163408
  0
LINE
  5
C3
100
AcDbEntity
  8
0
  6
ByLayer
 62
  256
370
   -1
100
AcDbLine
 10
84.80568971228996
 20
19.37560639816341
 11
86.26908821228997
 21
5.452299898163405
  0
LINE
  5
C4
100
AcDbEntity
  8
0
  6
ByLayer
 62
  256
370
   -1
100
AcDbLine
 10
89.77829931228996
 20
19.89824869816341
 11
103.70160581229
 21
21.36164719816341
  0
LINE
  5
C5
100
AcDbEntity
  8
0
  6
ByLayer
 62
  256
370
   -1
100
AcDbLine
 10
91.24169781228997
 20
5.974942198163406
 11
105.16500431229
 21
7.43834069816341
  0
LINE
  5
C6
100
AcDbEntity
  8
0
  6
ByLayer
 62
  256
370
   -1
100
AcDbLine
 10
89.77829931228996
 20
19.89824869816341
 11
91.24169781228997
 21
5.974942198163406
  0
LINE
  5
C7
100
AcDbEntity
  8
0
  6
ByLayer
 62
  256
370
   -1
100
AcDbLine
 10
103.70160581229
 20
21.36164719816341
 11
105.16500431229
 21
7.43834069816341
  0
LINE
  5
C8
100
AcDbEntity
  8
0
  6
ByLayer
 62
  256
370
   -1
100
AcDbLine
 10
6.732718012289965
 20
-7.934850901836588
 11
20.65602451228997
 21
-6.471452401836592
  0
LINE
  5
C9
100
AcDbEntity
  8
0
  6
ByLayer
 62
  256
370
   -1
100
AcDbLine
 10
8.196116512289962
 20
-21.85815740183659
 11
22.11942301228996
 21
-20.39475890183659
  0
LINE
  5
CA
100
AcDbEntity
  8
0
  6
ByLayer
 62
  256
370
   -1
100
AcDbLine
 10
6.732718012289965
 20
-7.934850901836588
 11
8.196116512289962
 21
-21.85815740183659
  0
LINE
  5
CB
100
AcDbEntity
  8
0
  6
ByLayer
 62
  256
370
   -1
100
AcDbLine
 10
20.65602451228997
 20
-6.471452401836592
 11
22.11942301228996
 21
-20.39475890183659
  0
LINE
  5
CC
100
AcDbEntity
  8
0
  6
ByLayer
 62
  256
370
   -1
100
AcDbLine
 10
25.62863401228998
 20
-5.948810101836591
 11
39.55194051228997
 21
-4.485411601836594
  0
LINE
  5
CD
100
AcDbEntity
  8
0
  6
ByLayer
 62
  256
370
   -1
100
AcDbLine
 10
27.09203251228996
 20
-19.87211660183659
 11
41.01533901228996
 21
-18.40871810183659
  0
LINE
  5
CE
100
AcDbEntity
  8
0
  6
ByLayer
 62
  256
370
   -1
100
AcDbLine
 10
25.62863401228998
 20
-5.948810101836591
 11
27.09203251228996
 21
-19.87211660183659
  0
LINE
  5
CF
100
AcDbEntity
  8
0
  6
ByLayer
 62
  256
370
   -1
100
AcDbLine
 10
39.55194051228997
 20
-4.485411601836594
 11
41.01533901228996
 21
-18.40871810183659
  0
LINE
  5
D0
100
AcDbEntity
  8
0
  6
ByLayer
 62
  256
370
   -1
100
AcDbLine
 10
44.52455001228998
 20
-3.962769301836593
 11
58.44785651228997
 21
-2.499370801836589
  0
LINE
  5
D1
100
AcDbEntity
  8
0
  6
ByLayer
 62
  256
370
   -1
100
AcDbLine
 10
45.98794851228996
 20
-17.88607580183659
 11
59.91125501228996
 21
-16.42267730183659
  0
LINE
  5
D2
100
AcDbEntity
  8
0
  6
ByLayer
 62
  256
370
   -1
100
AcDbLine
 10
44.52455001228998
 20
-3.962769301836593
 11
45.98794851228996
 21
-17.88607580183659
  0
LINE
  5
D3
100
AcDbEntity
  8
0
  6
ByLayer
 62
  256
370
   -1
100
AcDbLine
 10
58.44785651228997
 20
-2.499370801836589
 11
59.91125501228996
 21
-16.42267730183659
  0
LINE
  5
D4
100
AcDbEntity
  8
0
  6
ByLayer
 62
  256
370
   -1
100
AcDbLine
 10
63.42046601228998
 20
-1.976728501836595
 11
77.34377251228997
 21
-0.5133300018365912
  0
LINE
  5
D5
100
AcDbEntity
  8
0
  6
ByLayer
 62
  256
370
   -1
100
AcDbLine
 10
64.88386451228996
 20
-15.90003500183659
 11
78.80717101228996
 21
-14.43663650183659
  0
LINE
  5
D6
100
AcDbEntity
  8
0
  6
ByLayer
 62
  256
370
   -1
100
AcDbLine
 10
63.42046601228998
 20
-1.976728501836595
 11
64.88386451228996
 21
-15.90003500183659
  0
LINE
  5
D7
100
AcDbEntity
  8
0
  6
ByLayer
 62
  256
370
   -1
100
AcDbLine
 10
77.34377251228997
 20
-0.5133300018365912
 11
78.80717101228996
 21
-14.43663650183659
  0
LINE
  5
D8
100
AcDbEntity
  8
0
  6
ByLayer
 62
  256
370
   -1
100
AcDbLine
 10
87.04036111228996
 20
0.5058224981634059
 11
100.96366761229
 21
1.96922099816341
  0
LINE
  5
D9
100
AcDbEntity
  8
0
  6
ByLayer
 62
  256
370
   -1
100
AcDbLine
 10
88.50375961228997
 20
-13.41748400183659
 11
102.42706611229
 21
-11.95408550183659
  0
LINE
  5
DA
100
AcDbEntity
  8
0
  6
ByLayer
 62
  256
370
   -1
100
AcDbLine
 10
87.04036111228996
 20
0.5058224981634059
 11
88.50375961228997
 21
-13.41748400183659
  0
LINE
  5
DB
100
AcDbEntity
  8
0
  6
ByLayer
 62
  256
370
   -1
100
AcDbLine
 10
100.96366761229
 20
1.96922099816341
 11
102.42706611229
 21
-11.95408550183659
  0
LINE
  5
DC
100
AcDbEntity
  8
0
  6
ByLayer
 62
  256
370
   -1
100
AcDbLine
 10
18.16671681228996
 20
-25.83774650183659
 11
32.09002331228996
 21
-24.37434800183659
  0
LINE
  5
DD
100
AcDbEntity
  8
0
  6
ByLayer
 62
  256
370
   -1
100
AcDbLine
 10
19.63011531228997
 20
-39.76105300183659
 11
33.55342181228997
 21
-38.29765450183659
  0
LINE
  5
DE
100
AcDbEntity
  8
0
  6
ByLayer
 62
  256
370
   -1
100
AcDbLine
 10
18.16671681228996
 20
-25.83774650183659
 11
19.63011531228997
 21
-39.76105300183659
  0
LINE
  5
DF
100
AcDbEntity
  8
0
  6
ByLayer
 62
  256
370
   -1
100
AcDbLine
 10
32.09002331228996
 20
-24.37434800183659
 11
33.55342181228997
 21
-38.29765450183659
  0
LINE
  5
E0
100
AcDbEntity
  8
0
  6
ByLayer
 62
  256
370
   -1
100
AcDbLine
 10
48.87258031228995
 20
-22.61043020183659
 11
62.79588681228998
 21
-21.14703170183659
  0
LINE
  5
E1
100
AcDbEntity
  8
0
  6
ByLayer
 62
  256
370
   -1
100
AcDbLine
 10
50.33597881228997
 20
-36.53373670183659
 11
64.25928531228996
 21
-35.07033820183659
  0
LINE
  5
E2
100
AcDbEntity
  8
0
  6
ByLayer
 62
  256
370
   -1
100
AcDbLine
 10
48.87258031228995
 20
-22.61043020183659
 11
50.33597881228997
 21
-36.53373670183659
  0
LINE
  5
E3
100
AcDbEntity
  8
0
  6
ByLayer
 62
  256
370
   -1
100
AcDbLine
 10
62.79588681228998
 20
-21.14703170183659
 11
64.25928531228996
 21
-35.07033820183659
  0
LINE
  5
E4
100
AcDbEntity
  8
0
  6
ByLayer
 62
  256
370
   -1
100
AcDbLine
 10
72.49247541228996
 20
-20.12787920183659
 11
86.41578191228996
 21
-18.66448070183659
  0
LINE
  5
E5
100
AcDbEntity
  8
0
  6
ByLayer
 62
  256
370
   -1
100
AcDbLine
 10
73.95587391228997
 20
-34.05118570183659
 11
87.87918041228997
 21
-32.58778720183659
  0
LINE
  5
E6
100
AcDbEntity
  8
0
  6
ByLayer
 62
  256
370
   -1
100
AcDbLine
 10
72.49247541228996
 20
-20.12787920183659
 11
73.95587391228997
 21
-34.05118570183659
  0
LINE
  5
E7
100
AcDbEntity
  8
0
  6
ByLayer
 62
  256
370
   -1
100
AcDbLine
 10
86.41578191228996
 20
-18.66448070183659
 11
87.87918041228997
 21
-32.58778720183659
  0
LINE
  5
E8
100
AcDbEntity
  8
keycap
  6
ByLayer
 62
  256
370
   -1
100
AcDbLine
 10
4.736989518099051
 20
32.57847482509752
 11
103.9405485571484
 21
43.00518916140884
  0
LINE
  5
E9
100
AcDbEntity
  8
keycap
  6
ByLayer
 62
  256
370
   -1
100
AcDbLine
 10
-103.9405485581301
 20
43.50169935779989
 11
-9.460968493519118
 21
33.57149522509754
  0
LINE
  5
EA
100
AcDbEntity
  8
keycap
  6
ByLayer
 62
  256
370
   -1
100
AcDbLine
 10
-9.460968493519118
 20
33.57149522509754
 11
-11.44700931253612
 21
14.67557928375646
  0
LINE
  5
EB
100
AcDbEntity
  8
keycap
  6
ByLayer
 62
  256
370
   -1
100
AcDbLine
 10
-11.44700931253612
 20
14.67557928375646
 11
-6.723030288283425
 21
14.17906907491182
  0
LINE
  5
EC
100
AcDbEntity
  8
keycap
  6
ByLayer
 62
  256
370
   -1
100
AcDbLine
 10
-6.723030288283425
 20
14.17906907491182
 11
-8.709071111881656
 21
-4.716846910016768
  0
LINE
  5
ED
100
AcDbEntity
  8
keycap
  6
ByLayer
 62
  256
370
   -1
100
AcDbLine
 10
0.7388869117165768
 20
-5.709867325088174
 11
-3.233194742086141
 21
-43.50169935779988
  0
LINE
  5
EE
100
AcDbEntity
  8
keycap
  6
ByLayer
 62
  256
370
   -1
100
AcDbLine
 10
-8.709071111881656
 20
-4.716846910016768
 11
0.7388869117165768
 21
-5.709867325088174
  0
LINE
  5
EF
100
AcDbEntity
  8
keycap
  6
ByLayer
 62
  256
370
   -1
100
AcDbLine
 10
3.985092112863356
 20
-5.709867325088181
 11
7.957173761757616
 21
-43.5016993110989
  0
LINE
  5
F0
100
AcDbEntity
  8
keycap
  6
ByLayer
 62
  256
370
   -1
100
AcDbLine
 10
3.985092112863356
 20
-5.709867325088181
 11
13.43305013646157
 21
-4.716846910016747
  0
LINE
  5
F1
100
AcDbEntity
  8
keycap
  6
ByLayer
 62
  256
370
   -1
100
AcDbLine
 10
11.44700930997995
 20
14.17906910234575
 11
13.43305013646157
 21
-4.716846910016747
  0
LINE
  5
F2
100
AcDbEntity
  8
keycap
  6
ByLayer
 62
  256
370
   -1
100
AcDbLine
 10
4.736989518099051
 20
32.57847482509752
 11
6.723030335541551
 21
13.6825588987368
  0
LINE
  5
F3
100
AcDbEntity
  8
keycap
  6
ByLayer
 62
  256
370
   -1
100
AcDbLine
 10
6.723030335541551
 20
13.6825588987368
 11
11.44700930997995
 21
14.17906910234575
  0
LINE
  5
F4
100
AcDbEntity
  8
keycap
  6
ByLayer
 62
  256
370
   -1
100
AcDbLine
 10
7.957173761757616
 20
-43.5016993110989
 11
92.98879580428078
 21
-34.56451559330928
  0
LINE
  5
F5
100
AcDbEntity
  8
keycap
  6
ByLayer
 62
  256
370
   -1
100
AcDbLine
 10
91.00275499028317
 20
-15.66859969972446
 11
92.98879580428078
 21
-34.56451559330928
  0
LINE
  5
F6
100
AcDbEntity
  8
keycap
  6
ByLayer
 62
  256
370
   -1
100
AcDbLine
 10
91.00275499028317
 20
-15.66859969972446
 11
109.8986710359692
 21
-13.68255886974037
  0
LINE
  5
F7
100
AcDbEntity
  8
keycap
  6
ByLayer
 62
  256
370
   -1
100
AcDbLine
 10
103.9405485571484
 20
43.00518916140884
 11
109.8986710359692
 21
-13.68255886974037
  0
LINE
  5
F8
100
AcDbEntity
  8
keycap
  6
ByLayer
 62
  256
370
   -1
100
AcDbLine
 10
-92.98879578395484
 20
-34.06800543378333
 11
-3.233194742086141
 21
-43.50169935779988
  0
LINE
  5
F9
100
AcDbEntity
  8
keycap
  6
ByLayer
 62
  256
370
   -1
100
AcDbLine
 10
-91.002754965376
 20
-15.17208949661107
 11
-92.98879578395484
 21
-34.06800543378333
  0
LINE
  5
FA
100
AcDbEntity
  8
keycap
  6
ByLayer
 62
  256
370
   -1
100
AcDbLine
 10
-103.9405485581301
 20
43.50169935779989
 11
-109.8986710359692
 21
-13.18604866400912
  0
LINE
  5
FB
100
AcDbEntity
  8
keycap
  6
ByLayer
 62
  256
370
   -1
100
AcDbLine
 10
-109.8986710359692
 20
-13.18604866400912
 11
-91.002754965376
 21
-15.17208949661107
  0
LINE
  5
FC
100
AcDbEntity
  8
rpi
  6
ByLayer
 62
  256
370
   -1
100
AcDbLine
 10
8.999999999999989
 20
-6.207234030268797
 11
-9.000000000000011
 21
-6.207234030268794
  0
CIRCLE
  5
FD
100
AcDbEntity
  8
rpi
  6
ByLayer
 62
  256
370
   -1
100
AcDbCircle
 10
-7.62000000000001
 20
15.70276596973121
 40
0.5
  0
CIRCLE
  5
FE
100
AcDbEntity
  8
rpi
  6
ByLayer
 62
  256
370
   -1
100
AcDbCircle
 10
-7.62000000000001
 20
13.16276596973121
 40
0.5
  0
CIRCLE
  5
FF
100
AcDbEntity
  8
rpi
  6
ByLayer
 62
  256
370
   -1
100
AcDbCircle
 10
-7.62000000000001
 20
10.62276596973121
 40
0.5
  0
CIRCLE
  5
100
100
AcDbEntity
  8
rpi
  6
ByLayer
 62
  256
370
   -1
100
AcDbCircle
 10
-7.620000000000011
 20
8.082765969731208
 40
0.5
  0
CIRCLE
  5
101
100
AcDbEntity
  8
rpi
  6
ByLayer
 62
  256
370
   -1
100
AcDbCircle
 10
-7.620000000000011
 20
5.542765969731208
 40
0.5
  0
CIRCLE
  5
102
100
AcDbEntity
  8
rpi
  6
ByLayer
 62
  256
370
   -1
100
AcDbCircle
 10
-7.620000000000011
 20
3.002765969731208
 40
0.5
  0
CIRCLE
  5
103
100
AcDbEntity
  8
rpi
  6
ByLayer
 62
  256
370
   -1
100
AcDbCircle
 10
-7.620000000000011
 20
0.4627659697312083
 40
0.5
  0
CIRCLE
  5
104
100
AcDbEntity
  8
rpi
  6
ByLayer
 62
  256
370
   -1
100
AcDbCircle
 10
-7.620000000000011
 20
-2.077234030268792
 40
0.5
  0
CIRCLE
  5
105
100
AcDbEntity
  8
rpi
  6
ByLayer
 62
  256
370
   -1
100
AcDbCircle
 10
-7.620000000000011
 20
-4.617234030268792
 40
0.5
  0
CIRCLE
  5
106
100
AcDbEntity
  8
rpi
  6
ByLayer
 62
  256
370
   -1
100
AcDbCircle
 10
-5.080000000000011
 20
-4.617234030268792
 40
0.5
  0
CIRCLE
  5
107
100
AcDbEntity
  8
rpi
  6
ByLayer
 62
  256
370
   -1
100
AcDbCircle
 10
-2.540000000000011
 20
-4.617234030268793
 40
0.5
  0
CIRCLE
  5
108
100
AcDbEntity
  8
rpi
  6
ByLayer
 62
  256
370
   -1
100
AcDbCircle
 10
-1.06081606292287e-14
 20
-4.617234030268793
 40
0.5
  0
CIRCLE
  5
109
100
AcDbEntity
  8
rpi
  6
ByLayer
 62
  256
370
   -1
100
AcDbCircle
 10
2.53999999999999
 20
-4.617234030268793
 40
0.5
  0
CIRCLE
  5
10A
100
AcDbEntity
  8
rpi
  6
ByLayer
 62
  256
370
   -1
100
AcDbCircle
 10
5.079999999999989
 20
-4.617234030268794
 40
0.5
  0
CIRCLE
  5
10B
100
AcDbEntity
  8
rpi
  6
ByLayer
 62
  256
370
   -1
100
AcDbCircle
 10
7.61999999999999
 20
-4.617234030268794
 40
0.5
  0
CIRCLE
  5
10C
100
AcDbEntity
  8
rpi
  6
ByLayer
 62
  256
370
   -1
100
AcDbCircle
 10
7.61999999999999
 20
-2.077234030268793
 40
0.5
  0
CIRCLE
  5
10D
100
AcDbEntity
  8
rpi
  6
ByLayer
 62
  256
370
   -1
100
AcDbCircle
 10
7.61999999999999
 20
0.4627659697312065
 40
0.5
  0
CIRCLE
  5
10E
100
AcDbEntity
  8
rpi
  6
ByLayer
 62
  256
370
   -1
100
AcDbCircle
 10
7.61999999999999
 20
3.002765969731207
 40
0.5
  0
CIRCLE
  5
10F
100
AcDbEntity
  8
rpi
  6
ByLayer
 62
  256
370
   -1
100
AcDbCircle
 10
7.61999999999999
 20
5.542765969731207
 40
0.5
  0
CIRCLE
  5
110
100
AcDbEntity
  8
rpi
  6
ByLayer
 62
  256
370
   -1
100
AcDbCircle
 10
7.61999999999999
 20
8.082765969731208
 40
0.5
  0
CIRCLE
  5
111
100
AcDbEntity
  8
rpi
  6
ByLayer
 62
  256
370
   -1
100
AcDbCircle
 10
7.619999999999991
 20
10.62276596973121
 40
0.5
  0
CIRCLE
  5
112
100
AcDbEntity
  8
rpi
  6
ByLayer
 62
  256
370
   -1
100
AcDbCircle
 10
7.619999999999991
 20
13.16276596973121
 40
0.5
  0
CIRCLE
  5
113
100
AcDbEntity
  8
rpi
  6
ByLayer
 62
  256
370
   -1
100
AcDbCircle
 10
7.619999999999991
 20
15.70276596973121
 40
0.5
  0
LINE
  5
114
100
AcDbEntity
  8
rpi
  6
ByLayer
 62
  256
370
   -1
100
AcDbLine
 10
-9.000000000000011
 20
-6.207234030268794
 11
-9.000000000000011
 21
17.29276596973121
  0
LINE
  5
115
100
AcDbEntity
  8
rpi
  6
ByLayer
 62
  256
370
   -1
100
AcDbLine
 10
8.999999999999989
 20
-6.207234030268797
 11
8.999999999999989
 21
17.29276596973121
  0
LINE
  5
116
100
AcDbEntity
  8
rpi
  6
ByLayer
 62
  256
370
   -1
100
AcDbLine
 10
8.999999999999989
 20
17.29276596973121
 11
-9.000000000000011
 21
17.29276596973121
  0
ARC
  5
117
100
AcDbEntity
  8
edge
  6
ByLayer
 62
  256
370
   -1
100
AcDbCircle
 10
105
 20
38.5
 40
5
100
AcDbArc
 50
0
 51
90
  0
LINE
  5
118
100
AcDbEntity
  8
edge
  6
ByLayer
 62
  256
370
   -1
100
AcDbLine
 10
110
 20
38.5
 11
110
 21
-38.5
  0
ARC
  5
119
100
AcDbEntity
  8
edge
  6
ByLayer
 62
  256
370
   -1
100
AcDbCircle
 10
105
 20
-38.5
 40
5
100
AcDbArc
 50
270
 51
0
  0
LINE
  5
11A
100
AcDbEntity
  8
edge
  6
ByLayer
 62
  256
370
   -1
100
AcDbLine
 10
-105
 20
-43.5
 11
105
 21
-43.5
  0
ARC
  5
11B
100
AcDbEntity
  8
edge
  6
ByLayer
 62
  256
370
   -1
100
AcDbCircle
 10
-105
 20
-38.5
 40
5
100
AcDbArc
 50
180
 51
270
  0
LINE
  5
11C
100
AcDbEntity
  8
edge
  6
ByLayer
 62
  256
370
   -1
100
AcDbLine
 10
-105
 20
43.5
 11
105
 21
43.5
  0
LINE
  5
11D
100
AcDbEntity
  8
edge
  6
ByLayer
 62
  256
370
   -1
100
AcDbLine
 10
-110
 20
38.5
 11
-110
 21
-38.5
  0
ARC
  5
11E
100
AcDbEntity
  8
edge
  6
ByLayer
 62
  256
370
   -1
100
AcDbCircle
 10
-105
 20
38.5
 40
5
100
AcDbArc
 50
90
 51
180
  0
LINE
  5
11F
100
AcDbEntity
  8
placement
  6
ByLayer
 62
  256
370
   -1
100
AcDbLine
 10
-101.71556498771
 20
40.75407339816341
 11
-89.25565698771005
 21
25.36736839816341
  0
LINE
  5
120
100
AcDbEntity
  8
placement
  6
ByLayer
 62
  256
370
   -1
100
AcDbLine
 10
-82.81964888771004
 20
38.76803259816342
 11
-70.35974088771006
 21
23.38132759816342
  0
LINE
  5
121
100
AcDbEntity
  8
placement
  6
ByLayer
 62
  256
370
   -1
100
AcDbLine
 10
-63.92373288771005
 20
36.78199179816342
 11
-51.46382488771006
 21
21.39528679816342
  0
LINE
  5
122
100
AcDbEntity
  8
placement
  6
ByLayer
 62
  256
370
   -1
100
AcDbLine
 10
-45.02781688771005
 20
34.79595099816341
 11
-32.56790888771006
 21
19.40924599816341
  0
LINE
  5
123
100
AcDbEntity
  8
placement
  6
ByLayer
 62
  256
370
   -1
100
AcDbLine
 10
-26.13190088771005
 20
32.80991019816341
 11
-13.67199288771006
 21
17.42320519816341
  0
LINE
  5
124
100
AcDbEntity
  8
placement
  6
ByLayer
 62
  256
370
   -1
100
AcDbLine
 10
-101.33961628771
 20
21.60990229816341
 11
-88.87970828771006
 21
6.223197298163409
  0
LINE
  5
125
100
AcDbEntity
  8
placement
  6
ByLayer
 62
  256
370
   -1
100
AcDbLine
 10
-80.08171068771004
 20
19.37560639816341
 11
-67.62180268771006
 21
3.98890139816341
  0
LINE
  5
126
100
AcDbEntity
  8
placement
  6
ByLayer
 62
  256
370
   -1
100
AcDbLine
 10
-61.18579468771004
 20
17.38956559816341
 11
-48.72588668771006
 21
2.002860598163409
  0
LINE
  5
127
100
AcDbEntity
  8
placement
  6
ByLayer
 62
  256
370
   -1
100
AcDbLine
 10
-42.28987868771004
 20
15.40352479816341
 11
-29.82997068771006
 21
0.01681979816340906
  0
LINE
  5
128
100
AcDbEntity
  8
placement
  6
ByLayer
 62
  256
370
   -1
100
AcDbLine
 10
-23.39396268771004
 20
13.41748399816341
 11
-10.93405468771006
 21
-1.969221001836592
  0
LINE
  5
129
100
AcDbEntity
  8
placement
  6
ByLayer
 62
  256
370
   -1
100
AcDbLine
 10
-15.93204548771004
 20
-6.471452401836592
 11
-3.472137487710057
 21
-21.85815740183659
  0
LINE
  5
12A
100
AcDbEntity
  8
placement
  6
ByLayer
 62
  256
370
   -1
100
AcDbLine
 10
-34.82796148771004
 20
-4.485411601836594
 11
-22.36805348771006
 21
-19.87211660183659
  0
LINE
  5
12B
100
AcDbEntity
  8
placement
  6
ByLayer
 62
  256
370
   -1
100
AcDbLine
 10
-53.72387748771005
 20
-2.499370801836581
 11
-41.26396948771006
 21
-17.88607580183658
  0
LINE
  5
12C
100
AcDbEntity
  8
placement
  6
ByLayer
 62
  256
370
   -1
100
AcDbLine
 10
-72.61979348771004
 20
-0.5133300018365832
 11
-60.15988548771006
 21
-15.90003500183658
  0
LINE
  5
12D
100
AcDbEntity
  8
placement
  6
ByLayer
 62
  256
370
   -1
100
AcDbLine
 10
-98.60167808771006
 20
2.21747609816344
 11
-86.14177008771007
 21
-13.16922890183656
  0
LINE
  5
12E
100
AcDbEntity
  8
placement
  6
ByLayer
 62
  256
370
   -1
100
AcDbLine
 10
-86.41578188771005
 20
-18.16797050183656
 11
-73.95587388771007
 21
-33.55467550183656
  0
LINE
  5
12F
100
AcDbEntity
  8
placement
  6
ByLayer
 62
  256
370
   -1
100
AcDbLine
 10
-62.79588678771005
 20
-20.65052150183656
 11
-50.33597878771006
 21
-36.03722650183656
  0
LINE
  5
130
100
AcDbEntity
  8
placement
  6
ByLayer
 62
  256
370
   -1
100
AcDbLine
 10
-29.72803378771005
 20
-24.12609290183657
 11
-17.26812578771006
 21
-39.51279790183656
  0
LINE
  5
131
100
AcDbEntity
  8
placement
  6
ByLayer
 62
  256
370
   -1
100
AcDbLine
 10
18.16671681228996
 20
-25.83774650183659
 11
33.55342181228997
 21
-38.29765450183658
  0
LINE
  5
132
100
AcDbEntity
  8
placement
  6
ByLayer
 62
  256
370
   -1
100
AcDbLine
 10
6.73271801228996
 20
-7.934850901836587
 11
22.11942301228997
 21
-20.39475890183658
  0
LINE
  5
133
100
AcDbEntity
  8
placement
  6
ByLayer
 62
  256
370
   -1
100
AcDbLine
 10
25.62863401228998
 20
-5.948810101836587
 11
41.01533901228999
 21
-18.40871810183658
  0
LINE
  5
134
100
AcDbEntity
  8
placement
  6
ByLayer
 62
  256
370
   -1
100
AcDbLine
 10
44.52455001228998
 20
-3.962769301836589
 11
59.91125501228998
 21
-16.42267730183658
  0
LINE
  5
135
100
AcDbEntity
  8
placement
  6
ByLayer
 62
  256
370
   -1
100
AcDbLine
 10
63.42046601228998
 20
-1.976728501836592
 11
78.80717101228998
 21
-14.43663650183658
  0
LINE
  5
136
100
AcDbEntity
  8
placement
  6
ByLayer
 62
  256
370
   -1
100
AcDbLine
 10
87.04036111228994
 20
0.5058224981634091
 11
102.4270661122899
 21
-11.95408550183658
  0
LINE
  5
137
100
AcDbEntity
  8
placement
  6
ByLayer
 62
  256
370
   -1
100
AcDbLine
 10
72.49247541228996
 20
-20.12787920183658
 11
87.87918041228997
 21
-32.58778720183658
  0
LINE
  5
138
100
AcDbEntity
  8
placement
  6
ByLayer
 62
  256
370
   -1
100
AcDbLine
 10
48.87258031228995
 20
-22.61043020183659
 11
64.25928531228996
 21
-35.07033820183658
  0
LINE
  5
139
100
AcDbEntity
  8
placement
  6
ByLayer
 62
  256
370
   -1
100
AcDbLine
 10
14.19463521228996
 20
11.95408549816341
 11
29.58134021228997
 21
-0.5058225018365778
  0
LINE
  5
13A
100
AcDbEntity
  8
placement
  6
ByLayer
 62
  256
370
   -1
100
AcDbLine
 10
33.09055121228997
 20
13.94012629816341
 11
48.47725621228997
 21
1.480218298163418
  0
LINE
  5
13B
100
AcDbEntity
  8
placement
  6
ByLayer
 62
  256
370
   -1
100
AcDbLine
 10
51.98646721228997
 20
15.92616709816341
 11
67.37317221228997
 21
3.466259098163421
  0
LINE
  5
13C
100
AcDbEntity
  8
placement
  6
ByLayer
 62
  256
370
   -1
100
AcDbLine
 10
70.88238321228998
 20
17.91220789816341
 11
86.26908821228999
 21
5.452299898163421
  0
LINE
  5
13D
100
AcDbEntity
  8
placement
  6
ByLayer
 62
  256
370
   -1
100
AcDbLine
 10
89.77829931228997
 20
19.89824869816341
 11
105.16500431229
 21
7.438340698163422
  0
LINE
  5
13E
100
AcDbEntity
  8
placement
  6
ByLayer
 62
  256
370
   -1
100
AcDbLine
 10
85.43026901228995
 20
38.54590959816341
 11
100.81697401229
 21
26.08600159816342
  0
LINE
  5
13F
100
AcDbEntity
  8
placement
  6
ByLayer
 62
  256
370
   -1
100
AcDbLine
 10
64.17236341228997
 20
36.31161369816341
 11
79.55906841228997
 21
23.85170569816342
  0
LINE
  5
140
100
AcDbEntity
  8
placement
  6
ByLayer
 62
  256
370
   -1
100
AcDbLine
 10
45.27644741228997
 20
34.32557289816341
 11
60.66315241228997
 21
21.86566489816343
  0
LINE
  5
141
100
AcDbEntity
  8
placement
  6
ByLayer
 62
  256
370
   -1
100
AcDbLine
 10
26.38053141228997
 20
32.33953209816342
 11
41.76723641228998
 21
19.87962409816343
  0
LINE
  5
142
100
AcDbEntity
  8
placement
  6
ByLayer
 62
  256
370
   -1
100
AcDbLine
 10
7.484615412289966
 20
30.35349129816341
 11
22.87132041228997
 21
17.89358329816342
  0
LINE
  5
143
100
AcDbEntity
  8
placement
  6
ByLayer
 62
  256
370
   -1
100
AcDbLine
 10
-85.30595374962252
 20
39.02935373682432
 11
-86.76935224962253
 21
25.10604723682431
  0
LINE
  5
144
100
AcDbEntity
  8
placement
  6
ByLayer
 62
  256
370
   -1
100
AcDbLine
 10
-66.41003764962252
 20
37.04331293682431
 11
-67.87343614962252
 21
23.12000643682432
  0
LINE
  5
145
100
AcDbEntity
  8
placement
  6
ByLayer
 62
  256
370
   -1
100
AcDbLine
 10
-47.51412164962253
 20
35.05727213682431
 11
-48.97752014962253
 21
21.13396563682432
  0
LINE
  5
146
100
AcDbEntity
  8
placement
  6
ByLayer
 62
  256
370
   -1
100
AcDbLine
 10
-28.61820564962253
 20
33.07123133682431
 11
-30.08160414962252
 21
19.14792483682432
  0
LINE
  5
147
100
AcDbEntity
  8
placement
  6
ByLayer
 62
  256
370
   -1
100
AcDbLine
 10
-9.722289649622528
 20
31.08519053682431
 11
-11.18568814962252
 21
17.16188403682431
  0
LINE
  5
148
100
AcDbEntity
  8
placement
  6
ByLayer
 62
  256
370
   -1
100
AcDbLine
 10
23.89422667420246
 20
32.07821093682432
 11
25.35762517420247
 21
18.15490443682431
  0
LINE
  5
149
100
AcDbEntity
  8
placement
  6
ByLayer
 62
  256
370
   -1
100
AcDbLine
 10
42.79014265037747
 20
34.06425175950251
 11
44.25354115037748
 21
20.14094525950251
  0
LINE
  5
14A
100
AcDbEntity
  8
placement
  6
ByLayer
 62
  256
370
   -1
100
AcDbLine
 10
61.68605865037747
 20
36.05029255950251
 11
63.14945715037748
 21
22.1269860595025
  0
LINE
  5
14B
100
AcDbEntity
  8
placement
  6
ByLayer
 62
  256
370
   -1
100
AcDbLine
 10
80.58197465037748
 20
38.03633335950251
 11
82.04537315037749
 21
24.1130268595025
  0
LINE
  5
14C
100
AcDbEntity
  8
placement
  6
ByLayer
 62
  256
370
   -1
100
AcDbLine
 10
83.06827938846499
 20
38.2976545208416
 11
84.531677888465
 21
24.3743480208416
  0
LINE
  5
14D
100
AcDbEntity
  8
placement
  6
ByLayer
 62
  256
370
   -1
100
AcDbLine
 10
-84.93000504962252
 20
19.88518263682432
 11
-86.39340354962252
 21
5.961876136824314
  0
LINE
  5
14E
100
AcDbEntity
  8
placement
  6
ByLayer
 62
  256
370
   -1
100
AcDbLine
 10
-82.56801542579754
 20
19.63692755950251
 11
-84.03141392579755
 21
5.713621059502504
  0
LINE
  5
14F
100
AcDbEntity
  8
placement
  6
ByLayer
 62
  256
370
   -1
100
AcDbLine
 10
-63.67209944962253
 20
17.65088673682431
 11
-65.13549794962253
 21
3.727580236824312
  0
LINE
  5
150
100
AcDbEntity
  8
placement
  6
ByLayer
 62
  256
370
   -1
100
AcDbLine
 10
-44.77618344962253
 20
15.66484593682432
 11
-46.23958194962253
 21
1.741539436824316
  0
LINE
  5
151
100
AcDbEntity
  8
placement
  6
ByLayer
 62
  256
370
   -1
100
AcDbLine
 10
-25.88026744962253
 20
13.67880513682431
 11
-27.34366594962252
 21
-0.2445013631756884
  0
LINE
  5
152
100
AcDbEntity
  8
placement
  6
ByLayer
 62
  256
370
   -1
100
AcDbLine
 10
30.60424647420246
 20
13.67880513682431
 11
32.06764497420247
 21
-0.2445013631756913
  0
LINE
  5
153
100
AcDbEntity
  8
placement
  6
ByLayer
 62
  256
370
   -1
100
AcDbLine
 10
49.50016247420246
 20
15.66484593682431
 11
50.96356097420247
 21
1.741539436824314
  0
LINE
  5
154
100
AcDbEntity
  8
placement
  6
ByLayer
 62
  256
370
   -1
100
AcDbLine
 10
68.39607847420245
 20
17.65088673682431
 11
69.85947697420247
 21
3.727580236824311
  0
LINE
  5
155
100
AcDbEntity
  8
placement
  6
ByLayer
 62
  256
370
   -1
100
AcDbLine
 10
87.29199457420245
 20
19.63692753682431
 11
88.75539307420246
 21
5.713621036824309
  0
LINE
  5
156
100
AcDbEntity
  8
placement
  6
ByLayer
 62
  256
370
   -1
100
AcDbLine
 10
11.70833047420246
 20
11.69276433682432
 11
13.17172897420246
 21
-2.230542163175685
  0
LINE
  5
157
100
AcDbEntity
  8
placement
  6
ByLayer
 62
  256
370
   -1
100
AcDbLine
 10
-82.19206684962252
 20
0.4927564368243134
 11
-83.65546534962252
 21
-13.43055006317568
  0
LINE
  5
158
100
AcDbEntity
  8
placement
  6
ByLayer
 62
  256
370
   -1
100
AcDbLine
 10
-75.10609822579755
 20
-0.2520088404975013
 11
-76.56949672579753
 21
-14.1753153404975
  0
LINE
  5
159
100
AcDbEntity
  8
placement
  6
ByLayer
 62
  256
370
   -1
100
AcDbLine
 10
-56.21018224962253
 20
-2.238049663175689
 11
-57.67358074962253
 21
-16.16135616317569
  0
LINE
  5
15A
100
AcDbEntity
  8
placement
  6
ByLayer
 62
  256
370
   -1
100
AcDbLine
 10
-37.31426622579753
 20
-4.224090440497495
 11
-38.77766472579754
 21
-18.1473969404975
  0
LINE
  5
15B
100
AcDbEntity
  8
placement
  6
ByLayer
 62
  256
370
   -1
100
AcDbLine
 10
-18.41835024962252
 20
-6.210131263175684
 11
-19.88174874962252
 21
-20.13343776317569
  0
LINE
  5
15C
100
AcDbEntity
  8
placement
  6
ByLayer
 62
  256
370
   -1
100
AcDbLine
 10
23.14232925037748
 20
-6.210131240497502
 11
24.60572775037746
 21
-20.1334377404975
  0
LINE
  5
15D
100
AcDbEntity
  8
placement
  6
ByLayer
 62
  256
370
   -1
100
AcDbLine
 10
42.03824525037748
 20
-4.224090440497504
 11
43.50164375037746
 21
-18.1473969404975
  0
LINE
  5
15E
100
AcDbEntity
  8
placement
  6
ByLayer
 62
  256
370
   -1
100
AcDbLine
 10
60.93416127420247
 20
-2.238049663175683
 11
62.39755977420246
 21
-16.16135616317568
  0
LINE
  5
15F
100
AcDbEntity
  8
placement
  6
ByLayer
 62
  256
370
   -1
100
AcDbLine
 10
79.83007725037749
 20
-0.2520088404975007
 11
81.29347575037747
 21
-14.1753153404975
  0
LINE
  5
160
100
AcDbEntity
  8
placement
  6
ByLayer
 62
  256
370
   -1
100
AcDbLine
 10
84.55405637420245
 20
0.244501336824309
 11
86.01745487420246
 21
-13.67880516317569
  0
LINE
  5
161
100
AcDbEntity
  8
placement
  6
ByLayer
 62
  256
370
   -1
100
AcDbLine
 10
-88.90208662579755
 20
-17.90664934049749
 11
-90.36548512579755
 21
-31.82995584049749
  0
LINE
  5
162
100
AcDbEntity
  8
placement
  6
ByLayer
 62
  256
370
   -1
100
AcDbLine
 10
-65.28219152579754
 20
-20.38920034049749
 11
-66.74559002579755
 21
-34.31250684049749
  0
LINE
  5
163
100
AcDbEntity
  8
placement
  6
ByLayer
 62
  256
370
   -1
100
AcDbLine
 10
-46.38627554962253
 20
-22.37524116317568
 11
-47.84967404962253
 21
-36.2985476631757
  0
LINE
  5
164
100
AcDbEntity
  8
placement
  6
ByLayer
 62
  256
370
   -1
100
AcDbLine
 10
46.38627557420245
 20
-22.87175136317569
 11
47.84967407420246
 21
-36.79505786317569
  0
LINE
  5
165
100
AcDbEntity
  8
placement
  6
ByLayer
 62
  256
370
   -1
100
AcDbLine
 10
65.28219155037749
 20
-20.8857105404975
 11
66.74559005037747
 21
-34.8090170404975
  0
LINE
  5
166
100
AcDbEntity
  8
placement
  6
ByLayer
 62
  256
370
   -1
100
AcDbLine
 10
88.90208665037747
 20
-18.4031595404975
 11
90.36548515037748
 21
-32.32646604049749
  0
CIRCLE
  5
167
100
AcDbEntity
  8
percage
  6
ByLayer
 62
  256
370
   -1
100
AcDbCircle
 10
-105
 20
-38.5
 40
1.5
  0
CIRCLE
  5
168
100
AcDbEntity
  8
percage
  6
ByLayer
 62
  256
370
   -1
100
AcDbCircle
 10
105
 20
-38.5
 40
1.5
  0
CIRCLE
  5
169
100
AcDbEntity
  8
percage
  6
ByLayer
 62
  256
370
   -1
100
AcDbCircle
 10
-28.04761906384721
 20
38.5
 40
1.5
  0
CIRCLE
  5
16A
100
AcDbEntity
  8
percage
  6
ByLayer
 62
  256
370
   -1
100
AcDbCircle
 10
23.21926943740186
 20
38.5
 40
1.5
  0
CIRCLE
  5
16B
100
AcDbEntity
  8
percage
  6
ByLayer
 62
  256
370
   -1
100
AcDbCircle
 10
-105.9265893840765
 20
24.60578335053022
 40
1.5
  0
CIRCLE
  5
16C
100
AcDbEntity
  8
percage
  6
ByLayer
 62
  256
370
   -1
100
AcDbCircle
 10
105.926589383422
 20
24.10927315102577
 40
1.5
  0
CIRCLE
  5
16D
100
AcDbEntity
  8
percage
  6
ByLayer
 62
  256
370
   -1
100
AcDbCircle
 10
0
 20
-30
 40
1.5
  0
LINE
  5
16E
100
AcDbEntity
  8
placement
  6
ByLayer
 62
  256
370
   -1
100
AcDbLine
 10
-9.000000000000011
 20
17.29276596973121
 11
8.999999999999989
 21
-6.207234030268797
  0
ARC
  5
16F
100
AcDbEntity
  8
int
  6
ByLayer
 62
  256
370
   -1
100
AcDbCircle
 10
-105
 20
38.5
 40
3.5
100
AcDbArc
 50
90
 51
180
  0
ARC
  5
170
100
AcDbEntity
  8
int
  6
ByLayer
 62
  256
370
   -1
100
AcDbCircle
 10
105
 20
38.5
 40
3.5
100
AcDbArc
 50
0
 51
90
  0
ARC
  5
171
100
AcDbEntity
  8
int
  6
ByLayer
 62
  256
370
   -1
100
AcDbCircle
 10
-18.66678754420034
 20
37.00000000000006
 40
5
100
AcDbArc
 50
89.99999999999996
 51
170.9152797126093
  0
LINE
  5
172
100
AcDbEntity
  8
int
  6
ByLayer
 62
  256
370
   -1
100
AcDbLine
 10
-105
 20
42
 11
-37.4284505834941
 21
42
  0
ARC
  5
173
100
AcDbEntity
  8
int
  6
ByLayer
 62
  256
370
   -1
100
AcDbCircle
 10
-28.04761906384721
 20
38.5
 40
4.5
100
AcDbArc
 50
189.084720287391
 51
350.9152797126092
  0
ARC
  5
174
100
AcDbEntity
  8
int
  6
ByLayer
 62
  256
370
   -1
100
AcDbCircle
 10
-37.42845058349408
 20
37.00000000000001
 40
5
100
AcDbArc
 50
9.084720287390985
 51
90.00000000000017
  0
LINE
  5
175
100
AcDbEntity
  8
int
  6
ByLayer
 62
  256
370
   -1
100
AcDbLine
 10
32.60010095704878
 20
42.00000000000004
 11
105
 21
42
  0
ARC
  5
176
100
AcDbEntity
  8
int
  6
ByLayer
 62
  256
370
   -1
100
AcDbCircle
 10
32.60010095704878
 20
37.00000000000004
 40
5
100
AcDbArc
 50
90
 51
170.9152797126093
  0
ARC
  5
177
100
AcDbEntity
  8
int
  6
ByLayer
 62
  256
370
   -1
100
AcDbCircle
 10
23.21926943740186
 20
38.5
 40
4.5
100
AcDbArc
 50
189.0847202873908
 51
350.9152797126091
  0
LINE
  5
178
100
AcDbEntity
  8
int
  6
ByLayer
 62
  256
370
   -1
100
AcDbLine
 10
-18.66678754420034
 20
42.00000000000006
 11
13.838437917755
 21
42.00000000000005
  0
ARC
  5
179
100
AcDbEntity
  8
int
  6
ByLayer
 62
  256
370
   -1
100
AcDbCircle
 10
13.838437917755
 20
37.00000000000005
 40
5
100
AcDbArc
 50
9.08472028739078
 51
90
  0
LINE
  5
17A
100
AcDbEntity
  8
int
  6
ByLayer
 62
  256
370
   -1
100
AcDbLine
 10
108.5
 20
38.5
 11
108.5
 21
33.29413373593744
  0
ARC
  5
17B
100
AcDbEntity
  8
int
  6
ByLayer
 62
  256
370
   -1
100
AcDbCircle
 10
103.5
 20
33.29413373593744
 40
5
100
AcDbArc
 50
284.7990935010626
 51
0
  0
ARC
  5
17C
100
AcDbEntity
  8
int
  6
ByLayer
 62
  256
370
   -1
100
AcDbCircle
 10
105.926589383422
 20
24.10927315102577
 40
4.5
100
AcDbArc
 50
104.7990935010627
 51
255.2009064989384
  0
ARC
  5
17D
100
AcDbEntity
  8
int
  6
ByLayer
 62
  256
370
   -1
100
AcDbCircle
 10
103.5000000000001
 20
14.92441256611404
 40
5
100
AcDbArc
 50
359.9999999999998
 51
75.20090649893832
  0
ARC
  5
17E
100
AcDbEntity
  8
int
  6
ByLayer
 62
  256
370
   -1
100
AcDbCircle
 10
95.61916848035312
 20
-37
 40
5
100
AcDbArc
 50
270
 51
350.9152797126089
  0
ARC
  5
17F
100
AcDbEntity
  8
int
  6
ByLayer
 62
  256
370
   -1
100
AcDbCircle
 10
105
 20
-38.5
 40
4.5
100
AcDbArc
 50
99.08472028739043
 51
170.9152797126089
  0
LINE
  5
180
100
AcDbEntity
  8
int
  6
ByLayer
 62
  256
370
   -1
100
AcDbLine
 10
108.5000000000002
 20
14.92441256611402
 11
108.5000000000001
 21
-29.1191684803531
  0
ARC
  5
181
100
AcDbEntity
  8
int
  6
ByLayer
 62
  256
370
   -1
100
AcDbCircle
 10
103.5000000000001
 20
-29.1191684803531
 40
5
100
AcDbArc
 50
279.0847202873903
 51
0
  0
ARC
  5
182
100
AcDbEntity
  8
int
  6
ByLayer
 62
  256
370
   -1
100
AcDbCircle
 10
-95.61916848035358
 20
-37.00000000000002
 40
5
100
AcDbArc
 50
189.0847202873914
 51
270
  0
ARC
  5
183
100
AcDbEntity
  8
int
  6
ByLayer
 62
  256
370
   -1
100
AcDbCircle
 10
-105
 20
-38.5
 40
4.5
100
AcDbArc
 50
9.08472028739134
 51
80.91527971260903
  0
ARC
  5
184
100
AcDbEntity
  8
int
  6
ByLayer
 62
  256
370
   -1
100
AcDbCircle
 10
-103.5
 20
-29.11916848035303
 40
5
100
AcDbArc
 50
180.0000000000001
 51
260.915279712609
  0
LINE
  5
185
100
AcDbEntity
  8
int
  6
ByLayer
 62
  256
370
   -1
100
AcDbLine
 10
-108.5
 20
38.5
 11
-108.5
 21
33.79064393526888
  0
ARC
  5
186
100
AcDbEntity
  8
int
  6
ByLayer
 62
  256
370
   -1
100
AcDbCircle
 10
-103.5
 20
33.79064393526887
 40
5
100
AcDbArc
 50
179.9999999999999
 51
255.2009064948546
  0
ARC
  5
187
100
AcDbEntity
  8
int
  6
ByLayer
 62
  256
370
   -1
100
AcDbCircle
 10
-105.9265893840765
 20
24.60578335053022
 40
4.5
100
AcDbArc
 50
284.7990935051454
 51
75.20090649485464
  0
LINE
  5
188
100
AcDbEntity
  8
int
  6
ByLayer
 62
  256
370
   -1
100
AcDbLine
 10
-108.5
 20
15.42092276579153
 11
-108.5
 21
-29.11916848035304
  0
ARC
  5
189
100
AcDbEntity
  8
int
  6
ByLayer
 62
  256
370
   -1
100
AcDbCircle
 10
-103.5
 20
15.42092276579153
 40
5
100
AcDbArc
 50
104.7990935051454
 51
180
  0
LINE
  5
18A
100
AcDbEntity
  8
int
  6
ByLayer
 62
  256
370
   -1
100
AcDbLine
 10
10.28805831301656
 20
-42.00000000000001
 11
95.61916848035312
 21
-42.00000000000001
  0
ARC
  5
18B
100
AcDbEntity
  8
int
  6
ByLayer
 62
  256
370
   -1
100
AcDbCircle
 10
10.28805831301656
 20
-37.00000000000001
 40
5
100
AcDbArc
 50
186.0000000730502
 51
270
  0
LINE
  5
18C
100
AcDbEntity
  8
int
  6
ByLayer
 62
  256
370
   -1
100
AcDbLine
 10
-95.61916848035358
 20
-42
 11
-10.28805831301656
 21
-42.00000000000001
  0
ARC
  5
18D
100
AcDbEntity
  8
int
  6
ByLayer
 62
  256
370
   -1
100
AcDbCircle
 10
-10.28805831301657
 20
-37.00000000000001
 40
5
100
AcDbArc
 50
270.0000000000001
 51
353.9999999269497
  0
ARC
  5
18E
100
AcDbEntity
  8
int
  6
ByLayer
 62
  256
370
   -1
100
AcDbCircle
 10
-3.45334588133027e-16
 20
-30
 40
4.500000000000001
100
AcDbArc
 50
6.000000073050302
 51
173.9999960972114
  0
LINE
  5
18F
100
AcDbEntity
  8
int
  6
ByLayer
 62
  256
370
   -1
100
AcDbLine
 10
-4.475348497116706
 20
-29.52962161045043
 11
-5.315448836841556
 21
-37.52264232267819
  0
LINE
  5
190
100
AcDbEntity
  8
int
  6
ByLayer
 62
  256
370
   -1
100
AcDbLine
 10
4.475348528557514
 20
-29.52962190958963
 11
5.315448836841548
 21
-37.52264232267819
  0
LINE
  5
191
100
AcDbEntity
  8
ext1
  6
ByLayer
 62
  256
370
   -1
100
AcDbLine
 10
-105
 20
44
 11
105
 21
44
  0
ARC
  5
192
100
AcDbEntity
  8
ext1
  6
ByLayer
 62
  256
370
   -1
100
AcDbCircle
 10
105
 20
38.5
 40
5.5
100
AcDbArc
 50
0
 51
90
  0
LINE
  5
193
100
AcDbEntity
  8
ext1
  6
ByLayer
 62
  256
370
   -1
100
AcDbLine
 10
110.5
 20
38.5
 11
110.5
 21
-38.5
  0
ARC
  5
194
100
AcDbEntity
  8
ext1
  6
ByLayer
 62
  256
370
   -1
100
AcDbCircle
 10
105
 20
-38.5
 40
5.5
100
AcDbArc
 50
270
 51
0
  0
LINE
  5
195
100
AcDbEntity
  8
ext1
  6
ByLayer
 62
  256
370
   -1
100
AcDbLine
 10
-105
 20
-44
 11
105
 21
-44
  0
ARC
  5
196
100
AcDbEntity
  8
ext1
  6
ByLayer
 62
  256
370
   -1
100
AcDbCircle
 10
-105
 20
-38.5
 40
5.5
100
AcDbArc
 50
180
 51
270
  0
LINE
  5
197
100
AcDbEntity
  8
ext1
  6
ByLayer
 62
  256
370
   -1
100
AcDbLine
 10
-110.5
 20
38.5
 11
-110.5
 21
-38.5
  0
ARC
  5
198
100
AcDbEntity
  8
ext1
  6
ByLayer
 62
  256
370
   -1
100
AcDbCircle
 10
-105
 20
38.5
 40
5.5
100
AcDbArc
 50
90
 51
180
  0
LINE
  5
199
100
AcDbEntity
  8
ext2
  6
ByLayer
 62
  256
370
   -1
100
AcDbLine
 10
-105
 20
46
 11
105
 21
46
  0
ARC
  5
19A
100
AcDbEntity
  8
ext2
  6
ByLayer
 62
  256
370
   -1
100
AcDbCircle
 10
-105
 20
38.5
 40
7.5
100
AcDbArc
 50
90
 51
180
  0
LINE
  5
19B
100
AcDbEntity
  8
ext2
  6
ByLayer
 62
  256
370
   -1
100
AcDbLine
 10
-112.5
 20
38.5
 11
-112.5
 21
-38.5
  0
ARC
  5
19C
100
AcDbEntity
  8
ext2
  6
ByLayer
 62
  256
370
   -1
100
AcDbCircle
 10
-105
 20
-38.5
 40
7.5
100
AcDbArc
 50
180
 51
270
  0
LINE
  5
19D
100
AcDbEntity
  8
ext2
  6
ByLayer
 62
  256
370
   -1
100
AcDbLine
 10
-105
 20
-46
 11
105
 21
-46
  0
ARC
  5
19E
100
AcDbEntity
  8
ext2
  6
ByLayer
 62
  256
370
   -1
100
AcDbCircle
 10
105
 20
-38.5
 40
7.5
100
AcDbArc
 50
270
 51
0
  0
LINE
  5
19F
100
AcDbEntity
  8
ext2
  6
ByLayer
 62
  256
370
   -1
100
AcDbLine
 10
112.5
 20
38.5
 11
112.5
 21
-38.5
  0
ARC
  5
1A0
100
AcDbEntity
  8
ext2
  6
ByLayer
 62
  256
370
   -1
100
AcDbCircle
 10
105
 20
38.5
 40
7.5
100
AcDbArc
 50
0
 51
90
  0
LINE
  5
1A1
100
AcDbEntity
  8
ext3
  6
ByLayer
 62
  256
370
   -1
100
AcDbLine
 10
-105
 20
47
 11
105
 21
47
  0
ARC
  5
1A2
100
AcDbEntity
  8
ext3
  6
ByLayer
 62
  256
370
   -1
100
AcDbCircle
 10
105
 20
38.5
 40
8.5
100
AcDbArc
 50
0
 51
90
  0
LINE
  5
1A3
100
AcDbEntity
  8
ext3
  6
ByLayer
 62
  256
370
   -1
100
AcDbLine
 10
113.5
 20
38.5
 11
113.5
 21
-38.5
  0
ARC
  5
1A4
100
AcDbEntity
  8
ext3
  6
ByLayer
 62
  256
370
   -1
100
AcDbCircle
 10
105
 20
-38.5
 40
8.5
100
AcDbArc
 50
270
 51
0
  0
LINE
  5
1A5
100
AcDbEntity
  8
ext3
  6
ByLayer
 62
  256
370
   -1
100
AcDbLine
 10
-105
 20
-47
 11
105
 21
-47
  0
ARC
  5
1A6
100
AcDbEntity
  8
ext3
  6
ByLayer
 62
  256
370
   -1
100
AcDbCircle
 10
-105
 20
-38.5
 40
8.5
100
AcDbArc
 50
180
 51
270
  0
LINE
  5
1A7
100
AcDbEntity
  8
ext3
  6
ByLayer
 62
  256
370
   -1
100
AcDbLine
 10
-113.5
 20
38.5
 11
-113.5
 21
-38.5
  0
ARC
  5
1A8
100
AcDbEntity
  8
ext3
  6
ByLayer
 62
  256
370
   -1
100
AcDbCircle
 10
-105
 20
38.5
 40
8.5
100
AcDbArc
 50
90
 51
180
  0
LINE
  5
1A9
100
AcDbEntity
  8
rpi-cut
  6
ByLayer
 62
  256
370
   -1
100
AcDbLine
 10
9.000000000000002
 20
57.29276596973121
 11
-8.999999999999998
 21
57.29276596973121
  0
LINE
  5
1AA
100
AcDbEntity
  8
rpi-cut
  6
ByLayer
 62
  256
370
   -1
100
AcDbLine
 10
8.999999999999991
 20
17.29276596973121
 11
-9.000000000000009
 21
17.29276596973121
  0
LINE
  5
1AB
100
AcDbEntity
  8
rpi-cut
  6
ByLayer
 62
  256
370
   -1
100
AcDbLine
 10
9.000000000000002
 20
57.29276596973121
 11
8.999999999999991
 21
17.29276596973121
  0
LINE
  5
1AC
100
AcDbEntity
  8
rpi-cut
  6
ByLayer
 62
  256
370
   -1
100
AcDbLine
 10
-9.000000000000009
 20
17.29276596973121
 11
-8.999999999999998
 21
57.29276596973121
  0
ARC
  5
1AD
100
AcDbEntity
  8
ajour
  6
ByLayer
 62
  256
370
   -1
100
AcDbCircle
 10
-68.50000000000001
 20
22.00000000000007
 40
5
100
AcDbArc
 50
5.088887490341627e-14
 51
90
  0
LINE
  5
1AE
100
AcDbEntity
  8
ajour
  6
ByLayer
 62
  256
370
   -1
100
AcDbLine
 10
-70.21572875253811
 20
27.00000000000007
 11
-68.50000000000001
 21
27.00000000000007
  0
ARC
  5
1AF
100
AcDbEntity
  8
ajour
  6
ByLayer
 62
  256
370
   -1
100
AcDbCircle
 10
-70.21572875253811
 20
22.00000000000007
 40
5
100
AcDbArc
 50
90
 51
135
  0
LINE
  5
1B0
100
AcDbEntity
  8
ajour
  6
ByLayer
 62
  256
370
   -1
100
AcDbLine
 10
-73.75126265847085
 20
25.53553390593281
 11
-92.03553390593275
 21
7.251262658470903
  0
ARC
  5
1B1
100
AcDbEntity
  8
ajour
  6
ByLayer
 62
  256
370
   -1
100
AcDbCircle
 10
-88.50000000000001
 20
3.715728752538164
 40
5
100
AcDbArc
 50
135
 51
180
  0
LINE
  5
1B2
100
AcDbEntity
  8
ajour
  6
ByLayer
 62
  256
370
   -1
100
AcDbLine
 10
-93.50000000000001
 20
3.715728752538164
 11
-93.50000000000001
 21
-3.715728752538092
  0
ARC
  5
1B3
100
AcDbEntity
  8
ajour
  6
ByLayer
 62
  256
370
   -1
100
AcDbCircle
 10
-88.50000000000001
 20
-3.715728752538092
 40
5
100
AcDbArc
 50
180
 51
225.0000000000001
  0
LINE
  5
1B4
100
AcDbEntity
  8
ajour
  6
ByLayer
 62
  256
370
   -1
100
AcDbLine
 10
-73.75126265847084
 20
-25.53553390593274
 11
-92.03553390593275
 21
-7.251262658470836
  0
ARC
  5
1B5
100
AcDbEntity
  8
ajour
  6
ByLayer
 62
  256
370
   -1
100
AcDbCircle
 10
-70.2157287525381
 20
-22
 40
5
100
AcDbArc
 50
225.0000000000001
 51
270
  0
LINE
  5
1B6
100
AcDbEntity
  8
ajour
  6
ByLayer
 62
  256
370
   -1
100
AcDbLine
 10
-70.2157287525381
 20
-27
 11
-68.5
 21
-27
  0
LINE
  5
1B7
100
AcDbEntity
  8
ajour
  6
ByLayer
 62
  256
370
   -1
100
AcDbLine
 10
-63.50000000000001
 20
22.00000000000007
 11
-63.50000000000001
 21
-22
  0
ARC
  5
1B8
100
AcDbEntity
  8
ajour
  6
ByLayer
 62
  256
370
   -1
100
AcDbCircle
 10
-68.5
 20
-22
 40
5
100
AcDbArc
 50
270
 51
5.088887490341627e-14
  0
ARC
  5
1B9
100
AcDbEntity
  8
ajour
  6
ByLayer
 62
  256
370
   -1
100
AcDbCircle
 10
-28.50000000000001
 20
22.00000000000006
 40
5
100
AcDbArc
 50
90
 51
180.0000000000001
  0
LINE
  5
1BA
100
AcDbEntity
  8
ajour
  6
ByLayer
 62
  256
370
   -1
100
AcDbLine
 10
-33.50000000000001
 20
22.00000000000006
 11
-33.50000000000001
 21
-22
  0
ARC
  5
1BB
100
AcDbEntity
  8
ajour
  6
ByLayer
 62
  256
370
   -1
100
AcDbCircle
 10
-28.50000000000001
 20
-22
 40
5
100
AcDbArc
 50
180
 51
270
  0
ARC
  5
1BC
100
AcDbEntity
  8
ajour
  6
ByLayer
 62
  256
370
   -1
100
AcDbCircle
 10
28.50000000000014
 20
-22.00000000000001
 40
5
100
AcDbArc
 50
270.0000000000001
 51
359.9999999999999
  0
LINE
  5
1BD
100
AcDbEntity
  8
ajour
  6
ByLayer
 62
  256
370
   -1
100
AcDbLine
 10
33.50000000000014
 20
22.00000000000006
 11
33.50000000000014
 21
-22.00000000000001
  0
ARC
  5
1BE
100
AcDbEntity
  8
ajour
  6
ByLayer
 62
  256
370
   -1
100
AcDbCircle
 10
28.50000000000014
 20
22.00000000000006
 40
5
100
AcDbArc
 50
0
 51
90
  0
ARC
  5
1BF
100
AcDbEntity
  8
ajour
  6
ByLayer
 62
  256
370
   -1
100
AcDbCircle
 10
68.50000000000014
 20
22.00000000000006
 40
5
100
AcDbArc
 50
90
 51
179.9999999999999
  0
LINE
  5
1C0
100
AcDbEntity
  8
ajour
  6
ByLayer
 62
  256
370
   -1
100
AcDbLine
 10
68.50000000000014
 20
27.00000000000006
 11
70.21572875253825
 21
27.00000000000006
  0
ARC
  5
1C1
100
AcDbEntity
  8
ajour
  6
ByLayer
 62
  256
370
   -1
100
AcDbCircle
 10
70.21572875253825
 20
22.00000000000006
 40
5
100
AcDbArc
 50
44.99999999999995
 51
90
  0
LINE
  5
1C2
100
AcDbEntity
  8
ajour
  6
ByLayer
 62
  256
370
   -1
100
AcDbLine
 10
92.03553390593288
 20
7.251262658470922
 11
73.75126265847101
 21
25.5355339059328
  0
ARC
  5
1C3
100
AcDbEntity
  8
ajour
  6
ByLayer
 62
  256
370
   -1
100
AcDbCircle
 10
88.50000000000014
 20
3.715728752538185
 40
5
100
AcDbArc
 50
0
 51
45
  0
LINE
  5
1C4
100
AcDbEntity
  8
ajour
  6
ByLayer
 62
  256
370
   -1
100
AcDbLine
 10
93.50000000000014
 20
3.715728752538185
 11
93.50000000000014
 21
-3.715728752538092
  0
ARC
  5
1C5
100
AcDbEntity
  8
ajour
  6
ByLayer
 62
  256
370
   -1
100
AcDbCircle
 10
88.50000000000013
 20
-3.715728752538092
 40
5
100
AcDbArc
 50
314.9999999999999
 51
0
  0
LINE
  5
1C6
100
AcDbEntity
  8
ajour
  6
ByLayer
 62
  256
370
   -1
100
AcDbLine
 10
63.50000000000015
 20
22.00000000000007
 11
63.50000000000014
 21
-22.00000000000001
  0
ARC
  5
1C7
100
AcDbEntity
  8
ajour
  6
ByLayer
 62
  256
370
   -1
100
AcDbCircle
 10
68.50000000000014
 20
-22.00000000000001
 40
5
100
AcDbArc
 50
180
 51
270
  0
LINE
  5
1C8
100
AcDbEntity
  8
ajour
  6
ByLayer
 62
  256
370
   -1
100
AcDbLine
 10
92.03553390593287
 20
-7.251262658470835
 11
73.75126265847095
 21
-25.53553390593275
  0
LINE
  5
1C9
100
AcDbEntity
  8
ajour
  6
ByLayer
 62
  256
370
   -1
100
AcDbLine
 10
68.50000000000014
 20
-27.00000000000001
 11
70.21572875253821
 21
-27.00000000000001
  0
ARC
  5
1CA
100
AcDbEntity
  8
ajour
  6
ByLayer
 62
  256
370
   -1
100
AcDbCircle
 10
70.21572875253821
 20
-22.00000000000001
 40
5
100
AcDbArc
 50
270
 51
315
  0
ARC
  5
1CB
100
AcDbEntity
  8
ajour
  6
ByLayer
 62
  256
370
   -1
100
AcDbCircle
 10
12
 20
35.00000000000005
 40
2
100
AcDbArc
 50
0
 51
89.9999999999999
  0
LINE
  5
1CC
100
AcDbEntity
  8
ajour
  6
ByLayer
 62
  256
370
   -1
100
AcDbLine
 10
14
 20
35.00000000000005
 11
13.99999999999999
 21
29.00000000000006
  0
LINE
  5
1CD
100
AcDbEntity
  8
ajour
  6
ByLayer
 62
  256
370
   -1
100
AcDbLine
 10
15.99999999999999
 20
27.00000000000006
 11
28.50000000000014
 21
27.00000000000006
  0
ARC
  5
1CE
100
AcDbEntity
  8
ajour
  6
ByLayer
 62
  256
370
   -1
100
AcDbCircle
 10
16
 20
29.00000000000006
 40
2
100
AcDbArc
 50
180
 51
269.9999999999999
  0
LINE
  5
1CF
100
AcDbEntity
  8
ajour
  6
ByLayer
 62
  256
370
   -1
100
AcDbLine
 10
-17
 20
37.00000000000006
 11
12
 21
37.00000000000005
  0
ARC
  5
1D0
100
AcDbEntity
  8
ajour
  6
ByLayer
 62
  256
370
   -1
100
AcDbCircle
 10
-17
 20
35.00000000000006
 40
2
100
AcDbArc
 50
90
 51
180
  0
LINE
  5
1D1
100
AcDbEntity
  8
ajour
  6
ByLayer
 62
  256
370
   -1
100
AcDbLine
 10
-28.50000000000001
 20
27.00000000000006
 11
-21
 21
27.00000000000006
  0
LINE
  5
1D2
100
AcDbEntity
  8
ajour
  6
ByLayer
 62
  256
370
   -1
100
AcDbLine
 10
-19
 20
29.00000000000007
 11
-19
 21
35.00000000000006
  0
ARC
  5
1D3
100
AcDbEntity
  8
ajour
  6
ByLayer
 62
  256
370
   -1
100
AcDbCircle
 10
-21
 20
29.00000000000007
 40
2
100
AcDbArc
 50
270
 51
0
  0
LINE
  5
1D4
100
AcDbEntity
  8
ajour
  6
ByLayer
 62
  256
370
   -1
100
AcDbLine
 10
10.35615758860397
 20
-27.00000000000001
 11
28.50000000000014
 21
-27.00000000000001
  0
ARC
  5
1D5
100
AcDbEntity
  8
ajour
  6
ByLayer
 62
  256
370
   -1
100
AcDbCircle
 10
10.35615758860397
 20
-25
 40
2
100
AcDbArc
 50
205.7714617405507
 51
270
  0
LINE
  5
1D6
100
AcDbEntity
  8
ajour
  6
ByLayer
 62
  256
370
   -1
100
AcDbLine
 10
-28.50000000000001
 20
-27
 11
-10.35615758860398
 21
-27
  0
ARC
  5
1D7
100
AcDbEntity
  8
ajour
  6
ByLayer
 62
  256
370
   -1
100
AcDbCircle
 10
-3.45334588133027e-16
 20
-30
 40
9.5
100
AcDbArc
 50
25.77146174055068
 51
154.2285382594494
  0
ARC
  5
1D8
100
AcDbEntity
  8
ajour
  6
ByLayer
 62
  256
370
   -1
100
AcDbCircle
 10
-10.35615758860398
 20
-25.00000000000001
 40
2
100
AcDbArc
 50
270
 51
334.2285382594494
  0
ENDSEC
  0
SECTION
  2
OBJECTS
  0
DICTIONARY
  5
C
330
0
100
AcDbDictionary
281
    1
  3
ACAD_GROUP
350
D
  0
DICTIONARY
  5
D
330
C
100
AcDbDictionary
281
    1
  0
PLOTSETTINGS
  5
1D9
100
AcDbPlotSettings
  6
1x1
 40
0
 41
0
 42
0
 43
0
  0
ENDSEC
  0
EOF
