999
dxfrw 0.6.3
  0
SECTION
  2
HEADER
  9
$ACADVER
  1
AC1021
  9
$DWGCODEPAGE
  3
ANSI_1252
  9
$INSBASE
 10
0
 20
0
 30
0
  9
$EXTMIN
 10
-74
 20
-60.07433776963096
 30
0
  9
$EXTMAX
 10
75.5252805411413
 20
55
 30
0
  9
$LIMMIN
 10
0
 20
0
  9
$LIMMAX
 10
420
 20
297
  9
$ORTHOMODE
 70
    0
  9
$REGENMODE
 70
    1
  9
$FILLMODE
 70
    1
  9
$QTEXTMODE
 70
    0
  9
$MIRRTEXT
 70
    0
  9
$LTSCALE
 40
1
  9
$ATTMODE
 70
    0
  9
$TEXTSIZE
 40
2.5
  9
$TRACEWID
 40
15.68
  9
$TEXTSTYLE
  7
STANDARD
  9
$CLAYER
  8
placement
  9
$CELTYPE
  6
BYLAYER
  9
$CECOLOR
 62
  256
  9
$CELTSCALE
 40
1
  9
$DISPSILH
 70
    0
  9
$DIMSCALE
 40
2.5
  9
$DIMASZ
 40
2.5
  9
$DIMEXO
 40
0.625
  9
$DIMDLI
 40
3.75
  9
$DIMRND
 40
0
  9
$DIMDLE
 40
0
  9
$DIMEXE
 40
1.25
  9
$DIMTP
 40
0
  9
$DIMTM
 40
0
  9
$DIMTXT
 40
2.5
  9
$DIMCEN
 40
2.5
  9
$DIMTSZ
 40
0
  9
$DIMTOL
 70
    0
  9
$DIMLIM
 70
    0
  9
$DIMTIH
 70
    0
  9
$DIMTOH
 70
    0
  9
$DIMSE1
 70
    0
  9
$DIMSE2
 70
    0
  9
$DIMTAD
 70
    1
  9
$DIMZIN
 70
    8
  9
$DIMBLK
  1

  9
$DIMASO
 70
    1
  9
$DIMSHO
 70
    1
  9
$DIMPOST
  1

  9
$DIMAPOST
  1

  9
$DIMALT
 70
    0
  9
$DIMALTD
 70
    3
  9
$DIMALTF
 40
0.03937
  9
$DIMLFAC
 40
1
  9
$DIMTOFL
 70
    1
  9
$DIMTVP
 40
0
  9
$DIMTIX
 70
    0
  9
$DIMSOXD
 70
    0
  9
$DIMSAH
 70
    0
  9
$DIMBLK1
  1

  9
$DIMBLK2
  1

  9
$DIMSTYLE
  2
Standard
  9
$DIMCLRD
 70
    0
  9
$DIMCLRE
 70
    0
  9
$DIMCLRT
 70
    0
  9
$DIMTFAC
 40
1
  9
$DIMGAP
 40
0.625
  9
$DIMJUST
 70
    0
  9
$DIMSD1
 70
    0
  9
$DIMSD2
 70
    0
  9
$DIMTOLJ
 70
    0
  9
$DIMTZIN
 70
    8
  9
$DIMALTZ
 70
    0
  9
$DIMALTTZ
 70
    0
  9
$DIMUPT
 70
    0
  9
$DIMDEC
 70
    2
  9
$DIMTDEC
 70
    2
  9
$DIMALTU
 70
    2
  9
$DIMALTTD
 70
    3
  9
$DIMTXSTY
  7
STANDARD
  9
$DIMAUNIT
 70
    0
  9
$DIMADEC
 70
    0
  9
$DIMALTRND
 40
0
  9
$DIMAZIN
 70
    0
  9
$DIMDSEP
 70
   44
  9
$DIMATFIT
 70
    3
  9
$DIMFRAC
 70
    0
  9
$DIMLDRBLK
  1
STANDARD
  9
$DIMLUNIT
 70
    2
  9
$DIMLWD
 70
   -2
  9
$DIMLWE
 70
   -2
  9
$DIMTMOVE
 70
    0
  9
$DIMFXL
 40
1
  9
$DIMFXLON
 70
    0
  9
$DIMJOGANG
 40
0.7854
  9
$DIMTFILL
 70
    0
  9
$DIMTFILLCLR
 70
    0
  9
$DIMARCSYM
 70
    0
  9
$DIMLTYPE
  6

  9
$DIMLTEX1
  6

  9
$DIMLTEX2
  6

  9
$LUNITS
 70
    2
  9
$LUPREC
 70
    4
  9
$SKETCHINC
 40
1
  9
$FILLETRAD
 40
0
  9
$AUNITS
 70
    0
  9
$AUPREC
 70
    2
  9
$MENU
  1
.
  9
$ELEVATION
 40
0
  9
$PELEVATION
 40
0
  9
$THICKNESS
 40
0
  9
$LIMCHECK
 70
    0
  9
$CHAMFERA
 40
0
  9
$CHAMFERB
 40
0
  9
$CHAMFERC
 40
0
  9
$CHAMFERD
 40
0
  9
$SKPOLY
 70
    0
  9
$USRTIMER
 70
    1
  9
$ANGBASE
 50
0
  9
$ANGDIR
 70
    0
  9
$PDMODE
 70
   34
  9
$PDSIZE
 40
0
  9
$PLINEWID
 40
0
  9
$SPLFRAME
 70
    0
  9
$SPLINETYPE
 70
    2
  9
$SPLINESEGS
 70
    8
  9
$HANDSEED
  5
20000
  9
$SURFTAB1
 70
    6
  9
$SURFTAB2
 70
    6
  9
$SURFTYPE
 70
    6
  9
$SURFU
 70
    6
  9
$SURFV
 70
    6
  9
$UCSBASE
  2

  9
$UCSNAME
  2

  9
$UCSORG
 10
0
 20
0
 30
0
  9
$UCSXDIR
 10
1
 20
0
 30
0
  9
$UCSYDIR
 10
0
 20
1
 30
0
  9
$UCSORTHOREF
  2

  9
$UCSORTHOVIEW
 70
    0
  9
$UCSORGTOP
 10
0
 20
0
 30
0
  9
$UCSORGBOTTOM
 10
0
 20
0
 30
0
  9
$UCSORGLEFT
 10
0
 20
0
 30
0
  9
$UCSORGRIGHT
 10
0
 20
0
 30
0
  9
$UCSORGFRONT
 10
0
 20
0
 30
0
  9
$UCSORGBACK
 10
0
 20
0
 30
0
  9
$PUCSBASE
  2

  9
$PUCSNAME
  2

  9
$PUCSORG
 10
0
 20
0
 30
0
  9
$PUCSXDIR
 10
1
 20
0
 30
0
  9
$PUCSYDIR
 10
0
 20
1
 30
0
  9
$PUCSORTHOREF
  2

  9
$PUCSORTHOVIEW
 70
    0
  9
$PUCSORGTOP
 10
0
 20
0
 30
0
  9
$PUCSORGBOTTOM
 10
0
 20
0
 30
0
  9
$PUCSORGLEFT
 10
0
 20
0
 30
0
  9
$PUCSORGRIGHT
 10
0
 20
0
 30
0
  9
$PUCSORGFRONT
 10
0
 20
0
 30
0
  9
$PUCSORGBACK
 10
0
 20
0
 30
0
  9
$USERI1
 70
    0
  9
$USERI2
 70
    0
  9
$USERI3
 70
    0
  9
$USERI4
 70
    0
  9
$USERI5
 70
    0
  9
$USERR1
 40
0
  9
$USERR2
 40
0
  9
$USERR3
 40
0
  9
$USERR4
 40
0
  9
$USERR5
 40
0
  9
$WORLDVIEW
 70
    1
  9
$SHADEDGE
 70
    3
  9
$SHADEDIF
 70
   70
  9
$TILEMODE
 70
    1
  9
$MAXACTVP
 70
   64
  9
$PINSBASE
 10
0
 20
0
 30
0
  9
$PLIMCHECK
 70
    0
  9
$PEXTMIN
 10
0
 20
0
 30
0
  9
$PEXTMAX
 10
0
 20
0
 30
0
  9
$GRIDMODE
 70
    1
  9
$SNAPSTYLE
 70
    0
  9
$PLIMMIN
 10
0
 20
0
  9
$PLIMMAX
 10
210
 20
297
  9
$UNITMODE
 70
    0
  9
$VISRETAIN
 70
    1
  9
$PLINEGEN
 70
    0
  9
$PSLTSCALE
 70
    1
  9
$TREEDEPTH
 70
 3020
  9
$CMLSTYLE
  2
Standard
  9
$CMLJUST
 70
    0
  9
$CMLSCALE
 40
20
  9
$PROXYGRAPHICS
 70
    1
  9
$MEASUREMENT
 70
    1
  9
$CELWEIGHT
370
   -1
  9
$ENDCAPS
280
    0
  9
$JOINSTYLE
280
    0
  9
$LWDISPLAY
290
    0
  9
$INSUNITS
 70
    4
  9
$HYPERLINKBASE
  1

  9
$STYLESHEET
  1

  9
$XEDIT
290
    1
  9
$CEPSNTYPE
380
    0
  9
$PSTYLEMODE
290
    1
  9
$EXTNAMES
290
    1
  9
$PSVPSCALE
 40
1
  9
$OLESTARTUP
290
    0
  9
$SORTENTS
280
  127
  9
$INDEXCTL
280
    0
  9
$HIDETEXT
280
    1
  9
$XCLIPFRAME
290
    0
  9
$HALOGAP
280
    0
  9
$OBSCOLOR
 70
  257
  9
$OBSLTYPE
280
    0
  9
$INTERSECTIONDISPLAY
280
    0
  9
$INTERSECTIONCOLOR
 70
  257
  9
$DIMASSOC
280
    1
  9
$PROJECTNAME
  1

  9
$CAMERADISPLAY
290
    0
  9
$LENSLENGTH
 40
50
  9
$CAMERAHEIGHT
 40
0
  9
$STEPSPERSEC
 40
2
  9
$STEPSIZE
 40
50
  9
$3DDWFPREC
 40
2
  9
$PSOLWIDTH
 40
5
  9
$PSOLHEIGHT
 40
80
  9
$LOFTANG1
 40
1.570796326794897
  9
$LOFTANG2
 40
1.570796326794897
  9
$LOFTMAG1
 40
0
  9
$LOFTMAG2
 40
0
  9
$LOFTPARAM
 70
    7
  9
$LOFTNORMALS
280
    1
  9
$LATITUDE
 40
1
  9
$LONGITUDE
 40
1
  9
$NORTHDIRECTION
 40
0
  9
$TIMEZONE
 70
-8000
  9
$LIGHTGLYPHDISPLAY
280
    1
  9
$TILEMODELIGHTSYNCH
280
    1
  9
$SOLIDHIST
280
    1
  9
$SHOWHIST
280
    1
  9
$DWFFRAME
280
    2
  9
$DGNFRAME
280
    0
  9
$REALWORLDSCALE
290
    1
  9
$INTERFERECOLOR
 62
    1
  9
$CSHADOW
280
    0
  9
$SHADOWPLANELOCATION
 40
0
  0
ENDSEC
  0
SECTION
  2
CLASSES
  0
ENDSEC
  0
SECTION
  2
TABLES
  0
TABLE
  2
VPORT
  5
8
330
0
100
AcDbSymbolTable
 70
    1
  0
VPORT
  5
31
330
2
100
AcDbSymbolTableRecord
100
AcDbViewportTableRecord
  2
*ACTIVE
 70
    0
 10
0
 20
0
 11
1
 21
1
 12
47.05499848957649
 22
28.30951128641187
 13
0
 23
0
 14
10
 24
10
 15
10
 25
10
 16
0
 26
0
 36
1
 17
0
 27
0
 37
0
 40
118.1348254762701
 41
1.580310880829016
 42
50
 43
0
 44
0
 50
0
 51
0
 71
    0
 72
  100
 73
    1
 74
    3
 75
    0
 76
    1
 77
    0
 78
    0
281
    0
 65
    1
110
0
120
0
130
0
111
1
121
0
131
0
112
0
122
1
132
0
 79
    0
146
0
348
10020
 60
    7
 61
    5
292
1
282
    1
141
0
142
0
 63
  250
421
3358443
  0
ENDTAB
  0
TABLE
  2
LTYPE
  5
5
330
0
100
AcDbSymbolTable
 70
    4
  0
LTYPE
  5
14
330
5
100
AcDbSymbolTableRecord
100
AcDbLinetypeTableRecord
  2
ByBlock
 70
    0
  3

 72
   65
 73
    0
 40
0
  0
LTYPE
  5
15
330
5
100
AcDbSymbolTableRecord
100
AcDbLinetypeTableRecord
  2
ByLayer
 70
    0
  3

 72
   65
 73
    0
 40
0
  0
LTYPE
  5
16
330
5
100
AcDbSymbolTableRecord
100
AcDbLinetypeTableRecord
  2
Continuous
 70
    0
  3
Solid line
 72
   65
 73
    0
 40
0
  0
LTYPE
  5
32
330
5
100
AcDbSymbolTableRecord
100
AcDbLinetypeTableRecord
  2
DOT
 70
    0
  3
Dot . . . . . . . . . . . . . . . . . . . . . .
 72
   65
 73
    2
 40
6.35
 49
0
 74
    0
 49
-6.35
 74
    0
  0
LTYPE
  5
33
330
5
100
AcDbSymbolTableRecord
100
AcDbLinetypeTableRecord
  2
DOTTINY
 70
    0
  3
Dot (.15x) .....................................
 72
   65
 73
    2
 40
0.9525
 49
0
 74
    0
 49
-0.9525
 74
    0
  0
LTYPE
  5
34
330
5
100
AcDbSymbolTableRecord
100
AcDbLinetypeTableRecord
  2
DOT2
 70
    0
  3
Dot (.5x) .....................................
 72
   65
 73
    2
 40
3.175
 49
0
 74
    0
 49
-3.175
 74
    0
  0
LTYPE
  5
35
330
5
100
AcDbSymbolTableRecord
100
AcDbLinetypeTableRecord
  2
DOTX2
 70
    0
  3
Dot (2x) .  .  .  .  .  .  .  .  .  .  .  .  .
 72
   65
 73
    2
 40
12.7
 49
0
 74
    0
 49
-12.7
 74
    0
  0
LTYPE
  5
36
330
5
100
AcDbSymbolTableRecord
100
AcDbLinetypeTableRecord
  2
DASHED
 70
    0
  3
Dashed _ _ _ _ _ _ _ _ _ _ _ _ _ _ _ _ _
 72
   65
 73
    2
 40
19.05
 49
12.7
 74
    0
 49
-6.35
 74
    0
  0
LTYPE
  5
37
330
5
100
AcDbSymbolTableRecord
100
AcDbLinetypeTableRecord
  2
DASHEDTINY
 70
    0
  3
Dashed (.15x) _ _ _ _ _ _ _ _ _ _ _ _ _ _ _ _ _
 72
   65
 73
    2
 40
2.8575
 49
1.905
 74
    0
 49
-0.9525
 74
    0
  0
LTYPE
  5
38
330
5
100
AcDbSymbolTableRecord
100
AcDbLinetypeTableRecord
  2
DASHED2
 70
    0
  3
Dashed (.5x) _ _ _ _ _ _ _ _ _ _ _ _ _ _ _ _ _
 72
   65
 73
    2
 40
9.524999999999999
 49
6.35
 74
    0
 49
-3.175
 74
    0
  0
LTYPE
  5
39
330
5
100
AcDbSymbolTableRecord
100
AcDbLinetypeTableRecord
  2
DASHEDX2
 70
    0
  3
Dashed (2x) ____  ____  ____  ____  ____  ___
 72
   65
 73
    2
 40
38.09999999999999
 49
25.4
 74
    0
 49
-12.7
 74
    0
  0
LTYPE
  5
3A
330
5
100
AcDbSymbolTableRecord
100
AcDbLinetypeTableRecord
  2
DASHDOT
 70
    0
  3
Dash dot __ . __ . __ . __ . __ . __ . __ . __
 72
   65
 73
    4
 40
25.4
 49
12.7
 74
    0
 49
-6.35
 74
    0
 49
0
 74
    0
 49
-6.35
 74
    0
  0
LTYPE
  5
3B
330
5
100
AcDbSymbolTableRecord
100
AcDbLinetypeTableRecord
  2
DASHDOTTINY
 70
    0
  3
Dash dot (.15x) _._._._._._._._._._._._._._._.
 72
   65
 73
    4
 40
3.81
 49
1.905
 74
    0
 49
-0.9525
 74
    0
 49
0
 74
    0
 49
-0.9525
 74
    0
  0
LTYPE
  5
3C
330
5
100
AcDbSymbolTableRecord
100
AcDbLinetypeTableRecord
  2
DASHDOT2
 70
    0
  3
Dash dot (.5x) _._._._._._._._._._._._._._._.
 72
   65
 73
    4
 40
12.7
 49
6.35
 74
    0
 49
-3.175
 74
    0
 49
0
 74
    0
 49
-3.175
 74
    0
  0
LTYPE
  5
3D
330
5
100
AcDbSymbolTableRecord
100
AcDbLinetypeTableRecord
  2
DASHDOTX2
 70
    0
  3
Dash dot (2x) ____  .  ____  .  ____  .  ___
 72
   65
 73
    4
 40
50.8
 49
25.4
 74
    0
 49
-12.7
 74
    0
 49
0
 74
    0
 49
-12.7
 74
    0
  0
LTYPE
  5
3E
330
5
100
AcDbSymbolTableRecord
100
AcDbLinetypeTableRecord
  2
DIVIDE
 70
    0
  3
Divide ____ . . ____ . . ____ . . ____ . . ____
 72
   65
 73
    6
 40
31.75
 49
12.7
 74
    0
 49
-6.35
 74
    0
 49
0
 74
    0
 49
-6.35
 74
    0
 49
0
 74
    0
 49
-6.35
 74
    0
  0
LTYPE
  5
3F
330
5
100
AcDbSymbolTableRecord
100
AcDbLinetypeTableRecord
  2
DIVIDETINY
 70
    0
  3
Divide (.15x) __..__..__..__..__..__..__..__.._
 72
   65
 73
    6
 40
4.7625
 49
1.905
 74
    0
 49
-0.9525
 74
    0
 49
0
 74
    0
 49
-0.9525
 74
    0
 49
0
 74
    0
 49
-0.9525
 74
    0
  0
LTYPE
  5
40
330
5
100
AcDbSymbolTableRecord
100
AcDbLinetypeTableRecord
  2
DIVIDE2
 70
    0
  3
Divide (.5x) __..__..__..__..__..__..__..__.._
 72
   65
 73
    6
 40
15.875
 49
6.35
 74
    0
 49
-3.175
 74
    0
 49
0
 74
    0
 49
-3.175
 74
    0
 49
0
 74
    0
 49
-3.175
 74
    0
  0
LTYPE
  5
41
330
5
100
AcDbSymbolTableRecord
100
AcDbLinetypeTableRecord
  2
DIVIDEX2
 70
    0
  3
Divide (2x) ________  .  .  ________  .  .  _
 72
   65
 73
    6
 40
63.5
 49
25.4
 74
    0
 49
-12.7
 74
    0
 49
0
 74
    0
 49
-12.7
 74
    0
 49
0
 74
    0
 49
-12.7
 74
    0
  0
LTYPE
  5
42
330
5
100
AcDbSymbolTableRecord
100
AcDbLinetypeTableRecord
  2
BORDER
 70
    0
  3
Border __ __ . __ __ . __ __ . __ __ . __ __ .
 72
   65
 73
    6
 40
44.45
 49
12.7
 74
    0
 49
-6.35
 74
    0
 49
12.7
 74
    0
 49
-6.35
 74
    0
 49
0
 74
    0
 49
-6.35
 74
    0
  0
LTYPE
  5
43
330
5
100
AcDbSymbolTableRecord
100
AcDbLinetypeTableRecord
  2
BORDERTINY
 70
    0
  3
Border (.15x) __.__.__.__.__.__.__.__.__.__.__.
 72
   65
 73
    6
 40
6.6675
 49
1.905
 74
    0
 49
-0.9525
 74
    0
 49
1.905
 74
    0
 49
-0.9525
 74
    0
 49
0
 74
    0
 49
-0.9525
 74
    0
  0
LTYPE
  5
44
330
5
100
AcDbSymbolTableRecord
100
AcDbLinetypeTableRecord
  2
BORDER2
 70
    0
  3
Border (.5x) __.__.__.__.__.__.__.__.__.__.__.
 72
   65
 73
    6
 40
22.225
 49
6.35
 74
    0
 49
-3.175
 74
    0
 49
6.35
 74
    0
 49
-3.175
 74
    0
 49
0
 74
    0
 49
-3.175
 74
    0
  0
LTYPE
  5
45
330
5
100
AcDbSymbolTableRecord
100
AcDbLinetypeTableRecord
  2
BORDERX2
 70
    0
  3
Border (2x) ____  ____  .  ____  ____  .  ___
 72
   65
 73
    6
 40
88.89999999999999
 49
25.4
 74
    0
 49
-12.7
 74
    0
 49
25.4
 74
    0
 49
-12.7
 74
    0
 49
0
 74
    0
 49
-12.7
 74
    0
  0
LTYPE
  5
46
330
5
100
AcDbSymbolTableRecord
100
AcDbLinetypeTableRecord
  2
CENTER
 70
    0
  3
Center ____ _ ____ _ ____ _ ____ _ ____ _ ____
 72
   65
 73
    4
 40
50.8
 49
31.75
 74
    0
 49
-6.35
 74
    0
 49
6.35
 74
    0
 49
-6.35
 74
    0
  0
LTYPE
  5
47
330
5
100
AcDbSymbolTableRecord
100
AcDbLinetypeTableRecord
  2
CENTERTINY
 70
    0
  3
Center (.15x) ___ _ ___ _ ___ _ ___ _ ___ _ ___
 72
   65
 73
    4
 40
7.619999999999999
 49
4.7625
 74
    0
 49
-0.9525
 74
    0
 49
0.9525
 74
    0
 49
-0.9525
 74
    0
  0
LTYPE
  5
48
330
5
100
AcDbSymbolTableRecord
100
AcDbLinetypeTableRecord
  2
CENTER2
 70
    0
  3
Center (.5x) ___ _ ___ _ ___ _ ___ _ ___ _ ___
 72
   65
 73
    4
 40
28.575
 49
19.05
 74
    0
 49
-3.175
 74
    0
 49
3.175
 74
    0
 49
-3.175
 74
    0
  0
LTYPE
  5
49
330
5
100
AcDbSymbolTableRecord
100
AcDbLinetypeTableRecord
  2
CENTERX2
 70
    0
  3
Center (2x) ________  __  ________  __  _____
 72
   65
 73
    4
 40
101.6
 49
63.5
 74
    0
 49
-12.7
 74
    0
 49
12.7
 74
    0
 49
-12.7
 74
    0
  0
ENDTAB
  0
TABLE
  2
LAYER
  5
2
330
0
100
AcDbSymbolTable
 70
    1
  0
LAYER
  5
10
330
2
100
AcDbSymbolTableRecord
100
AcDbLayerTableRecord
  2
0
 70
    0
 62
    7
  6
CONTINUOUS
370
    0
390
F
  0
LAYER
  5
4A
330
2
100
AcDbSymbolTableRecord
100
AcDbLayerTableRecord
  2
ajour
 70
    4
 62
   96
420
32768
  6
CONTINUOUS
370
    0
390
F
  0
LAYER
  5
4B
330
2
100
AcDbSymbolTableRecord
100
AcDbLayerTableRecord
  2
ext1
 70
    4
 62
  163
420
7045306
  6
CONTINUOUS
370
    0
390
F
  0
LAYER
  5
4C
330
2
100
AcDbSymbolTableRecord
100
AcDbLayerTableRecord
  2
ext2
 70
    4
 62
  165
420
5662090
  6
CONTINUOUS
370
    0
390
F
  0
LAYER
  5
4D
330
2
100
AcDbSymbolTableRecord
100
AcDbLayerTableRecord
  2
ext3
 70
    4
 62
    5
  6
CONTINUOUS
370
    0
390
F
  0
LAYER
  5
4E
330
2
100
AcDbSymbolTableRecord
100
AcDbLayerTableRecord
  2
pcb
 70
    4
 62
    2
  6
CONTINUOUS
370
    0
390
F
  0
LAYER
  5
4F
330
2
100
AcDbSymbolTableRecord
100
AcDbLayerTableRecord
  2
percage
 70
    4
 62
    6
  6
CONTINUOUS
370
    0
390
F
  0
LAYER
  5
50
330
2
100
AcDbSymbolTableRecord
100
AcDbLayerTableRecord
  2
percage1
 70
    4
 62
  216
420
8388736
  6
CONTINUOUS
370
    0
390
F
  0
LAYER
  5
51
330
2
100
AcDbSymbolTableRecord
100
AcDbLayerTableRecord
  2
placement
 70
    0
 62
    1
  6
CONTINUOUS
370
    0
390
F
  0
LAYER
  5
52
330
2
100
AcDbSymbolTableRecord
100
AcDbLayerTableRecord
  2
rpi
 70
    4
 62
    3
  6
CONTINUOUS
370
    0
390
F
  0
ENDTAB
  0
TABLE
  2
STYLE
  5
3
330
0
100
AcDbSymbolTable
 70
    3
  0
STYLE
  5
53
330
2
100
AcDbSymbolTableRecord
100
AcDbTextStyleTableRecord
  2
Standard
 70
    0
 40
0
 41
1
 50
0
 71
    0
 42
1
  3
txt
  4

  0
ENDTAB
  0
TABLE
  2
VIEW
  5
6
330
0
100
AcDbSymbolTable
 70
    0
  0
ENDTAB
  0
TABLE
  2
UCS
  5
7
330
0
100
AcDbSymbolTable
 70
    0
  0
ENDTAB
  0
TABLE
  2
APPID
  5
9
330
0
100
AcDbSymbolTable
 70
    1
  0
APPID
  5
12
330
9
100
AcDbSymbolTableRecord
100
AcDbRegAppTableRecord
  2
ACAD
 70
    0
  0
APPID
  5
54
330
9
100
AcDbSymbolTableRecord
100
AcDbRegAppTableRecord
  2
LibreCad
 70
    0
  0
ENDTAB
  0
TABLE
  2
DIMSTYLE
  5
A
330
0
100
AcDbSymbolTable
 70
    1
100
AcDbDimStyleTable
 71
    1
  0
DIMSTYLE
105
55
330
A
100
AcDbSymbolTableRecord
100
AcDbDimStyleTableRecord
  2
Standard
 70
    0
 40
2.5
 41
2.5
 42
0.625
 43
0.38
 44
1.25
 45
0
 46
0
 47
0
 48
0
 49
1
140
2.5
141
0.09
142
0
143
25.4
144
1
145
0
146
1
147
0.625
148
0
 71
    0
 72
    0
 73
    0
 74
    1
 75
    0
 76
    0
 77
    0
 78
    8
 79
    0
170
    0
171
    2
172
    0
173
    0
174
    0
175
    0
176
    0
177
    0
178
    0
179
    0
271
    2
272
    4
273
    2
274
    2
275
    0
276
    0
277
    2
278
   44
279
    0
280
    0
281
    0
282
    0
283
    1
284
    0
285
    0
286
    0
288
    0
289
    3
340
STANDARD
341

371
   -2
372
   -2
  0
ENDTAB
  0
TABLE
  2
BLOCK_RECORD
  5
1
330
0
100
AcDbSymbolTable
 70
    2
  0
BLOCK_RECORD
  5
1F
330
1
100
AcDbSymbolTableRecord
100
AcDbBlockTableRecord
  2
*Model_Space
 70
    0
280
    1
281
    0
  0
BLOCK_RECORD
  5
1E
330
1
100
AcDbSymbolTableRecord
100
AcDbBlockTableRecord
  2
*Paper_Space
 70
    0
280
    1
281
    0
  0
ENDTAB
  0
ENDSEC
  0
SECTION
  2
BLOCKS
  0
BLOCK
  5
20
330
1F
100
AcDbEntity
  8
0
100
AcDbBlockBegin
  2
*Model_Space
 70
    0
 10
0
 20
0
 30
0
  3
*Model_Space
  1

  0
ENDBLK
  5
21
330
1F
100
AcDbEntity
  8
0
100
AcDbBlockEnd
  0
BLOCK
  5
1C
330
1B
100
AcDbEntity
  8
0
100
AcDbBlockBegin
  2
*Paper_Space
 70
    0
 10
0
 20
0
 30
0
  3
*Paper_Space
  1

  0
ENDBLK
  5
1D
330
1F
100
AcDbEntity
  8
0
100
AcDbBlockEnd
  0
ENDSEC
  0
SECTION
  2
ENTITIES
  0
LINE
  5
56
100
AcDbEntity
  8
0
  6
ByLayer
 62
  256
370
   -1
100
AcDbLine
 10
-66.5
 20
-19
 11
-47.5
 21
-19
  0
LINE
  5
57
100
AcDbEntity
  8
0
  6
ByLayer
 62
  256
370
   -1
100
AcDbLine
 10
-47.5
 20
-19
 11
-47.5
 21
-38
  0
LINE
  5
58
100
AcDbEntity
  8
0
  6
ByLayer
 62
  256
370
   -1
100
AcDbLine
 10
-47.5
 20
-38
 11
-66.5
 21
-38
  0
LINE
  5
59
100
AcDbEntity
  8
0
  6
ByLayer
 62
  256
370
   -1
100
AcDbLine
 10
-66.5
 20
-38
 11
-66.5
 21
-19
  0
LINE
  5
5A
100
AcDbEntity
  8
0
  6
ByLayer
 62
  256
370
   -1
100
AcDbLine
 10
-66.5
 20
0
 11
-47.5
 21
0
  0
LINE
  5
5B
100
AcDbEntity
  8
0
  6
ByLayer
 62
  256
370
   -1
100
AcDbLine
 10
-47.5
 20
0
 11
-47.5
 21
-19
  0
LINE
  5
5C
100
AcDbEntity
  8
0
  6
ByLayer
 62
  256
370
   -1
100
AcDbLine
 10
-47.5
 20
-19
 11
-66.5
 21
-19
  0
LINE
  5
5D
100
AcDbEntity
  8
0
  6
ByLayer
 62
  256
370
   -1
100
AcDbLine
 10
-66.5
 20
-19
 11
-66.5
 21
0
  0
LINE
  5
5E
100
AcDbEntity
  8
0
  6
ByLayer
 62
  256
370
   -1
100
AcDbLine
 10
-66.5
 20
19
 11
-47.5
 21
19
  0
LINE
  5
5F
100
AcDbEntity
  8
0
  6
ByLayer
 62
  256
370
   -1
100
AcDbLine
 10
-47.5
 20
19
 11
-47.5
 21
0
  0
LINE
  5
60
100
AcDbEntity
  8
0
  6
ByLayer
 62
  256
370
   -1
100
AcDbLine
 10
-47.5
 20
0
 11
-66.5
 21
0
  0
LINE
  5
61
100
AcDbEntity
  8
0
  6
ByLayer
 62
  256
370
   -1
100
AcDbLine
 10
-66.5
 20
0
 11
-66.5
 21
19
  0
LINE
  5
62
100
AcDbEntity
  8
0
  6
ByLayer
 62
  256
370
   -1
100
AcDbLine
 10
-66.5
 20
38
 11
-47.5
 21
38
  0
LINE
  5
63
100
AcDbEntity
  8
0
  6
ByLayer
 62
  256
370
   -1
100
AcDbLine
 10
-47.5
 20
38
 11
-47.5
 21
19
  0
LINE
  5
64
100
AcDbEntity
  8
0
  6
ByLayer
 62
  256
370
   -1
100
AcDbLine
 10
-47.5
 20
19
 11
-66.5
 21
19
  0
LINE
  5
65
100
AcDbEntity
  8
0
  6
ByLayer
 62
  256
370
   -1
100
AcDbLine
 10
-66.5
 20
19
 11
-66.5
 21
38
  0
LINE
  5
66
100
AcDbEntity
  8
0
  6
ByLayer
 62
  256
370
   -1
100
AcDbLine
 10
-47.5
 20
-19
 11
-28.5
 21
-19
  0
LINE
  5
67
100
AcDbEntity
  8
0
  6
ByLayer
 62
  256
370
   -1
100
AcDbLine
 10
-28.5
 20
-19
 11
-28.5
 21
-38
  0
LINE
  5
68
100
AcDbEntity
  8
0
  6
ByLayer
 62
  256
370
   -1
100
AcDbLine
 10
-28.5
 20
-38
 11
-47.5
 21
-38
  0
LINE
  5
69
100
AcDbEntity
  8
0
  6
ByLayer
 62
  256
370
   -1
100
AcDbLine
 10
-47.5
 20
-38
 11
-47.5
 21
-19
  0
LINE
  5
6A
100
AcDbEntity
  8
0
  6
ByLayer
 62
  256
370
   -1
100
AcDbLine
 10
-47.5
 20
0
 11
-28.5
 21
0
  0
LINE
  5
6B
100
AcDbEntity
  8
0
  6
ByLayer
 62
  256
370
   -1
100
AcDbLine
 10
-28.5
 20
0
 11
-28.5
 21
-19
  0
LINE
  5
6C
100
AcDbEntity
  8
0
  6
ByLayer
 62
  256
370
   -1
100
AcDbLine
 10
-28.5
 20
-19
 11
-47.5
 21
-19
  0
LINE
  5
6D
100
AcDbEntity
  8
0
  6
ByLayer
 62
  256
370
   -1
100
AcDbLine
 10
-47.5
 20
-19
 11
-47.5
 21
0
  0
LINE
  5
6E
100
AcDbEntity
  8
0
  6
ByLayer
 62
  256
370
   -1
100
AcDbLine
 10
-47.5
 20
19
 11
-28.5
 21
19
  0
LINE
  5
6F
100
AcDbEntity
  8
0
  6
ByLayer
 62
  256
370
   -1
100
AcDbLine
 10
-28.5
 20
19
 11
-28.5
 21
0
  0
LINE
  5
70
100
AcDbEntity
  8
0
  6
ByLayer
 62
  256
370
   -1
100
AcDbLine
 10
-28.5
 20
0
 11
-47.5
 21
0
  0
LINE
  5
71
100
AcDbEntity
  8
0
  6
ByLayer
 62
  256
370
   -1
100
AcDbLine
 10
-47.5
 20
0
 11
-47.5
 21
19
  0
LINE
  5
72
100
AcDbEntity
  8
0
  6
ByLayer
 62
  256
370
   -1
100
AcDbLine
 10
-47.5
 20
38
 11
-28.5
 21
38
  0
LINE
  5
73
100
AcDbEntity
  8
0
  6
ByLayer
 62
  256
370
   -1
100
AcDbLine
 10
-28.5
 20
38
 11
-28.5
 21
19
  0
LINE
  5
74
100
AcDbEntity
  8
0
  6
ByLayer
 62
  256
370
   -1
100
AcDbLine
 10
-28.5
 20
19
 11
-47.5
 21
19
  0
LINE
  5
75
100
AcDbEntity
  8
0
  6
ByLayer
 62
  256
370
   -1
100
AcDbLine
 10
-47.5
 20
19
 11
-47.5
 21
38
  0
LINE
  5
76
100
AcDbEntity
  8
0
  6
ByLayer
 62
  256
370
   -1
100
AcDbLine
 10
-28.5
 20
-19
 11
-9.5
 21
-19
  0
LINE
  5
77
100
AcDbEntity
  8
0
  6
ByLayer
 62
  256
370
   -1
100
AcDbLine
 10
-9.5
 20
-19
 11
-9.5
 21
-38
  0
LINE
  5
78
100
AcDbEntity
  8
0
  6
ByLayer
 62
  256
370
   -1
100
AcDbLine
 10
-9.5
 20
-38
 11
-28.5
 21
-38
  0
LINE
  5
79
100
AcDbEntity
  8
0
  6
ByLayer
 62
  256
370
   -1
100
AcDbLine
 10
-28.5
 20
-38
 11
-28.5
 21
-19
  0
LINE
  5
7A
100
AcDbEntity
  8
0
  6
ByLayer
 62
  256
370
   -1
100
AcDbLine
 10
-28.5
 20
4.75
 11
-9.5
 21
4.75
  0
LINE
  5
7B
100
AcDbEntity
  8
0
  6
ByLayer
 62
  256
370
   -1
100
AcDbLine
 10
-9.5
 20
4.75
 11
-9.5
 21
-14.25
  0
LINE
  5
7C
100
AcDbEntity
  8
0
  6
ByLayer
 62
  256
370
   -1
100
AcDbLine
 10
-9.5
 20
-14.25
 11
-28.5
 21
-14.25
  0
LINE
  5
7D
100
AcDbEntity
  8
0
  6
ByLayer
 62
  256
370
   -1
100
AcDbLine
 10
-28.5
 20
-14.25
 11
-28.5
 21
4.75
  0
LINE
  5
7E
100
AcDbEntity
  8
0
  6
ByLayer
 62
  256
370
   -1
100
AcDbLine
 10
-28.5
 20
23.75
 11
-9.5
 21
23.75
  0
LINE
  5
7F
100
AcDbEntity
  8
0
  6
ByLayer
 62
  256
370
   -1
100
AcDbLine
 10
-9.5
 20
23.75
 11
-9.5
 21
4.75
  0
LINE
  5
80
100
AcDbEntity
  8
0
  6
ByLayer
 62
  256
370
   -1
100
AcDbLine
 10
-9.5
 20
4.75
 11
-28.5
 21
4.75
  0
LINE
  5
81
100
AcDbEntity
  8
0
  6
ByLayer
 62
  256
370
   -1
100
AcDbLine
 10
-28.5
 20
4.75
 11
-28.5
 21
23.75
  0
LINE
  5
82
100
AcDbEntity
  8
0
  6
ByLayer
 62
  256
370
   -1
100
AcDbLine
 10
-28.5
 20
42.75
 11
-9.5
 21
42.75
  0
LINE
  5
83
100
AcDbEntity
  8
0
  6
ByLayer
 62
  256
370
   -1
100
AcDbLine
 10
-9.5
 20
42.75
 11
-9.5
 21
23.75
  0
LINE
  5
84
100
AcDbEntity
  8
0
  6
ByLayer
 62
  256
370
   -1
100
AcDbLine
 10
-9.5
 20
23.75
 11
-28.5
 21
23.75
  0
LINE
  5
85
100
AcDbEntity
  8
0
  6
ByLayer
 62
  256
370
   -1
100
AcDbLine
 10
-28.5
 20
23.75
 11
-28.5
 21
42.75
  0
LINE
  5
86
100
AcDbEntity
  8
0
  6
ByLayer
 62
  256
370
   -1
100
AcDbLine
 10
-9.5
 20
9.5
 11
9.5
 21
9.5
  0
LINE
  5
87
100
AcDbEntity
  8
0
  6
ByLayer
 62
  256
370
   -1
100
AcDbLine
 10
9.5
 20
9.5
 11
9.5
 21
-9.5
  0
LINE
  5
88
100
AcDbEntity
  8
0
  6
ByLayer
 62
  256
370
   -1
100
AcDbLine
 10
9.5
 20
-9.5
 11
-9.5
 21
-9.5
  0
LINE
  5
89
100
AcDbEntity
  8
0
  6
ByLayer
 62
  256
370
   -1
100
AcDbLine
 10
-9.5
 20
-9.5
 11
-9.5
 21
9.5
  0
LINE
  5
8A
100
AcDbEntity
  8
0
  6
ByLayer
 62
  256
370
   -1
100
AcDbLine
 10
-9.5
 20
28.5
 11
9.5
 21
28.5
  0
LINE
  5
8B
100
AcDbEntity
  8
0
  6
ByLayer
 62
  256
370
   -1
100
AcDbLine
 10
9.5
 20
28.5
 11
9.5
 21
9.5
  0
LINE
  5
8C
100
AcDbEntity
  8
0
  6
ByLayer
 62
  256
370
   -1
100
AcDbLine
 10
9.5
 20
9.5
 11
-9.5
 21
9.5
  0
LINE
  5
8D
100
AcDbEntity
  8
0
  6
ByLayer
 62
  256
370
   -1
100
AcDbLine
 10
-9.5
 20
9.5
 11
-9.5
 21
28.5
  0
LINE
  5
8E
100
AcDbEntity
  8
0
  6
ByLayer
 62
  256
370
   -1
100
AcDbLine
 10
-9.5
 20
47.5
 11
9.5
 21
47.5
  0
LINE
  5
8F
100
AcDbEntity
  8
0
  6
ByLayer
 62
  256
370
   -1
100
AcDbLine
 10
9.5
 20
47.5
 11
9.5
 21
28.5
  0
LINE
  5
90
100
AcDbEntity
  8
0
  6
ByLayer
 62
  256
370
   -1
100
AcDbLine
 10
9.5
 20
28.5
 11
-9.5
 21
28.5
  0
LINE
  5
91
100
AcDbEntity
  8
0
  6
ByLayer
 62
  256
370
   -1
100
AcDbLine
 10
-9.5
 20
28.5
 11
-9.5
 21
47.5
  0
LINE
  5
92
100
AcDbEntity
  8
0
  6
ByLayer
 62
  256
370
   -1
100
AcDbLine
 10
9.5
 20
6.649999999999999
 11
28.5
 21
6.649999999999999
  0
LINE
  5
93
100
AcDbEntity
  8
0
  6
ByLayer
 62
  256
370
   -1
100
AcDbLine
 10
28.5
 20
6.649999999999999
 11
28.5
 21
-12.35
  0
LINE
  5
94
100
AcDbEntity
  8
0
  6
ByLayer
 62
  256
370
   -1
100
AcDbLine
 10
28.5
 20
-12.35
 11
9.5
 21
-12.35
  0
LINE
  5
95
100
AcDbEntity
  8
0
  6
ByLayer
 62
  256
370
   -1
100
AcDbLine
 10
9.5
 20
-12.35
 11
9.5
 21
6.649999999999999
  0
LINE
  5
96
100
AcDbEntity
  8
0
  6
ByLayer
 62
  256
370
   -1
100
AcDbLine
 10
9.5
 20
25.65
 11
28.5
 21
25.65
  0
LINE
  5
97
100
AcDbEntity
  8
0
  6
ByLayer
 62
  256
370
   -1
100
AcDbLine
 10
28.5
 20
25.65
 11
28.5
 21
6.649999999999999
  0
LINE
  5
98
100
AcDbEntity
  8
0
  6
ByLayer
 62
  256
370
   -1
100
AcDbLine
 10
28.5
 20
6.649999999999999
 11
9.5
 21
6.649999999999999
  0
LINE
  5
99
100
AcDbEntity
  8
0
  6
ByLayer
 62
  256
370
   -1
100
AcDbLine
 10
9.5
 20
6.649999999999999
 11
9.5
 21
25.65
  0
LINE
  5
9A
100
AcDbEntity
  8
0
  6
ByLayer
 62
  256
370
   -1
100
AcDbLine
 10
9.5
 20
44.65000000000001
 11
28.5
 21
44.65000000000001
  0
LINE
  5
9B
100
AcDbEntity
  8
0
  6
ByLayer
 62
  256
370
   -1
100
AcDbLine
 10
28.5
 20
44.65000000000001
 11
28.5
 21
25.65
  0
LINE
  5
9C
100
AcDbEntity
  8
0
  6
ByLayer
 62
  256
370
   -1
100
AcDbLine
 10
28.5
 20
25.65
 11
9.5
 21
25.65
  0
LINE
  5
9D
100
AcDbEntity
  8
0
  6
ByLayer
 62
  256
370
   -1
100
AcDbLine
 10
9.5
 20
25.65
 11
9.5
 21
44.65000000000001
  0
LINE
  5
9E
100
AcDbEntity
  8
0
  6
ByLayer
 62
  256
370
   -1
100
AcDbLine
 10
28.5
 20
1.899999999999999
 11
47.5
 21
1.899999999999999
  0
LINE
  5
9F
100
AcDbEntity
  8
0
  6
ByLayer
 62
  256
370
   -1
100
AcDbLine
 10
47.5
 20
1.899999999999999
 11
47.5
 21
-17.1
  0
LINE
  5
A0
100
AcDbEntity
  8
0
  6
ByLayer
 62
  256
370
   -1
100
AcDbLine
 10
47.5
 20
-17.1
 11
28.5
 21
-17.1
  0
LINE
  5
A1
100
AcDbEntity
  8
0
  6
ByLayer
 62
  256
370
   -1
100
AcDbLine
 10
28.5
 20
-17.1
 11
28.5
 21
1.899999999999999
  0
LINE
  5
A2
100
AcDbEntity
  8
0
  6
ByLayer
 62
  256
370
   -1
100
AcDbLine
 10
28.5
 20
20.9
 11
47.5
 21
20.9
  0
LINE
  5
A3
100
AcDbEntity
  8
0
  6
ByLayer
 62
  256
370
   -1
100
AcDbLine
 10
47.5
 20
20.9
 11
47.5
 21
1.899999999999999
  0
LINE
  5
A4
100
AcDbEntity
  8
0
  6
ByLayer
 62
  256
370
   -1
100
AcDbLine
 10
47.5
 20
1.899999999999999
 11
28.5
 21
1.899999999999999
  0
LINE
  5
A5
100
AcDbEntity
  8
0
  6
ByLayer
 62
  256
370
   -1
100
AcDbLine
 10
28.5
 20
1.899999999999999
 11
28.5
 21
20.9
  0
LINE
  5
A6
100
AcDbEntity
  8
0
  6
ByLayer
 62
  256
370
   -1
100
AcDbLine
 10
28.5
 20
39.90000000000001
 11
47.5
 21
39.90000000000001
  0
LINE
  5
A7
100
AcDbEntity
  8
0
  6
ByLayer
 62
  256
370
   -1
100
AcDbLine
 10
47.5
 20
39.90000000000001
 11
47.5
 21
20.9
  0
LINE
  5
A8
100
AcDbEntity
  8
0
  6
ByLayer
 62
  256
370
   -1
100
AcDbLine
 10
47.5
 20
20.9
 11
28.5
 21
20.9
  0
LINE
  5
A9
100
AcDbEntity
  8
0
  6
ByLayer
 62
  256
370
   -1
100
AcDbLine
 10
28.5
 20
20.9
 11
28.5
 21
39.90000000000001
  0
LINE
  5
AA
100
AcDbEntity
  8
0
  6
ByLayer
 62
  256
370
   -1
100
AcDbLine
 10
-0.5344825000000029
 20
-19.1416231
 11
18.3238944
 21
-21.4571406
  0
LINE
  5
AB
100
AcDbEntity
  8
0
  6
ByLayer
 62
  256
370
   -1
100
AcDbLine
 10
18.3238944
 20
-21.4571406
 11
16.0083769
 21
-40.3155175
  0
LINE
  5
AC
100
AcDbEntity
  8
0
  6
ByLayer
 62
  256
370
   -1
100
AcDbLine
 10
16.0083769
 20
-40.3155175
 11
-2.850000000000001
 21
-38
  0
LINE
  5
AD
100
AcDbEntity
  8
0
  6
ByLayer
 62
  256
370
   -1
100
AcDbLine
 10
-2.850000000000001
 20
-38
 11
-0.5344825000000029
 21
-19.1416231
  0
LINE
  5
AE
100
AcDbEntity
  8
0
  6
ByLayer
 62
  256
370
   -1
100
AcDbLine
 10
22.49073060000001
 20
-22.1114505
 11
40.92634940000001
 21
-26.7079665
  0
LINE
  5
AF
100
AcDbEntity
  8
0
  6
ByLayer
 62
  256
370
   -1
100
AcDbLine
 10
40.92634940000001
 20
-26.7079665
 11
36.3298334
 21
-45.1435853
  0
LINE
  5
B0
100
AcDbEntity
  8
0
  6
ByLayer
 62
  256
370
   -1
100
AcDbLine
 10
36.3298334
 20
-45.1435853
 11
17.8942146
 21
-40.5470693
  0
LINE
  5
B1
100
AcDbEntity
  8
0
  6
ByLayer
 62
  256
370
   -1
100
AcDbLine
 10
17.8942146
 20
-40.5470693
 11
22.49073060000001
 21
-22.1114505
  0
LINE
  5
B2
100
AcDbEntity
  8
0
  6
ByLayer
 62
  256
370
   -1
100
AcDbLine
 10
48.3868818
 20
-18.9961948
 11
66.12490990000001
 21
-25.8051858
  0
LINE
  5
B3
100
AcDbEntity
  8
0
  6
ByLayer
 62
  256
370
   -1
100
AcDbLine
 10
66.12490990000001
 20
-25.8051858
 11
55.9114234
 21
-52.412228
  0
LINE
  5
B4
100
AcDbEntity
  8
0
  6
ByLayer
 62
  256
370
   -1
100
AcDbLine
 10
55.9114234
 20
-52.412228
 11
38.1733953
 21
-45.603237
  0
LINE
  5
B5
100
AcDbEntity
  8
0
  6
ByLayer
 62
  256
370
   -1
100
AcDbLine
 10
38.1733953
 20
-45.603237
 11
48.3868818
 21
-18.9961948
  0
ARC
  5
B6
100
AcDbEntity
  8
pcb
  6
ByLayer
 62
  256
370
   -1
100
AcDbCircle
 10
-7.684541881288453
 20
-139.5
 40
100
100
AcDbArc
 50
83.24719651857612
 51
90
  0
ARC
  5
B7
100
AcDbEntity
  8
pcb
  6
ByLayer
 62
  256
370
   -1
100
AcDbCircle
 10
-18.03256369570637
 20
-226.893359478035
 40
188.0038683032099
100
AcDbArc
 50
66.8762138588289
 51
83.24719651857612
  0
ARC
  5
B8
100
AcDbEntity
  8
pcb
  6
ByLayer
 62
  256
370
   -1
100
AcDbCircle
 10
56.19283577045
 20
-53.07433776963096
 40
1
100
AcDbArc
 50
246.8762138588292
 51
339.0000001487397
  0
ARC
  5
B9
100
AcDbEntity
  8
pcb
  6
ByLayer
 62
  256
370
   -1
100
AcDbCircle
 10
31
 20
42.40000000000001
 40
1
100
AcDbArc
 50
180
 51
270
  0
LINE
  5
BA
100
AcDbEntity
  8
pcb
  6
ByLayer
 62
  256
370
   -1
100
AcDbLine
 10
30
 20
45.15000000000001
 11
30
 21
42.40000000000001
  0
ARC
  5
BB
100
AcDbEntity
  8
pcb
  6
ByLayer
 62
  256
370
   -1
100
AcDbCircle
 10
29
 20
45.15000000000001
 40
1
100
AcDbArc
 50
0
 51
90
  0
ARC
  5
BC
100
AcDbEntity
  8
pcb
  6
ByLayer
 62
  256
370
   -1
100
AcDbCircle
 10
10
 20
48
 40
1
100
AcDbArc
 50
0
 51
90
  0
LINE
  5
BD
100
AcDbEntity
  8
pcb
  6
ByLayer
 62
  256
370
   -1
100
AcDbLine
 10
12
 20
46.15000000000001
 11
29
 21
46.15000000000001
  0
LINE
  5
BE
100
AcDbEntity
  8
pcb
  6
ByLayer
 62
  256
370
   -1
100
AcDbLine
 10
11
 20
47.15000000000001
 11
11
 21
48
  0
ARC
  5
BF
100
AcDbEntity
  8
pcb
  6
ByLayer
 62
  256
370
   -1
100
AcDbCircle
 10
12
 20
47.15000000000001
 40
1
100
AcDbArc
 50
180
 51
270
  0
LINE
  5
C0
100
AcDbEntity
  8
pcb
  6
ByLayer
 62
  256
370
   -1
100
AcDbLine
 10
-10
 20
49
 11
10
 21
49
  0
ARC
  5
C1
100
AcDbEntity
  8
pcb
  6
ByLayer
 62
  256
370
   -1
100
AcDbCircle
 10
-10
 20
48
 40
1
100
AcDbArc
 50
90
 51
180
  0
LINE
  5
C2
100
AcDbEntity
  8
pcb
  6
ByLayer
 62
  256
370
   -1
100
AcDbLine
 10
-11
 20
45.25
 11
-11
 21
48
  0
ARC
  5
C3
100
AcDbEntity
  8
pcb
  6
ByLayer
 62
  256
370
   -1
100
AcDbCircle
 10
-12
 20
45.25
 40
1
100
AcDbArc
 50
270
 51
0
  0
LINE
  5
C4
100
AcDbEntity
  8
pcb
  6
ByLayer
 62
  256
370
   -1
100
AcDbLine
 10
-29
 20
44.25
 11
-12
 21
44.25
  0
ARC
  5
C5
100
AcDbEntity
  8
pcb
  6
ByLayer
 62
  256
370
   -1
100
AcDbCircle
 10
-29
 20
43.25
 40
1
100
AcDbArc
 50
90
 51
180
  0
LINE
  5
C6
100
AcDbEntity
  8
pcb
  6
ByLayer
 62
  256
370
   -1
100
AcDbLine
 10
-30
 20
40.5
 11
-30
 21
43.25
  0
ARC
  5
C7
100
AcDbEntity
  8
pcb
  6
ByLayer
 62
  256
370
   -1
100
AcDbCircle
 10
-31
 20
40.5
 40
1
100
AcDbArc
 50
270
 51
0
  0
LINE
  5
C8
100
AcDbEntity
  8
pcb
  6
ByLayer
 62
  256
370
   -1
100
AcDbLine
 10
-67
 20
39.5
 11
-31
 21
39.5
  0
ARC
  5
C9
100
AcDbEntity
  8
pcb
  6
ByLayer
 62
  256
370
   -1
100
AcDbCircle
 10
-67
 20
38.5
 40
1
100
AcDbArc
 50
90
 51
180
  0
LINE
  5
CA
100
AcDbEntity
  8
pcb
  6
ByLayer
 62
  256
370
   -1
100
AcDbLine
 10
-7.684541881288439
 20
-39.50000000000001
 11
-67
 21
-39.5
  0
ARC
  5
CB
100
AcDbEntity
  8
pcb
  6
ByLayer
 62
  256
370
   -1
100
AcDbCircle
 10
-67
 20
-38.5
 40
1
100
AcDbArc
 50
180.0000000000002
 51
270
  0
LINE
  5
CC
100
AcDbEntity
  8
pcb
  6
ByLayer
 62
  256
370
   -1
100
AcDbLine
 10
31
 20
41.40000000000001
 11
68.5252805411413
 21
41.40000000000001
  0
ARC
  5
CD
100
AcDbEntity
  8
pcb
  6
ByLayer
 62
  256
370
   -1
100
AcDbCircle
 10
68.5252805411413
 20
40.40000000000001
 40
1
100
AcDbArc
 50
0
 51
90
  0
LINE
  5
CE
100
AcDbEntity
  8
rpi
  6
ByLayer
 62
  256
370
   -1
100
AcDbLine
 10
48.5
 20
35.90000000000001
 11
68.5
 21
35.90000000000001
  0
LINE
  5
CF
100
AcDbEntity
  8
rpi
  6
ByLayer
 62
  256
370
   -1
100
AcDbLine
 10
48.5
 20
35.90000000000001
 11
48.5
 21
10.90000000000001
  0
LINE
  5
D0
100
AcDbEntity
  8
rpi
  6
ByLayer
 62
  256
370
   -1
100
AcDbLine
 10
68.5
 20
35.90000000000001
 11
68.5
 21
10.90000000000001
  0
LINE
  5
D1
100
AcDbEntity
  8
rpi
  6
ByLayer
 62
  256
370
   -1
100
AcDbLine
 10
48.5
 20
10.90000000000001
 11
68.5
 21
10.90000000000001
  0
LINE
  5
D2
100
AcDbEntity
  8
pcb
  6
ByLayer
 62
  256
370
   -1
100
AcDbLine
 10
-68
 20
38.5
 11
-68
 21
-38.5
  0
LINE
  5
D3
100
AcDbEntity
  8
pcb
  6
ByLayer
 62
  256
370
   -1
100
AcDbLine
 10
68.19688908969179
 20
-24.5931376215232
 11
57.1264161978775
 21
-53.43270571675269
  0
LINE
  5
D4
100
AcDbEntity
  8
pcb
  6
ByLayer
 62
  256
370
   -1
100
AcDbLine
 10
69.5252805411413
 20
-17.4257786790886
 11
69.5252805411413
 21
40.40000000000001
  0
ARC
  5
D5
100
AcDbEntity
  8
pcb
  6
ByLayer
 62
  256
370
   -1
100
AcDbCircle
 10
49.5252805411413
 20
-17.4257786790886
 40
20
100
AcDbArc
 50
339.0000001487396
 51
0
  0
LINE
  5
D6
100
AcDbEntity
  8
rpi
  6
ByLayer
 62
  256
370
   -1
100
AcDbLine
 10
48.5
 20
0.9000000000000092
 11
68.5
 21
0.9000000000000092
  0
LINE
  5
D7
100
AcDbEntity
  8
rpi
  6
ByLayer
 62
  256
370
   -1
100
AcDbLine
 10
48.5
 20
-13.09999999999999
 11
68.5
 21
-13.09999999999999
  0
LINE
  5
D8
100
AcDbEntity
  8
rpi
  6
ByLayer
 62
  256
370
   -1
100
AcDbLine
 10
48.5
 20
0.9000000000000092
 11
48.5
 21
-13.09999999999999
  0
LINE
  5
D9
100
AcDbEntity
  8
rpi
  6
ByLayer
 62
  256
370
   -1
100
AcDbLine
 10
68.5
 20
0.9000000000000092
 11
68.5
 21
-13.09999999999999
  0
LINE
  5
DA
100
AcDbEntity
  8
rpi
  6
ByLayer
 62
  256
370
   -1
100
AcDbLine
 10
68.5
 20
-6.099999999999991
 11
48.5
 21
-6.099999999999991
  0
LINE
  5
DB
100
AcDbEntity
  8
placement
  6
ByLayer
 62
  256
370
   -1
100
AcDbLine
 10
-9.5
 20
9.5
 11
9.5
 21
-9.5
  0
LINE
  5
DC
100
AcDbEntity
  8
placement
  6
ByLayer
 62
  256
370
   -1
100
AcDbLine
 10
-9.5
 20
28.5
 11
9.5
 21
9.5
  0
LINE
  5
DD
100
AcDbEntity
  8
placement
  6
ByLayer
 62
  256
370
   -1
100
AcDbLine
 10
-9.5
 20
47.5
 11
9.5
 21
28.5
  0
LINE
  5
DE
100
AcDbEntity
  8
placement
  6
ByLayer
 62
  256
370
   -1
100
AcDbLine
 10
-28.5
 20
23.75
 11
-9.5
 21
4.75
  0
LINE
  5
DF
100
AcDbEntity
  8
placement
  6
ByLayer
 62
  256
370
   -1
100
AcDbLine
 10
-28.5
 20
4.75
 11
-9.5
 21
-14.25
  0
LINE
  5
E0
100
AcDbEntity
  8
placement
  6
ByLayer
 62
  256
370
   -1
100
AcDbLine
 10
-28.5
 20
42.75
 11
-9.5
 21
23.75
  0
LINE
  5
E1
100
AcDbEntity
  8
placement
  6
ByLayer
 62
  256
370
   -1
100
AcDbLine
 10
-47.5
 20
38
 11
-28.5
 21
19
  0
LINE
  5
E2
100
AcDbEntity
  8
placement
  6
ByLayer
 62
  256
370
   -1
100
AcDbLine
 10
-66.5
 20
38
 11
-47.5
 21
19
  0
LINE
  5
E3
100
AcDbEntity
  8
placement
  6
ByLayer
 62
  256
370
   -1
100
AcDbLine
 10
-66.5
 20
19
 11
-47.5
 21
0
  0
LINE
  5
E4
100
AcDbEntity
  8
placement
  6
ByLayer
 62
  256
370
   -1
100
AcDbLine
 10
-66.5
 20
0
 11
-47.5
 21
-19
  0
LINE
  5
E5
100
AcDbEntity
  8
placement
  6
ByLayer
 62
  256
370
   -1
100
AcDbLine
 10
-66.5
 20
-19
 11
-47.5
 21
-38
  0
LINE
  5
E6
100
AcDbEntity
  8
placement
  6
ByLayer
 62
  256
370
   -1
100
AcDbLine
 10
-47.5
 20
0
 11
-28.5
 21
-19
  0
LINE
  5
E7
100
AcDbEntity
  8
placement
  6
ByLayer
 62
  256
370
   -1
100
AcDbLine
 10
-47.5
 20
19
 11
-28.5
 21
0
  0
LINE
  5
E8
100
AcDbEntity
  8
placement
  6
ByLayer
 62
  256
370
   -1
100
AcDbLine
 10
-47.5
 20
-19
 11
-28.5
 21
-38
  0
LINE
  5
E9
100
AcDbEntity
  8
placement
  6
ByLayer
 62
  256
370
   -1
100
AcDbLine
 10
-28.5
 20
-19
 11
-9.5
 21
-38
  0
LINE
  5
EA
100
AcDbEntity
  8
placement
  6
ByLayer
 62
  256
370
   -1
100
AcDbLine
 10
9.5
 20
6.649999999999999
 11
28.5
 21
-12.35
  0
LINE
  5
EB
100
AcDbEntity
  8
placement
  6
ByLayer
 62
  256
370
   -1
100
AcDbLine
 10
9.5
 20
25.65
 11
28.5
 21
6.649999999999999
  0
LINE
  5
EC
100
AcDbEntity
  8
placement
  6
ByLayer
 62
  256
370
   -1
100
AcDbLine
 10
9.5
 20
44.65000000000001
 11
28.5
 21
25.65000000000001
  0
LINE
  5
ED
100
AcDbEntity
  8
placement
  6
ByLayer
 62
  256
370
   -1
100
AcDbLine
 10
28.5
 20
39.90000000000001
 11
47.5
 21
20.9
  0
LINE
  5
EE
100
AcDbEntity
  8
placement
  6
ByLayer
 62
  256
370
   -1
100
AcDbLine
 10
28.5
 20
20.9
 11
47.5
 21
1.899999999999999
  0
LINE
  5
EF
100
AcDbEntity
  8
placement
  6
ByLayer
 62
  256
370
   -1
100
AcDbLine
 10
28.5
 20
1.899999999999999
 11
47.5
 21
-17.1
  0
LINE
  5
F0
100
AcDbEntity
  8
placement
  6
ByLayer
 62
  256
370
   -1
100
AcDbLine
 10
-0.5344825000000029
 20
-19.1416231
 11
16.0083769
 21
-40.3155175
  0
LINE
  5
F1
100
AcDbEntity
  8
placement
  6
ByLayer
 62
  256
370
   -1
100
AcDbLine
 10
22.49073060000001
 20
-22.1114505
 11
36.3298334
 21
-45.1435853
  0
LINE
  5
F2
100
AcDbEntity
  8
placement
  6
ByLayer
 62
  256
370
   -1
100
AcDbLine
 10
48.3868818
 20
-18.9961948
 11
55.9114234
 21
-52.412228
  0
LINE
  5
F3
100
AcDbEntity
  8
placement
  6
ByLayer
 62
  256
370
   -1
100
AcDbLine
 10
48.5
 20
35.90000000000001
 11
68.5
 21
10.90000000000001
  0
LINE
  5
F4
100
AcDbEntity
  8
placement
  6
ByLayer
 62
  256
370
   -1
100
AcDbLine
 10
48.5
 20
0.9000000000000092
 11
68.5
 21
-13.09999999999999
  0
ARC
  5
F5
100
AcDbEntity
  8
ext1
  6
ByLayer
 62
  256
370
   -1
100
AcDbCircle
 10
-67
 20
38.5
 40
2
100
AcDbArc
 50
90
 51
180
  0
ARC
  5
F6
100
AcDbEntity
  8
ext1
  6
ByLayer
 62
  256
370
   -1
100
AcDbCircle
 10
-29
 20
43.25
 40
2
100
AcDbArc
 50
90
 51
180
  0
LINE
  5
F7
100
AcDbEntity
  8
ext1
  6
ByLayer
 62
  256
370
   -1
100
AcDbLine
 10
-69
 20
38.5
 11
-69
 21
-38.5
  0
ARC
  5
F8
100
AcDbEntity
  8
ext1
  6
ByLayer
 62
  256
370
   -1
100
AcDbCircle
 10
-10
 20
48
 40
2
100
AcDbArc
 50
90
 51
180
  0
LINE
  5
F9
100
AcDbEntity
  8
ext1
  6
ByLayer
 62
  256
370
   -1
100
AcDbLine
 10
-10
 20
50
 11
10
 21
50
  0
ARC
  5
FA
100
AcDbEntity
  8
ext1
  6
ByLayer
 62
  256
370
   -1
100
AcDbCircle
 10
29
 20
45.15000000000001
 40
2
100
AcDbArc
 50
0
 51
90
  0
ARC
  5
FB
100
AcDbEntity
  8
ext1
  6
ByLayer
 62
  256
370
   -1
100
AcDbCircle
 10
68.5252805411413
 20
40.40000000000001
 40
2
100
AcDbArc
 50
0
 51
90
  0
LINE
  5
FC
100
AcDbEntity
  8
ext1
  6
ByLayer
 62
  256
370
   -1
100
AcDbLine
 10
70.5252805411413
 20
-17.4257786790886
 11
70.5252805411413
 21
40.40000000000001
  0
ARC
  5
FD
100
AcDbEntity
  8
ext1
  6
ByLayer
 62
  256
370
   -1
100
AcDbCircle
 10
49.5252805411413
 20
-17.4257786790886
 40
21
100
AcDbArc
 50
339.0000001487396
 51
0
  0
LINE
  5
FE
100
AcDbEntity
  8
ext1
  6
ByLayer
 62
  256
370
   -1
100
AcDbLine
 10
69.13046951711932
 20
-24.95150556864493
 11
58.05999662530502
 21
-53.79107366387443
  0
ARC
  5
FF
100
AcDbEntity
  8
ext1
  6
ByLayer
 62
  256
370
   -1
100
AcDbCircle
 10
56.19283577045
 20
-53.07433776963096
 40
2
100
AcDbArc
 50
246.8762138588292
 51
339.0000001487397
  0
ARC
  5
100
100
AcDbEntity
  8
ext1
  6
ByLayer
 62
  256
370
   -1
100
AcDbCircle
 10
-18.03256369570637
 20
-226.893359478035
 40
187.0038683032099
100
AcDbArc
 50
66.8762138588289
 51
83.24719651857612
  0
ARC
  5
101
100
AcDbEntity
  8
ext1
  6
ByLayer
 62
  256
370
   -1
100
AcDbCircle
 10
-7.684541881288453
 20
-139.5
 40
99
100
AcDbArc
 50
83.24719651857612
 51
90
  0
LINE
  5
102
100
AcDbEntity
  8
ext1
  6
ByLayer
 62
  256
370
   -1
100
AcDbLine
 10
-7.684541881288439
 20
-40.50000000000001
 11
-67
 21
-40.5
  0
ARC
  5
103
100
AcDbEntity
  8
ext1
  6
ByLayer
 62
  256
370
   -1
100
AcDbCircle
 10
-67
 20
-38.5
 40
2
100
AcDbArc
 50
180.0000000000002
 51
270
  0
LINE
  5
104
100
AcDbEntity
  8
ext1
  6
ByLayer
 62
  256
370
   -1
100
AcDbLine
 10
-67
 20
40.5
 11
-32
 21
40.5
  0
LINE
  5
105
100
AcDbEntity
  8
ext1
  6
ByLayer
 62
  256
370
   -1
100
AcDbLine
 10
-31
 20
41.5
 11
-31
 21
43.25
  0
ARC
  5
106
100
AcDbEntity
  8
ext1
  6
ByLayer
 62
  256
370
   -1
100
AcDbCircle
 10
-32
 20
41.5
 40
1
100
AcDbArc
 50
270
 51
0
  0
LINE
  5
107
100
AcDbEntity
  8
ext1
  6
ByLayer
 62
  256
370
   -1
100
AcDbLine
 10
-29
 20
45.25
 11
-13
 21
45.25
  0
LINE
  5
108
100
AcDbEntity
  8
ext1
  6
ByLayer
 62
  256
370
   -1
100
AcDbLine
 10
-12
 20
46.25
 11
-12
 21
48
  0
ARC
  5
109
100
AcDbEntity
  8
ext1
  6
ByLayer
 62
  256
370
   -1
100
AcDbCircle
 10
-13
 20
46.25
 40
1
100
AcDbArc
 50
270
 51
0
  0
LINE
  5
10A
100
AcDbEntity
  8
ext1
  6
ByLayer
 62
  256
370
   -1
100
AcDbLine
 10
12.99624765331581
 20
47.15000000000001
 11
29
 21
47.15000000000001
  0
ARC
  5
10B
100
AcDbEntity
  8
ext1
  6
ByLayer
 62
  256
370
   -1
100
AcDbCircle
 10
10
 20
48
 40
2
100
AcDbArc
 50
2.865983982599106
 51
90
  0
ARC
  5
10C
100
AcDbEntity
  8
ext1
  6
ByLayer
 62
  256
370
   -1
100
AcDbCircle
 10
12.99624765331581
 20
48.15000000000001
 40
1
100
AcDbArc
 50
182.8659839825988
 51
270
  0
LINE
  5
10D
100
AcDbEntity
  8
ext1
  6
ByLayer
 62
  256
370
   -1
100
AcDbLine
 10
32
 20
42.40000000000001
 11
68.5252805411413
 21
42.40000000000001
  0
LINE
  5
10E
100
AcDbEntity
  8
ext1
  6
ByLayer
 62
  256
370
   -1
100
AcDbLine
 10
31
 20
45.15000000000001
 11
31
 21
43.40000000000001
  0
ARC
  5
10F
100
AcDbEntity
  8
ext1
  6
ByLayer
 62
  256
370
   -1
100
AcDbCircle
 10
32
 20
43.40000000000001
 40
1
100
AcDbArc
 50
180
 51
270
  0
ARC
  5
110
100
AcDbEntity
  8
ext2
  6
ByLayer
 62
  256
370
   -1
100
AcDbCircle
 10
-67
 20
38.5
 40
5
100
AcDbArc
 50
90
 51
180
  0
LINE
  5
111
100
AcDbEntity
  8
ext2
  6
ByLayer
 62
  256
370
   -1
100
AcDbLine
 10
-10
 20
53
 11
10
 21
53
  0
ARC
  5
112
100
AcDbEntity
  8
ext2
  6
ByLayer
 62
  256
370
   -1
100
AcDbCircle
 10
68.5252805411413
 20
40.40000000000001
 40
5
100
AcDbArc
 50
0
 51
90
  0
LINE
  5
113
100
AcDbEntity
  8
ext2
  6
ByLayer
 62
  256
370
   -1
100
AcDbLine
 10
73.5252805411413
 20
-17.4257786790886
 11
73.5252805411413
 21
40.40000000000001
  0
ARC
  5
114
100
AcDbEntity
  8
ext2
  6
ByLayer
 62
  256
370
   -1
100
AcDbCircle
 10
49.5252805411413
 20
-17.4257786790886
 40
24
100
AcDbArc
 50
339.0000001487396
 51
0
  0
LINE
  5
115
100
AcDbEntity
  8
ext2
  6
ByLayer
 62
  256
370
   -1
100
AcDbLine
 10
71.9312107994019
 20
-26.02660941001013
 11
60.86073790758758
 21
-54.86617750523963
  0
ARC
  5
116
100
AcDbEntity
  8
ext2
  6
ByLayer
 62
  256
370
   -1
100
AcDbCircle
 10
56.19283577045
 20
-53.07433776963096
 40
5
100
AcDbArc
 50
246.8762138588292
 51
339.0000001487397
  0
ARC
  5
117
100
AcDbEntity
  8
ext2
  6
ByLayer
 62
  256
370
   -1
100
AcDbCircle
 10
-18.03256369570637
 20
-226.893359478035
 40
184.0038683032099
100
AcDbArc
 50
66.8762138588289
 51
83.24719651857612
  0
ARC
  5
118
100
AcDbEntity
  8
ext2
  6
ByLayer
 62
  256
370
   -1
100
AcDbCircle
 10
-7.684541881288453
 20
-139.5
 40
96
100
AcDbArc
 50
83.24719651857612
 51
90
  0
LINE
  5
119
100
AcDbEntity
  8
ext2
  6
ByLayer
 62
  256
370
   -1
100
AcDbLine
 10
-7.68454188128844
 20
-43.50000000000001
 11
-67
 21
-43.5
  0
ARC
  5
11A
100
AcDbEntity
  8
ext2
  6
ByLayer
 62
  256
370
   -1
100
AcDbCircle
 10
-67
 20
-38.5
 40
5
100
AcDbArc
 50
180.0000000000002
 51
270
  0
LINE
  5
11B
100
AcDbEntity
  8
ext2
  6
ByLayer
 62
  256
370
   -1
100
AcDbLine
 10
-72
 20
38.5
 11
-72
 21
-38.5
  0
LINE
  5
11C
100
AcDbEntity
  8
ext2
  6
ByLayer
 62
  256
370
   -1
100
AcDbLine
 10
-67
 20
43.5
 11
-36.9333158263112
 21
43.5
  0
ARC
  5
11D
100
AcDbEntity
  8
ext2
  6
ByLayer
 62
  256
370
   -1
100
AcDbCircle
 10
-29
 20
43.25
 40
5
100
AcDbArc
 50
90
 51
151.8213572594701
  0
ARC
  5
11E
100
AcDbEntity
  8
ext2
  6
ByLayer
 62
  256
370
   -1
100
AcDbCircle
 10
-36.93331582631121
 20
47.5
 40
4
100
AcDbArc
 50
270.0000000000001
 51
331.8213572594701
  0
LINE
  5
11F
100
AcDbEntity
  8
ext2
  6
ByLayer
 62
  256
370
   -1
100
AcDbLine
 10
-29
 20
48.25
 11
-17.93331582631127
 21
48.25
  0
ARC
  5
120
100
AcDbEntity
  8
ext2
  6
ByLayer
 62
  256
370
   -1
100
AcDbCircle
 10
-10
 20
48
 40
5
100
AcDbArc
 50
90
 51
151.8213572594703
  0
ARC
  5
121
100
AcDbEntity
  8
ext2
  6
ByLayer
 62
  256
370
   -1
100
AcDbCircle
 10
-17.93331582631127
 20
52.25
 40
4
100
AcDbArc
 50
270
 51
331.8213572594703
  0
LINE
  5
122
100
AcDbEntity
  8
ext2
  6
ByLayer
 62
  256
370
   -1
100
AcDbLine
 10
16.57095883414286
 20
50.15000000000001
 11
29
 21
50.15000000000001
  0
ARC
  5
123
100
AcDbEntity
  8
ext2
  6
ByLayer
 62
  256
370
   -1
100
AcDbCircle
 10
10
 20
48
 40
5
100
AcDbArc
 50
43.10467381989603
 51
90
  0
ARC
  5
124
100
AcDbEntity
  8
ext2
  6
ByLayer
 62
  256
370
   -1
100
AcDbCircle
 10
16.57095883414286
 20
54.15000000000001
 40
4
100
AcDbArc
 50
223.104673819896
 51
270
  0
LINE
  5
125
100
AcDbEntity
  8
ext2
  6
ByLayer
 62
  256
370
   -1
100
AcDbLine
 10
36.93331582631134
 20
45.40000000000001
 11
68.5252805411413
 21
45.40000000000001
  0
ARC
  5
126
100
AcDbEntity
  8
ext2
  6
ByLayer
 62
  256
370
   -1
100
AcDbCircle
 10
29
 20
45.15000000000001
 40
5
100
AcDbArc
 50
28.17864274052954
 51
90
  0
ARC
  5
127
100
AcDbEntity
  8
ext2
  6
ByLayer
 62
  256
370
   -1
100
AcDbCircle
 10
36.93331582631134
 20
49.40000000000002
 40
4
100
AcDbArc
 50
208.1786427405295
 51
270
  0
LINE
  5
128
100
AcDbEntity
  8
ext3
  6
ByLayer
 62
  256
370
   -1
100
AcDbLine
 10
-10
 20
55
 11
10
 21
55
  0
ARC
  5
129
100
AcDbEntity
  8
ext3
  6
ByLayer
 62
  256
370
   -1
100
AcDbCircle
 10
10
 20
48
 40
7
100
AcDbArc
 50
43.10467381989603
 51
90
  0
LINE
  5
12A
100
AcDbEntity
  8
ext3
  6
ByLayer
 62
  256
370
   -1
100
AcDbLine
 10
16.57095883414286
 20
52.15000000000001
 11
29
 21
52.15000000000001
  0
ARC
  5
12B
100
AcDbEntity
  8
ext3
  6
ByLayer
 62
  256
370
   -1
100
AcDbCircle
 10
29
 20
45.15000000000001
 40
7
100
AcDbArc
 50
28.17864274052954
 51
90
  0
ARC
  5
12C
100
AcDbEntity
  8
ext3
  6
ByLayer
 62
  256
370
   -1
100
AcDbCircle
 10
16.57095883414286
 20
54.15000000000001
 40
2
100
AcDbArc
 50
223.104673819896
 51
270
  0
ARC
  5
12D
100
AcDbEntity
  8
ext3
  6
ByLayer
 62
  256
370
   -1
100
AcDbCircle
 10
36.93331582631134
 20
49.40000000000002
 40
2
100
AcDbArc
 50
208.1786427405295
 51
270
  0
LINE
  5
12E
100
AcDbEntity
  8
ext3
  6
ByLayer
 62
  256
370
   -1
100
AcDbLine
 10
36.93331582631134
 20
47.40000000000001
 11
68.5252805411413
 21
47.40000000000001
  0
ARC
  5
12F
100
AcDbEntity
  8
ext3
  6
ByLayer
 62
  256
370
   -1
100
AcDbCircle
 10
68.5252805411413
 20
40.40000000000001
 40
7
100
AcDbArc
 50
0
 51
90
  0
LINE
  5
130
100
AcDbEntity
  8
ext3
  6
ByLayer
 62
  256
370
   -1
100
AcDbLine
 10
75.5252805411413
 20
-17.4257786790886
 11
75.5252805411413
 21
40.40000000000001
  0
ARC
  5
131
100
AcDbEntity
  8
ext3
  6
ByLayer
 62
  256
370
   -1
100
AcDbCircle
 10
49.5252805411413
 20
-17.4257786790886
 40
26
100
AcDbArc
 50
339.0000001487396
 51
0
  0
LINE
  5
132
100
AcDbEntity
  8
ext3
  6
ByLayer
 62
  256
370
   -1
100
AcDbLine
 10
73.79837165425694
 20
-26.7433453042536
 11
62.72789876244263
 21
-55.58291339948309
  0
ARC
  5
133
100
AcDbEntity
  8
ext3
  6
ByLayer
 62
  256
370
   -1
100
AcDbCircle
 10
56.19283577045
 20
-53.07433776963096
 40
7
100
AcDbArc
 50
246.8762138588292
 51
339.0000001487397
  0
ARC
  5
134
100
AcDbEntity
  8
ext3
  6
ByLayer
 62
  256
370
   -1
100
AcDbCircle
 10
-18.03256369570637
 20
-226.893359478035
 40
182.0038683032099
100
AcDbArc
 50
66.8762138588289
 51
83.24719651857612
  0
LINE
  5
135
100
AcDbEntity
  8
ext3
  6
ByLayer
 62
  256
370
   -1
100
AcDbLine
 10
-7.68454188128844
 20
-45.50000000000001
 11
-67
 21
-45.5
  0
ARC
  5
136
100
AcDbEntity
  8
ext3
  6
ByLayer
 62
  256
370
   -1
100
AcDbCircle
 10
-7.684541881288453
 20
-139.5
 40
94
100
AcDbArc
 50
83.24719651857612
 51
90
  0
ARC
  5
137
100
AcDbEntity
  8
ext3
  6
ByLayer
 62
  256
370
   -1
100
AcDbCircle
 10
-67
 20
-38.5
 40
7
100
AcDbArc
 50
180.0000000000002
 51
270
  0
LINE
  5
138
100
AcDbEntity
  8
ext3
  6
ByLayer
 62
  256
370
   -1
100
AcDbLine
 10
-74
 20
38.5
 11
-74
 21
-38.5
  0
ARC
  5
139
100
AcDbEntity
  8
ext3
  6
ByLayer
 62
  256
370
   -1
100
AcDbCircle
 10
-67
 20
38.5
 40
7
100
AcDbArc
 50
90
 51
180
  0
LINE
  5
13A
100
AcDbEntity
  8
ext3
  6
ByLayer
 62
  256
370
   -1
100
AcDbLine
 10
-67
 20
45.5
 11
-36.9333158263112
 21
45.5
  0
ARC
  5
13B
100
AcDbEntity
  8
ext3
  6
ByLayer
 62
  256
370
   -1
100
AcDbCircle
 10
-36.93331582631121
 20
47.5
 40
2
100
AcDbArc
 50
270.0000000000001
 51
331.8213572594701
  0
ARC
  5
13C
100
AcDbEntity
  8
ext3
  6
ByLayer
 62
  256
370
   -1
100
AcDbCircle
 10
-29
 20
43.25
 40
7
100
AcDbArc
 50
90
 51
151.8213572594701
  0
LINE
  5
13D
100
AcDbEntity
  8
ext3
  6
ByLayer
 62
  256
370
   -1
100
AcDbLine
 10
-29
 20
50.25
 11
-17.93331582631127
 21
50.25
  0
ARC
  5
13E
100
AcDbEntity
  8
ext3
  6
ByLayer
 62
  256
370
   -1
100
AcDbCircle
 10
-17.93331582631127
 20
52.25
 40
2
100
AcDbArc
 50
270
 51
331.8213572594703
  0
ARC
  5
13F
100
AcDbEntity
  8
ext3
  6
ByLayer
 62
  256
370
   -1
100
AcDbCircle
 10
-10
 20
48
 40
7
100
AcDbArc
 50
90
 51
151.8213572594703
  0
ARC
  5
140
100
AcDbEntity
  8
percage
  6
ByLayer
 62
  256
370
   -1
100
AcDbCircle
 10
-31
 20
40.5
 40
2
100
AcDbArc
 50
270
 51
0
  0
ARC
  5
141
100
AcDbEntity
  8
percage
  6
ByLayer
 62
  256
370
   -1
100
AcDbCircle
 10
-12
 20
45.25
 40
2
100
AcDbArc
 50
270
 51
0
  0
ARC
  5
142
100
AcDbEntity
  8
percage
  6
ByLayer
 62
  256
370
   -1
100
AcDbCircle
 10
31
 20
42.40000000000001
 40
0
100
AcDbArc
 50
180
 51
270
  0
ARC
  5
143
100
AcDbEntity
  8
percage
  6
ByLayer
 62
  256
370
   -1
100
AcDbCircle
 10
31
 20
42.40000000000001
 40
2
100
AcDbArc
 50
180
 51
270
  0
ARC
  5
144
100
AcDbEntity
  8
percage
  6
ByLayer
 62
  256
370
   -1
100
AcDbCircle
 10
49.5252805411413
 20
-17.4257786790886
 40
19
100
AcDbArc
 50
339.0000001487396
 51
0
  0
ARC
  5
145
100
AcDbEntity
  8
percage
  6
ByLayer
 62
  256
370
   -1
100
AcDbCircle
 10
-7.684541881288453
 20
-139.5
 40
101
100
AcDbArc
 50
83.24719651857612
 51
90
  0
LINE
  5
146
100
AcDbEntity
  8
percage
  6
ByLayer
 62
  256
370
   -1
100
AcDbLine
 10
-7.684541881288439
 20
-38.50000000000001
 11
-66
 21
-38.5
  0
ARC
  5
147
100
AcDbEntity
  8
percage
  6
ByLayer
 62
  256
370
   -1
100
AcDbCircle
 10
-66
 20
-37.5
 40
1
100
AcDbArc
 50
180
 51
270
  0
LINE
  5
148
100
AcDbEntity
  8
percage
  6
ByLayer
 62
  256
370
   -1
100
AcDbLine
 10
-67
 20
37.5
 11
-67
 21
-37.5
  0
LINE
  5
149
100
AcDbEntity
  8
percage
  6
ByLayer
 62
  256
370
   -1
100
AcDbLine
 10
-66
 20
38.5
 11
-31
 21
38.5
  0
ARC
  5
14A
100
AcDbEntity
  8
percage
  6
ByLayer
 62
  256
370
   -1
100
AcDbCircle
 10
-66
 20
37.5
 40
1
100
AcDbArc
 50
90
 51
180
  0
LINE
  5
14B
100
AcDbEntity
  8
percage
  6
ByLayer
 62
  256
370
   -1
100
AcDbLine
 10
-29
 20
40.5
 11
-29
 21
42.25
  0
LINE
  5
14C
100
AcDbEntity
  8
percage
  6
ByLayer
 62
  256
370
   -1
100
AcDbLine
 10
-28
 20
43.25
 11
-12
 21
43.25
  0
ARC
  5
14D
100
AcDbEntity
  8
percage
  6
ByLayer
 62
  256
370
   -1
100
AcDbCircle
 10
-28
 20
42.25
 40
1
100
AcDbArc
 50
90
 51
180
  0
LINE
  5
14E
100
AcDbEntity
  8
percage
  6
ByLayer
 62
  256
370
   -1
100
AcDbLine
 10
-10
 20
45.25
 11
-10
 21
47
  0
ARC
  5
14F
100
AcDbEntity
  8
percage
  6
ByLayer
 62
  256
370
   -1
100
AcDbCircle
 10
-9
 20
47
 40
1
100
AcDbArc
 50
90
 51
180
  0
LINE
  5
150
100
AcDbEntity
  8
percage
  6
ByLayer
 62
  256
370
   -1
100
AcDbLine
 10
-9
 20
48
 11
9.003752346684276
 21
48
  0
ARC
  5
151
100
AcDbEntity
  8
percage
  6
ByLayer
 62
  256
370
   -1
100
AcDbCircle
 10
12
 20
47.15000000000001
 40
2
100
AcDbArc
 50
182.8659839825991
 51
270
  0
ARC
  5
152
100
AcDbEntity
  8
percage
  6
ByLayer
 62
  256
370
   -1
100
AcDbCircle
 10
9.003752346684276
 20
47
 40
1
100
AcDbArc
 50
2.865983982599106
 51
90
  0
LINE
  5
153
100
AcDbEntity
  8
percage
  6
ByLayer
 62
  256
370
   -1
100
AcDbLine
 10
12
 20
45.15000000000001
 11
28
 21
45.15000000000001
  0
LINE
  5
154
100
AcDbEntity
  8
percage
  6
ByLayer
 62
  256
370
   -1
100
AcDbLine
 10
29
 20
44.15000000000001
 11
29
 21
42.40000000000001
  0
ARC
  5
155
100
AcDbEntity
  8
percage
  6
ByLayer
 62
  256
370
   -1
100
AcDbCircle
 10
28
 20
44.15000000000001
 40
1
100
AcDbArc
 50
0
 51
90
  0
LINE
  5
156
100
AcDbEntity
  8
percage
  6
ByLayer
 62
  256
370
   -1
100
AcDbLine
 10
31
 20
40.40000000000001
 11
67.52528054114131
 21
40.40000000000001
  0
LINE
  5
157
100
AcDbEntity
  8
percage
  6
ByLayer
 62
  256
370
   -1
100
AcDbLine
 10
68.5252805411413
 20
-17.4257786790886
 11
68.5252805411413
 21
39.40000000000002
  0
ARC
  5
158
100
AcDbEntity
  8
percage
  6
ByLayer
 62
  256
370
   -1
100
AcDbCircle
 10
67.5252805411413
 20
39.40000000000001
 40
1
100
AcDbArc
 50
4.071109992273301e-13
 51
89.99999999999919
  0
ARC
  5
159
100
AcDbEntity
  8
percage
  6
ByLayer
 62
  256
370
   -1
100
AcDbCircle
 10
-18.03256369570637
 20
-226.893359478035
 40
189.0038683032099
100
AcDbArc
 50
67.18912431872947
 51
83.24719651857612
  0
LINE
  5
15A
100
AcDbEntity
  8
percage
  6
ByLayer
 62
  256
370
   -1
100
AcDbLine
 10
67.26330866226427
 20
-24.23476967440147
 11
56.56372364531187
 21
-52.10814181510371
  0
ARC
  5
15B
100
AcDbEntity
  8
percage
  6
ByLayer
 62
  256
370
   -1
100
AcDbCircle
 10
55.63014321788435
 20
-51.74977386798197
 40
1
100
AcDbArc
 50
247.1891243187296
 51
339.0000001487393
  0
CIRCLE
  5
15C
100
AcDbEntity
  8
percage1
  6
ByLayer
 62
  256
370
   -1
100
AcDbCircle
 10
-47.5
 20
19
 40
1
  0
CIRCLE
  5
15D
100
AcDbEntity
  8
percage1
  6
ByLayer
 62
  256
370
   -1
100
AcDbCircle
 10
-47.5
 20
-19
 40
1
  0
ARC
  5
15E
100
AcDbEntity
  8
percage
  6
ByLayer
 62
  256
370
   -1
100
AcDbCircle
 10
-42.5
 20
21
 40
1
100
AcDbArc
 50
0
 51
90
  0
LINE
  5
15F
100
AcDbEntity
  8
percage
  6
ByLayer
 62
  256
370
   -1
100
AcDbLine
 10
-41.5
 20
17
 11
-41.5
 21
21
  0
ARC
  5
160
100
AcDbEntity
  8
percage
  6
ByLayer
 62
  256
370
   -1
100
AcDbCircle
 10
-42.5
 20
17
 40
1
100
AcDbArc
 50
270
 51
0
  0
LINE
  5
161
100
AcDbEntity
  8
percage
  6
ByLayer
 62
  256
370
   -1
100
AcDbLine
 10
-42.5
 20
16
 11
-52.5
 21
16
  0
ARC
  5
162
100
AcDbEntity
  8
percage
  6
ByLayer
 62
  256
370
   -1
100
AcDbCircle
 10
-52.5
 20
17
 40
1
100
AcDbArc
 50
180
 51
270
  0
LINE
  5
163
100
AcDbEntity
  8
percage
  6
ByLayer
 62
  256
370
   -1
100
AcDbLine
 10
-53.5
 20
17
 11
-53.5
 21
21
  0
LINE
  5
164
100
AcDbEntity
  8
percage
  6
ByLayer
 62
  256
370
   -1
100
AcDbLine
 10
-42.5
 20
22
 11
-52.5
 21
22
  0
ARC
  5
165
100
AcDbEntity
  8
percage
  6
ByLayer
 62
  256
370
   -1
100
AcDbCircle
 10
-52.5
 20
21
 40
1
100
AcDbArc
 50
90
 51
180
  0
ARC
  5
166
100
AcDbEntity
  8
percage
  6
ByLayer
 62
  256
370
   -1
100
AcDbCircle
 10
-42.5
 20
-17
 40
1
100
AcDbArc
 50
0
 51
90
  0
LINE
  5
167
100
AcDbEntity
  8
percage
  6
ByLayer
 62
  256
370
   -1
100
AcDbLine
 10
-41.5
 20
-21
 11
-41.5
 21
-17
  0
ARC
  5
168
100
AcDbEntity
  8
percage
  6
ByLayer
 62
  256
370
   -1
100
AcDbCircle
 10
-42.5
 20
-21
 40
1
100
AcDbArc
 50
270
 51
0
  0
LINE
  5
169
100
AcDbEntity
  8
percage
  6
ByLayer
 62
  256
370
   -1
100
AcDbLine
 10
-42.5
 20
-22
 11
-52.5
 21
-22
  0
ARC
  5
16A
100
AcDbEntity
  8
percage
  6
ByLayer
 62
  256
370
   -1
100
AcDbCircle
 10
-52.5
 20
-21
 40
1
100
AcDbArc
 50
180
 51
270
  0
LINE
  5
16B
100
AcDbEntity
  8
percage
  6
ByLayer
 62
  256
370
   -1
100
AcDbLine
 10
-53.5
 20
-21
 11
-53.5
 21
-17
  0
LINE
  5
16C
100
AcDbEntity
  8
percage
  6
ByLayer
 62
  256
370
   -1
100
AcDbLine
 10
-42.5
 20
-16
 11
-52.5
 21
-16
  0
ARC
  5
16D
100
AcDbEntity
  8
percage
  6
ByLayer
 62
  256
370
   -1
100
AcDbCircle
 10
-52.5
 20
-17
 40
1
100
AcDbArc
 50
90
 51
180
  0
ARC
  5
16E
100
AcDbEntity
  8
percage
  6
ByLayer
 62
  256
370
   -1
100
AcDbCircle
 10
8
 20
11.5
 40
1
100
AcDbArc
 50
0
 51
90
  0
LINE
  5
16F
100
AcDbEntity
  8
percage
  6
ByLayer
 62
  256
370
   -1
100
AcDbLine
 10
9
 20
7.5
 11
9
 21
11.5
  0
ARC
  5
170
100
AcDbEntity
  8
percage
  6
ByLayer
 62
  256
370
   -1
100
AcDbCircle
 10
8
 20
7.5
 40
1
100
AcDbArc
 50
270
 51
0
  0
LINE
  5
171
100
AcDbEntity
  8
percage
  6
ByLayer
 62
  256
370
   -1
100
AcDbLine
 10
-8
 20
6.5
 11
8
 21
6.5
  0
ARC
  5
172
100
AcDbEntity
  8
percage
  6
ByLayer
 62
  256
370
   -1
100
AcDbCircle
 10
-8
 20
7.5
 40
1
100
AcDbArc
 50
180
 51
270
  0
LINE
  5
173
100
AcDbEntity
  8
percage
  6
ByLayer
 62
  256
370
   -1
100
AcDbLine
 10
-9
 20
7.5
 11
-9
 21
11.5
  0
LINE
  5
174
100
AcDbEntity
  8
percage
  6
ByLayer
 62
  256
370
   -1
100
AcDbLine
 10
8
 20
12.5
 11
-8
 21
12.5
  0
ARC
  5
175
100
AcDbEntity
  8
percage
  6
ByLayer
 62
  256
370
   -1
100
AcDbCircle
 10
-8
 20
11.5
 40
1
100
AcDbArc
 50
90
 51
180
  0
ARC
  5
176
100
AcDbEntity
  8
percage
  6
ByLayer
 62
  256
370
   -1
100
AcDbCircle
 10
54.5
 20
31.90000000000002
 40
1
100
AcDbArc
 50
90
 51
180
  0
LINE
  5
177
100
AcDbEntity
  8
percage
  6
ByLayer
 62
  256
370
   -1
100
AcDbLine
 10
54.5
 20
32.90000000000001
 11
62.5
 21
32.90000000000001
  0
ARC
  5
178
100
AcDbEntity
  8
percage
  6
ByLayer
 62
  256
370
   -1
100
AcDbCircle
 10
62.5
 20
31.90000000000001
 40
1
100
AcDbArc
 50
0
 51
90
  0
LINE
  5
179
100
AcDbEntity
  8
percage
  6
ByLayer
 62
  256
370
   -1
100
AcDbLine
 10
63.5
 20
31.90000000000001
 11
63.5
 21
14.90000000000001
  0
ARC
  5
17A
100
AcDbEntity
  8
percage
  6
ByLayer
 62
  256
370
   -1
100
AcDbCircle
 10
62.5
 20
14.90000000000001
 40
1
100
AcDbArc
 50
270
 51
1.017777498068325e-13
  0
LINE
  5
17B
100
AcDbEntity
  8
percage
  6
ByLayer
 62
  256
370
   -1
100
AcDbLine
 10
54.5
 20
13.90000000000001
 11
62.5
 21
13.90000000000001
  0
LINE
  5
17C
100
AcDbEntity
  8
percage
  6
ByLayer
 62
  256
370
   -1
100
AcDbLine
 10
53.5
 20
31.90000000000002
 11
53.5
 21
14.90000000000001
  0
ARC
  5
17D
100
AcDbEntity
  8
percage
  6
ByLayer
 62
  256
370
   -1
100
AcDbCircle
 10
54.5
 20
14.90000000000001
 40
1
100
AcDbArc
 50
180
 51
270
  0
CIRCLE
  5
17E
100
AcDbEntity
  8
percage1
  6
ByLayer
 62
  256
370
   -1
100
AcDbCircle
 10
38
 20
1.899999999999999
 40
1
  0
ARC
  5
17F
100
AcDbEntity
  8
percage
  6
ByLayer
 62
  256
370
   -1
100
AcDbCircle
 10
43
 20
3.899999999999999
 40
1
100
AcDbArc
 50
0
 51
90
  0
LINE
  5
180
100
AcDbEntity
  8
percage
  6
ByLayer
 62
  256
370
   -1
100
AcDbLine
 10
44
 20
-0.1000000000000014
 11
44
 21
3.899999999999999
  0
ARC
  5
181
100
AcDbEntity
  8
percage
  6
ByLayer
 62
  256
370
   -1
100
AcDbCircle
 10
43
 20
-0.1000000000000014
 40
1
100
AcDbArc
 50
270
 51
0
  0
LINE
  5
182
100
AcDbEntity
  8
percage
  6
ByLayer
 62
  256
370
   -1
100
AcDbLine
 10
43
 20
-1.100000000000001
 11
33
 21
-1.100000000000001
  0
ARC
  5
183
100
AcDbEntity
  8
percage
  6
ByLayer
 62
  256
370
   -1
100
AcDbCircle
 10
33
 20
-0.1000000000000014
 40
1
100
AcDbArc
 50
180
 51
270
  0
LINE
  5
184
100
AcDbEntity
  8
percage
  6
ByLayer
 62
  256
370
   -1
100
AcDbLine
 10
32
 20
-0.1000000000000014
 11
32
 21
3.899999999999999
  0
LINE
  5
185
100
AcDbEntity
  8
percage
  6
ByLayer
 62
  256
370
   -1
100
AcDbLine
 10
43
 20
4.899999999999999
 11
33
 21
4.899999999999999
  0
ARC
  5
186
100
AcDbEntity
  8
percage
  6
ByLayer
 62
  256
370
   -1
100
AcDbCircle
 10
33
 20
3.899999999999999
 40
1
100
AcDbArc
 50
90
 51
180
  0
ARC
  5
187
100
AcDbEntity
  8
ajour
  6
ByLayer
 62
  256
370
   -1
100
AcDbCircle
 10
-7.684541881288453
 20
-139.5
 40
108
100
AcDbArc
 50
83.24719651857612
 51
90
  0
ARC
  5
188
100
AcDbEntity
  8
ajour
  6
ByLayer
 62
  256
370
   -1
100
AcDbCircle
 10
49.5252805411413
 20
-17.4257786790886
 40
12
100
AcDbArc
 50
339.0000001487396
 51
0
  0
ARC
  5
189
100
AcDbEntity
  8
ajour
  6
ByLayer
 62
  256
370
   -1
100
AcDbCircle
 10
-55
 20
4
 40
5
100
AcDbArc
 50
90
 51
180
  0
LINE
  5
18A
100
AcDbEntity
  8
ajour
  6
ByLayer
 62
  256
370
   -1
100
AcDbLine
 10
-60
 20
4
 11
-60
 21
-4
  0
ARC
  5
18B
100
AcDbEntity
  8
ajour
  6
ByLayer
 62
  256
370
   -1
100
AcDbCircle
 10
-55
 20
-4
 40
5
100
AcDbArc
 50
180
 51
270
  0
LINE
  5
18C
100
AcDbEntity
  8
ajour
  6
ByLayer
 62
  256
370
   -1
100
AcDbLine
 10
-39.5
 20
-9
 11
-55
 21
-9
  0
ARC
  5
18D
100
AcDbEntity
  8
ajour
  6
ByLayer
 62
  256
370
   -1
100
AcDbCircle
 10
-39.5
 20
-14
 40
5
100
AcDbArc
 50
0
 51
90
  0
LINE
  5
18E
100
AcDbEntity
  8
ajour
  6
ByLayer
 62
  256
370
   -1
100
AcDbLine
 10
-34.5
 20
-26.50000000000001
 11
-34.5
 21
-14
  0
LINE
  5
18F
100
AcDbEntity
  8
ajour
  6
ByLayer
 62
  256
370
   -1
100
AcDbLine
 10
-7.684541881288437
 20
-31.50000000000001
 11
-29.5
 21
-31.5
  0
ARC
  5
190
100
AcDbEntity
  8
ajour
  6
ByLayer
 62
  256
370
   -1
100
AcDbCircle
 10
-29.5
 20
-26.50000000000001
 40
5
100
AcDbArc
 50
180
 51
270
  0
ARC
  5
191
100
AcDbEntity
  8
ajour
  6
ByLayer
 62
  256
370
   -1
100
AcDbCircle
 10
-18.03256369570637
 20
-226.893359478035
 40
196.0038683032099
100
AcDbArc
 50
70.42418627547741
 51
83.24719651857612
  0
LINE
  5
192
100
AcDbEntity
  8
ajour
  6
ByLayer
 62
  256
370
   -1
100
AcDbLine
 10
60.7282456702716
 20
-21.72619404454935
 11
53.9824622062382
 21
-39.2995609158521
  0
ARC
  5
193
100
AcDbEntity
  8
ajour
  6
ByLayer
 62
  256
370
   -1
100
AcDbCircle
 10
49.31456006910059
 20
-37.50772118024344
 40
5
100
AcDbArc
 50
250.4241862754772
 51
339.0000001487394
  0
LINE
  5
194
100
AcDbEntity
  8
ajour
  6
ByLayer
 62
  256
370
   -1
100
AcDbLine
 10
61.5252805411413
 20
-17.4257786790886
 11
61.5252805411413
 21
-13.1
  0
ARC
  5
195
100
AcDbEntity
  8
ajour
  6
ByLayer
 62
  256
370
   -1
100
AcDbCircle
 10
56.5252805411413
 20
-13.1
 40
5
100
AcDbArc
 50
0
 51
90
  0
LINE
  5
196
100
AcDbEntity
  8
ajour
  6
ByLayer
 62
  256
370
   -1
100
AcDbLine
 10
56.5252805411413
 20
-8.100000000000001
 11
30
 21
-8.100000000000001
  0
ARC
  5
197
100
AcDbEntity
  8
ajour
  6
ByLayer
 62
  256
370
   -1
100
AcDbCircle
 10
30
 20
-3.100000000000001
 40
5
100
AcDbArc
 50
180
 51
269.9999999999999
  0
ARC
  5
198
100
AcDbEntity
  8
ajour
  6
ByLayer
 62
  256
370
   -1
100
AcDbCircle
 10
11
 20
4.5
 40
5
100
AcDbArc
 50
270
 51
0
  0
LINE
  5
199
100
AcDbEntity
  8
ajour
  6
ByLayer
 62
  256
370
   -1
100
AcDbLine
 10
-11
 20
-0.5
 11
11
 21
-0.5
  0
ARC
  5
19A
100
AcDbEntity
  8
ajour
  6
ByLayer
 62
  256
370
   -1
100
AcDbCircle
 10
-11
 20
4.5
 40
5
100
AcDbArc
 50
180
 51
270
  0
LINE
  5
19B
100
AcDbEntity
  8
ajour
  6
ByLayer
 62
  256
370
   -1
100
AcDbLine
 10
25
 20
6.899999999999998
 11
25
 21
-3.100000000000001
  0
ARC
  5
19C
100
AcDbEntity
  8
ajour
  6
ByLayer
 62
  256
370
   -1
100
AcDbCircle
 10
30
 20
6.899999999999999
 40
5
100
AcDbArc
 50
90
 51
180
  0
LINE
  5
19D
100
AcDbEntity
  8
ajour
  6
ByLayer
 62
  256
370
   -1
100
AcDbLine
 10
41.5
 20
11.9
 11
30
 21
11.9
  0
ARC
  5
19E
100
AcDbEntity
  8
ajour
  6
ByLayer
 62
  256
370
   -1
100
AcDbCircle
 10
41.5
 20
16.9
 40
5
100
AcDbArc
 50
270
 51
0
  0
LINE
  5
19F
100
AcDbEntity
  8
ajour
  6
ByLayer
 62
  256
370
   -1
100
AcDbLine
 10
46.5
 20
28.40000000000001
 11
46.5
 21
16.9
  0
ARC
  5
1A0
100
AcDbEntity
  8
ajour
  6
ByLayer
 62
  256
370
   -1
100
AcDbCircle
 10
41.5
 20
28.40000000000001
 40
5
100
AcDbArc
 50
0
 51
90
  0
LINE
  5
1A1
100
AcDbEntity
  8
ajour
  6
ByLayer
 62
  256
370
   -1
100
AcDbLine
 10
21
 20
33.40000000000001
 11
41.5
 21
33.40000000000001
  0
ARC
  5
1A2
100
AcDbEntity
  8
ajour
  6
ByLayer
 62
  256
370
   -1
100
AcDbCircle
 10
21
 20
28.40000000000002
 40
5
100
AcDbArc
 50
90
 51
180
  0
LINE
  5
1A3
100
AcDbEntity
  8
ajour
  6
ByLayer
 62
  256
370
   -1
100
AcDbLine
 10
-16
 20
4.5
 11
-16
 21
26.5
  0
ARC
  5
1A4
100
AcDbEntity
  8
ajour
  6
ByLayer
 62
  256
370
   -1
100
AcDbCircle
 10
-21
 20
26.5
 40
5
100
AcDbArc
 50
0
 51
90
  0
LINE
  5
1A5
100
AcDbEntity
  8
ajour
  6
ByLayer
 62
  256
370
   -1
100
AcDbLine
 10
-29.5
 20
31.5
 11
-21
 21
31.5
  0
ARC
  5
1A6
100
AcDbEntity
  8
ajour
  6
ByLayer
 62
  256
370
   -1
100
AcDbCircle
 10
-29.5
 20
26.5
 40
5
100
AcDbArc
 50
90
 51
180
  0
LINE
  5
1A7
100
AcDbEntity
  8
ajour
  6
ByLayer
 62
  256
370
   -1
100
AcDbLine
 10
-39.5
 20
9
 11
-55
 21
9
  0
LINE
  5
1A8
100
AcDbEntity
  8
ajour
  6
ByLayer
 62
  256
370
   -1
100
AcDbLine
 10
-34.5
 20
14
 11
-34.5
 21
26.5
  0
ARC
  5
1A9
100
AcDbEntity
  8
ajour
  6
ByLayer
 62
  256
370
   -1
100
AcDbCircle
 10
-39.5
 20
14
 40
5
100
AcDbArc
 50
270
 51
0
  0
LINE
  5
1AA
100
AcDbEntity
  8
ajour
  6
ByLayer
 62
  256
370
   -1
100
AcDbLine
 10
16
 20
4.5
 11
16
 21
28.40000000000002
  0
CIRCLE
  5
1AB
100
AcDbEntity
  8
ajour
  6
ByLayer
 62
  256
370
   -1
100
AcDbCircle
 10
0
 20
30
 40
8
  0
LINE
  5
1AC
100
AcDbEntity
  8
0
  6
ByLayer
 62
  256
370
   -1
100
AcDbLine
 10
-42.75
 20
-38.00000000000001
 11
-42.75
 21
-19.00000000000001
  0
LINE
  5
1AD
100
AcDbEntity
  8
placement
  6
ByLayer
 62
  256
370
   -1
100
AcDbLine
 10
-66.5
 20
-19
 11
-42.75
 21
-38.00000000000001
  0
LINE
  5
1AE
100
AcDbEntity
  8
0
  6
ByLayer
 62
  256
370
   -1
100
AcDbLine
 10
-33.25
 20
-18.99999999999999
 11
-33.25
 21
-37.99999999999999
  0
LINE
  5
1AF
100
AcDbEntity
  8
placement
  6
ByLayer
 62
  256
370
   -1
100
AcDbLine
 10
-33.25
 20
-19
 11
-9.5
 21
-38
  0
ENDSEC
  0
SECTION
  2
OBJECTS
  0
DICTIONARY
  5
C
330
0
100
AcDbDictionary
281
    1
  3
ACAD_GROUP
350
D
  0
DICTIONARY
  5
D
330
C
100
AcDbDictionary
281
    1
  0
PLOTSETTINGS
  5
1B0
100
AcDbPlotSettings
  6
1x1
 40
0
 41
0
 42
0
 43
0
  0
ENDSEC
  0
EOF
