999
dxfrw 0.6.3
  0
SECTION
  2
HEADER
  9
$ACADVER
  1
AC1021
  9
$DWGCODEPAGE
  3
ANSI_1252
  9
$INSBASE
 10
0
 20
0
 30
0
  9
$EXTMIN
 10
-115.2026958877995
 20
-45.57784685642528
 30
0
  9
$EXTMAX
 10
115.2026958877997
 20
48.93674606928201
 30
0
  9
$LIMMIN
 10
0
 20
0
  9
$LIMMAX
 10
420
 20
297
  9
$ORTHOMODE
 70
    0
  9
$REGENMODE
 70
    1
  9
$FILLMODE
 70
    1
  9
$QTEXTMODE
 70
    0
  9
$MIRRTEXT
 70
    0
  9
$LTSCALE
 40
1
  9
$ATTMODE
 70
    0
  9
$TEXTSIZE
 40
2.5
  9
$TRACEWID
 40
15.68
  9
$TEXTSTYLE
  7
STANDARD
  9
$CLAYER
  8
choc
  9
$CELTYPE
  6
BYLAYER
  9
$CECOLOR
 62
  256
  9
$CELTSCALE
 40
1
  9
$DISPSILH
 70
    0
  9
$DIMSCALE
 40
1
  9
$DIMASZ
 40
2.5
  9
$DIMEXO
 40
0.625
  9
$DIMDLI
 40
3.75
  9
$DIMRND
 40
0
  9
$DIMDLE
 40
0
  9
$DIMEXE
 40
1.25
  9
$DIMTP
 40
0
  9
$DIMTM
 40
0
  9
$DIMTXT
 40
2.5
  9
$DIMCEN
 40
2.5
  9
$DIMTSZ
 40
0
  9
$DIMTOL
 70
    0
  9
$DIMLIM
 70
    0
  9
$DIMTIH
 70
    0
  9
$DIMTOH
 70
    0
  9
$DIMSE1
 70
    0
  9
$DIMSE2
 70
    0
  9
$DIMTAD
 70
    1
  9
$DIMZIN
 70
    8
  9
$DIMBLK
  1

  9
$DIMASO
 70
    1
  9
$DIMSHO
 70
    1
  9
$DIMPOST
  1

  9
$DIMAPOST
  1

  9
$DIMALT
 70
    0
  9
$DIMALTD
 70
    3
  9
$DIMALTF
 40
0.03937
  9
$DIMLFAC
 40
1
  9
$DIMTOFL
 70
    1
  9
$DIMTVP
 40
0
  9
$DIMTIX
 70
    0
  9
$DIMSOXD
 70
    0
  9
$DIMSAH
 70
    0
  9
$DIMBLK1
  1

  9
$DIMBLK2
  1

  9
$DIMSTYLE
  2
STANDARD
  9
$DIMCLRD
 70
    0
  9
$DIMCLRE
 70
    0
  9
$DIMCLRT
 70
    0
  9
$DIMTFAC
 40
1
  9
$DIMGAP
 40
0.625
  9
$DIMJUST
 70
    0
  9
$DIMSD1
 70
    0
  9
$DIMSD2
 70
    0
  9
$DIMTOLJ
 70
    0
  9
$DIMTZIN
 70
    8
  9
$DIMALTZ
 70
    0
  9
$DIMALTTZ
 70
    0
  9
$DIMUPT
 70
    0
  9
$DIMDEC
 70
    2
  9
$DIMTDEC
 70
    2
  9
$DIMALTU
 70
    2
  9
$DIMALTTD
 70
    3
  9
$DIMTXSTY
  7
STANDARD
  9
$DIMAUNIT
 70
    0
  9
$DIMADEC
 70
    0
  9
$DIMALTRND
 40
0
  9
$DIMAZIN
 70
    0
  9
$DIMDSEP
 70
   44
  9
$DIMATFIT
 70
    3
  9
$DIMFRAC
 70
    0
  9
$DIMLDRBLK
  1
STANDARD
  9
$DIMLUNIT
 70
    2
  9
$DIMLWD
 70
   -2
  9
$DIMLWE
 70
   -2
  9
$DIMTMOVE
 70
    0
  9
$DIMFXL
 40
1
  9
$DIMFXLON
 70
    0
  9
$DIMJOGANG
 40
0.7854
  9
$DIMTFILL
 70
    0
  9
$DIMTFILLCLR
 70
    0
  9
$DIMARCSYM
 70
    0
  9
$DIMLTYPE
  6

  9
$DIMLTEX1
  6

  9
$DIMLTEX2
  6

  9
$LUNITS
 70
    2
  9
$LUPREC
 70
    4
  9
$SKETCHINC
 40
1
  9
$FILLETRAD
 40
0
  9
$AUNITS
 70
    0
  9
$AUPREC
 70
    2
  9
$MENU
  1
.
  9
$ELEVATION
 40
0
  9
$PELEVATION
 40
0
  9
$THICKNESS
 40
0
  9
$LIMCHECK
 70
    0
  9
$CHAMFERA
 40
0
  9
$CHAMFERB
 40
0
  9
$CHAMFERC
 40
0
  9
$CHAMFERD
 40
0
  9
$SKPOLY
 70
    0
  9
$USRTIMER
 70
    1
  9
$ANGBASE
 50
0
  9
$ANGDIR
 70
    0
  9
$PDMODE
 70
   34
  9
$PDSIZE
 40
0
  9
$PLINEWID
 40
0
  9
$SPLFRAME
 70
    0
  9
$SPLINETYPE
 70
    2
  9
$SPLINESEGS
 70
    8
  9
$HANDSEED
  5
20000
  9
$SURFTAB1
 70
    6
  9
$SURFTAB2
 70
    6
  9
$SURFTYPE
 70
    6
  9
$SURFU
 70
    6
  9
$SURFV
 70
    6
  9
$UCSBASE
  2

  9
$UCSNAME
  2

  9
$UCSORG
 10
0
 20
0
 30
0
  9
$UCSXDIR
 10
1
 20
0
 30
0
  9
$UCSYDIR
 10
0
 20
1
 30
0
  9
$UCSORTHOREF
  2

  9
$UCSORTHOVIEW
 70
    0
  9
$UCSORGTOP
 10
0
 20
0
 30
0
  9
$UCSORGBOTTOM
 10
0
 20
0
 30
0
  9
$UCSORGLEFT
 10
0
 20
0
 30
0
  9
$UCSORGRIGHT
 10
0
 20
0
 30
0
  9
$UCSORGFRONT
 10
0
 20
0
 30
0
  9
$UCSORGBACK
 10
0
 20
0
 30
0
  9
$PUCSBASE
  2

  9
$PUCSNAME
  2

  9
$PUCSORG
 10
0
 20
0
 30
0
  9
$PUCSXDIR
 10
1
 20
0
 30
0
  9
$PUCSYDIR
 10
0
 20
1
 30
0
  9
$PUCSORTHOREF
  2

  9
$PUCSORTHOVIEW
 70
    0
  9
$PUCSORGTOP
 10
0
 20
0
 30
0
  9
$PUCSORGBOTTOM
 10
0
 20
0
 30
0
  9
$PUCSORGLEFT
 10
0
 20
0
 30
0
  9
$PUCSORGRIGHT
 10
0
 20
0
 30
0
  9
$PUCSORGFRONT
 10
0
 20
0
 30
0
  9
$PUCSORGBACK
 10
0
 20
0
 30
0
  9
$USERI1
 70
    0
  9
$USERI2
 70
    0
  9
$USERI3
 70
    0
  9
$USERI4
 70
    0
  9
$USERI5
 70
    0
  9
$USERR1
 40
0
  9
$USERR2
 40
0
  9
$USERR3
 40
0
  9
$USERR4
 40
0
  9
$USERR5
 40
0
  9
$WORLDVIEW
 70
    1
  9
$SHADEDGE
 70
    3
  9
$SHADEDIF
 70
   70
  9
$TILEMODE
 70
    1
  9
$MAXACTVP
 70
   64
  9
$PINSBASE
 10
0
 20
0
 30
0
  9
$PLIMCHECK
 70
    0
  9
$PEXTMIN
 10
0
 20
0
 30
0
  9
$PEXTMAX
 10
0
 20
0
 30
0
  9
$SNAPSTYLE
 70
    0
  9
$PLIMMIN
 10
0
 20
0
  9
$PLIMMAX
 10
210
 20
297
  9
$UNITMODE
 70
    0
  9
$VISRETAIN
 70
    1
  9
$PLINEGEN
 70
    0
  9
$PSLTSCALE
 70
    1
  9
$TREEDEPTH
 70
 3020
  9
$CMLSTYLE
  2
Standard
  9
$CMLJUST
 70
    0
  9
$CMLSCALE
 40
20
  9
$PROXYGRAPHICS
 70
    1
  9
$MEASUREMENT
 70
    1
  9
$CELWEIGHT
370
   -1
  9
$ENDCAPS
280
    0
  9
$JOINSTYLE
280
    0
  9
$LWDISPLAY
290
    0
  9
$INSUNITS
 70
    0
  9
$HYPERLINKBASE
  1

  9
$STYLESHEET
  1

  9
$XEDIT
290
    1
  9
$CEPSNTYPE
380
    0
  9
$PSTYLEMODE
290
    1
  9
$EXTNAMES
290
    1
  9
$PSVPSCALE
 40
1
  9
$OLESTARTUP
290
    0
  9
$SORTENTS
280
  127
  9
$INDEXCTL
280
    0
  9
$HIDETEXT
280
    1
  9
$XCLIPFRAME
290
    0
  9
$HALOGAP
280
    0
  9
$OBSCOLOR
 70
  257
  9
$OBSLTYPE
280
    0
  9
$INTERSECTIONDISPLAY
280
    0
  9
$INTERSECTIONCOLOR
 70
  257
  9
$DIMASSOC
280
    1
  9
$PROJECTNAME
  1

  9
$CAMERADISPLAY
290
    0
  9
$LENSLENGTH
 40
50
  9
$CAMERAHEIGHT
 40
0
  9
$STEPSPERSEC
 40
2
  9
$STEPSIZE
 40
50
  9
$3DDWFPREC
 40
2
  9
$PSOLWIDTH
 40
5
  9
$PSOLHEIGHT
 40
80
  9
$LOFTANG1
 40
1.570796326794897
  9
$LOFTANG2
 40
1.570796326794897
  9
$LOFTMAG1
 40
0
  9
$LOFTMAG2
 40
0
  9
$LOFTPARAM
 70
    7
  9
$LOFTNORMALS
280
    1
  9
$LATITUDE
 40
1
  9
$LONGITUDE
 40
1
  9
$NORTHDIRECTION
 40
0
  9
$TIMEZONE
 70
-8000
  9
$LIGHTGLYPHDISPLAY
280
    1
  9
$TILEMODELIGHTSYNCH
280
    1
  9
$SOLIDHIST
280
    1
  9
$SHOWHIST
280
    1
  9
$DWFFRAME
280
    2
  9
$DGNFRAME
280
    0
  9
$REALWORLDSCALE
290
    1
  9
$INTERFERECOLOR
 62
    1
  9
$CSHADOW
280
    0
  9
$SHADOWPLANELOCATION
 40
0
  0
ENDSEC
  0
SECTION
  2
CLASSES
  0
ENDSEC
  0
SECTION
  2
TABLES
  0
TABLE
  2
VPORT
  5
8
330
0
100
AcDbSymbolTable
 70
    1
  0
VPORT
  5
31
330
2
100
AcDbSymbolTableRecord
100
AcDbViewportTableRecord
  2
*ACTIVE
 70
    0
 10
0
 20
0
 11
1
 21
1
 12
58.63836075467378
 22
37.14391340408596
 13
0
 23
0
 14
10
 24
10
 15
10
 25
10
 16
0
 26
0
 36
1
 17
0
 27
0
 37
0
 40
145.1817935083563
 41
1.612987012987013
 42
50
 43
0
 44
0
 50
0
 51
0
 71
    0
 72
  100
 73
    1
 74
    3
 75
    0
 76
    1
 77
    0
 78
    0
281
    0
 65
    1
110
0
120
0
130
0
111
1
121
0
131
0
112
0
122
1
132
0
 79
    0
146
0
348
10020
 60
    7
 61
    5
292
1
282
    1
141
0
142
0
 63
  250
421
3358443
  0
ENDTAB
  0
TABLE
  2
LTYPE
  5
5
330
0
100
AcDbSymbolTable
 70
    4
  0
LTYPE
  5
14
330
5
100
AcDbSymbolTableRecord
100
AcDbLinetypeTableRecord
  2
ByBlock
 70
    0
  3

 72
   65
 73
    0
 40
0
  0
LTYPE
  5
15
330
5
100
AcDbSymbolTableRecord
100
AcDbLinetypeTableRecord
  2
ByLayer
 70
    0
  3

 72
   65
 73
    0
 40
0
  0
LTYPE
  5
16
330
5
100
AcDbSymbolTableRecord
100
AcDbLinetypeTableRecord
  2
Continuous
 70
    0
  3
Solid line
 72
   65
 73
    0
 40
0
  0
LTYPE
  5
32
330
5
100
AcDbSymbolTableRecord
100
AcDbLinetypeTableRecord
  2
DOT
 70
    0
  3
Dot . . . . . . . . . . . . . . . . . . . . . .
 72
   65
 73
    2
 40
6.35
 49
0
 74
    0
 49
-6.35
 74
    0
  0
LTYPE
  5
33
330
5
100
AcDbSymbolTableRecord
100
AcDbLinetypeTableRecord
  2
DOTTINY
 70
    0
  3
Dot (.15x) .....................................
 72
   65
 73
    2
 40
0.9525
 49
0
 74
    0
 49
-0.9525
 74
    0
  0
LTYPE
  5
34
330
5
100
AcDbSymbolTableRecord
100
AcDbLinetypeTableRecord
  2
DOT2
 70
    0
  3
Dot (.5x) .....................................
 72
   65
 73
    2
 40
3.175
 49
0
 74
    0
 49
-3.175
 74
    0
  0
LTYPE
  5
35
330
5
100
AcDbSymbolTableRecord
100
AcDbLinetypeTableRecord
  2
DOTX2
 70
    0
  3
Dot (2x) .  .  .  .  .  .  .  .  .  .  .  .  .
 72
   65
 73
    2
 40
12.7
 49
0
 74
    0
 49
-12.7
 74
    0
  0
LTYPE
  5
36
330
5
100
AcDbSymbolTableRecord
100
AcDbLinetypeTableRecord
  2
DASHED
 70
    0
  3
Dashed _ _ _ _ _ _ _ _ _ _ _ _ _ _ _ _ _
 72
   65
 73
    2
 40
19.05
 49
12.7
 74
    0
 49
-6.35
 74
    0
  0
LTYPE
  5
37
330
5
100
AcDbSymbolTableRecord
100
AcDbLinetypeTableRecord
  2
DASHEDTINY
 70
    0
  3
Dashed (.15x) _ _ _ _ _ _ _ _ _ _ _ _ _ _ _ _ _
 72
   65
 73
    2
 40
2.8575
 49
1.905
 74
    0
 49
-0.9525
 74
    0
  0
LTYPE
  5
38
330
5
100
AcDbSymbolTableRecord
100
AcDbLinetypeTableRecord
  2
DASHED2
 70
    0
  3
Dashed (.5x) _ _ _ _ _ _ _ _ _ _ _ _ _ _ _ _ _
 72
   65
 73
    2
 40
9.524999999999999
 49
6.35
 74
    0
 49
-3.175
 74
    0
  0
LTYPE
  5
39
330
5
100
AcDbSymbolTableRecord
100
AcDbLinetypeTableRecord
  2
DASHEDX2
 70
    0
  3
Dashed (2x) ____  ____  ____  ____  ____  ___
 72
   65
 73
    2
 40
38.09999999999999
 49
25.4
 74
    0
 49
-12.7
 74
    0
  0
LTYPE
  5
3A
330
5
100
AcDbSymbolTableRecord
100
AcDbLinetypeTableRecord
  2
DASHDOT
 70
    0
  3
Dash dot __ . __ . __ . __ . __ . __ . __ . __
 72
   65
 73
    4
 40
25.4
 49
12.7
 74
    0
 49
-6.35
 74
    0
 49
0
 74
    0
 49
-6.35
 74
    0
  0
LTYPE
  5
3B
330
5
100
AcDbSymbolTableRecord
100
AcDbLinetypeTableRecord
  2
DASHDOTTINY
 70
    0
  3
Dash dot (.15x) _._._._._._._._._._._._._._._.
 72
   65
 73
    4
 40
3.81
 49
1.905
 74
    0
 49
-0.9525
 74
    0
 49
0
 74
    0
 49
-0.9525
 74
    0
  0
LTYPE
  5
3C
330
5
100
AcDbSymbolTableRecord
100
AcDbLinetypeTableRecord
  2
DASHDOT2
 70
    0
  3
Dash dot (.5x) _._._._._._._._._._._._._._._.
 72
   65
 73
    4
 40
12.7
 49
6.35
 74
    0
 49
-3.175
 74
    0
 49
0
 74
    0
 49
-3.175
 74
    0
  0
LTYPE
  5
3D
330
5
100
AcDbSymbolTableRecord
100
AcDbLinetypeTableRecord
  2
DASHDOTX2
 70
    0
  3
Dash dot (2x) ____  .  ____  .  ____  .  ___
 72
   65
 73
    4
 40
50.8
 49
25.4
 74
    0
 49
-12.7
 74
    0
 49
0
 74
    0
 49
-12.7
 74
    0
  0
LTYPE
  5
3E
330
5
100
AcDbSymbolTableRecord
100
AcDbLinetypeTableRecord
  2
DIVIDE
 70
    0
  3
Divide ____ . . ____ . . ____ . . ____ . . ____
 72
   65
 73
    6
 40
31.75
 49
12.7
 74
    0
 49
-6.35
 74
    0
 49
0
 74
    0
 49
-6.35
 74
    0
 49
0
 74
    0
 49
-6.35
 74
    0
  0
LTYPE
  5
3F
330
5
100
AcDbSymbolTableRecord
100
AcDbLinetypeTableRecord
  2
DIVIDETINY
 70
    0
  3
Divide (.15x) __..__..__..__..__..__..__..__.._
 72
   65
 73
    6
 40
4.7625
 49
1.905
 74
    0
 49
-0.9525
 74
    0
 49
0
 74
    0
 49
-0.9525
 74
    0
 49
0
 74
    0
 49
-0.9525
 74
    0
  0
LTYPE
  5
40
330
5
100
AcDbSymbolTableRecord
100
AcDbLinetypeTableRecord
  2
DIVIDE2
 70
    0
  3
Divide (.5x) __..__..__..__..__..__..__..__.._
 72
   65
 73
    6
 40
15.875
 49
6.35
 74
    0
 49
-3.175
 74
    0
 49
0
 74
    0
 49
-3.175
 74
    0
 49
0
 74
    0
 49
-3.175
 74
    0
  0
LTYPE
  5
41
330
5
100
AcDbSymbolTableRecord
100
AcDbLinetypeTableRecord
  2
DIVIDEX2
 70
    0
  3
Divide (2x) ________  .  .  ________  .  .  _
 72
   65
 73
    6
 40
63.5
 49
25.4
 74
    0
 49
-12.7
 74
    0
 49
0
 74
    0
 49
-12.7
 74
    0
 49
0
 74
    0
 49
-12.7
 74
    0
  0
LTYPE
  5
42
330
5
100
AcDbSymbolTableRecord
100
AcDbLinetypeTableRecord
  2
BORDER
 70
    0
  3
Border __ __ . __ __ . __ __ . __ __ . __ __ .
 72
   65
 73
    6
 40
44.45
 49
12.7
 74
    0
 49
-6.35
 74
    0
 49
12.7
 74
    0
 49
-6.35
 74
    0
 49
0
 74
    0
 49
-6.35
 74
    0
  0
LTYPE
  5
43
330
5
100
AcDbSymbolTableRecord
100
AcDbLinetypeTableRecord
  2
BORDERTINY
 70
    0
  3
Border (.15x) __.__.__.__.__.__.__.__.__.__.__.
 72
   65
 73
    6
 40
6.6675
 49
1.905
 74
    0
 49
-0.9525
 74
    0
 49
1.905
 74
    0
 49
-0.9525
 74
    0
 49
0
 74
    0
 49
-0.9525
 74
    0
  0
LTYPE
  5
44
330
5
100
AcDbSymbolTableRecord
100
AcDbLinetypeTableRecord
  2
BORDER2
 70
    0
  3
Border (.5x) __.__.__.__.__.__.__.__.__.__.__.
 72
   65
 73
    6
 40
22.225
 49
6.35
 74
    0
 49
-3.175
 74
    0
 49
6.35
 74
    0
 49
-3.175
 74
    0
 49
0
 74
    0
 49
-3.175
 74
    0
  0
LTYPE
  5
45
330
5
100
AcDbSymbolTableRecord
100
AcDbLinetypeTableRecord
  2
BORDERX2
 70
    0
  3
Border (2x) ____  ____  .  ____  ____  .  ___
 72
   65
 73
    6
 40
88.89999999999999
 49
25.4
 74
    0
 49
-12.7
 74
    0
 49
25.4
 74
    0
 49
-12.7
 74
    0
 49
0
 74
    0
 49
-12.7
 74
    0
  0
LTYPE
  5
46
330
5
100
AcDbSymbolTableRecord
100
AcDbLinetypeTableRecord
  2
CENTER
 70
    0
  3
Center ____ _ ____ _ ____ _ ____ _ ____ _ ____
 72
   65
 73
    4
 40
50.8
 49
31.75
 74
    0
 49
-6.35
 74
    0
 49
6.35
 74
    0
 49
-6.35
 74
    0
  0
LTYPE
  5
47
330
5
100
AcDbSymbolTableRecord
100
AcDbLinetypeTableRecord
  2
CENTERTINY
 70
    0
  3
Center (.15x) ___ _ ___ _ ___ _ ___ _ ___ _ ___
 72
   65
 73
    4
 40
7.619999999999999
 49
4.7625
 74
    0
 49
-0.9525
 74
    0
 49
0.9525
 74
    0
 49
-0.9525
 74
    0
  0
LTYPE
  5
48
330
5
100
AcDbSymbolTableRecord
100
AcDbLinetypeTableRecord
  2
CENTER2
 70
    0
  3
Center (.5x) ___ _ ___ _ ___ _ ___ _ ___ _ ___
 72
   65
 73
    4
 40
28.575
 49
19.05
 74
    0
 49
-3.175
 74
    0
 49
3.175
 74
    0
 49
-3.175
 74
    0
  0
LTYPE
  5
49
330
5
100
AcDbSymbolTableRecord
100
AcDbLinetypeTableRecord
  2
CENTERX2
 70
    0
  3
Center (2x) ________  __  ________  __  _____
 72
   65
 73
    4
 40
101.6
 49
63.5
 74
    0
 49
-12.7
 74
    0
 49
12.7
 74
    0
 49
-12.7
 74
    0
  0
ENDTAB
  0
TABLE
  2
LAYER
  5
2
330
0
100
AcDbSymbolTable
 70
    1
  0
LAYER
  5
10
330
2
100
AcDbSymbolTableRecord
100
AcDbLayerTableRecord
  2
0
 70
    0
 62
    7
  6
CONTINUOUS
370
    0
390
F
  0
LAYER
  5
4A
330
2
100
AcDbSymbolTableRecord
100
AcDbLayerTableRecord
  2
choc
 70
    0
 62
    1
  6
CONTINUOUS
370
    0
390
F
  0
LAYER
  5
4B
330
2
100
AcDbSymbolTableRecord
100
AcDbLayerTableRecord
  2
edge
 70
    0
 62
    2
  6
CONTINUOUS
370
    0
390
F
  0
LAYER
  5
4C
330
2
100
AcDbSymbolTableRecord
100
AcDbLayerTableRecord
  2
ext1
 70
    0
 62
  171
420
7371519
  6
CONTINUOUS
370
    0
390
F
  0
LAYER
  5
4D
330
2
100
AcDbSymbolTableRecord
100
AcDbLayerTableRecord
  2
ext2
 70
    0
 62
  175
420
4739266
  6
CONTINUOUS
370
    0
390
F
  0
LAYER
  5
4E
330
2
100
AcDbSymbolTableRecord
100
AcDbLayerTableRecord
  2
ext3
 70
    0
 62
  172
420
1579198
  6
CONTINUOUS
370
    0
390
F
  0
LAYER
  5
4F
330
2
100
AcDbSymbolTableRecord
100
AcDbLayerTableRecord
  2
int
 70
    0
 62
   96
420
32768
  6
CONTINUOUS
370
    0
390
F
  0
LAYER
  5
50
330
2
100
AcDbSymbolTableRecord
100
AcDbLayerTableRecord
  2
decoup-pi
 70
    0
 62
    6
  6
CONTINUOUS
370
    0
390
F
  0
LAYER
  5
51
330
2
100
AcDbSymbolTableRecord
100
AcDbLayerTableRecord
  2
percage
 70
    0
 62
    4
  6
CONTINUOUS
370
    0
390
F
  0
LAYER
  5
52
330
2
100
AcDbSymbolTableRecord
100
AcDbLayerTableRecord
  2
rpi
 70
    0
 62
  136
420
32896
  6
CONTINUOUS
370
    0
390
F
  0
ENDTAB
  0
TABLE
  2
STYLE
  5
3
330
0
100
AcDbSymbolTable
 70
    3
  0
STYLE
  5
53
330
2
100
AcDbSymbolTableRecord
100
AcDbTextStyleTableRecord
  2
Standard
 70
    0
 40
0
 41
1
 50
0
 71
    0
 42
1
  3
txt
  4

  0
ENDTAB
  0
TABLE
  2
VIEW
  5
6
330
0
100
AcDbSymbolTable
 70
    0
  0
ENDTAB
  0
TABLE
  2
UCS
  5
7
330
0
100
AcDbSymbolTable
 70
    0
  0
ENDTAB
  0
TABLE
  2
APPID
  5
9
330
0
100
AcDbSymbolTable
 70
    1
  0
APPID
  5
12
330
9
100
AcDbSymbolTableRecord
100
AcDbRegAppTableRecord
  2
ACAD
 70
    0
  0
APPID
  5
54
330
9
100
AcDbSymbolTableRecord
100
AcDbRegAppTableRecord
  2
LibreCad
 70
    0
  0
ENDTAB
  0
TABLE
  2
DIMSTYLE
  5
A
330
0
100
AcDbSymbolTable
 70
    1
100
AcDbDimStyleTable
 71
    1
  0
DIMSTYLE
105
55
330
A
100
AcDbSymbolTableRecord
100
AcDbDimStyleTableRecord
  2
Standard
 70
    0
 40
1
 41
2.5
 42
0.625
 43
0.38
 44
1.25
 45
0
 46
0
 47
0
 48
0
 49
1
140
2.5
141
0.09
142
0
143
25.4
144
1
145
0
146
1
147
0.625
148
0
 71
    0
 72
    0
 73
    0
 74
    1
 75
    0
 76
    0
 77
    0
 78
    1
 79
    0
170
    0
171
    2
172
    0
173
    0
174
    0
175
    0
176
    0
177
    0
178
    0
179
    0
271
    2
272
    4
273
    2
274
    2
275
    0
276
    0
277
    2
278
    0
279
    0
280
    0
281
    0
282
    0
283
    1
284
    0
285
    0
286
    0
288
    0
289
    3
340
standard
341

371
   -2
372
   -2
  0
ENDTAB
  0
TABLE
  2
BLOCK_RECORD
  5
1
330
0
100
AcDbSymbolTable
 70
    2
  0
BLOCK_RECORD
  5
1F
330
1
100
AcDbSymbolTableRecord
100
AcDbBlockTableRecord
  2
*Model_Space
 70
    0
280
    1
281
    0
  0
BLOCK_RECORD
  5
1E
330
1
100
AcDbSymbolTableRecord
100
AcDbBlockTableRecord
  2
*Paper_Space
 70
    0
280
    1
281
    0
  0
ENDTAB
  0
ENDSEC
  0
SECTION
  2
BLOCKS
  0
BLOCK
  5
20
330
1F
100
AcDbEntity
  8
0
100
AcDbBlockBegin
  2
*Model_Space
 70
    0
 10
0
 20
0
 30
0
  3
*Model_Space
  1

  0
ENDBLK
  5
21
330
1F
100
AcDbEntity
  8
0
100
AcDbBlockEnd
  0
BLOCK
  5
1C
330
1B
100
AcDbEntity
  8
0
100
AcDbBlockBegin
  2
*Paper_Space
 70
    0
 10
0
 20
0
 30
0
  3
*Paper_Space
  1

  0
ENDBLK
  5
1D
330
1F
100
AcDbEntity
  8
0
100
AcDbBlockEnd
  0
ENDSEC
  0
SECTION
  2
ENTITIES
  0
LINE
  5
56
100
AcDbEntity
  8
0
  6
ByLayer
 62
  256
370
   -1
100
AcDbLine
 10
9.172858800923311
 20
-23.89183124538805
 11
82.45269588779952
 21
-13.59302177434321
  0
LINE
  5
57
100
AcDbEntity
  8
0
  6
ByLayer
 62
  256
370
   -1
100
AcDbLine
 10
6.737329534122165
 20
-6.56214004241057
 11
9.172858800923311
 21
-23.89183124538805
  0
LINE
  5
58
100
AcDbEntity
  8
0
  6
ByLayer
 62
  256
370
   -1
100
AcDbLine
 10
80.01716662099837
 20
3.73666942863427
 11
82.45269588779952
 21
-13.59302177434321
  0
LINE
  5
59
100
AcDbEntity
  8
0
  6
ByLayer
 62
  256
370
   -1
100
AcDbLine
 10
25.05728880584122
 20
-3.987437674649362
 11
27.49281807264236
 21
-21.31712887762684
  0
LINE
  5
5A
100
AcDbEntity
  8
0
  6
ByLayer
 62
  256
370
   -1
100
AcDbLine
 10
43.37724807756027
 20
-1.412735306888154
 11
45.81277734436142
 21
-18.74242650986563
  0
LINE
  5
5B
100
AcDbEntity
  8
0
  6
ByLayer
 62
  256
370
   -1
100
AcDbLine
 10
61.69720734927933
 20
1.161967060873054
 11
64.13273661608046
 21
-16.16772414210442
  0
LINE
  5
5C
100
AcDbEntity
  8
0
  6
ByLayer
 62
  256
370
   -1
100
AcDbLine
 10
13.46177990318054
 20
12.05490234444751
 11
15.89730916998169
 21
-5.274788858529968
  0
LINE
  5
5D
100
AcDbEntity
  8
0
  6
ByLayer
 62
  256
370
   -1
100
AcDbLine
 10
86.74161699005674
 20
22.35371181549235
 11
89.1771462568579
 21
5.024020612514873
  0
LINE
  5
5E
100
AcDbEntity
  8
0
  6
ByLayer
 62
  256
370
   -1
100
AcDbLine
 10
31.7817391748996
 20
14.62960471220872
 11
34.21726844170075
 21
-2.70008649076876
  0
LINE
  5
5F
100
AcDbEntity
  8
0
  6
ByLayer
 62
  256
370
   -1
100
AcDbLine
 10
50.10169844661865
 20
17.20430707996993
 11
52.5372277134198
 21
-0.125384123007548
  0
LINE
  5
60
100
AcDbEntity
  8
0
  6
ByLayer
 62
  256
370
   -1
100
AcDbLine
 10
68.4216577183377
 20
19.77900944773114
 11
70.85718698513884
 21
2.44931824475366
  0
LINE
  5
61
100
AcDbEntity
  8
0
  6
ByLayer
 62
  256
370
   -1
100
AcDbLine
 10
6.737329534122165
 20
-6.56214004241057
 11
89.1771462568579
 21
5.024020612514873
  0
LINE
  5
62
100
AcDbEntity
  8
0
  6
ByLayer
 62
  256
370
   -1
100
AcDbLine
 10
6.446260818449631
 20
28.74091795548469
 11
79.72609790532583
 21
39.03972742652954
  0
LINE
  5
63
100
AcDbEntity
  8
0
  6
ByLayer
 62
  256
370
   -1
100
AcDbLine
 10
6.446260818449631
 20
28.74091795548469
 11
8.881790085250778
 21
11.41122675250722
  0
LINE
  5
64
100
AcDbEntity
  8
0
  6
ByLayer
 62
  256
370
   -1
100
AcDbLine
 10
79.72609790532583
 20
39.03972742652954
 11
82.16162717212698
 21
21.71003622355205
  0
LINE
  5
65
100
AcDbEntity
  8
0
  6
ByLayer
 62
  256
370
   -1
100
AcDbLine
 10
24.76622009016868
 20
31.31562032324589
 11
27.20174935696983
 21
13.98592912026842
  0
LINE
  5
66
100
AcDbEntity
  8
0
  6
ByLayer
 62
  256
370
   -1
100
AcDbLine
 10
43.08617936188774
 20
33.89032269100711
 11
45.52170862868889
 21
16.56063148802963
  0
LINE
  5
67
100
AcDbEntity
  8
0
  6
ByLayer
 62
  256
370
   -1
100
AcDbLine
 10
61.40613863360679
 20
36.46502505876832
 11
63.84166790040793
 21
19.13533385579084
  0
LINE
  5
68
100
AcDbEntity
  8
0
  6
ByLayer
 62
  256
370
   -1
100
AcDbLine
 10
8.881790085250778
 20
11.41122675250722
 11
86.74161699005674
 21
22.35371181549235
  0
LWPOLYLINE
  5
69
100
AcDbEntity
  8
0
  6
ByLayer
 62
  256
370
   -1
100
AcDbPolyline
 90
    4
 70
    1
 43
0
 10
82.07116446715813
 20
22.35371181549238
 10
105.1961644671581
 20
22.35371181549238
 10
105.1961644671581
 20
39.85371181549235
 10
82.07116446715813
 20
39.85371181549235
  0
LWPOLYLINE
  5
6A
100
AcDbEntity
  8
0
  6
ByLayer
 62
  256
370
   -1
100
AcDbPolyline
 90
    4
 70
    1
 43
0
 10
82.45269588779971
 20
-13.59302177434318
 10
110.2026958877997
 20
-13.59302177434318
 10
110.2026958877997
 20
3.906978225656805
 10
82.45269588779971
 20
3.906978225656805
  0
LINE
  5
6B
100
AcDbEntity
  8
0
  6
ByLayer
 62
  256
370
   -1
100
AcDbLine
 10
45.81277734436142
 20
-18.74242650986563
 11
48.24830661116257
 21
-36.07211771284311
  0
LINE
  5
6C
100
AcDbEntity
  8
0
  6
ByLayer
 62
  256
370
   -1
100
AcDbLine
 10
110.2026958877997
 20
-13.59302177434319
 11
110.2026958877997
 21
-31.09302177434318
  0
LINE
  5
6D
100
AcDbEntity
  8
0
  6
ByLayer
 62
  256
370
   -1
100
AcDbLine
 10
87.07769588779971
 20
-13.59302177434318
 11
87.07769588779971
 21
-31.09302177434317
  0
LINE
  5
6E
100
AcDbEntity
  8
0
  6
ByLayer
 62
  256
370
   -1
100
AcDbLine
 10
110.2026958877997
 20
-31.09302177434318
 11
87.07769588779971
 21
-31.09302177434317
  0
LINE
  5
6F
100
AcDbEntity
  8
choc
  6
ByLayer
 62
  256
370
   -1
100
AcDbLine
 10
41.81824533346259
 20
-2.894123319495231
 11
26.96422430233907
 21
-4.981719833896209
  0
LINE
  5
70
100
AcDbEntity
  8
choc
  6
ByLayer
 62
  256
370
   -1
100
AcDbLine
 10
26.96422430233907
 20
-4.981719833896209
 11
29.05182081674003
 21
-19.83574086501977
  0
LINE
  5
71
100
AcDbEntity
  8
choc
  6
ByLayer
 62
  256
370
   -1
100
AcDbLine
 10
29.05182081674003
 20
-19.83574086501977
 11
43.90584184786358
 21
-17.74814435061878
  0
LINE
  5
72
100
AcDbEntity
  8
choc
  6
ByLayer
 62
  256
370
   -1
100
AcDbLine
 10
43.90584184786358
 20
-17.74814435061878
 11
41.81824533346259
 21
-2.894123319495231
  0
LINE
  5
73
100
AcDbEntity
  8
choc
  6
ByLayer
 62
  256
370
   -1
100
AcDbLine
 10
23.49828606174353
 20
-5.468825687256439
 11
8.644265030620007
 21
-7.556422201657425
  0
LINE
  5
74
100
AcDbEntity
  8
choc
  6
ByLayer
 62
  256
370
   -1
100
AcDbLine
 10
8.644265030620007
 20
-7.556422201657425
 11
10.73186154502098
 21
-22.41044323278098
  0
LINE
  5
75
100
AcDbEntity
  8
choc
  6
ByLayer
 62
  256
370
   -1
100
AcDbLine
 10
10.73186154502098
 20
-22.41044323278098
 11
25.58588257614451
 21
-20.32284671838
  0
LINE
  5
76
100
AcDbEntity
  8
choc
  6
ByLayer
 62
  256
370
   -1
100
AcDbLine
 10
25.58588257614451
 20
-20.32284671838
 11
23.49828606174353
 21
-5.468825687256439
  0
LINE
  5
77
100
AcDbEntity
  8
choc
  6
ByLayer
 62
  256
370
   -1
100
AcDbLine
 10
60.13820460518165
 20
-0.3194209517340226
 11
45.28418357405813
 21
-2.407017466135001
  0
LINE
  5
78
100
AcDbEntity
  8
choc
  6
ByLayer
 62
  256
370
   -1
100
AcDbLine
 10
45.28418357405813
 20
-2.407017466135001
 11
47.3717800884591
 21
-17.26103849725856
  0
LINE
  5
79
100
AcDbEntity
  8
choc
  6
ByLayer
 62
  256
370
   -1
100
AcDbLine
 10
47.3717800884591
 20
-17.26103849725856
 11
62.22580111958263
 21
-15.17344198285757
  0
LINE
  5
7A
100
AcDbEntity
  8
choc
  6
ByLayer
 62
  256
370
   -1
100
AcDbLine
 10
62.22580111958263
 20
-15.17344198285757
 11
60.13820460518165
 21
-0.3194209517340226
  0
LINE
  5
7B
100
AcDbEntity
  8
choc
  6
ByLayer
 62
  256
370
   -1
100
AcDbLine
 10
78.45816387690068
 20
2.255281416027189
 11
63.60414284577717
 21
0.1676849016262111
  0
LINE
  5
7C
100
AcDbEntity
  8
choc
  6
ByLayer
 62
  256
370
   -1
100
AcDbLine
 10
63.60414284577717
 20
0.1676849016262111
 11
65.69173936017813
 21
-14.68633612949734
  0
LINE
  5
7D
100
AcDbEntity
  8
choc
  6
ByLayer
 62
  256
370
   -1
100
AcDbLine
 10
65.69173936017813
 20
-14.68633612949734
 11
80.54576039130167
 21
-12.59873961509636
  0
LINE
  5
7E
100
AcDbEntity
  8
choc
  6
ByLayer
 62
  256
370
   -1
100
AcDbLine
 10
80.54576039130167
 20
-12.59873961509636
 11
78.45816387690068
 21
2.255281416027189
  0
LINE
  5
7F
100
AcDbEntity
  8
choc
  6
ByLayer
 62
  256
370
   -1
100
AcDbLine
 10
85.18261424595906
 20
20.87232380288527
 11
70.32859321483554
 21
18.78472728848429
  0
LINE
  5
80
100
AcDbEntity
  8
choc
  6
ByLayer
 62
  256
370
   -1
100
AcDbLine
 10
70.32859321483554
 20
18.78472728848429
 11
72.41618972923651
 21
3.930706257360741
  0
LINE
  5
81
100
AcDbEntity
  8
choc
  6
ByLayer
 62
  256
370
   -1
100
AcDbLine
 10
72.41618972923651
 20
3.930706257360741
 11
87.27021076036004
 21
6.018302771761727
  0
LINE
  5
82
100
AcDbEntity
  8
choc
  6
ByLayer
 62
  256
370
   -1
100
AcDbLine
 10
87.27021076036004
 20
6.018302771761727
 11
85.18261424595906
 21
20.87232380288527
  0
LINE
  5
83
100
AcDbEntity
  8
choc
  6
ByLayer
 62
  256
370
   -1
100
AcDbLine
 10
66.86265497424002
 20
18.29762143512406
 11
52.0086339431165
 21
16.21002492072308
  0
LINE
  5
84
100
AcDbEntity
  8
choc
  6
ByLayer
 62
  256
370
   -1
100
AcDbLine
 10
52.0086339431165
 20
16.21002492072308
 11
54.09623045751747
 21
1.356003889599529
  0
LINE
  5
85
100
AcDbEntity
  8
choc
  6
ByLayer
 62
  256
370
   -1
100
AcDbLine
 10
54.09623045751747
 20
1.356003889599529
 11
68.950251488641
 21
3.443600404000514
  0
LINE
  5
86
100
AcDbEntity
  8
choc
  6
ByLayer
 62
  256
370
   -1
100
AcDbLine
 10
68.950251488641
 20
3.443600404000514
 11
66.86265497424002
 21
18.29762143512406
  0
LINE
  5
87
100
AcDbEntity
  8
choc
  6
ByLayer
 62
  256
370
   -1
100
AcDbLine
 10
48.54269570252097
 20
15.72291906736285
 11
33.68867467139744
 21
13.63532255296187
  0
LINE
  5
88
100
AcDbEntity
  8
choc
  6
ByLayer
 62
  256
370
   -1
100
AcDbLine
 10
33.68867467139744
 20
13.63532255296187
 11
35.77627118579841
 21
-1.218698478161683
  0
LINE
  5
89
100
AcDbEntity
  8
choc
  6
ByLayer
 62
  256
370
   -1
100
AcDbLine
 10
35.77627118579841
 20
-1.218698478161683
 11
50.63029221692195
 21
0.8688980362393025
  0
LINE
  5
8A
100
AcDbEntity
  8
choc
  6
ByLayer
 62
  256
370
   -1
100
AcDbLine
 10
50.63029221692195
 20
0.8688980362393025
 11
48.54269570252097
 21
15.72291906736285
  0
LINE
  5
8B
100
AcDbEntity
  8
choc
  6
ByLayer
 62
  256
370
   -1
100
AcDbLine
 10
30.22273643080191
 20
13.14821669960164
 11
15.36871539967839
 21
11.06062018520066
  0
LINE
  5
8C
100
AcDbEntity
  8
choc
  6
ByLayer
 62
  256
370
   -1
100
AcDbLine
 10
15.36871539967839
 20
11.06062018520066
 11
17.45631191407936
 21
-3.793400845922895
  0
LINE
  5
8D
100
AcDbEntity
  8
choc
  6
ByLayer
 62
  256
370
   -1
100
AcDbLine
 10
17.45631191407936
 20
-3.793400845922895
 11
32.3103329452029
 21
-1.70580433152191
  0
LINE
  5
8E
100
AcDbEntity
  8
choc
  6
ByLayer
 62
  256
370
   -1
100
AcDbLine
 10
32.3103329452029
 20
-1.70580433152191
 11
30.22273643080191
 21
13.14821669960164
  0
LINE
  5
8F
100
AcDbEntity
  8
choc
  6
ByLayer
 62
  256
370
   -1
100
AcDbLine
 10
23.207217346071
 20
29.83423231063881
 11
8.353196314947478
 21
27.74663579623784
  0
LINE
  5
90
100
AcDbEntity
  8
choc
  6
ByLayer
 62
  256
370
   -1
100
AcDbLine
 10
8.353196314947478
 20
27.74663579623784
 11
10.44079282934845
 21
12.89261476511429
  0
LINE
  5
91
100
AcDbEntity
  8
choc
  6
ByLayer
 62
  256
370
   -1
100
AcDbLine
 10
10.44079282934845
 20
12.89261476511429
 11
25.29481386047199
 21
14.98021127951527
  0
LINE
  5
92
100
AcDbEntity
  8
choc
  6
ByLayer
 62
  256
370
   -1
100
AcDbLine
 10
25.29481386047199
 20
14.98021127951527
 11
23.207217346071
 21
29.83423231063881
  0
LINE
  5
93
100
AcDbEntity
  8
choc
  6
ByLayer
 62
  256
370
   -1
100
AcDbLine
 10
41.52717661779005
 20
32.40893467840003
 11
26.67315558666653
 21
30.32133816399905
  0
LINE
  5
94
100
AcDbEntity
  8
choc
  6
ByLayer
 62
  256
370
   -1
100
AcDbLine
 10
26.67315558666653
 20
30.32133816399905
 11
28.7607521010675
 21
15.46731713287549
  0
LINE
  5
95
100
AcDbEntity
  8
choc
  6
ByLayer
 62
  256
370
   -1
100
AcDbLine
 10
28.7607521010675
 20
15.46731713287549
 11
43.61477313219104
 21
17.55491364727648
  0
LINE
  5
96
100
AcDbEntity
  8
choc
  6
ByLayer
 62
  256
370
   -1
100
AcDbLine
 10
43.61477313219104
 20
17.55491364727648
 11
41.52717661779005
 21
32.40893467840003
  0
LINE
  5
97
100
AcDbEntity
  8
choc
  6
ByLayer
 62
  256
370
   -1
100
AcDbLine
 10
59.84713588950911
 20
34.98363704616124
 11
44.99311485838559
 21
32.89604053176026
  0
LINE
  5
98
100
AcDbEntity
  8
choc
  6
ByLayer
 62
  256
370
   -1
100
AcDbLine
 10
44.99311485838559
 20
32.89604053176026
 11
47.08071137278656
 21
18.04201950063671
  0
LINE
  5
99
100
AcDbEntity
  8
choc
  6
ByLayer
 62
  256
370
   -1
100
AcDbLine
 10
47.08071137278656
 20
18.04201950063671
 11
61.9347324039101
 21
20.12961601503769
  0
LINE
  5
9A
100
AcDbEntity
  8
choc
  6
ByLayer
 62
  256
370
   -1
100
AcDbLine
 10
61.9347324039101
 20
20.12961601503769
 11
59.84713588950911
 21
34.98363704616124
  0
LINE
  5
9B
100
AcDbEntity
  8
choc
  6
ByLayer
 62
  256
370
   -1
100
AcDbLine
 10
78.16709516122813
 20
37.55833941392245
 11
63.31307413010462
 21
35.47074289952148
  0
LINE
  5
9C
100
AcDbEntity
  8
choc
  6
ByLayer
 62
  256
370
   -1
100
AcDbLine
 10
63.31307413010462
 20
35.47074289952148
 11
65.40067064450558
 21
20.61672186839791
  0
LINE
  5
9D
100
AcDbEntity
  8
choc
  6
ByLayer
 62
  256
370
   -1
100
AcDbLine
 10
65.40067064450558
 20
20.61672186839791
 11
80.25469167562912
 21
22.7043183827989
  0
LINE
  5
9E
100
AcDbEntity
  8
choc
  6
ByLayer
 62
  256
370
   -1
100
AcDbLine
 10
80.25469167562912
 20
22.7043183827989
 11
78.16709516122813
 21
37.55833941392245
  0
LWPOLYLINE
  5
9F
100
AcDbEntity
  8
0
  6
ByLayer
 62
  256
370
   -1
100
AcDbPolyline
 90
    4
 70
    1
 43
0
 10
89.1771462568579
 20
21.8803450205746
 10
107.6771462568579
 20
21.8803450205746
 10
107.6771462568579
 20
4.3803450205746
 10
89.1771462568579
 20
4.3803450205746
  0
LWPOLYLINE
  5
A0
100
AcDbEntity
  8
choc
  6
ByLayer
 62
  256
370
   -1
100
AcDbPolyline
 90
    4
 70
    1
 43
0
 10
90.9271462568579
 20
20.6303450205746
 10
105.9271462568579
 20
20.6303450205746
 10
105.9271462568579
 20
5.6303450205746
 10
90.9271462568579
 20
5.6303450205746
  0
LWPOLYLINE
  5
A1
100
AcDbEntity
  8
choc
  6
ByLayer
 62
  256
370
   -1
100
AcDbPolyline
 90
    4
 70
    1
 43
0
 10
86.13366446715814
 20
38.60371181549235
 10
101.1336644671581
 20
38.60371181549235
 10
101.1336644671581
 20
23.60371181549231
 10
86.13366446715814
 20
23.60371181549231
  0
LWPOLYLINE
  5
A2
100
AcDbEntity
  8
choc
  6
ByLayer
 62
  256
370
   -1
100
AcDbPolyline
 90
    4
 70
    1
 43
0
 10
91.14019588779972
 20
-14.84302177434319
 10
106.1401958877997
 20
-14.84302177434319
 10
106.1401958877997
 20
-29.84302177434322
 10
91.14019588779972
 20
-29.84302177434322
  0
LWPOLYLINE
  5
A3
100
AcDbEntity
  8
choc
  6
ByLayer
 62
  256
370
   -1
100
AcDbPolyline
 90
    4
 70
    1
 43
0
 10
88.82769588779971
 20
2.656978225656812
 10
103.8276958877997
 20
2.656978225656812
 10
103.8276958877997
 20
-12.34302177434319
 10
88.82769588779971
 20
-12.34302177434319
  0
LINE
  5
A4
100
AcDbEntity
  8
0
  6
ByLayer
 62
  256
370
   -1
100
AcDbLine
 10
-4.547858800923328
 20
-23.89183124538805
 11
-77.82769588779954
 21
-13.59302177434318
  0
LINE
  5
A5
100
AcDbEntity
  8
0
  6
ByLayer
 62
  256
370
   -1
100
AcDbLine
 10
-2.112329534122174
 20
-6.56214004241057
 11
-4.547858800923328
 21
-23.89183124538805
  0
LINE
  5
A6
100
AcDbEntity
  8
0
  6
ByLayer
 62
  256
370
   -1
100
AcDbLine
 10
-75.39216662099838
 20
3.736669428634298
 11
-77.82769588779954
 21
-13.59302177434318
  0
LINE
  5
A7
100
AcDbEntity
  8
0
  6
ByLayer
 62
  256
370
   -1
100
AcDbLine
 10
-20.43228880584122
 20
-3.987437674649355
 11
-22.86781807264238
 21
-21.31712887762682
  0
LINE
  5
A8
100
AcDbEntity
  8
0
  6
ByLayer
 62
  256
370
   -1
100
AcDbLine
 10
-38.75224807756027
 20
-1.41273530688814
 11
-41.18777734436143
 21
-18.74242650986561
  0
LINE
  5
A9
100
AcDbEntity
  8
0
  6
ByLayer
 62
  256
370
   -1
100
AcDbLine
 10
-57.07220734927933
 20
1.161967060873076
 11
-59.50773661608047
 21
-16.1677241421044
  0
LINE
  5
AA
100
AcDbEntity
  8
0
  6
ByLayer
 62
  256
370
   -1
100
AcDbLine
 10
-8.836779903180545
 20
12.05490234444751
 11
-11.2723091699817
 21
-5.274788858529961
  0
LINE
  5
AB
100
AcDbEntity
  8
0
  6
ByLayer
 62
  256
370
   -1
100
AcDbLine
 10
-82.11661699005674
 20
22.35371181549238
 11
-84.55214625685791
 21
5.024020612514901
  0
LINE
  5
AC
100
AcDbEntity
  8
0
  6
ByLayer
 62
  256
370
   -1
100
AcDbLine
 10
-27.1567391748996
 20
14.62960471220873
 11
-29.59226844170075
 21
-2.700086490768746
  0
LINE
  5
AD
100
AcDbEntity
  8
0
  6
ByLayer
 62
  256
370
   -1
100
AcDbLine
 10
-45.47669844661865
 20
17.20430707996994
 11
-47.9122277134198
 21
-0.1253841230075267
  0
LINE
  5
AE
100
AcDbEntity
  8
0
  6
ByLayer
 62
  256
370
   -1
100
AcDbLine
 10
-63.79665771833769
 20
19.77900944773117
 11
-66.23218698513885
 21
2.449318244753689
  0
LINE
  5
AF
100
AcDbEntity
  8
0
  6
ByLayer
 62
  256
370
   -1
100
AcDbLine
 10
-2.112329534122174
 20
-6.56214004241057
 11
-84.55214625685791
 21
5.024020612514901
  0
LINE
  5
B0
100
AcDbEntity
  8
0
  6
ByLayer
 62
  256
370
   -1
100
AcDbLine
 10
-11.55373918155037
 20
30.10872858835783
 11
-84.83357626842657
 21
40.40753805940271
  0
LINE
  5
B1
100
AcDbEntity
  8
0
  6
ByLayer
 62
  256
370
   -1
100
AcDbLine
 10
-11.55373918155037
 20
30.10872858835783
 11
-13.98926844835152
 21
12.77903738538036
  0
LINE
  5
B2
100
AcDbEntity
  8
0
  6
ByLayer
 62
  256
370
   -1
100
AcDbLine
 10
-29.87369845326942
 20
32.68343095611904
 11
-32.30922772007057
 21
15.35373975314158
  0
LINE
  5
B3
100
AcDbEntity
  8
0
  6
ByLayer
 62
  256
370
   -1
100
AcDbLine
 10
-48.19365772498846
 20
35.25813332388027
 11
-50.62918699178963
 21
17.92844212090279
  0
LINE
  5
B4
100
AcDbEntity
  8
0
  6
ByLayer
 62
  256
370
   -1
100
AcDbLine
 10
-66.51361699670753
 20
37.83283569164149
 11
-68.94914626350867
 21
20.50314448866402
  0
LINE
  5
B5
100
AcDbEntity
  8
0
  6
ByLayer
 62
  256
370
   -1
100
AcDbLine
 10
-87.26910553522772
 20
23.07784685642522
 11
-8.836779903180545
 21
12.05490234444751
  0
LWPOLYLINE
  5
B6
100
AcDbEntity
  8
0
  6
ByLayer
 62
  256
370
   -1
100
AcDbPolyline
 90
    4
 70
    1
 43
0
 10
-87.26910553522772
 20
40.57784685642523
 10
-105.7691055352277
 20
40.57784685642523
 10
-105.7691055352277
 20
23.07784685642522
 10
-87.26910553522772
 20
23.07784685642522
  0
LINE
  5
B7
100
AcDbEntity
  8
0
  6
ByLayer
 62
  256
370
   -1
100
AcDbLine
 10
-84.83357626842657
 20
40.40753805940271
 11
-87.26910553522772
 21
23.07784685642522
  0
LWPOLYLINE
  5
B8
100
AcDbEntity
  8
0
  6
ByLayer
 62
  256
370
   -1
100
AcDbPolyline
 90
    4
 70
    1
 43
0
 10
-110.2026958877995
 20
3.90697822565682
 10
-77.82769588779954
 20
3.90697822565682
 10
-77.82769588779954
 20
-13.59302177434319
 10
-110.2026958877995
 20
-13.59302177434319
  0
LWPOLYLINE
  5
B9
100
AcDbEntity
  8
0
  6
ByLayer
 62
  256
370
   -1
100
AcDbPolyline
 90
    4
 70
    1
 43
0
 10
-107.6771462568579
 20
22.24241254104102
 10
-84.55214625685788
 20
22.24241254104102
 10
-84.55214625685788
 20
4.742412541040993
 10
-107.6771462568579
 20
4.742412541040993
  0
LINE
  5
BA
100
AcDbEntity
  8
0
  6
ByLayer
 62
  256
370
   -1
100
AcDbLine
 10
-64.08772643401025
 20
-15.52404855016408
 11
-66.5232557008114
 21
-32.85373975314156
  0
LINE
  5
BB
100
AcDbEntity
  8
0
  6
ByLayer
 62
  256
370
   -1
100
AcDbLine
 10
-110.2026958877995
 20
-13.59302177434319
 11
-110.2026958877995
 21
-31.09302177434319
  0
LINE
  5
BC
100
AcDbEntity
  8
0
  6
ByLayer
 62
  256
370
   -1
100
AcDbLine
 10
-87.07769588779954
 20
-13.59302177434319
 11
-87.07769588779954
 21
-31.0930217743432
  0
LINE
  5
BD
100
AcDbEntity
  8
0
  6
ByLayer
 62
  256
370
   -1
100
AcDbLine
 10
-110.2026958877995
 20
-31.09302177434319
 11
-87.07769588779954
 21
-31.0930217743432
  0
LINE
  5
BE
100
AcDbEntity
  8
choc
  6
ByLayer
 62
  256
370
   -1
100
AcDbLine
 10
-83.27457352432889
 20
38.92615004679563
 11
-68.42055249320536
 21
36.83855353239464
  0
LINE
  5
BF
100
AcDbEntity
  8
choc
  6
ByLayer
 62
  256
370
   -1
100
AcDbLine
 10
-68.42055249320536
 20
36.83855353239464
 11
-70.50814900760633
 21
21.98453250127109
  0
LINE
  5
C0
100
AcDbEntity
  8
choc
  6
ByLayer
 62
  256
370
   -1
100
AcDbLine
 10
-70.50814900760633
 20
21.98453250127109
 11
-85.36217003872987
 21
24.07212901567207
  0
LINE
  5
C1
100
AcDbEntity
  8
choc
  6
ByLayer
 62
  256
370
   -1
100
AcDbLine
 10
-85.36217003872987
 20
24.07212901567207
 11
-83.27457352432889
 21
38.92615004679563
  0
LINE
  5
C2
100
AcDbEntity
  8
choc
  6
ByLayer
 62
  256
370
   -1
100
AcDbLine
 10
-64.95461425260984
 20
36.35144767903441
 11
-50.10059322148631
 21
34.26385116463342
  0
LINE
  5
C3
100
AcDbEntity
  8
choc
  6
ByLayer
 62
  256
370
   -1
100
AcDbLine
 10
-50.10059322148631
 20
34.26385116463342
 11
-52.18818973588728
 21
19.40983013350987
  0
LINE
  5
C4
100
AcDbEntity
  8
choc
  6
ByLayer
 62
  256
370
   -1
100
AcDbLine
 10
-52.18818973588728
 20
19.40983013350987
 11
-67.04221076701083
 21
21.49742664791085
  0
LINE
  5
C5
100
AcDbEntity
  8
choc
  6
ByLayer
 62
  256
370
   -1
100
AcDbLine
 10
-67.04221076701083
 20
21.49742664791085
 11
-64.95461425260984
 21
36.35144767903441
  0
LINE
  5
C6
100
AcDbEntity
  8
choc
  6
ByLayer
 62
  256
370
   -1
100
AcDbLine
 10
-46.63465498089078
 20
33.77674531127319
 11
-31.78063394976726
 21
31.6891487968722
  0
LINE
  5
C7
100
AcDbEntity
  8
choc
  6
ByLayer
 62
  256
370
   -1
100
AcDbLine
 10
-31.78063394976726
 20
31.6891487968722
 11
-33.86823046416823
 21
16.83512776574865
  0
LINE
  5
C8
100
AcDbEntity
  8
choc
  6
ByLayer
 62
  256
370
   -1
100
AcDbLine
 10
-33.86823046416823
 20
16.83512776574865
 11
-48.72225149529176
 21
18.92272428014963
  0
LINE
  5
C9
100
AcDbEntity
  8
choc
  6
ByLayer
 62
  256
370
   -1
100
AcDbLine
 10
-48.72225149529176
 20
18.92272428014963
 11
-46.63465498089078
 21
33.77674531127319
  0
LINE
  5
CA
100
AcDbEntity
  8
choc
  6
ByLayer
 62
  256
370
   -1
100
AcDbLine
 10
-28.31469570917174
 20
31.20204294351195
 11
-13.46067467804822
 21
29.11444642911097
  0
LINE
  5
CB
100
AcDbEntity
  8
choc
  6
ByLayer
 62
  256
370
   -1
100
AcDbLine
 10
-13.46067467804822
 20
29.11444642911097
 11
-15.54827119244919
 21
14.26042539798742
  0
LINE
  5
CC
100
AcDbEntity
  8
choc
  6
ByLayer
 62
  256
370
   -1
100
AcDbLine
 10
-15.54827119244919
 20
14.26042539798742
 11
-30.40229222357273
 21
16.3480219123884
  0
LINE
  5
CD
100
AcDbEntity
  8
choc
  6
ByLayer
 62
  256
370
   -1
100
AcDbLine
 10
-30.40229222357273
 20
16.3480219123884
 11
-28.31469570917174
 21
31.20204294351195
  0
LINE
  5
CE
100
AcDbEntity
  8
choc
  6
ByLayer
 62
  256
370
   -1
100
AcDbLine
 10
-25.59773643080191
 20
13.14821669960165
 11
-10.74371539967839
 21
11.06062018520066
  0
LINE
  5
CF
100
AcDbEntity
  8
choc
  6
ByLayer
 62
  256
370
   -1
100
AcDbLine
 10
-10.74371539967839
 20
11.06062018520066
 11
-12.83131191407936
 21
-3.793400845922891
  0
LINE
  5
D0
100
AcDbEntity
  8
choc
  6
ByLayer
 62
  256
370
   -1
100
AcDbLine
 10
-12.83131191407936
 20
-3.793400845922891
 11
-27.6853329452029
 21
-1.705804331521906
  0
LINE
  5
D1
100
AcDbEntity
  8
choc
  6
ByLayer
 62
  256
370
   -1
100
AcDbLine
 10
-27.6853329452029
 20
-1.705804331521906
 11
-25.59773643080191
 21
13.14821669960165
  0
LINE
  5
D2
100
AcDbEntity
  8
choc
  6
ByLayer
 62
  256
370
   -1
100
AcDbLine
 10
-43.91769570252097
 20
15.72291906736286
 11
-29.06367467139745
 21
13.63532255296187
  0
LINE
  5
D3
100
AcDbEntity
  8
choc
  6
ByLayer
 62
  256
370
   -1
100
AcDbLine
 10
-29.06367467139745
 20
13.63532255296187
 11
-31.15127118579842
 21
-1.218698478161679
  0
LINE
  5
D4
100
AcDbEntity
  8
choc
  6
ByLayer
 62
  256
370
   -1
100
AcDbLine
 10
-31.15127118579842
 20
-1.218698478161679
 11
-46.00529221692195
 21
0.8688980362393061
  0
LINE
  5
D5
100
AcDbEntity
  8
choc
  6
ByLayer
 62
  256
370
   -1
100
AcDbLine
 10
-46.00529221692195
 20
0.8688980362393061
 11
-43.91769570252097
 21
15.72291906736286
  0
LINE
  5
D6
100
AcDbEntity
  8
choc
  6
ByLayer
 62
  256
370
   -1
100
AcDbLine
 10
-62.23765497424001
 20
18.29762143512407
 11
-47.38363394311649
 21
16.21002492072309
  0
LINE
  5
D7
100
AcDbEntity
  8
choc
  6
ByLayer
 62
  256
370
   -1
100
AcDbLine
 10
-47.38363394311649
 20
16.21002492072309
 11
-49.47123045751746
 21
1.35600388959954
  0
LINE
  5
D8
100
AcDbEntity
  8
choc
  6
ByLayer
 62
  256
370
   -1
100
AcDbLine
 10
-49.47123045751746
 20
1.35600388959954
 11
-64.325251488641
 21
3.443600404000525
  0
LINE
  5
D9
100
AcDbEntity
  8
choc
  6
ByLayer
 62
  256
370
   -1
100
AcDbLine
 10
-64.325251488641
 20
3.443600404000525
 11
-62.23765497424001
 21
18.29762143512407
  0
LINE
  5
DA
100
AcDbEntity
  8
choc
  6
ByLayer
 62
  256
370
   -1
100
AcDbLine
 10
-80.55761424595906
 20
20.87232380288529
 11
-65.70359321483554
 21
18.78472728848431
  0
LINE
  5
DB
100
AcDbEntity
  8
choc
  6
ByLayer
 62
  256
370
   -1
100
AcDbLine
 10
-65.70359321483554
 20
18.78472728848431
 11
-67.79118972923651
 21
3.930706257360759
  0
LINE
  5
DC
100
AcDbEntity
  8
choc
  6
ByLayer
 62
  256
370
   -1
100
AcDbLine
 10
-67.79118972923651
 20
3.930706257360759
 11
-82.64521076036004
 21
6.018302771761745
  0
LINE
  5
DD
100
AcDbEntity
  8
choc
  6
ByLayer
 62
  256
370
   -1
100
AcDbLine
 10
-82.64521076036004
 20
6.018302771761745
 11
-80.55761424595906
 21
20.87232380288529
  0
LINE
  5
DE
100
AcDbEntity
  8
choc
  6
ByLayer
 62
  256
370
   -1
100
AcDbLine
 10
-73.8331638769007
 20
2.255281416027211
 11
-58.97914284577717
 21
0.1676849016262253
  0
LINE
  5
DF
100
AcDbEntity
  8
choc
  6
ByLayer
 62
  256
370
   -1
100
AcDbLine
 10
-58.97914284577717
 20
0.1676849016262253
 11
-61.06673936017814
 21
-14.68633612949733
  0
LINE
  5
E0
100
AcDbEntity
  8
choc
  6
ByLayer
 62
  256
370
   -1
100
AcDbLine
 10
-61.06673936017814
 20
-14.68633612949733
 11
-75.92076039130168
 21
-12.59873961509634
  0
LINE
  5
E1
100
AcDbEntity
  8
choc
  6
ByLayer
 62
  256
370
   -1
100
AcDbLine
 10
-75.92076039130168
 20
-12.59873961509634
 11
-73.8331638769007
 21
2.255281416027211
  0
LINE
  5
E2
100
AcDbEntity
  8
choc
  6
ByLayer
 62
  256
370
   -1
100
AcDbLine
 10
-55.51320460518165
 20
-0.3194209517340084
 11
-40.65918357405813
 21
-2.407017466134994
  0
LINE
  5
E3
100
AcDbEntity
  8
choc
  6
ByLayer
 62
  256
370
   -1
100
AcDbLine
 10
-40.65918357405813
 20
-2.407017466134994
 11
-42.7467800884591
 21
-17.26103849725855
  0
LINE
  5
E4
100
AcDbEntity
  8
choc
  6
ByLayer
 62
  256
370
   -1
100
AcDbLine
 10
-42.7467800884591
 20
-17.26103849725855
 11
-57.60080111958263
 21
-15.17344198285756
  0
LINE
  5
E5
100
AcDbEntity
  8
choc
  6
ByLayer
 62
  256
370
   -1
100
AcDbLine
 10
-57.60080111958263
 20
-15.17344198285756
 11
-55.51320460518165
 21
-0.3194209517340084
  0
LINE
  5
E6
100
AcDbEntity
  8
choc
  6
ByLayer
 62
  256
370
   -1
100
AcDbLine
 10
-37.19324533346259
 20
-2.894123319495224
 11
-22.33922430233908
 21
-4.981719833896209
  0
LINE
  5
E7
100
AcDbEntity
  8
choc
  6
ByLayer
 62
  256
370
   -1
100
AcDbLine
 10
-22.33922430233908
 20
-4.981719833896209
 11
-24.42682081674004
 21
-19.83574086501976
  0
LINE
  5
E8
100
AcDbEntity
  8
choc
  6
ByLayer
 62
  256
370
   -1
100
AcDbLine
 10
-24.42682081674004
 20
-19.83574086501976
 11
-39.28084184786358
 21
-17.74814435061878
  0
LINE
  5
E9
100
AcDbEntity
  8
choc
  6
ByLayer
 62
  256
370
   -1
100
AcDbLine
 10
-39.28084184786358
 20
-17.74814435061878
 11
-37.19324533346259
 21
-2.894123319495224
  0
LINE
  5
EA
100
AcDbEntity
  8
choc
  6
ByLayer
 62
  256
370
   -1
100
AcDbLine
 10
-18.87328606174354
 20
-5.468825687256439
 11
-4.019265030620018
 21
-7.556422201657425
  0
LINE
  5
EB
100
AcDbEntity
  8
choc
  6
ByLayer
 62
  256
370
   -1
100
AcDbLine
 10
-4.019265030620018
 20
-7.556422201657425
 11
-6.10686154502099
 21
-22.41044323278098
  0
LINE
  5
EC
100
AcDbEntity
  8
choc
  6
ByLayer
 62
  256
370
   -1
100
AcDbLine
 10
-6.10686154502099
 20
-22.41044323278098
 11
-20.96088257614453
 21
-20.32284671837999
  0
LINE
  5
ED
100
AcDbEntity
  8
choc
  6
ByLayer
 62
  256
370
   -1
100
AcDbLine
 10
-20.96088257614453
 20
-20.32284671837999
 11
-18.87328606174354
 21
-5.468825687256439
  0
LWPOLYLINE
  5
EE
100
AcDbEntity
  8
choc
  6
ByLayer
 62
  256
370
   -1
100
AcDbPolyline
 90
    4
 70
    1
 43
0
 10
-104.0191055352277
 20
39.32784685642523
 10
-89.01910553522772
 20
39.32784685642523
 10
-89.01910553522772
 20
24.32784685642522
 10
-104.0191055352277
 20
24.32784685642522
  0
LWPOLYLINE
  5
EF
100
AcDbEntity
  8
choc
  6
ByLayer
 62
  256
370
   -1
100
AcDbPolyline
 90
    4
 70
    1
 43
0
 10
-103.6146462568579
 20
20.99241254104102
 10
-88.61464625685787
 20
20.99241254104102
 10
-88.61464625685787
 20
5.992412541040993
 10
-103.6146462568579
 20
5.992412541040993
  0
LWPOLYLINE
  5
F0
100
AcDbEntity
  8
choc
  6
ByLayer
 62
  256
370
   -1
100
AcDbPolyline
 90
    4
 70
    1
 43
0
 10
-101.5151958877995
 20
2.656978225656827
 10
-86.51519588779954
 20
2.656978225656827
 10
-86.51519588779954
 20
-12.34302177434317
 10
-101.5151958877995
 20
-12.34302177434317
  0
LWPOLYLINE
  5
F1
100
AcDbEntity
  8
choc
  6
ByLayer
 62
  256
370
   -1
100
AcDbPolyline
 90
    4
 70
    1
 43
0
 10
-106.1401958877995
 20
-14.84302177434318
 10
-91.14019588779954
 20
-14.84302177434318
 10
-91.14019588779954
 20
-29.84302177434319
 10
-106.1401958877995
 20
-29.84302177434319
  0
LWPOLYLINE
  5
F2
100
AcDbEntity
  8
rpi
  6
ByLayer
 62
  256
370
   -1
100
AcDbPolyline
 90
    4
 70
    1
 43
0
 10
-11.55373918155037
 20
36.43674606928201
 10
6.44626081844963
 20
36.43674606928201
 10
6.44626081844963
 20
12.43674606928201
 10
-11.55373918155037
 20
12.43674606928201
  0
CIRCLE
  5
F3
100
AcDbEntity
  8
rpi
  6
ByLayer
 62
  256
370
   -1
100
AcDbCircle
 10
5.06626081844963
 20
34.59674606928201
 40
0.7
  0
CIRCLE
  5
F4
100
AcDbEntity
  8
rpi
  6
ByLayer
 62
  256
370
   -1
100
AcDbCircle
 10
5.066260818449625
 20
32.05674606928201
 40
0.7
  0
CIRCLE
  5
F5
100
AcDbEntity
  8
rpi
  6
ByLayer
 62
  256
370
   -1
100
AcDbCircle
 10
5.06626081844963
 20
29.516746069282
 40
0.7
  0
CIRCLE
  5
F6
100
AcDbEntity
  8
rpi
  6
ByLayer
 62
  256
370
   -1
100
AcDbCircle
 10
5.06626081844963
 20
26.976746069282
 40
0.7
  0
CIRCLE
  5
F7
100
AcDbEntity
  8
rpi
  6
ByLayer
 62
  256
370
   -1
100
AcDbCircle
 10
5.066260818449629
 20
24.43674606928201
 40
0.7
  0
CIRCLE
  5
F8
100
AcDbEntity
  8
rpi
  6
ByLayer
 62
  256
370
   -1
100
AcDbCircle
 10
5.066260818449629
 20
21.89674606928201
 40
0.7
  0
CIRCLE
  5
F9
100
AcDbEntity
  8
rpi
  6
ByLayer
 62
  256
370
   -1
100
AcDbCircle
 10
5.066260818449625
 20
19.35674606928201
 40
0.7
  0
CIRCLE
  5
FA
100
AcDbEntity
  8
rpi
  6
ByLayer
 62
  256
370
   -1
100
AcDbCircle
 10
5.066260818449625
 20
16.81674606928201
 40
0.7
  0
CIRCLE
  5
FB
100
AcDbEntity
  8
rpi
  6
ByLayer
 62
  256
370
   -1
100
AcDbCircle
 10
5.066260818449625
 20
14.276746069282
 40
0.7
  0
CIRCLE
  5
FC
100
AcDbEntity
  8
rpi
  6
ByLayer
 62
  256
370
   -1
100
AcDbCircle
 10
2.526260818449628
 20
14.276746069282
 40
0.7
  0
CIRCLE
  5
FD
100
AcDbEntity
  8
rpi
  6
ByLayer
 62
  256
370
   -1
100
AcDbCircle
 10
-0.01373918155037501
 20
14.276746069282
 40
0.7
  0
CIRCLE
  5
FE
100
AcDbEntity
  8
rpi
  6
ByLayer
 62
  256
370
   -1
100
AcDbCircle
 10
-2.553739181550372
 20
14.276746069282
 40
0.7
  0
CIRCLE
  5
FF
100
AcDbEntity
  8
rpi
  6
ByLayer
 62
  256
370
   -1
100
AcDbCircle
 10
-5.093739181550371
 20
14.276746069282
 40
0.7
  0
CIRCLE
  5
100
100
AcDbEntity
  8
rpi
  6
ByLayer
 62
  256
370
   -1
100
AcDbCircle
 10
-7.633739181550371
 20
14.27674606928201
 40
0.7
  0
CIRCLE
  5
101
100
AcDbEntity
  8
rpi
  6
ByLayer
 62
  256
370
   -1
100
AcDbCircle
 10
-10.17373918155037
 20
14.27674606928201
 40
0.7
  0
CIRCLE
  5
102
100
AcDbEntity
  8
rpi
  6
ByLayer
 62
  256
370
   -1
100
AcDbCircle
 10
-10.17373918155037
 20
16.81674606928201
 40
0.7
  0
CIRCLE
  5
103
100
AcDbEntity
  8
rpi
  6
ByLayer
 62
  256
370
   -1
100
AcDbCircle
 10
-10.17373918155037
 20
19.35674606928201
 40
0.7
  0
CIRCLE
  5
104
100
AcDbEntity
  8
rpi
  6
ByLayer
 62
  256
370
   -1
100
AcDbCircle
 10
-10.17373918155037
 20
21.89674606928201
 40
0.7
  0
CIRCLE
  5
105
100
AcDbEntity
  8
rpi
  6
ByLayer
 62
  256
370
   -1
100
AcDbCircle
 10
-10.17373918155037
 20
24.43674606928201
 40
0.7
  0
CIRCLE
  5
106
100
AcDbEntity
  8
rpi
  6
ByLayer
 62
  256
370
   -1
100
AcDbCircle
 10
-10.17373918155037
 20
26.97674606928201
 40
0.7
  0
CIRCLE
  5
107
100
AcDbEntity
  8
rpi
  6
ByLayer
 62
  256
370
   -1
100
AcDbCircle
 10
-10.17373918155037
 20
29.51674606928201
 40
0.7
  0
CIRCLE
  5
108
100
AcDbEntity
  8
rpi
  6
ByLayer
 62
  256
370
   -1
100
AcDbCircle
 10
-10.17373918155037
 20
32.05674606928202
 40
0.7
  0
CIRCLE
  5
109
100
AcDbEntity
  8
rpi
  6
ByLayer
 62
  256
370
   -1
100
AcDbCircle
 10
-10.17373918155037
 20
34.59674606928202
 40
0.7
  0
LINE
  5
10A
100
AcDbEntity
  8
0
  6
ByLayer
 62
  256
370
   -1
100
AcDbLine
 10
-9.127848618853092
 20
-23.24815565344775
 11
-11.56337788565424
 21
-40.57784685642522
  0
LINE
  5
10B
100
AcDbEntity
  8
0
  6
ByLayer
 62
  256
370
   -1
100
AcDbLine
 10
13.75284861885308
 20
-23.24815565344775
 11
16.18837788565422
 21
-40.57784685642523
  0
LINE
  5
10C
100
AcDbEntity
  8
0
  6
ByLayer
 62
  256
370
   -1
100
AcDbLine
 10
-41.18777734436142
 20
-18.74242650986561
 11
-43.62330661116258
 21
-36.07211771284308
  0
LINE
  5
10D
100
AcDbEntity
  8
0
  6
ByLayer
 62
  256
370
   -1
100
AcDbLine
 10
68.71272643401022
 20
-15.52404855016412
 11
71.14825570081138
 21
-32.8537397531416
  0
LINE
  5
10E
100
AcDbEntity
  8
0
  6
ByLayer
 62
  256
370
   -1
100
AcDbLine
 10
-11.56337788565424
 20
-40.57784685642522
 11
-66.5232557008114
 21
-32.85373975314156
  0
LINE
  5
10F
100
AcDbEntity
  8
choc
  6
ByLayer
 62
  256
370
   -1
100
AcDbLine
 10
-32.75878987336912
 20
-21.18932791038315
 11
-17.90476884224557
 21
-23.27692442478414
  0
LINE
  5
110
100
AcDbEntity
  8
choc
  6
ByLayer
 62
  256
370
   -1
100
AcDbLine
 10
-17.90476884224557
 20
-23.27692442478414
 11
-19.99236535664656
 21
-38.13094545590769
  0
LINE
  5
111
100
AcDbEntity
  8
choc
  6
ByLayer
 62
  256
370
   -1
100
AcDbLine
 10
-19.99236535664656
 20
-38.13094545590769
 11
-34.84638638777012
 21
-36.0433489415067
  0
LINE
  5
112
100
AcDbEntity
  8
choc
  6
ByLayer
 62
  256
370
   -1
100
AcDbLine
 10
-34.84638638777012
 20
-36.0433489415067
 11
-32.75878987336912
 21
-21.18932791038315
  0
LINE
  5
113
100
AcDbEntity
  8
choc
  6
ByLayer
 62
  256
370
   -1
100
AcDbLine
 10
-60.23872878094769
 20
-17.32727435874132
 11
-45.38470774982414
 21
-19.41487087314231
  0
LINE
  5
114
100
AcDbEntity
  8
choc
  6
ByLayer
 62
  256
370
   -1
100
AcDbLine
 10
-45.38470774982414
 20
-19.41487087314231
 11
-47.47230426422512
 21
-34.26889190426586
  0
LINE
  5
115
100
AcDbEntity
  8
choc
  6
ByLayer
 62
  256
370
   -1
100
AcDbLine
 10
-47.47230426422512
 20
-34.26889190426586
 11
-62.32632529534867
 21
-32.18129538986487
  0
LINE
  5
116
100
AcDbEntity
  8
choc
  6
ByLayer
 62
  256
370
   -1
100
AcDbLine
 10
-62.32632529534867
 20
-32.18129538986487
 11
-60.23872878094769
 21
-17.32727435874132
  0
LINE
  5
117
100
AcDbEntity
  8
0
  6
ByLayer
 62
  256
370
   -1
100
AcDbLine
 10
16.18837788565422
 20
-40.57784685642523
 11
48.24830661116257
 21
-36.07211771284311
  0
LINE
  5
118
100
AcDbEntity
  8
0
  6
ByLayer
 62
  256
370
   -1
100
AcDbLine
 10
48.24830661116257
 20
-36.07211771284311
 11
71.14825570081138
 21
-32.8537397531416
  0
LINE
  5
119
100
AcDbEntity
  8
choc
  6
ByLayer
 62
  256
370
   -1
100
AcDbLine
 10
22.52976884224556
 20
-23.27692442478414
 11
37.38378987336911
 21
-21.18932791038316
  0
LINE
  5
11A
100
AcDbEntity
  8
choc
  6
ByLayer
 62
  256
370
   -1
100
AcDbLine
 10
37.38378987336911
 20
-21.18932791038316
 11
39.4713863877701
 21
-36.04334894150671
  0
LINE
  5
11B
100
AcDbEntity
  8
choc
  6
ByLayer
 62
  256
370
   -1
100
AcDbLine
 10
39.4713863877701
 20
-36.04334894150671
 11
24.61736535664654
 21
-38.13094545590769
  0
LINE
  5
11C
100
AcDbEntity
  8
choc
  6
ByLayer
 62
  256
370
   -1
100
AcDbLine
 10
24.61736535664654
 20
-38.13094545590769
 11
22.52976884224556
 21
-23.27692442478415
  0
LINE
  5
11D
100
AcDbEntity
  8
choc
  6
ByLayer
 62
  256
370
   -1
100
AcDbLine
 10
50.00970774982414
 20
-19.41487087314233
 11
64.86372878094768
 21
-17.32727435874134
  0
LINE
  5
11E
100
AcDbEntity
  8
choc
  6
ByLayer
 62
  256
370
   -1
100
AcDbLine
 10
64.86372878094768
 20
-17.32727435874134
 11
66.95132529534867
 21
-32.18129538986489
  0
LINE
  5
11F
100
AcDbEntity
  8
choc
  6
ByLayer
 62
  256
370
   -1
100
AcDbLine
 10
66.95132529534867
 20
-32.18129538986489
 11
52.09730426422512
 21
-34.26889190426588
  0
LINE
  5
120
100
AcDbEntity
  8
choc
  6
ByLayer
 62
  256
370
   -1
100
AcDbLine
 10
52.09730426422512
 20
-34.26889190426588
 11
50.00970774982414
 21
-19.41487087314233
  0
ARC
  5
121
100
AcDbEntity
  8
edge
  6
ByLayer
 62
  256
370
   -1
100
AcDbCircle
 10
-107.2026958877995
 20
37.57784685642523
 40
3
100
AcDbArc
 50
90
 51
179.9999999999997
  0
LINE
  5
122
100
AcDbEntity
  8
edge
  6
ByLayer
 62
  256
370
   -1
100
AcDbLine
 10
-110.2026958877995
 20
-37.57784685642517
 11
-110.2026958877995
 21
37.57784685642524
  0
ARC
  5
123
100
AcDbEntity
  8
edge
  6
ByLayer
 62
  256
370
   -1
100
AcDbCircle
 10
-107.2026958877995
 20
-37.57784685642517
 40
3
100
AcDbArc
 50
180
 51
270
  0
LINE
  5
124
100
AcDbEntity
  8
edge
  6
ByLayer
 62
  256
370
   -1
100
AcDbLine
 10
-107.2026958877995
 20
-40.57784685642517
 11
107.2026958877997
 21
-40.57784685642528
  0
ARC
  5
125
100
AcDbEntity
  8
edge
  6
ByLayer
 62
  256
370
   -1
100
AcDbCircle
 10
107.2026958877997
 20
-37.57784685642528
 40
3
100
AcDbArc
 50
270
 51
0
  0
LINE
  5
126
100
AcDbEntity
  8
edge
  6
ByLayer
 62
  256
370
   -1
100
AcDbLine
 10
110.2026958877997
 20
-37.57784685642528
 11
110.2026958877997
 21
37.57784685642524
  0
LINE
  5
127
100
AcDbEntity
  8
edge
  6
ByLayer
 62
  256
370
   -1
100
AcDbLine
 10
-107.2026958877995
 20
40.57784685642523
 11
107.2026958877997
 21
40.57784685642523
  0
ARC
  5
128
100
AcDbEntity
  8
edge
  6
ByLayer
 62
  256
370
   -1
100
AcDbCircle
 10
107.2026958877997
 20
37.57784685642523
 40
3
100
AcDbArc
 50
2.798888119687895e-13
 51
89.99999999999946
  0
CIRCLE
  5
129
100
AcDbEntity
  8
percage
  6
ByLayer
 62
  256
370
   -1
100
AcDbCircle
 10
107.2026958877997
 20
37.57784685642523
 40
1.2
  0
CIRCLE
  5
12A
100
AcDbEntity
  8
percage
  6
ByLayer
 62
  256
370
   -1
100
AcDbCircle
 10
-107.2026958877995
 20
37.57784685642523
 40
1.2
  0
CIRCLE
  5
12B
100
AcDbEntity
  8
percage
  6
ByLayer
 62
  256
370
   -1
100
AcDbCircle
 10
0
 20
0
 40
1.2
  0
CIRCLE
  5
12C
100
AcDbEntity
  8
percage
  6
ByLayer
 62
  256
370
   -1
100
AcDbCircle
 10
-76.23685529026289
 20
-23.75152628737015
 40
1.2
  0
CIRCLE
  5
12D
100
AcDbEntity
  8
percage
  6
ByLayer
 62
  256
370
   -1
100
AcDbCircle
 10
78.56966820177547
 20
-23.88030870299347
 40
1.2
  0
LINE
  5
12E
100
AcDbEntity
  8
ext1
  6
ByLayer
 62
  256
370
   -1
100
AcDbLine
 10
-107.2026958877995
 20
41.57784685642523
 11
107.2026958877997
 21
41.57784685642523
  0
LINE
  5
12F
100
AcDbEntity
  8
ext1
  6
ByLayer
 62
  256
370
   -1
100
AcDbLine
 10
-107.2026958877995
 20
-41.57784685642517
 11
107.2026958877997
 21
-41.57784685642528
  0
LINE
  5
130
100
AcDbEntity
  8
ext1
  6
ByLayer
 62
  256
370
   -1
100
AcDbLine
 10
111.2026958877997
 20
-37.57784685642528
 11
111.2026958877997
 21
37.57784685642524
  0
LINE
  5
131
100
AcDbEntity
  8
ext1
  6
ByLayer
 62
  256
370
   -1
100
AcDbLine
 10
-111.2026958877995
 20
-37.57784685642517
 11
-111.2026958877995
 21
37.57784685642524
  0
ARC
  5
132
100
AcDbEntity
  8
ext1
  6
ByLayer
 62
  256
370
   -1
100
AcDbCircle
 10
-107.2026958877995
 20
37.57784685642523
 40
4
100
AcDbArc
 50
90
 51
179.9999999999997
  0
ARC
  5
133
100
AcDbEntity
  8
ext1
  6
ByLayer
 62
  256
370
   -1
100
AcDbCircle
 10
-107.2026958877995
 20
-37.57784685642517
 40
4
100
AcDbArc
 50
180
 51
270
  0
ARC
  5
134
100
AcDbEntity
  8
ext1
  6
ByLayer
 62
  256
370
   -1
100
AcDbCircle
 10
107.2026958877997
 20
-37.57784685642528
 40
4
100
AcDbArc
 50
270
 51
0
  0
ARC
  5
135
100
AcDbEntity
  8
ext1
  6
ByLayer
 62
  256
370
   -1
100
AcDbCircle
 10
107.2026958877997
 20
37.57784685642523
 40
4
100
AcDbArc
 50
2.798888119687895e-13
 51
89.99999999999946
  0
LINE
  5
136
100
AcDbEntity
  8
ext2
  6
ByLayer
 62
  256
370
   -1
100
AcDbLine
 10
114.2026958877997
 20
-37.57784685642528
 11
114.2026958877997
 21
37.57784685642524
  0
ARC
  5
137
100
AcDbEntity
  8
ext2
  6
ByLayer
 62
  256
370
   -1
100
AcDbCircle
 10
107.2026958877997
 20
37.57784685642523
 40
7
100
AcDbArc
 50
2.798888119687895e-13
 51
89.99999999999946
  0
ARC
  5
138
100
AcDbEntity
  8
ext2
  6
ByLayer
 62
  256
370
   -1
100
AcDbCircle
 10
107.2026958877997
 20
-37.57784685642528
 40
7
100
AcDbArc
 50
270
 51
0
  0
LINE
  5
139
100
AcDbEntity
  8
ext2
  6
ByLayer
 62
  256
370
   -1
100
AcDbLine
 10
-107.2026958877995
 20
-44.57784685642517
 11
107.2026958877997
 21
-44.57784685642528
  0
LINE
  5
13A
100
AcDbEntity
  8
ext2
  6
ByLayer
 62
  256
370
   -1
100
AcDbLine
 10
-107.2026958877995
 20
44.57784685642523
 11
107.2026958877997
 21
44.57784685642523
  0
ARC
  5
13B
100
AcDbEntity
  8
ext2
  6
ByLayer
 62
  256
370
   -1
100
AcDbCircle
 10
-107.2026958877995
 20
-37.57784685642517
 40
7
100
AcDbArc
 50
180
 51
270
  0
LINE
  5
13C
100
AcDbEntity
  8
ext2
  6
ByLayer
 62
  256
370
   -1
100
AcDbLine
 10
-114.2026958877995
 20
-37.57784685642517
 11
-114.2026958877995
 21
37.57784685642524
  0
ARC
  5
13D
100
AcDbEntity
  8
ext2
  6
ByLayer
 62
  256
370
   -1
100
AcDbCircle
 10
-107.2026958877995
 20
37.57784685642523
 40
7
100
AcDbArc
 50
90
 51
179.9999999999997
  0
ARC
  5
13E
100
AcDbEntity
  8
ext3
  6
ByLayer
 62
  256
370
   -1
100
AcDbCircle
 10
-107.2026958877995
 20
37.57784685642523
 40
8
100
AcDbArc
 50
90
 51
179.9999999999997
  0
LINE
  5
13F
100
AcDbEntity
  8
ext3
  6
ByLayer
 62
  256
370
   -1
100
AcDbLine
 10
-107.2026958877995
 20
45.57784685642523
 11
107.2026958877997
 21
45.57784685642523
  0
LINE
  5
140
100
AcDbEntity
  8
ext3
  6
ByLayer
 62
  256
370
   -1
100
AcDbLine
 10
-115.2026958877995
 20
-37.57784685642517
 11
-115.2026958877995
 21
37.57784685642524
  0
ARC
  5
141
100
AcDbEntity
  8
ext3
  6
ByLayer
 62
  256
370
   -1
100
AcDbCircle
 10
-107.2026958877995
 20
-37.57784685642517
 40
8
100
AcDbArc
 50
180
 51
270
  0
LINE
  5
142
100
AcDbEntity
  8
ext3
  6
ByLayer
 62
  256
370
   -1
100
AcDbLine
 10
-107.2026958877995
 20
-45.57784685642517
 11
107.2026958877997
 21
-45.57784685642528
  0
ARC
  5
143
100
AcDbEntity
  8
ext3
  6
ByLayer
 62
  256
370
   -1
100
AcDbCircle
 10
107.2026958877997
 20
-37.57784685642528
 40
8
100
AcDbArc
 50
270
 51
0
  0
LINE
  5
144
100
AcDbEntity
  8
ext3
  6
ByLayer
 62
  256
370
   -1
100
AcDbLine
 10
115.2026958877997
 20
-37.57784685642528
 11
115.2026958877997
 21
37.57784685642524
  0
ARC
  5
145
100
AcDbEntity
  8
ext3
  6
ByLayer
 62
  256
370
   -1
100
AcDbCircle
 10
107.2026958877997
 20
37.57784685642523
 40
8
100
AcDbArc
 50
2.798888119687895e-13
 51
89.99999999999946
  0
LINE
  5
146
100
AcDbEntity
  8
int
  6
ByLayer
 62
  256
370
   -1
100
AcDbLine
 10
109.2026958877997
 20
-37.57784685642528
 11
109.2026958877997
 21
32.47490652755602
  0
ARC
  5
147
100
AcDbEntity
  8
int
  6
ByLayer
 62
  256
370
   -1
100
AcDbCircle
 10
106.2026958877997
 20
32.47490652755602
 40
3
100
AcDbArc
 50
0
 51
78.91251078902924
  0
ARC
  5
148
100
AcDbEntity
  8
int
  6
ByLayer
 62
  256
370
   -1
100
AcDbCircle
 10
102.0997555589309
 20
36.57784685642522
 40
3
100
AcDbArc
 50
11.0874892109715
 51
89.99999999999973
  0
ARC
  5
149
100
AcDbEntity
  8
int
  6
ByLayer
 62
  256
370
   -1
100
AcDbCircle
 10
-102.0997555589302
 20
36.57784685642523
 40
3
100
AcDbArc
 50
90
 51
168.9125107890296
  0
LINE
  5
14A
100
AcDbEntity
  8
int
  6
ByLayer
 62
  256
370
   -1
100
AcDbLine
 10
-109.2026958877995
 20
-37.57784685642517
 11
-109.2026958877995
 21
32.47490652755592
  0
ARC
  5
14B
100
AcDbEntity
  8
int
  6
ByLayer
 62
  256
370
   -1
100
AcDbCircle
 10
-106.2026958877995
 20
32.47490652755592
 40
3
100
AcDbArc
 50
101.0874892109707
 51
180.0000000000001
  0
ARC
  5
14C
100
AcDbEntity
  8
int
  6
ByLayer
 62
  256
370
   -1
100
AcDbCircle
 10
-107.2026958877995
 20
37.57784685642523
 40
2.200000000000106
100
AcDbArc
 50
281.0874892109705
 51
348.9125107890296
  0
ARC
  5
14D
100
AcDbEntity
  8
int
  6
ByLayer
 62
  256
370
   -1
100
AcDbCircle
 10
107.2026958877997
 20
37.57784685642523
 40
2.199999999999636
100
AcDbArc
 50
191.0874892109714
 51
258.9125107890293
  0
ARC
  5
14E
100
AcDbEntity
  8
int
  6
ByLayer
 62
  256
370
   -1
100
AcDbCircle
 10
-107.2026958877995
 20
-37.57784685642517
 40
2
100
AcDbArc
 50
180
 51
270
  0
ARC
  5
14F
100
AcDbEntity
  8
int
  6
ByLayer
 62
  256
370
   -1
100
AcDbCircle
 10
107.2026958877997
 20
-37.57784685642528
 40
2
100
AcDbArc
 50
270
 51
0
  0
ARC
  5
150
100
AcDbEntity
  8
int
  6
ByLayer
 62
  256
370
   -1
100
AcDbCircle
 10
-76.23685529026289
 20
-23.75152628737015
 40
5.200000000000003
100
AcDbArc
 50
24.35207157399868
 51
150.5598338875993
  0
ARC
  5
151
100
AcDbEntity
  8
int
  6
ByLayer
 62
  256
370
   -1
100
AcDbCircle
 10
78.56966820177547
 20
-23.88030870299347
 40
5.199999999999994
100
AcDbArc
 50
23.70227520555723
 51
161.9677163369345
  0
ARC
  5
152
100
AcDbEntity
  8
int
  6
ByLayer
 62
  256
370
   -1
100
AcDbCircle
 10
15.75244299340947
 20
-36.57784685642524
 40
3
100
AcDbArc
 50
188
 51
270
  0
ARC
  5
153
100
AcDbEntity
  8
int
  6
ByLayer
 62
  256
370
   -1
100
AcDbCircle
 10
-11.12744299340948
 20
-36.57784685642521
 40
3
100
AcDbArc
 50
270.0000000000001
 51
352.0000000000002
  0
LINE
  5
154
100
AcDbEntity
  8
int
  6
ByLayer
 62
  256
370
   -1
100
AcDbLine
 10
11.37588720720179
 20
-26.99292392990078
 11
12.78163878718476
 21
-36.99536615930543
  0
ARC
  5
155
100
AcDbEntity
  8
int
  6
ByLayer
 62
  256
370
   -1
100
AcDbCircle
 10
8.405083000977076
 20
-27.41044323278098
 40
3
100
AcDbArc
 50
7.99999999999996
 51
89.99999999999993
  0
LINE
  5
156
100
AcDbEntity
  8
int
  6
ByLayer
 62
  256
370
   -1
100
AcDbLine
 10
-3.780083000977092
 20
-24.41044323278098
 11
8.405083000977079
 21
-24.41044323278098
  0
LINE
  5
157
100
AcDbEntity
  8
int
  6
ByLayer
 62
  256
370
   -1
100
AcDbLine
 10
-6.750887207201804
 20
-26.99292392990078
 11
-8.156638787184772
 21
-36.9953661593054
  0
ARC
  5
158
100
AcDbEntity
  8
int
  6
ByLayer
 62
  256
370
   -1
100
AcDbCircle
 10
-3.780083000977092
 20
-27.41044323278098
 40
3
100
AcDbArc
 50
90
 51
172
  0
ARC
  5
159
100
AcDbEntity
  8
int
  6
ByLayer
 62
  256
370
   -1
100
AcDbCircle
 10
-16.55373918155037
 20
34.5982861588146
 40
3
100
AcDbArc
 50
261.9999999999999
 51
0
  0
LINE
  5
15A
100
AcDbEntity
  8
int
  6
ByLayer
 62
  256
370
   -1
100
AcDbLine
 10
-13.55373918155037
 20
34.5982861588146
 11
-13.55373918155037
 21
36.57784685642523
  0
ARC
  5
15B
100
AcDbEntity
  8
int
  6
ByLayer
 62
  256
370
   -1
100
AcDbCircle
 10
-10.55373918155037
 20
36.57784685642523
 40
3
100
AcDbArc
 50
90
 51
180
  0
LINE
  5
15C
100
AcDbEntity
  8
int
  6
ByLayer
 62
  256
370
   -1
100
AcDbLine
 10
-10.55373918155037
 20
39.57784685642523
 11
5.44626081844963
 21
39.57784685642523
  0
ARC
  5
15D
100
AcDbEntity
  8
int
  6
ByLayer
 62
  256
370
   -1
100
AcDbCircle
 10
5.446260818449634
 20
36.57784685642523
 40
3
100
AcDbArc
 50
359.9999999999997
 51
90.00000000000007
  0
LINE
  5
15E
100
AcDbEntity
  8
int
  6
ByLayer
 62
  256
370
   -1
100
AcDbLine
 10
8.446260818449634
 20
36.57784685642521
 11
8.446260818449634
 21
33.23047552594146
  0
ARC
  5
15F
100
AcDbEntity
  8
int
  6
ByLayer
 62
  256
370
   -1
100
AcDbCircle
 10
11.44626081844962
 20
33.23047552594146
 40
3
100
AcDbArc
 50
180
 51
277.9999999999997
  0
LINE
  5
160
100
AcDbEntity
  8
int
  6
ByLayer
 62
  256
370
   -1
100
AcDbLine
 10
76.08865553258984
 20
39.28588891867233
 11
11.8637801213298
 21
30.25967131971674
  0
LINE
  5
161
100
AcDbEntity
  8
int
  6
ByLayer
 62
  256
370
   -1
100
AcDbLine
 10
80.26384856139181
 20
39.57784685642523
 11
102.0997555589309
 21
39.57784685642523
  0
ARC
  5
162
100
AcDbEntity
  8
int
  6
ByLayer
 62
  256
370
   -1
100
AcDbCircle
 10
80.26384856139181
 20
9.577846856425225
 40
30
100
AcDbArc
 50
90
 51
98.00000000000003
  0
LINE
  5
163
100
AcDbEntity
  8
int
  6
ByLayer
 62
  256
370
   -1
100
AcDbLine
 10
-102.0997555589302
 20
39.57784685642523
 11
-75.6388485613914
 21
39.57784685642523
  0
LINE
  5
164
100
AcDbEntity
  8
int
  6
ByLayer
 62
  256
370
   -1
100
AcDbLine
 10
-71.46365553258939
 20
39.28588891867233
 11
-16.97125848443057
 21
31.62748195258989
  0
ARC
  5
165
100
AcDbEntity
  8
int
  6
ByLayer
 62
  256
370
   -1
100
AcDbCircle
 10
-75.6388485613914
 20
9.577846856425225
 40
30
100
AcDbArc
 50
81.99999999999991
 51
90
  0
LINE
  5
166
100
AcDbEntity
  8
decoup-pi
  6
ByLayer
 62
  256
370
   -1
100
AcDbLine
 10
-9.553739181550373
 20
48.93674606928201
 11
4.446260818449631
 21
48.93674606928201
  0
LWPOLYLINE
  5
167
100
AcDbEntity
  8
decoup-pi
  6
ByLayer
 62
  256
370
   -1
100
AcDbPolyline
 90
    4
 70
    1
 43
0
 10
-9.553739181550373
 20
48.93674606928201
 10
4.446260818449631
 20
48.93674606928201
 10
4.446260818449631
 20
37.43674606928201
 10
-9.553739181550373
 20
37.43674606928201
  0
LINE
  5
168
100
AcDbEntity
  8
int
  6
ByLayer
 62
  256
370
   -1
100
AcDbLine
 10
-107.2026958877995
 20
-39.57784685642517
 11
-99.89843653509743
 21
-39.57784685642518
  0
LINE
  5
169
100
AcDbEntity
  8
int
  6
ByLayer
 62
  256
370
   -1
100
AcDbLine
 10
-80.76537647377209
 20
-21.19565150747414
 11
-86.83539465959015
 21
-31.95056256766367
  0
ARC
  5
16A
100
AcDbEntity
  8
int
  6
ByLayer
 62
  256
370
   -1
100
AcDbCircle
 10
-99.89843653509743
 20
-24.57784685642518
 40
15
100
AcDbArc
 50
270
 51
330.5598338875993
  0
LINE
  5
16B
100
AcDbEntity
  8
int
  6
ByLayer
 62
  256
370
   -1
100
AcDbLine
 10
-71.49950497048921
 20
-21.60734533704431
 11
-67.35555420876621
 21
-30.76298421313434
  0
LINE
  5
16C
100
AcDbEntity
  8
int
  6
ByLayer
 62
  256
370
   -1
100
AcDbLine
 10
-53.69012059403444
 20
-39.5778468564252
 11
-11.12744299340948
 21
-39.57784685642522
  0
ARC
  5
16D
100
AcDbEntity
  8
int
  6
ByLayer
 62
  256
370
   -1
100
AcDbCircle
 10
-53.69012059403443
 20
-24.57784685642519
 40
15
100
AcDbArc
 50
204.3520715739986
 51
270
  0
LINE
  5
16E
100
AcDbEntity
  8
int
  6
ByLayer
 62
  256
370
   -1
100
AcDbLine
 10
83.33103068474604
 20
-21.78999118984857
 11
87.20211187590562
 21
-30.60760891357403
  0
LINE
  5
16F
100
AcDbEntity
  8
int
  6
ByLayer
 62
  256
370
   -1
100
AcDbLine
 10
100.936811346013
 20
-39.57784685642527
 11
107.2026958877997
 21
-39.57784685642528
  0
ARC
  5
170
100
AcDbEntity
  8
int
  6
ByLayer
 62
  256
370
   -1
100
AcDbCircle
 10
100.936811346013
 20
-24.57784685642528
 40
15
100
AcDbArc
 50
203.7022752055572
 51
269.9999999999999
  0
LINE
  5
171
100
AcDbEntity
  8
int
  6
ByLayer
 62
  256
370
   -1
100
AcDbLine
 10
73.6250805132871
 20
-22.27063401820491
 11
71.36239392163039
 21
-29.22113921639227
  0
LINE
  5
172
100
AcDbEntity
  8
int
  6
ByLayer
 62
  256
370
   -1
100
AcDbLine
 10
15.75244299340947
 20
-39.57784685642523
 11
57.09916020483698
 21
-39.57784685642525
  0
ARC
  5
173
100
AcDbEntity
  8
int
  6
ByLayer
 62
  256
370
   -1
100
AcDbCircle
 10
57.09916020483699
 20
-24.57784685642526
 40
15
100
AcDbArc
 50
269.9999999999999
 51
341.9677163369345
  0
LINE
  5
174
100
AcDbEntity
  8
choc
  6
ByLayer
 62
  256
370
   -1
100
AcDbLine
 10
27.02778298076974
 20
15.22376420619539
 11
24.94018646636875
 21
30.07778523731893
  0
LINE
  5
175
100
AcDbEntity
  8
choc
  6
ByLayer
 62
  256
370
   -1
100
AcDbLine
 10
45.34774225248879
 20
17.79846657395659
 11
43.2601457380878
 21
32.65248760508015
  0
LINE
  5
176
100
AcDbEntity
  8
choc
  6
ByLayer
 62
  256
370
   -1
100
AcDbLine
 10
63.66770152420784
 20
20.37316894171781
 11
61.58010500980686
 21
35.22718997284136
  0
LINE
  5
177
100
AcDbEntity
  8
choc
  6
ByLayer
 62
  256
370
   -1
100
AcDbLine
 10
81.98766079592687
 20
22.94787130947901
 11
79.90006428152589
 21
37.80189234060257
  0
LINE
  5
178
100
AcDbEntity
  8
choc
  6
ByLayer
 62
  256
370
   -1
100
AcDbLine
 10
84.38366446715814
 20
23.60371181549231
 11
84.38366446715814
 21
38.60371181549235
  0
LINE
  5
179
100
AcDbEntity
  8
choc
  6
ByLayer
 62
  256
370
   -1
100
AcDbLine
 10
89.1771462568579
 20
5.6303450205746
 11
89.1771462568579
 21
20.6303450205746
  0
LINE
  5
17A
100
AcDbEntity
  8
choc
  6
ByLayer
 62
  256
370
   -1
100
AcDbLine
 10
70.68322060893875
 20
3.687153330680629
 11
68.59562409453777
 21
18.54117436180417
  0
LINE
  5
17B
100
AcDbEntity
  8
choc
  6
ByLayer
 62
  256
370
   -1
100
AcDbLine
 10
52.3632613372197
 20
1.112450962919417
 11
50.27566482281871
 21
15.96647199404297
  0
LINE
  5
17C
100
AcDbEntity
  8
choc
  6
ByLayer
 62
  256
370
   -1
100
AcDbLine
 10
34.04330206550065
 20
-1.462251404841795
 11
31.95570555109966
 21
13.39176962628175
  0
LINE
  5
17D
100
AcDbEntity
  8
choc
  6
ByLayer
 62
  256
370
   -1
100
AcDbLine
 10
107.6771462568579
 20
20.6303450205746
 11
107.6771462568579
 21
5.6303450205746
  0
LINE
  5
17E
100
AcDbEntity
  8
choc
  6
ByLayer
 62
  256
370
   -1
100
AcDbLine
 10
105.5776958877997
 20
2.656978225656812
 11
105.5776958877997
 21
-12.34302177434319
  0
LINE
  5
17F
100
AcDbEntity
  8
choc
  6
ByLayer
 62
  256
370
   -1
100
AcDbLine
 10
87.07769588779971
 20
-12.34302177434319
 11
87.07769588779971
 21
2.656978225656812
  0
LINE
  5
180
100
AcDbEntity
  8
choc
  6
ByLayer
 62
  256
370
   -1
100
AcDbLine
 10
82.27872951159942
 20
-12.35518668841624
 11
80.19113299719844
 21
2.498834342707304
  0
LINE
  5
181
100
AcDbEntity
  8
choc
  6
ByLayer
 62
  256
370
   -1
100
AcDbLine
 10
61.87117372547942
 20
-0.07586802505390008
 11
63.95877023988039
 21
-14.92988905617745
  0
LINE
  5
182
100
AcDbEntity
  8
choc
  6
ByLayer
 62
  256
370
   -1
100
AcDbLine
 10
43.55121445376038
 20
-2.650570392815112
 11
45.63881096816135
 21
-17.50459142393867
  0
LINE
  5
183
100
AcDbEntity
  8
choc
  6
ByLayer
 62
  256
370
   -1
100
AcDbLine
 10
25.23125518204132
 20
-5.225272760576321
 11
27.31885169644228
 21
-20.07929379169988
  0
LINE
  5
184
100
AcDbEntity
  8
choc
  6
ByLayer
 62
  256
370
   -1
100
AcDbLine
 10
39.11675899366686
 20
-20.94577498370305
 11
41.20435550806784
 21
-35.79979601482659
  0
LINE
  5
185
100
AcDbEntity
  8
choc
  6
ByLayer
 62
  256
370
   -1
100
AcDbLine
 10
50.36433514392738
 20
-34.512444830946
 11
48.2767386295264
 21
-19.65842379982244
  0
LINE
  5
186
100
AcDbEntity
  8
choc
  6
ByLayer
 62
  256
370
   -1
100
AcDbLine
 10
89.39019588779972
 20
-29.84302177434322
 11
89.39019588779972
 21
-14.84302177434319
  0
LINE
  5
187
100
AcDbEntity
  8
choc
  6
ByLayer
 62
  256
370
   -1
100
AcDbLine
 10
22.88439623634879
 20
-38.3744983825878
 11
20.79679972194781
 21
-23.52047735146426
  0
LINE
  5
188
100
AcDbEntity
  8
choc
  6
ByLayer
 62
  256
370
   -1
100
AcDbLine
 10
-32.13526134387048
 20
16.59157483906851
 11
-30.04766482946949
 21
31.44559587019207
  0
LINE
  5
189
100
AcDbEntity
  8
choc
  6
ByLayer
 62
  256
370
   -1
100
AcDbLine
 10
-50.45522061558951
 20
19.16627720682975
 11
-48.36762410118853
 21
34.02029823795331
  0
LINE
  5
18A
100
AcDbEntity
  8
choc
  6
ByLayer
 62
  256
370
   -1
100
AcDbLine
 10
-68.77517988730858
 20
21.74097957459097
 11
-66.6875833729076
 21
36.59500060571452
  0
LINE
  5
18B
100
AcDbEntity
  8
choc
  6
ByLayer
 62
  256
370
   -1
100
AcDbLine
 10
-87.09513915902762
 20
24.31568194235219
 11
-85.00754264462664
 21
39.16970297347574
  0
LINE
  5
18C
100
AcDbEntity
  8
choc
  6
ByLayer
 62
  256
370
   -1
100
AcDbLine
 10
-87.26910553522772
 20
39.32784685642523
 11
-87.26910553522772
 21
24.32784685642522
  0
LINE
  5
18D
100
AcDbEntity
  8
choc
  6
ByLayer
 62
  256
370
   -1
100
AcDbLine
 10
-86.86464625685787
 20
20.99241254104102
 11
-86.86464625685787
 21
5.992412541040993
  0
LINE
  5
18E
100
AcDbEntity
  8
choc
  6
ByLayer
 62
  256
370
   -1
100
AcDbLine
 10
-66.05822060893875
 20
3.687153330680641
 11
-63.97062409453775
 21
18.54117436180419
  0
LINE
  5
18F
100
AcDbEntity
  8
choc
  6
ByLayer
 62
  256
370
   -1
100
AcDbLine
 10
-84.3781798806578
 20
6.26185569844186
 11
-82.29058336625681
 21
21.11587672956541
  0
LINE
  5
190
100
AcDbEntity
  8
choc
  6
ByLayer
 62
  256
370
   -1
100
AcDbLine
 10
-47.7382613372197
 20
1.112450962919421
 11
-45.65066482281871
 21
15.96647199404297
  0
LINE
  5
191
100
AcDbEntity
  8
choc
  6
ByLayer
 62
  256
370
   -1
100
AcDbLine
 10
-29.41830206550065
 20
-1.462251404841791
 11
-27.33070555109966
 21
13.39176962628176
  0
LINE
  5
192
100
AcDbEntity
  8
choc
  6
ByLayer
 62
  256
370
   -1
100
AcDbLine
 10
-84.76519588779954
 20
2.656978225656826
 11
-84.76519588779954
 21
-12.34302177434317
  0
LINE
  5
193
100
AcDbEntity
  8
choc
  6
ByLayer
 62
  256
370
   -1
100
AcDbLine
 10
-103.2651958877995
 20
-12.34302177434317
 11
-103.2651958877995
 21
2.656978225656827
  0
LINE
  5
194
100
AcDbEntity
  8
choc
  6
ByLayer
 62
  256
370
   -1
100
AcDbLine
 10
-89.39019588779954
 20
-14.84302177434318
 11
-89.39019588779954
 21
-29.84302177434319
  0
LINE
  5
195
100
AcDbEntity
  8
choc
  6
ByLayer
 62
  256
370
   -1
100
AcDbLine
 10
-64.05929441564642
 20
-31.93774246318476
 11
-61.97169790124543
 21
-17.08372143206121
  0
LINE
  5
196
100
AcDbEntity
  8
choc
  6
ByLayer
 62
  256
370
   -1
100
AcDbLine
 10
-43.65173862952639
 20
-19.65842379982243
 11
-45.73933514392738
 21
-34.51244483094598
  0
LINE
  5
197
100
AcDbEntity
  8
choc
  6
ByLayer
 62
  256
370
   -1
100
AcDbLine
 10
-36.57935550806786
 20
-35.79979601482658
 11
-34.49175899366687
 21
-20.94577498370304
  0
LINE
  5
198
100
AcDbEntity
  8
choc
  6
ByLayer
 62
  256
370
   -1
100
AcDbLine
 10
-16.17179972194782
 20
-23.52047735146425
 11
-18.25939623634881
 21
-38.3744983825878
  0
LINE
  5
199
100
AcDbEntity
  8
choc
  6
ByLayer
 62
  256
370
   -1
100
AcDbLine
 10
-22.69385169644228
 20
-20.07929379169988
 11
-20.60625518204129
 21
-5.225272760576324
  0
LINE
  5
19A
100
AcDbEntity
  8
choc
  6
ByLayer
 62
  256
370
   -1
100
AcDbLine
 10
-38.92621445376038
 20
-2.650570392815108
 11
-41.01381096816135
 21
-17.50459142393866
  0
LINE
  5
19B
100
AcDbEntity
  8
choc
  6
ByLayer
 62
  256
370
   -1
100
AcDbLine
 10
-59.33377023988038
 20
-14.92988905617744
 11
-57.24617372547939
 21
-0.07586802505389337
  0
LINE
  5
19C
100
AcDbEntity
  8
choc
  6
ByLayer
 62
  256
370
   -1
100
AcDbLine
 10
-77.65372951159944
 20
-12.35518668841623
 11
-75.56613299719845
 21
2.498834342707326
  0
LINE
  5
19D
100
AcDbEntity
  8
choc
  6
ByLayer
 62
  256
370
   -1
100
AcDbLine
 10
-103.6146462568579
 20
22.74241254104102
 11
-88.61464625685787
 21
22.74241254104102
  0
LINE
  5
19E
100
AcDbEntity
  8
choc
  6
ByLayer
 62
  256
370
   -1
100
AcDbLine
 10
66.59669790124543
 20
-17.08372143206123
 11
68.68429441564642
 21
-31.93774246318478
  0
LINE
  5
19F
100
AcDbEntity
  8
choc
  6
ByLayer
 62
  256
370
   -1
100
AcDbLine
 10
13.63574627938064
 20
10.81706725852055
 11
15.72334279378161
 21
-4.036953772603006
  0
LINE
  5
1A0
100
AcDbEntity
  8
choc
  6
ByLayer
 62
  256
370
   -1
100
AcDbLine
 10
6.911295910322258
 20
-7.799975128337536
 11
8.998892424723227
 21
-22.65399615946109
  0
LINE
  5
1A1
100
AcDbEntity
  8
choc
  6
ByLayer
 62
  256
370
   -1
100
AcDbLine
 10
-2.28629591032227
 20
-7.799975128337538
 11
-4.373892424723241
 21
-22.65399615946109
  0
LINE
  5
1A2
100
AcDbEntity
  8
choc
  6
ByLayer
 62
  256
370
   -1
100
AcDbLine
 10
-9.010746279380646
 20
10.81706725852055
 11
-11.09834279378162
 21
-4.036953772603005
  0
LINE
  5
1A3
100
AcDbEntity
  8
choc
  6
ByLayer
 62
  256
370
   -1
100
AcDbLine
 10
101.1336644671581
 20
21.85371181549231
 11
86.13366446715814
 21
21.85371181549231
  0
LINE
  5
1A4
100
AcDbEntity
  8
choc
  6
ByLayer
 62
  256
370
   -1
100
AcDbLine
 10
-104.0191055352277
 20
39.32784685642523
 11
-89.01910553522772
 21
24.32784685642522
  0
LINE
  5
1A5
100
AcDbEntity
  8
choc
  6
ByLayer
 62
  256
370
   -1
100
AcDbLine
 10
-103.6146462568579
 20
20.99241254104102
 11
-88.61464625685787
 21
5.992412541040993
  0
LINE
  5
1A6
100
AcDbEntity
  8
choc
  6
ByLayer
 62
  256
370
   -1
100
AcDbLine
 10
-101.5151958877995
 20
2.656978225656827
 11
-86.51519588779954
 21
-12.34302177434317
  0
LINE
  5
1A7
100
AcDbEntity
  8
choc
  6
ByLayer
 62
  256
370
   -1
100
AcDbLine
 10
-106.1401958877995
 20
-14.84302177434318
 11
-91.14019588779954
 21
-29.84302177434319
  0
LINE
  5
1A8
100
AcDbEntity
  8
choc
  6
ByLayer
 62
  256
370
   -1
100
AcDbLine
 10
-73.83316387690071
 20
2.255281416027211
 11
-61.06673936017814
 21
-14.68633612949732
  0
LINE
  5
1A9
100
AcDbEntity
  8
choc
  6
ByLayer
 62
  256
370
   -1
100
AcDbLine
 10
-60.23872878094769
 20
-17.32727435874132
 11
-47.47230426422513
 21
-34.26889190426586
  0
LINE
  5
1AA
100
AcDbEntity
  8
choc
  6
ByLayer
 62
  256
370
   -1
100
AcDbLine
 10
-55.51320460518165
 20
-0.3194209517340089
 11
-42.7467800884591
 21
-17.26103849725855
  0
LINE
  5
1AB
100
AcDbEntity
  8
choc
  6
ByLayer
 62
  256
370
   -1
100
AcDbLine
 10
-62.23765497424001
 20
18.29762143512407
 11
-49.47123045751746
 21
1.35600388959954
  0
LINE
  5
1AC
100
AcDbEntity
  8
choc
  6
ByLayer
 62
  256
370
   -1
100
AcDbLine
 10
-80.55761424595906
 20
20.87232380288529
 11
-67.79118972923652
 21
3.930706257360761
  0
LINE
  5
1AD
100
AcDbEntity
  8
choc
  6
ByLayer
 62
  256
370
   -1
100
AcDbLine
 10
-83.27457352432889
 20
38.92615004679563
 11
-70.50814900760633
 21
21.98453250127109
  0
LINE
  5
1AE
100
AcDbEntity
  8
choc
  6
ByLayer
 62
  256
370
   -1
100
AcDbLine
 10
-64.95461425260984
 20
36.35144767903441
 11
-52.18818973588728
 21
19.40983013350987
  0
LINE
  5
1AF
100
AcDbEntity
  8
choc
  6
ByLayer
 62
  256
370
   -1
100
AcDbLine
 10
-46.63465498089078
 20
33.7767453112732
 11
-33.86823046416821
 21
16.83512776574865
  0
LINE
  5
1B0
100
AcDbEntity
  8
choc
  6
ByLayer
 62
  256
370
   -1
100
AcDbLine
 10
-28.31469570917174
 20
31.20204294351196
 11
-15.54827119244917
 21
14.26042539798742
  0
LINE
  5
1B1
100
AcDbEntity
  8
choc
  6
ByLayer
 62
  256
370
   -1
100
AcDbLine
 10
-43.91769570252097
 20
15.72291906736286
 11
-31.1512711857984
 21
-1.218698478161683
  0
LINE
  5
1B2
100
AcDbEntity
  8
choc
  6
ByLayer
 62
  256
370
   -1
100
AcDbLine
 10
-25.59773643080191
 20
13.14821669960165
 11
-12.83131191407935
 21
-3.793400845922895
  0
LINE
  5
1B3
100
AcDbEntity
  8
choc
  6
ByLayer
 62
  256
370
   -1
100
AcDbLine
 10
-37.19324533346259
 20
-2.894123319495217
 11
-24.42682081674003
 21
-19.83574086501977
  0
LINE
  5
1B4
100
AcDbEntity
  8
choc
  6
ByLayer
 62
  256
370
   -1
100
AcDbLine
 10
-18.87328606174354
 20
-5.468825687256432
 11
-6.106861545020976
 21
-22.41044323278098
  0
LINE
  5
1B5
100
AcDbEntity
  8
choc
  6
ByLayer
 62
  256
370
   -1
100
AcDbLine
 10
-32.75878987336912
 20
-21.18932791038315
 11
-19.99236535664656
 21
-38.13094545590769
  0
LINE
  5
1B6
100
AcDbEntity
  8
choc
  6
ByLayer
 62
  256
370
   -1
100
AcDbLine
 10
23.207217346071
 20
29.83423231063881
 11
10.44079282934845
 21
12.89261476511429
  0
LINE
  5
1B7
100
AcDbEntity
  8
choc
  6
ByLayer
 62
  256
370
   -1
100
AcDbLine
 10
30.22273643080191
 20
13.14821669960164
 11
17.45631191407936
 21
-3.793400845922891
  0
LINE
  5
1B8
100
AcDbEntity
  8
choc
  6
ByLayer
 62
  256
370
   -1
100
AcDbLine
 10
23.49828606174353
 20
-5.468825687256439
 11
10.73186154502098
 21
-22.41044323278097
  0
LINE
  5
1B9
100
AcDbEntity
  8
choc
  6
ByLayer
 62
  256
370
   -1
100
AcDbLine
 10
41.81824533346259
 20
-2.894123319495231
 11
29.05182081674004
 21
-19.83574086501976
  0
LINE
  5
1BA
100
AcDbEntity
  8
choc
  6
ByLayer
 62
  256
370
   -1
100
AcDbLine
 10
37.38378987336911
 20
-21.18932791038316
 11
24.61736535664656
 21
-38.13094545590769
  0
LINE
  5
1BB
100
AcDbEntity
  8
choc
  6
ByLayer
 62
  256
370
   -1
100
AcDbLine
 10
41.52717661779005
 20
32.40893467840003
 11
28.7607521010675
 21
15.4673171328755
  0
LINE
  5
1BC
100
AcDbEntity
  8
choc
  6
ByLayer
 62
  256
370
   -1
100
AcDbLine
 10
48.54269570252097
 20
15.72291906736285
 11
35.77627118579841
 21
-1.218698478161679
  0
LINE
  5
1BD
100
AcDbEntity
  8
choc
  6
ByLayer
 62
  256
370
   -1
100
AcDbLine
 10
59.84713588950912
 20
34.98363704616124
 11
47.08071137278657
 21
18.04201950063671
  0
LINE
  5
1BE
100
AcDbEntity
  8
choc
  6
ByLayer
 62
  256
370
   -1
100
AcDbLine
 10
66.86265497424002
 20
18.29762143512406
 11
54.09623045751746
 21
1.356003889599531
  0
LINE
  5
1BF
100
AcDbEntity
  8
choc
  6
ByLayer
 62
  256
370
   -1
100
AcDbLine
 10
78.16709516122812
 20
37.55833941392245
 11
65.40067064450557
 21
20.61672186839792
  0
LINE
  5
1C0
100
AcDbEntity
  8
choc
  6
ByLayer
 62
  256
370
   -1
100
AcDbLine
 10
85.18261424595906
 20
20.87232380288527
 11
72.41618972923651
 21
3.93070625736074
  0
LINE
  5
1C1
100
AcDbEntity
  8
choc
  6
ByLayer
 62
  256
370
   -1
100
AcDbLine
 10
78.45816387690068
 20
2.255281416027188
 11
65.69173936017813
 21
-14.68633612949734
  0
LINE
  5
1C2
100
AcDbEntity
  8
choc
  6
ByLayer
 62
  256
370
   -1
100
AcDbLine
 10
60.13820460518165
 20
-0.3194209517340226
 11
47.3717800884591
 21
-17.26103849725855
  0
LINE
  5
1C3
100
AcDbEntity
  8
choc
  6
ByLayer
 62
  256
370
   -1
100
AcDbLine
 10
64.86372878094768
 20
-17.32727435874135
 11
52.09730426422513
 21
-34.26889190426587
  0
LINE
  5
1C4
100
AcDbEntity
  8
choc
  6
ByLayer
 62
  256
370
   -1
100
AcDbLine
 10
101.1336644671581
 20
38.60371181549235
 11
86.13366446715814
 21
23.60371181549231
  0
LINE
  5
1C5
100
AcDbEntity
  8
choc
  6
ByLayer
 62
  256
370
   -1
100
AcDbLine
 10
105.9271462568579
 20
20.6303450205746
 11
90.9271462568579
 21
5.630345020574559
  0
LINE
  5
1C6
100
AcDbEntity
  8
choc
  6
ByLayer
 62
  256
370
   -1
100
AcDbLine
 10
103.8276958877997
 20
2.656978225656812
 11
88.82769588779971
 21
-12.34302177434323
  0
LINE
  5
1C7
100
AcDbEntity
  8
choc
  6
ByLayer
 62
  256
370
   -1
100
AcDbLine
 10
106.1401958877997
 20
-14.84302177434319
 11
91.14019588779972
 21
-29.84302177434323
  0
ENDSEC
  0
SECTION
  2
OBJECTS
  0
DICTIONARY
  5
C
330
0
100
AcDbDictionary
281
    1
  3
ACAD_GROUP
350
D
  0
DICTIONARY
  5
D
330
C
100
AcDbDictionary
281
    1
  0
PLOTSETTINGS
  5
1C8
100
AcDbPlotSettings
  6
1x1
 40
0
 41
0
 42
0
 43
0
  0
ENDSEC
  0
EOF
