999
dxfrw 0.6.3
  0
SECTION
  2
HEADER
  9
$ACADVER
  1
AC1021
  9
$DWGCODEPAGE
  3
ANSI_1252
  9
$INSBASE
 10
0
 20
0
 30
0
  9
$EXTMIN
 10
-109.4857899491779
 20
-45.90462427218511
 30
0
  9
$EXTMAX
 10
109.4857899491779
 20
45.90462427218512
 30
0
  9
$LIMMIN
 10
0
 20
0
  9
$LIMMAX
 10
420
 20
297
  9
$ORTHOMODE
 70
    0
  9
$REGENMODE
 70
    1
  9
$FILLMODE
 70
    1
  9
$QTEXTMODE
 70
    0
  9
$MIRRTEXT
 70
    0
  9
$LTSCALE
 40
1
  9
$ATTMODE
 70
    0
  9
$TEXTSIZE
 40
2.5
  9
$TRACEWID
 40
15.68
  9
$TEXTSTYLE
  7
STANDARD
  9
$CLAYER
  8
placement
  9
$CELTYPE
  6
BYLAYER
  9
$CECOLOR
 62
  256
  9
$CELTSCALE
 40
1
  9
$DISPSILH
 70
    0
  9
$DIMSCALE
 40
2.5
  9
$DIMASZ
 40
2.5
  9
$DIMEXO
 40
0.625
  9
$DIMDLI
 40
3.75
  9
$DIMRND
 40
0
  9
$DIMDLE
 40
0
  9
$DIMEXE
 40
1.25
  9
$DIMTP
 40
0
  9
$DIMTM
 40
0
  9
$DIMTXT
 40
2.5
  9
$DIMCEN
 40
2.5
  9
$DIMTSZ
 40
0
  9
$DIMTOL
 70
    0
  9
$DIMLIM
 70
    0
  9
$DIMTIH
 70
    0
  9
$DIMTOH
 70
    0
  9
$DIMSE1
 70
    0
  9
$DIMSE2
 70
    0
  9
$DIMTAD
 70
    1
  9
$DIMZIN
 70
    8
  9
$DIMBLK
  1

  9
$DIMASO
 70
    1
  9
$DIMSHO
 70
    1
  9
$DIMPOST
  1

  9
$DIMAPOST
  1

  9
$DIMALT
 70
    0
  9
$DIMALTD
 70
    3
  9
$DIMALTF
 40
0.03937
  9
$DIMLFAC
 40
1
  9
$DIMTOFL
 70
    1
  9
$DIMTVP
 40
0
  9
$DIMTIX
 70
    0
  9
$DIMSOXD
 70
    0
  9
$DIMSAH
 70
    0
  9
$DIMBLK1
  1

  9
$DIMBLK2
  1

  9
$DIMSTYLE
  2
Standard
  9
$DIMCLRD
 70
    0
  9
$DIMCLRE
 70
    0
  9
$DIMCLRT
 70
    0
  9
$DIMTFAC
 40
1
  9
$DIMGAP
 40
0.625
  9
$DIMJUST
 70
    0
  9
$DIMSD1
 70
    0
  9
$DIMSD2
 70
    0
  9
$DIMTOLJ
 70
    0
  9
$DIMTZIN
 70
    8
  9
$DIMALTZ
 70
    0
  9
$DIMALTTZ
 70
    0
  9
$DIMUPT
 70
    0
  9
$DIMDEC
 70
    2
  9
$DIMTDEC
 70
    2
  9
$DIMALTU
 70
    2
  9
$DIMALTTD
 70
    3
  9
$DIMTXSTY
  7
STANDARD
  9
$DIMAUNIT
 70
    0
  9
$DIMADEC
 70
    0
  9
$DIMALTRND
 40
0
  9
$DIMAZIN
 70
    0
  9
$DIMDSEP
 70
   44
  9
$DIMATFIT
 70
    3
  9
$DIMFRAC
 70
    0
  9
$DIMLDRBLK
  1
STANDARD
  9
$DIMLUNIT
 70
    2
  9
$DIMLWD
 70
   -2
  9
$DIMLWE
 70
   -2
  9
$DIMTMOVE
 70
    0
  9
$DIMFXL
 40
1
  9
$DIMFXLON
 70
    0
  9
$DIMJOGANG
 40
0.7854
  9
$DIMTFILL
 70
    0
  9
$DIMTFILLCLR
 70
    0
  9
$DIMARCSYM
 70
    0
  9
$DIMLTYPE
  6

  9
$DIMLTEX1
  6

  9
$DIMLTEX2
  6

  9
$LUNITS
 70
    2
  9
$LUPREC
 70
    4
  9
$SKETCHINC
 40
1
  9
$FILLETRAD
 40
0
  9
$AUNITS
 70
    0
  9
$AUPREC
 70
    2
  9
$MENU
  1
.
  9
$ELEVATION
 40
0
  9
$PELEVATION
 40
0
  9
$THICKNESS
 40
0
  9
$LIMCHECK
 70
    0
  9
$CHAMFERA
 40
0
  9
$CHAMFERB
 40
0
  9
$CHAMFERC
 40
0
  9
$CHAMFERD
 40
0
  9
$SKPOLY
 70
    0
  9
$USRTIMER
 70
    1
  9
$ANGBASE
 50
0
  9
$ANGDIR
 70
    0
  9
$PDMODE
 70
   34
  9
$PDSIZE
 40
0
  9
$PLINEWID
 40
0
  9
$SPLFRAME
 70
    0
  9
$SPLINETYPE
 70
    2
  9
$SPLINESEGS
 70
    8
  9
$HANDSEED
  5
20000
  9
$SURFTAB1
 70
    6
  9
$SURFTAB2
 70
    6
  9
$SURFTYPE
 70
    6
  9
$SURFU
 70
    6
  9
$SURFV
 70
    6
  9
$UCSBASE
  2

  9
$UCSNAME
  2

  9
$UCSORG
 10
0
 20
0
 30
0
  9
$UCSXDIR
 10
1
 20
0
 30
0
  9
$UCSYDIR
 10
0
 20
1
 30
0
  9
$UCSORTHOREF
  2

  9
$UCSORTHOVIEW
 70
    0
  9
$UCSORGTOP
 10
0
 20
0
 30
0
  9
$UCSORGBOTTOM
 10
0
 20
0
 30
0
  9
$UCSORGLEFT
 10
0
 20
0
 30
0
  9
$UCSORGRIGHT
 10
0
 20
0
 30
0
  9
$UCSORGFRONT
 10
0
 20
0
 30
0
  9
$UCSORGBACK
 10
0
 20
0
 30
0
  9
$PUCSBASE
  2

  9
$PUCSNAME
  2

  9
$PUCSORG
 10
0
 20
0
 30
0
  9
$PUCSXDIR
 10
1
 20
0
 30
0
  9
$PUCSYDIR
 10
0
 20
1
 30
0
  9
$PUCSORTHOREF
  2

  9
$PUCSORTHOVIEW
 70
    0
  9
$PUCSORGTOP
 10
0
 20
0
 30
0
  9
$PUCSORGBOTTOM
 10
0
 20
0
 30
0
  9
$PUCSORGLEFT
 10
0
 20
0
 30
0
  9
$PUCSORGRIGHT
 10
0
 20
0
 30
0
  9
$PUCSORGFRONT
 10
0
 20
0
 30
0
  9
$PUCSORGBACK
 10
0
 20
0
 30
0
  9
$USERI1
 70
    0
  9
$USERI2
 70
    0
  9
$USERI3
 70
    0
  9
$USERI4
 70
    0
  9
$USERI5
 70
    0
  9
$USERR1
 40
0
  9
$USERR2
 40
0
  9
$USERR3
 40
0
  9
$USERR4
 40
0
  9
$USERR5
 40
0
  9
$WORLDVIEW
 70
    1
  9
$SHADEDGE
 70
    3
  9
$SHADEDIF
 70
   70
  9
$TILEMODE
 70
    1
  9
$MAXACTVP
 70
   64
  9
$PINSBASE
 10
0
 20
0
 30
0
  9
$PLIMCHECK
 70
    0
  9
$PEXTMIN
 10
0
 20
0
 30
0
  9
$PEXTMAX
 10
0
 20
0
 30
0
  9
$GRIDMODE
 70
    1
  9
$SNAPSTYLE
 70
    0
  9
$PLIMMIN
 10
0
 20
0
  9
$PLIMMAX
 10
210
 20
297
  9
$UNITMODE
 70
    0
  9
$VISRETAIN
 70
    1
  9
$PLINEGEN
 70
    0
  9
$PSLTSCALE
 70
    1
  9
$TREEDEPTH
 70
 3020
  9
$CMLSTYLE
  2
Standard
  9
$CMLJUST
 70
    0
  9
$CMLSCALE
 40
20
  9
$PROXYGRAPHICS
 70
    1
  9
$MEASUREMENT
 70
    1
  9
$CELWEIGHT
370
   -1
  9
$ENDCAPS
280
    0
  9
$JOINSTYLE
280
    0
  9
$LWDISPLAY
290
    0
  9
$INSUNITS
 70
    4
  9
$HYPERLINKBASE
  1

  9
$STYLESHEET
  1

  9
$XEDIT
290
    1
  9
$CEPSNTYPE
380
    0
  9
$PSTYLEMODE
290
    1
  9
$EXTNAMES
290
    1
  9
$PSVPSCALE
 40
1
  9
$OLESTARTUP
290
    0
  9
$SORTENTS
280
  127
  9
$INDEXCTL
280
    0
  9
$HIDETEXT
280
    1
  9
$XCLIPFRAME
290
    0
  9
$HALOGAP
280
    0
  9
$OBSCOLOR
 70
  257
  9
$OBSLTYPE
280
    0
  9
$INTERSECTIONDISPLAY
280
    0
  9
$INTERSECTIONCOLOR
 70
  257
  9
$DIMASSOC
280
    1
  9
$PROJECTNAME
  1

  9
$CAMERADISPLAY
290
    0
  9
$LENSLENGTH
 40
50
  9
$CAMERAHEIGHT
 40
0
  9
$STEPSPERSEC
 40
2
  9
$STEPSIZE
 40
50
  9
$3DDWFPREC
 40
2
  9
$PSOLWIDTH
 40
5
  9
$PSOLHEIGHT
 40
80
  9
$LOFTANG1
 40
1.570796326794897
  9
$LOFTANG2
 40
1.570796326794897
  9
$LOFTMAG1
 40
0
  9
$LOFTMAG2
 40
0
  9
$LOFTPARAM
 70
    7
  9
$LOFTNORMALS
280
    1
  9
$LATITUDE
 40
1
  9
$LONGITUDE
 40
1
  9
$NORTHDIRECTION
 40
0
  9
$TIMEZONE
 70
-8000
  9
$LIGHTGLYPHDISPLAY
280
    1
  9
$TILEMODELIGHTSYNCH
280
    1
  9
$SOLIDHIST
280
    1
  9
$SHOWHIST
280
    1
  9
$DWFFRAME
280
    2
  9
$DGNFRAME
280
    0
  9
$REALWORLDSCALE
290
    1
  9
$INTERFERECOLOR
 62
    1
  9
$CSHADOW
280
    0
  9
$SHADOWPLANELOCATION
 40
0
  0
ENDSEC
  0
SECTION
  2
CLASSES
  0
ENDSEC
  0
SECTION
  2
TABLES
  0
TABLE
  2
VPORT
  5
8
330
0
100
AcDbSymbolTable
 70
    1
  0
VPORT
  5
31
330
2
100
AcDbSymbolTableRecord
100
AcDbViewportTableRecord
  2
*ACTIVE
 70
    0
 10
0
 20
0
 11
1
 21
1
 12
14.47257687032526
 22
14.8971057918548
 13
0
 23
0
 14
10
 24
10
 15
10
 25
10
 16
0
 26
0
 36
1
 17
0
 27
0
 37
0
 40
56.8868754849585
 41
0.9647218453188603
 42
50
 43
0
 44
0
 50
0
 51
0
 71
    0
 72
  100
 73
    1
 74
    3
 75
    0
 76
    1
 77
    0
 78
    0
281
    0
 65
    1
110
0
120
0
130
0
111
1
121
0
131
0
112
0
122
1
132
0
 79
    0
146
0
348
10020
 60
    7
 61
    5
292
1
282
    1
141
0
142
0
 63
  250
421
3358443
  0
ENDTAB
  0
TABLE
  2
LTYPE
  5
5
330
0
100
AcDbSymbolTable
 70
    4
  0
LTYPE
  5
14
330
5
100
AcDbSymbolTableRecord
100
AcDbLinetypeTableRecord
  2
ByBlock
 70
    0
  3

 72
   65
 73
    0
 40
0
  0
LTYPE
  5
15
330
5
100
AcDbSymbolTableRecord
100
AcDbLinetypeTableRecord
  2
ByLayer
 70
    0
  3

 72
   65
 73
    0
 40
0
  0
LTYPE
  5
16
330
5
100
AcDbSymbolTableRecord
100
AcDbLinetypeTableRecord
  2
Continuous
 70
    0
  3
Solid line
 72
   65
 73
    0
 40
0
  0
LTYPE
  5
32
330
5
100
AcDbSymbolTableRecord
100
AcDbLinetypeTableRecord
  2
DOT
 70
    0
  3
Dot . . . . . . . . . . . . . . . . . . . . . .
 72
   65
 73
    2
 40
6.35
 49
0
 74
    0
 49
-6.35
 74
    0
  0
LTYPE
  5
33
330
5
100
AcDbSymbolTableRecord
100
AcDbLinetypeTableRecord
  2
DOTTINY
 70
    0
  3
Dot (.15x) .....................................
 72
   65
 73
    2
 40
0.9525
 49
0
 74
    0
 49
-0.9525
 74
    0
  0
LTYPE
  5
34
330
5
100
AcDbSymbolTableRecord
100
AcDbLinetypeTableRecord
  2
DOT2
 70
    0
  3
Dot (.5x) .....................................
 72
   65
 73
    2
 40
3.175
 49
0
 74
    0
 49
-3.175
 74
    0
  0
LTYPE
  5
35
330
5
100
AcDbSymbolTableRecord
100
AcDbLinetypeTableRecord
  2
DOTX2
 70
    0
  3
Dot (2x) .  .  .  .  .  .  .  .  .  .  .  .  .
 72
   65
 73
    2
 40
12.7
 49
0
 74
    0
 49
-12.7
 74
    0
  0
LTYPE
  5
36
330
5
100
AcDbSymbolTableRecord
100
AcDbLinetypeTableRecord
  2
DASHED
 70
    0
  3
Dashed _ _ _ _ _ _ _ _ _ _ _ _ _ _ _ _ _
 72
   65
 73
    2
 40
19.05
 49
12.7
 74
    0
 49
-6.35
 74
    0
  0
LTYPE
  5
37
330
5
100
AcDbSymbolTableRecord
100
AcDbLinetypeTableRecord
  2
DASHEDTINY
 70
    0
  3
Dashed (.15x) _ _ _ _ _ _ _ _ _ _ _ _ _ _ _ _ _
 72
   65
 73
    2
 40
2.8575
 49
1.905
 74
    0
 49
-0.9525
 74
    0
  0
LTYPE
  5
38
330
5
100
AcDbSymbolTableRecord
100
AcDbLinetypeTableRecord
  2
DASHED2
 70
    0
  3
Dashed (.5x) _ _ _ _ _ _ _ _ _ _ _ _ _ _ _ _ _
 72
   65
 73
    2
 40
9.524999999999999
 49
6.35
 74
    0
 49
-3.175
 74
    0
  0
LTYPE
  5
39
330
5
100
AcDbSymbolTableRecord
100
AcDbLinetypeTableRecord
  2
DASHEDX2
 70
    0
  3
Dashed (2x) ____  ____  ____  ____  ____  ___
 72
   65
 73
    2
 40
38.09999999999999
 49
25.4
 74
    0
 49
-12.7
 74
    0
  0
LTYPE
  5
3A
330
5
100
AcDbSymbolTableRecord
100
AcDbLinetypeTableRecord
  2
DASHDOT
 70
    0
  3
Dash dot __ . __ . __ . __ . __ . __ . __ . __
 72
   65
 73
    4
 40
25.4
 49
12.7
 74
    0
 49
-6.35
 74
    0
 49
0
 74
    0
 49
-6.35
 74
    0
  0
LTYPE
  5
3B
330
5
100
AcDbSymbolTableRecord
100
AcDbLinetypeTableRecord
  2
DASHDOTTINY
 70
    0
  3
Dash dot (.15x) _._._._._._._._._._._._._._._.
 72
   65
 73
    4
 40
3.81
 49
1.905
 74
    0
 49
-0.9525
 74
    0
 49
0
 74
    0
 49
-0.9525
 74
    0
  0
LTYPE
  5
3C
330
5
100
AcDbSymbolTableRecord
100
AcDbLinetypeTableRecord
  2
DASHDOT2
 70
    0
  3
Dash dot (.5x) _._._._._._._._._._._._._._._.
 72
   65
 73
    4
 40
12.7
 49
6.35
 74
    0
 49
-3.175
 74
    0
 49
0
 74
    0
 49
-3.175
 74
    0
  0
LTYPE
  5
3D
330
5
100
AcDbSymbolTableRecord
100
AcDbLinetypeTableRecord
  2
DASHDOTX2
 70
    0
  3
Dash dot (2x) ____  .  ____  .  ____  .  ___
 72
   65
 73
    4
 40
50.8
 49
25.4
 74
    0
 49
-12.7
 74
    0
 49
0
 74
    0
 49
-12.7
 74
    0
  0
LTYPE
  5
3E
330
5
100
AcDbSymbolTableRecord
100
AcDbLinetypeTableRecord
  2
DIVIDE
 70
    0
  3
Divide ____ . . ____ . . ____ . . ____ . . ____
 72
   65
 73
    6
 40
31.75
 49
12.7
 74
    0
 49
-6.35
 74
    0
 49
0
 74
    0
 49
-6.35
 74
    0
 49
0
 74
    0
 49
-6.35
 74
    0
  0
LTYPE
  5
3F
330
5
100
AcDbSymbolTableRecord
100
AcDbLinetypeTableRecord
  2
DIVIDETINY
 70
    0
  3
Divide (.15x) __..__..__..__..__..__..__..__.._
 72
   65
 73
    6
 40
4.7625
 49
1.905
 74
    0
 49
-0.9525
 74
    0
 49
0
 74
    0
 49
-0.9525
 74
    0
 49
0
 74
    0
 49
-0.9525
 74
    0
  0
LTYPE
  5
40
330
5
100
AcDbSymbolTableRecord
100
AcDbLinetypeTableRecord
  2
DIVIDE2
 70
    0
  3
Divide (.5x) __..__..__..__..__..__..__..__.._
 72
   65
 73
    6
 40
15.875
 49
6.35
 74
    0
 49
-3.175
 74
    0
 49
0
 74
    0
 49
-3.175
 74
    0
 49
0
 74
    0
 49
-3.175
 74
    0
  0
LTYPE
  5
41
330
5
100
AcDbSymbolTableRecord
100
AcDbLinetypeTableRecord
  2
DIVIDEX2
 70
    0
  3
Divide (2x) ________  .  .  ________  .  .  _
 72
   65
 73
    6
 40
63.5
 49
25.4
 74
    0
 49
-12.7
 74
    0
 49
0
 74
    0
 49
-12.7
 74
    0
 49
0
 74
    0
 49
-12.7
 74
    0
  0
LTYPE
  5
42
330
5
100
AcDbSymbolTableRecord
100
AcDbLinetypeTableRecord
  2
BORDER
 70
    0
  3
Border __ __ . __ __ . __ __ . __ __ . __ __ .
 72
   65
 73
    6
 40
44.45
 49
12.7
 74
    0
 49
-6.35
 74
    0
 49
12.7
 74
    0
 49
-6.35
 74
    0
 49
0
 74
    0
 49
-6.35
 74
    0
  0
LTYPE
  5
43
330
5
100
AcDbSymbolTableRecord
100
AcDbLinetypeTableRecord
  2
BORDERTINY
 70
    0
  3
Border (.15x) __.__.__.__.__.__.__.__.__.__.__.
 72
   65
 73
    6
 40
6.6675
 49
1.905
 74
    0
 49
-0.9525
 74
    0
 49
1.905
 74
    0
 49
-0.9525
 74
    0
 49
0
 74
    0
 49
-0.9525
 74
    0
  0
LTYPE
  5
44
330
5
100
AcDbSymbolTableRecord
100
AcDbLinetypeTableRecord
  2
BORDER2
 70
    0
  3
Border (.5x) __.__.__.__.__.__.__.__.__.__.__.
 72
   65
 73
    6
 40
22.225
 49
6.35
 74
    0
 49
-3.175
 74
    0
 49
6.35
 74
    0
 49
-3.175
 74
    0
 49
0
 74
    0
 49
-3.175
 74
    0
  0
LTYPE
  5
45
330
5
100
AcDbSymbolTableRecord
100
AcDbLinetypeTableRecord
  2
BORDERX2
 70
    0
  3
Border (2x) ____  ____  .  ____  ____  .  ___
 72
   65
 73
    6
 40
88.89999999999999
 49
25.4
 74
    0
 49
-12.7
 74
    0
 49
25.4
 74
    0
 49
-12.7
 74
    0
 49
0
 74
    0
 49
-12.7
 74
    0
  0
LTYPE
  5
46
330
5
100
AcDbSymbolTableRecord
100
AcDbLinetypeTableRecord
  2
CENTER
 70
    0
  3
Center ____ _ ____ _ ____ _ ____ _ ____ _ ____
 72
   65
 73
    4
 40
50.8
 49
31.75
 74
    0
 49
-6.35
 74
    0
 49
6.35
 74
    0
 49
-6.35
 74
    0
  0
LTYPE
  5
47
330
5
100
AcDbSymbolTableRecord
100
AcDbLinetypeTableRecord
  2
CENTERTINY
 70
    0
  3
Center (.15x) ___ _ ___ _ ___ _ ___ _ ___ _ ___
 72
   65
 73
    4
 40
7.619999999999999
 49
4.7625
 74
    0
 49
-0.9525
 74
    0
 49
0.9525
 74
    0
 49
-0.9525
 74
    0
  0
LTYPE
  5
48
330
5
100
AcDbSymbolTableRecord
100
AcDbLinetypeTableRecord
  2
CENTER2
 70
    0
  3
Center (.5x) ___ _ ___ _ ___ _ ___ _ ___ _ ___
 72
   65
 73
    4
 40
28.575
 49
19.05
 74
    0
 49
-3.175
 74
    0
 49
3.175
 74
    0
 49
-3.175
 74
    0
  0
LTYPE
  5
49
330
5
100
AcDbSymbolTableRecord
100
AcDbLinetypeTableRecord
  2
CENTERX2
 70
    0
  3
Center (2x) ________  __  ________  __  _____
 72
   65
 73
    4
 40
101.6
 49
63.5
 74
    0
 49
-12.7
 74
    0
 49
12.7
 74
    0
 49
-12.7
 74
    0
  0
ENDTAB
  0
TABLE
  2
LAYER
  5
2
330
0
100
AcDbSymbolTable
 70
    1
  0
LAYER
  5
10
330
2
100
AcDbSymbolTableRecord
100
AcDbLayerTableRecord
  2
0
 70
    4
 62
    7
  6
CONTINUOUS
370
    0
390
F
  0
LAYER
  5
4A
330
2
100
AcDbSymbolTableRecord
100
AcDbLayerTableRecord
  2
edge
 70
    0
 62
    2
  6
CONTINUOUS
370
    0
390
F
  0
LAYER
  5
4B
330
2
100
AcDbSymbolTableRecord
100
AcDbLayerTableRecord
  2
keycap
 70
    4
 62
    6
  6
CONTINUOUS
370
    0
390
F
  0
LAYER
  5
4C
330
2
100
AcDbSymbolTableRecord
100
AcDbLayerTableRecord
  2
percage
 70
    4
 62
    4
  6
CONTINUOUS
370
    0
390
F
  0
LAYER
  5
4D
330
2
100
AcDbSymbolTableRecord
100
AcDbLayerTableRecord
  2
placement
 70
    4
 62
    1
  6
CONTINUOUS
370
    0
390
F
  0
LAYER
  5
4E
330
2
100
AcDbSymbolTableRecord
100
AcDbLayerTableRecord
  2
rpi
 70
    4
 62
    3
  6
CONTINUOUS
370
    0
390
F
  0
ENDTAB
  0
TABLE
  2
STYLE
  5
3
330
0
100
AcDbSymbolTable
 70
    3
  0
STYLE
  5
4F
330
2
100
AcDbSymbolTableRecord
100
AcDbTextStyleTableRecord
  2
Standard
 70
    0
 40
0
 41
1
 50
0
 71
    0
 42
1
  3
txt
  4

  0
ENDTAB
  0
TABLE
  2
VIEW
  5
6
330
0
100
AcDbSymbolTable
 70
    0
  0
ENDTAB
  0
TABLE
  2
UCS
  5
7
330
0
100
AcDbSymbolTable
 70
    0
  0
ENDTAB
  0
TABLE
  2
APPID
  5
9
330
0
100
AcDbSymbolTable
 70
    1
  0
APPID
  5
12
330
9
100
AcDbSymbolTableRecord
100
AcDbRegAppTableRecord
  2
ACAD
 70
    0
  0
APPID
  5
50
330
9
100
AcDbSymbolTableRecord
100
AcDbRegAppTableRecord
  2
LibreCad
 70
    0
  0
ENDTAB
  0
TABLE
  2
DIMSTYLE
  5
A
330
0
100
AcDbSymbolTable
 70
    1
100
AcDbDimStyleTable
 71
    1
  0
DIMSTYLE
105
51
330
A
100
AcDbSymbolTableRecord
100
AcDbDimStyleTableRecord
  2
Standard
 70
    0
 40
2.5
 41
2.5
 42
0.625
 43
0.38
 44
1.25
 45
0
 46
0
 47
0
 48
0
 49
1
140
2.5
141
0.09
142
0
143
25.4
144
1
145
0
146
1
147
0.625
148
0
 71
    0
 72
    0
 73
    0
 74
    1
 75
    0
 76
    0
 77
    0
 78
    8
 79
    0
170
    0
171
    2
172
    0
173
    0
174
    0
175
    0
176
    0
177
    0
178
    0
179
    0
271
    2
272
    4
273
    2
274
    2
275
    0
276
    0
277
    2
278
   44
279
    0
280
    0
281
    0
282
    0
283
    1
284
    0
285
    0
286
    0
288
    0
289
    3
340
STANDARD
341

371
   -2
372
   -2
  0
ENDTAB
  0
TABLE
  2
BLOCK_RECORD
  5
1
330
0
100
AcDbSymbolTable
 70
    2
  0
BLOCK_RECORD
  5
1F
330
1
100
AcDbSymbolTableRecord
100
AcDbBlockTableRecord
  2
*Model_Space
 70
    0
280
    1
281
    0
  0
BLOCK_RECORD
  5
1E
330
1
100
AcDbSymbolTableRecord
100
AcDbBlockTableRecord
  2
*Paper_Space
 70
    0
280
    1
281
    0
  0
ENDTAB
  0
ENDSEC
  0
SECTION
  2
BLOCKS
  0
BLOCK
  5
20
330
1F
100
AcDbEntity
  8
0
100
AcDbBlockBegin
  2
*Model_Space
 70
    0
 10
0
 20
0
 30
0
  3
*Model_Space
  1

  0
ENDBLK
  5
21
330
1F
100
AcDbEntity
  8
0
100
AcDbBlockEnd
  0
BLOCK
  5
1C
330
1B
100
AcDbEntity
  8
0
100
AcDbBlockBegin
  2
*Paper_Space
 70
    0
 10
0
 20
0
 30
0
  3
*Paper_Space
  1

  0
ENDBLK
  5
1D
330
1F
100
AcDbEntity
  8
0
100
AcDbBlockEnd
  0
ENDSEC
  0
SECTION
  2
ENTITIES
  0
LINE
  5
52
100
AcDbEntity
  8
0
  6
ByLayer
 62
  256
370
   -1
100
AcDbLine
 10
-7.000000000000028
 20
-27.66692836278771
 11
6.999999999999972
 21
-27.66692836278771
  0
LINE
  5
53
100
AcDbEntity
  8
0
  6
ByLayer
 62
  256
370
   -1
100
AcDbLine
 10
-7.000000000000028
 20
-41.66692836278771
 11
6.999999999999972
 21
-41.66692836278771
  0
LINE
  5
54
100
AcDbEntity
  8
0
  6
ByLayer
 62
  256
370
   -1
100
AcDbLine
 10
-7.000000000000028
 20
-27.66692836278771
 11
-7.000000000000028
 21
-41.66692836278771
  0
LINE
  5
55
100
AcDbEntity
  8
0
  6
ByLayer
 62
  256
370
   -1
100
AcDbLine
 10
6.999999999999972
 20
-27.66692836278771
 11
6.999999999999972
 21
-41.66692836278771
  0
LINE
  5
56
100
AcDbEntity
  8
0
  6
ByLayer
 62
  256
370
   -1
100
AcDbLine
 10
-56.77343870000003
 20
43.11858553721229
 11
-42.87779250000003
 21
41.41241473721229
  0
LINE
  5
57
100
AcDbEntity
  8
0
  6
ByLayer
 62
  256
370
   -1
100
AcDbLine
 10
-58.47960950000003
 20
29.22293933721229
 11
-44.58396330000003
 21
27.51676853721229
  0
LINE
  5
58
100
AcDbEntity
  8
0
  6
ByLayer
 62
  256
370
   -1
100
AcDbLine
 10
-56.77343870000003
 20
43.11858553721229
 11
-58.47960950000003
 21
29.22293933721229
  0
LINE
  5
59
100
AcDbEntity
  8
0
  6
ByLayer
 62
  256
370
   -1
100
AcDbLine
 10
-42.87779250000003
 20
41.41241473721229
 11
-44.58396330000003
 21
27.51676853721229
  0
LINE
  5
5A
100
AcDbEntity
  8
0
  6
ByLayer
 62
  256
370
   -1
100
AcDbLine
 10
-76.21069490000002
 20
40.71950883721229
 11
-62.31504870000003
 21
39.01333803721229
  0
LINE
  5
5B
100
AcDbEntity
  8
0
  6
ByLayer
 62
  256
370
   -1
100
AcDbLine
 10
-77.91686570000003
 20
26.82386263721229
 11
-64.02121950000003
 21
25.11769183721229
  0
LINE
  5
5C
100
AcDbEntity
  8
0
  6
ByLayer
 62
  256
370
   -1
100
AcDbLine
 10
-76.21069490000002
 20
40.71950883721229
 11
-77.91686570000003
 21
26.82386263721229
  0
LINE
  5
5D
100
AcDbEntity
  8
0
  6
ByLayer
 62
  256
370
   -1
100
AcDbLine
 10
-62.31504870000003
 20
39.01333803721229
 11
-64.02121950000003
 21
25.11769183721229
  0
LINE
  5
5E
100
AcDbEntity
  8
0
  6
ByLayer
 62
  256
370
   -1
100
AcDbLine
 10
-38.49394120000002
 20
36.08847373721229
 11
-24.59829500000002
 21
34.38230293721229
  0
LINE
  5
5F
100
AcDbEntity
  8
0
  6
ByLayer
 62
  256
370
   -1
100
AcDbLine
 10
-40.20011200000003
 20
22.19282753721229
 11
-26.30446580000003
 21
20.48665673721229
  0
LINE
  5
60
100
AcDbEntity
  8
0
  6
ByLayer
 62
  256
370
   -1
100
AcDbLine
 10
-38.49394120000002
 20
36.08847373721229
 11
-40.20011200000003
 21
22.19282753721229
  0
LINE
  5
61
100
AcDbEntity
  8
0
  6
ByLayer
 62
  256
370
   -1
100
AcDbLine
 10
-24.59829500000002
 20
34.38230293721229
 11
-26.30446580000003
 21
20.48665673721229
  0
LINE
  5
62
100
AcDbEntity
  8
0
  6
ByLayer
 62
  256
370
   -1
100
AcDbLine
 10
-95.64795120000002
 20
38.32043213721229
 11
-81.75230500000004
 21
36.61426133721229
  0
LINE
  5
63
100
AcDbEntity
  8
0
  6
ByLayer
 62
  256
370
   -1
100
AcDbLine
 10
-97.35412200000003
 20
24.42478593721229
 11
-83.45847580000003
 21
22.71861513721229
  0
LINE
  5
64
100
AcDbEntity
  8
0
  6
ByLayer
 62
  256
370
   -1
100
AcDbLine
 10
-95.64795120000002
 20
38.32043213721229
 11
-97.35412200000003
 21
24.42478593721229
  0
LINE
  5
65
100
AcDbEntity
  8
0
  6
ByLayer
 62
  256
370
   -1
100
AcDbLine
 10
-81.75230500000004
 20
36.61426133721229
 11
-83.45847580000003
 21
22.71861513721229
  0
LINE
  5
66
100
AcDbEntity
  8
0
  6
ByLayer
 62
  256
370
   -1
100
AcDbLine
 10
-20.21444370000003
 20
29.05836203721229
 11
-6.318797500000031
 21
27.35219123721229
  0
LINE
  5
67
100
AcDbEntity
  8
0
  6
ByLayer
 62
  256
370
   -1
100
AcDbLine
 10
-21.92061450000003
 20
15.16271583721229
 11
-8.024968300000026
 21
13.45654503721229
  0
LINE
  5
68
100
AcDbEntity
  8
0
  6
ByLayer
 62
  256
370
   -1
100
AcDbLine
 10
-20.21444370000003
 20
29.05836203721229
 11
-21.92061450000003
 21
15.16271583721229
  0
LINE
  5
69
100
AcDbEntity
  8
0
  6
ByLayer
 62
  256
370
   -1
100
AcDbLine
 10
-6.318797500000031
 20
27.35219123721229
 11
-8.024968300000026
 21
13.45654503721229
  0
LINE
  5
6A
100
AcDbEntity
  8
0
  6
ByLayer
 62
  256
370
   -1
100
AcDbLine
 10
-59.08895620000003
 20
24.26020863721229
 11
-45.19331000000003
 21
22.55403783721229
  0
LINE
  5
6B
100
AcDbEntity
  8
0
  6
ByLayer
 62
  256
370
   -1
100
AcDbLine
 10
-60.79512700000003
 20
10.36456243721229
 11
-46.89948080000003
 21
8.65839163721229
  0
LINE
  5
6C
100
AcDbEntity
  8
0
  6
ByLayer
 62
  256
370
   -1
100
AcDbLine
 10
-59.08895620000003
 20
24.26020863721229
 11
-60.79512700000003
 21
10.36456243721229
  0
LINE
  5
6D
100
AcDbEntity
  8
0
  6
ByLayer
 62
  256
370
   -1
100
AcDbLine
 10
-45.19331000000003
 20
22.55403783721229
 11
-46.89948080000003
 21
8.65839163721229
  0
LINE
  5
6E
100
AcDbEntity
  8
0
  6
ByLayer
 62
  256
370
   -1
100
AcDbLine
 10
-78.52621250000003
 20
21.86113193721229
 11
-64.63056630000003
 21
20.15496113721229
  0
LINE
  5
6F
100
AcDbEntity
  8
0
  6
ByLayer
 62
  256
370
   -1
100
AcDbLine
 10
-80.23238330000002
 20
7.96548573721229
 11
-66.33673710000002
 21
6.259314937212295
  0
LINE
  5
70
100
AcDbEntity
  8
0
  6
ByLayer
 62
  256
370
   -1
100
AcDbLine
 10
-78.52621250000003
 20
21.86113193721229
 11
-80.23238330000002
 21
7.96548573721229
  0
LINE
  5
71
100
AcDbEntity
  8
0
  6
ByLayer
 62
  256
370
   -1
100
AcDbLine
 10
-64.63056630000003
 20
20.15496113721229
 11
-66.33673710000002
 21
6.259314937212295
  0
LINE
  5
72
100
AcDbEntity
  8
0
  6
ByLayer
 62
  256
370
   -1
100
AcDbLine
 10
-40.80945870000002
 20
17.23009683721229
 11
-26.91381250000003
 21
15.52392603721229
  0
LINE
  5
73
100
AcDbEntity
  8
0
  6
ByLayer
 62
  256
370
   -1
100
AcDbLine
 10
-42.51562950000003
 20
3.334450637212292
 11
-28.61998330000003
 21
1.62827983721229
  0
LINE
  5
74
100
AcDbEntity
  8
0
  6
ByLayer
 62
  256
370
   -1
100
AcDbLine
 10
-40.80945870000002
 20
17.23009683721229
 11
-42.51562950000003
 21
3.334450637212292
  0
LINE
  5
75
100
AcDbEntity
  8
0
  6
ByLayer
 62
  256
370
   -1
100
AcDbLine
 10
-26.91381250000003
 20
15.52392603721229
 11
-28.61998330000003
 21
1.62827983721229
  0
LINE
  5
76
100
AcDbEntity
  8
0
  6
ByLayer
 62
  256
370
   -1
100
AcDbLine
 10
-100.3207658
 20
19.75149493721229
 11
-86.42511960000003
 21
18.04532413721229
  0
LINE
  5
77
100
AcDbEntity
  8
0
  6
ByLayer
 62
  256
370
   -1
100
AcDbLine
 10
-102.0269366
 20
5.855848737212291
 11
-88.13129040000003
 21
4.149677937212289
  0
LINE
  5
78
100
AcDbEntity
  8
0
  6
ByLayer
 62
  256
370
   -1
100
AcDbLine
 10
-100.3207658
 20
19.75149493721229
 11
-102.0269366
 21
5.855848737212291
  0
LINE
  5
79
100
AcDbEntity
  8
0
  6
ByLayer
 62
  256
370
   -1
100
AcDbLine
 10
-86.42511960000003
 20
18.04532413721229
 11
-88.13129040000003
 21
4.149677937212289
  0
LINE
  5
7A
100
AcDbEntity
  8
0
  6
ByLayer
 62
  256
370
   -1
100
AcDbLine
 10
-22.52996120000003
 20
10.19998513721229
 11
-8.634315000000029
 21
8.493814337212292
  0
LINE
  5
7B
100
AcDbEntity
  8
0
  6
ByLayer
 62
  256
370
   -1
100
AcDbLine
 10
-24.23613200000003
 20
-3.695661062787707
 11
-10.34048580000002
 21
-5.401831862787709
  0
LINE
  5
7C
100
AcDbEntity
  8
0
  6
ByLayer
 62
  256
370
   -1
100
AcDbLine
 10
-22.52996120000003
 20
10.19998513721229
 11
-24.23613200000003
 21
-3.695661062787707
  0
LINE
  5
7D
100
AcDbEntity
  8
0
  6
ByLayer
 62
  256
370
   -1
100
AcDbLine
 10
-8.634315000000029
 20
8.493814337212292
 11
-10.34048580000002
 21
-5.401831862787709
  0
LINE
  5
7E
100
AcDbEntity
  8
0
  6
ByLayer
 62
  256
370
   -1
100
AcDbLine
 10
-61.40447370000003
 20
5.401831737212291
 11
-47.50882750000003
 21
3.695660937212295
  0
LINE
  5
7F
100
AcDbEntity
  8
0
  6
ByLayer
 62
  256
370
   -1
100
AcDbLine
 10
-63.11064450000003
 20
-8.493814462787711
 11
-49.21499830000003
 21
-10.19998526278771
  0
LINE
  5
80
100
AcDbEntity
  8
0
  6
ByLayer
 62
  256
370
   -1
100
AcDbLine
 10
-61.40447370000003
 20
5.401831737212291
 11
-63.11064450000003
 21
-8.493814462787711
  0
LINE
  5
81
100
AcDbEntity
  8
0
  6
ByLayer
 62
  256
370
   -1
100
AcDbLine
 10
-47.50882750000003
 20
3.695660937212295
 11
-49.21499830000003
 21
-10.19998526278771
  0
LINE
  5
82
100
AcDbEntity
  8
0
  6
ByLayer
 62
  256
370
   -1
100
AcDbLine
 10
-80.84173000000003
 20
3.002755037212289
 11
-66.94608380000003
 21
1.296584237212294
  0
LINE
  5
83
100
AcDbEntity
  8
0
  6
ByLayer
 62
  256
370
   -1
100
AcDbLine
 10
-82.54790080000004
 20
-10.89289116278771
 11
-68.65225460000002
 21
-12.59906196278771
  0
LINE
  5
84
100
AcDbEntity
  8
0
  6
ByLayer
 62
  256
370
   -1
100
AcDbLine
 10
-80.84173000000003
 20
3.002755037212289
 11
-82.54790080000004
 21
-10.89289116278771
  0
LINE
  5
85
100
AcDbEntity
  8
0
  6
ByLayer
 62
  256
370
   -1
100
AcDbLine
 10
-66.94608380000003
 20
1.296584237212294
 11
-68.65225460000002
 21
-12.59906196278771
  0
LINE
  5
86
100
AcDbEntity
  8
0
  6
ByLayer
 62
  256
370
   -1
100
AcDbLine
 10
-43.12497620000003
 20
-1.628279962787708
 11
-29.22933000000003
 21
-3.334450762787711
  0
LINE
  5
87
100
AcDbEntity
  8
0
  6
ByLayer
 62
  256
370
   -1
100
AcDbLine
 10
-44.83114700000003
 20
-15.52392616278771
 11
-30.93550080000003
 21
-17.23009696278771
  0
LINE
  5
88
100
AcDbEntity
  8
0
  6
ByLayer
 62
  256
370
   -1
100
AcDbLine
 10
-43.12497620000003
 20
-1.628279962787708
 11
-44.83114700000003
 21
-15.52392616278771
  0
LINE
  5
89
100
AcDbEntity
  8
0
  6
ByLayer
 62
  256
370
   -1
100
AcDbLine
 10
-29.22933000000003
 20
-3.334450762787711
 11
-30.93550080000003
 21
-17.23009696278771
  0
LINE
  5
8A
100
AcDbEntity
  8
0
  6
ByLayer
 62
  256
370
   -1
100
AcDbLine
 10
-102.6362833
 20
0.8931180372122896
 11
-88.74063710000003
 21
-0.8130527627877058
  0
LINE
  5
8B
100
AcDbEntity
  8
0
  6
ByLayer
 62
  256
370
   -1
100
AcDbLine
 10
-104.3424541
 20
-13.0025281627877
 11
-90.44680790000002
 21
-14.70869896278771
  0
LINE
  5
8C
100
AcDbEntity
  8
0
  6
ByLayer
 62
  256
370
   -1
100
AcDbLine
 10
-102.6362833
 20
0.8931180372122896
 11
-104.3424541
 21
-13.0025281627877
  0
LINE
  5
8D
100
AcDbEntity
  8
0
  6
ByLayer
 62
  256
370
   -1
100
AcDbLine
 10
-88.74063710000003
 20
-0.8130527627877058
 11
-90.44680790000002
 21
-14.70869896278771
  0
LINE
  5
8E
100
AcDbEntity
  8
0
  6
ByLayer
 62
  256
370
   -1
100
AcDbLine
 10
-24.84547870000003
 20
-8.658391762787709
 11
-10.94983250000003
 21
-10.36456256278771
  0
LINE
  5
8F
100
AcDbEntity
  8
0
  6
ByLayer
 62
  256
370
   -1
100
AcDbLine
 10
-26.55164950000002
 20
-22.55403796278771
 11
-12.65600330000002
 21
-24.26020876278771
  0
LINE
  5
90
100
AcDbEntity
  8
0
  6
ByLayer
 62
  256
370
   -1
100
AcDbLine
 10
-24.84547870000003
 20
-8.658391762787709
 11
-26.55164950000002
 21
-22.55403796278771
  0
LINE
  5
91
100
AcDbEntity
  8
0
  6
ByLayer
 62
  256
370
   -1
100
AcDbLine
 10
-10.94983250000003
 20
-10.36456256278771
 11
-12.65600330000002
 21
-24.26020876278771
  0
LINE
  5
92
100
AcDbEntity
  8
0
  6
ByLayer
 62
  256
370
   -1
100
AcDbLine
 10
-97.87990950000002
 20
-18.83357786278771
 11
-83.98426330000002
 21
-20.53974866278771
  0
LINE
  5
93
100
AcDbEntity
  8
0
  6
ByLayer
 62
  256
370
   -1
100
AcDbLine
 10
-99.58608030000003
 20
-32.72922406278771
 11
-85.69043410000003
 21
-34.43539486278771
  0
LINE
  5
94
100
AcDbEntity
  8
0
  6
ByLayer
 62
  256
370
   -1
100
AcDbLine
 10
-97.87990950000002
 20
-18.83357786278771
 11
-99.58608030000003
 21
-32.72922406278771
  0
LINE
  5
95
100
AcDbEntity
  8
0
  6
ByLayer
 62
  256
370
   -1
100
AcDbLine
 10
-83.98426330000002
 20
-20.53974866278771
 11
-85.69043410000003
 21
-34.43539486278771
  0
LINE
  5
96
100
AcDbEntity
  8
0
  6
ByLayer
 62
  256
370
   -1
100
AcDbLine
 10
-69.59234420000003
 20
-22.30685416278771
 11
-55.69669800000003
 21
-24.0130249627877
  0
LINE
  5
97
100
AcDbEntity
  8
0
  6
ByLayer
 62
  256
370
   -1
100
AcDbLine
 10
-71.29851500000004
 20
-36.20250036278771
 11
-57.40286880000003
 21
-37.90867116278771
  0
LINE
  5
98
100
AcDbEntity
  8
0
  6
ByLayer
 62
  256
370
   -1
100
AcDbLine
 10
-69.59234420000003
 20
-22.30685416278771
 11
-71.29851500000004
 21
-36.20250036278771
  0
LINE
  5
99
100
AcDbEntity
  8
0
  6
ByLayer
 62
  256
370
   -1
100
AcDbLine
 10
-55.69669800000003
 20
-24.0130249627877
 11
-57.40286880000003
 21
-37.90867116278771
  0
LINE
  5
9A
100
AcDbEntity
  8
0
  6
ByLayer
 62
  256
370
   -1
100
AcDbLine
 10
-36.59018470000002
 20
-26.35900986278771
 11
-22.69453850000002
 21
-28.0651806627877
  0
LINE
  5
9B
100
AcDbEntity
  8
0
  6
ByLayer
 62
  256
370
   -1
100
AcDbLine
 10
-38.29635550000003
 20
-40.25465606278771
 11
-24.40070930000003
 21
-41.96082686278771
  0
LINE
  5
9C
100
AcDbEntity
  8
0
  6
ByLayer
 62
  256
370
   -1
100
AcDbLine
 10
-36.59018470000002
 20
-26.35900986278771
 11
-38.29635550000003
 21
-40.25465606278771
  0
LINE
  5
9D
100
AcDbEntity
  8
0
  6
ByLayer
 62
  256
370
   -1
100
AcDbLine
 10
-22.69453850000002
 20
-28.0651806627877
 11
-24.40070930000003
 21
-41.96082686278771
  0
LINE
  5
9E
100
AcDbEntity
  8
0
  6
ByLayer
 62
  256
370
   -1
100
AcDbLine
 10
42.87779249999997
 20
41.41241473721229
 11
56.77343869999999
 21
43.11858553721229
  0
LINE
  5
9F
100
AcDbEntity
  8
0
  6
ByLayer
 62
  256
370
   -1
100
AcDbLine
 10
44.58396329999997
 20
27.51676853721229
 11
58.47960949999998
 21
29.22293933721229
  0
LINE
  5
A0
100
AcDbEntity
  8
0
  6
ByLayer
 62
  256
370
   -1
100
AcDbLine
 10
42.87779249999997
 20
41.41241473721229
 11
44.58396329999997
 21
27.51676853721229
  0
LINE
  5
A1
100
AcDbEntity
  8
0
  6
ByLayer
 62
  256
370
   -1
100
AcDbLine
 10
56.77343869999999
 20
43.11858553721229
 11
58.47960949999998
 21
29.22293933721229
  0
LINE
  5
A2
100
AcDbEntity
  8
0
  6
ByLayer
 62
  256
370
   -1
100
AcDbLine
 10
24.59829499999998
 20
34.38230293721229
 11
38.49394119999997
 21
36.08847373721229
  0
LINE
  5
A3
100
AcDbEntity
  8
0
  6
ByLayer
 62
  256
370
   -1
100
AcDbLine
 10
26.30446579999997
 20
20.48665673721229
 11
40.20011199999996
 21
22.19282753721229
  0
LINE
  5
A4
100
AcDbEntity
  8
0
  6
ByLayer
 62
  256
370
   -1
100
AcDbLine
 10
24.59829499999998
 20
34.38230293721229
 11
26.30446579999997
 21
20.48665673721229
  0
LINE
  5
A5
100
AcDbEntity
  8
0
  6
ByLayer
 62
  256
370
   -1
100
AcDbLine
 10
38.49394119999997
 20
36.08847373721229
 11
40.20011199999996
 21
22.19282753721229
  0
LINE
  5
A6
100
AcDbEntity
  8
0
  6
ByLayer
 62
  256
370
   -1
100
AcDbLine
 10
62.31504869999998
 20
39.01333803721229
 11
76.21069489999996
 21
40.71950883721229
  0
LINE
  5
A7
100
AcDbEntity
  8
0
  6
ByLayer
 62
  256
370
   -1
100
AcDbLine
 10
64.02121949999997
 20
25.11769183721229
 11
77.91686569999996
 21
26.82386263721229
  0
LINE
  5
A8
100
AcDbEntity
  8
0
  6
ByLayer
 62
  256
370
   -1
100
AcDbLine
 10
62.31504869999998
 20
39.01333803721229
 11
64.02121949999997
 21
25.11769183721229
  0
LINE
  5
A9
100
AcDbEntity
  8
0
  6
ByLayer
 62
  256
370
   -1
100
AcDbLine
 10
76.21069489999996
 20
40.71950883721229
 11
77.91686569999996
 21
26.82386263721229
  0
LINE
  5
AA
100
AcDbEntity
  8
0
  6
ByLayer
 62
  256
370
   -1
100
AcDbLine
 10
6.318797499999974
 20
27.35219123721229
 11
20.21444369999998
 21
29.05836203721229
  0
LINE
  5
AB
100
AcDbEntity
  8
0
  6
ByLayer
 62
  256
370
   -1
100
AcDbLine
 10
8.024968299999969
 20
13.45654503721229
 11
21.92061449999997
 21
15.16271583721229
  0
LINE
  5
AC
100
AcDbEntity
  8
0
  6
ByLayer
 62
  256
370
   -1
100
AcDbLine
 10
6.318797499999974
 20
27.35219123721229
 11
8.024968299999969
 21
13.45654503721229
  0
LINE
  5
AD
100
AcDbEntity
  8
0
  6
ByLayer
 62
  256
370
   -1
100
AcDbLine
 10
20.21444369999998
 20
29.05836203721229
 11
21.92061449999997
 21
15.16271583721229
  0
LINE
  5
AE
100
AcDbEntity
  8
0
  6
ByLayer
 62
  256
370
   -1
100
AcDbLine
 10
81.75230499999998
 20
36.61426133721229
 11
95.64795119999997
 21
38.32043213721229
  0
LINE
  5
AF
100
AcDbEntity
  8
0
  6
ByLayer
 62
  256
370
   -1
100
AcDbLine
 10
83.45847579999997
 20
22.71861513721229
 11
97.35412199999996
 21
24.42478593721229
  0
LINE
  5
B0
100
AcDbEntity
  8
0
  6
ByLayer
 62
  256
370
   -1
100
AcDbLine
 10
81.75230499999998
 20
36.61426133721229
 11
83.45847579999997
 21
22.71861513721229
  0
LINE
  5
B1
100
AcDbEntity
  8
0
  6
ByLayer
 62
  256
370
   -1
100
AcDbLine
 10
95.64795119999997
 20
38.32043213721229
 11
97.35412199999996
 21
24.42478593721229
  0
LINE
  5
B2
100
AcDbEntity
  8
0
  6
ByLayer
 62
  256
370
   -1
100
AcDbLine
 10
45.19330999999997
 20
22.55403783721229
 11
59.08895619999998
 21
24.26020863721229
  0
LINE
  5
B3
100
AcDbEntity
  8
0
  6
ByLayer
 62
  256
370
   -1
100
AcDbLine
 10
46.89948079999996
 20
8.65839163721229
 11
60.79512699999998
 21
10.36456243721229
  0
LINE
  5
B4
100
AcDbEntity
  8
0
  6
ByLayer
 62
  256
370
   -1
100
AcDbLine
 10
45.19330999999997
 20
22.55403783721229
 11
46.89948079999996
 21
8.65839163721229
  0
LINE
  5
B5
100
AcDbEntity
  8
0
  6
ByLayer
 62
  256
370
   -1
100
AcDbLine
 10
59.08895619999998
 20
24.26020863721229
 11
60.79512699999998
 21
10.36456243721229
  0
LINE
  5
B6
100
AcDbEntity
  8
0
  6
ByLayer
 62
  256
370
   -1
100
AcDbLine
 10
26.91381249999998
 20
15.52392603721229
 11
40.80945869999996
 21
17.23009683721229
  0
LINE
  5
B7
100
AcDbEntity
  8
0
  6
ByLayer
 62
  256
370
   -1
100
AcDbLine
 10
28.61998329999997
 20
1.62827983721229
 11
42.51562949999996
 21
3.334450637212292
  0
LINE
  5
B8
100
AcDbEntity
  8
0
  6
ByLayer
 62
  256
370
   -1
100
AcDbLine
 10
26.91381249999998
 20
15.52392603721229
 11
28.61998329999997
 21
1.62827983721229
  0
LINE
  5
B9
100
AcDbEntity
  8
0
  6
ByLayer
 62
  256
370
   -1
100
AcDbLine
 10
40.80945869999996
 20
17.23009683721229
 11
42.51562949999996
 21
3.334450637212292
  0
LINE
  5
BA
100
AcDbEntity
  8
0
  6
ByLayer
 62
  256
370
   -1
100
AcDbLine
 10
64.63056629999997
 20
20.15496113721229
 11
78.52621249999999
 21
21.86113193721229
  0
LINE
  5
BB
100
AcDbEntity
  8
0
  6
ByLayer
 62
  256
370
   -1
100
AcDbLine
 10
66.33673709999997
 20
6.259314937212295
 11
80.23238329999998
 21
7.96548573721229
  0
LINE
  5
BC
100
AcDbEntity
  8
0
  6
ByLayer
 62
  256
370
   -1
100
AcDbLine
 10
64.63056629999997
 20
20.15496113721229
 11
66.33673709999997
 21
6.259314937212295
  0
LINE
  5
BD
100
AcDbEntity
  8
0
  6
ByLayer
 62
  256
370
   -1
100
AcDbLine
 10
78.52621249999999
 20
21.86113193721229
 11
80.23238329999998
 21
7.96548573721229
  0
LINE
  5
BE
100
AcDbEntity
  8
0
  6
ByLayer
 62
  256
370
   -1
100
AcDbLine
 10
8.634314999999972
 20
8.493814337212292
 11
22.52996119999997
 21
10.19998513721229
  0
LINE
  5
BF
100
AcDbEntity
  8
0
  6
ByLayer
 62
  256
370
   -1
100
AcDbLine
 10
10.34048579999997
 20
-5.401831862787709
 11
24.23613199999997
 21
-3.695661062787707
  0
LINE
  5
C0
100
AcDbEntity
  8
0
  6
ByLayer
 62
  256
370
   -1
100
AcDbLine
 10
8.634314999999972
 20
8.493814337212292
 11
10.34048579999997
 21
-5.401831862787709
  0
LINE
  5
C1
100
AcDbEntity
  8
0
  6
ByLayer
 62
  256
370
   -1
100
AcDbLine
 10
22.52996119999997
 20
10.19998513721229
 11
24.23613199999997
 21
-3.695661062787707
  0
LINE
  5
C2
100
AcDbEntity
  8
0
  6
ByLayer
 62
  256
370
   -1
100
AcDbLine
 10
86.42511959999996
 20
18.04532413721229
 11
100.3207658
 21
19.75149493721229
  0
LINE
  5
C3
100
AcDbEntity
  8
0
  6
ByLayer
 62
  256
370
   -1
100
AcDbLine
 10
88.13129039999998
 20
4.149677937212289
 11
102.0269366
 21
5.855848737212291
  0
LINE
  5
C4
100
AcDbEntity
  8
0
  6
ByLayer
 62
  256
370
   -1
100
AcDbLine
 10
86.42511959999996
 20
18.04532413721229
 11
88.13129039999998
 21
4.149677937212289
  0
LINE
  5
C5
100
AcDbEntity
  8
0
  6
ByLayer
 62
  256
370
   -1
100
AcDbLine
 10
100.3207658
 20
19.75149493721229
 11
102.0269366
 21
5.855848737212291
  0
LINE
  5
C6
100
AcDbEntity
  8
0
  6
ByLayer
 62
  256
370
   -1
100
AcDbLine
 10
47.50882749999997
 20
3.695660937212295
 11
61.40447369999998
 21
5.401831737212291
  0
LINE
  5
C7
100
AcDbEntity
  8
0
  6
ByLayer
 62
  256
370
   -1
100
AcDbLine
 10
49.21499829999996
 20
-10.19998526278771
 11
63.11064449999998
 21
-8.493814462787711
  0
LINE
  5
C8
100
AcDbEntity
  8
0
  6
ByLayer
 62
  256
370
   -1
100
AcDbLine
 10
47.50882749999997
 20
3.695660937212295
 11
49.21499829999996
 21
-10.19998526278771
  0
LINE
  5
C9
100
AcDbEntity
  8
0
  6
ByLayer
 62
  256
370
   -1
100
AcDbLine
 10
61.40447369999998
 20
5.401831737212291
 11
63.11064449999998
 21
-8.493814462787711
  0
LINE
  5
CA
100
AcDbEntity
  8
0
  6
ByLayer
 62
  256
370
   -1
100
AcDbLine
 10
29.22932999999998
 20
-3.334450762787711
 11
43.12497619999996
 21
-1.628279962787708
  0
LINE
  5
CB
100
AcDbEntity
  8
0
  6
ByLayer
 62
  256
370
   -1
100
AcDbLine
 10
30.93550079999997
 20
-17.23009696278771
 11
44.83114699999996
 21
-15.52392616278771
  0
LINE
  5
CC
100
AcDbEntity
  8
0
  6
ByLayer
 62
  256
370
   -1
100
AcDbLine
 10
29.22932999999998
 20
-3.334450762787711
 11
30.93550079999997
 21
-17.23009696278771
  0
LINE
  5
CD
100
AcDbEntity
  8
0
  6
ByLayer
 62
  256
370
   -1
100
AcDbLine
 10
43.12497619999996
 20
-1.628279962787708
 11
44.83114699999996
 21
-15.52392616278771
  0
LINE
  5
CE
100
AcDbEntity
  8
0
  6
ByLayer
 62
  256
370
   -1
100
AcDbLine
 10
66.94608379999997
 20
1.296584237212294
 11
80.84172999999998
 21
3.002755037212289
  0
LINE
  5
CF
100
AcDbEntity
  8
0
  6
ByLayer
 62
  256
370
   -1
100
AcDbLine
 10
68.65225459999996
 20
-12.59906196278771
 11
82.54790079999998
 21
-10.89289116278771
  0
LINE
  5
D0
100
AcDbEntity
  8
0
  6
ByLayer
 62
  256
370
   -1
100
AcDbLine
 10
66.94608379999997
 20
1.296584237212294
 11
68.65225459999996
 21
-12.59906196278771
  0
LINE
  5
D1
100
AcDbEntity
  8
0
  6
ByLayer
 62
  256
370
   -1
100
AcDbLine
 10
80.84172999999998
 20
3.002755037212289
 11
82.54790079999998
 21
-10.89289116278771
  0
LINE
  5
D2
100
AcDbEntity
  8
0
  6
ByLayer
 62
  256
370
   -1
100
AcDbLine
 10
10.94983249999997
 20
-10.36456256278771
 11
24.84547869999997
 21
-8.658391762787709
  0
LINE
  5
D3
100
AcDbEntity
  8
0
  6
ByLayer
 62
  256
370
   -1
100
AcDbLine
 10
12.65600329999997
 20
-24.26020876278771
 11
26.55164949999997
 21
-22.55403796278771
  0
LINE
  5
D4
100
AcDbEntity
  8
0
  6
ByLayer
 62
  256
370
   -1
100
AcDbLine
 10
10.94983249999997
 20
-10.36456256278771
 11
12.65600329999997
 21
-24.26020876278771
  0
LINE
  5
D5
100
AcDbEntity
  8
0
  6
ByLayer
 62
  256
370
   -1
100
AcDbLine
 10
24.84547869999997
 20
-8.658391762787709
 11
26.55164949999997
 21
-22.55403796278771
  0
LINE
  5
D6
100
AcDbEntity
  8
0
  6
ByLayer
 62
  256
370
   -1
100
AcDbLine
 10
88.74063709999996
 20
-0.8130527627877058
 11
102.6362833
 21
0.8931180372122896
  0
LINE
  5
D7
100
AcDbEntity
  8
0
  6
ByLayer
 62
  256
370
   -1
100
AcDbLine
 10
90.44680789999998
 20
-14.70869896278771
 11
104.3424541
 21
-13.0025281627877
  0
LINE
  5
D8
100
AcDbEntity
  8
0
  6
ByLayer
 62
  256
370
   -1
100
AcDbLine
 10
88.74063709999996
 20
-0.8130527627877058
 11
90.44680789999998
 21
-14.70869896278771
  0
LINE
  5
D9
100
AcDbEntity
  8
0
  6
ByLayer
 62
  256
370
   -1
100
AcDbLine
 10
102.6362833
 20
0.8931180372122896
 11
104.3424541
 21
-13.0025281627877
  0
LINE
  5
DA
100
AcDbEntity
  8
0
  6
ByLayer
 62
  256
370
   -1
100
AcDbLine
 10
22.69453849999996
 20
-28.0651806627877
 11
36.59018469999998
 21
-26.35900986278771
  0
LINE
  5
DB
100
AcDbEntity
  8
0
  6
ByLayer
 62
  256
370
   -1
100
AcDbLine
 10
24.40070929999996
 20
-41.96082686278771
 11
38.29635549999998
 21
-40.25465606278771
  0
LINE
  5
DC
100
AcDbEntity
  8
0
  6
ByLayer
 62
  256
370
   -1
100
AcDbLine
 10
22.69453849999996
 20
-28.0651806627877
 11
24.40070929999996
 21
-41.96082686278771
  0
LINE
  5
DD
100
AcDbEntity
  8
0
  6
ByLayer
 62
  256
370
   -1
100
AcDbLine
 10
36.59018469999998
 20
-26.35900986278771
 11
38.29635549999998
 21
-40.25465606278771
  0
LINE
  5
DE
100
AcDbEntity
  8
0
  6
ByLayer
 62
  256
370
   -1
100
AcDbLine
 10
55.69669799999997
 20
-24.0130249627877
 11
69.59234419999999
 21
-22.30685416278771
  0
LINE
  5
DF
100
AcDbEntity
  8
0
  6
ByLayer
 62
  256
370
   -1
100
AcDbLine
 10
57.40286879999996
 20
-37.90867116278771
 11
71.29851499999998
 21
-36.20250036278771
  0
LINE
  5
E0
100
AcDbEntity
  8
0
  6
ByLayer
 62
  256
370
   -1
100
AcDbLine
 10
55.69669799999997
 20
-24.0130249627877
 11
57.40286879999996
 21
-37.90867116278771
  0
LINE
  5
E1
100
AcDbEntity
  8
0
  6
ByLayer
 62
  256
370
   -1
100
AcDbLine
 10
69.59234419999999
 20
-22.30685416278771
 11
71.29851499999998
 21
-36.20250036278771
  0
LINE
  5
E2
100
AcDbEntity
  8
0
  6
ByLayer
 62
  256
370
   -1
100
AcDbLine
 10
83.98426329999998
 20
-20.53974866278771
 11
97.87990949999997
 21
-18.83357786278771
  0
LINE
  5
E3
100
AcDbEntity
  8
0
  6
ByLayer
 62
  256
370
   -1
100
AcDbLine
 10
85.69043409999998
 20
-34.43539486278771
 11
99.58608029999996
 21
-32.72922406278771
  0
LINE
  5
E4
100
AcDbEntity
  8
0
  6
ByLayer
 62
  256
370
   -1
100
AcDbLine
 10
83.98426329999998
 20
-20.53974866278771
 11
85.69043409999998
 21
-34.43539486278771
  0
LINE
  5
E5
100
AcDbEntity
  8
0
  6
ByLayer
 62
  256
370
   -1
100
AcDbLine
 10
97.87990949999997
 20
-18.83357786278771
 11
99.58608029999996
 21
-32.72922406278771
  0
LINE
  5
E6
100
AcDbEntity
  8
keycap
  6
ByLayer
 62
  256
370
   -1
100
AcDbLine
 10
-78.38738692397379
 20
43.50554757218512
 11
-78.96626629770242
 21
38.79095336519807
  0
LINE
  5
E7
100
AcDbEntity
  8
keycap
  6
ByLayer
 62
  256
370
   -1
100
AcDbLine
 10
-97.82464322397379
 20
41.10647087218511
 11
-78.96626629770242
 21
38.79095336519807
  0
LINE
  5
E8
100
AcDbEntity
  8
keycap
  6
ByLayer
 62
  256
370
   -1
100
AcDbLine
 10
-104.8547549434078
 20
22.82697328714493
 11
-100.1401607349729
 21
22.24809391323852
  0
LINE
  5
E9
100
AcDbEntity
  8
keycap
  6
ByLayer
 62
  256
370
   -1
100
AcDbLine
 10
-97.82464322397379
 20
41.10647087218511
 11
-100.1401607349729
 21
22.24809391323852
  0
LINE
  5
EA
100
AcDbEntity
  8
keycap
  6
ByLayer
 62
  256
370
   -1
100
AcDbLine
 10
-104.8547549434078
 20
22.82697328714493
 11
-109.4857899491779
 21
-14.88978049858196
  0
LINE
  5
EB
100
AcDbEntity
  8
keycap
  6
ByLayer
 62
  256
370
   -1
100
AcDbLine
 10
-109.4857899491779
 20
-14.88978049858196
 11
-104.7711957594404
 21
-15.4686598701926
  0
LINE
  5
EC
100
AcDbEntity
  8
keycap
  6
ByLayer
 62
  256
370
   -1
100
AcDbLine
 10
-104.7711957594404
 20
-15.4686598701926
 11
-107.0867132620803
 21
-34.32703676105965
  0
LINE
  5
ED
100
AcDbEntity
  8
keycap
  6
ByLayer
 62
  256
370
   -1
100
AcDbLine
 10
-107.0867132620803
 20
-34.32703676105965
 11
-12.79482882463796
 21
-45.90462427218511
  0
LINE
  5
EE
100
AcDbEntity
  8
keycap
  6
ByLayer
 62
  256
370
   -1
100
AcDbLine
 10
-78.38738692397379
 20
43.50554757218512
 11
-59.5290100962172
 21
41.19003007729417
  0
LINE
  5
EF
100
AcDbEntity
  8
keycap
  6
ByLayer
 62
  256
370
   -1
100
AcDbLine
 10
-58.9501307239738
 20
45.90462427218512
 11
-59.5290100962172
 21
41.19003007729417
  0
LINE
  5
F0
100
AcDbEntity
  8
keycap
  6
ByLayer
 62
  256
370
   -1
100
AcDbLine
 10
-58.9501307239738
 20
45.90462427218512
 11
-40.09175376502719
 21
43.58910676118606
  0
LINE
  5
F1
100
AcDbEntity
  8
keycap
  6
ByLayer
 62
  256
370
   -1
100
AcDbLine
 10
-40.09175376502719
 20
43.58910676118606
 11
-40.67063314994196
 21
38.87451246309515
  0
LINE
  5
F2
100
AcDbEntity
  8
keycap
  6
ByLayer
 62
  256
370
   -1
100
AcDbLine
 10
-40.67063314994196
 20
38.87451246309515
 11
-21.8122562650272
 21
36.55899496118607
  0
LINE
  5
F3
100
AcDbEntity
  8
keycap
  6
ByLayer
 62
  256
370
   -1
100
AcDbLine
 10
-22.39113563784588
 20
31.84440076160994
 11
-3.532758816990196
 21
29.52888326756631
  0
LINE
  5
F4
100
AcDbEntity
  8
keycap
  6
ByLayer
 62
  256
370
   -1
100
AcDbLine
 10
-21.8122562650272
 20
36.55899496118607
 11
-22.39113563784588
 21
31.84440076160994
  0
LINE
  5
F5
100
AcDbEntity
  8
keycap
  6
ByLayer
 62
  256
370
   -1
100
AcDbLine
 10
78.38738692397374
 20
43.50554757218512
 11
78.96626629770236
 21
38.79095336519807
  0
LINE
  5
F6
100
AcDbEntity
  8
keycap
  6
ByLayer
 62
  256
370
   -1
100
AcDbLine
 10
97.82464322397374
 20
41.10647087218511
 11
78.96626629770236
 21
38.79095336519807
  0
LINE
  5
F7
100
AcDbEntity
  8
keycap
  6
ByLayer
 62
  256
370
   -1
100
AcDbLine
 10
104.8547549434078
 20
22.82697328714493
 11
100.1401607349728
 21
22.24809391323852
  0
LINE
  5
F8
100
AcDbEntity
  8
keycap
  6
ByLayer
 62
  256
370
   -1
100
AcDbLine
 10
97.82464322397374
 20
41.10647087218511
 11
100.1401607349728
 21
22.24809391323852
  0
LINE
  5
F9
100
AcDbEntity
  8
keycap
  6
ByLayer
 62
  256
370
   -1
100
AcDbLine
 10
104.8547549434078
 20
22.82697328714493
 11
109.4857899491779
 21
-14.88978049858196
  0
LINE
  5
FA
100
AcDbEntity
  8
keycap
  6
ByLayer
 62
  256
370
   -1
100
AcDbLine
 10
109.4857899491779
 20
-14.88978049858196
 11
104.7711957594403
 21
-15.4686598701926
  0
LINE
  5
FB
100
AcDbEntity
  8
keycap
  6
ByLayer
 62
  256
370
   -1
100
AcDbLine
 10
104.7711957594403
 20
-15.4686598701926
 11
107.0867132620803
 21
-34.32703676105965
  0
LINE
  5
FC
100
AcDbEntity
  8
keycap
  6
ByLayer
 62
  256
370
   -1
100
AcDbLine
 10
107.0867132620803
 20
-34.32703676105965
 11
12.7948288246379
 21
-45.90462427218511
  0
LINE
  5
FD
100
AcDbEntity
  8
keycap
  6
ByLayer
 62
  256
370
   -1
100
AcDbLine
 10
3.532758816990139
 20
29.52888326756631
 11
12.7948288246379
 21
-45.90462427218511
  0
LINE
  5
FE
100
AcDbEntity
  8
keycap
  6
ByLayer
 62
  256
370
   -1
100
AcDbLine
 10
78.38738692397374
 20
43.50554757218512
 11
59.52901009621715
 21
41.19003007729417
  0
LINE
  5
FF
100
AcDbEntity
  8
keycap
  6
ByLayer
 62
  256
370
   -1
100
AcDbLine
 10
58.95013072397373
 20
45.90462427218511
 11
59.52901009621715
 21
41.19003007729417
  0
LINE
  5
100
100
AcDbEntity
  8
keycap
  6
ByLayer
 62
  256
370
   -1
100
AcDbLine
 10
58.95013072397373
 20
45.90462427218511
 11
40.09175376502714
 21
43.58910676118606
  0
LINE
  5
101
100
AcDbEntity
  8
keycap
  6
ByLayer
 62
  256
370
   -1
100
AcDbLine
 10
40.09175376502714
 20
43.58910676118606
 11
40.67063314994189
 21
38.87451246309515
  0
LINE
  5
102
100
AcDbEntity
  8
keycap
  6
ByLayer
 62
  256
370
   -1
100
AcDbLine
 10
40.67063314994189
 20
38.87451246309515
 11
21.81225626502714
 21
36.55899496118607
  0
LINE
  5
103
100
AcDbEntity
  8
keycap
  6
ByLayer
 62
  256
370
   -1
100
AcDbLine
 10
22.39113563784582
 20
31.84440076160994
 11
3.532758816990139
 21
29.52888326756631
  0
LINE
  5
104
100
AcDbEntity
  8
keycap
  6
ByLayer
 62
  256
370
   -1
100
AcDbLine
 10
21.81225626502714
 20
36.55899496118607
 11
22.39113563784582
 21
31.84440076160994
  0
LINE
  5
105
100
AcDbEntity
  8
edge
  6
ByLayer
 62
  256
370
   -1
100
AcDbLine
 10
-78.38738692397379
 20
43.50554757218512
 11
-78.96626629770242
 21
38.79095336519807
  0
LINE
  5
106
100
AcDbEntity
  8
edge
  6
ByLayer
 62
  256
370
   -1
100
AcDbLine
 10
-97.82464322397379
 20
41.10647087218511
 11
-78.96626629770242
 21
38.79095336519807
  0
LINE
  5
107
100
AcDbEntity
  8
edge
  6
ByLayer
 62
  256
370
   -1
100
AcDbLine
 10
-104.8547549434078
 20
22.82697328714493
 11
-100.1401607349729
 21
22.24809391323852
  0
LINE
  5
108
100
AcDbEntity
  8
edge
  6
ByLayer
 62
  256
370
   -1
100
AcDbLine
 10
-97.82464322397379
 20
41.10647087218511
 11
-100.1401607349729
 21
22.24809391323852
  0
LINE
  5
109
100
AcDbEntity
  8
edge
  6
ByLayer
 62
  256
370
   -1
100
AcDbLine
 10
-104.8547549434078
 20
22.82697328714493
 11
-109.4857899491779
 21
-14.88978049858196
  0
LINE
  5
10A
100
AcDbEntity
  8
edge
  6
ByLayer
 62
  256
370
   -1
100
AcDbLine
 10
-109.4857899491779
 20
-14.88978049858196
 11
-104.7711957594404
 21
-15.4686598701926
  0
LINE
  5
10B
100
AcDbEntity
  8
edge
  6
ByLayer
 62
  256
370
   -1
100
AcDbLine
 10
-104.7711957594404
 20
-15.4686598701926
 11
-107.0867132620803
 21
-34.32703676105965
  0
LINE
  5
10C
100
AcDbEntity
  8
edge
  6
ByLayer
 62
  256
370
   -1
100
AcDbLine
 10
-107.0867132620803
 20
-34.32703676105965
 11
-12.79482882463796
 21
-45.90462427218511
  0
LINE
  5
10D
100
AcDbEntity
  8
edge
  6
ByLayer
 62
  256
370
   -1
100
AcDbLine
 10
-78.38738692397379
 20
43.50554757218512
 11
-59.5290100962172
 21
41.19003007729417
  0
LINE
  5
10E
100
AcDbEntity
  8
edge
  6
ByLayer
 62
  256
370
   -1
100
AcDbLine
 10
-58.9501307239738
 20
45.90462427218512
 11
-59.5290100962172
 21
41.19003007729417
  0
LINE
  5
10F
100
AcDbEntity
  8
edge
  6
ByLayer
 62
  256
370
   -1
100
AcDbLine
 10
-58.9501307239738
 20
45.90462427218512
 11
-40.09175376502719
 21
43.58910676118606
  0
LINE
  5
110
100
AcDbEntity
  8
edge
  6
ByLayer
 62
  256
370
   -1
100
AcDbLine
 10
-40.09175376502719
 20
43.58910676118606
 11
-40.67063314994196
 21
38.87451246309515
  0
LINE
  5
111
100
AcDbEntity
  8
edge
  6
ByLayer
 62
  256
370
   -1
100
AcDbLine
 10
-40.67063314994196
 20
38.87451246309515
 11
-21.8122562650272
 21
36.55899496118607
  0
LINE
  5
112
100
AcDbEntity
  8
edge
  6
ByLayer
 62
  256
370
   -1
100
AcDbLine
 10
-22.39113563784588
 20
31.84440076160994
 11
-3.532758816990196
 21
29.52888326756631
  0
LINE
  5
113
100
AcDbEntity
  8
edge
  6
ByLayer
 62
  256
370
   -1
100
AcDbLine
 10
-21.8122562650272
 20
36.55899496118607
 11
-22.39113563784588
 21
31.84440076160994
  0
LINE
  5
114
100
AcDbEntity
  8
edge
  6
ByLayer
 62
  256
370
   -1
100
AcDbLine
 10
78.38738692397374
 20
43.50554757218512
 11
78.96626629770236
 21
38.79095336519807
  0
LINE
  5
115
100
AcDbEntity
  8
edge
  6
ByLayer
 62
  256
370
   -1
100
AcDbLine
 10
97.82464322397374
 20
41.10647087218511
 11
78.96626629770236
 21
38.79095336519807
  0
LINE
  5
116
100
AcDbEntity
  8
edge
  6
ByLayer
 62
  256
370
   -1
100
AcDbLine
 10
104.8547549434078
 20
22.82697328714493
 11
100.1401607349728
 21
22.24809391323852
  0
LINE
  5
117
100
AcDbEntity
  8
edge
  6
ByLayer
 62
  256
370
   -1
100
AcDbLine
 10
97.82464322397374
 20
41.10647087218511
 11
100.1401607349728
 21
22.24809391323852
  0
LINE
  5
118
100
AcDbEntity
  8
edge
  6
ByLayer
 62
  256
370
   -1
100
AcDbLine
 10
104.8547549434078
 20
22.82697328714493
 11
109.4857899491779
 21
-14.88978049858196
  0
LINE
  5
119
100
AcDbEntity
  8
edge
  6
ByLayer
 62
  256
370
   -1
100
AcDbLine
 10
109.4857899491779
 20
-14.88978049858196
 11
104.7711957594403
 21
-15.4686598701926
  0
LINE
  5
11A
100
AcDbEntity
  8
edge
  6
ByLayer
 62
  256
370
   -1
100
AcDbLine
 10
104.7711957594403
 20
-15.4686598701926
 11
107.0867132620803
 21
-34.32703676105965
  0
LINE
  5
11B
100
AcDbEntity
  8
edge
  6
ByLayer
 62
  256
370
   -1
100
AcDbLine
 10
107.0867132620803
 20
-34.32703676105965
 11
12.7948288246379
 21
-45.90462427218511
  0
LINE
  5
11C
100
AcDbEntity
  8
edge
  6
ByLayer
 62
  256
370
   -1
100
AcDbLine
 10
78.38738692397374
 20
43.50554757218512
 11
59.52901009621715
 21
41.19003007729417
  0
LINE
  5
11D
100
AcDbEntity
  8
edge
  6
ByLayer
 62
  256
370
   -1
100
AcDbLine
 10
58.95013072397373
 20
45.90462427218511
 11
59.52901009621715
 21
41.19003007729417
  0
LINE
  5
11E
100
AcDbEntity
  8
edge
  6
ByLayer
 62
  256
370
   -1
100
AcDbLine
 10
58.95013072397373
 20
45.90462427218511
 11
40.09175376502714
 21
43.58910676118606
  0
LINE
  5
11F
100
AcDbEntity
  8
edge
  6
ByLayer
 62
  256
370
   -1
100
AcDbLine
 10
40.09175376502714
 20
43.58910676118606
 11
40.67063314994189
 21
38.87451246309515
  0
LINE
  5
120
100
AcDbEntity
  8
edge
  6
ByLayer
 62
  256
370
   -1
100
AcDbLine
 10
40.67063314994189
 20
38.87451246309515
 11
21.81225626502714
 21
36.55899496118607
  0
LINE
  5
121
100
AcDbEntity
  8
edge
  6
ByLayer
 62
  256
370
   -1
100
AcDbLine
 10
22.39113563784582
 20
31.84440076160994
 11
3.532758816990139
 21
29.52888326756631
  0
LINE
  5
122
100
AcDbEntity
  8
edge
  6
ByLayer
 62
  256
370
   -1
100
AcDbLine
 10
21.81225626502714
 20
36.55899496118607
 11
22.39113563784582
 21
31.84440076160994
  0
LINE
  5
123
100
AcDbEntity
  8
edge
  6
ByLayer
 62
  256
370
   -1
100
AcDbLine
 10
-12.79482882463796
 20
-45.90462427218511
 11
12.7948288246379
 21
-45.90462427218511
  0
LINE
  5
124
100
AcDbEntity
  8
edge
  6
ByLayer
 62
  256
370
   -1
100
AcDbLine
 10
-3.532758816990196
 20
29.52888326756631
 11
3.532758816990139
 21
29.52888326756631
  0
CIRCLE
  5
125
100
AcDbEntity
  8
rpi
  6
ByLayer
 62
  256
370
   -1
100
AcDbCircle
 10
-7.62
 20
-1.839999999999999
 40
0.5
  0
CIRCLE
  5
126
100
AcDbEntity
  8
rpi
  6
ByLayer
 62
  256
370
   -1
100
AcDbCircle
 10
-7.62
 20
-4.379999999999999
 40
0.5
  0
CIRCLE
  5
127
100
AcDbEntity
  8
rpi
  6
ByLayer
 62
  256
370
   -1
100
AcDbCircle
 10
-7.62
 20
-6.919999999999998
 40
0.5
  0
CIRCLE
  5
128
100
AcDbEntity
  8
rpi
  6
ByLayer
 62
  256
370
   -1
100
AcDbCircle
 10
-7.62
 20
-9.459999999999999
 40
0.5
  0
CIRCLE
  5
129
100
AcDbEntity
  8
rpi
  6
ByLayer
 62
  256
370
   -1
100
AcDbCircle
 10
-7.62
 20
-12
 40
0.5
  0
CIRCLE
  5
12A
100
AcDbEntity
  8
rpi
  6
ByLayer
 62
  256
370
   -1
100
AcDbCircle
 10
-7.62
 20
-14.54
 40
0.5
  0
CIRCLE
  5
12B
100
AcDbEntity
  8
rpi
  6
ByLayer
 62
  256
370
   -1
100
AcDbCircle
 10
-7.62
 20
-17.08
 40
0.5
  0
CIRCLE
  5
12C
100
AcDbEntity
  8
rpi
  6
ByLayer
 62
  256
370
   -1
100
AcDbCircle
 10
-7.62
 20
-19.62
 40
0.5
  0
CIRCLE
  5
12D
100
AcDbEntity
  8
rpi
  6
ByLayer
 62
  256
370
   -1
100
AcDbCircle
 10
-7.62
 20
-22.16
 40
0.5
  0
CIRCLE
  5
12E
100
AcDbEntity
  8
rpi
  6
ByLayer
 62
  256
370
   -1
100
AcDbCircle
 10
-5.08
 20
-22.16
 40
0.5
  0
CIRCLE
  5
12F
100
AcDbEntity
  8
rpi
  6
ByLayer
 62
  256
370
   -1
100
AcDbCircle
 10
-2.54
 20
-22.16
 40
0.5
  0
CIRCLE
  5
130
100
AcDbEntity
  8
rpi
  6
ByLayer
 62
  256
370
   -1
100
AcDbCircle
 10
0
 20
-22.16
 40
0.5
  0
CIRCLE
  5
131
100
AcDbEntity
  8
rpi
  6
ByLayer
 62
  256
370
   -1
100
AcDbCircle
 10
2.54
 20
-22.16
 40
0.5
  0
CIRCLE
  5
132
100
AcDbEntity
  8
rpi
  6
ByLayer
 62
  256
370
   -1
100
AcDbCircle
 10
5.08
 20
-22.16
 40
0.5
  0
CIRCLE
  5
133
100
AcDbEntity
  8
rpi
  6
ByLayer
 62
  256
370
   -1
100
AcDbCircle
 10
7.62
 20
-22.16
 40
0.5
  0
CIRCLE
  5
134
100
AcDbEntity
  8
rpi
  6
ByLayer
 62
  256
370
   -1
100
AcDbCircle
 10
7.62
 20
-19.62
 40
0.5
  0
CIRCLE
  5
135
100
AcDbEntity
  8
rpi
  6
ByLayer
 62
  256
370
   -1
100
AcDbCircle
 10
7.62
 20
-17.08
 40
0.5
  0
CIRCLE
  5
136
100
AcDbEntity
  8
rpi
  6
ByLayer
 62
  256
370
   -1
100
AcDbCircle
 10
7.62
 20
-14.54
 40
0.5
  0
CIRCLE
  5
137
100
AcDbEntity
  8
rpi
  6
ByLayer
 62
  256
370
   -1
100
AcDbCircle
 10
7.62
 20
-12
 40
0.5
  0
CIRCLE
  5
138
100
AcDbEntity
  8
rpi
  6
ByLayer
 62
  256
370
   -1
100
AcDbCircle
 10
7.62
 20
-9.460000000000001
 40
0.5
  0
CIRCLE
  5
139
100
AcDbEntity
  8
rpi
  6
ByLayer
 62
  256
370
   -1
100
AcDbCircle
 10
7.62
 20
-6.920000000000002
 40
0.5
  0
CIRCLE
  5
13A
100
AcDbEntity
  8
rpi
  6
ByLayer
 62
  256
370
   -1
100
AcDbCircle
 10
7.62
 20
-1.840000000000002
 40
0.5
  0
CIRCLE
  5
13B
100
AcDbEntity
  8
rpi
  6
ByLayer
 62
  256
370
   -1
100
AcDbCircle
 10
7.62
 20
-4.380000000000002
 40
0.5
  0
LWPOLYLINE
  5
13C
100
AcDbEntity
  8
rpi
  6
ByLayer
 62
  256
370
   -1
100
AcDbPolyline
 90
    4
 70
    1
 43
0
 10
-8.890000000000001
 20
-0.5699999999999981
 10
8.890000000000001
 20
-0.5699999999999981
 10
8.890000000000001
 20
-23.43
 10
-8.890000000000001
 20
-23.43
  0
LINE
  5
13D
100
AcDbEntity
  8
placement
  6
ByLayer
 62
  256
370
   -1
100
AcDbLine
 10
-8.890000000000001
 20
-0.5699999999999981
 11
8.890000000000001
 21
-23.43
  0
LINE
  5
13E
100
AcDbEntity
  8
keycap
  6
ByLayer
 62
  256
370
   -1
100
AcDbLine
 10
-3.532758816990196
 20
29.52888326756631
 11
-12.79482882463796
 21
-45.90462427218511
  0
LINE
  5
13F
100
AcDbEntity
  8
placement
  6
ByLayer
 62
  256
370
   -1
100
AcDbLine
 10
-95.64795120000004
 20
38.32043213721229
 11
-83.45847580000003
 21
22.71861513721229
  0
LINE
  5
140
100
AcDbEntity
  8
placement
  6
ByLayer
 62
  256
370
   -1
100
AcDbLine
 10
-76.21069490000002
 20
40.71950883721229
 11
-64.02121950000003
 21
25.11769183721229
  0
LINE
  5
141
100
AcDbEntity
  8
placement
  6
ByLayer
 62
  256
370
   -1
100
AcDbLine
 10
-56.77343870000003
 20
43.11858553721229
 11
-44.58396330000002
 21
27.5167685372123
  0
LINE
  5
142
100
AcDbEntity
  8
placement
  6
ByLayer
 62
  256
370
   -1
100
AcDbLine
 10
-38.49394120000002
 20
36.08847373721229
 11
-26.30446580000003
 21
20.48665673721229
  0
LINE
  5
143
100
AcDbEntity
  8
placement
  6
ByLayer
 62
  256
370
   -1
100
AcDbLine
 10
-20.21444370000003
 20
29.05836203721229
 11
-8.024968300000026
 21
13.45654503721229
  0
LINE
  5
144
100
AcDbEntity
  8
placement
  6
ByLayer
 62
  256
370
   -1
100
AcDbLine
 10
-78.52621250000003
 20
21.8611319372123
 11
-66.33673710000004
 21
6.259314937212299
  0
LINE
  5
145
100
AcDbEntity
  8
placement
  6
ByLayer
 62
  256
370
   -1
100
AcDbLine
 10
-59.08895630000004
 20
24.2602086372123
 11
-46.89948090000003
 21
8.658391637212304
  0
LINE
  5
146
100
AcDbEntity
  8
placement
  6
ByLayer
 62
  256
370
   -1
100
AcDbLine
 10
-40.80945880000003
 20
17.2300968372123
 11
-28.61998340000004
 21
1.6282798372123
  0
LINE
  5
147
100
AcDbEntity
  8
placement
  6
ByLayer
 62
  256
370
   -1
100
AcDbLine
 10
-22.52996130000004
 20
10.1999851372123
 11
-10.34048590000003
 21
-5.401831862787699
  0
LINE
  5
148
100
AcDbEntity
  8
placement
  6
ByLayer
 62
  256
370
   -1
100
AcDbLine
 10
-80.84173000000003
 20
3.002755037212289
 11
-68.65225460000003
 21
-12.59906196278771
  0
LINE
  5
149
100
AcDbEntity
  8
placement
  6
ByLayer
 62
  256
370
   -1
100
AcDbLine
 10
-61.40447380000003
 20
5.401831737212291
 11
-49.21499840000003
 21
-10.1999852627877
  0
LINE
  5
14A
100
AcDbEntity
  8
placement
  6
ByLayer
 62
  256
370
   -1
100
AcDbLine
 10
-43.12497630000003
 20
-1.628280062787709
 11
-30.93550090000004
 21
-17.23009706278771
  0
LINE
  5
14B
100
AcDbEntity
  8
placement
  6
ByLayer
 62
  256
370
   -1
100
AcDbLine
 10
-24.84547880000004
 20
-8.658391762787709
 11
-12.65600340000003
 21
-24.26020876278771
  0
LINE
  5
14C
100
AcDbEntity
  8
placement
  6
ByLayer
 62
  256
370
   -1
100
AcDbLine
 10
-100.3207658
 20
19.75149493721229
 11
-88.13129040000004
 21
4.149677937212299
  0
LINE
  5
14D
100
AcDbEntity
  8
placement
  6
ByLayer
 62
  256
370
   -1
100
AcDbLine
 10
-102.6362833
 20
0.8931180372122879
 11
-90.44680790000002
 21
-14.70869896278771
  0
LINE
  5
14E
100
AcDbEntity
  8
placement
  6
ByLayer
 62
  256
370
   -1
100
AcDbLine
 10
-97.87990950000004
 20
-18.83357786278771
 11
-85.69043410000003
 21
-34.4353948627877
  0
LINE
  5
14F
100
AcDbEntity
  8
placement
  6
ByLayer
 62
  256
370
   -1
100
AcDbLine
 10
-69.59234420000004
 20
-22.30685416278771
 11
-57.40286880000004
 21
-37.9086711627877
  0
LINE
  5
150
100
AcDbEntity
  8
placement
  6
ByLayer
 62
  256
370
   -1
100
AcDbLine
 10
-36.59018470000004
 20
-26.35900986278771
 11
-24.40070930000003
 21
-41.9608268627877
  0
LINE
  5
151
100
AcDbEntity
  8
placement
  6
ByLayer
 62
  256
370
   -1
100
AcDbLine
 10
-7.000000000000028
 20
-27.66692836278771
 11
6.999999999999972
 21
-41.66692836278771
  0
LINE
  5
152
100
AcDbEntity
  8
placement
  6
ByLayer
 62
  256
370
   -1
100
AcDbLine
 10
-84.93630037231605
 20
17.86252012391258
 11
-86.64247117231605
 21
3.966873923912573
  0
LINE
  5
153
100
AcDbEntity
  8
placement
  6
ByLayer
 62
  256
370
   -1
100
AcDbLine
 10
-80.26348577231606
 20
36.43145732391257
 11
-81.96965657231605
 21
22.53581112391258
  0
LINE
  5
154
100
AcDbEntity
  8
placement
  6
ByLayer
 62
  256
370
   -1
100
AcDbLine
 10
-77.699514127684
 20
40.902312850512
 11
-79.40568492768401
 21
27.00666665051201
  0
LINE
  5
155
100
AcDbEntity
  8
placement
  6
ByLayer
 62
  256
370
   -1
100
AcDbLine
 10
-58.262257927684
 20
43.30138955051201
 11
-59.96842872768401
 21
29.40574335051201
  0
LINE
  5
156
100
AcDbEntity
  8
placement
  6
ByLayer
 62
  256
370
   -1
100
AcDbLine
 10
-39.982760427684
 20
36.27127775051201
 11
-41.68893122768401
 21
22.37563155051201
  0
LINE
  5
157
100
AcDbEntity
  8
placement
  6
ByLayer
 62
  256
370
   -1
100
AcDbLine
 10
-21.70326292768401
 20
29.24116605051201
 11
-23.40943372768401
 21
15.34551985051201
  0
LINE
  5
158
100
AcDbEntity
  8
placement
  6
ByLayer
 62
  256
370
   -1
100
AcDbLine
 10
-24.01878042768401
 20
10.38278915051201
 11
-25.72495122768401
 21
-3.512857049487991
  0
LINE
  5
159
100
AcDbEntity
  8
placement
  6
ByLayer
 62
  256
370
   -1
100
AcDbLine
 10
-42.298277927684
 20
17.41290085051201
 11
-44.00444872768401
 21
3.517254650512011
  0
LINE
  5
15A
100
AcDbEntity
  8
placement
  6
ByLayer
 62
  256
370
   -1
100
AcDbLine
 10
-60.577775427684
 20
24.44301265051201
 11
-62.28394622768401
 21
10.54736645051201
  0
LINE
  5
15B
100
AcDbEntity
  8
placement
  6
ByLayer
 62
  256
370
   -1
100
AcDbLine
 10
-80.015031727684
 20
22.04393595051201
 11
-81.721202527684
 21
8.148289750512006
  0
LINE
  5
15C
100
AcDbEntity
  8
placement
  6
ByLayer
 62
  256
370
   -1
100
AcDbLine
 10
-87.25181787231605
 20
-0.9958567760874215
 11
-88.95798867231605
 21
-14.89150297608742
  0
LINE
  5
15D
100
AcDbEntity
  8
placement
  6
ByLayer
 62
  256
370
   -1
100
AcDbLine
 10
-82.330549227684
 20
3.185559050512007
 11
-84.03672002768401
 21
-10.71008714948799
  0
LINE
  5
15E
100
AcDbEntity
  8
placement
  6
ByLayer
 62
  256
370
   -1
100
AcDbLine
 10
-62.893292927684
 20
5.584635750512007
 11
-64.59946372768401
 21
-8.311010449487995
  0
LINE
  5
15F
100
AcDbEntity
  8
placement
  6
ByLayer
 62
  256
370
   -1
100
AcDbLine
 10
-44.613795427684
 20
-1.445475949487992
 11
-46.31996622768401
 21
-15.34112214948799
  0
LINE
  5
160
100
AcDbEntity
  8
placement
  6
ByLayer
 62
  256
370
   -1
100
AcDbLine
 10
-26.33429792768401
 20
-8.475587749487993
 11
-28.040468727684
 21
-22.37123394948799
  0
LINE
  5
161
100
AcDbEntity
  8
placement
  6
ByLayer
 62
  256
370
   -1
100
AcDbLine
 10
-82.49544407231605
 20
-20.72255267608743
 11
-84.20161487231606
 21
-34.61819887608743
  0
LINE
  5
162
100
AcDbEntity
  8
placement
  6
ByLayer
 62
  256
370
   -1
100
AcDbLine
 10
-71.081163427684
 20
-22.12405014948799
 11
-72.78733422768401
 21
-36.01969634948799
  0
LINE
  5
163
100
AcDbEntity
  8
placement
  6
ByLayer
 62
  256
370
   -1
100
AcDbLine
 10
-54.20787877231605
 20
-24.19582897608742
 11
-55.91404957231605
 21
-38.09147517608742
  0
LINE
  5
164
100
AcDbEntity
  8
placement
  6
ByLayer
 62
  256
370
   -1
100
AcDbLine
 10
-7.000000000000028
 20
-26.16692836278771
 11
6.999999999999972
 21
-26.16692836278771
  0
LINE
  5
165
100
AcDbEntity
  8
placement
  6
ByLayer
 62
  256
370
   -1
100
AcDbLine
 10
95.64795120000004
 20
38.3204321372123
 11
83.45847580000003
 21
22.71861513721233
  0
LINE
  5
166
100
AcDbEntity
  8
placement
  6
ByLayer
 62
  256
370
   -1
100
AcDbLine
 10
76.21069490000002
 20
40.71950883721229
 11
64.02121950000003
 21
25.11769183721229
  0
LINE
  5
167
100
AcDbEntity
  8
placement
  6
ByLayer
 62
  256
370
   -1
100
AcDbLine
 10
56.77343870000003
 20
43.11858553721228
 11
44.58396330000002
 21
27.5167685372123
  0
LINE
  5
168
100
AcDbEntity
  8
placement
  6
ByLayer
 62
  256
370
   -1
100
AcDbLine
 10
38.49394120000002
 20
36.0884737372123
 11
26.30446580000003
 21
20.48665673721225
  0
LINE
  5
169
100
AcDbEntity
  8
placement
  6
ByLayer
 62
  256
370
   -1
100
AcDbLine
 10
20.21444370000003
 20
29.05836203721229
 11
8.024968300000026
 21
13.45654503721227
  0
LINE
  5
16A
100
AcDbEntity
  8
placement
  6
ByLayer
 62
  256
370
   -1
100
AcDbLine
 10
78.52621250000003
 20
21.86113193721229
 11
66.33673710000004
 21
6.259314937212292
  0
LINE
  5
16B
100
AcDbEntity
  8
placement
  6
ByLayer
 62
  256
370
   -1
100
AcDbLine
 10
59.08895630000004
 20
24.26020863721233
 11
46.89948090000003
 21
8.658391637212304
  0
LINE
  5
16C
100
AcDbEntity
  8
placement
  6
ByLayer
 62
  256
370
   -1
100
AcDbLine
 10
40.80945880000003
 20
17.23009683721228
 11
28.61998340000004
 21
1.628279837212308
  0
LINE
  5
16D
100
AcDbEntity
  8
placement
  6
ByLayer
 62
  256
370
   -1
100
AcDbLine
 10
22.52996130000004
 20
10.19998513721226
 11
10.34048590000003
 21
-5.401831862787706
  0
LINE
  5
16E
100
AcDbEntity
  8
placement
  6
ByLayer
 62
  256
370
   -1
100
AcDbLine
 10
80.84173000000003
 20
3.002755037212289
 11
68.65225460000003
 21
-12.59906196278771
  0
LINE
  5
16F
100
AcDbEntity
  8
placement
  6
ByLayer
 62
  256
370
   -1
100
AcDbLine
 10
61.40447380000003
 20
5.401831737212291
 11
49.21499840000003
 21
-10.19998526278771
  0
LINE
  5
170
100
AcDbEntity
  8
placement
  6
ByLayer
 62
  256
370
   -1
100
AcDbLine
 10
43.12497630000003
 20
-1.628280062787709
 11
30.93550090000004
 21
-17.23009706278771
  0
LINE
  5
171
100
AcDbEntity
  8
placement
  6
ByLayer
 62
  256
370
   -1
100
AcDbLine
 10
24.84547880000004
 20
-8.658391762787709
 11
12.65600340000003
 21
-24.26020876278771
  0
LINE
  5
172
100
AcDbEntity
  8
placement
  6
ByLayer
 62
  256
370
   -1
100
AcDbLine
 10
100.3207658
 20
19.75149493721231
 11
88.13129040000004
 21
4.149677937212278
  0
LINE
  5
173
100
AcDbEntity
  8
placement
  6
ByLayer
 62
  256
370
   -1
100
AcDbLine
 10
102.6362833
 20
0.8931180372122912
 11
90.44680790000002
 21
-14.70869896278771
  0
LINE
  5
174
100
AcDbEntity
  8
placement
  6
ByLayer
 62
  256
370
   -1
100
AcDbLine
 10
97.87990950000004
 20
-18.83357786278771
 11
85.69043410000003
 21
-34.4353948627877
  0
LINE
  5
175
100
AcDbEntity
  8
placement
  6
ByLayer
 62
  256
370
   -1
100
AcDbLine
 10
69.59234420000004
 20
-22.30685416278771
 11
57.40286880000004
 21
-37.9086711627877
  0
LINE
  5
176
100
AcDbEntity
  8
placement
  6
ByLayer
 62
  256
370
   -1
100
AcDbLine
 10
36.59018470000004
 20
-26.35900986278772
 11
24.40070930000003
 21
-41.9608268627877
  0
LINE
  5
177
100
AcDbEntity
  8
placement
  6
ByLayer
 62
  256
370
   -1
100
AcDbLine
 10
84.93630037231605
 20
17.86252012391257
 11
86.64247117231605
 21
3.966873923912573
  0
LINE
  5
178
100
AcDbEntity
  8
placement
  6
ByLayer
 62
  256
370
   -1
100
AcDbLine
 10
80.26348577231606
 20
36.43145732391259
 11
81.96965657231605
 21
22.53581112391261
  0
LINE
  5
179
100
AcDbEntity
  8
placement
  6
ByLayer
 62
  256
370
   -1
100
AcDbLine
 10
77.699514127684
 20
40.902312850512
 11
79.40568492768401
 21
27.00666665051202
  0
LINE
  5
17A
100
AcDbEntity
  8
placement
  6
ByLayer
 62
  256
370
   -1
100
AcDbLine
 10
58.262257927684
 20
43.30138955051199
 11
59.96842872768401
 21
29.40574335051202
  0
LINE
  5
17B
100
AcDbEntity
  8
placement
  6
ByLayer
 62
  256
370
   -1
100
AcDbLine
 10
39.982760427684
 20
36.27127775051202
 11
41.68893122768401
 21
22.37563155051201
  0
LINE
  5
17C
100
AcDbEntity
  8
placement
  6
ByLayer
 62
  256
370
   -1
100
AcDbLine
 10
21.70326292768401
 20
29.24116605051201
 11
23.40943372768401
 21
15.34551985051201
  0
LINE
  5
17D
100
AcDbEntity
  8
placement
  6
ByLayer
 62
  256
370
   -1
100
AcDbLine
 10
24.01878042768401
 20
10.38278915051198
 11
25.72495122768401
 21
-3.512857049487991
  0
LINE
  5
17E
100
AcDbEntity
  8
placement
  6
ByLayer
 62
  256
370
   -1
100
AcDbLine
 10
42.298277927684
 20
17.41290085051202
 11
44.00444872768401
 21
3.51725465051202
  0
LINE
  5
17F
100
AcDbEntity
  8
placement
  6
ByLayer
 62
  256
370
   -1
100
AcDbLine
 10
60.577775427684
 20
24.443012650512
 11
62.28394622768401
 21
10.54736645051202
  0
LINE
  5
180
100
AcDbEntity
  8
placement
  6
ByLayer
 62
  256
370
   -1
100
AcDbLine
 10
80.015031727684
 20
22.04393595051201
 11
81.721202527684
 21
8.148289750512006
  0
LINE
  5
181
100
AcDbEntity
  8
placement
  6
ByLayer
 62
  256
370
   -1
100
AcDbLine
 10
87.25181787231605
 20
-0.995856776087422
 11
88.95798867231605
 21
-14.89150297608742
  0
LINE
  5
182
100
AcDbEntity
  8
placement
  6
ByLayer
 62
  256
370
   -1
100
AcDbLine
 10
82.330549227684
 20
3.185559050512016
 11
84.03672002768401
 21
-10.71008714948801
  0
LINE
  5
183
100
AcDbEntity
  8
placement
  6
ByLayer
 62
  256
370
   -1
100
AcDbLine
 10
62.893292927684
 20
5.584635750512035
 11
64.59946372768401
 21
-8.311010449487995
  0
LINE
  5
184
100
AcDbEntity
  8
placement
  6
ByLayer
 62
  256
370
   -1
100
AcDbLine
 10
44.613795427684
 20
-1.445475949487992
 11
46.31996622768401
 21
-15.34112214948799
  0
LINE
  5
185
100
AcDbEntity
  8
placement
  6
ByLayer
 62
  256
370
   -1
100
AcDbLine
 10
26.33429792768401
 20
-8.475587749487993
 11
28.040468727684
 21
-22.37123394948799
  0
LINE
  5
186
100
AcDbEntity
  8
placement
  6
ByLayer
 62
  256
370
   -1
100
AcDbLine
 10
82.49544407231605
 20
-20.72255267608744
 11
84.20161487231606
 21
-34.61819887608743
  0
LINE
  5
187
100
AcDbEntity
  8
placement
  6
ByLayer
 62
  256
370
   -1
100
AcDbLine
 10
71.081163427684
 20
-22.124050149488
 11
72.78733422768401
 21
-36.01969634948799
  0
LINE
  5
188
100
AcDbEntity
  8
placement
  6
ByLayer
 62
  256
370
   -1
100
AcDbLine
 10
54.20787877231605
 20
-24.19582897608741
 11
55.91404957231605
 21
-38.09147517608742
  0
CIRCLE
  5
189
100
AcDbEntity
  8
percage
  6
ByLayer
 62
  256
370
   -1
100
AcDbCircle
 10
-77.64138915000004
 20
-28.37112451278771
 40
1.5
  0
CIRCLE
  5
18A
100
AcDbEntity
  8
percage
  6
ByLayer
 62
  256
370
   -1
100
AcDbCircle
 10
-71.27371600000002
 20
23.48941188721229
 40
1.5
  0
CIRCLE
  5
18B
100
AcDbEntity
  8
percage
  6
ByLayer
 62
  256
370
   -1
100
AcDbCircle
 10
77.64138915000004
 20
-28.37112451278769
 40
1.5
  0
CIRCLE
  5
18C
100
AcDbEntity
  8
percage
  6
ByLayer
 62
  256
370
   -1
100
AcDbCircle
 10
71.27371600000002
 20
23.48941188721236
 40
1.5
  0
LINE
  5
18D
100
AcDbEntity
  8
placement
  6
ByLayer
 62
  256
370
   -1
100
AcDbLine
 10
-97.53692601329975
 20
22.93596670952832
 11
-83.64127981329975
 21
21.22979590952831
  0
LINE
  5
18E
100
AcDbEntity
  8
placement
  6
ByLayer
 62
  256
370
   -1
100
AcDbLine
 10
83.64127981329969
 20
21.22979590952831
 11
97.53692601329968
 21
22.93596670952831
  0
ENDSEC
  0
SECTION
  2
OBJECTS
  0
DICTIONARY
  5
C
330
0
100
AcDbDictionary
281
    1
  3
ACAD_GROUP
350
D
  0
DICTIONARY
  5
D
330
C
100
AcDbDictionary
281
    1
  0
PLOTSETTINGS
  5
18F
100
AcDbPlotSettings
  6
1x1
 40
0
 41
0
 42
0
 43
0
  0
ENDSEC
  0
EOF
