0
SECTION
2
HEADER
9
$INSUNITS
70
4
0
ENDSEC
0
SECTION
2
TABLES
0
TABLE
2
LTYPE
0
LTYPE
72
65
70
64
2
CONTINUOUS
3
______
73
0
40
0
0
ENDTAB
0
TABLE
2
LAYER
0
ENDTAB
0
ENDSEC
0
SECTION
2
ENTITIES
0
LINE
8
0
10
-7.3004362
20
10.4261034
11
10.4261034
21
7.3004362
0
LINE
8
0
10
10.4261034
20
7.3004362
11
7.3004362
21
-10.4261034
0
LINE
8
0
10
7.3004362
20
-10.4261034
11
-10.4261034
21
-7.3004362
0
LINE
8
0
10
-10.4261034
20
-7.3004362
11
-7.3004362
21
10.4261034
0
LINE
8
0
10
-4.0011208
20
29.1374507
11
13.7254188
21
26.0117835
0
LINE
8
0
10
13.7254188
20
26.0117835
11
10.5997516
21
8.2852439
0
LINE
8
0
10
10.5997516
20
8.2852439
11
-7.126788
21
11.4109111
0
LINE
8
0
10
-7.126788
20
11.4109111
11
-4.0011208
21
29.1374507
0
LINE
8
0
10
-0.7018054
20
47.848798
11
17.0247342
21
44.7231308
0
LINE
8
0
10
17.0247342
20
44.7231308
11
13.899067
21
26.9965912
0
LINE
8
0
10
13.899067
20
26.9965912
11
-3.8274726
21
30.1222584
0
LINE
8
0
10
-3.8274726
20
30.1222584
11
-0.7018054
21
47.848798
0
LINE
8
0
10
12.279152
20
12.0508268
11
30.0056916
21
8.9251596
0
LINE
8
0
10
30.0056916
20
8.9251596
11
26.8800244
21
-8.80138
0
LINE
8
0
10
26.8800244
20
-8.80138
11
9.1534848
21
-5.6757128
0
LINE
8
0
10
9.1534848
20
-5.6757128
11
12.279152
21
12.0508268
0
LINE
8
0
10
15.5784674
20
30.7621741
11
33.305007
21
27.6365069
0
LINE
8
0
10
33.305007
20
27.6365069
11
30.1793398
21
9.9099673
0
LINE
8
0
10
30.1793398
20
9.9099673
11
12.4528002
21
13.0356345
0
LINE
8
0
10
12.4528002
20
13.0356345
11
15.5784674
21
30.7621741
0
LINE
8
0
10
18.8777828
20
49.4735214
11
36.6043224
21
46.3478542
0
LINE
8
0
10
36.6043224
20
46.3478542
11
33.4786552
21
28.6213146
0
LINE
8
0
10
33.4786552
20
28.6213146
11
15.7521156
21
31.7469818
0
LINE
8
0
10
15.7521156
20
31.7469818
11
18.8777828
21
49.4735214
0
LINE
8
0
10
31.8587402
20
13.6755502
11
49.5852798
21
10.549883
0
LINE
8
0
10
49.5852798
20
10.549883
11
46.4596126
21
-7.1766566
0
LINE
8
0
10
46.4596126
20
-7.1766566
11
28.733073
21
-4.0509894
0
LINE
8
0
10
28.733073
20
-4.0509894
11
31.8587402
21
13.6755502
0
LINE
8
0
10
35.1580556
20
32.3868975
11
52.8845952
21
29.2612303
0
LINE
8
0
10
52.8845952
20
29.2612303
11
49.758928
21
11.5346907
0
LINE
8
0
10
49.758928
20
11.5346907
11
32.0323884
21
14.6603579
0
LINE
8
0
10
32.0323884
20
14.6603579
11
35.1580556
21
32.3868975
0
LINE
8
0
10
38.457371
20
51.0982448
11
56.1839106
21
47.9725776
0
LINE
8
0
10
56.1839106
20
47.9725776
11
53.0582434
21
30.246038
0
LINE
8
0
10
53.0582434
20
30.246038
11
35.3317038
21
33.3717052
0
LINE
8
0
10
35.3317038
20
33.3717052
11
38.457371
21
51.0982448
0
LINE
8
0
10
49.7018466
20
5.452196
11
67.4283862
21
2.3265288
0
LINE
8
0
10
67.4283862
20
2.3265288
11
64.302719
21
-15.4000108
0
LINE
8
0
10
64.302719
20
-15.4000108
11
46.5761794
21
-12.2743436
0
LINE
8
0
10
46.5761794
20
-12.2743436
11
49.7018466
21
5.452196
0
LINE
8
0
10
53.001162
20
24.1635433
11
70.7277016
21
21.0378761
0
LINE
8
0
10
70.7277016
20
21.0378761
11
67.6020344
21
3.3113365
0
LINE
8
0
10
67.6020344
20
3.3113365
11
49.8754948
21
6.4370037
0
LINE
8
0
10
49.8754948
20
6.4370037
11
53.001162
21
24.1635433
0
LINE
8
0
10
56.3004774
20
42.8748906
11
74.027017
21
39.7492234
0
LINE
8
0
10
74.027017
20
39.7492234
11
70.9013498
21
22.0226838
0
LINE
8
0
10
70.9013498
20
22.0226838
11
53.1748102
21
25.148351
0
LINE
8
0
10
53.1748102
20
25.148351
11
56.3004774
21
42.8748906
0
LINE
8
0
10
67.0240085
20
-5.7255814
11
84.7505481
21
-8.8512486
0
LINE
8
0
10
84.7505481
20
-8.8512486
11
81.6248809
21
-26.5777882
0
LINE
8
0
10
81.6248809
20
-26.5777882
11
63.8983413
21
-23.452121
0
LINE
8
0
10
63.8983413
20
-23.452121
11
67.0240085
21
-5.7255814
0
LINE
8
0
10
70.3233239
20
12.9857659
11
88.0498635
21
9.8600987
0
LINE
8
0
10
88.0498635
20
9.8600987
11
84.9241963
21
-7.8664409
0
LINE
8
0
10
84.9241963
20
-7.8664409
11
67.1976567
21
-4.7407737
0
LINE
8
0
10
67.1976567
20
-4.7407737
11
70.3233239
21
12.9857659
0
LINE
8
0
10
73.6226393
20
31.6971132
11
91.3491789
21
28.571446
0
LINE
8
0
10
91.3491789
20
28.571446
11
88.2235117
21
10.8449064
0
LINE
8
0
10
88.2235117
20
10.8449064
11
70.4969721
21
13.9705736
0
LINE
8
0
10
70.4969721
20
13.9705736
11
73.6226393
21
31.6971132
0
LINE
8
0
10
41.0741148
20
-20.4430206
11
58.8006544
21
-23.5686878
0
LINE
8
0
10
58.8006544
20
-23.5686878
11
55.6749872
21
-41.2952274
0
LINE
8
0
10
55.6749872
20
-41.2952274
11
37.9484476
21
-38.1695602
0
LINE
8
0
10
37.9484476
20
-38.1695602
11
41.0741148
21
-20.4430206
0
LINE
8
0
10
61.8441023
20
-24.5818797
11
79.0575879
21
-29.8445703
0
LINE
8
0
10
79.0575879
20
-29.8445703
11
73.7948973
21
-47.0580559
0
LINE
8
0
10
73.7948973
20
-47.0580559
11
56.5814117
21
-41.7953653
0
LINE
8
0
10
56.5814117
20
-41.7953653
11
61.8441023
21
-24.5818797
0
LINE
8
0
10
82.051082
20
-30.9637919
11
98.4949002
21
-38.2850515
0
LINE
8
0
10
98.4949002
20
-38.2850515
11
91.1736406
21
-54.7288697
0
LINE
8
0
10
91.1736406
20
-54.7288697
11
74.7298224
21
-47.4076101
0
LINE
8
0
10
74.7298224
20
-47.4076101
11
82.051082
21
-30.9637919
0
LINE
8
0
10
196.1725274
20
7.3004362
11
213.899067
21
10.4261034
0
LINE
8
0
10
213.899067
20
10.4261034
11
217.0247342
21
-7.3004362
0
LINE
8
0
10
217.0247342
20
-7.3004362
11
199.2981946
21
-10.4261034
0
LINE
8
0
10
199.2981946
20
-10.4261034
11
196.1725274
21
7.3004362
0
LINE
8
0
10
192.873212
20
26.0117835
11
210.5997516
21
29.1374507
0
LINE
8
0
10
210.5997516
20
29.1374507
11
213.7254188
21
11.4109111
0
LINE
8
0
10
213.7254188
20
11.4109111
11
195.9988792
21
8.2852439
0
LINE
8
0
10
195.9988792
20
8.2852439
11
192.873212
21
26.0117835
0
LINE
8
0
10
189.5738966
20
44.7231308
11
207.3004362
21
47.848798
0
LINE
8
0
10
207.3004362
20
47.848798
11
210.4261034
21
30.1222584
0
LINE
8
0
10
210.4261034
20
30.1222584
11
192.6995638
21
26.9965912
0
LINE
8
0
10
192.6995638
20
26.9965912
11
189.5738966
21
44.7231308
0
LINE
8
0
10
176.5929392
20
8.9251596
11
194.3194788
21
12.0508268
0
LINE
8
0
10
194.3194788
20
12.0508268
11
197.445146
21
-5.6757128
0
LINE
8
0
10
197.445146
20
-5.6757128
11
179.7186064
21
-8.80138
0
LINE
8
0
10
179.7186064
20
-8.80138
11
176.5929392
21
8.9251596
0
LINE
8
0
10
173.2936238
20
27.6365069
11
191.0201634
21
30.7621741
0
LINE
8
0
10
191.0201634
20
30.7621741
11
194.1458306
21
13.0356345
0
LINE
8
0
10
194.1458306
20
13.0356345
11
176.419291
21
9.9099673
0
LINE
8
0
10
176.419291
20
9.9099673
11
173.2936238
21
27.6365069
0
LINE
8
0
10
169.9943084
20
46.3478542
11
187.720848
21
49.4735214
0
LINE
8
0
10
187.720848
20
49.4735214
11
190.8465152
21
31.7469818
0
LINE
8
0
10
190.8465152
20
31.7469818
11
173.1199756
21
28.6213146
0
LINE
8
0
10
173.1199756
20
28.6213146
11
169.9943084
21
46.3478542
0
LINE
8
0
10
157.013351
20
10.549883
11
174.7398906
21
13.6755502
0
LINE
8
0
10
174.7398906
20
13.6755502
11
177.8655578
21
-4.0509894
0
LINE
8
0
10
177.8655578
20
-4.0509894
11
160.1390182
21
-7.1766566
0
LINE
8
0
10
160.1390182
20
-7.1766566
11
157.013351
21
10.549883
0
LINE
8
0
10
153.7140356
20
29.2612303
11
171.4405752
21
32.3868975
0
LINE
8
0
10
171.4405752
20
32.3868975
11
174.5662424
21
14.6603579
0
LINE
8
0
10
174.5662424
20
14.6603579
11
156.8397028
21
11.5346907
0
LINE
8
0
10
156.8397028
20
11.5346907
11
153.7140356
21
29.2612303
0
LINE
8
0
10
150.4147202
20
47.9725776
11
168.1412598
21
51.0982448
0
LINE
8
0
10
168.1412598
20
51.0982448
11
171.266927
21
33.3717052
0
LINE
8
0
10
171.266927
20
33.3717052
11
153.5403874
21
30.246038
0
LINE
8
0
10
153.5403874
20
30.246038
11
150.4147202
21
47.9725776
0
LINE
8
0
10
139.1702446
20
2.3265288
11
156.8967842
21
5.452196
0
LINE
8
0
10
156.8967842
20
5.452196
11
160.0224514
21
-12.2743436
0
LINE
8
0
10
160.0224514
20
-12.2743436
11
142.2959118
21
-15.4000108
0
LINE
8
0
10
142.2959118
20
-15.4000108
11
139.1702446
21
2.3265288
0
LINE
8
0
10
135.8709292
20
21.0378761
11
153.5974688
21
24.1635433
0
LINE
8
0
10
153.5974688
20
24.1635433
11
156.723136
21
6.4370037
0
LINE
8
0
10
156.723136
20
6.4370037
11
138.9965964
21
3.3113365
0
LINE
8
0
10
138.9965964
20
3.3113365
11
135.8709292
21
21.0378761
0
LINE
8
0
10
132.5716138
20
39.7492234
11
150.2981534
21
42.8748906
0
LINE
8
0
10
150.2981534
20
42.8748906
11
153.4238206
21
25.148351
0
LINE
8
0
10
153.4238206
20
25.148351
11
135.697281
21
22.0226838
0
LINE
8
0
10
135.697281
20
22.0226838
11
132.5716138
21
39.7492234
0
LINE
8
0
10
121.8480827
20
-8.8512486
11
139.5746223
21
-5.7255814
0
LINE
8
0
10
139.5746223
20
-5.7255814
11
142.7002895
21
-23.452121
0
LINE
8
0
10
142.7002895
20
-23.452121
11
124.9737499
21
-26.5777882
0
LINE
8
0
10
124.9737499
20
-26.5777882
11
121.8480827
21
-8.8512486
0
LINE
8
0
10
118.5487673
20
9.8600987
11
136.2753069
21
12.9857659
0
LINE
8
0
10
136.2753069
20
12.9857659
11
139.4009741
21
-4.7407737
0
LINE
8
0
10
139.4009741
20
-4.7407737
11
121.6744345
21
-7.8664409
0
LINE
8
0
10
121.6744345
20
-7.8664409
11
118.5487673
21
9.8600987
0
LINE
8
0
10
115.2494519
20
28.571446
11
132.9759915
21
31.6971132
0
LINE
8
0
10
132.9759915
20
31.6971132
11
136.1016587
21
13.9705736
0
LINE
8
0
10
136.1016587
20
13.9705736
11
118.3751191
21
10.8449064
0
LINE
8
0
10
118.3751191
20
10.8449064
11
115.2494519
21
28.571446
0
LINE
8
0
10
147.7979764
20
-23.5686878
11
165.524516
21
-20.4430206
0
LINE
8
0
10
165.524516
20
-20.4430206
11
168.6501832
21
-38.1695602
0
LINE
8
0
10
168.6501832
20
-38.1695602
11
150.9236436
21
-41.2952274
0
LINE
8
0
10
150.9236436
20
-41.2952274
11
147.7979764
21
-23.5686878
0
LINE
8
0
10
127.5410429
20
-29.8445703
11
144.7545285
21
-24.5818797
0
LINE
8
0
10
144.7545285
20
-24.5818797
11
150.0172191
21
-41.7953653
0
LINE
8
0
10
150.0172191
20
-41.7953653
11
132.8037335
21
-47.0580559
0
LINE
8
0
10
132.8037335
20
-47.0580559
11
127.5410429
21
-29.8445703
0
LINE
8
0
10
108.1037306
20
-38.2850515
11
124.5475488
21
-30.9637919
0
LINE
8
0
10
124.5475488
20
-30.9637919
11
131.8688084
21
-47.4076101
0
LINE
8
0
10
131.8688084
20
-47.4076101
11
115.4249902
21
-54.7288697
0
LINE
8
0
10
115.4249902
20
-54.7288697
11
108.1037306
21
-38.2850515
0
ENDSEC
0
EOF