999
dxfrw 0.6.3
  0
SECTION
  2
HEADER
  9
$ACADVER
  1
AC1021
  9
$DWGCODEPAGE
  3
ANSI_1252
  9
$INSBASE
 10
0
 20
0
 30
0
  9
$EXTMIN
 10
-114
 20
-48.5
 30
0
  9
$EXTMAX
 10
114
 20
55
 30
0
  9
$LIMMIN
 10
0
 20
0
  9
$LIMMAX
 10
420
 20
297
  9
$ORTHOMODE
 70
    0
  9
$REGENMODE
 70
    1
  9
$FILLMODE
 70
    1
  9
$QTEXTMODE
 70
    0
  9
$MIRRTEXT
 70
    0
  9
$LTSCALE
 40
1
  9
$ATTMODE
 70
    0
  9
$TEXTSIZE
 40
2.5
  9
$TRACEWID
 40
15.68
  9
$TEXTSTYLE
  7
STANDARD
  9
$CLAYER
  8
decoup-pi
  9
$CELTYPE
  6
BYLAYER
  9
$CECOLOR
 62
  256
  9
$CELTSCALE
 40
1
  9
$DISPSILH
 70
    0
  9
$DIMSCALE
 40
2.5
  9
$DIMASZ
 40
2.5
  9
$DIMEXO
 40
0.625
  9
$DIMDLI
 40
3.75
  9
$DIMRND
 40
0
  9
$DIMDLE
 40
0
  9
$DIMEXE
 40
1.25
  9
$DIMTP
 40
0
  9
$DIMTM
 40
0
  9
$DIMTXT
 40
2.5
  9
$DIMCEN
 40
2.5
  9
$DIMTSZ
 40
0
  9
$DIMTOL
 70
    0
  9
$DIMLIM
 70
    0
  9
$DIMTIH
 70
    0
  9
$DIMTOH
 70
    0
  9
$DIMSE1
 70
    0
  9
$DIMSE2
 70
    0
  9
$DIMTAD
 70
    1
  9
$DIMZIN
 70
    8
  9
$DIMBLK
  1

  9
$DIMASO
 70
    1
  9
$DIMSHO
 70
    1
  9
$DIMPOST
  1

  9
$DIMAPOST
  1

  9
$DIMALT
 70
    0
  9
$DIMALTD
 70
    3
  9
$DIMALTF
 40
0.03937
  9
$DIMLFAC
 40
1
  9
$DIMTOFL
 70
    1
  9
$DIMTVP
 40
0
  9
$DIMTIX
 70
    0
  9
$DIMSOXD
 70
    0
  9
$DIMSAH
 70
    0
  9
$DIMBLK1
  1

  9
$DIMBLK2
  1

  9
$DIMSTYLE
  2
STANDARD
  9
$DIMCLRD
 70
    0
  9
$DIMCLRE
 70
    0
  9
$DIMCLRT
 70
    0
  9
$DIMTFAC
 40
1
  9
$DIMGAP
 40
0.625
  9
$DIMJUST
 70
    0
  9
$DIMSD1
 70
    0
  9
$DIMSD2
 70
    0
  9
$DIMTOLJ
 70
    0
  9
$DIMTZIN
 70
    8
  9
$DIMALTZ
 70
    0
  9
$DIMALTTZ
 70
    0
  9
$DIMUPT
 70
    0
  9
$DIMDEC
 70
    2
  9
$DIMTDEC
 70
    2
  9
$DIMALTU
 70
    2
  9
$DIMALTTD
 70
    3
  9
$DIMTXSTY
  7
STANDARD
  9
$DIMAUNIT
 70
    0
  9
$DIMADEC
 70
    0
  9
$DIMALTRND
 40
0
  9
$DIMAZIN
 70
    0
  9
$DIMDSEP
 70
   44
  9
$DIMATFIT
 70
    3
  9
$DIMFRAC
 70
    0
  9
$DIMLDRBLK
  1
STANDARD
  9
$DIMLUNIT
 70
    2
  9
$DIMLWD
 70
   -2
  9
$DIMLWE
 70
   -2
  9
$DIMTMOVE
 70
    0
  9
$DIMFXL
 40
1
  9
$DIMFXLON
 70
    0
  9
$DIMJOGANG
 40
0.7854
  9
$DIMTFILL
 70
    0
  9
$DIMTFILLCLR
 70
    0
  9
$DIMARCSYM
 70
    0
  9
$DIMLTYPE
  6

  9
$DIMLTEX1
  6

  9
$DIMLTEX2
  6

  9
$LUNITS
 70
    2
  9
$LUPREC
 70
    4
  9
$SKETCHINC
 40
1
  9
$FILLETRAD
 40
0
  9
$AUNITS
 70
    0
  9
$AUPREC
 70
    2
  9
$MENU
  1
.
  9
$ELEVATION
 40
0
  9
$PELEVATION
 40
0
  9
$THICKNESS
 40
0
  9
$LIMCHECK
 70
    0
  9
$CHAMFERA
 40
0
  9
$CHAMFERB
 40
0
  9
$CHAMFERC
 40
0
  9
$CHAMFERD
 40
0
  9
$SKPOLY
 70
    0
  9
$USRTIMER
 70
    1
  9
$ANGBASE
 50
0
  9
$ANGDIR
 70
    0
  9
$PDMODE
 70
   34
  9
$PDSIZE
 40
0
  9
$PLINEWID
 40
0
  9
$SPLFRAME
 70
    0
  9
$SPLINETYPE
 70
    2
  9
$SPLINESEGS
 70
    8
  9
$HANDSEED
  5
20000
  9
$SURFTAB1
 70
    6
  9
$SURFTAB2
 70
    6
  9
$SURFTYPE
 70
    6
  9
$SURFU
 70
    6
  9
$SURFV
 70
    6
  9
$UCSBASE
  2

  9
$UCSNAME
  2

  9
$UCSORG
 10
0
 20
0
 30
0
  9
$UCSXDIR
 10
1
 20
0
 30
0
  9
$UCSYDIR
 10
0
 20
1
 30
0
  9
$UCSORTHOREF
  2

  9
$UCSORTHOVIEW
 70
    0
  9
$UCSORGTOP
 10
0
 20
0
 30
0
  9
$UCSORGBOTTOM
 10
0
 20
0
 30
0
  9
$UCSORGLEFT
 10
0
 20
0
 30
0
  9
$UCSORGRIGHT
 10
0
 20
0
 30
0
  9
$UCSORGFRONT
 10
0
 20
0
 30
0
  9
$UCSORGBACK
 10
0
 20
0
 30
0
  9
$PUCSBASE
  2

  9
$PUCSNAME
  2

  9
$PUCSORG
 10
0
 20
0
 30
0
  9
$PUCSXDIR
 10
1
 20
0
 30
0
  9
$PUCSYDIR
 10
0
 20
1
 30
0
  9
$PUCSORTHOREF
  2

  9
$PUCSORTHOVIEW
 70
    0
  9
$PUCSORGTOP
 10
0
 20
0
 30
0
  9
$PUCSORGBOTTOM
 10
0
 20
0
 30
0
  9
$PUCSORGLEFT
 10
0
 20
0
 30
0
  9
$PUCSORGRIGHT
 10
0
 20
0
 30
0
  9
$PUCSORGFRONT
 10
0
 20
0
 30
0
  9
$PUCSORGBACK
 10
0
 20
0
 30
0
  9
$USERI1
 70
    0
  9
$USERI2
 70
    0
  9
$USERI3
 70
    0
  9
$USERI4
 70
    0
  9
$USERI5
 70
    0
  9
$USERR1
 40
0
  9
$USERR2
 40
0
  9
$USERR3
 40
0
  9
$USERR4
 40
0
  9
$USERR5
 40
0
  9
$WORLDVIEW
 70
    1
  9
$SHADEDGE
 70
    3
  9
$SHADEDIF
 70
   70
  9
$TILEMODE
 70
    1
  9
$MAXACTVP
 70
   64
  9
$PINSBASE
 10
0
 20
0
 30
0
  9
$PLIMCHECK
 70
    0
  9
$PEXTMIN
 10
0
 20
0
 30
0
  9
$PEXTMAX
 10
0
 20
0
 30
0
  9
$SNAPSTYLE
 70
    0
  9
$PLIMMIN
 10
0
 20
0
  9
$PLIMMAX
 10
210
 20
297
  9
$UNITMODE
 70
    0
  9
$VISRETAIN
 70
    1
  9
$PLINEGEN
 70
    0
  9
$PSLTSCALE
 70
    1
  9
$TREEDEPTH
 70
 3020
  9
$CMLSTYLE
  2
Standard
  9
$CMLJUST
 70
    0
  9
$CMLSCALE
 40
20
  9
$PROXYGRAPHICS
 70
    1
  9
$MEASUREMENT
 70
    1
  9
$CELWEIGHT
370
   -1
  9
$ENDCAPS
280
    0
  9
$JOINSTYLE
280
    0
  9
$LWDISPLAY
290
    0
  9
$INSUNITS
 70
    0
  9
$HYPERLINKBASE
  1

  9
$STYLESHEET
  1

  9
$XEDIT
290
    1
  9
$CEPSNTYPE
380
    0
  9
$PSTYLEMODE
290
    1
  9
$EXTNAMES
290
    1
  9
$PSVPSCALE
 40
1
  9
$OLESTARTUP
290
    0
  9
$SORTENTS
280
  127
  9
$INDEXCTL
280
    0
  9
$HIDETEXT
280
    1
  9
$XCLIPFRAME
290
    0
  9
$HALOGAP
280
    0
  9
$OBSCOLOR
 70
  257
  9
$OBSLTYPE
280
    0
  9
$INTERSECTIONDISPLAY
280
    0
  9
$INTERSECTIONCOLOR
 70
  257
  9
$DIMASSOC
280
    1
  9
$PROJECTNAME
  1

  9
$CAMERADISPLAY
290
    0
  9
$LENSLENGTH
 40
50
  9
$CAMERAHEIGHT
 40
0
  9
$STEPSPERSEC
 40
2
  9
$STEPSIZE
 40
50
  9
$3DDWFPREC
 40
2
  9
$PSOLWIDTH
 40
5
  9
$PSOLHEIGHT
 40
80
  9
$LOFTANG1
 40
1.570796326794897
  9
$LOFTANG2
 40
1.570796326794897
  9
$LOFTMAG1
 40
0
  9
$LOFTMAG2
 40
0
  9
$LOFTPARAM
 70
    7
  9
$LOFTNORMALS
280
    1
  9
$LATITUDE
 40
1
  9
$LONGITUDE
 40
1
  9
$NORTHDIRECTION
 40
0
  9
$TIMEZONE
 70
-8000
  9
$LIGHTGLYPHDISPLAY
280
    1
  9
$TILEMODELIGHTSYNCH
280
    1
  9
$SOLIDHIST
280
    1
  9
$SHOWHIST
280
    1
  9
$DWFFRAME
280
    2
  9
$DGNFRAME
280
    0
  9
$REALWORLDSCALE
290
    1
  9
$INTERFERECOLOR
 62
    1
  9
$CSHADOW
280
    0
  9
$SHADOWPLANELOCATION
 40
0
  0
ENDSEC
  0
SECTION
  2
CLASSES
  0
ENDSEC
  0
SECTION
  2
TABLES
  0
TABLE
  2
VPORT
  5
8
330
0
100
AcDbSymbolTable
 70
    1
  0
VPORT
  5
31
330
2
100
AcDbSymbolTableRecord
100
AcDbViewportTableRecord
  2
*ACTIVE
 70
    0
 10
0
 20
0
 11
1
 21
1
 12
58.02046035805627
 22
38.68030690537085
 13
0
 23
0
 14
10
 24
10
 15
10
 25
10
 16
0
 26
0
 36
1
 17
0
 27
0
 37
0
 40
148.1125319693095
 41
1.565616797900262
 42
50
 43
0
 44
0
 50
0
 51
0
 71
    0
 72
  100
 73
    1
 74
    3
 75
    0
 76
    1
 77
    0
 78
    0
281
    0
 65
    1
110
0
120
0
130
0
111
1
121
0
131
0
112
0
122
1
132
0
 79
    0
146
0
348
10020
 60
    7
 61
    5
292
1
282
    1
141
0
142
0
 63
  250
421
3358443
  0
ENDTAB
  0
TABLE
  2
LTYPE
  5
5
330
0
100
AcDbSymbolTable
 70
    4
  0
LTYPE
  5
14
330
5
100
AcDbSymbolTableRecord
100
AcDbLinetypeTableRecord
  2
ByBlock
 70
    0
  3

 72
   65
 73
    0
 40
0
  0
LTYPE
  5
15
330
5
100
AcDbSymbolTableRecord
100
AcDbLinetypeTableRecord
  2
ByLayer
 70
    0
  3

 72
   65
 73
    0
 40
0
  0
LTYPE
  5
16
330
5
100
AcDbSymbolTableRecord
100
AcDbLinetypeTableRecord
  2
Continuous
 70
    0
  3
Solid line
 72
   65
 73
    0
 40
0
  0
LTYPE
  5
32
330
5
100
AcDbSymbolTableRecord
100
AcDbLinetypeTableRecord
  2
DOT
 70
    0
  3
Dot . . . . . . . . . . . . . . . . . . . . . .
 72
   65
 73
    2
 40
6.35
 49
0
 74
    0
 49
-6.35
 74
    0
  0
LTYPE
  5
33
330
5
100
AcDbSymbolTableRecord
100
AcDbLinetypeTableRecord
  2
DOTTINY
 70
    0
  3
Dot (.15x) .....................................
 72
   65
 73
    2
 40
0.9525
 49
0
 74
    0
 49
-0.9525
 74
    0
  0
LTYPE
  5
34
330
5
100
AcDbSymbolTableRecord
100
AcDbLinetypeTableRecord
  2
DOT2
 70
    0
  3
Dot (.5x) .....................................
 72
   65
 73
    2
 40
3.175
 49
0
 74
    0
 49
-3.175
 74
    0
  0
LTYPE
  5
35
330
5
100
AcDbSymbolTableRecord
100
AcDbLinetypeTableRecord
  2
DOTX2
 70
    0
  3
Dot (2x) .  .  .  .  .  .  .  .  .  .  .  .  .
 72
   65
 73
    2
 40
12.7
 49
0
 74
    0
 49
-12.7
 74
    0
  0
LTYPE
  5
36
330
5
100
AcDbSymbolTableRecord
100
AcDbLinetypeTableRecord
  2
DASHED
 70
    0
  3
Dashed _ _ _ _ _ _ _ _ _ _ _ _ _ _ _ _ _
 72
   65
 73
    2
 40
19.05
 49
12.7
 74
    0
 49
-6.35
 74
    0
  0
LTYPE
  5
37
330
5
100
AcDbSymbolTableRecord
100
AcDbLinetypeTableRecord
  2
DASHEDTINY
 70
    0
  3
Dashed (.15x) _ _ _ _ _ _ _ _ _ _ _ _ _ _ _ _ _
 72
   65
 73
    2
 40
2.8575
 49
1.905
 74
    0
 49
-0.9525
 74
    0
  0
LTYPE
  5
38
330
5
100
AcDbSymbolTableRecord
100
AcDbLinetypeTableRecord
  2
DASHED2
 70
    0
  3
Dashed (.5x) _ _ _ _ _ _ _ _ _ _ _ _ _ _ _ _ _
 72
   65
 73
    2
 40
9.524999999999999
 49
6.35
 74
    0
 49
-3.175
 74
    0
  0
LTYPE
  5
39
330
5
100
AcDbSymbolTableRecord
100
AcDbLinetypeTableRecord
  2
DASHEDX2
 70
    0
  3
Dashed (2x) ____  ____  ____  ____  ____  ___
 72
   65
 73
    2
 40
38.09999999999999
 49
25.4
 74
    0
 49
-12.7
 74
    0
  0
LTYPE
  5
3A
330
5
100
AcDbSymbolTableRecord
100
AcDbLinetypeTableRecord
  2
DASHDOT
 70
    0
  3
Dash dot __ . __ . __ . __ . __ . __ . __ . __
 72
   65
 73
    4
 40
25.4
 49
12.7
 74
    0
 49
-6.35
 74
    0
 49
0
 74
    0
 49
-6.35
 74
    0
  0
LTYPE
  5
3B
330
5
100
AcDbSymbolTableRecord
100
AcDbLinetypeTableRecord
  2
DASHDOTTINY
 70
    0
  3
Dash dot (.15x) _._._._._._._._._._._._._._._.
 72
   65
 73
    4
 40
3.81
 49
1.905
 74
    0
 49
-0.9525
 74
    0
 49
0
 74
    0
 49
-0.9525
 74
    0
  0
LTYPE
  5
3C
330
5
100
AcDbSymbolTableRecord
100
AcDbLinetypeTableRecord
  2
DASHDOT2
 70
    0
  3
Dash dot (.5x) _._._._._._._._._._._._._._._.
 72
   65
 73
    4
 40
12.7
 49
6.35
 74
    0
 49
-3.175
 74
    0
 49
0
 74
    0
 49
-3.175
 74
    0
  0
LTYPE
  5
3D
330
5
100
AcDbSymbolTableRecord
100
AcDbLinetypeTableRecord
  2
DASHDOTX2
 70
    0
  3
Dash dot (2x) ____  .  ____  .  ____  .  ___
 72
   65
 73
    4
 40
50.8
 49
25.4
 74
    0
 49
-12.7
 74
    0
 49
0
 74
    0
 49
-12.7
 74
    0
  0
LTYPE
  5
3E
330
5
100
AcDbSymbolTableRecord
100
AcDbLinetypeTableRecord
  2
DIVIDE
 70
    0
  3
Divide ____ . . ____ . . ____ . . ____ . . ____
 72
   65
 73
    6
 40
31.75
 49
12.7
 74
    0
 49
-6.35
 74
    0
 49
0
 74
    0
 49
-6.35
 74
    0
 49
0
 74
    0
 49
-6.35
 74
    0
  0
LTYPE
  5
3F
330
5
100
AcDbSymbolTableRecord
100
AcDbLinetypeTableRecord
  2
DIVIDETINY
 70
    0
  3
Divide (.15x) __..__..__..__..__..__..__..__.._
 72
   65
 73
    6
 40
4.7625
 49
1.905
 74
    0
 49
-0.9525
 74
    0
 49
0
 74
    0
 49
-0.9525
 74
    0
 49
0
 74
    0
 49
-0.9525
 74
    0
  0
LTYPE
  5
40
330
5
100
AcDbSymbolTableRecord
100
AcDbLinetypeTableRecord
  2
DIVIDE2
 70
    0
  3
Divide (.5x) __..__..__..__..__..__..__..__.._
 72
   65
 73
    6
 40
15.875
 49
6.35
 74
    0
 49
-3.175
 74
    0
 49
0
 74
    0
 49
-3.175
 74
    0
 49
0
 74
    0
 49
-3.175
 74
    0
  0
LTYPE
  5
41
330
5
100
AcDbSymbolTableRecord
100
AcDbLinetypeTableRecord
  2
DIVIDEX2
 70
    0
  3
Divide (2x) ________  .  .  ________  .  .  _
 72
   65
 73
    6
 40
63.5
 49
25.4
 74
    0
 49
-12.7
 74
    0
 49
0
 74
    0
 49
-12.7
 74
    0
 49
0
 74
    0
 49
-12.7
 74
    0
  0
LTYPE
  5
42
330
5
100
AcDbSymbolTableRecord
100
AcDbLinetypeTableRecord
  2
BORDER
 70
    0
  3
Border __ __ . __ __ . __ __ . __ __ . __ __ .
 72
   65
 73
    6
 40
44.45
 49
12.7
 74
    0
 49
-6.35
 74
    0
 49
12.7
 74
    0
 49
-6.35
 74
    0
 49
0
 74
    0
 49
-6.35
 74
    0
  0
LTYPE
  5
43
330
5
100
AcDbSymbolTableRecord
100
AcDbLinetypeTableRecord
  2
BORDERTINY
 70
    0
  3
Border (.15x) __.__.__.__.__.__.__.__.__.__.__.
 72
   65
 73
    6
 40
6.6675
 49
1.905
 74
    0
 49
-0.9525
 74
    0
 49
1.905
 74
    0
 49
-0.9525
 74
    0
 49
0
 74
    0
 49
-0.9525
 74
    0
  0
LTYPE
  5
44
330
5
100
AcDbSymbolTableRecord
100
AcDbLinetypeTableRecord
  2
BORDER2
 70
    0
  3
Border (.5x) __.__.__.__.__.__.__.__.__.__.__.
 72
   65
 73
    6
 40
22.225
 49
6.35
 74
    0
 49
-3.175
 74
    0
 49
6.35
 74
    0
 49
-3.175
 74
    0
 49
0
 74
    0
 49
-3.175
 74
    0
  0
LTYPE
  5
45
330
5
100
AcDbSymbolTableRecord
100
AcDbLinetypeTableRecord
  2
BORDERX2
 70
    0
  3
Border (2x) ____  ____  .  ____  ____  .  ___
 72
   65
 73
    6
 40
88.89999999999999
 49
25.4
 74
    0
 49
-12.7
 74
    0
 49
25.4
 74
    0
 49
-12.7
 74
    0
 49
0
 74
    0
 49
-12.7
 74
    0
  0
LTYPE
  5
46
330
5
100
AcDbSymbolTableRecord
100
AcDbLinetypeTableRecord
  2
CENTER
 70
    0
  3
Center ____ _ ____ _ ____ _ ____ _ ____ _ ____
 72
   65
 73
    4
 40
50.8
 49
31.75
 74
    0
 49
-6.35
 74
    0
 49
6.35
 74
    0
 49
-6.35
 74
    0
  0
LTYPE
  5
47
330
5
100
AcDbSymbolTableRecord
100
AcDbLinetypeTableRecord
  2
CENTERTINY
 70
    0
  3
Center (.15x) ___ _ ___ _ ___ _ ___ _ ___ _ ___
 72
   65
 73
    4
 40
7.619999999999999
 49
4.7625
 74
    0
 49
-0.9525
 74
    0
 49
0.9525
 74
    0
 49
-0.9525
 74
    0
  0
LTYPE
  5
48
330
5
100
AcDbSymbolTableRecord
100
AcDbLinetypeTableRecord
  2
CENTER2
 70
    0
  3
Center (.5x) ___ _ ___ _ ___ _ ___ _ ___ _ ___
 72
   65
 73
    4
 40
28.575
 49
19.05
 74
    0
 49
-3.175
 74
    0
 49
3.175
 74
    0
 49
-3.175
 74
    0
  0
LTYPE
  5
49
330
5
100
AcDbSymbolTableRecord
100
AcDbLinetypeTableRecord
  2
CENTERX2
 70
    0
  3
Center (2x) ________  __  ________  __  _____
 72
   65
 73
    4
 40
101.6
 49
63.5
 74
    0
 49
-12.7
 74
    0
 49
12.7
 74
    0
 49
-12.7
 74
    0
  0
ENDTAB
  0
TABLE
  2
LAYER
  5
2
330
0
100
AcDbSymbolTable
 70
    1
  0
LAYER
  5
10
330
2
100
AcDbSymbolTableRecord
100
AcDbLayerTableRecord
  2
0
 70
    4
 62
   19
420
1973790
  6
CONTINUOUS
370
    0
390
F
  0
LAYER
  5
4A
330
2
100
AcDbSymbolTableRecord
100
AcDbLayerTableRecord
  2
ajour
 70
    4
 62
   98
420
17152
  6
CONTINUOUS
370
    0
390
F
  0
LAYER
  5
4B
330
2
100
AcDbSymbolTableRecord
100
AcDbLayerTableRecord
  2
decoup-pi
 70
    4
 62
    8
420
7697781
  6
CONTINUOUS
370
    0
390
F
  0
LAYER
  5
4C
330
2
100
AcDbSymbolTableRecord
100
AcDbLayerTableRecord
  2
edge
 70
    4
 62
    2
  6
CONTINUOUS
370
    0
390
F
  0
LAYER
  5
4D
330
2
100
AcDbSymbolTableRecord
100
AcDbLayerTableRecord
  2
ext1
 70
    4
 62
  171
420
7630847
  6
CONTINUOUS
370
    0
390
F
  0
LAYER
  5
4E
330
2
100
AcDbSymbolTableRecord
100
AcDbLayerTableRecord
  2
ext2
 70
    4
 62
  160
420
3692287
  6
CONTINUOUS
370
    0
390
F
  0
LAYER
  5
4F
330
2
100
AcDbSymbolTableRecord
100
AcDbLayerTableRecord
  2
ext3
 70
    4
 62
  151
420
12370175
  6
CONTINUOUS
370
    0
390
F
  0
LAYER
  5
50
330
2
100
AcDbSymbolTableRecord
100
AcDbLayerTableRecord
  2
int
 70
    4
 62
    4
  6
CONTINUOUS
370
    0
390
F
  0
LAYER
  5
51
330
2
100
AcDbSymbolTableRecord
100
AcDbLayerTableRecord
  2
noname
 70
    4
 62
   21
420
16748688
  6
CONTINUOUS
370
    0
390
F
1001
LibreCad
1070
    1
  0
LAYER
  5
52
330
2
100
AcDbSymbolTableRecord
100
AcDbLayerTableRecord
  2
percage
 70
    4
 62
  136
420
32896
  6
CONTINUOUS
370
    0
390
F
  0
LAYER
  5
53
330
2
100
AcDbSymbolTableRecord
100
AcDbLayerTableRecord
  2
rpi1
 70
    4
 62
    3
  6
CONTINUOUS
370
    0
390
F
  0
LAYER
  5
54
330
2
100
AcDbSymbolTableRecord
100
AcDbLayerTableRecord
  2
sw
 70
    0
 62
    9
  6
CONTINUOUS
370
    0
390
F
  0
ENDTAB
  0
TABLE
  2
STYLE
  5
3
330
0
100
AcDbSymbolTable
 70
    3
  0
STYLE
  5
55
330
2
100
AcDbSymbolTableRecord
100
AcDbTextStyleTableRecord
  2
Standard
 70
    0
 40
0
 41
1
 50
0
 71
    0
 42
1
  3
txt
  4

  0
ENDTAB
  0
TABLE
  2
VIEW
  5
6
330
0
100
AcDbSymbolTable
 70
    0
  0
ENDTAB
  0
TABLE
  2
UCS
  5
7
330
0
100
AcDbSymbolTable
 70
    0
  0
ENDTAB
  0
TABLE
  2
APPID
  5
9
330
0
100
AcDbSymbolTable
 70
    1
  0
APPID
  5
12
330
9
100
AcDbSymbolTableRecord
100
AcDbRegAppTableRecord
  2
ACAD
 70
    0
  0
APPID
  5
56
330
9
100
AcDbSymbolTableRecord
100
AcDbRegAppTableRecord
  2
LibreCad
 70
    0
  0
ENDTAB
  0
TABLE
  2
DIMSTYLE
  5
A
330
0
100
AcDbSymbolTable
 70
    1
100
AcDbDimStyleTable
 71
    1
  0
DIMSTYLE
105
57
330
A
100
AcDbSymbolTableRecord
100
AcDbDimStyleTableRecord
  2
Standard
 70
    0
 40
1
 41
2.5
 42
0.625
 43
0.38
 44
1.25
 45
0
 46
0
 47
0
 48
0
 49
1
140
2.5
141
0.09
142
2.5
143
25.4
144
1
145
0
146
1
147
0.625
148
0
 71
    0
 72
    0
 73
    0
 74
    1
 75
    0
 76
    0
 77
    0
 78
    1
 79
    0
170
    0
171
    2
172
    0
173
    0
174
    0
175
    0
176
    0
177
    0
178
    0
179
    0
271
    2
272
    4
273
    2
274
    2
275
    0
276
    0
277
    2
278
    0
279
    0
280
    0
281
    0
282
    0
283
    1
284
    0
285
    0
286
    0
288
    0
289
    3
340
standard
341

371
   -2
372
   -2
  0
ENDTAB
  0
TABLE
  2
BLOCK_RECORD
  5
1
330
0
100
AcDbSymbolTable
 70
    2
  0
BLOCK_RECORD
  5
1F
330
1
100
AcDbSymbolTableRecord
100
AcDbBlockTableRecord
  2
*Model_Space
 70
    0
280
    1
281
    0
  0
BLOCK_RECORD
  5
1E
330
1
100
AcDbSymbolTableRecord
100
AcDbBlockTableRecord
  2
*Paper_Space
 70
    0
280
    1
281
    0
  0
ENDTAB
  0
ENDSEC
  0
SECTION
  2
BLOCKS
  0
BLOCK
  5
20
330
1F
100
AcDbEntity
  8
0
100
AcDbBlockBegin
  2
*Model_Space
 70
    0
 10
0
 20
0
 30
0
  3
*Model_Space
  1

  0
ENDBLK
  5
21
330
1F
100
AcDbEntity
  8
0
100
AcDbBlockEnd
  0
BLOCK
  5
1C
330
1B
100
AcDbEntity
  8
0
100
AcDbBlockBegin
  2
*Paper_Space
 70
    0
 10
0
 20
0
 30
0
  3
*Paper_Space
  1

  0
ENDBLK
  5
1D
330
1F
100
AcDbEntity
  8
0
100
AcDbBlockEnd
  0
ENDSEC
  0
SECTION
  2
ENTITIES
  0
LWPOLYLINE
  5
58
100
AcDbEntity
  8
0
  6
ByLayer
 62
  256
370
   -1
100
AcDbPolyline
 90
    4
 70
    1
 43
0
 10
-85.85240428568547
 20
25.09527948691278
 10
-67.03731097959563
 20
22.45099056867154
 10
-64.39302206135439
 20
41.26608387476137
 10
-83.20811536744422
 20
43.91037279300262
  0
LWPOLYLINE
  5
59
100
AcDbEntity
  8
0
  6
ByLayer
 62
  256
370
   -1
100
AcDbPolyline
 90
    4
 70
    1
 43
0
 10
-67.03731097959563
 20
22.45099056867154
 10
-48.2222176735058
 20
19.80670165043029
 10
-45.57792875526455
 20
38.62179495652013
 10
-64.39302206135439
 20
41.26608387476137
  0
LWPOLYLINE
  5
5A
100
AcDbEntity
  8
0
  6
ByLayer
 62
  256
370
   -1
100
AcDbPolyline
 90
    4
 70
    1
 43
0
 10
-48.2222176735058
 20
19.80670165043029
 10
-29.40712436741596
 20
17.16241273218905
 10
-26.76283544917471
 20
35.97750603827888
 10
-45.57792875526455
 20
38.62179495652013
  0
LWPOLYLINE
  5
5B
100
AcDbEntity
  8
0
  6
ByLayer
 62
  256
370
   -1
100
AcDbPolyline
 90
    4
 70
    1
 43
0
 10
-29.40712436741596
 20
17.16241273218905
 10
-10.59203106132613
 20
14.51812381394781
 10
-7.947742143084882
 20
33.33321712003764
 10
-26.76283544917471
 20
35.97750603827888
  0
LWPOLYLINE
  5
5C
100
AcDbEntity
  8
0
  6
ByLayer
 62
  256
370
   -1
100
AcDbPolyline
 90
    4
 70
    1
 43
0
 10
-83.79291987740424
 20
5.619113951262635
 10
-64.97782657131441
 20
2.974825033021391
 10
-62.33353765307317
 20
21.78991833911122
 10
-81.14863095916301
 20
24.43420725735247
  0
LWPOLYLINE
  5
5D
100
AcDbEntity
  8
0
  6
ByLayer
 62
  256
370
   -1
100
AcDbPolyline
 90
    4
 70
    1
 43
0
 10
-77.02966214260057
 20
-14.51812381394782
 10
-58.21456883651074
 20
-17.16241273218907
 10
-55.5702799182695
 20
1.652680573900769
 10
-74.38537322435933
 20
4.296969492142013
  0
LWPOLYLINE
  5
5E
100
AcDbEntity
  8
0
  6
ByLayer
 62
  256
370
   -1
100
AcDbPolyline
 90
    4
 70
    1
 43
0
 10
-64.97782657131441
 20
2.974825033021391
 10
-46.16273326522458
 20
0.3305361147801501
 10
-43.51844434698334
 20
19.14562942086998
 10
-62.33353765307317
 20
21.78991833911122
  0
LWPOLYLINE
  5
5F
100
AcDbEntity
  8
0
  6
ByLayer
 62
  256
370
   -1
100
AcDbPolyline
 90
    4
 70
    1
 43
0
 10
-46.16273326522458
 20
0.3305361147801501
 10
-27.34763995913474
 20
-2.313752803461094
 10
-24.7033510408935
 20
16.50134050262874
 10
-43.51844434698334
 20
19.14562942086998
  0
LWPOLYLINE
  5
60
100
AcDbEntity
  8
0
  6
ByLayer
 62
  256
370
   -1
100
AcDbPolyline
 90
    4
 70
    1
 43
0
 10
-27.34763995913474
 20
-2.313752803461094
 10
-8.532546653044905
 20
-4.958041721702338
 10
-5.888257734803661
 20
13.8570515843875
 10
-24.7033510408935
 20
16.50134050262874
  0
LWPOLYLINE
  5
61
100
AcDbEntity
  8
0
  6
ByLayer
 62
  256
370
   -1
100
AcDbPolyline
 90
    4
 70
    1
 43
0
 10
-39.3994755304209
 20
-19.80670165043031
 10
-20.58438222433107
 20
-22.45099056867155
 10
-17.94009330608982
 20
-3.635897262581716
 10
-36.75518661217966
 20
-0.9916083443404721
  0
LWPOLYLINE
  5
62
100
AcDbEntity
  8
0
  6
ByLayer
 62
  256
370
   -1
100
AcDbPolyline
 90
    4
 70
    1
 43
0
 10
-20.58438222433107
 20
-22.45099056867155
 10
-1.769288918241232
 20
-25.09527948691279
 10
0.875000000000012
 20
-6.280186180822957
 10
-17.94009330608982
 20
-3.635897262581716
  0
LWPOLYLINE
  5
63
100
AcDbEntity
  8
0
  6
ByLayer
 62
  256
370
   -1
100
AcDbPolyline
 90
    4
 70
    1
 43
0
 10
-104.8524042856855
 20
43.91037279300262
 10
-85.85240428568547
 20
43.91037279300262
 10
-85.85240428568547
 20
24.91037279300261
 10
-104.8524042856855
 20
24.91037279300261
  0
LWPOLYLINE
  5
64
100
AcDbEntity
  8
0
  6
ByLayer
 62
  256
370
   -1
100
AcDbPolyline
 90
    4
 70
    1
 43
0
 10
-107.5429198774042
 20
5.196124489527405
 10
-83.79291987740424
 20
5.196124489527405
 10
-83.79291987740424
 20
24.1961244895274
 10
-107.5429198774042
 20
24.1961244895274
  0
LWPOLYLINE
  5
65
100
AcDbEntity
  8
0
  6
ByLayer
 62
  256
370
   -1
100
AcDbPolyline
 90
    4
 70
    1
 43
0
 10
-110.2796621426006
 20
-14.51812381394781
 10
-77.02966214260057
 20
-14.51812381394781
 10
-77.02966214260057
 20
4.481876186052185
 10
-110.2796621426006
 20
4.481876186052185
  0
LWPOLYLINE
  5
66
100
AcDbEntity
  8
0
  6
ByLayer
 62
  256
370
   -1
100
AcDbPolyline
 90
    4
 70
    1
 43
0
 10
-107.5429198774042
 20
-14.51812381394781
 10
-83.79291987740424
 20
-14.51812381394781
 10
-83.79291987740424
 20
-33.51812381394781
 10
-107.5429198774042
 20
-33.51812381394781
  0
LINE
  5
67
100
AcDbEntity
  8
0
  6
ByLayer
 62
  256
370
   -1
100
AcDbLine
 10
-6.473062244763684
 20
-24.43420725735248
 11
-9.117351163004928
 21
-43.2493005634423
  0
LINE
  5
68
100
AcDbEntity
  8
0
  6
ByLayer
 62
  256
370
   -1
100
AcDbLine
 10
-42.04376444866216
 20
-38.62179495652015
 11
-39.3994755304209
 21
-19.80670165043031
  0
LINE
  5
69
100
AcDbEntity
  8
0
  6
ByLayer
 62
  256
370
   -1
100
AcDbLine
 10
-70.26640440779691
 20
-34.65536157915826
 11
-67.62211548955565
 21
-15.84026827306842
  0
LINE
  5
6A
100
AcDbEntity
  8
0
  6
ByLayer
 62
  256
370
   -1
100
AcDbLine
 10
-70.26640440779691
 20
-34.65536157915826
 11
-9.117351163004928
 21
-43.2493005634423
  0
LWPOLYLINE
  5
6B
100
AcDbEntity
  8
0
  6
ByLayer
 62
  256
370
   -1
100
AcDbPolyline
 90
    4
 70
    1
 43
0
 10
-58.21456883651074
 20
-17.16241273218907
 10
-39.3994755304209
 20
-19.80670165043031
 10
-36.75518661217966
 20
-0.9916083443404756
 10
-55.5702799182695
 20
1.652680573900769
  0
LWPOLYLINE
  5
6C
100
AcDbEntity
  8
0
  6
ByLayer
 62
  256
370
   -1
100
AcDbPolyline
 90
    4
 70
    1
 43
0
 10
88.54291987740432
 20
5.619113951262657
 10
69.72782657131448
 20
2.974825033021384
 10
67.08353765307324
 20
21.78991833911123
 10
85.89863095916307
 20
24.43420725735247
  0
LWPOLYLINE
  5
6D
100
AcDbEntity
  8
0
  6
ByLayer
 62
  256
370
   -1
100
AcDbPolyline
 90
    4
 70
    1
 43
0
 10
81.77966214260063
 20
-14.51812381394781
 10
62.96456883651079
 20
-17.16241273218905
 10
60.32027991826955
 20
1.652680573900776
 10
79.13537322435938
 20
4.29696949214202
  0
LWPOLYLINE
  5
6E
100
AcDbEntity
  8
0
  6
ByLayer
 62
  256
370
   -1
100
AcDbPolyline
 90
    4
 70
    1
 43
0
 10
69.72782657131448
 20
2.974825033021384
 10
50.91273326522465
 20
0.3305361147801643
 10
48.2684443469834
 20
19.14562942086998
 10
67.08353765307324
 20
21.78991833911123
  0
LWPOLYLINE
  5
6F
100
AcDbEntity
  8
0
  6
ByLayer
 62
  256
370
   -1
100
AcDbPolyline
 90
    4
 70
    1
 43
0
 10
50.91273326522465
 20
0.3305361147801643
 10
32.0976399591348
 20
-2.313752803461108
 10
29.45335104089355
 20
16.50134050262874
 10
48.2684443469834
 20
19.14562942086998
  0
LWPOLYLINE
  5
70
100
AcDbEntity
  8
0
  6
ByLayer
 62
  256
370
   -1
100
AcDbPolyline
 90
    4
 70
    1
 43
0
 10
32.0976399591348
 20
-2.313752803461108
 10
13.28254665304496
 20
-4.958041721702324
 10
10.63825773480371
 20
13.8570515843875
 10
29.45335104089355
 20
16.50134050262874
  0
LWPOLYLINE
  5
71
100
AcDbEntity
  8
0
  6
ByLayer
 62
  256
370
   -1
100
AcDbPolyline
 90
    4
 70
    1
 43
0
 10
62.96456883651079
 20
-17.16241273218905
 10
44.14947553042096
 20
-19.8067016504303
 10
41.50518661217971
 20
-0.9916083443404721
 10
60.32027991826955
 20
1.652680573900776
  0
LWPOLYLINE
  5
72
100
AcDbEntity
  8
0
  6
ByLayer
 62
  256
370
   -1
100
AcDbPolyline
 90
    4
 70
    1
 43
0
 10
44.14947553042096
 20
-19.8067016504303
 10
25.33438222433112
 20
-22.45099056867155
 10
22.69009330608987
 20
-3.635897262581702
 10
41.50518661217971
 20
-0.9916083443404721
  0
LWPOLYLINE
  5
73
100
AcDbEntity
  8
0
  6
ByLayer
 62
  256
370
   -1
100
AcDbPolyline
 90
    4
 70
    1
 43
0
 10
25.33438222433112
 20
-22.45099056867155
 10
6.519288918241285
 20
-25.09527948691279
 10
3.87500000000004
 20
-6.280186180822964
 10
22.69009330608987
 20
-3.635897262581702
  0
LWPOLYLINE
  5
74
100
AcDbEntity
  8
0
  6
ByLayer
 62
  256
370
   -1
100
AcDbPolyline
 90
    4
 70
    1
 43
0
 10
24.74957771437108
 20
15.84026827306844
 10
5.934484408281248
 20
13.19597935482722
 10
3.290195490040003
 20
32.01107266091704
 10
22.10528879612984
 20
34.65536157915829
  0
LWPOLYLINE
  5
75
100
AcDbEntity
  8
0
  6
ByLayer
 62
  256
370
   -1
100
AcDbPolyline
 90
    4
 70
    1
 43
0
 10
43.56467102046092
 20
18.48455719130968
 10
24.74957771437107
 20
15.84026827306846
 10
22.10528879612982
 20
34.65536157915828
 10
40.92038210221965
 20
37.29965049739953
  0
LWPOLYLINE
  5
76
100
AcDbEntity
  8
0
  6
ByLayer
 62
  256
370
   -1
100
AcDbPolyline
 90
    4
 70
    1
 43
0
 10
62.37976432655073
 20
21.12884610955092
 10
43.56467102046089
 20
18.4845571913097
 10
40.92038210221965
 20
37.29965049739953
 10
59.73547540830948
 20
39.94393941564077
  0
LWPOLYLINE
  5
77
100
AcDbEntity
  8
0
  6
ByLayer
 62
  256
370
   -1
100
AcDbPolyline
 90
    4
 70
    1
 43
0
 10
81.19485763264056
 20
23.77313502779216
 10
62.37976432655073
 20
21.12884610955095
 10
59.73547540830948
 20
39.94393941564077
 10
78.55056871439932
 20
42.58822833388201
  0
LWPOLYLINE
  5
78
100
AcDbEntity
  8
0
  6
ByLayer
 62
  256
370
   -1
100
AcDbPolyline
 90
    4
 70
    1
 43
0
 10
81.77966214260066
 20
-14.51812381394781
 10
110.2796621426006
 20
-14.51812381394781
 10
110.2796621426006
 20
4.481876186052192
 10
81.77966214260066
 20
4.481876186052192
  0
LWPOLYLINE
  5
79
100
AcDbEntity
  8
0
  6
ByLayer
 62
  256
370
   -1
100
AcDbPolyline
 90
    4
 70
    1
 43
0
 10
88.54291987740437
 20
4.958041721702331
 10
107.5429198774043
 20
4.958041721702331
 10
107.5429198774043
 20
23.95804172170232
 10
88.54291987740437
 20
23.95804172170232
  0
LWPOLYLINE
  5
7A
100
AcDbEntity
  8
0
  6
ByLayer
 62
  256
370
   -1
100
AcDbPolyline
 90
    4
 70
    1
 43
0
 10
81.10194998969961
 20
24.43420725735247
 10
104.8519499896996
 20
24.43420725735247
 10
104.8519499896996
 20
43.43420725735246
 10
81.10194998969961
 20
43.43420725735246
  0
LWPOLYLINE
  5
7B
100
AcDbEntity
  8
0
  6
ByLayer
 62
  256
370
   -1
100
AcDbPolyline
 90
    4
 70
    1
 43
0
 10
84.15466214260063
 20
-33.51812381394781
 10
107.9046621426007
 20
-33.51812381394781
 10
107.9046621426007
 20
-14.51812381394781
 10
84.15466214260063
 20
-14.51812381394781
  0
LINE
  5
7C
100
AcDbEntity
  8
0
  6
ByLayer
 62
  256
370
   -1
100
AcDbLine
 10
6.519288918241285
 20
-25.09527948691279
 11
9.16357783648253
 21
-43.91037279300262
  0
LINE
  5
7D
100
AcDbEntity
  8
0
  6
ByLayer
 62
  256
370
   -1
100
AcDbLine
 10
9.16357783648253
 20
-43.91037279300262
 11
46.79376444866226
 21
-38.62179495652013
  0
LINE
  5
7E
100
AcDbEntity
  8
0
  6
ByLayer
 62
  256
370
   -1
100
AcDbLine
 10
46.79376444866226
 20
-38.62179495652013
 11
44.14947553042099
 21
-19.8067016504303
  0
LINE
  5
7F
100
AcDbEntity
  8
0
  6
ByLayer
 62
  256
370
   -1
100
AcDbLine
 10
70.31263108127455
 20
-35.31643380871853
 11
67.66834216303327
 21
-16.5013405026287
  0
LINE
  5
80
100
AcDbEntity
  8
0
  6
ByLayer
 62
  256
370
   -1
100
AcDbLine
 10
46.79376444866226
 20
-38.62179495652013
 11
70.31263108127455
 21
-35.31643380871853
  0
LINE
  5
81
100
AcDbEntity
  8
sw
  6
ByLayer
 62
  256
370
   -1
100
AcDbLine
 10
8.06222182773501
 20
16.01958227908131
 11
6.113798414294094
 21
29.88333524146328
  0
LINE
  5
82
100
AcDbEntity
  8
sw
  6
ByLayer
 62
  256
370
   -1
100
AcDbLine
 10
21.92597479011699
 20
17.9680056925222
 11
8.06222182773501
 21
16.01958227908131
  0
LINE
  5
83
100
AcDbEntity
  8
sw
  6
ByLayer
 62
  256
370
   -1
100
AcDbLine
 10
6.113798414294094
 20
29.88333524146328
 11
19.97755137667606
 21
31.83175865490419
  0
LINE
  5
84
100
AcDbEntity
  8
sw
  6
ByLayer
 62
  256
370
   -1
100
AcDbLine
 10
21.92597479011699
 20
17.9680056925222
 11
19.97755137667606
 21
31.83175865490419
  0
LINE
  5
85
100
AcDbEntity
  8
sw
  6
ByLayer
 62
  256
370
   -1
100
AcDbLine
 10
26.87731513382483
 20
18.66387119732254
 11
24.92889172038391
 21
32.52762415970452
  0
LINE
  5
86
100
AcDbEntity
  8
sw
  6
ByLayer
 62
  256
370
   -1
100
AcDbLine
 10
40.7410680962068
 20
20.61229461076343
 11
26.87731513382483
 21
18.66387119732254
  0
LINE
  5
87
100
AcDbEntity
  8
sw
  6
ByLayer
 62
  256
370
   -1
100
AcDbLine
 10
24.92889172038391
 20
32.52762415970452
 11
38.79264468276588
 21
34.47604757314543
  0
LINE
  5
88
100
AcDbEntity
  8
sw
  6
ByLayer
 62
  256
370
   -1
100
AcDbLine
 10
40.7410680962068
 20
20.61229461076343
 11
38.79264468276588
 21
34.47604757314543
  0
LINE
  5
89
100
AcDbEntity
  8
sw
  6
ByLayer
 62
  256
370
   -1
100
AcDbLine
 10
45.69240843991466
 20
21.30816011556379
 11
43.74398502647374
 21
35.17191307794576
  0
LINE
  5
8A
100
AcDbEntity
  8
sw
  6
ByLayer
 62
  256
370
   -1
100
AcDbLine
 10
59.55616140229663
 20
23.25658352900468
 11
45.69240843991466
 21
21.30816011556379
  0
LINE
  5
8B
100
AcDbEntity
  8
sw
  6
ByLayer
 62
  256
370
   -1
100
AcDbLine
 10
43.74398502647374
 20
35.17191307794576
 11
57.60773798885571
 21
37.12033649138667
  0
LINE
  5
8C
100
AcDbEntity
  8
sw
  6
ByLayer
 62
  256
370
   -1
100
AcDbLine
 10
59.55616140229663
 20
23.25658352900468
 11
57.60773798885571
 21
37.12033649138667
  0
LINE
  5
8D
100
AcDbEntity
  8
sw
  6
ByLayer
 62
  256
370
   -1
100
AcDbLine
 10
-12.71976848077989
 20
17.3417267382019
 11
-10.77134506733897
 21
31.20547970058388
  0
LINE
  5
8E
100
AcDbEntity
  8
sw
  6
ByLayer
 62
  256
370
   -1
100
AcDbLine
 10
-10.77134506733897
 20
31.20547970058388
 11
-24.63509802972095
 21
33.15390311402479
  0
LINE
  5
8F
100
AcDbEntity
  8
sw
  6
ByLayer
 62
  256
370
   -1
100
AcDbLine
 10
-26.58352144316187
 20
19.29015015164281
 11
-12.71976848077989
 21
17.3417267382019
  0
LINE
  5
90
100
AcDbEntity
  8
sw
  6
ByLayer
 62
  256
370
   -1
100
AcDbLine
 10
-24.63509802972095
 20
33.15390311402479
 11
-26.58352144316187
 21
19.29015015164281
  0
ARC
  5
91
100
AcDbEntity
  8
edge
  6
ByLayer
 62
  256
370
   -1
100
AcDbCircle
 10
-105.5
 20
40
 40
5
100
AcDbArc
 50
90
 51
180
  0
LINE
  5
92
100
AcDbEntity
  8
edge
  6
ByLayer
 62
  256
370
   -1
100
AcDbLine
 10
105.5
 20
45
 11
-105.5
 21
45
  0
ARC
  5
93
100
AcDbEntity
  8
edge
  6
ByLayer
 62
  256
370
   -1
100
AcDbCircle
 10
105.5
 20
40
 40
5
100
AcDbArc
 50
359.9999999999999
 51
89.99999999999983
  0
LINE
  5
94
100
AcDbEntity
  8
edge
  6
ByLayer
 62
  256
370
   -1
100
AcDbLine
 10
110.5
 20
39.99999999999999
 11
110.5
 21
-40.00000000000001
  0
ARC
  5
95
100
AcDbEntity
  8
edge
  6
ByLayer
 62
  256
370
   -1
100
AcDbCircle
 10
105.5
 20
-40
 40
5
100
AcDbArc
 50
270
 51
359.9999999999999
  0
LINE
  5
96
100
AcDbEntity
  8
edge
  6
ByLayer
 62
  256
370
   -1
100
AcDbLine
 10
105.5
 20
-45
 11
-105.5
 21
-45
  0
LINE
  5
97
100
AcDbEntity
  8
edge
  6
ByLayer
 62
  256
370
   -1
100
AcDbLine
 10
-110.5
 20
-40
 11
-110.5
 21
40
  0
ARC
  5
98
100
AcDbEntity
  8
edge
  6
ByLayer
 62
  256
370
   -1
100
AcDbCircle
 10
-105.5
 20
-40
 40
5
100
AcDbArc
 50
180
 51
270
  0
CIRCLE
  5
99
100
AcDbEntity
  8
percage
  6
ByLayer
 62
  256
370
   -1
100
AcDbCircle
 10
105.5
 20
40
 40
1.5
  0
CIRCLE
  5
9A
100
AcDbEntity
  8
percage
  6
ByLayer
 62
  256
370
   -1
100
AcDbCircle
 10
105.5
 20
-40
 40
1.5
  0
CIRCLE
  5
9B
100
AcDbEntity
  8
percage
  6
ByLayer
 62
  256
370
   -1
100
AcDbCircle
 10
-105.5
 20
-40
 40
1.5
  0
CIRCLE
  5
9C
100
AcDbEntity
  8
percage
  6
ByLayer
 62
  256
370
   -1
100
AcDbCircle
 10
-105.5
 20
40
 40
1.5
  0
CIRCLE
  5
9D
100
AcDbEntity
  8
percage
  6
ByLayer
 62
  256
370
   -1
100
AcDbCircle
 10
2.375000000000026
 20
-25.09527948691279
 40
1.5
  0
LINE
  5
9E
100
AcDbEntity
  8
sw
  6
ByLayer
 62
  256
370
   -1
100
AcDbLine
 10
18.7504384955403
 20
-25.90087244724594
 11
20.69886190898121
 21
-39.7646254096279
  0
LINE
  5
9F
100
AcDbEntity
  8
sw
  6
ByLayer
 62
  256
370
   -1
100
AcDbLine
 10
20.69886190898121
 20
-39.7646254096279
 11
34.56261487136325
 21
-37.81620199618698
  0
LINE
  5
A0
100
AcDbEntity
  8
sw
  6
ByLayer
 62
  256
370
   -1
100
AcDbLine
 10
32.61419145792232
 20
-23.95244903380501
 11
18.7504384955403
 21
-25.90087244724594
  0
LINE
  5
A1
100
AcDbEntity
  8
sw
  6
ByLayer
 62
  256
370
   -1
100
AcDbLine
 10
34.56261487136325
 20
-37.81620199618698
 11
32.61419145792232
 21
-23.95244903380501
  0
LINE
  5
A2
100
AcDbEntity
  8
sw
  6
ByLayer
 62
  256
370
   -1
100
AcDbLine
 10
65.13714149375922
 20
-33.51923250404493
 11
63.18871808031829
 21
-19.65547954166298
  0
LINE
  5
A3
100
AcDbEntity
  8
sw
  6
ByLayer
 62
  256
370
   -1
100
AcDbLine
 10
51.27338853137724
 20
-35.46765591748588
 11
65.13714149375922
 21
-33.51923250404493
  0
LINE
  5
A4
100
AcDbEntity
  8
sw
  6
ByLayer
 62
  256
370
   -1
100
AcDbLine
 10
63.18871808031829
 20
-19.65547954166298
 11
49.32496511793632
 21
-21.6039029551039
  0
LINE
  5
A5
100
AcDbEntity
  8
sw
  6
ByLayer
 62
  256
370
   -1
100
AcDbLine
 10
51.27338853137724
 20
-35.46765591748588
 11
49.32496511793632
 21
-21.6039029551039
  0
LINE
  5
A6
100
AcDbEntity
  8
sw
  6
ByLayer
 62
  256
370
   -1
100
AcDbLine
 10
-16.35232515880147
 20
-25.57033633246578
 11
-18.30074857224238
 21
-39.43408929484774
  0
LINE
  5
A7
100
AcDbEntity
  8
sw
  6
ByLayer
 62
  256
370
   -1
100
AcDbLine
 10
-32.16450153462438
 20
-37.48566588140682
 11
-18.30074857224238
 21
-39.43408929484774
  0
LINE
  5
A8
100
AcDbEntity
  8
sw
  6
ByLayer
 62
  256
370
   -1
100
AcDbLine
 10
-30.21607812118345
 20
-23.62191291902487
 11
-16.35232515880147
 21
-25.57033633246578
  0
LINE
  5
A9
100
AcDbEntity
  8
sw
  6
ByLayer
 62
  256
370
   -1
100
AcDbLine
 10
-32.16450153462438
 20
-37.48566588140682
 11
-30.21607812118345
 21
-23.62191291902487
  0
LINE
  5
AA
100
AcDbEntity
  8
sw
  6
ByLayer
 62
  256
370
   -1
100
AcDbLine
 10
-62.73902815702036
 20
-33.18869638926481
 11
-48.87527519463838
 21
-35.13711980270572
  0
LINE
  5
AB
100
AcDbEntity
  8
sw
  6
ByLayer
 62
  256
370
   -1
100
AcDbLine
 10
-62.73902815702036
 20
-33.18869638926481
 11
-60.79060474357943
 21
-19.32494342688285
  0
LINE
  5
AC
100
AcDbEntity
  8
sw
  6
ByLayer
 62
  256
370
   -1
100
AcDbLine
 10
-48.87527519463838
 20
-35.13711980270572
 11
-46.92685178119745
 21
-21.27336684032376
  0
LINE
  5
AD
100
AcDbEntity
  8
sw
  6
ByLayer
 62
  256
370
   -1
100
AcDbLine
 10
-60.79060474357943
 20
-19.32494342688285
 11
-46.92685178119745
 21
-21.27336684032376
  0
LINE
  5
AE
100
AcDbEntity
  8
sw
  6
ByLayer
 62
  256
370
   -1
100
AcDbLine
 10
-102.6679198774042
 20
-31.01812381394781
 11
-102.6679198774042
 21
-17.01812381394781
  0
LINE
  5
AF
100
AcDbEntity
  8
sw
  6
ByLayer
 62
  256
370
   -1
100
AcDbLine
 10
-88.66791987740424
 20
-31.01812381394781
 11
-102.6679198774042
 21
-31.01812381394781
  0
LINE
  5
B0
100
AcDbEntity
  8
sw
  6
ByLayer
 62
  256
370
   -1
100
AcDbLine
 10
-102.6679198774042
 20
-17.01812381394781
 11
-88.66791987740424
 21
-17.01812381394781
  0
LINE
  5
B1
100
AcDbEntity
  8
sw
  6
ByLayer
 62
  256
370
   -1
100
AcDbLine
 10
-88.66791987740424
 20
-17.01812381394781
 11
-88.66791987740424
 21
-31.01812381394781
  0
LINE
  5
B2
100
AcDbEntity
  8
sw
  6
ByLayer
 62
  256
370
   -1
100
AcDbLine
 10
-100.6546621426006
 20
1.981876186052185
 11
-100.6546621426006
 21
-12.01812381394781
  0
LINE
  5
B3
100
AcDbEntity
  8
sw
  6
ByLayer
 62
  256
370
   -1
100
AcDbLine
 10
-86.65466214260057
 20
1.981876186052185
 11
-100.6546621426006
 21
1.981876186052185
  0
LINE
  5
B4
100
AcDbEntity
  8
sw
  6
ByLayer
 62
  256
370
   -1
100
AcDbLine
 10
-100.6546621426006
 20
-12.01812381394781
 11
-86.65466214260057
 21
-12.01812381394781
  0
LINE
  5
B5
100
AcDbEntity
  8
sw
  6
ByLayer
 62
  256
370
   -1
100
AcDbLine
 10
-86.65466214260057
 20
-12.01812381394781
 11
-86.65466214260057
 21
1.981876186052185
  0
LINE
  5
B6
100
AcDbEntity
  8
sw
  6
ByLayer
 62
  256
370
   -1
100
AcDbLine
 10
-88.66791987740424
 20
7.696124489527404
 11
-88.66791987740424
 21
21.6961244895274
  0
LINE
  5
B7
100
AcDbEntity
  8
sw
  6
ByLayer
 62
  256
370
   -1
100
AcDbLine
 10
-102.6679198774042
 20
7.696124489527405
 11
-88.66791987740424
 21
7.696124489527404
  0
LINE
  5
B8
100
AcDbEntity
  8
sw
  6
ByLayer
 62
  256
370
   -1
100
AcDbLine
 10
-88.66791987740424
 20
21.6961244895274
 11
-102.6679198774042
 21
21.6961244895274
  0
LINE
  5
B9
100
AcDbEntity
  8
sw
  6
ByLayer
 62
  256
370
   -1
100
AcDbLine
 10
-102.6679198774042
 20
21.6961244895274
 11
-102.6679198774042
 21
7.696124489527405
  0
LINE
  5
BA
100
AcDbEntity
  8
sw
  6
ByLayer
 62
  256
370
   -1
100
AcDbLine
 10
-88.35240428568547
 20
41.41037279300262
 11
-88.35240428568547
 21
27.41037279300261
  0
LINE
  5
BB
100
AcDbEntity
  8
sw
  6
ByLayer
 62
  256
370
   -1
100
AcDbLine
 10
-88.35240428568547
 20
27.41037279300261
 11
-102.3524042856855
 21
27.41037279300261
  0
LINE
  5
BC
100
AcDbEntity
  8
sw
  6
ByLayer
 62
  256
370
   -1
100
AcDbLine
 10
-102.3524042856855
 20
41.41037279300262
 11
-88.35240428568547
 21
41.41037279300262
  0
LINE
  5
BD
100
AcDbEntity
  8
sw
  6
ByLayer
 62
  256
370
   -1
100
AcDbLine
 10
-102.3524042856855
 20
27.41037279300261
 11
-102.3524042856855
 21
41.41037279300262
  0
LINE
  5
BE
100
AcDbEntity
  8
sw
  6
ByLayer
 62
  256
370
   -1
100
AcDbLine
 10
85.97694998969961
 20
40.93420725735246
 11
85.97694998969961
 21
26.93420725735247
  0
LINE
  5
BF
100
AcDbEntity
  8
sw
  6
ByLayer
 62
  256
370
   -1
100
AcDbLine
 10
85.97694998969961
 20
26.93420725735247
 11
99.97694998969961
 21
26.93420725735247
  0
LINE
  5
C0
100
AcDbEntity
  8
sw
  6
ByLayer
 62
  256
370
   -1
100
AcDbLine
 10
99.97694998969961
 20
40.93420725735246
 11
85.97694998969961
 21
40.93420725735246
  0
LINE
  5
C1
100
AcDbEntity
  8
sw
  6
ByLayer
 62
  256
370
   -1
100
AcDbLine
 10
99.97694998969961
 20
26.93420725735247
 11
99.97694998969961
 21
40.93420725735246
  0
LINE
  5
C2
100
AcDbEntity
  8
sw
  6
ByLayer
 62
  256
370
   -1
100
AcDbLine
 10
91.04291987740437
 20
21.45804172170232
 11
91.04291987740437
 21
7.458041721702331
  0
LINE
  5
C3
100
AcDbEntity
  8
sw
  6
ByLayer
 62
  256
370
   -1
100
AcDbLine
 10
91.04291987740437
 20
7.458041721702331
 11
105.0429198774043
 21
7.458041721702331
  0
LINE
  5
C4
100
AcDbEntity
  8
sw
  6
ByLayer
 62
  256
370
   -1
100
AcDbLine
 10
105.0429198774043
 20
21.45804172170232
 11
91.04291987740437
 21
21.45804172170232
  0
LINE
  5
C5
100
AcDbEntity
  8
sw
  6
ByLayer
 62
  256
370
   -1
100
AcDbLine
 10
105.0429198774043
 20
7.458041721702331
 11
105.0429198774043
 21
21.45804172170232
  0
LINE
  5
C6
100
AcDbEntity
  8
sw
  6
ByLayer
 62
  256
370
   -1
100
AcDbLine
 10
89.02966214260066
 20
1.981876186052192
 11
89.02966214260066
 21
-12.01812381394781
  0
LINE
  5
C7
100
AcDbEntity
  8
sw
  6
ByLayer
 62
  256
370
   -1
100
AcDbLine
 10
103.0296621426006
 20
-12.01812381394781
 11
89.02966214260066
 21
-12.01812381394781
  0
LINE
  5
C8
100
AcDbEntity
  8
sw
  6
ByLayer
 62
  256
370
   -1
100
AcDbLine
 10
103.0296621426006
 20
1.981876186052192
 11
89.02966214260066
 21
1.981876186052192
  0
LINE
  5
C9
100
AcDbEntity
  8
sw
  6
ByLayer
 62
  256
370
   -1
100
AcDbLine
 10
103.0296621426006
 20
-12.01812381394781
 11
103.0296621426006
 21
1.981876186052192
  0
LINE
  5
CA
100
AcDbEntity
  8
sw
  6
ByLayer
 62
  256
370
   -1
100
AcDbLine
 10
89.02966214260063
 20
-17.01812381394781
 11
89.02966214260063
 21
-31.01812381394781
  0
LINE
  5
CB
100
AcDbEntity
  8
sw
  6
ByLayer
 62
  256
370
   -1
100
AcDbLine
 10
89.02966214260063
 20
-31.01812381394781
 11
103.0296621426007
 21
-31.01812381394781
  0
LINE
  5
CC
100
AcDbEntity
  8
sw
  6
ByLayer
 62
  256
370
   -1
100
AcDbLine
 10
103.0296621426007
 20
-17.01812381394781
 11
89.02966214260063
 21
-17.01812381394781
  0
LINE
  5
CD
100
AcDbEntity
  8
sw
  6
ByLayer
 62
  256
370
   -1
100
AcDbLine
 10
103.0296621426007
 20
-31.01812381394781
 11
103.0296621426007
 21
-17.01812381394781
  0
ARC
  5
CE
100
AcDbEntity
  8
int
  6
ByLayer
 62
  256
370
   -1
100
AcDbCircle
 10
97.23864417907116
 20
38.00000000000001
 40
5
100
AcDbArc
 50
13.60896063078336
 51
90
  0
LINE
  5
CF
100
AcDbEntity
  8
int
  6
ByLayer
 62
  256
370
   -1
100
AcDbLine
 10
108.5
 20
31.73864417907096
 11
108.5
 21
-31.73864417907097
  0
ARC
  5
D0
100
AcDbEntity
  8
int
  6
ByLayer
 62
  256
370
   -1
100
AcDbCircle
 10
103.5
 20
-31.73864417907098
 40
5
100
AcDbArc
 50
283.608960630783
 51
7.63333123551244e-14
  0
ARC
  5
D1
100
AcDbEntity
  8
int
  6
ByLayer
 62
  256
370
   -1
100
AcDbCircle
 10
-103.5
 20
31.73864417907078
 40
5
100
AcDbArc
 50
103.6089606307829
 51
180.0000000000001
  0
ARC
  5
D2
100
AcDbEntity
  8
int
  6
ByLayer
 62
  256
370
   -1
100
AcDbCircle
 10
-97.23864417907063
 20
-38
 40
5
100
AcDbArc
 50
193.6089606307825
 51
270.0000000000002
  0
ARC
  5
D3
100
AcDbEntity
  8
int
  6
ByLayer
 62
  256
370
   -1
100
AcDbCircle
 10
105.5
 20
40
 40
3.5
100
AcDbArc
 50
193.6089606307833
 51
256.3910283243228
  0
ARC
  5
D4
100
AcDbEntity
  8
int
  6
ByLayer
 62
  256
370
   -1
100
AcDbCircle
 10
2.375000000000041
 20
-21.5026312197489
 40
5
100
AcDbArc
 50
8.000000000000011
 51
172
  0
LINE
  5
D5
100
AcDbEntity
  8
int
  6
ByLayer
 62
  256
370
   -1
100
AcDbLine
 10
7.326340343707893
 20
-20.80676571494857
 11
10.34397418772646
 21
-42.27834620192013
  0
ARC
  5
D6
100
AcDbEntity
  8
int
  6
ByLayer
 62
  256
370
   -1
100
AcDbCircle
 10
12.3245103252096
 20
-41.99999999999999
 40
2
100
AcDbArc
 50
188.0000000000002
 51
270.0000000000001
  0
LINE
  5
D7
100
AcDbEntity
  8
int
  6
ByLayer
 62
  256
370
   -1
100
AcDbLine
 10
-2.576340343707811
 20
-20.80676571494857
 11
-5.59397418772638
 21
-42.27834620192012
  0
ARC
  5
D8
100
AcDbEntity
  8
int
  6
ByLayer
 62
  256
370
   -1
100
AcDbCircle
 10
-7.574510325209521
 20
-41.99999999999999
 40
2
100
AcDbArc
 50
270
 51
352.0000000000001
  0
ARC
  5
D9
100
AcDbEntity
  8
int
  6
ByLayer
 62
  256
370
   -1
100
AcDbCircle
 10
89.15466214260063
 20
-38
 40
5
100
AcDbArc
 50
180
 51
270
  0
LINE
  5
DA
100
AcDbEntity
  8
int
  6
ByLayer
 62
  256
370
   -1
100
AcDbLine
 10
65.31263108127456
 20
-44
 11
12.3245103252096
 21
-43.99999999999999
  0
ARC
  5
DB
100
AcDbEntity
  8
int
  6
ByLayer
 62
  256
370
   -1
100
AcDbCircle
 10
65.31263108127456
 20
-39
 40
5
100
AcDbArc
 50
270
 51
0
  0
LINE
  5
DC
100
AcDbEntity
  8
int
  6
ByLayer
 62
  256
370
   -1
100
AcDbLine
 10
-88.79291987740423
 20
-43
 11
-97.23864417907062
 21
-43
  0
ARC
  5
DD
100
AcDbEntity
  8
int
  6
ByLayer
 62
  256
370
   -1
100
AcDbCircle
 10
-88.79291987740423
 20
-38
 40
5
100
AcDbArc
 50
270
 51
0
  0
LINE
  5
DE
100
AcDbEntity
  8
int
  6
ByLayer
 62
  256
370
   -1
100
AcDbLine
 10
-7.574510325209521
 20
-43.99999999999999
 11
-65.26640440779691
 21
-44
  0
ARC
  5
DF
100
AcDbEntity
  8
int
  6
ByLayer
 62
  256
370
   -1
100
AcDbCircle
 10
-65.26640440779691
 20
-39
 40
5
100
AcDbArc
 50
180
 51
270
  0
LINE
  5
E0
100
AcDbEntity
  8
int
  6
ByLayer
 62
  256
370
   -1
100
AcDbLine
 10
84.15466214260063
 20
-38
 11
84.15466214260063
 21
-36.51812381394781
  0
ARC
  5
E1
100
AcDbEntity
  8
int
  6
ByLayer
 62
  256
370
   -1
100
AcDbCircle
 10
81.15466214260063
 20
-36.51812381394781
 40
3
100
AcDbArc
 50
0
 51
90
  0
LINE
  5
E2
100
AcDbEntity
  8
int
  6
ByLayer
 62
  256
370
   -1
100
AcDbLine
 10
73.31263108127456
 20
-33.51812381394781
 11
81.15466214260063
 21
-33.51812381394781
  0
LINE
  5
E3
100
AcDbEntity
  8
int
  6
ByLayer
 62
  256
370
   -1
100
AcDbLine
 10
70.31263108127456
 20
-39
 11
70.31263108127456
 21
-36.51812381394781
  0
ARC
  5
E4
100
AcDbEntity
  8
int
  6
ByLayer
 62
  256
370
   -1
100
AcDbCircle
 10
73.31263108127456
 20
-36.51812381394781
 40
3
100
AcDbArc
 50
90
 51
180
  0
LINE
  5
E5
100
AcDbEntity
  8
int
  6
ByLayer
 62
  256
370
   -1
100
AcDbLine
 10
-83.79291987740424
 20
-36.51812381394781
 11
-83.79291987740424
 21
-38
  0
ARC
  5
E6
100
AcDbEntity
  8
int
  6
ByLayer
 62
  256
370
   -1
100
AcDbCircle
 10
-80.79291987740424
 20
-36.51812381394781
 40
3
100
AcDbArc
 50
90
 51
180
  0
LINE
  5
E7
100
AcDbEntity
  8
int
  6
ByLayer
 62
  256
370
   -1
100
AcDbLine
 10
-80.79291987740424
 20
-33.51812381394781
 11
-73.26640440779691
 21
-33.51812381394781
  0
LINE
  5
E8
100
AcDbEntity
  8
int
  6
ByLayer
 62
  256
370
   -1
100
AcDbLine
 10
-70.26640440779691
 20
-36.51812381394781
 11
-70.26640440779691
 21
-39
  0
ARC
  5
E9
100
AcDbEntity
  8
int
  6
ByLayer
 62
  256
370
   -1
100
AcDbCircle
 10
-73.26640440779691
 20
-36.51812381394781
 40
3
100
AcDbArc
 50
0
 51
90
  0
ARC
  5
EA
100
AcDbEntity
  8
int
  6
ByLayer
 62
  256
370
   -1
100
AcDbCircle
 10
-28.46502538473772
 20
38.23638837768215
 40
3
100
AcDbArc
 50
262
 51
352.0000000000001
  0
LINE
  5
EB
100
AcDbEntity
  8
int
  6
ByLayer
 62
  256
370
   -1
100
AcDbLine
 10
-25.12900470635933
 20
40.4175193028802
 11
-25.49422117851301
 21
37.81886907480196
  0
ARC
  5
EC
100
AcDbEntity
  8
int
  6
ByLayer
 62
  256
370
   -1
100
AcDbCircle
 10
-22.15820050013462
 20
40
 40
3
100
AcDbArc
 50
90
 51
171.9999999999999
  0
LINE
  5
ED
100
AcDbEntity
  8
int
  6
ByLayer
 62
  256
370
   -1
100
AcDbLine
 10
17.31483856120778
 20
43
 11
-22.15820050013462
 21
43
  0
ARC
  5
EE
100
AcDbEntity
  8
int
  6
ByLayer
 62
  256
370
   -1
100
AcDbCircle
 10
17.31483856120778
 20
40
 40
3
100
AcDbArc
 50
8.000000000000087
 51
90
  0
LINE
  5
EF
100
AcDbEntity
  8
int
  6
ByLayer
 62
  256
370
   -1
100
AcDbLine
 10
20.83667452546812
 20
36.49672461568137
 11
20.28564276743249
 21
40.4175193028802
  0
ARC
  5
F0
100
AcDbEntity
  8
int
  6
ByLayer
 62
  256
370
   -1
100
AcDbCircle
 10
23.80747873169283
 20
36.91424391856156
 40
3
100
AcDbArc
 50
188
 51
278
  0
LINE
  5
F1
100
AcDbEntity
  8
int
  6
ByLayer
 62
  256
370
   -1
100
AcDbLine
 10
-28.88254468761792
 20
35.26558417145744
 11
-80.45345844353105
 21
42.51340343707852
  0
ARC
  5
F2
100
AcDbEntity
  8
int
  6
ByLayer
 62
  256
370
   -1
100
AcDbCircle
 10
-87.41211349153431
 20
-7
 40
50
100
AcDbArc
 50
82.00000000000001
 51
90
  0
LINE
  5
F3
100
AcDbEntity
  8
int
  6
ByLayer
 62
  256
370
   -1
100
AcDbLine
 10
97.23864417907116
 20
43
 11
92.16211349153419
 21
43
  0
LINE
  5
F4
100
AcDbEntity
  8
int
  6
ByLayer
 62
  256
370
   -1
100
AcDbLine
 10
24.22499803457303
 20
33.94343971233684
 11
85.20345844353089
 21
42.51340343707852
  0
ARC
  5
F5
100
AcDbEntity
  8
int
  6
ByLayer
 62
  256
370
   -1
100
AcDbCircle
 10
92.16211349153419
 20
-7
 40
50
100
AcDbArc
 50
90
 51
98.00000000000003
  0
LINE
  5
F6
100
AcDbEntity
  8
ext1
  6
ByLayer
 62
  256
370
   -1
100
AcDbLine
 10
105.5
 20
45.5
 11
-105.5
 21
45.5
  0
ARC
  5
F7
100
AcDbEntity
  8
ext1
  6
ByLayer
 62
  256
370
   -1
100
AcDbCircle
 10
105.5
 20
40
 40
5.5
100
AcDbArc
 50
359.9999999999999
 51
89.99999999999983
  0
LINE
  5
F8
100
AcDbEntity
  8
ext1
  6
ByLayer
 62
  256
370
   -1
100
AcDbLine
 10
111
 20
39.99999999999999
 11
111
 21
-40.00000000000001
  0
LINE
  5
F9
100
AcDbEntity
  8
ext1
  6
ByLayer
 62
  256
370
   -1
100
AcDbLine
 10
105.5
 20
-45.5
 11
-105.5
 21
-45.5
  0
ARC
  5
FA
100
AcDbEntity
  8
ext1
  6
ByLayer
 62
  256
370
   -1
100
AcDbCircle
 10
-105.5
 20
-40
 40
5.5
100
AcDbArc
 50
180
 51
270
  0
LINE
  5
FB
100
AcDbEntity
  8
ext1
  6
ByLayer
 62
  256
370
   -1
100
AcDbLine
 10
-111
 20
-40
 11
-111
 21
40
  0
ARC
  5
FC
100
AcDbEntity
  8
ext1
  6
ByLayer
 62
  256
370
   -1
100
AcDbCircle
 10
-105.5
 20
40
 40
5.5
100
AcDbArc
 50
90
 51
180
  0
ARC
  5
FD
100
AcDbEntity
  8
ext1
  6
ByLayer
 62
  256
370
   -1
100
AcDbCircle
 10
105.5
 20
-40
 40
5.5
100
AcDbArc
 50
270
 51
359.9999999999999
  0
LINE
  5
FE
100
AcDbEntity
  8
ext2
  6
ByLayer
 62
  256
370
   -1
100
AcDbLine
 10
105.5
 20
47.5
 11
-105.5
 21
47.5
  0
ARC
  5
FF
100
AcDbEntity
  8
ext2
  6
ByLayer
 62
  256
370
   -1
100
AcDbCircle
 10
105.5
 20
40
 40
7.5
100
AcDbArc
 50
359.9999999999999
 51
89.99999999999983
  0
LINE
  5
100
100
AcDbEntity
  8
ext2
  6
ByLayer
 62
  256
370
   -1
100
AcDbLine
 10
113
 20
39.99999999999999
 11
113
 21
-40.00000000000001
  0
ARC
  5
101
100
AcDbEntity
  8
ext2
  6
ByLayer
 62
  256
370
   -1
100
AcDbCircle
 10
105.5
 20
-40
 40
7.5
100
AcDbArc
 50
270
 51
359.9999999999999
  0
LINE
  5
102
100
AcDbEntity
  8
ext2
  6
ByLayer
 62
  256
370
   -1
100
AcDbLine
 10
105.5
 20
-47.5
 11
-105.5
 21
-47.5
  0
ARC
  5
103
100
AcDbEntity
  8
ext2
  6
ByLayer
 62
  256
370
   -1
100
AcDbCircle
 10
-105.5
 20
-40
 40
7.5
100
AcDbArc
 50
180
 51
270
  0
LINE
  5
104
100
AcDbEntity
  8
ext2
  6
ByLayer
 62
  256
370
   -1
100
AcDbLine
 10
-113
 20
-40
 11
-113
 21
40
  0
ARC
  5
105
100
AcDbEntity
  8
ext2
  6
ByLayer
 62
  256
370
   -1
100
AcDbCircle
 10
-105.5
 20
40
 40
7.5
100
AcDbArc
 50
90
 51
180
  0
LINE
  5
106
100
AcDbEntity
  8
ext3
  6
ByLayer
 62
  256
370
   -1
100
AcDbLine
 10
105.5
 20
48.5
 11
-105.5
 21
48.5
  0
ARC
  5
107
100
AcDbEntity
  8
ext3
  6
ByLayer
 62
  256
370
   -1
100
AcDbCircle
 10
105.5
 20
40
 40
8.5
100
AcDbArc
 50
359.9999999999999
 51
89.99999999999983
  0
LINE
  5
108
100
AcDbEntity
  8
ext3
  6
ByLayer
 62
  256
370
   -1
100
AcDbLine
 10
114
 20
39.99999999999999
 11
114
 21
-40.00000000000001
  0
ARC
  5
109
100
AcDbEntity
  8
ext3
  6
ByLayer
 62
  256
370
   -1
100
AcDbCircle
 10
105.5
 20
-40
 40
8.5
100
AcDbArc
 50
270
 51
359.9999999999999
  0
LINE
  5
10A
100
AcDbEntity
  8
ext3
  6
ByLayer
 62
  256
370
   -1
100
AcDbLine
 10
105.5
 20
-48.5
 11
-105.5
 21
-48.5
  0
ARC
  5
10B
100
AcDbEntity
  8
ext3
  6
ByLayer
 62
  256
370
   -1
100
AcDbCircle
 10
-105.5
 20
-40
 40
8.5
100
AcDbArc
 50
180
 51
270
  0
LINE
  5
10C
100
AcDbEntity
  8
ext3
  6
ByLayer
 62
  256
370
   -1
100
AcDbLine
 10
-114
 20
-40
 11
-114
 21
40
  0
ARC
  5
10D
100
AcDbEntity
  8
ext3
  6
ByLayer
 62
  256
370
   -1
100
AcDbCircle
 10
-105.5
 20
40
 40
8.5
100
AcDbArc
 50
90
 51
180
  0
ARC
  5
10E
100
AcDbEntity
  8
ajour
  6
ByLayer
 62
  256
370
   -1
100
AcDbCircle
 10
2.375000000000041
 20
-21.5026312197489
 40
15
100
AcDbArc
 50
8.000000000000011
 51
172
  0
ARC
  5
10F
100
AcDbEntity
  8
ajour
  6
ByLayer
 62
  256
370
   -1
100
AcDbCircle
 10
-78.5
 20
22.04231130649586
 40
10
100
AcDbArc
 50
82.00000000000004
 51
180
  0
LINE
  5
110
100
AcDbEntity
  8
ajour
  6
ByLayer
 62
  256
370
   -1
100
AcDbLine
 10
-88.5
 20
-13.51812381394781
 11
-88.5
 21
22.04231130649587
  0
ARC
  5
111
100
AcDbEntity
  8
ajour
  6
ByLayer
 62
  256
370
   -1
100
AcDbCircle
 10
-78.5
 20
-13.51812381394781
 40
10
100
AcDbArc
 50
180
 51
270
  0
LINE
  5
112
100
AcDbEntity
  8
ajour
  6
ByLayer
 62
  256
370
   -1
100
AcDbLine
 10
-12.47902103112351
 20
-19.41503470534791
 11
-13.31899091848589
 21
-25.39173100960065
  0
ARC
  5
113
100
AcDbEntity
  8
ajour
  6
ByLayer
 62
  256
370
   -1
100
AcDbCircle
 10
-23.2216716059016
 20
-23.99999999999999
 40
10
100
AcDbArc
 50
270
 51
352
  0
LINE
  5
114
100
AcDbEntity
  8
ajour
  6
ByLayer
 62
  256
370
   -1
100
AcDbLine
 10
17.2290210311236
 20
-19.41503470534791
 11
18.06899091848598
 21
-25.39173100960065
  0
ARC
  5
115
100
AcDbEntity
  8
ajour
  6
ByLayer
 62
  256
370
   -1
100
AcDbCircle
 10
27.97167160590168
 20
-24
 40
10
100
AcDbArc
 50
188
 51
269.9999999999999
  0
ARC
  5
116
100
AcDbEntity
  8
ajour
  6
ByLayer
 62
  256
370
   -1
100
AcDbCircle
 10
78.5
 20
-13.51812381394781
 40
10
100
AcDbArc
 50
270
 51
5.088887490341627e-14
  0
LINE
  5
117
100
AcDbEntity
  8
ajour
  6
ByLayer
 62
  256
370
   -1
100
AcDbLine
 10
88.5
 20
21.37474234165953
 11
88.5
 21
-13.5181238139478
  0
ARC
  5
118
100
AcDbEntity
  8
ajour
  6
ByLayer
 62
  256
370
   -1
100
AcDbCircle
 10
78.5
 20
21.37474234165953
 40
10
100
AcDbArc
 50
0
 51
98.00000000000004
  0
LWPOLYLINE
  5
119
100
AcDbEntity
  8
decoup-pi
  6
ByLayer
 62
  256
370
   -1
100
AcDbPolyline
 90
    4
 70
    1
 43
0
 10
-14.70322154852996
 20
55
 10
10.04567489548507
 20
55
 10
10.04567489548507
 20
23
 10
-14.70322154852996
 20
23
  0
LINE
  5
11A
100
AcDbEntity
  8
ajour
  6
ByLayer
 62
  256
370
   -1
100
AcDbLine
 10
62.80413449519968
 20
29.2671080274246
 11
77.10826899039934
 21
31.27742302907523
  0
ARC
  5
11B
100
AcDbEntity
  8
ajour
  6
ByLayer
 62
  256
370
   -1
100
AcDbCircle
 10
63.5
 20
24.31576768371675
 40
5
100
AcDbArc
 50
97.99999999999996
 51
180
  0
LINE
  5
11C
100
AcDbEntity
  8
ajour
  6
ByLayer
 62
  256
370
   -1
100
AcDbLine
 10
63.5
 20
-23.51812381394781
 11
78.5
 21
-23.51812381394781
  0
LINE
  5
11D
100
AcDbEntity
  8
ajour
  6
ByLayer
 62
  256
370
   -1
100
AcDbLine
 10
58.5
 20
24.31576768371674
 11
58.5
 21
-18.5181238139478
  0
ARC
  5
11E
100
AcDbEntity
  8
ajour
  6
ByLayer
 62
  256
370
   -1
100
AcDbCircle
 10
63.5
 20
-18.51812381394781
 40
5
100
AcDbArc
 50
179.9999999999999
 51
270
  0
LINE
  5
11F
100
AcDbEntity
  8
ajour
  6
ByLayer
 62
  256
370
   -1
100
AcDbLine
 10
33.5
 20
-33.99999999999999
 11
27.97167160590167
 21
-33.99999999999999
  0
ARC
  5
120
100
AcDbEntity
  8
ajour
  6
ByLayer
 62
  256
370
   -1
100
AcDbCircle
 10
33.5
 20
-29
 40
5
100
AcDbArc
 50
270
 51
0
  0
LINE
  5
121
100
AcDbEntity
  8
ajour
  6
ByLayer
 62
  256
370
   -1
100
AcDbLine
 10
-23.22167160590159
 20
-33.99999999999999
 11
-33.5
 21
-33.99999999999999
  0
ARC
  5
122
100
AcDbEntity
  8
ajour
  6
ByLayer
 62
  256
370
   -1
100
AcDbCircle
 10
-33.5
 20
-28.99999999999999
 40
5
100
AcDbArc
 50
180.0000000000001
 51
270
  0
LINE
  5
123
100
AcDbEntity
  8
ajour
  6
ByLayer
 62
  256
370
   -1
100
AcDbLine
 10
-62.80413449519967
 20
29.93467699226093
 11
-77.10826899039935
 21
31.94499199391157
  0
ARC
  5
124
100
AcDbEntity
  8
ajour
  6
ByLayer
 62
  256
370
   -1
100
AcDbCircle
 10
-63.5
 20
24.98333664855308
 40
5
100
AcDbArc
 50
359.9999999999999
 51
81.99999999999996
  0
LINE
  5
125
100
AcDbEntity
  8
ajour
  6
ByLayer
 62
  256
370
   -1
100
AcDbLine
 10
-78.5
 20
-23.51812381394781
 11
-63.5
 21
-23.51812381394781
  0
LINE
  5
126
100
AcDbEntity
  8
ajour
  6
ByLayer
 62
  256
370
   -1
100
AcDbLine
 10
-58.5
 20
-18.51812381394781
 11
-58.5
 21
24.98333664855307
  0
ARC
  5
127
100
AcDbEntity
  8
ajour
  6
ByLayer
 62
  256
370
   -1
100
AcDbCircle
 10
-63.5
 20
-18.51812381394781
 40
5
100
AcDbArc
 50
270
 51
0
  0
LINE
  5
128
100
AcDbEntity
  8
ajour
  6
ByLayer
 62
  256
370
   -1
100
AcDbLine
 10
38.5
 20
-29
 11
38.5
 21
8.000000000000004
  0
ARC
  5
129
100
AcDbEntity
  8
ajour
  6
ByLayer
 62
  256
370
   -1
100
AcDbCircle
 10
18.5
 20
8
 40
20
100
AcDbArc
 50
0
 51
90
  0
LINE
  5
12A
100
AcDbEntity
  8
ajour
  6
ByLayer
 62
  256
370
   -1
100
AcDbLine
 10
-38.5
 20
8
 11
-38.5
 21
-29
  0
LINE
  5
12B
100
AcDbEntity
  8
ajour
  6
ByLayer
 62
  256
370
   -1
100
AcDbLine
 10
18.5
 20
28
 11
-18.5
 21
28
  0
ARC
  5
12C
100
AcDbEntity
  8
ajour
  6
ByLayer
 62
  256
370
   -1
100
AcDbCircle
 10
-18.5
 20
8
 40
20
100
AcDbArc
 50
90
 51
180
  0
ARC
  5
12D
100
AcDbEntity
  8
int
  6
ByLayer
 62
  256
370
   -1
100
AcDbCircle
 10
103.4999995712393
 20
31.73864384172383
 40
5.000000428760668
100
AcDbArc
 50
3.865712951499069e-06
 51
76.39104323492975
  0
LINE
  5
12E
100
AcDbEntity
  8
int
  6
ByLayer
 62
  256
370
   -1
100
AcDbLine
 10
97.23864417907085
 20
-43
 11
89.15466214260063
 21
-43
  0
ARC
  5
12F
100
AcDbEntity
  8
int
  6
ByLayer
 62
  256
370
   -1
100
AcDbCircle
 10
105.5
 20
-40
 40
3.5
100
AcDbArc
 50
103.6089606307833
 51
166.3910393692171
  0
ARC
  5
130
100
AcDbEntity
  8
int
  6
ByLayer
 62
  256
370
   -1
100
AcDbCircle
 10
97.23864417907085
 20
-38
 40
5
100
AcDbArc
 50
270
 51
346.391039369217
  0
LINE
  5
131
100
AcDbEntity
  8
int
  6
ByLayer
 62
  256
370
   -1
100
AcDbLine
 10
-108.5
 20
-31.73864417907131
 11
-108.5
 21
31.73864417907077
  0
ARC
  5
132
100
AcDbEntity
  8
int
  6
ByLayer
 62
  256
370
   -1
100
AcDbCircle
 10
-105.5
 20
-40
 40
3.5
100
AcDbArc
 50
13.60896063078262
 51
76.39103936921629
  0
ARC
  5
133
100
AcDbEntity
  8
int
  6
ByLayer
 62
  256
370
   -1
100
AcDbCircle
 10
-103.5
 20
-31.73864417907131
 40
5
100
AcDbArc
 50
180
 51
256.3910393692164
  0
LINE
  5
134
100
AcDbEntity
  8
int
  6
ByLayer
 62
  256
370
   -1
100
AcDbLine
 10
-87.41211349153431
 20
43
 11
-97.23864417907085
 21
43
  0
ARC
  5
135
100
AcDbEntity
  8
int
  6
ByLayer
 62
  256
370
   -1
100
AcDbCircle
 10
-105.5
 20
40
 40
3.5
100
AcDbArc
 50
283.6089606307827
 51
346.391039369217
  0
ARC
  5
136
100
AcDbEntity
  8
int
  6
ByLayer
 62
  256
370
   -1
100
AcDbCircle
 10
-97.23864417907085
 20
38
 40
5
100
AcDbArc
 50
90
 51
166.3910393692171
  0
CIRCLE
  5
137
100
AcDbEntity
  8
rpi1
  6
ByLayer
 62
  256
370
   -1
100
AcDbCircle
 10
-2.271345067338977
 20
13.28875582273014
 40
0.5
  0
CIRCLE
  5
138
100
AcDbEntity
  8
rpi1
  6
ByLayer
 62
  256
370
   -1
100
AcDbCircle
 10
-7.351345067338976
 20
13.28875582273014
 40
0.5
  0
CIRCLE
  5
139
100
AcDbEntity
  8
rpi1
  6
ByLayer
 62
  256
370
   -1
100
AcDbCircle
 10
-4.811345067338976
 20
13.28875582273014
 40
0.5
  0
CIRCLE
  5
13A
100
AcDbEntity
  8
rpi1
  6
ByLayer
 62
  256
370
   -1
100
AcDbCircle
 10
0.2686549326610231
 20
13.28875582273014
 40
0.5
  0
CIRCLE
  5
13B
100
AcDbEntity
  8
rpi1
  6
ByLayer
 62
  256
370
   -1
100
AcDbCircle
 10
2.808654932661023
 20
13.28875582273014
 40
0.5
  0
CIRCLE
  5
13C
100
AcDbEntity
  8
rpi1
  6
ByLayer
 62
  256
370
   -1
100
AcDbCircle
 10
-9.891345067338978
 20
13.28875582273014
 40
0.5
  0
CIRCLE
  5
13D
100
AcDbEntity
  8
rpi1
  6
ByLayer
 62
  256
370
   -1
100
AcDbCircle
 10
-9.891345067338978
 20
15.82875582273014
 40
0.5
  0
CIRCLE
  5
13E
100
AcDbEntity
  8
rpi1
  6
ByLayer
 62
  256
370
   -1
100
AcDbCircle
 10
-9.891345067338978
 20
18.36875582273013
 40
0.5
  0
CIRCLE
  5
13F
100
AcDbEntity
  8
rpi1
  6
ByLayer
 62
  256
370
   -1
100
AcDbCircle
 10
-9.891345067338976
 20
20.90875582273013
 40
0.5
  0
CIRCLE
  5
140
100
AcDbEntity
  8
rpi1
  6
ByLayer
 62
  256
370
   -1
100
AcDbCircle
 10
-9.891345067338976
 20
23.44875582273013
 40
0.5
  0
CIRCLE
  5
141
100
AcDbEntity
  8
rpi1
  6
ByLayer
 62
  256
370
   -1
100
AcDbCircle
 10
-9.891345067338976
 20
25.98875582273013
 40
0.5
  0
CIRCLE
  5
142
100
AcDbEntity
  8
rpi1
  6
ByLayer
 62
  256
370
   -1
100
AcDbCircle
 10
-9.891345067338975
 20
28.52875582273013
 40
0.5
  0
CIRCLE
  5
143
100
AcDbEntity
  8
rpi1
  6
ByLayer
 62
  256
370
   -1
100
AcDbCircle
 10
-9.891345067338975
 20
31.20547970058399
 40
0.5
  0
CIRCLE
  5
144
100
AcDbEntity
  8
rpi1
  6
ByLayer
 62
  256
370
   -1
100
AcDbCircle
 10
-9.891345067338975
 20
33.74547970058388
 40
0.5
  0
CIRCLE
  5
145
100
AcDbEntity
  8
rpi1
  6
ByLayer
 62
  256
370
   -1
100
AcDbCircle
 10
5.348654932661024
 20
13.28875582273014
 40
0.5
  0
CIRCLE
  5
146
100
AcDbEntity
  8
rpi1
  6
ByLayer
 62
  256
370
   -1
100
AcDbCircle
 10
5.348654932661024
 20
15.82875582273014
 40
0.5
  0
CIRCLE
  5
147
100
AcDbEntity
  8
rpi1
  6
ByLayer
 62
  256
370
   -1
100
AcDbCircle
 10
5.348654932661024
 20
18.36875582273013
 40
0.5
  0
CIRCLE
  5
148
100
AcDbEntity
  8
rpi1
  6
ByLayer
 62
  256
370
   -1
100
AcDbCircle
 10
5.348654932661026
 20
20.90875582273013
 40
0.5
  0
CIRCLE
  5
149
100
AcDbEntity
  8
rpi1
  6
ByLayer
 62
  256
370
   -1
100
AcDbCircle
 10
5.348654932661026
 20
23.44875582273013
 40
0.5
  0
CIRCLE
  5
14A
100
AcDbEntity
  8
rpi1
  6
ByLayer
 62
  256
370
   -1
100
AcDbCircle
 10
5.348654932661026
 20
25.98875582273013
 40
0.5
  0
CIRCLE
  5
14B
100
AcDbEntity
  8
rpi1
  6
ByLayer
 62
  256
370
   -1
100
AcDbCircle
 10
5.348654932661027
 20
28.52875582273013
 40
0.5
  0
CIRCLE
  5
14C
100
AcDbEntity
  8
rpi1
  6
ByLayer
 62
  256
370
   -1
100
AcDbCircle
 10
5.348654932661027
 20
31.20547970058399
 40
0.5
  0
CIRCLE
  5
14D
100
AcDbEntity
  8
rpi1
  6
ByLayer
 62
  256
370
   -1
100
AcDbCircle
 10
5.348654932661027
 20
33.74547970058388
 40
0.5
  0
LINE
  5
14E
100
AcDbEntity
  8
rpi1
  6
ByLayer
 62
  256
370
   -1
100
AcDbLine
 10
-11.27134506733897
 20
35.01711776165701
 11
-11.27134506733898
 21
12.01711776165701
  0
LINE
  5
14F
100
AcDbEntity
  8
rpi1
  6
ByLayer
 62
  256
370
   -1
100
AcDbLine
 10
-11.27134506733897
 20
35.01711776165701
 11
6.728654932661027
 21
35.01711776165701
  0
LINE
  5
150
100
AcDbEntity
  8
rpi1
  6
ByLayer
 62
  256
370
   -1
100
AcDbLine
 10
-11.27134506733898
 20
12.01711776165701
 11
6.728654932661023
 21
12.01711776165701
  0
LINE
  5
151
100
AcDbEntity
  8
rpi1
  6
ByLayer
 62
  256
370
   -1
100
AcDbLine
 10
6.728654932661027
 20
35.01711776165701
 11
6.728654932661023
 21
12.01711776165701
  0
LINE
  5
152
100
AcDbEntity
  8
sw
  6
ByLayer
 62
  256
370
   -1
100
AcDbLine
 10
64.50750174600449
 20
23.95244903380503
 11
62.55907833256358
 21
37.816201996187
  0
LINE
  5
153
100
AcDbEntity
  8
sw
  6
ByLayer
 62
  256
370
   -1
100
AcDbLine
 10
78.37125470838647
 20
25.90087244724592
 11
64.50750174600449
 21
23.95244903380503
  0
LINE
  5
154
100
AcDbEntity
  8
sw
  6
ByLayer
 62
  256
370
   -1
100
AcDbLine
 10
62.55907833256358
 20
37.816201996187
 11
76.42283129494555
 21
39.76462540962792
  0
LINE
  5
155
100
AcDbEntity
  8
sw
  6
ByLayer
 62
  256
370
   -1
100
AcDbLine
 10
78.37125470838647
 20
25.90087244724592
 11
76.42283129494555
 21
39.76462540962792
  0
LINE
  5
156
100
AcDbEntity
  8
sw
  6
ByLayer
 62
  256
370
   -1
100
AcDbLine
 10
15.41028407249872
 20
-2.134438797448242
 11
13.46186065905781
 21
11.72931416493373
  0
LINE
  5
157
100
AcDbEntity
  8
sw
  6
ByLayer
 62
  256
370
   -1
100
AcDbLine
 10
29.2740370348807
 20
-0.1860153840073497
 11
15.41028407249872
 21
-2.134438797448242
  0
LINE
  5
158
100
AcDbEntity
  8
sw
  6
ByLayer
 62
  256
370
   -1
100
AcDbLine
 10
13.46186065905781
 20
11.72931416493373
 11
27.32561362143978
 21
13.67773757837464
  0
LINE
  5
159
100
AcDbEntity
  8
sw
  6
ByLayer
 62
  256
370
   -1
100
AcDbLine
 10
29.2740370348807
 20
-0.1860153840073497
 11
27.32561362143978
 21
13.67773757837464
  0
LINE
  5
15A
100
AcDbEntity
  8
sw
  6
ByLayer
 62
  256
370
   -1
100
AcDbLine
 10
34.22537737858856
 20
0.5098501207930006
 11
32.27695396514764
 21
14.37360308317498
  0
LINE
  5
15B
100
AcDbEntity
  8
sw
  6
ByLayer
 62
  256
370
   -1
100
AcDbLine
 10
48.08913034097053
 20
2.458273534233893
 11
34.22537737858856
 21
0.5098501207930006
  0
LINE
  5
15C
100
AcDbEntity
  8
sw
  6
ByLayer
 62
  256
370
   -1
100
AcDbLine
 10
32.27695396514764
 20
14.37360308317498
 11
46.14070692752961
 21
16.32202649661589
  0
LINE
  5
15D
100
AcDbEntity
  8
sw
  6
ByLayer
 62
  256
370
   -1
100
AcDbLine
 10
48.08913034097053
 20
2.458273534233893
 11
46.14070692752961
 21
16.32202649661589
  0
LINE
  5
15E
100
AcDbEntity
  8
sw
  6
ByLayer
 62
  256
370
   -1
100
AcDbLine
 10
53.06093756504471
 20
3.008509618164261
 11
51.11251415160379
 21
16.87226258054624
  0
LINE
  5
15F
100
AcDbEntity
  8
sw
  6
ByLayer
 62
  256
370
   -1
100
AcDbLine
 10
66.92469052742669
 20
4.956933031605153
 11
53.06093756504471
 21
3.008509618164261
  0
LINE
  5
160
100
AcDbEntity
  8
sw
  6
ByLayer
 62
  256
370
   -1
100
AcDbLine
 10
51.11251415160379
 20
16.87226258054624
 11
64.97626711398576
 21
18.82068599398715
  0
LINE
  5
161
100
AcDbEntity
  8
sw
  6
ByLayer
 62
  256
370
   -1
100
AcDbLine
 10
66.92469052742669
 20
4.956933031605153
 11
64.97626711398576
 21
18.82068599398715
  0
LINE
  5
162
100
AcDbEntity
  8
sw
  6
ByLayer
 62
  256
370
   -1
100
AcDbLine
 10
71.85556399076825
 20
5.798427957275489
 11
69.90714057732733
 21
19.66218091965747
  0
LINE
  5
163
100
AcDbEntity
  8
sw
  6
ByLayer
 62
  256
370
   -1
100
AcDbLine
 10
85.71931695315021
 20
7.746851370716382
 11
71.85556399076825
 21
5.798427957275489
  0
LINE
  5
164
100
AcDbEntity
  8
sw
  6
ByLayer
 62
  256
370
   -1
100
AcDbLine
 10
69.90714057732733
 20
19.66218091965747
 11
83.77089353970931
 21
21.61060433309838
  0
LINE
  5
165
100
AcDbEntity
  8
sw
  6
ByLayer
 62
  256
370
   -1
100
AcDbLine
 10
85.71931695315021
 20
7.746851370716382
 11
83.77089353970931
 21
21.61060433309838
  0
LINE
  5
166
100
AcDbEntity
  8
sw
  6
ByLayer
 62
  256
370
   -1
100
AcDbLine
 10
65.09230625596456
 20
-14.33880980793496
 11
63.14388284252365
 21
-0.4750568455529858
  0
LINE
  5
167
100
AcDbEntity
  8
sw
  6
ByLayer
 62
  256
370
   -1
100
AcDbLine
 10
78.95605921834654
 20
-12.39038639449407
 11
65.09230625596456
 21
-14.33880980793496
  0
LINE
  5
168
100
AcDbEntity
  8
sw
  6
ByLayer
 62
  256
370
   -1
100
AcDbLine
 10
63.14388284252365
 20
-0.4750568455529858
 11
77.00763580490562
 21
1.473366567887924
  0
LINE
  5
169
100
AcDbEntity
  8
sw
  6
ByLayer
 62
  256
370
   -1
100
AcDbLine
 10
78.95605921834654
 20
-12.39038639449407
 11
77.00763580490562
 21
1.473366567887924
  0
LINE
  5
16A
100
AcDbEntity
  8
sw
  6
ByLayer
 62
  256
370
   -1
100
AcDbLine
 10
46.27721294987472
 20
-16.98309872617621
 11
44.3287895364338
 21
-3.119345763794234
  0
LINE
  5
16B
100
AcDbEntity
  8
sw
  6
ByLayer
 62
  256
370
   -1
100
AcDbLine
 10
60.1409659122567
 20
-15.03467531273532
 11
46.27721294987472
 21
-16.98309872617621
  0
LINE
  5
16C
100
AcDbEntity
  8
sw
  6
ByLayer
 62
  256
370
   -1
100
AcDbLine
 10
44.3287895364338
 20
-3.119345763794234
 11
58.19254249881578
 21
-1.170922350353324
  0
LINE
  5
16D
100
AcDbEntity
  8
sw
  6
ByLayer
 62
  256
370
   -1
100
AcDbLine
 10
60.1409659122567
 20
-15.03467531273532
 11
58.19254249881578
 21
-1.170922350353324
  0
LINE
  5
16E
100
AcDbEntity
  8
sw
  6
ByLayer
 62
  256
370
   -1
100
AcDbLine
 10
27.46211964378488
 20
-19.62738764441744
 11
25.51369623034396
 21
-5.763634682035464
  0
LINE
  5
16F
100
AcDbEntity
  8
sw
  6
ByLayer
 62
  256
370
   -1
100
AcDbLine
 10
41.32587260616685
 20
-17.67896423097655
 11
27.46211964378488
 21
-19.62738764441744
  0
LINE
  5
170
100
AcDbEntity
  8
sw
  6
ByLayer
 62
  256
370
   -1
100
AcDbLine
 10
25.51369623034396
 20
-5.763634682035464
 11
39.37744919272593
 21
-3.815211268594554
  0
LINE
  5
171
100
AcDbEntity
  8
sw
  6
ByLayer
 62
  256
370
   -1
100
AcDbLine
 10
41.32587260616685
 20
-17.67896423097655
 11
39.37744919272593
 21
-3.815211268594554
  0
LINE
  5
172
100
AcDbEntity
  8
sw
  6
ByLayer
 62
  256
370
   -1
100
AcDbLine
 10
8.647026337695047
 20
-22.2716765626587
 11
6.698602924254131
 21
-8.407923600276726
  0
LINE
  5
173
100
AcDbEntity
  8
sw
  6
ByLayer
 62
  256
370
   -1
100
AcDbLine
 10
22.51077930007702
 20
-20.32325314921781
 11
8.647026337695047
 21
-22.2716765626587
  0
LINE
  5
174
100
AcDbEntity
  8
sw
  6
ByLayer
 62
  256
370
   -1
100
AcDbLine
 10
6.698602924254131
 20
-8.407923600276726
 11
20.5623558866361
 21
-6.459500186835816
  0
LINE
  5
175
100
AcDbEntity
  8
sw
  6
ByLayer
 62
  256
370
   -1
100
AcDbLine
 10
22.51077930007702
 20
-20.32325314921781
 11
20.5623558866361
 21
-6.459500186835816
  0
LINE
  5
176
100
AcDbEntity
  8
sw
  6
ByLayer
 62
  256
370
   -1
100
AcDbLine
 10
-10.66028407249868
 20
-2.134438797448247
 11
-8.711860659057759
 21
11.72931416493373
  0
LINE
  5
177
100
AcDbEntity
  8
sw
  6
ByLayer
 62
  256
370
   -1
100
AcDbLine
 10
-8.711860659057759
 20
11.72931416493373
 11
-22.57561362143974
 21
13.67773757837464
  0
LINE
  5
178
100
AcDbEntity
  8
sw
  6
ByLayer
 62
  256
370
   -1
100
AcDbLine
 10
-24.52403703488066
 20
-0.1860153840073338
 11
-10.66028407249868
 21
-2.134438797448247
  0
LINE
  5
179
100
AcDbEntity
  8
sw
  6
ByLayer
 62
  256
370
   -1
100
AcDbLine
 10
-22.57561362143974
 20
13.67773757837464
 11
-24.52403703488066
 21
-0.1860153840073338
  0
LINE
  5
17A
100
AcDbEntity
  8
sw
  6
ByLayer
 62
  256
370
   -1
100
AcDbLine
 10
-3.897026337695003
 20
-22.2716765626587
 11
-1.948602924254086
 21
-8.407923600276723
  0
LINE
  5
17B
100
AcDbEntity
  8
sw
  6
ByLayer
 62
  256
370
   -1
100
AcDbLine
 10
-1.948602924254086
 20
-8.407923600276723
 11
-15.81235588663606
 21
-6.459500186835813
  0
LINE
  5
17C
100
AcDbEntity
  8
sw
  6
ByLayer
 62
  256
370
   -1
100
AcDbLine
 10
-17.76077930007698
 20
-20.32325314921779
 11
-3.897026337695003
 21
-22.2716765626587
  0
LINE
  5
17D
100
AcDbEntity
  8
sw
  6
ByLayer
 62
  256
370
   -1
100
AcDbLine
 10
-15.81235588663606
 20
-6.459500186835813
 11
-17.76077930007698
 21
-20.32325314921779
  0
LINE
  5
17E
100
AcDbEntity
  8
sw
  6
ByLayer
 62
  256
370
   -1
100
AcDbLine
 10
-22.71211964378483
 20
-19.62738764441746
 11
-20.76369623034392
 21
-5.763634682035478
  0
LINE
  5
17F
100
AcDbEntity
  8
sw
  6
ByLayer
 62
  256
370
   -1
100
AcDbLine
 10
-20.76369623034392
 20
-5.763634682035478
 11
-34.62744919272589
 21
-3.815211268594568
  0
LINE
  5
180
100
AcDbEntity
  8
sw
  6
ByLayer
 62
  256
370
   -1
100
AcDbLine
 10
-36.57587260616681
 20
-17.67896423097655
 11
-22.71211964378483
 21
-19.62738764441746
  0
LINE
  5
181
100
AcDbEntity
  8
sw
  6
ByLayer
 62
  256
370
   -1
100
AcDbLine
 10
-34.62744919272589
 20
-3.815211268594568
 11
-36.57587260616681
 21
-17.67896423097655
  0
LINE
  5
182
100
AcDbEntity
  8
sw
  6
ByLayer
 62
  256
370
   -1
100
AcDbLine
 10
-29.47537737858852
 20
0.5098501207929971
 11
-27.5269539651476
 21
14.37360308317498
  0
LINE
  5
183
100
AcDbEntity
  8
sw
  6
ByLayer
 62
  256
370
   -1
100
AcDbLine
 10
-27.5269539651476
 20
14.37360308317498
 11
-41.39070692752958
 21
16.32202649661589
  0
LINE
  5
184
100
AcDbEntity
  8
sw
  6
ByLayer
 62
  256
370
   -1
100
AcDbLine
 10
-43.3391303409705
 20
2.458273534233911
 11
-29.47537737858852
 21
0.5098501207929971
  0
LINE
  5
185
100
AcDbEntity
  8
sw
  6
ByLayer
 62
  256
370
   -1
100
AcDbLine
 10
-41.39070692752958
 20
16.32202649661589
 11
-43.3391303409705
 21
2.458273534233911
  0
LINE
  5
186
100
AcDbEntity
  8
sw
  6
ByLayer
 62
  256
370
   -1
100
AcDbLine
 10
-31.53486178686973
 20
19.98601565644314
 11
-29.58643837342881
 21
33.84976861882512
  0
LINE
  5
187
100
AcDbEntity
  8
sw
  6
ByLayer
 62
  256
370
   -1
100
AcDbLine
 10
-29.58643837342881
 20
33.84976861882512
 11
-43.45019133581079
 21
35.79819203226603
  0
LINE
  5
188
100
AcDbEntity
  8
sw
  6
ByLayer
 62
  256
370
   -1
100
AcDbLine
 10
-45.39861474925171
 20
21.93443906988405
 11
-31.53486178686973
 21
19.98601565644314
  0
LINE
  5
189
100
AcDbEntity
  8
sw
  6
ByLayer
 62
  256
370
   -1
100
AcDbLine
 10
-43.45019133581079
 20
35.79819203226603
 11
-45.39861474925171
 21
21.93443906988405
  0
LINE
  5
18A
100
AcDbEntity
  8
sw
  6
ByLayer
 62
  256
370
   -1
100
AcDbLine
 10
-50.34995509295956
 20
22.63030457468438
 11
-48.40153167951865
 21
36.49405753706637
  0
LINE
  5
18B
100
AcDbEntity
  8
sw
  6
ByLayer
 62
  256
370
   -1
100
AcDbLine
 10
-48.40153167951865
 20
36.49405753706637
 11
-62.26528464190062
 21
38.44248095050727
  0
LINE
  5
18C
100
AcDbEntity
  8
sw
  6
ByLayer
 62
  256
370
   -1
100
AcDbLine
 10
-64.21370805534154
 20
24.5787279881253
 11
-50.34995509295956
 21
22.63030457468438
  0
LINE
  5
18D
100
AcDbEntity
  8
sw
  6
ByLayer
 62
  256
370
   -1
100
AcDbLine
 10
-62.26528464190062
 20
38.44248095050727
 11
-64.21370805534154
 21
24.5787279881253
  0
LINE
  5
18E
100
AcDbEntity
  8
sw
  6
ByLayer
 62
  256
370
   -1
100
AcDbLine
 10
-48.29047068467834
 20
3.154139039034238
 11
-46.34204727123743
 21
17.01789200141622
  0
LINE
  5
18F
100
AcDbEntity
  8
sw
  6
ByLayer
 62
  256
370
   -1
100
AcDbLine
 10
-46.34204727123743
 20
17.01789200141622
 11
-60.2058002336194
 21
18.96631541485713
  0
LINE
  5
190
100
AcDbEntity
  8
sw
  6
ByLayer
 62
  256
370
   -1
100
AcDbLine
 10
-62.15422364706032
 20
5.102562452475151
 11
-48.29047068467834
 21
3.154139039034238
  0
LINE
  5
191
100
AcDbEntity
  8
sw
  6
ByLayer
 62
  256
370
   -1
100
AcDbLine
 10
-60.2058002336194
 20
18.96631541485713
 11
-62.15422364706032
 21
5.102562452475151
  0
LINE
  5
192
100
AcDbEntity
  8
sw
  6
ByLayer
 62
  256
370
   -1
100
AcDbLine
 10
-41.52721294987468
 20
-16.98309872617622
 11
-39.57878953643376
 21
-3.119345763794238
  0
LINE
  5
193
100
AcDbEntity
  8
sw
  6
ByLayer
 62
  256
370
   -1
100
AcDbLine
 10
-39.57878953643376
 20
-3.119345763794238
 11
-53.44254249881574
 21
-1.170922350353328
  0
LINE
  5
194
100
AcDbEntity
  8
sw
  6
ByLayer
 62
  256
370
   -1
100
AcDbLine
 10
-55.39096591225666
 20
-15.0346753127353
 11
-41.52721294987468
 21
-16.98309872617622
  0
LINE
  5
195
100
AcDbEntity
  8
sw
  6
ByLayer
 62
  256
370
   -1
100
AcDbLine
 10
-53.44254249881574
 20
-1.170922350353328
 11
-55.39096591225666
 21
-15.0346753127353
  0
LINE
  5
196
100
AcDbEntity
  8
sw
  6
ByLayer
 62
  256
370
   -1
100
AcDbLine
 10
-60.3423062559645
 20
-14.33880980793497
 11
-58.39388284252359
 21
-0.4750568455529933
  0
LINE
  5
197
100
AcDbEntity
  8
sw
  6
ByLayer
 62
  256
370
   -1
100
AcDbLine
 10
-58.39388284252359
 20
-0.4750568455529933
 11
-72.25763580490556
 21
1.473366567887917
  0
LINE
  5
198
100
AcDbEntity
  8
sw
  6
ByLayer
 62
  256
370
   -1
100
AcDbLine
 10
-74.20605921834648
 20
-12.39038639449406
 11
-60.3423062559645
 21
-14.33880980793497
  0
LINE
  5
199
100
AcDbEntity
  8
sw
  6
ByLayer
 62
  256
370
   -1
100
AcDbLine
 10
-72.25763580490556
 20
1.473366567887917
 11
-74.20605921834648
 21
-12.39038639449406
  0
LINE
  5
19A
100
AcDbEntity
  8
sw
  6
ByLayer
 62
  256
370
   -1
100
AcDbLine
 10
-67.10556399076819
 20
5.798427957275482
 11
-65.15714057732728
 21
19.66218091965746
  0
LINE
  5
19B
100
AcDbEntity
  8
sw
  6
ByLayer
 62
  256
370
   -1
100
AcDbLine
 10
-65.15714057732728
 20
19.66218091965746
 11
-79.02089353970925
 21
21.61060433309837
  0
LINE
  5
19C
100
AcDbEntity
  8
sw
  6
ByLayer
 62
  256
370
   -1
100
AcDbLine
 10
-80.96931695315017
 20
7.746851370716396
 11
-67.10556399076819
 21
5.798427957275482
  0
LINE
  5
19D
100
AcDbEntity
  8
sw
  6
ByLayer
 62
  256
370
   -1
100
AcDbLine
 10
-79.02089353970925
 20
21.61060433309837
 11
-80.96931695315017
 21
7.746851370716396
  0
LINE
  5
19E
100
AcDbEntity
  8
sw
  6
ByLayer
 62
  256
370
   -1
100
AcDbLine
 10
-69.1650483990494
 20
25.27459349292563
 11
-67.21662498560849
 21
39.13834645530761
  0
LINE
  5
19F
100
AcDbEntity
  8
sw
  6
ByLayer
 62
  256
370
   -1
100
AcDbLine
 10
-67.21662498560849
 20
39.13834645530761
 11
-81.08037794799046
 21
41.08676986874852
  0
LINE
  5
1A0
100
AcDbEntity
  8
sw
  6
ByLayer
 62
  256
370
   -1
100
AcDbLine
 10
-83.02880136143138
 20
27.22301690636654
 11
-69.1650483990494
 21
25.27459349292563
  0
LINE
  5
1A1
100
AcDbEntity
  8
sw
  6
ByLayer
 62
  256
370
   -1
100
AcDbLine
 10
-81.08037794799046
 20
41.08676986874852
 11
-83.02880136143138
 21
27.22301690636654
  0
ENDSEC
  0
SECTION
  2
OBJECTS
  0
DICTIONARY
  5
C
330
0
100
AcDbDictionary
281
    1
  3
ACAD_GROUP
350
D
  0
DICTIONARY
  5
D
330
C
100
AcDbDictionary
281
    1
  0
PLOTSETTINGS
  5
1A2
100
AcDbPlotSettings
  6
1x1
 40
0
 41
0
 42
0
 43
0
  0
ENDSEC
  0
EOF
