999
dxfrw 0.6.3
  0
SECTION
  2
HEADER
  9
$ACADVER
  1
AC1021
  9
$DWGCODEPAGE
  3
ANSI_1252
  9
$INSBASE
 10
0
 20
0
 30
0
  9
$EXTMIN
 10
-110
 20
-45
 30
0
  9
$EXTMAX
 10
110
 20
58.74499675961848
 30
0
  9
$LIMMIN
 10
0
 20
0
  9
$LIMMAX
 10
420
 20
297
  9
$ORTHOMODE
 70
    0
  9
$REGENMODE
 70
    1
  9
$FILLMODE
 70
    1
  9
$QTEXTMODE
 70
    0
  9
$MIRRTEXT
 70
    0
  9
$LTSCALE
 40
1
  9
$ATTMODE
 70
    0
  9
$TEXTSIZE
 40
2.5
  9
$TRACEWID
 40
15.68
  9
$TEXTSTYLE
  7
STANDARD
  9
$CLAYER
  8
decoupe-pi
  9
$CELTYPE
  6
BYLAYER
  9
$CECOLOR
 62
  256
  9
$CELTSCALE
 40
1
  9
$DISPSILH
 70
    0
  9
$DIMSCALE
 40
2.5
  9
$DIMASZ
 40
2.5
  9
$DIMEXO
 40
0.625
  9
$DIMDLI
 40
3.75
  9
$DIMRND
 40
0
  9
$DIMDLE
 40
0
  9
$DIMEXE
 40
1.25
  9
$DIMTP
 40
0
  9
$DIMTM
 40
0
  9
$DIMTXT
 40
2.5
  9
$DIMCEN
 40
2.5
  9
$DIMTSZ
 40
0
  9
$DIMTOL
 70
    0
  9
$DIMLIM
 70
    0
  9
$DIMTIH
 70
    0
  9
$DIMTOH
 70
    0
  9
$DIMSE1
 70
    0
  9
$DIMSE2
 70
    0
  9
$DIMTAD
 70
    1
  9
$DIMZIN
 70
    8
  9
$DIMBLK
  1

  9
$DIMASO
 70
    1
  9
$DIMSHO
 70
    1
  9
$DIMPOST
  1

  9
$DIMAPOST
  1

  9
$DIMALT
 70
    0
  9
$DIMALTD
 70
    3
  9
$DIMALTF
 40
0.03937
  9
$DIMLFAC
 40
1
  9
$DIMTOFL
 70
    1
  9
$DIMTVP
 40
0
  9
$DIMTIX
 70
    0
  9
$DIMSOXD
 70
    0
  9
$DIMSAH
 70
    0
  9
$DIMBLK1
  1

  9
$DIMBLK2
  1

  9
$DIMSTYLE
  2
STANDARD
  9
$DIMCLRD
 70
    0
  9
$DIMCLRE
 70
    0
  9
$DIMCLRT
 70
    0
  9
$DIMTFAC
 40
1
  9
$DIMGAP
 40
0.625
  9
$DIMJUST
 70
    0
  9
$DIMSD1
 70
    0
  9
$DIMSD2
 70
    0
  9
$DIMTOLJ
 70
    0
  9
$DIMTZIN
 70
    8
  9
$DIMALTZ
 70
    0
  9
$DIMALTTZ
 70
    0
  9
$DIMUPT
 70
    0
  9
$DIMDEC
 70
    2
  9
$DIMTDEC
 70
    2
  9
$DIMALTU
 70
    2
  9
$DIMALTTD
 70
    3
  9
$DIMTXSTY
  7
STANDARD
  9
$DIMAUNIT
 70
    0
  9
$DIMADEC
 70
    0
  9
$DIMALTRND
 40
0
  9
$DIMAZIN
 70
    0
  9
$DIMDSEP
 70
   44
  9
$DIMATFIT
 70
    3
  9
$DIMFRAC
 70
    0
  9
$DIMLDRBLK
  1
STANDARD
  9
$DIMLUNIT
 70
    2
  9
$DIMLWD
 70
   -2
  9
$DIMLWE
 70
   -2
  9
$DIMTMOVE
 70
    0
  9
$DIMFXL
 40
1
  9
$DIMFXLON
 70
    0
  9
$DIMJOGANG
 40
0.7854
  9
$DIMTFILL
 70
    0
  9
$DIMTFILLCLR
 70
    0
  9
$DIMARCSYM
 70
    0
  9
$DIMLTYPE
  6

  9
$DIMLTEX1
  6

  9
$DIMLTEX2
  6

  9
$LUNITS
 70
    2
  9
$LUPREC
 70
    4
  9
$SKETCHINC
 40
1
  9
$FILLETRAD
 40
0
  9
$AUNITS
 70
    0
  9
$AUPREC
 70
    2
  9
$MENU
  1
.
  9
$ELEVATION
 40
0
  9
$PELEVATION
 40
0
  9
$THICKNESS
 40
0
  9
$LIMCHECK
 70
    0
  9
$CHAMFERA
 40
0
  9
$CHAMFERB
 40
0
  9
$CHAMFERC
 40
0
  9
$CHAMFERD
 40
0
  9
$SKPOLY
 70
    0
  9
$USRTIMER
 70
    1
  9
$ANGBASE
 50
0
  9
$ANGDIR
 70
    0
  9
$PDMODE
 70
   34
  9
$PDSIZE
 40
0
  9
$PLINEWID
 40
0
  9
$SPLFRAME
 70
    0
  9
$SPLINETYPE
 70
    2
  9
$SPLINESEGS
 70
    8
  9
$HANDSEED
  5
20000
  9
$SURFTAB1
 70
    6
  9
$SURFTAB2
 70
    6
  9
$SURFTYPE
 70
    6
  9
$SURFU
 70
    6
  9
$SURFV
 70
    6
  9
$UCSBASE
  2

  9
$UCSNAME
  2

  9
$UCSORG
 10
0
 20
0
 30
0
  9
$UCSXDIR
 10
1
 20
0
 30
0
  9
$UCSYDIR
 10
0
 20
1
 30
0
  9
$UCSORTHOREF
  2

  9
$UCSORTHOVIEW
 70
    0
  9
$UCSORGTOP
 10
0
 20
0
 30
0
  9
$UCSORGBOTTOM
 10
0
 20
0
 30
0
  9
$UCSORGLEFT
 10
0
 20
0
 30
0
  9
$UCSORGRIGHT
 10
0
 20
0
 30
0
  9
$UCSORGFRONT
 10
0
 20
0
 30
0
  9
$UCSORGBACK
 10
0
 20
0
 30
0
  9
$PUCSBASE
  2

  9
$PUCSNAME
  2

  9
$PUCSORG
 10
0
 20
0
 30
0
  9
$PUCSXDIR
 10
1
 20
0
 30
0
  9
$PUCSYDIR
 10
0
 20
1
 30
0
  9
$PUCSORTHOREF
  2

  9
$PUCSORTHOVIEW
 70
    0
  9
$PUCSORGTOP
 10
0
 20
0
 30
0
  9
$PUCSORGBOTTOM
 10
0
 20
0
 30
0
  9
$PUCSORGLEFT
 10
0
 20
0
 30
0
  9
$PUCSORGRIGHT
 10
0
 20
0
 30
0
  9
$PUCSORGFRONT
 10
0
 20
0
 30
0
  9
$PUCSORGBACK
 10
0
 20
0
 30
0
  9
$USERI1
 70
    0
  9
$USERI2
 70
    0
  9
$USERI3
 70
    0
  9
$USERI4
 70
    0
  9
$USERI5
 70
    0
  9
$USERR1
 40
0
  9
$USERR2
 40
0
  9
$USERR3
 40
0
  9
$USERR4
 40
0
  9
$USERR5
 40
0
  9
$WORLDVIEW
 70
    1
  9
$SHADEDGE
 70
    3
  9
$SHADEDIF
 70
   70
  9
$TILEMODE
 70
    1
  9
$MAXACTVP
 70
   64
  9
$PINSBASE
 10
0
 20
0
 30
0
  9
$PLIMCHECK
 70
    0
  9
$PEXTMIN
 10
0
 20
0
 30
0
  9
$PEXTMAX
 10
0
 20
0
 30
0
  9
$SNAPSTYLE
 70
    0
  9
$PLIMMIN
 10
0
 20
0
  9
$PLIMMAX
 10
210
 20
297
  9
$UNITMODE
 70
    0
  9
$VISRETAIN
 70
    1
  9
$PLINEGEN
 70
    0
  9
$PSLTSCALE
 70
    1
  9
$TREEDEPTH
 70
 3020
  9
$CMLSTYLE
  2
Standard
  9
$CMLJUST
 70
    0
  9
$CMLSCALE
 40
20
  9
$PROXYGRAPHICS
 70
    1
  9
$MEASUREMENT
 70
    1
  9
$CELWEIGHT
370
   -1
  9
$ENDCAPS
280
    0
  9
$JOINSTYLE
280
    0
  9
$LWDISPLAY
290
    0
  9
$INSUNITS
 70
    0
  9
$HYPERLINKBASE
  1

  9
$STYLESHEET
  1

  9
$XEDIT
290
    1
  9
$CEPSNTYPE
380
    0
  9
$PSTYLEMODE
290
    1
  9
$EXTNAMES
290
    1
  9
$PSVPSCALE
 40
1
  9
$OLESTARTUP
290
    0
  9
$SORTENTS
280
  127
  9
$INDEXCTL
280
    0
  9
$HIDETEXT
280
    1
  9
$XCLIPFRAME
290
    0
  9
$HALOGAP
280
    0
  9
$OBSCOLOR
 70
  257
  9
$OBSLTYPE
280
    0
  9
$INTERSECTIONDISPLAY
280
    0
  9
$INTERSECTIONCOLOR
 70
  257
  9
$DIMASSOC
280
    1
  9
$PROJECTNAME
  1

  9
$CAMERADISPLAY
290
    0
  9
$LENSLENGTH
 40
50
  9
$CAMERAHEIGHT
 40
0
  9
$STEPSPERSEC
 40
2
  9
$STEPSIZE
 40
50
  9
$3DDWFPREC
 40
2
  9
$PSOLWIDTH
 40
5
  9
$PSOLHEIGHT
 40
80
  9
$LOFTANG1
 40
1.570796326794897
  9
$LOFTANG2
 40
1.570796326794897
  9
$LOFTMAG1
 40
0
  9
$LOFTMAG2
 40
0
  9
$LOFTPARAM
 70
    7
  9
$LOFTNORMALS
280
    1
  9
$LATITUDE
 40
1
  9
$LONGITUDE
 40
1
  9
$NORTHDIRECTION
 40
0
  9
$TIMEZONE
 70
-8000
  9
$LIGHTGLYPHDISPLAY
280
    1
  9
$TILEMODELIGHTSYNCH
280
    1
  9
$SOLIDHIST
280
    1
  9
$SHOWHIST
280
    1
  9
$DWFFRAME
280
    2
  9
$DGNFRAME
280
    0
  9
$REALWORLDSCALE
290
    1
  9
$INTERFERECOLOR
 62
    1
  9
$CSHADOW
280
    0
  9
$SHADOWPLANELOCATION
 40
0
  0
ENDSEC
  0
SECTION
  2
CLASSES
  0
ENDSEC
  0
SECTION
  2
TABLES
  0
TABLE
  2
VPORT
  5
8
330
0
100
AcDbSymbolTable
 70
    1
  0
VPORT
  5
31
330
2
100
AcDbSymbolTableRecord
100
AcDbViewportTableRecord
  2
*ACTIVE
 70
    0
 10
0
 20
0
 11
1
 21
1
 12
56.06451612903226
 22
42.07373271889401
 13
0
 23
0
 14
10
 24
10
 15
10
 25
10
 16
0
 26
0
 36
1
 17
0
 27
0
 37
0
 40
154.5069124423963
 41
1.450131233595801
 42
50
 43
0
 44
0
 50
0
 51
0
 71
    0
 72
  100
 73
    1
 74
    3
 75
    0
 76
    1
 77
    0
 78
    0
281
    0
 65
    1
110
0
120
0
130
0
111
1
121
0
131
0
112
0
122
1
132
0
 79
    0
146
0
348
10020
 60
    7
 61
    5
292
1
282
    1
141
0
142
0
 63
  250
421
3358443
  0
ENDTAB
  0
TABLE
  2
LTYPE
  5
5
330
0
100
AcDbSymbolTable
 70
    4
  0
LTYPE
  5
14
330
5
100
AcDbSymbolTableRecord
100
AcDbLinetypeTableRecord
  2
ByBlock
 70
    0
  3

 72
   65
 73
    0
 40
0
  0
LTYPE
  5
15
330
5
100
AcDbSymbolTableRecord
100
AcDbLinetypeTableRecord
  2
ByLayer
 70
    0
  3

 72
   65
 73
    0
 40
0
  0
LTYPE
  5
16
330
5
100
AcDbSymbolTableRecord
100
AcDbLinetypeTableRecord
  2
Continuous
 70
    0
  3
Solid line
 72
   65
 73
    0
 40
0
  0
LTYPE
  5
32
330
5
100
AcDbSymbolTableRecord
100
AcDbLinetypeTableRecord
  2
DOT
 70
    0
  3
Dot . . . . . . . . . . . . . . . . . . . . . .
 72
   65
 73
    2
 40
6.35
 49
0
 74
    0
 49
-6.35
 74
    0
  0
LTYPE
  5
33
330
5
100
AcDbSymbolTableRecord
100
AcDbLinetypeTableRecord
  2
DOTTINY
 70
    0
  3
Dot (.15x) .....................................
 72
   65
 73
    2
 40
0.9525
 49
0
 74
    0
 49
-0.9525
 74
    0
  0
LTYPE
  5
34
330
5
100
AcDbSymbolTableRecord
100
AcDbLinetypeTableRecord
  2
DOT2
 70
    0
  3
Dot (.5x) .....................................
 72
   65
 73
    2
 40
3.175
 49
0
 74
    0
 49
-3.175
 74
    0
  0
LTYPE
  5
35
330
5
100
AcDbSymbolTableRecord
100
AcDbLinetypeTableRecord
  2
DOTX2
 70
    0
  3
Dot (2x) .  .  .  .  .  .  .  .  .  .  .  .  .
 72
   65
 73
    2
 40
12.7
 49
0
 74
    0
 49
-12.7
 74
    0
  0
LTYPE
  5
36
330
5
100
AcDbSymbolTableRecord
100
AcDbLinetypeTableRecord
  2
DASHED
 70
    0
  3
Dashed _ _ _ _ _ _ _ _ _ _ _ _ _ _ _ _ _
 72
   65
 73
    2
 40
19.05
 49
12.7
 74
    0
 49
-6.35
 74
    0
  0
LTYPE
  5
37
330
5
100
AcDbSymbolTableRecord
100
AcDbLinetypeTableRecord
  2
DASHEDTINY
 70
    0
  3
Dashed (.15x) _ _ _ _ _ _ _ _ _ _ _ _ _ _ _ _ _
 72
   65
 73
    2
 40
2.8575
 49
1.905
 74
    0
 49
-0.9525
 74
    0
  0
LTYPE
  5
38
330
5
100
AcDbSymbolTableRecord
100
AcDbLinetypeTableRecord
  2
DASHED2
 70
    0
  3
Dashed (.5x) _ _ _ _ _ _ _ _ _ _ _ _ _ _ _ _ _
 72
   65
 73
    2
 40
9.524999999999999
 49
6.35
 74
    0
 49
-3.175
 74
    0
  0
LTYPE
  5
39
330
5
100
AcDbSymbolTableRecord
100
AcDbLinetypeTableRecord
  2
DASHEDX2
 70
    0
  3
Dashed (2x) ____  ____  ____  ____  ____  ___
 72
   65
 73
    2
 40
38.09999999999999
 49
25.4
 74
    0
 49
-12.7
 74
    0
  0
LTYPE
  5
3A
330
5
100
AcDbSymbolTableRecord
100
AcDbLinetypeTableRecord
  2
DASHDOT
 70
    0
  3
Dash dot __ . __ . __ . __ . __ . __ . __ . __
 72
   65
 73
    4
 40
25.4
 49
12.7
 74
    0
 49
-6.35
 74
    0
 49
0
 74
    0
 49
-6.35
 74
    0
  0
LTYPE
  5
3B
330
5
100
AcDbSymbolTableRecord
100
AcDbLinetypeTableRecord
  2
DASHDOTTINY
 70
    0
  3
Dash dot (.15x) _._._._._._._._._._._._._._._.
 72
   65
 73
    4
 40
3.81
 49
1.905
 74
    0
 49
-0.9525
 74
    0
 49
0
 74
    0
 49
-0.9525
 74
    0
  0
LTYPE
  5
3C
330
5
100
AcDbSymbolTableRecord
100
AcDbLinetypeTableRecord
  2
DASHDOT2
 70
    0
  3
Dash dot (.5x) _._._._._._._._._._._._._._._.
 72
   65
 73
    4
 40
12.7
 49
6.35
 74
    0
 49
-3.175
 74
    0
 49
0
 74
    0
 49
-3.175
 74
    0
  0
LTYPE
  5
3D
330
5
100
AcDbSymbolTableRecord
100
AcDbLinetypeTableRecord
  2
DASHDOTX2
 70
    0
  3
Dash dot (2x) ____  .  ____  .  ____  .  ___
 72
   65
 73
    4
 40
50.8
 49
25.4
 74
    0
 49
-12.7
 74
    0
 49
0
 74
    0
 49
-12.7
 74
    0
  0
LTYPE
  5
3E
330
5
100
AcDbSymbolTableRecord
100
AcDbLinetypeTableRecord
  2
DIVIDE
 70
    0
  3
Divide ____ . . ____ . . ____ . . ____ . . ____
 72
   65
 73
    6
 40
31.75
 49
12.7
 74
    0
 49
-6.35
 74
    0
 49
0
 74
    0
 49
-6.35
 74
    0
 49
0
 74
    0
 49
-6.35
 74
    0
  0
LTYPE
  5
3F
330
5
100
AcDbSymbolTableRecord
100
AcDbLinetypeTableRecord
  2
DIVIDETINY
 70
    0
  3
Divide (.15x) __..__..__..__..__..__..__..__.._
 72
   65
 73
    6
 40
4.7625
 49
1.905
 74
    0
 49
-0.9525
 74
    0
 49
0
 74
    0
 49
-0.9525
 74
    0
 49
0
 74
    0
 49
-0.9525
 74
    0
  0
LTYPE
  5
40
330
5
100
AcDbSymbolTableRecord
100
AcDbLinetypeTableRecord
  2
DIVIDE2
 70
    0
  3
Divide (.5x) __..__..__..__..__..__..__..__.._
 72
   65
 73
    6
 40
15.875
 49
6.35
 74
    0
 49
-3.175
 74
    0
 49
0
 74
    0
 49
-3.175
 74
    0
 49
0
 74
    0
 49
-3.175
 74
    0
  0
LTYPE
  5
41
330
5
100
AcDbSymbolTableRecord
100
AcDbLinetypeTableRecord
  2
DIVIDEX2
 70
    0
  3
Divide (2x) ________  .  .  ________  .  .  _
 72
   65
 73
    6
 40
63.5
 49
25.4
 74
    0
 49
-12.7
 74
    0
 49
0
 74
    0
 49
-12.7
 74
    0
 49
0
 74
    0
 49
-12.7
 74
    0
  0
LTYPE
  5
42
330
5
100
AcDbSymbolTableRecord
100
AcDbLinetypeTableRecord
  2
BORDER
 70
    0
  3
Border __ __ . __ __ . __ __ . __ __ . __ __ .
 72
   65
 73
    6
 40
44.45
 49
12.7
 74
    0
 49
-6.35
 74
    0
 49
12.7
 74
    0
 49
-6.35
 74
    0
 49
0
 74
    0
 49
-6.35
 74
    0
  0
LTYPE
  5
43
330
5
100
AcDbSymbolTableRecord
100
AcDbLinetypeTableRecord
  2
BORDERTINY
 70
    0
  3
Border (.15x) __.__.__.__.__.__.__.__.__.__.__.
 72
   65
 73
    6
 40
6.6675
 49
1.905
 74
    0
 49
-0.9525
 74
    0
 49
1.905
 74
    0
 49
-0.9525
 74
    0
 49
0
 74
    0
 49
-0.9525
 74
    0
  0
LTYPE
  5
44
330
5
100
AcDbSymbolTableRecord
100
AcDbLinetypeTableRecord
  2
BORDER2
 70
    0
  3
Border (.5x) __.__.__.__.__.__.__.__.__.__.__.
 72
   65
 73
    6
 40
22.225
 49
6.35
 74
    0
 49
-3.175
 74
    0
 49
6.35
 74
    0
 49
-3.175
 74
    0
 49
0
 74
    0
 49
-3.175
 74
    0
  0
LTYPE
  5
45
330
5
100
AcDbSymbolTableRecord
100
AcDbLinetypeTableRecord
  2
BORDERX2
 70
    0
  3
Border (2x) ____  ____  .  ____  ____  .  ___
 72
   65
 73
    6
 40
88.89999999999999
 49
25.4
 74
    0
 49
-12.7
 74
    0
 49
25.4
 74
    0
 49
-12.7
 74
    0
 49
0
 74
    0
 49
-12.7
 74
    0
  0
LTYPE
  5
46
330
5
100
AcDbSymbolTableRecord
100
AcDbLinetypeTableRecord
  2
CENTER
 70
    0
  3
Center ____ _ ____ _ ____ _ ____ _ ____ _ ____
 72
   65
 73
    4
 40
50.8
 49
31.75
 74
    0
 49
-6.35
 74
    0
 49
6.35
 74
    0
 49
-6.35
 74
    0
  0
LTYPE
  5
47
330
5
100
AcDbSymbolTableRecord
100
AcDbLinetypeTableRecord
  2
CENTERTINY
 70
    0
  3
Center (.15x) ___ _ ___ _ ___ _ ___ _ ___ _ ___
 72
   65
 73
    4
 40
7.619999999999999
 49
4.7625
 74
    0
 49
-0.9525
 74
    0
 49
0.9525
 74
    0
 49
-0.9525
 74
    0
  0
LTYPE
  5
48
330
5
100
AcDbSymbolTableRecord
100
AcDbLinetypeTableRecord
  2
CENTER2
 70
    0
  3
Center (.5x) ___ _ ___ _ ___ _ ___ _ ___ _ ___
 72
   65
 73
    4
 40
28.575
 49
19.05
 74
    0
 49
-3.175
 74
    0
 49
3.175
 74
    0
 49
-3.175
 74
    0
  0
LTYPE
  5
49
330
5
100
AcDbSymbolTableRecord
100
AcDbLinetypeTableRecord
  2
CENTERX2
 70
    0
  3
Center (2x) ________  __  ________  __  _____
 72
   65
 73
    4
 40
101.6
 49
63.5
 74
    0
 49
-12.7
 74
    0
 49
12.7
 74
    0
 49
-12.7
 74
    0
  0
ENDTAB
  0
TABLE
  2
LAYER
  5
2
330
0
100
AcDbSymbolTable
 70
    1
  0
LAYER
  5
10
330
2
100
AcDbSymbolTableRecord
100
AcDbLayerTableRecord
  2
0
 70
    4
 62
   49
420
4408131
  6
CONTINUOUS
370
    0
390
F
  0
LAYER
  5
4A
330
2
100
AcDbSymbolTableRecord
100
AcDbLayerTableRecord
  2
decoupe-pi
 70
    4
 62
    7
  6
CONTINUOUS
370
    0
390
F
  0
LAYER
  5
4B
330
2
100
AcDbSymbolTableRecord
100
AcDbLayerTableRecord
  2
edge
 70
    4
 62
    2
  6
CONTINUOUS
370
    0
390
F
  0
LAYER
  5
4C
330
2
100
AcDbSymbolTableRecord
100
AcDbLayerTableRecord
  2
int
 70
    4
 62
    9
  6
CONTINUOUS
370
    0
390
F
  0
LAYER
  5
4D
330
2
100
AcDbSymbolTableRecord
100
AcDbLayerTableRecord
  2
percage
 70
    4
 62
  136
420
32896
  6
CONTINUOUS
370
    0
390
F
  0
LAYER
  5
4E
330
2
100
AcDbSymbolTableRecord
100
AcDbLayerTableRecord
  2
rpi1
 70
    4
 62
    3
  6
CONTINUOUS
370
    0
390
F
  0
LAYER
  5
4F
330
2
100
AcDbSymbolTableRecord
100
AcDbLayerTableRecord
  2
sw
 70
    4
 62
  253
420
10526884
  6
CONTINUOUS
370
    0
390
F
  0
ENDTAB
  0
TABLE
  2
STYLE
  5
3
330
0
100
AcDbSymbolTable
 70
    3
  0
STYLE
  5
50
330
2
100
AcDbSymbolTableRecord
100
AcDbTextStyleTableRecord
  2
Standard
 70
    0
 40
0
 41
1
 50
0
 71
    0
 42
1
  3
txt
  4

  0
ENDTAB
  0
TABLE
  2
VIEW
  5
6
330
0
100
AcDbSymbolTable
 70
    0
  0
ENDTAB
  0
TABLE
  2
UCS
  5
7
330
0
100
AcDbSymbolTable
 70
    0
  0
ENDTAB
  0
TABLE
  2
APPID
  5
9
330
0
100
AcDbSymbolTable
 70
    1
  0
APPID
  5
12
330
9
100
AcDbSymbolTableRecord
100
AcDbRegAppTableRecord
  2
ACAD
 70
    0
  0
APPID
  5
51
330
9
100
AcDbSymbolTableRecord
100
AcDbRegAppTableRecord
  2
LibreCad
 70
    0
  0
ENDTAB
  0
TABLE
  2
DIMSTYLE
  5
A
330
0
100
AcDbSymbolTable
 70
    1
100
AcDbDimStyleTable
 71
    1
  0
DIMSTYLE
105
52
330
A
100
AcDbSymbolTableRecord
100
AcDbDimStyleTableRecord
  2
Standard
 70
    0
 40
1
 41
2.5
 42
0.625
 43
0.38
 44
1.25
 45
0
 46
0
 47
0
 48
0
 49
1
140
2.5
141
0.09
142
2.5
143
25.4
144
1
145
0
146
1
147
0.625
148
0
 71
    0
 72
    0
 73
    0
 74
    1
 75
    0
 76
    0
 77
    0
 78
    1
 79
    0
170
    0
171
    2
172
    0
173
    0
174
    0
175
    0
176
    0
177
    0
178
    0
179
    0
271
    2
272
    4
273
    2
274
    2
275
    0
276
    0
277
    2
278
    0
279
    0
280
    0
281
    0
282
    0
283
    1
284
    0
285
    0
286
    0
288
    0
289
    3
340
standard
341

371
   -2
372
   -2
  0
ENDTAB
  0
TABLE
  2
BLOCK_RECORD
  5
1
330
0
100
AcDbSymbolTable
 70
    2
  0
BLOCK_RECORD
  5
1F
330
1
100
AcDbSymbolTableRecord
100
AcDbBlockTableRecord
  2
*Model_Space
 70
    0
280
    1
281
    0
  0
BLOCK_RECORD
  5
1E
330
1
100
AcDbSymbolTableRecord
100
AcDbBlockTableRecord
  2
*Paper_Space
 70
    0
280
    1
281
    0
  0
ENDTAB
  0
ENDSEC
  0
SECTION
  2
BLOCKS
  0
BLOCK
  5
20
330
1F
100
AcDbEntity
  8
0
100
AcDbBlockBegin
  2
*Model_Space
 70
    0
 10
0
 20
0
 30
0
  3
*Model_Space
  1

  0
ENDBLK
  5
21
330
1F
100
AcDbEntity
  8
0
100
AcDbBlockEnd
  0
BLOCK
  5
1C
330
1B
100
AcDbEntity
  8
0
100
AcDbBlockBegin
  2
*Paper_Space
 70
    0
 10
0
 20
0
 30
0
  3
*Paper_Space
  1

  0
ENDBLK
  5
1D
330
1F
100
AcDbEntity
  8
0
100
AcDbBlockEnd
  0
ENDSEC
  0
SECTION
  2
ENTITIES
  0
LWPOLYLINE
  5
53
100
AcDbEntity
  8
0
  6
ByLayer
 62
  256
370
   -1
100
AcDbPolyline
 90
    4
 70
    1
 43
0
 10
-105.2628524319685
 20
25.51548976469131
 10
-86.40447555078337
 20
23.1999722399935
 10
-84.08895802608556
 20
42.05834912117862
 10
-102.9473349072707
 20
44.37386664587643
  0
LWPOLYLINE
  5
54
100
AcDbEntity
  8
0
  6
ByLayer
 62
  256
370
   -1
100
AcDbPolyline
 90
    4
 70
    1
 43
0
 10
-86.40447555078337
 20
23.1999722399935
 10
-67.54609866959825
 20
20.8844547152957
 10
-65.23058114490044
 20
39.74283159648083
 10
-84.08895802608556
 20
42.05834912117862
  0
LWPOLYLINE
  5
55
100
AcDbEntity
  8
0
  6
ByLayer
 62
  256
370
   -1
100
AcDbPolyline
 90
    4
 70
    1
 43
0
 10
-67.54609866959825
 20
20.8844547152957
 10
-48.68772178841314
 20
18.5689371905979
 10
-46.37220426371533
 20
37.42731407178302
 10
-65.23058114490044
 20
39.74283159648083
  0
LWPOLYLINE
  5
56
100
AcDbEntity
  8
0
  6
ByLayer
 62
  256
370
   -1
100
AcDbPolyline
 90
    4
 70
    1
 43
0
 10
-48.68772178841314
 20
18.5689371905979
 10
-29.82934490722802
 20
16.25341966590009
 10
-27.51382738253021
 20
35.11179654708522
 10
-46.37220426371533
 20
37.42731407178302
  0
LWPOLYLINE
  5
57
100
AcDbEntity
  8
0
  6
ByLayer
 62
  256
370
   -1
100
AcDbPolyline
 90
    4
 70
    1
 43
0
 10
-29.82934490722802
 20
16.25341966590009
 10
-10.9709680260429
 20
13.93790214120229
 10
-8.655450501345106
 20
32.79627902238742
 10
-27.51382738253021
 20
35.11179654708522
  0
LWPOLYLINE
  5
58
100
AcDbEntity
  8
0
  6
ByLayer
 62
  256
370
   -1
100
AcDbPolyline
 90
    4
 70
    1
 43
0
 10
-27.43026821162954
 20
-3.183836596459475
 10
-8.571891330444421
 20
-5.499354121157276
 10
-6.256373805746624
 20
13.35902276002784
 10
-25.11475068693175
 20
15.67454028472565
  0
LWPOLYLINE
  5
59
100
AcDbEntity
  8
0
  6
ByLayer
 62
  256
370
   -1
100
AcDbPolyline
 90
    4
 70
    1
 43
0
 10
-46.28864509281466
 20
-0.868319071761673
 10
-27.43026821162954
 20
-3.183836596459475
 10
-25.11475068693175
 20
15.67454028472565
 10
-43.97312756811686
 20
17.99005780942344
  0
LWPOLYLINE
  5
5A
100
AcDbEntity
  8
0
  6
ByLayer
 62
  256
370
   -1
100
AcDbPolyline
 90
    4
 70
    1
 43
0
 10
-65.14702197399977
 20
1.44719845293613
 10
-46.28864509281466
 20
-0.868319071761673
 10
-43.97312756811686
 20
17.99005780942344
 10
-62.83150444930197
 20
20.30557533412125
  0
LWPOLYLINE
  5
5B
100
AcDbEntity
  8
0
  6
ByLayer
 62
  256
370
   -1
100
AcDbPolyline
 90
    4
 70
    1
 43
0
 10
-84.00539885518489
 20
3.762715977633932
 10
-65.14702197399977
 20
1.44719845293613
 10
-62.83150444930197
 20
20.30557533412125
 10
-81.6898813304871
 20
22.62109285881905
  0
LWPOLYLINE
  5
5C
100
AcDbEntity
  8
0
  6
ByLayer
 62
  256
370
   -1
100
AcDbPolyline
 90
    4
 70
    1
 43
0
 10
-84.00539885518489
 20
3.762715977633932
 10
-107.5783699566663
 20
6.657112883506184
 10
-105.2628524319685
 20
25.51548976469131
 10
-81.6898813304871
 20
22.62109285881905
  0
LWPOLYLINE
  5
5D
100
AcDbEntity
  8
0
  6
ByLayer
 62
  256
370
   -1
100
AcDbPolyline
 90
    4
 70
    1
 43
0
 10
-76.89172793929013
 20
-16.25341966590009
 10
-58.03335105810503
 20
-18.56893719059789
 10
-55.71783353340722
 20
0.2894396905872287
 10
-74.57621041459234
 20
2.60495721528503
  0
LWPOLYLINE
  5
5E
100
AcDbEntity
  8
0
  6
ByLayer
 62
  256
370
   -1
100
AcDbPolyline
 90
    4
 70
    1
 43
0
 10
-58.03335105810503
 20
-18.56893719059789
 10
-39.17497417691991
 20
-20.88445471529569
 10
-36.85945665222211
 20
-2.026077834110575
 10
-55.71783353340722
 20
0.2894396905872287
  0
LWPOLYLINE
  5
5F
100
AcDbEntity
  8
0
  6
ByLayer
 62
  256
370
   -1
100
AcDbPolyline
 90
    4
 70
    1
 43
0
 10
-39.17497417691991
 20
-20.88445471529569
 10
-20.31659729573478
 20
-23.19997223999349
 10
-18.00107977103699
 20
-4.341595358808374
 10
-36.85945665222211
 20
-2.026077834110575
  0
LWPOLYLINE
  5
60
100
AcDbEntity
  8
0
  6
ByLayer
 62
  256
370
   -1
100
AcDbPolyline
 90
    4
 70
    1
 43
0
 10
-20.31659729573478
 20
-23.19997223999349
 10
-1.458220414549662
 20
-25.5154897646913
 10
0.8572971101481339
 20
-6.657112883506177
 10
-18.00107977103699
 20
-4.341595358808374
  0
LWPOLYLINE
  5
61
100
AcDbEntity
  8
0
  6
ByLayer
 62
  256
370
   -1
100
AcDbPolyline
 90
    4
 70
    1
 43
0
 10
-76.89172793929013
 20
-16.25341966590009
 10
-109.8938874813641
 20
-12.20126399767893
 10
-107.5783699566663
 20
6.657112883506184
 10
-74.57621041459234
 20
2.60495721528503
  0
LWPOLYLINE
  5
62
100
AcDbEntity
  8
0
  6
ByLayer
 62
  256
370
   -1
100
AcDbPolyline
 90
    4
 70
    1
 43
0
 10
-65.0634628030991
 20
-36.84843469060856
 10
-36.77589748132143
 20
-40.32171097765526
 10
-34.46037995662362
 20
-21.46333409647014
 10
-62.7479452784013
 20
-17.99005780942344
  0
LWPOLYLINE
  5
63
100
AcDbEntity
  8
0
  6
ByLayer
 62
  256
370
   -1
100
AcDbPolyline
 90
    4
 70
    1
 43
0
 10
-34.46037995662362
 20
-21.46333409647014
 10
-1.458220414549662
 20
-25.5154897646913
 10
-3.773737939247472
 20
-44.37386664587641
 10
-36.77589748132143
 20
-40.32171097765526
  0
LWPOLYLINE
  5
64
100
AcDbEntity
  8
0
  6
ByLayer
 62
  256
370
   -1
100
AcDbPolyline
 90
    4
 70
    1
 43
0
 10
6.17281463484593
 20
-25.5154897646913
 10
25.03119151603105
 20
-23.19997223999349
 10
22.71567399133324
 20
-4.341595358808374
 10
3.857297110148134
 20
-6.657112883506177
  0
LWPOLYLINE
  5
65
100
AcDbEntity
  8
0
  6
ByLayer
 62
  256
370
   -1
100
AcDbPolyline
 90
    4
 70
    1
 43
0
 10
25.03119151603105
 20
-23.19997223999349
 10
43.88956839721619
 20
-20.88445471529569
 10
41.57405087251838
 20
-2.026077834110575
 10
22.71567399133324
 20
-4.341595358808374
  0
LWPOLYLINE
  5
66
100
AcDbEntity
  8
0
  6
ByLayer
 62
  256
370
   -1
100
AcDbPolyline
 90
    4
 70
    1
 43
0
 10
43.88956839721619
 20
-20.88445471529569
 10
62.7479452784013
 20
-18.56893719059789
 10
60.43242775370349
 20
0.2894396905872287
 10
41.57405087251838
 20
-2.026077834110575
  0
LWPOLYLINE
  5
67
100
AcDbEntity
  8
0
  6
ByLayer
 62
  256
370
   -1
100
AcDbPolyline
 90
    4
 70
    1
 43
0
 10
62.7479452784013
 20
-18.56893719059789
 10
81.60632215958641
 20
-16.25341966590009
 10
79.29080463488863
 20
2.60495721528503
 10
60.43242775370349
 20
0.2894396905872287
  0
LWPOLYLINE
  5
68
100
AcDbEntity
  8
0
  6
ByLayer
 62
  256
370
   -1
100
AcDbPolyline
 90
    4
 70
    1
 43
0
 10
13.28648555074069
 20
-5.499354121157276
 10
32.14486243192579
 20
-3.183836596459475
 10
29.82934490722802
 20
15.67454028472565
 10
10.97096802604289
 20
13.35902276002784
  0
LWPOLYLINE
  5
69
100
AcDbEntity
  8
0
  6
ByLayer
 62
  256
370
   -1
100
AcDbPolyline
 90
    4
 70
    1
 43
0
 10
32.14486243192579
 20
-3.183836596459475
 10
51.00323931311093
 20
-0.868319071761673
 10
48.68772178841312
 20
17.99005780942344
 10
29.82934490722802
 20
15.67454028472565
  0
LWPOLYLINE
  5
6A
100
AcDbEntity
  8
0
  6
ByLayer
 62
  256
370
   -1
100
AcDbPolyline
 90
    4
 70
    1
 43
0
 10
51.00323931311093
 20
-0.868319071761673
 10
69.86161619429605
 20
1.44719845293613
 10
67.54609866959824
 20
20.30557533412125
 10
48.68772178841312
 20
17.99005780942344
  0
LWPOLYLINE
  5
6B
100
AcDbEntity
  8
0
  6
ByLayer
 62
  256
370
   -1
100
AcDbPolyline
 90
    4
 70
    1
 43
0
 10
69.86161619429605
 20
1.44719845293613
 10
88.71999307548118
 20
3.762715977633932
 10
86.40447555078337
 20
22.62109285881905
 10
67.54609866959824
 20
20.30557533412125
  0
LWPOLYLINE
  5
6C
100
AcDbEntity
  8
0
  6
ByLayer
 62
  256
370
   -1
100
AcDbPolyline
 90
    4
 70
    1
 43
0
 10
88.71999307548118
 20
3.762715977633932
 10
107.5783699566663
 20
6.078233502331734
 10
105.2628524319685
 20
24.93661038351685
 10
86.40447555078337
 20
22.62109285881905
  0
LWPOLYLINE
  5
6D
100
AcDbEntity
  8
0
  6
ByLayer
 62
  256
370
   -1
100
AcDbPolyline
 90
    4
 70
    1
 43
0
 10
6.256373805746615
 20
12.78014337885339
 10
25.11475068693174
 20
15.09566090355119
 10
22.79923316223393
 20
33.95403778473632
 10
3.940856281048805
 20
31.63852026003851
  0
LWPOLYLINE
  5
6E
100
AcDbEntity
  8
0
  6
ByLayer
 62
  256
370
   -1
100
AcDbPolyline
 90
    4
 70
    1
 43
0
 10
25.11475068693174
 20
15.09566090355119
 10
43.97312756811684
 20
17.411178428249
 10
41.65761004341903
 20
36.26955530943412
 10
22.79923316223393
 20
33.95403778473632
  0
LWPOLYLINE
  5
6F
100
AcDbEntity
  8
0
  6
ByLayer
 62
  256
370
   -1
100
AcDbPolyline
 90
    4
 70
    1
 43
0
 10
43.97312756811684
 20
17.411178428249
 10
62.83150444930195
 20
19.7266959529468
 10
60.51598692460414
 20
38.58507283413192
 10
41.65761004341903
 20
36.26955530943412
  0
LWPOLYLINE
  5
70
100
AcDbEntity
  8
0
  6
ByLayer
 62
  256
370
   -1
100
AcDbPolyline
 90
    4
 70
    1
 43
0
 10
62.83150444930195
 20
19.7266959529468
 10
81.6898813304871
 20
22.0422134776446
 10
79.37436380578929
 20
40.90059035882972
 10
60.51598692460414
 20
38.58507283413192
  0
LWPOLYLINE
  5
71
100
AcDbEntity
  8
0
  6
ByLayer
 62
  256
370
   -1
100
AcDbPolyline
 90
    4
 70
    1
 43
0
 10
79.37436380578929
 20
40.90059035882972
 10
102.9473349072707
 20
43.79498726470197
 10
105.2628524319685
 20
24.93661038351685
 10
81.6898813304871
 20
22.0422134776446
  0
LWPOLYLINE
  5
72
100
AcDbEntity
  8
0
  6
ByLayer
 62
  256
370
   -1
100
AcDbPolyline
 90
    4
 70
    1
 43
0
 10
81.60632215958641
 20
-16.25341966590009
 10
109.8938874813641
 20
-12.78014337885339
 10
107.5783699566663
 20
6.078233502331734
 10
79.29080463488863
 20
2.60495721528503
  0
LWPOLYLINE
  5
73
100
AcDbEntity
  8
0
  6
ByLayer
 62
  256
370
   -1
100
AcDbPolyline
 90
    4
 70
    1
 43
0
 10
8.48833215954374
 20
-44.37386664587641
 10
46.20508592191397
 20
-39.7428315964808
 10
43.88956839721619
 20
-20.88445471529569
 10
6.17281463484593
 20
-25.5154897646913
  0
ARC
  5
74
100
AcDbEntity
  8
edge
  6
ByLayer
 62
  256
370
   -1
100
AcDbCircle
 10
-105
 20
40
 40
5
100
AcDbArc
 50
90
 51
180
  0
LINE
  5
75
100
AcDbEntity
  8
edge
  6
ByLayer
 62
  256
370
   -1
100
AcDbLine
 10
-110
 20
-40
 11
-110
 21
40
  0
ARC
  5
76
100
AcDbEntity
  8
edge
  6
ByLayer
 62
  256
370
   -1
100
AcDbCircle
 10
-105
 20
-40
 40
5
100
AcDbArc
 50
180
 51
270.0000000000002
  0
LINE
  5
77
100
AcDbEntity
  8
edge
  6
ByLayer
 62
  256
370
   -1
100
AcDbLine
 10
105
 20
-45
 11
-105
 21
-45
  0
ARC
  5
78
100
AcDbEntity
  8
edge
  6
ByLayer
 62
  256
370
   -1
100
AcDbCircle
 10
105
 20
-40
 40
5
100
AcDbArc
 50
269.9999999999998
 51
0
  0
LINE
  5
79
100
AcDbEntity
  8
edge
  6
ByLayer
 62
  256
370
   -1
100
AcDbLine
 10
110
 20
-40
 11
110
 21
39.99999999999999
  0
LINE
  5
7A
100
AcDbEntity
  8
edge
  6
ByLayer
 62
  256
370
   -1
100
AcDbLine
 10
105
 20
45
 11
-105
 21
45
  0
ARC
  5
7B
100
AcDbEntity
  8
edge
  6
ByLayer
 62
  256
370
   -1
100
AcDbCircle
 10
105
 20
40
 40
5
100
AcDbArc
 50
359.9999999999998
 51
90
  0
LWPOLYLINE
  5
7C
100
AcDbEntity
  8
0
  6
ByLayer
 62
  256
370
   -1
100
AcDbPolyline
 90
    4
 70
    1
 43
0
 10
-107.4948107857656
 20
-31.6385202600385
 10
-83.92183968428422
 20
-34.53291716591075
 10
-81.60632215958643
 20
-15.67454028472563
 10
-105.1792932610678
 20
-12.78014337885339
  0
LWPOLYLINE
  5
7D
100
AcDbEntity
  8
0
  6
ByLayer
 62
  256
370
   -1
100
AcDbPolyline
 90
    4
 70
    1
 43
0
 10
-83.92183968428421
 20
-34.53291716591075
 10
-65.06346280309909
 20
-36.84843469060856
 10
-62.74794527840129
 20
-17.99005780942344
 10
-81.60632215958641
 20
-15.67454028472564
  0
LWPOLYLINE
  5
7E
100
AcDbEntity
  8
0
  6
ByLayer
 62
  256
370
   -1
100
AcDbPolyline
 90
    4
 70
    1
 43
0
 10
83.92183968428418
 20
-35.11179654708521
 10
107.4948107857656
 20
-32.21739964121296
 10
105.1792932610678
 20
-13.35902276002784
 10
81.6063221595864
 20
-16.2534196659001
  0
LWPOLYLINE
  5
7F
100
AcDbEntity
  8
0
  6
ByLayer
 62
  256
370
   -1
100
AcDbPolyline
 90
    4
 70
    1
 43
0
 10
46.20508592191399
 20
-39.7428315964808
 10
65.0634628030991
 20
-37.427314071783
 10
62.74794527840129
 20
-18.56893719059789
 10
43.88956839721618
 20
-20.88445471529569
  0
LWPOLYLINE
  5
80
100
AcDbEntity
  8
0
  6
ByLayer
 62
  256
370
   -1
100
AcDbPolyline
 90
    4
 70
    1
 43
0
 10
65.06346280309909
 20
-37.42731407178301
 10
83.92183968428419
 20
-35.11179654708521
 10
81.60632215958638
 20
-16.25341966590009
 10
62.74794527840128
 20
-18.56893719059789
  0
CIRCLE
  5
81
100
AcDbEntity
  8
percage
  6
ByLayer
 62
  256
370
   -1
100
AcDbCircle
 10
105
 20
40
 40
1.5
  0
CIRCLE
  5
82
100
AcDbEntity
  8
percage
  6
ByLayer
 62
  256
370
   -1
100
AcDbCircle
 10
105
 20
-40
 40
1.5
  0
CIRCLE
  5
83
100
AcDbEntity
  8
percage
  6
ByLayer
 62
  256
370
   -1
100
AcDbCircle
 10
-105
 20
-40
 40
1.5
  0
CIRCLE
  5
84
100
AcDbEntity
  8
percage
  6
ByLayer
 62
  256
370
   -1
100
AcDbCircle
 10
-105
 20
40
 40
1.5
  0
CIRCLE
  5
85
100
AcDbEntity
  8
percage
  6
ByLayer
 62
  256
370
   -1
100
AcDbCircle
 10
2.357297110148135
 20
-32.74960097473294
 40
1.5
  0
LINE
  5
86
100
AcDbEntity
  8
sw
  6
ByLayer
 62
  256
370
   -1
100
AcDbLine
 10
-13.14766004663334
 20
16.72394087881847
 11
-11.44148923896128
 21
30.61958700179698
  0
LINE
  5
87
100
AcDbEntity
  8
sw
  6
ByLayer
 62
  256
370
   -1
100
AcDbLine
 10
-13.14766004663334
 20
16.72394087881847
 11
-27.04330616961185
 21
18.43011168649053
  0
LINE
  5
88
100
AcDbEntity
  8
sw
  6
ByLayer
 62
  256
370
   -1
100
AcDbLine
 10
-11.44148923896128
 20
30.61958700179698
 11
-25.33713536193978
 21
32.32575780946905
  0
LINE
  5
89
100
AcDbEntity
  8
sw
  6
ByLayer
 62
  256
370
   -1
100
AcDbLine
 10
-25.33713536193978
 20
32.32575780946905
 11
-27.04330616961185
 21
18.43011168649053
  0
LINE
  5
8A
100
AcDbEntity
  8
sw
  6
ByLayer
 62
  256
370
   -1
100
AcDbLine
 10
-32.00603692781846
 20
19.03945840351627
 11
-30.2998661201464
 21
32.93510452649478
  0
LINE
  5
8B
100
AcDbEntity
  8
sw
  6
ByLayer
 62
  256
370
   -1
100
AcDbLine
 10
-32.00603692781846
 20
19.03945840351627
 11
-45.90168305079697
 21
20.74562921118834
  0
LINE
  5
8C
100
AcDbEntity
  8
sw
  6
ByLayer
 62
  256
370
   -1
100
AcDbLine
 10
-30.2998661201464
 20
32.93510452649478
 11
-44.1955122431249
 21
34.64127533416685
  0
LINE
  5
8D
100
AcDbEntity
  8
sw
  6
ByLayer
 62
  256
370
   -1
100
AcDbLine
 10
-44.1955122431249
 20
34.64127533416685
 11
-45.90168305079697
 21
20.74562921118834
  0
LINE
  5
8E
100
AcDbEntity
  8
sw
  6
ByLayer
 62
  256
370
   -1
100
AcDbLine
 10
-29.60696023221998
 20
-0.3977978588433118
 11
-27.90078942454792
 21
13.4978482641352
  0
LINE
  5
8F
100
AcDbEntity
  8
sw
  6
ByLayer
 62
  256
370
   -1
100
AcDbLine
 10
-29.60696023221998
 20
-0.3977978588433118
 11
-43.50260635519849
 21
1.308372948828755
  0
LINE
  5
90
100
AcDbEntity
  8
sw
  6
ByLayer
 62
  256
370
   -1
100
AcDbLine
 10
-27.90078942454792
 20
13.4978482641352
 11
-41.79643554752641
 21
15.20401907180727
  0
LINE
  5
91
100
AcDbEntity
  8
sw
  6
ByLayer
 62
  256
370
   -1
100
AcDbLine
 10
-41.79643554752641
 20
15.20401907180727
 11
-43.50260635519849
 21
1.308372948828755
  0
LINE
  5
92
100
AcDbEntity
  8
sw
  6
ByLayer
 62
  256
370
   -1
100
AcDbLine
 10
-10.74858335103487
 20
-2.713315383541108
 11
-9.042412543362818
 21
11.1823307394374
  0
LINE
  5
93
100
AcDbEntity
  8
sw
  6
ByLayer
 62
  256
370
   -1
100
AcDbLine
 10
-10.74858335103487
 20
-2.713315383541108
 11
-24.64422947401338
 21
-1.007144575869042
  0
LINE
  5
94
100
AcDbEntity
  8
sw
  6
ByLayer
 62
  256
370
   -1
100
AcDbLine
 10
-9.042412543362818
 20
11.1823307394374
 11
-22.93805866634131
 21
12.88850154710947
  0
LINE
  5
95
100
AcDbEntity
  8
sw
  6
ByLayer
 62
  256
370
   -1
100
AcDbLine
 10
-22.93805866634131
 20
12.88850154710947
 11
-24.64422947401338
 21
-1.007144575869042
  0
LINE
  5
96
100
AcDbEntity
  8
sw
  6
ByLayer
 62
  256
370
   -1
100
AcDbLine
 10
-3.634912435140116
 20
-22.72945102707513
 11
-1.92874162746806
 21
-8.833804904096615
  0
LINE
  5
97
100
AcDbEntity
  8
sw
  6
ByLayer
 62
  256
370
   -1
100
AcDbLine
 10
-3.634912435140116
 20
-22.72945102707513
 11
-17.53055855811862
 21
-21.02328021940306
  0
LINE
  5
98
100
AcDbEntity
  8
sw
  6
ByLayer
 62
  256
370
   -1
100
AcDbLine
 10
-1.92874162746806
 20
-8.833804904096615
 11
-15.82438775044655
 21
-7.127634096424549
  0
LINE
  5
99
100
AcDbEntity
  8
sw
  6
ByLayer
 62
  256
370
   -1
100
AcDbLine
 10
-15.82438775044655
 20
-7.127634096424549
 11
-17.53055855811862
 21
-21.02328021940306
  0
LINE
  5
9A
100
AcDbEntity
  8
sw
  6
ByLayer
 62
  256
370
   -1
100
AcDbLine
 10
-22.49328931632524
 20
-20.41393350237733
 11
-20.78711850865319
 21
-6.518287379398815
  0
LINE
  5
9B
100
AcDbEntity
  8
sw
  6
ByLayer
 62
  256
370
   -1
100
AcDbLine
 10
-22.49328931632524
 20
-20.41393350237733
 11
-36.38893543930375
 21
-18.70776269470526
  0
LINE
  5
9C
100
AcDbEntity
  8
sw
  6
ByLayer
 62
  256
370
   -1
100
AcDbLine
 10
-20.78711850865319
 20
-6.518287379398815
 11
-34.68276463163168
 21
-4.812116571726748
  0
LINE
  5
9D
100
AcDbEntity
  8
sw
  6
ByLayer
 62
  256
370
   -1
100
AcDbLine
 10
-34.68276463163168
 20
-4.812116571726748
 11
-36.38893543930375
 21
-18.70776269470526
  0
LINE
  5
9E
100
AcDbEntity
  8
sw
  6
ByLayer
 62
  256
370
   -1
100
AcDbLine
 10
-41.35166619751034
 20
-18.09841597767952
 11
-39.64549538983829
 21
-4.202769854701012
  0
LINE
  5
9F
100
AcDbEntity
  8
sw
  6
ByLayer
 62
  256
370
   -1
100
AcDbLine
 10
-41.35166619751034
 20
-18.09841597767952
 11
-55.24731232048885
 21
-16.39224517000746
  0
LINE
  5
A0
100
AcDbEntity
  8
sw
  6
ByLayer
 62
  256
370
   -1
100
AcDbLine
 10
-39.64549538983829
 20
-4.202769854701012
 11
-53.54114151281678
 21
-2.496599047028946
  0
LINE
  5
A1
100
AcDbEntity
  8
sw
  6
ByLayer
 62
  256
370
   -1
100
AcDbLine
 10
-53.54114151281678
 20
-2.496599047028946
 11
-55.24731232048885
 21
-16.39224517000746
  0
LINE
  5
A2
100
AcDbEntity
  8
sw
  6
ByLayer
 62
  256
370
   -1
100
AcDbLine
 10
-13.02232129028233
 20
-40.71950883649856
 11
-11.31615048261028
 21
-26.82386271352005
  0
LINE
  5
A3
100
AcDbEntity
  8
sw
  6
ByLayer
 62
  256
370
   -1
100
AcDbLine
 10
-13.02232129028233
 20
-40.71950883649856
 11
-26.91796741326084
 21
-39.0133380288265
  0
LINE
  5
A4
100
AcDbEntity
  8
sw
  6
ByLayer
 62
  256
370
   -1
100
AcDbLine
 10
-11.31615048261028
 20
-26.82386271352005
 11
-25.21179660558877
 21
-25.11769190584798
  0
LINE
  5
A5
100
AcDbEntity
  8
sw
  6
ByLayer
 62
  256
370
   -1
100
AcDbLine
 10
-25.21179660558877
 20
-25.11769190584798
 11
-26.91796741326084
 21
-39.0133380288265
  0
LINE
  5
A6
100
AcDbEntity
  8
sw
  6
ByLayer
 62
  256
370
   -1
100
AcDbLine
 10
-43.66718372220814
 20
-36.95679285886463
 11
-41.96101291453608
 21
-23.06114673588612
  0
LINE
  5
A7
100
AcDbEntity
  8
sw
  6
ByLayer
 62
  256
370
   -1
100
AcDbLine
 10
-43.66718372220814
 20
-36.95679285886463
 11
-57.56282984518665
 21
-35.25062205119256
  0
LINE
  5
A8
100
AcDbEntity
  8
sw
  6
ByLayer
 62
  256
370
   -1
100
AcDbLine
 10
-41.96101291453608
 20
-23.06114673588612
 11
-55.85665903751458
 21
-21.35497592821405
  0
LINE
  5
A9
100
AcDbEntity
  8
sw
  6
ByLayer
 62
  256
370
   -1
100
AcDbLine
 10
-55.85665903751458
 20
-21.35497592821405
 11
-57.56282984518665
 21
-35.25062205119256
  0
LINE
  5
AA
100
AcDbEntity
  8
sw
  6
ByLayer
 62
  256
370
   -1
100
AcDbLine
 10
-88.45582881502278
 20
-31.45743873770735
 11
-86.74965800735072
 21
-17.56179261472884
  0
LINE
  5
AB
100
AcDbEntity
  8
sw
  6
ByLayer
 62
  256
370
   -1
100
AcDbLine
 10
-88.45582881502278
 20
-31.45743873770735
 11
-102.3514749380013
 21
-29.75126793003528
  0
LINE
  5
AC
100
AcDbEntity
  8
sw
  6
ByLayer
 62
  256
370
   -1
100
AcDbLine
 10
-86.74965800735072
 20
-17.56179261472884
 11
-100.6453041303292
 21
-15.85562180705677
  0
LINE
  5
AD
100
AcDbEntity
  8
sw
  6
ByLayer
 62
  256
370
   -1
100
AcDbLine
 10
-100.6453041303292
 20
-15.85562180705677
 11
-102.3514749380013
 21
-29.75126793003528
  0
LINE
  5
AE
100
AcDbEntity
  8
sw
  6
ByLayer
 62
  256
370
   -1
100
AcDbLine
 10
-86.140311290325
 20
-12.59906185652224
 11
-84.43414048265294
 21
1.296584266456277
  0
LINE
  5
AF
100
AcDbEntity
  8
sw
  6
ByLayer
 62
  256
370
   -1
100
AcDbLine
 10
-86.140311290325
 20
-12.59906185652224
 11
-100.0359574133035
 21
-10.89289104885017
  0
LINE
  5
B0
100
AcDbEntity
  8
sw
  6
ByLayer
 62
  256
370
   -1
100
AcDbLine
 10
-84.43414048265294
 20
1.296584266456277
 11
-98.32978660563143
 21
3.002755074128343
  0
LINE
  5
B1
100
AcDbEntity
  8
sw
  6
ByLayer
 62
  256
370
   -1
100
AcDbLine
 10
-98.32978660563143
 20
3.002755074128343
 11
-100.0359574133035
 21
-10.89289104885017
  0
LINE
  5
B2
100
AcDbEntity
  8
sw
  6
ByLayer
 62
  256
370
   -1
100
AcDbLine
 10
-88.53938798592347
 20
6.838194405837335
 11
-86.83321717825143
 21
20.73384052881585
  0
LINE
  5
B3
100
AcDbEntity
  8
sw
  6
ByLayer
 62
  256
370
   -1
100
AcDbLine
 10
-88.53938798592347
 20
6.838194405837335
 11
-102.435034108902
 21
8.544365213509401
  0
LINE
  5
B4
100
AcDbEntity
  8
sw
  6
ByLayer
 62
  256
370
   -1
100
AcDbLine
 10
-86.83321717825143
 20
20.73384052881585
 11
-100.7288633012299
 21
22.44001133648791
  0
LINE
  5
B5
100
AcDbEntity
  8
sw
  6
ByLayer
 62
  256
370
   -1
100
AcDbLine
 10
-100.7288633012299
 20
22.44001133648791
 11
-102.435034108902
 21
8.544365213509401
  0
LINE
  5
B6
100
AcDbEntity
  8
sw
  6
ByLayer
 62
  256
370
   -1
100
AcDbLine
 10
104.7923312190501
 20
8.254925522922168
 11
90.89668509607162
 21
6.548754715250105
  0
LINE
  5
B7
100
AcDbEntity
  8
sw
  6
ByLayer
 62
  256
370
   -1
100
AcDbLine
 10
104.7923312190501
 20
8.254925522922168
 11
103.086160411378
 21
22.15057164590068
  0
LINE
  5
B8
100
AcDbEntity
  8
sw
  6
ByLayer
 62
  256
370
   -1
100
AcDbLine
 10
89.19051428839956
 20
20.44440083822861
 11
90.89668509607162
 21
6.548754715250105
  0
LINE
  5
B9
100
AcDbEntity
  8
sw
  6
ByLayer
 62
  256
370
   -1
100
AcDbLine
 10
103.086160411378
 20
22.15057164590068
 11
89.19051428839956
 21
20.44440083822861
  0
LINE
  5
BA
100
AcDbEntity
  8
sw
  6
ByLayer
 62
  256
370
   -1
100
AcDbLine
 10
102.3514749380013
 20
-30.33014731120975
 11
88.45582881502278
 21
-32.03631811888181
  0
LINE
  5
BB
100
AcDbEntity
  8
sw
  6
ByLayer
 62
  256
370
   -1
100
AcDbLine
 10
102.3514749380013
 20
-30.33014731120975
 11
100.6453041303292
 21
-16.43450118823124
  0
LINE
  5
BC
100
AcDbEntity
  8
sw
  6
ByLayer
 62
  256
370
   -1
100
AcDbLine
 10
86.74965800735072
 20
-18.1406719959033
 11
88.45582881502278
 21
-32.03631811888181
  0
LINE
  5
BD
100
AcDbEntity
  8
sw
  6
ByLayer
 62
  256
370
   -1
100
AcDbLine
 10
100.6453041303292
 20
-16.43450118823124
 11
86.74965800735072
 21
-18.1406719959033
  0
LINE
  5
BE
100
AcDbEntity
  8
sw
  6
ByLayer
 62
  256
370
   -1
100
AcDbLine
 10
102.3932545234516
 20
-11.18233073943741
 11
88.49760840047314
 21
-12.88850154710947
  0
LINE
  5
BF
100
AcDbEntity
  8
sw
  6
ByLayer
 62
  256
370
   -1
100
AcDbLine
 10
102.3932545234516
 20
-11.18233073943741
 11
100.6870837157796
 21
2.713315383541103
  0
LINE
  5
C0
100
AcDbEntity
  8
sw
  6
ByLayer
 62
  256
370
   -1
100
AcDbLine
 10
86.79143759280107
 20
1.00714457586904
 11
88.49760840047314
 21
-12.88850154710947
  0
LINE
  5
C1
100
AcDbEntity
  8
sw
  6
ByLayer
 62
  256
370
   -1
100
AcDbLine
 10
100.6870837157796
 20
2.713315383541103
 11
86.79143759280107
 21
1.00714457586904
  0
LINE
  5
C2
100
AcDbEntity
  8
sw
  6
ByLayer
 62
  256
370
   -1
100
AcDbLine
 10
100.1195165842042
 20
26.82386271352006
 11
86.22387046122567
 21
25.117691905848
  0
LINE
  5
C3
100
AcDbEntity
  8
sw
  6
ByLayer
 62
  256
370
   -1
100
AcDbLine
 10
100.1195165842042
 20
26.82386271352006
 11
98.4133457765321
 21
40.71950883649857
  0
LINE
  5
C4
100
AcDbEntity
  8
sw
  6
ByLayer
 62
  256
370
   -1
100
AcDbLine
 10
84.51769965355361
 20
39.0133380288265
 11
86.22387046122567
 21
25.117691905848
  0
LINE
  5
C5
100
AcDbEntity
  8
sw
  6
ByLayer
 62
  256
370
   -1
100
AcDbLine
 10
98.4133457765321
 20
40.71950883649857
 11
84.51769965355361
 21
39.0133380288265
  0
LINE
  5
C6
100
AcDbEntity
  8
sw
  6
ByLayer
 62
  256
370
   -1
100
AcDbLine
 10
78.82028342197025
 20
-14.07672764530965
 11
64.92463729899175
 21
-15.78289845298171
  0
LINE
  5
C7
100
AcDbEntity
  8
sw
  6
ByLayer
 62
  256
370
   -1
100
AcDbLine
 10
78.82028342197025
 20
-14.07672764530965
 11
77.11411261429818
 21
-0.1810815223311426
  0
LINE
  5
C8
100
AcDbEntity
  8
sw
  6
ByLayer
 62
  256
370
   -1
100
AcDbLine
 10
63.21846649131969
 20
-1.887252330003205
 11
64.92463729899175
 21
-15.78289845298171
  0
LINE
  5
C9
100
AcDbEntity
  8
sw
  6
ByLayer
 62
  256
370
   -1
100
AcDbLine
 10
77.11411261429818
 20
-0.1810815223311426
 11
63.21846649131969
 21
-1.887252330003205
  0
LINE
  5
CA
100
AcDbEntity
  8
sw
  6
ByLayer
 62
  256
370
   -1
100
AcDbLine
 10
33.98985874370524
 20
-38.72389833823927
 11
20.09421262072675
 21
-40.43006914591133
  0
LINE
  5
CB
100
AcDbEntity
  8
sw
  6
ByLayer
 62
  256
370
   -1
100
AcDbLine
 10
33.98985874370524
 20
-38.72389833823927
 11
32.28368793603317
 21
-24.82825221526076
  0
LINE
  5
CC
100
AcDbEntity
  8
sw
  6
ByLayer
 62
  256
370
   -1
100
AcDbLine
 10
18.38804181305468
 20
-26.53442302293283
 11
20.09421262072675
 21
-40.43006914591133
  0
LINE
  5
CD
100
AcDbEntity
  8
sw
  6
ByLayer
 62
  256
370
   -1
100
AcDbLine
 10
32.28368793603317
 20
-24.82825221526076
 11
18.38804181305468
 21
-26.53442302293283
  0
LINE
  5
CE
100
AcDbEntity
  8
sw
  6
ByLayer
 62
  256
370
   -1
100
AcDbLine
 10
62.27742406548293
 20
-35.25062205119257
 11
48.38177794250444
 21
-36.95679285886463
  0
LINE
  5
CF
100
AcDbEntity
  8
sw
  6
ByLayer
 62
  256
370
   -1
100
AcDbLine
 10
62.27742406548293
 20
-35.25062205119257
 11
60.57125325781087
 21
-21.35497592821406
  0
LINE
  5
D0
100
AcDbEntity
  8
sw
  6
ByLayer
 62
  256
370
   -1
100
AcDbLine
 10
46.67560713483238
 20
-23.06114673588613
 11
48.38177794250444
 21
-36.95679285886463
  0
LINE
  5
D1
100
AcDbEntity
  8
sw
  6
ByLayer
 62
  256
370
   -1
100
AcDbLine
 10
60.57125325781087
 20
-21.35497592821406
 11
46.67560713483238
 21
-23.06114673588613
  0
LINE
  5
D2
100
AcDbEntity
  8
sw
  6
ByLayer
 62
  256
370
   -1
100
AcDbLine
 10
81.13580094666804
 20
-32.93510452649477
 11
67.24015482368955
 21
-34.64127533416683
  0
LINE
  5
D3
100
AcDbEntity
  8
sw
  6
ByLayer
 62
  256
370
   -1
100
AcDbLine
 10
81.13580094666804
 20
-32.93510452649477
 11
79.42963013899598
 21
-19.03945840351626
  0
LINE
  5
D4
100
AcDbEntity
  8
sw
  6
ByLayer
 62
  256
370
   -1
100
AcDbLine
 10
65.53398401601748
 20
-20.74562921118832
 11
67.24015482368955
 21
-34.64127533416683
  0
LINE
  5
D5
100
AcDbEntity
  8
sw
  6
ByLayer
 62
  256
370
   -1
100
AcDbLine
 10
79.42963013899598
 20
-19.03945840351626
 11
65.53398401601748
 21
-20.74562921118832
  0
LINE
  5
D6
100
AcDbEntity
  8
sw
  6
ByLayer
 62
  256
370
   -1
100
AcDbLine
 10
85.933954337865
 20
5.939407998224368
 11
72.03830821488651
 21
4.233237190552305
  0
LINE
  5
D7
100
AcDbEntity
  8
sw
  6
ByLayer
 62
  256
370
   -1
100
AcDbLine
 10
85.933954337865
 20
5.939407998224368
 11
84.22778353019294
 21
19.83505412120288
  0
LINE
  5
D8
100
AcDbEntity
  8
sw
  6
ByLayer
 62
  256
370
   -1
100
AcDbLine
 10
70.33213740721445
 20
18.12888331353081
 11
72.03830821488651
 21
4.233237190552305
  0
LINE
  5
D9
100
AcDbEntity
  8
sw
  6
ByLayer
 62
  256
370
   -1
100
AcDbLine
 10
84.22778353019294
 20
19.83505412120288
 11
70.33213740721445
 21
18.12888331353081
  0
LINE
  5
DA
100
AcDbEntity
  8
sw
  6
ByLayer
 62
  256
370
   -1
100
AcDbLine
 10
67.07557745667988
 20
3.623890473526572
 11
53.17993133370139
 21
1.917719665854509
  0
LINE
  5
DB
100
AcDbEntity
  8
sw
  6
ByLayer
 62
  256
370
   -1
100
AcDbLine
 10
67.07557745667988
 20
3.623890473526572
 11
65.36940664900781
 21
17.51953659650508
  0
LINE
  5
DC
100
AcDbEntity
  8
sw
  6
ByLayer
 62
  256
370
   -1
100
AcDbLine
 10
51.47376052602932
 20
15.81336578883302
 11
53.17993133370139
 21
1.917719665854509
  0
LINE
  5
DD
100
AcDbEntity
  8
sw
  6
ByLayer
 62
  256
370
   -1
100
AcDbLine
 10
65.36940664900781
 20
17.51953659650508
 11
51.47376052602932
 21
15.81336578883302
  0
LINE
  5
DE
100
AcDbEntity
  8
sw
  6
ByLayer
 62
  256
370
   -1
100
AcDbLine
 10
59.96190654078512
 20
-16.39224517000745
 11
46.06626041780663
 21
-18.09841597767952
  0
LINE
  5
DF
100
AcDbEntity
  8
sw
  6
ByLayer
 62
  256
370
   -1
100
AcDbLine
 10
59.96190654078512
 20
-16.39224517000745
 11
58.25573573311306
 21
-2.496599047028945
  0
LINE
  5
E0
100
AcDbEntity
  8
sw
  6
ByLayer
 62
  256
370
   -1
100
AcDbLine
 10
44.36008961013457
 20
-4.202769854701009
 11
46.06626041780663
 21
-18.09841597767952
  0
LINE
  5
E1
100
AcDbEntity
  8
sw
  6
ByLayer
 62
  256
370
   -1
100
AcDbLine
 10
58.25573573311306
 20
-2.496599047028945
 11
44.36008961013457
 21
-4.202769854701009
  0
LINE
  5
E2
100
AcDbEntity
  8
sw
  6
ByLayer
 62
  256
370
   -1
100
AcDbLine
 10
41.10352965960001
 20
-18.70776269470525
 11
27.20788353662152
 21
-20.41393350237731
  0
LINE
  5
E3
100
AcDbEntity
  8
sw
  6
ByLayer
 62
  256
370
   -1
100
AcDbLine
 10
41.10352965960001
 20
-18.70776269470525
 11
39.39735885192794
 21
-4.812116571726746
  0
LINE
  5
E4
100
AcDbEntity
  8
sw
  6
ByLayer
 62
  256
370
   -1
100
AcDbLine
 10
25.50171272894945
 20
-6.518287379398808
 11
27.20788353662152
 21
-20.41393350237731
  0
LINE
  5
E5
100
AcDbEntity
  8
sw
  6
ByLayer
 62
  256
370
   -1
100
AcDbLine
 10
39.39735885192794
 20
-4.812116571726746
 11
25.50171272894945
 21
-6.518287379398808
  0
LINE
  5
E6
100
AcDbEntity
  8
sw
  6
ByLayer
 62
  256
370
   -1
100
AcDbLine
 10
22.24515277841489
 20
-21.02328021940306
 11
8.349506655436404
 21
-22.72945102707512
  0
LINE
  5
E7
100
AcDbEntity
  8
sw
  6
ByLayer
 62
  256
370
   -1
100
AcDbLine
 10
22.24515277841489
 20
-21.02328021940306
 11
20.53898197074283
 21
-7.127634096424549
  0
LINE
  5
E8
100
AcDbEntity
  8
sw
  6
ByLayer
 62
  256
370
   -1
100
AcDbLine
 10
6.643335847764337
 20
-8.833804904096612
 11
8.349506655436404
 21
-22.72945102707512
  0
LINE
  5
E9
100
AcDbEntity
  8
sw
  6
ByLayer
 62
  256
370
   -1
100
AcDbLine
 10
20.53898197074283
 20
-7.127634096424549
 11
6.643335847764337
 21
-8.833804904096612
  0
LINE
  5
EA
100
AcDbEntity
  8
sw
  6
ByLayer
 62
  256
370
   -1
100
AcDbLine
 10
29.35882369430965
 20
-1.007144575869036
 11
15.46317757133116
 21
-2.713315383541099
  0
LINE
  5
EB
100
AcDbEntity
  8
sw
  6
ByLayer
 62
  256
370
   -1
100
AcDbLine
 10
29.35882369430965
 20
-1.007144575869036
 11
27.65265288663758
 21
12.88850154710947
  0
LINE
  5
EC
100
AcDbEntity
  8
sw
  6
ByLayer
 62
  256
370
   -1
100
AcDbLine
 10
13.75700676365909
 20
11.18233073943741
 11
15.46317757133116
 21
-2.713315383541099
  0
LINE
  5
ED
100
AcDbEntity
  8
sw
  6
ByLayer
 62
  256
370
   -1
100
AcDbLine
 10
27.65265288663758
 20
12.88850154710947
 11
13.75700676365909
 21
11.18233073943741
  0
LINE
  5
EE
100
AcDbEntity
  8
sw
  6
ByLayer
 62
  256
370
   -1
100
AcDbLine
 10
48.21720057549477
 20
1.308372948828767
 11
34.32155445251628
 21
-0.3977978588432958
  0
LINE
  5
EF
100
AcDbEntity
  8
sw
  6
ByLayer
 62
  256
370
   -1
100
AcDbLine
 10
48.21720057549477
 20
1.308372948828767
 11
46.51102976782271
 21
15.20401907180728
  0
LINE
  5
F0
100
AcDbEntity
  8
sw
  6
ByLayer
 62
  256
370
   -1
100
AcDbLine
 10
32.61538364484421
 20
13.49784826413521
 11
34.32155445251628
 21
-0.3977978588432958
  0
LINE
  5
F1
100
AcDbEntity
  8
sw
  6
ByLayer
 62
  256
370
   -1
100
AcDbLine
 10
46.51102976782271
 20
15.20401907180728
 11
32.61538364484421
 21
13.49784826413521
  0
LINE
  5
F2
100
AcDbEntity
  8
sw
  6
ByLayer
 62
  256
370
   -1
100
AcDbLine
 10
22.32871194931557
 20
17.27235292414164
 11
8.433065826337074
 21
15.56618211646957
  0
LINE
  5
F3
100
AcDbEntity
  8
sw
  6
ByLayer
 62
  256
370
   -1
100
AcDbLine
 10
22.32871194931557
 20
17.27235292414164
 11
20.6225411416435
 21
31.16799904712014
  0
LINE
  5
F4
100
AcDbEntity
  8
sw
  6
ByLayer
 62
  256
370
   -1
100
AcDbLine
 10
6.726895018665007
 20
29.46182823944808
 11
8.433065826337074
 21
15.56618211646957
  0
LINE
  5
F5
100
AcDbEntity
  8
sw
  6
ByLayer
 62
  256
370
   -1
100
AcDbLine
 10
20.6225411416435
 20
31.16799904712014
 11
6.726895018665007
 21
29.46182823944808
  0
LINE
  5
F6
100
AcDbEntity
  8
sw
  6
ByLayer
 62
  256
370
   -1
100
AcDbLine
 10
41.18708883050068
 20
19.58787044883944
 11
27.2914427075222
 21
17.88169964116738
  0
LINE
  5
F7
100
AcDbEntity
  8
sw
  6
ByLayer
 62
  256
370
   -1
100
AcDbLine
 10
41.18708883050068
 20
19.58787044883944
 11
39.48091802282862
 21
33.48351657181795
  0
LINE
  5
F8
100
AcDbEntity
  8
sw
  6
ByLayer
 62
  256
370
   -1
100
AcDbLine
 10
25.58527189985013
 20
31.77734576414589
 11
27.2914427075222
 21
17.88169964116738
  0
LINE
  5
F9
100
AcDbEntity
  8
sw
  6
ByLayer
 62
  256
370
   -1
100
AcDbLine
 10
39.48091802282862
 20
33.48351657181795
 11
25.58527189985013
 21
31.77734576414589
  0
LINE
  5
FA
100
AcDbEntity
  8
sw
  6
ByLayer
 62
  256
370
   -1
100
AcDbLine
 10
60.04546571168579
 20
21.90338797353724
 11
46.1498195887073
 21
20.19721716586518
  0
LINE
  5
FB
100
AcDbEntity
  8
sw
  6
ByLayer
 62
  256
370
   -1
100
AcDbLine
 10
60.04546571168579
 20
21.90338797353724
 11
58.33929490401373
 21
35.79903409651575
  0
LINE
  5
FC
100
AcDbEntity
  8
sw
  6
ByLayer
 62
  256
370
   -1
100
AcDbLine
 10
44.44364878103524
 20
34.09286328884368
 11
46.1498195887073
 21
20.19721716586518
  0
LINE
  5
FD
100
AcDbEntity
  8
sw
  6
ByLayer
 62
  256
370
   -1
100
AcDbLine
 10
58.33929490401373
 20
35.79903409651575
 11
44.44364878103524
 21
34.09286328884368
  0
LINE
  5
FE
100
AcDbEntity
  8
sw
  6
ByLayer
 62
  256
370
   -1
100
AcDbLine
 10
78.9038425928709
 20
24.21890549823504
 11
65.00819646989241
 21
22.51273469056298
  0
LINE
  5
FF
100
AcDbEntity
  8
sw
  6
ByLayer
 62
  256
370
   -1
100
AcDbLine
 10
78.9038425928709
 20
24.21890549823504
 11
77.19767178519884
 21
38.11455162121355
  0
LINE
  5
100
100
AcDbEntity
  8
sw
  6
ByLayer
 62
  256
370
   -1
100
AcDbLine
 10
63.30202566222034
 20
36.40838081354148
 11
65.00819646989241
 21
22.51273469056298
  0
LINE
  5
101
100
AcDbEntity
  8
sw
  6
ByLayer
 62
  256
370
   -1
100
AcDbLine
 10
77.19767178519884
 20
38.11455162121355
 11
63.30202566222034
 21
36.40838081354148
  0
LINE
  5
102
100
AcDbEntity
  8
sw
  6
ByLayer
 62
  256
370
   -1
100
AcDbLine
 10
-50.86441380900358
 20
21.35497592821407
 11
-49.15824300133153
 21
35.25062205119259
  0
LINE
  5
103
100
AcDbEntity
  8
sw
  6
ByLayer
 62
  256
370
   -1
100
AcDbLine
 10
-50.86441380900358
 20
21.35497592821407
 11
-64.76005993198208
 21
23.06114673588614
  0
LINE
  5
104
100
AcDbEntity
  8
sw
  6
ByLayer
 62
  256
370
   -1
100
AcDbLine
 10
-49.15824300133153
 20
35.25062205119259
 11
-63.05388912431002
 21
36.95679285886465
  0
LINE
  5
105
100
AcDbEntity
  8
sw
  6
ByLayer
 62
  256
370
   -1
100
AcDbLine
 10
-63.05388912431002
 20
36.95679285886465
 11
-64.76005993198208
 21
23.06114673588614
  0
LINE
  5
106
100
AcDbEntity
  8
sw
  6
ByLayer
 62
  256
370
   -1
100
AcDbLine
 10
-69.72279069018869
 20
23.67049345291188
 11
-68.01661988251664
 21
37.56613957589039
  0
LINE
  5
107
100
AcDbEntity
  8
sw
  6
ByLayer
 62
  256
370
   -1
100
AcDbLine
 10
-69.72279069018869
 20
23.67049345291188
 11
-83.61843681316719
 21
25.37666426058394
  0
LINE
  5
108
100
AcDbEntity
  8
sw
  6
ByLayer
 62
  256
370
   -1
100
AcDbLine
 10
-68.01661988251664
 20
37.56613957589039
 11
-81.91226600549513
 21
39.27231038356246
  0
LINE
  5
109
100
AcDbEntity
  8
sw
  6
ByLayer
 62
  256
370
   -1
100
AcDbLine
 10
-81.91226600549513
 20
39.27231038356246
 11
-83.61843681316719
 21
25.37666426058394
  0
LINE
  5
10A
100
AcDbEntity
  8
sw
  6
ByLayer
 62
  256
370
   -1
100
AcDbLine
 10
-88.58116757137381
 20
25.98601097760967
 11
-86.87499676370176
 21
39.88165710058819
  0
LINE
  5
10B
100
AcDbEntity
  8
sw
  6
ByLayer
 62
  256
370
   -1
100
AcDbLine
 10
-88.58116757137381
 20
25.98601097760967
 11
-102.4768136943523
 21
27.69218178528174
  0
LINE
  5
10C
100
AcDbEntity
  8
sw
  6
ByLayer
 62
  256
370
   -1
100
AcDbLine
 10
-86.87499676370176
 20
39.88165710058819
 11
-100.7706428866802
 21
41.58782790826025
  0
LINE
  5
10D
100
AcDbEntity
  8
sw
  6
ByLayer
 62
  256
370
   -1
100
AcDbLine
 10
-100.7706428866802
 20
41.58782790826025
 11
-102.4768136943523
 21
27.69218178528174
  0
LINE
  5
10E
100
AcDbEntity
  8
sw
  6
ByLayer
 62
  256
370
   -1
100
AcDbLine
 10
-48.4653371134051
 20
1.917719665854495
 11
-46.75916630573305
 21
15.81336578883301
  0
LINE
  5
10F
100
AcDbEntity
  8
sw
  6
ByLayer
 62
  256
370
   -1
100
AcDbLine
 10
-48.4653371134051
 20
1.917719665854495
 11
-62.36098323638362
 21
3.623890473526561
  0
LINE
  5
110
100
AcDbEntity
  8
sw
  6
ByLayer
 62
  256
370
   -1
100
AcDbLine
 10
-46.75916630573305
 20
15.81336578883301
 11
-60.65481242871154
 21
17.51953659650507
  0
LINE
  5
111
100
AcDbEntity
  8
sw
  6
ByLayer
 62
  256
370
   -1
100
AcDbLine
 10
-60.65481242871154
 20
17.51953659650507
 11
-62.36098323638362
 21
3.623890473526561
  0
LINE
  5
112
100
AcDbEntity
  8
sw
  6
ByLayer
 62
  256
370
   -1
100
AcDbLine
 10
-67.32371399459022
 20
4.233237190552298
 11
-65.61754318691817
 21
18.12888331353081
  0
LINE
  5
113
100
AcDbEntity
  8
sw
  6
ByLayer
 62
  256
370
   -1
100
AcDbLine
 10
-67.32371399459022
 20
4.233237190552298
 11
-81.21936011756873
 21
5.939407998224365
  0
LINE
  5
114
100
AcDbEntity
  8
sw
  6
ByLayer
 62
  256
370
   -1
100
AcDbLine
 10
-65.61754318691817
 20
18.12888331353081
 11
-79.51318930989666
 21
19.83505412120288
  0
LINE
  5
115
100
AcDbEntity
  8
sw
  6
ByLayer
 62
  256
370
   -1
100
AcDbLine
 10
-79.51318930989666
 20
19.83505412120288
 11
-81.21936011756873
 21
5.939407998224365
  0
LINE
  5
116
100
AcDbEntity
  8
sw
  6
ByLayer
 62
  256
370
   -1
100
AcDbLine
 10
-60.21004307869546
 20
-15.78289845298172
 11
-58.50387227102341
 21
-1.887252330003208
  0
LINE
  5
117
100
AcDbEntity
  8
sw
  6
ByLayer
 62
  256
370
   -1
100
AcDbLine
 10
-60.21004307869546
 20
-15.78289845298172
 11
-74.10568920167398
 21
-14.07672764530965
  0
LINE
  5
118
100
AcDbEntity
  8
sw
  6
ByLayer
 62
  256
370
   -1
100
AcDbLine
 10
-58.50387227102341
 20
-1.887252330003208
 11
-72.3995183940019
 21
-0.181081522331142
  0
LINE
  5
119
100
AcDbEntity
  8
sw
  6
ByLayer
 62
  256
370
   -1
100
AcDbLine
 10
-72.3995183940019
 20
-0.181081522331142
 11
-74.10568920167398
 21
-14.07672764530965
  0
LINE
  5
11A
100
AcDbEntity
  8
sw
  6
ByLayer
 62
  256
370
   -1
100
AcDbLine
 10
-67.24015482368955
 20
-34.06239595299239
 11
-65.5339840160175
 21
-20.16674983001387
  0
LINE
  5
11B
100
AcDbEntity
  8
sw
  6
ByLayer
 62
  256
370
   -1
100
AcDbLine
 10
-67.24015482368955
 20
-34.06239595299239
 11
-81.13580094666806
 21
-32.35622514532032
  0
LINE
  5
11C
100
AcDbEntity
  8
sw
  6
ByLayer
 62
  256
370
   -1
100
AcDbLine
 10
-65.5339840160175
 20
-20.16674983001387
 11
-79.42963013899599
 21
-18.46057902234181
  0
LINE
  5
11D
100
AcDbEntity
  8
sw
  6
ByLayer
 62
  256
370
   -1
100
AcDbLine
 10
-79.42963013899599
 20
-18.46057902234181
 11
-81.13580094666806
 21
-32.35622514532032
  0
LINE
  5
11E
100
AcDbEntity
  8
rpi1
  6
ByLayer
 62
  256
370
   -1
100
AcDbLine
 10
-6.642702889851863
 20
-8.255003240381518
 11
11.35729711014814
 21
-8.255003240381518
  0
LINE
  5
11F
100
AcDbEntity
  8
rpi1
  6
ByLayer
 62
  256
370
   -1
100
AcDbLine
 10
-6.642702889851863
 20
-8.255003240381518
 11
-6.642702889851861
 21
15.74499675961848
  0
LINE
  5
120
100
AcDbEntity
  8
rpi1
  6
ByLayer
 62
  256
370
   -1
100
AcDbLine
 10
11.35729711014814
 20
-8.255003240381518
 11
11.35729711014814
 21
15.74499675961848
  0
LINE
  5
121
100
AcDbEntity
  8
rpi1
  6
ByLayer
 62
  256
370
   -1
100
AcDbLine
 10
-6.642702889851861
 20
15.74499675961848
 11
11.35729711014814
 21
15.74499675961848
  0
CIRCLE
  5
122
100
AcDbEntity
  8
rpi1
  6
ByLayer
 62
  256
370
   -1
100
AcDbCircle
 10
-5.262702889851862
 20
13.90499675961848
 40
0.5
  0
CIRCLE
  5
123
100
AcDbEntity
  8
rpi1
  6
ByLayer
 62
  256
370
   -1
100
AcDbCircle
 10
-5.262702889851862
 20
11.36499675961848
 40
0.5
  0
CIRCLE
  5
124
100
AcDbEntity
  8
rpi1
  6
ByLayer
 62
  256
370
   -1
100
AcDbCircle
 10
-5.262702889851862
 20
8.824996759618482
 40
0.5
  0
CIRCLE
  5
125
100
AcDbEntity
  8
rpi1
  6
ByLayer
 62
  256
370
   -1
100
AcDbCircle
 10
-5.262702889851862
 20
6.284996759618482
 40
0.5
  0
CIRCLE
  5
126
100
AcDbEntity
  8
rpi1
  6
ByLayer
 62
  256
370
   -1
100
AcDbCircle
 10
-5.262702889851863
 20
3.744996759618482
 40
0.5
  0
CIRCLE
  5
127
100
AcDbEntity
  8
rpi1
  6
ByLayer
 62
  256
370
   -1
100
AcDbCircle
 10
-5.262702889851863
 20
1.204996759618482
 40
0.5
  0
CIRCLE
  5
128
100
AcDbEntity
  8
rpi1
  6
ByLayer
 62
  256
370
   -1
100
AcDbCircle
 10
-5.262702889851863
 20
-1.335003240381518
 40
0.5
  0
CIRCLE
  5
129
100
AcDbEntity
  8
rpi1
  6
ByLayer
 62
  256
370
   -1
100
AcDbCircle
 10
9.97729711014814
 20
13.90499675961848
 40
0.5
  0
CIRCLE
  5
12A
100
AcDbEntity
  8
rpi1
  6
ByLayer
 62
  256
370
   -1
100
AcDbCircle
 10
9.97729711014814
 20
11.36499675961848
 40
0.5
  0
CIRCLE
  5
12B
100
AcDbEntity
  8
rpi1
  6
ByLayer
 62
  256
370
   -1
100
AcDbCircle
 10
9.97729711014814
 20
8.824996759618482
 40
0.5
  0
CIRCLE
  5
12C
100
AcDbEntity
  8
rpi1
  6
ByLayer
 62
  256
370
   -1
100
AcDbCircle
 10
9.97729711014814
 20
6.284996759618482
 40
0.5
  0
CIRCLE
  5
12D
100
AcDbEntity
  8
rpi1
  6
ByLayer
 62
  256
370
   -1
100
AcDbCircle
 10
9.977297110148138
 20
3.744996759618482
 40
0.5
  0
CIRCLE
  5
12E
100
AcDbEntity
  8
rpi1
  6
ByLayer
 62
  256
370
   -1
100
AcDbCircle
 10
9.977297110148138
 20
1.204996759618482
 40
0.5
  0
CIRCLE
  5
12F
100
AcDbEntity
  8
rpi1
  6
ByLayer
 62
  256
370
   -1
100
AcDbCircle
 10
9.977297110148138
 20
-1.335003240381518
 40
0.5
  0
CIRCLE
  5
130
100
AcDbEntity
  8
rpi1
  6
ByLayer
 62
  256
370
   -1
100
AcDbCircle
 10
9.977297110148138
 20
-3.875003240381518
 40
0.5
  0
CIRCLE
  5
131
100
AcDbEntity
  8
rpi1
  6
ByLayer
 62
  256
370
   -1
100
AcDbCircle
 10
9.977297110148136
 20
-6.415003240381518
 40
0.5
  0
CIRCLE
  5
132
100
AcDbEntity
  8
rpi1
  6
ByLayer
 62
  256
370
   -1
100
AcDbCircle
 10
7.437297110148137
 20
-6.415003240381518
 40
0.5
  0
CIRCLE
  5
133
100
AcDbEntity
  8
rpi1
  6
ByLayer
 62
  256
370
   -1
100
AcDbCircle
 10
4.897297110148136
 20
-6.415003240381518
 40
0.5
  0
CIRCLE
  5
134
100
AcDbEntity
  8
rpi1
  6
ByLayer
 62
  256
370
   -1
100
AcDbCircle
 10
2.357297110148136
 20
-6.415003240381518
 40
0.5
  0
CIRCLE
  5
135
100
AcDbEntity
  8
rpi1
  6
ByLayer
 62
  256
370
   -1
100
AcDbCircle
 10
-0.1827028898518631
 20
-6.415003240381518
 40
0.5
  0
CIRCLE
  5
136
100
AcDbEntity
  8
rpi1
  6
ByLayer
 62
  256
370
   -1
100
AcDbCircle
 10
-2.722702889851863
 20
-6.415003240381518
 40
0.5
  0
CIRCLE
  5
137
100
AcDbEntity
  8
rpi1
  6
ByLayer
 62
  256
370
   -1
100
AcDbCircle
 10
-5.262702889851864
 20
-6.415003240381518
 40
0.5
  0
CIRCLE
  5
138
100
AcDbEntity
  8
rpi1
  6
ByLayer
 62
  256
370
   -1
100
AcDbCircle
 10
-5.262702889851863
 20
-3.875003240381518
 40
0.5
  0
ARC
  5
139
100
AcDbEntity
  8
int
  6
ByLayer
 62
  256
370
   -1
100
AcDbCircle
 10
104
 20
31.05572809000088
 40
5
100
AcDbArc
 50
359.9999999999998
 51
83.62062979155714
  0
ARC
  5
13A
100
AcDbEntity
  8
int
  6
ByLayer
 62
  256
370
   -1
100
AcDbCircle
 10
96.05572809000077
 20
39.00000000000001
 40
5
100
AcDbArc
 50
6.379370208442728
 51
90
  0
ARC
  5
13B
100
AcDbEntity
  8
int
  6
ByLayer
 62
  256
370
   -1
100
AcDbCircle
 10
96.05572809000081
 20
-38.99999999999999
 40
5
100
AcDbArc
 50
270
 51
353.6206297915571
  0
ARC
  5
13C
100
AcDbEntity
  8
int
  6
ByLayer
 62
  256
370
   -1
100
AcDbCircle
 10
104
 20
-31.05572809000078
 40
5
100
AcDbArc
 50
276.3793702084427
 51
0
  0
ARC
  5
13D
100
AcDbEntity
  8
int
  6
ByLayer
 62
  256
370
   -1
100
AcDbCircle
 10
-104
 20
-31.05572809000088
 40
5
100
AcDbArc
 50
180
 51
263.6206297915573
  0
ARC
  5
13E
100
AcDbEntity
  8
int
  6
ByLayer
 62
  256
370
   -1
100
AcDbCircle
 10
-104
 20
31.05572809000082
 40
5
100
AcDbArc
 50
96.37937020844279
 51
179.9999999999999
  0
ARC
  5
13F
100
AcDbEntity
  8
int
  6
ByLayer
 62
  256
370
   -1
100
AcDbCircle
 10
-96.05572809000108
 20
39
 40
5
100
AcDbArc
 50
89.99999999999969
 51
173.620629791557
  0
ARC
  5
140
100
AcDbEntity
  8
int
  6
ByLayer
 62
  256
370
   -1
100
AcDbCircle
 10
-96.05572809000068
 20
-38.99999999999999
 40
5
100
AcDbArc
 50
186.3793702084428
 51
270.0000000000002
  0
ARC
  5
141
100
AcDbEntity
  8
int
  6
ByLayer
 62
  256
370
   -1
100
AcDbCircle
 10
-105.000000246159
 20
-40.00000024615902
 40
4.000000271985759
100
AcDbArc
 50
6.379373320803899
 51
83.62062667919683
  0
ARC
  5
142
100
AcDbEntity
  8
int
  6
ByLayer
 62
  256
370
   -1
100
AcDbCircle
 10
105
 20
-39.99999999999996
 40
4.000000000000036
100
AcDbArc
 50
96.37937020844333
 51
173.6206297915577
  0
ARC
  5
143
100
AcDbEntity
  8
int
  6
ByLayer
 62
  256
370
   -1
100
AcDbCircle
 10
105.0000002461589
 20
40.00000024615905
 40
4.000000271985791
100
AcDbArc
 50
186.3793733208042
 51
263.6206266791975
  0
ARC
  5
144
100
AcDbEntity
  8
int
  6
ByLayer
 62
  256
370
   -1
100
AcDbCircle
 10
-105.00000058536
 20
40.00000058535969
 40
4.000000646775183
100
AcDbArc
 50
276.3793776095587
 51
353.6206223904455
  0
LINE
  5
145
100
AcDbEntity
  8
int
  6
ByLayer
 62
  256
370
   -1
100
AcDbLine
 10
12.19233803906313
 20
-43.99999999999999
 11
96.05572809000081
 21
-43.99999999999999
  0
LINE
  5
146
100
AcDbEntity
  8
int
  6
ByLayer
 62
  256
370
   -1
100
AcDbLine
 10
7.229607280856526
 20
-39.60934671702573
 11
6.327481716713423
 21
-32.26212360111234
  0
ARC
  5
147
100
AcDbEntity
  8
int
  6
ByLayer
 62
  256
370
   -1
100
AcDbCircle
 10
12.19233803906313
 20
-38.99999999999999
 40
5
100
AcDbArc
 50
187.0000000000001
 51
270
  0
LINE
  5
148
100
AcDbEntity
  8
int
  6
ByLayer
 62
  256
370
   -1
100
AcDbLine
 10
-96.05572809000067
 20
-43.99999999999999
 11
-7.477743818766854
 21
-43.99999999999999
  0
LINE
  5
149
100
AcDbEntity
  8
int
  6
ByLayer
 62
  256
370
   -1
100
AcDbLine
 10
-2.515013060560245
 20
-39.60934671702572
 11
-1.612887496417153
 21
-32.26212360111235
  0
ARC
  5
14A
100
AcDbEntity
  8
int
  6
ByLayer
 62
  256
370
   -1
100
AcDbCircle
 10
-7.477743818766856
 20
-38.99999999999999
 40
5
100
AcDbArc
 50
270
 51
353
  0
ARC
  5
14B
100
AcDbEntity
  8
int
  6
ByLayer
 62
  256
370
   -1
100
AcDbCircle
 10
2.357297110148135
 20
-32.74960097473294
 40
4
100
AcDbArc
 50
7.000000000000022
 51
172.9999964573305
  0
LINE
  5
14C
100
AcDbEntity
  8
int
  6
ByLayer
 62
  256
370
   -1
100
AcDbLine
 10
65.30202566222034
 20
44.00000000000001
 11
96.05572809000077
 21
44.00000000000001
  0
ARC
  5
14D
100
AcDbEntity
  8
int
  6
ByLayer
 62
  256
370
   -1
100
AcDbCircle
 10
65.30202566222034
 20
42.00000000000001
 40
2
100
AcDbArc
 50
90
 51
180
  0
LINE
  5
14E
100
AcDbEntity
  8
int
  6
ByLayer
 62
  256
370
   -1
100
AcDbLine
 10
63.30202566222034
 20
41
 11
63.30202566222034
 21
42.00000000000001
  0
ARC
  5
14F
100
AcDbEntity
  8
int
  6
ByLayer
 62
  256
370
   -1
100
AcDbCircle
 10
61.30202566222034
 20
41
 40
2
100
AcDbArc
 50
270.0000000000004
 51
0
  0
LINE
  5
150
100
AcDbEntity
  8
int
  6
ByLayer
 62
  256
370
   -1
100
AcDbLine
 10
-96.05572809000105
 20
44
 11
-65.30202566222033
 21
44
  0
ARC
  5
151
100
AcDbEntity
  8
int
  6
ByLayer
 62
  256
370
   -1
100
AcDbCircle
 10
-65.30202566222033
 20
42
 40
2
100
AcDbArc
 50
0
 51
90
  0
LINE
  5
152
100
AcDbEntity
  8
int
  6
ByLayer
 62
  256
370
   -1
100
AcDbLine
 10
-63.30202566222034
 20
41.00000000000001
 11
-63.30202566222034
 21
42
  0
LINE
  5
153
100
AcDbEntity
  8
int
  6
ByLayer
 62
  256
370
   -1
100
AcDbLine
 10
-61.30202566222034
 20
39
 11
61.30202566222036
 21
39.00000000000001
  0
ARC
  5
154
100
AcDbEntity
  8
int
  6
ByLayer
 62
  256
370
   -1
100
AcDbCircle
 10
-61.30202566222034
 20
41.00000000000001
 40
2
100
AcDbArc
 50
180
 51
270
  0
LINE
  5
155
100
AcDbEntity
  8
int
  6
ByLayer
 62
  256
370
   -1
100
AcDbLine
 10
-109
 20
31.05572809000083
 11
-109
 21
2
  0
ARC
  5
156
100
AcDbEntity
  8
int
  6
ByLayer
 62
  256
370
   -1
100
AcDbCircle
 10
-107
 20
2
 40
2
100
AcDbArc
 50
180
 51
270
  0
LINE
  5
157
100
AcDbEntity
  8
int
  6
ByLayer
 62
  256
370
   -1
100
AcDbLine
 10
-107
 20
0
 11
-106
 21
0
  0
ARC
  5
158
100
AcDbEntity
  8
int
  6
ByLayer
 62
  256
370
   -1
100
AcDbCircle
 10
-106
 20
-2
 40
2
100
AcDbArc
 50
0
 51
90
  0
LINE
  5
159
100
AcDbEntity
  8
int
  6
ByLayer
 62
  256
370
   -1
100
AcDbLine
 10
-104
 20
-18
 11
-104
 21
-2
  0
ARC
  5
15A
100
AcDbEntity
  8
int
  6
ByLayer
 62
  256
370
   -1
100
AcDbCircle
 10
-106
 20
-18
 40
2
100
AcDbArc
 50
270
 51
0
  0
LINE
  5
15B
100
AcDbEntity
  8
int
  6
ByLayer
 62
  256
370
   -1
100
AcDbLine
 10
-109
 20
-22
 11
-109
 21
-31.05572809000088
  0
LINE
  5
15C
100
AcDbEntity
  8
int
  6
ByLayer
 62
  256
370
   -1
100
AcDbLine
 10
-106
 20
-20
 11
-107
 21
-20
  0
ARC
  5
15D
100
AcDbEntity
  8
int
  6
ByLayer
 62
  256
370
   -1
100
AcDbCircle
 10
-107
 20
-22
 40
2
100
AcDbArc
 50
90
 51
180
  0
LINE
  5
15E
100
AcDbEntity
  8
int
  6
ByLayer
 62
  256
370
   -1
100
AcDbLine
 10
109
 20
-31.05572809000078
 11
109
 21
-22
  0
ARC
  5
15F
100
AcDbEntity
  8
int
  6
ByLayer
 62
  256
370
   -1
100
AcDbCircle
 10
107
 20
-22
 40
2
100
AcDbArc
 50
0
 51
90
  0
LINE
  5
160
100
AcDbEntity
  8
int
  6
ByLayer
 62
  256
370
   -1
100
AcDbLine
 10
106
 20
-20
 11
107
 21
-20
  0
ARC
  5
161
100
AcDbEntity
  8
int
  6
ByLayer
 62
  256
370
   -1
100
AcDbCircle
 10
106
 20
-18
 40
2
100
AcDbArc
 50
180
 51
270
  0
LINE
  5
162
100
AcDbEntity
  8
int
  6
ByLayer
 62
  256
370
   -1
100
AcDbLine
 10
104
 20
-18
 11
104
 21
-2
  0
ARC
  5
163
100
AcDbEntity
  8
int
  6
ByLayer
 62
  256
370
   -1
100
AcDbCircle
 10
106
 20
-2
 40
2
100
AcDbArc
 50
90
 51
180
  0
LINE
  5
164
100
AcDbEntity
  8
int
  6
ByLayer
 62
  256
370
   -1
100
AcDbLine
 10
109
 20
2
 11
109
 21
31.05572809000087
  0
LINE
  5
165
100
AcDbEntity
  8
int
  6
ByLayer
 62
  256
370
   -1
100
AcDbLine
 10
107
 20
0
 11
106
 21
0
  0
ARC
  5
166
100
AcDbEntity
  8
int
  6
ByLayer
 62
  256
370
   -1
100
AcDbCircle
 10
107
 20
2
 40
2
100
AcDbArc
 50
270
 51
0
  0
LWPOLYLINE
  5
167
100
AcDbEntity
  8
decoupe-pi
  6
ByLayer
 62
  256
370
   -1
100
AcDbPolyline
 90
    4
 70
    1
 43
0
 10
-6.642702889851858
 20
58.74499675961848
 10
11.35729711014814
 20
58.74499675961848
 10
11.35729711014814
 20
30.61958700179698
 10
-6.642702889851858
 20
30.61958700179698
  0
ENDSEC
  0
SECTION
  2
OBJECTS
  0
DICTIONARY
  5
C
330
0
100
AcDbDictionary
281
    1
  3
ACAD_GROUP
350
D
  0
DICTIONARY
  5
D
330
C
100
AcDbDictionary
281
    1
  0
PLOTSETTINGS
  5
168
100
AcDbPlotSettings
  6
1x1
 40
0
 41
0
 42
0
 43
0
  0
ENDSEC
  0
EOF
