999
dxfrw 0.6.3
  0
SECTION
  2
HEADER
  9
$ACADVER
  1
AC1021
  9
$DWGCODEPAGE
  3
ANSI_1252
  9
$INSBASE
 10
0
 20
0
 30
0
  9
$EXTMIN
 10
-123.8716512284599
 20
-66.2216149045644
 30
0
  9
$EXTMAX
 10
123.8716512284599
 20
65.69154163544563
 30
0
  9
$LIMMIN
 10
0
 20
0
  9
$LIMMAX
 10
420
 20
297
  9
$ORTHOMODE
 70
    0
  9
$REGENMODE
 70
    1
  9
$FILLMODE
 70
    1
  9
$QTEXTMODE
 70
    0
  9
$MIRRTEXT
 70
    0
  9
$LTSCALE
 40
1
  9
$ATTMODE
 70
    0
  9
$TEXTSIZE
 40
2.5
  9
$TRACEWID
 40
15.68
  9
$TEXTSTYLE
  7
STANDARD
  9
$CLAYER
  8
ext3
  9
$CELTYPE
  6
BYLAYER
  9
$CECOLOR
 62
  256
  9
$CELTSCALE
 40
1
  9
$DISPSILH
 70
    0
  9
$DIMSCALE
 40
2.5
  9
$DIMASZ
 40
2.5
  9
$DIMEXO
 40
0.625
  9
$DIMDLI
 40
3.75
  9
$DIMRND
 40
0
  9
$DIMDLE
 40
0
  9
$DIMEXE
 40
1.25
  9
$DIMTP
 40
0
  9
$DIMTM
 40
0
  9
$DIMTXT
 40
2.5
  9
$DIMCEN
 40
2.5
  9
$DIMTSZ
 40
0
  9
$DIMTOL
 70
    0
  9
$DIMLIM
 70
    0
  9
$DIMTIH
 70
    0
  9
$DIMTOH
 70
    0
  9
$DIMSE1
 70
    0
  9
$DIMSE2
 70
    0
  9
$DIMTAD
 70
    1
  9
$DIMZIN
 70
    8
  9
$DIMBLK
  1

  9
$DIMASO
 70
    1
  9
$DIMSHO
 70
    1
  9
$DIMPOST
  1

  9
$DIMAPOST
  1

  9
$DIMALT
 70
    0
  9
$DIMALTD
 70
    3
  9
$DIMALTF
 40
0.03937
  9
$DIMLFAC
 40
1
  9
$DIMTOFL
 70
    1
  9
$DIMTVP
 40
0
  9
$DIMTIX
 70
    0
  9
$DIMSOXD
 70
    0
  9
$DIMSAH
 70
    0
  9
$DIMBLK1
  1

  9
$DIMBLK2
  1

  9
$DIMSTYLE
  2
Standard
  9
$DIMCLRD
 70
    0
  9
$DIMCLRE
 70
    0
  9
$DIMCLRT
 70
    0
  9
$DIMTFAC
 40
1
  9
$DIMGAP
 40
0.625
  9
$DIMJUST
 70
    0
  9
$DIMSD1
 70
    0
  9
$DIMSD2
 70
    0
  9
$DIMTOLJ
 70
    0
  9
$DIMTZIN
 70
    8
  9
$DIMALTZ
 70
    0
  9
$DIMALTTZ
 70
    0
  9
$DIMUPT
 70
    0
  9
$DIMDEC
 70
    2
  9
$DIMTDEC
 70
    2
  9
$DIMALTU
 70
    2
  9
$DIMALTTD
 70
    3
  9
$DIMTXSTY
  7
STANDARD
  9
$DIMAUNIT
 70
    0
  9
$DIMADEC
 70
    0
  9
$DIMALTRND
 40
0
  9
$DIMAZIN
 70
    0
  9
$DIMDSEP
 70
   44
  9
$DIMATFIT
 70
    3
  9
$DIMFRAC
 70
    0
  9
$DIMLDRBLK
  1
STANDARD
  9
$DIMLUNIT
 70
    2
  9
$DIMLWD
 70
   -2
  9
$DIMLWE
 70
   -2
  9
$DIMTMOVE
 70
    0
  9
$DIMFXL
 40
1
  9
$DIMFXLON
 70
    0
  9
$DIMJOGANG
 40
0.7854
  9
$DIMTFILL
 70
    0
  9
$DIMTFILLCLR
 70
    0
  9
$DIMARCSYM
 70
    0
  9
$DIMLTYPE
  6

  9
$DIMLTEX1
  6

  9
$DIMLTEX2
  6

  9
$LUNITS
 70
    2
  9
$LUPREC
 70
    4
  9
$SKETCHINC
 40
1
  9
$FILLETRAD
 40
0
  9
$AUNITS
 70
    0
  9
$AUPREC
 70
    2
  9
$MENU
  1
.
  9
$ELEVATION
 40
0
  9
$PELEVATION
 40
0
  9
$THICKNESS
 40
0
  9
$LIMCHECK
 70
    0
  9
$CHAMFERA
 40
0
  9
$CHAMFERB
 40
0
  9
$CHAMFERC
 40
0
  9
$CHAMFERD
 40
0
  9
$SKPOLY
 70
    0
  9
$USRTIMER
 70
    1
  9
$ANGBASE
 50
0
  9
$ANGDIR
 70
    0
  9
$PDMODE
 70
   34
  9
$PDSIZE
 40
0
  9
$PLINEWID
 40
0
  9
$SPLFRAME
 70
    0
  9
$SPLINETYPE
 70
    2
  9
$SPLINESEGS
 70
    8
  9
$HANDSEED
  5
20000
  9
$SURFTAB1
 70
    6
  9
$SURFTAB2
 70
    6
  9
$SURFTYPE
 70
    6
  9
$SURFU
 70
    6
  9
$SURFV
 70
    6
  9
$UCSBASE
  2

  9
$UCSNAME
  2

  9
$UCSORG
 10
0
 20
0
 30
0
  9
$UCSXDIR
 10
1
 20
0
 30
0
  9
$UCSYDIR
 10
0
 20
1
 30
0
  9
$UCSORTHOREF
  2

  9
$UCSORTHOVIEW
 70
    0
  9
$UCSORGTOP
 10
0
 20
0
 30
0
  9
$UCSORGBOTTOM
 10
0
 20
0
 30
0
  9
$UCSORGLEFT
 10
0
 20
0
 30
0
  9
$UCSORGRIGHT
 10
0
 20
0
 30
0
  9
$UCSORGFRONT
 10
0
 20
0
 30
0
  9
$UCSORGBACK
 10
0
 20
0
 30
0
  9
$PUCSBASE
  2

  9
$PUCSNAME
  2

  9
$PUCSORG
 10
0
 20
0
 30
0
  9
$PUCSXDIR
 10
1
 20
0
 30
0
  9
$PUCSYDIR
 10
0
 20
1
 30
0
  9
$PUCSORTHOREF
  2

  9
$PUCSORTHOVIEW
 70
    0
  9
$PUCSORGTOP
 10
0
 20
0
 30
0
  9
$PUCSORGBOTTOM
 10
0
 20
0
 30
0
  9
$PUCSORGLEFT
 10
0
 20
0
 30
0
  9
$PUCSORGRIGHT
 10
0
 20
0
 30
0
  9
$PUCSORGFRONT
 10
0
 20
0
 30
0
  9
$PUCSORGBACK
 10
0
 20
0
 30
0
  9
$USERI1
 70
    0
  9
$USERI2
 70
    0
  9
$USERI3
 70
    0
  9
$USERI4
 70
    0
  9
$USERI5
 70
    0
  9
$USERR1
 40
0
  9
$USERR2
 40
0
  9
$USERR3
 40
0
  9
$USERR4
 40
0
  9
$USERR5
 40
0
  9
$WORLDVIEW
 70
    1
  9
$SHADEDGE
 70
    3
  9
$SHADEDIF
 70
   70
  9
$TILEMODE
 70
    1
  9
$MAXACTVP
 70
   64
  9
$PINSBASE
 10
0
 20
0
 30
0
  9
$PLIMCHECK
 70
    0
  9
$PEXTMIN
 10
0
 20
0
 30
0
  9
$PEXTMAX
 10
0
 20
0
 30
0
  9
$SNAPSTYLE
 70
    0
  9
$PLIMMIN
 10
0
 20
0
  9
$PLIMMAX
 10
210
 20
297
  9
$UNITMODE
 70
    0
  9
$VISRETAIN
 70
    1
  9
$PLINEGEN
 70
    0
  9
$PSLTSCALE
 70
    1
  9
$TREEDEPTH
 70
 3020
  9
$CMLSTYLE
  2
Standard
  9
$CMLJUST
 70
    0
  9
$CMLSCALE
 40
20
  9
$PROXYGRAPHICS
 70
    1
  9
$MEASUREMENT
 70
    1
  9
$CELWEIGHT
370
   -1
  9
$ENDCAPS
280
    0
  9
$JOINSTYLE
280
    0
  9
$LWDISPLAY
290
    0
  9
$INSUNITS
 70
    4
  9
$HYPERLINKBASE
  1

  9
$STYLESHEET
  1

  9
$XEDIT
290
    1
  9
$CEPSNTYPE
380
    0
  9
$PSTYLEMODE
290
    1
  9
$EXTNAMES
290
    1
  9
$PSVPSCALE
 40
1
  9
$OLESTARTUP
290
    0
  9
$SORTENTS
280
  127
  9
$INDEXCTL
280
    0
  9
$HIDETEXT
280
    1
  9
$XCLIPFRAME
290
    0
  9
$HALOGAP
280
    0
  9
$OBSCOLOR
 70
  257
  9
$OBSLTYPE
280
    0
  9
$INTERSECTIONDISPLAY
280
    0
  9
$INTERSECTIONCOLOR
 70
  257
  9
$DIMASSOC
280
    1
  9
$PROJECTNAME
  1

  9
$CAMERADISPLAY
290
    0
  9
$LENSLENGTH
 40
50
  9
$CAMERAHEIGHT
 40
0
  9
$STEPSPERSEC
 40
2
  9
$STEPSIZE
 40
50
  9
$3DDWFPREC
 40
2
  9
$PSOLWIDTH
 40
5
  9
$PSOLHEIGHT
 40
80
  9
$LOFTANG1
 40
1.570796326794897
  9
$LOFTANG2
 40
1.570796326794897
  9
$LOFTMAG1
 40
0
  9
$LOFTMAG2
 40
0
  9
$LOFTPARAM
 70
    7
  9
$LOFTNORMALS
280
    1
  9
$LATITUDE
 40
1
  9
$LONGITUDE
 40
1
  9
$NORTHDIRECTION
 40
0
  9
$TIMEZONE
 70
-8000
  9
$LIGHTGLYPHDISPLAY
280
    1
  9
$TILEMODELIGHTSYNCH
280
    1
  9
$SOLIDHIST
280
    1
  9
$SHOWHIST
280
    1
  9
$DWFFRAME
280
    2
  9
$DGNFRAME
280
    0
  9
$REALWORLDSCALE
290
    1
  9
$INTERFERECOLOR
 62
    1
  9
$CSHADOW
280
    0
  9
$SHADOWPLANELOCATION
 40
0
  0
ENDSEC
  0
SECTION
  2
CLASSES
  0
ENDSEC
  0
SECTION
  2
TABLES
  0
TABLE
  2
VPORT
  5
8
330
0
100
AcDbSymbolTable
 70
    1
  0
VPORT
  5
31
330
2
100
AcDbSymbolTableRecord
100
AcDbViewportTableRecord
  2
*ACTIVE
 70
    0
 10
0
 20
0
 11
1
 21
1
 12
63.08491328796332
 22
44.23987543873567
 13
0
 23
0
 14
10
 24
10
 15
10
 25
10
 16
0
 26
0
 36
1
 17
0
 27
0
 37
0
 40
177.419136824436
 41
1.422279792746114
 42
50
 43
0
 44
0
 50
0
 51
0
 71
    0
 72
  100
 73
    1
 74
    3
 75
    0
 76
    1
 77
    0
 78
    0
281
    0
 65
    1
110
0
120
0
130
0
111
1
121
0
131
0
112
0
122
1
132
0
 79
    0
146
0
348
10020
 60
    7
 61
    5
292
1
282
    1
141
0
142
0
 63
  250
421
3358443
  0
ENDTAB
  0
TABLE
  2
LTYPE
  5
5
330
0
100
AcDbSymbolTable
 70
    4
  0
LTYPE
  5
14
330
5
100
AcDbSymbolTableRecord
100
AcDbLinetypeTableRecord
  2
ByBlock
 70
    0
  3

 72
   65
 73
    0
 40
0
  0
LTYPE
  5
15
330
5
100
AcDbSymbolTableRecord
100
AcDbLinetypeTableRecord
  2
ByLayer
 70
    0
  3

 72
   65
 73
    0
 40
0
  0
LTYPE
  5
16
330
5
100
AcDbSymbolTableRecord
100
AcDbLinetypeTableRecord
  2
Continuous
 70
    0
  3
Solid line
 72
   65
 73
    0
 40
0
  0
LTYPE
  5
32
330
5
100
AcDbSymbolTableRecord
100
AcDbLinetypeTableRecord
  2
DOT
 70
    0
  3
Dot . . . . . . . . . . . . . . . . . . . . . .
 72
   65
 73
    2
 40
6.35
 49
0
 74
    0
 49
-6.35
 74
    0
  0
LTYPE
  5
33
330
5
100
AcDbSymbolTableRecord
100
AcDbLinetypeTableRecord
  2
DOTTINY
 70
    0
  3
Dot (.15x) .....................................
 72
   65
 73
    2
 40
0.9525
 49
0
 74
    0
 49
-0.9525
 74
    0
  0
LTYPE
  5
34
330
5
100
AcDbSymbolTableRecord
100
AcDbLinetypeTableRecord
  2
DOT2
 70
    0
  3
Dot (.5x) .....................................
 72
   65
 73
    2
 40
3.175
 49
0
 74
    0
 49
-3.175
 74
    0
  0
LTYPE
  5
35
330
5
100
AcDbSymbolTableRecord
100
AcDbLinetypeTableRecord
  2
DOTX2
 70
    0
  3
Dot (2x) .  .  .  .  .  .  .  .  .  .  .  .  .
 72
   65
 73
    2
 40
12.7
 49
0
 74
    0
 49
-12.7
 74
    0
  0
LTYPE
  5
36
330
5
100
AcDbSymbolTableRecord
100
AcDbLinetypeTableRecord
  2
DASHED
 70
    0
  3
Dashed _ _ _ _ _ _ _ _ _ _ _ _ _ _ _ _ _
 72
   65
 73
    2
 40
19.05
 49
12.7
 74
    0
 49
-6.35
 74
    0
  0
LTYPE
  5
37
330
5
100
AcDbSymbolTableRecord
100
AcDbLinetypeTableRecord
  2
DASHEDTINY
 70
    0
  3
Dashed (.15x) _ _ _ _ _ _ _ _ _ _ _ _ _ _ _ _ _
 72
   65
 73
    2
 40
2.8575
 49
1.905
 74
    0
 49
-0.9525
 74
    0
  0
LTYPE
  5
38
330
5
100
AcDbSymbolTableRecord
100
AcDbLinetypeTableRecord
  2
DASHED2
 70
    0
  3
Dashed (.5x) _ _ _ _ _ _ _ _ _ _ _ _ _ _ _ _ _
 72
   65
 73
    2
 40
9.524999999999999
 49
6.35
 74
    0
 49
-3.175
 74
    0
  0
LTYPE
  5
39
330
5
100
AcDbSymbolTableRecord
100
AcDbLinetypeTableRecord
  2
DASHEDX2
 70
    0
  3
Dashed (2x) ____  ____  ____  ____  ____  ___
 72
   65
 73
    2
 40
38.09999999999999
 49
25.4
 74
    0
 49
-12.7
 74
    0
  0
LTYPE
  5
3A
330
5
100
AcDbSymbolTableRecord
100
AcDbLinetypeTableRecord
  2
DASHDOT
 70
    0
  3
Dash dot __ . __ . __ . __ . __ . __ . __ . __
 72
   65
 73
    4
 40
25.4
 49
12.7
 74
    0
 49
-6.35
 74
    0
 49
0
 74
    0
 49
-6.35
 74
    0
  0
LTYPE
  5
3B
330
5
100
AcDbSymbolTableRecord
100
AcDbLinetypeTableRecord
  2
DASHDOTTINY
 70
    0
  3
Dash dot (.15x) _._._._._._._._._._._._._._._.
 72
   65
 73
    4
 40
3.81
 49
1.905
 74
    0
 49
-0.9525
 74
    0
 49
0
 74
    0
 49
-0.9525
 74
    0
  0
LTYPE
  5
3C
330
5
100
AcDbSymbolTableRecord
100
AcDbLinetypeTableRecord
  2
DASHDOT2
 70
    0
  3
Dash dot (.5x) _._._._._._._._._._._._._._._.
 72
   65
 73
    4
 40
12.7
 49
6.35
 74
    0
 49
-3.175
 74
    0
 49
0
 74
    0
 49
-3.175
 74
    0
  0
LTYPE
  5
3D
330
5
100
AcDbSymbolTableRecord
100
AcDbLinetypeTableRecord
  2
DASHDOTX2
 70
    0
  3
Dash dot (2x) ____  .  ____  .  ____  .  ___
 72
   65
 73
    4
 40
50.8
 49
25.4
 74
    0
 49
-12.7
 74
    0
 49
0
 74
    0
 49
-12.7
 74
    0
  0
LTYPE
  5
3E
330
5
100
AcDbSymbolTableRecord
100
AcDbLinetypeTableRecord
  2
DIVIDE
 70
    0
  3
Divide ____ . . ____ . . ____ . . ____ . . ____
 72
   65
 73
    6
 40
31.75
 49
12.7
 74
    0
 49
-6.35
 74
    0
 49
0
 74
    0
 49
-6.35
 74
    0
 49
0
 74
    0
 49
-6.35
 74
    0
  0
LTYPE
  5
3F
330
5
100
AcDbSymbolTableRecord
100
AcDbLinetypeTableRecord
  2
DIVIDETINY
 70
    0
  3
Divide (.15x) __..__..__..__..__..__..__..__.._
 72
   65
 73
    6
 40
4.7625
 49
1.905
 74
    0
 49
-0.9525
 74
    0
 49
0
 74
    0
 49
-0.9525
 74
    0
 49
0
 74
    0
 49
-0.9525
 74
    0
  0
LTYPE
  5
40
330
5
100
AcDbSymbolTableRecord
100
AcDbLinetypeTableRecord
  2
DIVIDE2
 70
    0
  3
Divide (.5x) __..__..__..__..__..__..__..__.._
 72
   65
 73
    6
 40
15.875
 49
6.35
 74
    0
 49
-3.175
 74
    0
 49
0
 74
    0
 49
-3.175
 74
    0
 49
0
 74
    0
 49
-3.175
 74
    0
  0
LTYPE
  5
41
330
5
100
AcDbSymbolTableRecord
100
AcDbLinetypeTableRecord
  2
DIVIDEX2
 70
    0
  3
Divide (2x) ________  .  .  ________  .  .  _
 72
   65
 73
    6
 40
63.5
 49
25.4
 74
    0
 49
-12.7
 74
    0
 49
0
 74
    0
 49
-12.7
 74
    0
 49
0
 74
    0
 49
-12.7
 74
    0
  0
LTYPE
  5
42
330
5
100
AcDbSymbolTableRecord
100
AcDbLinetypeTableRecord
  2
BORDER
 70
    0
  3
Border __ __ . __ __ . __ __ . __ __ . __ __ .
 72
   65
 73
    6
 40
44.45
 49
12.7
 74
    0
 49
-6.35
 74
    0
 49
12.7
 74
    0
 49
-6.35
 74
    0
 49
0
 74
    0
 49
-6.35
 74
    0
  0
LTYPE
  5
43
330
5
100
AcDbSymbolTableRecord
100
AcDbLinetypeTableRecord
  2
BORDERTINY
 70
    0
  3
Border (.15x) __.__.__.__.__.__.__.__.__.__.__.
 72
   65
 73
    6
 40
6.6675
 49
1.905
 74
    0
 49
-0.9525
 74
    0
 49
1.905
 74
    0
 49
-0.9525
 74
    0
 49
0
 74
    0
 49
-0.9525
 74
    0
  0
LTYPE
  5
44
330
5
100
AcDbSymbolTableRecord
100
AcDbLinetypeTableRecord
  2
BORDER2
 70
    0
  3
Border (.5x) __.__.__.__.__.__.__.__.__.__.__.
 72
   65
 73
    6
 40
22.225
 49
6.35
 74
    0
 49
-3.175
 74
    0
 49
6.35
 74
    0
 49
-3.175
 74
    0
 49
0
 74
    0
 49
-3.175
 74
    0
  0
LTYPE
  5
45
330
5
100
AcDbSymbolTableRecord
100
AcDbLinetypeTableRecord
  2
BORDERX2
 70
    0
  3
Border (2x) ____  ____  .  ____  ____  .  ___
 72
   65
 73
    6
 40
88.89999999999999
 49
25.4
 74
    0
 49
-12.7
 74
    0
 49
25.4
 74
    0
 49
-12.7
 74
    0
 49
0
 74
    0
 49
-12.7
 74
    0
  0
LTYPE
  5
46
330
5
100
AcDbSymbolTableRecord
100
AcDbLinetypeTableRecord
  2
CENTER
 70
    0
  3
Center ____ _ ____ _ ____ _ ____ _ ____ _ ____
 72
   65
 73
    4
 40
50.8
 49
31.75
 74
    0
 49
-6.35
 74
    0
 49
6.35
 74
    0
 49
-6.35
 74
    0
  0
LTYPE
  5
47
330
5
100
AcDbSymbolTableRecord
100
AcDbLinetypeTableRecord
  2
CENTERTINY
 70
    0
  3
Center (.15x) ___ _ ___ _ ___ _ ___ _ ___ _ ___
 72
   65
 73
    4
 40
7.619999999999999
 49
4.7625
 74
    0
 49
-0.9525
 74
    0
 49
0.9525
 74
    0
 49
-0.9525
 74
    0
  0
LTYPE
  5
48
330
5
100
AcDbSymbolTableRecord
100
AcDbLinetypeTableRecord
  2
CENTER2
 70
    0
  3
Center (.5x) ___ _ ___ _ ___ _ ___ _ ___ _ ___
 72
   65
 73
    4
 40
28.575
 49
19.05
 74
    0
 49
-3.175
 74
    0
 49
3.175
 74
    0
 49
-3.175
 74
    0
  0
LTYPE
  5
49
330
5
100
AcDbSymbolTableRecord
100
AcDbLinetypeTableRecord
  2
CENTERX2
 70
    0
  3
Center (2x) ________  __  ________  __  _____
 72
   65
 73
    4
 40
101.6
 49
63.5
 74
    0
 49
-12.7
 74
    0
 49
12.7
 74
    0
 49
-12.7
 74
    0
  0
ENDTAB
  0
TABLE
  2
LAYER
  5
2
330
0
100
AcDbSymbolTable
 70
    1
  0
LAYER
  5
10
330
2
100
AcDbSymbolTableRecord
100
AcDbLayerTableRecord
  2
0
 70
    0
 62
    7
  6
CONTINUOUS
370
    0
390
F
  0
LAYER
  5
4A
330
2
100
AcDbSymbolTableRecord
100
AcDbLayerTableRecord
  2
ext1
 70
    0
 62
  240
420
16720679
  6
CONTINUOUS
370
    0
390
F
  0
LAYER
  5
4B
330
2
100
AcDbSymbolTableRecord
100
AcDbLayerTableRecord
  2
ext2
 70
    0
 62
   20
420
16730958
  6
CONTINUOUS
370
    0
390
F
  0
LAYER
  5
4C
330
2
100
AcDbSymbolTableRecord
100
AcDbLayerTableRecord
  2
ext3
 70
    0
 62
  241
420
16748433
  6
CONTINUOUS
370
    0
390
F
  0
LAYER
  5
4D
330
2
100
AcDbSymbolTableRecord
100
AcDbLayerTableRecord
  2
noname
 70
    0
 62
   16
420
8388608
  6
CONTINUOUS
370
    0
390
F
  0
LAYER
  5
4E
330
2
100
AcDbSymbolTableRecord
100
AcDbLayerTableRecord
  2
noname1
 70
    0
 62
    2
  6
CONTINUOUS
370
    0
390
F
  0
LAYER
  5
4F
330
2
100
AcDbSymbolTableRecord
100
AcDbLayerTableRecord
  2
rpi
 70
    0
 62
    3
  6
CONTINUOUS
370
    0
390
F
  0
ENDTAB
  0
TABLE
  2
STYLE
  5
3
330
0
100
AcDbSymbolTable
 70
    3
  0
STYLE
  5
50
330
2
100
AcDbSymbolTableRecord
100
AcDbTextStyleTableRecord
  2
Standard
 70
    0
 40
0
 41
1
 50
0
 71
    0
 42
1
  3
txt
  4

  0
ENDTAB
  0
TABLE
  2
VIEW
  5
6
330
0
100
AcDbSymbolTable
 70
    0
  0
ENDTAB
  0
TABLE
  2
UCS
  5
7
330
0
100
AcDbSymbolTable
 70
    0
  0
ENDTAB
  0
TABLE
  2
APPID
  5
9
330
0
100
AcDbSymbolTable
 70
    1
  0
APPID
  5
12
330
9
100
AcDbSymbolTableRecord
100
AcDbRegAppTableRecord
  2
ACAD
 70
    0
  0
APPID
  5
51
330
9
100
AcDbSymbolTableRecord
100
AcDbRegAppTableRecord
  2
LibreCad
 70
    0
  0
ENDTAB
  0
TABLE
  2
DIMSTYLE
  5
A
330
0
100
AcDbSymbolTable
 70
    1
100
AcDbDimStyleTable
 71
    1
  0
DIMSTYLE
105
52
330
A
100
AcDbSymbolTableRecord
100
AcDbDimStyleTableRecord
  2
Standard
 70
    0
 40
1
 41
2.5
 42
0.625
 43
0.38
 44
1.25
 45
0
 46
0
 47
0
 48
0
 49
1
140
2.5
141
0.09
142
2.5
143
25.4
144
1
145
0
146
1
147
0.625
148
0
 71
    0
 72
    0
 73
    0
 74
    1
 75
    0
 76
    0
 77
    0
 78
    1
 79
    0
170
    0
171
    2
172
    0
173
    0
174
    0
175
    0
176
    0
177
    0
178
    0
179
    0
271
    2
272
    4
273
    2
274
    2
275
    0
276
    0
277
    2
278
    0
279
    0
280
    0
281
    0
282
    0
283
    1
284
    0
285
    0
286
    0
288
    0
289
    3
340
standard
341

371
   -2
372
   -2
  0
ENDTAB
  0
TABLE
  2
BLOCK_RECORD
  5
1
330
0
100
AcDbSymbolTable
 70
    2
  0
BLOCK_RECORD
  5
1F
330
1
100
AcDbSymbolTableRecord
100
AcDbBlockTableRecord
  2
*Model_Space
 70
    0
280
    1
281
    0
  0
BLOCK_RECORD
  5
1E
330
1
100
AcDbSymbolTableRecord
100
AcDbBlockTableRecord
  2
*Paper_Space
 70
    0
280
    1
281
    0
  0
ENDTAB
  0
ENDSEC
  0
SECTION
  2
BLOCKS
  0
BLOCK
  5
20
330
1F
100
AcDbEntity
  8
0
100
AcDbBlockBegin
  2
*Model_Space
 70
    0
 10
0
 20
0
 30
0
  3
*Model_Space
  1

  0
ENDBLK
  5
21
330
1F
100
AcDbEntity
  8
0
100
AcDbBlockEnd
  0
BLOCK
  5
1C
330
1B
100
AcDbEntity
  8
0
100
AcDbBlockBegin
  2
*Paper_Space
 70
    0
 10
0
 20
0
 30
0
  3
*Paper_Space
  1

  0
ENDBLK
  5
1D
330
1F
100
AcDbEntity
  8
0
100
AcDbBlockEnd
  0
ENDSEC
  0
SECTION
  2
ENTITIES
  0
LINE
  5
53
100
AcDbEntity
  8
0
  6
ByLayer
 62
  256
370
   -1
100
AcDbLine
 10
-55.9944194
 20
54.4838422
 11
-42.4714578
 21
50.8603756
  0
LINE
  5
54
100
AcDbEntity
  8
0
  6
ByLayer
 62
  256
370
   -1
100
AcDbLine
 10
-59.617886
 20
40.9608806
 11
-46.0949244
 21
37.337414
  0
LINE
  5
55
100
AcDbEntity
  8
0
  6
ByLayer
 62
  256
370
   -1
100
AcDbLine
 10
-55.9944194
 20
54.4838422
 11
-59.617886
 21
40.9608806
  0
LINE
  5
56
100
AcDbEntity
  8
0
  6
ByLayer
 62
  256
370
   -1
100
AcDbLine
 10
-42.4714578
 20
50.8603756
 11
-46.0949244
 21
37.337414
  0
LINE
  5
57
100
AcDbEntity
  8
0
  6
ByLayer
 62
  256
370
   -1
100
AcDbLine
 10
-75.57640050000001
 20
54.8132564
 11
-62.0534389
 21
51.1897898
  0
LINE
  5
58
100
AcDbEntity
  8
0
  6
ByLayer
 62
  256
370
   -1
100
AcDbLine
 10
-79.19986710000001
 20
41.2902948
 11
-65.6769055
 21
37.6668282
  0
LINE
  5
59
100
AcDbEntity
  8
0
  6
ByLayer
 62
  256
370
   -1
100
AcDbLine
 10
-75.57640050000001
 20
54.8132564
 11
-79.19986710000001
 21
41.2902948
  0
LINE
  5
5A
100
AcDbEntity
  8
0
  6
ByLayer
 62
  256
370
   -1
100
AcDbLine
 10
-62.0534389
 20
51.1897898
 11
-65.6769055
 21
37.6668282
  0
LINE
  5
5B
100
AcDbEntity
  8
0
  6
ByLayer
 62
  256
370
   -1
100
AcDbLine
 10
-38.8712191
 20
44.9781327
 11
-25.3482575
 21
41.3546661
  0
LINE
  5
5C
100
AcDbEntity
  8
0
  6
ByLayer
 62
  256
370
   -1
100
AcDbLine
 10
-42.49468570000001
 20
31.4551711
 11
-28.9717241
 21
27.8317045
  0
LINE
  5
5D
100
AcDbEntity
  8
0
  6
ByLayer
 62
  256
370
   -1
100
AcDbLine
 10
-38.8712191
 20
44.9781327
 11
-42.49468570000001
 21
31.4551711
  0
LINE
  5
5E
100
AcDbEntity
  8
0
  6
ByLayer
 62
  256
370
   -1
100
AcDbLine
 10
-25.3482575
 20
41.3546661
 11
-28.9717241
 21
27.8317045
  0
LINE
  5
5F
100
AcDbEntity
  8
0
  6
ByLayer
 62
  256
370
   -1
100
AcDbLine
 10
-95.15838170000001
 20
55.1426706
 11
-81.6354201
 21
51.519204
  0
LINE
  5
60
100
AcDbEntity
  8
0
  6
ByLayer
 62
  256
370
   -1
100
AcDbLine
 10
-98.78184830000001
 20
41.619709
 11
-85.25888670000001
 21
37.9962424
  0
LINE
  5
61
100
AcDbEntity
  8
0
  6
ByLayer
 62
  256
370
   -1
100
AcDbLine
 10
-95.15838170000001
 20
55.1426706
 11
-98.78184830000001
 21
41.619709
  0
LINE
  5
62
100
AcDbEntity
  8
0
  6
ByLayer
 62
  256
370
   -1
100
AcDbLine
 10
-81.6354201
 20
51.519204
 11
-85.25888670000001
 21
37.9962424
  0
LINE
  5
63
100
AcDbEntity
  8
0
  6
ByLayer
 62
  256
370
   -1
100
AcDbLine
 10
-21.74801890000001
 20
35.4724232
 11
-8.225057300000005
 21
31.8489566
  0
LINE
  5
64
100
AcDbEntity
  8
0
  6
ByLayer
 62
  256
370
   -1
100
AcDbLine
 10
-25.37148550000001
 20
21.9494616
 11
-11.84852390000001
 21
18.325995
  0
LINE
  5
65
100
AcDbEntity
  8
0
  6
ByLayer
 62
  256
370
   -1
100
AcDbLine
 10
-21.74801890000001
 20
35.4724232
 11
-25.37148550000001
 21
21.9494616
  0
LINE
  5
66
100
AcDbEntity
  8
0
  6
ByLayer
 62
  256
370
   -1
100
AcDbLine
 10
-8.225057300000005
 20
31.8489566
 11
-11.84852390000001
 21
18.325995
  0
LINE
  5
67
100
AcDbEntity
  8
0
  6
ByLayer
 62
  256
370
   -1
100
AcDbLine
 10
-60.9119812
 20
36.1312515
 11
-47.3890196
 21
32.5077849
  0
LINE
  5
68
100
AcDbEntity
  8
0
  6
ByLayer
 62
  256
370
   -1
100
AcDbLine
 10
-64.5354478
 20
22.6082899
 11
-51.0124862
 21
18.9848233
  0
LINE
  5
69
100
AcDbEntity
  8
0
  6
ByLayer
 62
  256
370
   -1
100
AcDbLine
 10
-60.9119812
 20
36.1312515
 11
-64.5354478
 21
22.6082899
  0
LINE
  5
6A
100
AcDbEntity
  8
0
  6
ByLayer
 62
  256
370
   -1
100
AcDbLine
 10
-47.3890196
 20
32.5077849
 11
-51.0124862
 21
18.9848233
  0
LINE
  5
6B
100
AcDbEntity
  8
0
  6
ByLayer
 62
  256
370
   -1
100
AcDbLine
 10
-80.4939624
 20
36.4606657
 11
-66.9710008
 21
32.8371991
  0
LINE
  5
6C
100
AcDbEntity
  8
0
  6
ByLayer
 62
  256
370
   -1
100
AcDbLine
 10
-84.117429
 20
22.9377041
 11
-70.5944674
 21
19.3142375
  0
LINE
  5
6D
100
AcDbEntity
  8
0
  6
ByLayer
 62
  256
370
   -1
100
AcDbLine
 10
-80.4939624
 20
36.4606657
 11
-84.117429
 21
22.9377041
  0
LINE
  5
6E
100
AcDbEntity
  8
0
  6
ByLayer
 62
  256
370
   -1
100
AcDbLine
 10
-66.9710008
 20
32.8371991
 11
-70.5944674
 21
19.3142375
  0
LINE
  5
6F
100
AcDbEntity
  8
0
  6
ByLayer
 62
  256
370
   -1
100
AcDbLine
 10
-43.788781
 20
26.625542
 11
-30.2658194
 21
23.0020754
  0
LINE
  5
70
100
AcDbEntity
  8
0
  6
ByLayer
 62
  256
370
   -1
100
AcDbLine
 10
-47.4122476
 20
13.1025804
 11
-33.889286
 21
9.4791138
  0
LINE
  5
71
100
AcDbEntity
  8
0
  6
ByLayer
 62
  256
370
   -1
100
AcDbLine
 10
-43.788781
 20
26.625542
 11
-47.4122476
 21
13.1025804
  0
LINE
  5
72
100
AcDbEntity
  8
0
  6
ByLayer
 62
  256
370
   -1
100
AcDbLine
 10
-30.2658194
 20
23.0020754
 11
-33.889286
 21
9.4791138
  0
LINE
  5
73
100
AcDbEntity
  8
0
  6
ByLayer
 62
  256
370
   -1
100
AcDbLine
 10
-100.0759435
 20
36.79007989999999
 11
-86.55298189999999
 21
33.1666133
  0
LINE
  5
74
100
AcDbEntity
  8
0
  6
ByLayer
 62
  256
370
   -1
100
AcDbLine
 10
-103.6994101
 20
23.2671183
 11
-90.17644849999999
 21
19.6436517
  0
LINE
  5
75
100
AcDbEntity
  8
0
  6
ByLayer
 62
  256
370
   -1
100
AcDbLine
 10
-100.0759435
 20
36.79007989999999
 11
-103.6994101
 21
23.2671183
  0
LINE
  5
76
100
AcDbEntity
  8
0
  6
ByLayer
 62
  256
370
   -1
100
AcDbLine
 10
-86.55298189999999
 20
33.1666133
 11
-90.17644849999999
 21
19.6436517
  0
LINE
  5
77
100
AcDbEntity
  8
0
  6
ByLayer
 62
  256
370
   -1
100
AcDbLine
 10
-26.66558070000001
 20
17.1198325
 11
-13.14261910000001
 21
13.4963659
  0
LINE
  5
78
100
AcDbEntity
  8
0
  6
ByLayer
 62
  256
370
   -1
100
AcDbLine
 10
-30.28904729999999
 20
3.596870899999999
 11
-16.7660857
 21
-0.02659570000000144
  0
LINE
  5
79
100
AcDbEntity
  8
0
  6
ByLayer
 62
  256
370
   -1
100
AcDbLine
 10
-26.66558070000001
 20
17.1198325
 11
-30.28904729999999
 21
3.596870899999999
  0
LINE
  5
7A
100
AcDbEntity
  8
0
  6
ByLayer
 62
  256
370
   -1
100
AcDbLine
 10
-13.14261910000001
 20
13.4963659
 11
-16.7660857
 21
-0.02659570000000144
  0
LINE
  5
7B
100
AcDbEntity
  8
0
  6
ByLayer
 62
  256
370
   -1
100
AcDbLine
 10
-65.8295431
 20
17.7786608
 11
-52.30658149999999
 21
14.1551942
  0
LINE
  5
7C
100
AcDbEntity
  8
0
  6
ByLayer
 62
  256
370
   -1
100
AcDbLine
 10
-69.4530097
 20
4.255699200000002
 11
-55.9300481
 21
0.6322326000000018
  0
LINE
  5
7D
100
AcDbEntity
  8
0
  6
ByLayer
 62
  256
370
   -1
100
AcDbLine
 10
-65.8295431
 20
17.7786608
 11
-69.4530097
 21
4.255699200000002
  0
LINE
  5
7E
100
AcDbEntity
  8
0
  6
ByLayer
 62
  256
370
   -1
100
AcDbLine
 10
-52.30658149999999
 20
14.1551942
 11
-55.9300481
 21
0.6322326000000018
  0
LINE
  5
7F
100
AcDbEntity
  8
0
  6
ByLayer
 62
  256
370
   -1
100
AcDbLine
 10
-85.4115242
 20
18.108075
 11
-71.8885626
 21
14.4846084
  0
LINE
  5
80
100
AcDbEntity
  8
0
  6
ByLayer
 62
  256
370
   -1
100
AcDbLine
 10
-89.0349908
 20
4.585113399999997
 11
-75.5120292
 21
0.9616467999999969
  0
LINE
  5
81
100
AcDbEntity
  8
0
  6
ByLayer
 62
  256
370
   -1
100
AcDbLine
 10
-85.4115242
 20
18.108075
 11
-89.0349908
 21
4.585113399999997
  0
LINE
  5
82
100
AcDbEntity
  8
0
  6
ByLayer
 62
  256
370
   -1
100
AcDbLine
 10
-71.8885626
 20
14.4846084
 11
-75.5120292
 21
0.9616467999999969
  0
LINE
  5
83
100
AcDbEntity
  8
0
  6
ByLayer
 62
  256
370
   -1
100
AcDbLine
 10
-48.7063428
 20
8.272951300000003
 11
-35.1833812
 21
4.649484700000002
  0
LINE
  5
84
100
AcDbEntity
  8
0
  6
ByLayer
 62
  256
370
   -1
100
AcDbLine
 10
-52.3298094
 20
-5.2500103
 11
-38.8068478
 21
-8.8734769
  0
LINE
  5
85
100
AcDbEntity
  8
0
  6
ByLayer
 62
  256
370
   -1
100
AcDbLine
 10
-48.7063428
 20
8.272951300000003
 11
-52.3298094
 21
-5.2500103
  0
LINE
  5
86
100
AcDbEntity
  8
0
  6
ByLayer
 62
  256
370
   -1
100
AcDbLine
 10
-35.1833812
 20
4.649484700000002
 11
-38.8068478
 21
-8.8734769
  0
LINE
  5
87
100
AcDbEntity
  8
0
  6
ByLayer
 62
  256
370
   -1
100
AcDbLine
 10
-104.9935054
 20
18.4374892
 11
-91.4705438
 21
14.8140226
  0
LINE
  5
88
100
AcDbEntity
  8
0
  6
ByLayer
 62
  256
370
   -1
100
AcDbLine
 10
-108.616972
 20
4.9145276
 11
-95.0940104
 21
1.291060999999999
  0
LINE
  5
89
100
AcDbEntity
  8
0
  6
ByLayer
 62
  256
370
   -1
100
AcDbLine
 10
-104.9935054
 20
18.4374892
 11
-108.616972
 21
4.9145276
  0
LINE
  5
8A
100
AcDbEntity
  8
0
  6
ByLayer
 62
  256
370
   -1
100
AcDbLine
 10
-91.4705438
 20
14.8140226
 11
-95.0940104
 21
1.291060999999999
  0
LINE
  5
8B
100
AcDbEntity
  8
0
  6
ByLayer
 62
  256
370
   -1
100
AcDbLine
 10
-31.5831426
 20
-1.232758199999999
 11
-18.060181
 21
-4.856224800000007
  0
LINE
  5
8C
100
AcDbEntity
  8
0
  6
ByLayer
 62
  256
370
   -1
100
AcDbLine
 10
-35.2066092
 20
-14.75571979999999
 11
-21.6836476
 21
-18.37918639999999
  0
LINE
  5
8D
100
AcDbEntity
  8
0
  6
ByLayer
 62
  256
370
   -1
100
AcDbLine
 10
-31.5831426
 20
-1.232758199999999
 11
-35.2066092
 21
-14.75571979999999
  0
LINE
  5
8E
100
AcDbEntity
  8
0
  6
ByLayer
 62
  256
370
   -1
100
AcDbLine
 10
-18.060181
 20
-4.856224800000007
 11
-21.6836476
 21
-18.37918639999999
  0
LINE
  5
8F
100
AcDbEntity
  8
0
  6
ByLayer
 62
  256
370
   -1
100
AcDbLine
 10
-109.9110673
 20
0.08489850000000132
 11
-96.3881057
 21
-3.538568100000006
  0
LINE
  5
90
100
AcDbEntity
  8
0
  6
ByLayer
 62
  256
370
   -1
100
AcDbLine
 10
-113.5345339
 20
-13.43806309999999
 11
-100.0115723
 21
-17.06152969999999
  0
LINE
  5
91
100
AcDbEntity
  8
0
  6
ByLayer
 62
  256
370
   -1
100
AcDbLine
 10
-109.9110673
 20
0.08489850000000132
 11
-113.5345339
 21
-13.43806309999999
  0
LINE
  5
92
100
AcDbEntity
  8
0
  6
ByLayer
 62
  256
370
   -1
100
AcDbLine
 10
-96.3881057
 20
-3.538568100000006
 11
-100.0115723
 21
-17.06152969999999
  0
LINE
  5
93
100
AcDbEntity
  8
0
  6
ByLayer
 62
  256
370
   -1
100
AcDbLine
 10
-91.55847660000001
 20
-4.832663400000001
 11
-78.035515
 21
-8.456130000000002
  0
LINE
  5
94
100
AcDbEntity
  8
0
  6
ByLayer
 62
  256
370
   -1
100
AcDbLine
 10
-95.18194320000001
 20
-18.355625
 11
-81.6589816
 21
-21.9790916
  0
LINE
  5
95
100
AcDbEntity
  8
0
  6
ByLayer
 62
  256
370
   -1
100
AcDbLine
 10
-91.55847660000001
 20
-4.832663400000001
 11
-95.18194320000001
 21
-18.355625
  0
LINE
  5
96
100
AcDbEntity
  8
0
  6
ByLayer
 62
  256
370
   -1
100
AcDbLine
 10
-78.035515
 20
-8.456130000000002
 11
-81.6589816
 21
-21.9790916
  0
LINE
  5
97
100
AcDbEntity
  8
0
  6
ByLayer
 62
  256
370
   -1
100
AcDbLine
 10
-73.2058859
 20
-9.750225200000003
 11
-59.6829243
 21
-13.3736918
  0
LINE
  5
98
100
AcDbEntity
  8
0
  6
ByLayer
 62
  256
370
   -1
100
AcDbLine
 10
-76.8293525
 20
-23.2731868
 11
-63.3063909
 21
-26.89665340000001
  0
LINE
  5
99
100
AcDbEntity
  8
0
  6
ByLayer
 62
  256
370
   -1
100
AcDbLine
 10
-73.2058859
 20
-9.750225200000003
 11
-76.8293525
 21
-23.2731868
  0
LINE
  5
9A
100
AcDbEntity
  8
0
  6
ByLayer
 62
  256
370
   -1
100
AcDbLine
 10
-59.6829243
 20
-13.3736918
 11
-63.3063909
 21
-26.89665340000001
  0
LINE
  5
9B
100
AcDbEntity
  8
0
  6
ByLayer
 62
  256
370
   -1
100
AcDbLine
 10
-45.04948570000001
 20
-20.7952459
 11
-31.89378910000001
 21
-25.58352790000001
  0
LINE
  5
9C
100
AcDbEntity
  8
0
  6
ByLayer
 62
  256
370
   -1
100
AcDbLine
 10
-49.8377677
 20
-33.9509425
 11
-36.6820711
 21
-38.73922450000001
  0
LINE
  5
9D
100
AcDbEntity
  8
0
  6
ByLayer
 62
  256
370
   -1
100
AcDbLine
 10
-45.04948570000001
 20
-20.7952459
 11
-49.8377677
 21
-33.9509425
  0
LINE
  5
9E
100
AcDbEntity
  8
0
  6
ByLayer
 62
  256
370
   -1
100
AcDbLine
 10
-31.89378910000001
 20
-25.58352790000001
 11
-36.6820711
 21
-38.73922450000001
  0
LINE
  5
9F
100
AcDbEntity
  8
0
  6
ByLayer
 62
  256
370
   -1
100
AcDbLine
 10
19.5282125
 20
-29.3352356
 11
26.5282125
 21
-41.45959120000001
  0
LINE
  5
A0
100
AcDbEntity
  8
0
  6
ByLayer
 62
  256
370
   -1
100
AcDbLine
 10
7.403856899999992
 20
-36.3352356
 11
14.40385689999999
 21
-48.45959120000001
  0
LINE
  5
A1
100
AcDbEntity
  8
0
  6
ByLayer
 62
  256
370
   -1
100
AcDbLine
 10
19.5282125
 20
-29.3352356
 11
7.403856899999992
 21
-36.3352356
  0
LINE
  5
A2
100
AcDbEntity
  8
0
  6
ByLayer
 62
  256
370
   -1
100
AcDbLine
 10
26.5282125
 20
-41.45959120000001
 11
14.40385689999999
 21
-48.45959120000001
  0
LINE
  5
A3
100
AcDbEntity
  8
0
  6
ByLayer
 62
  256
370
   -1
100
AcDbLine
 10
32.07233070000001
 20
-25.51854400000001
 11
45.22802730000001
 21
-20.730262
  0
LINE
  5
A4
100
AcDbEntity
  8
0
  6
ByLayer
 62
  256
370
   -1
100
AcDbLine
 10
36.86061269999999
 20
-38.6742406
 11
50.01630929999999
 21
-33.8859586
  0
LINE
  5
A5
100
AcDbEntity
  8
0
  6
ByLayer
 62
  256
370
   -1
100
AcDbLine
 10
32.07233070000001
 20
-25.51854400000001
 11
36.86061269999999
 21
-38.6742406
  0
LINE
  5
A6
100
AcDbEntity
  8
0
  6
ByLayer
 62
  256
370
   -1
100
AcDbLine
 10
45.22802730000001
 20
-20.730262
 11
50.01630929999999
 21
-33.8859586
  0
LINE
  5
A7
100
AcDbEntity
  8
0
  6
ByLayer
 62
  256
370
   -1
100
AcDbLine
 10
42.4714578
 20
50.8603756
 11
55.9944194
 21
54.4838422
  0
LINE
  5
A8
100
AcDbEntity
  8
0
  6
ByLayer
 62
  256
370
   -1
100
AcDbLine
 10
46.0949244
 20
37.337414
 11
59.617886
 21
40.9608806
  0
LINE
  5
A9
100
AcDbEntity
  8
0
  6
ByLayer
 62
  256
370
   -1
100
AcDbLine
 10
42.4714578
 20
50.8603756
 11
46.0949244
 21
37.337414
  0
LINE
  5
AA
100
AcDbEntity
  8
0
  6
ByLayer
 62
  256
370
   -1
100
AcDbLine
 10
55.9944194
 20
54.4838422
 11
59.617886
 21
40.9608806
  0
LINE
  5
AB
100
AcDbEntity
  8
0
  6
ByLayer
 62
  256
370
   -1
100
AcDbLine
 10
25.34825749999999
 20
41.3546661
 11
38.87121909999999
 21
44.9781327
  0
LINE
  5
AC
100
AcDbEntity
  8
0
  6
ByLayer
 62
  256
370
   -1
100
AcDbLine
 10
28.97172409999999
 20
27.8317045
 11
42.49468569999999
 21
31.4551711
  0
LINE
  5
AD
100
AcDbEntity
  8
0
  6
ByLayer
 62
  256
370
   -1
100
AcDbLine
 10
25.34825749999999
 20
41.3546661
 11
28.97172409999999
 21
27.8317045
  0
LINE
  5
AE
100
AcDbEntity
  8
0
  6
ByLayer
 62
  256
370
   -1
100
AcDbLine
 10
38.87121909999999
 20
44.9781327
 11
42.49468569999999
 21
31.4551711
  0
LINE
  5
AF
100
AcDbEntity
  8
0
  6
ByLayer
 62
  256
370
   -1
100
AcDbLine
 10
62.0534389
 20
51.1897898
 11
75.57640050000001
 21
54.8132564
  0
LINE
  5
B0
100
AcDbEntity
  8
0
  6
ByLayer
 62
  256
370
   -1
100
AcDbLine
 10
65.6769055
 20
37.6668282
 11
79.19986710000001
 21
41.2902948
  0
LINE
  5
B1
100
AcDbEntity
  8
0
  6
ByLayer
 62
  256
370
   -1
100
AcDbLine
 10
62.0534389
 20
51.1897898
 11
65.6769055
 21
37.6668282
  0
LINE
  5
B2
100
AcDbEntity
  8
0
  6
ByLayer
 62
  256
370
   -1
100
AcDbLine
 10
75.57640050000001
 20
54.8132564
 11
79.19986710000001
 21
41.2902948
  0
LINE
  5
B3
100
AcDbEntity
  8
0
  6
ByLayer
 62
  256
370
   -1
100
AcDbLine
 10
8.225057300000001
 20
31.8489566
 11
21.74801890000001
 21
35.4724232
  0
LINE
  5
B4
100
AcDbEntity
  8
0
  6
ByLayer
 62
  256
370
   -1
100
AcDbLine
 10
11.8485239
 20
18.325995
 11
25.37148550000001
 21
21.9494616
  0
LINE
  5
B5
100
AcDbEntity
  8
0
  6
ByLayer
 62
  256
370
   -1
100
AcDbLine
 10
8.225057300000001
 20
31.8489566
 11
11.8485239
 21
18.325995
  0
LINE
  5
B6
100
AcDbEntity
  8
0
  6
ByLayer
 62
  256
370
   -1
100
AcDbLine
 10
21.74801890000001
 20
35.4724232
 11
25.37148550000001
 21
21.9494616
  0
LINE
  5
B7
100
AcDbEntity
  8
0
  6
ByLayer
 62
  256
370
   -1
100
AcDbLine
 10
81.6354201
 20
51.519204
 11
95.15838170000001
 21
55.1426706
  0
LINE
  5
B8
100
AcDbEntity
  8
0
  6
ByLayer
 62
  256
370
   -1
100
AcDbLine
 10
85.25888670000001
 20
37.9962424
 11
98.78184830000001
 21
41.619709
  0
LINE
  5
B9
100
AcDbEntity
  8
0
  6
ByLayer
 62
  256
370
   -1
100
AcDbLine
 10
81.6354201
 20
51.519204
 11
85.25888670000001
 21
37.9962424
  0
LINE
  5
BA
100
AcDbEntity
  8
0
  6
ByLayer
 62
  256
370
   -1
100
AcDbLine
 10
95.15838170000001
 20
55.1426706
 11
98.78184830000001
 21
41.619709
  0
LINE
  5
BB
100
AcDbEntity
  8
0
  6
ByLayer
 62
  256
370
   -1
100
AcDbLine
 10
47.38901960000001
 20
32.5077849
 11
60.91198120000001
 21
36.1312515
  0
LINE
  5
BC
100
AcDbEntity
  8
0
  6
ByLayer
 62
  256
370
   -1
100
AcDbLine
 10
51.01248620000001
 20
18.9848233
 11
64.53544779999999
 21
22.6082899
  0
LINE
  5
BD
100
AcDbEntity
  8
0
  6
ByLayer
 62
  256
370
   -1
100
AcDbLine
 10
47.38901960000001
 20
32.5077849
 11
51.01248620000001
 21
18.9848233
  0
LINE
  5
BE
100
AcDbEntity
  8
0
  6
ByLayer
 62
  256
370
   -1
100
AcDbLine
 10
60.91198120000001
 20
36.1312515
 11
64.53544779999999
 21
22.6082899
  0
LINE
  5
BF
100
AcDbEntity
  8
0
  6
ByLayer
 62
  256
370
   -1
100
AcDbLine
 10
30.2658194
 20
23.0020754
 11
43.788781
 21
26.625542
  0
LINE
  5
C0
100
AcDbEntity
  8
0
  6
ByLayer
 62
  256
370
   -1
100
AcDbLine
 10
33.889286
 20
9.4791138
 11
47.4122476
 21
13.1025804
  0
LINE
  5
C1
100
AcDbEntity
  8
0
  6
ByLayer
 62
  256
370
   -1
100
AcDbLine
 10
30.2658194
 20
23.0020754
 11
33.889286
 21
9.4791138
  0
LINE
  5
C2
100
AcDbEntity
  8
0
  6
ByLayer
 62
  256
370
   -1
100
AcDbLine
 10
43.788781
 20
26.625542
 11
47.4122476
 21
13.1025804
  0
LINE
  5
C3
100
AcDbEntity
  8
0
  6
ByLayer
 62
  256
370
   -1
100
AcDbLine
 10
66.97100080000001
 20
32.8371991
 11
80.49396239999999
 21
36.4606657
  0
LINE
  5
C4
100
AcDbEntity
  8
0
  6
ByLayer
 62
  256
370
   -1
100
AcDbLine
 10
70.59446740000001
 20
19.3142375
 11
84.11742899999999
 21
22.9377041
  0
LINE
  5
C5
100
AcDbEntity
  8
0
  6
ByLayer
 62
  256
370
   -1
100
AcDbLine
 10
66.97100080000001
 20
32.8371991
 11
70.59446740000001
 21
19.3142375
  0
LINE
  5
C6
100
AcDbEntity
  8
0
  6
ByLayer
 62
  256
370
   -1
100
AcDbLine
 10
80.49396239999999
 20
36.4606657
 11
84.11742899999999
 21
22.9377041
  0
LINE
  5
C7
100
AcDbEntity
  8
0
  6
ByLayer
 62
  256
370
   -1
100
AcDbLine
 10
13.14261909999999
 20
13.4963659
 11
26.66558069999999
 21
17.1198325
  0
LINE
  5
C8
100
AcDbEntity
  8
0
  6
ByLayer
 62
  256
370
   -1
100
AcDbLine
 10
16.76608569999999
 20
-0.02659570000000144
 11
30.28904729999999
 21
3.596870899999999
  0
LINE
  5
C9
100
AcDbEntity
  8
0
  6
ByLayer
 62
  256
370
   -1
100
AcDbLine
 10
13.14261909999999
 20
13.4963659
 11
16.76608569999999
 21
-0.02659570000000144
  0
LINE
  5
CA
100
AcDbEntity
  8
0
  6
ByLayer
 62
  256
370
   -1
100
AcDbLine
 10
26.66558069999999
 20
17.1198325
 11
30.28904729999999
 21
3.596870899999999
  0
LINE
  5
CB
100
AcDbEntity
  8
0
  6
ByLayer
 62
  256
370
   -1
100
AcDbLine
 10
86.55298189999999
 20
33.1666133
 11
100.0759435
 21
36.79007989999999
  0
LINE
  5
CC
100
AcDbEntity
  8
0
  6
ByLayer
 62
  256
370
   -1
100
AcDbLine
 10
90.17644849999999
 20
19.6436517
 11
103.6994101
 21
23.2671183
  0
LINE
  5
CD
100
AcDbEntity
  8
0
  6
ByLayer
 62
  256
370
   -1
100
AcDbLine
 10
86.55298189999999
 20
33.1666133
 11
90.17644849999999
 21
19.6436517
  0
LINE
  5
CE
100
AcDbEntity
  8
0
  6
ByLayer
 62
  256
370
   -1
100
AcDbLine
 10
100.0759435
 20
36.79007989999999
 11
103.6994101
 21
23.2671183
  0
LINE
  5
CF
100
AcDbEntity
  8
0
  6
ByLayer
 62
  256
370
   -1
100
AcDbLine
 10
52.30658149999999
 20
14.1551942
 11
65.8295431
 21
17.7786608
  0
LINE
  5
D0
100
AcDbEntity
  8
0
  6
ByLayer
 62
  256
370
   -1
100
AcDbLine
 10
55.93004809999999
 20
0.6322326000000018
 11
69.4530097
 21
4.255699200000002
  0
LINE
  5
D1
100
AcDbEntity
  8
0
  6
ByLayer
 62
  256
370
   -1
100
AcDbLine
 10
52.30658149999999
 20
14.1551942
 11
55.93004809999999
 21
0.6322326000000018
  0
LINE
  5
D2
100
AcDbEntity
  8
0
  6
ByLayer
 62
  256
370
   -1
100
AcDbLine
 10
65.8295431
 20
17.7786608
 11
69.4530097
 21
4.255699200000002
  0
LINE
  5
D3
100
AcDbEntity
  8
0
  6
ByLayer
 62
  256
370
   -1
100
AcDbLine
 10
35.18338120000001
 20
4.649484700000002
 11
48.70634279999999
 21
8.272951300000003
  0
LINE
  5
D4
100
AcDbEntity
  8
0
  6
ByLayer
 62
  256
370
   -1
100
AcDbLine
 10
38.80684780000001
 20
-8.8734769
 11
52.32980939999999
 21
-5.2500103
  0
LINE
  5
D5
100
AcDbEntity
  8
0
  6
ByLayer
 62
  256
370
   -1
100
AcDbLine
 10
35.18338120000001
 20
4.649484700000002
 11
38.80684780000001
 21
-8.8734769
  0
LINE
  5
D6
100
AcDbEntity
  8
0
  6
ByLayer
 62
  256
370
   -1
100
AcDbLine
 10
48.70634279999999
 20
8.272951300000003
 11
52.32980939999999
 21
-5.2500103
  0
LINE
  5
D7
100
AcDbEntity
  8
0
  6
ByLayer
 62
  256
370
   -1
100
AcDbLine
 10
71.8885626
 20
14.4846084
 11
85.4115242
 21
18.108075
  0
LINE
  5
D8
100
AcDbEntity
  8
0
  6
ByLayer
 62
  256
370
   -1
100
AcDbLine
 10
75.5120292
 20
0.9616467999999969
 11
89.0349908
 21
4.585113399999997
  0
LINE
  5
D9
100
AcDbEntity
  8
0
  6
ByLayer
 62
  256
370
   -1
100
AcDbLine
 10
71.8885626
 20
14.4846084
 11
75.5120292
 21
0.9616467999999969
  0
LINE
  5
DA
100
AcDbEntity
  8
0
  6
ByLayer
 62
  256
370
   -1
100
AcDbLine
 10
85.4115242
 20
18.108075
 11
89.0349908
 21
4.585113399999997
  0
LINE
  5
DB
100
AcDbEntity
  8
0
  6
ByLayer
 62
  256
370
   -1
100
AcDbLine
 10
18.060181
 20
-4.856224800000007
 11
31.5831426
 21
-1.232758199999999
  0
LINE
  5
DC
100
AcDbEntity
  8
0
  6
ByLayer
 62
  256
370
   -1
100
AcDbLine
 10
21.6836476
 20
-18.37918639999999
 11
35.2066092
 21
-14.75571979999999
  0
LINE
  5
DD
100
AcDbEntity
  8
0
  6
ByLayer
 62
  256
370
   -1
100
AcDbLine
 10
18.060181
 20
-4.856224800000007
 11
21.6836476
 21
-18.37918639999999
  0
LINE
  5
DE
100
AcDbEntity
  8
0
  6
ByLayer
 62
  256
370
   -1
100
AcDbLine
 10
31.5831426
 20
-1.232758199999999
 11
35.2066092
 21
-14.75571979999999
  0
LINE
  5
DF
100
AcDbEntity
  8
0
  6
ByLayer
 62
  256
370
   -1
100
AcDbLine
 10
91.4705438
 20
14.8140226
 11
104.9935054
 21
18.4374892
  0
LINE
  5
E0
100
AcDbEntity
  8
0
  6
ByLayer
 62
  256
370
   -1
100
AcDbLine
 10
95.0940104
 20
1.291060999999999
 11
108.616972
 21
4.9145276
  0
LINE
  5
E1
100
AcDbEntity
  8
0
  6
ByLayer
 62
  256
370
   -1
100
AcDbLine
 10
91.4705438
 20
14.8140226
 11
95.0940104
 21
1.291060999999999
  0
LINE
  5
E2
100
AcDbEntity
  8
0
  6
ByLayer
 62
  256
370
   -1
100
AcDbLine
 10
104.9935054
 20
18.4374892
 11
108.616972
 21
4.9145276
  0
LINE
  5
E3
100
AcDbEntity
  8
0
  6
ByLayer
 62
  256
370
   -1
100
AcDbLine
 10
59.6829243
 20
-13.3736918
 11
73.2058859
 21
-9.750225200000003
  0
LINE
  5
E4
100
AcDbEntity
  8
0
  6
ByLayer
 62
  256
370
   -1
100
AcDbLine
 10
63.3063909
 20
-26.89665340000001
 11
76.8293525
 21
-23.2731868
  0
LINE
  5
E5
100
AcDbEntity
  8
0
  6
ByLayer
 62
  256
370
   -1
100
AcDbLine
 10
59.6829243
 20
-13.3736918
 11
63.3063909
 21
-26.89665340000001
  0
LINE
  5
E6
100
AcDbEntity
  8
0
  6
ByLayer
 62
  256
370
   -1
100
AcDbLine
 10
73.2058859
 20
-9.750225200000003
 11
76.8293525
 21
-23.2731868
  0
LINE
  5
E7
100
AcDbEntity
  8
0
  6
ByLayer
 62
  256
370
   -1
100
AcDbLine
 10
78.035515
 20
-8.456130000000002
 11
91.55847660000001
 21
-4.832663400000001
  0
LINE
  5
E8
100
AcDbEntity
  8
0
  6
ByLayer
 62
  256
370
   -1
100
AcDbLine
 10
81.6589816
 20
-21.9790916
 11
95.18194320000001
 21
-18.355625
  0
LINE
  5
E9
100
AcDbEntity
  8
0
  6
ByLayer
 62
  256
370
   -1
100
AcDbLine
 10
78.035515
 20
-8.456130000000002
 11
81.6589816
 21
-21.9790916
  0
LINE
  5
EA
100
AcDbEntity
  8
0
  6
ByLayer
 62
  256
370
   -1
100
AcDbLine
 10
91.55847660000001
 20
-4.832663400000001
 11
95.18194320000001
 21
-18.355625
  0
LINE
  5
EB
100
AcDbEntity
  8
0
  6
ByLayer
 62
  256
370
   -1
100
AcDbLine
 10
96.38810570000001
 20
-3.538568100000006
 11
109.9110673
 21
0.08489850000000132
  0
LINE
  5
EC
100
AcDbEntity
  8
0
  6
ByLayer
 62
  256
370
   -1
100
AcDbLine
 10
100.0115723
 20
-17.06152969999999
 11
113.5345339
 21
-13.43806309999999
  0
LINE
  5
ED
100
AcDbEntity
  8
0
  6
ByLayer
 62
  256
370
   -1
100
AcDbLine
 10
96.38810570000001
 20
-3.538568100000006
 11
100.0115723
 21
-17.06152969999999
  0
LINE
  5
EE
100
AcDbEntity
  8
0
  6
ByLayer
 62
  256
370
   -1
100
AcDbLine
 10
109.9110673
 20
0.08489850000000132
 11
113.5345339
 21
-13.43806309999999
  0
LINE
  5
EF
100
AcDbEntity
  8
noname
  6
ByLayer
 62
  256
370
   -1
100
AcDbLine
 10
22.28639540186341
 20
43.12243308163638
 11
23.51578586141585
 21
38.53428537360067
  0
LINE
  5
F0
100
AcDbEntity
  8
noname
  6
ByLayer
 62
  256
370
   -1
100
AcDbLine
 10
5.163195126399339
 20
33.61672356141583
 11
23.51578586141585
 21
38.53428537360067
  0
LINE
  5
F1
100
AcDbEntity
  8
noname
  6
ByLayer
 62
  256
370
   -1
100
AcDbLine
 10
39.40959562639934
 20
52.62814256141584
 11
40.63898607925304
 21
48.03999487838013
  0
LINE
  5
F2
100
AcDbEntity
  8
noname
  6
ByLayer
 62
  256
370
   -1
100
AcDbLine
 10
22.28639540186341
 20
43.12243308163638
 11
40.63898607925304
 21
48.03999487838013
  0
LINE
  5
F3
100
AcDbEntity
  8
noname
  6
ByLayer
 62
  256
370
   -1
100
AcDbLine
 10
39.40959562639934
 20
52.62814256141584
 11
57.76218636141584
 21
57.54570437360066
  0
LINE
  5
F4
100
AcDbEntity
  8
noname
  6
ByLayer
 62
  256
370
   -1
100
AcDbLine
 10
57.76218636141584
 20
57.54570437360066
 11
58.99157679067064
 21
52.95755677863728
  0
LINE
  5
F5
100
AcDbEntity
  8
noname
  6
ByLayer
 62
  256
370
   -1
100
AcDbLine
 10
58.99157679067064
 20
52.95755677863728
 11
77.34416746141585
 21
57.87511857360066
  0
LINE
  5
F6
100
AcDbEntity
  8
noname
  6
ByLayer
 62
  256
370
   -1
100
AcDbLine
 10
77.34416746141585
 20
57.87511857360066
 11
78.5735578973694
 21
53.28697095363729
  0
LINE
  5
F7
100
AcDbEntity
  8
noname
  6
ByLayer
 62
  256
370
   -1
100
AcDbLine
 10
78.5735578973694
 20
53.28697095363729
 11
96.92614866141585
 21
58.20453277360068
  0
LINE
  5
F8
100
AcDbEntity
  8
noname
  6
ByLayer
 62
  256
370
   -1
100
AcDbLine
 10
96.92614866141585
 20
58.20453277360068
 11
101.1966628675083
 21
42.26675660609241
  0
LINE
  5
F9
100
AcDbEntity
  8
noname
  6
ByLayer
 62
  256
370
   -1
100
AcDbLine
 10
112.3258818675083
 20
0.7319461060924128
 11
116.5963960979001
 21
-15.20583015210265
  0
LINE
  5
FA
100
AcDbEntity
  8
noname
  6
ByLayer
 62
  256
370
   -1
100
AcDbLine
 10
82.30602920609242
 20
-24.39390616750826
 11
116.5963960979001
 21
-15.20583015210265
  0
ARC
  5
FB
100
AcDbEntity
  8
noname1
  6
ByLayer
 62
  256
370
   -1
100
AcDbCircle
 10
115.3716512284599
 20
-14.49872336753632
 40
2
100
AcDbArc
 50
284.9999998418872
 51
14.99999984188733
  0
LINE
  5
FC
100
AcDbEntity
  8
noname1
  6
ByLayer
 62
  256
370
   -1
100
AcDbLine
 10
77.27242700019039
 20
-26.77793197835583
 11
115.8892893133338
 21
-16.43057502154292
  0
ARC
  5
FD
100
AcDbEntity
  8
noname1
  6
ByLayer
 62
  256
370
   -1
100
AcDbCircle
 10
103.1543312438868
 20
-123.370514678686
 40
100
100
AcDbArc
 50
104.9999998418873
 51
120.0000001084162
  0
ARC
  5
FE
100
AcDbEntity
  8
noname1
  6
ByLayer
 62
  256
370
   -1
100
AcDbCircle
 10
96.16230282777715
 20
57.19154163544563
 40
2
100
AcDbArc
 50
14.99999984188751
 51
90.96375658518269
  0
LINE
  5
FF
100
AcDbEntity
  8
noname1
  6
ByLayer
 62
  256
370
   -1
100
AcDbLine
 10
67.70158169868732
 20
58.71304946992505
 11
96.12866296295709
 21
59.19125870530698
  0
ARC
  5
100
100
AcDbEntity
  8
noname1
  6
ByLayer
 62
  256
370
   -1
100
AcDbCircle
 10
69.04717629148928
 20
-21.27563332452921
 40
80
100
AcDbArc
 50
90.96375658518238
 51
119.0362433655973
  0
LINE
  5
101
100
AcDbEntity
  8
noname1
  6
ByLayer
 62
  256
370
   -1
100
AcDbLine
 10
117.3035028824665
 20
-13.98108528266239
 11
98.09415448178376
 21
57.70917972031957
  0
ARC
  5
102
100
AcDbEntity
  8
noname1
  6
ByLayer
 62
  256
370
   -1
100
AcDbCircle
 10
-115.3716512284599
 20
-14.49872336753631
 40
2
100
AcDbArc
 50
165.0000001581127
 51
255.0000001581128
  0
LINE
  5
103
100
AcDbEntity
  8
noname1
  6
ByLayer
 62
  256
370
   -1
100
AcDbLine
 10
-77.27242700019039
 20
-26.77793197835584
 11
-115.8892893133338
 21
-16.43057502154292
  0
ARC
  5
104
100
AcDbEntity
  8
noname1
  6
ByLayer
 62
  256
370
   -1
100
AcDbCircle
 10
-103.1543312438868
 20
-123.370514678686
 40
100
100
AcDbArc
 50
59.9999998915838
 51
75.00000015811268
  0
ARC
  5
105
100
AcDbEntity
  8
noname1
  6
ByLayer
 62
  256
370
   -1
100
AcDbCircle
 10
-96.16230282777715
 20
57.1915416354456
 40
2
100
AcDbArc
 50
89.03624341481731
 51
165.0000001581125
  0
LINE
  5
106
100
AcDbEntity
  8
noname1
  6
ByLayer
 62
  256
370
   -1
100
AcDbLine
 10
-67.70158169868732
 20
58.71304946992508
 11
-96.12866296295709
 21
59.19125870530692
  0
ARC
  5
107
100
AcDbEntity
  8
noname1
  6
ByLayer
 62
  256
370
   -1
100
AcDbCircle
 10
-69.04717629148928
 20
-21.27563332452921
 40
80
100
AcDbArc
 50
60.96375663440269
 51
89.03624341481762
  0
LINE
  5
108
100
AcDbEntity
  8
noname1
  6
ByLayer
 62
  256
370
   -1
100
AcDbLine
 10
-117.3035028824665
 20
-13.9810852826624
 11
-98.09415448178376
 21
57.7091797203196
  0
LINE
  5
109
100
AcDbEntity
  8
noname1
  6
ByLayer
 62
  256
370
   -1
100
AcDbLine
 10
24.26813889786184
 20
45.36632610574674
 11
30.21815405491037
 21
48.66939532048072
  0
LINE
  5
10A
100
AcDbEntity
  8
noname1
  6
ByLayer
 62
  256
370
   -1
100
AcDbLine
 10
-24.26813889786183
 20
45.36632610574674
 11
-30.21815405491037
 21
48.66939532048074
  0
ARC
  5
10B
100
AcDbEntity
  8
noname1
  6
ByLayer
 62
  256
370
   -1
100
AcDbCircle
 10
2.664535259100376e-14
 20
89.08196900887793
 40
50
100
AcDbArc
 50
240.9637566344027
 51
299.0362433655973
  0
LINE
  5
10C
100
AcDbEntity
  8
noname1
  6
ByLayer
 62
  256
370
   -1
100
AcDbLine
 10
53.15433108001584
 20
-36.76797439485312
 11
25.0000000819355
 21
-53.02288504648085
  0
LINE
  5
10D
100
AcDbEntity
  8
noname1
  6
ByLayer
 62
  256
370
   -1
100
AcDbLine
 10
-53.15433108001584
 20
-36.76797439485311
 11
-25.00000008193552
 21
-53.02288504648085
  0
ARC
  5
10E
100
AcDbEntity
  8
noname1
  6
ByLayer
 62
  256
370
   -1
100
AcDbCircle
 10
8.881784197001252e-16
 20
-9.721614904564408
 40
50
100
AcDbArc
 50
239.9999998915838
 51
300.0000001084161
  0
LINE
  5
10F
100
AcDbEntity
  8
noname
  6
ByLayer
 62
  256
370
   -1
100
AcDbLine
 10
33.13466153914413
 20
-42.69082035732052
 11
55.45236118586121
 21
-34.56784194356004
  0
LINE
  5
110
100
AcDbEntity
  8
noname
  6
ByLayer
 62
  256
370
   -1
100
AcDbLine
 10
18.06827599521516
 20
-21.80655142532533
 11
1.613793381023529
 21
-31.3065514335189
  0
LINE
  5
111
100
AcDbEntity
  8
noname
  6
ByLayer
 62
  256
370
   -1
100
AcDbLine
 10
32.31827601897647
 20
-46.48827536648112
 11
15.86379340478481
 21
-55.98827537467466
  0
LINE
  5
112
100
AcDbEntity
  8
noname
  6
ByLayer
 62
  256
370
   -1
100
AcDbLine
 10
48.95397846085586
 20
-16.71368224267948
 11
55.45236118586121
 21
-34.56784194356004
  0
LINE
  5
113
100
AcDbEntity
  8
noname
  6
ByLayer
 62
  256
370
   -1
100
AcDbLine
 10
26.63627881413879
 20
-24.83666065643996
 11
33.13466153914413
 21
-42.69082035732052
  0
LINE
  5
114
100
AcDbEntity
  8
noname
  6
ByLayer
 62
  256
370
   -1
100
AcDbLine
 10
26.63627881413879
 20
-24.83666065643996
 11
48.95397846085586
 21
-16.71368224267948
  0
LINE
  5
115
100
AcDbEntity
  8
rpi
  6
ByLayer
 62
  256
370
   -1
100
AcDbLine
 10
10
 20
13.5
 11
9.999999999999998
 21
-13.5
  0
LINE
  5
116
100
AcDbEntity
  8
rpi
  6
ByLayer
 62
  256
370
   -1
100
AcDbLine
 10
-10
 20
-13.5
 11
9.999999999999998
 21
-13.5
  0
LINE
  5
117
100
AcDbEntity
  8
rpi
  6
ByLayer
 62
  256
370
   -1
100
AcDbLine
 10
-9.999999999999996
 20
13.5
 11
10
 21
13.5
  0
LINE
  5
118
100
AcDbEntity
  8
rpi
  6
ByLayer
 62
  256
370
   -1
100
AcDbLine
 10
-9.999999999999996
 20
13.5
 11
-10
 21
-13.5
  0
LINE
  5
119
100
AcDbEntity
  8
noname
  6
ByLayer
 62
  256
370
   -1
100
AcDbLine
 10
-9.999999999999996
 20
13.5
 11
9.999999999999998
 21
-13.5
  0
LINE
  5
11A
100
AcDbEntity
  8
noname
  6
ByLayer
 62
  256
370
   -1
100
AcDbLine
 10
8.225057300000003
 20
31.8489566
 11
25.37148550000001
 21
21.9494616
  0
LINE
  5
11B
100
AcDbEntity
  8
noname
  6
ByLayer
 62
  256
370
   -1
100
AcDbLine
 10
25.34825749999999
 20
41.3546661
 11
42.49468569999998
 21
31.4551711
  0
LINE
  5
11C
100
AcDbEntity
  8
noname
  6
ByLayer
 62
  256
370
   -1
100
AcDbLine
 10
13.14261909999998
 20
13.4963659
 11
30.28904729999998
 21
3.596870900000003
  0
LINE
  5
11D
100
AcDbEntity
  8
noname
  6
ByLayer
 62
  256
370
   -1
100
AcDbLine
 10
18.06018099999999
 20
-4.856224800000001
 11
35.20660919999999
 21
-14.7557198
  0
LINE
  5
11E
100
AcDbEntity
  8
noname
  6
ByLayer
 62
  256
370
   -1
100
AcDbLine
 10
35.18338120000001
 20
4.649484700000009
 11
52.32980940000002
 21
-5.250010299999992
  0
LINE
  5
11F
100
AcDbEntity
  8
noname
  6
ByLayer
 62
  256
370
   -1
100
AcDbLine
 10
30.26581939999998
 20
23.00207540000001
 11
47.41224759999999
 21
13.10258040000001
  0
LINE
  5
120
100
AcDbEntity
  8
noname
  6
ByLayer
 62
  256
370
   -1
100
AcDbLine
 10
42.47145779999998
 20
50.8603756
 11
59.61788599999998
 21
40.9608806
  0
LINE
  5
121
100
AcDbEntity
  8
noname
  6
ByLayer
 62
  256
370
   -1
100
AcDbLine
 10
47.38901959999995
 20
32.5077849
 11
64.53544779999996
 21
22.6082899
  0
LINE
  5
122
100
AcDbEntity
  8
noname
  6
ByLayer
 62
  256
370
   -1
100
AcDbLine
 10
52.30658149999996
 20
14.1551942
 11
69.45300969999997
 21
4.255699199999995
  0
LINE
  5
123
100
AcDbEntity
  8
noname
  6
ByLayer
 62
  256
370
   -1
100
AcDbLine
 10
62.05343889999999
 20
51.1897898
 11
79.19986709999999
 21
41.2902948
  0
LINE
  5
124
100
AcDbEntity
  8
noname
  6
ByLayer
 62
  256
370
   -1
100
AcDbLine
 10
66.97100069999996
 20
32.83719910000001
 11
84.11742889999996
 21
22.9377041
  0
LINE
  5
125
100
AcDbEntity
  8
noname
  6
ByLayer
 62
  256
370
   -1
100
AcDbLine
 10
71.88856259999997
 20
14.4846084
 11
89.03499079999997
 21
4.585113399999997
  0
LINE
  5
126
100
AcDbEntity
  8
noname
  6
ByLayer
 62
  256
370
   -1
100
AcDbLine
 10
81.6354201
 20
51.519204
 11
98.78184830000001
 21
41.619709
  0
LINE
  5
127
100
AcDbEntity
  8
noname
  6
ByLayer
 62
  256
370
   -1
100
AcDbLine
 10
86.55298189999998
 20
33.16661330000001
 11
103.6994101
 21
23.2671183
  0
LINE
  5
128
100
AcDbEntity
  8
noname
  6
ByLayer
 62
  256
370
   -1
100
AcDbLine
 10
91.47054379999999
 20
14.8140226
 11
108.616972
 21
4.9145276
  0
LINE
  5
129
100
AcDbEntity
  8
noname
  6
ByLayer
 62
  256
370
   -1
100
AcDbLine
 10
59.68292429999997
 20
-13.3736918
 11
76.82935249999998
 21
-23.2731868
  0
LINE
  5
12A
100
AcDbEntity
  8
noname
  6
ByLayer
 62
  256
370
   -1
100
AcDbLine
 10
78.03551499999999
 20
-8.456129999999998
 11
95.18194320000001
 21
-18.355625
  0
LINE
  5
12B
100
AcDbEntity
  8
noname
  6
ByLayer
 62
  256
370
   -1
100
AcDbLine
 10
96.3881057
 20
-3.538568100000001
 11
113.5345339
 21
-13.4380631
  0
LINE
  5
12C
100
AcDbEntity
  8
noname
  6
ByLayer
 62
  256
370
   -1
100
AcDbLine
 10
32.07233070000001
 20
-25.51854400000001
 11
50.01630929999998
 21
-33.8859586
  0
LINE
  5
12D
100
AcDbEntity
  8
noname
  6
ByLayer
 62
  256
370
   -1
100
AcDbLine
 10
7.403856899999992
 20
-36.3352356
 11
26.5282125
 21
-41.45959120000001
  0
LINE
  5
12E
100
AcDbEntity
  8
0
  6
ByLayer
 62
  256
370
   -1
100
AcDbLine
 10
86.64091419215387
 20
13.51992716392302
 11
73.11795272823082
 21
9.896460056076911
  0
LINE
  5
12F
100
AcDbEntity
  8
0
  6
ByLayer
 62
  256
370
   -1
100
AcDbLine
 10
90.26438129999997
 20
-0.003034300000010148
 11
76.74141983607694
 21
-3.626501407846121
  0
LINE
  5
130
100
AcDbEntity
  8
0
  6
ByLayer
 62
  256
370
   -1
100
AcDbLine
 10
86.64091419215387
 20
13.51992716392302
 11
90.26438129999997
 21
-0.003034300000010148
  0
LINE
  5
131
100
AcDbEntity
  8
0
  6
ByLayer
 62
  256
370
   -1
100
AcDbLine
 10
73.11795272823082
 20
9.896460056076911
 11
76.74141983607694
 21
-3.626501407846121
  0
LINE
  5
132
100
AcDbEntity
  8
noname
  6
ByLayer
 62
  256
370
   -1
100
AcDbLine
 10
73.11795319632994
 20
9.896460181503709
 11
90.26438129999997
 21
-0.003034300000010148
  0
LINE
  5
133
100
AcDbEntity
  8
noname
  6
ByLayer
 62
  256
370
   -1
100
AcDbLine
 10
-22.28639540186341
 20
43.12243308163639
 11
-23.51578586141585
 21
38.53428537360064
  0
LINE
  5
134
100
AcDbEntity
  8
noname
  6
ByLayer
 62
  256
370
   -1
100
AcDbLine
 10
-5.163195126399343
 20
33.61672356141587
 11
-23.51578586141585
 21
38.53428537360064
  0
LINE
  5
135
100
AcDbEntity
  8
noname
  6
ByLayer
 62
  256
370
   -1
100
AcDbLine
 10
-39.40959562639934
 20
52.62814256141585
 11
-40.63898607925304
 21
48.03999487838012
  0
LINE
  5
136
100
AcDbEntity
  8
noname
  6
ByLayer
 62
  256
370
   -1
100
AcDbLine
 10
-22.28639540186341
 20
43.12243308163639
 11
-40.63898607925304
 21
48.03999487838012
  0
LINE
  5
137
100
AcDbEntity
  8
noname
  6
ByLayer
 62
  256
370
   -1
100
AcDbLine
 10
-39.40959562639934
 20
52.62814256141585
 11
-57.76218636141584
 21
57.54570437360069
  0
LINE
  5
138
100
AcDbEntity
  8
noname
  6
ByLayer
 62
  256
370
   -1
100
AcDbLine
 10
-57.76218636141584
 20
57.54570437360069
 11
-58.99157679067064
 21
52.95755677863726
  0
LINE
  5
139
100
AcDbEntity
  8
noname
  6
ByLayer
 62
  256
370
   -1
100
AcDbLine
 10
-58.99157679067064
 20
52.95755677863726
 11
-77.34416746141585
 21
57.87511857360069
  0
LINE
  5
13A
100
AcDbEntity
  8
noname
  6
ByLayer
 62
  256
370
   -1
100
AcDbLine
 10
-77.34416746141585
 20
57.87511857360069
 11
-78.5735578973694
 21
53.28697095363727
  0
LINE
  5
13B
100
AcDbEntity
  8
noname
  6
ByLayer
 62
  256
370
   -1
100
AcDbLine
 10
-78.5735578973694
 20
53.28697095363727
 11
-96.92614866141585
 21
58.20453277360068
  0
LINE
  5
13C
100
AcDbEntity
  8
noname
  6
ByLayer
 62
  256
370
   -1
100
AcDbLine
 10
-96.92614866141585
 20
58.20453277360068
 11
-101.1966628675083
 21
42.26675660609244
  0
LINE
  5
13D
100
AcDbEntity
  8
noname
  6
ByLayer
 62
  256
370
   -1
100
AcDbLine
 10
-112.3258818675083
 20
0.7319461060924324
 11
-116.5963960979001
 21
-15.20583015210262
  0
LINE
  5
13E
100
AcDbEntity
  8
noname
  6
ByLayer
 62
  256
370
   -1
100
AcDbLine
 10
-82.30602920609242
 20
-24.39390616750827
 11
-116.5963960979001
 21
-15.20583015210262
  0
LINE
  5
13F
100
AcDbEntity
  8
noname
  6
ByLayer
 62
  256
370
   -1
100
AcDbLine
 10
-33.13466153914413
 20
-42.69082035732052
 11
-55.45236118586121
 21
-34.56784194356004
  0
LINE
  5
140
100
AcDbEntity
  8
noname
  6
ByLayer
 62
  256
370
   -1
100
AcDbLine
 10
-48.95397846085586
 20
-16.71368224267948
 11
-55.45236118586121
 21
-34.56784194356004
  0
LINE
  5
141
100
AcDbEntity
  8
noname
  6
ByLayer
 62
  256
370
   -1
100
AcDbLine
 10
-26.6362788141388
 20
-24.83666065643996
 11
-33.13466153914413
 21
-42.69082035732052
  0
LINE
  5
142
100
AcDbEntity
  8
noname
  6
ByLayer
 62
  256
370
   -1
100
AcDbLine
 10
-26.6362788141388
 20
-24.83666065643996
 11
-48.95397846085586
 21
-16.71368224267948
  0
LINE
  5
143
100
AcDbEntity
  8
noname
  6
ByLayer
 62
  256
370
   -1
100
AcDbLine
 10
-8.225057300000007
 20
31.84895660000002
 11
-25.37148550000001
 21
21.94946160000001
  0
LINE
  5
144
100
AcDbEntity
  8
noname
  6
ByLayer
 62
  256
370
   -1
100
AcDbLine
 10
-25.34825749999999
 20
41.3546661
 11
-42.49468569999998
 21
31.4551711
  0
LINE
  5
145
100
AcDbEntity
  8
noname
  6
ByLayer
 62
  256
370
   -1
100
AcDbLine
 10
-13.14261909999998
 20
13.4963659
 11
-30.28904729999999
 21
3.596870900000024
  0
LINE
  5
146
100
AcDbEntity
  8
noname
  6
ByLayer
 62
  256
370
   -1
100
AcDbLine
 10
-18.06018099999999
 20
-4.856224799999985
 11
-35.20660919999999
 21
-14.75571980000002
  0
LINE
  5
147
100
AcDbEntity
  8
noname
  6
ByLayer
 62
  256
370
   -1
100
AcDbLine
 10
-35.18338120000001
 20
4.649484699999995
 11
-52.32980940000002
 21
-5.250010299999978
  0
LINE
  5
148
100
AcDbEntity
  8
noname
  6
ByLayer
 62
  256
370
   -1
100
AcDbLine
 10
-30.26581939999998
 20
23.00207540000004
 11
-47.41224759999999
 21
13.10258040000001
  0
LINE
  5
149
100
AcDbEntity
  8
noname
  6
ByLayer
 62
  256
370
   -1
100
AcDbLine
 10
-42.47145779999998
 20
50.8603756
 11
-59.61788599999998
 21
40.9608806
  0
LINE
  5
14A
100
AcDbEntity
  8
noname
  6
ByLayer
 62
  256
370
   -1
100
AcDbLine
 10
-47.38901959999995
 20
32.50778489999998
 11
-64.53544779999996
 21
22.60828989999998
  0
LINE
  5
14B
100
AcDbEntity
  8
noname
  6
ByLayer
 62
  256
370
   -1
100
AcDbLine
 10
-52.30658149999996
 20
14.1551942
 11
-69.45300969999997
 21
4.255699200000024
  0
LINE
  5
14C
100
AcDbEntity
  8
noname
  6
ByLayer
 62
  256
370
   -1
100
AcDbLine
 10
-62.05343889999999
 20
51.18978980000006
 11
-79.19986709999999
 21
41.2902948
  0
LINE
  5
14D
100
AcDbEntity
  8
noname
  6
ByLayer
 62
  256
370
   -1
100
AcDbLine
 10
-66.97100069999996
 20
32.83719910000003
 11
-84.11742889999996
 21
22.93770409999998
  0
LINE
  5
14E
100
AcDbEntity
  8
noname
  6
ByLayer
 62
  256
370
   -1
100
AcDbLine
 10
-71.88856259999997
 20
14.4846084
 11
-89.03499079999997
 21
4.585113399999997
  0
LINE
  5
14F
100
AcDbEntity
  8
noname
  6
ByLayer
 62
  256
370
   -1
100
AcDbLine
 10
-81.6354201
 20
51.51920400000006
 11
-98.78184830000001
 21
41.619709
  0
LINE
  5
150
100
AcDbEntity
  8
noname
  6
ByLayer
 62
  256
370
   -1
100
AcDbLine
 10
-86.55298189999998
 20
33.16661329999998
 11
-103.6994101
 21
23.26711829999998
  0
LINE
  5
151
100
AcDbEntity
  8
noname
  6
ByLayer
 62
  256
370
   -1
100
AcDbLine
 10
-91.47054379999999
 20
14.8140226
 11
-108.616972
 21
4.9145276
  0
LINE
  5
152
100
AcDbEntity
  8
noname
  6
ByLayer
 62
  256
370
   -1
100
AcDbLine
 10
-59.68292429999997
 20
-13.37369180000001
 11
-76.82935249999998
 21
-23.27318680000001
  0
LINE
  5
153
100
AcDbEntity
  8
noname
  6
ByLayer
 62
  256
370
   -1
100
AcDbLine
 10
-78.03551499999999
 20
-8.456130000000005
 11
-95.18194320000001
 21
-18.35562500000001
  0
LINE
  5
154
100
AcDbEntity
  8
noname
  6
ByLayer
 62
  256
370
   -1
100
AcDbLine
 10
-96.3881057
 20
-3.53856810000004
 11
-113.5345339
 21
-13.43806310000001
  0
LINE
  5
155
100
AcDbEntity
  8
noname
  6
ByLayer
 62
  256
370
   -1
100
AcDbLine
 10
-32.07233070000001
 20
-25.518544
 11
-50.01630929999998
 21
-33.8859586
  0
LINE
  5
156
100
AcDbEntity
  8
noname
  6
ByLayer
 62
  256
370
   -1
100
AcDbLine
 10
-73.11795319632994
 20
9.896460181503688
 11
-90.26438129999997
 21
-0.003034300000010148
  0
LINE
  5
157
100
AcDbEntity
  8
0
  6
ByLayer
 62
  256
370
   -1
100
AcDbLine
 10
18.02821249508387
 20
-26.73715939148502
 11
5.903856895083864
 21
-33.73715939148502
  0
LINE
  5
158
100
AcDbEntity
  8
0
  6
ByLayer
 62
  256
370
   -1
100
AcDbLine
 10
25.02821249508387
 20
-38.86151499148502
 11
12.90385689508386
 21
-45.86151499148502
  0
LINE
  5
159
100
AcDbEntity
  8
0
  6
ByLayer
 62
  256
370
   -1
100
AcDbLine
 10
5.903856895083864
 20
-33.73715939148502
 11
12.90385689508386
 21
-45.86151499148502
  0
LINE
  5
15A
100
AcDbEntity
  8
0
  6
ByLayer
 62
  256
370
   -1
100
AcDbLine
 10
18.02821249508387
 20
-26.73715939148502
 11
25.02821249508386
 21
-38.86151499148501
  0
LINE
  5
15B
100
AcDbEntity
  8
noname
  6
ByLayer
 62
  256
370
   -1
100
AcDbLine
 10
5.903856895083864
 20
-33.73715939148502
 11
25.02821249508386
 21
-38.86151499148501
  0
LINE
  5
15C
100
AcDbEntity
  8
0
  6
ByLayer
 62
  256
370
   -1
100
AcDbLine
 10
-19.5282125
 20
-29.3352356
 11
-26.5282125
 21
-41.45959120000001
  0
LINE
  5
15D
100
AcDbEntity
  8
0
  6
ByLayer
 62
  256
370
   -1
100
AcDbLine
 10
-7.403856899999992
 20
-36.3352356
 11
-14.40385689999999
 21
-48.45959120000001
  0
LINE
  5
15E
100
AcDbEntity
  8
0
  6
ByLayer
 62
  256
370
   -1
100
AcDbLine
 10
-19.5282125
 20
-29.3352356
 11
-7.403856899999992
 21
-36.3352356
  0
LINE
  5
15F
100
AcDbEntity
  8
0
  6
ByLayer
 62
  256
370
   -1
100
AcDbLine
 10
-26.5282125
 20
-41.45959120000001
 11
-14.40385689999999
 21
-48.45959120000001
  0
LINE
  5
160
100
AcDbEntity
  8
noname
  6
ByLayer
 62
  256
370
   -1
100
AcDbLine
 10
-18.06827599521516
 20
-21.80655142532533
 11
-1.613793381023529
 21
-31.3065514335189
  0
LINE
  5
161
100
AcDbEntity
  8
noname
  6
ByLayer
 62
  256
370
   -1
100
AcDbLine
 10
-32.31827601897647
 20
-46.48827536648112
 11
-15.86379340478481
 21
-55.98827537467466
  0
LINE
  5
162
100
AcDbEntity
  8
noname
  6
ByLayer
 62
  256
370
   -1
100
AcDbLine
 10
-7.403856899999992
 20
-36.3352356
 11
-26.5282125
 21
-41.45959120000001
  0
LINE
  5
163
100
AcDbEntity
  8
0
  6
ByLayer
 62
  256
370
   -1
100
AcDbLine
 10
-18.02821249508387
 20
-26.73715939148502
 11
-5.903856895083864
 21
-33.73715939148502
  0
LINE
  5
164
100
AcDbEntity
  8
0
  6
ByLayer
 62
  256
370
   -1
100
AcDbLine
 10
-25.02821249508387
 20
-38.86151499148502
 11
-12.90385689508386
 21
-45.86151499148502
  0
LINE
  5
165
100
AcDbEntity
  8
0
  6
ByLayer
 62
  256
370
   -1
100
AcDbLine
 10
-5.903856895083864
 20
-33.73715939148502
 11
-12.90385689508386
 21
-45.86151499148502
  0
LINE
  5
166
100
AcDbEntity
  8
0
  6
ByLayer
 62
  256
370
   -1
100
AcDbLine
 10
-18.02821249508387
 20
-26.73715939148502
 11
-25.02821249508386
 21
-38.86151499148501
  0
LINE
  5
167
100
AcDbEntity
  8
noname
  6
ByLayer
 62
  256
370
   -1
100
AcDbLine
 10
-5.903856895083864
 20
-33.73715939148502
 11
-25.02821249508386
 21
-38.86151499148501
  0
LINE
  5
168
100
AcDbEntity
  8
noname
  6
ByLayer
 62
  256
370
   -1
100
AcDbLine
 10
-0.1137933761073953
 20
-28.70847522500391
 11
-15.86379340478481
 21
-55.98827537467466
  0
LINE
  5
169
100
AcDbEntity
  8
noname
  6
ByLayer
 62
  256
370
   -1
100
AcDbLine
 10
0.1137933761074024
 20
-28.70847522500392
 11
15.86379340478481
 21
-55.98827537467466
  0
LINE
  5
16A
100
AcDbEntity
  8
noname
  6
ByLayer
 62
  256
370
   -1
100
AcDbLine
 10
16.56827599029903
 20
-19.20847521681034
 11
0.1137933761074024
 21
-28.70847522500392
  0
LINE
  5
16B
100
AcDbEntity
  8
noname
  6
ByLayer
 62
  256
370
   -1
100
AcDbLine
 10
16.56827599029903
 20
-19.20847521681034
 11
32.31827601897647
 21
-46.48827536648112
  0
LINE
  5
16C
100
AcDbEntity
  8
noname
  6
ByLayer
 62
  256
370
   -1
100
AcDbLine
 10
-16.56827599029903
 20
-19.20847521681035
 11
-0.1137933761073953
 21
-28.70847522500391
  0
LINE
  5
16D
100
AcDbEntity
  8
noname
  6
ByLayer
 62
  256
370
   -1
100
AcDbLine
 10
-16.56827599029903
 20
-19.20847521681035
 11
-32.31827601897647
 21
-46.48827536648112
  0
LINE
  5
16E
100
AcDbEntity
  8
noname
  6
ByLayer
 62
  256
370
   -1
100
AcDbLine
 10
-30.81827601406034
 20
-43.89019915796613
 11
-14.36379339986869
 21
-53.39019916615967
  0
LINE
  5
16F
100
AcDbEntity
  8
noname
  6
ByLayer
 62
  256
370
   -1
100
AcDbLine
 10
30.81827601406034
 20
-43.89019915796613
 11
14.36379339986869
 21
-53.39019916615967
  0
ARC
  5
170
100
AcDbEntity
  8
ext1
  6
ByLayer
 62
  256
370
   -1
100
AcDbCircle
 10
2.664535259100376e-14
 20
89.08196900887793
 40
49.5
100
AcDbArc
 50
240.9637566344027
 51
299.0362433655973
  0
LINE
  5
171
100
AcDbEntity
  8
ext1
  6
ByLayer
 62
  256
370
   -1
100
AcDbLine
 10
24.02545750888322
 20
45.80348253477805
 11
29.97547266593175
 21
49.10655174951204
  0
ARC
  5
172
100
AcDbEntity
  8
ext1
  6
ByLayer
 62
  256
370
   -1
100
AcDbCircle
 10
69.04717629148928
 20
-21.27563332452921
 40
80.5
100
AcDbArc
 50
90.96375658518238
 51
119.0362433655973
  0
LINE
  5
173
100
AcDbEntity
  8
ext1
  6
ByLayer
 62
  256
370
   -1
100
AcDbLine
 10
67.69317173248231
 20
59.21297873739039
 11
96.12025299675209
 21
59.69118797277232
  0
ARC
  5
174
100
AcDbEntity
  8
ext1
  6
ByLayer
 62
  256
370
   -1
100
AcDbCircle
 10
96.16230282777715
 20
57.19154163544563
 40
2.5
100
AcDbArc
 50
14.99999984188751
 51
90.96375658518269
  0
LINE
  5
175
100
AcDbEntity
  8
ext1
  6
ByLayer
 62
  256
370
   -1
100
AcDbLine
 10
117.7864657959681
 20
-13.85167576144391
 11
98.57711739528541
 21
57.83858924153805
  0
ARC
  5
176
100
AcDbEntity
  8
ext1
  6
ByLayer
 62
  256
370
   -1
100
AcDbCircle
 10
115.3716512284599
 20
-14.49872336753632
 40
2.5
100
AcDbArc
 50
284.9999998418872
 51
14.99999984188733
  0
LINE
  5
177
100
AcDbEntity
  8
ext1
  6
ByLayer
 62
  256
370
   -1
100
AcDbLine
 10
77.40183652140887
 20
-27.26089489185748
 11
116.0186988345523
 21
-16.91353793504457
  0
ARC
  5
178
100
AcDbEntity
  8
ext1
  6
ByLayer
 62
  256
370
   -1
100
AcDbCircle
 10
103.1543312438868
 20
-123.370514678686
 40
99.5
100
AcDbArc
 50
104.9999998418873
 51
120.0000001084162
  0
LINE
  5
179
100
AcDbEntity
  8
ext1
  6
ByLayer
 62
  256
370
   -1
100
AcDbLine
 10
53.4043310808352
 20
-37.20098709627229
 11
25.25000008275486
 21
-53.45589774790002
  0
ARC
  5
17A
100
AcDbEntity
  8
ext1
  6
ByLayer
 62
  256
370
   -1
100
AcDbCircle
 10
8.881784197001252e-16
 20
-9.721614904564408
 40
50.5
100
AcDbArc
 50
239.9999998915838
 51
300.0000001084161
  0
LINE
  5
17B
100
AcDbEntity
  8
ext1
  6
ByLayer
 62
  256
370
   -1
100
AcDbLine
 10
-53.4043310808352
 20
-37.20098709627227
 11
-25.25000008275487
 21
-53.45589774790002
  0
ARC
  5
17C
100
AcDbEntity
  8
ext1
  6
ByLayer
 62
  256
370
   -1
100
AcDbCircle
 10
-103.1543312438868
 20
-123.370514678686
 40
99.5
100
AcDbArc
 50
59.9999998915838
 51
75.00000015811268
  0
LINE
  5
17D
100
AcDbEntity
  8
ext1
  6
ByLayer
 62
  256
370
   -1
100
AcDbLine
 10
-77.40183652140887
 20
-27.2608948918575
 11
-116.0186988345523
 21
-16.91353793504458
  0
ARC
  5
17E
100
AcDbEntity
  8
ext1
  6
ByLayer
 62
  256
370
   -1
100
AcDbCircle
 10
-115.3716512284599
 20
-14.49872336753631
 40
2.5
100
AcDbArc
 50
165.0000001581127
 51
255.0000001581128
  0
LINE
  5
17F
100
AcDbEntity
  8
ext1
  6
ByLayer
 62
  256
370
   -1
100
AcDbLine
 10
-117.7864657959681
 20
-13.85167576144391
 11
-98.57711739528541
 21
57.83858924153808
  0
ARC
  5
180
100
AcDbEntity
  8
ext1
  6
ByLayer
 62
  256
370
   -1
100
AcDbCircle
 10
-96.16230282777715
 20
57.1915416354456
 40
2.5
100
AcDbArc
 50
89.03624341481731
 51
165.0000001581125
  0
LINE
  5
181
100
AcDbEntity
  8
ext1
  6
ByLayer
 62
  256
370
   -1
100
AcDbLine
 10
-67.69317173248231
 20
59.21297873739042
 11
-96.12025299675209
 21
59.69118797277226
  0
ARC
  5
182
100
AcDbEntity
  8
ext1
  6
ByLayer
 62
  256
370
   -1
100
AcDbCircle
 10
-69.04717629148928
 20
-21.27563332452921
 40
80.5
100
AcDbArc
 50
60.96375663440269
 51
89.03624341481762
  0
LINE
  5
183
100
AcDbEntity
  8
ext1
  6
ByLayer
 62
  256
370
   -1
100
AcDbLine
 10
-24.02545750888321
 20
45.80348253477806
 11
-29.97547266593175
 21
49.10655174951205
  0
ARC
  5
184
100
AcDbEntity
  8
ext2
  6
ByLayer
 62
  256
370
   -1
100
AcDbCircle
 10
-96.16230282777715
 20
57.1915416354456
 40
6.5
100
AcDbArc
 50
89.03624341481731
 51
165.0000001581125
  0
LINE
  5
185
100
AcDbEntity
  8
ext2
  6
ByLayer
 62
  256
370
   -1
100
AcDbLine
 10
-67.62589200284222
 20
63.21241287711314
 11
-96.05297326711199
 21
63.69062211249498
  0
ARC
  5
186
100
AcDbEntity
  8
ext2
  6
ByLayer
 62
  256
370
   -1
100
AcDbCircle
 10
-69.04717629148928
 20
-21.27563332452921
 40
84.5
100
AcDbArc
 50
60.96375663440269
 51
89.03624341481762
  0
ARC
  5
187
100
AcDbEntity
  8
ext2
  6
ByLayer
 62
  256
370
   -1
100
AcDbCircle
 10
2.664535259100376e-14
 20
89.08196900887793
 40
45.5
100
AcDbArc
 50
240.9637566344027
 51
299.0362433655973
  0
LINE
  5
188
100
AcDbEntity
  8
ext2
  6
ByLayer
 62
  256
370
   -1
100
AcDbLine
 10
-22.08400639705427
 20
49.30073396702855
 11
-28.03402155410281
 21
52.60380318176254
  0
LINE
  5
189
100
AcDbEntity
  8
ext2
  6
ByLayer
 62
  256
370
   -1
100
AcDbLine
 10
-121.6501691039813
 20
-12.81639959169606
 11
-102.4408207032986
 21
58.87386541128593
  0
ARC
  5
18A
100
AcDbEntity
  8
ext2
  6
ByLayer
 62
  256
370
   -1
100
AcDbCircle
 10
-115.3716512284599
 20
-14.49872336753631
 40
6.5
100
AcDbArc
 50
165.0000001581127
 51
255.0000001581128
  0
LINE
  5
18B
100
AcDbEntity
  8
ext2
  6
ByLayer
 62
  256
370
   -1
100
AcDbLine
 10
-78.43711269115673
 20
-31.1245981998707
 11
-117.0539750043001
 21
-20.77724124305778
  0
ARC
  5
18C
100
AcDbEntity
  8
ext2
  6
ByLayer
 62
  256
370
   -1
100
AcDbCircle
 10
-103.1543312438868
 20
-123.370514678686
 40
95.5
100
AcDbArc
 50
59.9999998915838
 51
75.00000015811268
  0
LINE
  5
18D
100
AcDbEntity
  8
ext2
  6
ByLayer
 62
  256
370
   -1
100
AcDbLine
 10
-55.40433108739004
 20
-40.66508870762559
 11
-27.25000008930972
 21
-56.91999935925333
  0
ARC
  5
18E
100
AcDbEntity
  8
ext2
  6
ByLayer
 62
  256
370
   -1
100
AcDbCircle
 10
8.881784197001252e-16
 20
-9.721614904564408
 40
54.5
100
AcDbArc
 50
239.9999998915838
 51
300.0000001084161
  0
LINE
  5
18F
100
AcDbEntity
  8
ext2
  6
ByLayer
 62
  256
370
   -1
100
AcDbLine
 10
55.40433108739003
 20
-40.6650887076256
 11
27.2500000893097
 21
-56.91999935925333
  0
ARC
  5
190
100
AcDbEntity
  8
ext2
  6
ByLayer
 62
  256
370
   -1
100
AcDbCircle
 10
103.1543312438868
 20
-123.370514678686
 40
95.5
100
AcDbArc
 50
104.9999998418873
 51
120.0000001084162
  0
LINE
  5
191
100
AcDbEntity
  8
ext2
  6
ByLayer
 62
  256
370
   -1
100
AcDbLine
 10
78.43711269115673
 20
-31.12459819987069
 11
117.0539750043001
 21
-20.77724124305778
  0
ARC
  5
192
100
AcDbEntity
  8
ext2
  6
ByLayer
 62
  256
370
   -1
100
AcDbCircle
 10
115.3716512284599
 20
-14.49872336753632
 40
6.5
100
AcDbArc
 50
284.9999998418872
 51
14.99999984188733
  0
LINE
  5
193
100
AcDbEntity
  8
ext2
  6
ByLayer
 62
  256
370
   -1
100
AcDbLine
 10
121.6501691039813
 20
-12.81639959169605
 11
102.4408207032986
 21
58.87386541128591
  0
ARC
  5
194
100
AcDbEntity
  8
ext2
  6
ByLayer
 62
  256
370
   -1
100
AcDbCircle
 10
96.16230282777715
 20
57.19154163544563
 40
6.5
100
AcDbArc
 50
14.99999984188751
 51
90.96375658518269
  0
LINE
  5
195
100
AcDbEntity
  8
ext2
  6
ByLayer
 62
  256
370
   -1
100
AcDbLine
 10
67.62589200284222
 20
63.21241287711311
 11
96.05297326711199
 21
63.69062211249503
  0
ARC
  5
196
100
AcDbEntity
  8
ext2
  6
ByLayer
 62
  256
370
   -1
100
AcDbCircle
 10
69.04717629148928
 20
-21.27563332452921
 40
84.5
100
AcDbArc
 50
90.96375658518238
 51
119.0362433655973
  0
LINE
  5
197
100
AcDbEntity
  8
ext2
  6
ByLayer
 62
  256
370
   -1
100
AcDbLine
 10
22.08400639705427
 20
49.30073396702854
 11
28.03402155410281
 21
52.60380318176253
  0
ARC
  5
198
100
AcDbEntity
  8
ext3
  6
ByLayer
 62
  256
370
   -1
100
AcDbCircle
 10
96.16230282777715
 20
57.19154163544563
 40
8.5
100
AcDbArc
 50
14.99999984188751
 51
90.96375658518269
  0
LINE
  5
199
100
AcDbEntity
  8
ext3
  6
ByLayer
 62
  256
370
   -1
100
AcDbLine
 10
123.5820207579879
 20
-12.29876150682212
 11
104.3726723573052
 21
59.39150349615984
  0
LINE
  5
19A
100
AcDbEntity
  8
ext3
  6
ByLayer
 62
  256
370
   -1
100
AcDbLine
 10
67.59225213802218
 20
65.21212994697447
 11
96.01933340229195
 21
65.6903391823564
  0
ARC
  5
19B
100
AcDbEntity
  8
ext3
  6
ByLayer
 62
  256
370
   -1
100
AcDbCircle
 10
69.04717629148928
 20
-21.27563332452921
 40
86.5
100
AcDbArc
 50
90.96375658518238
 51
119.0362433655973
  0
LINE
  5
19C
100
AcDbEntity
  8
ext3
  6
ByLayer
 62
  256
370
   -1
100
AcDbLine
 10
21.1132808411398
 20
51.04935968315379
 11
27.06329599818833
 21
54.35242889788778
  0
ARC
  5
19D
100
AcDbEntity
  8
ext3
  6
ByLayer
 62
  256
370
   -1
100
AcDbCircle
 10
2.664535259100376e-14
 20
89.08196900887793
 40
43.5
100
AcDbArc
 50
240.9637566344027
 51
299.0362433655973
  0
LINE
  5
19E
100
AcDbEntity
  8
ext3
  6
ByLayer
 62
  256
370
   -1
100
AcDbLine
 10
-21.11328084113979
 20
51.0493596831538
 11
-27.06329599818833
 21
54.35242889788779
  0
ARC
  5
19F
100
AcDbEntity
  8
ext3
  6
ByLayer
 62
  256
370
   -1
100
AcDbCircle
 10
-69.04717629148928
 20
-21.27563332452921
 40
86.5
100
AcDbArc
 50
60.96375663440269
 51
89.03624341481762
  0
LINE
  5
1A0
100
AcDbEntity
  8
ext3
  6
ByLayer
 62
  256
370
   -1
100
AcDbLine
 10
-67.59225213802218
 20
65.2121299469745
 11
-96.01933340229195
 21
65.69033918235634
  0
ARC
  5
1A1
100
AcDbEntity
  8
ext3
  6
ByLayer
 62
  256
370
   -1
100
AcDbCircle
 10
-96.16230282777715
 20
57.1915416354456
 40
8.5
100
AcDbArc
 50
89.03624341481731
 51
165.0000001581125
  0
LINE
  5
1A2
100
AcDbEntity
  8
ext3
  6
ByLayer
 62
  256
370
   -1
100
AcDbLine
 10
-123.5820207579879
 20
-12.29876150682213
 11
-104.3726723573052
 21
59.39150349615986
  0
ARC
  5
1A3
100
AcDbEntity
  8
ext3
  6
ByLayer
 62
  256
370
   -1
100
AcDbCircle
 10
-115.3716512284599
 20
-14.49872336753631
 40
8.5
100
AcDbArc
 50
165.0000001581127
 51
255.0000001581128
  0
LINE
  5
1A4
100
AcDbEntity
  8
ext3
  6
ByLayer
 62
  256
370
   -1
100
AcDbLine
 10
-78.95475077603065
 20
-33.05644985387731
 11
-117.5716130891741
 21
-22.70909289706439
  0
ARC
  5
1A5
100
AcDbEntity
  8
ext3
  6
ByLayer
 62
  256
370
   -1
100
AcDbCircle
 10
-103.1543312438868
 20
-123.370514678686
 40
93.5
100
AcDbArc
 50
59.9999998915838
 51
75.00000015811268
  0
LINE
  5
1A6
100
AcDbEntity
  8
ext3
  6
ByLayer
 62
  256
370
   -1
100
AcDbLine
 10
-56.40433109066746
 20
-42.39713951330224
 11
-28.25000009258714
 21
-58.65205016492999
  0
ARC
  5
1A7
100
AcDbEntity
  8
ext3
  6
ByLayer
 62
  256
370
   -1
100
AcDbCircle
 10
8.881784197001252e-16
 20
-9.721614904564408
 40
56.5
100
AcDbArc
 50
239.9999998915838
 51
300.0000001084161
  0
LINE
  5
1A8
100
AcDbEntity
  8
ext3
  6
ByLayer
 62
  256
370
   -1
100
AcDbLine
 10
56.40433109066745
 20
-42.39713951330226
 11
28.25000009258711
 21
-58.65205016492999
  0
ARC
  5
1A9
100
AcDbEntity
  8
ext3
  6
ByLayer
 62
  256
370
   -1
100
AcDbCircle
 10
103.1543312438868
 20
-123.370514678686
 40
93.5
100
AcDbArc
 50
104.9999998418873
 51
120.0000001084162
  0
LINE
  5
1AA
100
AcDbEntity
  8
ext3
  6
ByLayer
 62
  256
370
   -1
100
AcDbLine
 10
78.95475077603065
 20
-33.0564498538773
 11
117.5716130891741
 21
-22.70909289706438
  0
ARC
  5
1AB
100
AcDbEntity
  8
ext3
  6
ByLayer
 62
  256
370
   -1
100
AcDbCircle
 10
115.3716512284599
 20
-14.49872336753632
 40
8.5
100
AcDbArc
 50
284.9999998418872
 51
14.99999984188733
  0
ENDSEC
  0
SECTION
  2
OBJECTS
  0
DICTIONARY
  5
C
330
0
100
AcDbDictionary
281
    1
  3
ACAD_GROUP
350
D
  0
DICTIONARY
  5
D
330
C
100
AcDbDictionary
281
    1
  0
PLOTSETTINGS
  5
1AC
100
AcDbPlotSettings
  6
1x1
 40
0
 41
0
 42
0
 43
0
  0
ENDSEC
  0
EOF
