999
dxfrw 0.6.3
  0
SECTION
  2
HEADER
  9
$ACADVER
  1
AC1021
  9
$DWGCODEPAGE
  3
ANSI_1252
  9
$INSBASE
 10
0
 20
0
 30
0
  9
$EXTMIN
 10
-106.4152433310229
 20
-40.70148581895286
 30
0
  9
$EXTMAX
 10
106.4152440004055
 20
40.70148581895283
 30
0
  9
$LIMMIN
 10
0
 20
0
  9
$LIMMAX
 10
420
 20
297
  9
$ORTHOMODE
 70
    0
  9
$REGENMODE
 70
    1
  9
$FILLMODE
 70
    1
  9
$QTEXTMODE
 70
    0
  9
$MIRRTEXT
 70
    0
  9
$LTSCALE
 40
1
  9
$ATTMODE
 70
    0
  9
$TEXTSIZE
 40
2.5
  9
$TRACEWID
 40
15.68
  9
$TEXTSTYLE
  7
STANDARD
  9
$CLAYER
  8
placement
  9
$CELTYPE
  6
BYLAYER
  9
$CECOLOR
 62
  256
  9
$CELTSCALE
 40
1
  9
$DISPSILH
 70
    0
  9
$DIMSCALE
 40
2.5
  9
$DIMASZ
 40
2.5
  9
$DIMEXO
 40
0.625
  9
$DIMDLI
 40
3.75
  9
$DIMRND
 40
0
  9
$DIMDLE
 40
0
  9
$DIMEXE
 40
1.25
  9
$DIMTP
 40
0
  9
$DIMTM
 40
0
  9
$DIMTXT
 40
2.5
  9
$DIMCEN
 40
2.5
  9
$DIMTSZ
 40
0
  9
$DIMTOL
 70
    0
  9
$DIMLIM
 70
    0
  9
$DIMTIH
 70
    0
  9
$DIMTOH
 70
    0
  9
$DIMSE1
 70
    0
  9
$DIMSE2
 70
    0
  9
$DIMTAD
 70
    1
  9
$DIMZIN
 70
    8
  9
$DIMBLK
  1

  9
$DIMASO
 70
    1
  9
$DIMSHO
 70
    1
  9
$DIMPOST
  1

  9
$DIMAPOST
  1

  9
$DIMALT
 70
    0
  9
$DIMALTD
 70
    3
  9
$DIMALTF
 40
0.03937
  9
$DIMLFAC
 40
1
  9
$DIMTOFL
 70
    1
  9
$DIMTVP
 40
0
  9
$DIMTIX
 70
    0
  9
$DIMSOXD
 70
    0
  9
$DIMSAH
 70
    0
  9
$DIMBLK1
  1

  9
$DIMBLK2
  1

  9
$DIMSTYLE
  2
STANDARD
  9
$DIMCLRD
 70
    0
  9
$DIMCLRE
 70
    0
  9
$DIMCLRT
 70
    0
  9
$DIMTFAC
 40
1
  9
$DIMGAP
 40
0.625
  9
$DIMJUST
 70
    0
  9
$DIMSD1
 70
    0
  9
$DIMSD2
 70
    0
  9
$DIMTOLJ
 70
    0
  9
$DIMTZIN
 70
    8
  9
$DIMALTZ
 70
    0
  9
$DIMALTTZ
 70
    0
  9
$DIMUPT
 70
    0
  9
$DIMDEC
 70
    2
  9
$DIMTDEC
 70
    2
  9
$DIMALTU
 70
    2
  9
$DIMALTTD
 70
    3
  9
$DIMTXSTY
  7
STANDARD
  9
$DIMAUNIT
 70
    0
  9
$DIMADEC
 70
    0
  9
$DIMALTRND
 40
0
  9
$DIMAZIN
 70
    0
  9
$DIMDSEP
 70
   44
  9
$DIMATFIT
 70
    3
  9
$DIMFRAC
 70
    0
  9
$DIMLDRBLK
  1
STANDARD
  9
$DIMLUNIT
 70
    2
  9
$DIMLWD
 70
   -2
  9
$DIMLWE
 70
   -2
  9
$DIMTMOVE
 70
    0
  9
$DIMFXL
 40
1
  9
$DIMFXLON
 70
    0
  9
$DIMJOGANG
 40
0.7854
  9
$DIMTFILL
 70
    0
  9
$DIMTFILLCLR
 70
    0
  9
$DIMARCSYM
 70
    0
  9
$DIMLTYPE
  6

  9
$DIMLTEX1
  6

  9
$DIMLTEX2
  6

  9
$LUNITS
 70
    2
  9
$LUPREC
 70
    4
  9
$SKETCHINC
 40
1
  9
$FILLETRAD
 40
0
  9
$AUNITS
 70
    0
  9
$AUPREC
 70
    2
  9
$MENU
  1
.
  9
$ELEVATION
 40
0
  9
$PELEVATION
 40
0
  9
$THICKNESS
 40
0
  9
$LIMCHECK
 70
    0
  9
$CHAMFERA
 40
0
  9
$CHAMFERB
 40
0
  9
$CHAMFERC
 40
0
  9
$CHAMFERD
 40
0
  9
$SKPOLY
 70
    0
  9
$USRTIMER
 70
    1
  9
$ANGBASE
 50
0
  9
$ANGDIR
 70
    0
  9
$PDMODE
 70
   34
  9
$PDSIZE
 40
0
  9
$PLINEWID
 40
0
  9
$SPLFRAME
 70
    0
  9
$SPLINETYPE
 70
    2
  9
$SPLINESEGS
 70
    8
  9
$HANDSEED
  5
20000
  9
$SURFTAB1
 70
    6
  9
$SURFTAB2
 70
    6
  9
$SURFTYPE
 70
    6
  9
$SURFU
 70
    6
  9
$SURFV
 70
    6
  9
$UCSBASE
  2

  9
$UCSNAME
  2

  9
$UCSORG
 10
0
 20
0
 30
0
  9
$UCSXDIR
 10
1
 20
0
 30
0
  9
$UCSYDIR
 10
0
 20
1
 30
0
  9
$UCSORTHOREF
  2

  9
$UCSORTHOVIEW
 70
    0
  9
$UCSORGTOP
 10
0
 20
0
 30
0
  9
$UCSORGBOTTOM
 10
0
 20
0
 30
0
  9
$UCSORGLEFT
 10
0
 20
0
 30
0
  9
$UCSORGRIGHT
 10
0
 20
0
 30
0
  9
$UCSORGFRONT
 10
0
 20
0
 30
0
  9
$UCSORGBACK
 10
0
 20
0
 30
0
  9
$PUCSBASE
  2

  9
$PUCSNAME
  2

  9
$PUCSORG
 10
0
 20
0
 30
0
  9
$PUCSXDIR
 10
1
 20
0
 30
0
  9
$PUCSYDIR
 10
0
 20
1
 30
0
  9
$PUCSORTHOREF
  2

  9
$PUCSORTHOVIEW
 70
    0
  9
$PUCSORGTOP
 10
0
 20
0
 30
0
  9
$PUCSORGBOTTOM
 10
0
 20
0
 30
0
  9
$PUCSORGLEFT
 10
0
 20
0
 30
0
  9
$PUCSORGRIGHT
 10
0
 20
0
 30
0
  9
$PUCSORGFRONT
 10
0
 20
0
 30
0
  9
$PUCSORGBACK
 10
0
 20
0
 30
0
  9
$USERI1
 70
    0
  9
$USERI2
 70
    0
  9
$USERI3
 70
    0
  9
$USERI4
 70
    0
  9
$USERI5
 70
    0
  9
$USERR1
 40
0
  9
$USERR2
 40
0
  9
$USERR3
 40
0
  9
$USERR4
 40
0
  9
$USERR5
 40
0
  9
$WORLDVIEW
 70
    1
  9
$SHADEDGE
 70
    3
  9
$SHADEDIF
 70
   70
  9
$TILEMODE
 70
    1
  9
$MAXACTVP
 70
   64
  9
$PINSBASE
 10
0
 20
0
 30
0
  9
$PLIMCHECK
 70
    0
  9
$PEXTMIN
 10
0
 20
0
 30
0
  9
$PEXTMAX
 10
0
 20
0
 30
0
  9
$GRIDMODE
 70
    1
  9
$SNAPSTYLE
 70
    0
  9
$PLIMMIN
 10
0
 20
0
  9
$PLIMMAX
 10
210
 20
297
  9
$UNITMODE
 70
    0
  9
$VISRETAIN
 70
    1
  9
$PLINEGEN
 70
    0
  9
$PSLTSCALE
 70
    1
  9
$TREEDEPTH
 70
 3020
  9
$CMLSTYLE
  2
Standard
  9
$CMLJUST
 70
    0
  9
$CMLSCALE
 40
20
  9
$PROXYGRAPHICS
 70
    1
  9
$MEASUREMENT
 70
    1
  9
$CELWEIGHT
370
   -1
  9
$ENDCAPS
280
    0
  9
$JOINSTYLE
280
    0
  9
$LWDISPLAY
290
    0
  9
$INSUNITS
 70
    0
  9
$HYPERLINKBASE
  1

  9
$STYLESHEET
  1

  9
$XEDIT
290
    1
  9
$CEPSNTYPE
380
    0
  9
$PSTYLEMODE
290
    1
  9
$EXTNAMES
290
    1
  9
$PSVPSCALE
 40
1
  9
$OLESTARTUP
290
    0
  9
$SORTENTS
280
  127
  9
$INDEXCTL
280
    0
  9
$HIDETEXT
280
    1
  9
$XCLIPFRAME
290
    0
  9
$HALOGAP
280
    0
  9
$OBSCOLOR
 70
  257
  9
$OBSLTYPE
280
    0
  9
$INTERSECTIONDISPLAY
280
    0
  9
$INTERSECTIONCOLOR
 70
  257
  9
$DIMASSOC
280
    1
  9
$PROJECTNAME
  1

  9
$CAMERADISPLAY
290
    0
  9
$LENSLENGTH
 40
50
  9
$CAMERAHEIGHT
 40
0
  9
$STEPSPERSEC
 40
2
  9
$STEPSIZE
 40
50
  9
$3DDWFPREC
 40
2
  9
$PSOLWIDTH
 40
5
  9
$PSOLHEIGHT
 40
80
  9
$LOFTANG1
 40
1.570796326794897
  9
$LOFTANG2
 40
1.570796326794897
  9
$LOFTMAG1
 40
0
  9
$LOFTMAG2
 40
0
  9
$LOFTPARAM
 70
    7
  9
$LOFTNORMALS
280
    1
  9
$LATITUDE
 40
1
  9
$LONGITUDE
 40
1
  9
$NORTHDIRECTION
 40
0
  9
$TIMEZONE
 70
-8000
  9
$LIGHTGLYPHDISPLAY
280
    1
  9
$TILEMODELIGHTSYNCH
280
    1
  9
$SOLIDHIST
280
    1
  9
$SHOWHIST
280
    1
  9
$DWFFRAME
280
    2
  9
$DGNFRAME
280
    0
  9
$REALWORLDSCALE
290
    1
  9
$INTERFERECOLOR
 62
    1
  9
$CSHADOW
280
    0
  9
$SHADOWPLANELOCATION
 40
0
  0
ENDSEC
  0
SECTION
  2
CLASSES
  0
ENDSEC
  0
SECTION
  2
TABLES
  0
TABLE
  2
VPORT
  5
8
330
0
100
AcDbSymbolTable
 70
    1
  0
VPORT
  5
31
330
2
100
AcDbSymbolTableRecord
100
AcDbViewportTableRecord
  2
*ACTIVE
 70
    0
 10
0
 20
0
 11
1
 21
1
 12
54.2894773599577
 22
39.3402009854766
 13
0
 23
0
 14
10
 24
10
 15
10
 25
10
 16
0
 26
0
 36
1
 17
0
 27
0
 37
0
 40
157.164102936979
 41
1.379224030037547
 42
50
 43
0
 44
0
 50
0
 51
0
 71
    0
 72
  100
 73
    1
 74
    3
 75
    0
 76
    1
 77
    0
 78
    0
281
    0
 65
    1
110
0
120
0
130
0
111
1
121
0
131
0
112
0
122
1
132
0
 79
    0
146
0
348
10020
 60
    7
 61
    5
292
1
282
    1
141
0
142
0
 63
  250
421
3358443
  0
ENDTAB
  0
TABLE
  2
LTYPE
  5
5
330
0
100
AcDbSymbolTable
 70
    4
  0
LTYPE
  5
14
330
5
100
AcDbSymbolTableRecord
100
AcDbLinetypeTableRecord
  2
ByBlock
 70
    0
  3

 72
   65
 73
    0
 40
0
  0
LTYPE
  5
15
330
5
100
AcDbSymbolTableRecord
100
AcDbLinetypeTableRecord
  2
ByLayer
 70
    0
  3

 72
   65
 73
    0
 40
0
  0
LTYPE
  5
16
330
5
100
AcDbSymbolTableRecord
100
AcDbLinetypeTableRecord
  2
Continuous
 70
    0
  3
Solid line
 72
   65
 73
    0
 40
0
  0
LTYPE
  5
32
330
5
100
AcDbSymbolTableRecord
100
AcDbLinetypeTableRecord
  2
DOT
 70
    0
  3
Dot . . . . . . . . . . . . . . . . . . . . . .
 72
   65
 73
    2
 40
6.35
 49
0
 74
    0
 49
-6.35
 74
    0
  0
LTYPE
  5
33
330
5
100
AcDbSymbolTableRecord
100
AcDbLinetypeTableRecord
  2
DOTTINY
 70
    0
  3
Dot (.15x) .....................................
 72
   65
 73
    2
 40
0.9525
 49
0
 74
    0
 49
-0.9525
 74
    0
  0
LTYPE
  5
34
330
5
100
AcDbSymbolTableRecord
100
AcDbLinetypeTableRecord
  2
DOT2
 70
    0
  3
Dot (.5x) .....................................
 72
   65
 73
    2
 40
3.175
 49
0
 74
    0
 49
-3.175
 74
    0
  0
LTYPE
  5
35
330
5
100
AcDbSymbolTableRecord
100
AcDbLinetypeTableRecord
  2
DOTX2
 70
    0
  3
Dot (2x) .  .  .  .  .  .  .  .  .  .  .  .  .
 72
   65
 73
    2
 40
12.7
 49
0
 74
    0
 49
-12.7
 74
    0
  0
LTYPE
  5
36
330
5
100
AcDbSymbolTableRecord
100
AcDbLinetypeTableRecord
  2
DASHED
 70
    0
  3
Dashed _ _ _ _ _ _ _ _ _ _ _ _ _ _ _ _ _
 72
   65
 73
    2
 40
19.05
 49
12.7
 74
    0
 49
-6.35
 74
    0
  0
LTYPE
  5
37
330
5
100
AcDbSymbolTableRecord
100
AcDbLinetypeTableRecord
  2
DASHEDTINY
 70
    0
  3
Dashed (.15x) _ _ _ _ _ _ _ _ _ _ _ _ _ _ _ _ _
 72
   65
 73
    2
 40
2.8575
 49
1.905
 74
    0
 49
-0.9525
 74
    0
  0
LTYPE
  5
38
330
5
100
AcDbSymbolTableRecord
100
AcDbLinetypeTableRecord
  2
DASHED2
 70
    0
  3
Dashed (.5x) _ _ _ _ _ _ _ _ _ _ _ _ _ _ _ _ _
 72
   65
 73
    2
 40
9.524999999999999
 49
6.35
 74
    0
 49
-3.175
 74
    0
  0
LTYPE
  5
39
330
5
100
AcDbSymbolTableRecord
100
AcDbLinetypeTableRecord
  2
DASHEDX2
 70
    0
  3
Dashed (2x) ____  ____  ____  ____  ____  ___
 72
   65
 73
    2
 40
38.09999999999999
 49
25.4
 74
    0
 49
-12.7
 74
    0
  0
LTYPE
  5
3A
330
5
100
AcDbSymbolTableRecord
100
AcDbLinetypeTableRecord
  2
DASHDOT
 70
    0
  3
Dash dot __ . __ . __ . __ . __ . __ . __ . __
 72
   65
 73
    4
 40
25.4
 49
12.7
 74
    0
 49
-6.35
 74
    0
 49
0
 74
    0
 49
-6.35
 74
    0
  0
LTYPE
  5
3B
330
5
100
AcDbSymbolTableRecord
100
AcDbLinetypeTableRecord
  2
DASHDOTTINY
 70
    0
  3
Dash dot (.15x) _._._._._._._._._._._._._._._.
 72
   65
 73
    4
 40
3.81
 49
1.905
 74
    0
 49
-0.9525
 74
    0
 49
0
 74
    0
 49
-0.9525
 74
    0
  0
LTYPE
  5
3C
330
5
100
AcDbSymbolTableRecord
100
AcDbLinetypeTableRecord
  2
DASHDOT2
 70
    0
  3
Dash dot (.5x) _._._._._._._._._._._._._._._.
 72
   65
 73
    4
 40
12.7
 49
6.35
 74
    0
 49
-3.175
 74
    0
 49
0
 74
    0
 49
-3.175
 74
    0
  0
LTYPE
  5
3D
330
5
100
AcDbSymbolTableRecord
100
AcDbLinetypeTableRecord
  2
DASHDOTX2
 70
    0
  3
Dash dot (2x) ____  .  ____  .  ____  .  ___
 72
   65
 73
    4
 40
50.8
 49
25.4
 74
    0
 49
-12.7
 74
    0
 49
0
 74
    0
 49
-12.7
 74
    0
  0
LTYPE
  5
3E
330
5
100
AcDbSymbolTableRecord
100
AcDbLinetypeTableRecord
  2
DIVIDE
 70
    0
  3
Divide ____ . . ____ . . ____ . . ____ . . ____
 72
   65
 73
    6
 40
31.75
 49
12.7
 74
    0
 49
-6.35
 74
    0
 49
0
 74
    0
 49
-6.35
 74
    0
 49
0
 74
    0
 49
-6.35
 74
    0
  0
LTYPE
  5
3F
330
5
100
AcDbSymbolTableRecord
100
AcDbLinetypeTableRecord
  2
DIVIDETINY
 70
    0
  3
Divide (.15x) __..__..__..__..__..__..__..__.._
 72
   65
 73
    6
 40
4.7625
 49
1.905
 74
    0
 49
-0.9525
 74
    0
 49
0
 74
    0
 49
-0.9525
 74
    0
 49
0
 74
    0
 49
-0.9525
 74
    0
  0
LTYPE
  5
40
330
5
100
AcDbSymbolTableRecord
100
AcDbLinetypeTableRecord
  2
DIVIDE2
 70
    0
  3
Divide (.5x) __..__..__..__..__..__..__..__.._
 72
   65
 73
    6
 40
15.875
 49
6.35
 74
    0
 49
-3.175
 74
    0
 49
0
 74
    0
 49
-3.175
 74
    0
 49
0
 74
    0
 49
-3.175
 74
    0
  0
LTYPE
  5
41
330
5
100
AcDbSymbolTableRecord
100
AcDbLinetypeTableRecord
  2
DIVIDEX2
 70
    0
  3
Divide (2x) ________  .  .  ________  .  .  _
 72
   65
 73
    6
 40
63.5
 49
25.4
 74
    0
 49
-12.7
 74
    0
 49
0
 74
    0
 49
-12.7
 74
    0
 49
0
 74
    0
 49
-12.7
 74
    0
  0
LTYPE
  5
42
330
5
100
AcDbSymbolTableRecord
100
AcDbLinetypeTableRecord
  2
BORDER
 70
    0
  3
Border __ __ . __ __ . __ __ . __ __ . __ __ .
 72
   65
 73
    6
 40
44.45
 49
12.7
 74
    0
 49
-6.35
 74
    0
 49
12.7
 74
    0
 49
-6.35
 74
    0
 49
0
 74
    0
 49
-6.35
 74
    0
  0
LTYPE
  5
43
330
5
100
AcDbSymbolTableRecord
100
AcDbLinetypeTableRecord
  2
BORDERTINY
 70
    0
  3
Border (.15x) __.__.__.__.__.__.__.__.__.__.__.
 72
   65
 73
    6
 40
6.6675
 49
1.905
 74
    0
 49
-0.9525
 74
    0
 49
1.905
 74
    0
 49
-0.9525
 74
    0
 49
0
 74
    0
 49
-0.9525
 74
    0
  0
LTYPE
  5
44
330
5
100
AcDbSymbolTableRecord
100
AcDbLinetypeTableRecord
  2
BORDER2
 70
    0
  3
Border (.5x) __.__.__.__.__.__.__.__.__.__.__.
 72
   65
 73
    6
 40
22.225
 49
6.35
 74
    0
 49
-3.175
 74
    0
 49
6.35
 74
    0
 49
-3.175
 74
    0
 49
0
 74
    0
 49
-3.175
 74
    0
  0
LTYPE
  5
45
330
5
100
AcDbSymbolTableRecord
100
AcDbLinetypeTableRecord
  2
BORDERX2
 70
    0
  3
Border (2x) ____  ____  .  ____  ____  .  ___
 72
   65
 73
    6
 40
88.89999999999999
 49
25.4
 74
    0
 49
-12.7
 74
    0
 49
25.4
 74
    0
 49
-12.7
 74
    0
 49
0
 74
    0
 49
-12.7
 74
    0
  0
LTYPE
  5
46
330
5
100
AcDbSymbolTableRecord
100
AcDbLinetypeTableRecord
  2
CENTER
 70
    0
  3
Center ____ _ ____ _ ____ _ ____ _ ____ _ ____
 72
   65
 73
    4
 40
50.8
 49
31.75
 74
    0
 49
-6.35
 74
    0
 49
6.35
 74
    0
 49
-6.35
 74
    0
  0
LTYPE
  5
47
330
5
100
AcDbSymbolTableRecord
100
AcDbLinetypeTableRecord
  2
CENTERTINY
 70
    0
  3
Center (.15x) ___ _ ___ _ ___ _ ___ _ ___ _ ___
 72
   65
 73
    4
 40
7.619999999999999
 49
4.7625
 74
    0
 49
-0.9525
 74
    0
 49
0.9525
 74
    0
 49
-0.9525
 74
    0
  0
LTYPE
  5
48
330
5
100
AcDbSymbolTableRecord
100
AcDbLinetypeTableRecord
  2
CENTER2
 70
    0
  3
Center (.5x) ___ _ ___ _ ___ _ ___ _ ___ _ ___
 72
   65
 73
    4
 40
28.575
 49
19.05
 74
    0
 49
-3.175
 74
    0
 49
3.175
 74
    0
 49
-3.175
 74
    0
  0
LTYPE
  5
49
330
5
100
AcDbSymbolTableRecord
100
AcDbLinetypeTableRecord
  2
CENTERX2
 70
    0
  3
Center (2x) ________  __  ________  __  _____
 72
   65
 73
    4
 40
101.6
 49
63.5
 74
    0
 49
-12.7
 74
    0
 49
12.7
 74
    0
 49
-12.7
 74
    0
  0
ENDTAB
  0
TABLE
  2
LAYER
  5
2
330
0
100
AcDbSymbolTable
 70
    1
  0
LAYER
  5
10
330
2
100
AcDbSymbolTableRecord
100
AcDbLayerTableRecord
  2
0
 70
    0
 62
    7
  6
CONTINUOUS
370
    0
390
F
  0
LAYER
  5
4A
330
2
100
AcDbSymbolTableRecord
100
AcDbLayerTableRecord
  2
edge
 70
    0
 62
    2
  6
CONTINUOUS
370
    0
390
F
  0
LAYER
  5
4B
330
2
100
AcDbSymbolTableRecord
100
AcDbLayerTableRecord
  2
percage
 70
    0
 62
    4
  6
CONTINUOUS
370
    0
390
F
  0
LAYER
  5
4C
330
2
100
AcDbSymbolTableRecord
100
AcDbLayerTableRecord
  2
pg1350
 70
    0
 62
  181
420
10391779
  6
CONTINUOUS
370
    0
390
F
  0
LAYER
  5
4D
330
2
100
AcDbSymbolTableRecord
100
AcDbLayerTableRecord
  2
placement
 70
    0
 62
    1
  6
CONTINUOUS
370
    0
390
F
  0
LAYER
  5
4E
330
2
100
AcDbSymbolTableRecord
100
AcDbLayerTableRecord
  2
rpi
 70
    0
 62
    3
  6
CONTINUOUS
370
    0
390
F
  0
ENDTAB
  0
TABLE
  2
STYLE
  5
3
330
0
100
AcDbSymbolTable
 70
    3
  0
STYLE
  5
4F
330
2
100
AcDbSymbolTableRecord
100
AcDbTextStyleTableRecord
  2
Standard
 70
    0
 40
0
 41
1
 50
0
 71
    0
 42
1
  3
txt
  4

  0
ENDTAB
  0
TABLE
  2
VIEW
  5
6
330
0
100
AcDbSymbolTable
 70
    0
  0
ENDTAB
  0
TABLE
  2
UCS
  5
7
330
0
100
AcDbSymbolTable
 70
    0
  0
ENDTAB
  0
TABLE
  2
APPID
  5
9
330
0
100
AcDbSymbolTable
 70
    1
  0
APPID
  5
12
330
9
100
AcDbSymbolTableRecord
100
AcDbRegAppTableRecord
  2
ACAD
 70
    0
  0
APPID
  5
50
330
9
100
AcDbSymbolTableRecord
100
AcDbRegAppTableRecord
  2
LibreCad
 70
    0
  0
ENDTAB
  0
TABLE
  2
DIMSTYLE
  5
A
330
0
100
AcDbSymbolTable
 70
    1
100
AcDbDimStyleTable
 71
    1
  0
DIMSTYLE
105
51
330
A
100
AcDbSymbolTableRecord
100
AcDbDimStyleTableRecord
  2
Standard
 70
    0
 40
2.5
 41
2.5
 42
0.625
 43
0.38
 44
1.25
 45
0
 46
0
 47
0
 48
0
 49
1
140
2.5
141
0.09
142
0
143
25.4
144
1
145
0
146
1
147
0.625
148
0
 71
    0
 72
    0
 73
    0
 74
    1
 75
    0
 76
    0
 77
    0
 78
    8
 79
    0
170
    0
171
    2
172
    0
173
    0
174
    0
175
    0
176
    0
177
    0
178
    0
179
    0
271
    2
272
    4
273
    2
274
    2
275
    0
276
    0
277
    2
278
   44
279
    0
280
    0
281
    0
282
    0
283
    1
284
    0
285
    0
286
    0
288
    0
289
    3
340
STANDARD
341

371
   -2
372
   -2
  0
ENDTAB
  0
TABLE
  2
BLOCK_RECORD
  5
1
330
0
100
AcDbSymbolTable
 70
    2
  0
BLOCK_RECORD
  5
1F
330
1
100
AcDbSymbolTableRecord
100
AcDbBlockTableRecord
  2
*Model_Space
 70
    0
280
    1
281
    0
  0
BLOCK_RECORD
  5
1E
330
1
100
AcDbSymbolTableRecord
100
AcDbBlockTableRecord
  2
*Paper_Space
 70
    0
280
    1
281
    0
  0
ENDTAB
  0
ENDSEC
  0
SECTION
  2
BLOCKS
  0
BLOCK
  5
20
330
1F
100
AcDbEntity
  8
0
100
AcDbBlockBegin
  2
*Model_Space
 70
    0
 10
0
 20
0
 30
0
  3
*Model_Space
  1

  0
ENDBLK
  5
21
330
1F
100
AcDbEntity
  8
0
100
AcDbBlockEnd
  0
BLOCK
  5
1C
330
1B
100
AcDbEntity
  8
0
100
AcDbBlockBegin
  2
*Paper_Space
 70
    0
 10
0
 20
0
 30
0
  3
*Paper_Space
  1

  0
ENDBLK
  5
1D
330
1F
100
AcDbEntity
  8
0
100
AcDbBlockEnd
  0
ENDSEC
  0
SECTION
  2
ENTITIES
  0
LINE
  5
52
100
AcDbEntity
  8
0
  6
ByLayer
 62
  256
370
   -1
100
AcDbLine
 10
-82.55197682639192
 20
22.70148581895284
 11
-80.18603411007081
 21
39.53604298755954
  0
LINE
  5
53
100
AcDbEntity
  8
0
  6
ByLayer
 62
  256
370
   -1
100
AcDbLine
 10
-64.72715158904364
 20
20.19637000167165
 11
-62.36120887272254
 21
37.03092717027836
  0
LINE
  5
54
100
AcDbEntity
  8
0
  6
ByLayer
 62
  256
370
   -1
100
AcDbLine
 10
-46.90232635169538
 20
17.69125418439047
 11
-44.53638363537428
 21
34.52581135299717
  0
LINE
  5
55
100
AcDbEntity
  8
0
  6
ByLayer
 62
  256
370
   -1
100
AcDbLine
 10
-29.07750111434712
 20
15.18613836710929
 11
-26.71155839802601
 21
32.02069553571599
  0
LINE
  5
56
100
AcDbEntity
  8
0
  6
ByLayer
 62
  256
370
   -1
100
AcDbLine
 10
-11.25267587699885
 20
12.68102254982811
 11
-8.886733160677736
 21
29.51557971843481
  0
LINE
  5
57
100
AcDbEntity
  8
0
  6
ByLayer
 62
  256
370
   -1
100
AcDbLine
 10
-80.46171323337597
 20
5.240649696025844
 11
-78.09577051705486
 21
22.07520686463254
  0
LINE
  5
58
100
AcDbEntity
  8
0
  6
ByLayer
 62
  256
370
   -1
100
AcDbLine
 10
-62.6368879960277
 20
2.735533878744665
 11
-60.27094527970659
 21
19.57009104735136
  0
LINE
  5
59
100
AcDbEntity
  8
0
  6
ByLayer
 62
  256
370
   -1
100
AcDbLine
 10
-44.81206275867944
 20
0.2304180614634852
 11
-42.44612004235832
 21
17.06497523007017
  0
LINE
  5
5A
100
AcDbEntity
  8
0
  6
ByLayer
 62
  256
370
   -1
100
AcDbLine
 10
-26.98723752133117
 20
-2.274697755817705
 11
-24.62129480501005
 21
14.559859412789
  0
LINE
  5
5B
100
AcDbEntity
  8
0
  6
ByLayer
 62
  256
370
   -1
100
AcDbLine
 10
-9.162412283982903
 20
-4.779813573098885
 11
-6.796469567661788
 21
12.05474359550782
  0
LINE
  5
5C
100
AcDbEntity
  8
0
  6
ByLayer
 62
  256
370
   -1
100
AcDbLine
 10
-73.91524333102295
 20
-12.84646538122143
 11
-71.54930061470183
 21
3.988091787385255
  0
LINE
  5
5D
100
AcDbEntity
  8
0
  6
ByLayer
 62
  256
370
   -1
100
AcDbLine
 10
-20.44076761897816
 20
-20.36181283306498
 11
-18.07482490265704
 21
-3.527255664458284
  0
LINE
  5
5E
100
AcDbEntity
  8
0
  6
ByLayer
 62
  256
370
   -1
100
AcDbLine
 10
-73.91524333102295
 20
-12.84646538122143
 11
-2.615942381629893
 21
-22.86692865034616
  0
LINE
  5
5F
100
AcDbEntity
  8
0
  6
ByLayer
 62
  256
370
   -1
100
AcDbLine
 10
-80.46171323337597
 20
5.240649696025844
 11
-0.2499996653087777
 21
-6.032371481739474
  0
LINE
  5
60
100
AcDbEntity
  8
0
  6
ByLayer
 62
  256
370
   -1
100
AcDbLine
 10
-82.55197682639192
 20
22.70148581895284
 11
-6.796469567661788
 21
12.05474359550782
  0
LINE
  5
61
100
AcDbEntity
  8
0
  6
ByLayer
 62
  256
370
   -1
100
AcDbLine
 10
-8.886733160677736
 20
29.51557971843481
 11
-80.18603411007081
 21
39.53604298755954
  0
LINE
  5
62
100
AcDbEntity
  8
pg1350
  6
ByLayer
 62
  256
370
   -1
100
AcDbLine
 10
-63.98578407679496
 20
36.24941875297689
 11
-78.83980510791852
 21
38.33701526737786
  0
LINE
  5
63
100
AcDbEntity
  8
pg1350
  6
ByLayer
 62
  256
370
   -1
100
AcDbLine
 10
-63.98578407679496
 20
36.24941875297689
 11
-66.07338059119596
 21
21.39539772185332
  0
LINE
  5
64
100
AcDbEntity
  8
pg1350
  6
ByLayer
 62
  256
370
   -1
100
AcDbLine
 10
-78.83980510791852
 20
38.33701526737786
 11
-80.92740162231951
 21
23.48299423625431
  0
LINE
  5
65
100
AcDbEntity
  8
pg1350
  6
ByLayer
 62
  256
370
   -1
100
AcDbLine
 10
-66.07338059119596
 20
21.39539772185332
 11
-80.92740162231951
 21
23.48299423625431
  0
LINE
  5
66
100
AcDbEntity
  8
pg1350
  6
ByLayer
 62
  256
370
   -1
100
AcDbLine
 10
-46.16095883944669
 20
33.7443029356957
 11
-61.01497987057025
 21
35.83189945009669
  0
LINE
  5
67
100
AcDbEntity
  8
pg1350
  6
ByLayer
 62
  256
370
   -1
100
AcDbLine
 10
-46.16095883944669
 20
33.7443029356957
 11
-48.24855535384769
 21
18.89028190457215
  0
LINE
  5
68
100
AcDbEntity
  8
pg1350
  6
ByLayer
 62
  256
370
   -1
100
AcDbLine
 10
-61.01497987057025
 20
35.83189945009669
 11
-63.10257638497124
 21
20.97787841897313
  0
LINE
  5
69
100
AcDbEntity
  8
pg1350
  6
ByLayer
 62
  256
370
   -1
100
AcDbLine
 10
-48.24855535384769
 20
18.89028190457215
 11
-63.10257638497124
 21
20.97787841897313
  0
LINE
  5
6A
100
AcDbEntity
  8
pg1350
  6
ByLayer
 62
  256
370
   -1
100
AcDbLine
 10
-28.33613360209844
 20
31.23918711841452
 11
-43.19015463322199
 21
33.32678363281551
  0
LINE
  5
6B
100
AcDbEntity
  8
pg1350
  6
ByLayer
 62
  256
370
   -1
100
AcDbLine
 10
-28.33613360209844
 20
31.23918711841452
 11
-30.42373011649941
 21
16.38516608729096
  0
LINE
  5
6C
100
AcDbEntity
  8
pg1350
  6
ByLayer
 62
  256
370
   -1
100
AcDbLine
 10
-43.19015463322199
 20
33.32678363281551
 11
-45.27775114762297
 21
18.47276260169195
  0
LINE
  5
6D
100
AcDbEntity
  8
pg1350
  6
ByLayer
 62
  256
370
   -1
100
AcDbLine
 10
-30.42373011649941
 20
16.38516608729096
 11
-45.27775114762297
 21
18.47276260169195
  0
LINE
  5
6E
100
AcDbEntity
  8
pg1350
  6
ByLayer
 62
  256
370
   -1
100
AcDbLine
 10
-10.51130836475016
 20
28.73407130113334
 11
-25.36532939587372
 21
30.82166781553432
  0
LINE
  5
6F
100
AcDbEntity
  8
pg1350
  6
ByLayer
 62
  256
370
   -1
100
AcDbLine
 10
-10.51130836475016
 20
28.73407130113334
 11
-12.59890487915115
 21
13.88005027000978
  0
LINE
  5
70
100
AcDbEntity
  8
pg1350
  6
ByLayer
 62
  256
370
   -1
100
AcDbLine
 10
-25.36532939587372
 20
30.82166781553432
 11
-27.4529259102747
 21
15.96764678441076
  0
LINE
  5
71
100
AcDbEntity
  8
pg1350
  6
ByLayer
 62
  256
370
   -1
100
AcDbLine
 10
-12.59890487915115
 20
13.88005027000978
 11
-27.4529259102747
 21
15.96764678441076
  0
LINE
  5
72
100
AcDbEntity
  8
pg1350
  6
ByLayer
 62
  256
370
   -1
100
AcDbLine
 10
-61.89552048377901
 20
18.78858263004989
 11
-76.74954151490256
 21
20.87617914445088
  0
LINE
  5
73
100
AcDbEntity
  8
pg1350
  6
ByLayer
 62
  256
370
   -1
100
AcDbLine
 10
-61.89552048377901
 20
18.78858263004989
 11
-63.98311699817999
 21
3.934561598926337
  0
LINE
  5
74
100
AcDbEntity
  8
pg1350
  6
ByLayer
 62
  256
370
   -1
100
AcDbLine
 10
-76.74954151490256
 20
20.87617914445088
 11
-78.83713802930355
 21
6.022158113327315
  0
LINE
  5
75
100
AcDbEntity
  8
pg1350
  6
ByLayer
 62
  256
370
   -1
100
AcDbLine
 10
-63.98311699817999
 20
3.934561598926337
 11
-78.83713802930355
 21
6.022158113327315
  0
LINE
  5
76
100
AcDbEntity
  8
pg1350
  6
ByLayer
 62
  256
370
   -1
100
AcDbLine
 10
-44.07069524643074
 20
16.28346681276871
 11
-58.9247162775543
 21
18.37106332716969
  0
LINE
  5
77
100
AcDbEntity
  8
pg1350
  6
ByLayer
 62
  256
370
   -1
100
AcDbLine
 10
-44.07069524643074
 20
16.28346681276871
 11
-46.15829176083173
 21
1.429445781645157
  0
LINE
  5
78
100
AcDbEntity
  8
pg1350
  6
ByLayer
 62
  256
370
   -1
100
AcDbLine
 10
-58.9247162775543
 20
18.37106332716969
 11
-61.01231279195528
 21
3.517042296046135
  0
LINE
  5
79
100
AcDbEntity
  8
pg1350
  6
ByLayer
 62
  256
370
   -1
100
AcDbLine
 10
-46.15829176083173
 20
1.429445781645157
 11
-61.01231279195528
 21
3.517042296046135
  0
LINE
  5
7A
100
AcDbEntity
  8
pg1350
  6
ByLayer
 62
  256
370
   -1
100
AcDbLine
 10
-26.24587000908247
 20
13.77835099548753
 11
-41.09989104020603
 21
15.86594750988851
  0
LINE
  5
7B
100
AcDbEntity
  8
pg1350
  6
ByLayer
 62
  256
370
   -1
100
AcDbLine
 10
-26.24587000908247
 20
13.77835099548753
 11
-28.33346652348346
 21
-1.075670035636023
  0
LINE
  5
7C
100
AcDbEntity
  8
pg1350
  6
ByLayer
 62
  256
370
   -1
100
AcDbLine
 10
-41.09989104020603
 20
15.86594750988851
 11
-43.18748755460702
 21
1.011926478764956
  0
LINE
  5
7D
100
AcDbEntity
  8
pg1350
  6
ByLayer
 62
  256
370
   -1
100
AcDbLine
 10
-28.33346652348346
 20
-1.075670035636023
 11
-43.18748755460702
 21
1.011926478764956
  0
LINE
  5
7E
100
AcDbEntity
  8
pg1350
  6
ByLayer
 62
  256
370
   -1
100
AcDbLine
 10
-8.421044771734216
 20
11.27323517820635
 11
-23.27506580285777
 21
13.36083169260733
  0
LINE
  5
7F
100
AcDbEntity
  8
pg1350
  6
ByLayer
 62
  256
370
   -1
100
AcDbLine
 10
-8.421044771734216
 20
11.27323517820635
 11
-10.5086412861352
 21
-3.580785852917202
  0
LINE
  5
80
100
AcDbEntity
  8
pg1350
  6
ByLayer
 62
  256
370
   -1
100
AcDbLine
 10
-23.27506580285777
 20
13.36083169260733
 11
-25.36266231725875
 21
-1.493189338516224
  0
LINE
  5
81
100
AcDbEntity
  8
pg1350
  6
ByLayer
 62
  256
370
   -1
100
AcDbLine
 10
-10.5086412861352
 20
-3.580785852917202
 11
-25.36266231725875
 21
-1.493189338516224
  0
LINE
  5
82
100
AcDbEntity
  8
pg1350
  6
ByLayer
 62
  256
370
   -1
100
AcDbLine
 10
-55.34905058142599
 20
0.7014675528026046
 11
-70.20307161254954
 21
2.789064067203586
  0
LINE
  5
83
100
AcDbEntity
  8
pg1350
  6
ByLayer
 62
  256
370
   -1
100
AcDbLine
 10
-55.34905058142599
 20
0.7014675528026046
 11
-57.43664709582698
 21
-14.15255347832096
  0
LINE
  5
84
100
AcDbEntity
  8
pg1350
  6
ByLayer
 62
  256
370
   -1
100
AcDbLine
 10
-70.20307161254954
 20
2.789064067203586
 11
-72.29066812695054
 21
-12.06495696391996
  0
LINE
  5
85
100
AcDbEntity
  8
pg1350
  6
ByLayer
 62
  256
370
   -1
100
AcDbLine
 10
-57.43664709582698
 20
-14.15255347832096
 11
-72.29066812695054
 21
-12.06495696391996
  0
LINE
  5
86
100
AcDbEntity
  8
pg1350
  6
ByLayer
 62
  256
370
   -1
100
AcDbLine
 10
-37.52422534407772
 20
-1.803648264478575
 11
-52.37824637520129
 21
0.2839482499224069
  0
LINE
  5
87
100
AcDbEntity
  8
pg1350
  6
ByLayer
 62
  256
370
   -1
100
AcDbLine
 10
-37.52422534407772
 20
-1.803648264478575
 11
-39.6118218584787
 21
-16.65766929560214
  0
LINE
  5
88
100
AcDbEntity
  8
pg1350
  6
ByLayer
 62
  256
370
   -1
100
AcDbLine
 10
-52.37824637520129
 20
0.2839482499224069
 11
-54.46584288960226
 21
-14.57007278120114
  0
LINE
  5
89
100
AcDbEntity
  8
pg1350
  6
ByLayer
 62
  256
370
   -1
100
AcDbLine
 10
-39.6118218584787
 20
-16.65766929560214
 11
-54.46584288960226
 21
-14.57007278120114
  0
LINE
  5
8A
100
AcDbEntity
  8
pg1350
  6
ByLayer
 62
  256
370
   -1
100
AcDbLine
 10
-19.69940010672945
 20
-4.308764081759755
 11
-34.55342113785301
 21
-2.221167567358773
  0
LINE
  5
8B
100
AcDbEntity
  8
pg1350
  6
ByLayer
 62
  256
370
   -1
100
AcDbLine
 10
-19.69940010672945
 20
-4.308764081759755
 11
-21.78699662113043
 21
-19.16278511288332
  0
LINE
  5
8C
100
AcDbEntity
  8
pg1350
  6
ByLayer
 62
  256
370
   -1
100
AcDbLine
 10
-34.55342113785301
 20
-2.221167567358773
 11
-36.64101765225399
 21
-17.07518859848233
  0
LINE
  5
8D
100
AcDbEntity
  8
pg1350
  6
ByLayer
 62
  256
370
   -1
100
AcDbLine
 10
-21.78699662113043
 20
-19.16278511288332
 11
-36.64101765225399
 21
-17.07518859848233
  0
LINE
  5
8E
100
AcDbEntity
  8
pg1350
  6
ByLayer
 62
  256
370
   -1
100
AcDbLine
 10
-1.874574869381192
 20
-6.813879899040934
 11
-16.72859590050474
 21
-4.726283384639952
  0
LINE
  5
8F
100
AcDbEntity
  8
pg1350
  6
ByLayer
 62
  256
370
   -1
100
AcDbLine
 10
-1.874574869381192
 20
-6.813879899040934
 11
-3.962171383782177
 21
-21.6679009301645
  0
LINE
  5
90
100
AcDbEntity
  8
pg1350
  6
ByLayer
 62
  256
370
   -1
100
AcDbLine
 10
-16.72859590050474
 20
-4.726283384639952
 11
-18.81619241490573
 21
-19.58030441576351
  0
LINE
  5
91
100
AcDbEntity
  8
pg1350
  6
ByLayer
 62
  256
370
   -1
100
AcDbLine
 10
-3.962171383782177
 20
-21.6679009301645
 11
-18.81619241490573
 21
-19.58030441576351
  0
LINE
  5
92
100
AcDbEntity
  8
0
  6
ByLayer
 62
  256
370
   -1
100
AcDbLine
 10
84.96171390275839
 20
5.240649696025844
 11
82.59577118643728
 21
22.07520686463252
  0
LINE
  5
93
100
AcDbEntity
  8
0
  6
ByLayer
 62
  256
370
   -1
100
AcDbLine
 10
67.13688866541017
 20
2.735533878744647
 11
64.77094594908897
 21
19.57009104735136
  0
LINE
  5
94
100
AcDbEntity
  8
0
  6
ByLayer
 62
  256
370
   -1
100
AcDbLine
 10
49.31206342806189
 20
0.2304180614634852
 11
46.94612071174078
 21
17.06497523007016
  0
LINE
  5
95
100
AcDbEntity
  8
0
  6
ByLayer
 62
  256
370
   -1
100
AcDbLine
 10
31.48723819071358
 20
-2.274697755817705
 11
29.12129547439248
 21
14.559859412789
  0
LINE
  5
96
100
AcDbEntity
  8
0
  6
ByLayer
 62
  256
370
   -1
100
AcDbLine
 10
13.66241295336535
 20
-4.779813573098895
 11
11.29647023704423
 21
12.05474359550781
  0
LINE
  5
97
100
AcDbEntity
  8
0
  6
ByLayer
 62
  256
370
   -1
100
AcDbLine
 10
78.41524400040538
 20
-12.84646538122143
 11
76.04930128408427
 21
3.988091787385255
  0
LINE
  5
98
100
AcDbEntity
  8
0
  6
ByLayer
 62
  256
370
   -1
100
AcDbLine
 10
24.94076828836057
 20
-20.36181283306498
 11
22.57482557203947
 21
-3.527255664458295
  0
LINE
  5
99
100
AcDbEntity
  8
0
  6
ByLayer
 62
  256
370
   -1
100
AcDbLine
 10
78.41524400040538
 20
-12.84646538122143
 11
7.115943051012337
 21
-22.86692865034616
  0
LINE
  5
9A
100
AcDbEntity
  8
0
  6
ByLayer
 62
  256
370
   -1
100
AcDbLine
 10
84.96171390275839
 20
5.240649696025844
 11
4.750000334691222
 21
-6.032371481739474
  0
LINE
  5
9B
100
AcDbEntity
  8
pg1350
  6
ByLayer
 62
  256
370
   -1
100
AcDbLine
 10
66.39552115316147
 20
18.78858263004989
 11
81.24954218428499
 21
20.87617914445086
  0
LINE
  5
9C
100
AcDbEntity
  8
pg1350
  6
ByLayer
 62
  256
370
   -1
100
AcDbLine
 10
66.39552115316147
 20
18.78858263004989
 11
68.48311766756248
 21
3.934561598926347
  0
LINE
  5
9D
100
AcDbEntity
  8
pg1350
  6
ByLayer
 62
  256
370
   -1
100
AcDbLine
 10
81.24954218428499
 20
20.87617914445086
 11
83.33713869868598
 21
6.022158113327315
  0
LINE
  5
9E
100
AcDbEntity
  8
pg1350
  6
ByLayer
 62
  256
370
   -1
100
AcDbLine
 10
68.48311766756248
 20
3.934561598926347
 11
83.33713869868598
 21
6.022158113327315
  0
LINE
  5
9F
100
AcDbEntity
  8
pg1350
  6
ByLayer
 62
  256
370
   -1
100
AcDbLine
 10
48.57069591581319
 20
16.28346681276872
 11
63.42471694693677
 21
18.3710633271697
  0
LINE
  5
A0
100
AcDbEntity
  8
pg1350
  6
ByLayer
 62
  256
370
   -1
100
AcDbLine
 10
48.57069591581319
 20
16.28346681276872
 11
50.65829243021417
 21
1.429445781645157
  0
LINE
  5
A1
100
AcDbEntity
  8
pg1350
  6
ByLayer
 62
  256
370
   -1
100
AcDbLine
 10
63.42471694693677
 20
18.3710633271697
 11
65.51231346133767
 21
3.517042296046135
  0
LINE
  5
A2
100
AcDbEntity
  8
pg1350
  6
ByLayer
 62
  256
370
   -1
100
AcDbLine
 10
50.65829243021417
 20
1.429445781645157
 11
65.51231346133767
 21
3.517042296046135
  0
LINE
  5
A3
100
AcDbEntity
  8
pg1350
  6
ByLayer
 62
  256
370
   -1
100
AcDbLine
 10
30.74587067846488
 20
13.77835099548752
 11
45.59989170958849
 21
15.86594750988851
  0
LINE
  5
A4
100
AcDbEntity
  8
pg1350
  6
ByLayer
 62
  256
370
   -1
100
AcDbLine
 10
30.74587067846488
 20
13.77835099548752
 11
32.83346719286588
 21
-1.075670035636023
  0
LINE
  5
A5
100
AcDbEntity
  8
pg1350
  6
ByLayer
 62
  256
370
   -1
100
AcDbLine
 10
45.59989170958849
 20
15.86594750988851
 11
47.68748822398948
 21
1.011926478764945
  0
LINE
  5
A6
100
AcDbEntity
  8
pg1350
  6
ByLayer
 62
  256
370
   -1
100
AcDbLine
 10
32.83346719286588
 20
-1.075670035636023
 11
47.68748822398948
 21
1.011926478764945
  0
LINE
  5
A7
100
AcDbEntity
  8
pg1350
  6
ByLayer
 62
  256
370
   -1
100
AcDbLine
 10
12.92104544111666
 20
11.27323517820633
 11
27.77506647224018
 21
13.36083169260731
  0
LINE
  5
A8
100
AcDbEntity
  8
pg1350
  6
ByLayer
 62
  256
370
   -1
100
AcDbLine
 10
12.92104544111666
 20
11.27323517820633
 11
15.00864195551765
 21
-3.580785852917202
  0
LINE
  5
A9
100
AcDbEntity
  8
pg1350
  6
ByLayer
 62
  256
370
   -1
100
AcDbLine
 10
27.77506647224018
 20
13.36083169260731
 11
29.86266298664118
 21
-1.493189338516224
  0
LINE
  5
AA
100
AcDbEntity
  8
pg1350
  6
ByLayer
 62
  256
370
   -1
100
AcDbLine
 10
15.00864195551765
 20
-3.580785852917202
 11
29.86266298664118
 21
-1.493189338516224
  0
LINE
  5
AB
100
AcDbEntity
  8
pg1350
  6
ByLayer
 62
  256
370
   -1
100
AcDbLine
 10
59.84905125080849
 20
0.7014675528025975
 11
74.70307228193198
 21
2.789064067203565
  0
LINE
  5
AC
100
AcDbEntity
  8
pg1350
  6
ByLayer
 62
  256
370
   -1
100
AcDbLine
 10
59.84905125080849
 20
0.7014675528025975
 11
61.93664776520939
 21
-14.15255347832096
  0
LINE
  5
AD
100
AcDbEntity
  8
pg1350
  6
ByLayer
 62
  256
370
   -1
100
AcDbLine
 10
74.70307228193198
 20
2.789064067203565
 11
76.79066879633297
 21
-12.06495696391996
  0
LINE
  5
AE
100
AcDbEntity
  8
pg1350
  6
ByLayer
 62
  256
370
   -1
100
AcDbLine
 10
61.93664776520939
 20
-14.15255347832096
 11
76.79066879633297
 21
-12.06495696391996
  0
LINE
  5
AF
100
AcDbEntity
  8
pg1350
  6
ByLayer
 62
  256
370
   -1
100
AcDbLine
 10
42.02422601346018
 20
-1.803648264478575
 11
56.87824704458379
 21
0.2839482499224069
  0
LINE
  5
B0
100
AcDbEntity
  8
pg1350
  6
ByLayer
 62
  256
370
   -1
100
AcDbLine
 10
42.02422601346018
 20
-1.803648264478575
 11
44.11182252786118
 21
-16.65766929560214
  0
LINE
  5
B1
100
AcDbEntity
  8
pg1350
  6
ByLayer
 62
  256
370
   -1
100
AcDbLine
 10
56.87824704458379
 20
0.2839482499224069
 11
58.96584355898469
 21
-14.57007278120114
  0
LINE
  5
B2
100
AcDbEntity
  8
pg1350
  6
ByLayer
 62
  256
370
   -1
100
AcDbLine
 10
44.11182252786118
 20
-16.65766929560214
 11
58.96584355898469
 21
-14.57007278120114
  0
LINE
  5
B3
100
AcDbEntity
  8
pg1350
  6
ByLayer
 62
  256
370
   -1
100
AcDbLine
 10
24.19940077611187
 20
-4.308764081759755
 11
39.05342180723548
 21
-2.221167567358773
  0
LINE
  5
B4
100
AcDbEntity
  8
pg1350
  6
ByLayer
 62
  256
370
   -1
100
AcDbLine
 10
24.19940077611187
 20
-4.308764081759755
 11
26.28699729051287
 21
-19.16278511288332
  0
LINE
  5
B5
100
AcDbEntity
  8
pg1350
  6
ByLayer
 62
  256
370
   -1
100
AcDbLine
 10
39.05342180723548
 20
-2.221167567358773
 11
41.14101832163648
 21
-17.07518859848233
  0
LINE
  5
B6
100
AcDbEntity
  8
pg1350
  6
ByLayer
 62
  256
370
   -1
100
AcDbLine
 10
26.28699729051287
 20
-19.16278511288332
 11
41.14101832163648
 21
-17.07518859848233
  0
LINE
  5
B7
100
AcDbEntity
  8
pg1350
  6
ByLayer
 62
  256
370
   -1
100
AcDbLine
 10
6.374575538763636
 20
-6.813879899040934
 11
21.22859656988717
 21
-4.726283384639952
  0
LINE
  5
B8
100
AcDbEntity
  8
pg1350
  6
ByLayer
 62
  256
370
   -1
100
AcDbLine
 10
6.374575538763636
 20
-6.813879899040934
 11
8.462172053164622
 21
-21.6679009301645
  0
LINE
  5
B9
100
AcDbEntity
  8
pg1350
  6
ByLayer
 62
  256
370
   -1
100
AcDbLine
 10
21.22859656988717
 20
-4.726283384639952
 11
23.31619308428817
 21
-19.58030441576351
  0
LINE
  5
BA
100
AcDbEntity
  8
pg1350
  6
ByLayer
 62
  256
370
   -1
100
AcDbLine
 10
8.462172053164622
 20
-21.6679009301645
 11
23.31619308428817
 21
-19.58030441576351
  0
LINE
  5
BB
100
AcDbEntity
  8
0
  6
ByLayer
 62
  256
370
   -1
100
AcDbLine
 10
78.13956487710027
 20
21.44892791031225
 11
75.77362216077907
 21
38.28348507891891
  0
LINE
  5
BC
100
AcDbEntity
  8
0
  6
ByLayer
 62
  256
370
   -1
100
AcDbLine
 10
60.31473963975199
 20
18.94381209303107
 11
57.94879692343088
 21
35.77836926163774
  0
LINE
  5
BD
100
AcDbEntity
  8
0
  6
ByLayer
 62
  256
370
   -1
100
AcDbLine
 10
42.48991440240368
 20
16.43869627574988
 11
40.12397168608258
 21
33.27325344435658
  0
LINE
  5
BE
100
AcDbEntity
  8
0
  6
ByLayer
 62
  256
370
   -1
100
AcDbLine
 10
24.66508916505548
 20
13.9335804584687
 11
22.29914644873438
 21
30.7681376270754
  0
LINE
  5
BF
100
AcDbEntity
  8
0
  6
ByLayer
 62
  256
370
   -1
100
AcDbLine
 10
6.84026392770717
 20
11.42846464118753
 11
4.474321211386055
 21
28.26302180979423
  0
LINE
  5
C0
100
AcDbEntity
  8
0
  6
ByLayer
 62
  256
370
   -1
100
AcDbLine
 10
4.474321211386055
 20
28.26302180979423
 11
75.77362216077907
 21
38.28348507891891
  0
LINE
  5
C1
100
AcDbEntity
  8
pg1350
  6
ByLayer
 62
  256
370
   -1
100
AcDbLine
 10
59.57337212750329
 20
34.9968608443363
 11
74.42739315862687
 21
37.08445735873728
  0
LINE
  5
C2
100
AcDbEntity
  8
pg1350
  6
ByLayer
 62
  256
370
   -1
100
AcDbLine
 10
59.57337212750329
 20
34.9968608443363
 11
61.66096864190428
 21
20.14283981321273
  0
LINE
  5
C3
100
AcDbEntity
  8
pg1350
  6
ByLayer
 62
  256
370
   -1
100
AcDbLine
 10
74.42739315862687
 20
37.08445735873728
 11
76.51498967302777
 21
22.23043632761372
  0
LINE
  5
C4
100
AcDbEntity
  8
pg1350
  6
ByLayer
 62
  256
370
   -1
100
AcDbLine
 10
61.66096864190428
 20
20.14283981321273
 11
76.51498967302777
 21
22.23043632761372
  0
LINE
  5
C5
100
AcDbEntity
  8
pg1350
  6
ByLayer
 62
  256
370
   -1
100
AcDbLine
 10
41.74854689015498
 20
32.49174502705515
 11
56.60256792127859
 21
34.5793415414561
  0
LINE
  5
C6
100
AcDbEntity
  8
pg1350
  6
ByLayer
 62
  256
370
   -1
100
AcDbLine
 10
41.74854689015498
 20
32.49174502705515
 11
43.83614340455598
 21
17.63772399593156
  0
LINE
  5
C7
100
AcDbEntity
  8
pg1350
  6
ByLayer
 62
  256
370
   -1
100
AcDbLine
 10
56.60256792127859
 20
34.5793415414561
 11
58.69016443567958
 21
19.72532051033254
  0
LINE
  5
C8
100
AcDbEntity
  8
pg1350
  6
ByLayer
 62
  256
370
   -1
100
AcDbLine
 10
43.83614340455598
 20
17.63772399593156
 11
58.69016443567958
 21
19.72532051033254
  0
LINE
  5
C9
100
AcDbEntity
  8
pg1350
  6
ByLayer
 62
  256
370
   -1
100
AcDbLine
 10
23.92372165280678
 20
29.98662920977394
 11
38.77774268393028
 21
32.07422572417492
  0
LINE
  5
CA
100
AcDbEntity
  8
pg1350
  6
ByLayer
 62
  256
370
   -1
100
AcDbLine
 10
23.92372165280678
 20
29.98662920977394
 11
26.01131816720778
 21
15.13260817865039
  0
LINE
  5
CB
100
AcDbEntity
  8
pg1350
  6
ByLayer
 62
  256
370
   -1
100
AcDbLine
 10
38.77774268393028
 20
32.07422572417492
 11
40.86533919833128
 21
17.22020469305137
  0
LINE
  5
CC
100
AcDbEntity
  8
pg1350
  6
ByLayer
 62
  256
370
   -1
100
AcDbLine
 10
26.01131816720778
 20
15.13260817865039
 11
40.86533919833128
 21
17.22020469305137
  0
LINE
  5
CD
100
AcDbEntity
  8
pg1350
  6
ByLayer
 62
  256
370
   -1
100
AcDbLine
 10
6.098896415458483
 20
27.48151339249277
 11
20.95291744658208
 21
29.56910990689375
  0
LINE
  5
CE
100
AcDbEntity
  8
pg1350
  6
ByLayer
 62
  256
370
   -1
100
AcDbLine
 10
6.098896415458483
 20
27.48151339249277
 11
8.186492929859469
 21
12.62749236136921
  0
LINE
  5
CF
100
AcDbEntity
  8
pg1350
  6
ByLayer
 62
  256
370
   -1
100
AcDbLine
 10
20.95291744658208
 20
29.56910990689375
 11
23.04051396098298
 21
14.71508887577018
  0
LINE
  5
D0
100
AcDbEntity
  8
pg1350
  6
ByLayer
 62
  256
370
   -1
100
AcDbLine
 10
8.186492929859469
 20
12.62749236136921
 11
23.04051396098298
 21
14.71508887577018
  0
LINE
  5
D1
100
AcDbEntity
  8
0
  6
ByLayer
 62
  256
370
   -1
100
AcDbLine
 10
6.84026392770717
 20
11.42846464118753
 11
82.59577118643728
 21
22.07520686463252
  0
LINE
  5
D2
100
AcDbEntity
  8
0
  6
ByLayer
 62
  256
370
   -1
100
AcDbLine
 10
78.05154711010348
 20
22.07520686463252
 11
100.5515471101035
 21
22.07520686463252
  0
LINE
  5
D3
100
AcDbEntity
  8
0
  6
ByLayer
 62
  256
370
   -1
100
AcDbLine
 10
100.5515471101035
 20
22.07520686463252
 11
100.5515471101035
 21
39.07520686463252
  0
LINE
  5
D4
100
AcDbEntity
  8
0
  6
ByLayer
 62
  256
370
   -1
100
AcDbLine
 10
78.05154711010348
 20
22.07520686463252
 11
78.05154711010348
 21
39.07520686463252
  0
LINE
  5
D5
100
AcDbEntity
  8
0
  6
ByLayer
 62
  256
370
   -1
100
AcDbLine
 10
78.05154711010348
 20
39.07520686463252
 11
100.5515471101035
 21
39.07520686463252
  0
LINE
  5
D6
100
AcDbEntity
  8
pg1350
  6
ByLayer
 62
  256
370
   -1
100
AcDbLine
 10
81.80154711010348
 20
23.07520686463252
 11
81.80154711010348
 21
38.07520686463253
  0
LINE
  5
D7
100
AcDbEntity
  8
pg1350
  6
ByLayer
 62
  256
370
   -1
100
AcDbLine
 10
96.80154711010348
 20
23.07520686463252
 11
81.80154711010348
 21
23.07520686463252
  0
LINE
  5
D8
100
AcDbEntity
  8
pg1350
  6
ByLayer
 62
  256
370
   -1
100
AcDbLine
 10
96.80154711010348
 20
38.07520686463253
 11
81.80154711010348
 21
38.07520686463253
  0
LINE
  5
D9
100
AcDbEntity
  8
pg1350
  6
ByLayer
 62
  256
370
   -1
100
AcDbLine
 10
96.80154711010348
 20
23.07520686463252
 11
96.80154711010348
 21
38.07520686463253
  0
LINE
  5
DA
100
AcDbEntity
  8
0
  6
ByLayer
 62
  256
370
   -1
100
AcDbLine
 10
78.41524400040547
 20
4.153534618778565
 11
105.4152440004055
 21
4.153534618778565
  0
LINE
  5
DB
100
AcDbEntity
  8
0
  6
ByLayer
 62
  256
370
   -1
100
AcDbLine
 10
105.4152440004055
 20
-12.84646538122143
 11
105.4152440004055
 21
4.153534618778565
  0
LINE
  5
DC
100
AcDbEntity
  8
0
  6
ByLayer
 62
  256
370
   -1
100
AcDbLine
 10
78.41524400040547
 20
-12.84646538122143
 11
78.41524400040547
 21
4.153534618778565
  0
LINE
  5
DD
100
AcDbEntity
  8
0
  6
ByLayer
 62
  256
370
   -1
100
AcDbLine
 10
78.41524400040547
 20
-12.84646538122143
 11
105.4152440004055
 21
-12.84646538122143
  0
LINE
  5
DE
100
AcDbEntity
  8
pg1350
  6
ByLayer
 62
  256
370
   -1
100
AcDbLine
 10
99.41524400040547
 20
3.153534618778565
 11
84.41524400040547
 21
3.153534618778565
  0
LINE
  5
DF
100
AcDbEntity
  8
pg1350
  6
ByLayer
 62
  256
370
   -1
100
AcDbLine
 10
99.41524400040547
 20
-11.84646538122143
 11
99.41524400040547
 21
3.153534618778565
  0
LINE
  5
E0
100
AcDbEntity
  8
pg1350
  6
ByLayer
 62
  256
370
   -1
100
AcDbLine
 10
84.41524400040547
 20
-11.84646538122143
 11
84.41524400040547
 21
3.153534618778565
  0
LINE
  5
E1
100
AcDbEntity
  8
pg1350
  6
ByLayer
 62
  256
370
   -1
100
AcDbLine
 10
99.41524400040547
 20
-11.84646538122143
 11
84.41524400040547
 21
-11.84646538122143
  0
LINE
  5
E2
100
AcDbEntity
  8
0
  6
ByLayer
 62
  256
370
   -1
100
AcDbLine
 10
84.96171390275839
 20
4.614370741705546
 11
84.96171390275839
 21
21.61437074170555
  0
LINE
  5
E3
100
AcDbEntity
  8
0
  6
ByLayer
 62
  256
370
   -1
100
AcDbLine
 10
84.96171390275839
 20
21.61437074170555
 11
102.9617139027584
 21
21.61437074170554
  0
LINE
  5
E4
100
AcDbEntity
  8
0
  6
ByLayer
 62
  256
370
   -1
100
AcDbLine
 10
84.96171390275839
 20
4.614370741705546
 11
102.9617139027584
 21
4.614370741705546
  0
LINE
  5
E5
100
AcDbEntity
  8
0
  6
ByLayer
 62
  256
370
   -1
100
AcDbLine
 10
102.9617139027584
 20
4.614370741705546
 11
102.9617139027584
 21
21.61437074170554
  0
LINE
  5
E6
100
AcDbEntity
  8
pg1350
  6
ByLayer
 62
  256
370
   -1
100
AcDbLine
 10
101.4617139027584
 20
20.61437074170555
 11
86.46171390275839
 21
20.61437074170555
  0
LINE
  5
E7
100
AcDbEntity
  8
pg1350
  6
ByLayer
 62
  256
370
   -1
100
AcDbLine
 10
101.4617139027584
 20
5.614370741705546
 11
101.4617139027584
 21
20.61437074170555
  0
LINE
  5
E8
100
AcDbEntity
  8
pg1350
  6
ByLayer
 62
  256
370
   -1
100
AcDbLine
 10
86.46171390275839
 20
5.614370741705557
 11
86.46171390275839
 21
20.61437074170555
  0
LINE
  5
E9
100
AcDbEntity
  8
pg1350
  6
ByLayer
 62
  256
370
   -1
100
AcDbLine
 10
101.4617139027584
 20
5.614370741705546
 11
86.46171390275839
 21
5.614370741705557
  0
LINE
  5
EA
100
AcDbEntity
  8
pg1350
  6
ByLayer
 62
  256
370
   -1
100
AcDbLine
 10
-84.05197682639192
 20
38.70148581895283
 11
-99.05197682639192
 21
38.70148581895283
  0
LINE
  5
EB
100
AcDbEntity
  8
pg1350
  6
ByLayer
 62
  256
370
   -1
100
AcDbLine
 10
-84.05197682639192
 20
23.70148581895284
 11
-84.05197682639192
 21
38.70148581895283
  0
LINE
  5
EC
100
AcDbEntity
  8
pg1350
  6
ByLayer
 62
  256
370
   -1
100
AcDbLine
 10
-99.05197682639192
 20
23.70148581895284
 11
-99.05197682639192
 21
38.70148581895283
  0
LINE
  5
ED
100
AcDbEntity
  8
pg1350
  6
ByLayer
 62
  256
370
   -1
100
AcDbLine
 10
-84.05197682639192
 20
23.70148581895284
 11
-99.05197682639192
 21
23.70148581895284
  0
LINE
  5
EE
100
AcDbEntity
  8
0
  6
ByLayer
 62
  256
370
   -1
100
AcDbLine
 10
-100.5519768263919
 20
22.70148581895284
 11
-100.5519768263919
 21
39.70148581895283
  0
LINE
  5
EF
100
AcDbEntity
  8
0
  6
ByLayer
 62
  256
370
   -1
100
AcDbLine
 10
-100.5519768263919
 20
39.70148581895283
 11
-82.55197682639192
 21
39.70148581895283
  0
LINE
  5
F0
100
AcDbEntity
  8
0
  6
ByLayer
 62
  256
370
   -1
100
AcDbLine
 10
-100.5519768263919
 20
22.70148581895284
 11
-82.55197682639192
 21
22.70148581895284
  0
LINE
  5
F1
100
AcDbEntity
  8
0
  6
ByLayer
 62
  256
370
   -1
100
AcDbLine
 10
-82.55197682639192
 20
22.70148581895284
 11
-82.55197682639192
 21
39.70148581895283
  0
LINE
  5
F2
100
AcDbEntity
  8
0
  6
ByLayer
 62
  256
370
   -1
100
AcDbLine
 10
-73.91524333102295
 20
4.153534618778565
 11
-105.4152433310229
 21
4.153534618778565
  0
LINE
  5
F3
100
AcDbEntity
  8
0
  6
ByLayer
 62
  256
370
   -1
100
AcDbLine
 10
-73.91524333102295
 20
4.153534618778565
 11
-73.91524333102295
 21
-12.84646538122143
  0
LINE
  5
F4
100
AcDbEntity
  8
0
  6
ByLayer
 62
  256
370
   -1
100
AcDbLine
 10
-105.4152433310229
 20
4.153534618778565
 11
-105.4152433310229
 21
-12.84646538122143
  0
LINE
  5
F5
100
AcDbEntity
  8
0
  6
ByLayer
 62
  256
370
   -1
100
AcDbLine
 10
-73.91524333102295
 20
-12.84646538122143
 11
-105.4152433310229
 21
-12.84646538122143
  0
LINE
  5
F6
100
AcDbEntity
  8
0
  6
ByLayer
 62
  256
370
   -1
100
AcDbLine
 10
-80.46171323337596
 20
21.9275102188657
 11
-102.961713233376
 21
21.9275102188657
  0
LINE
  5
F7
100
AcDbEntity
  8
0
  6
ByLayer
 62
  256
370
   -1
100
AcDbLine
 10
-80.46171323337596
 20
21.9275102188657
 11
-80.46171323337597
 21
4.927510218865695
  0
LINE
  5
F8
100
AcDbEntity
  8
0
  6
ByLayer
 62
  256
370
   -1
100
AcDbLine
 10
-80.46171323337597
 20
4.927510218865695
 11
-102.961713233376
 21
4.927510218865695
  0
LINE
  5
F9
100
AcDbEntity
  8
pg1350
  6
ByLayer
 62
  256
370
   -1
100
AcDbLine
 10
-99.21171323337597
 20
5.927510218865706
 11
-99.21171323337597
 21
20.92751021886571
  0
LINE
  5
FA
100
AcDbEntity
  8
pg1350
  6
ByLayer
 62
  256
370
   -1
100
AcDbLine
 10
-84.21171323337596
 20
5.927510218865706
 11
-99.21171323337597
 21
5.927510218865706
  0
LINE
  5
FB
100
AcDbEntity
  8
pg1350
  6
ByLayer
 62
  256
370
   -1
100
AcDbLine
 10
-84.21171323337596
 20
20.92751021886571
 11
-99.21171323337597
 21
20.92751021886571
  0
LINE
  5
FC
100
AcDbEntity
  8
pg1350
  6
ByLayer
 62
  256
370
   -1
100
AcDbLine
 10
-84.21171323337596
 20
5.927510218865706
 11
-84.21171323337596
 21
20.92751021886571
  0
LINE
  5
FD
100
AcDbEntity
  8
pg1350
  6
ByLayer
 62
  256
370
   -1
100
AcDbLine
 10
-82.16524333102291
 20
3.153534618778558
 11
-97.16524333102291
 21
3.153534618778565
  0
LINE
  5
FE
100
AcDbEntity
  8
pg1350
  6
ByLayer
 62
  256
370
   -1
100
AcDbLine
 10
-82.16524333102291
 20
-11.84646538122143
 11
-82.16524333102291
 21
3.153534618778558
  0
LINE
  5
FF
100
AcDbEntity
  8
pg1350
  6
ByLayer
 62
  256
370
   -1
100
AcDbLine
 10
-97.16524333102291
 20
-11.84646538122143
 11
-97.16524333102291
 21
3.153534618778565
  0
LINE
  5
100
100
AcDbEntity
  8
pg1350
  6
ByLayer
 62
  256
370
   -1
100
AcDbLine
 10
-82.16524333102291
 20
-11.84646538122143
 11
-97.16524333102291
 21
-11.84646538122143
  0
LINE
  5
101
100
AcDbEntity
  8
0
  6
ByLayer
 62
  256
370
   -1
100
AcDbLine
 10
45.13153624202998
 20
-34.69125418439049
 11
40.39965080938778
 21
-1.022139847177115
  0
LINE
  5
102
100
AcDbEntity
  8
0
  6
ByLayer
 62
  256
370
   -1
100
AcDbLine
 10
4.750000334691222
 20
-6.032371481739474
 11
9.481885767333452
 21
-39.70148581895285
  0
LINE
  5
103
100
AcDbEntity
  8
0
  6
ByLayer
 62
  256
370
   -1
100
AcDbLine
 10
62.95636147937819
 20
-32.18613836710931
 11
58.22447604673599
 21
1.482975970104075
  0
LINE
  5
104
100
AcDbEntity
  8
0
  6
ByLayer
 62
  256
370
   -1
100
AcDbLine
 10
62.95636147937819
 20
-32.18613836710931
 11
9.481885767333452
 21
-39.70148581895285
  0
LINE
  5
105
100
AcDbEntity
  8
pg1350
  6
ByLayer
 62
  256
370
   -1
100
AcDbLine
 10
46.47776524418228
 20
-33.49222646420884
 11
61.33178627530589
 21
-31.40462994980783
  0
LINE
  5
106
100
AcDbEntity
  8
pg1350
  6
ByLayer
 62
  256
370
   -1
100
AcDbLine
 10
46.47776524418228
 20
-33.49222646420884
 11
44.39016872978128
 21
-18.63820543308529
  0
LINE
  5
107
100
AcDbEntity
  8
pg1350
  6
ByLayer
 62
  256
370
   -1
100
AcDbLine
 10
61.33178627530589
 20
-31.40462994980783
 11
59.24418976090487
 21
-16.55060891868429
  0
LINE
  5
108
100
AcDbEntity
  8
pg1350
  6
ByLayer
 62
  256
370
   -1
100
AcDbLine
 10
44.39016872978128
 20
-18.63820543308529
 11
59.24418976090487
 21
-16.55060891868429
  0
LINE
  5
109
100
AcDbEntity
  8
pg1350
  6
ByLayer
 62
  256
370
   -1
100
AcDbLine
 10
19.74052738815988
 20
-37.24990019013059
 11
34.59454841928348
 21
-35.16230367572959
  0
LINE
  5
10A
100
AcDbEntity
  8
pg1350
  6
ByLayer
 62
  256
370
   -1
100
AcDbLine
 10
19.74052738815988
 20
-37.24990019013059
 11
17.65293087375888
 21
-22.39587915900704
  0
LINE
  5
10B
100
AcDbEntity
  8
pg1350
  6
ByLayer
 62
  256
370
   -1
100
AcDbLine
 10
34.59454841928348
 20
-35.16230367572959
 11
32.50695190488248
 21
-20.30828264460604
  0
LINE
  5
10C
100
AcDbEntity
  8
pg1350
  6
ByLayer
 62
  256
370
   -1
100
AcDbLine
 10
17.65293087375888
 20
-22.39587915900704
 11
32.50695190488248
 21
-20.30828264460604
  0
LINE
  5
10D
100
AcDbEntity
  8
0
  6
ByLayer
 62
  256
370
   -1
100
AcDbLine
 10
80.66524400040547
 20
-29.84646538122143
 11
80.66524400040547
 21
-12.84646538122143
  0
LINE
  5
10E
100
AcDbEntity
  8
0
  6
ByLayer
 62
  256
370
   -1
100
AcDbLine
 10
103.1652440004055
 20
-29.84646538122143
 11
103.1652440004055
 21
-12.84646538122143
  0
LINE
  5
10F
100
AcDbEntity
  8
0
  6
ByLayer
 62
  256
370
   -1
100
AcDbLine
 10
80.66524400040547
 20
-29.84646538122143
 11
103.1652440004055
 21
-29.84646538122143
  0
LINE
  5
110
100
AcDbEntity
  8
pg1350
  6
ByLayer
 62
  256
370
   -1
100
AcDbLine
 10
99.41524400040547
 20
-13.84646538122143
 11
84.41524400040547
 21
-13.84646538122143
  0
LINE
  5
111
100
AcDbEntity
  8
pg1350
  6
ByLayer
 62
  256
370
   -1
100
AcDbLine
 10
99.41524400040547
 20
-28.84646538122143
 11
99.41524400040547
 21
-13.84646538122143
  0
LINE
  5
112
100
AcDbEntity
  8
pg1350
  6
ByLayer
 62
  256
370
   -1
100
AcDbLine
 10
84.41524400040547
 20
-28.84646538122143
 11
84.41524400040547
 21
-13.84646538122143
  0
LINE
  5
113
100
AcDbEntity
  8
pg1350
  6
ByLayer
 62
  256
370
   -1
100
AcDbLine
 10
99.41524400040547
 20
-28.84646538122143
 11
84.41524400040547
 21
-28.84646538122143
  0
LINE
  5
114
100
AcDbEntity
  8
0
  6
ByLayer
 62
  256
370
   -1
100
AcDbLine
 10
-102.961713233376
 20
-29.84646538122145
 11
-102.961713233376
 21
-12.84646538122143
  0
LINE
  5
115
100
AcDbEntity
  8
0
  6
ByLayer
 62
  256
370
   -1
100
AcDbLine
 10
-80.46171323337597
 20
-29.84646538122143
 11
-80.46171323337597
 21
-12.84646538122143
  0
LINE
  5
116
100
AcDbEntity
  8
0
  6
ByLayer
 62
  256
370
   -1
100
AcDbLine
 10
-102.961713233376
 20
-29.84646538122145
 11
-80.46171323337597
 21
-29.84646538122143
  0
LINE
  5
117
100
AcDbEntity
  8
pg1350
  6
ByLayer
 62
  256
370
   -1
100
AcDbLine
 10
-84.21171323337597
 20
-28.84646538122143
 11
-84.21171323337597
 21
-13.84646538122143
  0
LINE
  5
118
100
AcDbEntity
  8
pg1350
  6
ByLayer
 62
  256
370
   -1
100
AcDbLine
 10
-99.21171323337597
 20
-28.84646538122143
 11
-99.21171323337597
 21
-13.84646538122143
  0
LINE
  5
119
100
AcDbEntity
  8
pg1350
  6
ByLayer
 62
  256
370
   -1
100
AcDbLine
 10
-84.21171323337597
 20
-28.84646538122143
 11
-99.21171323337597
 21
-28.84646538122143
  0
LINE
  5
11A
100
AcDbEntity
  8
pg1350
  6
ByLayer
 62
  256
370
   -1
100
AcDbLine
 10
-99.21171323337597
 20
-13.84646538122143
 11
-84.21171323337597
 21
-13.84646538122143
  0
LINE
  5
11B
100
AcDbEntity
  8
0
  6
ByLayer
 62
  256
370
   -1
100
AcDbLine
 10
-102.961713233376
 20
21.9275102188657
 11
-102.961713233376
 21
4.927510218865695
  0
LINE
  5
11C
100
AcDbEntity
  8
0
  6
ByLayer
 62
  256
370
   -1
100
AcDbLine
 10
-56.09041809367469
 20
-15.35158119850263
 11
-53.72447537735357
 21
1.482975970104075
  0
LINE
  5
11D
100
AcDbEntity
  8
0
  6
ByLayer
 62
  256
370
   -1
100
AcDbLine
 10
-4.981885097951007
 20
-39.70148581895286
 11
-0.2499996653087777
 21
-6.032371481739474
  0
LINE
  5
11E
100
AcDbEntity
  8
pg1350
  6
ByLayer
 62
  256
370
   -1
100
AcDbLine
 10
-44.3463743697359
 20
-18.01192647876498
 11
-59.20039540085946
 21
-15.924329964364
  0
LINE
  5
11F
100
AcDbEntity
  8
pg1350
  6
ByLayer
 62
  256
370
   -1
100
AcDbLine
 10
-44.3463743697359
 20
-18.01192647876498
 11
-46.43397088413688
 21
-32.86594750988853
  0
LINE
  5
120
100
AcDbEntity
  8
pg1350
  6
ByLayer
 62
  256
370
   -1
100
AcDbLine
 10
-59.20039540085946
 20
-15.924329964364
 11
-61.28799191526044
 21
-30.77835099548755
  0
LINE
  5
121
100
AcDbEntity
  8
pg1350
  6
ByLayer
 62
  256
370
   -1
100
AcDbLine
 10
-46.43397088413688
 20
-32.86594750988853
 11
-61.28799191526044
 21
-30.77835099548755
  0
LINE
  5
122
100
AcDbEntity
  8
0
  6
ByLayer
 62
  256
370
   -1
100
AcDbLine
 10
-45.0877418819846
 20
-34.06497523007017
 11
-42.72179916566348
 21
-17.23041806146351
  0
LINE
  5
123
100
AcDbEntity
  8
0
  6
ByLayer
 62
  256
370
   -1
100
AcDbLine
 10
-38.26559285632642
 20
-17.8566970157838
 11
-35.8996501400053
 21
-1.022139847177105
  0
LINE
  5
124
100
AcDbEntity
  8
0
  6
ByLayer
 62
  256
370
   -1
100
AcDbLine
 10
-62.91256711933286
 20
-31.55985941278902
 11
-60.54662440301175
 21
-14.72530224418233
  0
LINE
  5
125
100
AcDbEntity
  8
0
  6
ByLayer
 62
  256
370
   -1
100
AcDbLine
 10
-62.91256711933286
 20
-31.55985941278902
 11
-4.981885097951007
 21
-39.70148581895286
  0
LINE
  5
126
100
AcDbEntity
  8
pg1350
  6
ByLayer
 62
  256
370
   -1
100
AcDbLine
 10
-15.38103335904498
 20
-22.08273968184689
 11
-30.23505439016854
 21
-19.99514316744591
  0
LINE
  5
127
100
AcDbEntity
  8
pg1350
  6
ByLayer
 62
  256
370
   -1
100
AcDbLine
 10
-15.38103335904498
 20
-22.08273968184689
 11
-17.46862987344596
 21
-36.93676071297045
  0
LINE
  5
128
100
AcDbEntity
  8
pg1350
  6
ByLayer
 62
  256
370
   -1
100
AcDbLine
 10
-30.23505439016854
 20
-19.99514316744591
 11
-32.32265090456951
 21
-34.84916419856947
  0
LINE
  5
129
100
AcDbEntity
  8
pg1350
  6
ByLayer
 62
  256
370
   -1
100
AcDbLine
 10
-17.46862987344596
 20
-36.93676071297045
 11
-32.32265090456951
 21
-34.84916419856947
  0
ARC
  5
12A
100
AcDbEntity
  8
edge
  6
ByLayer
 62
  256
370
   -1
100
AcDbCircle
 10
-104.4152433310229
 20
-38.70148581895283
 40
2
100
AcDbArc
 50
179.9999999999998
 51
270
  0
LINE
  5
12B
100
AcDbEntity
  8
edge
  6
ByLayer
 62
  256
370
   -1
100
AcDbLine
 10
-106.4152433310229
 20
38.70148581895283
 11
-106.4152433310229
 21
-38.70148581895283
  0
ARC
  5
12C
100
AcDbEntity
  8
edge
  6
ByLayer
 62
  256
370
   -1
100
AcDbCircle
 10
-104.4152433310229
 20
38.70148581895283
 40
2
100
AcDbArc
 50
90
 51
180.0000000000001
  0
LINE
  5
12D
100
AcDbEntity
  8
edge
  6
ByLayer
 62
  256
370
   -1
100
AcDbLine
 10
-104.4152433310229
 20
40.70148581895283
 11
104.4152440004055
 21
40.70148581895283
  0
ARC
  5
12E
100
AcDbEntity
  8
edge
  6
ByLayer
 62
  256
370
   -1
100
AcDbCircle
 10
104.4152440004055
 20
38.70148581895283
 40
2
100
AcDbArc
 50
0
 51
90
  0
LINE
  5
12F
100
AcDbEntity
  8
edge
  6
ByLayer
 62
  256
370
   -1
100
AcDbLine
 10
-104.4152433310229
 20
-40.70148581895285
 11
104.4152440004055
 21
-40.70148581895286
  0
LINE
  5
130
100
AcDbEntity
  8
edge
  6
ByLayer
 62
  256
370
   -1
100
AcDbLine
 10
106.4152440004055
 20
-38.70148581895285
 11
106.4152440004055
 21
38.70148581895283
  0
ARC
  5
131
100
AcDbEntity
  8
edge
  6
ByLayer
 62
  256
370
   -1
100
AcDbCircle
 10
104.4152440004055
 20
-38.70148581895285
 40
2
100
AcDbArc
 50
270.0000000000008
 51
0
  0
CIRCLE
  5
132
100
AcDbEntity
  8
percage
  6
ByLayer
 62
  256
370
   -1
100
AcDbCircle
 10
-103.0817908240485
 20
37.36803335890204
 40
1.2
  0
CIRCLE
  5
133
100
AcDbEntity
  8
percage
  6
ByLayer
 62
  256
370
   -1
100
AcDbCircle
 10
-103.0817908240485
 20
-37.36803335890205
 40
1.2
  0
CIRCLE
  5
134
100
AcDbEntity
  8
percage
  6
ByLayer
 62
  256
370
   -1
100
AcDbCircle
 10
103.0817924069174
 20
-37.36803394026263
 40
1.2
  0
CIRCLE
  5
135
100
AcDbEntity
  8
percage
  6
ByLayer
 62
  256
370
   -1
100
AcDbCircle
 10
103.0817924069174
 20
37.36803394026261
 40
1.2
  0
CIRCLE
  5
136
100
AcDbEntity
  8
percage
  6
ByLayer
 62
  256
370
   -1
100
AcDbCircle
 10
2.250000334691222
 20
-22.86692865034616
 40
1.2
  0
CIRCLE
  5
137
100
AcDbEntity
  8
rpi
  6
ByLayer
 62
  256
370
   -1
100
AcDbCircle
 10
-3.205957640210367
 20
-4.174748586140459
 40
0.5
  0
CIRCLE
  5
138
100
AcDbEntity
  8
rpi
  6
ByLayer
 62
  256
370
   -1
100
AcDbCircle
 10
-3.559457316648934
 20
-1.659467691536881
 40
0.5
  0
CIRCLE
  5
139
100
AcDbEntity
  8
rpi
  6
ByLayer
 62
  256
370
   -1
100
AcDbCircle
 10
-3.912956993087493
 20
0.8558132030667105
 40
0.5
  0
CIRCLE
  5
13A
100
AcDbEntity
  8
rpi
  6
ByLayer
 62
  256
370
   -1
100
AcDbCircle
 10
-4.266456669526067
 20
3.371094097670302
 40
0.5
  0
CIRCLE
  5
13B
100
AcDbEntity
  8
rpi
  6
ByLayer
 62
  256
370
   -1
100
AcDbCircle
 10
-4.619956345964627
 20
5.886374992273894
 40
0.5
  0
CIRCLE
  5
13C
100
AcDbEntity
  8
rpi
  6
ByLayer
 62
  256
370
   -1
100
AcDbCircle
 10
11.88572772741117
 20
-2.053750527509073
 40
0.5
  0
CIRCLE
  5
13D
100
AcDbEntity
  8
rpi
  6
ByLayer
 62
  256
370
   -1
100
AcDbCircle
 10
-0.6906767456067753
 20
-3.821248909701899
 40
0.5
  0
CIRCLE
  5
13E
100
AcDbEntity
  8
rpi
  6
ByLayer
 62
  256
370
   -1
100
AcDbCircle
 10
1.824604148996809
 20
-3.467749233263326
 40
0.5
  0
CIRCLE
  5
13F
100
AcDbEntity
  8
rpi
  6
ByLayer
 62
  256
370
   -1
100
AcDbCircle
 10
4.339885043600401
 20
-3.114249556824766
 40
0.5
  0
CIRCLE
  5
140
100
AcDbEntity
  8
rpi
  6
ByLayer
 62
  256
370
   -1
100
AcDbCircle
 10
6.855165938203986
 20
-2.760749880386192
 40
0.5
  0
CIRCLE
  5
141
100
AcDbEntity
  8
rpi
  6
ByLayer
 62
  256
370
   -1
100
AcDbCircle
 10
9.37044683280757
 20
-2.407250203947632
 40
0.5
  0
CIRCLE
  5
142
100
AcDbEntity
  8
rpi
  6
ByLayer
 62
  256
370
   -1
100
AcDbCircle
 10
11.5322280509726
 20
0.461530367094519
 40
0.5
  0
CIRCLE
  5
143
100
AcDbEntity
  8
rpi
  6
ByLayer
 62
  256
370
   -1
100
AcDbCircle
 10
11.17872837453404
 20
2.976811261698111
 40
0.5
  0
CIRCLE
  5
144
100
AcDbEntity
  8
rpi
  6
ByLayer
 62
  256
370
   -1
100
AcDbCircle
 10
10.82522869809547
 20
5.492092156301703
 40
0.5
  0
CIRCLE
  5
145
100
AcDbEntity
  8
rpi
  6
ByLayer
 62
  256
370
   -1
100
AcDbCircle
 10
10.4717290216569
 20
8.007373050905279
 40
0.5
  0
CIRCLE
  5
146
100
AcDbEntity
  8
rpi
  6
ByLayer
 62
  256
370
   -1
100
AcDbCircle
 10
-4.973456022403194
 20
8.401655886877485
 40
0.5
  0
CIRCLE
  5
147
100
AcDbEntity
  8
rpi
  6
ByLayer
 62
  256
370
   -1
100
AcDbCircle
 10
-5.32695569884176
 20
10.91693678148106
 40
0.5
  0
CIRCLE
  5
148
100
AcDbEntity
  8
rpi
  6
ByLayer
 62
  256
370
   -1
100
AcDbCircle
 10
-5.680455375280327
 20
13.43221767608465
 40
0.5
  0
CIRCLE
  5
149
100
AcDbEntity
  8
rpi
  6
ByLayer
 62
  256
370
   -1
100
AcDbCircle
 10
-6.033955051718894
 20
15.94749857068825
 40
0.5
  0
CIRCLE
  5
14A
100
AcDbEntity
  8
rpi
  6
ByLayer
 62
  256
370
   -1
100
AcDbCircle
 10
9.057730315902642
 20
18.06849662931963
 40
0.5
  0
CIRCLE
  5
14B
100
AcDbEntity
  8
rpi
  6
ByLayer
 62
  256
370
   -1
100
AcDbCircle
 10
9.411229992341202
 20
15.55321573471605
 40
0.5
  0
CIRCLE
  5
14C
100
AcDbEntity
  8
rpi
  6
ByLayer
 62
  256
370
   -1
100
AcDbCircle
 10
9.764729668779776
 20
13.03793484011246
 40
0.5
  0
CIRCLE
  5
14D
100
AcDbEntity
  8
rpi
  6
ByLayer
 62
  256
370
   -1
100
AcDbCircle
 10
10.11822934521834
 20
10.52265394550889
 40
0.5
  0
LINE
  5
14E
100
AcDbEntity
  8
rpi
  6
ByLayer
 62
  256
370
   -1
100
AcDbLine
 10
-7.621810217108766
 20
17.32996592066245
 11
10.20301502023951
 21
19.83508173794363
  0
LINE
  5
14F
100
AcDbEntity
  8
rpi
  6
ByLayer
 62
  256
370
   -1
100
AcDbLine
 10
10.20301502023951
 20
19.83508173794363
 11
13.47358289280104
 21
-3.436217877483279
  0
LINE
  5
150
100
AcDbEntity
  8
rpi
  6
ByLayer
 62
  256
370
   -1
100
AcDbLine
 10
-4.351242344547228
 20
-5.941333694764459
 11
13.47358289280104
 21
-3.436217877483279
  0
LINE
  5
151
100
AcDbEntity
  8
rpi
  6
ByLayer
 62
  256
370
   -1
100
AcDbLine
 10
-7.621810217108766
 20
17.32996592066245
 11
-4.351242344547228
 21
-5.941333694764459
  0
LINE
  5
152
100
AcDbEntity
  8
placement
  6
ByLayer
 62
  256
370
   -1
100
AcDbLine
 10
-7.621810217108766
 20
17.32996592066245
 11
13.47358289280104
 21
-3.436217877483279
  0
LINE
  5
153
100
AcDbEntity
  8
placement
  6
ByLayer
 62
  256
370
   -1
100
AcDbLine
 10
6.098896415458483
 20
27.48151339249275
 11
23.04051396098301
 21
14.7150888757702
  0
LINE
  5
154
100
AcDbEntity
  8
placement
  6
ByLayer
 62
  256
370
   -1
100
AcDbLine
 10
23.9237216528068
 20
29.98662920977392
 11
40.86533919833133
 21
17.22020469305137
  0
LINE
  5
155
100
AcDbEntity
  8
placement
  6
ByLayer
 62
  256
370
   -1
100
AcDbLine
 10
41.74854689015501
 20
32.4917450270551
 11
58.69016443567953
 21
19.72532051033255
  0
LINE
  5
156
100
AcDbEntity
  8
placement
  6
ByLayer
 62
  256
370
   -1
100
AcDbLine
 10
59.5733721275033
 20
34.99686084433625
 11
76.51498967302783
 21
22.2304363276137
  0
LINE
  5
157
100
AcDbEntity
  8
placement
  6
ByLayer
 62
  256
370
   -1
100
AcDbLine
 10
6.374575538763651
 20
-6.813879899040955
 11
23.31619308428817
 21
-19.58030441576351
  0
LINE
  5
158
100
AcDbEntity
  8
placement
  6
ByLayer
 62
  256
370
   -1
100
AcDbLine
 10
24.19940077611197
 20
-4.308764081759779
 11
41.14101832163649
 21
-17.07518859848233
  0
LINE
  5
159
100
AcDbEntity
  8
placement
  6
ByLayer
 62
  256
370
   -1
100
AcDbLine
 10
42.02422601346018
 20
-1.8036482644786
 11
58.9658435589847
 21
-14.57007278120115
  0
LINE
  5
15A
100
AcDbEntity
  8
placement
  6
ByLayer
 62
  256
370
   -1
100
AcDbLine
 10
59.84905125080847
 20
0.7014675528025514
 11
76.79066879633299
 21
-12.06495696392
  0
LINE
  5
15B
100
AcDbEntity
  8
placement
  6
ByLayer
 62
  256
370
   -1
100
AcDbLine
 10
12.92104544111666
 20
11.27323517820633
 11
29.86266298664118
 21
-1.493189338516224
  0
LINE
  5
15C
100
AcDbEntity
  8
placement
  6
ByLayer
 62
  256
370
   -1
100
AcDbLine
 10
30.74587067846498
 20
13.7783509954875
 11
47.6874882239895
 21
1.01192647876495
  0
LINE
  5
15D
100
AcDbEntity
  8
placement
  6
ByLayer
 62
  256
370
   -1
100
AcDbLine
 10
48.57069591581319
 20
16.28346681276868
 11
65.51231346133771
 21
3.51704229604613
  0
LINE
  5
15E
100
AcDbEntity
  8
placement
  6
ByLayer
 62
  256
370
   -1
100
AcDbLine
 10
66.39552115316148
 20
18.78858263004983
 11
83.337138698686
 21
6.022158113327281
  0
LINE
  5
15F
100
AcDbEntity
  8
placement
  6
ByLayer
 62
  256
370
   -1
100
AcDbLine
 10
84.41524400040547
 20
3.153534618778565
 11
99.41524400040547
 21
-11.84646538122143
  0
LINE
  5
160
100
AcDbEntity
  8
placement
  6
ByLayer
 62
  256
370
   -1
100
AcDbLine
 10
86.46171390275839
 20
20.61437074170555
 11
101.4617139027584
 21
5.614370741705546
  0
LINE
  5
161
100
AcDbEntity
  8
placement
  6
ByLayer
 62
  256
370
   -1
100
AcDbLine
 10
81.80154711010348
 20
38.07520686463253
 11
96.80154711010348
 21
23.07520686463252
  0
LINE
  5
162
100
AcDbEntity
  8
placement
  6
ByLayer
 62
  256
370
   -1
100
AcDbLine
 10
84.41524400040547
 20
-13.84646538122143
 11
99.41524400040547
 21
-28.84646538122143
  0
LINE
  5
163
100
AcDbEntity
  8
placement
  6
ByLayer
 62
  256
370
   -1
100
AcDbLine
 10
44.39016872978128
 20
-18.63820543308529
 11
61.33178627530589
 21
-31.40462994980783
  0
LINE
  5
164
100
AcDbEntity
  8
placement
  6
ByLayer
 62
  256
370
   -1
100
AcDbLine
 10
17.65293087375888
 20
-22.39587915900704
 11
34.59454841928348
 21
-35.16230367572959
  0
LINE
  5
165
100
AcDbEntity
  8
placement
  6
ByLayer
 62
  256
370
   -1
100
AcDbLine
 10
-16.72859590050474
 20
-4.726283384639952
 11
-3.962171383782177
 21
-21.6679009301645
  0
LINE
  5
166
100
AcDbEntity
  8
placement
  6
ByLayer
 62
  256
370
   -1
100
AcDbLine
 10
-34.55342113785301
 20
-2.221167567358773
 11
-21.78699662113043
 21
-19.16278511288332
  0
LINE
  5
167
100
AcDbEntity
  8
placement
  6
ByLayer
 62
  256
370
   -1
100
AcDbLine
 10
-52.37824637520129
 20
0.2839482499224069
 11
-39.6118218584787
 21
-16.65766929560214
  0
LINE
  5
168
100
AcDbEntity
  8
placement
  6
ByLayer
 62
  256
370
   -1
100
AcDbLine
 10
-70.20307161254954
 20
2.789064067203586
 11
-57.43664709582698
 21
-14.15255347832096
  0
LINE
  5
169
100
AcDbEntity
  8
placement
  6
ByLayer
 62
  256
370
   -1
100
AcDbLine
 10
-23.27506580285777
 20
13.36083169260734
 11
-10.5086412861352
 21
-3.580785852917202
  0
LINE
  5
16A
100
AcDbEntity
  8
placement
  6
ByLayer
 62
  256
370
   -1
100
AcDbLine
 10
-41.09989104020604
 20
15.86594750988852
 11
-28.33346652348346
 21
-1.075670035636023
  0
LINE
  5
16B
100
AcDbEntity
  8
placement
  6
ByLayer
 62
  256
370
   -1
100
AcDbLine
 10
-58.92471627755431
 20
18.3710633271697
 11
-46.15829176083172
 21
1.429445781645157
  0
LINE
  5
16C
100
AcDbEntity
  8
placement
  6
ByLayer
 62
  256
370
   -1
100
AcDbLine
 10
-76.74954151490256
 20
20.87617914445088
 11
-63.98311699818001
 21
3.934561598926337
  0
LINE
  5
16D
100
AcDbEntity
  8
placement
  6
ByLayer
 62
  256
370
   -1
100
AcDbLine
 10
-25.36532939587372
 20
30.82166781553433
 11
-12.59890487915115
 21
13.88005027000978
  0
LINE
  5
16E
100
AcDbEntity
  8
placement
  6
ByLayer
 62
  256
370
   -1
100
AcDbLine
 10
-43.19015463322199
 20
33.32678363281551
 11
-30.42373011649941
 21
16.38516608729096
  0
LINE
  5
16F
100
AcDbEntity
  8
placement
  6
ByLayer
 62
  256
370
   -1
100
AcDbLine
 10
-61.01497987057026
 20
35.83189945009669
 11
-48.24855535384767
 21
18.89028190457214
  0
LINE
  5
170
100
AcDbEntity
  8
placement
  6
ByLayer
 62
  256
370
   -1
100
AcDbLine
 10
-78.83980510791851
 20
38.33701526737786
 11
-66.07338059119596
 21
21.39539772185332
  0
LINE
  5
171
100
AcDbEntity
  8
placement
  6
ByLayer
 62
  256
370
   -1
100
AcDbLine
 10
-30.23505439016853
 20
-19.99514316744591
 11
-17.46862987344596
 21
-36.93676071297045
  0
LINE
  5
172
100
AcDbEntity
  8
placement
  6
ByLayer
 62
  256
370
   -1
100
AcDbLine
 10
-59.20039540085945
 20
-15.92432996436398
 11
-46.43397088413688
 21
-32.86594750988853
  0
LINE
  5
173
100
AcDbEntity
  8
placement
  6
ByLayer
 62
  256
370
   -1
100
AcDbLine
 10
-99.05197682639192
 20
38.70148581895283
 11
-84.05197682639192
 21
23.70148581895284
  0
LINE
  5
174
100
AcDbEntity
  8
placement
  6
ByLayer
 62
  256
370
   -1
100
AcDbLine
 10
-99.21171323337597
 20
20.92751021886571
 11
-84.21171323337596
 21
5.927510218865706
  0
LINE
  5
175
100
AcDbEntity
  8
placement
  6
ByLayer
 62
  256
370
   -1
100
AcDbLine
 10
-97.16524333102291
 20
3.153534618778565
 11
-82.16524333102291
 21
-11.84646538122143
  0
LINE
  5
176
100
AcDbEntity
  8
placement
  6
ByLayer
 62
  256
370
   -1
100
AcDbLine
 10
-99.21171323337597
 20
-13.84646538122143
 11
-84.21171323337597
 21
-28.84646538122143
  0
ENDSEC
  0
SECTION
  2
OBJECTS
  0
DICTIONARY
  5
C
330
0
100
AcDbDictionary
281
    1
  3
ACAD_GROUP
350
D
  0
DICTIONARY
  5
D
330
C
100
AcDbDictionary
281
    1
  0
PLOTSETTINGS
  5
177
100
AcDbPlotSettings
  6
1x1
 40
0
 41
0
 42
0
 43
0
  0
ENDSEC
  0
EOF
