999
dxfrw 0.6.3
  0
SECTION
  2
HEADER
  9
$ACADVER
  1
AC1021
  9
$DWGCODEPAGE
  3
ANSI_1252
  9
$INSBASE
 10
0
 20
0
 30
0
  9
$EXTMIN
 10
-123.125
 20
-59.1085126488786
 30
0
  9
$EXTMAX
 10
108.4867162343261
 20
73.125
 30
0
  9
$LIMMIN
 10
0
 20
0
  9
$LIMMAX
 10
420
 20
297
  9
$ORTHOMODE
 70
    0
  9
$REGENMODE
 70
    1
  9
$FILLMODE
 70
    1
  9
$QTEXTMODE
 70
    0
  9
$MIRRTEXT
 70
    0
  9
$LTSCALE
 40
1
  9
$ATTMODE
 70
    0
  9
$TEXTSIZE
 40
2.5
  9
$TRACEWID
 40
15.68
  9
$TEXTSTYLE
  7
STANDARD
  9
$CLAYER
  8
mesure
  9
$CELTYPE
  6
BYLAYER
  9
$CECOLOR
 62
  256
  9
$CELTSCALE
 40
1
  9
$DISPSILH
 70
    0
  9
$DIMSCALE
 40
1
  9
$DIMASZ
 40
2.5
  9
$DIMEXO
 40
0.625
  9
$DIMDLI
 40
3.75
  9
$DIMRND
 40
0
  9
$DIMDLE
 40
0
  9
$DIMEXE
 40
1.25
  9
$DIMTP
 40
0
  9
$DIMTM
 40
0
  9
$DIMTXT
 40
2.5
  9
$DIMCEN
 40
2.5
  9
$DIMTSZ
 40
0
  9
$DIMTOL
 70
    0
  9
$DIMLIM
 70
    0
  9
$DIMTIH
 70
    0
  9
$DIMTOH
 70
    0
  9
$DIMSE1
 70
    0
  9
$DIMSE2
 70
    0
  9
$DIMTAD
 70
    1
  9
$DIMZIN
 70
    8
  9
$DIMBLK
  1

  9
$DIMASO
 70
    1
  9
$DIMSHO
 70
    1
  9
$DIMPOST
  1

  9
$DIMAPOST
  1

  9
$DIMALT
 70
    0
  9
$DIMALTD
 70
    3
  9
$DIMALTF
 40
0.03937
  9
$DIMLFAC
 40
1
  9
$DIMTOFL
 70
    1
  9
$DIMTVP
 40
0
  9
$DIMTIX
 70
    0
  9
$DIMSOXD
 70
    0
  9
$DIMSAH
 70
    0
  9
$DIMBLK1
  1

  9
$DIMBLK2
  1

  9
$DIMSTYLE
  2
Standard
  9
$DIMCLRD
 70
    0
  9
$DIMCLRE
 70
    0
  9
$DIMCLRT
 70
    0
  9
$DIMTFAC
 40
1
  9
$DIMGAP
 40
0.625
  9
$DIMJUST
 70
    0
  9
$DIMSD1
 70
    0
  9
$DIMSD2
 70
    0
  9
$DIMTOLJ
 70
    0
  9
$DIMTZIN
 70
    8
  9
$DIMALTZ
 70
    0
  9
$DIMALTTZ
 70
    0
  9
$DIMUPT
 70
    0
  9
$DIMDEC
 70
    2
  9
$DIMTDEC
 70
    2
  9
$DIMALTU
 70
    2
  9
$DIMALTTD
 70
    3
  9
$DIMTXSTY
  7
STANDARD
  9
$DIMAUNIT
 70
    0
  9
$DIMADEC
 70
    0
  9
$DIMALTRND
 40
0
  9
$DIMAZIN
 70
    0
  9
$DIMDSEP
 70
   44
  9
$DIMATFIT
 70
    3
  9
$DIMFRAC
 70
    0
  9
$DIMLDRBLK
  1
STANDARD
  9
$DIMLUNIT
 70
    2
  9
$DIMLWD
 70
   -2
  9
$DIMLWE
 70
   -2
  9
$DIMTMOVE
 70
    0
  9
$DIMFXL
 40
1
  9
$DIMFXLON
 70
    0
  9
$DIMJOGANG
 40
0.7854
  9
$DIMTFILL
 70
    0
  9
$DIMTFILLCLR
 70
    0
  9
$DIMARCSYM
 70
    0
  9
$DIMLTYPE
  6

  9
$DIMLTEX1
  6

  9
$DIMLTEX2
  6

  9
$LUNITS
 70
    2
  9
$LUPREC
 70
    4
  9
$SKETCHINC
 40
1
  9
$FILLETRAD
 40
0
  9
$AUNITS
 70
    0
  9
$AUPREC
 70
    2
  9
$MENU
  1
.
  9
$ELEVATION
 40
0
  9
$PELEVATION
 40
0
  9
$THICKNESS
 40
0
  9
$LIMCHECK
 70
    0
  9
$CHAMFERA
 40
0
  9
$CHAMFERB
 40
0
  9
$CHAMFERC
 40
0
  9
$CHAMFERD
 40
0
  9
$SKPOLY
 70
    0
  9
$USRTIMER
 70
    1
  9
$ANGBASE
 50
0
  9
$ANGDIR
 70
    0
  9
$PDMODE
 70
   34
  9
$PDSIZE
 40
0
  9
$PLINEWID
 40
0
  9
$SPLFRAME
 70
    0
  9
$SPLINETYPE
 70
    2
  9
$SPLINESEGS
 70
    8
  9
$HANDSEED
  5
20000
  9
$SURFTAB1
 70
    6
  9
$SURFTAB2
 70
    6
  9
$SURFTYPE
 70
    6
  9
$SURFU
 70
    6
  9
$SURFV
 70
    6
  9
$UCSBASE
  2

  9
$UCSNAME
  2

  9
$UCSORG
 10
0
 20
0
 30
0
  9
$UCSXDIR
 10
1
 20
0
 30
0
  9
$UCSYDIR
 10
0
 20
1
 30
0
  9
$UCSORTHOREF
  2

  9
$UCSORTHOVIEW
 70
    0
  9
$UCSORGTOP
 10
0
 20
0
 30
0
  9
$UCSORGBOTTOM
 10
0
 20
0
 30
0
  9
$UCSORGLEFT
 10
0
 20
0
 30
0
  9
$UCSORGRIGHT
 10
0
 20
0
 30
0
  9
$UCSORGFRONT
 10
0
 20
0
 30
0
  9
$UCSORGBACK
 10
0
 20
0
 30
0
  9
$PUCSBASE
  2

  9
$PUCSNAME
  2

  9
$PUCSORG
 10
0
 20
0
 30
0
  9
$PUCSXDIR
 10
1
 20
0
 30
0
  9
$PUCSYDIR
 10
0
 20
1
 30
0
  9
$PUCSORTHOREF
  2

  9
$PUCSORTHOVIEW
 70
    0
  9
$PUCSORGTOP
 10
0
 20
0
 30
0
  9
$PUCSORGBOTTOM
 10
0
 20
0
 30
0
  9
$PUCSORGLEFT
 10
0
 20
0
 30
0
  9
$PUCSORGRIGHT
 10
0
 20
0
 30
0
  9
$PUCSORGFRONT
 10
0
 20
0
 30
0
  9
$PUCSORGBACK
 10
0
 20
0
 30
0
  9
$USERI1
 70
    0
  9
$USERI2
 70
    0
  9
$USERI3
 70
    0
  9
$USERI4
 70
    0
  9
$USERI5
 70
    0
  9
$USERR1
 40
0
  9
$USERR2
 40
0
  9
$USERR3
 40
0
  9
$USERR4
 40
0
  9
$USERR5
 40
0
  9
$WORLDVIEW
 70
    1
  9
$SHADEDGE
 70
    3
  9
$SHADEDIF
 70
   70
  9
$TILEMODE
 70
    1
  9
$MAXACTVP
 70
   64
  9
$PINSBASE
 10
0
 20
0
 30
0
  9
$PLIMCHECK
 70
    0
  9
$PEXTMIN
 10
0
 20
0
 30
0
  9
$PEXTMAX
 10
0
 20
0
 30
0
  9
$SNAPSTYLE
 70
    0
  9
$PLIMMIN
 10
0
 20
0
  9
$PLIMMAX
 10
210
 20
297
  9
$UNITMODE
 70
    0
  9
$VISRETAIN
 70
    1
  9
$PLINEGEN
 70
    0
  9
$PSLTSCALE
 70
    1
  9
$TREEDEPTH
 70
 3020
  9
$CMLSTYLE
  2
Standard
  9
$CMLJUST
 70
    0
  9
$CMLSCALE
 40
20
  9
$PROXYGRAPHICS
 70
    1
  9
$MEASUREMENT
 70
    1
  9
$CELWEIGHT
370
   -1
  9
$ENDCAPS
280
    0
  9
$JOINSTYLE
280
    0
  9
$LWDISPLAY
290
    0
  9
$INSUNITS
 70
    4
  9
$HYPERLINKBASE
  1

  9
$STYLESHEET
  1

  9
$XEDIT
290
    1
  9
$CEPSNTYPE
380
    0
  9
$PSTYLEMODE
290
    1
  9
$EXTNAMES
290
    1
  9
$PSVPSCALE
 40
1
  9
$OLESTARTUP
290
    0
  9
$SORTENTS
280
  127
  9
$INDEXCTL
280
    0
  9
$HIDETEXT
280
    1
  9
$XCLIPFRAME
290
    0
  9
$HALOGAP
280
    0
  9
$OBSCOLOR
 70
  257
  9
$OBSLTYPE
280
    0
  9
$INTERSECTIONDISPLAY
280
    0
  9
$INTERSECTIONCOLOR
 70
  257
  9
$DIMASSOC
280
    1
  9
$PROJECTNAME
  1

  9
$CAMERADISPLAY
290
    0
  9
$LENSLENGTH
 40
50
  9
$CAMERAHEIGHT
 40
0
  9
$STEPSPERSEC
 40
2
  9
$STEPSIZE
 40
50
  9
$3DDWFPREC
 40
2
  9
$PSOLWIDTH
 40
5
  9
$PSOLHEIGHT
 40
80
  9
$LOFTANG1
 40
1.570796326794897
  9
$LOFTANG2
 40
1.570796326794897
  9
$LOFTMAG1
 40
0
  9
$LOFTMAG2
 40
0
  9
$LOFTPARAM
 70
    7
  9
$LOFTNORMALS
280
    1
  9
$LATITUDE
 40
1
  9
$LONGITUDE
 40
1
  9
$NORTHDIRECTION
 40
0
  9
$TIMEZONE
 70
-8000
  9
$LIGHTGLYPHDISPLAY
280
    1
  9
$TILEMODELIGHTSYNCH
280
    1
  9
$SOLIDHIST
280
    1
  9
$SHOWHIST
280
    1
  9
$DWFFRAME
280
    2
  9
$DGNFRAME
280
    0
  9
$REALWORLDSCALE
290
    1
  9
$INTERFERECOLOR
 62
    1
  9
$CSHADOW
280
    0
  9
$SHADOWPLANELOCATION
 40
0
  0
ENDSEC
  0
SECTION
  2
CLASSES
  0
ENDSEC
  0
SECTION
  2
TABLES
  0
TABLE
  2
VPORT
  5
8
330
0
100
AcDbSymbolTable
 70
    1
  0
VPORT
  5
31
330
2
100
AcDbSymbolTableRecord
100
AcDbViewportTableRecord
  2
*ACTIVE
 70
    0
 10
0
 20
0
 11
1
 21
1
 12
61.55483823232332
 22
69.82119540500943
 13
0
 23
0
 14
10
 24
10
 15
10
 25
10
 16
0
 26
0
 36
1
 17
0
 27
0
 37
0
 40
228.2105033745129
 41
1.179818887451488
 42
50
 43
0
 44
0
 50
0
 51
0
 71
    0
 72
  100
 73
    1
 74
    3
 75
    0
 76
    1
 77
    0
 78
    0
281
    0
 65
    1
110
0
120
0
130
0
111
1
121
0
131
0
112
0
122
1
132
0
 79
    0
146
0
348
10020
 60
    7
 61
    5
292
1
282
    1
141
0
142
0
 63
  250
421
3358443
  0
ENDTAB
  0
TABLE
  2
LTYPE
  5
5
330
0
100
AcDbSymbolTable
 70
    4
  0
LTYPE
  5
14
330
5
100
AcDbSymbolTableRecord
100
AcDbLinetypeTableRecord
  2
ByBlock
 70
    0
  3

 72
   65
 73
    0
 40
0
  0
LTYPE
  5
15
330
5
100
AcDbSymbolTableRecord
100
AcDbLinetypeTableRecord
  2
ByLayer
 70
    0
  3

 72
   65
 73
    0
 40
0
  0
LTYPE
  5
16
330
5
100
AcDbSymbolTableRecord
100
AcDbLinetypeTableRecord
  2
Continuous
 70
    0
  3
Solid line
 72
   65
 73
    0
 40
0
  0
LTYPE
  5
32
330
5
100
AcDbSymbolTableRecord
100
AcDbLinetypeTableRecord
  2
DOT
 70
    0
  3
Dot . . . . . . . . . . . . . . . . . . . . . .
 72
   65
 73
    2
 40
6.35
 49
0
 74
    0
 49
-6.35
 74
    0
  0
LTYPE
  5
33
330
5
100
AcDbSymbolTableRecord
100
AcDbLinetypeTableRecord
  2
DOTTINY
 70
    0
  3
Dot (.15x) .....................................
 72
   65
 73
    2
 40
0.9525
 49
0
 74
    0
 49
-0.9525
 74
    0
  0
LTYPE
  5
34
330
5
100
AcDbSymbolTableRecord
100
AcDbLinetypeTableRecord
  2
DOT2
 70
    0
  3
Dot (.5x) .....................................
 72
   65
 73
    2
 40
3.175
 49
0
 74
    0
 49
-3.175
 74
    0
  0
LTYPE
  5
35
330
5
100
AcDbSymbolTableRecord
100
AcDbLinetypeTableRecord
  2
DOTX2
 70
    0
  3
Dot (2x) .  .  .  .  .  .  .  .  .  .  .  .  .
 72
   65
 73
    2
 40
12.7
 49
0
 74
    0
 49
-12.7
 74
    0
  0
LTYPE
  5
36
330
5
100
AcDbSymbolTableRecord
100
AcDbLinetypeTableRecord
  2
DASHED
 70
    0
  3
Dashed _ _ _ _ _ _ _ _ _ _ _ _ _ _ _ _ _
 72
   65
 73
    2
 40
19.05
 49
12.7
 74
    0
 49
-6.35
 74
    0
  0
LTYPE
  5
37
330
5
100
AcDbSymbolTableRecord
100
AcDbLinetypeTableRecord
  2
DASHEDTINY
 70
    0
  3
Dashed (.15x) _ _ _ _ _ _ _ _ _ _ _ _ _ _ _ _ _
 72
   65
 73
    2
 40
2.8575
 49
1.905
 74
    0
 49
-0.9525
 74
    0
  0
LTYPE
  5
38
330
5
100
AcDbSymbolTableRecord
100
AcDbLinetypeTableRecord
  2
DASHED2
 70
    0
  3
Dashed (.5x) _ _ _ _ _ _ _ _ _ _ _ _ _ _ _ _ _
 72
   65
 73
    2
 40
9.524999999999999
 49
6.35
 74
    0
 49
-3.175
 74
    0
  0
LTYPE
  5
39
330
5
100
AcDbSymbolTableRecord
100
AcDbLinetypeTableRecord
  2
DASHEDX2
 70
    0
  3
Dashed (2x) ____  ____  ____  ____  ____  ___
 72
   65
 73
    2
 40
38.09999999999999
 49
25.4
 74
    0
 49
-12.7
 74
    0
  0
LTYPE
  5
3A
330
5
100
AcDbSymbolTableRecord
100
AcDbLinetypeTableRecord
  2
DASHDOT
 70
    0
  3
Dash dot __ . __ . __ . __ . __ . __ . __ . __
 72
   65
 73
    4
 40
25.4
 49
12.7
 74
    0
 49
-6.35
 74
    0
 49
0
 74
    0
 49
-6.35
 74
    0
  0
LTYPE
  5
3B
330
5
100
AcDbSymbolTableRecord
100
AcDbLinetypeTableRecord
  2
DASHDOTTINY
 70
    0
  3
Dash dot (.15x) _._._._._._._._._._._._._._._.
 72
   65
 73
    4
 40
3.81
 49
1.905
 74
    0
 49
-0.9525
 74
    0
 49
0
 74
    0
 49
-0.9525
 74
    0
  0
LTYPE
  5
3C
330
5
100
AcDbSymbolTableRecord
100
AcDbLinetypeTableRecord
  2
DASHDOT2
 70
    0
  3
Dash dot (.5x) _._._._._._._._._._._._._._._.
 72
   65
 73
    4
 40
12.7
 49
6.35
 74
    0
 49
-3.175
 74
    0
 49
0
 74
    0
 49
-3.175
 74
    0
  0
LTYPE
  5
3D
330
5
100
AcDbSymbolTableRecord
100
AcDbLinetypeTableRecord
  2
DASHDOTX2
 70
    0
  3
Dash dot (2x) ____  .  ____  .  ____  .  ___
 72
   65
 73
    4
 40
50.8
 49
25.4
 74
    0
 49
-12.7
 74
    0
 49
0
 74
    0
 49
-12.7
 74
    0
  0
LTYPE
  5
3E
330
5
100
AcDbSymbolTableRecord
100
AcDbLinetypeTableRecord
  2
DIVIDE
 70
    0
  3
Divide ____ . . ____ . . ____ . . ____ . . ____
 72
   65
 73
    6
 40
31.75
 49
12.7
 74
    0
 49
-6.35
 74
    0
 49
0
 74
    0
 49
-6.35
 74
    0
 49
0
 74
    0
 49
-6.35
 74
    0
  0
LTYPE
  5
3F
330
5
100
AcDbSymbolTableRecord
100
AcDbLinetypeTableRecord
  2
DIVIDETINY
 70
    0
  3
Divide (.15x) __..__..__..__..__..__..__..__.._
 72
   65
 73
    6
 40
4.7625
 49
1.905
 74
    0
 49
-0.9525
 74
    0
 49
0
 74
    0
 49
-0.9525
 74
    0
 49
0
 74
    0
 49
-0.9525
 74
    0
  0
LTYPE
  5
40
330
5
100
AcDbSymbolTableRecord
100
AcDbLinetypeTableRecord
  2
DIVIDE2
 70
    0
  3
Divide (.5x) __..__..__..__..__..__..__..__.._
 72
   65
 73
    6
 40
15.875
 49
6.35
 74
    0
 49
-3.175
 74
    0
 49
0
 74
    0
 49
-3.175
 74
    0
 49
0
 74
    0
 49
-3.175
 74
    0
  0
LTYPE
  5
41
330
5
100
AcDbSymbolTableRecord
100
AcDbLinetypeTableRecord
  2
DIVIDEX2
 70
    0
  3
Divide (2x) ________  .  .  ________  .  .  _
 72
   65
 73
    6
 40
63.5
 49
25.4
 74
    0
 49
-12.7
 74
    0
 49
0
 74
    0
 49
-12.7
 74
    0
 49
0
 74
    0
 49
-12.7
 74
    0
  0
LTYPE
  5
42
330
5
100
AcDbSymbolTableRecord
100
AcDbLinetypeTableRecord
  2
BORDER
 70
    0
  3
Border __ __ . __ __ . __ __ . __ __ . __ __ .
 72
   65
 73
    6
 40
44.45
 49
12.7
 74
    0
 49
-6.35
 74
    0
 49
12.7
 74
    0
 49
-6.35
 74
    0
 49
0
 74
    0
 49
-6.35
 74
    0
  0
LTYPE
  5
43
330
5
100
AcDbSymbolTableRecord
100
AcDbLinetypeTableRecord
  2
BORDERTINY
 70
    0
  3
Border (.15x) __.__.__.__.__.__.__.__.__.__.__.
 72
   65
 73
    6
 40
6.6675
 49
1.905
 74
    0
 49
-0.9525
 74
    0
 49
1.905
 74
    0
 49
-0.9525
 74
    0
 49
0
 74
    0
 49
-0.9525
 74
    0
  0
LTYPE
  5
44
330
5
100
AcDbSymbolTableRecord
100
AcDbLinetypeTableRecord
  2
BORDER2
 70
    0
  3
Border (.5x) __.__.__.__.__.__.__.__.__.__.__.
 72
   65
 73
    6
 40
22.225
 49
6.35
 74
    0
 49
-3.175
 74
    0
 49
6.35
 74
    0
 49
-3.175
 74
    0
 49
0
 74
    0
 49
-3.175
 74
    0
  0
LTYPE
  5
45
330
5
100
AcDbSymbolTableRecord
100
AcDbLinetypeTableRecord
  2
BORDERX2
 70
    0
  3
Border (2x) ____  ____  .  ____  ____  .  ___
 72
   65
 73
    6
 40
88.89999999999999
 49
25.4
 74
    0
 49
-12.7
 74
    0
 49
25.4
 74
    0
 49
-12.7
 74
    0
 49
0
 74
    0
 49
-12.7
 74
    0
  0
LTYPE
  5
46
330
5
100
AcDbSymbolTableRecord
100
AcDbLinetypeTableRecord
  2
CENTER
 70
    0
  3
Center ____ _ ____ _ ____ _ ____ _ ____ _ ____
 72
   65
 73
    4
 40
50.8
 49
31.75
 74
    0
 49
-6.35
 74
    0
 49
6.35
 74
    0
 49
-6.35
 74
    0
  0
LTYPE
  5
47
330
5
100
AcDbSymbolTableRecord
100
AcDbLinetypeTableRecord
  2
CENTERTINY
 70
    0
  3
Center (.15x) ___ _ ___ _ ___ _ ___ _ ___ _ ___
 72
   65
 73
    4
 40
7.619999999999999
 49
4.7625
 74
    0
 49
-0.9525
 74
    0
 49
0.9525
 74
    0
 49
-0.9525
 74
    0
  0
LTYPE
  5
48
330
5
100
AcDbSymbolTableRecord
100
AcDbLinetypeTableRecord
  2
CENTER2
 70
    0
  3
Center (.5x) ___ _ ___ _ ___ _ ___ _ ___ _ ___
 72
   65
 73
    4
 40
28.575
 49
19.05
 74
    0
 49
-3.175
 74
    0
 49
3.175
 74
    0
 49
-3.175
 74
    0
  0
LTYPE
  5
49
330
5
100
AcDbSymbolTableRecord
100
AcDbLinetypeTableRecord
  2
CENTERX2
 70
    0
  3
Center (2x) ________  __  ________  __  _____
 72
   65
 73
    4
 40
101.6
 49
63.5
 74
    0
 49
-12.7
 74
    0
 49
12.7
 74
    0
 49
-12.7
 74
    0
  0
ENDTAB
  0
TABLE
  2
LAYER
  5
2
330
0
100
AcDbSymbolTable
 70
    1
  0
LAYER
  5
10
330
2
100
AcDbSymbolTableRecord
100
AcDbLayerTableRecord
  2
0
 70
    0
 62
    7
  6
CONTINUOUS
370
    0
390
F
  0
LAYER
  5
4A
330
2
100
AcDbSymbolTableRecord
100
AcDbLayerTableRecord
  2
keycap
 70
    0
 62
   16
420
8388608
  6
CONTINUOUS
370
    0
390
F
  0
LAYER
  5
4B
330
2
100
AcDbSymbolTableRecord
100
AcDbLayerTableRecord
  2
mesure
 70
    0
 62
    8
  6
CONTINUOUS
370
    0
390
F
  0
LAYER
  5
4C
330
2
100
AcDbSymbolTableRecord
100
AcDbLayerTableRecord
  2
pcb
 70
    0
 62
    2
  6
CONTINUOUS
370
    0
390
F
  0
LAYER
  5
4D
330
2
100
AcDbSymbolTableRecord
100
AcDbLayerTableRecord
  2
rpi
 70
    0
 62
    3
  6
CONTINUOUS
370
    0
390
F
  0
ENDTAB
  0
TABLE
  2
STYLE
  5
3
330
0
100
AcDbSymbolTable
 70
    3
  0
STYLE
  5
4E
330
2
100
AcDbSymbolTableRecord
100
AcDbTextStyleTableRecord
  2
Standard
 70
    0
 40
0
 41
1
 50
0
 71
    0
 42
1
  3
txt
  4

  0
ENDTAB
  0
TABLE
  2
VIEW
  5
6
330
0
100
AcDbSymbolTable
 70
    0
  0
ENDTAB
  0
TABLE
  2
UCS
  5
7
330
0
100
AcDbSymbolTable
 70
    0
  0
ENDTAB
  0
TABLE
  2
APPID
  5
9
330
0
100
AcDbSymbolTable
 70
    1
  0
APPID
  5
12
330
9
100
AcDbSymbolTableRecord
100
AcDbRegAppTableRecord
  2
ACAD
 70
    0
  0
APPID
  5
4F
330
9
100
AcDbSymbolTableRecord
100
AcDbRegAppTableRecord
  2
LibreCad
 70
    0
  0
ENDTAB
  0
TABLE
  2
DIMSTYLE
  5
A
330
0
100
AcDbSymbolTable
 70
    1
100
AcDbDimStyleTable
 71
    1
  0
DIMSTYLE
105
50
330
A
100
AcDbSymbolTableRecord
100
AcDbDimStyleTableRecord
  2
Standard
 70
    0
 40
1
 41
2.5
 42
0.625
 43
0.38
 44
1.25
 45
0
 46
0
 47
0
 48
0
 49
1
140
2.5
141
0.09
142
0
143
25.4
144
1
145
0
146
1
147
0.625
148
0
 71
    0
 72
    0
 73
    0
 74
    1
 75
    0
 76
    0
 77
    0
 78
    1
 79
    0
170
    0
171
    2
172
    0
173
    0
174
    0
175
    0
176
    0
177
    0
178
    0
179
    0
271
    2
272
    4
273
    2
274
    2
275
    0
276
    0
277
    2
278
    0
279
    0
280
    0
281
    0
282
    0
283
    1
284
    0
285
    0
286
    0
288
    0
289
    3
340
standard
341

371
   -2
372
   -2
  0
ENDTAB
  0
TABLE
  2
BLOCK_RECORD
  5
1
330
0
100
AcDbSymbolTable
 70
    2
  0
BLOCK_RECORD
  5
1F
330
1
100
AcDbSymbolTableRecord
100
AcDbBlockTableRecord
  2
*Model_Space
 70
    0
280
    1
281
    0
  0
BLOCK_RECORD
  5
1E
330
1
100
AcDbSymbolTableRecord
100
AcDbBlockTableRecord
  2
*Paper_Space
 70
    0
280
    1
281
    0
  0
BLOCK_RECORD
  5
51
330
1
100
AcDbSymbolTableRecord
100
AcDbBlockTableRecord
  2
*D1
 70
    0
280
    1
281
    0
  0
BLOCK_RECORD
  5
54
330
1
100
AcDbSymbolTableRecord
100
AcDbBlockTableRecord
  2
*D2
 70
    0
280
    1
281
    0
  0
ENDTAB
  0
ENDSEC
  0
SECTION
  2
BLOCKS
  0
BLOCK
  5
20
330
1F
100
AcDbEntity
  8
0
100
AcDbBlockBegin
  2
*Model_Space
 70
    0
 10
0
 20
0
 30
0
  3
*Model_Space
  1

  0
ENDBLK
  5
21
330
1F
100
AcDbEntity
  8
0
100
AcDbBlockEnd
  0
BLOCK
  5
1C
330
1B
100
AcDbEntity
  8
0
100
AcDbBlockBegin
  2
*Paper_Space
 70
    0
 10
0
 20
0
 30
0
  3
*Paper_Space
  1

  0
ENDBLK
  5
1D
330
1F
100
AcDbEntity
  8
0
100
AcDbBlockEnd
  0
BLOCK
  5
52
330
51
100
AcDbEntity
  8
0
100
AcDbBlockBegin
  2
*D1
 70
    1
 10
0
 20
0
  3
*D1
  1

  0
LINE
  5
57
100
AcDbEntity
  8
mesure
  6
ByBlock
 62
    0
370
   -2
100
AcDbLine
 10
-120
 20
-59.10851264887859
 11
-120
 21
59.10851264887859
  0
MTEXT
  5
58
100
AcDbEntity
  8
mesure
  6
CONTINUOUS
 62
    0
370
   -2
100
AcDbMText
 10
-121.875
 20
2.296212748401287e-16
 30
0
 40
2.5
 41
11.94444444444445
 71
    5
 72
    1
  1
118.2170
  7
standard
210
0
220
0
230
1
 50
90
 73
    2
 44
1
  0
SOLID
  5
59
100
AcDbEntity
  8
mesure
  6
ByBlock
 62
    0
370
   -2
100
AcDbTrace
 10
-120
 20
-59.10851264887859
 30
0
 11
-120.4162846577728
 21
-56.60851264887859
 31
0
 12
-119.5837153422272
 22
-56.60851264887859
 32
0
 13
-119.5837153422272
 23
-56.60851264887859
 33
0
  0
SOLID
  5
5A
100
AcDbEntity
  8
mesure
  6
ByBlock
 62
    0
370
   -2
100
AcDbTrace
 10
-120
 20
59.10851264887859
 30
0
 11
-119.5837153422272
 21
56.60851264887859
 31
0
 12
-120.4162846577728
 22
56.60851264887859
 32
0
 13
-120.4162846577728
 23
56.60851264887859
 33
0
  0
LINE
  5
5B
100
AcDbEntity
  8
mesure
  6
ByBlock
 62
    0
370
   -2
100
AcDbLine
 10
-19.31912374608522
 20
-59.1085126488786
 11
-121.25
 21
-59.10851264887859
  0
LINE
  5
5C
100
AcDbEntity
  8
mesure
  6
ByBlock
 62
    0
370
   -2
100
AcDbLine
 10
-0.6249999999999075
 20
59.10851264887859
 11
-121.25
 21
59.10851264887859
  0
ENDBLK
  5
53
330
51
100
AcDbEntity
  8
0
100
AcDbBlockEnd
  0
BLOCK
  5
55
330
54
100
AcDbEntity
  8
0
100
AcDbBlockBegin
  2
*D2
 70
    1
 10
0
 20
0
  3
*D2
  1

  0
LINE
  5
5D
100
AcDbEntity
  8
mesure
  6
ByBlock
 62
    0
370
   -2
100
AcDbLine
 10
108.4867162343261
 20
70
 11
-108.486716234326
 21
70
  0
MTEXT
  5
5E
100
AcDbEntity
  8
mesure
  6
CONTINUOUS
 62
    0
370
   -2
100
AcDbMText
 10
1.432566535262207e-14
 20
71.875
 30
0
 40
2.5
 41
13.33333333333365
 71
    5
 72
    1
  1
216.9734
  7
standard
210
0
220
0
230
1
 50
0
 73
    2
 44
1
  0
SOLID
  5
5F
100
AcDbEntity
  8
mesure
  6
ByBlock
 62
    0
370
   -2
100
AcDbTrace
 10
108.4867162343261
 20
70
 30
0
 11
105.9867162343261
 21
69.58371534222717
 31
0
 12
105.9867162343261
 22
70.41628465777283
 32
0
 13
105.9867162343261
 23
70.41628465777283
 33
0
  0
SOLID
  5
60
100
AcDbEntity
  8
mesure
  6
ByBlock
 62
    0
370
   -2
100
AcDbTrace
 10
-108.486716234326
 20
70
 30
0
 11
-105.986716234326
 21
70.41628465777283
 31
0
 12
-105.986716234326
 22
69.58371534222717
 32
0
 13
-105.986716234326
 23
69.58371534222717
 33
0
  0
LINE
  5
61
100
AcDbEntity
  8
mesure
  6
ByBlock
 62
    0
370
   -2
100
AcDbLine
 10
108.486716234326
 20
1.374748382677494
 11
108.4867162343261
 21
71.25
  0
LINE
  5
62
100
AcDbEntity
  8
mesure
  6
ByBlock
 62
    0
370
   -2
100
AcDbLine
 10
-108.486716234326
 20
1.374748382677497
 11
-108.486716234326
 21
71.25
  0
ENDBLK
  5
56
330
54
100
AcDbEntity
  8
0
100
AcDbBlockEnd
  0
ENDSEC
  0
SECTION
  2
ENTITIES
  0
LINE
  5
63
100
AcDbEntity
  8
0
  6
ByLayer
 62
  256
370
   -1
100
AcDbLine
 10
-52.02704641823798
 20
51.37972328312593
 11
-38.50408481823798
 21
47.75625668312593
  0
LINE
  5
64
100
AcDbEntity
  8
0
  6
ByLayer
 62
  256
370
   -1
100
AcDbLine
 10
-55.65051301823798
 20
37.85676168312594
 11
-42.12755141823798
 21
34.23329508312594
  0
LINE
  5
65
100
AcDbEntity
  8
0
  6
ByLayer
 62
  256
370
   -1
100
AcDbLine
 10
-52.02704641823798
 20
51.37972328312593
 11
-55.65051301823798
 21
37.85676168312594
  0
LINE
  5
66
100
AcDbEntity
  8
0
  6
ByLayer
 62
  256
370
   -1
100
AcDbLine
 10
-38.50408481823798
 20
47.75625668312593
 11
-42.12755141823798
 21
34.23329508312594
  0
LINE
  5
67
100
AcDbEntity
  8
0
  6
ByLayer
 62
  256
370
   -1
100
AcDbLine
 10
-71.60902751823799
 20
51.70913738312593
 11
-58.08606591823798
 21
48.08567078312593
  0
LINE
  5
68
100
AcDbEntity
  8
0
  6
ByLayer
 62
  256
370
   -1
100
AcDbLine
 10
-75.23249411823799
 20
38.18617578312593
 11
-61.70953251823798
 21
34.56270918312593
  0
LINE
  5
69
100
AcDbEntity
  8
0
  6
ByLayer
 62
  256
370
   -1
100
AcDbLine
 10
-71.60902751823799
 20
51.70913738312593
 11
-75.23249411823799
 21
38.18617578312593
  0
LINE
  5
6A
100
AcDbEntity
  8
0
  6
ByLayer
 62
  256
370
   -1
100
AcDbLine
 10
-58.08606591823798
 20
48.08567078312593
 11
-61.70953251823798
 21
34.56270918312593
  0
LINE
  5
6B
100
AcDbEntity
  8
0
  6
ByLayer
 62
  256
370
   -1
100
AcDbLine
 10
-34.90384611823799
 20
41.87401368312594
 11
-21.38088451823798
 21
38.25054708312594
  0
LINE
  5
6C
100
AcDbEntity
  8
0
  6
ByLayer
 62
  256
370
   -1
100
AcDbLine
 10
-38.52731271823797
 20
28.35105208312594
 11
-25.00435111823798
 21
24.72758548312594
  0
LINE
  5
6D
100
AcDbEntity
  8
0
  6
ByLayer
 62
  256
370
   -1
100
AcDbLine
 10
-34.90384611823799
 20
41.87401368312594
 11
-38.52731271823797
 21
28.35105208312594
  0
LINE
  5
6E
100
AcDbEntity
  8
0
  6
ByLayer
 62
  256
370
   -1
100
AcDbLine
 10
-21.38088451823798
 20
38.25054708312594
 11
-25.00435111823798
 21
24.72758548312594
  0
LINE
  5
6F
100
AcDbEntity
  8
0
  6
ByLayer
 62
  256
370
   -1
100
AcDbLine
 10
-91.191008718238
 20
52.03855158312594
 11
-77.66804711823799
 21
48.41508498312594
  0
LINE
  5
70
100
AcDbEntity
  8
0
  6
ByLayer
 62
  256
370
   -1
100
AcDbLine
 10
-94.81447531823798
 20
38.51558998312593
 11
-81.29151371823799
 21
34.89212338312593
  0
LINE
  5
71
100
AcDbEntity
  8
0
  6
ByLayer
 62
  256
370
   -1
100
AcDbLine
 10
-91.191008718238
 20
52.03855158312594
 11
-94.81447531823798
 21
38.51558998312593
  0
LINE
  5
72
100
AcDbEntity
  8
0
  6
ByLayer
 62
  256
370
   -1
100
AcDbLine
 10
-77.66804711823799
 20
48.41508498312594
 11
-81.29151371823799
 21
34.89212338312593
  0
LINE
  5
73
100
AcDbEntity
  8
0
  6
ByLayer
 62
  256
370
   -1
100
AcDbLine
 10
-17.78064591823797
 20
32.36830418312594
 11
-4.257684318237986
 21
28.74483758312594
  0
LINE
  5
74
100
AcDbEntity
  8
0
  6
ByLayer
 62
  256
370
   -1
100
AcDbLine
 10
-21.40411251823797
 20
18.84534258312593
 11
-7.881150918237986
 21
15.22187598312593
  0
LINE
  5
75
100
AcDbEntity
  8
0
  6
ByLayer
 62
  256
370
   -1
100
AcDbLine
 10
-17.78064591823797
 20
32.36830418312594
 11
-21.40411251823797
 21
18.84534258312593
  0
LINE
  5
76
100
AcDbEntity
  8
0
  6
ByLayer
 62
  256
370
   -1
100
AcDbLine
 10
-4.257684318237986
 20
28.74483758312594
 11
-7.881150918237986
 21
15.22187598312593
  0
LINE
  5
77
100
AcDbEntity
  8
0
  6
ByLayer
 62
  256
370
   -1
100
AcDbLine
 10
-56.94460821823798
 20
33.02713258312593
 11
-43.42164661823798
 21
29.40366598312594
  0
LINE
  5
78
100
AcDbEntity
  8
0
  6
ByLayer
 62
  256
370
   -1
100
AcDbLine
 10
-60.56807481823798
 20
19.50417098312594
 11
-47.04511321823798
 21
15.88070438312594
  0
LINE
  5
79
100
AcDbEntity
  8
0
  6
ByLayer
 62
  256
370
   -1
100
AcDbLine
 10
-56.94460821823798
 20
33.02713258312593
 11
-60.56807481823798
 21
19.50417098312594
  0
LINE
  5
7A
100
AcDbEntity
  8
0
  6
ByLayer
 62
  256
370
   -1
100
AcDbLine
 10
-43.42164661823798
 20
29.40366598312594
 11
-47.04511321823798
 21
15.88070438312594
  0
LINE
  5
7B
100
AcDbEntity
  8
0
  6
ByLayer
 62
  256
370
   -1
100
AcDbLine
 10
-76.52658941823799
 20
33.35654668312593
 11
-63.00362781823797
 21
29.73308008312593
  0
LINE
  5
7C
100
AcDbEntity
  8
0
  6
ByLayer
 62
  256
370
   -1
100
AcDbLine
 10
-80.15005601823799
 20
19.83358508312593
 11
-66.62709441823799
 21
16.21011848312594
  0
LINE
  5
7D
100
AcDbEntity
  8
0
  6
ByLayer
 62
  256
370
   -1
100
AcDbLine
 10
-76.52658941823799
 20
33.35654668312593
 11
-80.15005601823799
 21
19.83358508312593
  0
LINE
  5
7E
100
AcDbEntity
  8
0
  6
ByLayer
 62
  256
370
   -1
100
AcDbLine
 10
-63.00362781823797
 20
29.73308008312593
 11
-66.62709441823799
 21
16.21011848312594
  0
LINE
  5
7F
100
AcDbEntity
  8
0
  6
ByLayer
 62
  256
370
   -1
100
AcDbLine
 10
-39.82140801823798
 20
23.52142298312593
 11
-26.29844641823798
 21
19.89795638312594
  0
LINE
  5
80
100
AcDbEntity
  8
0
  6
ByLayer
 62
  256
370
   -1
100
AcDbLine
 10
-43.44487461823798
 20
9.998461383125935
 11
-29.92191301823798
 21
6.374994783125935
  0
LINE
  5
81
100
AcDbEntity
  8
0
  6
ByLayer
 62
  256
370
   -1
100
AcDbLine
 10
-39.82140801823798
 20
23.52142298312593
 11
-43.44487461823798
 21
9.998461383125935
  0
LINE
  5
82
100
AcDbEntity
  8
0
  6
ByLayer
 62
  256
370
   -1
100
AcDbLine
 10
-26.29844641823798
 20
19.89795638312594
 11
-29.92191301823798
 21
6.374994783125935
  0
LINE
  5
83
100
AcDbEntity
  8
0
  6
ByLayer
 62
  256
370
   -1
100
AcDbLine
 10
-96.10857061823799
 20
33.68596088312594
 11
-82.58560901823799
 21
30.06249428312594
  0
LINE
  5
84
100
AcDbEntity
  8
0
  6
ByLayer
 62
  256
370
   -1
100
AcDbLine
 10
-99.73203721823799
 20
20.16299928312593
 11
-86.20907561823799
 21
16.53953268312593
  0
LINE
  5
85
100
AcDbEntity
  8
0
  6
ByLayer
 62
  256
370
   -1
100
AcDbLine
 10
-96.10857061823799
 20
33.68596088312594
 11
-99.73203721823799
 21
20.16299928312593
  0
LINE
  5
86
100
AcDbEntity
  8
0
  6
ByLayer
 62
  256
370
   -1
100
AcDbLine
 10
-82.58560901823799
 20
30.06249428312594
 11
-86.20907561823799
 21
16.53953268312593
  0
LINE
  5
87
100
AcDbEntity
  8
0
  6
ByLayer
 62
  256
370
   -1
100
AcDbLine
 10
-22.69820781823798
 20
14.01571348312594
 11
-9.175246218237982
 21
10.39224688312594
  0
LINE
  5
88
100
AcDbEntity
  8
0
  6
ByLayer
 62
  256
370
   -1
100
AcDbLine
 10
-26.32167441823798
 20
0.4927518831259334
 11
-12.79871281823798
 21
-3.130714716874067
  0
LINE
  5
89
100
AcDbEntity
  8
0
  6
ByLayer
 62
  256
370
   -1
100
AcDbLine
 10
-22.69820781823798
 20
14.01571348312594
 11
-26.32167441823798
 21
0.4927518831259334
  0
LINE
  5
8A
100
AcDbEntity
  8
0
  6
ByLayer
 62
  256
370
   -1
100
AcDbLine
 10
-9.175246218237982
 20
10.39224688312594
 11
-12.79871281823798
 21
-3.130714716874067
  0
LINE
  5
8B
100
AcDbEntity
  8
0
  6
ByLayer
 62
  256
370
   -1
100
AcDbLine
 10
-61.86217011823798
 20
14.67454188312593
 11
-48.33920851823797
 21
11.05107528312593
  0
LINE
  5
8C
100
AcDbEntity
  8
0
  6
ByLayer
 62
  256
370
   -1
100
AcDbLine
 10
-65.48563671823798
 20
1.151580283125938
 11
-51.96267511823798
 21
-2.471886316874063
  0
LINE
  5
8D
100
AcDbEntity
  8
0
  6
ByLayer
 62
  256
370
   -1
100
AcDbLine
 10
-61.86217011823798
 20
14.67454188312593
 11
-65.48563671823798
 21
1.151580283125938
  0
LINE
  5
8E
100
AcDbEntity
  8
0
  6
ByLayer
 62
  256
370
   -1
100
AcDbLine
 10
-48.33920851823797
 20
11.05107528312593
 11
-51.96267511823798
 21
-2.471886316874063
  0
LINE
  5
8F
100
AcDbEntity
  8
0
  6
ByLayer
 62
  256
370
   -1
100
AcDbLine
 10
-81.44415121823799
 20
15.00395598312593
 11
-67.92118961823799
 21
11.38048938312593
  0
LINE
  5
90
100
AcDbEntity
  8
0
  6
ByLayer
 62
  256
370
   -1
100
AcDbLine
 10
-85.06761781823799
 20
1.480994383125939
 11
-71.54465621823799
 21
-2.142472216874062
  0
LINE
  5
91
100
AcDbEntity
  8
0
  6
ByLayer
 62
  256
370
   -1
100
AcDbLine
 10
-81.44415121823799
 20
15.00395598312593
 11
-85.06761781823799
 21
1.480994383125939
  0
LINE
  5
92
100
AcDbEntity
  8
0
  6
ByLayer
 62
  256
370
   -1
100
AcDbLine
 10
-67.92118961823799
 20
11.38048938312593
 11
-71.54465621823799
 21
-2.142472216874062
  0
LINE
  5
93
100
AcDbEntity
  8
0
  6
ByLayer
 62
  256
370
   -1
100
AcDbLine
 10
-44.73896991823798
 20
5.168832283125937
 11
-31.21600831823798
 21
1.545365683125937
  0
LINE
  5
94
100
AcDbEntity
  8
0
  6
ByLayer
 62
  256
370
   -1
100
AcDbLine
 10
-48.36243651823798
 20
-8.354129316874065
 11
-34.83947491823798
 21
-11.97759591687406
  0
LINE
  5
95
100
AcDbEntity
  8
0
  6
ByLayer
 62
  256
370
   -1
100
AcDbLine
 10
-44.73896991823798
 20
5.168832283125937
 11
-48.36243651823798
 21
-8.354129316874065
  0
LINE
  5
96
100
AcDbEntity
  8
0
  6
ByLayer
 62
  256
370
   -1
100
AcDbLine
 10
-31.21600831823798
 20
1.545365683125937
 11
-34.83947491823798
 21
-11.97759591687406
  0
LINE
  5
97
100
AcDbEntity
  8
0
  6
ByLayer
 62
  256
370
   -1
100
AcDbLine
 10
-101.026132418238
 20
15.33337018312594
 11
-87.50317081823799
 21
11.70990358312594
  0
LINE
  5
98
100
AcDbEntity
  8
0
  6
ByLayer
 62
  256
370
   -1
100
AcDbLine
 10
-104.649599018238
 20
1.810408583125934
 11
-91.12663741823799
 21
-1.813058016874066
  0
LINE
  5
99
100
AcDbEntity
  8
0
  6
ByLayer
 62
  256
370
   -1
100
AcDbLine
 10
-101.026132418238
 20
15.33337018312594
 11
-104.649599018238
 21
1.810408583125934
  0
LINE
  5
9A
100
AcDbEntity
  8
0
  6
ByLayer
 62
  256
370
   -1
100
AcDbLine
 10
-87.50317081823799
 20
11.70990358312594
 11
-91.12663741823799
 21
-1.813058016874066
  0
LINE
  5
9B
100
AcDbEntity
  8
0
  6
ByLayer
 62
  256
370
   -1
100
AcDbLine
 10
-27.61576961823798
 20
-4.336877216874065
 11
-14.09280801823798
 21
-7.960343816874065
  0
LINE
  5
9C
100
AcDbEntity
  8
0
  6
ByLayer
 62
  256
370
   -1
100
AcDbLine
 10
-31.23923621823798
 20
-17.85983881687407
 11
-17.71627461823798
 21
-21.48330541687407
  0
LINE
  5
9D
100
AcDbEntity
  8
0
  6
ByLayer
 62
  256
370
   -1
100
AcDbLine
 10
-27.61576961823798
 20
-4.336877216874065
 11
-31.23923621823798
 21
-17.85983881687407
  0
LINE
  5
9E
100
AcDbEntity
  8
0
  6
ByLayer
 62
  256
370
   -1
100
AcDbLine
 10
-14.09280801823798
 20
-7.960343816874065
 11
-17.71627461823798
 21
-21.48330541687407
  0
LINE
  5
9F
100
AcDbEntity
  8
0
  6
ByLayer
 62
  256
370
   -1
100
AcDbLine
 10
-60.06221751823798
 20
-15.31312511687407
 11
-46.53925591823798
 21
-18.93659171687407
  0
LINE
  5
A0
100
AcDbEntity
  8
0
  6
ByLayer
 62
  256
370
   -1
100
AcDbLine
 10
-63.68568411823799
 20
-28.83608671687407
 11
-50.16272251823798
 21
-32.45955331687407
  0
LINE
  5
A1
100
AcDbEntity
  8
0
  6
ByLayer
 62
  256
370
   -1
100
AcDbLine
 10
-60.06221751823798
 20
-15.31312511687407
 11
-63.68568411823799
 21
-28.83608671687407
  0
LINE
  5
A2
100
AcDbEntity
  8
0
  6
ByLayer
 62
  256
370
   -1
100
AcDbLine
 10
-46.53925591823798
 20
-18.93659171687407
 11
-50.16272251823798
 21
-32.45955331687407
  0
LINE
  5
A3
100
AcDbEntity
  8
keycap
  6
ByLayer
 62
  256
370
   -1
100
AcDbLine
 10
-43.47739374463732
 20
-17.16882475545823
 11
-48.39495555682213
 21
-35.52141549047474
  0
LINE
  5
A4
100
AcDbEntity
  8
keycap
  6
ByLayer
 62
  256
370
   -1
100
AcDbLine
 10
-61.82998447965382
 20
-12.2512629432734
 11
-43.47739374463732
 21
-17.16882475545823
  0
LINE
  5
A5
100
AcDbEntity
  8
keycap
  6
ByLayer
 62
  256
370
   -1
100
AcDbLine
 10
-66.74754629183866
 20
-30.60385367828991
 11
-48.39495555682213
 21
-35.52141549047474
  0
LINE
  5
A6
100
AcDbEntity
  8
keycap
  6
ByLayer
 62
  256
370
   -1
100
AcDbLine
 10
-61.82998447965382
 20
-12.2512629432734
 11
-66.74754629183866
 21
-30.60385367828991
  0
LINE
  5
A7
100
AcDbEntity
  8
keycap
  6
ByLayer
 62
  256
370
   -1
100
AcDbLine
 10
-1.195822144637318
 20
30.51260454454178
 11
-15.94850756874981
 21
-24.54516761407364
  0
LINE
  5
A8
100
AcDbEntity
  8
0
  6
ByLayer
 62
  256
370
   -1
100
AcDbLine
 10
-39.15598479925504
 20
-21.62388261262726
 11
-26.46767574381565
 21
-27.54053825158793
  0
LINE
  5
A9
100
AcDbEntity
  8
0
  6
ByLayer
 62
  256
370
   -1
100
AcDbLine
 10
-45.07264043821571
 20
-34.31219166806665
 11
-32.38433138277631
 21
-40.22884730702732
  0
LINE
  5
AA
100
AcDbEntity
  8
0
  6
ByLayer
 62
  256
370
   -1
100
AcDbLine
 10
-39.15598479925504
 20
-21.62388261262726
 11
-45.07264043821571
 21
-34.31219166806665
  0
LINE
  5
AB
100
AcDbEntity
  8
0
  6
ByLayer
 62
  256
370
   -1
100
AcDbLine
 10
-26.46767574381565
 20
-27.54053825158793
 11
-32.38433138277631
 21
-40.22884730702732
  0
LINE
  5
AC
100
AcDbEntity
  8
keycap
  6
ByLayer
 62
  256
370
   -1
100
AcDbLine
 10
-23.14536062520924
 20
-26.33131442917984
 11
-31.17510756036822
 21
-43.55116242563373
  0
LINE
  5
AD
100
AcDbEntity
  8
keycap
  6
ByLayer
 62
  256
370
   -1
100
AcDbLine
 10
-40.36520862166312
 20
-18.30156749402085
 11
-23.14536062520924
 21
-26.33131442917984
  0
LINE
  5
AE
100
AcDbEntity
  8
keycap
  6
ByLayer
 62
  256
370
   -1
100
AcDbLine
 10
-48.39495555682213
 20
-35.52141549047474
 11
-31.17510756036822
 21
-43.55116242563373
  0
LINE
  5
AF
100
AcDbEntity
  8
keycap
  6
ByLayer
 62
  256
370
   -1
100
AcDbLine
 10
-40.36520862166312
 20
-18.30156749402085
 11
-48.39495555682213
 21
-35.52141549047474
  0
LINE
  5
B0
100
AcDbEntity
  8
keycap
  6
ByLayer
 62
  256
370
   -1
100
AcDbLine
 10
-34.30109839183866
 20
-19.6276057782899
 11
-15.94850756874981
 21
-24.54516761407364
  0
LINE
  5
B1
100
AcDbEntity
  8
keycap
  6
ByLayer
 62
  256
370
   -1
100
AcDbLine
 10
-33.07170793898494
 20
-15.03945809525418
 11
-34.30109839183866
 21
-19.6276057782899
  0
LINE
  5
B2
100
AcDbEntity
  8
0
  6
ByLayer
 62
  256
370
   -1
100
AcDbLine
 10
-19.67443790962291
 20
-31.48512089748446
 11
-27.70450799992664
 21
-42.95324955830789
  0
LINE
  5
B3
100
AcDbEntity
  8
0
  6
ByLayer
 62
  256
370
   -1
100
AcDbLine
 10
-8.206309248799485
 20
-39.51519098778819
 11
-16.23637933910321
 21
-50.98331964861161
  0
LINE
  5
B4
100
AcDbEntity
  8
keycap
  6
ByLayer
 62
  256
370
   -1
100
AcDbLine
 10
-17.56388889018251
 20
-24.11232749830528
 11
-33.91081724872616
 21
-47.45816078703444
  0
LINE
  5
B5
100
AcDbEntity
  8
keycap
  6
ByLayer
 62
  256
370
   -1
100
AcDbLine
 10
-33.91081724872616
 20
-47.45816078703444
 11
-18.34692835854357
 21
-58.3561130477908
  0
LINE
  5
B6
100
AcDbEntity
  8
keycap
  6
ByLayer
 62
  256
370
   -1
100
AcDbLine
 10
-17.56388889018251
 20
-24.11232749830528
 11
-1.999999999999996
 21
-35.01027975906162
  0
LINE
  5
B7
100
AcDbEntity
  8
keycap
  6
ByLayer
 62
  256
370
   -1
100
AcDbLine
 10
-1.999999999999996
 20
-35.01027975906162
 11
-18.34692835854357
 21
-58.3561130477908
  0
LINE
  5
B8
100
AcDbEntity
  8
0
  6
ByLayer
 62
  256
370
   -1
100
AcDbLine
 10
-19.67443790962291
 20
-31.48512089748446
 11
-8.206309248799485
 21
-39.51519098778819
  0
LINE
  5
B9
100
AcDbEntity
  8
0
  6
ByLayer
 62
  256
370
   -1
100
AcDbLine
 10
-16.23637933910321
 20
-50.98331964861161
 11
-27.70450799992664
 21
-42.95324955830789
  0
LINE
  5
BA
100
AcDbEntity
  8
keycap
  6
ByLayer
 62
  256
370
   -1
100
AcDbLine
 10
-107.7114611037663
 20
0.04264159811116741
 11
-89.35887045682215
 21
-4.874920190474731
  0
LINE
  5
BB
100
AcDbEntity
  8
keycap
  6
ByLayer
 62
  256
370
   -1
100
AcDbLine
 10
-88.12948002086863
 20
-0.2867725705113475
 11
-89.35887045682215
 21
-4.874920190474731
  0
LINE
  5
BC
100
AcDbEntity
  8
keycap
  6
ByLayer
 62
  256
370
   -1
100
AcDbLine
 10
-88.12948002086863
 20
-0.2867725705113475
 11
-69.77688925682214
 21
-5.204334390474726
  0
LINE
  5
BD
100
AcDbEntity
  8
keycap
  6
ByLayer
 62
  256
370
   -1
100
AcDbLine
 10
-68.54749880256735
 20
-0.6161867022100846
 11
-69.77688925682214
 21
-5.204334390474726
  0
LINE
  5
BE
100
AcDbEntity
  8
keycap
  6
ByLayer
 62
  256
370
   -1
100
AcDbLine
 10
-68.54749880256735
 20
-0.6161867022100846
 11
-50.1949082072862
 21
-5.533748476952924
  0
LINE
  5
BF
100
AcDbEntity
  8
keycap
  6
ByLayer
 62
  256
370
   -1
100
AcDbLine
 10
-51.42429869183863
 20
-10.12189627828991
 11
-33.07170793898494
 21
-15.03945809525418
  0
LINE
  5
C0
100
AcDbEntity
  8
keycap
  6
ByLayer
 62
  256
370
   -1
100
AcDbLine
 10
-50.1949082072862
 20
-5.533748476952924
 11
-51.42429869183863
 21
-10.12189627828991
  0
LINE
  5
C1
100
AcDbEntity
  8
keycap
  6
ByLayer
 62
  256
370
   -1
100
AcDbLine
 10
-92.95877567965385
 20
55.10041375672661
 11
-107.7114611037663
 21
0.04264159811116741
  0
LINE
  5
C2
100
AcDbEntity
  8
keycap
  6
ByLayer
 62
  256
370
   -1
100
AcDbLine
 10
-19.54841280418975
 20
35.43016633650607
 11
-1.195822144637318
 21
30.51260454454178
  0
LINE
  5
C3
100
AcDbEntity
  8
keycap
  6
ByLayer
 62
  256
370
   -1
100
AcDbLine
 10
-18.3190223446373
 20
40.01831404454177
 11
-19.54841280418975
 21
35.43016633650607
  0
LINE
  5
C4
100
AcDbEntity
  8
keycap
  6
ByLayer
 62
  256
370
   -1
100
AcDbLine
 10
-36.67161312249102
 20
44.9358758682048
 11
-18.3190223446373
 21
40.01831404454177
  0
LINE
  5
C5
100
AcDbEntity
  8
keycap
  6
ByLayer
 62
  256
370
   -1
100
AcDbLine
 10
-35.44222264463733
 20
49.52402364454178
 11
-36.67161312249102
 21
44.9358758682048
  0
LINE
  5
C6
100
AcDbEntity
  8
keycap
  6
ByLayer
 62
  256
370
   -1
100
AcDbLine
 10
-53.79481337965386
 20
54.44158545672661
 11
-35.44222264463733
 21
49.52402364454178
  0
LINE
  5
C7
100
AcDbEntity
  8
keycap
  6
ByLayer
 62
  256
370
   -1
100
AcDbLine
 10
-53.79481337965386
 20
54.44158545672661
 11
-55.02420383390861
 21
49.85343776846195
  0
LINE
  5
C8
100
AcDbEntity
  8
keycap
  6
ByLayer
 62
  256
370
   -1
100
AcDbLine
 10
-92.95877567965385
 20
55.10041375672661
 11
-74.60618491560736
 21
50.18285193676322
  0
LINE
  5
C9
100
AcDbEntity
  8
keycap
  6
ByLayer
 62
  256
370
   -1
100
AcDbLine
 10
-73.37679447965387
 20
54.77099955672661
 11
-55.02420383390861
 21
49.85343776846195
  0
LINE
  5
CA
100
AcDbEntity
  8
keycap
  6
ByLayer
 62
  256
370
   -1
100
AcDbLine
 10
-73.37679447965387
 20
54.77099955672661
 11
-74.60618491560736
 21
50.18285193676322
  0
LINE
  5
CB
100
AcDbEntity
  8
0
  6
ByLayer
 62
  256
370
   -1
100
AcDbLine
 10
52.02704641823798
 20
51.37972328312595
 11
38.50408481823798
 21
47.75625668312595
  0
LINE
  5
CC
100
AcDbEntity
  8
0
  6
ByLayer
 62
  256
370
   -1
100
AcDbLine
 10
55.65051301823798
 20
37.85676168312594
 11
42.12755141823798
 21
34.23329508312594
  0
LINE
  5
CD
100
AcDbEntity
  8
0
  6
ByLayer
 62
  256
370
   -1
100
AcDbLine
 10
52.02704641823798
 20
51.37972328312595
 11
55.65051301823798
 21
37.85676168312594
  0
LINE
  5
CE
100
AcDbEntity
  8
0
  6
ByLayer
 62
  256
370
   -1
100
AcDbLine
 10
38.50408481823798
 20
47.75625668312595
 11
42.12755141823798
 21
34.23329508312594
  0
LINE
  5
CF
100
AcDbEntity
  8
0
  6
ByLayer
 62
  256
370
   -1
100
AcDbLine
 10
71.60902751823799
 20
51.70913738312593
 11
58.08606591823798
 21
48.08567078312593
  0
LINE
  5
D0
100
AcDbEntity
  8
0
  6
ByLayer
 62
  256
370
   -1
100
AcDbLine
 10
75.23249411823799
 20
38.18617578312593
 11
61.70953251823798
 21
34.56270918312593
  0
LINE
  5
D1
100
AcDbEntity
  8
0
  6
ByLayer
 62
  256
370
   -1
100
AcDbLine
 10
71.60902751823799
 20
51.70913738312593
 11
75.23249411823799
 21
38.18617578312593
  0
LINE
  5
D2
100
AcDbEntity
  8
0
  6
ByLayer
 62
  256
370
   -1
100
AcDbLine
 10
58.08606591823798
 20
48.08567078312593
 11
61.70953251823798
 21
34.56270918312593
  0
LINE
  5
D3
100
AcDbEntity
  8
0
  6
ByLayer
 62
  256
370
   -1
100
AcDbLine
 10
34.90384611823799
 20
41.87401368312591
 11
21.38088451823798
 21
38.25054708312594
  0
LINE
  5
D4
100
AcDbEntity
  8
0
  6
ByLayer
 62
  256
370
   -1
100
AcDbLine
 10
38.52731271823797
 20
28.35105208312594
 11
25.00435111823798
 21
24.72758548312595
  0
LINE
  5
D5
100
AcDbEntity
  8
0
  6
ByLayer
 62
  256
370
   -1
100
AcDbLine
 10
34.90384611823799
 20
41.87401368312591
 11
38.52731271823797
 21
28.35105208312594
  0
LINE
  5
D6
100
AcDbEntity
  8
0
  6
ByLayer
 62
  256
370
   -1
100
AcDbLine
 10
21.38088451823798
 20
38.25054708312594
 11
25.00435111823798
 21
24.72758548312595
  0
LINE
  5
D7
100
AcDbEntity
  8
0
  6
ByLayer
 62
  256
370
   -1
100
AcDbLine
 10
91.191008718238
 20
52.03855158312594
 11
77.66804711823799
 21
48.41508498312594
  0
LINE
  5
D8
100
AcDbEntity
  8
0
  6
ByLayer
 62
  256
370
   -1
100
AcDbLine
 10
94.81447531823798
 20
38.51558998312593
 11
81.29151371823799
 21
34.89212338312593
  0
LINE
  5
D9
100
AcDbEntity
  8
0
  6
ByLayer
 62
  256
370
   -1
100
AcDbLine
 10
91.191008718238
 20
52.03855158312594
 11
94.81447531823798
 21
38.51558998312593
  0
LINE
  5
DA
100
AcDbEntity
  8
0
  6
ByLayer
 62
  256
370
   -1
100
AcDbLine
 10
77.66804711823799
 20
48.41508498312594
 11
81.29151371823799
 21
34.89212338312593
  0
LINE
  5
DB
100
AcDbEntity
  8
0
  6
ByLayer
 62
  256
370
   -1
100
AcDbLine
 10
17.78064591823797
 20
32.36830418312592
 11
4.257684318237987
 21
28.74483758312592
  0
LINE
  5
DC
100
AcDbEntity
  8
0
  6
ByLayer
 62
  256
370
   -1
100
AcDbLine
 10
21.40411251823797
 20
18.84534258312593
 11
7.881150918237988
 21
15.22187598312592
  0
LINE
  5
DD
100
AcDbEntity
  8
0
  6
ByLayer
 62
  256
370
   -1
100
AcDbLine
 10
17.78064591823797
 20
32.36830418312592
 11
21.40411251823797
 21
18.84534258312593
  0
LINE
  5
DE
100
AcDbEntity
  8
0
  6
ByLayer
 62
  256
370
   -1
100
AcDbLine
 10
4.257684318237987
 20
28.74483758312592
 11
7.881150918237988
 21
15.22187598312592
  0
LINE
  5
DF
100
AcDbEntity
  8
0
  6
ByLayer
 62
  256
370
   -1
100
AcDbLine
 10
56.94460821823798
 20
33.02713258312593
 11
43.42164661823798
 21
29.40366598312593
  0
LINE
  5
E0
100
AcDbEntity
  8
0
  6
ByLayer
 62
  256
370
   -1
100
AcDbLine
 10
60.56807481823798
 20
19.50417098312592
 11
47.04511321823798
 21
15.88070438312594
  0
LINE
  5
E1
100
AcDbEntity
  8
0
  6
ByLayer
 62
  256
370
   -1
100
AcDbLine
 10
56.94460821823798
 20
33.02713258312593
 11
60.56807481823798
 21
19.50417098312592
  0
LINE
  5
E2
100
AcDbEntity
  8
0
  6
ByLayer
 62
  256
370
   -1
100
AcDbLine
 10
43.42164661823798
 20
29.40366598312593
 11
47.04511321823798
 21
15.88070438312594
  0
LINE
  5
E3
100
AcDbEntity
  8
0
  6
ByLayer
 62
  256
370
   -1
100
AcDbLine
 10
76.52658941823799
 20
33.35654668312595
 11
63.00362781823797
 21
29.73308008312595
  0
LINE
  5
E4
100
AcDbEntity
  8
0
  6
ByLayer
 62
  256
370
   -1
100
AcDbLine
 10
80.15005601823799
 20
19.83358508312593
 11
66.62709441823799
 21
16.21011848312594
  0
LINE
  5
E5
100
AcDbEntity
  8
0
  6
ByLayer
 62
  256
370
   -1
100
AcDbLine
 10
76.52658941823799
 20
33.35654668312595
 11
80.15005601823799
 21
19.83358508312593
  0
LINE
  5
E6
100
AcDbEntity
  8
0
  6
ByLayer
 62
  256
370
   -1
100
AcDbLine
 10
63.00362781823797
 20
29.73308008312595
 11
66.62709441823799
 21
16.21011848312594
  0
LINE
  5
E7
100
AcDbEntity
  8
0
  6
ByLayer
 62
  256
370
   -1
100
AcDbLine
 10
39.82140801823798
 20
23.52142298312593
 11
26.29844641823798
 21
19.89795638312592
  0
LINE
  5
E8
100
AcDbEntity
  8
0
  6
ByLayer
 62
  256
370
   -1
100
AcDbLine
 10
43.44487461823798
 20
9.998461383125935
 11
29.92191301823798
 21
6.374994783125935
  0
LINE
  5
E9
100
AcDbEntity
  8
0
  6
ByLayer
 62
  256
370
   -1
100
AcDbLine
 10
39.82140801823798
 20
23.52142298312593
 11
43.44487461823798
 21
9.998461383125935
  0
LINE
  5
EA
100
AcDbEntity
  8
0
  6
ByLayer
 62
  256
370
   -1
100
AcDbLine
 10
26.29844641823798
 20
19.89795638312592
 11
29.92191301823798
 21
6.374994783125935
  0
LINE
  5
EB
100
AcDbEntity
  8
0
  6
ByLayer
 62
  256
370
   -1
100
AcDbLine
 10
96.10857061823799
 20
33.68596088312595
 11
82.58560901823799
 21
30.06249428312595
  0
LINE
  5
EC
100
AcDbEntity
  8
0
  6
ByLayer
 62
  256
370
   -1
100
AcDbLine
 10
99.73203721823799
 20
20.16299928312595
 11
86.20907561823799
 21
16.53953268312593
  0
LINE
  5
ED
100
AcDbEntity
  8
0
  6
ByLayer
 62
  256
370
   -1
100
AcDbLine
 10
96.10857061823799
 20
33.68596088312595
 11
99.73203721823799
 21
20.16299928312595
  0
LINE
  5
EE
100
AcDbEntity
  8
0
  6
ByLayer
 62
  256
370
   -1
100
AcDbLine
 10
82.58560901823799
 20
30.06249428312595
 11
86.20907561823799
 21
16.53953268312593
  0
LINE
  5
EF
100
AcDbEntity
  8
0
  6
ByLayer
 62
  256
370
   -1
100
AcDbLine
 10
22.69820781823798
 20
14.01571348312594
 11
9.175246218237982
 21
10.39224688312594
  0
LINE
  5
F0
100
AcDbEntity
  8
0
  6
ByLayer
 62
  256
370
   -1
100
AcDbLine
 10
26.32167441823798
 20
0.4927518831259334
 11
12.79871281823798
 21
-3.130714716874081
  0
LINE
  5
F1
100
AcDbEntity
  8
0
  6
ByLayer
 62
  256
370
   -1
100
AcDbLine
 10
22.69820781823798
 20
14.01571348312594
 11
26.32167441823798
 21
0.4927518831259334
  0
LINE
  5
F2
100
AcDbEntity
  8
0
  6
ByLayer
 62
  256
370
   -1
100
AcDbLine
 10
9.175246218237982
 20
10.39224688312594
 11
12.79871281823798
 21
-3.130714716874081
  0
LINE
  5
F3
100
AcDbEntity
  8
0
  6
ByLayer
 62
  256
370
   -1
100
AcDbLine
 10
61.86217011823798
 20
14.67454188312593
 11
48.33920851823797
 21
11.05107528312593
  0
LINE
  5
F4
100
AcDbEntity
  8
0
  6
ByLayer
 62
  256
370
   -1
100
AcDbLine
 10
65.48563671823798
 20
1.151580283125952
 11
51.96267511823798
 21
-2.471886316874063
  0
LINE
  5
F5
100
AcDbEntity
  8
0
  6
ByLayer
 62
  256
370
   -1
100
AcDbLine
 10
61.86217011823798
 20
14.67454188312593
 11
65.48563671823798
 21
1.151580283125952
  0
LINE
  5
F6
100
AcDbEntity
  8
0
  6
ByLayer
 62
  256
370
   -1
100
AcDbLine
 10
48.33920851823797
 20
11.05107528312593
 11
51.96267511823798
 21
-2.471886316874063
  0
LINE
  5
F7
100
AcDbEntity
  8
0
  6
ByLayer
 62
  256
370
   -1
100
AcDbLine
 10
81.44415121823799
 20
15.00395598312593
 11
67.92118961823799
 21
11.38048938312593
  0
LINE
  5
F8
100
AcDbEntity
  8
0
  6
ByLayer
 62
  256
370
   -1
100
AcDbLine
 10
85.06761781823799
 20
1.480994383125939
 11
71.54465621823799
 21
-2.142472216874062
  0
LINE
  5
F9
100
AcDbEntity
  8
0
  6
ByLayer
 62
  256
370
   -1
100
AcDbLine
 10
81.44415121823799
 20
15.00395598312593
 11
85.06761781823799
 21
1.480994383125939
  0
LINE
  5
FA
100
AcDbEntity
  8
0
  6
ByLayer
 62
  256
370
   -1
100
AcDbLine
 10
67.92118961823799
 20
11.38048938312593
 11
71.54465621823799
 21
-2.142472216874062
  0
LINE
  5
FB
100
AcDbEntity
  8
0
  6
ByLayer
 62
  256
370
   -1
100
AcDbLine
 10
44.73896991823798
 20
5.168832283125937
 11
31.21600831823798
 21
1.545365683125937
  0
LINE
  5
FC
100
AcDbEntity
  8
0
  6
ByLayer
 62
  256
370
   -1
100
AcDbLine
 10
48.36243651823798
 20
-8.354129316874065
 11
34.83947491823798
 21
-11.97759591687406
  0
LINE
  5
FD
100
AcDbEntity
  8
0
  6
ByLayer
 62
  256
370
   -1
100
AcDbLine
 10
44.73896991823798
 20
5.168832283125937
 11
48.36243651823798
 21
-8.354129316874065
  0
LINE
  5
FE
100
AcDbEntity
  8
0
  6
ByLayer
 62
  256
370
   -1
100
AcDbLine
 10
31.21600831823798
 20
1.545365683125937
 11
34.83947491823798
 21
-11.97759591687406
  0
LINE
  5
FF
100
AcDbEntity
  8
0
  6
ByLayer
 62
  256
370
   -1
100
AcDbLine
 10
101.026132418238
 20
15.33337018312594
 11
87.50317081823799
 21
11.70990358312594
  0
LINE
  5
100
100
AcDbEntity
  8
0
  6
ByLayer
 62
  256
370
   -1
100
AcDbLine
 10
104.649599018238
 20
1.810408583125934
 11
91.12663741823799
 21
-1.813058016874066
  0
LINE
  5
101
100
AcDbEntity
  8
0
  6
ByLayer
 62
  256
370
   -1
100
AcDbLine
 10
101.026132418238
 20
15.33337018312594
 11
104.649599018238
 21
1.810408583125934
  0
LINE
  5
102
100
AcDbEntity
  8
0
  6
ByLayer
 62
  256
370
   -1
100
AcDbLine
 10
87.50317081823799
 20
11.70990358312594
 11
91.12663741823799
 21
-1.813058016874066
  0
LINE
  5
103
100
AcDbEntity
  8
0
  6
ByLayer
 62
  256
370
   -1
100
AcDbLine
 10
27.61576961823798
 20
-4.336877216874065
 11
14.09280801823798
 21
-7.960343816874065
  0
LINE
  5
104
100
AcDbEntity
  8
0
  6
ByLayer
 62
  256
370
   -1
100
AcDbLine
 10
31.23923621823798
 20
-17.85983881687407
 11
17.71627461823798
 21
-21.48330541687407
  0
LINE
  5
105
100
AcDbEntity
  8
0
  6
ByLayer
 62
  256
370
   -1
100
AcDbLine
 10
27.61576961823798
 20
-4.336877216874065
 11
31.23923621823798
 21
-17.85983881687407
  0
LINE
  5
106
100
AcDbEntity
  8
0
  6
ByLayer
 62
  256
370
   -1
100
AcDbLine
 10
14.09280801823798
 20
-7.960343816874065
 11
17.71627461823798
 21
-21.48330541687407
  0
LINE
  5
107
100
AcDbEntity
  8
0
  6
ByLayer
 62
  256
370
   -1
100
AcDbLine
 10
60.06221751823798
 20
-15.31312511687407
 11
46.53925591823798
 21
-18.93659171687408
  0
LINE
  5
108
100
AcDbEntity
  8
0
  6
ByLayer
 62
  256
370
   -1
100
AcDbLine
 10
63.68568411823799
 20
-28.83608671687407
 11
50.16272251823798
 21
-32.45955331687407
  0
LINE
  5
109
100
AcDbEntity
  8
0
  6
ByLayer
 62
  256
370
   -1
100
AcDbLine
 10
60.06221751823798
 20
-15.31312511687407
 11
63.68568411823799
 21
-28.83608671687407
  0
LINE
  5
10A
100
AcDbEntity
  8
0
  6
ByLayer
 62
  256
370
   -1
100
AcDbLine
 10
46.53925591823798
 20
-18.93659171687408
 11
50.16272251823798
 21
-32.45955331687407
  0
LINE
  5
10B
100
AcDbEntity
  8
keycap
  6
ByLayer
 62
  256
370
   -1
100
AcDbLine
 10
43.47739374463732
 20
-17.16882475545822
 11
48.39495555682213
 21
-35.52141549047474
  0
LINE
  5
10C
100
AcDbEntity
  8
keycap
  6
ByLayer
 62
  256
370
   -1
100
AcDbLine
 10
61.82998447965382
 20
-12.2512629432734
 11
43.47739374463732
 21
-17.16882475545822
  0
LINE
  5
10D
100
AcDbEntity
  8
keycap
  6
ByLayer
 62
  256
370
   -1
100
AcDbLine
 10
66.74754629183866
 20
-30.60385367828991
 11
48.39495555682213
 21
-35.52141549047474
  0
LINE
  5
10E
100
AcDbEntity
  8
keycap
  6
ByLayer
 62
  256
370
   -1
100
AcDbLine
 10
61.82998447965382
 20
-12.2512629432734
 11
66.74754629183866
 21
-30.60385367828991
  0
LINE
  5
10F
100
AcDbEntity
  8
keycap
  6
ByLayer
 62
  256
370
   -1
100
AcDbLine
 10
1.195822144637319
 20
30.51260454454177
 11
15.94850756874981
 21
-24.54516761407364
  0
LINE
  5
110
100
AcDbEntity
  8
0
  6
ByLayer
 62
  256
370
   -1
100
AcDbLine
 10
39.15598479925504
 20
-21.62388261262726
 11
26.46767574381565
 21
-27.54053825158793
  0
LINE
  5
111
100
AcDbEntity
  8
0
  6
ByLayer
 62
  256
370
   -1
100
AcDbLine
 10
45.07264043821571
 20
-34.31219166806665
 11
32.38433138277631
 21
-40.22884730702732
  0
LINE
  5
112
100
AcDbEntity
  8
0
  6
ByLayer
 62
  256
370
   -1
100
AcDbLine
 10
39.15598479925504
 20
-21.62388261262726
 11
45.07264043821571
 21
-34.31219166806665
  0
LINE
  5
113
100
AcDbEntity
  8
0
  6
ByLayer
 62
  256
370
   -1
100
AcDbLine
 10
26.46767574381565
 20
-27.54053825158793
 11
32.38433138277631
 21
-40.22884730702732
  0
LINE
  5
114
100
AcDbEntity
  8
keycap
  6
ByLayer
 62
  256
370
   -1
100
AcDbLine
 10
23.14536062520924
 20
-26.33131442917984
 11
31.17510756036822
 21
-43.55116242563373
  0
LINE
  5
115
100
AcDbEntity
  8
keycap
  6
ByLayer
 62
  256
370
   -1
100
AcDbLine
 10
40.36520862166312
 20
-18.30156749402085
 11
23.14536062520924
 21
-26.33131442917984
  0
LINE
  5
116
100
AcDbEntity
  8
keycap
  6
ByLayer
 62
  256
370
   -1
100
AcDbLine
 10
48.39495555682213
 20
-35.52141549047474
 11
31.17510756036822
 21
-43.55116242563373
  0
LINE
  5
117
100
AcDbEntity
  8
keycap
  6
ByLayer
 62
  256
370
   -1
100
AcDbLine
 10
40.36520862166312
 20
-18.30156749402085
 11
48.39495555682213
 21
-35.52141549047474
  0
LINE
  5
118
100
AcDbEntity
  8
keycap
  6
ByLayer
 62
  256
370
   -1
100
AcDbLine
 10
34.30109839183866
 20
-19.6276057782899
 11
15.94850756874981
 21
-24.54516761407364
  0
LINE
  5
119
100
AcDbEntity
  8
keycap
  6
ByLayer
 62
  256
370
   -1
100
AcDbLine
 10
33.07170793898494
 20
-15.03945809525419
 11
34.30109839183866
 21
-19.6276057782899
  0
LINE
  5
11A
100
AcDbEntity
  8
0
  6
ByLayer
 62
  256
370
   -1
100
AcDbLine
 10
19.67443790962291
 20
-31.48512089748446
 11
27.70450799992664
 21
-42.95324955830789
  0
LINE
  5
11B
100
AcDbEntity
  8
0
  6
ByLayer
 62
  256
370
   -1
100
AcDbLine
 10
8.206309248799485
 20
-39.51519098778819
 11
16.23637933910321
 21
-50.98331964861161
  0
LINE
  5
11C
100
AcDbEntity
  8
keycap
  6
ByLayer
 62
  256
370
   -1
100
AcDbLine
 10
17.56388889018251
 20
-24.11232749830528
 11
33.91081724872616
 21
-47.45816078703444
  0
LINE
  5
11D
100
AcDbEntity
  8
keycap
  6
ByLayer
 62
  256
370
   -1
100
AcDbLine
 10
33.91081724872616
 20
-47.45816078703444
 11
18.34692835854357
 21
-58.3561130477908
  0
LINE
  5
11E
100
AcDbEntity
  8
keycap
  6
ByLayer
 62
  256
370
   -1
100
AcDbLine
 10
17.56388889018251
 20
-24.11232749830528
 11
1.999999999999997
 21
-35.01027975906162
  0
LINE
  5
11F
100
AcDbEntity
  8
keycap
  6
ByLayer
 62
  256
370
   -1
100
AcDbLine
 10
1.999999999999997
 20
-35.01027975906162
 11
18.34692835854357
 21
-58.3561130477908
  0
LINE
  5
120
100
AcDbEntity
  8
0
  6
ByLayer
 62
  256
370
   -1
100
AcDbLine
 10
19.67443790962291
 20
-31.48512089748446
 11
8.206309248799485
 21
-39.51519098778819
  0
LINE
  5
121
100
AcDbEntity
  8
0
  6
ByLayer
 62
  256
370
   -1
100
AcDbLine
 10
16.23637933910321
 20
-50.98331964861161
 11
27.70450799992664
 21
-42.95324955830789
  0
LINE
  5
122
100
AcDbEntity
  8
keycap
  6
ByLayer
 62
  256
370
   -1
100
AcDbLine
 10
107.7114611037663
 20
0.04264159811116741
 11
89.35887045682215
 21
-4.874920190474734
  0
LINE
  5
123
100
AcDbEntity
  8
keycap
  6
ByLayer
 62
  256
370
   -1
100
AcDbLine
 10
88.12948002086863
 20
-0.2867725705113298
 11
89.35887045682215
 21
-4.874920190474734
  0
LINE
  5
124
100
AcDbEntity
  8
keycap
  6
ByLayer
 62
  256
370
   -1
100
AcDbLine
 10
88.12948002086863
 20
-0.2867725705113298
 11
69.77688925682214
 21
-5.204334390474729
  0
LINE
  5
125
100
AcDbEntity
  8
keycap
  6
ByLayer
 62
  256
370
   -1
100
AcDbLine
 10
68.54749880256735
 20
-0.6161867022100882
 11
69.77688925682214
 21
-5.204334390474729
  0
LINE
  5
126
100
AcDbEntity
  8
keycap
  6
ByLayer
 62
  256
370
   -1
100
AcDbLine
 10
68.54749880256735
 20
-0.6161867022100882
 11
50.1949082072862
 21
-5.533748476952921
  0
LINE
  5
127
100
AcDbEntity
  8
keycap
  6
ByLayer
 62
  256
370
   -1
100
AcDbLine
 10
51.42429869183863
 20
-10.12189627828991
 11
33.07170793898494
 21
-15.03945809525419
  0
LINE
  5
128
100
AcDbEntity
  8
keycap
  6
ByLayer
 62
  256
370
   -1
100
AcDbLine
 10
50.1949082072862
 20
-5.533748476952921
 11
51.42429869183863
 21
-10.12189627828991
  0
LINE
  5
129
100
AcDbEntity
  8
keycap
  6
ByLayer
 62
  256
370
   -1
100
AcDbLine
 10
92.95877567965385
 20
55.10041375672661
 11
107.7114611037663
 21
0.04264159811116741
  0
LINE
  5
12A
100
AcDbEntity
  8
keycap
  6
ByLayer
 62
  256
370
   -1
100
AcDbLine
 10
19.54841280418975
 20
35.43016633650603
 11
1.195822144637319
 21
30.51260454454177
  0
LINE
  5
12B
100
AcDbEntity
  8
keycap
  6
ByLayer
 62
  256
370
   -1
100
AcDbLine
 10
18.3190223446373
 20
40.01831404454177
 11
19.54841280418975
 21
35.43016633650603
  0
LINE
  5
12C
100
AcDbEntity
  8
keycap
  6
ByLayer
 62
  256
370
   -1
100
AcDbLine
 10
36.67161312249102
 20
44.93587586820478
 11
18.3190223446373
 21
40.01831404454177
  0
LINE
  5
12D
100
AcDbEntity
  8
keycap
  6
ByLayer
 62
  256
370
   -1
100
AcDbLine
 10
35.44222264463733
 20
49.52402364454179
 11
36.67161312249102
 21
44.93587586820478
  0
LINE
  5
12E
100
AcDbEntity
  8
keycap
  6
ByLayer
 62
  256
370
   -1
100
AcDbLine
 10
53.79481337965386
 20
54.44158545672662
 11
35.44222264463733
 21
49.52402364454179
  0
LINE
  5
12F
100
AcDbEntity
  8
keycap
  6
ByLayer
 62
  256
370
   -1
100
AcDbLine
 10
53.79481337965386
 20
54.44158545672662
 11
55.02420383390861
 21
49.85343776846197
  0
LINE
  5
130
100
AcDbEntity
  8
keycap
  6
ByLayer
 62
  256
370
   -1
100
AcDbLine
 10
92.95877567965385
 20
55.10041375672661
 11
74.60618491560736
 21
50.18285193676324
  0
LINE
  5
131
100
AcDbEntity
  8
keycap
  6
ByLayer
 62
  256
370
   -1
100
AcDbLine
 10
73.37679447965387
 20
54.77099955672661
 11
55.02420383390861
 21
49.85343776846197
  0
LINE
  5
132
100
AcDbEntity
  8
keycap
  6
ByLayer
 62
  256
370
   -1
100
AcDbLine
 10
73.37679447965387
 20
54.77099955672661
 11
74.60618491560736
 21
50.18285193676324
  0
LINE
  5
133
100
AcDbEntity
  8
rpi
  6
ByLayer
 62
  256
370
   -1
100
AcDbLine
 10
-9.132328986994874
 20
58.07162302410232
 11
14.04989084394277
 21
51.85996594164183
  0
LINE
  5
134
100
AcDbEntity
  8
rpi
  6
ByLayer
 62
  256
370
   -1
100
AcDbLine
 10
14.04989084394277
 20
51.85996594164183
 11
9.132328986994874
 21
33.50737524214954
  0
LINE
  5
135
100
AcDbEntity
  8
rpi
  6
ByLayer
 62
  256
370
   -1
100
AcDbLine
 10
-9.132328986994874
 20
58.07162302410232
 11
-14.04989084394277
 21
39.71903232461003
  0
LINE
  5
136
100
AcDbEntity
  8
rpi
  6
ByLayer
 62
  256
370
   -1
100
AcDbLine
 10
-14.04989084394277
 20
39.71903232461003
 11
9.132328986994874
 21
33.50737524214954
  0
ARC
  5
137
100
AcDbEntity
  8
pcb
  6
ByLayer
 62
  256
370
   -1
100
AcDbCircle
 10
-91.33282969231153
 20
53.44112016893633
 40
3
100
AcDbArc
 50
91.83218763472311
 51
165.0000001581128
  0
LINE
  5
138
100
AcDbEntity
  8
pcb
  6
ByLayer
 62
  256
370
   -1
100
AcDbLine
 10
-94.23060717332145
 20
54.21757729624722
 11
-108.4185678883326
 21
1.267386467551425
  0
ARC
  5
139
100
AcDbEntity
  8
pcb
  6
ByLayer
 62
  256
370
   -1
100
AcDbCircle
 10
-106.486716234326
 20
0.7497483826774971
 40
2
100
AcDbArc
 50
165.0000001581128
 51
255.0000001581128
  0
LINE
  5
13A
100
AcDbEntity
  8
pcb
  6
ByLayer
 62
  256
370
   -1
100
AcDbLine
 10
-107.0043543191999
 20
-1.182103271329103
 11
-64.98658098607305
 21
-12.44073157941775
  0
ARC
  5
13B
100
AcDbEntity
  8
pcb
  6
ByLayer
 62
  256
370
   -1
100
AcDbCircle
 10
-65.50421907094697
 20
-14.37258323342436
 40
2
100
AcDbArc
 50
345.0000001581126
 51
75.00000015811288
  0
LINE
  5
13C
100
AcDbEntity
  8
pcb
  6
ByLayer
 62
  256
370
   -1
100
AcDbLine
 10
-63.57236741694037
 20
-14.89022131829829
 11
-67.57288608654265
 21
-29.82036041468585
  0
ARC
  5
13D
100
AcDbEntity
  8
pcb
  6
ByLayer
 62
  256
370
   -1
100
AcDbCircle
 10
-65.64103443253606
 20
-30.33799849955977
 40
2
100
AcDbArc
 50
165.0000001581128
 51
240.30693530694
  0
ARC
  5
13E
100
AcDbEntity
  8
pcb
  6
ByLayer
 62
  256
370
   -1
100
AcDbCircle
 10
91.33282969231153
 20
53.44112016893629
 40
3
100
AcDbArc
 50
14.99999984188726
 51
88.16781236527689
  0
LINE
  5
13F
100
AcDbEntity
  8
pcb
  6
ByLayer
 62
  256
370
   -1
100
AcDbLine
 10
94.23060717332145
 20
54.21757729624718
 11
108.4185678883326
 21
1.267386467551439
  0
ARC
  5
140
100
AcDbEntity
  8
pcb
  6
ByLayer
 62
  256
370
   -1
100
AcDbCircle
 10
106.486716234326
 20
0.7497483826774936
 40
2
100
AcDbArc
 50
284.9999998418872
 51
14.99999984188718
  0
LINE
  5
141
100
AcDbEntity
  8
pcb
  6
ByLayer
 62
  256
370
   -1
100
AcDbLine
 10
107.0043543191999
 20
-1.182103271329092
 11
64.98658098607305
 21
-12.44073157941774
  0
ARC
  5
142
100
AcDbEntity
  8
pcb
  6
ByLayer
 62
  256
370
   -1
100
AcDbCircle
 10
65.50421907094697
 20
-14.37258323342436
 40
2
100
AcDbArc
 50
104.9999998418871
 51
194.9999998418874
  0
LINE
  5
143
100
AcDbEntity
  8
pcb
  6
ByLayer
 62
  256
370
   -1
100
AcDbLine
 10
63.57236741694037
 20
-14.89022131829829
 11
67.57288608654265
 21
-29.82036041468585
  0
ARC
  5
144
100
AcDbEntity
  8
pcb
  6
ByLayer
 62
  256
370
   -1
100
AcDbCircle
 10
65.64103443253606
 20
-30.33799849955977
 40
2
100
AcDbArc
 50
299.69306469306
 51
14.99999984188723
  0
LINE
  5
145
100
AcDbEntity
  8
pcb
  6
ByLayer
 62
  256
370
   -1
100
AcDbLine
 10
-19.68483079052816
 20
-58.84589560956722
 11
-66.63174147697899
 21
-32.07538146024839
  0
ARC
  5
146
100
AcDbEntity
  8
pcb
  6
ByLayer
 62
  256
370
   -1
100
AcDbCircle
 10
-18.69412374608522
 20
-57.1085126488786
 40
2
100
AcDbArc
 50
240.3069353069399
 51
325.0000001581128
  0
LINE
  5
147
100
AcDbEntity
  8
pcb
  6
ByLayer
 62
  256
370
   -1
100
AcDbLine
 10
19.68483079052818
 20
-58.84589560956722
 11
66.63174147697899
 21
-32.07538146024839
  0
ARC
  5
148
100
AcDbEntity
  8
pcb
  6
ByLayer
 62
  256
370
   -1
100
AcDbCircle
 10
18.69412374608524
 20
-57.10851264887859
 40
2
100
AcDbArc
 50
214.9999998418874
 51
299.69306469306
  0
LINE
  5
149
100
AcDbEntity
  8
pcb
  6
ByLayer
 62
  256
370
   -1
100
AcDbLine
 10
4.09576022935913
 20
-39.74678237330183
 11
17.05581965434159
 21
-58.25566551705964
  0
LINE
  5
14A
100
AcDbEntity
  8
pcb
  6
ByLayer
 62
  256
370
   -1
100
AcDbLine
 10
-4.095760229359124
 20
-39.74678237330182
 11
-17.05581965434159
 21
-58.25566551705964
  0
ARC
  5
14B
100
AcDbEntity
  8
pcb
  6
ByLayer
 62
  256
370
   -1
100
AcDbCircle
 10
7.704861296532925e-15
 20
-42.61466454375444
 40
5
100
AcDbArc
 50
34.99999984188731
 51
145.0000001581127
  0
LINE
  5
14C
100
AcDbEntity
  8
pcb
  6
ByLayer
 62
  256
370
   -1
100
AcDbLine
 10
-91.42874646358679
 20
56.43958643904646
 11
-15.98612854587698
 21
58.85289100056623
  0
LINE
  5
14D
100
AcDbEntity
  8
pcb
  6
ByLayer
 62
  256
370
   -1
100
AcDbLine
 10
91.42874646358679
 20
56.43958643904642
 11
15.98612854587716
 21
58.85289100056621
  0
ARC
  5
14E
100
AcDbEntity
  8
pcb
  6
ByLayer
 62
  256
370
   -1
100
AcDbCircle
 10
5.99433938931923e-16
 20
-440.8914873511214
 40
500
100
AcDbArc
 50
88.16781236527676
 51
91.83218763472323
  0
DIMENSION
  5
14F
100
AcDbEntity
  8
mesure
  6
ByLayer
 62
  256
370
   -1
100
AcDbDimension
  2
*D1
 10
-120
 20
59.1085126488786
 30
0
 11
-121.875
 21
2.296212748401287e-16
 31
0
 70
   32
 71
    5
  3
Standard
 53
0
210
0
220
0
230
1
100
AcDbAlignedDimension
 13
-18.69412374608522
 23
-59.1085126488786
 33
0
 14
9.244794387498341e-14
 24
59.10851264887859
 34
0
 50
90
100
AcDbRotatedDimension
  0
DIMENSION
  5
150
100
AcDbEntity
  8
mesure
  6
ByLayer
 62
  256
370
   -1
100
AcDbDimension
  2
*D2
 10
-108.486716234326
 20
70
 30
0
 11
1.432566535262207e-14
 21
71.875
 31
0
 70
   32
 71
    5
  3
Standard
 53
0
210
0
220
0
230
1
100
AcDbAlignedDimension
 13
108.486716234326
 23
0.7497483826774936
 33
0
 14
-108.486716234326
 24
0.7497483826774971
 34
0
100
AcDbRotatedDimension
  0
ENDSEC
  0
SECTION
  2
OBJECTS
  0
DICTIONARY
  5
C
330
0
100
AcDbDictionary
281
    1
  3
ACAD_GROUP
350
D
  0
DICTIONARY
  5
D
330
C
100
AcDbDictionary
281
    1
  0
PLOTSETTINGS
  5
151
100
AcDbPlotSettings
  6
1x1
 40
0
 41
0
 42
0
 43
0
  0
ENDSEC
  0
EOF
