999
dxfrw 0.6.3
  0
SECTION
  2
HEADER
  9
$ACADVER
  1
AC1021
  9
$DWGCODEPAGE
  3
ANSI_1252
  9
$INSBASE
 10
0
 20
0
 30
0
  9
$EXTMIN
 10
-120.073223927214
 20
-51.40007986458851
 30
0
  9
$EXTMAX
 10
120.0732239272139
 20
51.40007986458851
 30
0
  9
$LIMMIN
 10
0
 20
0
  9
$LIMMAX
 10
420
 20
297
  9
$ORTHOMODE
 70
    0
  9
$REGENMODE
 70
    1
  9
$FILLMODE
 70
    1
  9
$QTEXTMODE
 70
    0
  9
$MIRRTEXT
 70
    0
  9
$LTSCALE
 40
1
  9
$ATTMODE
 70
    0
  9
$TEXTSIZE
 40
2.5
  9
$TRACEWID
 40
15.68
  9
$TEXTSTYLE
  7
STANDARD
  9
$CLAYER
  8
ext1.2
  9
$CELTYPE
  6
BYLAYER
  9
$CECOLOR
 62
  256
  9
$CELTSCALE
 40
1
  9
$DISPSILH
 70
    0
  9
$DIMSCALE
 40
2.5
  9
$DIMASZ
 40
2.5
  9
$DIMEXO
 40
0.625
  9
$DIMDLI
 40
3.75
  9
$DIMRND
 40
0
  9
$DIMDLE
 40
0
  9
$DIMEXE
 40
1.25
  9
$DIMTP
 40
0
  9
$DIMTM
 40
0
  9
$DIMTXT
 40
2.5
  9
$DIMCEN
 40
2.5
  9
$DIMTSZ
 40
0
  9
$DIMTOL
 70
    0
  9
$DIMLIM
 70
    0
  9
$DIMTIH
 70
    0
  9
$DIMTOH
 70
    0
  9
$DIMSE1
 70
    0
  9
$DIMSE2
 70
    0
  9
$DIMTAD
 70
    1
  9
$DIMZIN
 70
    8
  9
$DIMBLK
  1

  9
$DIMASO
 70
    1
  9
$DIMSHO
 70
    1
  9
$DIMPOST
  1

  9
$DIMAPOST
  1

  9
$DIMALT
 70
    0
  9
$DIMALTD
 70
    3
  9
$DIMALTF
 40
0.03937
  9
$DIMLFAC
 40
1
  9
$DIMTOFL
 70
    1
  9
$DIMTVP
 40
0
  9
$DIMTIX
 70
    0
  9
$DIMSOXD
 70
    0
  9
$DIMSAH
 70
    0
  9
$DIMBLK1
  1

  9
$DIMBLK2
  1

  9
$DIMSTYLE
  2
Standard
  9
$DIMCLRD
 70
    0
  9
$DIMCLRE
 70
    0
  9
$DIMCLRT
 70
    0
  9
$DIMTFAC
 40
1
  9
$DIMGAP
 40
0.625
  9
$DIMJUST
 70
    0
  9
$DIMSD1
 70
    0
  9
$DIMSD2
 70
    0
  9
$DIMTOLJ
 70
    0
  9
$DIMTZIN
 70
    8
  9
$DIMALTZ
 70
    0
  9
$DIMALTTZ
 70
    0
  9
$DIMUPT
 70
    0
  9
$DIMDEC
 70
    2
  9
$DIMTDEC
 70
    2
  9
$DIMALTU
 70
    2
  9
$DIMALTTD
 70
    3
  9
$DIMTXSTY
  7
STANDARD
  9
$DIMAUNIT
 70
    0
  9
$DIMADEC
 70
    0
  9
$DIMALTRND
 40
0
  9
$DIMAZIN
 70
    0
  9
$DIMDSEP
 70
   44
  9
$DIMATFIT
 70
    3
  9
$DIMFRAC
 70
    0
  9
$DIMLDRBLK
  1
STANDARD
  9
$DIMLUNIT
 70
    2
  9
$DIMLWD
 70
   -2
  9
$DIMLWE
 70
   -2
  9
$DIMTMOVE
 70
    0
  9
$DIMFXL
 40
1
  9
$DIMFXLON
 70
    0
  9
$DIMJOGANG
 40
0.7854
  9
$DIMTFILL
 70
    0
  9
$DIMTFILLCLR
 70
    0
  9
$DIMARCSYM
 70
    0
  9
$DIMLTYPE
  6

  9
$DIMLTEX1
  6

  9
$DIMLTEX2
  6

  9
$LUNITS
 70
    2
  9
$LUPREC
 70
    4
  9
$SKETCHINC
 40
1
  9
$FILLETRAD
 40
0
  9
$AUNITS
 70
    0
  9
$AUPREC
 70
    2
  9
$MENU
  1
.
  9
$ELEVATION
 40
0
  9
$PELEVATION
 40
0
  9
$THICKNESS
 40
0
  9
$LIMCHECK
 70
    0
  9
$CHAMFERA
 40
0
  9
$CHAMFERB
 40
0
  9
$CHAMFERC
 40
0
  9
$CHAMFERD
 40
0
  9
$SKPOLY
 70
    0
  9
$USRTIMER
 70
    1
  9
$ANGBASE
 50
0
  9
$ANGDIR
 70
    0
  9
$PDMODE
 70
   34
  9
$PDSIZE
 40
0
  9
$PLINEWID
 40
0
  9
$SPLFRAME
 70
    0
  9
$SPLINETYPE
 70
    2
  9
$SPLINESEGS
 70
    8
  9
$HANDSEED
  5
20000
  9
$SURFTAB1
 70
    6
  9
$SURFTAB2
 70
    6
  9
$SURFTYPE
 70
    6
  9
$SURFU
 70
    6
  9
$SURFV
 70
    6
  9
$UCSBASE
  2

  9
$UCSNAME
  2

  9
$UCSORG
 10
0
 20
0
 30
0
  9
$UCSXDIR
 10
1
 20
0
 30
0
  9
$UCSYDIR
 10
0
 20
1
 30
0
  9
$UCSORTHOREF
  2

  9
$UCSORTHOVIEW
 70
    0
  9
$UCSORGTOP
 10
0
 20
0
 30
0
  9
$UCSORGBOTTOM
 10
0
 20
0
 30
0
  9
$UCSORGLEFT
 10
0
 20
0
 30
0
  9
$UCSORGRIGHT
 10
0
 20
0
 30
0
  9
$UCSORGFRONT
 10
0
 20
0
 30
0
  9
$UCSORGBACK
 10
0
 20
0
 30
0
  9
$PUCSBASE
  2

  9
$PUCSNAME
  2

  9
$PUCSORG
 10
0
 20
0
 30
0
  9
$PUCSXDIR
 10
1
 20
0
 30
0
  9
$PUCSYDIR
 10
0
 20
1
 30
0
  9
$PUCSORTHOREF
  2

  9
$PUCSORTHOVIEW
 70
    0
  9
$PUCSORGTOP
 10
0
 20
0
 30
0
  9
$PUCSORGBOTTOM
 10
0
 20
0
 30
0
  9
$PUCSORGLEFT
 10
0
 20
0
 30
0
  9
$PUCSORGRIGHT
 10
0
 20
0
 30
0
  9
$PUCSORGFRONT
 10
0
 20
0
 30
0
  9
$PUCSORGBACK
 10
0
 20
0
 30
0
  9
$USERI1
 70
    0
  9
$USERI2
 70
    0
  9
$USERI3
 70
    0
  9
$USERI4
 70
    0
  9
$USERI5
 70
    0
  9
$USERR1
 40
0
  9
$USERR2
 40
0
  9
$USERR3
 40
0
  9
$USERR4
 40
0
  9
$USERR5
 40
0
  9
$WORLDVIEW
 70
    1
  9
$SHADEDGE
 70
    3
  9
$SHADEDIF
 70
   70
  9
$TILEMODE
 70
    1
  9
$MAXACTVP
 70
   64
  9
$PINSBASE
 10
0
 20
0
 30
0
  9
$PLIMCHECK
 70
    0
  9
$PEXTMIN
 10
0
 20
0
 30
0
  9
$PEXTMAX
 10
0
 20
0
 30
0
  9
$GRIDMODE
 70
    1
  9
$SNAPSTYLE
 70
    0
  9
$PLIMMIN
 10
0
 20
0
  9
$PLIMMAX
 10
210
 20
297
  9
$UNITMODE
 70
    0
  9
$VISRETAIN
 70
    1
  9
$PLINEGEN
 70
    0
  9
$PSLTSCALE
 70
    1
  9
$TREEDEPTH
 70
 3020
  9
$CMLSTYLE
  2
Standard
  9
$CMLJUST
 70
    0
  9
$CMLSCALE
 40
20
  9
$PROXYGRAPHICS
 70
    1
  9
$MEASUREMENT
 70
    1
  9
$CELWEIGHT
370
   -1
  9
$ENDCAPS
280
    0
  9
$JOINSTYLE
280
    0
  9
$LWDISPLAY
290
    0
  9
$INSUNITS
 70
    4
  9
$HYPERLINKBASE
  1

  9
$STYLESHEET
  1

  9
$XEDIT
290
    1
  9
$CEPSNTYPE
380
    0
  9
$PSTYLEMODE
290
    1
  9
$EXTNAMES
290
    1
  9
$PSVPSCALE
 40
1
  9
$OLESTARTUP
290
    0
  9
$SORTENTS
280
  127
  9
$INDEXCTL
280
    0
  9
$HIDETEXT
280
    1
  9
$XCLIPFRAME
290
    0
  9
$HALOGAP
280
    0
  9
$OBSCOLOR
 70
  257
  9
$OBSLTYPE
280
    0
  9
$INTERSECTIONDISPLAY
280
    0
  9
$INTERSECTIONCOLOR
 70
  257
  9
$DIMASSOC
280
    1
  9
$PROJECTNAME
  1

  9
$CAMERADISPLAY
290
    0
  9
$LENSLENGTH
 40
50
  9
$CAMERAHEIGHT
 40
0
  9
$STEPSPERSEC
 40
2
  9
$STEPSIZE
 40
50
  9
$3DDWFPREC
 40
2
  9
$PSOLWIDTH
 40
5
  9
$PSOLHEIGHT
 40
80
  9
$LOFTANG1
 40
1.570796326794897
  9
$LOFTANG2
 40
1.570796326794897
  9
$LOFTMAG1
 40
0
  9
$LOFTMAG2
 40
0
  9
$LOFTPARAM
 70
    7
  9
$LOFTNORMALS
280
    1
  9
$LATITUDE
 40
1
  9
$LONGITUDE
 40
1
  9
$NORTHDIRECTION
 40
0
  9
$TIMEZONE
 70
-8000
  9
$LIGHTGLYPHDISPLAY
280
    1
  9
$TILEMODELIGHTSYNCH
280
    1
  9
$SOLIDHIST
280
    1
  9
$SHOWHIST
280
    1
  9
$DWFFRAME
280
    2
  9
$DGNFRAME
280
    0
  9
$REALWORLDSCALE
290
    1
  9
$INTERFERECOLOR
 62
    1
  9
$CSHADOW
280
    0
  9
$SHADOWPLANELOCATION
 40
0
  0
ENDSEC
  0
SECTION
  2
CLASSES
  0
ENDSEC
  0
SECTION
  2
TABLES
  0
TABLE
  2
VPORT
  5
8
330
0
100
AcDbSymbolTable
 70
    1
  0
VPORT
  5
31
330
2
100
AcDbSymbolTableRecord
100
AcDbViewportTableRecord
  2
*ACTIVE
 70
    0
 10
0
 20
0
 11
1
 21
1
 12
60.98813562491697
 22
36.33914173193418
 13
0
 23
0
 14
10
 24
10
 15
10
 25
10
 16
0
 26
0
 36
1
 17
0
 27
0
 37
0
 40
145.3565669277367
 41
1.677057356608479
 42
50
 43
0
 44
0
 50
0
 51
0
 71
    0
 72
  100
 73
    1
 74
    3
 75
    0
 76
    1
 77
    0
 78
    0
281
    0
 65
    1
110
0
120
0
130
0
111
1
121
0
131
0
112
0
122
1
132
0
 79
    0
146
0
348
10020
 60
    7
 61
    5
292
1
282
    1
141
0
142
0
 63
  250
421
3358443
  0
ENDTAB
  0
TABLE
  2
LTYPE
  5
5
330
0
100
AcDbSymbolTable
 70
    4
  0
LTYPE
  5
14
330
5
100
AcDbSymbolTableRecord
100
AcDbLinetypeTableRecord
  2
ByBlock
 70
    0
  3

 72
   65
 73
    0
 40
0
  0
LTYPE
  5
15
330
5
100
AcDbSymbolTableRecord
100
AcDbLinetypeTableRecord
  2
ByLayer
 70
    0
  3

 72
   65
 73
    0
 40
0
  0
LTYPE
  5
16
330
5
100
AcDbSymbolTableRecord
100
AcDbLinetypeTableRecord
  2
Continuous
 70
    0
  3
Solid line
 72
   65
 73
    0
 40
0
  0
LTYPE
  5
32
330
5
100
AcDbSymbolTableRecord
100
AcDbLinetypeTableRecord
  2
DOT
 70
    0
  3
Dot . . . . . . . . . . . . . . . . . . . . . .
 72
   65
 73
    2
 40
6.35
 49
0
 74
    0
 49
-6.35
 74
    0
  0
LTYPE
  5
33
330
5
100
AcDbSymbolTableRecord
100
AcDbLinetypeTableRecord
  2
DOTTINY
 70
    0
  3
Dot (.15x) .....................................
 72
   65
 73
    2
 40
0.9525
 49
0
 74
    0
 49
-0.9525
 74
    0
  0
LTYPE
  5
34
330
5
100
AcDbSymbolTableRecord
100
AcDbLinetypeTableRecord
  2
DOT2
 70
    0
  3
Dot (.5x) .....................................
 72
   65
 73
    2
 40
3.175
 49
0
 74
    0
 49
-3.175
 74
    0
  0
LTYPE
  5
35
330
5
100
AcDbSymbolTableRecord
100
AcDbLinetypeTableRecord
  2
DOTX2
 70
    0
  3
Dot (2x) .  .  .  .  .  .  .  .  .  .  .  .  .
 72
   65
 73
    2
 40
12.7
 49
0
 74
    0
 49
-12.7
 74
    0
  0
LTYPE
  5
36
330
5
100
AcDbSymbolTableRecord
100
AcDbLinetypeTableRecord
  2
DASHED
 70
    0
  3
Dashed _ _ _ _ _ _ _ _ _ _ _ _ _ _ _ _ _
 72
   65
 73
    2
 40
19.05
 49
12.7
 74
    0
 49
-6.35
 74
    0
  0
LTYPE
  5
37
330
5
100
AcDbSymbolTableRecord
100
AcDbLinetypeTableRecord
  2
DASHEDTINY
 70
    0
  3
Dashed (.15x) _ _ _ _ _ _ _ _ _ _ _ _ _ _ _ _ _
 72
   65
 73
    2
 40
2.8575
 49
1.905
 74
    0
 49
-0.9525
 74
    0
  0
LTYPE
  5
38
330
5
100
AcDbSymbolTableRecord
100
AcDbLinetypeTableRecord
  2
DASHED2
 70
    0
  3
Dashed (.5x) _ _ _ _ _ _ _ _ _ _ _ _ _ _ _ _ _
 72
   65
 73
    2
 40
9.524999999999999
 49
6.35
 74
    0
 49
-3.175
 74
    0
  0
LTYPE
  5
39
330
5
100
AcDbSymbolTableRecord
100
AcDbLinetypeTableRecord
  2
DASHEDX2
 70
    0
  3
Dashed (2x) ____  ____  ____  ____  ____  ___
 72
   65
 73
    2
 40
38.09999999999999
 49
25.4
 74
    0
 49
-12.7
 74
    0
  0
LTYPE
  5
3A
330
5
100
AcDbSymbolTableRecord
100
AcDbLinetypeTableRecord
  2
DASHDOT
 70
    0
  3
Dash dot __ . __ . __ . __ . __ . __ . __ . __
 72
   65
 73
    4
 40
25.4
 49
12.7
 74
    0
 49
-6.35
 74
    0
 49
0
 74
    0
 49
-6.35
 74
    0
  0
LTYPE
  5
3B
330
5
100
AcDbSymbolTableRecord
100
AcDbLinetypeTableRecord
  2
DASHDOTTINY
 70
    0
  3
Dash dot (.15x) _._._._._._._._._._._._._._._.
 72
   65
 73
    4
 40
3.81
 49
1.905
 74
    0
 49
-0.9525
 74
    0
 49
0
 74
    0
 49
-0.9525
 74
    0
  0
LTYPE
  5
3C
330
5
100
AcDbSymbolTableRecord
100
AcDbLinetypeTableRecord
  2
DASHDOT2
 70
    0
  3
Dash dot (.5x) _._._._._._._._._._._._._._._.
 72
   65
 73
    4
 40
12.7
 49
6.35
 74
    0
 49
-3.175
 74
    0
 49
0
 74
    0
 49
-3.175
 74
    0
  0
LTYPE
  5
3D
330
5
100
AcDbSymbolTableRecord
100
AcDbLinetypeTableRecord
  2
DASHDOTX2
 70
    0
  3
Dash dot (2x) ____  .  ____  .  ____  .  ___
 72
   65
 73
    4
 40
50.8
 49
25.4
 74
    0
 49
-12.7
 74
    0
 49
0
 74
    0
 49
-12.7
 74
    0
  0
LTYPE
  5
3E
330
5
100
AcDbSymbolTableRecord
100
AcDbLinetypeTableRecord
  2
DIVIDE
 70
    0
  3
Divide ____ . . ____ . . ____ . . ____ . . ____
 72
   65
 73
    6
 40
31.75
 49
12.7
 74
    0
 49
-6.35
 74
    0
 49
0
 74
    0
 49
-6.35
 74
    0
 49
0
 74
    0
 49
-6.35
 74
    0
  0
LTYPE
  5
3F
330
5
100
AcDbSymbolTableRecord
100
AcDbLinetypeTableRecord
  2
DIVIDETINY
 70
    0
  3
Divide (.15x) __..__..__..__..__..__..__..__.._
 72
   65
 73
    6
 40
4.7625
 49
1.905
 74
    0
 49
-0.9525
 74
    0
 49
0
 74
    0
 49
-0.9525
 74
    0
 49
0
 74
    0
 49
-0.9525
 74
    0
  0
LTYPE
  5
40
330
5
100
AcDbSymbolTableRecord
100
AcDbLinetypeTableRecord
  2
DIVIDE2
 70
    0
  3
Divide (.5x) __..__..__..__..__..__..__..__.._
 72
   65
 73
    6
 40
15.875
 49
6.35
 74
    0
 49
-3.175
 74
    0
 49
0
 74
    0
 49
-3.175
 74
    0
 49
0
 74
    0
 49
-3.175
 74
    0
  0
LTYPE
  5
41
330
5
100
AcDbSymbolTableRecord
100
AcDbLinetypeTableRecord
  2
DIVIDEX2
 70
    0
  3
Divide (2x) ________  .  .  ________  .  .  _
 72
   65
 73
    6
 40
63.5
 49
25.4
 74
    0
 49
-12.7
 74
    0
 49
0
 74
    0
 49
-12.7
 74
    0
 49
0
 74
    0
 49
-12.7
 74
    0
  0
LTYPE
  5
42
330
5
100
AcDbSymbolTableRecord
100
AcDbLinetypeTableRecord
  2
BORDER
 70
    0
  3
Border __ __ . __ __ . __ __ . __ __ . __ __ .
 72
   65
 73
    6
 40
44.45
 49
12.7
 74
    0
 49
-6.35
 74
    0
 49
12.7
 74
    0
 49
-6.35
 74
    0
 49
0
 74
    0
 49
-6.35
 74
    0
  0
LTYPE
  5
43
330
5
100
AcDbSymbolTableRecord
100
AcDbLinetypeTableRecord
  2
BORDERTINY
 70
    0
  3
Border (.15x) __.__.__.__.__.__.__.__.__.__.__.
 72
   65
 73
    6
 40
6.6675
 49
1.905
 74
    0
 49
-0.9525
 74
    0
 49
1.905
 74
    0
 49
-0.9525
 74
    0
 49
0
 74
    0
 49
-0.9525
 74
    0
  0
LTYPE
  5
44
330
5
100
AcDbSymbolTableRecord
100
AcDbLinetypeTableRecord
  2
BORDER2
 70
    0
  3
Border (.5x) __.__.__.__.__.__.__.__.__.__.__.
 72
   65
 73
    6
 40
22.225
 49
6.35
 74
    0
 49
-3.175
 74
    0
 49
6.35
 74
    0
 49
-3.175
 74
    0
 49
0
 74
    0
 49
-3.175
 74
    0
  0
LTYPE
  5
45
330
5
100
AcDbSymbolTableRecord
100
AcDbLinetypeTableRecord
  2
BORDERX2
 70
    0
  3
Border (2x) ____  ____  .  ____  ____  .  ___
 72
   65
 73
    6
 40
88.89999999999999
 49
25.4
 74
    0
 49
-12.7
 74
    0
 49
25.4
 74
    0
 49
-12.7
 74
    0
 49
0
 74
    0
 49
-12.7
 74
    0
  0
LTYPE
  5
46
330
5
100
AcDbSymbolTableRecord
100
AcDbLinetypeTableRecord
  2
CENTER
 70
    0
  3
Center ____ _ ____ _ ____ _ ____ _ ____ _ ____
 72
   65
 73
    4
 40
50.8
 49
31.75
 74
    0
 49
-6.35
 74
    0
 49
6.35
 74
    0
 49
-6.35
 74
    0
  0
LTYPE
  5
47
330
5
100
AcDbSymbolTableRecord
100
AcDbLinetypeTableRecord
  2
CENTERTINY
 70
    0
  3
Center (.15x) ___ _ ___ _ ___ _ ___ _ ___ _ ___
 72
   65
 73
    4
 40
7.619999999999999
 49
4.7625
 74
    0
 49
-0.9525
 74
    0
 49
0.9525
 74
    0
 49
-0.9525
 74
    0
  0
LTYPE
  5
48
330
5
100
AcDbSymbolTableRecord
100
AcDbLinetypeTableRecord
  2
CENTER2
 70
    0
  3
Center (.5x) ___ _ ___ _ ___ _ ___ _ ___ _ ___
 72
   65
 73
    4
 40
28.575
 49
19.05
 74
    0
 49
-3.175
 74
    0
 49
3.175
 74
    0
 49
-3.175
 74
    0
  0
LTYPE
  5
49
330
5
100
AcDbSymbolTableRecord
100
AcDbLinetypeTableRecord
  2
CENTERX2
 70
    0
  3
Center (2x) ________  __  ________  __  _____
 72
   65
 73
    4
 40
101.6
 49
63.5
 74
    0
 49
-12.7
 74
    0
 49
12.7
 74
    0
 49
-12.7
 74
    0
  0
ENDTAB
  0
TABLE
  2
LAYER
  5
2
330
0
100
AcDbSymbolTable
 70
    1
  0
LAYER
  5
10
330
2
100
AcDbSymbolTableRecord
100
AcDbLayerTableRecord
  2
0
 70
    4
 62
    7
  6
CONTINUOUS
370
    0
390
F
  0
LAYER
  5
4A
330
2
100
AcDbSymbolTableRecord
100
AcDbLayerTableRecord
  2
ajour
 70
    0
 62
    6
  6
CONTINUOUS
370
    0
390
F
  0
LAYER
  5
4B
330
2
100
AcDbSymbolTableRecord
100
AcDbLayerTableRecord
  2
ext1
 70
    5
 62
    9
  6
CONTINUOUS
370
    0
390
F
  0
LAYER
  5
4C
330
2
100
AcDbSymbolTableRecord
100
AcDbLayerTableRecord
  2
ext1.2
 70
    4
 62
    9
  6
CONTINUOUS
370
    0
390
F
  0
LAYER
  5
4D
330
2
100
AcDbSymbolTableRecord
100
AcDbLayerTableRecord
  2
ext2
 70
    5
 62
  181
420
9669631
  6
CONTINUOUS
370
    0
390
F
  0
LAYER
  5
4E
330
2
100
AcDbSymbolTableRecord
100
AcDbLayerTableRecord
  2
ext2.2
 70
    4
 62
    8
  6
CONTINUOUS
370
    0
390
F
  0
LAYER
  5
4F
330
2
100
AcDbSymbolTableRecord
100
AcDbLayerTableRecord
  2
ext3
 70
    5
 62
  171
420
8742911
  6
CONTINUOUS
370
    0
390
F
  0
LAYER
  5
50
330
2
100
AcDbSymbolTableRecord
100
AcDbLayerTableRecord
  2
ext3.2
 70
    4
 62
  253
420
10526884
  6
CONTINUOUS
370
    0
390
F
  0
LAYER
  5
51
330
2
100
AcDbSymbolTableRecord
100
AcDbLayerTableRecord
  2
int
 70
    5
 62
    4
  6
CONTINUOUS
370
    0
390
F
  0
LAYER
  5
52
330
2
100
AcDbSymbolTableRecord
100
AcDbLayerTableRecord
  2
int.2
 70
    4
 62
    4
  6
CONTINUOUS
370
    0
390
F
  0
LAYER
  5
53
330
2
100
AcDbSymbolTableRecord
100
AcDbLayerTableRecord
  2
noname
 70
    4
 62
    1
  6
CONTINUOUS
370
    0
390
F
  0
LAYER
  5
54
330
2
100
AcDbSymbolTableRecord
100
AcDbLayerTableRecord
  2
pcb
 70
    5
 62
    2
  6
CONTINUOUS
370
    0
390
F
  0
LAYER
  5
55
330
2
100
AcDbSymbolTableRecord
100
AcDbLayerTableRecord
  2
pcb.2
 70
    4
 62
    2
  6
CONTINUOUS
370
    0
390
F
  0
LAYER
  5
56
330
2
100
AcDbSymbolTableRecord
100
AcDbLayerTableRecord
  2
placement
 70
    4
 62
    6
  6
CONTINUOUS
370
    0
390
F
  0
LAYER
  5
57
330
2
100
AcDbSymbolTableRecord
100
AcDbLayerTableRecord
  2
rpi
 70
    5
 62
    3
  6
CONTINUOUS
370
    0
390
F
  0
LAYER
  5
58
330
2
100
AcDbSymbolTableRecord
100
AcDbLayerTableRecord
  2
rpi.2
 70
    4
 62
    3
  6
CONTINUOUS
370
    0
390
F
  0
ENDTAB
  0
TABLE
  2
STYLE
  5
3
330
0
100
AcDbSymbolTable
 70
    3
  0
STYLE
  5
59
330
2
100
AcDbSymbolTableRecord
100
AcDbTextStyleTableRecord
  2
Standard
 70
    0
 40
0
 41
1
 50
0
 71
    0
 42
1
  3
txt
  4

  0
ENDTAB
  0
TABLE
  2
VIEW
  5
6
330
0
100
AcDbSymbolTable
 70
    0
  0
ENDTAB
  0
TABLE
  2
UCS
  5
7
330
0
100
AcDbSymbolTable
 70
    0
  0
ENDTAB
  0
TABLE
  2
APPID
  5
9
330
0
100
AcDbSymbolTable
 70
    1
  0
APPID
  5
12
330
9
100
AcDbSymbolTableRecord
100
AcDbRegAppTableRecord
  2
ACAD
 70
    0
  0
APPID
  5
5A
330
9
100
AcDbSymbolTableRecord
100
AcDbRegAppTableRecord
  2
LibreCad
 70
    0
  0
ENDTAB
  0
TABLE
  2
DIMSTYLE
  5
A
330
0
100
AcDbSymbolTable
 70
    1
100
AcDbDimStyleTable
 71
    1
  0
DIMSTYLE
105
5B
330
A
100
AcDbSymbolTableRecord
100
AcDbDimStyleTableRecord
  2
Standard
 70
    0
 40
2.5
 41
2.5
 42
0.625
 43
0.38
 44
1.25
 45
0
 46
0
 47
0
 48
0
 49
1
140
2.5
141
0.09
142
0
143
25.4
144
1
145
0
146
1
147
0.625
148
0
 71
    0
 72
    0
 73
    0
 74
    1
 75
    0
 76
    0
 77
    0
 78
    8
 79
    0
170
    0
171
    2
172
    0
173
    0
174
    0
175
    0
176
    0
177
    0
178
    0
179
    0
271
    2
272
    4
273
    2
274
    2
275
    0
276
    0
277
    2
278
   44
279
    0
280
    0
281
    0
282
    0
283
    1
284
    0
285
    0
286
    0
288
    0
289
    3
340
STANDARD
341

371
   -2
372
   -2
  0
ENDTAB
  0
TABLE
  2
BLOCK_RECORD
  5
1
330
0
100
AcDbSymbolTable
 70
    2
  0
BLOCK_RECORD
  5
1F
330
1
100
AcDbSymbolTableRecord
100
AcDbBlockTableRecord
  2
*Model_Space
 70
    0
280
    1
281
    0
  0
BLOCK_RECORD
  5
1E
330
1
100
AcDbSymbolTableRecord
100
AcDbBlockTableRecord
  2
*Paper_Space
 70
    0
280
    1
281
    0
  0
ENDTAB
  0
ENDSEC
  0
SECTION
  2
BLOCKS
  0
BLOCK
  5
20
330
1F
100
AcDbEntity
  8
0
100
AcDbBlockBegin
  2
*Model_Space
 70
    0
 10
0
 20
0
 30
0
  3
*Model_Space
  1

  0
ENDBLK
  5
21
330
1F
100
AcDbEntity
  8
0
100
AcDbBlockEnd
  0
BLOCK
  5
1C
330
1B
100
AcDbEntity
  8
0
100
AcDbBlockBegin
  2
*Paper_Space
 70
    0
 10
0
 20
0
 30
0
  3
*Paper_Space
  1

  0
ENDBLK
  5
1D
330
1F
100
AcDbEntity
  8
0
100
AcDbBlockEnd
  0
ENDSEC
  0
SECTION
  2
ENTITIES
  0
LINE
  5
5C
100
AcDbEntity
  8
0
  6
ByLayer
 62
  256
370
   -1
100
AcDbLine
 10
-104.898223927214
 20
42.40007986458851
 11
-90.89822392721398
 21
42.40007986458851
  0
LINE
  5
5D
100
AcDbEntity
  8
0
  6
ByLayer
 62
  256
370
   -1
100
AcDbLine
 10
-104.898223927214
 20
28.40007986458851
 11
-90.89822392721398
 21
28.40007986458851
  0
LINE
  5
5E
100
AcDbEntity
  8
0
  6
ByLayer
 62
  256
370
   -1
100
AcDbLine
 10
-104.898223927214
 20
42.40007986458851
 11
-104.898223927214
 21
28.40007986458851
  0
LINE
  5
5F
100
AcDbEntity
  8
0
  6
ByLayer
 62
  256
370
   -1
100
AcDbLine
 10
-90.89822392721398
 20
42.40007986458851
 11
-90.89822392721398
 21
28.40007986458851
  0
LINE
  5
60
100
AcDbEntity
  8
0
  6
ByLayer
 62
  256
370
   -1
100
AcDbLine
 10
-105.373223927214
 20
23.02007986458851
 11
-91.37322392721397
 21
23.02007986458851
  0
LINE
  5
61
100
AcDbEntity
  8
0
  6
ByLayer
 62
  256
370
   -1
100
AcDbLine
 10
-105.373223927214
 20
9.020079864588517
 11
-91.37322392721397
 21
9.020079864588517
  0
LINE
  5
62
100
AcDbEntity
  8
0
  6
ByLayer
 62
  256
370
   -1
100
AcDbLine
 10
-105.373223927214
 20
23.02007986458851
 11
-105.373223927214
 21
9.020079864588517
  0
LINE
  5
63
100
AcDbEntity
  8
0
  6
ByLayer
 62
  256
370
   -1
100
AcDbLine
 10
-91.37322392721397
 20
23.02007986458851
 11
-91.37322392721397
 21
9.020079864588517
  0
LINE
  5
64
100
AcDbEntity
  8
0
  6
ByLayer
 62
  256
370
   -1
100
AcDbLine
 10
-103.948223927214
 20
3.640079864588515
 11
-89.94822392721397
 21
3.640079864588515
  0
LINE
  5
65
100
AcDbEntity
  8
0
  6
ByLayer
 62
  256
370
   -1
100
AcDbLine
 10
-103.948223927214
 20
-10.35992013541149
 11
-89.94822392721397
 21
-10.35992013541149
  0
LINE
  5
66
100
AcDbEntity
  8
0
  6
ByLayer
 62
  256
370
   -1
100
AcDbLine
 10
-103.948223927214
 20
3.640079864588515
 11
-103.948223927214
 21
-10.35992013541149
  0
LINE
  5
67
100
AcDbEntity
  8
0
  6
ByLayer
 62
  256
370
   -1
100
AcDbLine
 10
-89.94822392721397
 20
3.640079864588515
 11
-89.94822392721397
 21
-10.35992013541149
  0
LINE
  5
68
100
AcDbEntity
  8
0
  6
ByLayer
 62
  256
370
   -1
100
AcDbLine
 10
-108.698223927214
 20
-15.73992013541149
 11
-94.69822392721397
 21
-15.73992013541149
  0
LINE
  5
69
100
AcDbEntity
  8
0
  6
ByLayer
 62
  256
370
   -1
100
AcDbLine
 10
-108.698223927214
 20
-29.73992013541148
 11
-94.69822392721397
 21
-29.73992013541148
  0
LINE
  5
6A
100
AcDbEntity
  8
0
  6
ByLayer
 62
  256
370
   -1
100
AcDbLine
 10
-108.698223927214
 20
-15.73992013541149
 11
-108.698223927214
 21
-29.73992013541148
  0
LINE
  5
6B
100
AcDbEntity
  8
0
  6
ByLayer
 62
  256
370
   -1
100
AcDbLine
 10
-94.69822392721397
 20
-15.73992013541149
 11
-94.69822392721397
 21
-29.73992013541148
  0
LINE
  5
6C
100
AcDbEntity
  8
0
  6
ByLayer
 62
  256
370
   -1
100
AcDbLine
 10
-86.24734122721398
 20
-16.55459873541149
 11
-72.30061542721398
 21
-17.77477913541149
  0
LINE
  5
6D
100
AcDbEntity
  8
0
  6
ByLayer
 62
  256
370
   -1
100
AcDbLine
 10
-87.46752162721397
 20
-30.50132453541148
 11
-73.52079582721397
 21
-31.72150493541149
  0
LINE
  5
6E
100
AcDbEntity
  8
0
  6
ByLayer
 62
  256
370
   -1
100
AcDbLine
 10
-86.24734122721398
 20
-16.55459873541149
 11
-87.46752162721397
 21
-30.50132453541148
  0
LINE
  5
6F
100
AcDbEntity
  8
0
  6
ByLayer
 62
  256
370
   -1
100
AcDbLine
 10
-72.30061542721398
 20
-17.77477913541149
 11
-73.52079582721397
 21
-31.72150493541149
  0
LINE
  5
70
100
AcDbEntity
  8
0
  6
ByLayer
 62
  256
370
   -1
100
AcDbLine
 10
-82.48924662721397
 20
42.39906726458852
 11
-68.70193812721396
 21
39.96799276458852
  0
LINE
  5
71
100
AcDbEntity
  8
0
  6
ByLayer
 62
  256
370
   -1
100
AcDbLine
 10
-84.92032112721398
 20
28.61175876458852
 11
-71.13301262721397
 21
26.18068426458851
  0
LINE
  5
72
100
AcDbEntity
  8
0
  6
ByLayer
 62
  256
370
   -1
100
AcDbLine
 10
-82.48924662721397
 20
42.39906726458852
 11
-84.92032112721398
 21
28.61175876458852
  0
LINE
  5
73
100
AcDbEntity
  8
0
  6
ByLayer
 62
  256
370
   -1
100
AcDbLine
 10
-68.70193812721396
 20
39.96799276458852
 11
-71.13301262721397
 21
26.18068426458851
  0
LINE
  5
74
100
AcDbEntity
  8
0
  6
ByLayer
 62
  256
370
   -1
100
AcDbLine
 10
-63.77789932721397
 20
39.09975196458851
 11
-49.99059082721398
 21
36.66867746458851
  0
LINE
  5
75
100
AcDbEntity
  8
0
  6
ByLayer
 62
  256
370
   -1
100
AcDbLine
 10
-66.20897382721398
 20
25.31244346458852
 11
-52.42166532721397
 21
22.88136896458851
  0
LINE
  5
76
100
AcDbEntity
  8
0
  6
ByLayer
 62
  256
370
   -1
100
AcDbLine
 10
-63.77789932721397
 20
39.09975196458851
 11
-66.20897382721398
 21
25.31244346458852
  0
LINE
  5
77
100
AcDbEntity
  8
0
  6
ByLayer
 62
  256
370
   -1
100
AcDbLine
 10
-49.99059082721398
 20
36.66867746458851
 11
-52.42166532721397
 21
22.88136896458851
  0
LINE
  5
78
100
AcDbEntity
  8
0
  6
ByLayer
 62
  256
370
   -1
100
AcDbLine
 10
-45.06655202721397
 20
35.80043656458852
 11
-31.27924352721398
 21
33.36936206458851
  0
LINE
  5
79
100
AcDbEntity
  8
0
  6
ByLayer
 62
  256
370
   -1
100
AcDbLine
 10
-47.49762652721397
 20
22.01312806458851
 11
-33.71031802721397
 21
19.58205356458851
  0
LINE
  5
7A
100
AcDbEntity
  8
0
  6
ByLayer
 62
  256
370
   -1
100
AcDbLine
 10
-45.06655202721397
 20
35.80043656458852
 11
-47.49762652721397
 21
22.01312806458851
  0
LINE
  5
7B
100
AcDbEntity
  8
0
  6
ByLayer
 62
  256
370
   -1
100
AcDbLine
 10
-31.27924352721398
 20
33.36936206458851
 11
-33.71031802721397
 21
19.58205356458851
  0
LINE
  5
7C
100
AcDbEntity
  8
0
  6
ByLayer
 62
  256
370
   -1
100
AcDbLine
 10
-26.35520472721397
 20
32.50112116458851
 11
-12.56789622721398
 21
30.07004666458851
  0
LINE
  5
7D
100
AcDbEntity
  8
0
  6
ByLayer
 62
  256
370
   -1
100
AcDbLine
 10
-28.78627922721397
 20
18.71381266458851
 11
-14.99897072721397
 21
16.28273816458852
  0
LINE
  5
7E
100
AcDbEntity
  8
0
  6
ByLayer
 62
  256
370
   -1
100
AcDbLine
 10
-26.35520472721397
 20
32.50112116458851
 11
-28.78627922721397
 21
18.71381266458851
  0
LINE
  5
7F
100
AcDbEntity
  8
0
  6
ByLayer
 62
  256
370
   -1
100
AcDbLine
 10
-12.56789622721398
 20
30.07004666458851
 11
-14.99897072721397
 21
16.28273816458852
  0
LINE
  5
80
100
AcDbEntity
  8
0
  6
ByLayer
 62
  256
370
   -1
100
AcDbLine
 10
-81.11072512721398
 20
22.86289116458851
 11
-67.32341662721397
 21
20.43181666458851
  0
LINE
  5
81
100
AcDbEntity
  8
0
  6
ByLayer
 62
  256
370
   -1
100
AcDbLine
 10
-83.54179962721398
 20
9.075582664588516
 11
-69.75449112721398
 21
6.644508164588515
  0
LINE
  5
82
100
AcDbEntity
  8
0
  6
ByLayer
 62
  256
370
   -1
100
AcDbLine
 10
-81.11072512721398
 20
22.86289116458851
 11
-83.54179962721398
 21
9.075582664588516
  0
LINE
  5
83
100
AcDbEntity
  8
0
  6
ByLayer
 62
  256
370
   -1
100
AcDbLine
 10
-67.32341662721397
 20
20.43181666458851
 11
-69.75449112721398
 21
6.644508164588515
  0
LINE
  5
84
100
AcDbEntity
  8
0
  6
ByLayer
 62
  256
370
   -1
100
AcDbLine
 10
-62.39937782721397
 20
19.56357576458851
 11
-48.61206932721397
 21
17.13250126458851
  0
LINE
  5
85
100
AcDbEntity
  8
0
  6
ByLayer
 62
  256
370
   -1
100
AcDbLine
 10
-64.83045232721398
 20
5.776267264588512
 11
-51.04314382721397
 21
3.345192764588511
  0
LINE
  5
86
100
AcDbEntity
  8
0
  6
ByLayer
 62
  256
370
   -1
100
AcDbLine
 10
-62.39937782721397
 20
19.56357576458851
 11
-64.83045232721398
 21
5.776267264588512
  0
LINE
  5
87
100
AcDbEntity
  8
0
  6
ByLayer
 62
  256
370
   -1
100
AcDbLine
 10
-48.61206932721397
 20
17.13250126458851
 11
-51.04314382721397
 21
3.345192764588511
  0
LINE
  5
88
100
AcDbEntity
  8
0
  6
ByLayer
 62
  256
370
   -1
100
AcDbLine
 10
-43.68803052721397
 20
16.26426036458851
 11
-29.90072202721397
 21
13.83318586458851
  0
LINE
  5
89
100
AcDbEntity
  8
0
  6
ByLayer
 62
  256
370
   -1
100
AcDbLine
 10
-46.11910502721398
 20
2.476951864588514
 11
-32.33179652721397
 21
0.0458773645885131
  0
LINE
  5
8A
100
AcDbEntity
  8
0
  6
ByLayer
 62
  256
370
   -1
100
AcDbLine
 10
-43.68803052721397
 20
16.26426036458851
 11
-46.11910502721398
 21
2.476951864588514
  0
LINE
  5
8B
100
AcDbEntity
  8
0
  6
ByLayer
 62
  256
370
   -1
100
AcDbLine
 10
-29.90072202721397
 20
13.83318586458851
 11
-32.33179652721397
 21
0.0458773645885131
  0
LINE
  5
8C
100
AcDbEntity
  8
0
  6
ByLayer
 62
  256
370
   -1
100
AcDbLine
 10
-24.97668322721397
 20
12.96494506458851
 11
-11.18937472721397
 21
10.53387056458851
  0
LINE
  5
8D
100
AcDbEntity
  8
0
  6
ByLayer
 62
  256
370
   -1
100
AcDbLine
 10
-27.40775772721398
 20
-0.8223634354114893
 11
-13.62044922721397
 21
-3.253437935411483
  0
LINE
  5
8E
100
AcDbEntity
  8
0
  6
ByLayer
 62
  256
370
   -1
100
AcDbLine
 10
-24.97668322721397
 20
12.96494506458851
 11
-27.40775772721398
 21
-0.8223634354114893
  0
LINE
  5
8F
100
AcDbEntity
  8
0
  6
ByLayer
 62
  256
370
   -1
100
AcDbLine
 10
-11.18937472721397
 20
10.53387056458851
 11
-13.62044922721397
 21
-3.253437935411483
  0
LINE
  5
90
100
AcDbEntity
  8
0
  6
ByLayer
 62
  256
370
   -1
100
AcDbLine
 10
-75.05436692721398
 20
2.501886164588512
 11
-61.26705842721397
 21
0.07081166458851129
  0
LINE
  5
91
100
AcDbEntity
  8
0
  6
ByLayer
 62
  256
370
   -1
100
AcDbLine
 10
-77.48544142721397
 20
-11.28542233541149
 11
-63.69813292721398
 21
-13.71649683541148
  0
LINE
  5
92
100
AcDbEntity
  8
0
  6
ByLayer
 62
  256
370
   -1
100
AcDbLine
 10
-75.05436692721398
 20
2.501886164588512
 11
-77.48544142721397
 21
-11.28542233541149
  0
LINE
  5
93
100
AcDbEntity
  8
0
  6
ByLayer
 62
  256
370
   -1
100
AcDbLine
 10
-61.26705842721397
 20
0.07081166458851129
 11
-63.69813292721398
 21
-13.71649683541148
  0
LINE
  5
94
100
AcDbEntity
  8
0
  6
ByLayer
 62
  256
370
   -1
100
AcDbLine
 10
-56.34301952721398
 20
-0.7974292354114851
 11
-42.55571102721397
 21
-3.228503735411486
  0
LINE
  5
95
100
AcDbEntity
  8
0
  6
ByLayer
 62
  256
370
   -1
100
AcDbLine
 10
-58.77409402721398
 20
-14.58473773541149
 11
-44.98678552721397
 21
-17.01581223541149
  0
LINE
  5
96
100
AcDbEntity
  8
0
  6
ByLayer
 62
  256
370
   -1
100
AcDbLine
 10
-56.34301952721398
 20
-0.7974292354114851
 11
-58.77409402721398
 21
-14.58473773541149
  0
LINE
  5
97
100
AcDbEntity
  8
0
  6
ByLayer
 62
  256
370
   -1
100
AcDbLine
 10
-42.55571102721397
 20
-3.228503735411486
 11
-44.98678552721397
 21
-17.01581223541149
  0
LINE
  5
98
100
AcDbEntity
  8
0
  6
ByLayer
 62
  256
370
   -1
100
AcDbLine
 10
-37.63167222721397
 20
-4.096744635411483
 11
-23.84436372721397
 21
-6.527819135411484
  0
LINE
  5
99
100
AcDbEntity
  8
0
  6
ByLayer
 62
  256
370
   -1
100
AcDbLine
 10
-40.06274672721398
 20
-17.88405313541149
 11
-26.27543822721397
 21
-20.31512763541149
  0
LINE
  5
9A
100
AcDbEntity
  8
0
  6
ByLayer
 62
  256
370
   -1
100
AcDbLine
 10
-37.63167222721397
 20
-4.096744635411483
 11
-40.06274672721398
 21
-17.88405313541149
  0
LINE
  5
9B
100
AcDbEntity
  8
0
  6
ByLayer
 62
  256
370
   -1
100
AcDbLine
 10
-23.84436372721397
 20
-6.527819135411484
 11
-26.27543822721397
 21
-20.31512763541149
  0
LINE
  5
9C
100
AcDbEntity
  8
0
  6
ByLayer
 62
  256
370
   -1
100
AcDbLine
 10
-18.92032492721397
 20
-7.396059935411486
 11
-5.133016427213974
 21
-9.827134435411487
  0
LINE
  5
9D
100
AcDbEntity
  8
0
  6
ByLayer
 62
  256
370
   -1
100
AcDbLine
 10
-21.35139942721398
 20
-21.18336843541148
 11
-7.564090927213968
 21
-23.61444293541149
  0
LINE
  5
9E
100
AcDbEntity
  8
0
  6
ByLayer
 62
  256
370
   -1
100
AcDbLine
 10
-18.92032492721397
 20
-7.396059935411486
 11
-21.35139942721398
 21
-21.18336843541148
  0
LINE
  5
9F
100
AcDbEntity
  8
0
  6
ByLayer
 62
  256
370
   -1
100
AcDbLine
 10
-5.133016427213974
 20
-9.827134435411487
 11
-7.564090927213968
 21
-23.61444293541149
  0
LINE
  5
A0
100
AcDbEntity
  8
0
  6
ByLayer
 62
  256
370
   -1
100
AcDbLine
 10
-64.32017182721398
 20
-18.68394773541148
 11
-50.53286332721397
 21
-21.11502223541149
  0
LINE
  5
A1
100
AcDbEntity
  8
0
  6
ByLayer
 62
  256
370
   -1
100
AcDbLine
 10
-66.75124632721398
 20
-32.47125623541149
 11
-52.96393782721398
 21
-34.90233073541148
  0
LINE
  5
A2
100
AcDbEntity
  8
0
  6
ByLayer
 62
  256
370
   -1
100
AcDbLine
 10
-64.32017182721398
 20
-18.68394773541148
 11
-66.75124632721398
 21
-32.47125623541149
  0
LINE
  5
A3
100
AcDbEntity
  8
0
  6
ByLayer
 62
  256
370
   -1
100
AcDbLine
 10
-50.53286332721397
 20
-21.11502223541149
 11
-52.96393782721398
 21
-34.90233073541148
  0
LINE
  5
A4
100
AcDbEntity
  8
0
  6
ByLayer
 62
  256
370
   -1
100
AcDbLine
 10
-33.91423242721397
 20
-24.04533513541149
 11
-20.12692392721398
 21
-26.47640963541149
  0
LINE
  5
A5
100
AcDbEntity
  8
0
  6
ByLayer
 62
  256
370
   -1
100
AcDbLine
 10
-36.34530692721397
 20
-37.83264363541149
 11
-22.55799842721397
 21
-40.26371813541148
  0
LINE
  5
A6
100
AcDbEntity
  8
0
  6
ByLayer
 62
  256
370
   -1
100
AcDbLine
 10
-33.91423242721397
 20
-24.04533513541149
 11
-36.34530692721397
 21
-37.83264363541149
  0
LINE
  5
A7
100
AcDbEntity
  8
0
  6
ByLayer
 62
  256
370
   -1
100
AcDbLine
 10
-20.12692392721398
 20
-26.47640963541149
 11
-22.55799842721397
 21
-40.26371813541148
  0
LINE
  5
A8
100
AcDbEntity
  8
noname
  6
ByLayer
 62
  256
370
   -1
100
AcDbLine
 10
-8.293234897649072
 20
12.56176949885708
 11
-11.59255029762127
 21
-6.149577791494714
  0
LINE
  5
A9
100
AcDbEntity
  8
noname
  6
ByLayer
 62
  256
370
   -1
100
AcDbLine
 10
-12.97107178838847
 20
13.3865983608671
 11
-8.293234897649072
 21
12.56176949885708
  0
LINE
  5
AA
100
AcDbEntity
  8
noname
  6
ByLayer
 62
  256
370
   -1
100
AcDbLine
 10
-9.671756397649077
 20
32.09794559885708
 11
-12.97107178838847
 21
13.3865983608671
  0
LINE
  5
AB
100
AcDbEntity
  8
0
  6
ByLayer
 62
  256
370
   -1
100
AcDbLine
 10
88.52322392721393
 20
42.40007986458851
 11
102.5232239272139
 21
42.40007986458851
  0
LINE
  5
AC
100
AcDbEntity
  8
0
  6
ByLayer
 62
  256
370
   -1
100
AcDbLine
 10
88.52322392721393
 20
28.40007986458851
 11
102.5232239272139
 21
28.40007986458851
  0
LINE
  5
AD
100
AcDbEntity
  8
0
  6
ByLayer
 62
  256
370
   -1
100
AcDbLine
 10
88.52322392721393
 20
42.40007986458851
 11
88.52322392721393
 21
28.40007986458851
  0
LINE
  5
AE
100
AcDbEntity
  8
0
  6
ByLayer
 62
  256
370
   -1
100
AcDbLine
 10
102.5232239272139
 20
42.40007986458851
 11
102.5232239272139
 21
28.40007986458851
  0
LINE
  5
AF
100
AcDbEntity
  8
0
  6
ByLayer
 62
  256
370
   -1
100
AcDbLine
 10
93.74822392721393
 20
23.0200798645885
 11
107.7482239272139
 21
23.0200798645885
  0
LINE
  5
B0
100
AcDbEntity
  8
0
  6
ByLayer
 62
  256
370
   -1
100
AcDbLine
 10
93.74822392721393
 20
9.020079864588517
 11
107.7482239272139
 21
9.020079864588517
  0
LINE
  5
B1
100
AcDbEntity
  8
0
  6
ByLayer
 62
  256
370
   -1
100
AcDbLine
 10
93.74822392721393
 20
23.0200798645885
 11
93.74822392721393
 21
9.020079864588517
  0
LINE
  5
B2
100
AcDbEntity
  8
0
  6
ByLayer
 62
  256
370
   -1
100
AcDbLine
 10
107.7482239272139
 20
23.0200798645885
 11
107.7482239272139
 21
9.020079864588517
  0
LINE
  5
B3
100
AcDbEntity
  8
0
  6
ByLayer
 62
  256
370
   -1
100
AcDbLine
 10
92.32322392721392
 20
3.640079864588508
 11
106.3232239272139
 21
3.640079864588508
  0
LINE
  5
B4
100
AcDbEntity
  8
0
  6
ByLayer
 62
  256
370
   -1
100
AcDbLine
 10
92.32322392721392
 20
-10.35992013541149
 11
106.3232239272139
 21
-10.35992013541149
  0
LINE
  5
B5
100
AcDbEntity
  8
0
  6
ByLayer
 62
  256
370
   -1
100
AcDbLine
 10
92.32322392721392
 20
3.640079864588508
 11
92.32322392721392
 21
-10.35992013541149
  0
LINE
  5
B6
100
AcDbEntity
  8
0
  6
ByLayer
 62
  256
370
   -1
100
AcDbLine
 10
106.3232239272139
 20
3.640079864588508
 11
106.3232239272139
 21
-10.35992013541149
  0
LINE
  5
B7
100
AcDbEntity
  8
0
  6
ByLayer
 62
  256
370
   -1
100
AcDbLine
 10
94.69822392721392
 20
-15.7399201354115
 11
108.6982239272139
 21
-15.7399201354115
  0
LINE
  5
B8
100
AcDbEntity
  8
0
  6
ByLayer
 62
  256
370
   -1
100
AcDbLine
 10
94.69822392721392
 20
-29.7399201354115
 11
108.6982239272139
 21
-29.7399201354115
  0
LINE
  5
B9
100
AcDbEntity
  8
0
  6
ByLayer
 62
  256
370
   -1
100
AcDbLine
 10
94.69822392721392
 20
-15.7399201354115
 11
94.69822392721392
 21
-29.7399201354115
  0
LINE
  5
BA
100
AcDbEntity
  8
0
  6
ByLayer
 62
  256
370
   -1
100
AcDbLine
 10
108.6982239272139
 20
-15.7399201354115
 11
108.6982239272139
 21
-29.7399201354115
  0
LINE
  5
BB
100
AcDbEntity
  8
0
  6
ByLayer
 62
  256
370
   -1
100
AcDbLine
 10
7.962222527213925
 20
28.4203889645885
 11
21.74953102721392
 21
30.85146346458851
  0
LINE
  5
BC
100
AcDbEntity
  8
0
  6
ByLayer
 62
  256
370
   -1
100
AcDbLine
 10
10.39329702721393
 20
14.63308046458852
 11
24.18060552721391
 21
17.0641549645885
  0
LINE
  5
BD
100
AcDbEntity
  8
0
  6
ByLayer
 62
  256
370
   -1
100
AcDbLine
 10
7.962222527213925
 20
28.4203889645885
 11
10.39329702721393
 21
14.63308046458852
  0
LINE
  5
BE
100
AcDbEntity
  8
0
  6
ByLayer
 62
  256
370
   -1
100
AcDbLine
 10
21.74953102721392
 20
30.85146346458851
 11
24.18060552721391
 21
17.0641549645885
  0
LINE
  5
BF
100
AcDbEntity
  8
0
  6
ByLayer
 62
  256
370
   -1
100
AcDbLine
 10
26.67356982721392
 20
31.71970436458851
 11
40.46087832721392
 21
34.1507788645885
  0
LINE
  5
C0
100
AcDbEntity
  8
0
  6
ByLayer
 62
  256
370
   -1
100
AcDbLine
 10
29.10464432721392
 20
17.9323958645885
 11
42.89195282721391
 21
20.3634703645885
  0
LINE
  5
C1
100
AcDbEntity
  8
0
  6
ByLayer
 62
  256
370
   -1
100
AcDbLine
 10
26.67356982721392
 20
31.71970436458851
 11
29.10464432721392
 21
17.9323958645885
  0
LINE
  5
C2
100
AcDbEntity
  8
0
  6
ByLayer
 62
  256
370
   -1
100
AcDbLine
 10
40.46087832721392
 20
34.1507788645885
 11
42.89195282721391
 21
20.3634703645885
  0
LINE
  5
C3
100
AcDbEntity
  8
0
  6
ByLayer
 62
  256
370
   -1
100
AcDbLine
 10
45.38491712721392
 20
35.01901976458851
 11
59.17222562721392
 21
37.4500942645885
  0
LINE
  5
C4
100
AcDbEntity
  8
0
  6
ByLayer
 62
  256
370
   -1
100
AcDbLine
 10
47.81599162721392
 20
21.2317112645885
 11
61.60330012721391
 21
23.66278576458851
  0
LINE
  5
C5
100
AcDbEntity
  8
0
  6
ByLayer
 62
  256
370
   -1
100
AcDbLine
 10
45.38491712721392
 20
35.01901976458851
 11
47.81599162721392
 21
21.2317112645885
  0
LINE
  5
C6
100
AcDbEntity
  8
0
  6
ByLayer
 62
  256
370
   -1
100
AcDbLine
 10
59.17222562721392
 20
37.4500942645885
 11
61.60330012721391
 21
23.66278576458851
  0
LINE
  5
C7
100
AcDbEntity
  8
0
  6
ByLayer
 62
  256
370
   -1
100
AcDbLine
 10
64.09626442721392
 20
38.31833506458851
 11
77.88357292721392
 21
40.7494095645885
  0
LINE
  5
C8
100
AcDbEntity
  8
0
  6
ByLayer
 62
  256
370
   -1
100
AcDbLine
 10
66.52733892721392
 20
24.5310265645885
 11
80.31464742721391
 21
26.96210106458851
  0
LINE
  5
C9
100
AcDbEntity
  8
0
  6
ByLayer
 62
  256
370
   -1
100
AcDbLine
 10
64.09626442721392
 20
38.31833506458851
 11
66.52733892721392
 21
24.5310265645885
  0
LINE
  5
CA
100
AcDbEntity
  8
0
  6
ByLayer
 62
  256
370
   -1
100
AcDbLine
 10
77.88357292721392
 20
40.7494095645885
 11
80.31464742721391
 21
26.96210106458851
  0
LINE
  5
CB
100
AcDbEntity
  8
0
  6
ByLayer
 62
  256
370
   -1
100
AcDbLine
 10
15.93937472721393
 20
10.5338705645885
 11
29.72668322721393
 21
12.96494506458851
  0
LINE
  5
CC
100
AcDbEntity
  8
0
  6
ByLayer
 62
  256
370
   -1
100
AcDbLine
 10
18.37044922721392
 20
-3.253437935411483
 11
32.15775772721392
 21
-0.8223634354114964
  0
LINE
  5
CD
100
AcDbEntity
  8
0
  6
ByLayer
 62
  256
370
   -1
100
AcDbLine
 10
15.93937472721393
 20
10.5338705645885
 11
18.37044922721392
 21
-3.253437935411483
  0
LINE
  5
CE
100
AcDbEntity
  8
0
  6
ByLayer
 62
  256
370
   -1
100
AcDbLine
 10
29.72668322721393
 20
12.96494506458851
 11
32.15775772721392
 21
-0.8223634354114964
  0
LINE
  5
CF
100
AcDbEntity
  8
0
  6
ByLayer
 62
  256
370
   -1
100
AcDbLine
 10
34.65072202721393
 20
13.8331858645885
 11
48.43803052721393
 21
16.26426036458851
  0
LINE
  5
D0
100
AcDbEntity
  8
0
  6
ByLayer
 62
  256
370
   -1
100
AcDbLine
 10
37.08179652721392
 20
0.045877364588506
 11
50.86910502721392
 21
2.476951864588507
  0
LINE
  5
D1
100
AcDbEntity
  8
0
  6
ByLayer
 62
  256
370
   -1
100
AcDbLine
 10
34.65072202721393
 20
13.8331858645885
 11
37.08179652721392
 21
0.045877364588506
  0
LINE
  5
D2
100
AcDbEntity
  8
0
  6
ByLayer
 62
  256
370
   -1
100
AcDbLine
 10
48.43803052721393
 20
16.26426036458851
 11
50.86910502721392
 21
2.476951864588507
  0
LINE
  5
D3
100
AcDbEntity
  8
0
  6
ByLayer
 62
  256
370
   -1
100
AcDbLine
 10
53.36206932721393
 20
17.13250126458851
 11
67.14937782721393
 21
19.5635757645885
  0
LINE
  5
D4
100
AcDbEntity
  8
0
  6
ByLayer
 62
  256
370
   -1
100
AcDbLine
 10
55.79314382721392
 20
3.345192764588504
 11
69.58045232721392
 21
5.776267264588505
  0
LINE
  5
D5
100
AcDbEntity
  8
0
  6
ByLayer
 62
  256
370
   -1
100
AcDbLine
 10
53.36206932721393
 20
17.13250126458851
 11
55.79314382721392
 21
3.345192764588504
  0
LINE
  5
D6
100
AcDbEntity
  8
0
  6
ByLayer
 62
  256
370
   -1
100
AcDbLine
 10
67.14937782721393
 20
19.5635757645885
 11
69.58045232721392
 21
5.776267264588505
  0
LINE
  5
D7
100
AcDbEntity
  8
0
  6
ByLayer
 62
  256
370
   -1
100
AcDbLine
 10
72.07341662721393
 20
20.4318166645885
 11
85.86072512721393
 21
22.8628911645885
  0
LINE
  5
D8
100
AcDbEntity
  8
0
  6
ByLayer
 62
  256
370
   -1
100
AcDbLine
 10
74.50449112721392
 20
6.644508164588501
 11
88.29179962721392
 21
9.075582664588516
  0
LINE
  5
D9
100
AcDbEntity
  8
0
  6
ByLayer
 62
  256
370
   -1
100
AcDbLine
 10
72.07341662721393
 20
20.4318166645885
 11
74.50449112721392
 21
6.644508164588501
  0
LINE
  5
DA
100
AcDbEntity
  8
0
  6
ByLayer
 62
  256
370
   -1
100
AcDbLine
 10
85.86072512721393
 20
22.8628911645885
 11
88.29179962721392
 21
9.075582664588516
  0
LINE
  5
DB
100
AcDbEntity
  8
0
  6
ByLayer
 62
  256
370
   -1
100
AcDbLine
 10
9.883016427213931
 20
-9.827134435411494
 11
23.67032492721393
 21
-7.396059935411493
  0
LINE
  5
DC
100
AcDbEntity
  8
0
  6
ByLayer
 62
  256
370
   -1
100
AcDbLine
 10
12.31409092721393
 20
-23.61444293541149
 11
26.10139942721392
 21
-21.1833684354115
  0
LINE
  5
DD
100
AcDbEntity
  8
0
  6
ByLayer
 62
  256
370
   -1
100
AcDbLine
 10
9.883016427213931
 20
-9.827134435411494
 11
12.31409092721393
 21
-23.61444293541149
  0
LINE
  5
DE
100
AcDbEntity
  8
0
  6
ByLayer
 62
  256
370
   -1
100
AcDbLine
 10
23.67032492721393
 20
-7.396059935411493
 11
26.10139942721392
 21
-21.1833684354115
  0
LINE
  5
DF
100
AcDbEntity
  8
0
  6
ByLayer
 62
  256
370
   -1
100
AcDbLine
 10
28.59436372721393
 20
-6.527819135411498
 11
42.38167222721393
 21
-4.096744635411483
  0
LINE
  5
E0
100
AcDbEntity
  8
0
  6
ByLayer
 62
  256
370
   -1
100
AcDbLine
 10
31.02543822721393
 20
-20.3151276354115
 11
44.81274672721392
 21
-17.88405313541151
  0
LINE
  5
E1
100
AcDbEntity
  8
0
  6
ByLayer
 62
  256
370
   -1
100
AcDbLine
 10
28.59436372721393
 20
-6.527819135411498
 11
31.02543822721393
 21
-20.3151276354115
  0
LINE
  5
E2
100
AcDbEntity
  8
0
  6
ByLayer
 62
  256
370
   -1
100
AcDbLine
 10
42.38167222721393
 20
-4.096744635411483
 11
44.81274672721392
 21
-17.88405313541151
  0
LINE
  5
E3
100
AcDbEntity
  8
0
  6
ByLayer
 62
  256
370
   -1
100
AcDbLine
 10
47.30571102721393
 20
-3.228503735411493
 11
61.09301952721393
 21
-0.7974292354114993
  0
LINE
  5
E4
100
AcDbEntity
  8
0
  6
ByLayer
 62
  256
370
   -1
100
AcDbLine
 10
49.73678552721393
 20
-17.01581223541149
 11
63.52409402721392
 21
-14.58473773541149
  0
LINE
  5
E5
100
AcDbEntity
  8
0
  6
ByLayer
 62
  256
370
   -1
100
AcDbLine
 10
47.30571102721393
 20
-3.228503735411493
 11
49.73678552721393
 21
-17.01581223541149
  0
LINE
  5
E6
100
AcDbEntity
  8
0
  6
ByLayer
 62
  256
370
   -1
100
AcDbLine
 10
61.09301952721393
 20
-0.7974292354114993
 11
63.52409402721392
 21
-14.58473773541149
  0
LINE
  5
E7
100
AcDbEntity
  8
0
  6
ByLayer
 62
  256
370
   -1
100
AcDbLine
 10
66.01705842721393
 20
0.07081166458850419
 11
79.80436692721392
 21
2.501886164588505
  0
LINE
  5
E8
100
AcDbEntity
  8
0
  6
ByLayer
 62
  256
370
   -1
100
AcDbLine
 10
68.44813292721392
 20
-13.71649683541148
 11
82.23544142721391
 21
-11.2854223354115
  0
LINE
  5
E9
100
AcDbEntity
  8
0
  6
ByLayer
 62
  256
370
   -1
100
AcDbLine
 10
66.01705842721393
 20
0.07081166458850419
 11
68.44813292721392
 21
-13.71649683541148
  0
LINE
  5
EA
100
AcDbEntity
  8
0
  6
ByLayer
 62
  256
370
   -1
100
AcDbLine
 10
79.80436692721392
 20
2.501886164588505
 11
82.23544142721391
 21
-11.2854223354115
  0
LINE
  5
EB
100
AcDbEntity
  8
0
  6
ByLayer
 62
  256
370
   -1
100
AcDbLine
 10
22.53800552721393
 20
-26.88882413541148
 11
36.32531402721392
 21
-24.45774963541149
  0
LINE
  5
EC
100
AcDbEntity
  8
0
  6
ByLayer
 62
  256
370
   -1
100
AcDbLine
 10
24.96908002721392
 20
-40.67613263541151
 11
38.75638852721391
 21
-38.24505813541148
  0
LINE
  5
ED
100
AcDbEntity
  8
0
  6
ByLayer
 62
  256
370
   -1
100
AcDbLine
 10
22.53800552721393
 20
-26.88882413541148
 11
24.96908002721392
 21
-40.67613263541151
  0
LINE
  5
EE
100
AcDbEntity
  8
0
  6
ByLayer
 62
  256
370
   -1
100
AcDbLine
 10
36.32531402721392
 20
-24.45774963541149
 11
38.75638852721391
 21
-38.24505813541148
  0
LINE
  5
EF
100
AcDbEntity
  8
0
  6
ByLayer
 62
  256
370
   -1
100
AcDbLine
 10
50.60502642721391
 20
-21.93985103541149
 11
64.39233492721394
 21
-19.5087765354115
  0
LINE
  5
F0
100
AcDbEntity
  8
0
  6
ByLayer
 62
  256
370
   -1
100
AcDbLine
 10
53.03610092721394
 20
-35.72715953541149
 11
66.82340942721393
 21
-33.29608503541149
  0
LINE
  5
F1
100
AcDbEntity
  8
0
  6
ByLayer
 62
  256
370
   -1
100
AcDbLine
 10
50.60502642721391
 20
-21.93985103541149
 11
53.03610092721394
 21
-35.72715953541149
  0
LINE
  5
F2
100
AcDbEntity
  8
0
  6
ByLayer
 62
  256
370
   -1
100
AcDbLine
 10
64.39233492721394
 20
-19.5087765354115
 11
66.82340942721393
 21
-33.29608503541149
  0
LINE
  5
F3
100
AcDbEntity
  8
0
  6
ByLayer
 62
  256
370
   -1
100
AcDbLine
 10
72.31869062721393
 20
-18.1887689354115
 11
86.26541642721392
 21
-16.9685885354115
  0
LINE
  5
F4
100
AcDbEntity
  8
0
  6
ByLayer
 62
  256
370
   -1
100
AcDbLine
 10
73.53887102721393
 20
-32.1354947354115
 11
87.48559682721393
 21
-30.91531433541149
  0
LINE
  5
F5
100
AcDbEntity
  8
0
  6
ByLayer
 62
  256
370
   -1
100
AcDbLine
 10
72.31869062721393
 20
-18.1887689354115
 11
73.53887102721393
 21
-32.1354947354115
  0
LINE
  5
F6
100
AcDbEntity
  8
0
  6
ByLayer
 62
  256
370
   -1
100
AcDbLine
 10
86.26541642721392
 20
-16.9685885354115
 11
87.48559682721393
 21
-30.91531433541149
  0
LINE
  5
F7
100
AcDbEntity
  8
noname
  6
ByLayer
 62
  256
370
   -1
100
AcDbLine
 10
8.365398092945327
 20
11.73694063502357
 11
13.04323490055512
 21
12.56176948237557
  0
LINE
  5
F8
100
AcDbEntity
  8
noname
  6
ByLayer
 62
  256
370
   -1
100
AcDbLine
 10
13.04323490055512
 20
12.56176948237557
 11
16.34255029762122
 21
-6.149577791494714
  0
LINE
  5
F9
100
AcDbEntity
  8
noname
  6
ByLayer
 62
  256
370
   -1
100
AcDbLine
 10
5.066082697649023
 20
30.44828789885707
 11
8.365398092945327
 21
11.73694063502357
  0
LINE
  5
FA
100
AcDbEntity
  8
noname
  6
ByLayer
 62
  256
370
   -1
100
AcDbLine
 10
73.60067054240753
 20
-34.63963757227002
 11
101.0295663756341
 21
-32.2399201354115
  0
LINE
  5
FB
100
AcDbEntity
  8
noname
  6
ByLayer
 62
  256
370
   -1
100
AcDbLine
 10
101.0295663756341
 20
-32.2399201354115
 11
113.5732239272139
 21
-32.2399201354115
  0
LINE
  5
FC
100
AcDbEntity
  8
noname
  6
ByLayer
 62
  256
370
   -1
100
AcDbLine
 10
-113.573223927214
 20
-32.23992013541148
 11
-96.27956610570453
 21
-32.23992013541148
  0
LINE
  5
FD
100
AcDbEntity
  8
noname
  6
ByLayer
 62
  256
370
   -1
100
AcDbLine
 10
13.58550744166172
 20
-45.22193016603953
 11
73.60067054240753
 21
-34.63963757227002
  0
LINE
  5
FE
100
AcDbEntity
  8
noname
  6
ByLayer
 62
  256
370
   -1
100
AcDbLine
 10
-68.85066994155159
 20
-34.6396376012223
 11
-8.83550742884087
 21
-45.22193009130525
  0
LINE
  5
FF
100
AcDbEntity
  8
noname
  6
ByLayer
 62
  256
370
   -1
100
AcDbLine
 10
-96.27956610570453
 20
-32.23992013541148
 11
-68.85066994155159
 21
-34.6396376012223
  0
LINE
  5
100
100
AcDbEntity
  8
noname
  6
ByLayer
 62
  256
370
   -1
100
AcDbLine
 10
113.5732239272139
 20
44.90007986458851
 11
113.5732239272139
 21
-32.2399201354115
  0
LINE
  5
101
100
AcDbEntity
  8
noname
  6
ByLayer
 62
  256
370
   -1
100
AcDbLine
 10
5.066082697649023
 20
30.44828789885707
 11
87.02626705619534
 21
44.90007986458851
  0
LINE
  5
102
100
AcDbEntity
  8
noname
  6
ByLayer
 62
  256
370
   -1
100
AcDbLine
 10
87.02626705619534
 20
44.90007986458851
 11
113.5732239272139
 21
44.90007986458851
  0
LINE
  5
103
100
AcDbEntity
  8
noname
  6
ByLayer
 62
  256
370
   -1
100
AcDbLine
 10
-82.27626711094047
 20
44.90007986458851
 11
-9.671756397649077
 21
32.09794559885708
  0
LINE
  5
104
100
AcDbEntity
  8
noname
  6
ByLayer
 62
  256
370
   -1
100
AcDbLine
 10
-113.573223927214
 20
44.90007986458851
 11
-113.573223927214
 21
-32.23992013541148
  0
LINE
  5
105
100
AcDbEntity
  8
noname
  6
ByLayer
 62
  256
370
   -1
100
AcDbLine
 10
-113.573223927214
 20
44.90007986458851
 11
-82.27626711094047
 21
44.90007986458851
  0
ARC
  5
106
100
AcDbEntity
  8
pcb
  6
ByLayer
 62
  256
370
   -1
100
AcDbCircle
 10
107.6223687504887
 20
-183.2399201354115
 40
150
100
AcDbArc
 50
90
 51
94.99999999671995
  0
LINE
  5
107
100
AcDbEntity
  8
pcb
  6
ByLayer
 62
  256
370
   -1
100
AcDbLine
 10
80.25554117169693
 20
-35.06123167289778
 11
94.54900734689451
 21
-33.81071542090127
  0
ARC
  5
108
100
AcDbEntity
  8
pcb
  6
ByLayer
 62
  256
370
   -1
100
AcDbCircle
 10
93.32890257529112
 20
-184.490436387408
 40
150
100
AcDbArc
 50
94.99999999671994
 51
100.0000000810061
  0
LINE
  5
109
100
AcDbEntity
  8
pcb
  6
ByLayer
 62
  256
370
   -1
100
AcDbLine
 10
28.42222707722092
 20
-43.62124277959357
 11
67.28167571640003
 21
-36.76927347240293
  0
ARC
  5
10A
100
AcDbEntity
  8
pcb
  6
ByLayer
 62
  256
370
   -1
100
AcDbCircle
 10
2.37500021832993
 20
104.0999201354115
 40
150
100
AcDbArc
 50
259.999999918994
 51
280.0000000810061
  0
LINE
  5
10B
100
AcDbEntity
  8
pcb
  6
ByLayer
 62
  256
370
   -1
100
AcDbLine
 10
-62.53167511554342
 20
-36.76927350135531
 11
-23.67222664056092
 21
-43.6212427795936
  0
ARC
  5
10C
100
AcDbEntity
  8
pcb
  6
ByLayer
 62
  256
370
   -1
100
AcDbCircle
 10
-88.57890197443425
 20
-184.4904364163604
 40
150
100
AcDbArc
 50
79.99999991899404
 51
85.00000000328006
  0
LINE
  5
10D
100
AcDbEntity
  8
pcb
  6
ByLayer
 62
  256
370
   -1
100
AcDbLine
 10
-89.79900707696545
 20
-33.8107154209012
 11
-75.50554057084003
 21
-35.06123170185015
  0
ARC
  5
10E
100
AcDbEntity
  8
pcb
  6
ByLayer
 62
  256
370
   -1
100
AcDbCircle
 10
-102.8723684805597
 20
-183.2399201354115
 40
150
100
AcDbArc
 50
85.00000000328005
 51
90
  0
ARC
  5
10F
100
AcDbEntity
  8
pcb
  6
ByLayer
 62
  256
370
   -1
100
AcDbCircle
 10
100.0620780276938
 20
-104.0999201354115
 40
150
100
AcDbArc
 50
90
 51
100.000000081006
  0
LINE
  5
110
100
AcDbEntity
  8
pcb
  6
ByLayer
 62
  256
370
   -1
100
AcDbLine
 10
28.42222683151812
 20
35.58203292116092
 11
74.01485116880303
 21
43.62124277959359
  0
ARC
  5
111
100
AcDbEntity
  8
pcb
  6
ByLayer
 62
  256
370
   -1
100
AcDbCircle
 10
2.374999972627222
 20
183.303195836166
 40
150
100
AcDbArc
 50
259.999999918994
 51
280.000000081006
  0
LINE
  5
112
100
AcDbEntity
  8
pcb
  6
ByLayer
 62
  256
370
   -1
100
AcDbLine
 10
-69.26485122354833
 20
43.62124277959362
 11
-23.67222688626376
 21
35.58203292116097
  0
ARC
  5
113
100
AcDbEntity
  8
pcb
  6
ByLayer
 62
  256
370
   -1
100
AcDbCircle
 10
-95.31207808243931
 20
-104.0999201354115
 40
150
100
AcDbArc
 50
79.99999991899396
 51
90
  0
LINE
  5
114
100
AcDbEntity
  8
pcb
  6
ByLayer
 62
  256
370
   -1
100
AcDbLine
 10
-112.573223927214
 20
45.90007986458851
 11
-95.31207808243931
 21
45.90007986458851
  0
ARC
  5
115
100
AcDbEntity
  8
pcb
  6
ByLayer
 62
  256
370
   -1
100
AcDbCircle
 10
-112.573223927214
 20
43.90007986458851
 40
2
100
AcDbArc
 50
90
 51
180
  0
LINE
  5
116
100
AcDbEntity
  8
pcb
  6
ByLayer
 62
  256
370
   -1
100
AcDbLine
 10
-112.573223927214
 20
-33.23992013541148
 11
-102.8723684805597
 21
-33.23992013541148
  0
LINE
  5
117
100
AcDbEntity
  8
pcb
  6
ByLayer
 62
  256
370
   -1
100
AcDbLine
 10
-114.573223927214
 20
43.90007986458851
 11
-114.573223927214
 21
-31.23992013541148
  0
ARC
  5
118
100
AcDbEntity
  8
pcb
  6
ByLayer
 62
  256
370
   -1
100
AcDbCircle
 10
-112.573223927214
 20
-31.23992013541148
 40
2
100
AcDbArc
 50
180
 51
270
  0
LINE
  5
119
100
AcDbEntity
  8
pcb
  6
ByLayer
 62
  256
370
   -1
100
AcDbLine
 10
107.6223687504887
 20
-33.2399201354115
 11
112.5732239272139
 21
-33.2399201354115
  0
ARC
  5
11A
100
AcDbEntity
  8
pcb
  6
ByLayer
 62
  256
370
   -1
100
AcDbCircle
 10
112.5732239272139
 20
-31.2399201354115
 40
2
100
AcDbArc
 50
270
 51
0
  0
LINE
  5
11B
100
AcDbEntity
  8
pcb
  6
ByLayer
 62
  256
370
   -1
100
AcDbLine
 10
114.5732239272139
 20
43.90007986458851
 11
114.5732239272139
 21
-31.2399201354115
  0
LINE
  5
11C
100
AcDbEntity
  8
pcb
  6
ByLayer
 62
  256
370
   -1
100
AcDbLine
 10
100.0620780276938
 20
45.90007986458851
 11
112.5732239272139
 21
45.90007986458851
  0
ARC
  5
11D
100
AcDbEntity
  8
pcb
  6
ByLayer
 62
  256
370
   -1
100
AcDbCircle
 10
112.5732239272139
 20
43.90007986458851
 40
2
100
AcDbArc
 50
0
 51
90
  0
LINE
  5
11E
100
AcDbEntity
  8
noname
  6
ByLayer
 62
  256
370
   -1
100
AcDbLine
 10
6.986876625990632
 20
-7.799235496145528
 11
13.58550744166172
 21
-45.22193016603953
  0
LINE
  5
11F
100
AcDbEntity
  8
noname
  6
ByLayer
 62
  256
370
   -1
100
AcDbLine
 10
6.986876625990632
 20
-7.799235496145528
 11
16.34255029762122
 21
-6.149577791494714
  0
LINE
  5
120
100
AcDbEntity
  8
noname
  6
ByLayer
 62
  256
370
   -1
100
AcDbLine
 10
-2.236876626336567
 20
-7.799235496084513
 11
-8.83550742884087
 21
-45.22193009130525
  0
LINE
  5
121
100
AcDbEntity
  8
noname
  6
ByLayer
 62
  256
370
   -1
100
AcDbLine
 10
-11.59255029762127
 20
-6.149577791494714
 11
-2.236876626336567
 21
-7.799235496084513
  0
LINE
  5
122
100
AcDbEntity
  8
placement
  6
ByLayer
 62
  256
370
   -1
100
AcDbLine
 10
7.962222527213925
 20
28.4203889645885
 11
24.18060552721391
 21
17.0641549645885
  0
LINE
  5
123
100
AcDbEntity
  8
placement
  6
ByLayer
 62
  256
370
   -1
100
AcDbLine
 10
15.93937472721393
 20
10.5338705645885
 11
32.15775772721392
 21
-0.8223634354114964
  0
LINE
  5
124
100
AcDbEntity
  8
placement
  6
ByLayer
 62
  256
370
   -1
100
AcDbLine
 10
9.883016427213931
 20
-9.827134435411494
 11
26.10139942721392
 21
-21.1833684354115
  0
LINE
  5
125
100
AcDbEntity
  8
placement
  6
ByLayer
 62
  256
370
   -1
100
AcDbLine
 10
22.53800552721393
 20
-26.88882413541148
 11
38.75638852721391
 21
-38.24505813541148
  0
LINE
  5
126
100
AcDbEntity
  8
placement
  6
ByLayer
 62
  256
370
   -1
100
AcDbLine
 10
28.59436372721393
 20
-6.527819135411499
 11
44.81274672721392
 21
-17.8840531354115
  0
LINE
  5
127
100
AcDbEntity
  8
placement
  6
ByLayer
 62
  256
370
   -1
100
AcDbLine
 10
34.65072202721393
 20
13.8331858645885
 11
50.86910502721392
 21
2.4769518645885
  0
LINE
  5
128
100
AcDbEntity
  8
placement
  6
ByLayer
 62
  256
370
   -1
100
AcDbLine
 10
26.67356982721392
 20
31.71970436458851
 11
42.89195282721391
 21
20.3634703645885
  0
LINE
  5
129
100
AcDbEntity
  8
placement
  6
ByLayer
 62
  256
370
   -1
100
AcDbLine
 10
45.38491712721392
 20
35.01901976458851
 11
61.60330012721391
 21
23.66278576458851
  0
LINE
  5
12A
100
AcDbEntity
  8
placement
  6
ByLayer
 62
  256
370
   -1
100
AcDbLine
 10
53.36206932721394
 20
17.13250126458851
 11
69.58045232721392
 21
5.776267264588508
  0
LINE
  5
12B
100
AcDbEntity
  8
placement
  6
ByLayer
 62
  256
370
   -1
100
AcDbLine
 10
47.30571102721393
 20
-3.228503735411495
 11
63.52409402721392
 21
-14.5847377354115
  0
LINE
  5
12C
100
AcDbEntity
  8
placement
  6
ByLayer
 62
  256
370
   -1
100
AcDbLine
 10
50.60502642721391
 20
-21.93985103541149
 11
66.8234094272139
 21
-33.29608503541149
  0
LINE
  5
12D
100
AcDbEntity
  8
placement
  6
ByLayer
 62
  256
370
   -1
100
AcDbLine
 10
66.01705842721393
 20
0.07081166458850419
 11
82.23544142721391
 21
-11.2854223354115
  0
LINE
  5
12E
100
AcDbEntity
  8
placement
  6
ByLayer
 62
  256
370
   -1
100
AcDbLine
 10
72.07341662721394
 20
20.43181666458851
 11
88.29179962721393
 21
9.075582664588509
  0
LINE
  5
12F
100
AcDbEntity
  8
placement
  6
ByLayer
 62
  256
370
   -1
100
AcDbLine
 10
64.09626442721392
 20
38.31833506458851
 11
80.31464742721391
 21
26.96210106458851
  0
LINE
  5
130
100
AcDbEntity
  8
placement
  6
ByLayer
 62
  256
370
   -1
100
AcDbLine
 10
-82.48924662721397
 20
42.39906726458851
 11
-71.13301262721397
 21
26.18068426458852
  0
LINE
  5
131
100
AcDbEntity
  8
placement
  6
ByLayer
 62
  256
370
   -1
100
AcDbLine
 10
-63.77789932721397
 20
39.09975196458851
 11
-52.42166532721397
 21
22.88136896458851
  0
LINE
  5
132
100
AcDbEntity
  8
placement
  6
ByLayer
 62
  256
370
   -1
100
AcDbLine
 10
-45.06655202721397
 20
35.80043656458851
 11
-33.71031802721397
 21
19.58205356458852
  0
LINE
  5
133
100
AcDbEntity
  8
placement
  6
ByLayer
 62
  256
370
   -1
100
AcDbLine
 10
-26.35520472721397
 20
32.5011211645885
 11
-14.99897072721397
 21
16.28273816458851
  0
LINE
  5
134
100
AcDbEntity
  8
placement
  6
ByLayer
 62
  256
370
   -1
100
AcDbLine
 10
-24.97668322721397
 20
12.9649450645885
 11
-13.62044922721397
 21
-3.253437935411489
  0
LINE
  5
135
100
AcDbEntity
  8
placement
  6
ByLayer
 62
  256
370
   -1
100
AcDbLine
 10
-18.92032492721397
 20
-7.396059935411493
 11
-7.564090927213968
 21
-23.61444293541149
  0
LINE
  5
136
100
AcDbEntity
  8
placement
  6
ByLayer
 62
  256
370
   -1
100
AcDbLine
 10
-37.63167222721397
 20
-4.096744635411492
 11
-26.27543822721397
 21
-20.31512763541149
  0
LINE
  5
137
100
AcDbEntity
  8
placement
  6
ByLayer
 62
  256
370
   -1
100
AcDbLine
 10
-43.68803052721397
 20
16.26426036458851
 11
-32.33179652721397
 21
0.0458773645885131
  0
LINE
  5
138
100
AcDbEntity
  8
placement
  6
ByLayer
 62
  256
370
   -1
100
AcDbLine
 10
-62.39937782721397
 20
19.56357576458851
 11
-51.04314382721397
 21
3.345192764588514
  0
LINE
  5
139
100
AcDbEntity
  8
placement
  6
ByLayer
 62
  256
370
   -1
100
AcDbLine
 10
-56.34301952721398
 20
-0.7974292354114922
 11
-44.98678552721397
 21
-17.01581223541148
  0
LINE
  5
13A
100
AcDbEntity
  8
placement
  6
ByLayer
 62
  256
370
   -1
100
AcDbLine
 10
-75.05436692721398
 20
2.501886164588505
 11
-63.69813292721398
 21
-13.71649683541149
  0
LINE
  5
13B
100
AcDbEntity
  8
placement
  6
ByLayer
 62
  256
370
   -1
100
AcDbLine
 10
-81.11072512721398
 20
22.86289116458851
 11
-69.75449112721398
 21
6.644508164588515
  0
LINE
  5
13C
100
AcDbEntity
  8
placement
  6
ByLayer
 62
  256
370
   -1
100
AcDbLine
 10
-64.32017182721398
 20
-18.68394773541149
 11
-52.96393782721398
 21
-34.90233073541148
  0
LINE
  5
13D
100
AcDbEntity
  8
placement
  6
ByLayer
 62
  256
370
   -1
100
AcDbLine
 10
-33.91423242721397
 20
-24.0453351354115
 11
-22.55799842721397
 21
-40.26371813541149
  0
LINE
  5
13E
100
AcDbEntity
  8
placement
  6
ByLayer
 62
  256
370
   -1
100
AcDbLine
 10
88.52322392721393
 20
42.40007986458851
 11
102.5232239272139
 21
28.40007986458851
  0
LINE
  5
13F
100
AcDbEntity
  8
placement
  6
ByLayer
 62
  256
370
   -1
100
AcDbLine
 10
93.74822392721393
 20
23.0200798645885
 11
107.7482239272139
 21
9.020079864588517
  0
LINE
  5
140
100
AcDbEntity
  8
placement
  6
ByLayer
 62
  256
370
   -1
100
AcDbLine
 10
92.32322392721392
 20
3.640079864588508
 11
106.3232239272139
 21
-10.35992013541149
  0
LINE
  5
141
100
AcDbEntity
  8
placement
  6
ByLayer
 62
  256
370
   -1
100
AcDbLine
 10
94.69822392721392
 20
-15.7399201354115
 11
108.6982239272139
 21
-29.7399201354115
  0
LINE
  5
142
100
AcDbEntity
  8
placement
  6
ByLayer
 62
  256
370
   -1
100
AcDbLine
 10
72.31869062721393
 20
-18.1887689354115
 11
87.48559682721393
 21
-30.91531433541149
  0
LINE
  5
143
100
AcDbEntity
  8
placement
  6
ByLayer
 62
  256
370
   -1
100
AcDbLine
 10
-86.24734122721398
 20
-16.55459873541149
 11
-73.52079582721397
 21
-31.72150493541149
  0
LINE
  5
144
100
AcDbEntity
  8
placement
  6
ByLayer
 62
  256
370
   -1
100
AcDbLine
 10
-108.698223927214
 20
-15.73992013541149
 11
-94.69822392721397
 21
-29.73992013541148
  0
LINE
  5
145
100
AcDbEntity
  8
placement
  6
ByLayer
 62
  256
370
   -1
100
AcDbLine
 10
-103.948223927214
 20
3.640079864588515
 11
-89.94822392721397
 21
-10.35992013541149
  0
LINE
  5
146
100
AcDbEntity
  8
placement
  6
ByLayer
 62
  256
370
   -1
100
AcDbLine
 10
-105.373223927214
 20
23.02007986458851
 11
-91.37322392721397
 21
9.020079864588517
  0
LINE
  5
147
100
AcDbEntity
  8
placement
  6
ByLayer
 62
  256
370
   -1
100
AcDbLine
 10
-104.898223927214
 20
42.40007986458851
 11
-90.89822392721398
 21
28.40007986458851
  0
LINE
  5
148
100
AcDbEntity
  8
placement
  6
ByLayer
 62
  256
370
   -1
100
AcDbLine
 10
-28.81722410913072
 20
32.93524161223669
 11
-31.24829860913072
 21
19.14793311223669
  0
LINE
  5
149
100
AcDbEntity
  8
placement
  6
ByLayer
 62
  256
370
   -1
100
AcDbLine
 10
-47.52857144529722
 20
36.23455701694033
 11
-49.95964594529722
 21
22.44724851694033
  0
LINE
  5
14A
100
AcDbEntity
  8
placement
  6
ByLayer
 62
  256
370
   -1
100
AcDbLine
 10
-66.23991870913072
 20
39.5338724122367
 11
-68.67099320913073
 21
25.7465639122367
  0
LINE
  5
14B
100
AcDbEntity
  8
placement
  6
ByLayer
 62
  256
370
   -1
100
AcDbLine
 10
-84.95126600913072
 20
42.8331877122367
 11
-87.38234050913073
 21
29.0458792122367
  0
LINE
  5
14C
100
AcDbEntity
  8
placement
  6
ByLayer
 62
  256
370
   -1
100
AcDbLine
 10
-107.398223927214
 20
42.40007986458851
 11
-107.398223927214
 21
28.40007986458851
  0
LINE
  5
14D
100
AcDbEntity
  8
placement
  6
ByLayer
 62
  256
370
   -1
100
AcDbLine
 10
-107.873223927214
 20
23.02007986458851
 11
-107.873223927214
 21
9.020079864588519
  0
LINE
  5
14E
100
AcDbEntity
  8
placement
  6
ByLayer
 62
  256
370
   -1
100
AcDbLine
 10
-83.57274450913073
 20
23.29701161223669
 11
-86.00381900913072
 21
9.509703112236695
  0
LINE
  5
14F
100
AcDbEntity
  8
placement
  6
ByLayer
 62
  256
370
   -1
100
AcDbLine
 10
-64.86139724529723
 20
19.99769621694033
 11
-67.29247174529723
 21
6.210387716940332
  0
LINE
  5
150
100
AcDbEntity
  8
placement
  6
ByLayer
 62
  256
370
   -1
100
AcDbLine
 10
-46.15004990913072
 20
16.6983808122367
 11
-48.58112440913073
 21
2.911072312236698
  0
LINE
  5
151
100
AcDbEntity
  8
placement
  6
ByLayer
 62
  256
370
   -1
100
AcDbLine
 10
-27.43870260913072
 20
13.3990655122367
 11
-29.86977710913073
 21
-0.388242987763306
  0
LINE
  5
152
100
AcDbEntity
  8
placement
  6
ByLayer
 62
  256
370
   -1
100
AcDbLine
 10
-21.38234434529722
 20
-6.961939583059665
 11
-23.81341884529722
 21
-20.74924808305967
  0
LINE
  5
153
100
AcDbEntity
  8
placement
  6
ByLayer
 62
  256
370
   -1
100
AcDbLine
 10
-40.09369164529722
 20
-3.662624183059667
 11
-42.52476614529721
 21
-17.44993268305967
  0
LINE
  5
154
100
AcDbEntity
  8
placement
  6
ByLayer
 62
  256
370
   -1
100
AcDbLine
 10
-58.80503890913073
 20
-0.3633087877633018
 11
-61.23611340913073
 21
-14.1506172877633
  0
LINE
  5
155
100
AcDbEntity
  8
placement
  6
ByLayer
 62
  256
370
   -1
100
AcDbLine
 10
-77.51638630913072
 20
2.936006612236691
 11
-79.94746080913072
 21
-10.85130188776331
  0
LINE
  5
156
100
AcDbEntity
  8
placement
  6
ByLayer
 62
  256
370
   -1
100
AcDbLine
 10
-106.448223927214
 20
3.640079864588516
 11
-106.448223927214
 21
-10.35992013541148
  0
LINE
  5
157
100
AcDbEntity
  8
placement
  6
ByLayer
 62
  256
370
   -1
100
AcDbLine
 10
-48.07084394529722
 20
-21.54914268305967
 11
-50.50191844529722
 21
-35.33645118305967
  0
LINE
  5
158
100
AcDbEntity
  8
placement
  6
ByLayer
 62
  256
370
   -1
100
AcDbLine
 10
-69.81012868197215
 20
-17.99266849213807
 11
-71.03030908197213
 21
-31.93939429213806
  0
LINE
  5
159
100
AcDbEntity
  8
placement
  6
ByLayer
 62
  256
370
   -1
100
AcDbLine
 10
-92.19822392721397
 20
-15.73992013541149
 11
-92.19822392721397
 21
-29.73992013541148
  0
LINE
  5
15A
100
AcDbEntity
  8
placement
  6
ByLayer
 62
  256
370
   -1
100
AcDbLine
 10
48.14300704529716
 20
-22.37397148305968
 11
50.57408154529718
 21
-36.16127998305967
  0
LINE
  5
15B
100
AcDbEntity
  8
placement
  6
ByLayer
 62
  256
370
   -1
100
AcDbLine
 10
69.82820388197209
 20
-18.40665829213808
 11
71.04838428197209
 21
-32.35338409213807
  0
LINE
  5
15C
100
AcDbEntity
  8
placement
  6
ByLayer
 62
  256
370
   -1
100
AcDbLine
 10
92.19822392721392
 20
-15.73992013541149
 11
92.19822392721392
 21
-29.7399201354115
  0
LINE
  5
15D
100
AcDbEntity
  8
placement
  6
ByLayer
 62
  256
370
   -1
100
AcDbLine
 10
-45.60882456338047
 20
-21.98326313070785
 11
-48.03989906338047
 21
-35.77057163070785
  0
LINE
  5
15E
100
AcDbEntity
  8
placement
  6
ByLayer
 62
  256
370
   -1
100
AcDbLine
 10
45.68098766338041
 20
-22.80809193070787
 11
48.11206216338043
 21
-36.59540043070785
  0
LINE
  5
15F
100
AcDbEntity
  8
placement
  6
ByLayer
 62
  256
370
   -1
100
AcDbLine
 10
26.13234430913068
 20
-6.961939487763313
 11
28.56341880913067
 21
-20.74924798776332
  0
LINE
  5
160
100
AcDbEntity
  8
placement
  6
ByLayer
 62
  256
370
   -1
100
AcDbLine
 10
44.84369164529718
 20
-3.662624183059671
 11
47.27476614529717
 21
-17.44993268305966
  0
LINE
  5
161
100
AcDbEntity
  8
placement
  6
ByLayer
 62
  256
370
   -1
100
AcDbLine
 10
63.55503890913068
 20
-0.3633087877633197
 11
65.98611340913067
 21
-14.15061728776331
  0
LINE
  5
162
100
AcDbEntity
  8
placement
  6
ByLayer
 62
  256
370
   -1
100
AcDbLine
 10
82.26638630913067
 20
2.936006612236685
 11
84.69746080913066
 21
-10.85130188776332
  0
LINE
  5
163
100
AcDbEntity
  8
placement
  6
ByLayer
 62
  256
370
   -1
100
AcDbLine
 10
108.8232239272139
 20
3.640079864588507
 11
108.8232239272139
 21
-10.35992013541149
  0
LINE
  5
164
100
AcDbEntity
  8
placement
  6
ByLayer
 62
  256
370
   -1
100
AcDbLine
 10
110.2482239272139
 20
23.0200798645885
 11
110.2482239272139
 21
9.020079864588517
  0
LINE
  5
165
100
AcDbEntity
  8
placement
  6
ByLayer
 62
  256
370
   -1
100
AcDbLine
 10
88.32274450913067
 20
23.29701161223668
 11
90.75381900913067
 21
9.509703112236696
  0
LINE
  5
166
100
AcDbEntity
  8
placement
  6
ByLayer
 62
  256
370
   -1
100
AcDbLine
 10
69.61139720913067
 20
19.99769621223668
 11
72.04247170913067
 21
6.210387712236685
  0
LINE
  5
167
100
AcDbEntity
  8
placement
  6
ByLayer
 62
  256
370
   -1
100
AcDbLine
 10
50.90004990913068
 20
16.69838081223669
 11
53.33112440913067
 21
2.911072312236687
  0
LINE
  5
168
100
AcDbEntity
  8
placement
  6
ByLayer
 62
  256
370
   -1
100
AcDbLine
 10
32.18870264529718
 20
13.39906541694032
 11
34.61977714529717
 21
-0.3882430830596711
  0
LINE
  5
169
100
AcDbEntity
  8
placement
  6
ByLayer
 62
  256
370
   -1
100
AcDbLine
 10
24.21155040913067
 20
31.28558391223669
 11
26.64262490913066
 21
17.49827541223668
  0
LINE
  5
16A
100
AcDbEntity
  8
placement
  6
ByLayer
 62
  256
370
   -1
100
AcDbLine
 10
42.92289774529717
 20
34.58489931694033
 11
45.35397224529716
 21
20.79759081694033
  0
LINE
  5
16B
100
AcDbEntity
  8
placement
  6
ByLayer
 62
  256
370
   -1
100
AcDbLine
 10
61.63424500913067
 20
37.88421471223668
 11
64.06531950913066
 21
24.09690621223669
  0
LINE
  5
16C
100
AcDbEntity
  8
placement
  6
ByLayer
 62
  256
370
   -1
100
AcDbLine
 10
80.34559230913067
 20
41.18353001223668
 11
82.77666680913066
 21
27.39622151223669
  0
LINE
  5
16D
100
AcDbEntity
  8
placement
  6
ByLayer
 62
  256
370
   -1
100
AcDbLine
 10
105.0232239272139
 20
42.40007986458851
 11
105.0232239272139
 21
28.40007986458851
  0
ARC
  5
16E
100
AcDbEntity
  8
ext1
  6
ByLayer
 62
  256
370
   -1
100
AcDbCircle
 10
2.374999972627222
 20
183.303195836166
 40
149.5
100
AcDbArc
 50
259.999999918994
 51
280.000000081006
  0
LINE
  5
16F
100
AcDbEntity
  8
ext1
  6
ByLayer
 62
  256
370
   -1
100
AcDbLine
 10
28.33540274198848
 20
36.07443679754427
 11
73.92802707927339
 21
44.11364665597694
  0
ARC
  5
170
100
AcDbEntity
  8
ext1
  6
ByLayer
 62
  256
370
   -1
100
AcDbCircle
 10
100.0620780276938
 20
-104.0999201354115
 40
150.5
100
AcDbArc
 50
90
 51
100.000000081006
  0
LINE
  5
171
100
AcDbEntity
  8
ext1
  6
ByLayer
 62
  256
370
   -1
100
AcDbLine
 10
100.0620780276938
 20
46.40007986458851
 11
112.5732239272139
 21
46.40007986458851
  0
ARC
  5
172
100
AcDbEntity
  8
ext1
  6
ByLayer
 62
  256
370
   -1
100
AcDbCircle
 10
112.5732239272139
 20
43.90007986458851
 40
2.5
100
AcDbArc
 50
0
 51
90
  0
LINE
  5
173
100
AcDbEntity
  8
ext1
  6
ByLayer
 62
  256
370
   -1
100
AcDbLine
 10
115.0732239272139
 20
43.90007986458851
 11
115.0732239272139
 21
-31.2399201354115
  0
ARC
  5
174
100
AcDbEntity
  8
ext1
  6
ByLayer
 62
  256
370
   -1
100
AcDbCircle
 10
112.5732239272139
 20
-31.2399201354115
 40
2.5
100
AcDbArc
 50
270
 51
0
  0
LINE
  5
175
100
AcDbEntity
  8
ext1
  6
ByLayer
 62
  256
370
   -1
100
AcDbLine
 10
107.6223687504887
 20
-33.7399201354115
 11
112.5732239272139
 21
-33.7399201354115
  0
ARC
  5
176
100
AcDbEntity
  8
ext1
  6
ByLayer
 62
  256
370
   -1
100
AcDbCircle
 10
107.6223687504887
 20
-183.2399201354115
 40
149.5
100
AcDbArc
 50
90
 51
94.99999999671995
  0
LINE
  5
177
100
AcDbEntity
  8
ext1
  6
ByLayer
 62
  256
370
   -1
100
AcDbLine
 10
80.29911904304225
 20
-35.55932902194614
 11
94.59258521823983
 21
-34.30881276994964
  0
ARC
  5
178
100
AcDbEntity
  8
ext1
  6
ByLayer
 62
  256
370
   -1
100
AcDbCircle
 10
93.32890257529112
 20
-184.490436387408
 40
149.5
100
AcDbArc
 50
94.99999999671994
 51
100.0000000810061
  0
LINE
  5
179
100
AcDbEntity
  8
ext1
  6
ByLayer
 62
  256
370
   -1
100
AcDbLine
 10
28.50905116675056
 20
-44.11364665597692
 11
67.36849980592967
 21
-37.26167734878628
  0
ARC
  5
17A
100
AcDbEntity
  8
ext1
  6
ByLayer
 62
  256
370
   -1
100
AcDbCircle
 10
2.37500021832993
 20
104.0999201354115
 40
150.5
100
AcDbArc
 50
259.999999918994
 51
280.0000000810061
  0
LINE
  5
17B
100
AcDbEntity
  8
ext1
  6
ByLayer
 62
  256
370
   -1
100
AcDbLine
 10
-62.61849920507306
 20
-37.26167737773866
 11
-23.75905073009056
 21
-44.11364665597695
  0
ARC
  5
17C
100
AcDbEntity
  8
ext1
  6
ByLayer
 62
  256
370
   -1
100
AcDbCircle
 10
-88.57890197443425
 20
-184.4904364163604
 40
149.5
100
AcDbArc
 50
79.99999991899404
 51
85.00000000328006
  0
LINE
  5
17D
100
AcDbEntity
  8
ext1
  6
ByLayer
 62
  256
370
   -1
100
AcDbLine
 10
-89.84258494831077
 20
-34.30881276994957
 11
-75.54911844218535
 21
-35.55932905089851
  0
ARC
  5
17E
100
AcDbEntity
  8
ext1
  6
ByLayer
 62
  256
370
   -1
100
AcDbCircle
 10
-102.8723684805597
 20
-183.2399201354115
 40
149.5
100
AcDbArc
 50
85.00000000328005
 51
90
  0
LINE
  5
17F
100
AcDbEntity
  8
ext1
  6
ByLayer
 62
  256
370
   -1
100
AcDbLine
 10
-112.573223927214
 20
-33.73992013541148
 11
-102.8723684805597
 21
-33.73992013541148
  0
ARC
  5
180
100
AcDbEntity
  8
ext1
  6
ByLayer
 62
  256
370
   -1
100
AcDbCircle
 10
-112.573223927214
 20
-31.23992013541148
 40
2.5
100
AcDbArc
 50
180
 51
270
  0
LINE
  5
181
100
AcDbEntity
  8
ext1
  6
ByLayer
 62
  256
370
   -1
100
AcDbLine
 10
-115.073223927214
 20
43.90007986458851
 11
-115.073223927214
 21
-31.23992013541148
  0
ARC
  5
182
100
AcDbEntity
  8
ext1
  6
ByLayer
 62
  256
370
   -1
100
AcDbCircle
 10
-112.573223927214
 20
43.90007986458851
 40
2.5
100
AcDbArc
 50
90
 51
180
  0
LINE
  5
183
100
AcDbEntity
  8
ext1
  6
ByLayer
 62
  256
370
   -1
100
AcDbLine
 10
-112.573223927214
 20
46.40007986458851
 11
-95.31207808243931
 21
46.40007986458851
  0
ARC
  5
184
100
AcDbEntity
  8
ext1
  6
ByLayer
 62
  256
370
   -1
100
AcDbCircle
 10
-95.31207808243931
 20
-104.0999201354115
 40
150.5
100
AcDbArc
 50
79.99999991899396
 51
90
  0
LINE
  5
185
100
AcDbEntity
  8
ext1
  6
ByLayer
 62
  256
370
   -1
100
AcDbLine
 10
-69.17802713401869
 20
44.11364665597696
 11
-23.58540279673412
 21
36.07443679754432
  0
ARC
  5
186
100
AcDbEntity
  8
ext2
  6
ByLayer
 62
  256
370
   -1
100
AcDbCircle
 10
2.374999972627222
 20
183.303195836166
 40
146.5
100
AcDbArc
 50
259.999999918994
 51
280.000000081006
  0
LINE
  5
187
100
AcDbEntity
  8
ext2
  6
ByLayer
 62
  256
370
   -1
100
AcDbLine
 10
27.81445820481066
 20
39.02886005584437
 11
73.40708254209558
 21
47.06806991427705
  0
ARC
  5
188
100
AcDbEntity
  8
ext2
  6
ByLayer
 62
  256
370
   -1
100
AcDbCircle
 10
100.0620780276938
 20
-104.0999201354115
 40
153.5
100
AcDbArc
 50
90
 51
100.000000081006
  0
LINE
  5
189
100
AcDbEntity
  8
ext2
  6
ByLayer
 62
  256
370
   -1
100
AcDbLine
 10
100.0620780276938
 20
49.40007986458851
 11
112.5732239272139
 21
49.40007986458851
  0
ARC
  5
18A
100
AcDbEntity
  8
ext2
  6
ByLayer
 62
  256
370
   -1
100
AcDbCircle
 10
112.5732239272139
 20
43.90007986458851
 40
5.5
100
AcDbArc
 50
0
 51
90
  0
LINE
  5
18B
100
AcDbEntity
  8
ext2
  6
ByLayer
 62
  256
370
   -1
100
AcDbLine
 10
118.0732239272139
 20
43.90007986458851
 11
118.0732239272139
 21
-31.2399201354115
  0
ARC
  5
18C
100
AcDbEntity
  8
ext2
  6
ByLayer
 62
  256
370
   -1
100
AcDbCircle
 10
112.5732239272139
 20
-31.2399201354115
 40
5.5
100
AcDbArc
 50
270
 51
0
  0
LINE
  5
18D
100
AcDbEntity
  8
ext2
  6
ByLayer
 62
  256
370
   -1
100
AcDbLine
 10
107.6223687504887
 20
-36.7399201354115
 11
112.5732239272139
 21
-36.7399201354115
  0
ARC
  5
18E
100
AcDbEntity
  8
ext2
  6
ByLayer
 62
  256
370
   -1
100
AcDbCircle
 10
107.6223687504887
 20
-183.2399201354115
 40
146.5
100
AcDbArc
 50
90
 51
94.99999999671995
  0
LINE
  5
18F
100
AcDbEntity
  8
ext2
  6
ByLayer
 62
  256
370
   -1
100
AcDbLine
 10
80.56058627111413
 20
-38.54791311623634
 11
94.85405244631171
 21
-37.29739686423984
  0
ARC
  5
190
100
AcDbEntity
  8
ext2
  6
ByLayer
 62
  256
370
   -1
100
AcDbCircle
 10
93.32890257529112
 20
-184.490436387408
 40
146.5
100
AcDbArc
 50
94.99999999671994
 51
100.0000000810061
  0
LINE
  5
191
100
AcDbEntity
  8
ext2
  6
ByLayer
 62
  256
370
   -1
100
AcDbLine
 10
29.02999570392838
 20
-47.06806991427703
 11
67.8894443431075
 21
-40.21610060708638
  0
ARC
  5
192
100
AcDbEntity
  8
ext2
  6
ByLayer
 62
  256
370
   -1
100
AcDbCircle
 10
2.37500021832993
 20
104.0999201354115
 40
153.5
100
AcDbArc
 50
259.999999918994
 51
280.0000000810061
  0
LINE
  5
193
100
AcDbEntity
  8
ext2
  6
ByLayer
 62
  256
370
   -1
100
AcDbLine
 10
-63.13944374225088
 20
-40.21610063603877
 11
-24.27999526726838
 21
-47.06806991427705
  0
ARC
  5
194
100
AcDbEntity
  8
ext2
  6
ByLayer
 62
  256
370
   -1
100
AcDbCircle
 10
-88.57890197443425
 20
-184.4904364163604
 40
146.5
100
AcDbArc
 50
79.99999991899404
 51
85.00000000328006
  0
LINE
  5
195
100
AcDbEntity
  8
ext2
  6
ByLayer
 62
  256
370
   -1
100
AcDbLine
 10
-90.10405217638265
 20
-37.29739686423977
 11
-75.81058567025723
 21
-38.54791314518872
  0
ARC
  5
196
100
AcDbEntity
  8
ext2
  6
ByLayer
 62
  256
370
   -1
100
AcDbCircle
 10
-102.8723684805597
 20
-183.2399201354115
 40
146.5
100
AcDbArc
 50
85.00000000328005
 51
90
  0
LINE
  5
197
100
AcDbEntity
  8
ext2
  6
ByLayer
 62
  256
370
   -1
100
AcDbLine
 10
-112.573223927214
 20
-36.73992013541148
 11
-102.8723684805597
 21
-36.73992013541148
  0
ARC
  5
198
100
AcDbEntity
  8
ext2
  6
ByLayer
 62
  256
370
   -1
100
AcDbCircle
 10
-112.573223927214
 20
-31.23992013541148
 40
5.5
100
AcDbArc
 50
180
 51
270
  0
LINE
  5
199
100
AcDbEntity
  8
ext2
  6
ByLayer
 62
  256
370
   -1
100
AcDbLine
 10
-118.073223927214
 20
43.90007986458851
 11
-118.073223927214
 21
-31.23992013541148
  0
ARC
  5
19A
100
AcDbEntity
  8
ext2
  6
ByLayer
 62
  256
370
   -1
100
AcDbCircle
 10
-112.573223927214
 20
43.90007986458851
 40
5.5
100
AcDbArc
 50
90
 51
180
  0
LINE
  5
19B
100
AcDbEntity
  8
ext2
  6
ByLayer
 62
  256
370
   -1
100
AcDbLine
 10
-112.573223927214
 20
49.40007986458851
 11
-95.31207808243931
 21
49.40007986458851
  0
ARC
  5
19C
100
AcDbEntity
  8
ext2
  6
ByLayer
 62
  256
370
   -1
100
AcDbCircle
 10
-95.31207808243931
 20
-104.0999201354115
 40
153.5
100
AcDbArc
 50
79.99999991899396
 51
90
  0
LINE
  5
19D
100
AcDbEntity
  8
ext2
  6
ByLayer
 62
  256
370
   -1
100
AcDbLine
 10
-68.65708259684087
 20
47.06806991427707
 11
-23.0644582595563
 21
39.02886005584442
  0
ARC
  5
19E
100
AcDbEntity
  8
ext3
  6
ByLayer
 62
  256
370
   -1
100
AcDbCircle
 10
2.374999972627222
 20
183.303195836166
 40
145.5
100
AcDbArc
 50
259.999999918994
 51
280.000000081006
  0
LINE
  5
19F
100
AcDbEntity
  8
ext3
  6
ByLayer
 62
  256
370
   -1
100
AcDbLine
 10
27.64081002575139
 20
40.01366780861107
 11
73.23343436303631
 21
48.05287766704375
  0
ARC
  5
1A0
100
AcDbEntity
  8
ext3
  6
ByLayer
 62
  256
370
   -1
100
AcDbCircle
 10
100.0620780276938
 20
-104.0999201354115
 40
154.5
100
AcDbArc
 50
90
 51
100.000000081006
  0
LINE
  5
1A1
100
AcDbEntity
  8
ext3
  6
ByLayer
 62
  256
370
   -1
100
AcDbLine
 10
100.0620780276938
 20
50.40007986458851
 11
112.5732239272139
 21
50.40007986458851
  0
ARC
  5
1A2
100
AcDbEntity
  8
ext3
  6
ByLayer
 62
  256
370
   -1
100
AcDbCircle
 10
112.5732239272139
 20
43.90007986458851
 40
6.5
100
AcDbArc
 50
0
 51
90
  0
LINE
  5
1A3
100
AcDbEntity
  8
ext3
  6
ByLayer
 62
  256
370
   -1
100
AcDbLine
 10
119.0732239272139
 20
43.90007986458851
 11
119.0732239272139
 21
-31.2399201354115
  0
ARC
  5
1A4
100
AcDbEntity
  8
ext3
  6
ByLayer
 62
  256
370
   -1
100
AcDbCircle
 10
112.5732239272139
 20
-31.2399201354115
 40
6.5
100
AcDbArc
 50
270
 51
0
  0
LINE
  5
1A5
100
AcDbEntity
  8
ext3
  6
ByLayer
 62
  256
370
   -1
100
AcDbLine
 10
107.6223687504887
 20
-37.7399201354115
 11
112.5732239272139
 21
-37.7399201354115
  0
ARC
  5
1A6
100
AcDbEntity
  8
ext3
  6
ByLayer
 62
  256
370
   -1
100
AcDbCircle
 10
107.6223687504887
 20
-183.2399201354115
 40
145.5
100
AcDbArc
 50
90
 51
94.99999999671995
  0
LINE
  5
1A7
100
AcDbEntity
  8
ext3
  6
ByLayer
 62
  256
370
   -1
100
AcDbLine
 10
80.64774201380476
 20
-39.54410781433308
 11
94.94120818900234
 21
-38.29359156233658
  0
ARC
  5
1A8
100
AcDbEntity
  8
ext3
  6
ByLayer
 62
  256
370
   -1
100
AcDbCircle
 10
93.32890257529112
 20
-184.490436387408
 40
145.5
100
AcDbArc
 50
94.99999999671994
 51
100.0000000810061
  0
LINE
  5
1A9
100
AcDbEntity
  8
ext3
  6
ByLayer
 62
  256
370
   -1
100
AcDbLine
 10
29.20364388298766
 20
-48.05287766704372
 11
68.06309252216677
 21
-41.20090835985308
  0
ARC
  5
1AA
100
AcDbEntity
  8
ext3
  6
ByLayer
 62
  256
370
   -1
100
AcDbCircle
 10
2.37500021832993
 20
104.0999201354115
 40
154.5
100
AcDbArc
 50
259.999999918994
 51
280.0000000810061
  0
LINE
  5
1AB
100
AcDbEntity
  8
ext3
  6
ByLayer
 62
  256
370
   -1
100
AcDbLine
 10
-63.31309192131015
 20
-41.20090838880547
 11
-24.45364344632765
 21
-48.05287766704375
  0
ARC
  5
1AC
100
AcDbEntity
  8
ext3
  6
ByLayer
 62
  256
370
   -1
100
AcDbCircle
 10
-102.8723684805597
 20
-183.2399201354115
 40
145.5
100
AcDbArc
 50
85.00000000328005
 51
90
  0
LINE
  5
1AD
100
AcDbEntity
  8
ext3
  6
ByLayer
 62
  256
370
   -1
100
AcDbLine
 10
-90.19120791907328
 20
-38.29359156233651
 11
-75.89774141294785
 21
-39.54410784328545
  0
ARC
  5
1AE
100
AcDbEntity
  8
ext3
  6
ByLayer
 62
  256
370
   -1
100
AcDbCircle
 10
-88.57890197443425
 20
-184.4904364163604
 40
145.5
100
AcDbArc
 50
79.99999991899404
 51
85.00000000328006
  0
LINE
  5
1AF
100
AcDbEntity
  8
ext3
  6
ByLayer
 62
  256
370
   -1
100
AcDbLine
 10
-112.573223927214
 20
-37.73992013541148
 11
-102.8723684805597
 21
-37.73992013541148
  0
ARC
  5
1B0
100
AcDbEntity
  8
ext3
  6
ByLayer
 62
  256
370
   -1
100
AcDbCircle
 10
-112.573223927214
 20
-31.23992013541148
 40
6.5
100
AcDbArc
 50
180
 51
270
  0
LINE
  5
1B1
100
AcDbEntity
  8
ext3
  6
ByLayer
 62
  256
370
   -1
100
AcDbLine
 10
-119.073223927214
 20
43.90007986458851
 11
-119.073223927214
 21
-31.23992013541148
  0
ARC
  5
1B2
100
AcDbEntity
  8
ext3
  6
ByLayer
 62
  256
370
   -1
100
AcDbCircle
 10
-112.573223927214
 20
43.90007986458851
 40
6.5
100
AcDbArc
 50
90
 51
180
  0
LINE
  5
1B3
100
AcDbEntity
  8
ext3
  6
ByLayer
 62
  256
370
   -1
100
AcDbLine
 10
-112.573223927214
 20
50.40007986458851
 11
-95.31207808243931
 21
50.40007986458851
  0
ARC
  5
1B4
100
AcDbEntity
  8
ext3
  6
ByLayer
 62
  256
370
   -1
100
AcDbCircle
 10
-95.31207808243931
 20
-104.0999201354115
 40
154.5
100
AcDbArc
 50
79.99999991899396
 51
90
  0
LINE
  5
1B5
100
AcDbEntity
  8
ext3
  6
ByLayer
 62
  256
370
   -1
100
AcDbLine
 10
-68.4834344177816
 20
48.05287766704377
 11
-22.89081008049703
 21
40.01366780861112
  0
LINE
  5
1B6
100
AcDbEntity
  8
int
  6
ByLayer
 62
  256
370
   -1
100
AcDbLine
 10
-69.4384994026076
 20
42.63643502682692
 11
-23.84587506532304
 21
34.59722516839427
  0
LINE
  5
1B7
100
AcDbEntity
  8
int
  6
ByLayer
 62
  256
370
   -1
100
AcDbLine
 10
28.59587501057739
 20
34.59722516839422
 11
74.1884993478623
 21
42.63643502682689
  0
ARC
  5
1B8
100
AcDbEntity
  8
int
  6
ByLayer
 62
  256
370
   -1
100
AcDbCircle
 10
100.0620780276938
 20
-104.0999201354115
 40
149
100
AcDbArc
 50
90
 51
100.000000081006
  0
LINE
  5
1B9
100
AcDbEntity
  8
int
  6
ByLayer
 62
  256
370
   -1
100
AcDbLine
 10
100.0620780276938
 20
44.90007986458851
 11
112.5732239272139
 21
44.90007986458851
  0
LINE
  5
1BA
100
AcDbEntity
  8
int
  6
ByLayer
 62
  256
370
   -1
100
AcDbLine
 10
113.5732239272139
 20
43.90007986458851
 11
113.5732239272139
 21
-31.2399201354115
  0
ARC
  5
1BB
100
AcDbEntity
  8
int
  6
ByLayer
 62
  256
370
   -1
100
AcDbCircle
 10
112.5732239272139
 20
43.90007986458851
 40
1
100
AcDbArc
 50
0
 51
90
  0
ARC
  5
1BC
100
AcDbEntity
  8
int
  6
ByLayer
 62
  256
370
   -1
100
AcDbCircle
 10
112.5732239272139
 20
-31.2399201354115
 40
1
100
AcDbArc
 50
270
 51
0
  0
LINE
  5
1BD
100
AcDbEntity
  8
int
  6
ByLayer
 62
  256
370
   -1
100
AcDbLine
 10
107.6223687504887
 20
-32.2399201354115
 11
112.5732239272139
 21
-32.2399201354115
  0
ARC
  5
1BE
100
AcDbEntity
  8
int
  6
ByLayer
 62
  256
370
   -1
100
AcDbCircle
 10
107.6223687504887
 20
-183.2399201354115
 40
151
100
AcDbArc
 50
90
 51
94.99999999671995
  0
LINE
  5
1BF
100
AcDbEntity
  8
int
  6
ByLayer
 62
  256
370
   -1
100
AcDbLine
 10
80.16838542900631
 20
-34.06503697480105
 11
94.46185160420389
 21
-32.81452072280453
  0
ARC
  5
1C0
100
AcDbEntity
  8
int
  6
ByLayer
 62
  256
370
   -1
100
AcDbCircle
 10
93.32890257529112
 20
-184.490436387408
 40
151
100
AcDbArc
 50
94.99999999671994
 51
100.0000000810061
  0
LINE
  5
1C1
100
AcDbEntity
  8
int
  6
ByLayer
 62
  256
370
   -1
100
AcDbLine
 10
28.24857889816165
 20
-42.63643502682687
 11
67.10802753734076
 21
-35.78446571963623
  0
LINE
  5
1C2
100
AcDbEntity
  8
int
  6
ByLayer
 62
  256
370
   -1
100
AcDbLine
 10
-62.35802693648415
 20
-35.78446574858861
 11
-23.49857846150164
 21
-42.6364350268269
  0
ARC
  5
1C3
100
AcDbEntity
  8
int
  6
ByLayer
 62
  256
370
   -1
100
AcDbCircle
 10
-88.57890197443425
 20
-184.4904364163604
 40
151
100
AcDbArc
 50
79.99999991899404
 51
85.00000000328006
  0
LINE
  5
1C4
100
AcDbEntity
  8
int
  6
ByLayer
 62
  256
370
   -1
100
AcDbLine
 10
-89.71185133427483
 20
-32.81452072280446
 11
-75.4183848281494
 21
-34.06503700375341
  0
ARC
  5
1C5
100
AcDbEntity
  8
int
  6
ByLayer
 62
  256
370
   -1
100
AcDbCircle
 10
-102.8723684805597
 20
-183.2399201354115
 40
151
100
AcDbArc
 50
85.00000000328005
 51
90
  0
LINE
  5
1C6
100
AcDbEntity
  8
int
  6
ByLayer
 62
  256
370
   -1
100
AcDbLine
 10
-112.573223927214
 20
-32.23992013541148
 11
-102.8723684805597
 21
-32.23992013541148
  0
ARC
  5
1C7
100
AcDbEntity
  8
int
  6
ByLayer
 62
  256
370
   -1
100
AcDbCircle
 10
-112.573223927214
 20
-31.23992013541148
 40
1
100
AcDbArc
 50
180
 51
270
  0
LINE
  5
1C8
100
AcDbEntity
  8
int
  6
ByLayer
 62
  256
370
   -1
100
AcDbLine
 10
-113.573223927214
 20
43.90007986458851
 11
-113.573223927214
 21
-31.23992013541148
  0
ARC
  5
1C9
100
AcDbEntity
  8
int
  6
ByLayer
 62
  256
370
   -1
100
AcDbCircle
 10
-112.573223927214
 20
43.90007986458851
 40
1
100
AcDbArc
 50
90
 51
180
  0
LINE
  5
1CA
100
AcDbEntity
  8
int
  6
ByLayer
 62
  256
370
   -1
100
AcDbLine
 10
-112.573223927214
 20
44.90007986458851
 11
-95.31207808243931
 21
44.90007986458851
  0
ARC
  5
1CB
100
AcDbEntity
  8
int
  6
ByLayer
 62
  256
370
   -1
100
AcDbCircle
 10
-95.31207808243931
 20
-104.0999201354115
 40
149
100
AcDbArc
 50
79.99999991899396
 51
90
  0
CIRCLE
  5
1CC
100
AcDbEntity
  8
int
  6
ByLayer
 62
  256
370
   -1
100
AcDbCircle
 10
2.374999999999982
 20
-23.61444293541149
 40
1.1
  0
ARC
  5
1CD
100
AcDbEntity
  8
int
  6
ByLayer
 62
  256
370
   -1
100
AcDbCircle
 10
7.48415776465178
 20
-19.25761277494113
 40
3
100
AcDbArc
 50
10.00000008100602
 51
89.99999999999993
  0
LINE
  5
1CE
100
AcDbEntity
  8
int
  6
ByLayer
 62
  256
370
   -1
100
AcDbLine
 10
7.484157764651783
 20
-16.25761277494113
 11
-2.734157764651817
 21
-16.25761277494113
  0
ARC
  5
1CF
100
AcDbEntity
  8
int
  6
ByLayer
 62
  256
370
   -1
100
AcDbCircle
 10
-2.734157764651817
 20
-19.25761277494113
 40
3
100
AcDbArc
 50
90
 51
169.9999999189941
  0
CIRCLE
  5
1D0
100
AcDbEntity
  8
int
  6
ByLayer
 62
  256
370
   -1
100
AcDbCircle
 10
-84.28737599984862
 20
-3.359920135411489
 40
1.1
  0
CIRCLE
  5
1D1
100
AcDbEntity
  8
int
  6
ByLayer
 62
  256
370
   -1
100
AcDbCircle
 10
-84.28737599984862
 20
-3.359920135411489
 40
4.1
  0
CIRCLE
  5
1D2
100
AcDbEntity
  8
int
  6
ByLayer
 62
  256
370
   -1
100
AcDbCircle
 10
87.84987599984856
 20
-3.35992013541149
 40
1.1
  0
CIRCLE
  5
1D3
100
AcDbEntity
  8
int
  6
ByLayer
 62
  256
370
   -1
100
AcDbCircle
 10
87.84987599984856
 20
-3.35992013541149
 40
4.1
  0
LINE
  5
1D4
100
AcDbEntity
  8
int
  6
ByLayer
 62
  256
370
   -1
100
AcDbLine
 10
10.43858102295188
 20
-18.73666823776331
 11
14.47750447184929
 21
-41.64254117494912
  0
ARC
  5
1D5
100
AcDbEntity
  8
int
  6
ByLayer
 62
  256
370
   -1
100
AcDbCircle
 10
2.37500021832993
 20
104.0999201354115
 40
149
100
AcDbArc
 50
275.919417817866
 51
280.0000000810061
  0
ARC
  5
1D6
100
AcDbEntity
  8
int
  6
ByLayer
 62
  256
370
   -1
100
AcDbCircle
 10
17.4319277301494
 20
-41.1215966377713
 40
3
100
AcDbArc
 50
190.000000081006
 51
275.9194178178647
  0
LINE
  5
1D7
100
AcDbEntity
  8
int
  6
ByLayer
 62
  256
370
   -1
100
AcDbLine
 10
-5.68858102295192
 20
-18.73666823776331
 11
-9.72750446400962
 21
-41.64254113048797
  0
ARC
  5
1D8
100
AcDbEntity
  8
int
  6
ByLayer
 62
  256
370
   -1
100
AcDbCircle
 10
2.37500021832993
 20
104.0999201354115
 40
149
100
AcDbArc
 50
259.999999918994
 51
264.080582012947
  0
ARC
  5
1D9
100
AcDbEntity
  8
int
  6
ByLayer
 62
  256
370
   -1
100
AcDbCircle
 10
-12.68192772230972
 20
-41.12159659331016
 40
3
100
AcDbArc
 50
264.0805820129461
 51
349.9999999189941
  0
CIRCLE
  5
1DA
100
AcDbEntity
  8
int
  6
ByLayer
 62
  256
370
   -1
100
AcDbCircle
 10
-2.302836850000023
 20
26.35156356458851
 40
1.1
  0
ARC
  5
1DB
100
AcDbEntity
  8
int
  6
ByLayer
 62
  256
370
   -1
100
AcDbCircle
 10
-2.302836850000023
 20
26.35156356458851
 40
4.1
100
AcDbArc
 50
190.0000052891705
 51
349.999999918994
  0
ARC
  5
1DC
100
AcDbEntity
  8
int
  6
ByLayer
 62
  256
370
   -1
100
AcDbCircle
 10
2.374999972627222
 20
183.303195836166
 40
151
100
AcDbArc
 50
271.1376180325369
 51
280.000000081006
  0
LINE
  5
1DD
100
AcDbEntity
  8
int
  6
ByLayer
 62
  256
370
   -1
100
AcDbLine
 10
2.478073579046258
 20
29.85449494632392
 11
1.734874936343448
 21
25.63960603044549
  0
ARC
  5
1DE
100
AcDbEntity
  8
int
  6
ByLayer
 62
  256
370
   -1
100
AcDbCircle
 10
5.432496837346359
 20
29.3335504091461
 40
3
100
AcDbArc
 50
91.1376180325372
 51
169.9999999189938
  0
ARC
  5
1DF
100
AcDbEntity
  8
int
  6
ByLayer
 62
  256
370
   -1
100
AcDbCircle
 10
2.374999972627222
 20
183.303195836166
 40
151
100
AcDbArc
 50
259.999999918994
 51
265.3452246660057
  0
ARC
  5
1E0
100
AcDbEntity
  8
int
  6
ByLayer
 62
  256
370
   -1
100
AcDbCircle
 10
-10.12238000514959
 20
29.81112602898977
 40
3
100
AcDbArc
 50
10.00000008100594
 51
85.34522466600586
  0
LINE
  5
1E1
100
AcDbEntity
  8
int
  6
ByLayer
 62
  256
370
   -1
100
AcDbLine
 10
-6.34054857162681
 20
25.63960566341903
 11
-7.167956746849489
 21
30.33207056616758
  0
LINE
  5
1E2
100
AcDbEntity
  8
rpi
  6
ByLayer
 62
  256
370
   -1
100
AcDbLine
 10
-10.14438100991262
 20
16.02879422417708
 11
7.582158539887985
 21
19.154461447244
  0
LINE
  5
1E3
100
AcDbEntity
  8
rpi
  6
ByLayer
 62
  256
370
   -1
100
AcDbLine
 10
11.74971483731048
 20
-4.480924619156822
 11
7.582158539887985
 21
19.154461447244
  0
LINE
  5
1E4
100
AcDbEntity
  8
rpi
  6
ByLayer
 62
  256
370
   -1
100
AcDbLine
 10
-5.976824712490114
 20
-7.606591842223727
 11
-10.14438100991262
 21
16.02879422417708
  0
LINE
  5
1E5
100
AcDbEntity
  8
rpi
  6
ByLayer
 62
  256
370
   -1
100
AcDbLine
 10
-5.976824712490114
 20
-7.606591842223727
 11
11.74971483731048
 21
-4.480924619156822
  0
LINE
  5
1E6
100
AcDbEntity
  8
placement
  6
ByLayer
 62
  256
370
   -1
100
AcDbLine
 10
-10.14438100991262
 20
16.02879422417708
 11
11.74971483731048
 21
-4.480924619156822
  0
LINE
  5
1E7
100
AcDbEntity
  8
noname
  6
ByLayer
 62
  256
370
   -1
100
AcDbLine
 10
69.61031452524551
 20
-15.91617154689624
 11
71.04838428197209
 21
-32.35338409213807
  0
LINE
  5
1E8
100
AcDbEntity
  8
noname
  6
ByLayer
 62
  256
370
   -1
100
AcDbLine
 10
69.61031452524551
 20
-15.91617154689624
 11
86.04752707048735
 21
-14.47810179016966
  0
LINE
  5
1E9
100
AcDbEntity
  8
noname
  6
ByLayer
 62
  256
370
   -1
100
AcDbLine
 10
66.42023399294536
 20
-16.61263666497641
 11
82.6695618748621
 21
-13.74744171732825
  0
LINE
  5
1EA
100
AcDbEntity
  8
noname
  6
ByLayer
 62
  256
370
   -1
100
AcDbLine
 10
63.55503904529717
 20
-0.363308783059673
 11
66.42023399294536
 21
-16.61263666497641
  0
LINE
  5
1EB
100
AcDbEntity
  8
placement
  6
ByLayer
 62
  256
370
   -1
100
AcDbLine
 10
50.17090597956573
 20
-19.47783165349474
 11
63.95821447956576
 21
-17.04675715349475
  0
LINE
  5
1EC
100
AcDbEntity
  8
placement
  6
ByLayer
 62
  256
370
   -1
100
AcDbLine
 10
-63.8860513795658
 20
-16.22192835349473
 11
-50.09874287956578
 21
-18.65300285349474
  0
ARC
  5
1ED
100
AcDbEntity
  8
int.2
  6
ByLayer
 62
  256
370
   -1
100
AcDbCircle
 10
110.5732239272139
 20
-31.90007986458851
 40
3
100
AcDbArc
 50
270
 51
359.9999999999997
  0
ARC
  5
1EE
100
AcDbEntity
  8
int.2
  6
ByLayer
 62
  256
370
   -1
100
AcDbCircle
 10
85.5732239272139
 20
-41.9000798645885
 40
3
100
AcDbArc
 50
270
 51
0
  0
LINE
  5
1EF
100
AcDbEntity
  8
int.2
  6
ByLayer
 62
  256
370
   -1
100
AcDbLine
 10
88.5732239272139
 20
-37.9000798645885
 11
88.5732239272139
 21
-41.9000798645885
  0
LINE
  5
1F0
100
AcDbEntity
  8
int.2
  6
ByLayer
 62
  256
370
   -1
100
AcDbLine
 10
110.5732239272139
 20
-34.90007986458851
 11
91.5732239272139
 21
-34.90007986458851
  0
ARC
  5
1F1
100
AcDbEntity
  8
int.2
  6
ByLayer
 62
  256
370
   -1
100
AcDbCircle
 10
91.5732239272139
 20
-37.90007986458851
 40
3
100
AcDbArc
 50
90
 51
179.9999999999999
  0
CIRCLE
  5
1F2
100
AcDbEntity
  8
int.2
  6
ByLayer
 62
  256
370
   -1
100
AcDbCircle
 10
101.0732239272139
 20
-39.9000798645885
 40
1.1
  0
ARC
  5
1F3
100
AcDbEntity
  8
int.2
  6
ByLayer
 62
  256
370
   -1
100
AcDbCircle
 10
-91.5732239272139
 20
-37.90007986458851
 40
3
100
AcDbArc
 50
1.272221872585407e-13
 51
90
  0
LINE
  5
1F4
100
AcDbEntity
  8
int.2
  6
ByLayer
 62
  256
370
   -1
100
AcDbLine
 10
-110.573223927214
 20
-34.90007986458851
 11
-91.5732239272139
 21
-34.90007986458851
  0
ARC
  5
1F5
100
AcDbEntity
  8
int.2
  6
ByLayer
 62
  256
370
   -1
100
AcDbCircle
 10
-110.573223927214
 20
-31.90007986458851
 40
3
100
AcDbArc
 50
180.0000000000001
 51
270
  0
LINE
  5
1F6
100
AcDbEntity
  8
int.2
  6
ByLayer
 62
  256
370
   -1
100
AcDbLine
 10
-88.5732239272139
 20
-37.9000798645885
 11
-88.5732239272139
 21
-41.90007986458848
  0
ARC
  5
1F7
100
AcDbEntity
  8
int.2
  6
ByLayer
 62
  256
370
   -1
100
AcDbCircle
 10
-85.5732239272139
 20
-41.90007986458848
 40
3
100
AcDbArc
 50
180
 51
270
  0
CIRCLE
  5
1F8
100
AcDbEntity
  8
int.2
  6
ByLayer
 62
  256
370
   -1
100
AcDbCircle
 10
-101.0732239272139
 20
-39.9000798645885
 40
1.1
  0
ARC
  5
1F9
100
AcDbEntity
  8
int.2
  6
ByLayer
 62
  256
370
   -1
100
AcDbCircle
 10
2.374999972627393
 20
181.7800559179577
 40
150
100
AcDbArc
 50
259.999999918994
 51
280.000000081006
  0
LINE
  5
1FA
100
AcDbEntity
  8
int.2
  6
ByLayer
 62
  256
370
   -1
100
AcDbLine
 10
28.42222683151834
 20
34.05889300295264
 11
76.98172505152542
 21
42.62124277959359
  0
ARC
  5
1FB
100
AcDbEntity
  8
int.2
  6
ByLayer
 62
  256
370
   -1
100
AcDbCircle
 10
103.0289519104164
 20
-105.0999201354115
 40
150
100
AcDbArc
 50
90.00000000000001
 51
100.000000081006
  0
LINE
  5
1FC
100
AcDbEntity
  8
int.2
  6
ByLayer
 62
  256
370
   -1
100
AcDbLine
 10
-72.23172510627083
 20
42.62124277959359
 11
-23.67222688626359
 21
34.0588930029526
  0
ARC
  5
1FD
100
AcDbEntity
  8
int.2
  6
ByLayer
 62
  256
370
   -1
100
AcDbCircle
 10
-98.27895196516181
 20
-105.0999201354115
 40
150
100
AcDbArc
 50
79.99999991899396
 51
90
  0
CIRCLE
  5
1FE
100
AcDbEntity
  8
int.2
  6
ByLayer
 62
  256
370
   -1
100
AcDbCircle
 10
-30
 20
40
 40
1.1
  0
CIRCLE
  5
1FF
100
AcDbEntity
  8
int.2
  6
ByLayer
 62
  256
370
   -1
100
AcDbCircle
 10
30
 20
40
 40
1.1
  0
ARC
  5
200
100
AcDbEntity
  8
int.2
  6
ByLayer
 62
  256
370
   -1
100
AcDbCircle
 10
-0.6461020317626462
 20
-13.17443079353003
 40
3
100
AcDbArc
 50
89.99999999999996
 51
169.999999918994
  0
LINE
  5
201
100
AcDbEntity
  8
int.2
  6
ByLayer
 62
  256
370
   -1
100
AcDbLine
 10
-0.646102031762644
 20
-10.17443079353003
 11
5.396102031762608
 21
-10.17443079353004
  0
ARC
  5
202
100
AcDbEntity
  8
int.2
  6
ByLayer
 62
  256
370
   -1
100
AcDbCircle
 10
5.396102031762605
 20
-13.17443079353004
 40
3
100
AcDbArc
 50
10.00000008100599
 51
89.99999999999994
  0
LINE
  5
203
100
AcDbEntity
  8
int.2
  6
ByLayer
 62
  256
370
   -1
100
AcDbLine
 10
85.5732239272139
 20
-44.90007986458851
 11
16.55376871606221
 21
-44.9000798645885
  0
LINE
  5
204
100
AcDbEntity
  8
int.2
  6
ByLayer
 62
  256
370
   -1
100
AcDbLine
 10
8.350525290062706
 20
-12.65348625635222
 11
13.59934545776212
 21
-42.42102440176632
  0
ARC
  5
205
100
AcDbEntity
  8
int.2
  6
ByLayer
 62
  256
370
   -1
100
AcDbCircle
 10
16.55376871606222
 20
-41.9000798645885
 40
3
100
AcDbArc
 50
190.000000081006
 51
269.9999999999998
  0
LINE
  5
206
100
AcDbEntity
  8
int.2
  6
ByLayer
 62
  256
370
   -1
100
AcDbLine
 10
-3.600525290062748
 20
-12.65348625635222
 11
-8.849345457762144
 21
-42.4210244017663
  0
LINE
  5
207
100
AcDbEntity
  8
int.2
  6
ByLayer
 62
  256
370
   -1
100
AcDbLine
 10
-11.80376871606225
 20
-44.90007986458849
 11
-85.5732239272139
 21
-44.90007986458848
  0
ARC
  5
208
100
AcDbEntity
  8
int.2
  6
ByLayer
 62
  256
370
   -1
100
AcDbCircle
 10
-11.80376871606225
 20
-41.90007986458849
 40
3
100
AcDbArc
 50
270
 51
349.9999999189941
  0
ARC
  5
209
100
AcDbEntity
  8
ajour
  6
ByLayer
 62
  256
370
   -1
100
AcDbCircle
 10
-91.5732239272139
 20
-37.90007986458851
 40
8
100
AcDbArc
 50
5.215908570454271
 51
90
  0
ARC
  5
20A
100
AcDbEntity
  8
ajour
  6
ByLayer
 62
  256
370
   -1
100
AcDbCircle
 10
-80.61877277711062
 20
-36.90007986458848
 40
3
100
AcDbArc
 50
185.2159085704543
 51
270
  0
LINE
  5
20B
100
AcDbEntity
  8
ajour
  6
ByLayer
 62
  256
370
   -1
100
AcDbLine
 10
-105.573223927214
 20
-29.90007986458851
 11
-91.5732239272139
 21
-29.90007986458851
  0
ARC
  5
20C
100
AcDbEntity
  8
ajour
  6
ByLayer
 62
  256
370
   -1
100
AcDbCircle
 10
-105.573223927214
 20
-26.90007986458851
 40
3
100
AcDbArc
 50
179.9999999999999
 51
270
  0
ARC
  5
20D
100
AcDbEntity
  8
ajour
  6
ByLayer
 62
  256
370
   -1
100
AcDbCircle
 10
29.92887206684883
 20
8.938889907021473
 40
20
100
AcDbArc
 50
100.000000081006
 51
190.000000081006
  0
LINE
  5
20E
100
AcDbEntity
  8
ajour
  6
ByLayer
 62
  256
370
   -1
100
AcDbLine
 10
10.23271701151481
 20
5.465926325836021
 11
15.31780552012633
 21
-23.37304344577395
  0
ARC
  5
20F
100
AcDbEntity
  8
ajour
  6
ByLayer
 62
  256
370
   -1
100
AcDbCircle
 10
35.01396057546034
 20
-19.9000798645885
 40
20
100
AcDbArc
 50
190.000000081006
 51
270
  0
LINE
  5
210
100
AcDbEntity
  8
ajour
  6
ByLayer
 62
  256
370
   -1
100
AcDbLine
 10
26.45590848566337
 20
28.63504496235548
 11
85.10026034602843
 21
38.97562654698902
  0
ARC
  5
211
100
AcDbEntity
  8
ajour
  6
ByLayer
 62
  256
370
   -1
100
AcDbCircle
 10
88.5732239272139
 20
19.27947149165501
 40
20
100
AcDbArc
 50
0
 51
100.000000081006
  0
LINE
  5
212
100
AcDbEntity
  8
ajour
  6
ByLayer
 62
  256
370
   -1
100
AcDbLine
 10
-30.26396057546038
 20
-39.90007986458849
 11
-80.61877277711062
 21
-39.90007986458848
  0
ARC
  5
213
100
AcDbEntity
  8
ajour
  6
ByLayer
 62
  256
370
   -1
100
AcDbCircle
 10
-30.26396057546037
 20
-19.90007986458849
 40
20
100
AcDbArc
 50
270
 51
349.999999918994
  0
LINE
  5
214
100
AcDbEntity
  8
ajour
  6
ByLayer
 62
  256
370
   -1
100
AcDbLine
 10
-5.48271701316564
 20
5.465926316474018
 11
-10.56780552012636
 21
-23.37304344577394
  0
ARC
  5
215
100
AcDbEntity
  8
ajour
  6
ByLayer
 62
  256
370
   -1
100
AcDbCircle
 10
-25.17887206849965
 20
8.938889897659459
 40
20
100
AcDbArc
 50
349.999999918994
 51
79.99999991899396
  0
LINE
  5
216
100
AcDbEntity
  8
ajour
  6
ByLayer
 62
  256
370
   -1
100
AcDbLine
 10
-108.573223927214
 20
20.1170246472916
 11
-108.573223927214
 21
-26.9000798645885
  0
LINE
  5
217
100
AcDbEntity
  8
ajour
  6
ByLayer
 62
  256
370
   -1
100
AcDbLine
 10
-85.10026034602853
 20
39.81317970262561
 11
-21.70590848731419
 21
28.63504495299346
  0
ARC
  5
218
100
AcDbEntity
  8
ajour
  6
ByLayer
 62
  256
370
   -1
100
AcDbCircle
 10
-88.573223927214
 20
20.1170246472916
 40
20
100
AcDbArc
 50
79.99999991899395
 51
180
  0
LINE
  5
219
100
AcDbEntity
  8
ajour
  6
ByLayer
 62
  256
370
   -1
100
AcDbLine
 10
105.5732239272139
 20
-29.90007986458851
 11
91.5732239272139
 21
-29.90007986458851
  0
LINE
  5
21A
100
AcDbEntity
  8
ajour
  6
ByLayer
 62
  256
370
   -1
100
AcDbLine
 10
108.5732239272139
 20
19.27947149165501
 11
108.5732239272139
 21
-26.9000798645885
  0
ARC
  5
21B
100
AcDbEntity
  8
ajour
  6
ByLayer
 62
  256
370
   -1
100
AcDbCircle
 10
105.5732239272139
 20
-26.90007986458851
 40
3
100
AcDbArc
 50
270
 51
7.63333123551244e-14
  0
ARC
  5
21C
100
AcDbEntity
  8
ajour
  6
ByLayer
 62
  256
370
   -1
100
AcDbCircle
 10
91.5732239272139
 20
-37.90007986458851
 40
8
100
AcDbArc
 50
90
 51
174.7840914295458
  0
LINE
  5
21D
100
AcDbEntity
  8
ajour
  6
ByLayer
 62
  256
370
   -1
100
AcDbLine
 10
80.61877277711071
 20
-39.90007986458851
 11
35.01396057546035
 21
-39.9000798645885
  0
ARC
  5
21E
100
AcDbEntity
  8
ajour
  6
ByLayer
 62
  256
370
   -1
100
AcDbCircle
 10
80.61877277711071
 20
-36.90007986458851
 40
3
100
AcDbArc
 50
270
 51
354.7840914295458
  0
LINE
  5
21F
100
AcDbEntity
  8
ext1.2
  6
ByLayer
 62
  256
370
   -1
100
AcDbLine
 10
-112.573223927214
 20
46.40007986458851
 11
111.5732239272139
 21
46.40007986458851
  0
ARC
  5
220
100
AcDbEntity
  8
ext1.2
  6
ByLayer
 62
  256
370
   -1
100
AcDbCircle
 10
111.5732239272139
 20
42.90007986458851
 40
3.5
100
AcDbArc
 50
0
 51
90
  0
LINE
  5
221
100
AcDbEntity
  8
ext1.2
  6
ByLayer
 62
  256
370
   -1
100
AcDbLine
 10
115.0732239272139
 20
42.90007986458851
 11
115.0732239272139
 21
-42.90007986458848
  0
ARC
  5
222
100
AcDbEntity
  8
ext1.2
  6
ByLayer
 62
  256
370
   -1
100
AcDbCircle
 10
111.5732239272139
 20
-42.90007986458851
 40
3.5
100
AcDbArc
 50
270
 51
4.071109992273301e-13
  0
LINE
  5
223
100
AcDbEntity
  8
ext1.2
  6
ByLayer
 62
  256
370
   -1
100
AcDbLine
 10
111.5732239272139
 20
-46.40007986458851
 11
-111.573223927214
 21
-46.40007986458848
  0
ARC
  5
224
100
AcDbEntity
  8
ext1.2
  6
ByLayer
 62
  256
370
   -1
100
AcDbCircle
 10
-111.573223927214
 20
-42.90007986458848
 40
3.5
100
AcDbArc
 50
179.9999999999999
 51
269.9999999999994
  0
LINE
  5
225
100
AcDbEntity
  8
ext1.2
  6
ByLayer
 62
  256
370
   -1
100
AcDbLine
 10
-115.073223927214
 20
43.90007986458851
 11
-115.073223927214
 21
-42.90007986458847
  0
ARC
  5
226
100
AcDbEntity
  8
ext1.2
  6
ByLayer
 62
  256
370
   -1
100
AcDbCircle
 10
-112.573223927214
 20
43.90007986458851
 40
2.5
100
AcDbArc
 50
90
 51
180
  0
LINE
  5
227
100
AcDbEntity
  8
ext2.2
  6
ByLayer
 62
  256
370
   -1
100
AcDbLine
 10
-112.573223927214
 20
50.40007986458851
 11
111.5732239272139
 21
50.40007986458851
  0
ARC
  5
228
100
AcDbEntity
  8
ext2.2
  6
ByLayer
 62
  256
370
   -1
100
AcDbCircle
 10
111.5732239272139
 20
42.90007986458851
 40
7.5
100
AcDbArc
 50
0
 51
90
  0
LINE
  5
229
100
AcDbEntity
  8
ext2.2
  6
ByLayer
 62
  256
370
   -1
100
AcDbLine
 10
119.0732239272139
 20
42.90007986458851
 11
119.0732239272139
 21
-42.90007986458848
  0
ARC
  5
22A
100
AcDbEntity
  8
ext2.2
  6
ByLayer
 62
  256
370
   -1
100
AcDbCircle
 10
111.5732239272139
 20
-42.90007986458851
 40
7.5
100
AcDbArc
 50
270
 51
4.071109992273301e-13
  0
LINE
  5
22B
100
AcDbEntity
  8
ext2.2
  6
ByLayer
 62
  256
370
   -1
100
AcDbLine
 10
111.5732239272139
 20
-50.40007986458851
 11
-111.573223927214
 21
-50.40007986458848
  0
ARC
  5
22C
100
AcDbEntity
  8
ext2.2
  6
ByLayer
 62
  256
370
   -1
100
AcDbCircle
 10
-111.573223927214
 20
-42.90007986458848
 40
7.5
100
AcDbArc
 50
179.9999999999999
 51
269.9999999999994
  0
LINE
  5
22D
100
AcDbEntity
  8
ext2.2
  6
ByLayer
 62
  256
370
   -1
100
AcDbLine
 10
-119.073223927214
 20
43.90007986458851
 11
-119.073223927214
 21
-42.90007986458847
  0
ARC
  5
22E
100
AcDbEntity
  8
ext2.2
  6
ByLayer
 62
  256
370
   -1
100
AcDbCircle
 10
-112.573223927214
 20
43.90007986458851
 40
6.5
100
AcDbArc
 50
90
 51
180
  0
LINE
  5
22F
100
AcDbEntity
  8
ext3.2
  6
ByLayer
 62
  256
370
   -1
100
AcDbLine
 10
-112.573223927214
 20
51.40007986458851
 11
111.5732239272139
 21
51.40007986458851
  0
ARC
  5
230
100
AcDbEntity
  8
ext3.2
  6
ByLayer
 62
  256
370
   -1
100
AcDbCircle
 10
-112.573223927214
 20
43.90007986458851
 40
7.5
100
AcDbArc
 50
90
 51
180
  0
LINE
  5
231
100
AcDbEntity
  8
ext3.2
  6
ByLayer
 62
  256
370
   -1
100
AcDbLine
 10
-120.073223927214
 20
43.90007986458851
 11
-120.073223927214
 21
-42.90007986458847
  0
ARC
  5
232
100
AcDbEntity
  8
ext3.2
  6
ByLayer
 62
  256
370
   -1
100
AcDbCircle
 10
-111.573223927214
 20
-42.90007986458848
 40
8.5
100
AcDbArc
 50
179.9999999999999
 51
269.9999999999994
  0
LINE
  5
233
100
AcDbEntity
  8
ext3.2
  6
ByLayer
 62
  256
370
   -1
100
AcDbLine
 10
111.5732239272139
 20
-51.40007986458851
 11
-111.573223927214
 21
-51.40007986458848
  0
ARC
  5
234
100
AcDbEntity
  8
ext3.2
  6
ByLayer
 62
  256
370
   -1
100
AcDbCircle
 10
111.5732239272139
 20
-42.90007986458851
 40
8.5
100
AcDbArc
 50
270
 51
4.071109992273301e-13
  0
LINE
  5
235
100
AcDbEntity
  8
ext3.2
  6
ByLayer
 62
  256
370
   -1
100
AcDbLine
 10
120.0732239272139
 20
42.90007986458851
 11
120.0732239272139
 21
-42.90007986458848
  0
ARC
  5
236
100
AcDbEntity
  8
ext3.2
  6
ByLayer
 62
  256
370
   -1
100
AcDbCircle
 10
111.5732239272139
 20
42.90007986458851
 40
8.5
100
AcDbArc
 50
0
 51
90
  0
LINE
  5
237
100
AcDbEntity
  8
int.2
  6
ByLayer
 62
  256
370
   -1
100
AcDbLine
 10
103.0289519104163
 20
44.90007986458851
 11
103.5732239272139
 21
44.90007986458851
  0
LINE
  5
238
100
AcDbEntity
  8
int.2
  6
ByLayer
 62
  256
370
   -1
100
AcDbLine
 10
113.5732239272139
 20
34.90007986458851
 11
113.5732239272139
 21
-31.90007986458853
  0
ARC
  5
239
100
AcDbEntity
  8
int.2
  6
ByLayer
 62
  256
370
   -1
100
AcDbCircle
 10
103.5732239272139
 20
34.90007986458851
 40
10
100
AcDbArc
 50
0
 51
90
  0
LINE
  5
23A
100
AcDbEntity
  8
int.2
  6
ByLayer
 62
  256
370
   -1
100
AcDbLine
 10
-103.573223927214
 20
44.90007986458851
 11
-98.27895196516181
 21
44.90007986458851
  0
LINE
  5
23B
100
AcDbEntity
  8
int.2
  6
ByLayer
 62
  256
370
   -1
100
AcDbLine
 10
-113.573223927214
 20
34.90007986458851
 11
-113.573223927214
 21
-31.90007986458851
  0
ARC
  5
23C
100
AcDbEntity
  8
int.2
  6
ByLayer
 62
  256
370
   -1
100
AcDbCircle
 10
-103.573223927214
 20
34.90007986458851
 40
10
100
AcDbArc
 50
90
 51
180
  0
ARC
  5
23D
100
AcDbEntity
  8
pcb.2
  6
ByLayer
 62
  256
370
   -1
100
AcDbCircle
 10
111.5732239272139
 20
42.90007986458851
 40
3
100
AcDbArc
 50
0
 51
90.00000000000081
  0
LINE
  5
23E
100
AcDbEntity
  8
pcb.2
  6
ByLayer
 62
  256
370
   -1
100
AcDbLine
 10
114.5732239272139
 20
42.90007986458851
 11
114.5732239272139
 21
-42.9000798645885
  0
ARC
  5
23F
100
AcDbEntity
  8
pcb.2
  6
ByLayer
 62
  256
370
   -1
100
AcDbCircle
 10
111.5732239272139
 20
-42.9000798645885
 40
3
100
AcDbArc
 50
270
 51
0
  0
LINE
  5
240
100
AcDbEntity
  8
pcb.2
  6
ByLayer
 62
  256
370
   -1
100
AcDbLine
 10
111.5732239272139
 20
-45.90007986458851
 11
-111.573223927214
 21
-45.90007986458848
  0
ARC
  5
241
100
AcDbEntity
  8
pcb.2
  6
ByLayer
 62
  256
370
   -1
100
AcDbCircle
 10
-111.573223927214
 20
-42.90007986458848
 40
3
100
AcDbArc
 50
180
 51
270.0000000000005
  0
LINE
  5
242
100
AcDbEntity
  8
pcb.2
  6
ByLayer
 62
  256
370
   -1
100
AcDbLine
 10
-114.573223927214
 20
42.90007986458851
 11
-114.573223927214
 21
-42.90007986458848
  0
LINE
  5
243
100
AcDbEntity
  8
pcb.2
  6
ByLayer
 62
  256
370
   -1
100
AcDbLine
 10
-111.573223927214
 20
45.90007986458851
 11
111.5732239272139
 21
45.90007986458851
  0
ARC
  5
244
100
AcDbEntity
  8
pcb.2
  6
ByLayer
 62
  256
370
   -1
100
AcDbCircle
 10
-111.573223927214
 20
42.90007986458851
 40
3
100
AcDbArc
 50
90
 51
180
  0
LINE
  5
245
100
AcDbEntity
  8
rpi.2
  6
ByLayer
 62
  256
370
   -1
100
AcDbLine
 10
-11.01162121158987
 20
26.16993467821737
 11
6.919883351843534
 21
27.73873807302718
  0
LINE
  5
246
100
AcDbEntity
  8
rpi.2
  6
ByLayer
 62
  256
370
   -1
100
AcDbLine
 10
-8.919883351843477
 20
2.261261926972825
 11
9.011621211589929
 21
3.83006532178263
  0
LINE
  5
247
100
AcDbEntity
  8
rpi.2
  6
ByLayer
 62
  256
370
   -1
100
AcDbLine
 10
-11.01162121158987
 20
26.16993467821737
 11
-8.717380375677848
 21
2.251658553700256
  0
LINE
  5
248
100
AcDbEntity
  8
rpi.2
  6
ByLayer
 62
  256
370
   -1
100
AcDbLine
 10
6.919883351843534
 20
27.73873807302718
 11
9.011621211589874
 21
3.830065321782626
  0
LINE
  5
249
100
AcDbEntity
  8
placement
  6
ByLayer
 62
  256
370
   -1
100
AcDbLine
 10
-11.01162121158987
 20
26.16993467821737
 11
9.011621211589874
 21
3.830065321782626
  0
ENDSEC
  0
SECTION
  2
OBJECTS
  0
DICTIONARY
  5
C
330
0
100
AcDbDictionary
281
    1
  3
ACAD_GROUP
350
D
  0
DICTIONARY
  5
D
330
C
100
AcDbDictionary
281
    1
  0
PLOTSETTINGS
  5
24A
100
AcDbPlotSettings
  6
1x1
 40
0
 41
0
 42
0
 43
0
  0
ENDSEC
  0
EOF
