999
dxfrw 0.6.3
  0
SECTION
  2
HEADER
  9
$ACADVER
  1
AC1021
  9
$DWGCODEPAGE
  3
ANSI_1252
  9
$INSBASE
 10
0
 20
0
 30
0
  9
$EXTMIN
 10
-112.095142021129
 20
-50.81159930881503
 30
0
  9
$EXTMAX
 10
112.095142021129
 20
49.81159930881504
 30
0
  9
$LIMMIN
 10
0
 20
0
  9
$LIMMAX
 10
420
 20
297
  9
$ORTHOMODE
 70
    0
  9
$REGENMODE
 70
    1
  9
$FILLMODE
 70
    1
  9
$QTEXTMODE
 70
    0
  9
$MIRRTEXT
 70
    0
  9
$LTSCALE
 40
1
  9
$ATTMODE
 70
    0
  9
$TEXTSIZE
 40
2.5
  9
$TRACEWID
 40
15.68
  9
$TEXTSTYLE
  7
STANDARD
  9
$CLAYER
  8
noname
  9
$CELTYPE
  6
BYLAYER
  9
$CECOLOR
 62
  256
  9
$CELTSCALE
 40
1
  9
$DISPSILH
 70
    0
  9
$DIMSCALE
 40
2.5
  9
$DIMASZ
 40
2.5
  9
$DIMEXO
 40
0.625
  9
$DIMDLI
 40
3.75
  9
$DIMRND
 40
0
  9
$DIMDLE
 40
0
  9
$DIMEXE
 40
1.25
  9
$DIMTP
 40
0
  9
$DIMTM
 40
0
  9
$DIMTXT
 40
2.5
  9
$DIMCEN
 40
2.5
  9
$DIMTSZ
 40
0
  9
$DIMTOL
 70
    0
  9
$DIMLIM
 70
    0
  9
$DIMTIH
 70
    0
  9
$DIMTOH
 70
    0
  9
$DIMSE1
 70
    0
  9
$DIMSE2
 70
    0
  9
$DIMTAD
 70
    1
  9
$DIMZIN
 70
    8
  9
$DIMBLK
  1

  9
$DIMASO
 70
    1
  9
$DIMSHO
 70
    1
  9
$DIMPOST
  1

  9
$DIMAPOST
  1

  9
$DIMALT
 70
    0
  9
$DIMALTD
 70
    3
  9
$DIMALTF
 40
0.03937
  9
$DIMLFAC
 40
1
  9
$DIMTOFL
 70
    1
  9
$DIMTVP
 40
0
  9
$DIMTIX
 70
    0
  9
$DIMSOXD
 70
    0
  9
$DIMSAH
 70
    0
  9
$DIMBLK1
  1

  9
$DIMBLK2
  1

  9
$DIMSTYLE
  2
Standard
  9
$DIMCLRD
 70
    0
  9
$DIMCLRE
 70
    0
  9
$DIMCLRT
 70
    0
  9
$DIMTFAC
 40
1
  9
$DIMGAP
 40
0.625
  9
$DIMJUST
 70
    0
  9
$DIMSD1
 70
    0
  9
$DIMSD2
 70
    0
  9
$DIMTOLJ
 70
    0
  9
$DIMTZIN
 70
    8
  9
$DIMALTZ
 70
    0
  9
$DIMALTTZ
 70
    0
  9
$DIMUPT
 70
    0
  9
$DIMDEC
 70
    2
  9
$DIMTDEC
 70
    2
  9
$DIMALTU
 70
    2
  9
$DIMALTTD
 70
    3
  9
$DIMTXSTY
  7
STANDARD
  9
$DIMAUNIT
 70
    0
  9
$DIMADEC
 70
    0
  9
$DIMALTRND
 40
0
  9
$DIMAZIN
 70
    0
  9
$DIMDSEP
 70
   44
  9
$DIMATFIT
 70
    3
  9
$DIMFRAC
 70
    0
  9
$DIMLDRBLK
  1
STANDARD
  9
$DIMLUNIT
 70
    2
  9
$DIMLWD
 70
   -2
  9
$DIMLWE
 70
   -2
  9
$DIMTMOVE
 70
    0
  9
$DIMFXL
 40
1
  9
$DIMFXLON
 70
    0
  9
$DIMJOGANG
 40
0.7854
  9
$DIMTFILL
 70
    0
  9
$DIMTFILLCLR
 70
    0
  9
$DIMARCSYM
 70
    0
  9
$DIMLTYPE
  6

  9
$DIMLTEX1
  6

  9
$DIMLTEX2
  6

  9
$LUNITS
 70
    2
  9
$LUPREC
 70
    4
  9
$SKETCHINC
 40
1
  9
$FILLETRAD
 40
0
  9
$AUNITS
 70
    0
  9
$AUPREC
 70
    2
  9
$MENU
  1
.
  9
$ELEVATION
 40
0
  9
$PELEVATION
 40
0
  9
$THICKNESS
 40
0
  9
$LIMCHECK
 70
    0
  9
$CHAMFERA
 40
0
  9
$CHAMFERB
 40
0
  9
$CHAMFERC
 40
0
  9
$CHAMFERD
 40
0
  9
$SKPOLY
 70
    0
  9
$USRTIMER
 70
    1
  9
$ANGBASE
 50
0
  9
$ANGDIR
 70
    0
  9
$PDMODE
 70
   34
  9
$PDSIZE
 40
0
  9
$PLINEWID
 40
0
  9
$SPLFRAME
 70
    0
  9
$SPLINETYPE
 70
    2
  9
$SPLINESEGS
 70
    8
  9
$HANDSEED
  5
20000
  9
$SURFTAB1
 70
    6
  9
$SURFTAB2
 70
    6
  9
$SURFTYPE
 70
    6
  9
$SURFU
 70
    6
  9
$SURFV
 70
    6
  9
$UCSBASE
  2

  9
$UCSNAME
  2

  9
$UCSORG
 10
0
 20
0
 30
0
  9
$UCSXDIR
 10
1
 20
0
 30
0
  9
$UCSYDIR
 10
0
 20
1
 30
0
  9
$UCSORTHOREF
  2

  9
$UCSORTHOVIEW
 70
    0
  9
$UCSORGTOP
 10
0
 20
0
 30
0
  9
$UCSORGBOTTOM
 10
0
 20
0
 30
0
  9
$UCSORGLEFT
 10
0
 20
0
 30
0
  9
$UCSORGRIGHT
 10
0
 20
0
 30
0
  9
$UCSORGFRONT
 10
0
 20
0
 30
0
  9
$UCSORGBACK
 10
0
 20
0
 30
0
  9
$PUCSBASE
  2

  9
$PUCSNAME
  2

  9
$PUCSORG
 10
0
 20
0
 30
0
  9
$PUCSXDIR
 10
1
 20
0
 30
0
  9
$PUCSYDIR
 10
0
 20
1
 30
0
  9
$PUCSORTHOREF
  2

  9
$PUCSORTHOVIEW
 70
    0
  9
$PUCSORGTOP
 10
0
 20
0
 30
0
  9
$PUCSORGBOTTOM
 10
0
 20
0
 30
0
  9
$PUCSORGLEFT
 10
0
 20
0
 30
0
  9
$PUCSORGRIGHT
 10
0
 20
0
 30
0
  9
$PUCSORGFRONT
 10
0
 20
0
 30
0
  9
$PUCSORGBACK
 10
0
 20
0
 30
0
  9
$USERI1
 70
    0
  9
$USERI2
 70
    0
  9
$USERI3
 70
    0
  9
$USERI4
 70
    0
  9
$USERI5
 70
    0
  9
$USERR1
 40
0
  9
$USERR2
 40
0
  9
$USERR3
 40
0
  9
$USERR4
 40
0
  9
$USERR5
 40
0
  9
$WORLDVIEW
 70
    1
  9
$SHADEDGE
 70
    3
  9
$SHADEDIF
 70
   70
  9
$TILEMODE
 70
    1
  9
$MAXACTVP
 70
   64
  9
$PINSBASE
 10
0
 20
0
 30
0
  9
$PLIMCHECK
 70
    0
  9
$PEXTMIN
 10
0
 20
0
 30
0
  9
$PEXTMAX
 10
0
 20
0
 30
0
  9
$GRIDMODE
 70
    1
  9
$SNAPSTYLE
 70
    0
  9
$PLIMMIN
 10
0
 20
0
  9
$PLIMMAX
 10
210
 20
297
  9
$UNITMODE
 70
    0
  9
$VISRETAIN
 70
    1
  9
$PLINEGEN
 70
    0
  9
$PSLTSCALE
 70
    1
  9
$TREEDEPTH
 70
 3020
  9
$CMLSTYLE
  2
Standard
  9
$CMLJUST
 70
    0
  9
$CMLSCALE
 40
20
  9
$PROXYGRAPHICS
 70
    1
  9
$MEASUREMENT
 70
    1
  9
$CELWEIGHT
370
   -1
  9
$ENDCAPS
280
    0
  9
$JOINSTYLE
280
    0
  9
$LWDISPLAY
290
    0
  9
$INSUNITS
 70
    4
  9
$HYPERLINKBASE
  1

  9
$STYLESHEET
  1

  9
$XEDIT
290
    1
  9
$CEPSNTYPE
380
    0
  9
$PSTYLEMODE
290
    1
  9
$EXTNAMES
290
    1
  9
$PSVPSCALE
 40
1
  9
$OLESTARTUP
290
    0
  9
$SORTENTS
280
  127
  9
$INDEXCTL
280
    0
  9
$HIDETEXT
280
    1
  9
$XCLIPFRAME
290
    0
  9
$HALOGAP
280
    0
  9
$OBSCOLOR
 70
  257
  9
$OBSLTYPE
280
    0
  9
$INTERSECTIONDISPLAY
280
    0
  9
$INTERSECTIONCOLOR
 70
  257
  9
$DIMASSOC
280
    1
  9
$PROJECTNAME
  1

  9
$CAMERADISPLAY
290
    0
  9
$LENSLENGTH
 40
50
  9
$CAMERAHEIGHT
 40
0
  9
$STEPSPERSEC
 40
2
  9
$STEPSIZE
 40
50
  9
$3DDWFPREC
 40
2
  9
$PSOLWIDTH
 40
5
  9
$PSOLHEIGHT
 40
80
  9
$LOFTANG1
 40
1.570796326794897
  9
$LOFTANG2
 40
1.570796326794897
  9
$LOFTMAG1
 40
0
  9
$LOFTMAG2
 40
0
  9
$LOFTPARAM
 70
    7
  9
$LOFTNORMALS
280
    1
  9
$LATITUDE
 40
1
  9
$LONGITUDE
 40
1
  9
$NORTHDIRECTION
 40
0
  9
$TIMEZONE
 70
-8000
  9
$LIGHTGLYPHDISPLAY
280
    1
  9
$TILEMODELIGHTSYNCH
280
    1
  9
$SOLIDHIST
280
    1
  9
$SHOWHIST
280
    1
  9
$DWFFRAME
280
    2
  9
$DGNFRAME
280
    0
  9
$REALWORLDSCALE
290
    1
  9
$INTERFERECOLOR
 62
    1
  9
$CSHADOW
280
    0
  9
$SHADOWPLANELOCATION
 40
0
  0
ENDSEC
  0
SECTION
  2
CLASSES
  0
ENDSEC
  0
SECTION
  2
TABLES
  0
TABLE
  2
VPORT
  5
8
330
0
100
AcDbSymbolTable
 70
    1
  0
VPORT
  5
31
330
2
100
AcDbSymbolTableRecord
100
AcDbViewportTableRecord
  2
*ACTIVE
 70
    0
 10
0
 20
0
 11
1
 21
1
 12
57.12837816503821
 22
39.32079361990017
 13
0
 23
0
 14
10
 24
10
 15
10
 25
10
 16
0
 26
0
 36
1
 17
0
 27
0
 37
0
 40
157.9007785678714
 41
1.445893089960887
 42
50
 43
0
 44
0
 50
0
 51
0
 71
    0
 72
  100
 73
    1
 74
    3
 75
    0
 76
    1
 77
    0
 78
    0
281
    0
 65
    1
110
0
120
0
130
0
111
1
121
0
131
0
112
0
122
1
132
0
 79
    0
146
0
348
10020
 60
    7
 61
    5
292
1
282
    1
141
0
142
0
 63
  250
421
3358443
  0
ENDTAB
  0
TABLE
  2
LTYPE
  5
5
330
0
100
AcDbSymbolTable
 70
    4
  0
LTYPE
  5
14
330
5
100
AcDbSymbolTableRecord
100
AcDbLinetypeTableRecord
  2
ByBlock
 70
    0
  3

 72
   65
 73
    0
 40
0
  0
LTYPE
  5
15
330
5
100
AcDbSymbolTableRecord
100
AcDbLinetypeTableRecord
  2
ByLayer
 70
    0
  3

 72
   65
 73
    0
 40
0
  0
LTYPE
  5
16
330
5
100
AcDbSymbolTableRecord
100
AcDbLinetypeTableRecord
  2
Continuous
 70
    0
  3
Solid line
 72
   65
 73
    0
 40
0
  0
LTYPE
  5
32
330
5
100
AcDbSymbolTableRecord
100
AcDbLinetypeTableRecord
  2
DOT
 70
    0
  3
Dot . . . . . . . . . . . . . . . . . . . . . .
 72
   65
 73
    2
 40
6.35
 49
0
 74
    0
 49
-6.35
 74
    0
  0
LTYPE
  5
33
330
5
100
AcDbSymbolTableRecord
100
AcDbLinetypeTableRecord
  2
DOTTINY
 70
    0
  3
Dot (.15x) .....................................
 72
   65
 73
    2
 40
0.9525
 49
0
 74
    0
 49
-0.9525
 74
    0
  0
LTYPE
  5
34
330
5
100
AcDbSymbolTableRecord
100
AcDbLinetypeTableRecord
  2
DOT2
 70
    0
  3
Dot (.5x) .....................................
 72
   65
 73
    2
 40
3.175
 49
0
 74
    0
 49
-3.175
 74
    0
  0
LTYPE
  5
35
330
5
100
AcDbSymbolTableRecord
100
AcDbLinetypeTableRecord
  2
DOTX2
 70
    0
  3
Dot (2x) .  .  .  .  .  .  .  .  .  .  .  .  .
 72
   65
 73
    2
 40
12.7
 49
0
 74
    0
 49
-12.7
 74
    0
  0
LTYPE
  5
36
330
5
100
AcDbSymbolTableRecord
100
AcDbLinetypeTableRecord
  2
DASHED
 70
    0
  3
Dashed _ _ _ _ _ _ _ _ _ _ _ _ _ _ _ _ _
 72
   65
 73
    2
 40
19.05
 49
12.7
 74
    0
 49
-6.35
 74
    0
  0
LTYPE
  5
37
330
5
100
AcDbSymbolTableRecord
100
AcDbLinetypeTableRecord
  2
DASHEDTINY
 70
    0
  3
Dashed (.15x) _ _ _ _ _ _ _ _ _ _ _ _ _ _ _ _ _
 72
   65
 73
    2
 40
2.8575
 49
1.905
 74
    0
 49
-0.9525
 74
    0
  0
LTYPE
  5
38
330
5
100
AcDbSymbolTableRecord
100
AcDbLinetypeTableRecord
  2
DASHED2
 70
    0
  3
Dashed (.5x) _ _ _ _ _ _ _ _ _ _ _ _ _ _ _ _ _
 72
   65
 73
    2
 40
9.524999999999999
 49
6.35
 74
    0
 49
-3.175
 74
    0
  0
LTYPE
  5
39
330
5
100
AcDbSymbolTableRecord
100
AcDbLinetypeTableRecord
  2
DASHEDX2
 70
    0
  3
Dashed (2x) ____  ____  ____  ____  ____  ___
 72
   65
 73
    2
 40
38.09999999999999
 49
25.4
 74
    0
 49
-12.7
 74
    0
  0
LTYPE
  5
3A
330
5
100
AcDbSymbolTableRecord
100
AcDbLinetypeTableRecord
  2
DASHDOT
 70
    0
  3
Dash dot __ . __ . __ . __ . __ . __ . __ . __
 72
   65
 73
    4
 40
25.4
 49
12.7
 74
    0
 49
-6.35
 74
    0
 49
0
 74
    0
 49
-6.35
 74
    0
  0
LTYPE
  5
3B
330
5
100
AcDbSymbolTableRecord
100
AcDbLinetypeTableRecord
  2
DASHDOTTINY
 70
    0
  3
Dash dot (.15x) _._._._._._._._._._._._._._._.
 72
   65
 73
    4
 40
3.81
 49
1.905
 74
    0
 49
-0.9525
 74
    0
 49
0
 74
    0
 49
-0.9525
 74
    0
  0
LTYPE
  5
3C
330
5
100
AcDbSymbolTableRecord
100
AcDbLinetypeTableRecord
  2
DASHDOT2
 70
    0
  3
Dash dot (.5x) _._._._._._._._._._._._._._._.
 72
   65
 73
    4
 40
12.7
 49
6.35
 74
    0
 49
-3.175
 74
    0
 49
0
 74
    0
 49
-3.175
 74
    0
  0
LTYPE
  5
3D
330
5
100
AcDbSymbolTableRecord
100
AcDbLinetypeTableRecord
  2
DASHDOTX2
 70
    0
  3
Dash dot (2x) ____  .  ____  .  ____  .  ___
 72
   65
 73
    4
 40
50.8
 49
25.4
 74
    0
 49
-12.7
 74
    0
 49
0
 74
    0
 49
-12.7
 74
    0
  0
LTYPE
  5
3E
330
5
100
AcDbSymbolTableRecord
100
AcDbLinetypeTableRecord
  2
DIVIDE
 70
    0
  3
Divide ____ . . ____ . . ____ . . ____ . . ____
 72
   65
 73
    6
 40
31.75
 49
12.7
 74
    0
 49
-6.35
 74
    0
 49
0
 74
    0
 49
-6.35
 74
    0
 49
0
 74
    0
 49
-6.35
 74
    0
  0
LTYPE
  5
3F
330
5
100
AcDbSymbolTableRecord
100
AcDbLinetypeTableRecord
  2
DIVIDETINY
 70
    0
  3
Divide (.15x) __..__..__..__..__..__..__..__.._
 72
   65
 73
    6
 40
4.7625
 49
1.905
 74
    0
 49
-0.9525
 74
    0
 49
0
 74
    0
 49
-0.9525
 74
    0
 49
0
 74
    0
 49
-0.9525
 74
    0
  0
LTYPE
  5
40
330
5
100
AcDbSymbolTableRecord
100
AcDbLinetypeTableRecord
  2
DIVIDE2
 70
    0
  3
Divide (.5x) __..__..__..__..__..__..__..__.._
 72
   65
 73
    6
 40
15.875
 49
6.35
 74
    0
 49
-3.175
 74
    0
 49
0
 74
    0
 49
-3.175
 74
    0
 49
0
 74
    0
 49
-3.175
 74
    0
  0
LTYPE
  5
41
330
5
100
AcDbSymbolTableRecord
100
AcDbLinetypeTableRecord
  2
DIVIDEX2
 70
    0
  3
Divide (2x) ________  .  .  ________  .  .  _
 72
   65
 73
    6
 40
63.5
 49
25.4
 74
    0
 49
-12.7
 74
    0
 49
0
 74
    0
 49
-12.7
 74
    0
 49
0
 74
    0
 49
-12.7
 74
    0
  0
LTYPE
  5
42
330
5
100
AcDbSymbolTableRecord
100
AcDbLinetypeTableRecord
  2
BORDER
 70
    0
  3
Border __ __ . __ __ . __ __ . __ __ . __ __ .
 72
   65
 73
    6
 40
44.45
 49
12.7
 74
    0
 49
-6.35
 74
    0
 49
12.7
 74
    0
 49
-6.35
 74
    0
 49
0
 74
    0
 49
-6.35
 74
    0
  0
LTYPE
  5
43
330
5
100
AcDbSymbolTableRecord
100
AcDbLinetypeTableRecord
  2
BORDERTINY
 70
    0
  3
Border (.15x) __.__.__.__.__.__.__.__.__.__.__.
 72
   65
 73
    6
 40
6.6675
 49
1.905
 74
    0
 49
-0.9525
 74
    0
 49
1.905
 74
    0
 49
-0.9525
 74
    0
 49
0
 74
    0
 49
-0.9525
 74
    0
  0
LTYPE
  5
44
330
5
100
AcDbSymbolTableRecord
100
AcDbLinetypeTableRecord
  2
BORDER2
 70
    0
  3
Border (.5x) __.__.__.__.__.__.__.__.__.__.__.
 72
   65
 73
    6
 40
22.225
 49
6.35
 74
    0
 49
-3.175
 74
    0
 49
6.35
 74
    0
 49
-3.175
 74
    0
 49
0
 74
    0
 49
-3.175
 74
    0
  0
LTYPE
  5
45
330
5
100
AcDbSymbolTableRecord
100
AcDbLinetypeTableRecord
  2
BORDERX2
 70
    0
  3
Border (2x) ____  ____  .  ____  ____  .  ___
 72
   65
 73
    6
 40
88.89999999999999
 49
25.4
 74
    0
 49
-12.7
 74
    0
 49
25.4
 74
    0
 49
-12.7
 74
    0
 49
0
 74
    0
 49
-12.7
 74
    0
  0
LTYPE
  5
46
330
5
100
AcDbSymbolTableRecord
100
AcDbLinetypeTableRecord
  2
CENTER
 70
    0
  3
Center ____ _ ____ _ ____ _ ____ _ ____ _ ____
 72
   65
 73
    4
 40
50.8
 49
31.75
 74
    0
 49
-6.35
 74
    0
 49
6.35
 74
    0
 49
-6.35
 74
    0
  0
LTYPE
  5
47
330
5
100
AcDbSymbolTableRecord
100
AcDbLinetypeTableRecord
  2
CENTERTINY
 70
    0
  3
Center (.15x) ___ _ ___ _ ___ _ ___ _ ___ _ ___
 72
   65
 73
    4
 40
7.619999999999999
 49
4.7625
 74
    0
 49
-0.9525
 74
    0
 49
0.9525
 74
    0
 49
-0.9525
 74
    0
  0
LTYPE
  5
48
330
5
100
AcDbSymbolTableRecord
100
AcDbLinetypeTableRecord
  2
CENTER2
 70
    0
  3
Center (.5x) ___ _ ___ _ ___ _ ___ _ ___ _ ___
 72
   65
 73
    4
 40
28.575
 49
19.05
 74
    0
 49
-3.175
 74
    0
 49
3.175
 74
    0
 49
-3.175
 74
    0
  0
LTYPE
  5
49
330
5
100
AcDbSymbolTableRecord
100
AcDbLinetypeTableRecord
  2
CENTERX2
 70
    0
  3
Center (2x) ________  __  ________  __  _____
 72
   65
 73
    4
 40
101.6
 49
63.5
 74
    0
 49
-12.7
 74
    0
 49
12.7
 74
    0
 49
-12.7
 74
    0
  0
ENDTAB
  0
TABLE
  2
LAYER
  5
2
330
0
100
AcDbSymbolTable
 70
    1
  0
LAYER
  5
10
330
2
100
AcDbSymbolTableRecord
100
AcDbLayerTableRecord
  2
0
 70
    4
 62
    7
  6
CONTINUOUS
370
    0
390
F
  0
LAYER
  5
4A
330
2
100
AcDbSymbolTableRecord
100
AcDbLayerTableRecord
  2
boundingbox
 70
    4
 62
    7
  6
CONTINUOUS
370
    0
390
F
  0
LAYER
  5
4B
330
2
100
AcDbSymbolTableRecord
100
AcDbLayerTableRecord
  2
keycap
 70
    4
 62
    3
  6
CONTINUOUS
370
    0
390
F
  0
LAYER
  5
4C
330
2
100
AcDbSymbolTableRecord
100
AcDbLayerTableRecord
  2
noname
 70
    4
 62
    1
  6
CONTINUOUS
370
    0
390
F
  0
LAYER
  5
4D
330
2
100
AcDbSymbolTableRecord
100
AcDbLayerTableRecord
  2
pcb
 70
    4
 62
    2
  6
CONTINUOUS
370
    0
390
F
  0
LAYER
  5
4E
330
2
100
AcDbSymbolTableRecord
100
AcDbLayerTableRecord
  2
percage
 70
    0
 62
    4
  6
CONTINUOUS
370
    0
390
F
  0
LAYER
  5
4F
330
2
100
AcDbSymbolTableRecord
100
AcDbLayerTableRecord
  2
rPI
 70
    4
 62
    5
  6
CONTINUOUS
370
    0
390
F
  0
ENDTAB
  0
TABLE
  2
STYLE
  5
3
330
0
100
AcDbSymbolTable
 70
    3
  0
STYLE
  5
50
330
2
100
AcDbSymbolTableRecord
100
AcDbTextStyleTableRecord
  2
Standard
 70
    0
 40
0
 41
1
 50
0
 71
    0
 42
1
  3
txt
  4

  0
ENDTAB
  0
TABLE
  2
VIEW
  5
6
330
0
100
AcDbSymbolTable
 70
    0
  0
ENDTAB
  0
TABLE
  2
UCS
  5
7
330
0
100
AcDbSymbolTable
 70
    0
  0
ENDTAB
  0
TABLE
  2
APPID
  5
9
330
0
100
AcDbSymbolTable
 70
    1
  0
APPID
  5
12
330
9
100
AcDbSymbolTableRecord
100
AcDbRegAppTableRecord
  2
ACAD
 70
    0
  0
APPID
  5
51
330
9
100
AcDbSymbolTableRecord
100
AcDbRegAppTableRecord
  2
LibreCad
 70
    0
  0
ENDTAB
  0
TABLE
  2
DIMSTYLE
  5
A
330
0
100
AcDbSymbolTable
 70
    1
100
AcDbDimStyleTable
 71
    1
  0
DIMSTYLE
105
52
330
A
100
AcDbSymbolTableRecord
100
AcDbDimStyleTableRecord
  2
Standard
 70
    0
 40
2.5
 41
2.5
 42
0.625
 43
0.38
 44
1.25
 45
0
 46
0
 47
0
 48
0
 49
1
140
2.5
141
0.09
142
0
143
25.4
144
1
145
0
146
1
147
0.625
148
0
 71
    0
 72
    0
 73
    0
 74
    1
 75
    0
 76
    0
 77
    0
 78
    8
 79
    0
170
    0
171
    2
172
    0
173
    0
174
    0
175
    0
176
    0
177
    0
178
    0
179
    0
271
    2
272
    4
273
    2
274
    2
275
    0
276
    0
277
    2
278
   44
279
    0
280
    0
281
    0
282
    0
283
    1
284
    0
285
    0
286
    0
288
    0
289
    3
340
STANDARD
341

371
   -2
372
   -2
  0
ENDTAB
  0
TABLE
  2
BLOCK_RECORD
  5
1
330
0
100
AcDbSymbolTable
 70
    2
  0
BLOCK_RECORD
  5
1F
330
1
100
AcDbSymbolTableRecord
100
AcDbBlockTableRecord
  2
*Model_Space
 70
    0
280
    1
281
    0
  0
BLOCK_RECORD
  5
1E
330
1
100
AcDbSymbolTableRecord
100
AcDbBlockTableRecord
  2
*Paper_Space
 70
    0
280
    1
281
    0
  0
ENDTAB
  0
ENDSEC
  0
SECTION
  2
BLOCKS
  0
BLOCK
  5
20
330
1F
100
AcDbEntity
  8
0
100
AcDbBlockBegin
  2
*Model_Space
 70
    0
 10
0
 20
0
 30
0
  3
*Model_Space
  1

  0
ENDBLK
  5
21
330
1F
100
AcDbEntity
  8
0
100
AcDbBlockEnd
  0
BLOCK
  5
1C
330
1B
100
AcDbEntity
  8
0
100
AcDbBlockBegin
  2
*Paper_Space
 70
    0
 10
0
 20
0
 30
0
  3
*Paper_Space
  1

  0
ENDBLK
  5
1D
330
1F
100
AcDbEntity
  8
0
100
AcDbBlockEnd
  0
ENDSEC
  0
SECTION
  2
ENTITIES
  0
LINE
  5
53
100
AcDbEntity
  8
0
  6
ByLayer
 62
  256
370
   -1
100
AcDbLine
 10
-6.999999999999983
 20
-32.311599308815
 11
7.000000000000017
 21
-32.311599308815
  0
LINE
  5
54
100
AcDbEntity
  8
0
  6
ByLayer
 62
  256
370
   -1
100
AcDbLine
 10
-6.999999999999983
 20
-46.311599308815
 11
7.000000000000017
 21
-46.311599308815
  0
LINE
  5
55
100
AcDbEntity
  8
0
  6
ByLayer
 62
  256
370
   -1
100
AcDbLine
 10
-6.999999999999983
 20
-32.311599308815
 11
-6.999999999999983
 21
-46.311599308815
  0
LINE
  5
56
100
AcDbEntity
  8
0
  6
ByLayer
 62
  256
370
   -1
100
AcDbLine
 10
7.000000000000017
 20
-32.311599308815
 11
7.000000000000017
 21
-46.311599308815
  0
LINE
  5
57
100
AcDbEntity
  8
0
  6
ByLayer
 62
  256
370
   -1
100
AcDbLine
 10
-55.08995769999999
 20
45.116891091185
 11
-41.56699609999998
 21
41.493424491185
  0
LINE
  5
58
100
AcDbEntity
  8
0
  6
ByLayer
 62
  256
370
   -1
100
AcDbLine
 10
-58.71342429999999
 20
31.59392949118499
 11
-45.19046269999998
 21
27.97046289118499
  0
LINE
  5
59
100
AcDbEntity
  8
0
  6
ByLayer
 62
  256
370
   -1
100
AcDbLine
 10
-55.08995769999999
 20
45.116891091185
 11
-58.71342429999999
 21
31.59392949118499
  0
LINE
  5
5A
100
AcDbEntity
  8
0
  6
ByLayer
 62
  256
370
   -1
100
AcDbLine
 10
-41.56699609999998
 20
41.493424491185
 11
-45.19046269999998
 21
27.97046289118499
  0
LINE
  5
5B
100
AcDbEntity
  8
0
  6
ByLayer
 62
  256
370
   -1
100
AcDbLine
 10
-74.67193889999999
 20
45.446305291185
 11
-61.14897729999998
 21
41.822838691185
  0
LINE
  5
5C
100
AcDbEntity
  8
0
  6
ByLayer
 62
  256
370
   -1
100
AcDbLine
 10
-78.29540549999999
 20
31.923343691185
 11
-64.77244389999998
 21
28.299877091185
  0
LINE
  5
5D
100
AcDbEntity
  8
0
  6
ByLayer
 62
  256
370
   -1
100
AcDbLine
 10
-74.67193889999999
 20
45.446305291185
 11
-78.29540549999999
 21
31.923343691185
  0
LINE
  5
5E
100
AcDbEntity
  8
0
  6
ByLayer
 62
  256
370
   -1
100
AcDbLine
 10
-61.14897729999998
 20
41.822838691185
 11
-64.77244389999998
 21
28.299877091185
  0
LINE
  5
5F
100
AcDbEntity
  8
0
  6
ByLayer
 62
  256
370
   -1
100
AcDbLine
 10
-37.96675749999999
 20
35.61118149118499
 11
-24.44379589999998
 21
31.98771489118499
  0
LINE
  5
60
100
AcDbEntity
  8
0
  6
ByLayer
 62
  256
370
   -1
100
AcDbLine
 10
-41.59022409999999
 20
22.08821989118499
 11
-28.06726249999998
 21
18.46475329118499
  0
LINE
  5
61
100
AcDbEntity
  8
0
  6
ByLayer
 62
  256
370
   -1
100
AcDbLine
 10
-37.96675749999999
 20
35.61118149118499
 11
-41.59022409999999
 21
22.08821989118499
  0
LINE
  5
62
100
AcDbEntity
  8
0
  6
ByLayer
 62
  256
370
   -1
100
AcDbLine
 10
-24.44379589999998
 20
31.98771489118499
 11
-28.06726249999998
 21
18.46475329118499
  0
LINE
  5
63
100
AcDbEntity
  8
0
  6
ByLayer
 62
  256
370
   -1
100
AcDbLine
 10
-94.25392009999999
 20
45.77571939118499
 11
-80.73095849999999
 21
42.15225279118499
  0
LINE
  5
64
100
AcDbEntity
  8
0
  6
ByLayer
 62
  256
370
   -1
100
AcDbLine
 10
-97.87738669999999
 20
32.252757791185
 11
-84.35442509999999
 21
28.62929119118499
  0
LINE
  5
65
100
AcDbEntity
  8
0
  6
ByLayer
 62
  256
370
   -1
100
AcDbLine
 10
-94.25392009999999
 20
45.77571939118499
 11
-97.87738669999999
 21
32.252757791185
  0
LINE
  5
66
100
AcDbEntity
  8
0
  6
ByLayer
 62
  256
370
   -1
100
AcDbLine
 10
-80.73095849999999
 20
42.15225279118499
 11
-84.35442509999999
 21
28.62929119118499
  0
LINE
  5
67
100
AcDbEntity
  8
0
  6
ByLayer
 62
  256
370
   -1
100
AcDbLine
 10
-20.84355729999998
 20
26.105471991185
 11
-7.320595699999981
 21
22.48200539118499
  0
LINE
  5
68
100
AcDbEntity
  8
0
  6
ByLayer
 62
  256
370
   -1
100
AcDbLine
 10
-24.46702389999998
 20
12.582510391185
 11
-10.94406229999998
 21
8.959043791184996
  0
LINE
  5
69
100
AcDbEntity
  8
0
  6
ByLayer
 62
  256
370
   -1
100
AcDbLine
 10
-20.84355729999998
 20
26.105471991185
 11
-24.46702389999998
 21
12.582510391185
  0
LINE
  5
6A
100
AcDbEntity
  8
0
  6
ByLayer
 62
  256
370
   -1
100
AcDbLine
 10
-7.320595699999981
 20
22.48200539118499
 11
-10.94406229999998
 21
8.959043791184996
  0
LINE
  5
6B
100
AcDbEntity
  8
0
  6
ByLayer
 62
  256
370
   -1
100
AcDbLine
 10
-60.00751959999999
 20
26.764300391185
 11
-46.48455799999999
 21
23.140833791185
  0
LINE
  5
6C
100
AcDbEntity
  8
0
  6
ByLayer
 62
  256
370
   -1
100
AcDbLine
 10
-63.63098619999999
 20
13.24133879118499
 11
-50.10802459999999
 21
9.617872191184993
  0
LINE
  5
6D
100
AcDbEntity
  8
0
  6
ByLayer
 62
  256
370
   -1
100
AcDbLine
 10
-60.00751959999999
 20
26.764300391185
 11
-63.63098619999999
 21
13.24133879118499
  0
LINE
  5
6E
100
AcDbEntity
  8
0
  6
ByLayer
 62
  256
370
   -1
100
AcDbLine
 10
-46.48455799999999
 20
23.140833791185
 11
-50.10802459999999
 21
9.617872191184993
  0
LINE
  5
6F
100
AcDbEntity
  8
0
  6
ByLayer
 62
  256
370
   -1
100
AcDbLine
 10
-79.58950079999998
 20
27.09371459118499
 11
-66.06653919999998
 21
23.47024799118499
  0
LINE
  5
70
100
AcDbEntity
  8
0
  6
ByLayer
 62
  256
370
   -1
100
AcDbLine
 10
-83.21296739999998
 20
13.570752991185
 11
-69.69000579999998
 21
9.947286391184996
  0
LINE
  5
71
100
AcDbEntity
  8
0
  6
ByLayer
 62
  256
370
   -1
100
AcDbLine
 10
-79.58950079999998
 20
27.09371459118499
 11
-83.21296739999998
 21
13.570752991185
  0
LINE
  5
72
100
AcDbEntity
  8
0
  6
ByLayer
 62
  256
370
   -1
100
AcDbLine
 10
-66.06653919999998
 20
23.47024799118499
 11
-69.69000579999998
 21
9.947286391184996
  0
LINE
  5
73
100
AcDbEntity
  8
0
  6
ByLayer
 62
  256
370
   -1
100
AcDbLine
 10
-42.88431939999998
 20
17.258590791185
 11
-29.36135779999998
 21
13.63512419118499
  0
LINE
  5
74
100
AcDbEntity
  8
0
  6
ByLayer
 62
  256
370
   -1
100
AcDbLine
 10
-46.50778599999999
 20
3.735629191184999
 11
-32.98482439999998
 21
0.1121625911849982
  0
LINE
  5
75
100
AcDbEntity
  8
0
  6
ByLayer
 62
  256
370
   -1
100
AcDbLine
 10
-42.88431939999998
 20
17.258590791185
 11
-46.50778599999999
 21
3.735629191184999
  0
LINE
  5
76
100
AcDbEntity
  8
0
  6
ByLayer
 62
  256
370
   -1
100
AcDbLine
 10
-29.36135779999998
 20
13.63512419118499
 11
-32.98482439999998
 21
0.1121625911849982
  0
LINE
  5
77
100
AcDbEntity
  8
0
  6
ByLayer
 62
  256
370
   -1
100
AcDbLine
 10
-99.17148189999999
 20
27.423128691185
 11
-85.64852029999999
 21
23.799662091185
  0
LINE
  5
78
100
AcDbEntity
  8
0
  6
ByLayer
 62
  256
370
   -1
100
AcDbLine
 10
-102.7949485
 20
13.900167091185
 11
-89.27198689999999
 21
10.276700491185
  0
LINE
  5
79
100
AcDbEntity
  8
0
  6
ByLayer
 62
  256
370
   -1
100
AcDbLine
 10
-99.17148189999999
 20
27.423128691185
 11
-102.7949485
 21
13.900167091185
  0
LINE
  5
7A
100
AcDbEntity
  8
0
  6
ByLayer
 62
  256
370
   -1
100
AcDbLine
 10
-85.64852029999999
 20
23.799662091185
 11
-89.27198689999999
 21
10.276700491185
  0
LINE
  5
7B
100
AcDbEntity
  8
0
  6
ByLayer
 62
  256
370
   -1
100
AcDbLine
 10
-25.76111909999998
 20
7.752881291184999
 11
-12.23815749999998
 21
4.129414691184999
  0
LINE
  5
7C
100
AcDbEntity
  8
0
  6
ByLayer
 62
  256
370
   -1
100
AcDbLine
 10
-29.38458569999998
 20
-5.770080308815003
 11
-15.86162409999998
 21
-9.393546908815004
  0
LINE
  5
7D
100
AcDbEntity
  8
0
  6
ByLayer
 62
  256
370
   -1
100
AcDbLine
 10
-25.76111909999998
 20
7.752881291184999
 11
-29.38458569999998
 21
-5.770080308815003
  0
LINE
  5
7E
100
AcDbEntity
  8
0
  6
ByLayer
 62
  256
370
   -1
100
AcDbLine
 10
-12.23815749999998
 20
4.129414691184999
 11
-15.86162409999998
 21
-9.393546908815004
  0
LINE
  5
7F
100
AcDbEntity
  8
0
  6
ByLayer
 62
  256
370
   -1
100
AcDbLine
 10
-64.92508149999999
 20
8.411709691184996
 11
-51.40211989999999
 21
4.788243091184996
  0
LINE
  5
80
100
AcDbEntity
  8
0
  6
ByLayer
 62
  256
370
   -1
100
AcDbLine
 10
-68.54854809999999
 20
-5.111251908815006
 11
-55.02558649999999
 21
-8.734718508815007
  0
LINE
  5
81
100
AcDbEntity
  8
0
  6
ByLayer
 62
  256
370
   -1
100
AcDbLine
 10
-64.92508149999999
 20
8.411709691184996
 11
-68.54854809999999
 21
-5.111251908815006
  0
LINE
  5
82
100
AcDbEntity
  8
0
  6
ByLayer
 62
  256
370
   -1
100
AcDbLine
 10
-51.40211989999999
 20
4.788243091184996
 11
-55.02558649999999
 21
-8.734718508815007
  0
LINE
  5
83
100
AcDbEntity
  8
0
  6
ByLayer
 62
  256
370
   -1
100
AcDbLine
 10
-84.50706259999998
 20
8.741123891184998
 11
-70.984101
 21
5.117657291184998
  0
LINE
  5
84
100
AcDbEntity
  8
0
  6
ByLayer
 62
  256
370
   -1
100
AcDbLine
 10
-88.13052919999998
 20
-4.781837708815003
 11
-74.6075676
 21
-8.405304308815005
  0
LINE
  5
85
100
AcDbEntity
  8
0
  6
ByLayer
 62
  256
370
   -1
100
AcDbLine
 10
-84.50706259999998
 20
8.741123891184998
 11
-88.13052919999998
 21
-4.781837708815003
  0
LINE
  5
86
100
AcDbEntity
  8
0
  6
ByLayer
 62
  256
370
   -1
100
AcDbLine
 10
-70.984101
 20
5.117657291184998
 11
-74.6075676
 21
-8.405304308815005
  0
LINE
  5
87
100
AcDbEntity
  8
0
  6
ByLayer
 62
  256
370
   -1
100
AcDbLine
 10
-47.80188119999998
 20
-1.093999908815007
 11
-34.27891959999998
 21
-4.717466508815007
  0
LINE
  5
88
100
AcDbEntity
  8
0
  6
ByLayer
 62
  256
370
   -1
100
AcDbLine
 10
-51.42534779999998
 20
-14.616961508815
 11
-37.90238619999998
 21
-18.24042810881501
  0
LINE
  5
89
100
AcDbEntity
  8
0
  6
ByLayer
 62
  256
370
   -1
100
AcDbLine
 10
-47.80188119999998
 20
-1.093999908815007
 11
-51.42534779999998
 21
-14.616961508815
  0
LINE
  5
8A
100
AcDbEntity
  8
0
  6
ByLayer
 62
  256
370
   -1
100
AcDbLine
 10
-34.27891959999998
 20
-4.717466508815007
 11
-37.90238619999998
 21
-18.24042810881501
  0
LINE
  5
8B
100
AcDbEntity
  8
0
  6
ByLayer
 62
  256
370
   -1
100
AcDbLine
 10
-104.0890438
 20
9.070537991184992
 11
-90.56608219999998
 21
5.447071391184999
  0
LINE
  5
8C
100
AcDbEntity
  8
0
  6
ByLayer
 62
  256
370
   -1
100
AcDbLine
 10
-107.7125104
 20
-4.452423608815002
 11
-94.18954879999998
 21
-8.075890208815004
  0
LINE
  5
8D
100
AcDbEntity
  8
0
  6
ByLayer
 62
  256
370
   -1
100
AcDbLine
 10
-104.0890438
 20
9.070537991184992
 11
-107.7125104
 21
-4.452423608815002
  0
LINE
  5
8E
100
AcDbEntity
  8
0
  6
ByLayer
 62
  256
370
   -1
100
AcDbLine
 10
-90.56608219999998
 20
5.447071391184999
 11
-94.18954879999998
 21
-8.075890208815004
  0
LINE
  5
8F
100
AcDbEntity
  8
0
  6
ByLayer
 62
  256
370
   -1
100
AcDbLine
 10
-30.67868099999998
 20
-10.599709408815
 11
-17.15571939999998
 21
-14.223176008815
  0
LINE
  5
90
100
AcDbEntity
  8
0
  6
ByLayer
 62
  256
370
   -1
100
AcDbLine
 10
-34.30214759999998
 20
-24.122671008815
 11
-20.77918599999998
 21
-27.746137608815
  0
LINE
  5
91
100
AcDbEntity
  8
0
  6
ByLayer
 62
  256
370
   -1
100
AcDbLine
 10
-30.67868099999998
 20
-10.599709408815
 11
-34.30214759999998
 21
-24.122671008815
  0
LINE
  5
92
100
AcDbEntity
  8
0
  6
ByLayer
 62
  256
370
   -1
100
AcDbLine
 10
-17.15571939999998
 20
-14.223176008815
 11
-20.77918599999998
 21
-27.746137608815
  0
LINE
  5
93
100
AcDbEntity
  8
0
  6
ByLayer
 62
  256
370
   -1
100
AcDbLine
 10
-102.1243841
 20
-11.126138408815
 11
-88.60142249999998
 21
-14.749605008815
  0
LINE
  5
94
100
AcDbEntity
  8
0
  6
ByLayer
 62
  256
370
   -1
100
AcDbLine
 10
-105.7478507
 20
-24.64910000881501
 11
-92.22488909999998
 21
-28.272566608815
  0
LINE
  5
95
100
AcDbEntity
  8
0
  6
ByLayer
 62
  256
370
   -1
100
AcDbLine
 10
-102.1243841
 20
-11.126138408815
 11
-105.7478507
 21
-24.64910000881501
  0
LINE
  5
96
100
AcDbEntity
  8
0
  6
ByLayer
 62
  256
370
   -1
100
AcDbLine
 10
-88.60142249999998
 20
-14.749605008815
 11
-92.22488909999998
 21
-28.272566608815
  0
LINE
  5
97
100
AcDbEntity
  8
0
  6
ByLayer
 62
  256
370
   -1
100
AcDbLine
 10
-76.88957189999998
 20
-17.887785908815
 11
-63.36661029999998
 21
-21.51125250881501
  0
LINE
  5
98
100
AcDbEntity
  8
0
  6
ByLayer
 62
  256
370
   -1
100
AcDbLine
 10
-80.51303849999998
 20
-31.41074750881501
 11
-66.99007689999998
 21
-35.03421410881501
  0
LINE
  5
99
100
AcDbEntity
  8
0
  6
ByLayer
 62
  256
370
   -1
100
AcDbLine
 10
-76.88957189999998
 20
-17.887785908815
 11
-80.51303849999998
 21
-31.41074750881501
  0
LINE
  5
9A
100
AcDbEntity
  8
0
  6
ByLayer
 62
  256
370
   -1
100
AcDbLine
 10
-63.36661029999998
 20
-21.51125250881501
 11
-66.99007689999998
 21
-35.03421410881501
  0
LINE
  5
9B
100
AcDbEntity
  8
0
  6
ByLayer
 62
  256
370
   -1
100
AcDbLine
 10
-44.77253819999999
 20
-26.493519208815
 11
-31.24957659999998
 21
-30.116985808815
  0
LINE
  5
9C
100
AcDbEntity
  8
0
  6
ByLayer
 62
  256
370
   -1
100
AcDbLine
 10
-48.39600479999999
 20
-40.016480808815
 11
-34.87304319999998
 21
-43.639947408815
  0
LINE
  5
9D
100
AcDbEntity
  8
0
  6
ByLayer
 62
  256
370
   -1
100
AcDbLine
 10
-44.77253819999999
 20
-26.493519208815
 11
-48.39600479999999
 21
-40.016480808815
  0
LINE
  5
9E
100
AcDbEntity
  8
0
  6
ByLayer
 62
  256
370
   -1
100
AcDbLine
 10
-31.24957659999998
 20
-30.116985808815
 11
-34.87304319999998
 21
-43.639947408815
  0
LINE
  5
9F
100
AcDbEntity
  8
0
  6
ByLayer
 62
  256
370
   -1
100
AcDbLine
 10
41.56699610000003
 20
41.493424491185
 11
55.08995770000003
 21
45.116891091185
  0
LINE
  5
A0
100
AcDbEntity
  8
0
  6
ByLayer
 62
  256
370
   -1
100
AcDbLine
 10
45.19046270000003
 20
27.97046289118499
 11
58.71342430000003
 21
31.59392949118499
  0
LINE
  5
A1
100
AcDbEntity
  8
0
  6
ByLayer
 62
  256
370
   -1
100
AcDbLine
 10
41.56699610000003
 20
41.493424491185
 11
45.19046270000003
 21
27.97046289118499
  0
LINE
  5
A2
100
AcDbEntity
  8
0
  6
ByLayer
 62
  256
370
   -1
100
AcDbLine
 10
55.08995770000003
 20
45.116891091185
 11
58.71342430000003
 21
31.59392949118499
  0
LINE
  5
A3
100
AcDbEntity
  8
0
  6
ByLayer
 62
  256
370
   -1
100
AcDbLine
 10
24.44379590000002
 20
31.98771489118499
 11
37.96675750000001
 21
35.61118149118499
  0
LINE
  5
A4
100
AcDbEntity
  8
0
  6
ByLayer
 62
  256
370
   -1
100
AcDbLine
 10
28.06726250000002
 20
18.46475329118499
 11
41.59022410000001
 21
22.08821989118499
  0
LINE
  5
A5
100
AcDbEntity
  8
0
  6
ByLayer
 62
  256
370
   -1
100
AcDbLine
 10
24.44379590000002
 20
31.98771489118499
 11
28.06726250000002
 21
18.46475329118499
  0
LINE
  5
A6
100
AcDbEntity
  8
0
  6
ByLayer
 62
  256
370
   -1
100
AcDbLine
 10
37.96675750000001
 20
35.61118149118499
 11
41.59022410000001
 21
22.08821989118499
  0
LINE
  5
A7
100
AcDbEntity
  8
0
  6
ByLayer
 62
  256
370
   -1
100
AcDbLine
 10
61.14897730000003
 20
41.822838691185
 11
74.6719389
 21
45.446305291185
  0
LINE
  5
A8
100
AcDbEntity
  8
0
  6
ByLayer
 62
  256
370
   -1
100
AcDbLine
 10
64.77244390000003
 20
28.299877091185
 11
78.2954055
 21
31.923343691185
  0
LINE
  5
A9
100
AcDbEntity
  8
0
  6
ByLayer
 62
  256
370
   -1
100
AcDbLine
 10
61.14897730000003
 20
41.822838691185
 11
64.77244390000003
 21
28.299877091185
  0
LINE
  5
AA
100
AcDbEntity
  8
0
  6
ByLayer
 62
  256
370
   -1
100
AcDbLine
 10
74.6719389
 20
45.446305291185
 11
78.2954055
 21
31.923343691185
  0
LINE
  5
AB
100
AcDbEntity
  8
0
  6
ByLayer
 62
  256
370
   -1
100
AcDbLine
 10
7.320595700000015
 20
22.48200539118499
 11
20.8435573
 21
26.105471991185
  0
LINE
  5
AC
100
AcDbEntity
  8
0
  6
ByLayer
 62
  256
370
   -1
100
AcDbLine
 10
10.94406230000002
 20
8.959043791184996
 11
24.4670239
 21
12.582510391185
  0
LINE
  5
AD
100
AcDbEntity
  8
0
  6
ByLayer
 62
  256
370
   -1
100
AcDbLine
 10
7.320595700000015
 20
22.48200539118499
 11
10.94406230000002
 21
8.959043791184996
  0
LINE
  5
AE
100
AcDbEntity
  8
0
  6
ByLayer
 62
  256
370
   -1
100
AcDbLine
 10
20.8435573
 20
26.105471991185
 11
24.4670239
 21
12.582510391185
  0
LINE
  5
AF
100
AcDbEntity
  8
0
  6
ByLayer
 62
  256
370
   -1
100
AcDbLine
 10
80.73095850000003
 20
42.15225279118499
 11
94.2539201
 21
45.77571939118499
  0
LINE
  5
B0
100
AcDbEntity
  8
0
  6
ByLayer
 62
  256
370
   -1
100
AcDbLine
 10
84.3544251
 20
28.62929119118499
 11
97.8773867
 21
32.252757791185
  0
LINE
  5
B1
100
AcDbEntity
  8
0
  6
ByLayer
 62
  256
370
   -1
100
AcDbLine
 10
80.73095850000003
 20
42.15225279118499
 11
84.3544251
 21
28.62929119118499
  0
LINE
  5
B2
100
AcDbEntity
  8
0
  6
ByLayer
 62
  256
370
   -1
100
AcDbLine
 10
94.2539201
 20
45.77571939118499
 11
97.8773867
 21
32.252757791185
  0
LINE
  5
B3
100
AcDbEntity
  8
0
  6
ByLayer
 62
  256
370
   -1
100
AcDbLine
 10
46.48455800000001
 20
23.140833791185
 11
60.00751960000001
 21
26.764300391185
  0
LINE
  5
B4
100
AcDbEntity
  8
0
  6
ByLayer
 62
  256
370
   -1
100
AcDbLine
 10
50.10802460000001
 20
9.617872191184993
 11
63.63098620000001
 21
13.24133879118499
  0
LINE
  5
B5
100
AcDbEntity
  8
0
  6
ByLayer
 62
  256
370
   -1
100
AcDbLine
 10
46.48455800000001
 20
23.140833791185
 11
50.10802460000001
 21
9.617872191184993
  0
LINE
  5
B6
100
AcDbEntity
  8
0
  6
ByLayer
 62
  256
370
   -1
100
AcDbLine
 10
60.00751960000001
 20
26.764300391185
 11
63.63098620000001
 21
13.24133879118499
  0
LINE
  5
B7
100
AcDbEntity
  8
0
  6
ByLayer
 62
  256
370
   -1
100
AcDbLine
 10
29.36135780000003
 20
13.63512419118499
 11
42.88431940000002
 21
17.258590791185
  0
LINE
  5
B8
100
AcDbEntity
  8
0
  6
ByLayer
 62
  256
370
   -1
100
AcDbLine
 10
32.98482440000002
 20
0.1121625911849982
 11
46.50778600000002
 21
3.735629191184999
  0
LINE
  5
B9
100
AcDbEntity
  8
0
  6
ByLayer
 62
  256
370
   -1
100
AcDbLine
 10
29.36135780000003
 20
13.63512419118499
 11
32.98482440000002
 21
0.1121625911849982
  0
LINE
  5
BA
100
AcDbEntity
  8
0
  6
ByLayer
 62
  256
370
   -1
100
AcDbLine
 10
42.88431940000002
 20
17.258590791185
 11
46.50778600000002
 21
3.735629191184999
  0
LINE
  5
BB
100
AcDbEntity
  8
0
  6
ByLayer
 62
  256
370
   -1
100
AcDbLine
 10
66.06653920000001
 20
23.47024799118499
 11
79.58950080000001
 21
27.09371459118499
  0
LINE
  5
BC
100
AcDbEntity
  8
0
  6
ByLayer
 62
  256
370
   -1
100
AcDbLine
 10
69.69000580000001
 20
9.947286391184996
 11
83.21296740000001
 21
13.570752991185
  0
LINE
  5
BD
100
AcDbEntity
  8
0
  6
ByLayer
 62
  256
370
   -1
100
AcDbLine
 10
66.06653920000001
 20
23.47024799118499
 11
69.69000580000001
 21
9.947286391184996
  0
LINE
  5
BE
100
AcDbEntity
  8
0
  6
ByLayer
 62
  256
370
   -1
100
AcDbLine
 10
79.58950080000001
 20
27.09371459118499
 11
83.21296740000001
 21
13.570752991185
  0
LINE
  5
BF
100
AcDbEntity
  8
0
  6
ByLayer
 62
  256
370
   -1
100
AcDbLine
 10
12.23815750000002
 20
4.129414691184999
 11
25.76111910000002
 21
7.752881291184999
  0
LINE
  5
C0
100
AcDbEntity
  8
0
  6
ByLayer
 62
  256
370
   -1
100
AcDbLine
 10
15.86162410000002
 20
-9.393546908815004
 11
29.38458570000002
 21
-5.770080308815003
  0
LINE
  5
C1
100
AcDbEntity
  8
0
  6
ByLayer
 62
  256
370
   -1
100
AcDbLine
 10
12.23815750000002
 20
4.129414691184999
 11
15.86162410000002
 21
-9.393546908815004
  0
LINE
  5
C2
100
AcDbEntity
  8
0
  6
ByLayer
 62
  256
370
   -1
100
AcDbLine
 10
25.76111910000002
 20
7.752881291184999
 11
29.38458570000002
 21
-5.770080308815003
  0
LINE
  5
C3
100
AcDbEntity
  8
0
  6
ByLayer
 62
  256
370
   -1
100
AcDbLine
 10
85.64852030000002
 20
23.799662091185
 11
99.17148190000002
 21
27.423128691185
  0
LINE
  5
C4
100
AcDbEntity
  8
0
  6
ByLayer
 62
  256
370
   -1
100
AcDbLine
 10
89.27198690000002
 20
10.276700491185
 11
102.7949485
 21
13.900167091185
  0
LINE
  5
C5
100
AcDbEntity
  8
0
  6
ByLayer
 62
  256
370
   -1
100
AcDbLine
 10
85.64852030000002
 20
23.799662091185
 11
89.27198690000002
 21
10.276700491185
  0
LINE
  5
C6
100
AcDbEntity
  8
0
  6
ByLayer
 62
  256
370
   -1
100
AcDbLine
 10
99.17148190000002
 20
27.423128691185
 11
102.7949485
 21
13.900167091185
  0
LINE
  5
C7
100
AcDbEntity
  8
0
  6
ByLayer
 62
  256
370
   -1
100
AcDbLine
 10
51.40211990000002
 20
4.788243091184996
 11
64.92508150000002
 21
8.411709691184996
  0
LINE
  5
C8
100
AcDbEntity
  8
0
  6
ByLayer
 62
  256
370
   -1
100
AcDbLine
 10
55.02558650000002
 20
-8.734718508815007
 11
68.54854810000002
 21
-5.111251908815006
  0
LINE
  5
C9
100
AcDbEntity
  8
0
  6
ByLayer
 62
  256
370
   -1
100
AcDbLine
 10
51.40211990000002
 20
4.788243091184996
 11
55.02558650000002
 21
-8.734718508815007
  0
LINE
  5
CA
100
AcDbEntity
  8
0
  6
ByLayer
 62
  256
370
   -1
100
AcDbLine
 10
64.92508150000002
 20
8.411709691184996
 11
68.54854810000002
 21
-5.111251908815006
  0
LINE
  5
CB
100
AcDbEntity
  8
0
  6
ByLayer
 62
  256
370
   -1
100
AcDbLine
 10
34.27891960000001
 20
-4.717466508815007
 11
47.80188120000001
 21
-1.093999908815007
  0
LINE
  5
CC
100
AcDbEntity
  8
0
  6
ByLayer
 62
  256
370
   -1
100
AcDbLine
 10
37.90238620000001
 20
-18.24042810881501
 11
51.42534780000001
 21
-14.616961508815
  0
LINE
  5
CD
100
AcDbEntity
  8
0
  6
ByLayer
 62
  256
370
   -1
100
AcDbLine
 10
34.27891960000001
 20
-4.717466508815007
 11
37.90238620000001
 21
-18.24042810881501
  0
LINE
  5
CE
100
AcDbEntity
  8
0
  6
ByLayer
 62
  256
370
   -1
100
AcDbLine
 10
47.80188120000001
 20
-1.093999908815007
 11
51.42534780000001
 21
-14.616961508815
  0
LINE
  5
CF
100
AcDbEntity
  8
0
  6
ByLayer
 62
  256
370
   -1
100
AcDbLine
 10
70.98410100000002
 20
5.117657291184998
 11
84.50706260000003
 21
8.741123891184998
  0
LINE
  5
D0
100
AcDbEntity
  8
0
  6
ByLayer
 62
  256
370
   -1
100
AcDbLine
 10
74.60756760000002
 20
-8.405304308815005
 11
88.13052920000003
 21
-4.781837708815003
  0
LINE
  5
D1
100
AcDbEntity
  8
0
  6
ByLayer
 62
  256
370
   -1
100
AcDbLine
 10
70.98410100000002
 20
5.117657291184998
 11
74.60756760000002
 21
-8.405304308815005
  0
LINE
  5
D2
100
AcDbEntity
  8
0
  6
ByLayer
 62
  256
370
   -1
100
AcDbLine
 10
84.50706260000003
 20
8.741123891184998
 11
88.13052920000003
 21
-4.781837708815003
  0
LINE
  5
D3
100
AcDbEntity
  8
0
  6
ByLayer
 62
  256
370
   -1
100
AcDbLine
 10
17.15571940000001
 20
-14.223176008815
 11
30.67868100000003
 21
-10.599709408815
  0
LINE
  5
D4
100
AcDbEntity
  8
0
  6
ByLayer
 62
  256
370
   -1
100
AcDbLine
 10
20.77918600000003
 20
-27.746137608815
 11
34.30214760000003
 21
-24.122671008815
  0
LINE
  5
D5
100
AcDbEntity
  8
0
  6
ByLayer
 62
  256
370
   -1
100
AcDbLine
 10
17.15571940000001
 20
-14.223176008815
 11
20.77918600000003
 21
-27.746137608815
  0
LINE
  5
D6
100
AcDbEntity
  8
0
  6
ByLayer
 62
  256
370
   -1
100
AcDbLine
 10
30.67868100000003
 20
-10.599709408815
 11
34.30214760000003
 21
-24.122671008815
  0
LINE
  5
D7
100
AcDbEntity
  8
0
  6
ByLayer
 62
  256
370
   -1
100
AcDbLine
 10
90.56608220000003
 20
5.447071391184999
 11
104.0890438
 21
9.070537991184992
  0
LINE
  5
D8
100
AcDbEntity
  8
0
  6
ByLayer
 62
  256
370
   -1
100
AcDbLine
 10
94.18954880000003
 20
-8.075890208815004
 11
107.7125104
 21
-4.452423608815002
  0
LINE
  5
D9
100
AcDbEntity
  8
0
  6
ByLayer
 62
  256
370
   -1
100
AcDbLine
 10
90.56608220000003
 20
5.447071391184999
 11
94.18954880000003
 21
-8.075890208815004
  0
LINE
  5
DA
100
AcDbEntity
  8
0
  6
ByLayer
 62
  256
370
   -1
100
AcDbLine
 10
104.0890438
 20
9.070537991184992
 11
107.7125104
 21
-4.452423608815002
  0
LINE
  5
DB
100
AcDbEntity
  8
0
  6
ByLayer
 62
  256
370
   -1
100
AcDbLine
 10
31.24957660000003
 20
-30.116985808815
 11
44.77253820000003
 21
-26.493519208815
  0
LINE
  5
DC
100
AcDbEntity
  8
0
  6
ByLayer
 62
  256
370
   -1
100
AcDbLine
 10
34.87304320000003
 20
-43.639947408815
 11
48.3960048
 21
-40.016480808815
  0
LINE
  5
DD
100
AcDbEntity
  8
0
  6
ByLayer
 62
  256
370
   -1
100
AcDbLine
 10
31.24957660000003
 20
-30.116985808815
 11
34.87304320000003
 21
-43.639947408815
  0
LINE
  5
DE
100
AcDbEntity
  8
0
  6
ByLayer
 62
  256
370
   -1
100
AcDbLine
 10
44.77253820000003
 20
-26.493519208815
 11
48.3960048
 21
-40.016480808815
  0
LINE
  5
DF
100
AcDbEntity
  8
0
  6
ByLayer
 62
  256
370
   -1
100
AcDbLine
 10
63.3666103
 20
-21.51125250881501
 11
76.88957190000001
 21
-17.887785908815
  0
LINE
  5
E0
100
AcDbEntity
  8
0
  6
ByLayer
 62
  256
370
   -1
100
AcDbLine
 10
66.99007690000001
 20
-35.03421410881501
 11
80.51303850000001
 21
-31.41074750881501
  0
LINE
  5
E1
100
AcDbEntity
  8
0
  6
ByLayer
 62
  256
370
   -1
100
AcDbLine
 10
63.3666103
 20
-21.51125250881501
 11
66.99007690000001
 21
-35.03421410881501
  0
LINE
  5
E2
100
AcDbEntity
  8
0
  6
ByLayer
 62
  256
370
   -1
100
AcDbLine
 10
76.88957190000001
 20
-17.887785908815
 11
80.51303850000001
 21
-31.41074750881501
  0
LINE
  5
E3
100
AcDbEntity
  8
0
  6
ByLayer
 62
  256
370
   -1
100
AcDbLine
 10
88.60142250000003
 20
-14.749605008815
 11
102.1243841
 21
-11.126138408815
  0
LINE
  5
E4
100
AcDbEntity
  8
0
  6
ByLayer
 62
  256
370
   -1
100
AcDbLine
 10
92.22488910000003
 20
-28.272566608815
 11
105.7478507
 21
-24.64910000881501
  0
LINE
  5
E5
100
AcDbEntity
  8
0
  6
ByLayer
 62
  256
370
   -1
100
AcDbLine
 10
88.60142250000003
 20
-14.749605008815
 11
92.22488910000003
 21
-28.272566608815
  0
LINE
  5
E6
100
AcDbEntity
  8
0
  6
ByLayer
 62
  256
370
   -1
100
AcDbLine
 10
102.1243841
 20
-11.126138408815
 11
105.7478507
 21
-24.64910000881501
  0
LINE
  5
E7
100
AcDbEntity
  8
keycap
  6
ByLayer
 62
  256
370
   -1
100
AcDbLine
 10
-110.7743725736007
 20
-6.220190570230849
 11
-106.1862249032944
 21
-7.449581019673714
  0
LINE
  5
E8
100
AcDbEntity
  8
keycap
  6
ByLayer
 62
  256
370
   -1
100
AcDbLine
 10
-106.1862249032944
 20
-7.449581019673714
 11
-111.1037867127335
 21
-25.80217174444307
  0
LINE
  5
E9
100
AcDbEntity
  8
keycap
  6
ByLayer
 62
  256
370
   -1
100
AcDbLine
 10
106.1862249032944
 20
-7.449581019673714
 11
111.1037867127335
 21
-25.80217174444308
  0
LINE
  5
EA
100
AcDbEntity
  8
keycap
  6
ByLayer
 62
  256
370
   -1
100
AcDbLine
 10
106.1862249032944
 20
-7.449581019673714
 11
110.7743725736007
 21
-6.220190570230844
  0
LINE
  5
EB
100
AcDbEntity
  8
keycap
  6
ByLayer
 62
  256
370
   -1
100
AcDbLine
 10
96.02168714948823
 20
48.83758158838459
 11
110.7743725736007
 21
-6.220190570230844
  0
LINE
  5
EC
100
AcDbEntity
  8
keycap
  6
ByLayer
 62
  256
370
   -1
100
AcDbLine
 10
76.43970586141585
 20
48.50816746478566
 11
77.66909632236938
 21
43.920019751521
  0
LINE
  5
ED
100
AcDbEntity
  8
keycap
  6
ByLayer
 62
  256
370
   -1
100
AcDbLine
 10
77.66909632236938
 20
43.920019751521
 11
96.02168714948823
 21
48.83758158838459
  0
LINE
  5
EE
100
AcDbEntity
  8
keycap
  6
ByLayer
 62
  256
370
   -1
100
AcDbLine
 10
56.85772466141587
 20
48.17875326478566
 11
58.08711509736939
 21
43.59060564482228
  0
LINE
  5
EF
100
AcDbEntity
  8
keycap
  6
ByLayer
 62
  256
370
   -1
100
AcDbLine
 10
58.08711509736939
 20
43.59060564482228
 11
76.43970586141585
 21
48.50816746478566
  0
LINE
  5
F0
100
AcDbEntity
  8
keycap
  6
ByLayer
 62
  256
370
   -1
100
AcDbLine
 10
38.50513392639937
 20
43.26119145260083
 11
56.85772466141587
 21
48.17875326478566
  0
LINE
  5
F1
100
AcDbEntity
  8
keycap
  6
ByLayer
 62
  256
370
   -1
100
AcDbLine
 10
38.50513392639937
 20
43.26119145260083
 11
39.7345244109518
 21
38.67304365126385
  0
LINE
  5
F2
100
AcDbEntity
  8
keycap
  6
ByLayer
 62
  256
370
   -1
100
AcDbLine
 10
21.38193372639935
 20
33.75548185260082
 11
39.7345244109518
 21
38.67304365126385
  0
LINE
  5
F3
100
AcDbEntity
  8
keycap
  6
ByLayer
 62
  256
370
   -1
100
AcDbLine
 10
22.61132418595178
 20
29.16733414456513
 11
21.38193372639935
 21
33.75548185260082
  0
LINE
  5
F4
100
AcDbEntity
  8
keycap
  6
ByLayer
 62
  256
370
   -1
100
AcDbLine
 10
-96.02168714948816
 20
48.83758158838457
 11
-110.7743725736007
 21
-6.220190570230849
  0
LINE
  5
F5
100
AcDbEntity
  8
keycap
  6
ByLayer
 62
  256
370
   -1
100
AcDbLine
 10
-96.02168714948816
 20
48.83758158838457
 11
-77.66909632236936
 21
43.920019751521
  0
LINE
  5
F6
100
AcDbEntity
  8
keycap
  6
ByLayer
 62
  256
370
   -1
100
AcDbLine
 10
-76.43970586141583
 20
48.50816746478566
 11
-77.66909632236936
 21
43.920019751521
  0
LINE
  5
F7
100
AcDbEntity
  8
keycap
  6
ByLayer
 62
  256
370
   -1
100
AcDbLine
 10
-76.43970586141583
 20
48.50816746478566
 11
-58.08711509736936
 21
43.59060564482228
  0
LINE
  5
F8
100
AcDbEntity
  8
keycap
  6
ByLayer
 62
  256
370
   -1
100
AcDbLine
 10
-56.85772466141583
 20
48.17875326478566
 11
-58.08711509736936
 21
43.59060564482228
  0
LINE
  5
F9
100
AcDbEntity
  8
keycap
  6
ByLayer
 62
  256
370
   -1
100
AcDbLine
 10
-56.85772466141583
 20
48.17875326478566
 11
-38.50513392639932
 21
43.26119145260084
  0
LINE
  5
FA
100
AcDbEntity
  8
keycap
  6
ByLayer
 62
  256
370
   -1
100
AcDbLine
 10
-38.50513392639932
 20
43.26119145260084
 11
-39.73452441095176
 21
38.67304365126385
  0
LINE
  5
FB
100
AcDbEntity
  8
keycap
  6
ByLayer
 62
  256
370
   -1
100
AcDbLine
 10
-39.73452441095176
 20
38.67304365126385
 11
-21.38193372639931
 21
33.75548185260084
  0
LINE
  5
FC
100
AcDbEntity
  8
keycap
  6
ByLayer
 62
  256
370
   -1
100
AcDbLine
 10
-21.38193372639931
 20
33.75548185260084
 11
-22.61132418595175
 21
29.16733414456512
  0
ARC
  5
FD
100
AcDbEntity
  8
pcb
  6
ByLayer
 62
  256
370
   -1
100
AcDbCircle
 10
70.86285629076365
 20
-11.81651614931797
 40
41
100
AcDbArc
 50
0.963756405947408
 51
14.99999984188733
  0
LINE
  5
FE
100
AcDbEntity
  8
pcb
  6
ByLayer
 62
  256
370
   -1
100
AcDbLine
 10
110.465815197899
 20
-1.20493540940242
 11
97.39177258090716
 21
47.58805643612592
  0
ARC
  5
FF
100
AcDbEntity
  8
pcb
  6
ByLayer
 62
  256
370
   -1
100
AcDbCircle
 10
94.49399509989725
 20
46.81159930881503
 40
3
100
AcDbArc
 50
14.99999984188713
 51
90.9637564688139
  0
LINE
  5
100
100
AcDbEntity
  8
pcb
  6
ByLayer
 62
  256
370
   -1
100
AcDbLine
 10
94.44353530875935
 20
49.81117491370954
 11
61.7644331164697
 21
49.2614369212727
  0
ARC
  5
101
100
AcDbEntity
  8
pcb
  6
ByLayer
 62
  256
370
   -1
100
AcDbCircle
 10
4.529709940470639e-14
 20
68.25585952487408
 40
39
100
AcDbArc
 50
242.3736590662033
 51
297.6263409337967
  0
LINE
  5
102
100
AcDbEntity
  8
pcb
  6
ByLayer
 62
  256
370
   -1
100
AcDbLine
 10
34.12061409805061
 20
42.09513291460657
 11
18.08443282830369
 21
33.70223034820767
  0
ARC
  5
103
100
AcDbEntity
  8
pcb
  6
ByLayer
 62
  256
370
   -1
100
AcDbCircle
 10
53.13245373806218
 20
5.769522754521391
 40
41
100
AcDbArc
 50
104.9999998418873
 51
117.6263409337967
  0
LINE
  5
104
100
AcDbEntity
  8
pcb
  6
ByLayer
 62
  256
370
   -1
100
AcDbLine
 10
51.84246952210555
 20
47.87019589484968
 11
42.52087299814665
 21
45.37248166165678
  0
ARC
  5
105
100
AcDbEntity
  8
pcb
  6
ByLayer
 62
  256
370
   -1
100
AcDbCircle
 10
62.45405026202107
 20
8.267236987714327
 40
41
100
AcDbArc
 50
90.96375646881405
 51
104.9999998418873
  0
ARC
  5
106
100
AcDbEntity
  8
pcb
  6
ByLayer
 62
  256
370
   -1
100
AcDbCircle
 10
-70.86285629076356
 20
-11.81651614931796
 40
41
100
AcDbArc
 50
165.0000001581127
 51
179.0362435940526
  0
LINE
  5
107
100
AcDbEntity
  8
pcb
  6
ByLayer
 62
  256
370
   -1
100
AcDbLine
 10
-110.4658151978989
 20
-1.204935409402426
 11
-97.39177258090707
 21
47.58805643612592
  0
ARC
  5
108
100
AcDbEntity
  8
pcb
  6
ByLayer
 62
  256
370
   -1
100
AcDbCircle
 10
-94.49399509989716
 20
46.81159930881504
 40
3
100
AcDbArc
 50
89.0362435311861
 51
165.0000001581129
  0
LINE
  5
109
100
AcDbEntity
  8
pcb
  6
ByLayer
 62
  256
370
   -1
100
AcDbLine
 10
-94.44353530875927
 20
49.81117491370956
 11
-61.76443311646962
 21
49.26143692127273
  0
LINE
  5
10A
100
AcDbEntity
  8
pcb
  6
ByLayer
 62
  256
370
   -1
100
AcDbLine
 10
-34.12061409805052
 20
42.09513291460654
 11
-18.0844328283036
 21
33.70223034820769
  0
ARC
  5
10B
100
AcDbEntity
  8
pcb
  6
ByLayer
 62
  256
370
   -1
100
AcDbCircle
 10
-53.1324537380621
 20
5.769522754521391
 40
41
100
AcDbArc
 50
62.37365906620335
 51
75.00000015811267
  0
LINE
  5
10C
100
AcDbEntity
  8
pcb
  6
ByLayer
 62
  256
370
   -1
100
AcDbLine
 10
-51.84246952210546
 20
47.87019589484961
 11
-42.52087299814657
 21
45.37248166165675
  0
ARC
  5
10D
100
AcDbEntity
  8
pcb
  6
ByLayer
 62
  256
370
   -1
100
AcDbCircle
 10
-62.45405026202098
 20
8.267236987714327
 40
41
100
AcDbArc
 50
75.00000015811267
 51
89.03624353118595
  0
LWPOLYLINE
  5
10E
100
AcDbEntity
  8
rPI
  6
ByLayer
 62
  256
370
   -1
100
AcDbPolyline
 90
    4
 70
    1
 43
0
 10
-9
 20
0
 10
9
 20
0
 10
9
 20
-24
 10
-9
 20
-24
  0
LINE
  5
10F
100
AcDbEntity
  8
noname
  6
ByLayer
 62
  256
370
   -1
100
AcDbLine
 10
-9
 20
0
 11
9
 21
-24
  0
LINE
  5
110
100
AcDbEntity
  8
keycap
  6
ByLayer
 62
  256
370
   -1
100
AcDbLine
 10
-22.61132418595175
 20
29.16733414456512
 11
-4.258733526399311
 21
24.24977235260083
  0
LINE
  5
111
100
AcDbEntity
  8
keycap
  6
ByLayer
 62
  256
370
   -1
100
AcDbLine
 10
4.25873352639935
 20
24.24977235260083
 11
22.61132418595178
 21
29.16733414456513
  0
LINE
  5
112
100
AcDbEntity
  8
keycap
  6
ByLayer
 62
  256
370
   -1
100
AcDbLine
 10
-111.1037867127335
 20
-25.80217174444307
 11
-23.92898071275309
 21
-49.16059035463918
  0
LINE
  5
113
100
AcDbEntity
  8
keycap
  6
ByLayer
 62
  256
370
   -1
100
AcDbLine
 10
-4.258733526399311
 20
24.24977235260083
 11
-23.92898071275309
 21
-49.16059035463918
  0
LINE
  5
114
100
AcDbEntity
  8
keycap
  6
ByLayer
 62
  256
370
   -1
100
AcDbLine
 10
4.25873352639935
 20
24.24977235260083
 11
23.92898071275314
 21
-49.1605903546392
  0
LINE
  5
115
100
AcDbEntity
  8
keycap
  6
ByLayer
 62
  256
370
   -1
100
AcDbLine
 10
23.92898071275314
 20
-49.1605903546392
 11
111.1037867127335
 21
-25.80217174444308
  0
LINE
  5
116
100
AcDbEntity
  8
noname
  6
ByLayer
 62
  256
370
   -1
100
AcDbLine
 10
-94.25392009999999
 20
45.77571939118499
 11
-84.35442509999999
 21
28.62929119118499
  0
LINE
  5
117
100
AcDbEntity
  8
noname
  6
ByLayer
 62
  256
370
   -1
100
AcDbLine
 10
-74.67193889999999
 20
45.44630529118499
 11
-64.77244389999998
 21
28.29987709118499
  0
LINE
  5
118
100
AcDbEntity
  8
noname
  6
ByLayer
 62
  256
370
   -1
100
AcDbLine
 10
-55.08995769999998
 20
45.116891091185
 11
-45.19046269999998
 21
27.970462891185
  0
LINE
  5
119
100
AcDbEntity
  8
noname
  6
ByLayer
 62
  256
370
   -1
100
AcDbLine
 10
-37.96675749999999
 20
35.61118149118499
 11
-28.06726249999998
 21
18.46475329118499
  0
LINE
  5
11A
100
AcDbEntity
  8
noname
  6
ByLayer
 62
  256
370
   -1
100
AcDbLine
 10
-20.84355729999998
 20
26.105471991185
 11
-10.94406229999998
 21
8.959043791184996
  0
LINE
  5
11B
100
AcDbEntity
  8
noname
  6
ByLayer
 62
  256
370
   -1
100
AcDbLine
 10
-25.76111909999998
 20
7.752881291184999
 11
-15.86162409999998
 21
-9.393546908815001
  0
LINE
  5
11C
100
AcDbEntity
  8
noname
  6
ByLayer
 62
  256
370
   -1
100
AcDbLine
 10
-42.88431939999998
 20
17.258590791185
 11
-32.98482439999998
 21
0.1121625911849975
  0
LINE
  5
11D
100
AcDbEntity
  8
noname
  6
ByLayer
 62
  256
370
   -1
100
AcDbLine
 10
-60.00751959999998
 20
26.76430039118499
 11
-50.10802459999998
 21
9.617872191184993
  0
LINE
  5
11E
100
AcDbEntity
  8
noname
  6
ByLayer
 62
  256
370
   -1
100
AcDbLine
 10
-79.58950079999998
 20
27.09371459118499
 11
-69.69000579999998
 21
9.947286391184996
  0
LINE
  5
11F
100
AcDbEntity
  8
noname
  6
ByLayer
 62
  256
370
   -1
100
AcDbLine
 10
-99.17148189999999
 20
27.423128691185
 11
-89.27198689999999
 21
10.276700491185
  0
LINE
  5
120
100
AcDbEntity
  8
noname
  6
ByLayer
 62
  256
370
   -1
100
AcDbLine
 10
-104.0890438
 20
9.070537991184992
 11
-94.18954879999998
 21
-8.075890208815007
  0
LINE
  5
121
100
AcDbEntity
  8
noname
  6
ByLayer
 62
  256
370
   -1
100
AcDbLine
 10
-102.1243841
 20
-11.126138408815
 11
-92.22488909999998
 21
-28.272566608815
  0
LINE
  5
122
100
AcDbEntity
  8
noname
  6
ByLayer
 62
  256
370
   -1
100
AcDbLine
 10
-76.88957189999996
 20
-17.887785908815
 11
-66.99007689999996
 21
-35.03421410881501
  0
LINE
  5
123
100
AcDbEntity
  8
noname
  6
ByLayer
 62
  256
370
   -1
100
AcDbLine
 10
-84.50706259999998
 20
8.741123891184998
 11
-74.60756759999998
 21
-8.405304308815001
  0
LINE
  5
124
100
AcDbEntity
  8
noname
  6
ByLayer
 62
  256
370
   -1
100
AcDbLine
 10
-64.92508149999999
 20
8.411709691184996
 11
-55.02558649999999
 21
-8.734718508815003
  0
LINE
  5
125
100
AcDbEntity
  8
noname
  6
ByLayer
 62
  256
370
   -1
100
AcDbLine
 10
-47.80188119999998
 20
-1.093999908815007
 11
-37.90238619999998
 21
-18.24042810881501
  0
LINE
  5
126
100
AcDbEntity
  8
noname
  6
ByLayer
 62
  256
370
   -1
100
AcDbLine
 10
-44.77253819999999
 20
-26.493519208815
 11
-34.87304319999998
 21
-43.639947408815
  0
LINE
  5
127
100
AcDbEntity
  8
noname
  6
ByLayer
 62
  256
370
   -1
100
AcDbLine
 10
-30.67868099999998
 20
-10.59970940881501
 11
-20.77918599999998
 21
-27.746137608815
  0
LINE
  5
128
100
AcDbEntity
  8
noname
  6
ByLayer
 62
  256
370
   -1
100
AcDbLine
 10
-6.999999999999983
 20
-32.311599308815
 11
7.000000000000017
 21
-46.311599308815
  0
LINE
  5
129
100
AcDbEntity
  8
noname
  6
ByLayer
 62
  256
370
   -1
100
AcDbLine
 10
94.25392009999999
 20
45.77571939118499
 11
84.35442509999999
 21
28.62929119118499
  0
LINE
  5
12A
100
AcDbEntity
  8
noname
  6
ByLayer
 62
  256
370
   -1
100
AcDbLine
 10
74.67193889999999
 20
45.44630529118498
 11
64.77244389999998
 21
28.299877091185
  0
LINE
  5
12B
100
AcDbEntity
  8
noname
  6
ByLayer
 62
  256
370
   -1
100
AcDbLine
 10
55.08995769999998
 20
45.116891091185
 11
45.19046269999998
 21
27.97046289118499
  0
LINE
  5
12C
100
AcDbEntity
  8
noname
  6
ByLayer
 62
  256
370
   -1
100
AcDbLine
 10
37.96675749999999
 20
35.61118149118499
 11
28.06726249999998
 21
18.46475329118499
  0
LINE
  5
12D
100
AcDbEntity
  8
noname
  6
ByLayer
 62
  256
370
   -1
100
AcDbLine
 10
20.84355729999998
 20
26.10547199118499
 11
10.94406229999998
 21
8.959043791184996
  0
LINE
  5
12E
100
AcDbEntity
  8
noname
  6
ByLayer
 62
  256
370
   -1
100
AcDbLine
 10
25.76111909999998
 20
7.752881291184997
 11
15.86162409999998
 21
-9.393546908814994
  0
LINE
  5
12F
100
AcDbEntity
  8
noname
  6
ByLayer
 62
  256
370
   -1
100
AcDbLine
 10
42.88431939999998
 20
17.258590791185
 11
32.98482439999998
 21
0.1121625911849691
  0
LINE
  5
130
100
AcDbEntity
  8
noname
  6
ByLayer
 62
  256
370
   -1
100
AcDbLine
 10
60.00751959999998
 20
26.76430039118499
 11
50.10802459999998
 21
9.617872191185008
  0
LINE
  5
131
100
AcDbEntity
  8
noname
  6
ByLayer
 62
  256
370
   -1
100
AcDbLine
 10
79.58950079999998
 20
27.09371459118499
 11
69.69000579999998
 21
9.947286391184996
  0
LINE
  5
132
100
AcDbEntity
  8
noname
  6
ByLayer
 62
  256
370
   -1
100
AcDbLine
 10
99.17148189999999
 20
27.423128691185
 11
89.27198689999999
 21
10.276700491185
  0
LINE
  5
133
100
AcDbEntity
  8
noname
  6
ByLayer
 62
  256
370
   -1
100
AcDbLine
 10
104.0890438
 20
9.070537991184992
 11
94.18954879999998
 21
-8.075890208814986
  0
LINE
  5
134
100
AcDbEntity
  8
noname
  6
ByLayer
 62
  256
370
   -1
100
AcDbLine
 10
102.1243841
 20
-11.12613840881499
 11
92.22488909999998
 21
-28.27256660881499
  0
LINE
  5
135
100
AcDbEntity
  8
noname
  6
ByLayer
 62
  256
370
   -1
100
AcDbLine
 10
76.88957189999996
 20
-17.88778590881503
 11
66.99007689999996
 21
-35.03421410881501
  0
LINE
  5
136
100
AcDbEntity
  8
noname
  6
ByLayer
 62
  256
370
   -1
100
AcDbLine
 10
84.50706259999998
 20
8.741123891184998
 11
74.60756759999998
 21
-8.405304308815008
  0
LINE
  5
137
100
AcDbEntity
  8
noname
  6
ByLayer
 62
  256
370
   -1
100
AcDbLine
 10
64.92508149999999
 20
8.411709691184996
 11
55.02558649999999
 21
-8.734718508815011
  0
LINE
  5
138
100
AcDbEntity
  8
noname
  6
ByLayer
 62
  256
370
   -1
100
AcDbLine
 10
47.80188119999998
 20
-1.093999908815008
 11
37.90238619999998
 21
-18.24042810881501
  0
LINE
  5
139
100
AcDbEntity
  8
noname
  6
ByLayer
 62
  256
370
   -1
100
AcDbLine
 10
44.77253819999999
 20
-26.493519208815
 11
34.87304319999998
 21
-43.63994740881498
  0
LINE
  5
13A
100
AcDbEntity
  8
noname
  6
ByLayer
 62
  256
370
   -1
100
AcDbLine
 10
30.67868099999998
 20
-10.59970940881503
 11
20.77918599999998
 21
-27.746137608815
  0
CIRCLE
  5
13B
100
AcDbEntity
  8
percage
  6
ByLayer
 62
  256
370
   -1
100
AcDbCircle
 10
-22.64367659999998
 20
29.046593441185
 40
1.1
  0
CIRCLE
  5
13C
100
AcDbEntity
  8
percage
  6
ByLayer
 62
  256
370
   -1
100
AcDbCircle
 10
-77.70144869999999
 20
43.799279041185
 40
1.1
  0
CIRCLE
  5
13D
100
AcDbEntity
  8
percage
  6
ByLayer
 62
  256
370
   -1
100
AcDbCircle
 10
-106.73018055
 20
-14.55076180881501
 40
1.1
  0
CIRCLE
  5
13E
100
AcDbEntity
  8
percage
  6
ByLayer
 62
  256
370
   -1
100
AcDbCircle
 10
-20.93652159999998
 20
-44.975773358815
 40
1.1
  0
CIRCLE
  5
13F
100
AcDbEntity
  8
percage
  6
ByLayer
 62
  256
370
   -1
100
AcDbCircle
 10
22.64367659999998
 20
29.046593441185
 40
1.1
  0
CIRCLE
  5
140
100
AcDbEntity
  8
percage
  6
ByLayer
 62
  256
370
   -1
100
AcDbCircle
 10
77.70144869999999
 20
43.799279041185
 40
1.1
  0
CIRCLE
  5
141
100
AcDbEntity
  8
percage
  6
ByLayer
 62
  256
370
   -1
100
AcDbCircle
 10
106.73018055
 20
-14.55076180881504
 40
1.1
  0
CIRCLE
  5
142
100
AcDbEntity
  8
percage
  6
ByLayer
 62
  256
370
   -1
100
AcDbCircle
 10
20.93652159999998
 20
-44.97577335881498
 40
1.1
  0
LINE
  5
143
100
AcDbEntity
  8
noname
  6
ByLayer
 62
  256
370
   -1
100
AcDbLine
 10
-86.18660793249173
 20
-15.39665261490742
 11
-89.81007453249173
 21
-28.91961421490741
  0
LINE
  5
144
100
AcDbEntity
  8
noname
  6
ByLayer
 62
  256
370
   -1
100
AcDbLine
 10
-108.3595580060924
 20
-6.867238176323257
 11
-94.8365964060924
 21
-10.49070477632326
  0
LINE
  5
145
100
AcDbEntity
  8
noname
  6
ByLayer
 62
  256
370
   -1
100
AcDbLine
 10
-103.4419961060924
 20
11.48535252367674
 11
-89.9190345060924
 21
7.861885923676742
  0
LINE
  5
146
100
AcDbEntity
  8
noname
  6
ByLayer
 62
  256
370
   -1
100
AcDbLine
 10
-98.5244343060924
 20
29.83794322367674
 11
-85.0014727060924
 21
26.21447662367674
  0
LINE
  5
147
100
AcDbEntity
  8
noname
  6
ByLayer
 62
  256
370
   -1
100
AcDbLine
 10
-78.9424531060924
 20
29.50852912367674
 11
-65.4194915060924
 21
25.88506252367674
  0
LINE
  5
148
100
AcDbEntity
  8
noname
  6
ByLayer
 62
  256
370
   -1
100
AcDbLine
 10
-83.8600150060924
 20
11.15593842367674
 11
-70.33705340609239
 21
7.532471823676741
  0
LINE
  5
149
100
AcDbEntity
  8
noname
  6
ByLayer
 62
  256
370
   -1
100
AcDbLine
 10
-88.7775768060924
 20
-7.196652276323258
 11
-75.25461520609241
 21
-10.82011887632326
  0
LINE
  5
14A
100
AcDbEntity
  8
noname
  6
ByLayer
 62
  256
370
   -1
100
AcDbLine
 10
-69.1955957060924
 20
-7.52606647632326
 11
-55.6726341060924
 21
-11.14953307632326
  0
LINE
  5
14B
100
AcDbEntity
  8
noname
  6
ByLayer
 62
  256
370
   -1
100
AcDbLine
 10
-64.2780338060924
 20
10.82652422367674
 11
-50.7550722060924
 21
7.203057623676739
  0
LINE
  5
14C
100
AcDbEntity
  8
noname
  6
ByLayer
 62
  256
370
   -1
100
AcDbLine
 10
-59.36047199390757
 20
29.17911495869325
 11
-45.83751039390757
 21
25.55564835869325
  0
LINE
  5
14D
100
AcDbEntity
  8
noname
  6
ByLayer
 62
  256
370
   -1
100
AcDbLine
 10
-42.2372717060924
 20
19.67340532367674
 11
-28.71431010609239
 21
16.04993872367674
  0
LINE
  5
14E
100
AcDbEntity
  8
noname
  6
ByLayer
 62
  256
370
   -1
100
AcDbLine
 10
-47.1548336060924
 20
1.320814623676744
 11
-33.63187200609239
 21
-2.302651976323256
  0
LINE
  5
14F
100
AcDbEntity
  8
noname
  6
ByLayer
 62
  256
370
   -1
100
AcDbLine
 10
-52.0723954060924
 20
-17.03177607632326
 11
-38.5494338060924
 21
-20.65524267632327
  0
LINE
  5
150
100
AcDbEntity
  8
noname
  6
ByLayer
 62
  256
370
   -1
100
AcDbLine
 10
-30.0316333060924
 20
-8.184894876323257
 11
-16.5086717060924
 21
-11.80836147632326
  0
LINE
  5
151
100
AcDbEntity
  8
noname
  6
ByLayer
 62
  256
370
   -1
100
AcDbLine
 10
-25.1140715060924
 20
10.16769582367674
 11
-11.59110990609239
 21
6.544229223676742
  0
LINE
  5
152
100
AcDbEntity
  8
noname
  6
ByLayer
 62
  256
370
   -1
100
AcDbLine
 10
-76.24252429390756
 20
-15.47297134130675
 11
-62.71956269390757
 21
-19.09643794130675
  0
LINE
  5
153
100
AcDbEntity
  8
noname
  6
ByLayer
 62
  256
370
   -1
100
AcDbLine
 10
16.5086717939076
 20
-11.80836144130675
 11
30.03163339390762
 21
-8.184894841306747
  0
LINE
  5
154
100
AcDbEntity
  8
noname
  6
ByLayer
 62
  256
370
   -1
100
AcDbLine
 10
11.59110989390761
 20
6.544229258693253
 11
25.11407149390761
 21
10.16769585869325
  0
LINE
  5
155
100
AcDbEntity
  8
noname
  6
ByLayer
 62
  256
370
   -1
100
AcDbLine
 10
28.71431010609243
 20
16.04993872367674
 11
42.23727170609243
 21
19.67340532367674
  0
LINE
  5
156
100
AcDbEntity
  8
noname
  6
ByLayer
 62
  256
370
   -1
100
AcDbLine
 10
33.63187199390759
 20
-2.302651941306752
 11
47.1548335939076
 21
1.320814658693248
  0
LINE
  5
157
100
AcDbEntity
  8
noname
  6
ByLayer
 62
  256
370
   -1
100
AcDbLine
 10
38.54943380609242
 20
-20.65524267632327
 11
52.07239540609243
 21
-17.03177607632326
  0
LINE
  5
158
100
AcDbEntity
  8
noname
  6
ByLayer
 62
  256
370
   -1
100
AcDbLine
 10
45.83751039390759
 20
25.55564835869325
 11
59.36047199390759
 21
29.17911495869325
  0
LINE
  5
159
100
AcDbEntity
  8
noname
  6
ByLayer
 62
  256
370
   -1
100
AcDbLine
 10
50.7550722939076
 20
7.20305765869325
 11
64.2780338939076
 21
10.82652425869325
  0
LINE
  5
15A
100
AcDbEntity
  8
noname
  6
ByLayer
 62
  256
370
   -1
100
AcDbLine
 10
55.67263410609243
 20
-11.14953307632326
 11
69.19559570609243
 21
-7.52606647632326
  0
LINE
  5
15B
100
AcDbEntity
  8
noname
  6
ByLayer
 62
  256
370
   -1
100
AcDbLine
 10
65.41949159390759
 20
25.88506255869325
 11
78.9424531939076
 21
29.50852915869325
  0
LINE
  5
15C
100
AcDbEntity
  8
noname
  6
ByLayer
 62
  256
370
   -1
100
AcDbLine
 10
70.33705339390761
 20
7.532471858693253
 11
83.86001499390761
 21
11.15593845869325
  0
LINE
  5
15D
100
AcDbEntity
  8
noname
  6
ByLayer
 62
  256
370
   -1
100
AcDbLine
 10
75.25461520609244
 20
-10.82011887632326
 11
88.77757680609244
 21
-7.196652276323258
  0
LINE
  5
15E
100
AcDbEntity
  8
noname
  6
ByLayer
 62
  256
370
   -1
100
AcDbLine
 10
85.0014726939076
 20
26.21447665869325
 11
98.5244342939076
 21
29.83794325869325
  0
LINE
  5
15F
100
AcDbEntity
  8
noname
  6
ByLayer
 62
  256
370
   -1
100
AcDbLine
 10
89.91903459390761
 20
7.861885958693255
 11
103.4419961939076
 21
11.48535255869325
  0
LINE
  5
160
100
AcDbEntity
  8
noname
  6
ByLayer
 62
  256
370
   -1
100
AcDbLine
 10
94.83659640609244
 20
-10.49070477632326
 11
108.3595580060924
 21
-6.867238176323257
  0
LINE
  5
161
100
AcDbEntity
  8
noname
  6
ByLayer
 62
  256
370
   -1
100
AcDbLine
 10
86.18660793249177
 20
-15.39665261490741
 11
89.81007453249177
 21
-28.91961421490741
  0
LINE
  5
162
100
AcDbEntity
  8
noname
  6
ByLayer
 62
  256
370
   -1
100
AcDbLine
 10
62.71956269390759
 20
-19.09643794130675
 11
76.24252429390759
 21
-15.47297134130675
  0
ARC
  5
163
100
AcDbEntity
  8
pcb
  6
ByLayer
 62
  256
370
   -1
100
AcDbCircle
 10
19.96533319418505
 20
-8.811599308815033
 40
42
100
AcDbArc
 50
270
 51
284.9999998418872
  0
LINE
  5
164
100
AcDbEntity
  8
pcb
  6
ByLayer
 62
  256
370
   -1
100
AcDbLine
 10
-19.96533319418496
 20
-50.81159930881503
 11
19.96533319418504
 21
-50.81159930881503
  0
ARC
  5
165
100
AcDbEntity
  8
pcb
  6
ByLayer
 62
  256
370
   -1
100
AcDbCircle
 10
-19.96533319418496
 20
-8.811599308815033
 40
42
100
AcDbArc
 50
255.0000001581128
 51
270
  0
LINE
  5
166
100
AcDbEntity
  8
pcb
  6
ByLayer
 62
  256
370
   -1
100
AcDbLine
 10
-30.83573297653742
 20
-49.3804840429537
 11
-109.8715991484399
 21
-28.20288776286388
  0
LINE
  5
167
100
AcDbEntity
  8
pcb
  6
ByLayer
 62
  256
370
   -1
100
AcDbLine
 10
-112.0947176260789
 20
-25.25465049400728
 11
-111.8570562250786
 21
-11.12689904874666
  0
ARC
  5
168
100
AcDbEntity
  8
pcb
  6
ByLayer
 62
  256
370
   -1
100
AcDbCircle
 10
-109.095142021129
 20
-25.30511028185398
 40
3
100
AcDbArc
 50
179.0362435940523
 51
255.0000001581124
  0
LINE
  5
169
100
AcDbEntity
  8
pcb
  6
ByLayer
 62
  256
370
   -1
100
AcDbLine
 10
112.0947176260789
 20
-25.2546504940073
 11
111.8570562250787
 21
-11.12689904874667
  0
LINE
  5
16A
100
AcDbEntity
  8
pcb
  6
ByLayer
 62
  256
370
   -1
100
AcDbLine
 10
30.83573297653751
 20
-49.3804840429537
 11
109.8715991484399
 21
-28.20288776286388
  0
ARC
  5
16B
100
AcDbEntity
  8
pcb
  6
ByLayer
 62
  256
370
   -1
100
AcDbCircle
 10
109.095142021129
 20
-25.30511028185397
 40
3
100
AcDbArc
 50
284.9999998418875
 51
0.9637564059472807
  0
LINE
  5
16C
100
AcDbEntity
  8
noname
  6
ByLayer
 62
  256
370
   -1
100
AcDbLine
 10
14.74090483249176
 20
-14.87022361490742
 11
18.36437143249178
 21
-28.39318521490742
  0
LINE
  5
16D
100
AcDbEntity
  8
noname
  6
ByLayer
 62
  256
370
   -1
100
AcDbLine
 10
-14.74090483249173
 20
-14.87022361490741
 11
-18.36437143249173
 21
-28.39318521490741
  0
LINE
  5
16E
100
AcDbEntity
  8
noname
  6
ByLayer
 62
  256
370
   -1
100
AcDbLine
 10
-33.09349556750823
 20
-9.952661802722588
 11
-36.71696216750823
 21
-23.47562340272259
  0
LINE
  5
16F
100
AcDbEntity
  8
noname
  6
ByLayer
 62
  256
370
   -1
100
AcDbLine
 10
33.09349556750828
 20
-9.95266180272259
 11
36.71696216750829
 21
-23.47562340272259
  0
LINE
  5
170
100
AcDbEntity
  8
noname
  6
ByLayer
 62
  256
370
   -1
100
AcDbLine
 10
-6.999999999999983
 20
-29.811599308815
 11
7.000000000000017
 21
-29.811599308815
  0
ENDSEC
  0
SECTION
  2
OBJECTS
  0
DICTIONARY
  5
C
330
0
100
AcDbDictionary
281
    1
  3
ACAD_GROUP
350
D
  0
DICTIONARY
  5
D
330
C
100
AcDbDictionary
281
    1
  0
PLOTSETTINGS
  5
171
100
AcDbPlotSettings
  6
1x1
 40
0
 41
0
 42
0
 43
0
  0
ENDSEC
  0
EOF
