M48
INCH
T1C0.0670
T2C0.0866
T3C0.1200
T4C0.1570
%
G90
G05
T1
X1.7685Y-1.9685
X1.8623Y-2.7185
X1.8623Y-4.9685
X1.956Y-3.4685
X2.1435Y-4.2185
X2.1685Y-1.9685
X2.2623Y-2.7185
X2.2623Y-4.9685
X2.356Y-3.4685
X2.5185Y-1.9685
X2.5435Y-4.2185
X2.706Y-2.7185
X2.706Y-4.9685
X2.8935Y-3.4685
X2.9185Y-1.9685
X3.106Y-2.7185
X3.106Y-4.9685
X3.2685Y-1.9685
X3.2685Y-4.2185
X3.2935Y-3.4685
X3.456Y-2.7185
X3.5498Y-4.9685
X3.6435Y-3.4685
X3.6685Y-1.9685
X3.6685Y-4.2185
X3.856Y-2.7185
X3.9498Y-4.9685
X4.0185Y-1.9685
X4.0185Y-4.2185
X4.0435Y-3.4685
X4.206Y-2.7185
X4.3935Y-3.4685
X4.4185Y-1.9685
X4.4185Y-4.2185
X4.606Y-2.7185
X4.7685Y-1.9685
X4.7685Y-4.2185
X4.7935Y-3.4685
X4.956Y-2.7185
X5.0498Y-4.9685
X5.1435Y-3.4685
X5.1685Y-1.9685
X5.1685Y-4.2185
X5.356Y-2.7185
X5.4498Y-4.9685
X5.5185Y-1.9685
X5.5185Y-4.2185
X5.5435Y-3.4685
X5.706Y-2.7185
X5.8935Y-3.4685
X5.9185Y-1.9685
X5.9185Y-4.2185
X6.106Y-2.7185
X6.2685Y-1.9685
X6.2685Y-4.2185
X6.2935Y-3.4685
X6.456Y-2.7185
X6.6435Y-3.4685
X6.6685Y-1.9685
X6.6685Y-4.2185
X6.856Y-2.7185
X6.9248Y-4.9685
X7.0185Y-1.9685
X7.0185Y-4.2185
X7.0435Y-3.4685
X7.206Y-2.7185
X7.3248Y-4.9685
X7.3935Y-3.4685
X7.4185Y-1.9685
X7.4185Y-4.2185
X7.606Y-2.7185
X7.7685Y-1.9685
X7.7685Y-4.2185
X7.7935Y-3.4685
X7.956Y-2.7185
X8.1435Y-3.4685
X8.1685Y-1.9685
X8.1685Y-4.2185
X8.2373Y-4.9685
X8.356Y-2.7185
X8.5185Y-1.9685
X8.5185Y-4.2185
X8.5435Y-3.4685
X8.6373Y-4.9685
X8.706Y-2.7185
X8.8935Y-3.4685
X8.9185Y-1.9685
X8.9185Y-4.2185
X9.106Y-2.7185
X9.1748Y-4.9685
X9.2685Y-1.9685
X9.2685Y-4.2185
X9.2935Y-3.4685
X9.456Y-2.7185
X9.5748Y-4.9685
X9.6685Y-1.9685
X9.6685Y-4.2185
X9.856Y-2.7185
X10.0185Y-3.4685
X10.0185Y-4.2185
X10.206Y-1.9685
X10.206Y-5.156
X10.2998Y-2.7185
X10.4185Y-3.4685
X10.4185Y-4.2185
X10.606Y-1.9685
X10.606Y-5.156
X10.6998Y-2.7185
X10.956Y-4.406
X10.956Y-5.156
X11.331Y-3.4685
X11.356Y-4.406
X11.356Y-5.156
X11.706Y-5.156
X11.731Y-3.4685
X12.106Y-5.156
T2
X3.3279Y-2.3435
X3.3279Y-4.5935
X6.9373Y-3.8435
X11.906Y-4.406
T3
X1.8735Y-4.4935
X2.8135Y-4.4935
X4.7798Y-5.2435
X5.7198Y-5.2435
X6.6548Y-5.2435
X7.5948Y-5.2435
X9.7485Y-3.7435
X10.6885Y-3.7435
T4
X1.8735Y-3.8935
X1.9685Y-1.9685
X2.0623Y-2.7185
X2.0623Y-4.9685
X2.156Y-3.4685
X2.3435Y-4.2185
X2.7185Y-1.9685
X2.8135Y-3.8935
X2.906Y-2.7185
X2.906Y-4.9685
X3.0935Y-3.4685
X3.4685Y-1.9685
X3.4685Y-4.2185
X3.656Y-2.7185
X3.7498Y-4.9685
X3.8435Y-3.4685
X4.2185Y-1.9685
X4.2185Y-4.2185
X4.406Y-2.7185
X4.5935Y-3.4685
X4.7798Y-4.6435
X4.9685Y-1.9685
X4.9685Y-4.2185
X5.156Y-2.7185
X5.2498Y-4.9685
X5.3435Y-3.4685
X5.7185Y-1.9685
X5.7185Y-4.2185
X5.7198Y-4.6435
X5.906Y-2.7185
X6.0935Y-3.4685
X6.4685Y-1.9685
X6.4685Y-4.2185
X6.6548Y-4.6435
X6.656Y-2.7185
X6.8435Y-3.4685
X7.1248Y-4.9685
X7.2185Y-1.9685
X7.2185Y-4.2185
X7.406Y-2.7185
X7.5935Y-3.4685
X7.5948Y-4.6435
X7.9685Y-1.9685
X7.9685Y-4.2185
X8.156Y-2.7185
X8.3435Y-3.4685
X8.4373Y-4.9685
X8.7185Y-1.9685
X8.7185Y-4.2185
X8.906Y-2.7185
X9.0935Y-3.4685
X9.3748Y-4.9685
X9.4685Y-1.9685
X9.4685Y-4.2185
X9.656Y-2.7185
X9.7485Y-3.1435
X10.2185Y-3.4685
X10.2185Y-4.2185
X10.406Y-1.9685
X10.406Y-5.156
X10.4998Y-2.7185
X10.6885Y-3.1435
X11.156Y-4.406
X11.156Y-5.156
X11.531Y-3.4685
X11.906Y-5.156
T0
M30
