%TF.GenerationSoftware,KiCad,Pcbnew,7.0.9*%
%TF.CreationDate,2024-03-10T13:20:19+01:00*%
%TF.ProjectId,65petit,36357065-7469-4742-9e6b-696361645f70,rev?*%
%TF.SameCoordinates,Original*%
%TF.FileFunction,Soldermask,Top*%
%TF.FilePolarity,Negative*%
%FSLAX46Y46*%
G04 Gerber Fmt 4.6, Leading zero omitted, Abs format (unit mm)*
G04 Created by KiCad (PCBNEW 7.0.9) date 2024-03-10 13:20:19*
%MOMM*%
%LPD*%
G01*
G04 APERTURE LIST*
%ADD10C,1.701800*%
%ADD11C,3.987800*%
%ADD12R,1.600000X1.600000*%
%ADD13O,1.600000X1.600000*%
%ADD14O,2.500000X1.500000*%
%ADD15O,1.500000X2.500000*%
%ADD16C,2.200000*%
%ADD17C,3.048000*%
G04 APERTURE END LIST*
D10*
%TO.C,MX38*%
X102070000Y-107150000D03*
D11*
X107150000Y-107150000D03*
D10*
X112230000Y-107150000D03*
%TD*%
D12*
%TO.C,D22*%
X235212500Y-72860000D03*
D13*
X235212500Y-65240000D03*
%TD*%
D10*
%TO.C,MX17*%
X125882500Y-69050000D03*
D11*
X130962500Y-69050000D03*
D10*
X136042500Y-69050000D03*
%TD*%
%TO.C,MX59*%
X233038750Y-126200000D03*
D11*
X238118750Y-126200000D03*
D10*
X243198750Y-126200000D03*
%TD*%
%TO.C,MX32*%
X187795000Y-88100000D03*
D11*
X192875000Y-88100000D03*
D10*
X197955000Y-88100000D03*
%TD*%
D12*
%TO.C,D43*%
X211400000Y-110960000D03*
D13*
X211400000Y-103340000D03*
%TD*%
D12*
%TO.C,D45*%
X249500000Y-110960000D03*
D13*
X249500000Y-103340000D03*
%TD*%
%TO.C,D54*%
X82812500Y-122390000D03*
D12*
X82812500Y-130010000D03*
%TD*%
%TO.C,D21*%
X216162500Y-72860000D03*
D13*
X216162500Y-65240000D03*
%TD*%
D12*
%TO.C,D23*%
X254262500Y-72860000D03*
D13*
X254262500Y-65240000D03*
%TD*%
D10*
%TO.C,MX47*%
X259232500Y-130962500D03*
D11*
X264312500Y-130962500D03*
D10*
X269392500Y-130962500D03*
%TD*%
D12*
%TO.C,D30*%
X163775000Y-91910000D03*
D13*
X163775000Y-84290000D03*
%TD*%
D10*
%TO.C,MX30*%
X149695000Y-88100000D03*
D11*
X154775000Y-88100000D03*
D10*
X159855000Y-88100000D03*
%TD*%
%TO.C,MX58*%
X209226250Y-126200000D03*
D11*
X214306250Y-126200000D03*
D10*
X219386250Y-126200000D03*
%TD*%
%TO.C,MX45*%
X235420000Y-107150000D03*
D11*
X240500000Y-107150000D03*
D10*
X245580000Y-107150000D03*
%TD*%
D12*
%TO.C,D50*%
X298602500Y-121962500D03*
D13*
X306222500Y-121962500D03*
%TD*%
D10*
%TO.C,MX5*%
X121120000Y-50000000D03*
D11*
X126200000Y-50000000D03*
D10*
X131280000Y-50000000D03*
%TD*%
%TO.C,MX13*%
X47301250Y-69050000D03*
D11*
X52381250Y-69050000D03*
D10*
X57461250Y-69050000D03*
%TD*%
%TO.C,MX46*%
X254470000Y-107150000D03*
D11*
X259550000Y-107150000D03*
D10*
X264630000Y-107150000D03*
%TD*%
%TO.C,MX19*%
X163982500Y-69050000D03*
D11*
X169062500Y-69050000D03*
D10*
X174142500Y-69050000D03*
%TD*%
%TO.C,MX40*%
X140170000Y-107150000D03*
D11*
X145250000Y-107150000D03*
D10*
X150330000Y-107150000D03*
%TD*%
%TO.C,MX12*%
X259232500Y-50000000D03*
D11*
X264312500Y-50000000D03*
D10*
X269392500Y-50000000D03*
%TD*%
%TO.C,MX49*%
X278282500Y-111912500D03*
D11*
X283362500Y-111912500D03*
D10*
X288442500Y-111912500D03*
%TD*%
D12*
%TO.C,D10*%
X230450000Y-53810000D03*
D13*
X230450000Y-46190000D03*
%TD*%
D12*
%TO.C,D51*%
X296697500Y-97100000D03*
D13*
X289077500Y-97100000D03*
%TD*%
%TO.C,D53*%
X61381250Y-122390000D03*
D12*
X61381250Y-130010000D03*
%TD*%
D10*
%TO.C,MX14*%
X68732500Y-69050000D03*
D11*
X73812500Y-69050000D03*
D10*
X78892500Y-69050000D03*
%TD*%
D12*
%TO.C,D40*%
X154250000Y-110960000D03*
D13*
X154250000Y-103340000D03*
%TD*%
D10*
%TO.C,MX42*%
X178270000Y-107150000D03*
D11*
X183350000Y-107150000D03*
D10*
X188430000Y-107150000D03*
%TD*%
D12*
%TO.C,D16*%
X120912500Y-72860000D03*
D13*
X120912500Y-65240000D03*
%TD*%
D10*
%TO.C,MX54*%
X68732500Y-126200000D03*
D11*
X73812500Y-126200000D03*
D10*
X78892500Y-126200000D03*
%TD*%
D12*
%TO.C,D19*%
X178062500Y-72860000D03*
D13*
X178062500Y-65240000D03*
%TD*%
D10*
%TO.C,MX48*%
X278282500Y-130962500D03*
D11*
X283362500Y-130962500D03*
D10*
X288442500Y-130962500D03*
%TD*%
%TO.C,MX7*%
X159220000Y-50000000D03*
D11*
X164300000Y-50000000D03*
D10*
X169380000Y-50000000D03*
%TD*%
%TO.C,MX34*%
X225895000Y-88100000D03*
D11*
X230975000Y-88100000D03*
D10*
X236055000Y-88100000D03*
%TD*%
%TO.C,MX3*%
X83020000Y-50000000D03*
D11*
X88100000Y-50000000D03*
D10*
X93180000Y-50000000D03*
%TD*%
D14*
%TO.C,U1*%
X301151250Y-45793125D03*
X301151250Y-48333125D03*
X301151250Y-50873125D03*
X301151250Y-53413125D03*
X301151250Y-55953125D03*
X301151250Y-58493125D03*
X301151250Y-61033125D03*
X301151250Y-63573125D03*
X301151250Y-66113125D03*
D15*
X298111250Y-66613125D03*
X295571250Y-66613125D03*
X293031250Y-66613125D03*
X290491250Y-66613125D03*
X287951250Y-66613125D03*
D14*
X284911250Y-66113125D03*
X284911250Y-63573125D03*
X284911250Y-61033125D03*
X284911250Y-58493125D03*
X284911250Y-55953125D03*
X284911250Y-53413125D03*
X284911250Y-50873125D03*
X284911250Y-48333125D03*
X284911250Y-45793125D03*
%TD*%
D12*
%TO.C,D33*%
X220925000Y-91910000D03*
D13*
X220925000Y-84290000D03*
%TD*%
D12*
%TO.C,D37*%
X97100000Y-110960000D03*
D13*
X97100000Y-103340000D03*
%TD*%
D16*
%TO.C,REF\u002A\u002A*%
X176206250Y-97625000D03*
%TD*%
D10*
%TO.C,MX8*%
X178270000Y-50000000D03*
D11*
X183350000Y-50000000D03*
D10*
X188430000Y-50000000D03*
%TD*%
D12*
%TO.C,D48*%
X292362500Y-134772500D03*
D13*
X292362500Y-127152500D03*
%TD*%
D12*
%TO.C,D8*%
X192350000Y-53810000D03*
D13*
X192350000Y-46190000D03*
%TD*%
D10*
%TO.C,MX16*%
X106832500Y-69050000D03*
D11*
X111912500Y-69050000D03*
D10*
X116992500Y-69050000D03*
%TD*%
D12*
%TO.C,D41*%
X173300000Y-110960000D03*
D13*
X173300000Y-103340000D03*
%TD*%
D12*
%TO.C,D3*%
X97100000Y-53810000D03*
D13*
X97100000Y-46190000D03*
%TD*%
D10*
%TO.C,MX31*%
X168745000Y-88100000D03*
D11*
X173825000Y-88100000D03*
D10*
X178905000Y-88100000D03*
%TD*%
D12*
%TO.C,D42*%
X192350000Y-110960000D03*
D13*
X192350000Y-103340000D03*
%TD*%
D12*
%TO.C,D39*%
X135200000Y-110960000D03*
D13*
X135200000Y-103340000D03*
%TD*%
D10*
%TO.C,MX15*%
X87782500Y-69050000D03*
D11*
X92862500Y-69050000D03*
D10*
X97942500Y-69050000D03*
%TD*%
D12*
%TO.C,D11*%
X249500000Y-53810000D03*
D13*
X249500000Y-46190000D03*
%TD*%
D12*
%TO.C,D57*%
X177158750Y-135200000D03*
D13*
X184778750Y-135200000D03*
%TD*%
D12*
%TO.C,D38*%
X116150000Y-110960000D03*
D13*
X116150000Y-103340000D03*
%TD*%
D10*
%TO.C,MX4*%
X102070000Y-50000000D03*
D11*
X107150000Y-50000000D03*
D10*
X112230000Y-50000000D03*
%TD*%
D12*
%TO.C,D36*%
X63335000Y-116150000D03*
D13*
X55715000Y-116150000D03*
%TD*%
D12*
%TO.C,D32*%
X201875000Y-91910000D03*
D13*
X201875000Y-84290000D03*
%TD*%
D10*
%TO.C,MX23*%
X240182500Y-69050000D03*
D11*
X245262500Y-69050000D03*
D10*
X250342500Y-69050000D03*
%TD*%
D12*
%TO.C,D9*%
X211400000Y-53810000D03*
D13*
X211400000Y-46190000D03*
%TD*%
D12*
%TO.C,D47*%
X273312500Y-134772500D03*
D13*
X273312500Y-127152500D03*
%TD*%
D12*
%TO.C,D18*%
X159012500Y-72860000D03*
D13*
X159012500Y-65240000D03*
%TD*%
D12*
%TO.C,D25*%
X63762500Y-91910000D03*
D13*
X63762500Y-84290000D03*
%TD*%
D10*
%TO.C,MX29*%
X130645000Y-88100000D03*
D11*
X135725000Y-88100000D03*
D10*
X140805000Y-88100000D03*
%TD*%
D12*
%TO.C,D5*%
X135200000Y-53810000D03*
D13*
X135200000Y-46190000D03*
%TD*%
D12*
%TO.C,D4*%
X116150000Y-53810000D03*
D13*
X116150000Y-46190000D03*
%TD*%
D10*
%TO.C,MX53*%
X47301250Y-126200000D03*
D11*
X52381250Y-126200000D03*
D10*
X57461250Y-126200000D03*
%TD*%
D16*
%TO.C,REF\u002A\u002A*%
X84528125Y-116675000D03*
%TD*%
D10*
%TO.C,MX11*%
X235420000Y-50000000D03*
D11*
X240500000Y-50000000D03*
D10*
X245580000Y-50000000D03*
%TD*%
D16*
%TO.C,REF\u002A\u002A*%
X84528125Y-59525000D03*
%TD*%
D12*
%TO.C,D31*%
X182825000Y-91910000D03*
D13*
X182825000Y-84290000D03*
%TD*%
D12*
%TO.C,D26*%
X87575000Y-91910000D03*
D13*
X87575000Y-84290000D03*
%TD*%
D10*
%TO.C,MX55*%
X90163750Y-126200000D03*
D11*
X95243750Y-126200000D03*
D10*
X100323750Y-126200000D03*
%TD*%
%TO.C,MX26*%
X73495000Y-88100000D03*
D11*
X78575000Y-88100000D03*
D10*
X83655000Y-88100000D03*
%TD*%
D12*
%TO.C,D49*%
X279552500Y-120912500D03*
D13*
X287172500Y-120912500D03*
%TD*%
D10*
%TO.C,MX10*%
X216370000Y-50000000D03*
D11*
X221450000Y-50000000D03*
D10*
X226530000Y-50000000D03*
%TD*%
%TO.C,MX20*%
X183032500Y-69050000D03*
D11*
X188112500Y-69050000D03*
D10*
X193192500Y-69050000D03*
%TD*%
D12*
%TO.C,D6*%
X154250000Y-53810000D03*
D13*
X154250000Y-46190000D03*
%TD*%
D10*
%TO.C,MX18*%
X144932500Y-69050000D03*
D11*
X150012500Y-69050000D03*
D10*
X155092500Y-69050000D03*
%TD*%
D12*
%TO.C,D13*%
X61381250Y-72860000D03*
D13*
X61381250Y-65240000D03*
%TD*%
D12*
%TO.C,D27*%
X106625000Y-91910000D03*
D13*
X106625000Y-84290000D03*
%TD*%
D12*
%TO.C,D29*%
X144725000Y-91910000D03*
D13*
X144725000Y-84290000D03*
%TD*%
%TO.C,D55*%
X104243750Y-122390000D03*
D12*
X104243750Y-130010000D03*
%TD*%
D10*
%TO.C,MX43*%
X197320000Y-107150000D03*
D11*
X202400000Y-107150000D03*
D10*
X207480000Y-107150000D03*
%TD*%
D12*
%TO.C,D59*%
X247118750Y-130010000D03*
D13*
X247118750Y-122390000D03*
%TD*%
D11*
%TO.C,MX56*%
X121405750Y-117945000D03*
D17*
X121405750Y-133185000D03*
D10*
X128263750Y-126200000D03*
D11*
X133343750Y-126200000D03*
D10*
X138423750Y-126200000D03*
D11*
X145281750Y-117945000D03*
D17*
X145281750Y-133185000D03*
%TD*%
D12*
%TO.C,D12*%
X273312500Y-53810000D03*
D13*
X273312500Y-46190000D03*
%TD*%
D10*
%TO.C,MX21*%
X202082500Y-69050000D03*
D11*
X207162500Y-69050000D03*
D10*
X212242500Y-69050000D03*
%TD*%
D12*
%TO.C,D7*%
X173300000Y-53810000D03*
D13*
X173300000Y-46190000D03*
%TD*%
D10*
%TO.C,MX41*%
X159220000Y-107150000D03*
D11*
X164300000Y-107150000D03*
D10*
X169380000Y-107150000D03*
%TD*%
D12*
%TO.C,D1*%
X59000000Y-53810000D03*
D13*
X59000000Y-46190000D03*
%TD*%
D10*
%TO.C,MX39*%
X121120000Y-107150000D03*
D11*
X126200000Y-107150000D03*
D10*
X131280000Y-107150000D03*
%TD*%
D12*
%TO.C,D44*%
X230450000Y-110960000D03*
D13*
X230450000Y-103340000D03*
%TD*%
D11*
%TO.C,MX35*%
X247612000Y-79845000D03*
D17*
X247612000Y-95085000D03*
D10*
X254470000Y-88100000D03*
D11*
X259550000Y-88100000D03*
D10*
X264630000Y-88100000D03*
D11*
X271488000Y-79845000D03*
D17*
X271488000Y-95085000D03*
%TD*%
D10*
%TO.C,MX37*%
X83020000Y-107150000D03*
D11*
X88100000Y-107150000D03*
D10*
X93180000Y-107150000D03*
%TD*%
D16*
%TO.C,REF\u002A\u002A*%
X302412500Y-111912500D03*
%TD*%
D10*
%TO.C,MX24*%
X261613750Y-69050000D03*
D11*
X266693750Y-69050000D03*
D10*
X271773750Y-69050000D03*
%TD*%
%TO.C,MX9*%
X197320000Y-50000000D03*
D11*
X202400000Y-50000000D03*
D10*
X207480000Y-50000000D03*
%TD*%
D12*
%TO.C,D2*%
X78050000Y-53810000D03*
D13*
X78050000Y-46190000D03*
%TD*%
D12*
%TO.C,D20*%
X197112500Y-72860000D03*
D13*
X197112500Y-65240000D03*
%TD*%
D10*
%TO.C,MX2*%
X63970000Y-50000000D03*
D11*
X69050000Y-50000000D03*
D10*
X74130000Y-50000000D03*
%TD*%
%TO.C,MX44*%
X216370000Y-107150000D03*
D11*
X221450000Y-107150000D03*
D10*
X226530000Y-107150000D03*
%TD*%
%TO.C,MX1*%
X44920000Y-50000000D03*
D11*
X50000000Y-50000000D03*
D10*
X55080000Y-50000000D03*
%TD*%
%TO.C,MX22*%
X221132500Y-69050000D03*
D11*
X226212500Y-69050000D03*
D10*
X231292500Y-69050000D03*
%TD*%
%TO.C,MX33*%
X206845000Y-88100000D03*
D11*
X211925000Y-88100000D03*
D10*
X217005000Y-88100000D03*
%TD*%
D12*
%TO.C,D34*%
X239975000Y-91910000D03*
D13*
X239975000Y-84290000D03*
%TD*%
D12*
%TO.C,D28*%
X125675000Y-91910000D03*
D13*
X125675000Y-84290000D03*
%TD*%
D12*
%TO.C,D56*%
X129533750Y-135200000D03*
D13*
X137153750Y-135200000D03*
%TD*%
D10*
%TO.C,MX51*%
X287807500Y-88100000D03*
D11*
X292887500Y-88100000D03*
D10*
X297967500Y-88100000D03*
%TD*%
%TO.C,MX25*%
X49682500Y-88100000D03*
D11*
X54762500Y-88100000D03*
D10*
X59842500Y-88100000D03*
%TD*%
%TO.C,MX6*%
X140170000Y-50000000D03*
D11*
X145250000Y-50000000D03*
D10*
X150330000Y-50000000D03*
%TD*%
D11*
%TO.C,MX57*%
X169030750Y-117945000D03*
D17*
X169030750Y-133185000D03*
D10*
X175888750Y-126200000D03*
D11*
X180968750Y-126200000D03*
D10*
X186048750Y-126200000D03*
D11*
X192906750Y-117945000D03*
D17*
X192906750Y-133185000D03*
%TD*%
D12*
%TO.C,D24*%
X275693750Y-72860000D03*
D13*
X275693750Y-65240000D03*
%TD*%
D12*
%TO.C,D15*%
X101862500Y-72860000D03*
D13*
X101862500Y-65240000D03*
%TD*%
D12*
%TO.C,D58*%
X223306250Y-130010000D03*
D13*
X223306250Y-122390000D03*
%TD*%
D10*
%TO.C,MX27*%
X92545000Y-88100000D03*
D11*
X97625000Y-88100000D03*
D10*
X102705000Y-88100000D03*
%TD*%
D11*
%TO.C,MX36*%
X47587000Y-98895000D03*
D17*
X47587000Y-114135000D03*
D10*
X54445000Y-107150000D03*
D11*
X59525000Y-107150000D03*
D10*
X64605000Y-107150000D03*
D11*
X71463000Y-98895000D03*
D17*
X71463000Y-114135000D03*
%TD*%
D10*
%TO.C,MX28*%
X111595000Y-88100000D03*
D11*
X116675000Y-88100000D03*
D10*
X121755000Y-88100000D03*
%TD*%
D12*
%TO.C,D35*%
X255740000Y-79100000D03*
D13*
X263360000Y-79100000D03*
%TD*%
D10*
%TO.C,MX50*%
X297332500Y-130962500D03*
D11*
X302412500Y-130962500D03*
D10*
X307492500Y-130962500D03*
%TD*%
D12*
%TO.C,D14*%
X82812500Y-72860000D03*
D13*
X82812500Y-65240000D03*
%TD*%
D12*
%TO.C,D17*%
X139962500Y-72860000D03*
D13*
X139962500Y-65240000D03*
%TD*%
D12*
%TO.C,D46*%
X268550000Y-110960000D03*
D13*
X268550000Y-103340000D03*
%TD*%
M02*
