%TF.GenerationSoftware,KiCad,Pcbnew,7.0.9*%
%TF.CreationDate,2024-03-10T13:20:19+01:00*%
%TF.ProjectId,65petit,36357065-7469-4742-9e6b-696361645f70,rev?*%
%TF.SameCoordinates,Original*%
%TF.FileFunction,Legend,Top*%
%TF.FilePolarity,Positive*%
%FSLAX46Y46*%
G04 Gerber Fmt 4.6, Leading zero omitted, Abs format (unit mm)*
G04 Created by KiCad (PCBNEW 7.0.9) date 2024-03-10 13:20:19*
%MOMM*%
%LPD*%
G01*
G04 APERTURE LIST*
%ADD10C,0.120000*%
%ADD11C,1.701800*%
%ADD12C,3.987800*%
%ADD13R,1.600000X1.600000*%
%ADD14O,1.600000X1.600000*%
%ADD15O,2.500000X1.500000*%
%ADD16O,1.500000X2.500000*%
%ADD17C,2.200000*%
%ADD18C,3.048000*%
G04 APERTURE END LIST*
D10*
%TO.C,D22*%
X235212500Y-71820000D02*
X235212500Y-71170000D01*
X234092500Y-71170000D02*
X236332500Y-71170000D01*
X236332500Y-71170000D02*
X236332500Y-66930000D01*
X234092500Y-70570000D02*
X236332500Y-70570000D01*
X234092500Y-70450000D02*
X236332500Y-70450000D01*
X234092500Y-70330000D02*
X236332500Y-70330000D01*
X234092500Y-66930000D02*
X234092500Y-71170000D01*
X236332500Y-66930000D02*
X234092500Y-66930000D01*
X235212500Y-66280000D02*
X235212500Y-66930000D01*
%TO.C,D43*%
X211400000Y-109920000D02*
X211400000Y-109270000D01*
X210280000Y-109270000D02*
X212520000Y-109270000D01*
X212520000Y-109270000D02*
X212520000Y-105030000D01*
X210280000Y-108670000D02*
X212520000Y-108670000D01*
X210280000Y-108550000D02*
X212520000Y-108550000D01*
X210280000Y-108430000D02*
X212520000Y-108430000D01*
X210280000Y-105030000D02*
X210280000Y-109270000D01*
X212520000Y-105030000D02*
X210280000Y-105030000D01*
X211400000Y-104380000D02*
X211400000Y-105030000D01*
%TO.C,D45*%
X249500000Y-109920000D02*
X249500000Y-109270000D01*
X248380000Y-109270000D02*
X250620000Y-109270000D01*
X250620000Y-109270000D02*
X250620000Y-105030000D01*
X248380000Y-108670000D02*
X250620000Y-108670000D01*
X248380000Y-108550000D02*
X250620000Y-108550000D01*
X248380000Y-108430000D02*
X250620000Y-108430000D01*
X248380000Y-105030000D02*
X248380000Y-109270000D01*
X250620000Y-105030000D02*
X248380000Y-105030000D01*
X249500000Y-104380000D02*
X249500000Y-105030000D01*
%TO.C,D54*%
X82812500Y-123430000D02*
X82812500Y-124080000D01*
X83932500Y-124080000D02*
X81692500Y-124080000D01*
X81692500Y-124080000D02*
X81692500Y-128320000D01*
X81692500Y-127480000D02*
X83932500Y-127480000D01*
X81692500Y-127600000D02*
X83932500Y-127600000D01*
X81692500Y-127720000D02*
X83932500Y-127720000D01*
X83932500Y-128320000D02*
X83932500Y-124080000D01*
X81692500Y-128320000D02*
X83932500Y-128320000D01*
X82812500Y-128970000D02*
X82812500Y-128320000D01*
%TO.C,D21*%
X216162500Y-71820000D02*
X216162500Y-71170000D01*
X215042500Y-71170000D02*
X217282500Y-71170000D01*
X217282500Y-71170000D02*
X217282500Y-66930000D01*
X215042500Y-70570000D02*
X217282500Y-70570000D01*
X215042500Y-70450000D02*
X217282500Y-70450000D01*
X215042500Y-70330000D02*
X217282500Y-70330000D01*
X215042500Y-66930000D02*
X215042500Y-71170000D01*
X217282500Y-66930000D02*
X215042500Y-66930000D01*
X216162500Y-66280000D02*
X216162500Y-66930000D01*
%TO.C,D23*%
X254262500Y-71820000D02*
X254262500Y-71170000D01*
X253142500Y-71170000D02*
X255382500Y-71170000D01*
X255382500Y-71170000D02*
X255382500Y-66930000D01*
X253142500Y-70570000D02*
X255382500Y-70570000D01*
X253142500Y-70450000D02*
X255382500Y-70450000D01*
X253142500Y-70330000D02*
X255382500Y-70330000D01*
X253142500Y-66930000D02*
X253142500Y-71170000D01*
X255382500Y-66930000D02*
X253142500Y-66930000D01*
X254262500Y-66280000D02*
X254262500Y-66930000D01*
%TO.C,D30*%
X163775000Y-90870000D02*
X163775000Y-90220000D01*
X162655000Y-90220000D02*
X164895000Y-90220000D01*
X164895000Y-90220000D02*
X164895000Y-85980000D01*
X162655000Y-89620000D02*
X164895000Y-89620000D01*
X162655000Y-89500000D02*
X164895000Y-89500000D01*
X162655000Y-89380000D02*
X164895000Y-89380000D01*
X162655000Y-85980000D02*
X162655000Y-90220000D01*
X164895000Y-85980000D02*
X162655000Y-85980000D01*
X163775000Y-85330000D02*
X163775000Y-85980000D01*
%TO.C,D50*%
X299642500Y-121962500D02*
X300292500Y-121962500D01*
X300292500Y-120842500D02*
X300292500Y-123082500D01*
X300292500Y-123082500D02*
X304532500Y-123082500D01*
X300892500Y-120842500D02*
X300892500Y-123082500D01*
X301012500Y-120842500D02*
X301012500Y-123082500D01*
X301132500Y-120842500D02*
X301132500Y-123082500D01*
X304532500Y-120842500D02*
X300292500Y-120842500D01*
X304532500Y-123082500D02*
X304532500Y-120842500D01*
X305182500Y-121962500D02*
X304532500Y-121962500D01*
%TO.C,D10*%
X230450000Y-52770000D02*
X230450000Y-52120000D01*
X229330000Y-52120000D02*
X231570000Y-52120000D01*
X231570000Y-52120000D02*
X231570000Y-47880000D01*
X229330000Y-51520000D02*
X231570000Y-51520000D01*
X229330000Y-51400000D02*
X231570000Y-51400000D01*
X229330000Y-51280000D02*
X231570000Y-51280000D01*
X229330000Y-47880000D02*
X229330000Y-52120000D01*
X231570000Y-47880000D02*
X229330000Y-47880000D01*
X230450000Y-47230000D02*
X230450000Y-47880000D01*
%TO.C,D51*%
X295657500Y-97100000D02*
X295007500Y-97100000D01*
X295007500Y-98220000D02*
X295007500Y-95980000D01*
X295007500Y-95980000D02*
X290767500Y-95980000D01*
X294407500Y-98220000D02*
X294407500Y-95980000D01*
X294287500Y-98220000D02*
X294287500Y-95980000D01*
X294167500Y-98220000D02*
X294167500Y-95980000D01*
X290767500Y-98220000D02*
X295007500Y-98220000D01*
X290767500Y-95980000D02*
X290767500Y-98220000D01*
X290117500Y-97100000D02*
X290767500Y-97100000D01*
%TO.C,D53*%
X61381250Y-123430000D02*
X61381250Y-124080000D01*
X62501250Y-124080000D02*
X60261250Y-124080000D01*
X60261250Y-124080000D02*
X60261250Y-128320000D01*
X60261250Y-127480000D02*
X62501250Y-127480000D01*
X60261250Y-127600000D02*
X62501250Y-127600000D01*
X60261250Y-127720000D02*
X62501250Y-127720000D01*
X62501250Y-128320000D02*
X62501250Y-124080000D01*
X60261250Y-128320000D02*
X62501250Y-128320000D01*
X61381250Y-128970000D02*
X61381250Y-128320000D01*
%TO.C,D40*%
X154250000Y-109920000D02*
X154250000Y-109270000D01*
X153130000Y-109270000D02*
X155370000Y-109270000D01*
X155370000Y-109270000D02*
X155370000Y-105030000D01*
X153130000Y-108670000D02*
X155370000Y-108670000D01*
X153130000Y-108550000D02*
X155370000Y-108550000D01*
X153130000Y-108430000D02*
X155370000Y-108430000D01*
X153130000Y-105030000D02*
X153130000Y-109270000D01*
X155370000Y-105030000D02*
X153130000Y-105030000D01*
X154250000Y-104380000D02*
X154250000Y-105030000D01*
%TO.C,D16*%
X120912500Y-71820000D02*
X120912500Y-71170000D01*
X119792500Y-71170000D02*
X122032500Y-71170000D01*
X122032500Y-71170000D02*
X122032500Y-66930000D01*
X119792500Y-70570000D02*
X122032500Y-70570000D01*
X119792500Y-70450000D02*
X122032500Y-70450000D01*
X119792500Y-70330000D02*
X122032500Y-70330000D01*
X119792500Y-66930000D02*
X119792500Y-71170000D01*
X122032500Y-66930000D02*
X119792500Y-66930000D01*
X120912500Y-66280000D02*
X120912500Y-66930000D01*
%TO.C,D19*%
X178062500Y-71820000D02*
X178062500Y-71170000D01*
X176942500Y-71170000D02*
X179182500Y-71170000D01*
X179182500Y-71170000D02*
X179182500Y-66930000D01*
X176942500Y-70570000D02*
X179182500Y-70570000D01*
X176942500Y-70450000D02*
X179182500Y-70450000D01*
X176942500Y-70330000D02*
X179182500Y-70330000D01*
X176942500Y-66930000D02*
X176942500Y-71170000D01*
X179182500Y-66930000D02*
X176942500Y-66930000D01*
X178062500Y-66280000D02*
X178062500Y-66930000D01*
%TO.C,D33*%
X220925000Y-90870000D02*
X220925000Y-90220000D01*
X219805000Y-90220000D02*
X222045000Y-90220000D01*
X222045000Y-90220000D02*
X222045000Y-85980000D01*
X219805000Y-89620000D02*
X222045000Y-89620000D01*
X219805000Y-89500000D02*
X222045000Y-89500000D01*
X219805000Y-89380000D02*
X222045000Y-89380000D01*
X219805000Y-85980000D02*
X219805000Y-90220000D01*
X222045000Y-85980000D02*
X219805000Y-85980000D01*
X220925000Y-85330000D02*
X220925000Y-85980000D01*
%TO.C,D37*%
X97100000Y-109920000D02*
X97100000Y-109270000D01*
X95980000Y-109270000D02*
X98220000Y-109270000D01*
X98220000Y-109270000D02*
X98220000Y-105030000D01*
X95980000Y-108670000D02*
X98220000Y-108670000D01*
X95980000Y-108550000D02*
X98220000Y-108550000D01*
X95980000Y-108430000D02*
X98220000Y-108430000D01*
X95980000Y-105030000D02*
X95980000Y-109270000D01*
X98220000Y-105030000D02*
X95980000Y-105030000D01*
X97100000Y-104380000D02*
X97100000Y-105030000D01*
%TO.C,D48*%
X292362500Y-133732500D02*
X292362500Y-133082500D01*
X291242500Y-133082500D02*
X293482500Y-133082500D01*
X293482500Y-133082500D02*
X293482500Y-128842500D01*
X291242500Y-132482500D02*
X293482500Y-132482500D01*
X291242500Y-132362500D02*
X293482500Y-132362500D01*
X291242500Y-132242500D02*
X293482500Y-132242500D01*
X291242500Y-128842500D02*
X291242500Y-133082500D01*
X293482500Y-128842500D02*
X291242500Y-128842500D01*
X292362500Y-128192500D02*
X292362500Y-128842500D01*
%TO.C,D8*%
X192350000Y-52770000D02*
X192350000Y-52120000D01*
X191230000Y-52120000D02*
X193470000Y-52120000D01*
X193470000Y-52120000D02*
X193470000Y-47880000D01*
X191230000Y-51520000D02*
X193470000Y-51520000D01*
X191230000Y-51400000D02*
X193470000Y-51400000D01*
X191230000Y-51280000D02*
X193470000Y-51280000D01*
X191230000Y-47880000D02*
X191230000Y-52120000D01*
X193470000Y-47880000D02*
X191230000Y-47880000D01*
X192350000Y-47230000D02*
X192350000Y-47880000D01*
%TO.C,D41*%
X173300000Y-109920000D02*
X173300000Y-109270000D01*
X172180000Y-109270000D02*
X174420000Y-109270000D01*
X174420000Y-109270000D02*
X174420000Y-105030000D01*
X172180000Y-108670000D02*
X174420000Y-108670000D01*
X172180000Y-108550000D02*
X174420000Y-108550000D01*
X172180000Y-108430000D02*
X174420000Y-108430000D01*
X172180000Y-105030000D02*
X172180000Y-109270000D01*
X174420000Y-105030000D02*
X172180000Y-105030000D01*
X173300000Y-104380000D02*
X173300000Y-105030000D01*
%TO.C,D3*%
X97100000Y-52770000D02*
X97100000Y-52120000D01*
X95980000Y-52120000D02*
X98220000Y-52120000D01*
X98220000Y-52120000D02*
X98220000Y-47880000D01*
X95980000Y-51520000D02*
X98220000Y-51520000D01*
X95980000Y-51400000D02*
X98220000Y-51400000D01*
X95980000Y-51280000D02*
X98220000Y-51280000D01*
X95980000Y-47880000D02*
X95980000Y-52120000D01*
X98220000Y-47880000D02*
X95980000Y-47880000D01*
X97100000Y-47230000D02*
X97100000Y-47880000D01*
%TO.C,D42*%
X192350000Y-109920000D02*
X192350000Y-109270000D01*
X191230000Y-109270000D02*
X193470000Y-109270000D01*
X193470000Y-109270000D02*
X193470000Y-105030000D01*
X191230000Y-108670000D02*
X193470000Y-108670000D01*
X191230000Y-108550000D02*
X193470000Y-108550000D01*
X191230000Y-108430000D02*
X193470000Y-108430000D01*
X191230000Y-105030000D02*
X191230000Y-109270000D01*
X193470000Y-105030000D02*
X191230000Y-105030000D01*
X192350000Y-104380000D02*
X192350000Y-105030000D01*
%TO.C,D39*%
X135200000Y-109920000D02*
X135200000Y-109270000D01*
X134080000Y-109270000D02*
X136320000Y-109270000D01*
X136320000Y-109270000D02*
X136320000Y-105030000D01*
X134080000Y-108670000D02*
X136320000Y-108670000D01*
X134080000Y-108550000D02*
X136320000Y-108550000D01*
X134080000Y-108430000D02*
X136320000Y-108430000D01*
X134080000Y-105030000D02*
X134080000Y-109270000D01*
X136320000Y-105030000D02*
X134080000Y-105030000D01*
X135200000Y-104380000D02*
X135200000Y-105030000D01*
%TO.C,D11*%
X249500000Y-52770000D02*
X249500000Y-52120000D01*
X248380000Y-52120000D02*
X250620000Y-52120000D01*
X250620000Y-52120000D02*
X250620000Y-47880000D01*
X248380000Y-51520000D02*
X250620000Y-51520000D01*
X248380000Y-51400000D02*
X250620000Y-51400000D01*
X248380000Y-51280000D02*
X250620000Y-51280000D01*
X248380000Y-47880000D02*
X248380000Y-52120000D01*
X250620000Y-47880000D02*
X248380000Y-47880000D01*
X249500000Y-47230000D02*
X249500000Y-47880000D01*
%TO.C,D57*%
X178198750Y-135200000D02*
X178848750Y-135200000D01*
X178848750Y-134080000D02*
X178848750Y-136320000D01*
X178848750Y-136320000D02*
X183088750Y-136320000D01*
X179448750Y-134080000D02*
X179448750Y-136320000D01*
X179568750Y-134080000D02*
X179568750Y-136320000D01*
X179688750Y-134080000D02*
X179688750Y-136320000D01*
X183088750Y-134080000D02*
X178848750Y-134080000D01*
X183088750Y-136320000D02*
X183088750Y-134080000D01*
X183738750Y-135200000D02*
X183088750Y-135200000D01*
%TO.C,D38*%
X116150000Y-109920000D02*
X116150000Y-109270000D01*
X115030000Y-109270000D02*
X117270000Y-109270000D01*
X117270000Y-109270000D02*
X117270000Y-105030000D01*
X115030000Y-108670000D02*
X117270000Y-108670000D01*
X115030000Y-108550000D02*
X117270000Y-108550000D01*
X115030000Y-108430000D02*
X117270000Y-108430000D01*
X115030000Y-105030000D02*
X115030000Y-109270000D01*
X117270000Y-105030000D02*
X115030000Y-105030000D01*
X116150000Y-104380000D02*
X116150000Y-105030000D01*
%TO.C,D36*%
X62295000Y-116150000D02*
X61645000Y-116150000D01*
X61645000Y-117270000D02*
X61645000Y-115030000D01*
X61645000Y-115030000D02*
X57405000Y-115030000D01*
X61045000Y-117270000D02*
X61045000Y-115030000D01*
X60925000Y-117270000D02*
X60925000Y-115030000D01*
X60805000Y-117270000D02*
X60805000Y-115030000D01*
X57405000Y-117270000D02*
X61645000Y-117270000D01*
X57405000Y-115030000D02*
X57405000Y-117270000D01*
X56755000Y-116150000D02*
X57405000Y-116150000D01*
%TO.C,D32*%
X201875000Y-90870000D02*
X201875000Y-90220000D01*
X200755000Y-90220000D02*
X202995000Y-90220000D01*
X202995000Y-90220000D02*
X202995000Y-85980000D01*
X200755000Y-89620000D02*
X202995000Y-89620000D01*
X200755000Y-89500000D02*
X202995000Y-89500000D01*
X200755000Y-89380000D02*
X202995000Y-89380000D01*
X200755000Y-85980000D02*
X200755000Y-90220000D01*
X202995000Y-85980000D02*
X200755000Y-85980000D01*
X201875000Y-85330000D02*
X201875000Y-85980000D01*
%TO.C,D9*%
X211400000Y-52770000D02*
X211400000Y-52120000D01*
X210280000Y-52120000D02*
X212520000Y-52120000D01*
X212520000Y-52120000D02*
X212520000Y-47880000D01*
X210280000Y-51520000D02*
X212520000Y-51520000D01*
X210280000Y-51400000D02*
X212520000Y-51400000D01*
X210280000Y-51280000D02*
X212520000Y-51280000D01*
X210280000Y-47880000D02*
X210280000Y-52120000D01*
X212520000Y-47880000D02*
X210280000Y-47880000D01*
X211400000Y-47230000D02*
X211400000Y-47880000D01*
%TO.C,D47*%
X273312500Y-133732500D02*
X273312500Y-133082500D01*
X272192500Y-133082500D02*
X274432500Y-133082500D01*
X274432500Y-133082500D02*
X274432500Y-128842500D01*
X272192500Y-132482500D02*
X274432500Y-132482500D01*
X272192500Y-132362500D02*
X274432500Y-132362500D01*
X272192500Y-132242500D02*
X274432500Y-132242500D01*
X272192500Y-128842500D02*
X272192500Y-133082500D01*
X274432500Y-128842500D02*
X272192500Y-128842500D01*
X273312500Y-128192500D02*
X273312500Y-128842500D01*
%TO.C,D18*%
X159012500Y-71820000D02*
X159012500Y-71170000D01*
X157892500Y-71170000D02*
X160132500Y-71170000D01*
X160132500Y-71170000D02*
X160132500Y-66930000D01*
X157892500Y-70570000D02*
X160132500Y-70570000D01*
X157892500Y-70450000D02*
X160132500Y-70450000D01*
X157892500Y-70330000D02*
X160132500Y-70330000D01*
X157892500Y-66930000D02*
X157892500Y-71170000D01*
X160132500Y-66930000D02*
X157892500Y-66930000D01*
X159012500Y-66280000D02*
X159012500Y-66930000D01*
%TO.C,D25*%
X63762500Y-90870000D02*
X63762500Y-90220000D01*
X62642500Y-90220000D02*
X64882500Y-90220000D01*
X64882500Y-90220000D02*
X64882500Y-85980000D01*
X62642500Y-89620000D02*
X64882500Y-89620000D01*
X62642500Y-89500000D02*
X64882500Y-89500000D01*
X62642500Y-89380000D02*
X64882500Y-89380000D01*
X62642500Y-85980000D02*
X62642500Y-90220000D01*
X64882500Y-85980000D02*
X62642500Y-85980000D01*
X63762500Y-85330000D02*
X63762500Y-85980000D01*
%TO.C,D5*%
X135200000Y-52770000D02*
X135200000Y-52120000D01*
X134080000Y-52120000D02*
X136320000Y-52120000D01*
X136320000Y-52120000D02*
X136320000Y-47880000D01*
X134080000Y-51520000D02*
X136320000Y-51520000D01*
X134080000Y-51400000D02*
X136320000Y-51400000D01*
X134080000Y-51280000D02*
X136320000Y-51280000D01*
X134080000Y-47880000D02*
X134080000Y-52120000D01*
X136320000Y-47880000D02*
X134080000Y-47880000D01*
X135200000Y-47230000D02*
X135200000Y-47880000D01*
%TO.C,D4*%
X116150000Y-52770000D02*
X116150000Y-52120000D01*
X115030000Y-52120000D02*
X117270000Y-52120000D01*
X117270000Y-52120000D02*
X117270000Y-47880000D01*
X115030000Y-51520000D02*
X117270000Y-51520000D01*
X115030000Y-51400000D02*
X117270000Y-51400000D01*
X115030000Y-51280000D02*
X117270000Y-51280000D01*
X115030000Y-47880000D02*
X115030000Y-52120000D01*
X117270000Y-47880000D02*
X115030000Y-47880000D01*
X116150000Y-47230000D02*
X116150000Y-47880000D01*
%TO.C,D31*%
X182825000Y-90870000D02*
X182825000Y-90220000D01*
X181705000Y-90220000D02*
X183945000Y-90220000D01*
X183945000Y-90220000D02*
X183945000Y-85980000D01*
X181705000Y-89620000D02*
X183945000Y-89620000D01*
X181705000Y-89500000D02*
X183945000Y-89500000D01*
X181705000Y-89380000D02*
X183945000Y-89380000D01*
X181705000Y-85980000D02*
X181705000Y-90220000D01*
X183945000Y-85980000D02*
X181705000Y-85980000D01*
X182825000Y-85330000D02*
X182825000Y-85980000D01*
%TO.C,D26*%
X87575000Y-90870000D02*
X87575000Y-90220000D01*
X86455000Y-90220000D02*
X88695000Y-90220000D01*
X88695000Y-90220000D02*
X88695000Y-85980000D01*
X86455000Y-89620000D02*
X88695000Y-89620000D01*
X86455000Y-89500000D02*
X88695000Y-89500000D01*
X86455000Y-89380000D02*
X88695000Y-89380000D01*
X86455000Y-85980000D02*
X86455000Y-90220000D01*
X88695000Y-85980000D02*
X86455000Y-85980000D01*
X87575000Y-85330000D02*
X87575000Y-85980000D01*
%TO.C,D49*%
X280592500Y-120912500D02*
X281242500Y-120912500D01*
X281242500Y-119792500D02*
X281242500Y-122032500D01*
X281242500Y-122032500D02*
X285482500Y-122032500D01*
X281842500Y-119792500D02*
X281842500Y-122032500D01*
X281962500Y-119792500D02*
X281962500Y-122032500D01*
X282082500Y-119792500D02*
X282082500Y-122032500D01*
X285482500Y-119792500D02*
X281242500Y-119792500D01*
X285482500Y-122032500D02*
X285482500Y-119792500D01*
X286132500Y-120912500D02*
X285482500Y-120912500D01*
%TO.C,D6*%
X154250000Y-52770000D02*
X154250000Y-52120000D01*
X153130000Y-52120000D02*
X155370000Y-52120000D01*
X155370000Y-52120000D02*
X155370000Y-47880000D01*
X153130000Y-51520000D02*
X155370000Y-51520000D01*
X153130000Y-51400000D02*
X155370000Y-51400000D01*
X153130000Y-51280000D02*
X155370000Y-51280000D01*
X153130000Y-47880000D02*
X153130000Y-52120000D01*
X155370000Y-47880000D02*
X153130000Y-47880000D01*
X154250000Y-47230000D02*
X154250000Y-47880000D01*
%TO.C,D13*%
X61381250Y-71820000D02*
X61381250Y-71170000D01*
X60261250Y-71170000D02*
X62501250Y-71170000D01*
X62501250Y-71170000D02*
X62501250Y-66930000D01*
X60261250Y-70570000D02*
X62501250Y-70570000D01*
X60261250Y-70450000D02*
X62501250Y-70450000D01*
X60261250Y-70330000D02*
X62501250Y-70330000D01*
X60261250Y-66930000D02*
X60261250Y-71170000D01*
X62501250Y-66930000D02*
X60261250Y-66930000D01*
X61381250Y-66280000D02*
X61381250Y-66930000D01*
%TO.C,D27*%
X106625000Y-90870000D02*
X106625000Y-90220000D01*
X105505000Y-90220000D02*
X107745000Y-90220000D01*
X107745000Y-90220000D02*
X107745000Y-85980000D01*
X105505000Y-89620000D02*
X107745000Y-89620000D01*
X105505000Y-89500000D02*
X107745000Y-89500000D01*
X105505000Y-89380000D02*
X107745000Y-89380000D01*
X105505000Y-85980000D02*
X105505000Y-90220000D01*
X107745000Y-85980000D02*
X105505000Y-85980000D01*
X106625000Y-85330000D02*
X106625000Y-85980000D01*
%TO.C,D29*%
X144725000Y-90870000D02*
X144725000Y-90220000D01*
X143605000Y-90220000D02*
X145845000Y-90220000D01*
X145845000Y-90220000D02*
X145845000Y-85980000D01*
X143605000Y-89620000D02*
X145845000Y-89620000D01*
X143605000Y-89500000D02*
X145845000Y-89500000D01*
X143605000Y-89380000D02*
X145845000Y-89380000D01*
X143605000Y-85980000D02*
X143605000Y-90220000D01*
X145845000Y-85980000D02*
X143605000Y-85980000D01*
X144725000Y-85330000D02*
X144725000Y-85980000D01*
%TO.C,D55*%
X104243750Y-123430000D02*
X104243750Y-124080000D01*
X105363750Y-124080000D02*
X103123750Y-124080000D01*
X103123750Y-124080000D02*
X103123750Y-128320000D01*
X103123750Y-127480000D02*
X105363750Y-127480000D01*
X103123750Y-127600000D02*
X105363750Y-127600000D01*
X103123750Y-127720000D02*
X105363750Y-127720000D01*
X105363750Y-128320000D02*
X105363750Y-124080000D01*
X103123750Y-128320000D02*
X105363750Y-128320000D01*
X104243750Y-128970000D02*
X104243750Y-128320000D01*
%TO.C,D59*%
X247118750Y-128970000D02*
X247118750Y-128320000D01*
X245998750Y-128320000D02*
X248238750Y-128320000D01*
X248238750Y-128320000D02*
X248238750Y-124080000D01*
X245998750Y-127720000D02*
X248238750Y-127720000D01*
X245998750Y-127600000D02*
X248238750Y-127600000D01*
X245998750Y-127480000D02*
X248238750Y-127480000D01*
X245998750Y-124080000D02*
X245998750Y-128320000D01*
X248238750Y-124080000D02*
X245998750Y-124080000D01*
X247118750Y-123430000D02*
X247118750Y-124080000D01*
%TO.C,D12*%
X273312500Y-52770000D02*
X273312500Y-52120000D01*
X272192500Y-52120000D02*
X274432500Y-52120000D01*
X274432500Y-52120000D02*
X274432500Y-47880000D01*
X272192500Y-51520000D02*
X274432500Y-51520000D01*
X272192500Y-51400000D02*
X274432500Y-51400000D01*
X272192500Y-51280000D02*
X274432500Y-51280000D01*
X272192500Y-47880000D02*
X272192500Y-52120000D01*
X274432500Y-47880000D02*
X272192500Y-47880000D01*
X273312500Y-47230000D02*
X273312500Y-47880000D01*
%TO.C,D7*%
X173300000Y-52770000D02*
X173300000Y-52120000D01*
X172180000Y-52120000D02*
X174420000Y-52120000D01*
X174420000Y-52120000D02*
X174420000Y-47880000D01*
X172180000Y-51520000D02*
X174420000Y-51520000D01*
X172180000Y-51400000D02*
X174420000Y-51400000D01*
X172180000Y-51280000D02*
X174420000Y-51280000D01*
X172180000Y-47880000D02*
X172180000Y-52120000D01*
X174420000Y-47880000D02*
X172180000Y-47880000D01*
X173300000Y-47230000D02*
X173300000Y-47880000D01*
%TO.C,D1*%
X59000000Y-52770000D02*
X59000000Y-52120000D01*
X57880000Y-52120000D02*
X60120000Y-52120000D01*
X60120000Y-52120000D02*
X60120000Y-47880000D01*
X57880000Y-51520000D02*
X60120000Y-51520000D01*
X57880000Y-51400000D02*
X60120000Y-51400000D01*
X57880000Y-51280000D02*
X60120000Y-51280000D01*
X57880000Y-47880000D02*
X57880000Y-52120000D01*
X60120000Y-47880000D02*
X57880000Y-47880000D01*
X59000000Y-47230000D02*
X59000000Y-47880000D01*
%TO.C,D44*%
X230450000Y-109920000D02*
X230450000Y-109270000D01*
X229330000Y-109270000D02*
X231570000Y-109270000D01*
X231570000Y-109270000D02*
X231570000Y-105030000D01*
X229330000Y-108670000D02*
X231570000Y-108670000D01*
X229330000Y-108550000D02*
X231570000Y-108550000D01*
X229330000Y-108430000D02*
X231570000Y-108430000D01*
X229330000Y-105030000D02*
X229330000Y-109270000D01*
X231570000Y-105030000D02*
X229330000Y-105030000D01*
X230450000Y-104380000D02*
X230450000Y-105030000D01*
%TO.C,D2*%
X78050000Y-52770000D02*
X78050000Y-52120000D01*
X76930000Y-52120000D02*
X79170000Y-52120000D01*
X79170000Y-52120000D02*
X79170000Y-47880000D01*
X76930000Y-51520000D02*
X79170000Y-51520000D01*
X76930000Y-51400000D02*
X79170000Y-51400000D01*
X76930000Y-51280000D02*
X79170000Y-51280000D01*
X76930000Y-47880000D02*
X76930000Y-52120000D01*
X79170000Y-47880000D02*
X76930000Y-47880000D01*
X78050000Y-47230000D02*
X78050000Y-47880000D01*
%TO.C,D20*%
X197112500Y-71820000D02*
X197112500Y-71170000D01*
X195992500Y-71170000D02*
X198232500Y-71170000D01*
X198232500Y-71170000D02*
X198232500Y-66930000D01*
X195992500Y-70570000D02*
X198232500Y-70570000D01*
X195992500Y-70450000D02*
X198232500Y-70450000D01*
X195992500Y-70330000D02*
X198232500Y-70330000D01*
X195992500Y-66930000D02*
X195992500Y-71170000D01*
X198232500Y-66930000D02*
X195992500Y-66930000D01*
X197112500Y-66280000D02*
X197112500Y-66930000D01*
%TO.C,D34*%
X239975000Y-90870000D02*
X239975000Y-90220000D01*
X238855000Y-90220000D02*
X241095000Y-90220000D01*
X241095000Y-90220000D02*
X241095000Y-85980000D01*
X238855000Y-89620000D02*
X241095000Y-89620000D01*
X238855000Y-89500000D02*
X241095000Y-89500000D01*
X238855000Y-89380000D02*
X241095000Y-89380000D01*
X238855000Y-85980000D02*
X238855000Y-90220000D01*
X241095000Y-85980000D02*
X238855000Y-85980000D01*
X239975000Y-85330000D02*
X239975000Y-85980000D01*
%TO.C,D28*%
X125675000Y-90870000D02*
X125675000Y-90220000D01*
X124555000Y-90220000D02*
X126795000Y-90220000D01*
X126795000Y-90220000D02*
X126795000Y-85980000D01*
X124555000Y-89620000D02*
X126795000Y-89620000D01*
X124555000Y-89500000D02*
X126795000Y-89500000D01*
X124555000Y-89380000D02*
X126795000Y-89380000D01*
X124555000Y-85980000D02*
X124555000Y-90220000D01*
X126795000Y-85980000D02*
X124555000Y-85980000D01*
X125675000Y-85330000D02*
X125675000Y-85980000D01*
%TO.C,D56*%
X130573750Y-135200000D02*
X131223750Y-135200000D01*
X131223750Y-134080000D02*
X131223750Y-136320000D01*
X131223750Y-136320000D02*
X135463750Y-136320000D01*
X131823750Y-134080000D02*
X131823750Y-136320000D01*
X131943750Y-134080000D02*
X131943750Y-136320000D01*
X132063750Y-134080000D02*
X132063750Y-136320000D01*
X135463750Y-134080000D02*
X131223750Y-134080000D01*
X135463750Y-136320000D02*
X135463750Y-134080000D01*
X136113750Y-135200000D02*
X135463750Y-135200000D01*
%TO.C,D24*%
X275693750Y-71820000D02*
X275693750Y-71170000D01*
X274573750Y-71170000D02*
X276813750Y-71170000D01*
X276813750Y-71170000D02*
X276813750Y-66930000D01*
X274573750Y-70570000D02*
X276813750Y-70570000D01*
X274573750Y-70450000D02*
X276813750Y-70450000D01*
X274573750Y-70330000D02*
X276813750Y-70330000D01*
X274573750Y-66930000D02*
X274573750Y-71170000D01*
X276813750Y-66930000D02*
X274573750Y-66930000D01*
X275693750Y-66280000D02*
X275693750Y-66930000D01*
%TO.C,D15*%
X101862500Y-71820000D02*
X101862500Y-71170000D01*
X100742500Y-71170000D02*
X102982500Y-71170000D01*
X102982500Y-71170000D02*
X102982500Y-66930000D01*
X100742500Y-70570000D02*
X102982500Y-70570000D01*
X100742500Y-70450000D02*
X102982500Y-70450000D01*
X100742500Y-70330000D02*
X102982500Y-70330000D01*
X100742500Y-66930000D02*
X100742500Y-71170000D01*
X102982500Y-66930000D02*
X100742500Y-66930000D01*
X101862500Y-66280000D02*
X101862500Y-66930000D01*
%TO.C,D58*%
X223306250Y-128970000D02*
X223306250Y-128320000D01*
X222186250Y-128320000D02*
X224426250Y-128320000D01*
X224426250Y-128320000D02*
X224426250Y-124080000D01*
X222186250Y-127720000D02*
X224426250Y-127720000D01*
X222186250Y-127600000D02*
X224426250Y-127600000D01*
X222186250Y-127480000D02*
X224426250Y-127480000D01*
X222186250Y-124080000D02*
X222186250Y-128320000D01*
X224426250Y-124080000D02*
X222186250Y-124080000D01*
X223306250Y-123430000D02*
X223306250Y-124080000D01*
%TO.C,D35*%
X256780000Y-79100000D02*
X257430000Y-79100000D01*
X257430000Y-77980000D02*
X257430000Y-80220000D01*
X257430000Y-80220000D02*
X261670000Y-80220000D01*
X258030000Y-77980000D02*
X258030000Y-80220000D01*
X258150000Y-77980000D02*
X258150000Y-80220000D01*
X258270000Y-77980000D02*
X258270000Y-80220000D01*
X261670000Y-77980000D02*
X257430000Y-77980000D01*
X261670000Y-80220000D02*
X261670000Y-77980000D01*
X262320000Y-79100000D02*
X261670000Y-79100000D01*
%TO.C,D14*%
X82812500Y-71820000D02*
X82812500Y-71170000D01*
X81692500Y-71170000D02*
X83932500Y-71170000D01*
X83932500Y-71170000D02*
X83932500Y-66930000D01*
X81692500Y-70570000D02*
X83932500Y-70570000D01*
X81692500Y-70450000D02*
X83932500Y-70450000D01*
X81692500Y-70330000D02*
X83932500Y-70330000D01*
X81692500Y-66930000D02*
X81692500Y-71170000D01*
X83932500Y-66930000D02*
X81692500Y-66930000D01*
X82812500Y-66280000D02*
X82812500Y-66930000D01*
%TO.C,D17*%
X139962500Y-71820000D02*
X139962500Y-71170000D01*
X138842500Y-71170000D02*
X141082500Y-71170000D01*
X141082500Y-71170000D02*
X141082500Y-66930000D01*
X138842500Y-70570000D02*
X141082500Y-70570000D01*
X138842500Y-70450000D02*
X141082500Y-70450000D01*
X138842500Y-70330000D02*
X141082500Y-70330000D01*
X138842500Y-66930000D02*
X138842500Y-71170000D01*
X141082500Y-66930000D02*
X138842500Y-66930000D01*
X139962500Y-66280000D02*
X139962500Y-66930000D01*
%TO.C,D46*%
X268550000Y-109920000D02*
X268550000Y-109270000D01*
X267430000Y-109270000D02*
X269670000Y-109270000D01*
X269670000Y-109270000D02*
X269670000Y-105030000D01*
X267430000Y-108670000D02*
X269670000Y-108670000D01*
X267430000Y-108550000D02*
X269670000Y-108550000D01*
X267430000Y-108430000D02*
X269670000Y-108430000D01*
X267430000Y-105030000D02*
X267430000Y-109270000D01*
X269670000Y-105030000D02*
X267430000Y-105030000D01*
X268550000Y-104380000D02*
X268550000Y-105030000D01*
%TD*%
%LPC*%
D11*
%TO.C,MX38*%
X102070000Y-107150000D03*
D12*
X107150000Y-107150000D03*
D11*
X112230000Y-107150000D03*
%TD*%
D13*
%TO.C,D22*%
X235212500Y-72860000D03*
D14*
X235212500Y-65240000D03*
%TD*%
D11*
%TO.C,MX17*%
X125882500Y-69050000D03*
D12*
X130962500Y-69050000D03*
D11*
X136042500Y-69050000D03*
%TD*%
%TO.C,MX59*%
X233038750Y-126200000D03*
D12*
X238118750Y-126200000D03*
D11*
X243198750Y-126200000D03*
%TD*%
%TO.C,MX32*%
X187795000Y-88100000D03*
D12*
X192875000Y-88100000D03*
D11*
X197955000Y-88100000D03*
%TD*%
D13*
%TO.C,D43*%
X211400000Y-110960000D03*
D14*
X211400000Y-103340000D03*
%TD*%
D13*
%TO.C,D45*%
X249500000Y-110960000D03*
D14*
X249500000Y-103340000D03*
%TD*%
%TO.C,D54*%
X82812500Y-122390000D03*
D13*
X82812500Y-130010000D03*
%TD*%
%TO.C,D21*%
X216162500Y-72860000D03*
D14*
X216162500Y-65240000D03*
%TD*%
D13*
%TO.C,D23*%
X254262500Y-72860000D03*
D14*
X254262500Y-65240000D03*
%TD*%
D11*
%TO.C,MX47*%
X259232500Y-130962500D03*
D12*
X264312500Y-130962500D03*
D11*
X269392500Y-130962500D03*
%TD*%
D13*
%TO.C,D30*%
X163775000Y-91910000D03*
D14*
X163775000Y-84290000D03*
%TD*%
D11*
%TO.C,MX30*%
X149695000Y-88100000D03*
D12*
X154775000Y-88100000D03*
D11*
X159855000Y-88100000D03*
%TD*%
%TO.C,MX58*%
X209226250Y-126200000D03*
D12*
X214306250Y-126200000D03*
D11*
X219386250Y-126200000D03*
%TD*%
%TO.C,MX45*%
X235420000Y-107150000D03*
D12*
X240500000Y-107150000D03*
D11*
X245580000Y-107150000D03*
%TD*%
D13*
%TO.C,D50*%
X298602500Y-121962500D03*
D14*
X306222500Y-121962500D03*
%TD*%
D11*
%TO.C,MX5*%
X121120000Y-50000000D03*
D12*
X126200000Y-50000000D03*
D11*
X131280000Y-50000000D03*
%TD*%
%TO.C,MX13*%
X47301250Y-69050000D03*
D12*
X52381250Y-69050000D03*
D11*
X57461250Y-69050000D03*
%TD*%
%TO.C,MX46*%
X254470000Y-107150000D03*
D12*
X259550000Y-107150000D03*
D11*
X264630000Y-107150000D03*
%TD*%
%TO.C,MX19*%
X163982500Y-69050000D03*
D12*
X169062500Y-69050000D03*
D11*
X174142500Y-69050000D03*
%TD*%
%TO.C,MX40*%
X140170000Y-107150000D03*
D12*
X145250000Y-107150000D03*
D11*
X150330000Y-107150000D03*
%TD*%
%TO.C,MX12*%
X259232500Y-50000000D03*
D12*
X264312500Y-50000000D03*
D11*
X269392500Y-50000000D03*
%TD*%
%TO.C,MX49*%
X278282500Y-111912500D03*
D12*
X283362500Y-111912500D03*
D11*
X288442500Y-111912500D03*
%TD*%
D13*
%TO.C,D10*%
X230450000Y-53810000D03*
D14*
X230450000Y-46190000D03*
%TD*%
D13*
%TO.C,D51*%
X296697500Y-97100000D03*
D14*
X289077500Y-97100000D03*
%TD*%
%TO.C,D53*%
X61381250Y-122390000D03*
D13*
X61381250Y-130010000D03*
%TD*%
D11*
%TO.C,MX14*%
X68732500Y-69050000D03*
D12*
X73812500Y-69050000D03*
D11*
X78892500Y-69050000D03*
%TD*%
D13*
%TO.C,D40*%
X154250000Y-110960000D03*
D14*
X154250000Y-103340000D03*
%TD*%
D11*
%TO.C,MX42*%
X178270000Y-107150000D03*
D12*
X183350000Y-107150000D03*
D11*
X188430000Y-107150000D03*
%TD*%
D13*
%TO.C,D16*%
X120912500Y-72860000D03*
D14*
X120912500Y-65240000D03*
%TD*%
D11*
%TO.C,MX54*%
X68732500Y-126200000D03*
D12*
X73812500Y-126200000D03*
D11*
X78892500Y-126200000D03*
%TD*%
D13*
%TO.C,D19*%
X178062500Y-72860000D03*
D14*
X178062500Y-65240000D03*
%TD*%
D11*
%TO.C,MX48*%
X278282500Y-130962500D03*
D12*
X283362500Y-130962500D03*
D11*
X288442500Y-130962500D03*
%TD*%
%TO.C,MX7*%
X159220000Y-50000000D03*
D12*
X164300000Y-50000000D03*
D11*
X169380000Y-50000000D03*
%TD*%
%TO.C,MX34*%
X225895000Y-88100000D03*
D12*
X230975000Y-88100000D03*
D11*
X236055000Y-88100000D03*
%TD*%
%TO.C,MX3*%
X83020000Y-50000000D03*
D12*
X88100000Y-50000000D03*
D11*
X93180000Y-50000000D03*
%TD*%
D15*
%TO.C,U1*%
X301151250Y-45793125D03*
X301151250Y-48333125D03*
X301151250Y-50873125D03*
X301151250Y-53413125D03*
X301151250Y-55953125D03*
X301151250Y-58493125D03*
X301151250Y-61033125D03*
X301151250Y-63573125D03*
X301151250Y-66113125D03*
D16*
X298111250Y-66613125D03*
X295571250Y-66613125D03*
X293031250Y-66613125D03*
X290491250Y-66613125D03*
X287951250Y-66613125D03*
D15*
X284911250Y-66113125D03*
X284911250Y-63573125D03*
X284911250Y-61033125D03*
X284911250Y-58493125D03*
X284911250Y-55953125D03*
X284911250Y-53413125D03*
X284911250Y-50873125D03*
X284911250Y-48333125D03*
X284911250Y-45793125D03*
%TD*%
D13*
%TO.C,D33*%
X220925000Y-91910000D03*
D14*
X220925000Y-84290000D03*
%TD*%
D13*
%TO.C,D37*%
X97100000Y-110960000D03*
D14*
X97100000Y-103340000D03*
%TD*%
D17*
%TO.C,REF\u002A\u002A*%
X176206250Y-97625000D03*
%TD*%
D11*
%TO.C,MX8*%
X178270000Y-50000000D03*
D12*
X183350000Y-50000000D03*
D11*
X188430000Y-50000000D03*
%TD*%
D13*
%TO.C,D48*%
X292362500Y-134772500D03*
D14*
X292362500Y-127152500D03*
%TD*%
D13*
%TO.C,D8*%
X192350000Y-53810000D03*
D14*
X192350000Y-46190000D03*
%TD*%
D11*
%TO.C,MX16*%
X106832500Y-69050000D03*
D12*
X111912500Y-69050000D03*
D11*
X116992500Y-69050000D03*
%TD*%
D13*
%TO.C,D41*%
X173300000Y-110960000D03*
D14*
X173300000Y-103340000D03*
%TD*%
D13*
%TO.C,D3*%
X97100000Y-53810000D03*
D14*
X97100000Y-46190000D03*
%TD*%
D11*
%TO.C,MX31*%
X168745000Y-88100000D03*
D12*
X173825000Y-88100000D03*
D11*
X178905000Y-88100000D03*
%TD*%
D13*
%TO.C,D42*%
X192350000Y-110960000D03*
D14*
X192350000Y-103340000D03*
%TD*%
D13*
%TO.C,D39*%
X135200000Y-110960000D03*
D14*
X135200000Y-103340000D03*
%TD*%
D11*
%TO.C,MX15*%
X87782500Y-69050000D03*
D12*
X92862500Y-69050000D03*
D11*
X97942500Y-69050000D03*
%TD*%
D13*
%TO.C,D11*%
X249500000Y-53810000D03*
D14*
X249500000Y-46190000D03*
%TD*%
D13*
%TO.C,D57*%
X177158750Y-135200000D03*
D14*
X184778750Y-135200000D03*
%TD*%
D13*
%TO.C,D38*%
X116150000Y-110960000D03*
D14*
X116150000Y-103340000D03*
%TD*%
D11*
%TO.C,MX4*%
X102070000Y-50000000D03*
D12*
X107150000Y-50000000D03*
D11*
X112230000Y-50000000D03*
%TD*%
D13*
%TO.C,D36*%
X63335000Y-116150000D03*
D14*
X55715000Y-116150000D03*
%TD*%
D13*
%TO.C,D32*%
X201875000Y-91910000D03*
D14*
X201875000Y-84290000D03*
%TD*%
D11*
%TO.C,MX23*%
X240182500Y-69050000D03*
D12*
X245262500Y-69050000D03*
D11*
X250342500Y-69050000D03*
%TD*%
D13*
%TO.C,D9*%
X211400000Y-53810000D03*
D14*
X211400000Y-46190000D03*
%TD*%
D13*
%TO.C,D47*%
X273312500Y-134772500D03*
D14*
X273312500Y-127152500D03*
%TD*%
D13*
%TO.C,D18*%
X159012500Y-72860000D03*
D14*
X159012500Y-65240000D03*
%TD*%
D13*
%TO.C,D25*%
X63762500Y-91910000D03*
D14*
X63762500Y-84290000D03*
%TD*%
D11*
%TO.C,MX29*%
X130645000Y-88100000D03*
D12*
X135725000Y-88100000D03*
D11*
X140805000Y-88100000D03*
%TD*%
D13*
%TO.C,D5*%
X135200000Y-53810000D03*
D14*
X135200000Y-46190000D03*
%TD*%
D13*
%TO.C,D4*%
X116150000Y-53810000D03*
D14*
X116150000Y-46190000D03*
%TD*%
D11*
%TO.C,MX53*%
X47301250Y-126200000D03*
D12*
X52381250Y-126200000D03*
D11*
X57461250Y-126200000D03*
%TD*%
D17*
%TO.C,REF\u002A\u002A*%
X84528125Y-116675000D03*
%TD*%
D11*
%TO.C,MX11*%
X235420000Y-50000000D03*
D12*
X240500000Y-50000000D03*
D11*
X245580000Y-50000000D03*
%TD*%
D17*
%TO.C,REF\u002A\u002A*%
X84528125Y-59525000D03*
%TD*%
D13*
%TO.C,D31*%
X182825000Y-91910000D03*
D14*
X182825000Y-84290000D03*
%TD*%
D13*
%TO.C,D26*%
X87575000Y-91910000D03*
D14*
X87575000Y-84290000D03*
%TD*%
D11*
%TO.C,MX55*%
X90163750Y-126200000D03*
D12*
X95243750Y-126200000D03*
D11*
X100323750Y-126200000D03*
%TD*%
%TO.C,MX26*%
X73495000Y-88100000D03*
D12*
X78575000Y-88100000D03*
D11*
X83655000Y-88100000D03*
%TD*%
D13*
%TO.C,D49*%
X279552500Y-120912500D03*
D14*
X287172500Y-120912500D03*
%TD*%
D11*
%TO.C,MX10*%
X216370000Y-50000000D03*
D12*
X221450000Y-50000000D03*
D11*
X226530000Y-50000000D03*
%TD*%
%TO.C,MX20*%
X183032500Y-69050000D03*
D12*
X188112500Y-69050000D03*
D11*
X193192500Y-69050000D03*
%TD*%
D13*
%TO.C,D6*%
X154250000Y-53810000D03*
D14*
X154250000Y-46190000D03*
%TD*%
D11*
%TO.C,MX18*%
X144932500Y-69050000D03*
D12*
X150012500Y-69050000D03*
D11*
X155092500Y-69050000D03*
%TD*%
D13*
%TO.C,D13*%
X61381250Y-72860000D03*
D14*
X61381250Y-65240000D03*
%TD*%
D13*
%TO.C,D27*%
X106625000Y-91910000D03*
D14*
X106625000Y-84290000D03*
%TD*%
D13*
%TO.C,D29*%
X144725000Y-91910000D03*
D14*
X144725000Y-84290000D03*
%TD*%
%TO.C,D55*%
X104243750Y-122390000D03*
D13*
X104243750Y-130010000D03*
%TD*%
D11*
%TO.C,MX43*%
X197320000Y-107150000D03*
D12*
X202400000Y-107150000D03*
D11*
X207480000Y-107150000D03*
%TD*%
D13*
%TO.C,D59*%
X247118750Y-130010000D03*
D14*
X247118750Y-122390000D03*
%TD*%
D12*
%TO.C,MX56*%
X121405750Y-117945000D03*
D18*
X121405750Y-133185000D03*
D11*
X128263750Y-126200000D03*
D12*
X133343750Y-126200000D03*
D11*
X138423750Y-126200000D03*
D12*
X145281750Y-117945000D03*
D18*
X145281750Y-133185000D03*
%TD*%
D13*
%TO.C,D12*%
X273312500Y-53810000D03*
D14*
X273312500Y-46190000D03*
%TD*%
D11*
%TO.C,MX21*%
X202082500Y-69050000D03*
D12*
X207162500Y-69050000D03*
D11*
X212242500Y-69050000D03*
%TD*%
D13*
%TO.C,D7*%
X173300000Y-53810000D03*
D14*
X173300000Y-46190000D03*
%TD*%
D11*
%TO.C,MX41*%
X159220000Y-107150000D03*
D12*
X164300000Y-107150000D03*
D11*
X169380000Y-107150000D03*
%TD*%
D13*
%TO.C,D1*%
X59000000Y-53810000D03*
D14*
X59000000Y-46190000D03*
%TD*%
D11*
%TO.C,MX39*%
X121120000Y-107150000D03*
D12*
X126200000Y-107150000D03*
D11*
X131280000Y-107150000D03*
%TD*%
D13*
%TO.C,D44*%
X230450000Y-110960000D03*
D14*
X230450000Y-103340000D03*
%TD*%
D12*
%TO.C,MX35*%
X247612000Y-79845000D03*
D18*
X247612000Y-95085000D03*
D11*
X254470000Y-88100000D03*
D12*
X259550000Y-88100000D03*
D11*
X264630000Y-88100000D03*
D12*
X271488000Y-79845000D03*
D18*
X271488000Y-95085000D03*
%TD*%
D11*
%TO.C,MX37*%
X83020000Y-107150000D03*
D12*
X88100000Y-107150000D03*
D11*
X93180000Y-107150000D03*
%TD*%
D17*
%TO.C,REF\u002A\u002A*%
X302412500Y-111912500D03*
%TD*%
D11*
%TO.C,MX24*%
X261613750Y-69050000D03*
D12*
X266693750Y-69050000D03*
D11*
X271773750Y-69050000D03*
%TD*%
%TO.C,MX9*%
X197320000Y-50000000D03*
D12*
X202400000Y-50000000D03*
D11*
X207480000Y-50000000D03*
%TD*%
D13*
%TO.C,D2*%
X78050000Y-53810000D03*
D14*
X78050000Y-46190000D03*
%TD*%
D13*
%TO.C,D20*%
X197112500Y-72860000D03*
D14*
X197112500Y-65240000D03*
%TD*%
D11*
%TO.C,MX2*%
X63970000Y-50000000D03*
D12*
X69050000Y-50000000D03*
D11*
X74130000Y-50000000D03*
%TD*%
%TO.C,MX44*%
X216370000Y-107150000D03*
D12*
X221450000Y-107150000D03*
D11*
X226530000Y-107150000D03*
%TD*%
%TO.C,MX1*%
X44920000Y-50000000D03*
D12*
X50000000Y-50000000D03*
D11*
X55080000Y-50000000D03*
%TD*%
%TO.C,MX22*%
X221132500Y-69050000D03*
D12*
X226212500Y-69050000D03*
D11*
X231292500Y-69050000D03*
%TD*%
%TO.C,MX33*%
X206845000Y-88100000D03*
D12*
X211925000Y-88100000D03*
D11*
X217005000Y-88100000D03*
%TD*%
D13*
%TO.C,D34*%
X239975000Y-91910000D03*
D14*
X239975000Y-84290000D03*
%TD*%
D13*
%TO.C,D28*%
X125675000Y-91910000D03*
D14*
X125675000Y-84290000D03*
%TD*%
D13*
%TO.C,D56*%
X129533750Y-135200000D03*
D14*
X137153750Y-135200000D03*
%TD*%
D11*
%TO.C,MX51*%
X287807500Y-88100000D03*
D12*
X292887500Y-88100000D03*
D11*
X297967500Y-88100000D03*
%TD*%
%TO.C,MX25*%
X49682500Y-88100000D03*
D12*
X54762500Y-88100000D03*
D11*
X59842500Y-88100000D03*
%TD*%
%TO.C,MX6*%
X140170000Y-50000000D03*
D12*
X145250000Y-50000000D03*
D11*
X150330000Y-50000000D03*
%TD*%
D12*
%TO.C,MX57*%
X169030750Y-117945000D03*
D18*
X169030750Y-133185000D03*
D11*
X175888750Y-126200000D03*
D12*
X180968750Y-126200000D03*
D11*
X186048750Y-126200000D03*
D12*
X192906750Y-117945000D03*
D18*
X192906750Y-133185000D03*
%TD*%
D13*
%TO.C,D24*%
X275693750Y-72860000D03*
D14*
X275693750Y-65240000D03*
%TD*%
D13*
%TO.C,D15*%
X101862500Y-72860000D03*
D14*
X101862500Y-65240000D03*
%TD*%
D13*
%TO.C,D58*%
X223306250Y-130010000D03*
D14*
X223306250Y-122390000D03*
%TD*%
D11*
%TO.C,MX27*%
X92545000Y-88100000D03*
D12*
X97625000Y-88100000D03*
D11*
X102705000Y-88100000D03*
%TD*%
D12*
%TO.C,MX36*%
X47587000Y-98895000D03*
D18*
X47587000Y-114135000D03*
D11*
X54445000Y-107150000D03*
D12*
X59525000Y-107150000D03*
D11*
X64605000Y-107150000D03*
D12*
X71463000Y-98895000D03*
D18*
X71463000Y-114135000D03*
%TD*%
D11*
%TO.C,MX28*%
X111595000Y-88100000D03*
D12*
X116675000Y-88100000D03*
D11*
X121755000Y-88100000D03*
%TD*%
D13*
%TO.C,D35*%
X255740000Y-79100000D03*
D14*
X263360000Y-79100000D03*
%TD*%
D11*
%TO.C,MX50*%
X297332500Y-130962500D03*
D12*
X302412500Y-130962500D03*
D11*
X307492500Y-130962500D03*
%TD*%
D13*
%TO.C,D14*%
X82812500Y-72860000D03*
D14*
X82812500Y-65240000D03*
%TD*%
D13*
%TO.C,D17*%
X139962500Y-72860000D03*
D14*
X139962500Y-65240000D03*
%TD*%
D13*
%TO.C,D46*%
X268550000Y-110960000D03*
D14*
X268550000Y-103340000D03*
%TD*%
%LPD*%
M02*
