M48
INCH
T1C0.0315
T2C0.0394
T3C0.0600
%
G90
G05
T1
X2.1935Y-4.5728
X2.3228Y-1.8185
X2.3228Y-2.1185
X2.4166Y-2.5685
X2.4166Y-2.8685
X2.4166Y-4.8185
X2.4166Y-5.1185
X2.4935Y-4.5728
X2.5103Y-3.3185
X2.5103Y-3.6185
X3.0728Y-1.8185
X3.0728Y-2.1185
X3.2603Y-2.5685
X3.2603Y-2.8685
X3.2603Y-4.8185
X3.2603Y-5.1185
X3.4478Y-3.3185
X3.4478Y-3.6185
X3.8228Y-1.8185
X3.8228Y-2.1185
X3.8228Y-4.0685
X3.8228Y-4.3685
X4.0103Y-2.5685
X4.0103Y-2.8685
X4.1041Y-4.8185
X4.1041Y-5.1185
X4.1978Y-3.3185
X4.1978Y-3.6185
X4.5728Y-1.8185
X4.5728Y-2.1185
X4.5728Y-4.0685
X4.5728Y-4.3685
X4.7603Y-2.5685
X4.7603Y-2.8685
X4.9478Y-3.3185
X4.9478Y-3.6185
X5.0998Y-5.3228
X5.3228Y-1.8185
X5.3228Y-2.1185
X5.3228Y-4.0685
X5.3228Y-4.3685
X5.3998Y-5.3228
X5.5103Y-2.5685
X5.5103Y-2.8685
X5.6978Y-3.3185
X5.6978Y-3.6185
X6.0728Y-1.8185
X6.0728Y-2.1185
X6.0728Y-4.0685
X6.0728Y-4.3685
X6.2603Y-2.5685
X6.2603Y-2.8685
X6.4478Y-3.3185
X6.4478Y-3.6185
X6.8228Y-1.8185
X6.8228Y-2.1185
X6.8228Y-4.0685
X6.8228Y-4.3685
X6.9748Y-5.3228
X7.0103Y-2.5685
X7.0103Y-2.8685
X7.1978Y-3.3185
X7.1978Y-3.6185
X7.2748Y-5.3228
X7.5728Y-1.8185
X7.5728Y-2.1185
X7.5728Y-4.0685
X7.5728Y-4.3685
X7.7603Y-2.5685
X7.7603Y-2.8685
X7.9478Y-3.3185
X7.9478Y-3.6185
X8.3228Y-1.8185
X8.3228Y-2.1185
X8.3228Y-4.0685
X8.3228Y-4.3685
X8.5103Y-2.5685
X8.5103Y-2.8685
X8.6978Y-3.3185
X8.6978Y-3.6185
X8.7916Y-4.8185
X8.7916Y-5.1185
X9.0728Y-1.8185
X9.0728Y-2.1185
X9.0728Y-4.0685
X9.0728Y-4.3685
X9.2603Y-2.5685
X9.2603Y-2.8685
X9.4478Y-3.3185
X9.4478Y-3.6185
X9.7291Y-4.8185
X9.7291Y-5.1185
X9.8228Y-1.8185
X9.8228Y-2.1185
X9.8228Y-4.0685
X9.8228Y-4.3685
X10.0103Y-2.5685
X10.0103Y-2.8685
X10.0685Y-3.1142
X10.3685Y-3.1142
X10.5728Y-4.0685
X10.5728Y-4.3685
X10.7603Y-1.8185
X10.7603Y-2.1185
X10.7603Y-5.006
X10.7603Y-5.306
X10.8541Y-2.5685
X10.8541Y-2.8685
X11.006Y-4.7603
X11.306Y-4.7603
X11.381Y-3.8228
X11.5103Y-5.006
X11.5103Y-5.306
X11.681Y-3.8228
X11.756Y-4.8017
X12.056Y-4.8017
T2
X11.2367Y-1.8029
X11.2367Y-1.9029
X11.2367Y-2.0029
X11.2367Y-2.1029
X11.2367Y-2.2029
X11.2367Y-2.3029
X11.2367Y-2.4029
X11.2367Y-2.5029
X11.2367Y-2.6029
X11.3367Y-2.6029
X11.4367Y-2.6029
X11.5367Y-2.6029
X11.6367Y-2.6029
X11.7367Y-2.6029
X11.8367Y-1.8029
X11.8367Y-1.9029
X11.8367Y-2.0029
X11.8367Y-2.1029
X11.8367Y-2.2029
X11.8367Y-2.3029
X11.8367Y-2.4029
X11.8367Y-2.5029
X11.8367Y-2.6029
T3
X1.8185Y-1.8685
X1.8701Y-1.811
X1.9123Y-2.6185
X1.9123Y-4.8685
X1.9638Y-2.561
X1.9638Y-4.811
X2.006Y-3.3685
X2.0576Y-3.311
X2.0669Y-1.7913
X2.0685Y-1.7685
X2.1607Y-2.5413
X2.1607Y-4.7913
X2.1623Y-2.5185
X2.1623Y-4.7685
X2.1935Y-4.1185
X2.2451Y-4.061
X2.2544Y-3.2913
X2.256Y-3.2685
X2.4419Y-4.0413
X2.4435Y-4.0185
X2.5685Y-1.8685
X2.6201Y-1.811
X2.756Y-2.6185
X2.756Y-4.8685
X2.8076Y-2.561
X2.8076Y-4.811
X2.8169Y-1.7913
X2.8185Y-1.7685
X2.9435Y-3.3685
X2.9951Y-3.311
X3.0044Y-2.5413
X3.0044Y-4.7913
X3.006Y-2.5185
X3.006Y-4.7685
X3.1919Y-3.2913
X3.1935Y-3.2685
X3.3185Y-1.8685
X3.3185Y-4.1185
X3.3701Y-1.811
X3.3701Y-4.061
X3.506Y-2.6185
X3.5576Y-2.561
X3.5669Y-1.7913
X3.5669Y-4.0413
X3.5685Y-1.7685
X3.5685Y-4.0185
X3.5998Y-4.8685
X3.6513Y-4.811
X3.6935Y-3.3685
X3.7451Y-3.311
X3.7544Y-2.5413
X3.756Y-2.5185
X3.8482Y-4.7913
X3.8498Y-4.7685
X3.9419Y-3.2913
X3.9435Y-3.2685
X4.0685Y-1.8685
X4.0685Y-4.1185
X4.1201Y-1.811
X4.1201Y-4.061
X4.256Y-2.6185
X4.3076Y-2.561
X4.3169Y-1.7913
X4.3169Y-4.0413
X4.3185Y-1.7685
X4.3185Y-4.0185
X4.4435Y-3.3685
X4.4951Y-3.311
X4.5044Y-2.5413
X4.506Y-2.5185
X4.6919Y-3.2913
X4.6935Y-3.2685
X4.8185Y-1.8685
X4.8185Y-4.1185
X4.8701Y-1.811
X4.8701Y-4.061
X5.006Y-2.6185
X5.0576Y-2.561
X5.0669Y-1.7913
X5.0669Y-4.0413
X5.0685Y-1.7685
X5.0685Y-4.0185
X5.0998Y-4.8685
X5.1513Y-4.811
X5.1935Y-3.3685
X5.2451Y-3.311
X5.2544Y-2.5413
X5.256Y-2.5185
X5.3482Y-4.7913
X5.3498Y-4.7685
X5.4419Y-3.2913
X5.4435Y-3.2685
X5.5685Y-1.8685
X5.5685Y-4.1185
X5.6201Y-1.811
X5.6201Y-4.061
X5.756Y-2.6185
X5.8076Y-2.561
X5.8169Y-1.7913
X5.8169Y-4.0413
X5.8185Y-1.7685
X5.8185Y-4.0185
X5.9435Y-3.3685
X5.9951Y-3.311
X6.0044Y-2.5413
X6.006Y-2.5185
X6.1919Y-3.2913
X6.1935Y-3.2685
X6.3185Y-1.8685
X6.3185Y-4.1185
X6.3701Y-1.811
X6.3701Y-4.061
X6.506Y-2.6185
X6.5576Y-2.561
X6.5669Y-1.7913
X6.5669Y-4.0413
X6.5685Y-1.7685
X6.5685Y-4.0185
X6.6935Y-3.3685
X6.7451Y-3.311
X6.7544Y-2.5413
X6.756Y-2.5185
X6.9419Y-3.2913
X6.9435Y-3.2685
X6.9748Y-4.8685
X7.0263Y-4.811
X7.0685Y-1.8685
X7.0685Y-4.1185
X7.1201Y-1.811
X7.1201Y-4.061
X7.2232Y-4.7913
X7.2248Y-4.7685
X7.256Y-2.6185
X7.3076Y-2.561
X7.3169Y-1.7913
X7.3169Y-4.0413
X7.3185Y-1.7685
X7.3185Y-4.0185
X7.4435Y-3.3685
X7.4951Y-3.311
X7.5044Y-2.5413
X7.506Y-2.5185
X7.6919Y-3.2913
X7.6935Y-3.2685
X7.8185Y-1.8685
X7.8185Y-4.1185
X7.8701Y-1.811
X7.8701Y-4.061
X8.006Y-2.6185
X8.0576Y-2.561
X8.0669Y-1.7913
X8.0669Y-4.0413
X8.0685Y-1.7685
X8.0685Y-4.0185
X8.1935Y-3.3685
X8.2451Y-3.311
X8.2544Y-2.5413
X8.256Y-2.5185
X8.2873Y-4.8685
X8.3388Y-4.811
X8.4419Y-3.2913
X8.4435Y-3.2685
X8.5357Y-4.7913
X8.5373Y-4.7685
X8.5685Y-1.8685
X8.5685Y-4.1185
X8.6201Y-1.811
X8.6201Y-4.061
X8.756Y-2.6185
X8.8076Y-2.561
X8.8169Y-1.7913
X8.8169Y-4.0413
X8.8185Y-1.7685
X8.8185Y-4.0185
X8.9435Y-3.3685
X8.9951Y-3.311
X9.0044Y-2.5413
X9.006Y-2.5185
X9.1919Y-3.2913
X9.1935Y-3.2685
X9.2248Y-4.8685
X9.2763Y-4.811
X9.3185Y-1.8685
X9.3185Y-4.1185
X9.3701Y-1.811
X9.3701Y-4.061
X9.4732Y-4.7913
X9.4748Y-4.7685
X9.506Y-2.6185
X9.5576Y-2.561
X9.5669Y-1.7913
X9.5669Y-4.0413
X9.5685Y-1.7685
X9.5685Y-4.0185
X9.7544Y-2.5413
X9.756Y-2.5185
X10.0685Y-3.3685
X10.0685Y-4.1185
X10.1201Y-3.311
X10.1201Y-4.061
X10.256Y-1.8685
X10.256Y-5.056
X10.3076Y-1.811
X10.3076Y-4.9985
X10.3169Y-3.2913
X10.3169Y-4.0413
X10.3185Y-3.2685
X10.3185Y-4.0185
X10.3498Y-2.6185
X10.4013Y-2.561
X10.5044Y-1.7913
X10.5044Y-4.9788
X10.506Y-1.7685
X10.506Y-4.956
X10.5982Y-2.5413
X10.5998Y-2.5185
X11.006Y-4.306
X11.006Y-5.056
X11.0576Y-4.2485
X11.0576Y-4.9985
X11.2544Y-4.2288
X11.2544Y-4.9788
X11.256Y-4.206
X11.256Y-4.956
X11.381Y-3.3685
X11.4326Y-3.311
X11.6294Y-3.2913
X11.631Y-3.2685
X11.756Y-5.056
X11.8076Y-4.9985
X12.0044Y-4.9788
X12.006Y-4.956
T0
M30
