999
dxfrw 0.6.3
  0
SECTION
  2
HEADER
  9
$ACADVER
  1
AC1021
  9
$DWGCODEPAGE
  3
ANSI_1252
  9
$INSBASE
 10
0
 20
0
 30
0
  9
$EXTMIN
 10
-143.4982204471726
 20
-57.84351652652703
 30
0
  9
$EXTMAX
 10
143.4982204471726
 20
77.44469816468985
 30
0
  9
$LIMMIN
 10
0
 20
0
  9
$LIMMAX
 10
420
 20
297
  9
$ORTHOMODE
 70
    0
  9
$REGENMODE
 70
    1
  9
$FILLMODE
 70
    1
  9
$QTEXTMODE
 70
    0
  9
$MIRRTEXT
 70
    0
  9
$LTSCALE
 40
1
  9
$ATTMODE
 70
    0
  9
$TEXTSIZE
 40
2.5
  9
$TRACEWID
 40
15.68
  9
$TEXTSTYLE
  7
STANDARD
  9
$CLAYER
  8
ext3
  9
$CELTYPE
  6
BYLAYER
  9
$CECOLOR
 62
  256
  9
$CELTSCALE
 40
1
  9
$DISPSILH
 70
    0
  9
$DIMSCALE
 40
2.5
  9
$DIMASZ
 40
2.5
  9
$DIMEXO
 40
0.625
  9
$DIMDLI
 40
3.75
  9
$DIMRND
 40
0
  9
$DIMDLE
 40
0
  9
$DIMEXE
 40
1.25
  9
$DIMTP
 40
0
  9
$DIMTM
 40
0
  9
$DIMTXT
 40
2.5
  9
$DIMCEN
 40
2.5
  9
$DIMTSZ
 40
0
  9
$DIMTOL
 70
    0
  9
$DIMLIM
 70
    0
  9
$DIMTIH
 70
    0
  9
$DIMTOH
 70
    0
  9
$DIMSE1
 70
    0
  9
$DIMSE2
 70
    0
  9
$DIMTAD
 70
    1
  9
$DIMZIN
 70
    8
  9
$DIMBLK
  1

  9
$DIMASO
 70
    1
  9
$DIMSHO
 70
    1
  9
$DIMPOST
  1

  9
$DIMAPOST
  1

  9
$DIMALT
 70
    0
  9
$DIMALTD
 70
    3
  9
$DIMALTF
 40
0.03937
  9
$DIMLFAC
 40
1
  9
$DIMTOFL
 70
    1
  9
$DIMTVP
 40
0
  9
$DIMTIX
 70
    0
  9
$DIMSOXD
 70
    0
  9
$DIMSAH
 70
    0
  9
$DIMBLK1
  1

  9
$DIMBLK2
  1

  9
$DIMSTYLE
  2
Standard
  9
$DIMCLRD
 70
    0
  9
$DIMCLRE
 70
    0
  9
$DIMCLRT
 70
    0
  9
$DIMTFAC
 40
1
  9
$DIMGAP
 40
0.625
  9
$DIMJUST
 70
    0
  9
$DIMSD1
 70
    0
  9
$DIMSD2
 70
    0
  9
$DIMTOLJ
 70
    0
  9
$DIMTZIN
 70
    8
  9
$DIMALTZ
 70
    0
  9
$DIMALTTZ
 70
    0
  9
$DIMUPT
 70
    0
  9
$DIMDEC
 70
    2
  9
$DIMTDEC
 70
    2
  9
$DIMALTU
 70
    2
  9
$DIMALTTD
 70
    3
  9
$DIMTXSTY
  7
STANDARD
  9
$DIMAUNIT
 70
    0
  9
$DIMADEC
 70
    0
  9
$DIMALTRND
 40
0
  9
$DIMAZIN
 70
    0
  9
$DIMDSEP
 70
   44
  9
$DIMATFIT
 70
    3
  9
$DIMFRAC
 70
    0
  9
$DIMLDRBLK
  1
STANDARD
  9
$DIMLUNIT
 70
    2
  9
$DIMLWD
 70
   -2
  9
$DIMLWE
 70
   -2
  9
$DIMTMOVE
 70
    0
  9
$DIMFXL
 40
1
  9
$DIMFXLON
 70
    0
  9
$DIMJOGANG
 40
0.7854
  9
$DIMTFILL
 70
    0
  9
$DIMTFILLCLR
 70
    0
  9
$DIMARCSYM
 70
    0
  9
$DIMLTYPE
  6

  9
$DIMLTEX1
  6

  9
$DIMLTEX2
  6

  9
$LUNITS
 70
    2
  9
$LUPREC
 70
    4
  9
$SKETCHINC
 40
1
  9
$FILLETRAD
 40
0
  9
$AUNITS
 70
    0
  9
$AUPREC
 70
    2
  9
$MENU
  1
.
  9
$ELEVATION
 40
0
  9
$PELEVATION
 40
0
  9
$THICKNESS
 40
0
  9
$LIMCHECK
 70
    0
  9
$CHAMFERA
 40
0
  9
$CHAMFERB
 40
0
  9
$CHAMFERC
 40
0
  9
$CHAMFERD
 40
0
  9
$SKPOLY
 70
    0
  9
$USRTIMER
 70
    1
  9
$ANGBASE
 50
0
  9
$ANGDIR
 70
    0
  9
$PDMODE
 70
   34
  9
$PDSIZE
 40
0
  9
$PLINEWID
 40
0
  9
$SPLFRAME
 70
    0
  9
$SPLINETYPE
 70
    2
  9
$SPLINESEGS
 70
    8
  9
$HANDSEED
  5
20000
  9
$SURFTAB1
 70
    6
  9
$SURFTAB2
 70
    6
  9
$SURFTYPE
 70
    6
  9
$SURFU
 70
    6
  9
$SURFV
 70
    6
  9
$UCSBASE
  2

  9
$UCSNAME
  2

  9
$UCSORG
 10
0
 20
0
 30
0
  9
$UCSXDIR
 10
1
 20
0
 30
0
  9
$UCSYDIR
 10
0
 20
1
 30
0
  9
$UCSORTHOREF
  2

  9
$UCSORTHOVIEW
 70
    0
  9
$UCSORGTOP
 10
0
 20
0
 30
0
  9
$UCSORGBOTTOM
 10
0
 20
0
 30
0
  9
$UCSORGLEFT
 10
0
 20
0
 30
0
  9
$UCSORGRIGHT
 10
0
 20
0
 30
0
  9
$UCSORGFRONT
 10
0
 20
0
 30
0
  9
$UCSORGBACK
 10
0
 20
0
 30
0
  9
$PUCSBASE
  2

  9
$PUCSNAME
  2

  9
$PUCSORG
 10
0
 20
0
 30
0
  9
$PUCSXDIR
 10
1
 20
0
 30
0
  9
$PUCSYDIR
 10
0
 20
1
 30
0
  9
$PUCSORTHOREF
  2

  9
$PUCSORTHOVIEW
 70
    0
  9
$PUCSORGTOP
 10
0
 20
0
 30
0
  9
$PUCSORGBOTTOM
 10
0
 20
0
 30
0
  9
$PUCSORGLEFT
 10
0
 20
0
 30
0
  9
$PUCSORGRIGHT
 10
0
 20
0
 30
0
  9
$PUCSORGFRONT
 10
0
 20
0
 30
0
  9
$PUCSORGBACK
 10
0
 20
0
 30
0
  9
$USERI1
 70
    0
  9
$USERI2
 70
    0
  9
$USERI3
 70
    0
  9
$USERI4
 70
    0
  9
$USERI5
 70
    0
  9
$USERR1
 40
0
  9
$USERR2
 40
0
  9
$USERR3
 40
0
  9
$USERR4
 40
0
  9
$USERR5
 40
0
  9
$WORLDVIEW
 70
    1
  9
$SHADEDGE
 70
    3
  9
$SHADEDIF
 70
   70
  9
$TILEMODE
 70
    1
  9
$MAXACTVP
 70
   64
  9
$PINSBASE
 10
0
 20
0
 30
0
  9
$PLIMCHECK
 70
    0
  9
$PEXTMIN
 10
0
 20
0
 30
0
  9
$PEXTMAX
 10
0
 20
0
 30
0
  9
$GRIDMODE
 70
    1
  9
$SNAPSTYLE
 70
    0
  9
$PLIMMIN
 10
0
 20
0
  9
$PLIMMAX
 10
210
 20
297
  9
$UNITMODE
 70
    0
  9
$VISRETAIN
 70
    1
  9
$PLINEGEN
 70
    0
  9
$PSLTSCALE
 70
    1
  9
$TREEDEPTH
 70
 3020
  9
$CMLSTYLE
  2
Standard
  9
$CMLJUST
 70
    0
  9
$CMLSCALE
 40
20
  9
$PROXYGRAPHICS
 70
    1
  9
$MEASUREMENT
 70
    1
  9
$CELWEIGHT
370
   -1
  9
$ENDCAPS
280
    0
  9
$JOINSTYLE
280
    0
  9
$LWDISPLAY
290
    0
  9
$INSUNITS
 70
    4
  9
$HYPERLINKBASE
  1

  9
$STYLESHEET
  1

  9
$XEDIT
290
    1
  9
$CEPSNTYPE
380
    0
  9
$PSTYLEMODE
290
    1
  9
$EXTNAMES
290
    1
  9
$PSVPSCALE
 40
1
  9
$OLESTARTUP
290
    0
  9
$SORTENTS
280
  127
  9
$INDEXCTL
280
    0
  9
$HIDETEXT
280
    1
  9
$XCLIPFRAME
290
    0
  9
$HALOGAP
280
    0
  9
$OBSCOLOR
 70
  257
  9
$OBSLTYPE
280
    0
  9
$INTERSECTIONDISPLAY
280
    0
  9
$INTERSECTIONCOLOR
 70
  257
  9
$DIMASSOC
280
    1
  9
$PROJECTNAME
  1

  9
$CAMERADISPLAY
290
    0
  9
$LENSLENGTH
 40
50
  9
$CAMERAHEIGHT
 40
0
  9
$STEPSPERSEC
 40
2
  9
$STEPSIZE
 40
50
  9
$3DDWFPREC
 40
2
  9
$PSOLWIDTH
 40
5
  9
$PSOLHEIGHT
 40
80
  9
$LOFTANG1
 40
1.570796326794897
  9
$LOFTANG2
 40
1.570796326794897
  9
$LOFTMAG1
 40
0
  9
$LOFTMAG2
 40
0
  9
$LOFTPARAM
 70
    7
  9
$LOFTNORMALS
280
    1
  9
$LATITUDE
 40
1
  9
$LONGITUDE
 40
1
  9
$NORTHDIRECTION
 40
0
  9
$TIMEZONE
 70
-8000
  9
$LIGHTGLYPHDISPLAY
280
    1
  9
$TILEMODELIGHTSYNCH
280
    1
  9
$SOLIDHIST
280
    1
  9
$SHOWHIST
280
    1
  9
$DWFFRAME
280
    2
  9
$DGNFRAME
280
    0
  9
$REALWORLDSCALE
290
    1
  9
$INTERFERECOLOR
 62
    1
  9
$CSHADOW
280
    0
  9
$SHADOWPLANELOCATION
 40
0
  0
ENDSEC
  0
SECTION
  2
CLASSES
  0
ENDSEC
  0
SECTION
  2
TABLES
  0
TABLE
  2
VPORT
  5
8
330
0
100
AcDbSymbolTable
 70
    1
  0
VPORT
  5
31
330
2
100
AcDbSymbolTableRecord
100
AcDbViewportTableRecord
  2
*ACTIVE
 70
    0
 10
0
 20
0
 11
1
 21
1
 12
72.96519683754539
 22
50.1027684951145
 13
0
 23
0
 14
10
 24
10
 15
10
 25
10
 16
0
 26
0
 36
1
 17
0
 27
0
 37
0
 40
185.8180346129489
 41
1.570680628272251
 42
50
 43
0
 44
0
 50
0
 51
0
 71
    0
 72
  100
 73
    1
 74
    3
 75
    0
 76
    1
 77
    0
 78
    0
281
    0
 65
    1
110
0
120
0
130
0
111
1
121
0
131
0
112
0
122
1
132
0
 79
    0
146
0
348
10020
 60
    7
 61
    5
292
1
282
    1
141
0
142
0
 63
  250
421
3358443
  0
ENDTAB
  0
TABLE
  2
LTYPE
  5
5
330
0
100
AcDbSymbolTable
 70
    4
  0
LTYPE
  5
14
330
5
100
AcDbSymbolTableRecord
100
AcDbLinetypeTableRecord
  2
ByBlock
 70
    0
  3

 72
   65
 73
    0
 40
0
  0
LTYPE
  5
15
330
5
100
AcDbSymbolTableRecord
100
AcDbLinetypeTableRecord
  2
ByLayer
 70
    0
  3

 72
   65
 73
    0
 40
0
  0
LTYPE
  5
16
330
5
100
AcDbSymbolTableRecord
100
AcDbLinetypeTableRecord
  2
Continuous
 70
    0
  3
Solid line
 72
   65
 73
    0
 40
0
  0
LTYPE
  5
32
330
5
100
AcDbSymbolTableRecord
100
AcDbLinetypeTableRecord
  2
DOT
 70
    0
  3
Dot . . . . . . . . . . . . . . . . . . . . . .
 72
   65
 73
    2
 40
6.35
 49
0
 74
    0
 49
-6.35
 74
    0
  0
LTYPE
  5
33
330
5
100
AcDbSymbolTableRecord
100
AcDbLinetypeTableRecord
  2
DOTTINY
 70
    0
  3
Dot (.15x) .....................................
 72
   65
 73
    2
 40
0.9525
 49
0
 74
    0
 49
-0.9525
 74
    0
  0
LTYPE
  5
34
330
5
100
AcDbSymbolTableRecord
100
AcDbLinetypeTableRecord
  2
DOT2
 70
    0
  3
Dot (.5x) .....................................
 72
   65
 73
    2
 40
3.175
 49
0
 74
    0
 49
-3.175
 74
    0
  0
LTYPE
  5
35
330
5
100
AcDbSymbolTableRecord
100
AcDbLinetypeTableRecord
  2
DOTX2
 70
    0
  3
Dot (2x) .  .  .  .  .  .  .  .  .  .  .  .  .
 72
   65
 73
    2
 40
12.7
 49
0
 74
    0
 49
-12.7
 74
    0
  0
LTYPE
  5
36
330
5
100
AcDbSymbolTableRecord
100
AcDbLinetypeTableRecord
  2
DASHED
 70
    0
  3
Dashed _ _ _ _ _ _ _ _ _ _ _ _ _ _ _ _ _
 72
   65
 73
    2
 40
19.05
 49
12.7
 74
    0
 49
-6.35
 74
    0
  0
LTYPE
  5
37
330
5
100
AcDbSymbolTableRecord
100
AcDbLinetypeTableRecord
  2
DASHEDTINY
 70
    0
  3
Dashed (.15x) _ _ _ _ _ _ _ _ _ _ _ _ _ _ _ _ _
 72
   65
 73
    2
 40
2.8575
 49
1.905
 74
    0
 49
-0.9525
 74
    0
  0
LTYPE
  5
38
330
5
100
AcDbSymbolTableRecord
100
AcDbLinetypeTableRecord
  2
DASHED2
 70
    0
  3
Dashed (.5x) _ _ _ _ _ _ _ _ _ _ _ _ _ _ _ _ _
 72
   65
 73
    2
 40
9.524999999999999
 49
6.35
 74
    0
 49
-3.175
 74
    0
  0
LTYPE
  5
39
330
5
100
AcDbSymbolTableRecord
100
AcDbLinetypeTableRecord
  2
DASHEDX2
 70
    0
  3
Dashed (2x) ____  ____  ____  ____  ____  ___
 72
   65
 73
    2
 40
38.09999999999999
 49
25.4
 74
    0
 49
-12.7
 74
    0
  0
LTYPE
  5
3A
330
5
100
AcDbSymbolTableRecord
100
AcDbLinetypeTableRecord
  2
DASHDOT
 70
    0
  3
Dash dot __ . __ . __ . __ . __ . __ . __ . __
 72
   65
 73
    4
 40
25.4
 49
12.7
 74
    0
 49
-6.35
 74
    0
 49
0
 74
    0
 49
-6.35
 74
    0
  0
LTYPE
  5
3B
330
5
100
AcDbSymbolTableRecord
100
AcDbLinetypeTableRecord
  2
DASHDOTTINY
 70
    0
  3
Dash dot (.15x) _._._._._._._._._._._._._._._.
 72
   65
 73
    4
 40
3.81
 49
1.905
 74
    0
 49
-0.9525
 74
    0
 49
0
 74
    0
 49
-0.9525
 74
    0
  0
LTYPE
  5
3C
330
5
100
AcDbSymbolTableRecord
100
AcDbLinetypeTableRecord
  2
DASHDOT2
 70
    0
  3
Dash dot (.5x) _._._._._._._._._._._._._._._.
 72
   65
 73
    4
 40
12.7
 49
6.35
 74
    0
 49
-3.175
 74
    0
 49
0
 74
    0
 49
-3.175
 74
    0
  0
LTYPE
  5
3D
330
5
100
AcDbSymbolTableRecord
100
AcDbLinetypeTableRecord
  2
DASHDOTX2
 70
    0
  3
Dash dot (2x) ____  .  ____  .  ____  .  ___
 72
   65
 73
    4
 40
50.8
 49
25.4
 74
    0
 49
-12.7
 74
    0
 49
0
 74
    0
 49
-12.7
 74
    0
  0
LTYPE
  5
3E
330
5
100
AcDbSymbolTableRecord
100
AcDbLinetypeTableRecord
  2
DIVIDE
 70
    0
  3
Divide ____ . . ____ . . ____ . . ____ . . ____
 72
   65
 73
    6
 40
31.75
 49
12.7
 74
    0
 49
-6.35
 74
    0
 49
0
 74
    0
 49
-6.35
 74
    0
 49
0
 74
    0
 49
-6.35
 74
    0
  0
LTYPE
  5
3F
330
5
100
AcDbSymbolTableRecord
100
AcDbLinetypeTableRecord
  2
DIVIDETINY
 70
    0
  3
Divide (.15x) __..__..__..__..__..__..__..__.._
 72
   65
 73
    6
 40
4.7625
 49
1.905
 74
    0
 49
-0.9525
 74
    0
 49
0
 74
    0
 49
-0.9525
 74
    0
 49
0
 74
    0
 49
-0.9525
 74
    0
  0
LTYPE
  5
40
330
5
100
AcDbSymbolTableRecord
100
AcDbLinetypeTableRecord
  2
DIVIDE2
 70
    0
  3
Divide (.5x) __..__..__..__..__..__..__..__.._
 72
   65
 73
    6
 40
15.875
 49
6.35
 74
    0
 49
-3.175
 74
    0
 49
0
 74
    0
 49
-3.175
 74
    0
 49
0
 74
    0
 49
-3.175
 74
    0
  0
LTYPE
  5
41
330
5
100
AcDbSymbolTableRecord
100
AcDbLinetypeTableRecord
  2
DIVIDEX2
 70
    0
  3
Divide (2x) ________  .  .  ________  .  .  _
 72
   65
 73
    6
 40
63.5
 49
25.4
 74
    0
 49
-12.7
 74
    0
 49
0
 74
    0
 49
-12.7
 74
    0
 49
0
 74
    0
 49
-12.7
 74
    0
  0
LTYPE
  5
42
330
5
100
AcDbSymbolTableRecord
100
AcDbLinetypeTableRecord
  2
BORDER
 70
    0
  3
Border __ __ . __ __ . __ __ . __ __ . __ __ .
 72
   65
 73
    6
 40
44.45
 49
12.7
 74
    0
 49
-6.35
 74
    0
 49
12.7
 74
    0
 49
-6.35
 74
    0
 49
0
 74
    0
 49
-6.35
 74
    0
  0
LTYPE
  5
43
330
5
100
AcDbSymbolTableRecord
100
AcDbLinetypeTableRecord
  2
BORDERTINY
 70
    0
  3
Border (.15x) __.__.__.__.__.__.__.__.__.__.__.
 72
   65
 73
    6
 40
6.6675
 49
1.905
 74
    0
 49
-0.9525
 74
    0
 49
1.905
 74
    0
 49
-0.9525
 74
    0
 49
0
 74
    0
 49
-0.9525
 74
    0
  0
LTYPE
  5
44
330
5
100
AcDbSymbolTableRecord
100
AcDbLinetypeTableRecord
  2
BORDER2
 70
    0
  3
Border (.5x) __.__.__.__.__.__.__.__.__.__.__.
 72
   65
 73
    6
 40
22.225
 49
6.35
 74
    0
 49
-3.175
 74
    0
 49
6.35
 74
    0
 49
-3.175
 74
    0
 49
0
 74
    0
 49
-3.175
 74
    0
  0
LTYPE
  5
45
330
5
100
AcDbSymbolTableRecord
100
AcDbLinetypeTableRecord
  2
BORDERX2
 70
    0
  3
Border (2x) ____  ____  .  ____  ____  .  ___
 72
   65
 73
    6
 40
88.89999999999999
 49
25.4
 74
    0
 49
-12.7
 74
    0
 49
25.4
 74
    0
 49
-12.7
 74
    0
 49
0
 74
    0
 49
-12.7
 74
    0
  0
LTYPE
  5
46
330
5
100
AcDbSymbolTableRecord
100
AcDbLinetypeTableRecord
  2
CENTER
 70
    0
  3
Center ____ _ ____ _ ____ _ ____ _ ____ _ ____
 72
   65
 73
    4
 40
50.8
 49
31.75
 74
    0
 49
-6.35
 74
    0
 49
6.35
 74
    0
 49
-6.35
 74
    0
  0
LTYPE
  5
47
330
5
100
AcDbSymbolTableRecord
100
AcDbLinetypeTableRecord
  2
CENTERTINY
 70
    0
  3
Center (.15x) ___ _ ___ _ ___ _ ___ _ ___ _ ___
 72
   65
 73
    4
 40
7.619999999999999
 49
4.7625
 74
    0
 49
-0.9525
 74
    0
 49
0.9525
 74
    0
 49
-0.9525
 74
    0
  0
LTYPE
  5
48
330
5
100
AcDbSymbolTableRecord
100
AcDbLinetypeTableRecord
  2
CENTER2
 70
    0
  3
Center (.5x) ___ _ ___ _ ___ _ ___ _ ___ _ ___
 72
   65
 73
    4
 40
28.575
 49
19.05
 74
    0
 49
-3.175
 74
    0
 49
3.175
 74
    0
 49
-3.175
 74
    0
  0
LTYPE
  5
49
330
5
100
AcDbSymbolTableRecord
100
AcDbLinetypeTableRecord
  2
CENTERX2
 70
    0
  3
Center (2x) ________  __  ________  __  _____
 72
   65
 73
    4
 40
101.6
 49
63.5
 74
    0
 49
-12.7
 74
    0
 49
12.7
 74
    0
 49
-12.7
 74
    0
  0
ENDTAB
  0
TABLE
  2
LAYER
  5
2
330
0
100
AcDbSymbolTable
 70
    1
  0
LAYER
  5
10
330
2
100
AcDbSymbolTableRecord
100
AcDbLayerTableRecord
  2
0
 70
    4
 62
    7
  6
CONTINUOUS
370
    0
390
F
  0
LAYER
  5
4A
330
2
100
AcDbSymbolTableRecord
100
AcDbLayerTableRecord
  2
ext1
 70
    4
 62
    7
  6
CONTINUOUS
370
    0
390
F
  0
LAYER
  5
4B
330
2
100
AcDbSymbolTableRecord
100
AcDbLayerTableRecord
  2
ext2
 70
    4
 62
    1
  6
CONTINUOUS
370
    0
390
F
  0
LAYER
  5
4C
330
2
100
AcDbSymbolTableRecord
100
AcDbLayerTableRecord
  2
ext3
 70
    4
 62
    7
  6
CONTINUOUS
370
    0
390
F
  0
LAYER
  5
4D
330
2
100
AcDbSymbolTableRecord
100
AcDbLayerTableRecord
  2
noname
 70
    4
 62
    2
  6
CONTINUOUS
370
   -3
390
F
  0
LAYER
  5
4E
330
2
100
AcDbSymbolTableRecord
100
AcDbLayerTableRecord
  2
noname1
 70
    4
 62
    1
  6
CONTINUOUS
370
   -3
390
F
  0
LAYER
  5
4F
330
2
100
AcDbSymbolTableRecord
100
AcDbLayerTableRecord
  2
noname2
 70
    4
 62
    3
  6
CONTINUOUS
370
   -3
390
F
  0
LAYER
  5
50
330
2
100
AcDbSymbolTableRecord
100
AcDbLayerTableRecord
  2
noname3
 70
    4
 62
  151
420
8571391
  6
CONTINUOUS
370
   -3
390
F
  0
LAYER
  5
51
330
2
100
AcDbSymbolTableRecord
100
AcDbLayerTableRecord
  2
noname4
 70
    4
 62
    6
  6
CONTINUOUS
370
   -3
390
F
  0
LAYER
  5
52
330
2
100
AcDbSymbolTableRecord
100
AcDbLayerTableRecord
  2
noname5
 70
    4
 62
    6
  6
CONTINUOUS
370
    0
390
F
  0
ENDTAB
  0
TABLE
  2
STYLE
  5
3
330
0
100
AcDbSymbolTable
 70
    3
  0
STYLE
  5
53
330
2
100
AcDbSymbolTableRecord
100
AcDbTextStyleTableRecord
  2
Standard
 70
    0
 40
0
 41
1
 50
0
 71
    0
 42
1
  3
txt
  4

  0
ENDTAB
  0
TABLE
  2
VIEW
  5
6
330
0
100
AcDbSymbolTable
 70
    0
  0
ENDTAB
  0
TABLE
  2
UCS
  5
7
330
0
100
AcDbSymbolTable
 70
    0
  0
ENDTAB
  0
TABLE
  2
APPID
  5
9
330
0
100
AcDbSymbolTable
 70
    1
  0
APPID
  5
12
330
9
100
AcDbSymbolTableRecord
100
AcDbRegAppTableRecord
  2
ACAD
 70
    0
  0
APPID
  5
54
330
9
100
AcDbSymbolTableRecord
100
AcDbRegAppTableRecord
  2
LibreCad
 70
    0
  0
ENDTAB
  0
TABLE
  2
DIMSTYLE
  5
A
330
0
100
AcDbSymbolTable
 70
    1
100
AcDbDimStyleTable
 71
    1
  0
DIMSTYLE
105
55
330
A
100
AcDbSymbolTableRecord
100
AcDbDimStyleTableRecord
  2
Standard
 70
    0
 40
2.5
 41
2.5
 42
0.625
 43
0.38
 44
1.25
 45
0
 46
0
 47
0
 48
0
 49
1
140
2.5
141
0.09
142
0
143
25.4
144
1
145
0
146
1
147
0.625
148
0
 71
    0
 72
    0
 73
    0
 74
    1
 75
    0
 76
    0
 77
    0
 78
    8
 79
    0
170
    0
171
    2
172
    0
173
    0
174
    0
175
    0
176
    0
177
    0
178
    0
179
    0
271
    2
272
    4
273
    2
274
    2
275
    0
276
    0
277
    2
278
   44
279
    0
280
    0
281
    0
282
    0
283
    1
284
    0
285
    0
286
    0
288
    0
289
    3
340
STANDARD
341

371
   -2
372
   -2
  0
ENDTAB
  0
TABLE
  2
BLOCK_RECORD
  5
1
330
0
100
AcDbSymbolTable
 70
    2
  0
BLOCK_RECORD
  5
1F
330
1
100
AcDbSymbolTableRecord
100
AcDbBlockTableRecord
  2
*Model_Space
 70
    0
280
    1
281
    0
  0
BLOCK_RECORD
  5
1E
330
1
100
AcDbSymbolTableRecord
100
AcDbBlockTableRecord
  2
*Paper_Space
 70
    0
280
    1
281
    0
  0
ENDTAB
  0
ENDSEC
  0
SECTION
  2
BLOCKS
  0
BLOCK
  5
20
330
1F
100
AcDbEntity
  8
0
100
AcDbBlockBegin
  2
*Model_Space
 70
    0
 10
0
 20
0
 30
0
  3
*Model_Space
  1

  0
ENDBLK
  5
21
330
1F
100
AcDbEntity
  8
0
100
AcDbBlockEnd
  0
BLOCK
  5
1C
330
1B
100
AcDbEntity
  8
0
100
AcDbBlockBegin
  2
*Paper_Space
 70
    0
 10
0
 20
0
 30
0
  3
*Paper_Space
  1

  0
ENDBLK
  5
1D
330
1F
100
AcDbEntity
  8
0
100
AcDbBlockEnd
  0
ENDSEC
  0
SECTION
  2
ENTITIES
  0
LINE
  5
56
100
AcDbEntity
  8
0
  6
ByLayer
 62
  256
370
   -1
100
AcDbLine
 10
-6.5
 20
-33
 11
6.5
 21
-33
  0
LINE
  5
57
100
AcDbEntity
  8
0
  6
ByLayer
 62
  256
370
   -1
100
AcDbLine
 10
-6.5
 20
-47
 11
6.5
 21
-47
  0
LINE
  5
58
100
AcDbEntity
  8
0
  6
ByLayer
 62
  256
370
   -1
100
AcDbLine
 10
-7
 20
-33.5
 11
-7
 21
-46.5
  0
LINE
  5
59
100
AcDbEntity
  8
0
  6
ByLayer
 62
  256
370
   -1
100
AcDbLine
 10
7
 20
-33.5
 11
7
 21
-46.5
  0
ARC
  5
5A
100
AcDbEntity
  8
0
  6
ByLayer
 62
  256
370
   -1
100
AcDbCircle
 10
-6.5
 20
-33.5
 40
0.5
100
AcDbArc
 50
90
 51
180
  0
ARC
  5
5B
100
AcDbEntity
  8
0
  6
ByLayer
 62
  256
370
   -1
100
AcDbCircle
 10
6.5
 20
-33.5
 40
0.5
100
AcDbArc
 50
0
 51
90
  0
ARC
  5
5C
100
AcDbEntity
  8
0
  6
ByLayer
 62
  256
370
   -1
100
AcDbCircle
 10
-6.5
 20
-46.5
 40
0.5
100
AcDbArc
 50
180
 51
270
  0
ARC
  5
5D
100
AcDbEntity
  8
0
  6
ByLayer
 62
  256
370
   -1
100
AcDbCircle
 10
6.5
 20
-46.5
 40
0.5
100
AcDbArc
 50
270
 51
0
  0
LINE
  5
5E
100
AcDbEntity
  8
0
  6
ByLayer
 62
  256
370
   -1
100
AcDbLine
 10
-14.93799999999999
 20
-34
 11
-8.937999999999988
 21
-34
  0
LINE
  5
5F
100
AcDbEntity
  8
0
  6
ByLayer
 62
  256
370
   -1
100
AcDbLine
 10
-14.93799999999999
 20
-49
 11
-8.937999999999988
 21
-49
  0
LINE
  5
60
100
AcDbEntity
  8
0
  6
ByLayer
 62
  256
370
   -1
100
AcDbLine
 10
-15.43799999999999
 20
-34.5
 11
-15.43799999999999
 21
-48.5
  0
LINE
  5
61
100
AcDbEntity
  8
0
  6
ByLayer
 62
  256
370
   -1
100
AcDbLine
 10
-8.437999999999988
 20
-34.5
 11
-8.437999999999988
 21
-48.5
  0
ARC
  5
62
100
AcDbEntity
  8
0
  6
ByLayer
 62
  256
370
   -1
100
AcDbCircle
 10
-14.93799999999999
 20
-34.5
 40
0.5
100
AcDbArc
 50
90
 51
180
  0
ARC
  5
63
100
AcDbEntity
  8
0
  6
ByLayer
 62
  256
370
   -1
100
AcDbCircle
 10
-8.937999999999988
 20
-34.5
 40
0.5
100
AcDbArc
 50
0
 51
90
  0
ARC
  5
64
100
AcDbEntity
  8
0
  6
ByLayer
 62
  256
370
   -1
100
AcDbCircle
 10
-14.93799999999999
 20
-48.5
 40
0.5
100
AcDbArc
 50
180
 51
270
  0
ARC
  5
65
100
AcDbEntity
  8
0
  6
ByLayer
 62
  256
370
   -1
100
AcDbCircle
 10
-8.937999999999988
 20
-48.5
 40
0.5
100
AcDbArc
 50
270
 51
0
  0
LINE
  5
66
100
AcDbEntity
  8
0
  6
ByLayer
 62
  256
370
   -1
100
AcDbLine
 10
8.938000000000017
 20
-34
 11
14.93800000000002
 21
-34
  0
LINE
  5
67
100
AcDbEntity
  8
0
  6
ByLayer
 62
  256
370
   -1
100
AcDbLine
 10
8.938000000000017
 20
-49
 11
14.93800000000002
 21
-49
  0
LINE
  5
68
100
AcDbEntity
  8
0
  6
ByLayer
 62
  256
370
   -1
100
AcDbLine
 10
8.438000000000017
 20
-34.5
 11
8.438000000000017
 21
-48.5
  0
LINE
  5
69
100
AcDbEntity
  8
0
  6
ByLayer
 62
  256
370
   -1
100
AcDbLine
 10
15.43800000000002
 20
-34.5
 11
15.43800000000002
 21
-48.5
  0
ARC
  5
6A
100
AcDbEntity
  8
0
  6
ByLayer
 62
  256
370
   -1
100
AcDbCircle
 10
8.938000000000017
 20
-34.5
 40
0.5
100
AcDbArc
 50
90
 51
180
  0
ARC
  5
6B
100
AcDbEntity
  8
0
  6
ByLayer
 62
  256
370
   -1
100
AcDbCircle
 10
14.93800000000002
 20
-34.5
 40
0.5
100
AcDbArc
 50
0
 51
90
  0
ARC
  5
6C
100
AcDbEntity
  8
0
  6
ByLayer
 62
  256
370
   -1
100
AcDbCircle
 10
8.938000000000017
 20
-48.5
 40
0.5
100
AcDbArc
 50
180
 51
270
  0
ARC
  5
6D
100
AcDbEntity
  8
0
  6
ByLayer
 62
  256
370
   -1
100
AcDbCircle
 10
14.93800000000002
 20
-48.5
 40
0.5
100
AcDbArc
 50
270
 51
0
  0
LINE
  5
6E
100
AcDbEntity
  8
0
  6
ByLayer
 62
  256
370
   -1
100
AcDbLine
 10
-51.12956419999999
 20
51.04053619999999
 11
-38.5725284
 21
47.67588859999999
  0
LINE
  5
6F
100
AcDbEntity
  8
0
  6
ByLayer
 62
  256
370
   -1
100
AcDbLine
 10
-54.75303079999999
 20
37.51757459999999
 11
-42.195995
 21
34.15292699999999
  0
LINE
  5
70
100
AcDbEntity
  8
0
  6
ByLayer
 62
  256
370
   -1
100
AcDbLine
 10
-51.74193659999999
 20
50.6869828
 11
-55.1065842
 21
38.12994699999999
  0
LINE
  5
71
100
AcDbEntity
  8
0
  6
ByLayer
 62
  256
370
   -1
100
AcDbLine
 10
-38.218975
 20
47.0635162
 11
-41.5836226
 21
34.50648039999999
  0
ARC
  5
72
100
AcDbEntity
  8
0
  6
ByLayer
 62
  256
370
   -1
100
AcDbCircle
 10
-51.2589737
 20
50.5575733
 40
0.5
100
AcDbArc
 50
75
 51
165
  0
ARC
  5
73
100
AcDbEntity
  8
0
  6
ByLayer
 62
  256
370
   -1
100
AcDbCircle
 10
-38.70193789999999
 20
47.19292569999999
 40
0.5
100
AcDbArc
 50
345
 51
75
  0
ARC
  5
74
100
AcDbEntity
  8
0
  6
ByLayer
 62
  256
370
   -1
100
AcDbCircle
 10
-54.6236213
 20
38.00053749999999
 40
0.5
100
AcDbArc
 50
165
 51
255
  0
ARC
  5
75
100
AcDbEntity
  8
0
  6
ByLayer
 62
  256
370
   -1
100
AcDbCircle
 10
-42.06658549999999
 20
34.6358899
 40
0.5
100
AcDbArc
 50
255
 51
345
  0
LINE
  5
76
100
AcDbEntity
  8
0
  6
ByLayer
 62
  256
370
   -1
100
AcDbLine
 10
-70.76307689999999
 20
51.3708173
 11
-58.20604109999999
 21
48.00616969999999
  0
LINE
  5
77
100
AcDbEntity
  8
0
  6
ByLayer
 62
  256
370
   -1
100
AcDbLine
 10
-74.38654349999999
 20
37.8478557
 11
-61.82950769999999
 21
34.48320809999998
  0
LINE
  5
78
100
AcDbEntity
  8
0
  6
ByLayer
 62
  256
370
   -1
100
AcDbLine
 10
-71.37544929999999
 20
51.01726389999999
 11
-74.7400969
 21
38.46022809999999
  0
LINE
  5
79
100
AcDbEntity
  8
0
  6
ByLayer
 62
  256
370
   -1
100
AcDbLine
 10
-57.8524877
 20
47.39379729999999
 11
-61.2171353
 21
34.83676149999999
  0
ARC
  5
7A
100
AcDbEntity
  8
0
  6
ByLayer
 62
  256
370
   -1
100
AcDbCircle
 10
-70.8924864
 20
50.88785439999999
 40
0.5
100
AcDbArc
 50
75
 51
165
  0
ARC
  5
7B
100
AcDbEntity
  8
0
  6
ByLayer
 62
  256
370
   -1
100
AcDbCircle
 10
-58.33545059999999
 20
47.5232068
 40
0.5
100
AcDbArc
 50
345
 51
75
  0
ARC
  5
7C
100
AcDbEntity
  8
0
  6
ByLayer
 62
  256
370
   -1
100
AcDbCircle
 10
-74.25713399999999
 20
38.33081859999999
 40
0.5
100
AcDbArc
 50
165
 51
255
  0
ARC
  5
7D
100
AcDbEntity
  8
0
  6
ByLayer
 62
  256
370
   -1
100
AcDbCircle
 10
-61.7000982
 20
34.966171
 40
0.5
100
AcDbArc
 50
255
 51
345
  0
LINE
  5
7E
100
AcDbEntity
  8
0
  6
ByLayer
 62
  256
370
   -1
100
AcDbLine
 10
-33.96130289999999
 20
41.5098117
 11
-21.4042671
 21
38.14516409999999
  0
LINE
  5
7F
100
AcDbEntity
  8
0
  6
ByLayer
 62
  256
370
   -1
100
AcDbLine
 10
-37.58476949999999
 20
27.9868501
 11
-25.0277337
 21
24.62220249999999
  0
LINE
  5
80
100
AcDbEntity
  8
0
  6
ByLayer
 62
  256
370
   -1
100
AcDbLine
 10
-34.57367529999999
 20
41.15625829999999
 11
-37.93832289999999
 21
28.5992225
  0
LINE
  5
81
100
AcDbEntity
  8
0
  6
ByLayer
 62
  256
370
   -1
100
AcDbLine
 10
-21.05071369999999
 20
37.53279169999999
 11
-24.4153613
 21
24.9757559
  0
ARC
  5
82
100
AcDbEntity
  8
0
  6
ByLayer
 62
  256
370
   -1
100
AcDbCircle
 10
-34.0907124
 20
41.0268488
 40
0.5
100
AcDbArc
 50
75
 51
165
  0
ARC
  5
83
100
AcDbEntity
  8
0
  6
ByLayer
 62
  256
370
   -1
100
AcDbCircle
 10
-21.53367659999999
 20
37.6622012
 40
0.5
100
AcDbArc
 50
345
 51
75
  0
ARC
  5
84
100
AcDbEntity
  8
0
  6
ByLayer
 62
  256
370
   -1
100
AcDbCircle
 10
-37.45536
 20
28.46981299999999
 40
0.5
100
AcDbArc
 50
165
 51
255
  0
ARC
  5
85
100
AcDbEntity
  8
0
  6
ByLayer
 62
  256
370
   -1
100
AcDbCircle
 10
-24.89832419999999
 20
25.1051654
 40
0.5
100
AcDbArc
 50
255
 51
345
  0
LINE
  5
86
100
AcDbEntity
  8
0
  6
ByLayer
 62
  256
370
   -1
100
AcDbLine
 10
-108.7974766
 20
56.63160119999999
 11
-96.24044079999999
 21
53.26695359999999
  0
LINE
  5
87
100
AcDbEntity
  8
0
  6
ByLayer
 62
  256
370
   -1
100
AcDbLine
 10
-112.4209432
 20
43.10863959999999
 11
-99.86390739999999
 21
39.74399199999999
  0
LINE
  5
88
100
AcDbEntity
  8
0
  6
ByLayer
 62
  256
370
   -1
100
AcDbLine
 10
-109.409849
 20
56.2780478
 11
-112.7744966
 21
43.721012
  0
LINE
  5
89
100
AcDbEntity
  8
0
  6
ByLayer
 62
  256
370
   -1
100
AcDbLine
 10
-95.88688739999999
 20
52.6545812
 11
-99.25153499999999
 21
40.0975454
  0
ARC
  5
8A
100
AcDbEntity
  8
0
  6
ByLayer
 62
  256
370
   -1
100
AcDbCircle
 10
-108.9268861
 20
56.14863829999999
 40
0.5
100
AcDbArc
 50
75
 51
165
  0
ARC
  5
8B
100
AcDbEntity
  8
0
  6
ByLayer
 62
  256
370
   -1
100
AcDbCircle
 10
-96.3698503
 20
52.78399069999999
 40
0.5
100
AcDbArc
 50
345
 51
75
  0
ARC
  5
8C
100
AcDbEntity
  8
0
  6
ByLayer
 62
  256
370
   -1
100
AcDbCircle
 10
-112.2915337
 20
43.59160249999999
 40
0.5
100
AcDbArc
 50
165
 51
255
  0
ARC
  5
8D
100
AcDbEntity
  8
0
  6
ByLayer
 62
  256
370
   -1
100
AcDbCircle
 10
-99.73449789999999
 20
40.2269549
 40
0.5
100
AcDbArc
 50
255
 51
345
  0
LINE
  5
8E
100
AcDbEntity
  8
0
  6
ByLayer
 62
  256
370
   -1
100
AcDbLine
 10
-90.3965896
 20
51.70109839999999
 11
-77.8395538
 21
48.33645079999999
  0
LINE
  5
8F
100
AcDbEntity
  8
0
  6
ByLayer
 62
  256
370
   -1
100
AcDbLine
 10
-94.0200562
 20
38.17813679999999
 11
-81.4630204
 21
34.81348919999999
  0
LINE
  5
90
100
AcDbEntity
  8
0
  6
ByLayer
 62
  256
370
   -1
100
AcDbLine
 10
-91.008962
 20
51.347545
 11
-94.37360959999999
 21
38.7905092
  0
LINE
  5
91
100
AcDbEntity
  8
0
  6
ByLayer
 62
  256
370
   -1
100
AcDbLine
 10
-77.48600039999999
 20
47.7240784
 11
-80.85064799999999
 21
35.1670426
  0
ARC
  5
92
100
AcDbEntity
  8
0
  6
ByLayer
 62
  256
370
   -1
100
AcDbCircle
 10
-90.52599909999999
 20
51.21813549999999
 40
0.5
100
AcDbArc
 50
75
 51
165
  0
ARC
  5
93
100
AcDbEntity
  8
0
  6
ByLayer
 62
  256
370
   -1
100
AcDbCircle
 10
-77.96896329999998
 20
47.85348789999999
 40
0.5
100
AcDbArc
 50
345
 51
75
  0
ARC
  5
94
100
AcDbEntity
  8
0
  6
ByLayer
 62
  256
370
   -1
100
AcDbCircle
 10
-93.89064669999999
 20
38.66109969999999
 40
0.5
100
AcDbArc
 50
165
 51
255
  0
ARC
  5
95
100
AcDbEntity
  8
0
  6
ByLayer
 62
  256
370
   -1
100
AcDbCircle
 10
-81.3336109
 20
35.2964521
 40
0.5
100
AcDbArc
 50
255
 51
345
  0
LINE
  5
96
100
AcDbEntity
  8
0
  6
ByLayer
 62
  256
370
   -1
100
AcDbLine
 10
-16.7930416
 20
31.97908709999999
 11
-4.236005799999987
 21
28.6144395
  0
LINE
  5
97
100
AcDbEntity
  8
0
  6
ByLayer
 62
  256
370
   -1
100
AcDbLine
 10
-20.4165082
 20
18.45612549999999
 11
-7.859472400000001
 21
15.09147789999999
  0
LINE
  5
98
100
AcDbEntity
  8
0
  6
ByLayer
 62
  256
370
   -1
100
AcDbLine
 10
-17.40541399999999
 20
31.62553369999999
 11
-20.77006159999999
 21
19.0684979
  0
LINE
  5
99
100
AcDbEntity
  8
0
  6
ByLayer
 62
  256
370
   -1
100
AcDbLine
 10
-3.882452400000005
 20
28.00206709999999
 11
-7.247099999999989
 21
15.4450313
  0
ARC
  5
9A
100
AcDbEntity
  8
0
  6
ByLayer
 62
  256
370
   -1
100
AcDbCircle
 10
-16.92245109999999
 20
31.4961242
 40
0.5
100
AcDbArc
 50
75
 51
165
  0
ARC
  5
9B
100
AcDbEntity
  8
0
  6
ByLayer
 62
  256
370
   -1
100
AcDbCircle
 10
-4.365415299999995
 20
28.13147659999998
 40
0.5
100
AcDbArc
 50
345
 51
75
  0
ARC
  5
9C
100
AcDbEntity
  8
0
  6
ByLayer
 62
  256
370
   -1
100
AcDbCircle
 10
-20.2870987
 20
18.9390884
 40
0.5
100
AcDbArc
 50
165
 51
255
  0
ARC
  5
9D
100
AcDbEntity
  8
0
  6
ByLayer
 62
  256
370
   -1
100
AcDbCircle
 10
-7.730062899999993
 20
15.5744408
 40
0.5
100
AcDbArc
 50
255
 51
345
  0
LINE
  5
9E
100
AcDbEntity
  8
0
  6
ByLayer
 62
  256
370
   -1
100
AcDbLine
 10
-56.06006699999999
 20
32.63964919999999
 11
-43.5030312
 21
29.2750016
  0
LINE
  5
9F
100
AcDbEntity
  8
0
  6
ByLayer
 62
  256
370
   -1
100
AcDbLine
 10
-59.68353359999999
 20
19.11668759999999
 11
-47.1264978
 21
15.75203999999999
  0
LINE
  5
A0
100
AcDbEntity
  8
0
  6
ByLayer
 62
  256
370
   -1
100
AcDbLine
 10
-56.67243939999999
 20
32.2860958
 11
-60.037087
 21
19.72906
  0
LINE
  5
A1
100
AcDbEntity
  8
0
  6
ByLayer
 62
  256
370
   -1
100
AcDbLine
 10
-43.1494778
 20
28.6626292
 11
-46.5141254
 21
16.1055934
  0
ARC
  5
A2
100
AcDbEntity
  8
0
  6
ByLayer
 62
  256
370
   -1
100
AcDbCircle
 10
-56.1894765
 20
32.15668629999999
 40
0.5
100
AcDbArc
 50
75
 51
165
  0
ARC
  5
A3
100
AcDbEntity
  8
0
  6
ByLayer
 62
  256
370
   -1
100
AcDbCircle
 10
-43.63244069999999
 20
28.79203869999999
 40
0.5
100
AcDbArc
 50
345
 51
75
  0
ARC
  5
A4
100
AcDbEntity
  8
0
  6
ByLayer
 62
  256
370
   -1
100
AcDbCircle
 10
-59.5541241
 20
19.5996505
 40
0.5
100
AcDbArc
 50
165
 51
255
  0
ARC
  5
A5
100
AcDbEntity
  8
0
  6
ByLayer
 62
  256
370
   -1
100
AcDbCircle
 10
-46.99708829999999
 20
16.2350029
 40
0.5
100
AcDbArc
 50
255
 51
345
  0
LINE
  5
A6
100
AcDbEntity
  8
0
  6
ByLayer
 62
  256
370
   -1
100
AcDbLine
 10
-75.69357969999999
 20
32.96993029999999
 11
-63.13654389999999
 21
29.6052827
  0
LINE
  5
A7
100
AcDbEntity
  8
0
  6
ByLayer
 62
  256
370
   -1
100
AcDbLine
 10
-79.31704629999999
 20
19.44696869999999
 11
-66.76001049999999
 21
16.08232109999999
  0
LINE
  5
A8
100
AcDbEntity
  8
0
  6
ByLayer
 62
  256
370
   -1
100
AcDbLine
 10
-76.30595209999998
 20
32.61637689999999
 11
-79.6705997
 21
20.0593411
  0
LINE
  5
A9
100
AcDbEntity
  8
0
  6
ByLayer
 62
  256
370
   -1
100
AcDbLine
 10
-62.7829905
 20
28.99291029999999
 11
-66.14763809999999
 21
16.4358745
  0
ARC
  5
AA
100
AcDbEntity
  8
0
  6
ByLayer
 62
  256
370
   -1
100
AcDbCircle
 10
-75.82298919999999
 20
32.4869674
 40
0.5
100
AcDbArc
 50
75
 51
165
  0
ARC
  5
AB
100
AcDbEntity
  8
0
  6
ByLayer
 62
  256
370
   -1
100
AcDbCircle
 10
-63.2659534
 20
29.12231979999999
 40
0.5
100
AcDbArc
 50
345
 51
75
  0
ARC
  5
AC
100
AcDbEntity
  8
0
  6
ByLayer
 62
  256
370
   -1
100
AcDbCircle
 10
-79.18763679999999
 20
19.9299316
 40
0.5
100
AcDbArc
 50
165
 51
255
  0
ARC
  5
AD
100
AcDbEntity
  8
0
  6
ByLayer
 62
  256
370
   -1
100
AcDbCircle
 10
-66.630601
 20
16.56528399999999
 40
0.5
100
AcDbArc
 50
255
 51
345
  0
LINE
  5
AE
100
AcDbEntity
  8
0
  6
ByLayer
 62
  256
370
   -1
100
AcDbLine
 10
-38.89180569999999
 20
23.1089247
 11
-26.3347699
 21
19.74427709999999
  0
LINE
  5
AF
100
AcDbEntity
  8
0
  6
ByLayer
 62
  256
370
   -1
100
AcDbLine
 10
-42.51527229999999
 20
9.585963099999994
 11
-29.9582365
 21
6.221315499999996
  0
LINE
  5
B0
100
AcDbEntity
  8
0
  6
ByLayer
 62
  256
370
   -1
100
AcDbLine
 10
-39.50417809999999
 20
22.75537129999999
 11
-42.86882569999999
 21
10.19833549999999
  0
LINE
  5
B1
100
AcDbEntity
  8
0
  6
ByLayer
 62
  256
370
   -1
100
AcDbLine
 10
-25.98121649999999
 20
19.13190469999999
 11
-29.3458641
 21
6.574868899999991
  0
ARC
  5
B2
100
AcDbEntity
  8
0
  6
ByLayer
 62
  256
370
   -1
100
AcDbCircle
 10
-39.0212152
 20
22.62596179999999
 40
0.5
100
AcDbArc
 50
75
 51
165
  0
ARC
  5
B3
100
AcDbEntity
  8
0
  6
ByLayer
 62
  256
370
   -1
100
AcDbCircle
 10
-26.46417939999999
 20
19.26131419999999
 40
0.5
100
AcDbArc
 50
345
 51
75
  0
ARC
  5
B4
100
AcDbEntity
  8
0
  6
ByLayer
 62
  256
370
   -1
100
AcDbCircle
 10
-42.3858628
 20
10.068926
 40
0.5
100
AcDbArc
 50
165
 51
255
  0
ARC
  5
B5
100
AcDbEntity
  8
0
  6
ByLayer
 62
  256
370
   -1
100
AcDbCircle
 10
-29.82882699999999
 20
6.704278399999993
 40
0.5
100
AcDbArc
 50
255
 51
345
  0
LINE
  5
B6
100
AcDbEntity
  8
0
  6
ByLayer
 62
  256
370
   -1
100
AcDbLine
 10
-116.0280903
 20
38.847027
 11
-103.4710545
 21
35.48237939999999
  0
LINE
  5
B7
100
AcDbEntity
  8
0
  6
ByLayer
 62
  256
370
   -1
100
AcDbLine
 10
-119.6515569
 20
25.32406539999999
 11
-107.0945211
 21
21.9594178
  0
LINE
  5
B8
100
AcDbEntity
  8
0
  6
ByLayer
 62
  256
370
   -1
100
AcDbLine
 10
-116.6404627
 20
38.49347359999999
 11
-120.0051103
 21
25.93643779999999
  0
LINE
  5
B9
100
AcDbEntity
  8
0
  6
ByLayer
 62
  256
370
   -1
100
AcDbLine
 10
-103.1175011
 20
34.87000699999999
 11
-106.4821487
 21
22.31297119999999
  0
ARC
  5
BA
100
AcDbEntity
  8
0
  6
ByLayer
 62
  256
370
   -1
100
AcDbCircle
 10
-116.1574998
 20
38.36406409999999
 40
0.5
100
AcDbArc
 50
75
 51
165
  0
ARC
  5
BB
100
AcDbEntity
  8
0
  6
ByLayer
 62
  256
370
   -1
100
AcDbCircle
 10
-103.600464
 20
34.9994165
 40
0.5
100
AcDbArc
 50
345
 51
75
  0
ARC
  5
BC
100
AcDbEntity
  8
0
  6
ByLayer
 62
  256
370
   -1
100
AcDbCircle
 10
-119.5221474
 20
25.80702829999998
 40
0.5
100
AcDbArc
 50
165
 51
255
  0
ARC
  5
BD
100
AcDbEntity
  8
0
  6
ByLayer
 62
  256
370
   -1
100
AcDbCircle
 10
-106.9651116
 20
22.44238069999999
 40
0.5
100
AcDbArc
 50
255
 51
345
  0
LINE
  5
BE
100
AcDbEntity
  8
0
  6
ByLayer
 62
  256
370
   -1
100
AcDbLine
 10
-95.3270924
 20
33.30021139999999
 11
-82.7700566
 21
29.9355638
  0
LINE
  5
BF
100
AcDbEntity
  8
0
  6
ByLayer
 62
  256
370
   -1
100
AcDbLine
 10
-98.950559
 20
19.77724979999999
 11
-86.3935232
 21
16.41260219999999
  0
LINE
  5
C0
100
AcDbEntity
  8
0
  6
ByLayer
 62
  256
370
   -1
100
AcDbLine
 10
-95.9394648
 20
32.94665799999999
 11
-99.30411239999999
 21
20.38962219999999
  0
LINE
  5
C1
100
AcDbEntity
  8
0
  6
ByLayer
 62
  256
370
   -1
100
AcDbLine
 10
-82.41650319999999
 20
29.32319139999998
 11
-85.78115079999999
 21
16.7661556
  0
ARC
  5
C2
100
AcDbEntity
  8
0
  6
ByLayer
 62
  256
370
   -1
100
AcDbCircle
 10
-95.45650189999999
 20
32.81724849999999
 40
0.5
100
AcDbArc
 50
75
 51
165
  0
ARC
  5
C3
100
AcDbEntity
  8
0
  6
ByLayer
 62
  256
370
   -1
100
AcDbCircle
 10
-82.89946609999998
 20
29.45260089999999
 40
0.5
100
AcDbArc
 50
345
 51
75
  0
ARC
  5
C4
100
AcDbEntity
  8
0
  6
ByLayer
 62
  256
370
   -1
100
AcDbCircle
 10
-98.82114949999999
 20
20.2602127
 40
0.5
100
AcDbArc
 50
165
 51
255
  0
ARC
  5
C5
100
AcDbEntity
  8
0
  6
ByLayer
 62
  256
370
   -1
100
AcDbCircle
 10
-86.2641137
 20
16.89556509999999
 40
0.5
100
AcDbArc
 50
255
 51
345
  0
LINE
  5
C6
100
AcDbEntity
  8
0
  6
ByLayer
 62
  256
370
   -1
100
AcDbLine
 10
-21.72354439999999
 20
13.5782001
 11
-9.1665086
 21
10.21355249999999
  0
LINE
  5
C7
100
AcDbEntity
  8
0
  6
ByLayer
 62
  256
370
   -1
100
AcDbLine
 10
-25.34701099999999
 20
0.05523849999998731
 11
-12.7899752
 21
-3.309409100000011
  0
LINE
  5
C8
100
AcDbEntity
  8
0
  6
ByLayer
 62
  256
370
   -1
100
AcDbLine
 10
-22.33591679999999
 20
13.22464669999999
 11
-25.70056439999999
 21
0.6676108999999997
  0
LINE
  5
C9
100
AcDbEntity
  8
0
  6
ByLayer
 62
  256
370
   -1
100
AcDbLine
 10
-8.81295519999999
 20
9.601180099999993
 11
-12.17760279999999
 21
-2.955855700000001
  0
ARC
  5
CA
100
AcDbEntity
  8
0
  6
ByLayer
 62
  256
370
   -1
100
AcDbCircle
 10
-21.85295389999999
 20
13.09523719999999
 40
0.5
100
AcDbArc
 50
75
 51
165
  0
ARC
  5
CB
100
AcDbEntity
  8
0
  6
ByLayer
 62
  256
370
   -1
100
AcDbCircle
 10
-9.295918099999994
 20
9.730589599999995
 40
0.5
100
AcDbArc
 50
345
 51
75
  0
ARC
  5
CC
100
AcDbEntity
  8
0
  6
ByLayer
 62
  256
370
   -1
100
AcDbCircle
 10
-25.2176015
 20
0.5382013999999913
 40
0.5
100
AcDbArc
 50
165
 51
255
  0
ARC
  5
CD
100
AcDbEntity
  8
0
  6
ByLayer
 62
  256
370
   -1
100
AcDbCircle
 10
-12.66056569999999
 20
-2.826446200000007
 40
0.5
100
AcDbArc
 50
255
 51
345
  0
LINE
  5
CE
100
AcDbEntity
  8
0
  6
ByLayer
 62
  256
370
   -1
100
AcDbLine
 10
-60.99056979999999
 20
14.2387623
 11
-48.43353399999999
 21
10.87411469999999
  0
LINE
  5
CF
100
AcDbEntity
  8
0
  6
ByLayer
 62
  256
370
   -1
100
AcDbLine
 10
-64.61403639999999
 20
0.7158006999999884
 11
-52.05700059999999
 21
-2.648846900000009
  0
LINE
  5
D0
100
AcDbEntity
  8
0
  6
ByLayer
 62
  256
370
   -1
100
AcDbLine
 10
-61.6029422
 20
13.88520889999999
 11
-64.9675898
 21
1.328173100000001
  0
LINE
  5
D1
100
AcDbEntity
  8
0
  6
ByLayer
 62
  256
370
   -1
100
AcDbLine
 10
-48.0799806
 20
10.26174229999999
 11
-51.4446282
 21
-2.2952935
  0
ARC
  5
D2
100
AcDbEntity
  8
0
  6
ByLayer
 62
  256
370
   -1
100
AcDbCircle
 10
-61.1199793
 20
13.75579939999999
 40
0.5
100
AcDbArc
 50
75
 51
165
  0
ARC
  5
D3
100
AcDbEntity
  8
0
  6
ByLayer
 62
  256
370
   -1
100
AcDbCircle
 10
-48.56294349999999
 20
10.3911518
 40
0.5
100
AcDbArc
 50
345
 51
75
  0
ARC
  5
D4
100
AcDbEntity
  8
0
  6
ByLayer
 62
  256
370
   -1
100
AcDbCircle
 10
-64.48462689999999
 20
1.198763599999992
 40
0.5
100
AcDbArc
 50
165
 51
255
  0
ARC
  5
D5
100
AcDbEntity
  8
0
  6
ByLayer
 62
  256
370
   -1
100
AcDbCircle
 10
-51.9275911
 20
-2.165884000000005
 40
0.5
100
AcDbArc
 50
255
 51
345
  0
LINE
  5
D6
100
AcDbEntity
  8
0
  6
ByLayer
 62
  256
370
   -1
100
AcDbLine
 10
-80.62408249999999
 20
14.5690433
 11
-68.06704669999999
 21
11.20439569999999
  0
LINE
  5
D7
100
AcDbEntity
  8
0
  6
ByLayer
 62
  256
370
   -1
100
AcDbLine
 10
-84.24754909999999
 20
1.046081699999988
 11
-71.69051329999999
 21
-2.31856590000001
  0
LINE
  5
D8
100
AcDbEntity
  8
0
  6
ByLayer
 62
  256
370
   -1
100
AcDbLine
 10
-81.23645489999998
 20
14.21548989999999
 11
-84.6011025
 21
1.6584541
  0
LINE
  5
D9
100
AcDbEntity
  8
0
  6
ByLayer
 62
  256
370
   -1
100
AcDbLine
 10
-67.7134933
 20
10.59202329999999
 11
-71.07814089999999
 21
-1.9650125
  0
ARC
  5
DA
100
AcDbEntity
  8
0
  6
ByLayer
 62
  256
370
   -1
100
AcDbCircle
 10
-80.75349199999999
 20
14.08608039999999
 40
0.5
100
AcDbArc
 50
75
 51
165
  0
ARC
  5
DB
100
AcDbEntity
  8
0
  6
ByLayer
 62
  256
370
   -1
100
AcDbCircle
 10
-68.1964562
 20
10.7214328
 40
0.5
100
AcDbArc
 50
345
 51
75
  0
ARC
  5
DC
100
AcDbEntity
  8
0
  6
ByLayer
 62
  256
370
   -1
100
AcDbCircle
 10
-84.11813959999999
 20
1.529044599999992
 40
0.5
100
AcDbArc
 50
165
 51
255
  0
ARC
  5
DD
100
AcDbEntity
  8
0
  6
ByLayer
 62
  256
370
   -1
100
AcDbCircle
 10
-71.56110379999998
 20
-1.835603000000006
 40
0.5
100
AcDbArc
 50
255
 51
345
  0
LINE
  5
DE
100
AcDbEntity
  8
0
  6
ByLayer
 62
  256
370
   -1
100
AcDbLine
 10
-43.82230849999999
 20
4.708037699999991
 11
-31.2652727
 21
1.343390099999993
  0
LINE
  5
DF
100
AcDbEntity
  8
0
  6
ByLayer
 62
  256
370
   -1
100
AcDbLine
 10
-47.44577509999999
 20
-8.814923900000011
 11
-34.8887393
 21
-12.17957150000001
  0
LINE
  5
E0
100
AcDbEntity
  8
0
  6
ByLayer
 62
  256
370
   -1
100
AcDbLine
 10
-44.43468089999999
 20
4.354484299999996
 11
-47.79932849999999
 21
-8.202551500000013
  0
LINE
  5
E1
100
AcDbEntity
  8
0
  6
ByLayer
 62
  256
370
   -1
100
AcDbLine
 10
-30.91171929999999
 20
0.7310176999999953
 11
-34.2763669
 21
-11.8260181
  0
ARC
  5
E2
100
AcDbEntity
  8
0
  6
ByLayer
 62
  256
370
   -1
100
AcDbCircle
 10
-43.951718
 20
4.225074799999987
 40
0.5
100
AcDbArc
 50
75
 51
165
  0
ARC
  5
E3
100
AcDbEntity
  8
0
  6
ByLayer
 62
  256
370
   -1
100
AcDbCircle
 10
-31.39468219999999
 20
0.8604271999999895
 40
0.5
100
AcDbArc
 50
345
 51
75
  0
ARC
  5
E4
100
AcDbEntity
  8
0
  6
ByLayer
 62
  256
370
   -1
100
AcDbCircle
 10
-47.3163656
 20
-8.331961000000007
 40
0.5
100
AcDbArc
 50
165
 51
255
  0
ARC
  5
E5
100
AcDbEntity
  8
0
  6
ByLayer
 62
  256
370
   -1
100
AcDbCircle
 10
-34.75932979999999
 20
-11.6966086
 40
0.5
100
AcDbArc
 50
255
 51
345
  0
LINE
  5
E6
100
AcDbEntity
  8
0
  6
ByLayer
 62
  256
370
   -1
100
AcDbLine
 10
-120.9585931
 20
20.44613999999999
 11
-108.4015573
 21
17.08149239999999
  0
LINE
  5
E7
100
AcDbEntity
  8
0
  6
ByLayer
 62
  256
370
   -1
100
AcDbLine
 10
-124.5820597
 20
6.923178399999998
 11
-112.0250239
 21
3.5585308
  0
LINE
  5
E8
100
AcDbEntity
  8
0
  6
ByLayer
 62
  256
370
   -1
100
AcDbLine
 10
-121.5709655
 20
20.0925866
 11
-124.9356131
 21
7.535550799999996
  0
LINE
  5
E9
100
AcDbEntity
  8
0
  6
ByLayer
 62
  256
370
   -1
100
AcDbLine
 10
-108.0480039
 20
16.46912
 11
-111.4126515
 21
3.912084199999995
  0
ARC
  5
EA
100
AcDbEntity
  8
0
  6
ByLayer
 62
  256
370
   -1
100
AcDbCircle
 10
-121.0880026
 20
19.9631771
 40
0.5
100
AcDbArc
 50
75
 51
165
  0
ARC
  5
EB
100
AcDbEntity
  8
0
  6
ByLayer
 62
  256
370
   -1
100
AcDbCircle
 10
-108.5309668
 20
16.59852949999999
 40
0.5
100
AcDbArc
 50
345
 51
75
  0
ARC
  5
EC
100
AcDbEntity
  8
0
  6
ByLayer
 62
  256
370
   -1
100
AcDbCircle
 10
-124.4526502
 20
7.406141299999994
 40
0.5
100
AcDbArc
 50
165
 51
255
  0
ARC
  5
ED
100
AcDbEntity
  8
0
  6
ByLayer
 62
  256
370
   -1
100
AcDbCircle
 10
-111.8956144
 20
4.04149369999999
 40
0.5
100
AcDbArc
 50
255
 51
345
  0
LINE
  5
EE
100
AcDbEntity
  8
0
  6
ByLayer
 62
  256
370
   -1
100
AcDbLine
 10
-100.2575952
 20
14.8993244
 11
-87.7005594
 21
11.53467679999999
  0
LINE
  5
EF
100
AcDbEntity
  8
0
  6
ByLayer
 62
  256
370
   -1
100
AcDbLine
 10
-103.8810618
 20
1.376362799999995
 11
-91.324026
 21
-1.988284800000002
  0
LINE
  5
F0
100
AcDbEntity
  8
0
  6
ByLayer
 62
  256
370
   -1
100
AcDbLine
 10
-100.8699676
 20
14.54577099999999
 11
-104.2346152
 21
1.988735199999994
  0
LINE
  5
F1
100
AcDbEntity
  8
0
  6
ByLayer
 62
  256
370
   -1
100
AcDbLine
 10
-87.34700599999999
 20
10.92230439999999
 11
-90.71165359999999
 21
-1.634731400000007
  0
ARC
  5
F2
100
AcDbEntity
  8
0
  6
ByLayer
 62
  256
370
   -1
100
AcDbCircle
 10
-100.3870047
 20
14.41636149999999
 40
0.5
100
AcDbArc
 50
75
 51
165
  0
ARC
  5
F3
100
AcDbEntity
  8
0
  6
ByLayer
 62
  256
370
   -1
100
AcDbCircle
 10
-87.8299689
 20
11.0517139
 40
0.5
100
AcDbArc
 50
345
 51
75
  0
ARC
  5
F4
100
AcDbEntity
  8
0
  6
ByLayer
 62
  256
370
   -1
100
AcDbCircle
 10
-103.7516523
 20
1.859325699999999
 40
0.5
100
AcDbArc
 50
165
 51
255
  0
ARC
  5
F5
100
AcDbEntity
  8
0
  6
ByLayer
 62
  256
370
   -1
100
AcDbCircle
 10
-91.1946165
 20
-1.505321900000013
 40
0.5
100
AcDbArc
 50
255
 51
345
  0
LINE
  5
F6
100
AcDbEntity
  8
0
  6
ByLayer
 62
  256
370
   -1
100
AcDbLine
 10
-26.65404719999999
 20
-4.822686900000008
 11
-14.0970114
 21
-8.187334500000006
  0
LINE
  5
F7
100
AcDbEntity
  8
0
  6
ByLayer
 62
  256
370
   -1
100
AcDbLine
 10
-30.27751379999999
 20
-18.34564850000001
 11
-17.720478
 21
-21.71029610000001
  0
LINE
  5
F8
100
AcDbEntity
  8
0
  6
ByLayer
 62
  256
370
   -1
100
AcDbLine
 10
-27.26641959999999
 20
-5.176240300000003
 11
-30.63106719999999
 21
-17.73327610000001
  0
LINE
  5
F9
100
AcDbEntity
  8
0
  6
ByLayer
 62
  256
370
   -1
100
AcDbLine
 10
-13.74345799999999
 20
-8.799706900000004
 11
-17.10810559999999
 21
-21.35674270000001
  0
ARC
  5
FA
100
AcDbEntity
  8
0
  6
ByLayer
 62
  256
370
   -1
100
AcDbCircle
 10
-26.78345669999999
 20
-5.305649800000012
 40
0.5
100
AcDbArc
 50
75
 51
165
  0
ARC
  5
FB
100
AcDbEntity
  8
0
  6
ByLayer
 62
  256
370
   -1
100
AcDbCircle
 10
-14.22642089999999
 20
-8.67029740000001
 40
0.5
100
AcDbArc
 50
345
 51
75
  0
ARC
  5
FC
100
AcDbEntity
  8
0
  6
ByLayer
 62
  256
370
   -1
100
AcDbCircle
 10
-30.1481043
 20
-17.86268560000001
 40
0.5
100
AcDbArc
 50
165
 51
255
  0
ARC
  5
FD
100
AcDbEntity
  8
0
  6
ByLayer
 62
  256
370
   -1
100
AcDbCircle
 10
-17.59106849999999
 20
-21.2273332
 40
0.5
100
AcDbArc
 50
255
 51
345
  0
LINE
  5
FE
100
AcDbEntity
  8
0
  6
ByLayer
 62
  256
370
   -1
100
AcDbLine
 10
-125.8890959
 20
2.045252999999988
 11
-113.3320601
 21
-1.31939460000001
  0
LINE
  5
FF
100
AcDbEntity
  8
0
  6
ByLayer
 62
  256
370
   -1
100
AcDbLine
 10
-129.5125625
 20
-11.4777086
 11
-116.9555267
 21
-14.84235620000001
  0
LINE
  5
100
100
AcDbEntity
  8
0
  6
ByLayer
 62
  256
370
   -1
100
AcDbLine
 10
-126.5014683
 20
1.691699599999993
 11
-129.8661159
 21
-10.8653362
  0
LINE
  5
101
100
AcDbEntity
  8
0
  6
ByLayer
 62
  256
370
   -1
100
AcDbLine
 10
-112.9785067
 20
-1.931767000000008
 11
-116.3431543
 21
-14.4888028
  0
ARC
  5
102
100
AcDbEntity
  8
0
  6
ByLayer
 62
  256
370
   -1
100
AcDbCircle
 10
-126.0185054
 20
1.562290099999998
 40
0.5
100
AcDbArc
 50
75
 51
165
  0
ARC
  5
103
100
AcDbEntity
  8
0
  6
ByLayer
 62
  256
370
   -1
100
AcDbCircle
 10
-113.4614696
 20
-1.802357499999999
 40
0.5
100
AcDbArc
 50
345
 51
75
  0
ARC
  5
104
100
AcDbEntity
  8
0
  6
ByLayer
 62
  256
370
   -1
100
AcDbCircle
 10
-129.383153
 20
-10.99474570000001
 40
0.5
100
AcDbArc
 50
165
 51
255
  0
ARC
  5
105
100
AcDbEntity
  8
0
  6
ByLayer
 62
  256
370
   -1
100
AcDbCircle
 10
-116.8261172
 20
-14.35939330000001
 40
0.5
100
AcDbArc
 50
255
 51
345
  0
LINE
  5
106
100
AcDbEntity
  8
0
  6
ByLayer
 62
  256
370
   -1
100
AcDbLine
 10
-102.8879871
 20
-4.117875500000011
 11
-90.3309513
 21
-7.482523100000009
  0
LINE
  5
107
100
AcDbEntity
  8
0
  6
ByLayer
 62
  256
370
   -1
100
AcDbLine
 10
-106.5114537
 20
-17.6408371
 11
-93.9544179
 21
-21.00548470000001
  0
LINE
  5
108
100
AcDbEntity
  8
0
  6
ByLayer
 62
  256
370
   -1
100
AcDbLine
 10
-103.5003595
 20
-4.471428900000006
 11
-106.8650071
 21
-17.0284647
  0
LINE
  5
109
100
AcDbEntity
  8
0
  6
ByLayer
 62
  256
370
   -1
100
AcDbLine
 10
-89.9773979
 20
-8.094895500000007
 11
-93.3420455
 21
-20.6519313
  0
ARC
  5
10A
100
AcDbEntity
  8
0
  6
ByLayer
 62
  256
370
   -1
100
AcDbCircle
 10
-103.0173966
 20
-4.600838400000001
 40
0.5
100
AcDbArc
 50
75
 51
165
  0
ARC
  5
10B
100
AcDbEntity
  8
0
  6
ByLayer
 62
  256
370
   -1
100
AcDbCircle
 10
-90.46036079999999
 20
-7.965486000000013
 40
0.5
100
AcDbArc
 50
345
 51
75
  0
ARC
  5
10C
100
AcDbEntity
  8
0
  6
ByLayer
 62
  256
370
   -1
100
AcDbCircle
 10
-106.3820442
 20
-17.15787420000001
 40
0.5
100
AcDbArc
 50
165
 51
255
  0
ARC
  5
10D
100
AcDbEntity
  8
0
  6
ByLayer
 62
  256
370
   -1
100
AcDbCircle
 10
-93.8250084
 20
-20.52252180000001
 40
0.5
100
AcDbArc
 50
255
 51
345
  0
LINE
  5
10E
100
AcDbEntity
  8
0
  6
ByLayer
 62
  256
370
   -1
100
AcDbLine
 10
-79.8868784
 20
-10.28100400000001
 11
-67.32984259999999
 21
-13.64565160000001
  0
LINE
  5
10F
100
AcDbEntity
  8
0
  6
ByLayer
 62
  256
370
   -1
100
AcDbLine
 10
-83.510345
 20
-23.80396560000001
 11
-70.95330919999999
 21
-27.16861320000001
  0
LINE
  5
110
100
AcDbEntity
  8
0
  6
ByLayer
 62
  256
370
   -1
100
AcDbLine
 10
-80.4992508
 20
-10.63455740000001
 11
-83.8638984
 21
-23.1915932
  0
LINE
  5
111
100
AcDbEntity
  8
0
  6
ByLayer
 62
  256
370
   -1
100
AcDbLine
 10
-66.9762892
 20
-14.25802400000001
 11
-70.34093679999999
 21
-26.8150598
  0
ARC
  5
112
100
AcDbEntity
  8
0
  6
ByLayer
 62
  256
370
   -1
100
AcDbCircle
 10
-80.01628789999999
 20
-10.7639669
 40
0.5
100
AcDbArc
 50
75
 51
165
  0
ARC
  5
113
100
AcDbEntity
  8
0
  6
ByLayer
 62
  256
370
   -1
100
AcDbCircle
 10
-67.4592521
 20
-14.12861450000001
 40
0.5
100
AcDbArc
 50
345
 51
75
  0
ARC
  5
114
100
AcDbEntity
  8
0
  6
ByLayer
 62
  256
370
   -1
100
AcDbCircle
 10
-83.38093549999999
 20
-23.32100270000001
 40
0.5
100
AcDbArc
 50
165
 51
255
  0
ARC
  5
115
100
AcDbEntity
  8
0
  6
ByLayer
 62
  256
370
   -1
100
AcDbCircle
 10
-70.8238997
 20
-26.68565030000001
 40
0.5
100
AcDbArc
 50
255
 51
345
  0
LINE
  5
116
100
AcDbEntity
  8
0
  6
ByLayer
 62
  256
370
   -1
100
AcDbLine
 10
-46.617841
 20
-24.12591850000001
 11
-34.06080519999999
 21
-27.49056610000001
  0
LINE
  5
117
100
AcDbEntity
  8
0
  6
ByLayer
 62
  256
370
   -1
100
AcDbLine
 10
-50.2413076
 20
-37.6488801
 11
-37.68427179999999
 21
-41.01352770000001
  0
LINE
  5
118
100
AcDbEntity
  8
0
  6
ByLayer
 62
  256
370
   -1
100
AcDbLine
 10
-47.2302134
 20
-24.47947190000001
 11
-50.59486099999999
 21
-37.0365077
  0
LINE
  5
119
100
AcDbEntity
  8
0
  6
ByLayer
 62
  256
370
   -1
100
AcDbLine
 10
-33.70725179999999
 20
-28.10293850000001
 11
-37.07189939999999
 21
-40.6599743
  0
ARC
  5
11A
100
AcDbEntity
  8
0
  6
ByLayer
 62
  256
370
   -1
100
AcDbCircle
 10
-46.74725049999999
 20
-24.6088814
 40
0.5
100
AcDbArc
 50
75
 51
165
  0
ARC
  5
11B
100
AcDbEntity
  8
0
  6
ByLayer
 62
  256
370
   -1
100
AcDbCircle
 10
-34.1902147
 20
-27.973529
 40
0.5
100
AcDbArc
 50
345
 51
75
  0
ARC
  5
11C
100
AcDbEntity
  8
0
  6
ByLayer
 62
  256
370
   -1
100
AcDbCircle
 10
-50.11189809999999
 20
-37.16591720000001
 40
0.5
100
AcDbArc
 50
165
 51
255
  0
ARC
  5
11D
100
AcDbEntity
  8
0
  6
ByLayer
 62
  256
370
   -1
100
AcDbCircle
 10
-37.5548623
 20
-40.53056480000001
 40
0.5
100
AcDbArc
 50
255
 51
345
  0
LINE
  5
11E
100
AcDbEntity
  8
0
  6
ByLayer
 62
  256
370
   -1
100
AcDbLine
 10
38.57252840000001
 20
47.67588859999999
 11
51.1295642
 21
51.04053619999999
  0
LINE
  5
11F
100
AcDbEntity
  8
0
  6
ByLayer
 62
  256
370
   -1
100
AcDbLine
 10
42.19599500000001
 20
34.15292699999999
 11
54.7530308
 21
37.51757459999999
  0
LINE
  5
120
100
AcDbEntity
  8
0
  6
ByLayer
 62
  256
370
   -1
100
AcDbLine
 10
38.218975
 20
47.0635162
 11
41.58362260000001
 21
34.50648039999999
  0
LINE
  5
121
100
AcDbEntity
  8
0
  6
ByLayer
 62
  256
370
   -1
100
AcDbLine
 10
51.7419366
 20
50.6869828
 11
55.10658420000001
 21
38.12994699999999
  0
ARC
  5
122
100
AcDbEntity
  8
0
  6
ByLayer
 62
  256
370
   -1
100
AcDbCircle
 10
38.70193790000002
 20
47.19292569999999
 40
0.5
100
AcDbArc
 50
105
 51
195
  0
ARC
  5
123
100
AcDbEntity
  8
0
  6
ByLayer
 62
  256
370
   -1
100
AcDbCircle
 10
51.25897370000001
 20
50.5575733
 40
0.5
100
AcDbArc
 50
15
 51
105
  0
ARC
  5
124
100
AcDbEntity
  8
0
  6
ByLayer
 62
  256
370
   -1
100
AcDbCircle
 10
42.0665855
 20
34.6358899
 40
0.5
100
AcDbArc
 50
195
 51
285
  0
ARC
  5
125
100
AcDbEntity
  8
0
  6
ByLayer
 62
  256
370
   -1
100
AcDbCircle
 10
54.6236213
 20
38.00053749999999
 40
0.5
100
AcDbArc
 50
285
 51
15
  0
LINE
  5
126
100
AcDbEntity
  8
0
  6
ByLayer
 62
  256
370
   -1
100
AcDbLine
 10
21.4042671
 20
38.14516409999999
 11
33.96130289999999
 21
41.5098117
  0
LINE
  5
127
100
AcDbEntity
  8
0
  6
ByLayer
 62
  256
370
   -1
100
AcDbLine
 10
25.0277337
 20
24.62220249999999
 11
37.58476949999999
 21
27.9868501
  0
LINE
  5
128
100
AcDbEntity
  8
0
  6
ByLayer
 62
  256
370
   -1
100
AcDbLine
 10
21.05071370000002
 20
37.53279169999999
 11
24.4153613
 21
24.9757559
  0
LINE
  5
129
100
AcDbEntity
  8
0
  6
ByLayer
 62
  256
370
   -1
100
AcDbLine
 10
34.57367530000002
 20
41.15625829999999
 11
37.9383229
 21
28.5992225
  0
ARC
  5
12A
100
AcDbEntity
  8
0
  6
ByLayer
 62
  256
370
   -1
100
AcDbCircle
 10
21.53367660000001
 20
37.6622012
 40
0.5
100
AcDbArc
 50
105
 51
195
  0
ARC
  5
12B
100
AcDbEntity
  8
0
  6
ByLayer
 62
  256
370
   -1
100
AcDbCircle
 10
34.0907124
 20
41.0268488
 40
0.5
100
AcDbArc
 50
15
 51
105
  0
ARC
  5
12C
100
AcDbEntity
  8
0
  6
ByLayer
 62
  256
370
   -1
100
AcDbCircle
 10
24.89832420000002
 20
25.1051654
 40
0.5
100
AcDbArc
 50
195
 51
285
  0
ARC
  5
12D
100
AcDbEntity
  8
0
  6
ByLayer
 62
  256
370
   -1
100
AcDbCircle
 10
37.45536000000001
 20
28.46981299999999
 40
0.5
100
AcDbArc
 50
285
 51
15
  0
LINE
  5
12E
100
AcDbEntity
  8
0
  6
ByLayer
 62
  256
370
   -1
100
AcDbLine
 10
58.20604109999999
 20
48.00616969999999
 11
70.76307690000002
 21
51.3708173
  0
LINE
  5
12F
100
AcDbEntity
  8
0
  6
ByLayer
 62
  256
370
   -1
100
AcDbLine
 10
61.82950769999999
 20
34.48320809999998
 11
74.38654350000002
 21
37.8478557
  0
LINE
  5
130
100
AcDbEntity
  8
0
  6
ByLayer
 62
  256
370
   -1
100
AcDbLine
 10
57.85248770000001
 20
47.39379729999999
 11
61.2171353
 21
34.83676149999999
  0
LINE
  5
131
100
AcDbEntity
  8
0
  6
ByLayer
 62
  256
370
   -1
100
AcDbLine
 10
71.37544930000001
 20
51.01726389999999
 11
74.7400969
 21
38.46022809999999
  0
ARC
  5
132
100
AcDbEntity
  8
0
  6
ByLayer
 62
  256
370
   -1
100
AcDbCircle
 10
58.3354506
 20
47.5232068
 40
0.5
100
AcDbArc
 50
105
 51
195
  0
ARC
  5
133
100
AcDbEntity
  8
0
  6
ByLayer
 62
  256
370
   -1
100
AcDbCircle
 10
70.8924864
 20
50.88785439999999
 40
0.5
100
AcDbArc
 50
15
 51
105
  0
ARC
  5
134
100
AcDbEntity
  8
0
  6
ByLayer
 62
  256
370
   -1
100
AcDbCircle
 10
61.70009820000001
 20
34.966171
 40
0.5
100
AcDbArc
 50
195
 51
285
  0
ARC
  5
135
100
AcDbEntity
  8
0
  6
ByLayer
 62
  256
370
   -1
100
AcDbCircle
 10
74.25713400000001
 20
38.33081859999999
 40
0.5
100
AcDbArc
 50
285
 51
15
  0
LINE
  5
136
100
AcDbEntity
  8
0
  6
ByLayer
 62
  256
370
   -1
100
AcDbLine
 10
4.236005800000015
 20
28.6144395
 11
16.79304160000001
 21
31.97908709999999
  0
LINE
  5
137
100
AcDbEntity
  8
0
  6
ByLayer
 62
  256
370
   -1
100
AcDbLine
 10
7.859472400000016
 20
15.09147789999999
 11
20.41650820000001
 21
18.45612549999999
  0
LINE
  5
138
100
AcDbEntity
  8
0
  6
ByLayer
 62
  256
370
   -1
100
AcDbLine
 10
3.882452400000005
 20
28.00206709999999
 11
7.247100000000017
 21
15.4450313
  0
LINE
  5
139
100
AcDbEntity
  8
0
  6
ByLayer
 62
  256
370
   -1
100
AcDbLine
 10
17.40541400000001
 20
31.62553369999999
 11
20.77006160000002
 21
19.0684979
  0
ARC
  5
13A
100
AcDbEntity
  8
0
  6
ByLayer
 62
  256
370
   -1
100
AcDbCircle
 10
4.365415299999995
 20
28.13147659999998
 40
0.5
100
AcDbArc
 50
105
 51
195
  0
ARC
  5
13B
100
AcDbEntity
  8
0
  6
ByLayer
 62
  256
370
   -1
100
AcDbCircle
 10
16.92245110000002
 20
31.4961242
 40
0.5
100
AcDbArc
 50
15
 51
105
  0
ARC
  5
13C
100
AcDbEntity
  8
0
  6
ByLayer
 62
  256
370
   -1
100
AcDbCircle
 10
7.730062900000007
 20
15.5744408
 40
0.5
100
AcDbArc
 50
195
 51
285
  0
ARC
  5
13D
100
AcDbEntity
  8
0
  6
ByLayer
 62
  256
370
   -1
100
AcDbCircle
 10
20.2870987
 20
18.9390884
 40
0.5
100
AcDbArc
 50
285
 51
15
  0
LINE
  5
13E
100
AcDbEntity
  8
0
  6
ByLayer
 62
  256
370
   -1
100
AcDbLine
 10
77.8395538
 20
48.33645079999999
 11
90.3965896
 21
51.70109839999999
  0
LINE
  5
13F
100
AcDbEntity
  8
0
  6
ByLayer
 62
  256
370
   -1
100
AcDbLine
 10
81.4630204
 20
34.81348919999999
 11
94.0200562
 21
38.17813679999999
  0
LINE
  5
140
100
AcDbEntity
  8
0
  6
ByLayer
 62
  256
370
   -1
100
AcDbLine
 10
77.48600039999999
 20
47.7240784
 11
80.85064800000001
 21
35.1670426
  0
LINE
  5
141
100
AcDbEntity
  8
0
  6
ByLayer
 62
  256
370
   -1
100
AcDbLine
 10
91.008962
 20
51.347545
 11
94.37360960000001
 21
38.7905092
  0
ARC
  5
142
100
AcDbEntity
  8
0
  6
ByLayer
 62
  256
370
   -1
100
AcDbCircle
 10
77.96896330000001
 20
47.85348789999999
 40
0.5
100
AcDbArc
 50
105
 51
195
  0
ARC
  5
143
100
AcDbEntity
  8
0
  6
ByLayer
 62
  256
370
   -1
100
AcDbCircle
 10
90.52599910000001
 20
51.21813549999999
 40
0.5
100
AcDbArc
 50
15
 51
105
  0
ARC
  5
144
100
AcDbEntity
  8
0
  6
ByLayer
 62
  256
370
   -1
100
AcDbCircle
 10
81.3336109
 20
35.2964521
 40
0.5
100
AcDbArc
 50
195
 51
285
  0
ARC
  5
145
100
AcDbEntity
  8
0
  6
ByLayer
 62
  256
370
   -1
100
AcDbCircle
 10
93.89064670000002
 20
38.66109969999999
 40
0.5
100
AcDbArc
 50
285
 51
15
  0
LINE
  5
146
100
AcDbEntity
  8
0
  6
ByLayer
 62
  256
370
   -1
100
AcDbLine
 10
96.24044080000002
 20
53.26695359999999
 11
108.7974766
 21
56.63160119999999
  0
LINE
  5
147
100
AcDbEntity
  8
0
  6
ByLayer
 62
  256
370
   -1
100
AcDbLine
 10
99.86390740000002
 20
39.74399199999999
 11
112.4209432
 21
43.10863959999999
  0
LINE
  5
148
100
AcDbEntity
  8
0
  6
ByLayer
 62
  256
370
   -1
100
AcDbLine
 10
95.88688740000001
 20
52.6545812
 11
99.25153500000002
 21
40.0975454
  0
LINE
  5
149
100
AcDbEntity
  8
0
  6
ByLayer
 62
  256
370
   -1
100
AcDbLine
 10
109.409849
 20
56.2780478
 11
112.7744966
 21
43.721012
  0
ARC
  5
14A
100
AcDbEntity
  8
0
  6
ByLayer
 62
  256
370
   -1
100
AcDbCircle
 10
96.3698503
 20
52.78399069999999
 40
0.5
100
AcDbArc
 50
105
 51
195
  0
ARC
  5
14B
100
AcDbEntity
  8
0
  6
ByLayer
 62
  256
370
   -1
100
AcDbCircle
 10
108.9268861
 20
56.14863829999999
 40
0.5
100
AcDbArc
 50
15
 51
105
  0
ARC
  5
14C
100
AcDbEntity
  8
0
  6
ByLayer
 62
  256
370
   -1
100
AcDbCircle
 10
99.73449790000001
 20
40.2269549
 40
0.5
100
AcDbArc
 50
195
 51
285
  0
ARC
  5
14D
100
AcDbEntity
  8
0
  6
ByLayer
 62
  256
370
   -1
100
AcDbCircle
 10
112.2915337
 20
43.59160249999999
 40
0.5
100
AcDbArc
 50
285
 51
15
  0
LINE
  5
14E
100
AcDbEntity
  8
0
  6
ByLayer
 62
  256
370
   -1
100
AcDbLine
 10
43.50303120000001
 20
29.2750016
 11
56.060067
 21
32.63964919999999
  0
LINE
  5
14F
100
AcDbEntity
  8
0
  6
ByLayer
 62
  256
370
   -1
100
AcDbLine
 10
47.12649780000001
 20
15.75203999999999
 11
59.6835336
 21
19.11668759999999
  0
LINE
  5
150
100
AcDbEntity
  8
0
  6
ByLayer
 62
  256
370
   -1
100
AcDbLine
 10
43.1494778
 20
28.6626292
 11
46.51412540000001
 21
16.1055934
  0
LINE
  5
151
100
AcDbEntity
  8
0
  6
ByLayer
 62
  256
370
   -1
100
AcDbLine
 10
56.6724394
 20
32.2860958
 11
60.03708700000001
 21
19.72906
  0
ARC
  5
152
100
AcDbEntity
  8
0
  6
ByLayer
 62
  256
370
   -1
100
AcDbCircle
 10
43.63244070000002
 20
28.79203869999999
 40
0.5
100
AcDbArc
 50
105
 51
195
  0
ARC
  5
153
100
AcDbEntity
  8
0
  6
ByLayer
 62
  256
370
   -1
100
AcDbCircle
 10
56.18947650000001
 20
32.15668629999999
 40
0.5
100
AcDbArc
 50
15
 51
105
  0
ARC
  5
154
100
AcDbEntity
  8
0
  6
ByLayer
 62
  256
370
   -1
100
AcDbCircle
 10
46.9970883
 20
16.2350029
 40
0.5
100
AcDbArc
 50
195
 51
285
  0
ARC
  5
155
100
AcDbEntity
  8
0
  6
ByLayer
 62
  256
370
   -1
100
AcDbCircle
 10
59.5541241
 20
19.5996505
 40
0.5
100
AcDbArc
 50
285
 51
15
  0
LINE
  5
156
100
AcDbEntity
  8
0
  6
ByLayer
 62
  256
370
   -1
100
AcDbLine
 10
26.3347699
 20
19.74427709999999
 11
38.89180569999999
 21
23.1089247
  0
LINE
  5
157
100
AcDbEntity
  8
0
  6
ByLayer
 62
  256
370
   -1
100
AcDbLine
 10
29.9582365
 20
6.221315499999996
 11
42.51527229999999
 21
9.585963099999994
  0
LINE
  5
158
100
AcDbEntity
  8
0
  6
ByLayer
 62
  256
370
   -1
100
AcDbLine
 10
25.98121650000002
 20
19.13190469999999
 11
29.3458641
 21
6.574868899999991
  0
LINE
  5
159
100
AcDbEntity
  8
0
  6
ByLayer
 62
  256
370
   -1
100
AcDbLine
 10
39.50417810000002
 20
22.75537129999999
 11
42.8688257
 21
10.19833549999999
  0
ARC
  5
15A
100
AcDbEntity
  8
0
  6
ByLayer
 62
  256
370
   -1
100
AcDbCircle
 10
26.46417940000001
 20
19.26131419999999
 40
0.5
100
AcDbArc
 50
105
 51
195
  0
ARC
  5
15B
100
AcDbEntity
  8
0
  6
ByLayer
 62
  256
370
   -1
100
AcDbCircle
 10
39.0212152
 20
22.62596179999999
 40
0.5
100
AcDbArc
 50
15
 51
105
  0
ARC
  5
15C
100
AcDbEntity
  8
0
  6
ByLayer
 62
  256
370
   -1
100
AcDbCircle
 10
29.82882700000002
 20
6.704278399999993
 40
0.5
100
AcDbArc
 50
195
 51
285
  0
ARC
  5
15D
100
AcDbEntity
  8
0
  6
ByLayer
 62
  256
370
   -1
100
AcDbCircle
 10
42.38586280000001
 20
10.068926
 40
0.5
100
AcDbArc
 50
285
 51
15
  0
LINE
  5
15E
100
AcDbEntity
  8
0
  6
ByLayer
 62
  256
370
   -1
100
AcDbLine
 10
63.13654389999999
 20
29.6052827
 11
75.69357970000002
 21
32.96993029999999
  0
LINE
  5
15F
100
AcDbEntity
  8
0
  6
ByLayer
 62
  256
370
   -1
100
AcDbLine
 10
66.76001049999999
 20
16.08232109999999
 11
79.31704630000002
 21
19.44696869999999
  0
LINE
  5
160
100
AcDbEntity
  8
0
  6
ByLayer
 62
  256
370
   -1
100
AcDbLine
 10
62.78299050000001
 20
28.99291029999999
 11
66.14763809999999
 21
16.4358745
  0
LINE
  5
161
100
AcDbEntity
  8
0
  6
ByLayer
 62
  256
370
   -1
100
AcDbLine
 10
76.30595210000001
 20
32.61637689999999
 11
79.6705997
 21
20.0593411
  0
ARC
  5
162
100
AcDbEntity
  8
0
  6
ByLayer
 62
  256
370
   -1
100
AcDbCircle
 10
63.2659534
 20
29.12231979999999
 40
0.5
100
AcDbArc
 50
105
 51
195
  0
ARC
  5
163
100
AcDbEntity
  8
0
  6
ByLayer
 62
  256
370
   -1
100
AcDbCircle
 10
75.82298919999999
 20
32.4869674
 40
0.5
100
AcDbArc
 50
15
 51
105
  0
ARC
  5
164
100
AcDbEntity
  8
0
  6
ByLayer
 62
  256
370
   -1
100
AcDbCircle
 10
66.63060100000001
 20
16.56528399999999
 40
0.5
100
AcDbArc
 50
195
 51
285
  0
ARC
  5
165
100
AcDbEntity
  8
0
  6
ByLayer
 62
  256
370
   -1
100
AcDbCircle
 10
79.18763680000001
 20
19.9299316
 40
0.5
100
AcDbArc
 50
285
 51
15
  0
LINE
  5
166
100
AcDbEntity
  8
0
  6
ByLayer
 62
  256
370
   -1
100
AcDbLine
 10
9.166508600000014
 20
10.21355249999999
 11
21.72354440000001
 21
13.5782001
  0
LINE
  5
167
100
AcDbEntity
  8
0
  6
ByLayer
 62
  256
370
   -1
100
AcDbLine
 10
12.78997520000001
 20
-3.309409100000011
 11
25.34701100000001
 21
0.05523849999998731
  0
LINE
  5
168
100
AcDbEntity
  8
0
  6
ByLayer
 62
  256
370
   -1
100
AcDbLine
 10
8.812955200000005
 20
9.601180099999993
 11
12.17760280000002
 21
-2.955855700000001
  0
LINE
  5
169
100
AcDbEntity
  8
0
  6
ByLayer
 62
  256
370
   -1
100
AcDbLine
 10
22.33591680000001
 20
13.22464669999999
 11
25.70056440000002
 21
0.6676108999999997
  0
ARC
  5
16A
100
AcDbEntity
  8
0
  6
ByLayer
 62
  256
370
   -1
100
AcDbCircle
 10
9.295918099999994
 20
9.730589599999995
 40
0.5
100
AcDbArc
 50
105
 51
195
  0
ARC
  5
16B
100
AcDbEntity
  8
0
  6
ByLayer
 62
  256
370
   -1
100
AcDbCircle
 10
21.85295390000002
 20
13.09523719999999
 40
0.5
100
AcDbArc
 50
15
 51
105
  0
ARC
  5
16C
100
AcDbEntity
  8
0
  6
ByLayer
 62
  256
370
   -1
100
AcDbCircle
 10
12.66056570000001
 20
-2.826446200000007
 40
0.5
100
AcDbArc
 50
195
 51
285
  0
ARC
  5
16D
100
AcDbEntity
  8
0
  6
ByLayer
 62
  256
370
   -1
100
AcDbCircle
 10
25.2176015
 20
0.5382013999999913
 40
0.5
100
AcDbArc
 50
285
 51
15
  0
LINE
  5
16E
100
AcDbEntity
  8
0
  6
ByLayer
 62
  256
370
   -1
100
AcDbLine
 10
82.7700566
 20
29.9355638
 11
95.3270924
 21
33.30021139999999
  0
LINE
  5
16F
100
AcDbEntity
  8
0
  6
ByLayer
 62
  256
370
   -1
100
AcDbLine
 10
86.3935232
 20
16.41260219999999
 11
98.950559
 21
19.77724979999999
  0
LINE
  5
170
100
AcDbEntity
  8
0
  6
ByLayer
 62
  256
370
   -1
100
AcDbLine
 10
82.41650319999999
 20
29.32319139999998
 11
85.78115080000001
 21
16.7661556
  0
LINE
  5
171
100
AcDbEntity
  8
0
  6
ByLayer
 62
  256
370
   -1
100
AcDbLine
 10
95.9394648
 20
32.94665799999999
 11
99.30411240000001
 21
20.38962219999999
  0
ARC
  5
172
100
AcDbEntity
  8
0
  6
ByLayer
 62
  256
370
   -1
100
AcDbCircle
 10
82.89946610000001
 20
29.45260089999999
 40
0.5
100
AcDbArc
 50
105
 51
195
  0
ARC
  5
173
100
AcDbEntity
  8
0
  6
ByLayer
 62
  256
370
   -1
100
AcDbCircle
 10
95.45650190000001
 20
32.81724849999999
 40
0.5
100
AcDbArc
 50
15
 51
105
  0
ARC
  5
174
100
AcDbEntity
  8
0
  6
ByLayer
 62
  256
370
   -1
100
AcDbCircle
 10
86.2641137
 20
16.89556509999999
 40
0.5
100
AcDbArc
 50
195
 51
285
  0
ARC
  5
175
100
AcDbEntity
  8
0
  6
ByLayer
 62
  256
370
   -1
100
AcDbCircle
 10
98.82114950000002
 20
20.2602127
 40
0.5
100
AcDbArc
 50
285
 51
15
  0
LINE
  5
176
100
AcDbEntity
  8
0
  6
ByLayer
 62
  256
370
   -1
100
AcDbLine
 10
103.4710545
 20
35.48237939999999
 11
116.0280903
 21
38.847027
  0
LINE
  5
177
100
AcDbEntity
  8
0
  6
ByLayer
 62
  256
370
   -1
100
AcDbLine
 10
107.0945211
 20
21.9594178
 11
119.6515569
 21
25.32406539999999
  0
LINE
  5
178
100
AcDbEntity
  8
0
  6
ByLayer
 62
  256
370
   -1
100
AcDbLine
 10
103.1175011
 20
34.87000699999999
 11
106.4821487
 21
22.31297119999999
  0
LINE
  5
179
100
AcDbEntity
  8
0
  6
ByLayer
 62
  256
370
   -1
100
AcDbLine
 10
116.6404627
 20
38.49347359999999
 11
120.0051103
 21
25.93643779999999
  0
ARC
  5
17A
100
AcDbEntity
  8
0
  6
ByLayer
 62
  256
370
   -1
100
AcDbCircle
 10
103.600464
 20
34.9994165
 40
0.5
100
AcDbArc
 50
105
 51
195
  0
ARC
  5
17B
100
AcDbEntity
  8
0
  6
ByLayer
 62
  256
370
   -1
100
AcDbCircle
 10
116.1574998
 20
38.36406409999999
 40
0.5
100
AcDbArc
 50
15
 51
105
  0
ARC
  5
17C
100
AcDbEntity
  8
0
  6
ByLayer
 62
  256
370
   -1
100
AcDbCircle
 10
106.9651116
 20
22.44238069999999
 40
0.5
100
AcDbArc
 50
195
 51
285
  0
ARC
  5
17D
100
AcDbEntity
  8
0
  6
ByLayer
 62
  256
370
   -1
100
AcDbCircle
 10
119.5221474
 20
25.80702829999998
 40
0.5
100
AcDbArc
 50
285
 51
15
  0
LINE
  5
17E
100
AcDbEntity
  8
0
  6
ByLayer
 62
  256
370
   -1
100
AcDbLine
 10
48.43353400000001
 20
10.87411469999999
 11
60.9905698
 21
14.2387623
  0
LINE
  5
17F
100
AcDbEntity
  8
0
  6
ByLayer
 62
  256
370
   -1
100
AcDbLine
 10
52.05700060000001
 20
-2.648846900000009
 11
64.6140364
 21
0.7158006999999884
  0
LINE
  5
180
100
AcDbEntity
  8
0
  6
ByLayer
 62
  256
370
   -1
100
AcDbLine
 10
48.0799806
 20
10.26174229999999
 11
51.44462820000001
 21
-2.2952935
  0
LINE
  5
181
100
AcDbEntity
  8
0
  6
ByLayer
 62
  256
370
   -1
100
AcDbLine
 10
61.6029422
 20
13.88520889999999
 11
64.96758980000001
 21
1.328173100000001
  0
ARC
  5
182
100
AcDbEntity
  8
0
  6
ByLayer
 62
  256
370
   -1
100
AcDbCircle
 10
48.56294350000002
 20
10.3911518
 40
0.5
100
AcDbArc
 50
105
 51
195
  0
ARC
  5
183
100
AcDbEntity
  8
0
  6
ByLayer
 62
  256
370
   -1
100
AcDbCircle
 10
61.11997930000001
 20
13.75579939999999
 40
0.5
100
AcDbArc
 50
15
 51
105
  0
ARC
  5
184
100
AcDbEntity
  8
0
  6
ByLayer
 62
  256
370
   -1
100
AcDbCircle
 10
51.9275911
 20
-2.165884000000005
 40
0.5
100
AcDbArc
 50
195
 51
285
  0
ARC
  5
185
100
AcDbEntity
  8
0
  6
ByLayer
 62
  256
370
   -1
100
AcDbCircle
 10
64.48462689999999
 20
1.198763599999992
 40
0.5
100
AcDbArc
 50
285
 51
15
  0
LINE
  5
186
100
AcDbEntity
  8
0
  6
ByLayer
 62
  256
370
   -1
100
AcDbLine
 10
31.2652727
 20
1.343390099999993
 11
43.82230850000002
 21
4.708037699999991
  0
LINE
  5
187
100
AcDbEntity
  8
0
  6
ByLayer
 62
  256
370
   -1
100
AcDbLine
 10
34.8887393
 20
-12.17957150000001
 11
47.44577509999999
 21
-8.814923900000011
  0
LINE
  5
188
100
AcDbEntity
  8
0
  6
ByLayer
 62
  256
370
   -1
100
AcDbLine
 10
30.91171930000002
 20
0.7310176999999953
 11
34.2763669
 21
-11.8260181
  0
LINE
  5
189
100
AcDbEntity
  8
0
  6
ByLayer
 62
  256
370
   -1
100
AcDbLine
 10
44.43468090000002
 20
4.354484299999996
 11
47.7993285
 21
-8.202551500000013
  0
ARC
  5
18A
100
AcDbEntity
  8
0
  6
ByLayer
 62
  256
370
   -1
100
AcDbCircle
 10
31.39468220000001
 20
0.8604271999999895
 40
0.5
100
AcDbArc
 50
105
 51
195
  0
ARC
  5
18B
100
AcDbEntity
  8
0
  6
ByLayer
 62
  256
370
   -1
100
AcDbCircle
 10
43.951718
 20
4.225074799999987
 40
0.5
100
AcDbArc
 50
15
 51
105
  0
ARC
  5
18C
100
AcDbEntity
  8
0
  6
ByLayer
 62
  256
370
   -1
100
AcDbCircle
 10
34.75932980000002
 20
-11.6966086
 40
0.5
100
AcDbArc
 50
195
 51
285
  0
ARC
  5
18D
100
AcDbEntity
  8
0
  6
ByLayer
 62
  256
370
   -1
100
AcDbCircle
 10
47.31636560000001
 20
-8.331961000000007
 40
0.5
100
AcDbArc
 50
285
 51
15
  0
LINE
  5
18E
100
AcDbEntity
  8
0
  6
ByLayer
 62
  256
370
   -1
100
AcDbLine
 10
68.06704669999999
 20
11.20439569999999
 11
80.62408250000001
 21
14.5690433
  0
LINE
  5
18F
100
AcDbEntity
  8
0
  6
ByLayer
 62
  256
370
   -1
100
AcDbLine
 10
71.69051329999999
 20
-2.31856590000001
 11
84.24754910000001
 21
1.046081699999988
  0
LINE
  5
190
100
AcDbEntity
  8
0
  6
ByLayer
 62
  256
370
   -1
100
AcDbLine
 10
67.71349330000001
 20
10.59202329999999
 11
71.07814089999999
 21
-1.9650125
  0
LINE
  5
191
100
AcDbEntity
  8
0
  6
ByLayer
 62
  256
370
   -1
100
AcDbLine
 10
81.23645490000001
 20
14.21548989999999
 11
84.6011025
 21
1.6584541
  0
ARC
  5
192
100
AcDbEntity
  8
0
  6
ByLayer
 62
  256
370
   -1
100
AcDbCircle
 10
68.1964562
 20
10.7214328
 40
0.5
100
AcDbArc
 50
105
 51
195
  0
ARC
  5
193
100
AcDbEntity
  8
0
  6
ByLayer
 62
  256
370
   -1
100
AcDbCircle
 10
80.75349199999999
 20
14.08608039999999
 40
0.5
100
AcDbArc
 50
15
 51
105
  0
ARC
  5
194
100
AcDbEntity
  8
0
  6
ByLayer
 62
  256
370
   -1
100
AcDbCircle
 10
71.56110380000001
 20
-1.835603000000006
 40
0.5
100
AcDbArc
 50
195
 51
285
  0
ARC
  5
195
100
AcDbEntity
  8
0
  6
ByLayer
 62
  256
370
   -1
100
AcDbCircle
 10
84.11813960000001
 20
1.529044599999992
 40
0.5
100
AcDbArc
 50
285
 51
15
  0
LINE
  5
196
100
AcDbEntity
  8
0
  6
ByLayer
 62
  256
370
   -1
100
AcDbLine
 10
14.09701140000001
 20
-8.187334500000006
 11
26.65404720000001
 21
-4.822686900000008
  0
LINE
  5
197
100
AcDbEntity
  8
0
  6
ByLayer
 62
  256
370
   -1
100
AcDbLine
 10
17.72047800000001
 20
-21.71029610000001
 11
30.27751380000001
 21
-18.34564850000001
  0
LINE
  5
198
100
AcDbEntity
  8
0
  6
ByLayer
 62
  256
370
   -1
100
AcDbLine
 10
13.743458
 20
-8.799706900000004
 11
17.10810560000002
 21
-21.35674270000001
  0
LINE
  5
199
100
AcDbEntity
  8
0
  6
ByLayer
 62
  256
370
   -1
100
AcDbLine
 10
27.26641960000001
 20
-5.176240300000003
 11
30.63106720000002
 21
-17.73327610000001
  0
ARC
  5
19A
100
AcDbEntity
  8
0
  6
ByLayer
 62
  256
370
   -1
100
AcDbCircle
 10
14.22642089999999
 20
-8.67029740000001
 40
0.5
100
AcDbArc
 50
105
 51
195
  0
ARC
  5
19B
100
AcDbEntity
  8
0
  6
ByLayer
 62
  256
370
   -1
100
AcDbCircle
 10
26.78345670000002
 20
-5.305649800000012
 40
0.5
100
AcDbArc
 50
15
 51
105
  0
ARC
  5
19C
100
AcDbEntity
  8
0
  6
ByLayer
 62
  256
370
   -1
100
AcDbCircle
 10
17.59106850000001
 20
-21.2273332
 40
0.5
100
AcDbArc
 50
195
 51
285
  0
ARC
  5
19D
100
AcDbEntity
  8
0
  6
ByLayer
 62
  256
370
   -1
100
AcDbCircle
 10
30.1481043
 20
-17.86268560000001
 40
0.5
100
AcDbArc
 50
285
 51
15
  0
LINE
  5
19E
100
AcDbEntity
  8
0
  6
ByLayer
 62
  256
370
   -1
100
AcDbLine
 10
87.7005594
 20
11.53467679999999
 11
100.2575952
 21
14.8993244
  0
LINE
  5
19F
100
AcDbEntity
  8
0
  6
ByLayer
 62
  256
370
   -1
100
AcDbLine
 10
91.324026
 20
-1.988284800000002
 11
103.8810618
 21
1.376362799999995
  0
LINE
  5
1A0
100
AcDbEntity
  8
0
  6
ByLayer
 62
  256
370
   -1
100
AcDbLine
 10
87.34700599999999
 20
10.92230439999999
 11
90.71165360000001
 21
-1.634731400000007
  0
LINE
  5
1A1
100
AcDbEntity
  8
0
  6
ByLayer
 62
  256
370
   -1
100
AcDbLine
 10
100.8699676
 20
14.54577099999999
 11
104.2346152
 21
1.988735199999994
  0
ARC
  5
1A2
100
AcDbEntity
  8
0
  6
ByLayer
 62
  256
370
   -1
100
AcDbCircle
 10
87.82996890000001
 20
11.0517139
 40
0.5
100
AcDbArc
 50
105
 51
195
  0
ARC
  5
1A3
100
AcDbEntity
  8
0
  6
ByLayer
 62
  256
370
   -1
100
AcDbCircle
 10
100.3870047
 20
14.41636149999999
 40
0.5
100
AcDbArc
 50
15
 51
105
  0
ARC
  5
1A4
100
AcDbEntity
  8
0
  6
ByLayer
 62
  256
370
   -1
100
AcDbCircle
 10
91.1946165
 20
-1.505321900000013
 40
0.5
100
AcDbArc
 50
195
 51
285
  0
ARC
  5
1A5
100
AcDbEntity
  8
0
  6
ByLayer
 62
  256
370
   -1
100
AcDbCircle
 10
103.7516523
 20
1.859325699999999
 40
0.5
100
AcDbArc
 50
285
 51
15
  0
LINE
  5
1A6
100
AcDbEntity
  8
0
  6
ByLayer
 62
  256
370
   -1
100
AcDbLine
 10
108.4015573
 20
17.08149239999999
 11
120.9585931
 21
20.44613999999999
  0
LINE
  5
1A7
100
AcDbEntity
  8
0
  6
ByLayer
 62
  256
370
   -1
100
AcDbLine
 10
112.0250239
 20
3.5585308
 11
124.5820597
 21
6.923178399999998
  0
LINE
  5
1A8
100
AcDbEntity
  8
0
  6
ByLayer
 62
  256
370
   -1
100
AcDbLine
 10
108.0480039
 20
16.46912
 11
111.4126515
 21
3.912084199999995
  0
LINE
  5
1A9
100
AcDbEntity
  8
0
  6
ByLayer
 62
  256
370
   -1
100
AcDbLine
 10
121.5709655
 20
20.0925866
 11
124.9356131
 21
7.535550799999996
  0
ARC
  5
1AA
100
AcDbEntity
  8
0
  6
ByLayer
 62
  256
370
   -1
100
AcDbCircle
 10
108.5309668
 20
16.59852949999999
 40
0.5
100
AcDbArc
 50
105
 51
195
  0
ARC
  5
1AB
100
AcDbEntity
  8
0
  6
ByLayer
 62
  256
370
   -1
100
AcDbCircle
 10
121.0880026
 20
19.9631771
 40
0.5
100
AcDbArc
 50
15
 51
105
  0
ARC
  5
1AC
100
AcDbEntity
  8
0
  6
ByLayer
 62
  256
370
   -1
100
AcDbCircle
 10
111.8956144
 20
4.04149369999999
 40
0.5
100
AcDbArc
 50
195
 51
285
  0
ARC
  5
1AD
100
AcDbEntity
  8
0
  6
ByLayer
 62
  256
370
   -1
100
AcDbCircle
 10
124.4526502
 20
7.406141299999994
 40
0.5
100
AcDbArc
 50
285
 51
15
  0
LINE
  5
1AE
100
AcDbEntity
  8
0
  6
ByLayer
 62
  256
370
   -1
100
AcDbLine
 10
74.23017520000002
 20
-11.79671300000001
 11
86.78721100000001
 21
-8.432065399999999
  0
LINE
  5
1AF
100
AcDbEntity
  8
0
  6
ByLayer
 62
  256
370
   -1
100
AcDbLine
 10
77.85364180000002
 20
-25.3196746
 11
90.41067760000001
 21
-21.955027
  0
LINE
  5
1B0
100
AcDbEntity
  8
0
  6
ByLayer
 62
  256
370
   -1
100
AcDbLine
 10
73.87662180000001
 20
-12.40908540000001
 11
77.24126939999999
 21
-24.9661212
  0
LINE
  5
1B1
100
AcDbEntity
  8
0
  6
ByLayer
 62
  256
370
   -1
100
AcDbLine
 10
87.39958340000001
 20
-8.785618800000009
 11
90.764231
 21
-21.3426546
  0
ARC
  5
1B2
100
AcDbEntity
  8
0
  6
ByLayer
 62
  256
370
   -1
100
AcDbCircle
 10
74.3595847
 20
-12.2796759
 40
0.5
100
AcDbArc
 50
105
 51
195
  0
ARC
  5
1B3
100
AcDbEntity
  8
0
  6
ByLayer
 62
  256
370
   -1
100
AcDbCircle
 10
86.91662049999999
 20
-8.915028300000003
 40
0.5
100
AcDbArc
 50
15
 51
105
  0
ARC
  5
1B4
100
AcDbEntity
  8
0
  6
ByLayer
 62
  256
370
   -1
100
AcDbCircle
 10
77.72423230000001
 20
-24.83671170000001
 40
0.5
100
AcDbArc
 50
195
 51
285
  0
ARC
  5
1B5
100
AcDbEntity
  8
0
  6
ByLayer
 62
  256
370
   -1
100
AcDbCircle
 10
90.28126810000001
 20
-21.47206410000001
 40
0.5
100
AcDbArc
 50
285
 51
15
  0
LINE
  5
1B6
100
AcDbEntity
  8
0
  6
ByLayer
 62
  256
370
   -1
100
AcDbLine
 10
92.6310622
 20
-6.866210200000012
 11
105.188098
 21
-3.5015626
  0
LINE
  5
1B7
100
AcDbEntity
  8
0
  6
ByLayer
 62
  256
370
   -1
100
AcDbLine
 10
96.2545288
 20
-20.3891718
 11
108.8115646
 21
-17.0245242
  0
LINE
  5
1B8
100
AcDbEntity
  8
0
  6
ByLayer
 62
  256
370
   -1
100
AcDbLine
 10
92.27750879999999
 20
-7.47858260000001
 11
95.6421564
 21
-20.0356184
  0
LINE
  5
1B9
100
AcDbEntity
  8
0
  6
ByLayer
 62
  256
370
   -1
100
AcDbLine
 10
105.8004704
 20
-3.85511600000001
 11
109.165118
 21
-16.4121518
  0
ARC
  5
1BA
100
AcDbEntity
  8
0
  6
ByLayer
 62
  256
370
   -1
100
AcDbCircle
 10
92.76047170000001
 20
-7.349173100000002
 40
0.5
100
AcDbArc
 50
105
 51
195
  0
ARC
  5
1BB
100
AcDbEntity
  8
0
  6
ByLayer
 62
  256
370
   -1
100
AcDbCircle
 10
105.3175075
 20
-3.984525500000004
 40
0.5
100
AcDbArc
 50
15
 51
105
  0
ARC
  5
1BC
100
AcDbEntity
  8
0
  6
ByLayer
 62
  256
370
   -1
100
AcDbCircle
 10
96.12511929999999
 20
-19.90620890000001
 40
0.5
100
AcDbArc
 50
195
 51
285
  0
ARC
  5
1BD
100
AcDbEntity
  8
0
  6
ByLayer
 62
  256
370
   -1
100
AcDbCircle
 10
108.6821551
 20
-16.54156130000001
 40
0.5
100
AcDbArc
 50
285
 51
15
  0
LINE
  5
1BE
100
AcDbEntity
  8
0
  6
ByLayer
 62
  256
370
   -1
100
AcDbLine
 10
111.0319492
 20
-1.935707400000013
 11
123.588985
 21
1.4289402
  0
LINE
  5
1BF
100
AcDbEntity
  8
0
  6
ByLayer
 62
  256
370
   -1
100
AcDbLine
 10
114.6554158
 20
-15.458669
 11
127.2124516
 21
-12.0940214
  0
LINE
  5
1C0
100
AcDbEntity
  8
0
  6
ByLayer
 62
  256
370
   -1
100
AcDbLine
 10
110.6783958
 20
-2.548079800000011
 11
114.0430434
 21
-15.1051156
  0
LINE
  5
1C1
100
AcDbEntity
  8
0
  6
ByLayer
 62
  256
370
   -1
100
AcDbLine
 10
124.2013574
 20
1.07538679999999
 11
127.566005
 21
-11.481649
  0
ARC
  5
1C2
100
AcDbEntity
  8
0
  6
ByLayer
 62
  256
370
   -1
100
AcDbCircle
 10
111.1613587
 20
-2.418670300000002
 40
0.5
100
AcDbArc
 50
105
 51
195
  0
ARC
  5
1C3
100
AcDbEntity
  8
0
  6
ByLayer
 62
  256
370
   -1
100
AcDbCircle
 10
123.7183945
 20
0.9459772999999956
 40
0.5
100
AcDbArc
 50
15
 51
105
  0
ARC
  5
1C4
100
AcDbEntity
  8
0
  6
ByLayer
 62
  256
370
   -1
100
AcDbCircle
 10
114.5260063
 20
-14.97570610000001
 40
0.5
100
AcDbArc
 50
195
 51
285
  0
ARC
  5
1C5
100
AcDbEntity
  8
0
  6
ByLayer
 62
  256
370
   -1
100
AcDbCircle
 10
127.0830421
 20
-11.6110585
 40
0.5
100
AcDbArc
 50
285
 51
15
  0
LINE
  5
1C6
100
AcDbEntity
  8
0
  6
ByLayer
 62
  256
370
   -1
100
AcDbLine
 10
34.0608052
 20
-27.49056610000001
 11
46.617841
 21
-24.12591850000001
  0
LINE
  5
1C7
100
AcDbEntity
  8
0
  6
ByLayer
 62
  256
370
   -1
100
AcDbLine
 10
37.6842718
 20
-41.01352770000001
 11
50.2413076
 21
-37.6488801
  0
LINE
  5
1C8
100
AcDbEntity
  8
0
  6
ByLayer
 62
  256
370
   -1
100
AcDbLine
 10
33.70725179999999
 20
-28.10293850000001
 11
37.07189940000001
 21
-40.6599743
  0
LINE
  5
1C9
100
AcDbEntity
  8
0
  6
ByLayer
 62
  256
370
   -1
100
AcDbLine
 10
47.2302134
 20
-24.47947190000001
 11
50.59486100000001
 21
-37.0365077
  0
ARC
  5
1CA
100
AcDbEntity
  8
0
  6
ByLayer
 62
  256
370
   -1
100
AcDbCircle
 10
34.19021470000001
 20
-27.973529
 40
0.5
100
AcDbArc
 50
105
 51
195
  0
ARC
  5
1CB
100
AcDbEntity
  8
0
  6
ByLayer
 62
  256
370
   -1
100
AcDbCircle
 10
46.74725050000001
 20
-24.6088814
 40
0.5
100
AcDbArc
 50
15
 51
105
  0
ARC
  5
1CC
100
AcDbEntity
  8
0
  6
ByLayer
 62
  256
370
   -1
100
AcDbCircle
 10
37.5548623
 20
-40.53056480000001
 40
0.5
100
AcDbArc
 50
195
 51
285
  0
ARC
  5
1CD
100
AcDbEntity
  8
0
  6
ByLayer
 62
  256
370
   -1
100
AcDbCircle
 10
50.11189810000002
 20
-37.16591720000001
 40
0.5
100
AcDbArc
 50
285
 51
15
  0
ARC
  5
1CE
100
AcDbEntity
  8
noname
  6
ByLayer
 62
  256
370
   -1
100
AcDbCircle
 10
-113.018908678
 20
55.51077834242747
 40
5
100
AcDbArc
 50
84.46232214348895
 51
165.0000000082534
  0
ARC
  5
1CF
100
AcDbEntity
  8
noname
  6
ByLayer
 62
  256
370
   -1
100
AcDbCircle
 10
113.018908678
 20
55.51077834242747
 40
5
100
AcDbArc
 50
14.99999999174662
 51
95.53767785651107
  0
LINE
  5
1D0
100
AcDbEntity
  8
noname2
  6
ByLayer
 62
  256
370
   -1
100
AcDbLine
 10
-19.49189380345968
 20
44.8700751262835
 11
-14.31551113690452
 21
64.18859117926718
  0
LINE
  5
1D1
100
AcDbEntity
  8
noname2
  6
ByLayer
 62
  256
370
   -1
100
AcDbLine
 10
-14.31551113690452
 20
64.18859117926718
 11
19.49189278451778
 21
55.12992460554885
  0
LINE
  5
1D2
100
AcDbEntity
  8
noname2
  6
ByLayer
 62
  256
370
   -1
100
AcDbLine
 10
19.49189278451778
 20
55.12992460554885
 11
14.31551188525017
 21
35.81140807902187
  0
LINE
  5
1D3
100
AcDbEntity
  8
noname2
  6
ByLayer
 62
  256
370
   -1
100
AcDbLine
 10
14.31551188525017
 20
35.81140807902187
 11
-19.49189380345968
 21
44.8700751262835
  0
LINE
  5
1D4
100
AcDbEntity
  8
noname
  6
ByLayer
 62
  256
370
   -1
100
AcDbLine
 10
38.8120597112692
 20
53.33966194242309
 11
112.5364071433586
 21
60.48744311605537
  0
ARC
  5
1D5
100
AcDbEntity
  8
noname
  6
ByLayer
 62
  256
370
   -1
100
AcDbCircle
 10
36.88205357270374
 20
73.24632103693465
 40
20
100
AcDbArc
 50
255.0000000082534
 51
275.5376778565112
  0
LINE
  5
1D6
100
AcDbEntity
  8
noname
  6
ByLayer
 62
  256
370
   -1
100
AcDbLine
 10
-13.79787304697776
 20
66.12044283191987
 11
31.70567267343613
 21
53.92780451040763
  0
ARC
  5
1D7
100
AcDbEntity
  8
noname
  6
ByLayer
 62
  256
370
   -1
100
AcDbCircle
 10
-14.31551113690452
 20
64.18859117926718
 40
2
100
AcDbArc
 50
75.00000000825334
 51
164.9999947667472
  0
ARC
  5
1D8
100
AcDbEntity
  8
noname
  6
ByLayer
 62
  256
370
   -1
100
AcDbCircle
 10
19.84381736012465
 20
-31.84351652652703
 40
20
100
AcDbArc
 50
270
 51
284.9999999917466
  0
LINE
  5
1D9
100
AcDbEntity
  8
noname
  6
ByLayer
 62
  256
370
   -1
100
AcDbLine
 10
-19.84381736012472
 20
-51.84351652652702
 11
19.84381736012464
 21
-51.84351652652703
  0
ARC
  5
1DA
100
AcDbEntity
  8
noname
  6
ByLayer
 62
  256
370
   -1
100
AcDbCircle
 10
-19.84381736012472
 20
-31.84351652652702
 40
20
100
AcDbArc
 50
255.0000000082534
 51
270
  0
LINE
  5
1DB
100
AcDbEntity
  8
noname
  6
ByLayer
 62
  256
370
   -1
100
AcDbLine
 10
-117.8485378096317
 20
56.80487356724437
 11
-137.3278495788043
 21
-15.89290769367011
  0
LINE
  5
1DC
100
AcDbEntity
  8
noname
  6
ByLayer
 62
  256
370
   -1
100
AcDbLine
 10
-133.7923156719895
 20
-22.01663205011875
 11
-25.02019825939232
 21
-51.16203305305403
  0
ARC
  5
1DD
100
AcDbEntity
  8
noname
  6
ByLayer
 62
  256
370
   -1
100
AcDbCircle
 10
-132.4982204471726
 20
-17.187002918487
 40
5
100
AcDbArc
 50
165.0000000082536
 51
255.0000000082533
  0
LINE
  5
1DE
100
AcDbEntity
  8
noname
  6
ByLayer
 62
  256
370
   -1
100
AcDbLine
 10
133.7923156719895
 20
-22.01663205011878
 11
25.02019825939226
 21
-51.16203305305405
  0
LINE
  5
1DF
100
AcDbEntity
  8
noname
  6
ByLayer
 62
  256
370
   -1
100
AcDbLine
 10
117.8485378096317
 20
56.80487356724434
 11
137.3278495788043
 21
-15.89290769367011
  0
ARC
  5
1E0
100
AcDbEntity
  8
noname
  6
ByLayer
 62
  256
370
   -1
100
AcDbCircle
 10
132.4982204471726
 20
-17.18700291848701
 40
5
100
AcDbArc
 50
284.9999999917467
 51
14.99999999174672
  0
LINE
  5
1E1
100
AcDbEntity
  8
noname1
  6
ByLayer
 62
  256
370
   -1
100
AcDbLine
 10
-108.9268861
 20
56.14863829999999
 11
-99.73449789999999
 21
40.2269549
  0
LINE
  5
1E2
100
AcDbEntity
  8
noname1
  6
ByLayer
 62
  256
370
   -1
100
AcDbLine
 10
-116.1574998
 20
38.36406409999999
 11
-106.9651116
 21
22.4423807
  0
LINE
  5
1E3
100
AcDbEntity
  8
noname1
  6
ByLayer
 62
  256
370
   -1
100
AcDbLine
 10
-90.52599909999999
 20
51.21813549999999
 11
-81.3336109
 21
35.2964521
  0
LINE
  5
1E4
100
AcDbEntity
  8
noname1
  6
ByLayer
 62
  256
370
   -1
100
AcDbLine
 10
-95.45650189999999
 20
32.81724849999999
 11
-86.2641137
 21
16.8955651
  0
LINE
  5
1E5
100
AcDbEntity
  8
noname1
  6
ByLayer
 62
  256
370
   -1
100
AcDbLine
 10
-70.8924864
 20
50.88785439999999
 11
-61.7000982
 21
34.966171
  0
LINE
  5
1E6
100
AcDbEntity
  8
noname1
  6
ByLayer
 62
  256
370
   -1
100
AcDbLine
 10
-75.82298919999999
 20
32.4869674
 11
-66.630601
 21
16.56528400000001
  0
LINE
  5
1E7
100
AcDbEntity
  8
noname1
  6
ByLayer
 62
  256
370
   -1
100
AcDbLine
 10
-100.3870047
 20
14.41636149999999
 11
-91.1946165
 21
-1.505321899999998
  0
LINE
  5
1E8
100
AcDbEntity
  8
noname1
  6
ByLayer
 62
  256
370
   -1
100
AcDbLine
 10
-80.75349199999999
 20
14.08608039999999
 11
-71.5611038
 21
-1.835602999999999
  0
LINE
  5
1E9
100
AcDbEntity
  8
noname1
  6
ByLayer
 62
  256
370
   -1
100
AcDbLine
 10
-56.1894765
 20
32.15668629999999
 11
-46.9970883
 21
16.2350029
  0
LINE
  5
1EA
100
AcDbEntity
  8
noname1
  6
ByLayer
 62
  256
370
   -1
100
AcDbLine
 10
-51.2589737
 20
50.5575733
 11
-42.0665855
 21
34.63588990000001
  0
LINE
  5
1EB
100
AcDbEntity
  8
noname1
  6
ByLayer
 62
  256
370
   -1
100
AcDbLine
 10
-61.1199793
 20
13.75579939999999
 11
-51.9275911
 21
-2.165883999999998
  0
LINE
  5
1EC
100
AcDbEntity
  8
noname1
  6
ByLayer
 62
  256
370
   -1
100
AcDbLine
 10
-80.01628789999999
 20
-10.7639669
 11
-70.8238997
 21
-26.68565029999999
  0
LINE
  5
1ED
100
AcDbEntity
  8
noname1
  6
ByLayer
 62
  256
370
   -1
100
AcDbLine
 10
-103.0173966
 20
-4.600838400000001
 11
-93.8250084
 21
-20.52252179999999
  0
LINE
  5
1EE
100
AcDbEntity
  8
noname1
  6
ByLayer
 62
  256
370
   -1
100
AcDbLine
 10
-126.0185054
 20
1.562290099999998
 11
-116.8261172
 21
-14.35939329999999
  0
LINE
  5
1EF
100
AcDbEntity
  8
noname1
  6
ByLayer
 62
  256
370
   -1
100
AcDbLine
 10
-121.0880026
 20
19.9631771
 11
-111.8956144
 21
4.041493700000004
  0
LINE
  5
1F0
100
AcDbEntity
  8
noname1
  6
ByLayer
 62
  256
370
   -1
100
AcDbLine
 10
-34.0907124
 20
41.0268488
 11
-24.8983242
 21
25.1051654
  0
LINE
  5
1F1
100
AcDbEntity
  8
noname1
  6
ByLayer
 62
  256
370
   -1
100
AcDbLine
 10
-39.0212152
 20
22.62596179999999
 11
-29.828827
 21
6.7042784
  0
LINE
  5
1F2
100
AcDbEntity
  8
noname1
  6
ByLayer
 62
  256
370
   -1
100
AcDbLine
 10
-43.951718
 20
4.225074799999987
 11
-34.7593298
 21
-11.6966086
  0
LINE
  5
1F3
100
AcDbEntity
  8
noname1
  6
ByLayer
 62
  256
370
   -1
100
AcDbLine
 10
-26.78345669999999
 20
-5.305649800000012
 11
-17.59106849999999
 21
-21.2273332
  0
LINE
  5
1F4
100
AcDbEntity
  8
noname1
  6
ByLayer
 62
  256
370
   -1
100
AcDbLine
 10
-21.85295389999999
 20
13.09523719999999
 11
-12.66056569999999
 21
-2.826446199999999
  0
LINE
  5
1F5
100
AcDbEntity
  8
noname1
  6
ByLayer
 62
  256
370
   -1
100
AcDbLine
 10
-16.92245109999999
 20
31.4961242
 11
-7.730062899999993
 21
15.5744408
  0
LINE
  5
1F6
100
AcDbEntity
  8
noname1
  6
ByLayer
 62
  256
370
   -1
100
AcDbLine
 10
-46.74725049999999
 20
-24.6088814
 11
-37.5548623
 21
-40.53056479999999
  0
LINE
  5
1F7
100
AcDbEntity
  8
noname1
  6
ByLayer
 62
  256
370
   -1
100
AcDbLine
 10
108.9268861
 20
56.14863829999999
 11
99.73449789999999
 21
40.22695490000002
  0
LINE
  5
1F8
100
AcDbEntity
  8
noname1
  6
ByLayer
 62
  256
370
   -1
100
AcDbLine
 10
116.1574998
 20
38.36406409999996
 11
106.9651116
 21
22.44238070000003
  0
LINE
  5
1F9
100
AcDbEntity
  8
noname1
  6
ByLayer
 62
  256
370
   -1
100
AcDbLine
 10
90.52599909999999
 20
51.21813550000002
 11
81.3336109
 21
35.2964521
  0
LINE
  5
1FA
100
AcDbEntity
  8
noname1
  6
ByLayer
 62
  256
370
   -1
100
AcDbLine
 10
95.45650189999999
 20
32.81724849999999
 11
86.2641137
 21
16.8955651
  0
LINE
  5
1FB
100
AcDbEntity
  8
noname1
  6
ByLayer
 62
  256
370
   -1
100
AcDbLine
 10
70.8924864
 20
50.88785439999999
 11
61.7000982
 21
34.96617099999997
  0
LINE
  5
1FC
100
AcDbEntity
  8
noname1
  6
ByLayer
 62
  256
370
   -1
100
AcDbLine
 10
75.82298919999999
 20
32.4869674
 11
66.630601
 21
16.56528400000001
  0
LINE
  5
1FD
100
AcDbEntity
  8
noname1
  6
ByLayer
 62
  256
370
   -1
100
AcDbLine
 10
100.3870047
 20
14.41636149999997
 11
91.1946165
 21
-1.505321900000027
  0
LINE
  5
1FE
100
AcDbEntity
  8
noname1
  6
ByLayer
 62
  256
370
   -1
100
AcDbLine
 10
80.75349199999999
 20
14.08608040000001
 11
71.5611038
 21
-1.835602999999985
  0
LINE
  5
1FF
100
AcDbEntity
  8
noname1
  6
ByLayer
 62
  256
370
   -1
100
AcDbLine
 10
56.1894765
 20
32.15668629999999
 11
46.9970883
 21
16.2350029
  0
LINE
  5
200
100
AcDbEntity
  8
noname1
  6
ByLayer
 62
  256
370
   -1
100
AcDbLine
 10
51.2589737
 20
50.55757329999997
 11
42.0665855
 21
34.63588990000001
  0
LINE
  5
201
100
AcDbEntity
  8
noname1
  6
ByLayer
 62
  256
370
   -1
100
AcDbLine
 10
61.1199793
 20
13.75579940000001
 11
51.9275911
 21
-2.165884000000013
  0
LINE
  5
202
100
AcDbEntity
  8
noname1
  6
ByLayer
 62
  256
370
   -1
100
AcDbLine
 10
121.0880026
 20
19.9631771
 11
111.8956144
 21
4.041493699999975
  0
LINE
  5
203
100
AcDbEntity
  8
noname1
  6
ByLayer
 62
  256
370
   -1
100
AcDbLine
 10
34.0907124
 20
41.02684880000002
 11
24.8983242
 21
25.1051654
  0
LINE
  5
204
100
AcDbEntity
  8
noname1
  6
ByLayer
 62
  256
370
   -1
100
AcDbLine
 10
39.0212152
 20
22.62596180000001
 11
29.828827
 21
6.704278399999986
  0
LINE
  5
205
100
AcDbEntity
  8
noname1
  6
ByLayer
 62
  256
370
   -1
100
AcDbLine
 10
43.951718
 20
4.225074799999987
 11
34.7593298
 21
-11.69660859999998
  0
LINE
  5
206
100
AcDbEntity
  8
noname1
  6
ByLayer
 62
  256
370
   -1
100
AcDbLine
 10
26.78345669999999
 20
-5.30564980000004
 11
17.59106849999999
 21
-21.2273332
  0
LINE
  5
207
100
AcDbEntity
  8
noname1
  6
ByLayer
 62
  256
370
   -1
100
AcDbLine
 10
21.85295389999999
 20
13.09523719999998
 11
12.66056569999999
 21
-2.826446199999985
  0
LINE
  5
208
100
AcDbEntity
  8
noname1
  6
ByLayer
 62
  256
370
   -1
100
AcDbLine
 10
16.92245109999999
 20
31.49612420000003
 11
7.730062899999993
 21
15.5744408
  0
LINE
  5
209
100
AcDbEntity
  8
noname1
  6
ByLayer
 62
  256
370
   -1
100
AcDbLine
 10
46.74725049999999
 20
-24.6088814
 11
37.5548623
 21
-40.53056479999991
  0
LINE
  5
20A
100
AcDbEntity
  8
noname1
  6
ByLayer
 62
  256
370
   -1
100
AcDbLine
 10
86.91662049999999
 20
-8.915028300000003
 11
77.72423230000001
 21
-24.83671170000001
  0
LINE
  5
20B
100
AcDbEntity
  8
noname1
  6
ByLayer
 62
  256
370
   -1
100
AcDbLine
 10
105.3175075
 20
-3.984525500000004
 11
96.12511929999999
 21
-19.90620890000001
  0
LINE
  5
20C
100
AcDbEntity
  8
noname1
  6
ByLayer
 62
  256
370
   -1
100
AcDbLine
 10
123.7183945
 20
0.9459772999999956
 11
114.5260063
 21
-14.97570610000001
  0
LINE
  5
20D
100
AcDbEntity
  8
noname
  6
ByLayer
 62
  256
370
   -1
100
AcDbLine
 10
-24.00312802142929
 20
51.90389469834207
 11
-112.5364071433586
 21
60.48744311605537
  0
LINE
  5
20E
100
AcDbEntity
  8
noname
  6
ByLayer
 62
  256
370
   -1
100
AcDbLine
 10
-18.69099747354201
 20
55.58646380533115
 11
-16.24736274220288
 21
64.7062294459227
  0
ARC
  5
20F
100
AcDbEntity
  8
noname
  6
ByLayer
 62
  256
370
   -1
100
AcDbCircle
 10
-23.52062648678793
 20
56.88055947196995
 40
5
100
AcDbArc
 50
264.4623221434888
 51
344.9999947667474
  0
LINE
  5
210
100
AcDbEntity
  8
noname1
  6
ByLayer
 62
  256
370
   -1
100
AcDbLine
 10
-6.5
 20
-33.5
 11
6.5
 21
-46.5
  0
LINE
  5
211
100
AcDbEntity
  8
noname1
  6
ByLayer
 62
  256
370
   -1
100
AcDbLine
 10
-14.31551113690452
 20
64.18859117926719
 11
14.31551188525017
 21
35.81140807902189
  0
LINE
  5
212
100
AcDbEntity
  8
noname1
  6
ByLayer
 62
  256
370
   -1
100
AcDbLine
 10
-93.9550357473473
 20
52.13694311007323
 11
-97.31968334734729
 21
39.57990731007324
  0
LINE
  5
213
100
AcDbEntity
  8
noname1
  6
ByLayer
 62
  256
370
   -1
100
AcDbLine
 10
-75.5541487473473
 20
47.20644031007323
 11
-78.9187963473473
 21
34.64940451007324
  0
LINE
  5
214
100
AcDbEntity
  8
noname1
  6
ByLayer
 62
  256
370
   -1
100
AcDbLine
 10
-55.92063604734729
 20
46.87615921007323
 11
-59.28528364734729
 21
34.31912341007323
  0
LINE
  5
215
100
AcDbEntity
  8
noname1
  6
ByLayer
 62
  256
370
   -1
100
AcDbLine
 10
-101.1856494473473
 20
34.35236891007322
 11
-104.5502970473473
 21
21.79533311007323
  0
LINE
  5
216
100
AcDbEntity
  8
noname1
  6
ByLayer
 62
  256
370
   -1
100
AcDbLine
 10
-80.4846515473473
 20
28.80555331007322
 11
-83.8492991473473
 21
16.24851751007323
  0
LINE
  5
217
100
AcDbEntity
  8
noname1
  6
ByLayer
 62
  256
370
   -1
100
AcDbLine
 10
-60.85113884734729
 20
28.47527221007323
 11
-64.2157864473473
 21
15.91823641007324
  0
LINE
  5
218
100
AcDbEntity
  8
noname1
  6
ByLayer
 62
  256
370
   -1
100
AcDbLine
 10
-106.1161522473473
 20
15.95148191007324
 11
-109.4807998473473
 21
3.394446110073234
  0
LINE
  5
219
100
AcDbEntity
  8
noname1
  6
ByLayer
 62
  256
370
   -1
100
AcDbLine
 10
-85.4151543473473
 20
10.40466631007323
 11
-88.77980194734729
 21
-2.152369489926768
  0
LINE
  5
21A
100
AcDbEntity
  8
noname1
  6
ByLayer
 62
  256
370
   -1
100
AcDbLine
 10
-65.7816416473473
 20
10.07438521007323
 11
-69.1462892473473
 21
-2.482650589926762
  0
LINE
  5
21B
100
AcDbEntity
  8
noname1
  6
ByLayer
 62
  256
370
   -1
100
AcDbLine
 10
-46.1481289473473
 20
9.744104210073234
 11
-49.51277654734729
 21
-2.812931589926761
  0
LINE
  5
21C
100
AcDbEntity
  8
noname1
  6
ByLayer
 62
  256
370
   -1
100
AcDbLine
 10
-111.0466550473473
 20
-2.449405089926769
 11
-114.4113026473473
 21
-15.00644088992676
  0
LINE
  5
21D
100
AcDbEntity
  8
noname1
  6
ByLayer
 62
  256
370
   -1
100
AcDbLine
 10
-88.0455462473473
 20
-8.612533589926768
 11
-91.4101938473473
 21
-21.16956938992676
  0
LINE
  5
21E
100
AcDbEntity
  8
noname1
  6
ByLayer
 62
  256
370
   -1
100
AcDbLine
 10
-65.0444375473473
 20
-14.77566208992677
 11
-68.4090851473473
 21
-27.33269788992676
  0
LINE
  5
21F
100
AcDbEntity
  8
noname1
  6
ByLayer
 62
  256
370
   -1
100
AcDbLine
 10
-28.97986764734729
 20
0.2133796100732323
 11
-32.3445152473473
 21
-12.34365618992676
  0
LINE
  5
220
100
AcDbEntity
  8
noname1
  6
ByLayer
 62
  256
370
   -1
100
AcDbLine
 10
-24.04936484734729
 20
18.61426661007323
 11
-27.4140124473473
 21
6.05723081007323
  0
LINE
  5
221
100
AcDbEntity
  8
noname1
  6
ByLayer
 62
  256
370
   -1
100
AcDbLine
 10
-19.11886204734729
 20
37.01515361007323
 11
-22.4835096473473
 21
24.45811781007323
  0
LINE
  5
222
100
AcDbEntity
  8
noname1
  6
ByLayer
 62
  256
370
   -1
100
AcDbLine
 10
-11.81160634734729
 20
-9.317344989926763
 11
-15.17625394734729
 21
-21.87438078992677
  0
LINE
  5
223
100
AcDbEntity
  8
noname1
  6
ByLayer
 62
  256
370
   -1
100
AcDbLine
 10
-6.881103547347289
 20
9.083542010073232
 11
-10.24575114734729
 21
-3.473493789926762
  0
LINE
  5
224
100
AcDbEntity
  8
noname1
  6
ByLayer
 62
  256
370
   -1
100
AcDbLine
 10
-1.950600747347303
 20
27.48442901007323
 11
-5.315248347347286
 21
14.92739321007324
  0
LINE
  5
225
100
AcDbEntity
  8
noname1
  6
ByLayer
 62
  256
370
   -1
100
AcDbLine
 10
1.950600747347304
 20
27.48442901007323
 11
5.315248347347317
 21
14.92739321007323
  0
LINE
  5
226
100
AcDbEntity
  8
noname1
  6
ByLayer
 62
  256
370
   -1
100
AcDbLine
 10
6.881103547347304
 20
9.083542010073231
 11
10.24575114734732
 21
-3.473493789926764
  0
LINE
  5
227
100
AcDbEntity
  8
noname1
  6
ByLayer
 62
  256
370
   -1
100
AcDbLine
 10
11.8116063473473
 20
-9.317344989926765
 11
15.17625394734731
 21
-21.87438078992677
  0
LINE
  5
228
100
AcDbEntity
  8
noname1
  6
ByLayer
 62
  256
370
   -1
100
AcDbLine
 10
-31.77540014734729
 20
-28.62057658992677
 11
-35.14004774734729
 21
-41.17761238992676
  0
LINE
  5
229
100
AcDbEntity
  8
noname1
  6
ByLayer
 62
  256
370
   -1
100
AcDbLine
 10
31.77540014734729
 20
-28.62057658992677
 11
35.1400477473473
 21
-41.17761238992676
  0
LINE
  5
22A
100
AcDbEntity
  8
noname1
  6
ByLayer
 62
  256
370
   -1
100
AcDbLine
 10
28.97986764734731
 20
0.2133796100732386
 11
32.3445152473473
 21
-12.34365618992676
  0
LINE
  5
22B
100
AcDbEntity
  8
noname1
  6
ByLayer
 62
  256
370
   -1
100
AcDbLine
 10
24.04936484734731
 20
18.61426661007324
 11
27.4140124473473
 21
6.057230810073235
  0
LINE
  5
22C
100
AcDbEntity
  8
noname1
  6
ByLayer
 62
  256
370
   -1
100
AcDbLine
 10
19.11886204734731
 20
37.01515361007323
 11
22.4835096473473
 21
24.45811781007324
  0
LINE
  5
22D
100
AcDbEntity
  8
noname1
  6
ByLayer
 62
  256
370
   -1
100
AcDbLine
 10
46.1481289473473
 20
9.744104210073232
 11
49.51277654734731
 21
-2.812931589926763
  0
LINE
  5
22E
100
AcDbEntity
  8
noname1
  6
ByLayer
 62
  256
370
   -1
100
AcDbLine
 10
41.2176261473473
 20
28.14499111007324
 11
44.58227374734731
 21
15.58795531007324
  0
LINE
  5
22F
100
AcDbEntity
  8
noname1
  6
ByLayer
 62
  256
370
   -1
100
AcDbLine
 10
36.2871233473473
 20
46.54587811007323
 11
39.65177094734731
 21
33.98884231007322
  0
LINE
  5
230
100
AcDbEntity
  8
noname1
  6
ByLayer
 62
  256
370
   -1
100
AcDbLine
 10
55.92063604734731
 20
46.87615921007323
 11
59.28528364734729
 21
34.31912341007324
  0
LINE
  5
231
100
AcDbEntity
  8
noname1
  6
ByLayer
 62
  256
370
   -1
100
AcDbLine
 10
60.85113884734731
 20
28.47527221007324
 11
64.2157864473473
 21
15.91823641007324
  0
LINE
  5
232
100
AcDbEntity
  8
noname1
  6
ByLayer
 62
  256
370
   -1
100
AcDbLine
 10
65.78164164734731
 20
10.07438521007324
 11
69.1462892473473
 21
-2.482650589926757
  0
LINE
  5
233
100
AcDbEntity
  8
noname1
  6
ByLayer
 62
  256
370
   -1
100
AcDbLine
 10
71.94477014734731
 20
-12.92672348992677
 11
75.3094177473473
 21
-25.48375928992676
  0
LINE
  5
234
100
AcDbEntity
  8
noname1
  6
ByLayer
 62
  256
370
   -1
100
AcDbLine
 10
90.3456571473473
 20
-7.996220689926774
 11
93.71030474734731
 21
-20.55325648992677
  0
LINE
  5
235
100
AcDbEntity
  8
noname1
  6
ByLayer
 62
  256
370
   -1
100
AcDbLine
 10
85.4151543473473
 20
10.40466631007323
 11
88.77980194734731
 21
-2.152369489926767
  0
LINE
  5
236
100
AcDbEntity
  8
noname1
  6
ByLayer
 62
  256
370
   -1
100
AcDbLine
 10
80.4846515473473
 20
28.80555331007322
 11
83.84929914734731
 21
16.24851751007323
  0
LINE
  5
237
100
AcDbEntity
  8
noname1
  6
ByLayer
 62
  256
370
   -1
100
AcDbLine
 10
75.5541487473473
 20
47.20644031007323
 11
78.91879634734731
 21
34.64940451007324
  0
LINE
  5
238
100
AcDbEntity
  8
noname1
  6
ByLayer
 62
  256
370
   -1
100
AcDbLine
 10
93.95503574734731
 20
52.13694311007323
 11
97.31968334734732
 21
39.57990731007324
  0
LINE
  5
239
100
AcDbEntity
  8
noname1
  6
ByLayer
 62
  256
370
   -1
100
AcDbLine
 10
101.1856494473473
 20
34.35236891007322
 11
104.5502970473473
 21
21.79533311007323
  0
LINE
  5
23A
100
AcDbEntity
  8
noname1
  6
ByLayer
 62
  256
370
   -1
100
AcDbLine
 10
106.1161522473473
 20
15.95148191007324
 11
109.4807998473473
 21
3.394446110073235
  0
LINE
  5
23B
100
AcDbEntity
  8
noname1
  6
ByLayer
 62
  256
370
   -1
100
AcDbLine
 10
108.7465441473473
 20
-3.065717889926774
 11
112.1111917473473
 21
-15.62275368992677
  0
LINE
  5
23C
100
AcDbEntity
  8
noname1
  6
ByLayer
 62
  256
370
   -1
100
AcDbLine
 10
17.43800000000002
 20
-34.5
 11
17.43800000000002
 21
-48.5
  0
LINE
  5
23D
100
AcDbEntity
  8
noname1
  6
ByLayer
 62
  256
370
   -1
100
AcDbLine
 10
-41.2176261473473
 20
28.14499111007324
 11
-44.58227374734729
 21
15.58795531007324
  0
LINE
  5
23E
100
AcDbEntity
  8
noname1
  6
ByLayer
 62
  256
370
   -1
100
AcDbLine
 10
-36.2871233473473
 20
46.54587811007323
 11
-39.65177094734729
 21
33.98884231007322
  0
CIRCLE
  5
23F
100
AcDbEntity
  8
noname3
  6
ByLayer
 62
  256
370
   -1
100
AcDbCircle
 10
121.7103908348901
 20
-16.67412267897904
 40
1.1
  0
CIRCLE
  5
240
100
AcDbEntity
  8
noname3
  6
ByLayer
 62
  256
370
   -1
100
AcDbCircle
 10
47.40006722268911
 20
-16.37174645212945
 40
1.1
  0
CIRCLE
  5
241
100
AcDbEntity
  8
noname3
  6
ByLayer
 62
  256
370
   -1
100
AcDbCircle
 10
98.10261096016959
 20
36.65798167345822
 40
1.1
  0
CIRCLE
  5
242
100
AcDbEntity
  8
noname3
  6
ByLayer
 62
  256
370
   -1
100
AcDbCircle
 10
0
 20
0
 40
1.1
  0
CIRCLE
  5
243
100
AcDbEntity
  8
noname3
  6
ByLayer
 62
  256
370
   -1
100
AcDbCircle
 10
-121.7103908348901
 20
-16.67412267897905
 40
1.1
  0
LINE
  5
244
100
AcDbEntity
  8
noname3
  6
ByLayer
 62
  256
370
   -1
100
AcDbLine
 10
39.00506032512575
 20
51.34899603297194
 11
112.7294077572152
 21
58.49677720660422
  0
LINE
  5
245
100
AcDbEntity
  8
noname3
  6
ByLayer
 62
  256
370
   -1
100
AcDbLine
 10
-19.84381736012472
 20
-49.84351652652702
 11
19.84381736012464
 21
-49.84351652652703
  0
ARC
  5
246
100
AcDbEntity
  8
noname3
  6
ByLayer
 62
  256
370
   -1
100
AcDbCircle
 10
-113.018908678
 20
55.51077834242747
 40
3
100
AcDbArc
 50
84.46232214348895
 51
165.0000000082534
  0
ARC
  5
247
100
AcDbEntity
  8
noname3
  6
ByLayer
 62
  256
370
   -1
100
AcDbCircle
 10
-19.84381736012472
 20
-31.84351652652702
 40
18
100
AcDbArc
 50
255.0000000082534
 51
270
  0
ARC
  5
248
100
AcDbEntity
  8
noname3
  6
ByLayer
 62
  256
370
   -1
100
AcDbCircle
 10
19.84381736012465
 20
-31.84351652652703
 40
18
100
AcDbArc
 50
270
 51
284.9999999917466
  0
ARC
  5
249
100
AcDbEntity
  8
noname3
  6
ByLayer
 62
  256
370
   -1
100
AcDbCircle
 10
113.018908678
 20
55.51077834242747
 40
3
100
AcDbArc
 50
14.99999999174662
 51
95.53767785651107
  0
ARC
  5
24A
100
AcDbEntity
  8
noname3
  6
ByLayer
 62
  256
370
   -1
100
AcDbCircle
 10
36.88205357270374
 20
73.24632103693465
 40
22
100
AcDbArc
 50
255.0000000082534
 51
275.5376778565112
  0
ARC
  5
24B
100
AcDbEntity
  8
ext1
  6
ByLayer
 62
  256
370
   -1
100
AcDbCircle
 10
36.88205357270374
 20
73.24632103693465
 40
19
100
AcDbArc
 50
255.0000000082534
 51
275.5376778565112
  0
LINE
  5
24C
100
AcDbEntity
  8
ext1
  6
ByLayer
 62
  256
370
   -1
100
AcDbLine
 10
38.71555940434093
 20
54.33499489714867
 11
112.4399068364303
 21
61.48277607078094
  0
ARC
  5
24D
100
AcDbEntity
  8
ext1
  6
ByLayer
 62
  256
370
   -1
100
AcDbCircle
 10
113.018908678
 20
55.51077834242747
 40
6
100
AcDbArc
 50
14.99999999174662
 51
95.53767785651107
  0
LINE
  5
24E
100
AcDbEntity
  8
ext1
  6
ByLayer
 62
  256
370
   -1
100
AcDbLine
 10
118.814463635958
 20
57.06369261220772
 11
138.2937754051306
 21
-15.63408864870673
  0
ARC
  5
24F
100
AcDbEntity
  8
ext1
  6
ByLayer
 62
  256
370
   -1
100
AcDbCircle
 10
132.4982204471726
 20
-17.18700291848701
 40
6
100
AcDbArc
 50
284.9999999917467
 51
14.99999999174672
  0
LINE
  5
250
100
AcDbEntity
  8
ext1
  6
ByLayer
 62
  256
370
   -1
100
AcDbLine
 10
134.0511347169529
 20
-22.98255787644513
 11
25.27901730435564
 21
-52.1279588793804
  0
ARC
  5
251
100
AcDbEntity
  8
ext1
  6
ByLayer
 62
  256
370
   -1
100
AcDbCircle
 10
19.84381736012465
 20
-31.84351652652703
 40
21
100
AcDbArc
 50
270
 51
284.9999999917466
  0
LINE
  5
252
100
AcDbEntity
  8
ext1
  6
ByLayer
 62
  256
370
   -1
100
AcDbLine
 10
-19.84381736012472
 20
-52.84351652652702
 11
19.84381736012464
 21
-52.84351652652703
  0
ARC
  5
253
100
AcDbEntity
  8
ext1
  6
ByLayer
 62
  256
370
   -1
100
AcDbCircle
 10
-19.84381736012472
 20
-31.84351652652702
 40
21
100
AcDbArc
 50
255.0000000082534
 51
270
  0
LINE
  5
254
100
AcDbEntity
  8
ext1
  6
ByLayer
 62
  256
370
   -1
100
AcDbLine
 10
-134.0511347169529
 20
-22.9825578764451
 11
-25.2790173043557
 21
-52.12795887938038
  0
ARC
  5
255
100
AcDbEntity
  8
ext1
  6
ByLayer
 62
  256
370
   -1
100
AcDbCircle
 10
-132.4982204471726
 20
-17.187002918487
 40
6
100
AcDbArc
 50
165.0000000082536
 51
255.0000000082533
  0
LINE
  5
256
100
AcDbEntity
  8
ext1
  6
ByLayer
 62
  256
370
   -1
100
AcDbLine
 10
-118.814463635958
 20
57.06369261220775
 11
-138.2937754051306
 21
-15.63408864870673
  0
ARC
  5
257
100
AcDbEntity
  8
ext1
  6
ByLayer
 62
  256
370
   -1
100
AcDbCircle
 10
-113.018908678
 20
55.51077834242747
 40
6
100
AcDbArc
 50
84.46232214348895
 51
165.0000000082534
  0
LINE
  5
258
100
AcDbEntity
  8
noname3
  6
ByLayer
 62
  256
370
   -1
100
AcDbLine
 10
-115.1273460343375
 20
-24.94734322765709
 11
-24.50256016946555
 21
-49.23018140040133
  0
ARC
  5
259
100
AcDbEntity
  8
noname3
  6
ByLayer
 62
  256
370
   -1
100
AcDbCircle
 10
-114.6097079444107
 20
-23.01549157500439
 40
2
100
AcDbArc
 50
165.0000000082535
 51
255.0000000082533
  0
LINE
  5
25A
100
AcDbEntity
  8
noname3
  6
ByLayer
 62
  256
370
   -1
100
AcDbLine
 10
115.1273460343375
 20
-24.94734322765709
 11
24.5025601694655
 21
-49.23018140040134
  0
ARC
  5
25B
100
AcDbEntity
  8
noname3
  6
ByLayer
 62
  256
370
   -1
100
AcDbCircle
 10
114.6097079444108
 20
-23.01549157500439
 40
2
100
AcDbArc
 50
284.9999999917467
 51
14.99999999174661
  0
ARC
  5
25C
100
AcDbEntity
  8
noname3
  6
ByLayer
 62
  256
370
   -1
100
AcDbCircle
 10
58.67156873955302
 20
-9.948086283097002
 40
2
100
AcDbArc
 50
14.99999999174656
 51
104.9999999917467
  0
LINE
  5
25D
100
AcDbEntity
  8
noname3
  6
ByLayer
 62
  256
370
   -1
100
AcDbLine
 10
62.30515561227797
 20
-15.78141049916868
 11
60.60342039220573
 21
-9.430448193170243
  0
ARC
  5
25E
100
AcDbEntity
  8
noname3
  6
ByLayer
 62
  256
370
   -1
100
AcDbCircle
 10
60.37330395962527
 20
-16.29904858909543
 40
2
100
AcDbArc
 50
284.9999999917467
 51
14.99999999174656
  0
LINE
  5
25F
100
AcDbEntity
  8
noname3
  6
ByLayer
 62
  256
370
   -1
100
AcDbLine
 10
60.89094204955203
 20
-18.23090024174814
 11
36.64620379575197
 21
-24.72725827381462
  0
ARC
  5
260
100
AcDbEntity
  8
noname3
  6
ByLayer
 62
  256
370
   -1
100
AcDbCircle
 10
36.12856570582521
 20
-22.79540662116191
 40
2
100
AcDbArc
 50
194.9999999917466
 51
284.9999999917466
  0
LINE
  5
261
100
AcDbEntity
  8
noname3
  6
ByLayer
 62
  256
370
   -1
100
AcDbLine
 10
32.49497883310026
 20
-16.96208240509025
 11
34.19671405317251
 21
-23.31304471108868
  0
LINE
  5
262
100
AcDbEntity
  8
noname3
  6
ByLayer
 62
  256
370
   -1
100
AcDbLine
 10
58.15393064962626
 20
-8.016234630444304
 11
33.9091923958262
 21
-14.51259266251079
  0
ARC
  5
263
100
AcDbEntity
  8
noname3
  6
ByLayer
 62
  256
370
   -1
100
AcDbCircle
 10
34.42683048575296
 20
-16.44444431516349
 40
2
100
AcDbArc
 50
104.9999999917467
 51
194.9999999917465
  0
ARC
  5
264
100
AcDbEntity
  8
noname3
  6
ByLayer
 62
  256
370
   -1
100
AcDbCircle
 10
83.78310063700987
 20
33.88223853485511
 40
2
100
AcDbArc
 50
104.9999999661073
 51
194.9999998196901
  0
LINE
  5
265
100
AcDbEntity
  8
noname3
  6
ByLayer
 62
  256
370
   -1
100
AcDbLine
 10
82.38182799645602
 20
31.38445258941948
 11
81.8512489828027
 21
33.3646004507296
  0
ARC
  5
266
100
AcDbEntity
  8
noname3
  6
ByLayer
 62
  256
370
   -1
100
AcDbCircle
 10
84.31367965066316
 20
31.90209067354498
 40
2
100
AcDbArc
 50
194.99999981969
 51
284.9999998196898
  0
ARC
  5
267
100
AcDbEntity
  8
noname3
  6
ByLayer
 62
  256
370
   -1
100
AcDbCircle
 10
-131.1897739089904
 20
-8.440110648956464
 40
2
100
AcDbArc
 50
165.0000000082534
 51
255.0000000082529
  0
ARC
  5
268
100
AcDbEntity
  8
noname3
  6
ByLayer
 62
  256
370
   -1
100
AcDbCircle
 10
131.1897739089904
 20
-8.440110648956475
 40
2
100
AcDbArc
 50
284.999999991747
 51
14.99999999174656
  0
LINE
  5
269
100
AcDbEntity
  8
noname3
  6
ByLayer
 62
  256
370
   -1
100
AcDbLine
 10
116.5415595970635
 20
-22.49785348507763
 11
115.0436443674451
 21
-16.90755773948953
  0
LINE
  5
26A
100
AcDbEntity
  8
noname3
  6
ByLayer
 62
  256
370
   -1
100
AcDbLine
 10
116.457857930171
 20
-14.45806799691007
 11
131.7074119989171
 21
-10.37196230160918
  0
ARC
  5
26B
100
AcDbEntity
  8
noname3
  6
ByLayer
 62
  256
370
   -1
100
AcDbCircle
 10
116.9754960200978
 20
-16.38991964956277
 40
2
100
AcDbArc
 50
104.9999999917467
 51
194.9999999917465
  0
LINE
  5
26C
100
AcDbEntity
  8
noname3
  6
ByLayer
 62
  256
370
   -1
100
AcDbLine
 10
-116.5415595970634
 20
-22.49785348507763
 11
-115.0436443674451
 21
-16.90755773948953
  0
LINE
  5
26D
100
AcDbEntity
  8
noname3
  6
ByLayer
 62
  256
370
   -1
100
AcDbLine
 10
-116.457857930171
 20
-14.45806799691007
 11
-131.7074119989171
 21
-10.37196230160917
  0
ARC
  5
26E
100
AcDbEntity
  8
noname3
  6
ByLayer
 62
  256
370
   -1
100
AcDbCircle
 10
-116.9754960200978
 20
-16.38991964956277
 40
2
100
AcDbArc
 50
345.0000000082535
 51
75.00000000825331
  0
ARC
  5
26F
100
AcDbEntity
  8
noname3
  6
ByLayer
 62
  256
370
   -1
100
AcDbCircle
 10
8.987710749253086e-15
 20
3.854543617845715
 40
4
100
AcDbArc
 50
14.99999999174666
 51
165.0000000082534
  0
LINE
  5
270
100
AcDbEntity
  8
noname3
  6
ByLayer
 62
  256
370
   -1
100
AcDbLine
 10
3.863703305305411
 20
4.889819797699239
 11
11.59525496122091
 21
-23.96472382014647
  0
ARC
  5
271
100
AcDbEntity
  8
noname3
  6
ByLayer
 62
  256
370
   -1
100
AcDbCircle
 10
7.731551655915511
 20
-25
 40
4
100
AcDbArc
 50
270
 51
14.99999999174668
  0
LINE
  5
272
100
AcDbEntity
  8
noname3
  6
ByLayer
 62
  256
370
   -1
100
AcDbLine
 10
-7.731551655915463
 20
-29
 11
7.731551655915512
 21
-29
  0
LINE
  5
273
100
AcDbEntity
  8
noname3
  6
ByLayer
 62
  256
370
   -1
100
AcDbLine
 10
-3.863703305305394
 20
4.889819797699235
 11
-11.59525496122087
 21
-23.96472382014648
  0
ARC
  5
274
100
AcDbEntity
  8
noname3
  6
ByLayer
 62
  256
370
   -1
100
AcDbCircle
 10
-7.731551655915463
 20
-25
 40
4
100
AcDbArc
 50
165.0000000082534
 51
270
  0
LINE
  5
275
100
AcDbEntity
  8
noname3
  6
ByLayer
 62
  256
370
   -1
100
AcDbLine
 10
83.26546254794759
 20
35.81409018773945
 11
116.9159035802069
 21
44.83069866594971
  0
LINE
  5
276
100
AcDbEntity
  8
noname3
  6
ByLayer
 62
  256
370
   -1
100
AcDbLine
 10
115.916686156979
 20
56.28723547731758
 11
118.3301171437973
 21
47.28018840876081
  0
ARC
  5
277
100
AcDbEntity
  8
noname3
  6
ByLayer
 62
  256
370
   -1
100
AcDbCircle
 10
116.3982654911446
 20
46.76255031883405
 40
2
100
AcDbArc
 50
284.9999999661076
 51
14.99999999174651
  0
LINE
  5
278
100
AcDbEntity
  8
noname3
  6
ByLayer
 62
  256
370
   -1
100
AcDbLine
 10
118.4817588093674
 20
38.98684741672114
 11
84.83131773478866
 21
29.97023901933783
  0
LINE
  5
279
100
AcDbEntity
  8
noname3
  6
ByLayer
 62
  256
370
   -1
100
AcDbLine
 10
120.9312485461456
 20
37.57263385244075
 11
133.1216255616431
 21
-7.922472559029714
  0
ARC
  5
27A
100
AcDbEntity
  8
noname3
  6
ByLayer
 62
  256
370
   -1
100
AcDbCircle
 10
118.9993968934929
 20
37.054995762514
 40
2
100
AcDbArc
 50
14.99999999174662
 51
104.9999998196903
  0
CIRCLE
  5
27B
100
AcDbEntity
  8
noname3
  6
ByLayer
 62
  256
370
   -1
100
AcDbCircle
 10
-47.40006722268911
 20
-16.37174645212945
 40
1.1
  0
CIRCLE
  5
27C
100
AcDbEntity
  8
noname3
  6
ByLayer
 62
  256
370
   -1
100
AcDbCircle
 10
-98.10261096016959
 20
36.65798167345822
 40
1.1
  0
ARC
  5
27D
100
AcDbEntity
  8
noname3
  6
ByLayer
 62
  256
370
   -1
100
AcDbCircle
 10
-58.67156873955302
 20
-9.948086283097002
 40
2
100
AcDbArc
 50
75.00000000825329
 51
165.0000000082534
  0
LINE
  5
27E
100
AcDbEntity
  8
noname3
  6
ByLayer
 62
  256
370
   -1
100
AcDbLine
 10
-62.30515561227797
 20
-15.78141049916868
 11
-60.60342039220573
 21
-9.430448193170243
  0
ARC
  5
27F
100
AcDbEntity
  8
noname3
  6
ByLayer
 62
  256
370
   -1
100
AcDbCircle
 10
-60.37330395962527
 20
-16.29904858909543
 40
2
100
AcDbArc
 50
165.0000000082534
 51
255.0000000082533
  0
LINE
  5
280
100
AcDbEntity
  8
noname3
  6
ByLayer
 62
  256
370
   -1
100
AcDbLine
 10
-60.89094204955203
 20
-18.23090024174814
 11
-36.64620379575197
 21
-24.72725827381462
  0
ARC
  5
281
100
AcDbEntity
  8
noname3
  6
ByLayer
 62
  256
370
   -1
100
AcDbCircle
 10
-36.12856570582521
 20
-22.79540662116191
 40
2
100
AcDbArc
 50
255.0000000082534
 51
345.0000000082534
  0
LINE
  5
282
100
AcDbEntity
  8
noname3
  6
ByLayer
 62
  256
370
   -1
100
AcDbLine
 10
-32.49497883310026
 20
-16.96208240509025
 11
-34.19671405317251
 21
-23.31304471108868
  0
LINE
  5
283
100
AcDbEntity
  8
noname3
  6
ByLayer
 62
  256
370
   -1
100
AcDbLine
 10
-58.15393064962626
 20
-8.016234630444304
 11
-33.9091923958262
 21
-14.51259266251079
  0
ARC
  5
284
100
AcDbEntity
  8
noname3
  6
ByLayer
 62
  256
370
   -1
100
AcDbCircle
 10
-34.42683048575296
 20
-16.44444431516349
 40
2
100
AcDbArc
 50
345.0000000082535
 51
75.00000000825329
  0
ARC
  5
285
100
AcDbEntity
  8
noname3
  6
ByLayer
 62
  256
370
   -1
100
AcDbCircle
 10
-83.78310063700987
 20
33.88223853485511
 40
2
100
AcDbArc
 50
345.0000001803099
 51
75.00000003389275
  0
LINE
  5
286
100
AcDbEntity
  8
noname3
  6
ByLayer
 62
  256
370
   -1
100
AcDbLine
 10
-82.38182799645602
 20
31.38445258941948
 11
-81.8512489828027
 21
33.3646004507296
  0
ARC
  5
287
100
AcDbEntity
  8
noname3
  6
ByLayer
 62
  256
370
   -1
100
AcDbCircle
 10
-84.31367965066316
 20
31.90209067354499
 40
2
100
AcDbArc
 50
255.0000001803101
 51
345.00000018031
  0
LINE
  5
288
100
AcDbEntity
  8
noname3
  6
ByLayer
 62
  256
370
   -1
100
AcDbLine
 10
-83.26546254794759
 20
35.81409018773945
 11
-116.9159035802069
 21
44.83069866594971
  0
LINE
  5
289
100
AcDbEntity
  8
noname3
  6
ByLayer
 62
  256
370
   -1
100
AcDbLine
 10
-115.916686156979
 20
56.28723547731757
 11
-118.3301171437973
 21
47.28018840876081
  0
ARC
  5
28A
100
AcDbEntity
  8
noname3
  6
ByLayer
 62
  256
370
   -1
100
AcDbCircle
 10
-116.3982654911446
 20
46.76255031883407
 40
2
100
AcDbArc
 50
165.0000000082535
 51
255.0000000338924
  0
LINE
  5
28B
100
AcDbEntity
  8
noname3
  6
ByLayer
 62
  256
370
   -1
100
AcDbLine
 10
-118.4817588093674
 20
38.98684741672114
 11
-84.83131773478866
 21
29.97023901933783
  0
LINE
  5
28C
100
AcDbEntity
  8
noname3
  6
ByLayer
 62
  256
370
   -1
100
AcDbLine
 10
-120.9312485461456
 20
37.57263385244077
 11
-133.1216255616431
 21
-7.922472559029714
  0
ARC
  5
28D
100
AcDbEntity
  8
noname3
  6
ByLayer
 62
  256
370
   -1
100
AcDbCircle
 10
-118.9993968934929
 20
37.05499576251398
 40
2
100
AcDbArc
 50
75.00000018030971
 51
165.0000000082534
  0
ARC
  5
28E
100
AcDbEntity
  8
noname4
  6
ByLayer
 62
  256
370
   -1
100
AcDbCircle
 10
-67.07314841275007
 20
12.78863779589461
 40
2
100
AcDbArc
 50
345.0000000082536
 51
75.00000018030973
  0
LINE
  5
28F
100
AcDbEntity
  8
noname4
  6
ByLayer
 62
  256
370
   -1
100
AcDbLine
 10
-72.15529292019166
 20
-13.90559034268003
 11
-65.14129676009738
 21
12.27099970596786
  0
ARC
  5
290
100
AcDbEntity
  8
noname4
  6
ByLayer
 62
  256
370
   -1
100
AcDbCircle
 10
-74.08714457284437
 20
-13.38795225275327
 40
2
100
AcDbArc
 50
255.0000000082533
 51
345.0000000082536
  0
LINE
  5
291
100
AcDbEntity
  8
noname4
  6
ByLayer
 62
  256
370
   -1
100
AcDbLine
 10
-74.60478266277113
 20
-15.31980390540597
 11
-119.4599632860198
 21
-3.300894487979484
  0
ARC
  5
292
100
AcDbEntity
  8
noname4
  6
ByLayer
 62
  256
370
   -1
100
AcDbCircle
 10
-118.9423251960931
 20
-1.369042835326778
 40
2
100
AcDbArc
 50
165.0000000082534
 51
255.0000000082534
  0
LINE
  5
293
100
AcDbEntity
  8
noname4
  6
ByLayer
 62
  256
370
   -1
100
AcDbLine
 10
-113.8601807247436
 20
25.32518516854974
 11
-120.8741768487457
 21
-0.8514047454000178
  0
LINE
  5
294
100
AcDbEntity
  8
noname4
  6
ByLayer
 62
  256
370
   -1
100
AcDbLine
 10
-111.4106909879654
 20
26.73939873283013
 11
-66.55551032862456
 21
14.72048945010175
  0
ARC
  5
295
100
AcDbEntity
  8
noname4
  6
ByLayer
 62
  256
370
   -1
100
AcDbCircle
 10
-111.9283290720909
 20
24.80754707862299
 40
2
100
AcDbArc
 50
75.00000018030974
 51
165.0000000082534
  0
ARC
  5
296
100
AcDbEntity
  8
noname4
  6
ByLayer
 62
  256
370
   -1
100
AcDbCircle
 10
-16.48171299470189
 20
4.16320620614216
 40
2
100
AcDbArc
 50
345.0000000082534
 51
75.00000000825342
  0
LINE
  5
297
100
AcDbEntity
  8
noname4
  6
ByLayer
 62
  256
370
   -1
100
AcDbLine
 10
-14.54986134204919
 20
3.6455681162154
 11
-17.28040227397717
 21
-6.544949379758038
  0
ARC
  5
298
100
AcDbEntity
  8
noname4
  6
ByLayer
 62
  256
370
   -1
100
AcDbCircle
 10
-19.21225392662987
 20
-6.027311289831278
 40
2
100
AcDbArc
 50
255.0000000082534
 51
345.0000000082534
  0
LINE
  5
299
100
AcDbEntity
  8
noname4
  6
ByLayer
 62
  256
370
   -1
100
AcDbLine
 10
-55.56574019999249
 20
1.643023632819213
 11
-19.72989201655663
 21
-7.95916294248398
  0
ARC
  5
29A
100
AcDbEntity
  8
noname4
  6
ByLayer
 62
  256
370
   -1
100
AcDbCircle
 10
-55.04810211006573
 20
3.574875285471917
 40
2
100
AcDbArc
 50
165.0000000082535
 51
255.0000000082533
  0
LINE
  5
29B
100
AcDbEntity
  8
noname4
  6
ByLayer
 62
  256
370
   -1
100
AcDbLine
 10
-56.97995376271843
 20
4.092513375398674
 11
-54.24941283079047
 21
14.28303087137211
  0
LINE
  5
29C
100
AcDbEntity
  8
noname4
  6
ByLayer
 62
  256
370
   -1
100
AcDbLine
 10
-51.799923088211
 20
15.69724443409805
 11
-15.96407490477513
 21
6.095057858794862
  0
ARC
  5
29D
100
AcDbEntity
  8
noname4
  6
ByLayer
 62
  256
370
   -1
100
AcDbCircle
 10
-52.31756117813777
 20
13.76539278144535
 40
2
100
AcDbArc
 50
75.00000000825334
 51
165.0000000082535
  0
ARC
  5
29E
100
AcDbEntity
  8
noname4
  6
ByLayer
 62
  256
370
   -1
100
AcDbCircle
 10
-67.1093914618952
 20
42.01752220284173
 40
2
100
AcDbArc
 50
84.462322143489
 51
165.0000001803101
  0
LINE
  5
29F
100
AcDbEntity
  8
noname4
  6
ByLayer
 62
  256
370
   -1
100
AcDbLine
 10
-72.7225697254203
 20
28.79626216879198
 11
-69.04124311610236
 21
42.53516028696723
  0
ARC
  5
2A0
100
AcDbEntity
  8
noname4
  6
ByLayer
 62
  256
370
   -1
100
AcDbCircle
 10
-70.79071807121316
 20
28.27862408466648
 40
2
100
AcDbArc
 50
165.00000018031
 51
255.0000001803101
  0
LINE
  5
2A1
100
AcDbEntity
  8
noname4
  6
ByLayer
 62
  256
370
   -1
100
AcDbLine
 10
-71.30835615533866
 20
26.34677243045934
 11
-51.84495080127633
 21
21.13156874952777
  0
ARC
  5
2A2
100
AcDbEntity
  8
noname4
  6
ByLayer
 62
  256
370
   -1
100
AcDbCircle
 10
-51.32731271715082
 20
23.06342040373491
 40
2
100
AcDbArc
 50
255.0000001803099
 51
344.9999997422038
  0
LINE
  5
2A3
100
AcDbEntity
  8
noname4
  6
ByLayer
 62
  256
370
   -1
100
AcDbLine
 10
-44.84493373134446
 20
39.52858121671947
 11
-49.39546106690175
 21
22.54578230483772
  0
LINE
  5
2A4
100
AcDbEntity
  8
noname4
  6
ByLayer
 62
  256
370
   -1
100
AcDbLine
 10
-46.583784767737
 20
42.03688522506782
 11
-66.91639084803866
 21
44.00818811229288
  0
ARC
  5
2A5
100
AcDbEntity
  8
noname4
  6
ByLayer
 62
  256
370
   -1
100
AcDbCircle
 10
-46.77678538159354
 20
40.04621931561667
 40
2
100
AcDbArc
 50
344.9999997422038
 51
84.462322143489
  0
ARC
  5
2A6
100
AcDbEntity
  8
noname4
  6
ByLayer
 62
  256
370
   -1
100
AcDbCircle
 10
2.782496455466799e-15
 20
23.08281903978065
 40
10
100
AcDbArc
 50
255.0000000082533
 51
284.9999999917467
  0
ARC
  5
2A7
100
AcDbEntity
  8
noname4
  6
ByLayer
 62
  256
370
   -1
100
AcDbCircle
 10
-7.790656318446287
 20
30.99630130899092
 40
5
100
AcDbArc
 50
89.99999999999996
 51
164.9999997422035
  0
LINE
  5
2A8
100
AcDbEntity
  8
noname4
  6
ByLayer
 62
  256
370
   -1
100
AcDbLine
 10
-7.790656318446284
 20
35.99630130899092
 11
7.790656318446293
 21
35.99630130899091
  0
ARC
  5
2A9
100
AcDbEntity
  8
noname4
  6
ByLayer
 62
  256
370
   -1
100
AcDbCircle
 10
7.790656318446289
 20
30.99630130899091
 40
5
100
AcDbArc
 50
15.00000025779648
 51
89.99999999999996
  0
LINE
  5
2AA
100
AcDbEntity
  8
noname4
  6
ByLayer
 62
  256
370
   -1
100
AcDbLine
 10
-2.588190449633814
 20
13.42356077651715
 11
-11.83534236536411
 21
15.90132766319733
  0
LINE
  5
2AB
100
AcDbEntity
  8
noname4
  6
ByLayer
 62
  256
370
   -1
100
AcDbLine
 10
-12.62028544406898
 20
32.29039655623394
 11
-15.3708762661699
 21
22.0250520420721
  0
ARC
  5
2AC
100
AcDbEntity
  8
noname4
  6
ByLayer
 62
  256
370
   -1
100
AcDbCircle
 10
-10.5412471405472
 20
20.73095679482908
 40
5
100
AcDbArc
 50
164.9999997422036
 51
255.0000000082533
  0
LINE
  5
2AD
100
AcDbEntity
  8
noname4
  6
ByLayer
 62
  256
370
   -1
100
AcDbLine
 10
2.588190449633819
 20
13.42356077651715
 11
11.83534236536411
 21
15.90132766319733
  0
LINE
  5
2AE
100
AcDbEntity
  8
noname4
  6
ByLayer
 62
  256
370
   -1
100
AcDbLine
 10
12.62028544406898
 20
32.29039655623394
 11
15.3708762661699
 21
22.0250520420721
  0
ARC
  5
2AF
100
AcDbEntity
  8
noname4
  6
ByLayer
 62
  256
370
   -1
100
AcDbCircle
 10
10.5412471405472
 20
20.73095679482908
 40
5
100
AcDbArc
 50
284.9999999917467
 51
15.00000025779643
  0
ARC
  5
2B0
100
AcDbEntity
  8
noname4
  6
ByLayer
 62
  256
370
   -1
100
AcDbCircle
 10
67.07314841275007
 20
12.78863779589462
 40
2
100
AcDbArc
 50
104.9999998196903
 51
194.9999999917465
  0
LINE
  5
2B1
100
AcDbEntity
  8
noname4
  6
ByLayer
 62
  256
370
   -1
100
AcDbLine
 10
72.15529292019166
 20
-13.90559034268003
 11
65.14129676009738
 21
12.27099970596788
  0
ARC
  5
2B2
100
AcDbEntity
  8
noname4
  6
ByLayer
 62
  256
370
   -1
100
AcDbCircle
 10
74.08714457284437
 20
-13.38795225275326
 40
2
100
AcDbArc
 50
194.9999999917465
 51
284.9999999917467
  0
LINE
  5
2B3
100
AcDbEntity
  8
noname4
  6
ByLayer
 62
  256
370
   -1
100
AcDbLine
 10
74.60478266277113
 20
-15.31980390540598
 11
119.4599632860198
 21
-3.300894487979498
  0
ARC
  5
2B4
100
AcDbEntity
  8
noname4
  6
ByLayer
 62
  256
370
   -1
100
AcDbCircle
 10
118.9423251960931
 20
-1.369042835326755
 40
2
100
AcDbArc
 50
284.9999999917466
 51
14.99999999174662
  0
LINE
  5
2B5
100
AcDbEntity
  8
noname4
  6
ByLayer
 62
  256
370
   -1
100
AcDbLine
 10
113.8601807247436
 20
25.32518516854979
 11
120.8741768487457
 21
-0.8514047454000178
  0
LINE
  5
2B6
100
AcDbEntity
  8
noname4
  6
ByLayer
 62
  256
370
   -1
100
AcDbLine
 10
111.4106909879654
 20
26.73939873283015
 11
66.55551032862456
 21
14.72048945010175
  0
ARC
  5
2B7
100
AcDbEntity
  8
noname4
  6
ByLayer
 62
  256
370
   -1
100
AcDbCircle
 10
111.9283290720909
 20
24.80754707862296
 40
2
100
AcDbArc
 50
14.9999999917466
 51
104.9999998196903
  0
ARC
  5
2B8
100
AcDbEntity
  8
noname4
  6
ByLayer
 62
  256
370
   -1
100
AcDbCircle
 10
16.48171299470189
 20
4.163206206142167
 40
2
100
AcDbArc
 50
104.9999999917466
 51
194.9999999917466
  0
LINE
  5
2B9
100
AcDbEntity
  8
noname4
  6
ByLayer
 62
  256
370
   -1
100
AcDbLine
 10
14.54986134204919
 20
3.645568116215402
 11
17.28040227397717
 21
-6.544949379758065
  0
ARC
  5
2BA
100
AcDbEntity
  8
noname4
  6
ByLayer
 62
  256
370
   -1
100
AcDbCircle
 10
19.21225392662987
 20
-6.027311289831271
 40
2
100
AcDbArc
 50
194.9999999917466
 51
284.9999999917466
  0
LINE
  5
2BB
100
AcDbEntity
  8
noname4
  6
ByLayer
 62
  256
370
   -1
100
AcDbLine
 10
55.56574019999249
 20
1.643023632819203
 11
19.72989201655663
 21
-7.95916294248399
  0
ARC
  5
2BC
100
AcDbEntity
  8
noname4
  6
ByLayer
 62
  256
370
   -1
100
AcDbCircle
 10
55.04810211006573
 20
3.57487528547192
 40
2
100
AcDbArc
 50
284.9999999917467
 51
14.99999999174649
  0
LINE
  5
2BD
100
AcDbEntity
  8
noname4
  6
ByLayer
 62
  256
370
   -1
100
AcDbLine
 10
56.97995376271843
 20
4.09251337539866
 11
54.24941283079047
 21
14.28303087137213
  0
LINE
  5
2BE
100
AcDbEntity
  8
noname4
  6
ByLayer
 62
  256
370
   -1
100
AcDbLine
 10
51.799923088211
 20
15.69724443409808
 11
15.96407490477513
 21
6.095057858794858
  0
ARC
  5
2BF
100
AcDbEntity
  8
noname4
  6
ByLayer
 62
  256
370
   -1
100
AcDbCircle
 10
52.31756117813777
 20
13.76539278144536
 40
2
100
AcDbArc
 50
14.99999999174655
 51
104.9999999917467
  0
ARC
  5
2C0
100
AcDbEntity
  8
noname4
  6
ByLayer
 62
  256
370
   -1
100
AcDbCircle
 10
67.1093914618952
 20
42.01752220284171
 40
2
100
AcDbArc
 50
14.99999981968994
 51
95.537677856511
  0
LINE
  5
2C1
100
AcDbEntity
  8
noname4
  6
ByLayer
 62
  256
370
   -1
100
AcDbLine
 10
72.7225697254203
 20
28.79626216879199
 11
69.04124311610236
 21
42.53516028696723
  0
ARC
  5
2C2
100
AcDbEntity
  8
noname4
  6
ByLayer
 62
  256
370
   -1
100
AcDbCircle
 10
70.79071807121316
 20
28.27862408466647
 40
2
100
AcDbArc
 50
284.9999998196899
 51
14.99999981969004
  0
LINE
  5
2C3
100
AcDbEntity
  8
noname4
  6
ByLayer
 62
  256
370
   -1
100
AcDbLine
 10
71.30835615533866
 20
26.34677243045934
 11
51.84495080127633
 21
21.13156874952775
  0
ARC
  5
2C4
100
AcDbEntity
  8
noname4
  6
ByLayer
 62
  256
370
   -1
100
AcDbCircle
 10
51.32731271715082
 20
23.06342040373491
 40
2
100
AcDbArc
 50
195.0000002577962
 51
284.9999998196901
  0
LINE
  5
2C5
100
AcDbEntity
  8
noname4
  6
ByLayer
 62
  256
370
   -1
100
AcDbLine
 10
44.84493373134446
 20
39.52858121671948
 11
49.39546106690175
 21
22.54578230483769
  0
LINE
  5
2C6
100
AcDbEntity
  8
noname4
  6
ByLayer
 62
  256
370
   -1
100
AcDbLine
 10
46.583784767737
 20
42.03688522506782
 11
66.91639084803866
 21
44.00818811229289
  0
ARC
  5
2C7
100
AcDbEntity
  8
noname4
  6
ByLayer
 62
  256
370
   -1
100
AcDbCircle
 10
46.77678538159354
 20
40.04621931561667
 40
2
100
AcDbArc
 50
95.537677856511
 51
195.0000002577962
  0
ARC
  5
2C8
100
AcDbEntity
  8
noname4
  6
ByLayer
 62
  256
370
   -1
100
AcDbCircle
 10
17.84381736012464
 20
-36
 40
2
100
AcDbArc
 50
0
 51
90
  0
LINE
  5
2C9
100
AcDbEntity
  8
noname4
  6
ByLayer
 62
  256
370
   -1
100
AcDbLine
 10
19.84381736012464
 20
-42.84351652652703
 11
19.84381736012464
 21
-36
  0
ARC
  5
2CA
100
AcDbEntity
  8
noname4
  6
ByLayer
 62
  256
370
   -1
100
AcDbCircle
 10
17.84381736012464
 20
-42.84351652652703
 40
2
100
AcDbArc
 50
270.0000000000001
 51
0
  0
LINE
  5
2CB
100
AcDbEntity
  8
noname4
  6
ByLayer
 62
  256
370
   -1
100
AcDbLine
 10
-17.84381736012472
 20
-44.84351652652702
 11
17.84381736012464
 21
-44.84351652652703
  0
ARC
  5
2CC
100
AcDbEntity
  8
noname4
  6
ByLayer
 62
  256
370
   -1
100
AcDbCircle
 10
-17.84381736012472
 20
-42.84351652652702
 40
2
100
AcDbArc
 50
180
 51
270
  0
LINE
  5
2CD
100
AcDbEntity
  8
noname4
  6
ByLayer
 62
  256
370
   -1
100
AcDbLine
 10
-19.84381736012472
 20
-42.84351652652702
 11
-19.84381736012472
 21
-36
  0
LINE
  5
2CE
100
AcDbEntity
  8
noname4
  6
ByLayer
 62
  256
370
   -1
100
AcDbLine
 10
-17.84381736012472
 20
-34
 11
17.84381736012464
 21
-34
  0
ARC
  5
2CF
100
AcDbEntity
  8
noname4
  6
ByLayer
 62
  256
370
   -1
100
AcDbCircle
 10
-17.84381736012472
 20
-36
 40
2
100
AcDbArc
 50
90
 51
180
  0
ARC
  5
2D0
100
AcDbEntity
  8
noname5
  6
ByLayer
 62
  256
370
   -1
100
AcDbCircle
 10
-114.0496494185116
 20
28.4817816837903
 40
4
100
AcDbArc
 50
75.00000018030988
 51
165.0000000082534
  0
LINE
  5
2D1
100
AcDbEntity
  8
noname5
  6
ByLayer
 62
  256
370
   -1
100
AcDbLine
 10
-117.913352723817
 20
29.51705786364382
 11
-126.4802631152677
 21
-2.455086999562162
  0
ARC
  5
2D2
100
AcDbEntity
  8
noname5
  6
ByLayer
 62
  256
370
   -1
100
AcDbCircle
 10
-122.6165598099623
 20
-3.490363179415685
 40
4
100
AcDbArc
 50
165.0000000082535
 51
255.0000000082533
  0
LINE
  5
2D3
100
AcDbEntity
  8
noname5
  6
ByLayer
 62
  256
370
   -1
100
AcDbLine
 10
-112.2659852263751
 20
-10.40489600016845
 11
-123.6518359898158
 21
-7.354066484721081
  0
ARC
  5
2D4
100
AcDbEntity
  8
noname5
  6
ByLayer
 62
  256
370
   -1
100
AcDbCircle
 10
-113.3012614062286
 20
-14.26859930547385
 40
4
100
AcDbArc
 50
345.0000000082541
 51
75.00000000825332
  0
LINE
  5
2D5
100
AcDbEntity
  8
noname5
  6
ByLayer
 62
  256
370
   -1
100
AcDbLine
 10
-109.9001971506881
 20
-17.03046792561011
 11
-109.4375581009232
 21
-15.30387548532732
  0
ARC
  5
2D6
100
AcDbEntity
  8
noname5
  6
ByLayer
 62
  256
370
   -1
100
AcDbCircle
 10
-106.0364938453827
 20
-18.06574410546359
 40
4
100
AcDbArc
 50
165.0000000082542
 51
255.0000000082533
  0
ARC
  5
2D7
100
AcDbEntity
  8
noname5
  6
ByLayer
 62
  256
370
   -1
100
AcDbCircle
 10
-64.04753857349448
 20
-18.42036893318436
 40
4
100
AcDbArc
 50
165.0000000082534
 51
255.0000000082535
  0
ARC
  5
2D8
100
AcDbEntity
  8
noname5
  6
ByLayer
 62
  256
370
   -1
100
AcDbCircle
 10
-69.34941107579425
 20
45.24876514018958
 40
4
100
AcDbArc
 50
84.46232214348903
 51
165.0000001803101
  0
LINE
  5
2D9
100
AcDbEntity
  8
noname5
  6
ByLayer
 62
  256
370
   -1
100
AcDbLine
 10
-78.32865598712641
 20
27.19257989779501
 11
-73.21311438420851
 21
46.28404130844056
  0
LINE
  5
2DA
100
AcDbEntity
  8
noname5
  6
ByLayer
 62
  256
370
   -1
100
AcDbLine
 10
-113.0143732502606
 20
32.34548499220458
 11
-83.2276354637917
 21
24.36415275763172
  0
ARC
  5
2DB
100
AcDbEntity
  8
noname5
  6
ByLayer
 62
  256
370
   -1
100
AcDbCircle
 10
-82.1923592955407
 20
28.22785606604601
 40
4
100
AcDbArc
 50
255.0000001803099
 51
345.00000018031
  0
LINE
  5
2DC
100
AcDbEntity
  8
ext1
  6
ByLayer
 62
  256
370
   -1
100
AcDbLine
 10
-66.96390303182342
 20
77.44469816468985
 11
-68.92053123172695
 21
57.26345118734178
  0
LINE
  5
2DD
100
AcDbEntity
  8
ext1
  6
ByLayer
 62
  256
370
   -1
100
AcDbLine
 10
-112.4399068364304
 20
61.48277607078094
 11
-68.92053123172695
 21
57.26345118734178
  0
LINE
  5
2DE
100
AcDbEntity
  8
ext1
  6
ByLayer
 62
  256
370
   -1
100
AcDbLine
 10
-66.96390303182342
 20
77.44469816468985
 11
-5.587167075575948
 21
77.44469816468985
  0
LINE
  5
2DF
100
AcDbEntity
  8
ext1
  6
ByLayer
 62
  256
370
   -1
100
AcDbLine
 10
-8.709424870382634
 20
65.79227343342933
 11
-5.587167075575948
 21
77.44469816468985
  0
LINE
  5
2E0
100
AcDbEntity
  8
ext1
  6
ByLayer
 62
  256
370
   -1
100
AcDbLine
 10
-8.709424870382634
 20
65.79227343342933
 11
31.96449171839951
 21
54.89373033673398
  0
LINE
  5
2E1
100
AcDbEntity
  8
noname3
  6
ByLayer
 62
  256
370
   -1
100
AcDbLine
 10
-65.1484307543666
 20
75.44469816468985
 11
-8.193617820869665
 21
75.44469816468985
  0
LINE
  5
2E2
100
AcDbEntity
  8
noname3
  6
ByLayer
 62
  256
370
   -1
100
AcDbLine
 10
-9.485882005272799
 20
62.89449595445026
 11
31.18803458350936
 21
51.99595285775492
  0
LINE
  5
2E3
100
AcDbEntity
  8
noname3
  6
ByLayer
 62
  256
370
   -1
100
AcDbLine
 10
-10.90009556799874
 20
65.34398569702972
 11
-8.193617820869665
 21
75.44469816468985
  0
ARC
  5
2E4
100
AcDbEntity
  8
noname3
  6
ByLayer
 62
  256
370
   -1
100
AcDbCircle
 10
-8.96824391534604
 20
64.82634760710296
 40
2
100
AcDbArc
 50
165.0000000082534
 51
255.0000000082534
  0
LINE
  5
2E5
100
AcDbEntity
  8
noname3
  6
ByLayer
 62
  256
370
   -1
100
AcDbLine
 10
-69.21003215251177
 20
54.27745232316505
 11
-112.7294077572152
 21
58.49677720660422
  0
LINE
  5
2E6
100
AcDbEntity
  8
noname3
  6
ByLayer
 62
  256
370
   -1
100
AcDbLine
 10
-65.1484307543666
 20
75.44469816468985
 11
-67.02636562920408
 21
56.07511761875965
  0
ARC
  5
2E7
100
AcDbEntity
  8
noname3
  6
ByLayer
 62
  256
370
   -1
100
AcDbCircle
 10
-69.01703153865523
 20
56.2681182326162
 40
2
100
AcDbArc
 50
264.462322143489
 51
354.4623221434888
  0
LINE
  5
2E8
100
AcDbEntity
  8
noname5
  6
ByLayer
 62
  256
370
   -1
100
AcDbLine
 10
-22.84926114149869
 20
44.75920158403809
 11
-68.96340984808117
 21
49.2300969590919
  0
ARC
  5
2E9
100
AcDbEntity
  8
noname5
  6
ByLayer
 62
  256
370
   -1
100
AcDbCircle
 10
-23.23526236921185
 20
40.77786976513578
 40
4
100
AcDbArc
 50
345.0000000082533
 51
84.4623221434878
  0
LINE
  5
2EA
100
AcDbEntity
  8
noname5
  6
ByLayer
 62
  256
370
   -1
100
AcDbLine
 10
-31.57982099115578
 20
-5.819260225573636
 11
-19.37155906390644
 21
39.74259358528225
  0
ARC
  5
2EB
100
AcDbEntity
  8
noname5
  6
ByLayer
 62
  256
370
   -1
100
AcDbCircle
 10
-35.44352429646118
 20
-4.783984045720116
 40
4
100
AcDbArc
 50
255.0000000082534
 51
345.0000000082534
  0
LINE
  5
2EC
100
AcDbEntity
  8
noname5
  6
ByLayer
 62
  256
370
   -1
100
AcDbLine
 10
-67.91124187879987
 20
-17.38509275333084
 11
-64.65659238894735
 21
-5.238575489374293
  0
LINE
  5
2ED
100
AcDbEntity
  8
noname5
  6
ByLayer
 62
  256
370
   -1
100
AcDbLine
 10
-59.75761290378841
 20
-2.41014836392241
 11
-36.4788004763147
 21
-8.647687351025517
  0
ARC
  5
2EE
100
AcDbEntity
  8
noname5
  6
ByLayer
 62
  256
370
   -1
100
AcDbCircle
 10
-60.79288908364193
 20
-6.273851669227813
 40
4
100
AcDbArc
 50
75.00000000825342
 51
165.0000000082535
  0
LINE
  5
2EF
100
AcDbEntity
  8
noname5
  6
ByLayer
 62
  256
370
   -1
100
AcDbLine
 10
-65.08281475334799
 20
-22.28407223848975
 11
-41.8040023258743
 21
-28.52161122559285
  0
ARC
  5
2F0
100
AcDbEntity
  8
noname5
  6
ByLayer
 62
  256
370
   -1
100
AcDbCircle
 10
-42.83927850572782
 20
-32.38531453089826
 40
4
100
AcDbArc
 50
345.0000000082534
 51
75.00000000825344
  0
LINE
  5
2F1
100
AcDbEntity
  8
noname5
  6
ByLayer
 62
  256
370
   -1
100
AcDbLine
 10
-39.62909329483745
 20
-35.85955344417959
 11
-38.97557520042241
 21
-33.42059071075177
  0
LINE
  5
2F2
100
AcDbEntity
  8
noname5
  6
ByLayer
 62
  256
370
   -1
100
AcDbLine
 10
-107.0717700252362
 20
-21.92944741076899
 11
-44.52807277999638
 21
-38.68798056963146
  0
ARC
  5
2F3
100
AcDbEntity
  8
noname5
  6
ByLayer
 62
  256
370
   -1
100
AcDbCircle
 10
-43.49279660014285
 20
-34.82427726432606
 40
4
100
AcDbArc
 50
255.0000000082532
 51
345.0000000082533
  0
ARC
  5
2F4
100
AcDbEntity
  8
noname5
  6
ByLayer
 62
  256
370
   -1
100
AcDbCircle
 10
114.0496494185116
 20
28.48178168379034
 40
4
100
AcDbArc
 50
14.9999999917466
 51
104.9999998196901
  0
LINE
  5
2F5
100
AcDbEntity
  8
noname5
  6
ByLayer
 62
  256
370
   -1
100
AcDbLine
 10
117.913352723817
 20
29.51705786364381
 11
126.4802631152677
 21
-2.455086999562177
  0
ARC
  5
2F6
100
AcDbEntity
  8
noname5
  6
ByLayer
 62
  256
370
   -1
100
AcDbCircle
 10
122.6165598099623
 20
-3.490363179415677
 40
4
100
AcDbArc
 50
284.9999999917467
 51
14.99999999174652
  0
LINE
  5
2F7
100
AcDbEntity
  8
noname5
  6
ByLayer
 62
  256
370
   -1
100
AcDbLine
 10
112.2659852263751
 20
-10.40489600016845
 11
123.6518359898158
 21
-7.354066484721038
  0
ARC
  5
2F8
100
AcDbEntity
  8
noname5
  6
ByLayer
 62
  256
370
   -1
100
AcDbCircle
 10
113.3012614062286
 20
-14.26859930547383
 40
4
100
AcDbArc
 50
104.9999999917467
 51
194.9999999917459
  0
LINE
  5
2F9
100
AcDbEntity
  8
noname5
  6
ByLayer
 62
  256
370
   -1
100
AcDbLine
 10
109.9001971506881
 20
-17.03046792561011
 11
109.4375581009232
 21
-15.30387548532736
  0
ARC
  5
2FA
100
AcDbEntity
  8
noname5
  6
ByLayer
 62
  256
370
   -1
100
AcDbCircle
 10
106.0364938453827
 20
-18.06574410546357
 40
4
100
AcDbArc
 50
284.9999999917467
 51
14.99999999174581
  0
ARC
  5
2FB
100
AcDbEntity
  8
noname5
  6
ByLayer
 62
  256
370
   -1
100
AcDbCircle
 10
64.04753857349448
 20
-18.42036893318437
 40
4
100
AcDbArc
 50
284.9999999917465
 51
14.99999999174662
  0
ARC
  5
2FC
100
AcDbEntity
  8
noname5
  6
ByLayer
 62
  256
370
   -1
100
AcDbCircle
 10
69.34941107579425
 20
45.2487651401896
 40
4
100
AcDbArc
 50
14.99999981968988
 51
95.53767785651097
  0
LINE
  5
2FD
100
AcDbEntity
  8
noname5
  6
ByLayer
 62
  256
370
   -1
100
AcDbLine
 10
78.32865598712641
 20
27.19257989779501
 11
73.21311438420851
 21
46.28404130844059
  0
LINE
  5
2FE
100
AcDbEntity
  8
noname5
  6
ByLayer
 62
  256
370
   -1
100
AcDbLine
 10
113.0143732502606
 20
32.3454849922046
 11
83.2276354637917
 21
24.36415275763174
  0
ARC
  5
2FF
100
AcDbEntity
  8
noname5
  6
ByLayer
 62
  256
370
   -1
100
AcDbCircle
 10
82.1923592955407
 20
28.22785606604599
 40
4
100
AcDbArc
 50
194.99999981969
 51
284.9999998196901
  0
LINE
  5
300
100
AcDbEntity
  8
noname5
  6
ByLayer
 62
  256
370
   -1
100
AcDbLine
 10
22.84926114149869
 20
44.75920158403805
 11
68.96340984808117
 21
49.23009695909189
  0
ARC
  5
301
100
AcDbEntity
  8
noname5
  6
ByLayer
 62
  256
370
   -1
100
AcDbCircle
 10
23.23526236921185
 20
40.7778697651358
 40
4
100
AcDbArc
 50
95.5376778565122
 51
194.9999999917467
  0
LINE
  5
302
100
AcDbEntity
  8
noname5
  6
ByLayer
 62
  256
370
   -1
100
AcDbLine
 10
31.57982099115578
 20
-5.819260225573622
 11
19.37155906390644
 21
39.74259358528222
  0
ARC
  5
303
100
AcDbEntity
  8
noname5
  6
ByLayer
 62
  256
370
   -1
100
AcDbCircle
 10
35.44352429646118
 20
-4.783984045720119
 40
4
100
AcDbArc
 50
194.9999999917466
 51
284.9999999917466
  0
LINE
  5
304
100
AcDbEntity
  8
noname5
  6
ByLayer
 62
  256
370
   -1
100
AcDbLine
 10
67.91124187879987
 20
-17.38509275333084
 11
64.65659238894735
 21
-5.238575489374304
  0
LINE
  5
305
100
AcDbEntity
  8
noname5
  6
ByLayer
 62
  256
370
   -1
100
AcDbLine
 10
59.75761290378841
 20
-2.410148363922424
 11
36.4788004763147
 21
-8.647687351025532
  0
ARC
  5
306
100
AcDbEntity
  8
noname5
  6
ByLayer
 62
  256
370
   -1
100
AcDbCircle
 10
60.79288908364193
 20
-6.273851669227806
 40
4
100
AcDbArc
 50
14.99999999174655
 51
104.9999999917466
  0
LINE
  5
307
100
AcDbEntity
  8
noname5
  6
ByLayer
 62
  256
370
   -1
100
AcDbLine
 10
65.08281475334799
 20
-22.28407223848976
 11
41.8040023258743
 21
-28.52161122559285
  0
ARC
  5
308
100
AcDbEntity
  8
noname5
  6
ByLayer
 62
  256
370
   -1
100
AcDbCircle
 10
42.83927850572782
 20
-32.38531453089824
 40
4
100
AcDbArc
 50
104.9999999917466
 51
194.9999999917466
  0
LINE
  5
309
100
AcDbEntity
  8
noname5
  6
ByLayer
 62
  256
370
   -1
100
AcDbLine
 10
39.62909329483745
 20
-35.85955344417959
 11
38.97557520042241
 21
-33.42059071075177
  0
LINE
  5
30A
100
AcDbEntity
  8
noname5
  6
ByLayer
 62
  256
370
   -1
100
AcDbLine
 10
107.0717700252362
 20
-21.92944741076901
 11
44.52807277999638
 21
-38.68798056963146
  0
ARC
  5
30B
100
AcDbEntity
  8
noname5
  6
ByLayer
 62
  256
370
   -1
100
AcDbCircle
 10
43.49279660014285
 20
-34.82427726432606
 40
4
100
AcDbArc
 50
194.9999999917467
 51
284.9999999917468
  0
LINE
  5
30C
100
AcDbEntity
  8
ext2
  6
ByLayer
 62
  256
370
   -1
100
AcDbLine
 10
-12.50377782216085
 20
70.95007196355162
 11
32.99976789825303
 21
58.75743364203939
  0
ARC
  5
30D
100
AcDbEntity
  8
ext2
  6
ByLayer
 62
  256
370
   -1
100
AcDbCircle
 10
-14.31551113690452
 20
64.18859117926718
 40
7
100
AcDbArc
 50
75.00000000825334
 51
164.9999947667472
  0
ARC
  5
30E
100
AcDbEntity
  8
ext2
  6
ByLayer
 62
  256
370
   -1
100
AcDbCircle
 10
-113.018908678
 20
55.51077834242747
 40
10
100
AcDbArc
 50
84.46232214348895
 51
165.0000000082534
  0
LINE
  5
30F
100
AcDbEntity
  8
ext2
  6
ByLayer
 62
  256
370
   -1
100
AcDbLine
 10
-122.6781669412634
 20
58.09896879206128
 11
-142.157478710436
 21
-14.59881246885321
  0
ARC
  5
310
100
AcDbEntity
  8
ext2
  6
ByLayer
 62
  256
370
   -1
100
AcDbCircle
 10
-132.4982204471726
 20
-17.187002918487
 40
10
100
AcDbArc
 50
165.0000000082536
 51
255.0000000082533
  0
LINE
  5
311
100
AcDbEntity
  8
ext2
  6
ByLayer
 62
  256
370
   -1
100
AcDbLine
 10
-135.0864108968064
 20
-26.8462611817505
 11
-26.31429348420922
 21
-55.99166218468578
  0
ARC
  5
312
100
AcDbEntity
  8
ext2
  6
ByLayer
 62
  256
370
   -1
100
AcDbCircle
 10
-19.84381736012472
 20
-31.84351652652702
 40
25
100
AcDbArc
 50
255.0000000082534
 51
270
  0
LINE
  5
313
100
AcDbEntity
  8
ext2
  6
ByLayer
 62
  256
370
   -1
100
AcDbLine
 10
-19.84381736012472
 20
-56.84351652652702
 11
19.84381736012464
 21
-56.84351652652703
  0
ARC
  5
314
100
AcDbEntity
  8
ext2
  6
ByLayer
 62
  256
370
   -1
100
AcDbCircle
 10
19.84381736012465
 20
-31.84351652652703
 40
25
100
AcDbArc
 50
270
 51
284.9999999917466
  0
LINE
  5
315
100
AcDbEntity
  8
ext2
  6
ByLayer
 62
  256
370
   -1
100
AcDbLine
 10
135.0864108968064
 20
-26.84626118175054
 11
26.31429348420916
 21
-55.99166218468581
  0
ARC
  5
316
100
AcDbEntity
  8
ext2
  6
ByLayer
 62
  256
370
   -1
100
AcDbCircle
 10
132.4982204471726
 20
-17.18700291848701
 40
10
100
AcDbArc
 50
284.9999999917467
 51
14.99999999174672
  0
LINE
  5
317
100
AcDbEntity
  8
ext2
  6
ByLayer
 62
  256
370
   -1
100
AcDbLine
 10
122.6781669412634
 20
58.09896879206124
 11
142.157478710436
 21
-14.59881246885321
  0
ARC
  5
318
100
AcDbEntity
  8
ext2
  6
ByLayer
 62
  256
370
   -1
100
AcDbCircle
 10
113.018908678
 20
55.51077834242747
 40
10
100
AcDbArc
 50
14.99999999174662
 51
95.53767785651107
  0
LINE
  5
319
100
AcDbEntity
  8
ext2
  6
ByLayer
 62
  256
370
   -1
100
AcDbLine
 10
38.32955817662783
 20
58.31632671605098
 11
112.0539056087173
 21
65.46410788968325
  0
ARC
  5
31A
100
AcDbEntity
  8
ext2
  6
ByLayer
 62
  256
370
   -1
100
AcDbCircle
 10
36.88205357270374
 20
73.24632103693465
 40
15
100
AcDbArc
 50
255.0000000082534
 51
275.5376778565112
  0
LINE
  5
31B
100
AcDbEntity
  8
ext3
  6
ByLayer
 62
  256
370
   -1
100
AcDbLine
 10
38.23305786969956
 20
59.31165967077656
 11
111.9574053017889
 21
66.45944084440883
  0
ARC
  5
31C
100
AcDbEntity
  8
ext3
  6
ByLayer
 62
  256
370
   -1
100
AcDbCircle
 10
113.018908678
 20
55.51077834242747
 40
11
100
AcDbArc
 50
14.99999999174662
 51
95.53767785651107
  0
LINE
  5
31D
100
AcDbEntity
  8
ext3
  6
ByLayer
 62
  256
370
   -1
100
AcDbLine
 10
123.6440927675898
 20
58.35778783702462
 11
143.1234045367624
 21
-14.33999342388983
  0
ARC
  5
31E
100
AcDbEntity
  8
ext3
  6
ByLayer
 62
  256
370
   -1
100
AcDbCircle
 10
132.4982204471726
 20
-17.18700291848701
 40
11
100
AcDbArc
 50
284.9999999917467
 51
14.99999999174672
  0
LINE
  5
31F
100
AcDbEntity
  8
ext3
  6
ByLayer
 62
  256
370
   -1
100
AcDbLine
 10
135.3452299417698
 20
-27.81218700807689
 11
26.57311252917254
 21
-56.95758801101216
  0
LINE
  5
320
100
AcDbEntity
  8
ext3
  6
ByLayer
 62
  256
370
   -1
100
AcDbLine
 10
-19.84381736012472
 20
-57.84351652652702
 11
19.84381736012464
 21
-57.84351652652703
  0
ARC
  5
321
100
AcDbEntity
  8
ext3
  6
ByLayer
 62
  256
370
   -1
100
AcDbCircle
 10
19.84381736012465
 20
-31.84351652652703
 40
26
100
AcDbArc
 50
270
 51
284.9999999917466
  0
LINE
  5
322
100
AcDbEntity
  8
ext3
  6
ByLayer
 62
  256
370
   -1
100
AcDbLine
 10
-135.3452299417698
 20
-27.81218700807685
 11
-26.57311252917261
 21
-56.95758801101213
  0
ARC
  5
323
100
AcDbEntity
  8
ext3
  6
ByLayer
 62
  256
370
   -1
100
AcDbCircle
 10
-19.84381736012472
 20
-31.84351652652702
 40
26
100
AcDbArc
 50
255.0000000082534
 51
270
  0
ARC
  5
324
100
AcDbEntity
  8
ext3
  6
ByLayer
 62
  256
370
   -1
100
AcDbCircle
 10
-132.4982204471726
 20
-17.187002918487
 40
11
100
AcDbArc
 50
165.0000000082536
 51
255.0000000082533
  0
LINE
  5
325
100
AcDbEntity
  8
ext3
  6
ByLayer
 62
  256
370
   -1
100
AcDbLine
 10
-123.6440927675898
 20
58.35778783702466
 11
-143.1234045367624
 21
-14.33999342388983
  0
ARC
  5
326
100
AcDbEntity
  8
ext3
  6
ByLayer
 62
  256
370
   -1
100
AcDbCircle
 10
-113.018908678
 20
55.51077834242747
 40
11
100
AcDbArc
 50
84.46232214348895
 51
165.0000000082534
  0
ARC
  5
327
100
AcDbEntity
  8
ext3
  6
ByLayer
 62
  256
370
   -1
100
AcDbCircle
 10
-14.31551113690452
 20
64.18859117926718
 40
8
100
AcDbArc
 50
75.00000000825334
 51
164.9999947667472
  0
LINE
  5
328
100
AcDbEntity
  8
ext3
  6
ByLayer
 62
  256
370
   -1
100
AcDbLine
 10
-12.24495877719747
 20
71.91599778987798
 11
33.25858694321641
 21
59.72335946836574
  0
ARC
  5
329
100
AcDbEntity
  8
ext3
  6
ByLayer
 62
  256
370
   -1
100
AcDbCircle
 10
36.88205357270374
 20
73.24632103693465
 40
14
100
AcDbArc
 50
255.0000000082534
 51
275.5376778565112
  0
LINE
  5
32A
100
AcDbEntity
  8
ext2
  6
ByLayer
 62
  256
370
   -1
100
AcDbLine
 10
-27.73649364076568
 20
57.28929955476953
 11
-112.0539056087173
 21
65.46410788968325
  0
LINE
  5
32B
100
AcDbEntity
  8
ext2
  6
ByLayer
 62
  256
370
   -1
100
AcDbLine
 10
-22.42436309287837
 20
60.97186866175863
 11
-21.07699175544879
 21
66.00032511256148
  0
ARC
  5
32C
100
AcDbEntity
  8
ext2
  6
ByLayer
 62
  256
370
   -1
100
AcDbCircle
 10
-27.25399210612431
 20
62.26596432839743
 40
5
100
AcDbArc
 50
264.4623221434888
 51
344.9999947667475
  0
LINE
  5
32D
100
AcDbEntity
  8
ext3
  6
ByLayer
 62
  256
370
   -1
100
AcDbLine
 10
-28.48316676463305
 20
58.36638052605505
 11
-111.9574053017889
 21
66.45944084440883
  0
LINE
  5
32E
100
AcDbEntity
  8
ext3
  6
ByLayer
 62
  256
370
   -1
100
AcDbLine
 10
-23.17103621674565
 20
62.0489496330441
 11
-22.04291755809797
 21
66.25914424588923
  0
ARC
  5
32F
100
AcDbEntity
  8
ext3
  6
ByLayer
 62
  256
370
   -1
100
AcDbCircle
 10
-28.00066522999168
 20
63.34304529968293
 40
5
100
AcDbArc
 50
264.4623221434888
 51
344.9999947667473
  0
ENDSEC
  0
SECTION
  2
OBJECTS
  0
DICTIONARY
  5
C
330
0
100
AcDbDictionary
281
    1
  3
ACAD_GROUP
350
D
  0
DICTIONARY
  5
D
330
C
100
AcDbDictionary
281
    1
  0
PLOTSETTINGS
  5
330
100
AcDbPlotSettings
  6
1x1
 40
0
 41
0
 42
0
 43
0
  0
ENDSEC
  0
EOF
