999
dxfrw 0.6.3
  0
SECTION
  2
HEADER
  9
$ACADVER
  1
AC1021
  9
$DWGCODEPAGE
  3
ANSI_1252
  9
$INSBASE
 10
0
 20
0
 30
0
  9
$EXTMIN
 10
-120
 20
-45.5
 30
0
  9
$EXTMAX
 10
120
 20
45.5
 30
0
  9
$LIMMIN
 10
0
 20
0
  9
$LIMMAX
 10
420
 20
297
  9
$ORTHOMODE
 70
    0
  9
$REGENMODE
 70
    1
  9
$FILLMODE
 70
    1
  9
$QTEXTMODE
 70
    0
  9
$MIRRTEXT
 70
    0
  9
$LTSCALE
 40
1
  9
$ATTMODE
 70
    0
  9
$TEXTSIZE
 40
2.5
  9
$TRACEWID
 40
15.68
  9
$TEXTSTYLE
  7
STANDARD
  9
$CLAYER
  8
ajour
  9
$CELTYPE
  6
BYLAYER
  9
$CECOLOR
 62
  256
  9
$CELTSCALE
 40
1
  9
$DISPSILH
 70
    0
  9
$DIMSCALE
 40
2.5
  9
$DIMASZ
 40
2.5
  9
$DIMEXO
 40
0.625
  9
$DIMDLI
 40
3.75
  9
$DIMRND
 40
0
  9
$DIMDLE
 40
0
  9
$DIMEXE
 40
1.25
  9
$DIMTP
 40
0
  9
$DIMTM
 40
0
  9
$DIMTXT
 40
2.5
  9
$DIMCEN
 40
2.5
  9
$DIMTSZ
 40
0
  9
$DIMTOL
 70
    0
  9
$DIMLIM
 70
    0
  9
$DIMTIH
 70
    0
  9
$DIMTOH
 70
    0
  9
$DIMSE1
 70
    0
  9
$DIMSE2
 70
    0
  9
$DIMTAD
 70
    1
  9
$DIMZIN
 70
    8
  9
$DIMBLK
  1

  9
$DIMASO
 70
    1
  9
$DIMSHO
 70
    1
  9
$DIMPOST
  1

  9
$DIMAPOST
  1

  9
$DIMALT
 70
    0
  9
$DIMALTD
 70
    3
  9
$DIMALTF
 40
0.03937
  9
$DIMLFAC
 40
1
  9
$DIMTOFL
 70
    1
  9
$DIMTVP
 40
0
  9
$DIMTIX
 70
    0
  9
$DIMSOXD
 70
    0
  9
$DIMSAH
 70
    0
  9
$DIMBLK1
  1

  9
$DIMBLK2
  1

  9
$DIMSTYLE
  2
Standard
  9
$DIMCLRD
 70
    0
  9
$DIMCLRE
 70
    0
  9
$DIMCLRT
 70
    0
  9
$DIMTFAC
 40
1
  9
$DIMGAP
 40
0.625
  9
$DIMJUST
 70
    0
  9
$DIMSD1
 70
    0
  9
$DIMSD2
 70
    0
  9
$DIMTOLJ
 70
    0
  9
$DIMTZIN
 70
    8
  9
$DIMALTZ
 70
    0
  9
$DIMALTTZ
 70
    0
  9
$DIMUPT
 70
    0
  9
$DIMDEC
 70
    2
  9
$DIMTDEC
 70
    2
  9
$DIMALTU
 70
    2
  9
$DIMALTTD
 70
    3
  9
$DIMTXSTY
  7
STANDARD
  9
$DIMAUNIT
 70
    0
  9
$DIMADEC
 70
    0
  9
$DIMALTRND
 40
0
  9
$DIMAZIN
 70
    0
  9
$DIMDSEP
 70
   44
  9
$DIMATFIT
 70
    3
  9
$DIMFRAC
 70
    0
  9
$DIMLDRBLK
  1
STANDARD
  9
$DIMLUNIT
 70
    2
  9
$DIMLWD
 70
   -2
  9
$DIMLWE
 70
   -2
  9
$DIMTMOVE
 70
    0
  9
$DIMFXL
 40
1
  9
$DIMFXLON
 70
    0
  9
$DIMJOGANG
 40
0.7854
  9
$DIMTFILL
 70
    0
  9
$DIMTFILLCLR
 70
    0
  9
$DIMARCSYM
 70
    0
  9
$DIMLTYPE
  6

  9
$DIMLTEX1
  6

  9
$DIMLTEX2
  6

  9
$LUNITS
 70
    2
  9
$LUPREC
 70
    4
  9
$SKETCHINC
 40
1
  9
$FILLETRAD
 40
0
  9
$AUNITS
 70
    0
  9
$AUPREC
 70
    2
  9
$MENU
  1
.
  9
$ELEVATION
 40
0
  9
$PELEVATION
 40
0
  9
$THICKNESS
 40
0
  9
$LIMCHECK
 70
    0
  9
$CHAMFERA
 40
0
  9
$CHAMFERB
 40
0
  9
$CHAMFERC
 40
0
  9
$CHAMFERD
 40
0
  9
$SKPOLY
 70
    0
  9
$USRTIMER
 70
    1
  9
$ANGBASE
 50
0
  9
$ANGDIR
 70
    0
  9
$PDMODE
 70
   34
  9
$PDSIZE
 40
0
  9
$PLINEWID
 40
0
  9
$SPLFRAME
 70
    0
  9
$SPLINETYPE
 70
    2
  9
$SPLINESEGS
 70
    8
  9
$HANDSEED
  5
20000
  9
$SURFTAB1
 70
    6
  9
$SURFTAB2
 70
    6
  9
$SURFTYPE
 70
    6
  9
$SURFU
 70
    6
  9
$SURFV
 70
    6
  9
$UCSBASE
  2

  9
$UCSNAME
  2

  9
$UCSORG
 10
0
 20
0
 30
0
  9
$UCSXDIR
 10
1
 20
0
 30
0
  9
$UCSYDIR
 10
0
 20
1
 30
0
  9
$UCSORTHOREF
  2

  9
$UCSORTHOVIEW
 70
    0
  9
$UCSORGTOP
 10
0
 20
0
 30
0
  9
$UCSORGBOTTOM
 10
0
 20
0
 30
0
  9
$UCSORGLEFT
 10
0
 20
0
 30
0
  9
$UCSORGRIGHT
 10
0
 20
0
 30
0
  9
$UCSORGFRONT
 10
0
 20
0
 30
0
  9
$UCSORGBACK
 10
0
 20
0
 30
0
  9
$PUCSBASE
  2

  9
$PUCSNAME
  2

  9
$PUCSORG
 10
0
 20
0
 30
0
  9
$PUCSXDIR
 10
1
 20
0
 30
0
  9
$PUCSYDIR
 10
0
 20
1
 30
0
  9
$PUCSORTHOREF
  2

  9
$PUCSORTHOVIEW
 70
    0
  9
$PUCSORGTOP
 10
0
 20
0
 30
0
  9
$PUCSORGBOTTOM
 10
0
 20
0
 30
0
  9
$PUCSORGLEFT
 10
0
 20
0
 30
0
  9
$PUCSORGRIGHT
 10
0
 20
0
 30
0
  9
$PUCSORGFRONT
 10
0
 20
0
 30
0
  9
$PUCSORGBACK
 10
0
 20
0
 30
0
  9
$USERI1
 70
    0
  9
$USERI2
 70
    0
  9
$USERI3
 70
    0
  9
$USERI4
 70
    0
  9
$USERI5
 70
    0
  9
$USERR1
 40
0
  9
$USERR2
 40
0
  9
$USERR3
 40
0
  9
$USERR4
 40
0
  9
$USERR5
 40
0
  9
$WORLDVIEW
 70
    1
  9
$SHADEDGE
 70
    3
  9
$SHADEDIF
 70
   70
  9
$TILEMODE
 70
    1
  9
$MAXACTVP
 70
   64
  9
$PINSBASE
 10
0
 20
0
 30
0
  9
$PLIMCHECK
 70
    0
  9
$PEXTMIN
 10
0
 20
0
 30
0
  9
$PEXTMAX
 10
0
 20
0
 30
0
  9
$GRIDMODE
 70
    1
  9
$SNAPSTYLE
 70
    0
  9
$PLIMMIN
 10
0
 20
0
  9
$PLIMMAX
 10
210
 20
297
  9
$UNITMODE
 70
    0
  9
$VISRETAIN
 70
    1
  9
$PLINEGEN
 70
    0
  9
$PSLTSCALE
 70
    1
  9
$TREEDEPTH
 70
 3020
  9
$CMLSTYLE
  2
Standard
  9
$CMLJUST
 70
    0
  9
$CMLSCALE
 40
20
  9
$PROXYGRAPHICS
 70
    1
  9
$MEASUREMENT
 70
    1
  9
$CELWEIGHT
370
   -1
  9
$ENDCAPS
280
    0
  9
$JOINSTYLE
280
    0
  9
$LWDISPLAY
290
    0
  9
$INSUNITS
 70
    4
  9
$HYPERLINKBASE
  1

  9
$STYLESHEET
  1

  9
$XEDIT
290
    1
  9
$CEPSNTYPE
380
    0
  9
$PSTYLEMODE
290
    1
  9
$EXTNAMES
290
    1
  9
$PSVPSCALE
 40
1
  9
$OLESTARTUP
290
    0
  9
$SORTENTS
280
  127
  9
$INDEXCTL
280
    0
  9
$HIDETEXT
280
    1
  9
$XCLIPFRAME
290
    0
  9
$HALOGAP
280
    0
  9
$OBSCOLOR
 70
  257
  9
$OBSLTYPE
280
    0
  9
$INTERSECTIONDISPLAY
280
    0
  9
$INTERSECTIONCOLOR
 70
  257
  9
$DIMASSOC
280
    1
  9
$PROJECTNAME
  1

  9
$CAMERADISPLAY
290
    0
  9
$LENSLENGTH
 40
50
  9
$CAMERAHEIGHT
 40
0
  9
$STEPSPERSEC
 40
2
  9
$STEPSIZE
 40
50
  9
$3DDWFPREC
 40
2
  9
$PSOLWIDTH
 40
5
  9
$PSOLHEIGHT
 40
80
  9
$LOFTANG1
 40
1.570796326794897
  9
$LOFTANG2
 40
1.570796326794897
  9
$LOFTMAG1
 40
0
  9
$LOFTMAG2
 40
0
  9
$LOFTPARAM
 70
    7
  9
$LOFTNORMALS
280
    1
  9
$LATITUDE
 40
1
  9
$LONGITUDE
 40
1
  9
$NORTHDIRECTION
 40
0
  9
$TIMEZONE
 70
-8000
  9
$LIGHTGLYPHDISPLAY
280
    1
  9
$TILEMODELIGHTSYNCH
280
    1
  9
$SOLIDHIST
280
    1
  9
$SHOWHIST
280
    1
  9
$DWFFRAME
280
    2
  9
$DGNFRAME
280
    0
  9
$REALWORLDSCALE
290
    1
  9
$INTERFERECOLOR
 62
    1
  9
$CSHADOW
280
    0
  9
$SHADOWPLANELOCATION
 40
0
  0
ENDSEC
  0
SECTION
  2
CLASSES
  0
ENDSEC
  0
SECTION
  2
TABLES
  0
TABLE
  2
VPORT
  5
8
330
0
100
AcDbSymbolTable
 70
    1
  0
VPORT
  5
31
330
2
100
AcDbSymbolTableRecord
100
AcDbViewportTableRecord
  2
*ACTIVE
 70
    0
 10
0
 20
0
 11
1
 21
1
 12
64.21487603305785
 22
47.78512396694215
 13
0
 23
0
 14
10
 24
10
 15
10
 25
10
 16
0
 26
0
 36
1
 17
0
 27
0
 37
0
 40
184.8925619834711
 41
1.387984981226533
 42
50
 43
0
 44
0
 50
0
 51
0
 71
    0
 72
  100
 73
    1
 74
    3
 75
    0
 76
    1
 77
    0
 78
    0
281
    0
 65
    1
110
0
120
0
130
0
111
1
121
0
131
0
112
0
122
1
132
0
 79
    0
146
0
348
10020
 60
    7
 61
    5
292
1
282
    1
141
0
142
0
 63
  250
421
3358443
  0
ENDTAB
  0
TABLE
  2
LTYPE
  5
5
330
0
100
AcDbSymbolTable
 70
    4
  0
LTYPE
  5
14
330
5
100
AcDbSymbolTableRecord
100
AcDbLinetypeTableRecord
  2
ByBlock
 70
    0
  3

 72
   65
 73
    0
 40
0
  0
LTYPE
  5
15
330
5
100
AcDbSymbolTableRecord
100
AcDbLinetypeTableRecord
  2
ByLayer
 70
    0
  3

 72
   65
 73
    0
 40
0
  0
LTYPE
  5
16
330
5
100
AcDbSymbolTableRecord
100
AcDbLinetypeTableRecord
  2
Continuous
 70
    0
  3
Solid line
 72
   65
 73
    0
 40
0
  0
LTYPE
  5
32
330
5
100
AcDbSymbolTableRecord
100
AcDbLinetypeTableRecord
  2
DOT
 70
    0
  3
Dot . . . . . . . . . . . . . . . . . . . . . .
 72
   65
 73
    2
 40
6.35
 49
0
 74
    0
 49
-6.35
 74
    0
  0
LTYPE
  5
33
330
5
100
AcDbSymbolTableRecord
100
AcDbLinetypeTableRecord
  2
DOTTINY
 70
    0
  3
Dot (.15x) .....................................
 72
   65
 73
    2
 40
0.9525
 49
0
 74
    0
 49
-0.9525
 74
    0
  0
LTYPE
  5
34
330
5
100
AcDbSymbolTableRecord
100
AcDbLinetypeTableRecord
  2
DOT2
 70
    0
  3
Dot (.5x) .....................................
 72
   65
 73
    2
 40
3.175
 49
0
 74
    0
 49
-3.175
 74
    0
  0
LTYPE
  5
35
330
5
100
AcDbSymbolTableRecord
100
AcDbLinetypeTableRecord
  2
DOTX2
 70
    0
  3
Dot (2x) .  .  .  .  .  .  .  .  .  .  .  .  .
 72
   65
 73
    2
 40
12.7
 49
0
 74
    0
 49
-12.7
 74
    0
  0
LTYPE
  5
36
330
5
100
AcDbSymbolTableRecord
100
AcDbLinetypeTableRecord
  2
DASHED
 70
    0
  3
Dashed _ _ _ _ _ _ _ _ _ _ _ _ _ _ _ _ _
 72
   65
 73
    2
 40
19.05
 49
12.7
 74
    0
 49
-6.35
 74
    0
  0
LTYPE
  5
37
330
5
100
AcDbSymbolTableRecord
100
AcDbLinetypeTableRecord
  2
DASHEDTINY
 70
    0
  3
Dashed (.15x) _ _ _ _ _ _ _ _ _ _ _ _ _ _ _ _ _
 72
   65
 73
    2
 40
2.8575
 49
1.905
 74
    0
 49
-0.9525
 74
    0
  0
LTYPE
  5
38
330
5
100
AcDbSymbolTableRecord
100
AcDbLinetypeTableRecord
  2
DASHED2
 70
    0
  3
Dashed (.5x) _ _ _ _ _ _ _ _ _ _ _ _ _ _ _ _ _
 72
   65
 73
    2
 40
9.524999999999999
 49
6.35
 74
    0
 49
-3.175
 74
    0
  0
LTYPE
  5
39
330
5
100
AcDbSymbolTableRecord
100
AcDbLinetypeTableRecord
  2
DASHEDX2
 70
    0
  3
Dashed (2x) ____  ____  ____  ____  ____  ___
 72
   65
 73
    2
 40
38.09999999999999
 49
25.4
 74
    0
 49
-12.7
 74
    0
  0
LTYPE
  5
3A
330
5
100
AcDbSymbolTableRecord
100
AcDbLinetypeTableRecord
  2
DASHDOT
 70
    0
  3
Dash dot __ . __ . __ . __ . __ . __ . __ . __
 72
   65
 73
    4
 40
25.4
 49
12.7
 74
    0
 49
-6.35
 74
    0
 49
0
 74
    0
 49
-6.35
 74
    0
  0
LTYPE
  5
3B
330
5
100
AcDbSymbolTableRecord
100
AcDbLinetypeTableRecord
  2
DASHDOTTINY
 70
    0
  3
Dash dot (.15x) _._._._._._._._._._._._._._._.
 72
   65
 73
    4
 40
3.81
 49
1.905
 74
    0
 49
-0.9525
 74
    0
 49
0
 74
    0
 49
-0.9525
 74
    0
  0
LTYPE
  5
3C
330
5
100
AcDbSymbolTableRecord
100
AcDbLinetypeTableRecord
  2
DASHDOT2
 70
    0
  3
Dash dot (.5x) _._._._._._._._._._._._._._._.
 72
   65
 73
    4
 40
12.7
 49
6.35
 74
    0
 49
-3.175
 74
    0
 49
0
 74
    0
 49
-3.175
 74
    0
  0
LTYPE
  5
3D
330
5
100
AcDbSymbolTableRecord
100
AcDbLinetypeTableRecord
  2
DASHDOTX2
 70
    0
  3
Dash dot (2x) ____  .  ____  .  ____  .  ___
 72
   65
 73
    4
 40
50.8
 49
25.4
 74
    0
 49
-12.7
 74
    0
 49
0
 74
    0
 49
-12.7
 74
    0
  0
LTYPE
  5
3E
330
5
100
AcDbSymbolTableRecord
100
AcDbLinetypeTableRecord
  2
DIVIDE
 70
    0
  3
Divide ____ . . ____ . . ____ . . ____ . . ____
 72
   65
 73
    6
 40
31.75
 49
12.7
 74
    0
 49
-6.35
 74
    0
 49
0
 74
    0
 49
-6.35
 74
    0
 49
0
 74
    0
 49
-6.35
 74
    0
  0
LTYPE
  5
3F
330
5
100
AcDbSymbolTableRecord
100
AcDbLinetypeTableRecord
  2
DIVIDETINY
 70
    0
  3
Divide (.15x) __..__..__..__..__..__..__..__.._
 72
   65
 73
    6
 40
4.7625
 49
1.905
 74
    0
 49
-0.9525
 74
    0
 49
0
 74
    0
 49
-0.9525
 74
    0
 49
0
 74
    0
 49
-0.9525
 74
    0
  0
LTYPE
  5
40
330
5
100
AcDbSymbolTableRecord
100
AcDbLinetypeTableRecord
  2
DIVIDE2
 70
    0
  3
Divide (.5x) __..__..__..__..__..__..__..__.._
 72
   65
 73
    6
 40
15.875
 49
6.35
 74
    0
 49
-3.175
 74
    0
 49
0
 74
    0
 49
-3.175
 74
    0
 49
0
 74
    0
 49
-3.175
 74
    0
  0
LTYPE
  5
41
330
5
100
AcDbSymbolTableRecord
100
AcDbLinetypeTableRecord
  2
DIVIDEX2
 70
    0
  3
Divide (2x) ________  .  .  ________  .  .  _
 72
   65
 73
    6
 40
63.5
 49
25.4
 74
    0
 49
-12.7
 74
    0
 49
0
 74
    0
 49
-12.7
 74
    0
 49
0
 74
    0
 49
-12.7
 74
    0
  0
LTYPE
  5
42
330
5
100
AcDbSymbolTableRecord
100
AcDbLinetypeTableRecord
  2
BORDER
 70
    0
  3
Border __ __ . __ __ . __ __ . __ __ . __ __ .
 72
   65
 73
    6
 40
44.45
 49
12.7
 74
    0
 49
-6.35
 74
    0
 49
12.7
 74
    0
 49
-6.35
 74
    0
 49
0
 74
    0
 49
-6.35
 74
    0
  0
LTYPE
  5
43
330
5
100
AcDbSymbolTableRecord
100
AcDbLinetypeTableRecord
  2
BORDERTINY
 70
    0
  3
Border (.15x) __.__.__.__.__.__.__.__.__.__.__.
 72
   65
 73
    6
 40
6.6675
 49
1.905
 74
    0
 49
-0.9525
 74
    0
 49
1.905
 74
    0
 49
-0.9525
 74
    0
 49
0
 74
    0
 49
-0.9525
 74
    0
  0
LTYPE
  5
44
330
5
100
AcDbSymbolTableRecord
100
AcDbLinetypeTableRecord
  2
BORDER2
 70
    0
  3
Border (.5x) __.__.__.__.__.__.__.__.__.__.__.
 72
   65
 73
    6
 40
22.225
 49
6.35
 74
    0
 49
-3.175
 74
    0
 49
6.35
 74
    0
 49
-3.175
 74
    0
 49
0
 74
    0
 49
-3.175
 74
    0
  0
LTYPE
  5
45
330
5
100
AcDbSymbolTableRecord
100
AcDbLinetypeTableRecord
  2
BORDERX2
 70
    0
  3
Border (2x) ____  ____  .  ____  ____  .  ___
 72
   65
 73
    6
 40
88.89999999999999
 49
25.4
 74
    0
 49
-12.7
 74
    0
 49
25.4
 74
    0
 49
-12.7
 74
    0
 49
0
 74
    0
 49
-12.7
 74
    0
  0
LTYPE
  5
46
330
5
100
AcDbSymbolTableRecord
100
AcDbLinetypeTableRecord
  2
CENTER
 70
    0
  3
Center ____ _ ____ _ ____ _ ____ _ ____ _ ____
 72
   65
 73
    4
 40
50.8
 49
31.75
 74
    0
 49
-6.35
 74
    0
 49
6.35
 74
    0
 49
-6.35
 74
    0
  0
LTYPE
  5
47
330
5
100
AcDbSymbolTableRecord
100
AcDbLinetypeTableRecord
  2
CENTERTINY
 70
    0
  3
Center (.15x) ___ _ ___ _ ___ _ ___ _ ___ _ ___
 72
   65
 73
    4
 40
7.619999999999999
 49
4.7625
 74
    0
 49
-0.9525
 74
    0
 49
0.9525
 74
    0
 49
-0.9525
 74
    0
  0
LTYPE
  5
48
330
5
100
AcDbSymbolTableRecord
100
AcDbLinetypeTableRecord
  2
CENTER2
 70
    0
  3
Center (.5x) ___ _ ___ _ ___ _ ___ _ ___ _ ___
 72
   65
 73
    4
 40
28.575
 49
19.05
 74
    0
 49
-3.175
 74
    0
 49
3.175
 74
    0
 49
-3.175
 74
    0
  0
LTYPE
  5
49
330
5
100
AcDbSymbolTableRecord
100
AcDbLinetypeTableRecord
  2
CENTERX2
 70
    0
  3
Center (2x) ________  __  ________  __  _____
 72
   65
 73
    4
 40
101.6
 49
63.5
 74
    0
 49
-12.7
 74
    0
 49
12.7
 74
    0
 49
-12.7
 74
    0
  0
ENDTAB
  0
TABLE
  2
LAYER
  5
2
330
0
100
AcDbSymbolTable
 70
    1
  0
LAYER
  5
10
330
2
100
AcDbSymbolTableRecord
100
AcDbLayerTableRecord
  2
0
 70
    4
 62
    7
  6
CONTINUOUS
370
    0
390
F
  0
LAYER
  5
4A
330
2
100
AcDbSymbolTableRecord
100
AcDbLayerTableRecord
  2
ajour
 70
    4
 62
    3
  6
CONTINUOUS
370
    0
390
F
  0
LAYER
  5
4B
330
2
100
AcDbSymbolTableRecord
100
AcDbLayerTableRecord
  2
edge
 70
    4
 62
    2
  6
CONTINUOUS
370
    0
390
F
  0
LAYER
  5
4C
330
2
100
AcDbSymbolTableRecord
100
AcDbLayerTableRecord
  2
ext1
 70
    4
 62
  171
420
5463295
  6
CONTINUOUS
370
    0
390
F
  0
LAYER
  5
4D
330
2
100
AcDbSymbolTableRecord
100
AcDbLayerTableRecord
  2
ext2
 70
    4
 62
  136
420
32896
  6
CONTINUOUS
370
    0
390
F
  0
LAYER
  5
4E
330
2
100
AcDbSymbolTableRecord
100
AcDbLayerTableRecord
  2
ext3
 70
    4
 62
  138
420
19275
  6
CONTINUOUS
370
    0
390
F
  0
LAYER
  5
4F
330
2
100
AcDbSymbolTableRecord
100
AcDbLayerTableRecord
  2
int
 70
    4
 62
    5
  6
CONTINUOUS
370
    0
390
F
  0
LAYER
  5
50
330
2
100
AcDbSymbolTableRecord
100
AcDbLayerTableRecord
  2
keycap
 70
    4
 62
    6
  6
CONTINUOUS
370
    0
390
F
  0
LAYER
  5
51
330
2
100
AcDbSymbolTableRecord
100
AcDbLayerTableRecord
  2
percage
 70
    4
 62
    4
  6
CONTINUOUS
370
    0
390
F
  0
LAYER
  5
52
330
2
100
AcDbSymbolTableRecord
100
AcDbLayerTableRecord
  2
placement
 70
    4
 62
    1
  6
CONTINUOUS
370
    0
390
F
  0
LAYER
  5
53
330
2
100
AcDbSymbolTableRecord
100
AcDbLayerTableRecord
  2
rpi
 70
    4
 62
    3
  6
CONTINUOUS
370
    0
390
F
  0
LAYER
  5
54
330
2
100
AcDbSymbolTableRecord
100
AcDbLayerTableRecord
  2
rpi-decoupe
 70
    4
 62
   96
420
32768
  6
CONTINUOUS
370
    0
390
F
  0
ENDTAB
  0
TABLE
  2
STYLE
  5
3
330
0
100
AcDbSymbolTable
 70
    3
  0
STYLE
  5
55
330
2
100
AcDbSymbolTableRecord
100
AcDbTextStyleTableRecord
  2
Standard
 70
    0
 40
0
 41
1
 50
0
 71
    0
 42
1
  3
txt
  4

  0
ENDTAB
  0
TABLE
  2
VIEW
  5
6
330
0
100
AcDbSymbolTable
 70
    0
  0
ENDTAB
  0
TABLE
  2
UCS
  5
7
330
0
100
AcDbSymbolTable
 70
    0
  0
ENDTAB
  0
TABLE
  2
APPID
  5
9
330
0
100
AcDbSymbolTable
 70
    1
  0
APPID
  5
12
330
9
100
AcDbSymbolTableRecord
100
AcDbRegAppTableRecord
  2
ACAD
 70
    0
  0
APPID
  5
56
330
9
100
AcDbSymbolTableRecord
100
AcDbRegAppTableRecord
  2
LibreCad
 70
    0
  0
ENDTAB
  0
TABLE
  2
DIMSTYLE
  5
A
330
0
100
AcDbSymbolTable
 70
    1
100
AcDbDimStyleTable
 71
    1
  0
DIMSTYLE
105
57
330
A
100
AcDbSymbolTableRecord
100
AcDbDimStyleTableRecord
  2
Standard
 70
    0
 40
2.5
 41
2.5
 42
0.625
 43
0.38
 44
1.25
 45
0
 46
0
 47
0
 48
0
 49
1
140
2.5
141
0.09
142
0
143
25.4
144
1
145
0
146
1
147
0.625
148
0
 71
    0
 72
    0
 73
    0
 74
    1
 75
    0
 76
    0
 77
    0
 78
    8
 79
    0
170
    0
171
    2
172
    0
173
    0
174
    0
175
    0
176
    0
177
    0
178
    0
179
    0
271
    2
272
    4
273
    2
274
    2
275
    0
276
    0
277
    2
278
   44
279
    0
280
    0
281
    0
282
    0
283
    1
284
    0
285
    0
286
    0
288
    0
289
    3
340
STANDARD
341

371
   -2
372
   -2
  0
ENDTAB
  0
TABLE
  2
BLOCK_RECORD
  5
1
330
0
100
AcDbSymbolTable
 70
    2
  0
BLOCK_RECORD
  5
1F
330
1
100
AcDbSymbolTableRecord
100
AcDbBlockTableRecord
  2
*Model_Space
 70
    0
280
    1
281
    0
  0
BLOCK_RECORD
  5
1E
330
1
100
AcDbSymbolTableRecord
100
AcDbBlockTableRecord
  2
*Paper_Space
 70
    0
280
    1
281
    0
  0
ENDTAB
  0
ENDSEC
  0
SECTION
  2
BLOCKS
  0
BLOCK
  5
20
330
1F
100
AcDbEntity
  8
0
100
AcDbBlockBegin
  2
*Model_Space
 70
    0
 10
0
 20
0
 30
0
  3
*Model_Space
  1

  0
ENDBLK
  5
21
330
1F
100
AcDbEntity
  8
0
100
AcDbBlockEnd
  0
BLOCK
  5
1C
330
1B
100
AcDbEntity
  8
0
100
AcDbBlockBegin
  2
*Paper_Space
 70
    0
 10
0
 20
0
 30
0
  3
*Paper_Space
  1

  0
ENDBLK
  5
1D
330
1F
100
AcDbEntity
  8
0
100
AcDbBlockEnd
  0
ENDSEC
  0
SECTION
  2
ENTITIES
  0
LINE
  5
58
100
AcDbEntity
  8
0
  6
ByLayer
 62
  256
370
   -1
100
AcDbLine
 10
-106.8378545
 20
41.58782788602855
 11
-92.9422083
 21
39.88165708602855
  0
LINE
  5
59
100
AcDbEntity
  8
0
  6
ByLayer
 62
  256
370
   -1
100
AcDbLine
 10
-108.5440253
 20
27.69218168602855
 11
-94.6483791
 21
25.98601088602855
  0
LINE
  5
5A
100
AcDbEntity
  8
0
  6
ByLayer
 62
  256
370
   -1
100
AcDbLine
 10
-106.8378545
 20
41.58782788602855
 11
-108.5440253
 21
27.69218168602855
  0
LINE
  5
5B
100
AcDbEntity
  8
0
  6
ByLayer
 62
  256
370
   -1
100
AcDbLine
 10
-92.9422083
 20
39.88165708602855
 11
-94.6483791
 21
25.98601088602855
  0
LINE
  5
5C
100
AcDbEntity
  8
0
  6
ByLayer
 62
  256
370
   -1
100
AcDbLine
 10
-87.9794776
 20
39.27231038602855
 11
-74.08383140000001
 21
37.56613958602855
  0
LINE
  5
5D
100
AcDbEntity
  8
0
  6
ByLayer
 62
  256
370
   -1
100
AcDbLine
 10
-89.68564840000001
 20
25.37666418602855
 11
-75.7900022
 21
23.67049338602855
  0
LINE
  5
5E
100
AcDbEntity
  8
0
  6
ByLayer
 62
  256
370
   -1
100
AcDbLine
 10
-87.9794776
 20
39.27231038602855
 11
-89.68564840000001
 21
25.37666418602855
  0
LINE
  5
5F
100
AcDbEntity
  8
0
  6
ByLayer
 62
  256
370
   -1
100
AcDbLine
 10
-74.08383140000001
 20
37.56613958602855
 11
-75.7900022
 21
23.67049338602855
  0
LINE
  5
60
100
AcDbEntity
  8
0
  6
ByLayer
 62
  256
370
   -1
100
AcDbLine
 10
-69.1211007
 20
36.95679288602854
 11
-55.2254545
 21
35.25062208602855
  0
LINE
  5
61
100
AcDbEntity
  8
0
  6
ByLayer
 62
  256
370
   -1
100
AcDbLine
 10
-70.82727149999999
 20
23.06114668602855
 11
-56.9316253
 21
21.35497588602855
  0
LINE
  5
62
100
AcDbEntity
  8
0
  6
ByLayer
 62
  256
370
   -1
100
AcDbLine
 10
-69.1211007
 20
36.95679288602854
 11
-70.82727149999999
 21
23.06114668602855
  0
LINE
  5
63
100
AcDbEntity
  8
0
  6
ByLayer
 62
  256
370
   -1
100
AcDbLine
 10
-55.2254545
 20
35.25062208602855
 11
-56.9316253
 21
21.35497588602855
  0
LINE
  5
64
100
AcDbEntity
  8
0
  6
ByLayer
 62
  256
370
   -1
100
AcDbLine
 10
-50.2627238
 20
34.64127538602855
 11
-36.3670776
 21
32.93510458602854
  0
LINE
  5
65
100
AcDbEntity
  8
0
  6
ByLayer
 62
  256
370
   -1
100
AcDbLine
 10
-51.9688946
 20
20.74562918602855
 11
-38.0732484
 21
19.03945838602855
  0
LINE
  5
66
100
AcDbEntity
  8
0
  6
ByLayer
 62
  256
370
   -1
100
AcDbLine
 10
-50.2627238
 20
34.64127538602855
 11
-51.9688946
 21
20.74562918602855
  0
LINE
  5
67
100
AcDbEntity
  8
0
  6
ByLayer
 62
  256
370
   -1
100
AcDbLine
 10
-36.3670776
 20
32.93510458602854
 11
-38.0732484
 21
19.03945838602855
  0
LINE
  5
68
100
AcDbEntity
  8
0
  6
ByLayer
 62
  256
370
   -1
100
AcDbLine
 10
-26.6897527
 20
31.74687848602855
 11
-12.7941065
 21
30.04070768602855
  0
LINE
  5
69
100
AcDbEntity
  8
0
  6
ByLayer
 62
  256
370
   -1
100
AcDbLine
 10
-28.39592349999999
 20
17.85123228602855
 11
-14.50027729999999
 21
16.14506148602855
  0
LINE
  5
6A
100
AcDbEntity
  8
0
  6
ByLayer
 62
  256
370
   -1
100
AcDbLine
 10
-26.6897527
 20
31.74687848602855
 11
-28.39592349999999
 21
17.85123228602855
  0
LINE
  5
6B
100
AcDbEntity
  8
0
  6
ByLayer
 62
  256
370
   -1
100
AcDbLine
 10
-12.7941065
 20
30.04070768602855
 11
-14.50027729999999
 21
16.14506148602855
  0
LINE
  5
6C
100
AcDbEntity
  8
0
  6
ByLayer
 62
  256
370
   -1
100
AcDbLine
 10
-106.7960749
 20
22.44001138602855
 11
-92.90042869999999
 21
20.73384058602855
  0
LINE
  5
6D
100
AcDbEntity
  8
0
  6
ByLayer
 62
  256
370
   -1
100
AcDbLine
 10
-108.5022457
 20
8.54436518602855
 11
-94.6065995
 21
6.838194386028547
  0
LINE
  5
6E
100
AcDbEntity
  8
0
  6
ByLayer
 62
  256
370
   -1
100
AcDbLine
 10
-106.7960749
 20
22.44001138602855
 11
-108.5022457
 21
8.54436518602855
  0
LINE
  5
6F
100
AcDbEntity
  8
0
  6
ByLayer
 62
  256
370
   -1
100
AcDbLine
 10
-92.90042869999999
 20
20.73384058602855
 11
-94.6065995
 21
6.838194386028547
  0
LINE
  5
70
100
AcDbEntity
  8
0
  6
ByLayer
 62
  256
370
   -1
100
AcDbLine
 10
-85.5804009
 20
19.83505418602855
 11
-71.6847547
 21
18.12888338602855
  0
LINE
  5
71
100
AcDbEntity
  8
0
  6
ByLayer
 62
  256
370
   -1
100
AcDbLine
 10
-87.2865717
 20
5.939407986028549
 11
-73.39092550000001
 21
4.233237186028546
  0
LINE
  5
72
100
AcDbEntity
  8
0
  6
ByLayer
 62
  256
370
   -1
100
AcDbLine
 10
-85.5804009
 20
19.83505418602855
 11
-87.2865717
 21
5.939407986028549
  0
LINE
  5
73
100
AcDbEntity
  8
0
  6
ByLayer
 62
  256
370
   -1
100
AcDbLine
 10
-71.6847547
 20
18.12888338602855
 11
-73.39092550000001
 21
4.233237186028546
  0
LINE
  5
74
100
AcDbEntity
  8
0
  6
ByLayer
 62
  256
370
   -1
100
AcDbLine
 10
-66.722024
 20
17.51953658602855
 11
-52.8263778
 21
15.81336578602855
  0
LINE
  5
75
100
AcDbEntity
  8
0
  6
ByLayer
 62
  256
370
   -1
100
AcDbLine
 10
-68.4281948
 20
3.623890386028549
 11
-54.5325486
 21
1.917719586028547
  0
LINE
  5
76
100
AcDbEntity
  8
0
  6
ByLayer
 62
  256
370
   -1
100
AcDbLine
 10
-66.722024
 20
17.51953658602855
 11
-68.4281948
 21
3.623890386028549
  0
LINE
  5
77
100
AcDbEntity
  8
0
  6
ByLayer
 62
  256
370
   -1
100
AcDbLine
 10
-52.8263778
 20
15.81336578602855
 11
-54.5325486
 21
1.917719586028547
  0
LINE
  5
78
100
AcDbEntity
  8
0
  6
ByLayer
 62
  256
370
   -1
100
AcDbLine
 10
-47.86364709999999
 20
15.20401908602855
 11
-33.96800090000001
 21
13.49784828602855
  0
LINE
  5
79
100
AcDbEntity
  8
0
  6
ByLayer
 62
  256
370
   -1
100
AcDbLine
 10
-49.5698179
 20
1.30837288602855
 11
-35.6741717
 21
-0.397797913971452
  0
LINE
  5
7A
100
AcDbEntity
  8
0
  6
ByLayer
 62
  256
370
   -1
100
AcDbLine
 10
-47.86364709999999
 20
15.20401908602855
 11
-49.5698179
 21
1.30837288602855
  0
LINE
  5
7B
100
AcDbEntity
  8
0
  6
ByLayer
 62
  256
370
   -1
100
AcDbLine
 10
-33.96800090000001
 20
13.49784828602855
 11
-35.6741717
 21
-0.397797913971452
  0
LINE
  5
7C
100
AcDbEntity
  8
0
  6
ByLayer
 62
  256
370
   -1
100
AcDbLine
 10
-29.0052702
 20
12.88850158602855
 11
-15.109624
 21
11.18233078602854
  0
LINE
  5
7D
100
AcDbEntity
  8
0
  6
ByLayer
 62
  256
370
   -1
100
AcDbLine
 10
-30.71144099999999
 20
-1.007144613971455
 11
-16.81579480000001
 21
-2.713315413971451
  0
LINE
  5
7E
100
AcDbEntity
  8
0
  6
ByLayer
 62
  256
370
   -1
100
AcDbLine
 10
-29.0052702
 20
12.88850158602855
 11
-30.71144099999999
 21
-1.007144613971455
  0
LINE
  5
7F
100
AcDbEntity
  8
0
  6
ByLayer
 62
  256
370
   -1
100
AcDbLine
 10
-15.109624
 20
11.18233078602854
 11
-16.81579480000001
 21
-2.713315413971451
  0
LINE
  5
80
100
AcDbEntity
  8
0
  6
ByLayer
 62
  256
370
   -1
100
AcDbLine
 10
-104.3969982
 20
3.00275508602855
 11
-90.501352
 21
1.296584286028548
  0
LINE
  5
81
100
AcDbEntity
  8
0
  6
ByLayer
 62
  256
370
   -1
100
AcDbLine
 10
-106.103169
 20
-10.89289111397145
 11
-92.20752279999999
 21
-12.59906191397145
  0
LINE
  5
82
100
AcDbEntity
  8
0
  6
ByLayer
 62
  256
370
   -1
100
AcDbLine
 10
-104.3969982
 20
3.00275508602855
 11
-106.103169
 21
-10.89289111397145
  0
LINE
  5
83
100
AcDbEntity
  8
0
  6
ByLayer
 62
  256
370
   -1
100
AcDbLine
 10
-90.501352
 20
1.296584286028548
 11
-92.20752279999999
 21
-12.59906191397145
  0
LINE
  5
84
100
AcDbEntity
  8
0
  6
ByLayer
 62
  256
370
   -1
100
AcDbLine
 10
-78.46673
 20
-0.1810815139714563
 11
-64.5710838
 21
-1.887252313971452
  0
LINE
  5
85
100
AcDbEntity
  8
0
  6
ByLayer
 62
  256
370
   -1
100
AcDbLine
 10
-80.17290080000001
 20
-14.07672771397145
 11
-66.27725459999999
 21
-15.78289851397145
  0
LINE
  5
86
100
AcDbEntity
  8
0
  6
ByLayer
 62
  256
370
   -1
100
AcDbLine
 10
-78.46673
 20
-0.1810815139714563
 11
-80.17290080000001
 21
-14.07672771397145
  0
LINE
  5
87
100
AcDbEntity
  8
0
  6
ByLayer
 62
  256
370
   -1
100
AcDbLine
 10
-64.5710838
 20
-1.887252313971452
 11
-66.27725459999999
 21
-15.78289851397145
  0
LINE
  5
88
100
AcDbEntity
  8
0
  6
ByLayer
 62
  256
370
   -1
100
AcDbLine
 10
-59.6083531
 20
-2.496599013971455
 11
-45.7127069
 21
-4.20276981397145
  0
LINE
  5
89
100
AcDbEntity
  8
0
  6
ByLayer
 62
  256
370
   -1
100
AcDbLine
 10
-61.3145239
 20
-16.39224521397146
 11
-47.4188777
 21
-18.09841601397145
  0
LINE
  5
8A
100
AcDbEntity
  8
0
  6
ByLayer
 62
  256
370
   -1
100
AcDbLine
 10
-59.6083531
 20
-2.496599013971455
 11
-61.3145239
 21
-16.39224521397146
  0
LINE
  5
8B
100
AcDbEntity
  8
0
  6
ByLayer
 62
  256
370
   -1
100
AcDbLine
 10
-45.7127069
 20
-4.20276981397145
 11
-47.4188777
 21
-18.09841601397145
  0
LINE
  5
8C
100
AcDbEntity
  8
0
  6
ByLayer
 62
  256
370
   -1
100
AcDbLine
 10
-40.74997620000001
 20
-4.812116513971453
 11
-26.85433
 21
-6.518287313971456
  0
LINE
  5
8D
100
AcDbEntity
  8
0
  6
ByLayer
 62
  256
370
   -1
100
AcDbLine
 10
-42.456147
 20
-18.70776271397146
 11
-28.5605008
 21
-20.41393351397145
  0
LINE
  5
8E
100
AcDbEntity
  8
0
  6
ByLayer
 62
  256
370
   -1
100
AcDbLine
 10
-40.74997620000001
 20
-4.812116513971453
 11
-42.456147
 21
-18.70776271397146
  0
LINE
  5
8F
100
AcDbEntity
  8
0
  6
ByLayer
 62
  256
370
   -1
100
AcDbLine
 10
-26.85433
 20
-6.518287313971456
 11
-28.5605008
 21
-20.41393351397145
  0
LINE
  5
90
100
AcDbEntity
  8
0
  6
ByLayer
 62
  256
370
   -1
100
AcDbLine
 10
-21.8915993
 20
-7.127634113971453
 11
-7.995953099999994
 21
-8.833804913971456
  0
LINE
  5
91
100
AcDbEntity
  8
0
  6
ByLayer
 62
  256
370
   -1
100
AcDbLine
 10
-23.59777010000001
 20
-21.02328031397145
 11
-9.702123900000004
 21
-22.72945111397146
  0
LINE
  5
92
100
AcDbEntity
  8
0
  6
ByLayer
 62
  256
370
   -1
100
AcDbLine
 10
-21.8915993
 20
-7.127634113971453
 11
-23.59777010000001
 21
-21.02328031397145
  0
LINE
  5
93
100
AcDbEntity
  8
0
  6
ByLayer
 62
  256
370
   -1
100
AcDbLine
 10
-7.995953099999994
 20
-8.833804913971456
 11
-9.702123900000004
 21
-22.72945111397146
  0
LINE
  5
94
100
AcDbEntity
  8
0
  6
ByLayer
 62
  256
370
   -1
100
AcDbLine
 10
-111.4271099
 20
-15.27674241397145
 11
-97.5314637
 21
-16.98291321397145
  0
LINE
  5
95
100
AcDbEntity
  8
0
  6
ByLayer
 62
  256
370
   -1
100
AcDbLine
 10
-113.1332807
 20
-29.17238861397146
 11
-99.2376345
 21
-30.87855941397145
  0
LINE
  5
96
100
AcDbEntity
  8
0
  6
ByLayer
 62
  256
370
   -1
100
AcDbLine
 10
-111.4271099
 20
-15.27674241397145
 11
-113.1332807
 21
-29.17238861397146
  0
LINE
  5
97
100
AcDbEntity
  8
0
  6
ByLayer
 62
  256
370
   -1
100
AcDbLine
 10
-97.5314637
 20
-16.98291321397145
 11
-99.2376345
 21
-30.87855941397145
  0
LINE
  5
98
100
AcDbEntity
  8
0
  6
ByLayer
 62
  256
370
   -1
100
AcDbLine
 10
-87.8541388
 20
-18.17113931397145
 11
-73.9584926
 21
-19.87731011397145
  0
LINE
  5
99
100
AcDbEntity
  8
0
  6
ByLayer
 62
  256
370
   -1
100
AcDbLine
 10
-89.5603096
 20
-32.06678551397145
 11
-75.66466339999999
 21
-33.77295631397146
  0
LINE
  5
9A
100
AcDbEntity
  8
0
  6
ByLayer
 62
  256
370
   -1
100
AcDbLine
 10
-87.8541388
 20
-18.17113931397145
 11
-89.5603096
 21
-32.06678551397145
  0
LINE
  5
9B
100
AcDbEntity
  8
0
  6
ByLayer
 62
  256
370
   -1
100
AcDbLine
 10
-73.9584926
 20
-19.87731011397145
 11
-75.66466339999999
 21
-33.77295631397146
  0
LINE
  5
9C
100
AcDbEntity
  8
0
  6
ByLayer
 62
  256
370
   -1
100
AcDbLine
 10
-66.63846480000001
 20
-20.77609651397146
 11
-52.74281860000001
 21
-22.48226731397146
  0
LINE
  5
9D
100
AcDbEntity
  8
0
  6
ByLayer
 62
  256
370
   -1
100
AcDbLine
 10
-68.3446356
 20
-34.67174271397145
 11
-54.4489894
 21
-36.37791351397146
  0
LINE
  5
9E
100
AcDbEntity
  8
0
  6
ByLayer
 62
  256
370
   -1
100
AcDbLine
 10
-66.63846480000001
 20
-20.77609651397146
 11
-68.3446356
 21
-34.67174271397145
  0
LINE
  5
9F
100
AcDbEntity
  8
0
  6
ByLayer
 62
  256
370
   -1
100
AcDbLine
 10
-52.74281860000001
 20
-22.48226731397146
 11
-54.4489894
 21
-36.37791351397146
  0
LINE
  5
A0
100
AcDbEntity
  8
0
  6
ByLayer
 62
  256
370
   -1
100
AcDbLine
 10
-35.9936024
 20
-24.53881251397146
 11
-22.0979562
 21
-26.24498331397145
  0
LINE
  5
A1
100
AcDbEntity
  8
0
  6
ByLayer
 62
  256
370
   -1
100
AcDbLine
 10
-37.6997732
 20
-38.43445871397146
 11
-23.80412699999999
 21
-40.14062951397145
  0
LINE
  5
A2
100
AcDbEntity
  8
0
  6
ByLayer
 62
  256
370
   -1
100
AcDbLine
 10
-35.9936024
 20
-24.53881251397146
 11
-37.6997732
 21
-38.43445871397146
  0
LINE
  5
A3
100
AcDbEntity
  8
0
  6
ByLayer
 62
  256
370
   -1
100
AcDbLine
 10
-22.0979562
 20
-26.24498331397145
 11
-23.80412699999999
 21
-40.14062951397145
  0
LINE
  5
A4
100
AcDbEntity
  8
0
  6
ByLayer
 62
  256
370
   -1
100
AcDbLine
 10
8.079512300000005
 20
29.46182828602855
 11
21.97515849999999
 21
31.16799908602854
  0
LINE
  5
A5
100
AcDbEntity
  8
0
  6
ByLayer
 62
  256
370
   -1
100
AcDbLine
 10
9.7856831
 20
15.56618208602855
 11
23.68132929999999
 21
17.27235288602855
  0
LINE
  5
A6
100
AcDbEntity
  8
0
  6
ByLayer
 62
  256
370
   -1
100
AcDbLine
 10
8.079512300000005
 20
29.46182828602855
 11
9.7856831
 21
15.56618208602855
  0
LINE
  5
A7
100
AcDbEntity
  8
0
  6
ByLayer
 62
  256
370
   -1
100
AcDbLine
 10
21.97515849999999
 20
31.16799908602854
 11
23.68132929999999
 21
17.27235288602855
  0
LINE
  5
A8
100
AcDbEntity
  8
0
  6
ByLayer
 62
  256
370
   -1
100
AcDbLine
 10
26.9378892
 20
31.77734578602855
 11
40.83353539999999
 21
33.48351658602854
  0
LINE
  5
A9
100
AcDbEntity
  8
0
  6
ByLayer
 62
  256
370
   -1
100
AcDbLine
 10
28.64406
 20
17.88169958602855
 11
42.53970620000001
 21
19.58787038602855
  0
LINE
  5
AA
100
AcDbEntity
  8
0
  6
ByLayer
 62
  256
370
   -1
100
AcDbLine
 10
26.9378892
 20
31.77734578602855
 11
28.64406
 21
17.88169958602855
  0
LINE
  5
AB
100
AcDbEntity
  8
0
  6
ByLayer
 62
  256
370
   -1
100
AcDbLine
 10
40.83353539999999
 20
33.48351658602854
 11
42.53970620000001
 21
19.58787038602855
  0
LINE
  5
AC
100
AcDbEntity
  8
0
  6
ByLayer
 62
  256
370
   -1
100
AcDbLine
 10
45.7962661
 20
34.09286328602855
 11
59.69191230000001
 21
35.79903408602855
  0
LINE
  5
AD
100
AcDbEntity
  8
0
  6
ByLayer
 62
  256
370
   -1
100
AcDbLine
 10
47.50243689999999
 20
20.19721708602855
 11
61.39808310000001
 21
21.90338788602855
  0
LINE
  5
AE
100
AcDbEntity
  8
0
  6
ByLayer
 62
  256
370
   -1
100
AcDbLine
 10
45.7962661
 20
34.09286328602855
 11
47.50243689999999
 21
20.19721708602855
  0
LINE
  5
AF
100
AcDbEntity
  8
0
  6
ByLayer
 62
  256
370
   -1
100
AcDbLine
 10
59.69191230000001
 20
35.79903408602855
 11
61.39808310000001
 21
21.90338788602855
  0
LINE
  5
B0
100
AcDbEntity
  8
0
  6
ByLayer
 62
  256
370
   -1
100
AcDbLine
 10
64.6546429
 20
36.40838088602855
 11
78.55028909999999
 21
38.11455168602855
  0
LINE
  5
B1
100
AcDbEntity
  8
0
  6
ByLayer
 62
  256
370
   -1
100
AcDbLine
 10
66.36081369999999
 20
22.51273468602855
 11
80.25645990000001
 21
24.21890548602855
  0
LINE
  5
B2
100
AcDbEntity
  8
0
  6
ByLayer
 62
  256
370
   -1
100
AcDbLine
 10
64.6546429
 20
36.40838088602855
 11
66.36081369999999
 21
22.51273468602855
  0
LINE
  5
B3
100
AcDbEntity
  8
0
  6
ByLayer
 62
  256
370
   -1
100
AcDbLine
 10
78.55028909999999
 20
38.11455168602855
 11
80.25645990000001
 21
24.21890548602855
  0
LINE
  5
B4
100
AcDbEntity
  8
0
  6
ByLayer
 62
  256
370
   -1
100
AcDbLine
 10
88.22761399999999
 20
39.30277778602855
 11
102.1232602
 21
41.00894858602854
  0
LINE
  5
B5
100
AcDbEntity
  8
0
  6
ByLayer
 62
  256
370
   -1
100
AcDbLine
 10
89.93378480000001
 20
25.40713158602855
 11
103.829431
 21
27.11330238602855
  0
LINE
  5
B6
100
AcDbEntity
  8
0
  6
ByLayer
 62
  256
370
   -1
100
AcDbLine
 10
88.22761399999999
 20
39.30277778602855
 11
89.93378480000001
 21
25.40713158602855
  0
LINE
  5
B7
100
AcDbEntity
  8
0
  6
ByLayer
 62
  256
370
   -1
100
AcDbLine
 10
102.1232602
 20
41.00894858602854
 11
103.829431
 21
27.11330238602855
  0
LINE
  5
B8
100
AcDbEntity
  8
0
  6
ByLayer
 62
  256
370
   -1
100
AcDbLine
 10
15.109624
 20
11.18233078602854
 11
29.00527020000001
 21
12.88850158602855
  0
LINE
  5
B9
100
AcDbEntity
  8
0
  6
ByLayer
 62
  256
370
   -1
100
AcDbLine
 10
16.81579479999999
 20
-2.713315413971451
 11
30.71144100000001
 21
-1.007144613971455
  0
LINE
  5
BA
100
AcDbEntity
  8
0
  6
ByLayer
 62
  256
370
   -1
100
AcDbLine
 10
15.109624
 20
11.18233078602854
 11
16.81579479999999
 21
-2.713315413971451
  0
LINE
  5
BB
100
AcDbEntity
  8
0
  6
ByLayer
 62
  256
370
   -1
100
AcDbLine
 10
29.00527020000001
 20
12.88850158602855
 11
30.71144100000001
 21
-1.007144613971455
  0
LINE
  5
BC
100
AcDbEntity
  8
0
  6
ByLayer
 62
  256
370
   -1
100
AcDbLine
 10
33.96800089999999
 20
13.49784828602855
 11
47.86364710000001
 21
15.20401908602855
  0
LINE
  5
BD
100
AcDbEntity
  8
0
  6
ByLayer
 62
  256
370
   -1
100
AcDbLine
 10
35.67417169999999
 20
-0.397797913971452
 11
49.5698179
 21
1.30837288602855
  0
LINE
  5
BE
100
AcDbEntity
  8
0
  6
ByLayer
 62
  256
370
   -1
100
AcDbLine
 10
33.96800089999999
 20
13.49784828602855
 11
35.67417169999999
 21
-0.397797913971452
  0
LINE
  5
BF
100
AcDbEntity
  8
0
  6
ByLayer
 62
  256
370
   -1
100
AcDbLine
 10
47.86364710000001
 20
15.20401908602855
 11
49.5698179
 21
1.30837288602855
  0
LINE
  5
C0
100
AcDbEntity
  8
0
  6
ByLayer
 62
  256
370
   -1
100
AcDbLine
 10
52.82637779999999
 20
15.81336578602855
 11
66.722024
 21
17.51953658602855
  0
LINE
  5
C1
100
AcDbEntity
  8
0
  6
ByLayer
 62
  256
370
   -1
100
AcDbLine
 10
54.53254860000001
 20
1.917719586028547
 11
68.4281948
 21
3.623890386028549
  0
LINE
  5
C2
100
AcDbEntity
  8
0
  6
ByLayer
 62
  256
370
   -1
100
AcDbLine
 10
52.82637779999999
 20
15.81336578602855
 11
54.53254860000001
 21
1.917719586028547
  0
LINE
  5
C3
100
AcDbEntity
  8
0
  6
ByLayer
 62
  256
370
   -1
100
AcDbLine
 10
66.722024
 20
17.51953658602855
 11
68.4281948
 21
3.623890386028549
  0
LINE
  5
C4
100
AcDbEntity
  8
0
  6
ByLayer
 62
  256
370
   -1
100
AcDbLine
 10
71.68475470000001
 20
18.12888338602855
 11
85.5804009
 21
19.83505418602855
  0
LINE
  5
C5
100
AcDbEntity
  8
0
  6
ByLayer
 62
  256
370
   -1
100
AcDbLine
 10
73.39092550000001
 20
4.233237186028546
 11
87.2865717
 21
5.939407986028549
  0
LINE
  5
C6
100
AcDbEntity
  8
0
  6
ByLayer
 62
  256
370
   -1
100
AcDbLine
 10
71.68475470000001
 20
18.12888338602855
 11
73.39092550000001
 21
4.233237186028546
  0
LINE
  5
C7
100
AcDbEntity
  8
0
  6
ByLayer
 62
  256
370
   -1
100
AcDbLine
 10
85.5804009
 20
19.83505418602855
 11
87.2865717
 21
5.939407986028549
  0
LINE
  5
C8
100
AcDbEntity
  8
0
  6
ByLayer
 62
  256
370
   -1
100
AcDbLine
 10
92.90042869999999
 20
20.73384058602855
 11
106.7960749
 21
22.44001138602855
  0
LINE
  5
C9
100
AcDbEntity
  8
0
  6
ByLayer
 62
  256
370
   -1
100
AcDbLine
 10
94.60659949999999
 20
6.838194386028547
 11
108.5022457
 21
8.54436518602855
  0
LINE
  5
CA
100
AcDbEntity
  8
0
  6
ByLayer
 62
  256
370
   -1
100
AcDbLine
 10
92.90042869999999
 20
20.73384058602855
 11
94.60659949999999
 21
6.838194386028547
  0
LINE
  5
CB
100
AcDbEntity
  8
0
  6
ByLayer
 62
  256
370
   -1
100
AcDbLine
 10
106.7960749
 20
22.44001138602855
 11
108.5022457
 21
8.54436518602855
  0
LINE
  5
CC
100
AcDbEntity
  8
0
  6
ByLayer
 62
  256
370
   -1
100
AcDbLine
 10
7.995953099999994
 20
-8.833804913971456
 11
21.8915993
 21
-7.127634113971453
  0
LINE
  5
CD
100
AcDbEntity
  8
0
  6
ByLayer
 62
  256
370
   -1
100
AcDbLine
 10
9.702123900000004
 20
-22.72945111397146
 11
23.59777009999999
 21
-21.02328031397145
  0
LINE
  5
CE
100
AcDbEntity
  8
0
  6
ByLayer
 62
  256
370
   -1
100
AcDbLine
 10
7.995953099999994
 20
-8.833804913971456
 11
9.702123900000004
 21
-22.72945111397146
  0
LINE
  5
CF
100
AcDbEntity
  8
0
  6
ByLayer
 62
  256
370
   -1
100
AcDbLine
 10
21.8915993
 20
-7.127634113971453
 11
23.59777009999999
 21
-21.02328031397145
  0
LINE
  5
D0
100
AcDbEntity
  8
0
  6
ByLayer
 62
  256
370
   -1
100
AcDbLine
 10
26.85433
 20
-6.518287313971456
 11
40.74997619999999
 21
-4.812116513971453
  0
LINE
  5
D1
100
AcDbEntity
  8
0
  6
ByLayer
 62
  256
370
   -1
100
AcDbLine
 10
28.5605008
 20
-20.41393351397145
 11
42.45614699999999
 21
-18.70776271397146
  0
LINE
  5
D2
100
AcDbEntity
  8
0
  6
ByLayer
 62
  256
370
   -1
100
AcDbLine
 10
26.85433
 20
-6.518287313971456
 11
28.5605008
 21
-20.41393351397145
  0
LINE
  5
D3
100
AcDbEntity
  8
0
  6
ByLayer
 62
  256
370
   -1
100
AcDbLine
 10
40.74997619999999
 20
-4.812116513971453
 11
42.45614699999999
 21
-18.70776271397146
  0
LINE
  5
D4
100
AcDbEntity
  8
0
  6
ByLayer
 62
  256
370
   -1
100
AcDbLine
 10
45.7127069
 20
-4.20276981397145
 11
59.60835309999999
 21
-2.496599013971455
  0
LINE
  5
D5
100
AcDbEntity
  8
0
  6
ByLayer
 62
  256
370
   -1
100
AcDbLine
 10
47.4188777
 20
-18.09841601397145
 11
61.31452390000001
 21
-16.39224521397146
  0
LINE
  5
D6
100
AcDbEntity
  8
0
  6
ByLayer
 62
  256
370
   -1
100
AcDbLine
 10
45.7127069
 20
-4.20276981397145
 11
47.4188777
 21
-18.09841601397145
  0
LINE
  5
D7
100
AcDbEntity
  8
0
  6
ByLayer
 62
  256
370
   -1
100
AcDbLine
 10
59.60835309999999
 20
-2.496599013971455
 11
61.31452390000001
 21
-16.39224521397146
  0
LINE
  5
D8
100
AcDbEntity
  8
0
  6
ByLayer
 62
  256
370
   -1
100
AcDbLine
 10
64.5710838
 20
-1.887252313971452
 11
78.46673000000001
 21
-0.1810815139714563
  0
LINE
  5
D9
100
AcDbEntity
  8
0
  6
ByLayer
 62
  256
370
   -1
100
AcDbLine
 10
66.27725459999999
 20
-15.78289851397145
 11
80.17290080000001
 21
-14.07672771397145
  0
LINE
  5
DA
100
AcDbEntity
  8
0
  6
ByLayer
 62
  256
370
   -1
100
AcDbLine
 10
64.5710838
 20
-1.887252313971452
 11
66.27725459999999
 21
-15.78289851397145
  0
LINE
  5
DB
100
AcDbEntity
  8
0
  6
ByLayer
 62
  256
370
   -1
100
AcDbLine
 10
78.46673000000001
 20
-0.1810815139714563
 11
80.17290080000001
 21
-14.07672771397145
  0
LINE
  5
DC
100
AcDbEntity
  8
0
  6
ByLayer
 62
  256
370
   -1
100
AcDbLine
 10
90.501352
 20
1.296584286028548
 11
104.3969982
 21
3.00275508602855
  0
LINE
  5
DD
100
AcDbEntity
  8
0
  6
ByLayer
 62
  256
370
   -1
100
AcDbLine
 10
92.20752279999999
 20
-12.59906191397145
 11
106.103169
 21
-10.89289111397145
  0
LINE
  5
DE
100
AcDbEntity
  8
0
  6
ByLayer
 62
  256
370
   -1
100
AcDbLine
 10
90.501352
 20
1.296584286028548
 11
92.20752279999999
 21
-12.59906191397145
  0
LINE
  5
DF
100
AcDbEntity
  8
0
  6
ByLayer
 62
  256
370
   -1
100
AcDbLine
 10
104.3969982
 20
3.00275508602855
 11
106.103169
 21
-10.89289111397145
  0
LINE
  5
E0
100
AcDbEntity
  8
0
  6
ByLayer
 62
  256
370
   -1
100
AcDbLine
 10
19.74065909999999
 20
-26.53442301397146
 11
33.6363053
 21
-24.82825221397146
  0
LINE
  5
E1
100
AcDbEntity
  8
0
  6
ByLayer
 62
  256
370
   -1
100
AcDbLine
 10
21.44682990000001
 20
-40.43006921397146
 11
35.3424761
 21
-38.72389841397145
  0
LINE
  5
E2
100
AcDbEntity
  8
0
  6
ByLayer
 62
  256
370
   -1
100
AcDbLine
 10
19.74065909999999
 20
-26.53442301397146
 11
21.44682990000001
 21
-40.43006921397146
  0
LINE
  5
E3
100
AcDbEntity
  8
0
  6
ByLayer
 62
  256
370
   -1
100
AcDbLine
 10
33.6363053
 20
-24.82825221397146
 11
35.3424761
 21
-38.72389841397145
  0
LINE
  5
E4
100
AcDbEntity
  8
0
  6
ByLayer
 62
  256
370
   -1
100
AcDbLine
 10
50.38552150000001
 20
-22.77170701397146
 11
64.2811677
 21
-21.06553621397145
  0
LINE
  5
E5
100
AcDbEntity
  8
0
  6
ByLayer
 62
  256
370
   -1
100
AcDbLine
 10
52.09169230000001
 20
-36.66735321397146
 11
65.98733849999999
 21
-34.96118241397145
  0
LINE
  5
E6
100
AcDbEntity
  8
0
  6
ByLayer
 62
  256
370
   -1
100
AcDbLine
 10
50.38552150000001
 20
-22.77170701397146
 11
52.09169230000001
 21
-36.66735321397146
  0
LINE
  5
E7
100
AcDbEntity
  8
0
  6
ByLayer
 62
  256
370
   -1
100
AcDbLine
 10
64.2811677
 20
-21.06553621397145
 11
65.98733849999999
 21
-34.96118241397145
  0
LINE
  5
E8
100
AcDbEntity
  8
0
  6
ByLayer
 62
  256
370
   -1
100
AcDbLine
 10
73.9584926
 20
-19.87731011397145
 11
87.85413879999999
 21
-18.17113931397145
  0
LINE
  5
E9
100
AcDbEntity
  8
0
  6
ByLayer
 62
  256
370
   -1
100
AcDbLine
 10
75.66466339999999
 20
-33.77295631397146
 11
89.56030960000001
 21
-32.06678551397145
  0
LINE
  5
EA
100
AcDbEntity
  8
0
  6
ByLayer
 62
  256
370
   -1
100
AcDbLine
 10
73.9584926
 20
-19.87731011397145
 11
75.66466339999999
 21
-33.77295631397146
  0
LINE
  5
EB
100
AcDbEntity
  8
0
  6
ByLayer
 62
  256
370
   -1
100
AcDbLine
 10
87.85413879999999
 20
-18.17113931397145
 11
89.56030960000001
 21
-32.06678551397145
  0
LINE
  5
EC
100
AcDbEntity
  8
0
  6
ByLayer
 62
  256
370
   -1
100
AcDbLine
 10
97.53146369999999
 20
-16.98291321397145
 11
111.4271099
 21
-15.27674241397145
  0
LINE
  5
ED
100
AcDbEntity
  8
0
  6
ByLayer
 62
  256
370
   -1
100
AcDbLine
 10
99.23763450000001
 20
-30.87855941397145
 11
113.1332807
 21
-29.17238861397146
  0
LINE
  5
EE
100
AcDbEntity
  8
0
  6
ByLayer
 62
  256
370
   -1
100
AcDbLine
 10
97.53146369999999
 20
-16.98291321397145
 11
99.23763450000001
 21
-30.87855941397145
  0
LINE
  5
EF
100
AcDbEntity
  8
0
  6
ByLayer
 62
  256
370
   -1
100
AcDbLine
 10
111.4271099
 20
-15.27674241397145
 11
113.1332807
 21
-29.17238861397146
  0
LINE
  5
F0
100
AcDbEntity
  8
keycap
  6
ByLayer
 62
  256
370
   -1
100
AcDbLine
 10
-5.209914365027169
 20
-6.657112889997687
 11
-7.525431876026236
 21
-25.51548984894428
  0
LINE
  5
F1
100
AcDbEntity
  8
keycap
  6
ByLayer
 62
  256
370
   -1
100
AcDbLine
 10
-23.90244345549954
 20
-23.50464569344474
 11
-7.525431876026236
 21
-25.51548984894428
  0
LINE
  5
F2
100
AcDbEntity
  8
keycap
  6
ByLayer
 62
  256
370
   -1
100
AcDbLine
 10
-12.32358526502717
 20
13.35902281000231
 11
-7.60899106545105
 21
12.78014343718364
  0
LINE
  5
F3
100
AcDbEntity
  8
keycap
  6
ByLayer
 62
  256
370
   -1
100
AcDbLine
 10
-12.32358526502717
 20
13.35902281000231
 11
-14.63910277529581
 21
-5.49935414299542
  0
LINE
  5
F4
100
AcDbEntity
  8
keycap
  6
ByLayer
 62
  256
370
   -1
100
AcDbLine
 10
-14.63910277529581
 20
-5.49935414299542
 11
-5.209914365027169
 21
-6.657112889997687
  0
LINE
  5
F5
100
AcDbEntity
  8
keycap
  6
ByLayer
 62
  256
370
   -1
100
AcDbLine
 10
5.209914365027169
 20
-6.657112889997689
 11
7.525431876026236
 21
-25.51548984894428
  0
LINE
  5
F6
100
AcDbEntity
  8
keycap
  6
ByLayer
 62
  256
370
   -1
100
AcDbLine
 10
23.90244345549954
 20
-23.50464569344474
 11
7.525431876026236
 21
-25.51548984894428
  0
LINE
  5
F7
100
AcDbEntity
  8
keycap
  6
ByLayer
 62
  256
370
   -1
100
AcDbLine
 10
12.32358526502717
 20
13.35902281000229
 11
7.60899106545105
 21
12.78014343718365
  0
LINE
  5
F8
100
AcDbEntity
  8
keycap
  6
ByLayer
 62
  256
370
   -1
100
AcDbLine
 10
12.32358526502717
 20
13.35902281000229
 11
14.63910277529581
 21
-5.499354142995424
  0
LINE
  5
F9
100
AcDbEntity
  8
keycap
  6
ByLayer
 62
  256
370
   -1
100
AcDbLine
 10
14.63910277529581
 20
-5.499354142995424
 11
5.209914365027169
 21
-6.657112889997689
  0
LINE
  5
FA
100
AcDbEntity
  8
keycap
  6
ByLayer
 62
  256
370
   -1
100
AcDbLine
 10
-26.38507934450047
 20
34.22824386550185
 11
-5.293473561745599
 21
31.63852033672867
  0
LINE
  5
FB
100
AcDbEntity
  8
keycap
  6
ByLayer
 62
  256
370
   -1
100
AcDbLine
 10
-5.293473561745599
 20
31.63852033672867
 11
-7.60899106545105
 21
12.78014343718364
  0
LINE
  5
FC
100
AcDbEntity
  8
keycap
  6
ByLayer
 62
  256
370
   -1
100
AcDbLine
 10
5.29347356502718
 20
31.63852031000232
 11
7.60899106545105
 21
12.78014343718365
  0
LINE
  5
FD
100
AcDbEntity
  8
keycap
  6
ByLayer
 62
  256
370
   -1
100
AcDbLine
 10
5.29347356502718
 20
31.63852031000232
 11
21.67048514450046
 21
33.64936446550184
  0
CIRCLE
  5
FE
100
AcDbEntity
  8
percage
  6
ByLayer
 62
  256
370
   -1
100
AcDbCircle
 10
0
 20
-25.51548984894428
 40
1.1
  0
ARC
  5
FF
100
AcDbEntity
  8
edge
  6
ByLayer
 62
  256
370
   -1
100
AcDbCircle
 10
-118
 20
-43.5
 40
2
100
AcDbArc
 50
180.0000000000002
 51
269.9999999999992
  0
LINE
  5
100
100
AcDbEntity
  8
edge
  6
ByLayer
 62
  256
370
   -1
100
AcDbLine
 10
-120
 20
43.49999999999999
 11
-120
 21
-43.50000000000001
  0
ARC
  5
101
100
AcDbEntity
  8
edge
  6
ByLayer
 62
  256
370
   -1
100
AcDbCircle
 10
-118
 20
43.5
 40
2
100
AcDbArc
 50
89.99999999999959
 51
180.0000000000002
  0
LINE
  5
102
100
AcDbEntity
  8
edge
  6
ByLayer
 62
  256
370
   -1
100
AcDbLine
 10
118
 20
-45.5
 11
-118
 21
-45.5
  0
ARC
  5
103
100
AcDbEntity
  8
edge
  6
ByLayer
 62
  256
370
   -1
100
AcDbCircle
 10
118
 20
-43.5
 40
2
100
AcDbArc
 50
270
 51
0
  0
LINE
  5
104
100
AcDbEntity
  8
edge
  6
ByLayer
 62
  256
370
   -1
100
AcDbLine
 10
118
 20
45.5
 11
-118
 21
45.5
  0
LINE
  5
105
100
AcDbEntity
  8
edge
  6
ByLayer
 62
  256
370
   -1
100
AcDbLine
 10
120
 20
43.5
 11
120
 21
-43.5
  0
ARC
  5
106
100
AcDbEntity
  8
edge
  6
ByLayer
 62
  256
370
   -1
100
AcDbCircle
 10
118
 20
43.5
 40
2
100
AcDbArc
 50
0
 51
90
  0
ARC
  5
107
100
AcDbEntity
  8
int
  6
ByLayer
 62
  256
370
   -1
100
AcDbCircle
 10
119
 20
-40.11814874534878
 40
0
100
AcDbArc
 50
90
 51
225
  0
LINE
  5
108
100
AcDbEntity
  8
int
  6
ByLayer
 62
  256
370
   -1
100
AcDbLine
 10
-5.990581280248332
 20
-24.36530033206532
 11
-9.389045503634176
 21
-42.06566697551425
  0
ARC
  5
109
100
AcDbEntity
  8
int
  6
ByLayer
 62
  256
370
   -1
100
AcDbCircle
 10
-12.33523301851041
 20
-41.50000000000001
 40
3
100
AcDbArc
 50
270
 51
349.1314939286692
  0
LINE
  5
10A
100
AcDbEntity
  8
int
  6
ByLayer
 62
  256
370
   -1
100
AcDbLine
 10
5.990581280248332
 20
-24.36530033206532
 11
9.389045503634176
 21
-42.06566697551425
  0
ARC
  5
10B
100
AcDbEntity
  8
int
  6
ByLayer
 62
  256
370
   -1
100
AcDbCircle
 10
12.3352330185104
 20
-41.5
 40
3
100
AcDbArc
 50
190.868506071331
 51
270.0000000000001
  0
ARC
  5
10C
100
AcDbEntity
  8
int
  6
ByLayer
 62
  256
370
   -1
100
AcDbCircle
 10
0
 20
-25.51548984894428
 40
6.1
100
AcDbArc
 50
10.86850607133092
 51
169.1314939286692
  0
CIRCLE
  5
10D
100
AcDbEntity
  8
percage
  6
ByLayer
 62
  256
370
   -1
100
AcDbCircle
 10
114.7573593128807
 20
40.25735931288072
 40
1.1
  0
CIRCLE
  5
10E
100
AcDbEntity
  8
percage
  6
ByLayer
 62
  256
370
   -1
100
AcDbCircle
 10
114.7573593128807
 20
-40.25735931288072
 40
1.1
  0
CIRCLE
  5
10F
100
AcDbEntity
  8
percage
  6
ByLayer
 62
  256
370
   -1
100
AcDbCircle
 10
-114.7573593128807
 20
40.25735931288072
 40
1.1
  0
CIRCLE
  5
110
100
AcDbEntity
  8
percage
  6
ByLayer
 62
  256
370
   -1
100
AcDbCircle
 10
-114.7573593128807
 20
-40.2573593128807
 40
1.1
  0
ARC
  5
111
100
AcDbEntity
  8
int
  6
ByLayer
 62
  256
370
   -1
100
AcDbCircle
 10
105.6889301836881
 20
39.5
 40
5
100
AcDbArc
 50
4.774037803239459
 51
90
  0
ARC
  5
112
100
AcDbEntity
  8
int
  6
ByLayer
 62
  256
370
   -1
100
AcDbCircle
 10
-105.688930183688
 20
39.49999999999999
 40
5
100
AcDbArc
 50
90.00000000000017
 51
175.2259621967605
  0
LINE
  5
113
100
AcDbEntity
  8
int
  6
ByLayer
 62
  256
370
   -1
100
AcDbLine
 10
105.6889301836881
 20
44.5
 11
-105.6889301836881
 21
44.5
  0
ARC
  5
114
100
AcDbEntity
  8
int
  6
ByLayer
 62
  256
370
   -1
100
AcDbCircle
 10
114
 20
31.18893018368793
 40
5
100
AcDbArc
 50
0
 51
85.22596219676062
  0
ARC
  5
115
100
AcDbEntity
  8
int
  6
ByLayer
 62
  256
370
   -1
100
AcDbCircle
 10
114
 20
-31.18893018368767
 40
5
100
AcDbArc
 50
274.7740378032391
 51
0
  0
ARC
  5
116
100
AcDbEntity
  8
int
  6
ByLayer
 62
  256
370
   -1
100
AcDbCircle
 10
105.6889301836878
 20
-39.49999999999999
 40
5
100
AcDbArc
 50
270
 51
355.2259621967606
  0
ARC
  5
117
100
AcDbEntity
  8
int
  6
ByLayer
 62
  256
370
   -1
100
AcDbCircle
 10
-105.688930183688
 20
-39.49999999999999
 40
5
100
AcDbArc
 50
184.7740378032394
 51
269.9999999999998
  0
ARC
  5
118
100
AcDbEntity
  8
int
  6
ByLayer
 62
  256
370
   -1
100
AcDbCircle
 10
-114
 20
31.18893018368836
 40
5
100
AcDbArc
 50
94.77403780323964
 51
180
  0
ARC
  5
119
100
AcDbEntity
  8
int
  6
ByLayer
 62
  256
370
   -1
100
AcDbCircle
 10
-114
 20
-31.18893018368784
 40
5
100
AcDbArc
 50
180.0000000000001
 51
265.2259621967607
  0
LINE
  5
11A
100
AcDbEntity
  8
int
  6
ByLayer
 62
  256
370
   -1
100
AcDbLine
 10
-105.6889301836881
 20
-44.49999999999999
 11
-12.33523301851041
 21
-44.50000000000001
  0
LINE
  5
11B
100
AcDbEntity
  8
int
  6
ByLayer
 62
  256
370
   -1
100
AcDbLine
 10
12.33523301851041
 20
-44.5
 11
105.6889301836878
 21
-44.49999999999999
  0
ARC
  5
11C
100
AcDbEntity
  8
int
  6
ByLayer
 62
  256
370
   -1
100
AcDbCircle
 10
114.7573593128807
 20
-40.25735931288072
 40
4.1
100
AcDbArc
 50
94.77403780323922
 51
175.2259621967607
  0
ARC
  5
11D
100
AcDbEntity
  8
int
  6
ByLayer
 62
  256
370
   -1
100
AcDbCircle
 10
114.7573593128807
 20
40.25735931288072
 40
4.1
100
AcDbArc
 50
184.7740378032395
 51
265.2259621967606
  0
ARC
  5
11E
100
AcDbEntity
  8
int
  6
ByLayer
 62
  256
370
   -1
100
AcDbCircle
 10
-114.7573593128807
 20
40.25735931288072
 40
4.1
100
AcDbArc
 50
274.7740378032394
 51
355.2259621967605
  0
ARC
  5
11F
100
AcDbEntity
  8
int
  6
ByLayer
 62
  256
370
   -1
100
AcDbCircle
 10
-114.7573593128807
 20
-40.2573593128807
 40
4.1
100
AcDbArc
 50
4.774037803239459
 51
85.22596219676075
  0
LINE
  5
120
100
AcDbEntity
  8
int
  6
ByLayer
 62
  256
370
   -1
100
AcDbLine
 10
-119
 20
31.18893018368836
 11
-119
 21
-31.18893018368786
  0
LINE
  5
121
100
AcDbEntity
  8
int
  6
ByLayer
 62
  256
370
   -1
100
AcDbLine
 10
119
 20
31.18893018368793
 11
119
 21
-31.18893018368767
  0
LINE
  5
122
100
AcDbEntity
  8
ext1
  6
ByLayer
 62
  256
370
   -1
100
AcDbLine
 10
118
 20
46.5
 11
-118
 21
46.5
  0
ARC
  5
123
100
AcDbEntity
  8
ext1
  6
ByLayer
 62
  256
370
   -1
100
AcDbCircle
 10
118
 20
43.5
 40
3
100
AcDbArc
 50
0
 51
90
  0
LINE
  5
124
100
AcDbEntity
  8
ext1
  6
ByLayer
 62
  256
370
   -1
100
AcDbLine
 10
121
 20
43.5
 11
121
 21
-43.5
  0
ARC
  5
125
100
AcDbEntity
  8
ext1
  6
ByLayer
 62
  256
370
   -1
100
AcDbCircle
 10
118
 20
-43.5
 40
3
100
AcDbArc
 50
270
 51
0
  0
LINE
  5
126
100
AcDbEntity
  8
ext1
  6
ByLayer
 62
  256
370
   -1
100
AcDbLine
 10
118
 20
-46.5
 11
-118
 21
-46.5
  0
ARC
  5
127
100
AcDbEntity
  8
ext1
  6
ByLayer
 62
  256
370
   -1
100
AcDbCircle
 10
-118
 20
-43.5
 40
3
100
AcDbArc
 50
180.0000000000002
 51
269.9999999999992
  0
LINE
  5
128
100
AcDbEntity
  8
ext1
  6
ByLayer
 62
  256
370
   -1
100
AcDbLine
 10
-121
 20
43.49999999999999
 11
-121
 21
-43.50000000000001
  0
ARC
  5
129
100
AcDbEntity
  8
ext1
  6
ByLayer
 62
  256
370
   -1
100
AcDbCircle
 10
-118
 20
43.5
 40
3
100
AcDbArc
 50
89.99999999999959
 51
180.0000000000002
  0
LINE
  5
12A
100
AcDbEntity
  8
ext2
  6
ByLayer
 62
  256
370
   -1
100
AcDbLine
 10
118
 20
49.5
 11
-118
 21
49.5
  0
ARC
  5
12B
100
AcDbEntity
  8
ext2
  6
ByLayer
 62
  256
370
   -1
100
AcDbCircle
 10
-118
 20
43.5
 40
6
100
AcDbArc
 50
89.99999999999959
 51
180.0000000000002
  0
LINE
  5
12C
100
AcDbEntity
  8
ext2
  6
ByLayer
 62
  256
370
   -1
100
AcDbLine
 10
-124
 20
43.49999999999999
 11
-124
 21
-43.50000000000001
  0
ARC
  5
12D
100
AcDbEntity
  8
ext2
  6
ByLayer
 62
  256
370
   -1
100
AcDbCircle
 10
118
 20
43.5
 40
6
100
AcDbArc
 50
0
 51
90
  0
LINE
  5
12E
100
AcDbEntity
  8
ext2
  6
ByLayer
 62
  256
370
   -1
100
AcDbLine
 10
124
 20
43.5
 11
124
 21
-43.5
  0
LINE
  5
12F
100
AcDbEntity
  8
ext2
  6
ByLayer
 62
  256
370
   -1
100
AcDbLine
 10
118
 20
-49.5
 11
-118
 21
-49.5
  0
ARC
  5
130
100
AcDbEntity
  8
ext2
  6
ByLayer
 62
  256
370
   -1
100
AcDbCircle
 10
118
 20
-43.5
 40
6
100
AcDbArc
 50
270
 51
0
  0
ARC
  5
131
100
AcDbEntity
  8
ext2
  6
ByLayer
 62
  256
370
   -1
100
AcDbCircle
 10
-118
 20
-43.5
 40
6
100
AcDbArc
 50
180.0000000000002
 51
269.9999999999992
  0
LINE
  5
132
100
AcDbEntity
  8
ext3
  6
ByLayer
 62
  256
370
   -1
100
AcDbLine
 10
-126
 20
43.49999999999999
 11
-126
 21
-43.50000000000001
  0
ARC
  5
133
100
AcDbEntity
  8
ext3
  6
ByLayer
 62
  256
370
   -1
100
AcDbCircle
 10
-118
 20
-43.5
 40
8
100
AcDbArc
 50
180.0000000000002
 51
269.9999999999992
  0
LINE
  5
134
100
AcDbEntity
  8
ext3
  6
ByLayer
 62
  256
370
   -1
100
AcDbLine
 10
118
 20
-51.5
 11
-118
 21
-51.5
  0
ARC
  5
135
100
AcDbEntity
  8
ext3
  6
ByLayer
 62
  256
370
   -1
100
AcDbCircle
 10
118
 20
-43.5
 40
8
100
AcDbArc
 50
270
 51
0
  0
LINE
  5
136
100
AcDbEntity
  8
ext3
  6
ByLayer
 62
  256
370
   -1
100
AcDbLine
 10
126
 20
43.5
 11
126
 21
-43.5
  0
ARC
  5
137
100
AcDbEntity
  8
ext3
  6
ByLayer
 62
  256
370
   -1
100
AcDbCircle
 10
118
 20
43.5
 40
8
100
AcDbArc
 50
0
 51
90
  0
LINE
  5
138
100
AcDbEntity
  8
ext3
  6
ByLayer
 62
  256
370
   -1
100
AcDbLine
 10
118
 20
51.5
 11
-118
 21
51.5
  0
ARC
  5
139
100
AcDbEntity
  8
ext3
  6
ByLayer
 62
  256
370
   -1
100
AcDbCircle
 10
-118
 20
43.5
 40
8
100
AcDbArc
 50
89.99999999999959
 51
180.0000000000002
  0
LINE
  5
13A
100
AcDbEntity
  8
placement
  6
ByLayer
 62
  256
370
   -1
100
AcDbLine
 10
-106.8378545
 20
41.58782788602855
 11
-94.6483791
 21
25.98601088602855
  0
LINE
  5
13B
100
AcDbEntity
  8
placement
  6
ByLayer
 62
  256
370
   -1
100
AcDbLine
 10
-87.9794776
 20
39.27231038602855
 11
-75.79000219999999
 21
23.67049338602855
  0
LINE
  5
13C
100
AcDbEntity
  8
placement
  6
ByLayer
 62
  256
370
   -1
100
AcDbLine
 10
-69.1211007
 20
36.95679288602854
 11
-56.93162529999999
 21
21.35497588602854
  0
LINE
  5
13D
100
AcDbEntity
  8
placement
  6
ByLayer
 62
  256
370
   -1
100
AcDbLine
 10
-50.2627238
 20
34.64127538602855
 11
-38.0732484
 21
19.03945838602855
  0
LINE
  5
13E
100
AcDbEntity
  8
placement
  6
ByLayer
 62
  256
370
   -1
100
AcDbLine
 10
-26.6897527
 20
31.74687848602855
 11
-14.50027729999999
 21
16.14506148602855
  0
LINE
  5
13F
100
AcDbEntity
  8
placement
  6
ByLayer
 62
  256
370
   -1
100
AcDbLine
 10
-29.0052702
 20
12.88850158602855
 11
-16.81579479999999
 21
-2.713315413971451
  0
LINE
  5
140
100
AcDbEntity
  8
placement
  6
ByLayer
 62
  256
370
   -1
100
AcDbLine
 10
-47.86364709999999
 20
15.20401908602855
 11
-35.67417169999998
 21
-0.3977979139714503
  0
LINE
  5
141
100
AcDbEntity
  8
placement
  6
ByLayer
 62
  256
370
   -1
100
AcDbLine
 10
-40.74997620000001
 20
-4.812116513971453
 11
-28.56050080000001
 21
-20.41393351397145
  0
LINE
  5
142
100
AcDbEntity
  8
placement
  6
ByLayer
 62
  256
370
   -1
100
AcDbLine
 10
-66.722024
 20
17.51953658602855
 11
-54.5325486
 21
1.91771958602855
  0
LINE
  5
143
100
AcDbEntity
  8
placement
  6
ByLayer
 62
  256
370
   -1
100
AcDbLine
 10
-85.5804009
 20
19.83505418602855
 11
-73.39092549999999
 21
4.23323718602855
  0
LINE
  5
144
100
AcDbEntity
  8
placement
  6
ByLayer
 62
  256
370
   -1
100
AcDbLine
 10
-106.7960749
 20
22.44001138602855
 11
-94.60659949999999
 21
6.838194386028551
  0
LINE
  5
145
100
AcDbEntity
  8
placement
  6
ByLayer
 62
  256
370
   -1
100
AcDbLine
 10
-104.3969982
 20
3.00275508602855
 11
-92.20752279999999
 21
-12.59906191397145
  0
LINE
  5
146
100
AcDbEntity
  8
placement
  6
ByLayer
 62
  256
370
   -1
100
AcDbLine
 10
-78.46673
 20
-0.1810815139714563
 11
-66.27725459999999
 21
-15.78289851397146
  0
LINE
  5
147
100
AcDbEntity
  8
placement
  6
ByLayer
 62
  256
370
   -1
100
AcDbLine
 10
-59.6083531
 20
-2.496599013971455
 11
-47.4188777
 21
-18.09841601397146
  0
LINE
  5
148
100
AcDbEntity
  8
placement
  6
ByLayer
 62
  256
370
   -1
100
AcDbLine
 10
-66.63846480000001
 20
-20.77609651397146
 11
-54.4489894
 21
-36.37791351397146
  0
LINE
  5
149
100
AcDbEntity
  8
placement
  6
ByLayer
 62
  256
370
   -1
100
AcDbLine
 10
-35.9936024
 20
-24.53881251397146
 11
-23.80412699999999
 21
-40.14062951397146
  0
LINE
  5
14A
100
AcDbEntity
  8
placement
  6
ByLayer
 62
  256
370
   -1
100
AcDbLine
 10
-87.8541388
 20
-18.17113931397145
 11
-75.66466339999999
 21
-33.77295631397145
  0
LINE
  5
14B
100
AcDbEntity
  8
placement
  6
ByLayer
 62
  256
370
   -1
100
AcDbLine
 10
-111.4271099
 20
-15.27674241397145
 11
-99.2376345
 21
-30.87855941397145
  0
LINE
  5
14C
100
AcDbEntity
  8
placement
  6
ByLayer
 62
  256
370
   -1
100
AcDbLine
 10
29.0052702
 20
12.88850158602856
 11
16.81579479999999
 21
-2.713315413971465
  0
LINE
  5
14D
100
AcDbEntity
  8
placement
  6
ByLayer
 62
  256
370
   -1
100
AcDbLine
 10
47.86364709999999
 20
15.20401908602855
 11
35.67417169999998
 21
-0.3977979139714396
  0
LINE
  5
14E
100
AcDbEntity
  8
placement
  6
ByLayer
 62
  256
370
   -1
100
AcDbLine
 10
40.74997620000001
 20
-4.812116513971454
 11
28.56050080000001
 21
-20.41393351397148
  0
LINE
  5
14F
100
AcDbEntity
  8
placement
  6
ByLayer
 62
  256
370
   -1
100
AcDbLine
 10
66.722024
 20
17.51953658602855
 11
54.5325486
 21
1.917719586028543
  0
LINE
  5
150
100
AcDbEntity
  8
placement
  6
ByLayer
 62
  256
370
   -1
100
AcDbLine
 10
85.5804009
 20
19.83505418602851
 11
73.39092549999999
 21
4.233237186028543
  0
LINE
  5
151
100
AcDbEntity
  8
placement
  6
ByLayer
 62
  256
370
   -1
100
AcDbLine
 10
106.7960749
 20
22.44001138602854
 11
94.60659949999999
 21
6.838194386028544
  0
LINE
  5
152
100
AcDbEntity
  8
placement
  6
ByLayer
 62
  256
370
   -1
100
AcDbLine
 10
104.3969982
 20
3.002755086028564
 11
92.20752279999999
 21
-12.59906191397146
  0
LINE
  5
153
100
AcDbEntity
  8
placement
  6
ByLayer
 62
  256
370
   -1
100
AcDbLine
 10
78.46673
 20
-0.1810815139714706
 11
66.27725459999999
 21
-15.78289851397146
  0
LINE
  5
154
100
AcDbEntity
  8
placement
  6
ByLayer
 62
  256
370
   -1
100
AcDbLine
 10
59.6083531
 20
-2.496599013971469
 11
47.4188777
 21
-18.09841601397146
  0
LINE
  5
155
100
AcDbEntity
  8
placement
  6
ByLayer
 62
  256
370
   -1
100
AcDbLine
 10
87.8541388
 20
-18.17113931397145
 11
75.66466339999999
 21
-33.77295631397145
  0
LINE
  5
156
100
AcDbEntity
  8
placement
  6
ByLayer
 62
  256
370
   -1
100
AcDbLine
 10
111.4271099
 20
-15.27674241397145
 11
99.2376345
 21
-30.87855941397145
  0
LINE
  5
157
100
AcDbEntity
  8
placement
  6
ByLayer
 62
  256
370
   -1
100
AcDbLine
 10
21.97515849999998
 20
31.16799908602855
 11
9.785683099999972
 21
15.56618208602853
  0
LINE
  5
158
100
AcDbEntity
  8
placement
  6
ByLayer
 62
  256
370
   -1
100
AcDbLine
 10
40.83353539999997
 20
33.48351658602855
 11
28.64405999999997
 21
17.88169958602853
  0
LINE
  5
159
100
AcDbEntity
  8
placement
  6
ByLayer
 62
  256
370
   -1
100
AcDbLine
 10
59.6919123
 20
35.79903408602856
 11
47.50243689999999
 21
20.19721708602853
  0
LINE
  5
15A
100
AcDbEntity
  8
placement
  6
ByLayer
 62
  256
370
   -1
100
AcDbLine
 10
78.55028909999997
 20
38.11455168602856
 11
66.36081369999997
 21
22.51273468602853
  0
LINE
  5
15B
100
AcDbEntity
  8
placement
  6
ByLayer
 62
  256
370
   -1
100
AcDbLine
 10
102.1232602
 20
41.00894858602854
 11
89.93378479999998
 21
25.40713158602852
  0
LINE
  5
15C
100
AcDbEntity
  8
placement
  6
ByLayer
 62
  256
370
   -1
100
AcDbLine
 10
33.63630529999999
 20
-24.82825221397145
 11
21.44682989999998
 21
-40.43006921397148
  0
LINE
  5
15D
100
AcDbEntity
  8
placement
  6
ByLayer
 62
  256
370
   -1
100
AcDbLine
 10
64.28116769999998
 20
-21.06553621397144
 11
52.09169229999998
 21
-36.66735321397147
  0
LINE
  5
15E
100
AcDbEntity
  8
placement
  6
ByLayer
 62
  256
370
   -1
100
AcDbLine
 10
9.702123900000004
 20
-22.72945111397146
 11
21.8915993
 21
-7.127634113971453
  0
LINE
  5
15F
100
AcDbEntity
  8
placement
  6
ByLayer
 62
  256
370
   -1
100
AcDbLine
 10
-9.702123900000004
 20
-22.72945111397146
 11
-21.8915993
 21
-7.127634113971453
  0
LINE
  5
160
100
AcDbEntity
  8
rpi
  6
ByLayer
 62
  256
370
   -1
100
AcDbLine
 10
-12.3572971
 20
20.5
 11
-12.3572971
 21
44.5
  0
LINE
  5
161
100
AcDbEntity
  8
rpi
  6
ByLayer
 62
  256
370
   -1
100
AcDbLine
 10
7.642702900000002
 20
20.5
 11
-12.3572971
 21
20.5
  0
LINE
  5
162
100
AcDbEntity
  8
rpi
  6
ByLayer
 62
  256
370
   -1
100
AcDbLine
 10
7.642702900000002
 20
44.5
 11
-12.3572971
 21
44.5
  0
LINE
  5
163
100
AcDbEntity
  8
rpi
  6
ByLayer
 62
  256
370
   -1
100
AcDbLine
 10
7.642702900000002
 20
20.5
 11
7.642702900000002
 21
44.5
  0
LINE
  5
164
100
AcDbEntity
  8
placement
  6
ByLayer
 62
  256
370
   -1
100
AcDbLine
 10
-12.3572971
 20
44.5
 11
7.642702900000001
 21
20.5
  0
LINE
  5
165
100
AcDbEntity
  8
placement
  6
ByLayer
 62
  256
370
   -1
100
AcDbLine
 10
-90.4608429205267
 20
39.57698373052902
 11
-92.1670137205267
 21
25.68133753052902
  0
LINE
  5
166
100
AcDbEntity
  8
placement
  6
ByLayer
 62
  256
370
   -1
100
AcDbLine
 10
-90.41906332052669
 20
20.42916723052902
 11
-92.1252341205267
 21
6.533521030529016
  0
LINE
  5
167
100
AcDbEntity
  8
placement
  6
ByLayer
 62
  256
370
   -1
100
AcDbLine
 10
-71.6024660794733
 20
37.26146624152806
 11
-73.3086368794733
 21
23.36582004152808
  0
LINE
  5
168
100
AcDbEntity
  8
placement
  6
ByLayer
 62
  256
370
   -1
100
AcDbLine
 10
-69.20338937947331
 20
17.82420994152808
 11
-70.9095601794733
 21
3.928563741528075
  0
LINE
  5
169
100
AcDbEntity
  8
placement
  6
ByLayer
 62
  256
370
   -1
100
AcDbLine
 10
-88.01998662052669
 20
0.9919109305290217
 11
-89.72615742052669
 21
-12.90373526947098
  0
LINE
  5
16A
100
AcDbEntity
  8
placement
  6
ByLayer
 62
  256
370
   -1
100
AcDbLine
 10
-62.0897184794733
 20
-2.191925658471928
 11
-63.79588927947329
 21
-16.08757185847193
  0
LINE
  5
16B
100
AcDbEntity
  8
placement
  6
ByLayer
 62
  256
370
   -1
100
AcDbLine
 10
-50.34501247947328
 20
15.50869244152808
 11
-52.05118327947329
 21
1.613046241528081
  0
LINE
  5
16C
100
AcDbEntity
  8
placement
  6
ByLayer
 62
  256
370
   -1
100
AcDbLine
 10
-52.7440891794733
 20
34.94594874152808
 11
-54.45025997947329
 21
21.05030254152808
  0
LINE
  5
16D
100
AcDbEntity
  8
placement
  6
ByLayer
 62
  256
370
   -1
100
AcDbLine
 10
-33.88571222052671
 20
32.63043123052901
 11
-35.5918830205267
 21
18.73478503052902
  0
LINE
  5
16E
100
AcDbEntity
  8
placement
  6
ByLayer
 62
  256
370
   -1
100
AcDbLine
 10
-29.1711180794733
 20
32.05155184152807
 11
-30.87728887947329
 21
18.15590564152808
  0
LINE
  5
16F
100
AcDbEntity
  8
placement
  6
ByLayer
 62
  256
370
   -1
100
AcDbLine
 10
-31.48663557947329
 20
13.19317494152808
 11
-33.19280637947329
 21
-0.7024712584719285
  0
LINE
  5
170
100
AcDbEntity
  8
placement
  6
ByLayer
 62
  256
370
   -1
100
AcDbLine
 10
-12.6282586205267
 20
10.87765743052901
 11
-14.33442942052671
 21
-3.017988769470982
  0
LINE
  5
171
100
AcDbEntity
  8
placement
  6
ByLayer
 62
  256
370
   -1
100
AcDbLine
 10
-5.514587720526698
 20
-9.138478269470987
 11
-7.220758520526707
 21
-23.03412446947099
  0
LINE
  5
172
100
AcDbEntity
  8
placement
  6
ByLayer
 62
  256
370
   -1
100
AcDbLine
 10
-24.37296462052671
 20
-6.822960669470985
 11
-26.0791354205267
 21
-20.71860686947098
  0
LINE
  5
173
100
AcDbEntity
  8
placement
  6
ByLayer
 62
  256
370
   -1
100
AcDbLine
 10
-43.23134157947331
 20
-4.507443158471926
 11
-44.9375123794733
 21
-18.40308935847193
  0
LINE
  5
174
100
AcDbEntity
  8
placement
  6
ByLayer
 62
  256
370
   -1
100
AcDbLine
 10
-95.0500983205267
 20
-17.28758656947098
 11
-96.7562691205267
 21
-31.18323276947098
  0
LINE
  5
175
100
AcDbEntity
  8
placement
  6
ByLayer
 62
  256
370
   -1
100
AcDbLine
 10
-71.4771272205267
 20
-20.18198346947098
 11
-73.18329802052669
 21
-34.07762966947099
  0
LINE
  5
176
100
AcDbEntity
  8
placement
  6
ByLayer
 62
  256
370
   -1
100
AcDbLine
 10
-50.26145322052671
 20
-22.78694066947099
 11
-51.96762402052671
 21
-36.68258686947098
  0
LINE
  5
177
100
AcDbEntity
  8
placement
  6
ByLayer
 62
  256
370
   -1
100
AcDbLine
 10
-68.99576184105339
 20
-20.48665682497051
 11
-70.70193264105339
 21
-34.38230302497051
  0
LINE
  5
178
100
AcDbEntity
  8
placement
  6
ByLayer
 62
  256
370
   -1
100
AcDbLine
 10
5.514587720526698
 20
-9.138478269470985
 11
7.220758520526707
 21
-23.03412446947099
  0
LINE
  5
179
100
AcDbEntity
  8
placement
  6
ByLayer
 62
  256
370
   -1
100
AcDbLine
 10
12.6282586205267
 20
10.87765743052902
 11
14.33442942052669
 21
-3.017988769470976
  0
LINE
  5
17A
100
AcDbEntity
  8
placement
  6
ByLayer
 62
  256
370
   -1
100
AcDbLine
 10
24.45652382052671
 20
31.47267243052903
 11
26.1626946205267
 21
17.57702623052903
  0
LINE
  5
17B
100
AcDbEntity
  8
placement
  6
ByLayer
 62
  256
370
   -1
100
AcDbLine
 10
43.3149007205267
 20
33.78818993052903
 11
45.0210715205267
 21
19.89254373052903
  0
LINE
  5
17C
100
AcDbEntity
  8
placement
  6
ByLayer
 62
  256
370
   -1
100
AcDbLine
 10
62.17327767947331
 20
36.10370744152807
 11
63.8794484794733
 21
22.20806124152807
  0
LINE
  5
17D
100
AcDbEntity
  8
placement
  6
ByLayer
 62
  256
370
   -1
100
AcDbLine
 10
81.03165447947329
 20
38.41922504152808
 11
82.73782527947331
 21
24.52357884152808
  0
LINE
  5
17E
100
AcDbEntity
  8
placement
  6
ByLayer
 62
  256
370
   -1
100
AcDbLine
 10
85.74624862052669
 20
38.99810443052902
 11
87.45241942052671
 21
25.10245823052902
  0
LINE
  5
17F
100
AcDbEntity
  8
placement
  6
ByLayer
 62
  256
370
   -1
100
AcDbLine
 10
31.4866355794733
 20
13.19317494152808
 11
33.19280637947331
 21
-0.7024712584719277
  0
LINE
  5
180
100
AcDbEntity
  8
placement
  6
ByLayer
 62
  256
370
   -1
100
AcDbLine
 10
50.3450124794733
 20
15.50869244152807
 11
52.05118327947329
 21
1.613046241528075
  0
LINE
  5
181
100
AcDbEntity
  8
placement
  6
ByLayer
 62
  256
370
   -1
100
AcDbLine
 10
69.20338937947331
 20
17.82420994152807
 11
70.9095601794733
 21
3.928563741528074
  0
LINE
  5
182
100
AcDbEntity
  8
placement
  6
ByLayer
 62
  256
370
   -1
100
AcDbLine
 10
90.41906332052669
 20
20.42916723052902
 11
92.12523412052668
 21
6.533521030529021
  0
LINE
  5
183
100
AcDbEntity
  8
placement
  6
ByLayer
 62
  256
370
   -1
100
AcDbLine
 10
88.01998662052669
 20
0.9919109305290232
 11
89.72615742052669
 21
-12.90373526947097
  0
LINE
  5
184
100
AcDbEntity
  8
placement
  6
ByLayer
 62
  256
370
   -1
100
AcDbLine
 10
24.3729646794733
 20
-6.822960758471928
 11
26.07913547947329
 21
-20.71860695847193
  0
LINE
  5
185
100
AcDbEntity
  8
placement
  6
ByLayer
 62
  256
370
   -1
100
AcDbLine
 10
43.2313415205267
 20
-4.507443169470975
 11
44.93751232052671
 21
-18.40308936947097
  0
LINE
  5
186
100
AcDbEntity
  8
placement
  6
ByLayer
 62
  256
370
   -1
100
AcDbLine
 10
62.0897184205267
 20
-2.191925669470977
 11
63.7958892205267
 21
-16.08757186947097
  0
LINE
  5
187
100
AcDbEntity
  8
placement
  6
ByLayer
 62
  256
370
   -1
100
AcDbLine
 10
80.94809537947332
 20
0.1235918415280688
 11
82.65426617947331
 21
-13.77205435847193
  0
LINE
  5
188
100
AcDbEntity
  8
placement
  6
ByLayer
 62
  256
370
   -1
100
AcDbLine
 10
106.8783635794733
 20
3.307428441528075
 11
108.5845343794733
 21
-10.58821775847193
  0
LINE
  5
189
100
AcDbEntity
  8
placement
  6
ByLayer
 62
  256
370
   -1
100
AcDbLine
 10
95.05009832052669
 20
-17.28758656947099
 11
96.75626912052671
 21
-31.18323276947098
  0
LINE
  5
18A
100
AcDbEntity
  8
placement
  6
ByLayer
 62
  256
370
   -1
100
AcDbLine
 10
71.4771272205267
 20
-20.18198346947097
 11
73.18329802052669
 21
-34.07762966947099
  0
LINE
  5
18B
100
AcDbEntity
  8
placement
  6
ByLayer
 62
  256
370
   -1
100
AcDbLine
 10
47.90415612052671
 20
-23.07638036947099
 11
49.61032692052672
 21
-36.97202656947098
  0
LINE
  5
18C
100
AcDbEntity
  8
placement
  6
ByLayer
 62
  256
370
   -1
100
AcDbLine
 10
66.7625330794733
 20
-20.76086285847192
 11
68.4687038794733
 21
-34.65650905847193
  0
LINE
  5
18D
100
AcDbEntity
  8
placement
  6
ByLayer
 62
  256
370
   -1
100
AcDbLine
 10
-90.3355041794733
 20
-17.86646595847192
 11
-92.0416749794733
 21
-31.76211215847193
  0
LINE
  5
18E
100
AcDbEntity
  8
placement
  6
ByLayer
 62
  256
370
   -1
100
AcDbLine
 10
90.33550417947329
 20
-17.86646595847192
 11
92.04167497947331
 21
-31.76211215847192
  0
LINE
  5
18F
100
AcDbEntity
  8
placement
  6
ByLayer
 62
  256
370
   -1
100
AcDbLine
 10
109.2774402794733
 20
22.74468474152808
 11
110.9836110794733
 21
8.849038541528079
  0
LINE
  5
190
100
AcDbEntity
  8
placement
  6
ByLayer
 62
  256
370
   -1
100
AcDbLine
 10
-109.2774402794733
 20
22.74468474152808
 11
-110.9836110794733
 21
8.849038541528081
  0
LINE
  5
191
100
AcDbEntity
  8
placement
  6
ByLayer
 62
  256
370
   -1
100
AcDbLine
 10
-106.8783635794733
 20
3.307428441528077
 11
-108.5845343794733
 21
-10.58821775847192
  0
LINE
  5
192
100
AcDbEntity
  8
0
  6
ByLayer
 62
  256
370
   -1
100
AcDbLine
 10
-6.999999999999999
 20
11
 11
7.000000000000001
 21
11
  0
LINE
  5
193
100
AcDbEntity
  8
0
  6
ByLayer
 62
  256
370
   -1
100
AcDbLine
 10
7.000000000000001
 20
11
 11
6.999999999999999
 21
-3.000000000000001
  0
LINE
  5
194
100
AcDbEntity
  8
0
  6
ByLayer
 62
  256
370
   -1
100
AcDbLine
 10
-6.999999999999999
 20
11
 11
-7.000000000000001
 21
-2.999999999999998
  0
LINE
  5
195
100
AcDbEntity
  8
0
  6
ByLayer
 62
  256
370
   -1
100
AcDbLine
 10
-7.000000000000001
 20
-2.999999999999998
 11
6.999999999999999
 21
-3.000000000000001
  0
LINE
  5
196
100
AcDbEntity
  8
placement
  6
ByLayer
 62
  256
370
   -1
100
AcDbLine
 10
-6.999999999999999
 20
11
 11
6.999999999999999
 21
-3.000000000000001
  0
LINE
  5
197
100
AcDbEntity
  8
rpi-decoupe
  6
ByLayer
 62
  256
370
   -1
100
AcDbLine
 10
-14.3572971
 20
57.5
 11
-14.3572971
 21
26.5
  0
LINE
  5
198
100
AcDbEntity
  8
rpi-decoupe
  6
ByLayer
 62
  256
370
   -1
100
AcDbLine
 10
9.6427029
 20
26.5
 11
-14.3572971
 21
26.5
  0
LINE
  5
199
100
AcDbEntity
  8
rpi-decoupe
  6
ByLayer
 62
  256
370
   -1
100
AcDbLine
 10
9.642702900000003
 20
57.5
 11
9.6427029
 21
26.5
  0
LINE
  5
19A
100
AcDbEntity
  8
rpi-decoupe
  6
ByLayer
 62
  256
370
   -1
100
AcDbLine
 10
-14.3572971
 20
57.5
 11
9.642702900000003
 21
57.5
  0
ARC
  5
19B
100
AcDbEntity
  8
ajour
  6
ByLayer
 62
  256
370
   -1
100
AcDbCircle
 10
0
 20
-25.51548984894428
 40
16.1
100
AcDbArc
 50
10.86850607133092
 51
169.1314939286692
  0
ARC
  5
19C
100
AcDbEntity
  8
ajour
  6
ByLayer
 62
  256
370
   -1
100
AcDbCircle
 10
34
 20
29.5
 40
5
100
AcDbArc
 50
0
 51
90
  0
LINE
  5
19D
100
AcDbEntity
  8
ajour
  6
ByLayer
 62
  256
370
   -1
100
AcDbLine
 10
39
 20
29.5
 11
39
 21
-29.49999999999999
  0
ARC
  5
19E
100
AcDbEntity
  8
ajour
  6
ByLayer
 62
  256
370
   -1
100
AcDbCircle
 10
34
 20
-29.49999999999999
 40
5
100
AcDbArc
 50
270.0000000000001
 51
7.63333123551244e-14
  0
LINE
  5
19F
100
AcDbEntity
  8
ajour
  6
ByLayer
 62
  256
370
   -1
100
AcDbLine
 10
22.25041871063914
 20
-34.5
 11
34.00000000000001
 21
-34.49999999999999
  0
LINE
  5
1A0
100
AcDbEntity
  8
ajour
  6
ByLayer
 62
  256
370
   -1
100
AcDbLine
 10
15.81120632983576
 20
-22.47974374701785
 11
17.34010618584542
 21
-30.44277829252373
  0
ARC
  5
1A1
100
AcDbEntity
  8
ajour
  6
ByLayer
 62
  256
370
   -1
100
AcDbCircle
 10
22.25041871063914
 20
-29.5
 40
5
100
AcDbArc
 50
190.8685060713309
 51
270
  0
ARC
  5
1A2
100
AcDbEntity
  8
ajour
  6
ByLayer
 62
  256
370
   -1
100
AcDbCircle
 10
64
 20
-29.5
 40
5
100
AcDbArc
 50
179.9999999999998
 51
270
  0
LINE
  5
1A3
100
AcDbEntity
  8
ajour
  6
ByLayer
 62
  256
370
   -1
100
AcDbLine
 10
59
 20
29.5
 11
59
 21
-29.49999999999998
  0
ARC
  5
1A4
100
AcDbEntity
  8
ajour
  6
ByLayer
 62
  256
370
   -1
100
AcDbCircle
 10
64
 20
29.5
 40
5
100
AcDbArc
 50
90
 51
180
  0
LINE
  5
1A5
100
AcDbEntity
  8
ajour
  6
ByLayer
 62
  256
370
   -1
100
AcDbLine
 10
98.97479866469737
 20
34.5
 11
64
 21
34.5
  0
ARC
  5
1A6
100
AcDbEntity
  8
ajour
  6
ByLayer
 62
  256
370
   -1
100
AcDbCircle
 10
98.97479866469737
 20
29.5
 40
5
100
AcDbArc
 50
34.2782580134048
 51
90
  0
ARC
  5
1A7
100
AcDbEntity
  8
ajour
  6
ByLayer
 62
  256
370
   -1
100
AcDbCircle
 10
114.7573593128807
 20
40.25735931288072
 40
14.1
100
AcDbArc
 50
214.2782580134048
 51
235.7217419865953
  0
ARC
  5
1A8
100
AcDbEntity
  8
ajour
  6
ByLayer
 62
  256
370
   -1
100
AcDbCircle
 10
104
 20
24.4747986646974
 40
5
100
AcDbArc
 50
0
 51
55.72174198659527
  0
LINE
  5
1A9
100
AcDbEntity
  8
ajour
  6
ByLayer
 62
  256
370
   -1
100
AcDbLine
 10
109
 20
24.4747986646974
 11
109
 21
-24.47479866469759
  0
ARC
  5
1AA
100
AcDbEntity
  8
ajour
  6
ByLayer
 62
  256
370
   -1
100
AcDbCircle
 10
104
 20
-24.47479866469759
 40
5
100
AcDbArc
 50
304.2782580134051
 51
0
  0
ARC
  5
1AB
100
AcDbEntity
  8
ajour
  6
ByLayer
 62
  256
370
   -1
100
AcDbCircle
 10
114.7573593128807
 20
-40.25735931288072
 40
14.1
100
AcDbArc
 50
124.2782580134051
 51
145.7217419865951
  0
LINE
  5
1AC
100
AcDbEntity
  8
ajour
  6
ByLayer
 62
  256
370
   -1
100
AcDbLine
 10
64
 20
-34.49999999999999
 11
98.97479866469743
 21
-34.5
  0
ARC
  5
1AD
100
AcDbEntity
  8
ajour
  6
ByLayer
 62
  256
370
   -1
100
AcDbCircle
 10
98.97479866469743
 20
-29.5
 40
5
100
AcDbArc
 50
270
 51
325.7217419865951
  0
ARC
  5
1AE
100
AcDbEntity
  8
ajour
  6
ByLayer
 62
  256
370
   -1
100
AcDbCircle
 10
-34
 20
-29.5
 40
5
100
AcDbArc
 50
180
 51
270
  0
LINE
  5
1AF
100
AcDbEntity
  8
ajour
  6
ByLayer
 62
  256
370
   -1
100
AcDbLine
 10
-15.81120632983576
 20
-22.47974374701784
 11
-17.34010618584542
 21
-30.44277829252374
  0
LINE
  5
1B0
100
AcDbEntity
  8
ajour
  6
ByLayer
 62
  256
370
   -1
100
AcDbLine
 10
-34
 20
-34.5
 11
-22.25041871063914
 21
-34.50000000000001
  0
ARC
  5
1B1
100
AcDbEntity
  8
ajour
  6
ByLayer
 62
  256
370
   -1
100
AcDbCircle
 10
-22.25041871063914
 20
-29.50000000000001
 40
5
100
AcDbArc
 50
270
 51
349.1314939286692
  0
LINE
  5
1B2
100
AcDbEntity
  8
ajour
  6
ByLayer
 62
  256
370
   -1
100
AcDbLine
 10
34
 20
34.5
 11
-34
 21
34.5
  0
LINE
  5
1B3
100
AcDbEntity
  8
ajour
  6
ByLayer
 62
  256
370
   -1
100
AcDbLine
 10
-39
 20
29.5
 11
-39
 21
-29.5
  0
ARC
  5
1B4
100
AcDbEntity
  8
ajour
  6
ByLayer
 62
  256
370
   -1
100
AcDbCircle
 10
-34
 20
29.5
 40
5
100
AcDbArc
 50
90
 51
180
  0
ARC
  5
1B5
100
AcDbEntity
  8
ajour
  6
ByLayer
 62
  256
370
   -1
100
AcDbCircle
 10
-98.97479866469752
 20
29.49999999999999
 40
5
100
AcDbArc
 50
90
 51
145.721741986595
  0
LINE
  5
1B6
100
AcDbEntity
  8
ajour
  6
ByLayer
 62
  256
370
   -1
100
AcDbLine
 10
-64
 20
34.5
 11
-98.97479866469752
 21
34.5
  0
ARC
  5
1B7
100
AcDbEntity
  8
ajour
  6
ByLayer
 62
  256
370
   -1
100
AcDbCircle
 10
-64
 20
29.5
 40
5
100
AcDbArc
 50
0
 51
90
  0
LINE
  5
1B8
100
AcDbEntity
  8
ajour
  6
ByLayer
 62
  256
370
   -1
100
AcDbLine
 10
-59
 20
29.5
 11
-59
 21
-29.5
  0
ARC
  5
1B9
100
AcDbEntity
  8
ajour
  6
ByLayer
 62
  256
370
   -1
100
AcDbCircle
 10
-64
 20
-29.5
 40
5
100
AcDbArc
 50
270
 51
359.9999999999999
  0
LINE
  5
1BA
100
AcDbEntity
  8
ajour
  6
ByLayer
 62
  256
370
   -1
100
AcDbLine
 10
-98.9747986646977
 20
-34.49999999999999
 11
-64
 21
-34.5
  0
ARC
  5
1BB
100
AcDbEntity
  8
ajour
  6
ByLayer
 62
  256
370
   -1
100
AcDbCircle
 10
-98.9747986646977
 20
-29.50000000000001
 40
5
100
AcDbArc
 50
214.2782580134053
 51
270
  0
ARC
  5
1BC
100
AcDbEntity
  8
ajour
  6
ByLayer
 62
  256
370
   -1
100
AcDbCircle
 10
-114.7573593128807
 20
-40.2573593128807
 40
14.1
100
AcDbArc
 50
34.27825801340528
 51
55.7217419865952
  0
ARC
  5
1BD
100
AcDbEntity
  8
ajour
  6
ByLayer
 62
  256
370
   -1
100
AcDbCircle
 10
-104
 20
-24.47479866469743
 40
5
100
AcDbArc
 50
179.9999999999999
 51
235.7217419865951
  0
ARC
  5
1BE
100
AcDbEntity
  8
ajour
  6
ByLayer
 62
  256
370
   -1
100
AcDbCircle
 10
-114.7573593128807
 20
40.25735931288072
 40
14.1
100
AcDbArc
 50
304.2782580134045
 51
325.7217419865949
  0
LINE
  5
1BF
100
AcDbEntity
  8
ajour
  6
ByLayer
 62
  256
370
   -1
100
AcDbLine
 10
-109
 20
24.47479866469729
 11
-109
 21
-24.47479866469742
  0
ARC
  5
1C0
100
AcDbEntity
  8
ajour
  6
ByLayer
 62
  256
370
   -1
100
AcDbCircle
 10
-104
 20
24.47479866469729
 40
5
100
AcDbArc
 50
124.2782580134046
 51
180
  0
ENDSEC
  0
SECTION
  2
OBJECTS
  0
DICTIONARY
  5
C
330
0
100
AcDbDictionary
281
    1
  3
ACAD_GROUP
350
D
  0
DICTIONARY
  5
D
330
C
100
AcDbDictionary
281
    1
  0
PLOTSETTINGS
  5
1C1
100
AcDbPlotSettings
  6
1x1
 40
0
 41
0
 42
0
 43
0
  0
ENDSEC
  0
EOF
