999
dxfrw 0.6.3
  0
SECTION
  2
HEADER
  9
$ACADVER
  1
AC1021
  9
$DWGCODEPAGE
  3
ANSI_1252
  9
$INSBASE
 10
0
 20
0
 30
0
  9
$EXTMIN
 10
-129.7799559746544
 20
-50.52445178710282
 30
0
  9
$EXTMAX
 10
129.7799559746544
 20
58.52445178710283
 30
0
  9
$LIMMIN
 10
0
 20
0
  9
$LIMMAX
 10
420
 20
297
  9
$ORTHOMODE
 70
    0
  9
$REGENMODE
 70
    1
  9
$FILLMODE
 70
    1
  9
$QTEXTMODE
 70
    0
  9
$MIRRTEXT
 70
    0
  9
$LTSCALE
 40
1
  9
$ATTMODE
 70
    0
  9
$TEXTSIZE
 40
2.5
  9
$TRACEWID
 40
15.68
  9
$TEXTSTYLE
  7
STANDARD
  9
$CLAYER
  8
cut-rp
  9
$CELTYPE
  6
BYLAYER
  9
$CECOLOR
 62
  256
  9
$CELTSCALE
 40
1
  9
$DISPSILH
 70
    0
  9
$DIMSCALE
 40
1
  9
$DIMASZ
 40
2.5
  9
$DIMEXO
 40
0.625
  9
$DIMDLI
 40
3.75
  9
$DIMRND
 40
0
  9
$DIMDLE
 40
0
  9
$DIMEXE
 40
1.25
  9
$DIMTP
 40
0
  9
$DIMTM
 40
0
  9
$DIMTXT
 40
2.5
  9
$DIMCEN
 40
2.5
  9
$DIMTSZ
 40
0
  9
$DIMTOL
 70
    0
  9
$DIMLIM
 70
    0
  9
$DIMTIH
 70
    0
  9
$DIMTOH
 70
    0
  9
$DIMSE1
 70
    0
  9
$DIMSE2
 70
    0
  9
$DIMTAD
 70
    1
  9
$DIMZIN
 70
    8
  9
$DIMBLK
  1

  9
$DIMASO
 70
    1
  9
$DIMSHO
 70
    1
  9
$DIMPOST
  1

  9
$DIMAPOST
  1

  9
$DIMALT
 70
    0
  9
$DIMALTD
 70
    3
  9
$DIMALTF
 40
0.03937
  9
$DIMLFAC
 40
1
  9
$DIMTOFL
 70
    1
  9
$DIMTVP
 40
0
  9
$DIMTIX
 70
    0
  9
$DIMSOXD
 70
    0
  9
$DIMSAH
 70
    0
  9
$DIMBLK1
  1

  9
$DIMBLK2
  1

  9
$DIMSTYLE
  2
STANDARD
  9
$DIMCLRD
 70
    0
  9
$DIMCLRE
 70
    0
  9
$DIMCLRT
 70
    0
  9
$DIMTFAC
 40
1
  9
$DIMGAP
 40
0.625
  9
$DIMJUST
 70
    0
  9
$DIMSD1
 70
    0
  9
$DIMSD2
 70
    0
  9
$DIMTOLJ
 70
    0
  9
$DIMTZIN
 70
    8
  9
$DIMALTZ
 70
    0
  9
$DIMALTTZ
 70
    0
  9
$DIMUPT
 70
    0
  9
$DIMDEC
 70
    2
  9
$DIMTDEC
 70
    2
  9
$DIMALTU
 70
    2
  9
$DIMALTTD
 70
    3
  9
$DIMTXSTY
  7
STANDARD
  9
$DIMAUNIT
 70
    0
  9
$DIMADEC
 70
    0
  9
$DIMALTRND
 40
0
  9
$DIMAZIN
 70
    0
  9
$DIMDSEP
 70
   44
  9
$DIMATFIT
 70
    3
  9
$DIMFRAC
 70
    0
  9
$DIMLDRBLK
  1
STANDARD
  9
$DIMLUNIT
 70
    2
  9
$DIMLWD
 70
   -2
  9
$DIMLWE
 70
   -2
  9
$DIMTMOVE
 70
    0
  9
$DIMFXL
 40
1
  9
$DIMFXLON
 70
    0
  9
$DIMJOGANG
 40
0.7854
  9
$DIMTFILL
 70
    0
  9
$DIMTFILLCLR
 70
    0
  9
$DIMARCSYM
 70
    0
  9
$DIMLTYPE
  6

  9
$DIMLTEX1
  6

  9
$DIMLTEX2
  6

  9
$LUNITS
 70
    2
  9
$LUPREC
 70
    4
  9
$SKETCHINC
 40
1
  9
$FILLETRAD
 40
0
  9
$AUNITS
 70
    0
  9
$AUPREC
 70
    2
  9
$MENU
  1
.
  9
$ELEVATION
 40
0
  9
$PELEVATION
 40
0
  9
$THICKNESS
 40
0
  9
$LIMCHECK
 70
    0
  9
$CHAMFERA
 40
0
  9
$CHAMFERB
 40
0
  9
$CHAMFERC
 40
0
  9
$CHAMFERD
 40
0
  9
$SKPOLY
 70
    0
  9
$USRTIMER
 70
    1
  9
$ANGBASE
 50
0
  9
$ANGDIR
 70
    0
  9
$PDMODE
 70
   34
  9
$PDSIZE
 40
0
  9
$PLINEWID
 40
0
  9
$SPLFRAME
 70
    0
  9
$SPLINETYPE
 70
    2
  9
$SPLINESEGS
 70
    8
  9
$HANDSEED
  5
20000
  9
$SURFTAB1
 70
    6
  9
$SURFTAB2
 70
    6
  9
$SURFTYPE
 70
    6
  9
$SURFU
 70
    6
  9
$SURFV
 70
    6
  9
$UCSBASE
  2

  9
$UCSNAME
  2

  9
$UCSORG
 10
0
 20
0
 30
0
  9
$UCSXDIR
 10
1
 20
0
 30
0
  9
$UCSYDIR
 10
0
 20
1
 30
0
  9
$UCSORTHOREF
  2

  9
$UCSORTHOVIEW
 70
    0
  9
$UCSORGTOP
 10
0
 20
0
 30
0
  9
$UCSORGBOTTOM
 10
0
 20
0
 30
0
  9
$UCSORGLEFT
 10
0
 20
0
 30
0
  9
$UCSORGRIGHT
 10
0
 20
0
 30
0
  9
$UCSORGFRONT
 10
0
 20
0
 30
0
  9
$UCSORGBACK
 10
0
 20
0
 30
0
  9
$PUCSBASE
  2

  9
$PUCSNAME
  2

  9
$PUCSORG
 10
0
 20
0
 30
0
  9
$PUCSXDIR
 10
1
 20
0
 30
0
  9
$PUCSYDIR
 10
0
 20
1
 30
0
  9
$PUCSORTHOREF
  2

  9
$PUCSORTHOVIEW
 70
    0
  9
$PUCSORGTOP
 10
0
 20
0
 30
0
  9
$PUCSORGBOTTOM
 10
0
 20
0
 30
0
  9
$PUCSORGLEFT
 10
0
 20
0
 30
0
  9
$PUCSORGRIGHT
 10
0
 20
0
 30
0
  9
$PUCSORGFRONT
 10
0
 20
0
 30
0
  9
$PUCSORGBACK
 10
0
 20
0
 30
0
  9
$USERI1
 70
    0
  9
$USERI2
 70
    0
  9
$USERI3
 70
    0
  9
$USERI4
 70
    0
  9
$USERI5
 70
    0
  9
$USERR1
 40
0
  9
$USERR2
 40
0
  9
$USERR3
 40
0
  9
$USERR4
 40
0
  9
$USERR5
 40
0
  9
$WORLDVIEW
 70
    1
  9
$SHADEDGE
 70
    3
  9
$SHADEDIF
 70
   70
  9
$TILEMODE
 70
    1
  9
$MAXACTVP
 70
   64
  9
$PINSBASE
 10
0
 20
0
 30
0
  9
$PLIMCHECK
 70
    0
  9
$PEXTMIN
 10
0
 20
0
 30
0
  9
$PEXTMAX
 10
0
 20
0
 30
0
  9
$GRIDMODE
 70
    1
  9
$SNAPSTYLE
 70
    0
  9
$PLIMMIN
 10
0
 20
0
  9
$PLIMMAX
 10
210
 20
297
  9
$UNITMODE
 70
    0
  9
$VISRETAIN
 70
    1
  9
$PLINEGEN
 70
    0
  9
$PSLTSCALE
 70
    1
  9
$TREEDEPTH
 70
 3020
  9
$CMLSTYLE
  2
Standard
  9
$CMLJUST
 70
    0
  9
$CMLSCALE
 40
20
  9
$PROXYGRAPHICS
 70
    1
  9
$MEASUREMENT
 70
    1
  9
$CELWEIGHT
370
   -1
  9
$ENDCAPS
280
    0
  9
$JOINSTYLE
280
    0
  9
$LWDISPLAY
290
    0
  9
$INSUNITS
 70
    0
  9
$HYPERLINKBASE
  1

  9
$STYLESHEET
  1

  9
$XEDIT
290
    1
  9
$CEPSNTYPE
380
    0
  9
$PSTYLEMODE
290
    1
  9
$EXTNAMES
290
    1
  9
$PSVPSCALE
 40
1
  9
$OLESTARTUP
290
    0
  9
$SORTENTS
280
  127
  9
$INDEXCTL
280
    0
  9
$HIDETEXT
280
    1
  9
$XCLIPFRAME
290
    0
  9
$HALOGAP
280
    0
  9
$OBSCOLOR
 70
  257
  9
$OBSLTYPE
280
    0
  9
$INTERSECTIONDISPLAY
280
    0
  9
$INTERSECTIONCOLOR
 70
  257
  9
$DIMASSOC
280
    1
  9
$PROJECTNAME
  1

  9
$CAMERADISPLAY
290
    0
  9
$LENSLENGTH
 40
50
  9
$CAMERAHEIGHT
 40
0
  9
$STEPSPERSEC
 40
2
  9
$STEPSIZE
 40
50
  9
$3DDWFPREC
 40
2
  9
$PSOLWIDTH
 40
5
  9
$PSOLHEIGHT
 40
80
  9
$LOFTANG1
 40
1.570796326794897
  9
$LOFTANG2
 40
1.570796326794897
  9
$LOFTMAG1
 40
0
  9
$LOFTMAG2
 40
0
  9
$LOFTPARAM
 70
    7
  9
$LOFTNORMALS
280
    1
  9
$LATITUDE
 40
1
  9
$LONGITUDE
 40
1
  9
$NORTHDIRECTION
 40
0
  9
$TIMEZONE
 70
-8000
  9
$LIGHTGLYPHDISPLAY
280
    1
  9
$TILEMODELIGHTSYNCH
280
    1
  9
$SOLIDHIST
280
    1
  9
$SHOWHIST
280
    1
  9
$DWFFRAME
280
    2
  9
$DGNFRAME
280
    0
  9
$REALWORLDSCALE
290
    1
  9
$INTERFERECOLOR
 62
    1
  9
$CSHADOW
280
    0
  9
$SHADOWPLANELOCATION
 40
0
  0
ENDSEC
  0
SECTION
  2
CLASSES
  0
ENDSEC
  0
SECTION
  2
TABLES
  0
TABLE
  2
VPORT
  5
8
330
0
100
AcDbSymbolTable
 70
    1
  0
VPORT
  5
31
330
2
100
AcDbSymbolTableRecord
100
AcDbViewportTableRecord
  2
*ACTIVE
 70
    0
 10
0
 20
0
 11
1
 21
1
 12
-1.457865240596372
 22
-1.593932663052033
 13
0
 23
0
 14
10
 24
10
 15
10
 25
10
 16
0
 26
0
 36
1
 17
0
 27
0
 37
0
 40
0.3498876577431292
 41
1.814814814814815
 42
50
 43
0
 44
0
 50
0
 51
0
 71
    0
 72
  100
 73
    1
 74
    3
 75
    0
 76
    1
 77
    0
 78
    0
281
    0
 65
    1
110
0
120
0
130
0
111
1
121
0
131
0
112
0
122
1
132
0
 79
    0
146
0
348
10020
 60
    7
 61
    5
292
1
282
    1
141
0
142
0
 63
  250
421
3358443
  0
ENDTAB
  0
TABLE
  2
LTYPE
  5
5
330
0
100
AcDbSymbolTable
 70
    4
  0
LTYPE
  5
14
330
5
100
AcDbSymbolTableRecord
100
AcDbLinetypeTableRecord
  2
ByBlock
 70
    0
  3

 72
   65
 73
    0
 40
0
  0
LTYPE
  5
15
330
5
100
AcDbSymbolTableRecord
100
AcDbLinetypeTableRecord
  2
ByLayer
 70
    0
  3

 72
   65
 73
    0
 40
0
  0
LTYPE
  5
16
330
5
100
AcDbSymbolTableRecord
100
AcDbLinetypeTableRecord
  2
Continuous
 70
    0
  3
Solid line
 72
   65
 73
    0
 40
0
  0
LTYPE
  5
32
330
5
100
AcDbSymbolTableRecord
100
AcDbLinetypeTableRecord
  2
DOT
 70
    0
  3
Dot . . . . . . . . . . . . . . . . . . . . . .
 72
   65
 73
    2
 40
6.35
 49
0
 74
    0
 49
-6.35
 74
    0
  0
LTYPE
  5
33
330
5
100
AcDbSymbolTableRecord
100
AcDbLinetypeTableRecord
  2
DOTTINY
 70
    0
  3
Dot (.15x) .....................................
 72
   65
 73
    2
 40
0.9525
 49
0
 74
    0
 49
-0.9525
 74
    0
  0
LTYPE
  5
34
330
5
100
AcDbSymbolTableRecord
100
AcDbLinetypeTableRecord
  2
DOT2
 70
    0
  3
Dot (.5x) .....................................
 72
   65
 73
    2
 40
3.175
 49
0
 74
    0
 49
-3.175
 74
    0
  0
LTYPE
  5
35
330
5
100
AcDbSymbolTableRecord
100
AcDbLinetypeTableRecord
  2
DOTX2
 70
    0
  3
Dot (2x) .  .  .  .  .  .  .  .  .  .  .  .  .
 72
   65
 73
    2
 40
12.7
 49
0
 74
    0
 49
-12.7
 74
    0
  0
LTYPE
  5
36
330
5
100
AcDbSymbolTableRecord
100
AcDbLinetypeTableRecord
  2
DASHED
 70
    0
  3
Dashed _ _ _ _ _ _ _ _ _ _ _ _ _ _ _ _ _
 72
   65
 73
    2
 40
19.05
 49
12.7
 74
    0
 49
-6.35
 74
    0
  0
LTYPE
  5
37
330
5
100
AcDbSymbolTableRecord
100
AcDbLinetypeTableRecord
  2
DASHEDTINY
 70
    0
  3
Dashed (.15x) _ _ _ _ _ _ _ _ _ _ _ _ _ _ _ _ _
 72
   65
 73
    2
 40
2.8575
 49
1.905
 74
    0
 49
-0.9525
 74
    0
  0
LTYPE
  5
38
330
5
100
AcDbSymbolTableRecord
100
AcDbLinetypeTableRecord
  2
DASHED2
 70
    0
  3
Dashed (.5x) _ _ _ _ _ _ _ _ _ _ _ _ _ _ _ _ _
 72
   65
 73
    2
 40
9.524999999999999
 49
6.35
 74
    0
 49
-3.175
 74
    0
  0
LTYPE
  5
39
330
5
100
AcDbSymbolTableRecord
100
AcDbLinetypeTableRecord
  2
DASHEDX2
 70
    0
  3
Dashed (2x) ____  ____  ____  ____  ____  ___
 72
   65
 73
    2
 40
38.09999999999999
 49
25.4
 74
    0
 49
-12.7
 74
    0
  0
LTYPE
  5
3A
330
5
100
AcDbSymbolTableRecord
100
AcDbLinetypeTableRecord
  2
DASHDOT
 70
    0
  3
Dash dot __ . __ . __ . __ . __ . __ . __ . __
 72
   65
 73
    4
 40
25.4
 49
12.7
 74
    0
 49
-6.35
 74
    0
 49
0
 74
    0
 49
-6.35
 74
    0
  0
LTYPE
  5
3B
330
5
100
AcDbSymbolTableRecord
100
AcDbLinetypeTableRecord
  2
DASHDOTTINY
 70
    0
  3
Dash dot (.15x) _._._._._._._._._._._._._._._.
 72
   65
 73
    4
 40
3.81
 49
1.905
 74
    0
 49
-0.9525
 74
    0
 49
0
 74
    0
 49
-0.9525
 74
    0
  0
LTYPE
  5
3C
330
5
100
AcDbSymbolTableRecord
100
AcDbLinetypeTableRecord
  2
DASHDOT2
 70
    0
  3
Dash dot (.5x) _._._._._._._._._._._._._._._.
 72
   65
 73
    4
 40
12.7
 49
6.35
 74
    0
 49
-3.175
 74
    0
 49
0
 74
    0
 49
-3.175
 74
    0
  0
LTYPE
  5
3D
330
5
100
AcDbSymbolTableRecord
100
AcDbLinetypeTableRecord
  2
DASHDOTX2
 70
    0
  3
Dash dot (2x) ____  .  ____  .  ____  .  ___
 72
   65
 73
    4
 40
50.8
 49
25.4
 74
    0
 49
-12.7
 74
    0
 49
0
 74
    0
 49
-12.7
 74
    0
  0
LTYPE
  5
3E
330
5
100
AcDbSymbolTableRecord
100
AcDbLinetypeTableRecord
  2
DIVIDE
 70
    0
  3
Divide ____ . . ____ . . ____ . . ____ . . ____
 72
   65
 73
    6
 40
31.75
 49
12.7
 74
    0
 49
-6.35
 74
    0
 49
0
 74
    0
 49
-6.35
 74
    0
 49
0
 74
    0
 49
-6.35
 74
    0
  0
LTYPE
  5
3F
330
5
100
AcDbSymbolTableRecord
100
AcDbLinetypeTableRecord
  2
DIVIDETINY
 70
    0
  3
Divide (.15x) __..__..__..__..__..__..__..__.._
 72
   65
 73
    6
 40
4.7625
 49
1.905
 74
    0
 49
-0.9525
 74
    0
 49
0
 74
    0
 49
-0.9525
 74
    0
 49
0
 74
    0
 49
-0.9525
 74
    0
  0
LTYPE
  5
40
330
5
100
AcDbSymbolTableRecord
100
AcDbLinetypeTableRecord
  2
DIVIDE2
 70
    0
  3
Divide (.5x) __..__..__..__..__..__..__..__.._
 72
   65
 73
    6
 40
15.875
 49
6.35
 74
    0
 49
-3.175
 74
    0
 49
0
 74
    0
 49
-3.175
 74
    0
 49
0
 74
    0
 49
-3.175
 74
    0
  0
LTYPE
  5
41
330
5
100
AcDbSymbolTableRecord
100
AcDbLinetypeTableRecord
  2
DIVIDEX2
 70
    0
  3
Divide (2x) ________  .  .  ________  .  .  _
 72
   65
 73
    6
 40
63.5
 49
25.4
 74
    0
 49
-12.7
 74
    0
 49
0
 74
    0
 49
-12.7
 74
    0
 49
0
 74
    0
 49
-12.7
 74
    0
  0
LTYPE
  5
42
330
5
100
AcDbSymbolTableRecord
100
AcDbLinetypeTableRecord
  2
BORDER
 70
    0
  3
Border __ __ . __ __ . __ __ . __ __ . __ __ .
 72
   65
 73
    6
 40
44.45
 49
12.7
 74
    0
 49
-6.35
 74
    0
 49
12.7
 74
    0
 49
-6.35
 74
    0
 49
0
 74
    0
 49
-6.35
 74
    0
  0
LTYPE
  5
43
330
5
100
AcDbSymbolTableRecord
100
AcDbLinetypeTableRecord
  2
BORDERTINY
 70
    0
  3
Border (.15x) __.__.__.__.__.__.__.__.__.__.__.
 72
   65
 73
    6
 40
6.6675
 49
1.905
 74
    0
 49
-0.9525
 74
    0
 49
1.905
 74
    0
 49
-0.9525
 74
    0
 49
0
 74
    0
 49
-0.9525
 74
    0
  0
LTYPE
  5
44
330
5
100
AcDbSymbolTableRecord
100
AcDbLinetypeTableRecord
  2
BORDER2
 70
    0
  3
Border (.5x) __.__.__.__.__.__.__.__.__.__.__.
 72
   65
 73
    6
 40
22.225
 49
6.35
 74
    0
 49
-3.175
 74
    0
 49
6.35
 74
    0
 49
-3.175
 74
    0
 49
0
 74
    0
 49
-3.175
 74
    0
  0
LTYPE
  5
45
330
5
100
AcDbSymbolTableRecord
100
AcDbLinetypeTableRecord
  2
BORDERX2
 70
    0
  3
Border (2x) ____  ____  .  ____  ____  .  ___
 72
   65
 73
    6
 40
88.89999999999999
 49
25.4
 74
    0
 49
-12.7
 74
    0
 49
25.4
 74
    0
 49
-12.7
 74
    0
 49
0
 74
    0
 49
-12.7
 74
    0
  0
LTYPE
  5
46
330
5
100
AcDbSymbolTableRecord
100
AcDbLinetypeTableRecord
  2
CENTER
 70
    0
  3
Center ____ _ ____ _ ____ _ ____ _ ____ _ ____
 72
   65
 73
    4
 40
50.8
 49
31.75
 74
    0
 49
-6.35
 74
    0
 49
6.35
 74
    0
 49
-6.35
 74
    0
  0
LTYPE
  5
47
330
5
100
AcDbSymbolTableRecord
100
AcDbLinetypeTableRecord
  2
CENTERTINY
 70
    0
  3
Center (.15x) ___ _ ___ _ ___ _ ___ _ ___ _ ___
 72
   65
 73
    4
 40
7.619999999999999
 49
4.7625
 74
    0
 49
-0.9525
 74
    0
 49
0.9525
 74
    0
 49
-0.9525
 74
    0
  0
LTYPE
  5
48
330
5
100
AcDbSymbolTableRecord
100
AcDbLinetypeTableRecord
  2
CENTER2
 70
    0
  3
Center (.5x) ___ _ ___ _ ___ _ ___ _ ___ _ ___
 72
   65
 73
    4
 40
28.575
 49
19.05
 74
    0
 49
-3.175
 74
    0
 49
3.175
 74
    0
 49
-3.175
 74
    0
  0
LTYPE
  5
49
330
5
100
AcDbSymbolTableRecord
100
AcDbLinetypeTableRecord
  2
CENTERX2
 70
    0
  3
Center (2x) ________  __  ________  __  _____
 72
   65
 73
    4
 40
101.6
 49
63.5
 74
    0
 49
-12.7
 74
    0
 49
12.7
 74
    0
 49
-12.7
 74
    0
  0
ENDTAB
  0
TABLE
  2
LAYER
  5
2
330
0
100
AcDbSymbolTable
 70
    1
  0
LAYER
  5
10
330
2
100
AcDbSymbolTableRecord
100
AcDbLayerTableRecord
  2
0
 70
    4
 62
    7
  6
CONTINUOUS
370
    0
390
F
  0
LAYER
  5
4A
330
2
100
AcDbSymbolTableRecord
100
AcDbLayerTableRecord
  2
ajour
 70
    4
 62
    3
  6
CONTINUOUS
370
    0
390
F
  0
LAYER
  5
4B
330
2
100
AcDbSymbolTableRecord
100
AcDbLayerTableRecord
  2
cut-rp
 70
    4
 62
    6
  6
CONTINUOUS
370
    0
390
F
  0
LAYER
  5
4C
330
2
100
AcDbSymbolTableRecord
100
AcDbLayerTableRecord
  2
edge
 70
    4
 62
    2
  6
CONTINUOUS
370
    0
390
F
  0
LAYER
  5
4D
330
2
100
AcDbSymbolTableRecord
100
AcDbLayerTableRecord
  2
ext1
 70
    4
 62
  161
420
9016831
  6
CONTINUOUS
370
    0
390
F
  0
LAYER
  5
4E
330
2
100
AcDbSymbolTableRecord
100
AcDbLayerTableRecord
  2
ext2
 70
    4
 62
  171
420
6447871
  6
CONTINUOUS
370
    0
390
F
  0
LAYER
  5
4F
330
2
100
AcDbSymbolTableRecord
100
AcDbLayerTableRecord
  2
ext3
 70
    4
 62
    5
  6
CONTINUOUS
370
    0
390
F
  0
LAYER
  5
50
330
2
100
AcDbSymbolTableRecord
100
AcDbLayerTableRecord
  2
int
 70
    4
 62
   96
420
32768
  6
CONTINUOUS
370
    0
390
F
  0
LAYER
  5
51
330
2
100
AcDbSymbolTableRecord
100
AcDbLayerTableRecord
  2
mx
 70
    4
 62
    8
  6
CONTINUOUS
370
    0
390
F
  0
LAYER
  5
52
330
2
100
AcDbSymbolTableRecord
100
AcDbLayerTableRecord
  2
percage
 70
    0
 62
    3
  6
CONTINUOUS
370
    0
390
F
  0
LAYER
  5
53
330
2
100
AcDbSymbolTableRecord
100
AcDbLayerTableRecord
  2
placement
 70
    4
 62
    1
  6
CONTINUOUS
370
    0
390
F
  0
LAYER
  5
54
330
2
100
AcDbSymbolTableRecord
100
AcDbLayerTableRecord
  2
rp
 70
    4
 62
  211
420
15817983
  6
CONTINUOUS
370
    0
390
F
  0
ENDTAB
  0
TABLE
  2
STYLE
  5
3
330
0
100
AcDbSymbolTable
 70
    3
  0
STYLE
  5
55
330
2
100
AcDbSymbolTableRecord
100
AcDbTextStyleTableRecord
  2
Standard
 70
    0
 40
0
 41
1
 50
0
 71
    0
 42
1
  3
txt
  4

  0
ENDTAB
  0
TABLE
  2
VIEW
  5
6
330
0
100
AcDbSymbolTable
 70
    0
  0
ENDTAB
  0
TABLE
  2
UCS
  5
7
330
0
100
AcDbSymbolTable
 70
    0
  0
ENDTAB
  0
TABLE
  2
APPID
  5
9
330
0
100
AcDbSymbolTable
 70
    1
  0
APPID
  5
12
330
9
100
AcDbSymbolTableRecord
100
AcDbRegAppTableRecord
  2
ACAD
 70
    0
  0
APPID
  5
56
330
9
100
AcDbSymbolTableRecord
100
AcDbRegAppTableRecord
  2
LibreCad
 70
    0
  0
ENDTAB
  0
TABLE
  2
DIMSTYLE
  5
A
330
0
100
AcDbSymbolTable
 70
    1
100
AcDbDimStyleTable
 71
    1
  0
DIMSTYLE
105
57
330
A
100
AcDbSymbolTableRecord
100
AcDbDimStyleTableRecord
  2
Standard
 70
    0
 40
1
 41
2.5
 42
0.625
 43
0.38
 44
1.25
 45
0
 46
0
 47
0
 48
0
 49
1
140
2.5
141
0.09
142
0
143
25.4
144
1
145
0
146
1
147
0.625
148
0
 71
    0
 72
    0
 73
    0
 74
    1
 75
    0
 76
    0
 77
    0
 78
    8
 79
    0
170
    0
171
    2
172
    0
173
    0
174
    0
175
    0
176
    0
177
    0
178
    0
179
    0
271
    2
272
    4
273
    2
274
    2
275
    0
276
    0
277
    2
278
   44
279
    0
280
    0
281
    0
282
    0
283
    1
284
    0
285
    0
286
    0
288
    0
289
    3
340
STANDARD
341

371
   -2
372
   -2
  0
ENDTAB
  0
TABLE
  2
BLOCK_RECORD
  5
1
330
0
100
AcDbSymbolTable
 70
    2
  0
BLOCK_RECORD
  5
1F
330
1
100
AcDbSymbolTableRecord
100
AcDbBlockTableRecord
  2
*Model_Space
 70
    0
280
    1
281
    0
  0
BLOCK_RECORD
  5
1E
330
1
100
AcDbSymbolTableRecord
100
AcDbBlockTableRecord
  2
*Paper_Space
 70
    0
280
    1
281
    0
  0
ENDTAB
  0
ENDSEC
  0
SECTION
  2
BLOCKS
  0
BLOCK
  5
20
330
1F
100
AcDbEntity
  8
0
100
AcDbBlockBegin
  2
*Model_Space
 70
    0
 10
0
 20
0
 30
0
  3
*Model_Space
  1

  0
ENDBLK
  5
21
330
1F
100
AcDbEntity
  8
0
100
AcDbBlockEnd
  0
BLOCK
  5
1C
330
1B
100
AcDbEntity
  8
0
100
AcDbBlockBegin
  2
*Paper_Space
 70
    0
 10
0
 20
0
 30
0
  3
*Paper_Space
  1

  0
ENDBLK
  5
1D
330
1F
100
AcDbEntity
  8
0
100
AcDbBlockEnd
  0
ENDSEC
  0
SECTION
  2
ENTITIES
  0
LINE
  5
58
100
AcDbEntity
  8
0
  6
ByLayer
 62
  256
370
   -1
100
AcDbLine
 10
85.94784649432042
 20
3.482762745308277
 11
84.29188738211489
 21
22.41046200905144
  0
LINE
  5
59
100
AcDbEntity
  8
0
  6
ByLayer
 62
  256
370
   -1
100
AcDbLine
 10
67.02014723057725
 20
1.826803633102772
 11
65.36418811837173
 21
20.75450289684594
  0
LINE
  5
5A
100
AcDbEntity
  8
0
  6
ByLayer
 62
  256
370
   -1
100
AcDbLine
 10
67.02014723057725
 20
1.826803633102772
 11
65.36418811837173
 21
20.75450289684594
  0
LINE
  5
5B
100
AcDbEntity
  8
0
  6
ByLayer
 62
  256
370
   -1
100
AcDbLine
 10
48.09244796683406
 20
0.17084452089726
 11
46.43648885462856
 21
19.09854378464044
  0
LINE
  5
5C
100
AcDbEntity
  8
0
  6
ByLayer
 62
  256
370
   -1
100
AcDbLine
 10
48.09244796683406
 20
0.17084452089726
 11
46.43648885462856
 21
19.09854378464044
  0
LINE
  5
5D
100
AcDbEntity
  8
0
  6
ByLayer
 62
  256
370
   -1
100
AcDbLine
 10
29.16474870309092
 20
-1.485114591308238
 11
27.50878959088537
 21
17.44258467243493
  0
LINE
  5
5E
100
AcDbEntity
  8
0
  6
ByLayer
 62
  256
370
   -1
100
AcDbLine
 10
29.16474870309092
 20
-1.485114591308238
 11
27.5087895908854
 21
17.44258467243493
  0
LINE
  5
5F
100
AcDbEntity
  8
0
  6
ByLayer
 62
  256
370
   -1
100
AcDbLine
 10
10.23704943934773
 20
-3.141073703513738
 11
8.581090327142235
 21
15.78662556022942
  0
LINE
  5
60
100
AcDbEntity
  8
0
  6
ByLayer
 62
  256
370
   -1
100
AcDbLine
 10
78.13995597465431
 20
-16.27291607453766
 11
76.48399686244882
 21
2.654783189205522
  0
LINE
  5
61
100
AcDbEntity
  8
0
  6
ByLayer
 62
  256
370
   -1
100
AcDbLine
 10
59.21225671091115
 20
-17.92887518674315
 11
57.55629759870565
 21
0.9988240770000176
  0
LINE
  5
62
100
AcDbEntity
  8
0
  6
ByLayer
 62
  256
370
   -1
100
AcDbLine
 10
59.21225671091115
 20
-17.92887518674315
 11
57.55629759870565
 21
0.9988240770000176
  0
LINE
  5
63
100
AcDbEntity
  8
0
  6
ByLayer
 62
  256
370
   -1
100
AcDbLine
 10
40.28455744716798
 20
-19.58483429894865
 11
38.62859833496246
 21
-0.657135035205487
  0
LINE
  5
64
100
AcDbEntity
  8
0
  6
ByLayer
 62
  256
370
   -1
100
AcDbLine
 10
40.28455744716798
 20
-19.58483429894865
 11
38.62859833496246
 21
-0.6571350352054977
  0
LINE
  5
65
100
AcDbEntity
  8
0
  6
ByLayer
 62
  256
370
   -1
100
AcDbLine
 10
21.35685818342482
 20
-21.24079341115415
 11
19.7008990712193
 21
-2.313094147410991
  0
LINE
  5
66
100
AcDbEntity
  8
0
  6
ByLayer
 62
  256
370
   -1
100
AcDbLine
 10
21.35685818342482
 20
-21.24079341115415
 11
19.70089907121933
 21
-2.313094147410991
  0
LINE
  5
67
100
AcDbEntity
  8
0
  6
ByLayer
 62
  256
370
   -1
100
AcDbLine
 10
85.94784649432042
 20
3.482762745308277
 11
85.94784649432042
 21
22.48276274530827
  0
LINE
  5
68
100
AcDbEntity
  8
0
  6
ByLayer
 62
  256
370
   -1
100
AcDbLine
 10
78.13995597465434
 20
2.727083925462354
 11
78.13995597465434
 21
-16.27291607453766
  0
LINE
  5
69
100
AcDbEntity
  8
0
  6
ByLayer
 62
  256
370
   -1
100
AcDbLine
 10
4.085118031887163
 20
-41.82445178710282
 11
0.7731998074761463
 21
-3.969053259616492
  0
LINE
  5
6A
100
AcDbEntity
  8
0
  6
ByLayer
 62
  256
370
   -1
100
AcDbLine
 10
46.67244137530928
 20
-38.09854378464048
 11
45.01648226310378
 21
-19.17084452089727
  0
LINE
  5
6B
100
AcDbEntity
  8
0
  6
ByLayer
 62
  256
370
   -1
100
AcDbLine
 10
4.085118031887163
 20
-41.82445178710282
 11
65.60014063905244
 21
-36.44258467243494
  0
LINE
  5
6C
100
AcDbEntity
  8
0
  6
ByLayer
 62
  256
370
   -1
100
AcDbLine
 10
63.94418152684695
 20
-17.51488540869178
 11
65.60014063905244
 21
-36.44258467243494
  0
LINE
  5
6D
100
AcDbEntity
  8
0
  6
ByLayer
 62
  256
370
   -1
100
AcDbLine
 10
79.55996256617912
 20
21.99647223100007
 11
77.90400345397363
 21
40.92417149474322
  0
LINE
  5
6E
100
AcDbEntity
  8
0
  6
ByLayer
 62
  256
370
   -1
100
AcDbLine
 10
60.63226330243593
 20
20.34051311879456
 11
58.97630419023044
 21
39.26821238253772
  0
LINE
  5
6F
100
AcDbEntity
  8
0
  6
ByLayer
 62
  256
370
   -1
100
AcDbLine
 10
60.63226330243593
 20
20.34051311879456
 11
58.97630419023044
 21
39.26821238253772
  0
LINE
  5
70
100
AcDbEntity
  8
0
  6
ByLayer
 62
  256
370
   -1
100
AcDbLine
 10
41.70456403869279
 20
18.68455400658906
 11
40.04860492648724
 21
37.61225327033221
  0
LINE
  5
71
100
AcDbEntity
  8
0
  6
ByLayer
 62
  256
370
   -1
100
AcDbLine
 10
41.70456403869279
 20
18.68455400658906
 11
40.04860492648724
 21
37.61225327033221
  0
LINE
  5
72
100
AcDbEntity
  8
0
  6
ByLayer
 62
  256
370
   -1
100
AcDbLine
 10
22.7768647749496
 20
17.02859489438355
 11
21.12090566274411
 21
35.95629415812672
  0
LINE
  5
73
100
AcDbEntity
  8
0
  6
ByLayer
 62
  256
370
   -1
100
AcDbLine
 10
22.7768647749496
 20
17.02859489438355
 11
21.12090566274411
 21
35.95629415812672
  0
LINE
  5
74
100
AcDbEntity
  8
0
  6
ByLayer
 62
  256
370
   -1
100
AcDbLine
 10
3.849165511206436
 20
15.37263578217805
 11
2.193206399000942
 21
34.30033504592121
  0
LINE
  5
75
100
AcDbEntity
  8
0
  6
ByLayer
 62
  256
370
   -1
100
AcDbLine
 10
98.51741765899696
 20
22.48276274530827
 11
79.51741765899696
 21
22.48276274530827
  0
LINE
  5
76
100
AcDbEntity
  8
0
  6
ByLayer
 62
  256
370
   -1
100
AcDbLine
 10
98.51741765899696
 20
22.48276274530827
 11
98.51741765899696
 21
41.48276274530827
  0
LINE
  5
77
100
AcDbEntity
  8
0
  6
ByLayer
 62
  256
370
   -1
100
AcDbLine
 10
98.51741765899696
 20
41.48276274530827
 11
79.51741765899696
 21
41.48276274530827
  0
LINE
  5
78
100
AcDbEntity
  8
0
  6
ByLayer
 62
  256
370
   -1
100
AcDbLine
 10
79.51741765899696
 20
22.48276274530827
 11
79.51741765899696
 21
41.48276274530827
  0
LINE
  5
79
100
AcDbEntity
  8
0
  6
ByLayer
 62
  256
370
   -1
100
AcDbLine
 10
117.517417658997
 20
22.48276274530827
 11
117.517417658997
 21
41.48276274530827
  0
LINE
  5
7A
100
AcDbEntity
  8
0
  6
ByLayer
 62
  256
370
   -1
100
AcDbLine
 10
117.517417658997
 20
41.48276274530827
 11
98.51741765899696
 21
41.48276274530827
  0
LINE
  5
7B
100
AcDbEntity
  8
0
  6
ByLayer
 62
  256
370
   -1
100
AcDbLine
 10
98.51741765899696
 20
22.48276274530827
 11
98.51741765899696
 21
41.48276274530827
  0
LINE
  5
7C
100
AcDbEntity
  8
0
  6
ByLayer
 62
  256
370
   -1
100
AcDbLine
 10
85.94784649432042
 20
3.482762745308372
 11
119.1978464943204
 21
3.482762745308372
  0
LINE
  5
7D
100
AcDbEntity
  8
0
  6
ByLayer
 62
  256
370
   -1
100
AcDbLine
 10
119.1978464943204
 20
3.482762745308372
 11
119.1978464943204
 21
22.48276274530827
  0
LINE
  5
7E
100
AcDbEntity
  8
0
  6
ByLayer
 62
  256
370
   -1
100
AcDbLine
 10
119.1978464943204
 20
22.48276274530827
 11
98.51741765899696
 21
22.48276274530827
  0
LINE
  5
7F
100
AcDbEntity
  8
0
  6
ByLayer
 62
  256
370
   -1
100
AcDbLine
 10
78.13995597465434
 20
-16.27291607453764
 11
102.0799559746543
 21
-16.27291607453764
  0
LINE
  5
80
100
AcDbEntity
  8
0
  6
ByLayer
 62
  256
370
   -1
100
AcDbLine
 10
78.13995597465434
 20
2.727083925462354
 11
102.0799559746543
 21
2.727083925462354
  0
LINE
  5
81
100
AcDbEntity
  8
0
  6
ByLayer
 62
  256
370
   -1
100
AcDbLine
 10
102.0799559746543
 20
-16.27291607453764
 11
102.0799559746543
 21
2.727083925462354
  0
LINE
  5
82
100
AcDbEntity
  8
0
  6
ByLayer
 62
  256
370
   -1
100
AcDbLine
 10
102.0799559746543
 20
-16.27291607453764
 11
121.0799559746543
 21
-16.27291607453764
  0
LINE
  5
83
100
AcDbEntity
  8
0
  6
ByLayer
 62
  256
370
   -1
100
AcDbLine
 10
102.0799559746543
 20
2.727083925462354
 11
121.0799559746543
 21
2.727083925462354
  0
LINE
  5
84
100
AcDbEntity
  8
0
  6
ByLayer
 62
  256
370
   -1
100
AcDbLine
 10
121.0799559746543
 20
2.727083925462354
 11
121.0799559746543
 21
-16.27291607453764
  0
LINE
  5
85
100
AcDbEntity
  8
0
  6
ByLayer
 62
  256
370
   -1
100
AcDbLine
 10
95.25784649432042
 20
-16.27291607453764
 11
95.25784649432042
 21
-35.27291607453765
  0
LINE
  5
86
100
AcDbEntity
  8
0
  6
ByLayer
 62
  256
370
   -1
100
AcDbLine
 10
95.25784649432042
 20
-35.27291607453764
 11
119.1978464943204
 21
-35.27291607453764
  0
LINE
  5
87
100
AcDbEntity
  8
0
  6
ByLayer
 62
  256
370
   -1
100
AcDbLine
 10
95.25784649432042
 20
-16.27291607453764
 11
119.1978464943204
 21
-16.27291607453764
  0
LINE
  5
88
100
AcDbEntity
  8
0
  6
ByLayer
 62
  256
370
   -1
100
AcDbLine
 10
119.1978464943204
 20
-35.27291607453764
 11
119.1978464943204
 21
-16.27291607453764
  0
LINE
  5
89
100
AcDbEntity
  8
0
  6
ByLayer
 62
  256
370
   -1
100
AcDbLine
 10
2.193206399000942
 20
34.30033504592121
 11
77.90400345397363
 21
40.92417149474322
  0
LINE
  5
8A
100
AcDbEntity
  8
0
  6
ByLayer
 62
  256
370
   -1
100
AcDbLine
 10
3.849165511206436
 20
15.37263578217805
 11
84.29188738211489
 21
22.41046200905144
  0
LINE
  5
8B
100
AcDbEntity
  8
0
  6
ByLayer
 62
  256
370
   -1
100
AcDbLine
 10
85.94784649432042
 20
3.482762745308372
 11
0.7731998074761463
 21
-3.969053259616492
  0
LINE
  5
8C
100
AcDbEntity
  8
0
  6
ByLayer
 62
  256
370
   -1
100
AcDbLine
 10
78.13995597465434
 20
-16.27291607453764
 11
2.42915891968164
 21
-22.89675252335966
  0
LINE
  5
8D
100
AcDbEntity
  8
0
  6
ByLayer
 62
  256
370
   -1
100
AcDbLine
 10
93.91916619720759
 20
-16.31094136539702
 11
65.44130525546736
 21
-17.43407812592034
  0
LINE
  5
8E
100
AcDbEntity
  8
0
  6
ByLayer
 62
  256
370
   -1
100
AcDbLine
 10
94.66792403755649
 20
-35.29618199322461
 11
93.91916619720759
 21
-16.31094136539702
  0
LINE
  5
8F
100
AcDbEntity
  8
0
  6
ByLayer
 62
  256
370
   -1
100
AcDbLine
 10
66.19006309581626
 20
-36.41931875374794
 11
65.44130525546736
 21
-17.43407812592034
  0
LINE
  5
90
100
AcDbEntity
  8
0
  6
ByLayer
 62
  256
370
   -1
100
AcDbLine
 10
66.19006309581626
 20
-36.41931875374794
 11
94.66792403755649
 21
-35.29618199322461
  0
LINE
  5
91
100
AcDbEntity
  8
0
  6
ByLayer
 62
  256
370
   -1
100
AcDbLine
 10
-117.7138121980507
 20
22.82445178710283
 11
-98.71381219805075
 21
22.82445178710283
  0
LINE
  5
92
100
AcDbEntity
  8
0
  6
ByLayer
 62
  256
370
   -1
100
AcDbLine
 10
-117.7138121980507
 20
22.82445178710283
 11
-117.7138121980507
 21
41.82445178710282
  0
LINE
  5
93
100
AcDbEntity
  8
0
  6
ByLayer
 62
  256
370
   -1
100
AcDbLine
 10
-117.7138121980507
 20
41.82445178710282
 11
-98.71381219805075
 21
41.82445178710282
  0
LINE
  5
94
100
AcDbEntity
  8
0
  6
ByLayer
 62
  256
370
   -1
100
AcDbLine
 10
-98.71381219805075
 20
22.82445178710283
 11
-98.71381219805075
 21
41.82445178710282
  0
LINE
  5
95
100
AcDbEntity
  8
0
  6
ByLayer
 62
  256
370
   -1
100
AcDbLine
 10
-98.71381219805075
 20
22.82445178710283
 11
-97.05785308584524
 21
41.75215105084599
  0
LINE
  5
96
100
AcDbEntity
  8
0
  6
ByLayer
 62
  256
370
   -1
100
AcDbLine
 10
-79.78611293430758
 20
21.16849267489732
 11
-78.13015382210207
 21
40.09619193864048
  0
LINE
  5
97
100
AcDbEntity
  8
0
  6
ByLayer
 62
  256
370
   -1
100
AcDbLine
 10
-79.78611293430758
 20
21.16849267489732
 11
-78.13015382210207
 21
40.09619193864048
  0
LINE
  5
98
100
AcDbEntity
  8
0
  6
ByLayer
 62
  256
370
   -1
100
AcDbLine
 10
-60.85841367056442
 20
19.51253356269182
 11
-59.20245455835891
 21
38.44023282643497
  0
LINE
  5
99
100
AcDbEntity
  8
0
  6
ByLayer
 62
  256
370
   -1
100
AcDbLine
 10
-60.85841367056442
 20
19.51253356269182
 11
-59.20245455835891
 21
38.44023282643497
  0
LINE
  5
9A
100
AcDbEntity
  8
0
  6
ByLayer
 62
  256
370
   -1
100
AcDbLine
 10
-41.93071440682125
 20
17.85657445048631
 11
-40.27475529461573
 21
36.78427371422948
  0
LINE
  5
9B
100
AcDbEntity
  8
0
  6
ByLayer
 62
  256
370
   -1
100
AcDbLine
 10
-41.93071440682125
 20
17.85657445048631
 11
-40.27475529461574
 21
36.78427371422948
  0
LINE
  5
9C
100
AcDbEntity
  8
0
  6
ByLayer
 62
  256
370
   -1
100
AcDbLine
 10
-23.00301514307809
 20
16.20061533828081
 11
-21.34705603087258
 21
35.12831460202397
  0
LINE
  5
9D
100
AcDbEntity
  8
0
  6
ByLayer
 62
  256
370
   -1
100
AcDbLine
 10
-95.63784649432046
 20
3.482762745308285
 11
-93.98188738211495
 21
22.41046200905145
  0
LINE
  5
9E
100
AcDbEntity
  8
0
  6
ByLayer
 62
  256
370
   -1
100
AcDbLine
 10
-76.71014723057729
 20
1.826803633102781
 11
-75.05418811837178
 21
20.75450289684595
  0
LINE
  5
9F
100
AcDbEntity
  8
0
  6
ByLayer
 62
  256
370
   -1
100
AcDbLine
 10
-76.71014723057729
 20
1.826803633102781
 11
-75.05418811837178
 21
20.75450289684595
  0
LINE
  5
A0
100
AcDbEntity
  8
0
  6
ByLayer
 62
  256
370
   -1
100
AcDbLine
 10
-57.78244796683413
 20
0.170844520897276
 11
-56.12648885462862
 21
19.09854378464044
  0
LINE
  5
A1
100
AcDbEntity
  8
0
  6
ByLayer
 62
  256
370
   -1
100
AcDbLine
 10
-38.85474870309096
 20
-1.485114591308229
 11
-37.19878959088544
 21
17.44258467243493
  0
LINE
  5
A2
100
AcDbEntity
  8
0
  6
ByLayer
 62
  256
370
   -1
100
AcDbLine
 10
-38.85474870309096
 20
-1.485114591308229
 11
-37.19878959088545
 21
17.44258467243493
  0
LINE
  5
A3
100
AcDbEntity
  8
0
  6
ByLayer
 62
  256
370
   -1
100
AcDbLine
 10
-19.9270494393478
 20
-3.141073703513737
 11
-18.27109032714229
 21
15.78662556022943
  0
LINE
  5
A4
100
AcDbEntity
  8
0
  6
ByLayer
 62
  256
370
   -1
100
AcDbLine
 10
-87.82995597465437
 20
-16.27291607453764
 11
-86.17399686244887
 21
2.654783189205531
  0
LINE
  5
A5
100
AcDbEntity
  8
0
  6
ByLayer
 62
  256
370
   -1
100
AcDbLine
 10
-68.9022567109112
 20
-17.92887518674314
 11
-67.2462975987057
 21
0.9988240770000265
  0
LINE
  5
A6
100
AcDbEntity
  8
0
  6
ByLayer
 62
  256
370
   -1
100
AcDbLine
 10
-68.9022567109112
 20
-17.92887518674314
 11
-67.2462975987057
 21
0.9988240770000265
  0
LINE
  5
A7
100
AcDbEntity
  8
0
  6
ByLayer
 62
  256
370
   -1
100
AcDbLine
 10
-49.97455744716804
 20
-19.58483429894864
 11
-48.31859833496253
 21
-0.6571350352054781
  0
LINE
  5
A8
100
AcDbEntity
  8
0
  6
ByLayer
 62
  256
370
   -1
100
AcDbLine
 10
-49.97455744716804
 20
-19.58483429894864
 11
-48.31859833496253
 21
-0.6571350352054817
  0
LINE
  5
A9
100
AcDbEntity
  8
0
  6
ByLayer
 62
  256
370
   -1
100
AcDbLine
 10
-31.04685818342487
 20
-21.24079341115415
 11
-29.39089907121935
 21
-2.313094147410983
  0
LINE
  5
AA
100
AcDbEntity
  8
0
  6
ByLayer
 62
  256
370
   -1
100
AcDbLine
 10
-31.04685818342487
 20
-21.24079341115415
 11
-29.39089907121937
 21
-2.313094147410983
  0
LINE
  5
AB
100
AcDbEntity
  8
0
  6
ByLayer
 62
  256
370
   -1
100
AcDbLine
 10
-95.63784649432047
 20
3.482762745308285
 11
-95.63784649432047
 21
22.48276274530829
  0
LINE
  5
AC
100
AcDbEntity
  8
0
  6
ByLayer
 62
  256
370
   -1
100
AcDbLine
 10
-95.63784649432047
 20
3.482762745308293
 11
-119.3878464943205
 21
3.482762745308293
  0
LINE
  5
AD
100
AcDbEntity
  8
0
  6
ByLayer
 62
  256
370
   -1
100
AcDbLine
 10
-95.63784649432047
 20
22.48276274530829
 11
-119.3878464943205
 21
22.48276274530829
  0
LINE
  5
AE
100
AcDbEntity
  8
0
  6
ByLayer
 62
  256
370
   -1
100
AcDbLine
 10
-119.3878464943205
 20
22.48276274530829
 11
-119.3878464943205
 21
3.482762745308293
  0
LINE
  5
AF
100
AcDbEntity
  8
0
  6
ByLayer
 62
  256
370
   -1
100
AcDbLine
 10
-87.82995597465438
 20
-16.27291607453764
 11
-121.0799559746544
 21
-16.27291607453764
  0
LINE
  5
B0
100
AcDbEntity
  8
0
  6
ByLayer
 62
  256
370
   -1
100
AcDbLine
 10
-121.0799559746544
 20
-16.27291607453764
 11
-121.0799559746544
 21
2.727083925462363
  0
LINE
  5
B1
100
AcDbEntity
  8
0
  6
ByLayer
 62
  256
370
   -1
100
AcDbLine
 10
-121.0799559746544
 20
2.727083925462363
 11
-87.82995597465438
 21
2.727083925462363
  0
LINE
  5
B2
100
AcDbEntity
  8
0
  6
ByLayer
 62
  256
370
   -1
100
AcDbLine
 10
-87.82995597465438
 20
2.727083925462363
 11
-87.82995597465438
 21
-16.27291607453764
  0
LINE
  5
B3
100
AcDbEntity
  8
0
  6
ByLayer
 62
  256
370
   -1
100
AcDbLine
 10
-95.63784649432047
 20
-35.27291607453764
 11
-95.63784649432047
 21
-16.27291607453764
  0
LINE
  5
B4
100
AcDbEntity
  8
0
  6
ByLayer
 62
  256
370
   -1
100
AcDbLine
 10
-95.63784649432047
 20
-35.27291607453763
 11
-119.3878464943205
 21
-35.27291607453763
  0
LINE
  5
B5
100
AcDbEntity
  8
0
  6
ByLayer
 62
  256
370
   -1
100
AcDbLine
 10
-119.3878464943205
 20
-16.27291607453764
 11
-119.3878464943205
 21
-35.27291607453763
  0
LINE
  5
B6
100
AcDbEntity
  8
0
  6
ByLayer
 62
  256
370
   -1
100
AcDbLine
 10
-13.77511803188722
 20
-41.82445178710282
 11
-10.4631998074762
 21
-3.969053259616491
  0
LINE
  5
B7
100
AcDbEntity
  8
0
  6
ByLayer
 62
  256
370
   -1
100
AcDbLine
 10
-56.36244137530933
 20
-38.09854378464043
 11
-54.70648226310382
 21
-19.17084452089727
  0
LINE
  5
B8
100
AcDbEntity
  8
0
  6
ByLayer
 62
  256
370
   -1
100
AcDbLine
 10
-13.77511803188722
 20
-41.82445178710282
 11
-75.2901406390525
 21
-36.44258467243491
  0
LINE
  5
B9
100
AcDbEntity
  8
0
  6
ByLayer
 62
  256
370
   -1
100
AcDbLine
 10
-73.634181526847
 20
-17.51488540869176
 11
-75.2901406390525
 21
-36.44258467243491
  0
LINE
  5
BA
100
AcDbEntity
  8
0
  6
ByLayer
 62
  256
370
   -1
100
AcDbLine
 10
-21.34705603087258
 20
35.12831460202397
 11
-97.05785308584524
 21
41.75215105084599
  0
LINE
  5
BB
100
AcDbEntity
  8
0
  6
ByLayer
 62
  256
370
   -1
100
AcDbLine
 10
-18.27109032714229
 20
15.78662556022943
 11
-98.71381219805075
 21
22.82445178710283
  0
LINE
  5
BC
100
AcDbEntity
  8
0
  6
ByLayer
 62
  256
370
   -1
100
AcDbLine
 10
-10.4631998074762
 20
-3.969053259616491
 11
-95.63784649432046
 21
3.482762745308293
  0
LINE
  5
BD
100
AcDbEntity
  8
0
  6
ByLayer
 62
  256
370
   -1
100
AcDbLine
 10
-87.82995597465437
 20
-16.27291607453764
 11
-12.11915891968171
 21
-22.89675252335966
  0
LINE
  5
BE
100
AcDbEntity
  8
0
  6
ByLayer
 62
  256
370
   -1
100
AcDbLine
 10
-74.88925382505037
 20
-17.43426320637639
 11
-93.85793945539271
 21
-16.34386627991146
  0
LINE
  5
BF
100
AcDbEntity
  8
0
  6
ByLayer
 62
  256
370
   -1
100
AcDbLine
 10
-93.85793945539271
 20
-16.34386627991146
 11
-94.94833638185766
 21
-35.31255191025378
  0
LINE
  5
C0
100
AcDbEntity
  8
0
  6
ByLayer
 62
  256
370
   -1
100
AcDbLine
 10
-75.97965075151531
 20
-36.40294883671873
 11
-74.88925382505036
 21
-17.43426320637639
  0
LINE
  5
C1
100
AcDbEntity
  8
0
  6
ByLayer
 62
  256
370
   -1
100
AcDbLine
 10
-94.94833638185766
 20
-35.31255191025378
 11
-75.97965075151531
 21
-36.40294883671873
  0
ARC
  5
C2
100
AcDbEntity
  8
edge
  6
ByLayer
 62
  256
370
   -1
100
AcDbCircle
 10
121.0799559746544
 20
41.82445178710282
 40
1
100
AcDbArc
 50
0
 51
89.99999999999837
  0
LINE
  5
C3
100
AcDbEntity
  8
edge
  6
ByLayer
 62
  256
370
   -1
100
AcDbLine
 10
122.0799559746543
 20
41.82445178710282
 11
122.0799559746543
 21
-41.82445178710282
  0
ARC
  5
C4
100
AcDbEntity
  8
edge
  6
ByLayer
 62
  256
370
   -1
100
AcDbCircle
 10
121.0799559746543
 20
-41.82445178710282
 40
1
100
AcDbArc
 50
270
 51
0
  0
LINE
  5
C5
100
AcDbEntity
  8
edge
  6
ByLayer
 62
  256
370
   -1
100
AcDbLine
 10
121.0799559746543
 20
-42.82445178710282
 11
-121.0799559746544
 21
-42.82445178710282
  0
ARC
  5
C6
100
AcDbEntity
  8
edge
  6
ByLayer
 62
  256
370
   -1
100
AcDbCircle
 10
-121.0799559746544
 20
-41.82445178710282
 40
1
100
AcDbArc
 50
180
 51
270
  0
LINE
  5
C7
100
AcDbEntity
  8
edge
  6
ByLayer
 62
  256
370
   -1
100
AcDbLine
 10
-122.0799559746544
 20
-41.82445178710282
 11
-122.0799559746544
 21
41.82445178710282
  0
LINE
  5
C8
100
AcDbEntity
  8
edge
  6
ByLayer
 62
  256
370
   -1
100
AcDbLine
 10
-121.0799559746544
 20
42.82445178710282
 11
121.0799559746544
 21
42.82445178710282
  0
ARC
  5
C9
100
AcDbEntity
  8
edge
  6
ByLayer
 62
  256
370
   -1
100
AcDbCircle
 10
-121.0799559746544
 20
41.82445178710282
 40
1
100
AcDbArc
 50
90
 51
180
  0
CIRCLE
  5
CA
100
AcDbEntity
  8
percage
  6
ByLayer
 62
  256
370
   -1
100
AcDbCircle
 10
98.51741765899696
 20
31.98276274530827
 40
1.1
  0
CIRCLE
  5
CB
100
AcDbEntity
  8
percage
  6
ByLayer
 62
  256
370
   -1
100
AcDbCircle
 10
94.77569580585123
 20
-25.78823887692423
 40
1.1
  0
CIRCLE
  5
CC
100
AcDbEntity
  8
percage
  6
ByLayer
 62
  256
370
   -1
100
AcDbCircle
 10
-98.29982241999937
 20
32.30637660303861
 40
1.1
  0
CIRCLE
  5
CD
100
AcDbEntity
  8
percage
  6
ByLayer
 62
  256
370
   -1
100
AcDbCircle
 10
-95.02049220647282
 20
-25.80056258481013
 40
1.1
  0
LINE
  5
CE
100
AcDbEntity
  8
mx
  6
ByLayer
 62
  256
370
   -1
100
AcDbLine
 10
-111.4549559746544
 20
0.2270839254623631
 11
-97.45495597465438
 21
0.2270839254623631
  0
LINE
  5
CF
100
AcDbEntity
  8
mx
  6
ByLayer
 62
  256
370
   -1
100
AcDbLine
 10
-97.45495597465438
 20
0.2270839254623631
 11
-97.45495597465438
 21
-13.77291607453764
  0
LINE
  5
D0
100
AcDbEntity
  8
mx
  6
ByLayer
 62
  256
370
   -1
100
AcDbLine
 10
-97.45495597465438
 20
-13.77291607453764
 11
-111.4549559746544
 21
-13.77291607453764
  0
LINE
  5
D1
100
AcDbEntity
  8
mx
  6
ByLayer
 62
  256
370
   -1
100
AcDbLine
 10
-111.4549559746544
 20
-13.77291607453764
 11
-111.4549559746544
 21
0.2270839254623631
  0
LINE
  5
D2
100
AcDbEntity
  8
mx
  6
ByLayer
 62
  256
370
   -1
100
AcDbLine
 10
-114.5128464943205
 20
-18.77291607453763
 11
-100.5128464943205
 21
-18.77291607453764
  0
LINE
  5
D3
100
AcDbEntity
  8
mx
  6
ByLayer
 62
  256
370
   -1
100
AcDbLine
 10
-100.5128464943205
 20
-18.77291607453764
 11
-100.5128464943205
 21
-32.77291607453763
  0
LINE
  5
D4
100
AcDbEntity
  8
mx
  6
ByLayer
 62
  256
370
   -1
100
AcDbLine
 10
-100.5128464943205
 20
-32.77291607453763
 11
-114.5128464943205
 21
-32.77291607453763
  0
LINE
  5
D5
100
AcDbEntity
  8
mx
  6
ByLayer
 62
  256
370
   -1
100
AcDbLine
 10
-114.5128464943205
 20
-32.77291607453763
 11
-114.5128464943205
 21
-18.77291607453763
  0
LINE
  5
D6
100
AcDbEntity
  8
mx
  6
ByLayer
 62
  256
370
   -1
100
AcDbLine
 10
-114.5128464943205
 20
19.98276274530829
 11
-100.5128464943205
 21
19.98276274530829
  0
LINE
  5
D7
100
AcDbEntity
  8
mx
  6
ByLayer
 62
  256
370
   -1
100
AcDbLine
 10
-100.5128464943205
 20
19.98276274530829
 11
-100.5128464943205
 21
5.982762745308293
  0
LINE
  5
D8
100
AcDbEntity
  8
mx
  6
ByLayer
 62
  256
370
   -1
100
AcDbLine
 10
-100.5128464943205
 20
5.982762745308293
 11
-114.5128464943205
 21
5.982762745308293
  0
LINE
  5
D9
100
AcDbEntity
  8
mx
  6
ByLayer
 62
  256
370
   -1
100
AcDbLine
 10
-114.5128464943205
 20
5.982762745308293
 11
-114.5128464943205
 21
19.98276274530829
  0
LINE
  5
DA
100
AcDbEntity
  8
mx
  6
ByLayer
 62
  256
370
   -1
100
AcDbLine
 10
-41.84931620751882
 20
-22.80525038968965
 11
-27.90259043423438
 21
-24.02543078815686
  0
LINE
  5
DB
100
AcDbEntity
  8
mx
  6
ByLayer
 62
  256
370
   -1
100
AcDbLine
 10
-27.90259043423438
 20
-24.02543078815686
 11
-29.12277083270159
 21
-37.9721565614413
  0
LINE
  5
DC
100
AcDbEntity
  8
mx
  6
ByLayer
 62
  256
370
   -1
100
AcDbLine
 10
-29.12277083270159
 20
-37.9721565614413
 11
-43.06949660598604
 21
-36.75197616297407
  0
LINE
  5
DD
100
AcDbEntity
  8
mx
  6
ByLayer
 62
  256
370
   -1
100
AcDbLine
 10
-43.06949660598604
 20
-36.75197616297407
 11
-41.84931620751882
 21
-22.80525038968965
  0
LINE
  5
DE
100
AcDbEntity
  8
mx
  6
ByLayer
 62
  256
370
   -1
100
AcDbLine
 10
-71.36158413848679
 20
-20.22326151079027
 11
-57.41485836520233
 21
-21.44344190925749
  0
LINE
  5
DF
100
AcDbEntity
  8
mx
  6
ByLayer
 62
  256
370
   -1
100
AcDbLine
 10
-57.41485836520233
 20
-21.44344190925749
 11
-58.63503876366957
 21
-35.39016768254191
  0
LINE
  5
E0
100
AcDbEntity
  8
mx
  6
ByLayer
 62
  256
370
   -1
100
AcDbLine
 10
-58.63503876366957
 20
-35.39016768254191
 11
-72.581764536954
 21
-34.16998728407469
  0
LINE
  5
E1
100
AcDbEntity
  8
mx
  6
ByLayer
 62
  256
370
   -1
100
AcDbLine
 10
-72.581764536954
 20
-34.16998728407469
 11
-71.36158413848679
 21
-20.22326151079028
  0
LINE
  5
E2
100
AcDbEntity
  8
mx
  6
ByLayer
 62
  256
370
   -1
100
AcDbLine
 10
-91.50553304698779
 20
-18.98321924791242
 11
-77.52860679305132
 21
-19.78666961478131
  0
LINE
  5
E3
100
AcDbEntity
  8
mx
  6
ByLayer
 62
  256
370
   -1
100
AcDbLine
 10
-77.52860679305132
 20
-19.78666961478131
 11
-78.33205715992023
 21
-33.76359586871776
  0
LINE
  5
E4
100
AcDbEntity
  8
mx
  6
ByLayer
 62
  256
370
   -1
100
AcDbLine
 10
-78.33205715992023
 20
-33.76359586871776
 11
-92.30898341385671
 21
-32.96014550184886
  0
LINE
  5
E5
100
AcDbEntity
  8
mx
  6
ByLayer
 62
  256
370
   -1
100
AcDbLine
 10
-92.30898341385671
 20
-32.96014550184886
 11
-91.50553304698779
 21
-18.98321924791241
  0
LINE
  5
E6
100
AcDbEntity
  8
mx
  6
ByLayer
 62
  256
370
   -1
100
AcDbLine
 10
-83.90139947408866
 20
-0.05359291289297907
 11
-69.95467370080419
 21
-1.273773311360197
  0
LINE
  5
E7
100
AcDbEntity
  8
mx
  6
ByLayer
 62
  256
370
   -1
100
AcDbLine
 10
-69.95467370080419
 20
-1.273773311360197
 11
-71.17485409927144
 21
-15.22049908464462
  0
LINE
  5
E8
100
AcDbEntity
  8
mx
  6
ByLayer
 62
  256
370
   -1
100
AcDbLine
 10
-71.17485409927144
 20
-15.22049908464462
 11
-85.12157987255587
 21
-14.0003186861774
  0
LINE
  5
E9
100
AcDbEntity
  8
mx
  6
ByLayer
 62
  256
370
   -1
100
AcDbLine
 10
-85.12157987255587
 20
-14.0003186861774
 11
-83.90139947408866
 21
-0.05359291289298618
  0
LINE
  5
EA
100
AcDbEntity
  8
mx
  6
ByLayer
 62
  256
370
   -1
100
AcDbLine
 10
-64.9737002103455
 20
-1.709552025098482
 11
-51.02697443706103
 21
-2.929732423565699
  0
LINE
  5
EB
100
AcDbEntity
  8
mx
  6
ByLayer
 62
  256
370
   -1
100
AcDbLine
 10
-51.02697443706103
 20
-2.929732423565699
 11
-52.24715483552827
 21
-16.87645819685012
  0
LINE
  5
EC
100
AcDbEntity
  8
mx
  6
ByLayer
 62
  256
370
   -1
100
AcDbLine
 10
-52.24715483552827
 20
-16.87645819685012
 11
-66.19388060881269
 21
-15.6562777983829
  0
LINE
  5
ED
100
AcDbEntity
  8
mx
  6
ByLayer
 62
  256
370
   -1
100
AcDbLine
 10
-66.19388060881269
 20
-15.6562777983829
 11
-64.9737002103455
 21
-1.709552025098489
  0
LINE
  5
EE
100
AcDbEntity
  8
mx
  6
ByLayer
 62
  256
370
   -1
100
AcDbLine
 10
-46.04600094660233
 20
-3.36551113730399
 11
-32.09927517331786
 21
-4.585691535771208
  0
LINE
  5
EF
100
AcDbEntity
  8
mx
  6
ByLayer
 62
  256
370
   -1
100
AcDbLine
 10
-32.09927517331786
 20
-4.585691535771208
 11
-33.31945557178511
 21
-18.53241730905563
  0
LINE
  5
F0
100
AcDbEntity
  8
mx
  6
ByLayer
 62
  256
370
   -1
100
AcDbLine
 10
-33.31945557178511
 20
-18.53241730905563
 11
-47.26618134506953
 21
-17.31223691058841
  0
LINE
  5
F1
100
AcDbEntity
  8
mx
  6
ByLayer
 62
  256
370
   -1
100
AcDbLine
 10
-47.26618134506953
 20
-17.31223691058841
 11
-46.04600094660233
 21
-3.365511137303997
  0
LINE
  5
F2
100
AcDbEntity
  8
mx
  6
ByLayer
 62
  256
370
   -1
100
AcDbLine
 10
-27.11830168285915
 20
-5.021470249509495
 11
-13.17157590957469
 21
-6.241650647976712
  0
LINE
  5
F3
100
AcDbEntity
  8
mx
  6
ByLayer
 62
  256
370
   -1
100
AcDbLine
 10
-13.17157590957469
 20
-6.241650647976712
 11
-14.39175630804193
 21
-20.18837642126114
  0
LINE
  5
F4
100
AcDbEntity
  8
mx
  6
ByLayer
 62
  256
370
   -1
100
AcDbLine
 10
-14.39175630804193
 20
-20.18837642126114
 11
-28.33848208132636
 21
-18.96819602279392
  0
LINE
  5
F5
100
AcDbEntity
  8
mx
  6
ByLayer
 62
  256
370
   -1
100
AcDbLine
 10
-28.33848208132636
 20
-18.96819602279392
 11
-27.11830168285915
 21
-5.021470249509502
  0
LINE
  5
F6
100
AcDbEntity
  8
mx
  6
ByLayer
 62
  256
370
   -1
100
AcDbLine
 10
-115.2138121980507
 20
39.32445178710282
 11
-101.2138121980507
 21
39.32445178710282
  0
LINE
  5
F7
100
AcDbEntity
  8
mx
  6
ByLayer
 62
  256
370
   -1
100
AcDbLine
 10
-101.2138121980507
 20
39.32445178710282
 11
-101.2138121980507
 21
25.32445178710283
  0
LINE
  5
F8
100
AcDbEntity
  8
mx
  6
ByLayer
 62
  256
370
   -1
100
AcDbLine
 10
-101.2138121980507
 20
25.32445178710283
 11
-115.2138121980507
 21
25.32445178710283
  0
LINE
  5
F9
100
AcDbEntity
  8
mx
  6
ByLayer
 62
  256
370
   -1
100
AcDbLine
 10
-115.2138121980507
 20
25.32445178710283
 11
-115.2138121980507
 21
39.32445178710282
  0
LINE
  5
FA
100
AcDbEntity
  8
mx
  6
ByLayer
 62
  256
370
   -1
100
AcDbLine
 10
-94.78525569748504
 20
39.04377494874748
 11
-80.83852992420057
 21
37.82359455028026
  0
LINE
  5
FB
100
AcDbEntity
  8
mx
  6
ByLayer
 62
  256
370
   -1
100
AcDbLine
 10
-80.83852992420057
 20
37.82359455028026
 11
-82.05871032266782
 21
23.87686877699584
  0
LINE
  5
FC
100
AcDbEntity
  8
mx
  6
ByLayer
 62
  256
370
   -1
100
AcDbLine
 10
-82.05871032266782
 20
23.87686877699584
 11
-96.00543609595225
 21
25.09704917546306
  0
LINE
  5
FD
100
AcDbEntity
  8
mx
  6
ByLayer
 62
  256
370
   -1
100
AcDbLine
 10
-96.00543609595225
 20
25.09704917546306
 11
-94.78525569748504
 21
39.04377494874747
  0
LINE
  5
FE
100
AcDbEntity
  8
mx
  6
ByLayer
 62
  256
370
   -1
100
AcDbLine
 10
-75.85755643374188
 20
37.38781583654198
 11
-61.91083066045741
 21
36.16763543807475
  0
LINE
  5
FF
100
AcDbEntity
  8
mx
  6
ByLayer
 62
  256
370
   -1
100
AcDbLine
 10
-61.91083066045741
 20
36.16763543807475
 11
-63.13101105892466
 21
22.22090966479033
  0
LINE
  5
100
100
AcDbEntity
  8
mx
  6
ByLayer
 62
  256
370
   -1
100
AcDbLine
 10
-63.13101105892466
 20
22.22090966479033
 11
-77.07773683220908
 21
23.44109006325755
  0
LINE
  5
101
100
AcDbEntity
  8
mx
  6
ByLayer
 62
  256
370
   -1
100
AcDbLine
 10
-77.07773683220908
 20
23.44109006325755
 11
-75.85755643374188
 21
37.38781583654197
  0
LINE
  5
102
100
AcDbEntity
  8
mx
  6
ByLayer
 62
  256
370
   -1
100
AcDbLine
 10
-56.92985716999871
 20
35.73185672433647
 11
-42.98313139671424
 21
34.51167632586925
  0
LINE
  5
103
100
AcDbEntity
  8
mx
  6
ByLayer
 62
  256
370
   -1
100
AcDbLine
 10
-42.98313139671424
 20
34.51167632586925
 11
-44.20331179518148
 21
20.56495055258483
  0
LINE
  5
104
100
AcDbEntity
  8
mx
  6
ByLayer
 62
  256
370
   -1
100
AcDbLine
 10
-44.20331179518148
 20
20.56495055258483
 11
-58.15003756846591
 21
21.78513095105205
  0
LINE
  5
105
100
AcDbEntity
  8
mx
  6
ByLayer
 62
  256
370
   -1
100
AcDbLine
 10
-58.15003756846591
 20
21.78513095105205
 11
-56.92985716999871
 21
35.73185672433646
  0
LINE
  5
106
100
AcDbEntity
  8
mx
  6
ByLayer
 62
  256
370
   -1
100
AcDbLine
 10
-72.78159073001157
 20
18.04612679474744
 11
-58.83486495672711
 21
16.82594639628022
  0
LINE
  5
107
100
AcDbEntity
  8
mx
  6
ByLayer
 62
  256
370
   -1
100
AcDbLine
 10
-58.83486495672711
 20
16.82594639628022
 11
-60.05504535519435
 21
2.879220622995794
  0
LINE
  5
108
100
AcDbEntity
  8
mx
  6
ByLayer
 62
  256
370
   -1
100
AcDbLine
 10
-60.05504535519435
 20
2.879220622995794
 11
-74.00177112847878
 21
4.099401021463015
  0
LINE
  5
109
100
AcDbEntity
  8
mx
  6
ByLayer
 62
  256
370
   -1
100
AcDbLine
 10
-74.00177112847878
 20
4.099401021463015
 11
-72.78159073001157
 21
18.04612679474743
  0
LINE
  5
10A
100
AcDbEntity
  8
mx
  6
ByLayer
 62
  256
370
   -1
100
AcDbLine
 10
-91.70928999375474
 20
19.70208590695294
 11
-77.76256422047027
 21
18.48190550848572
  0
LINE
  5
10B
100
AcDbEntity
  8
mx
  6
ByLayer
 62
  256
370
   -1
100
AcDbLine
 10
-77.76256422047027
 20
18.48190550848572
 11
-78.98274461893752
 21
4.535179735201298
  0
LINE
  5
10C
100
AcDbEntity
  8
mx
  6
ByLayer
 62
  256
370
   -1
100
AcDbLine
 10
-78.98274461893752
 20
4.535179735201298
 11
-92.92947039222194
 21
5.755360133668519
  0
LINE
  5
10D
100
AcDbEntity
  8
mx
  6
ByLayer
 62
  256
370
   -1
100
AcDbLine
 10
-92.92947039222194
 20
5.755360133668519
 11
-91.70928999375474
 21
19.70208590695293
  0
LINE
  5
10E
100
AcDbEntity
  8
mx
  6
ByLayer
 62
  256
370
   -1
100
AcDbLine
 10
-53.85389146626841
 20
16.39016768254193
 11
-39.90716569298395
 21
15.16998728407471
  0
LINE
  5
10F
100
AcDbEntity
  8
mx
  6
ByLayer
 62
  256
370
   -1
100
AcDbLine
 10
-39.90716569298395
 20
15.16998728407471
 11
-41.12734609145119
 21
1.223261510790289
  0
LINE
  5
110
100
AcDbEntity
  8
mx
  6
ByLayer
 62
  256
370
   -1
100
AcDbLine
 10
-41.12734609145119
 20
1.223261510790289
 11
-55.07407186473562
 21
2.44344190925751
  0
LINE
  5
111
100
AcDbEntity
  8
mx
  6
ByLayer
 62
  256
370
   -1
100
AcDbLine
 10
-55.07407186473562
 20
2.44344190925751
 11
-53.85389146626841
 21
16.39016768254192
  0
LINE
  5
112
100
AcDbEntity
  8
mx
  6
ByLayer
 62
  256
370
   -1
100
AcDbLine
 10
-38.00215790625553
 20
34.07589761213097
 11
-24.05543213297107
 21
32.85571721366375
  0
LINE
  5
113
100
AcDbEntity
  8
mx
  6
ByLayer
 62
  256
370
   -1
100
AcDbLine
 10
-24.05543213297107
 20
32.85571721366375
 11
-25.27561253143831
 21
18.90899144037932
  0
LINE
  5
114
100
AcDbEntity
  8
mx
  6
ByLayer
 62
  256
370
   -1
100
AcDbLine
 10
-25.27561253143831
 20
18.90899144037932
 11
-39.22233830472274
 21
20.12917183884655
  0
LINE
  5
115
100
AcDbEntity
  8
mx
  6
ByLayer
 62
  256
370
   -1
100
AcDbLine
 10
-39.22233830472274
 20
20.12917183884655
 11
-38.00215790625553
 21
34.07589761213096
  0
LINE
  5
116
100
AcDbEntity
  8
mx
  6
ByLayer
 62
  256
370
   -1
100
AcDbLine
 10
-34.92619220252524
 20
14.73420857033642
 11
-20.97946642924078
 21
13.5140281718692
  0
LINE
  5
117
100
AcDbEntity
  8
mx
  6
ByLayer
 62
  256
370
   -1
100
AcDbLine
 10
-20.97946642924078
 20
13.5140281718692
 11
-22.19964682770802
 21
-0.4326976014152191
  0
LINE
  5
118
100
AcDbEntity
  8
mx
  6
ByLayer
 62
  256
370
   -1
100
AcDbLine
 10
-22.19964682770802
 20
-0.4326976014152191
 11
-36.14637260099245
 21
0.787482797052002
  0
LINE
  5
119
100
AcDbEntity
  8
mx
  6
ByLayer
 62
  256
370
   -1
100
AcDbLine
 10
-36.14637260099245
 20
0.787482797052002
 11
-34.92619220252524
 21
14.73420857033642
  0
LINE
  5
11A
100
AcDbEntity
  8
mx
  6
ByLayer
 62
  256
370
   -1
100
AcDbLine
 10
4.901582501099449
 20
32.02773765756099
 11
18.84830827438389
 21
33.2479180560282
  0
LINE
  5
11B
100
AcDbEntity
  8
mx
  6
ByLayer
 62
  256
370
   -1
100
AcDbLine
 10
18.84830827438389
 20
33.2479180560282
 11
20.06848867285109
 21
19.30119228274378
  0
LINE
  5
11C
100
AcDbEntity
  8
mx
  6
ByLayer
 62
  256
370
   -1
100
AcDbLine
 10
20.06848867285109
 20
19.30119228274378
 11
6.121762899566656
 21
18.08101188427656
  0
LINE
  5
11D
100
AcDbEntity
  8
mx
  6
ByLayer
 62
  256
370
   -1
100
AcDbLine
 10
6.121762899566656
 20
18.08101188427656
 11
4.901582501099449
 21
32.02773765756099
  0
LINE
  5
11E
100
AcDbEntity
  8
mx
  6
ByLayer
 62
  256
370
   -1
100
AcDbLine
 10
23.82928176484263
 20
33.6836967697665
 11
37.77600753812706
 21
34.90387716823371
  0
LINE
  5
11F
100
AcDbEntity
  8
mx
  6
ByLayer
 62
  256
370
   -1
100
AcDbLine
 10
37.77600753812706
 20
34.90387716823371
 11
38.99618793659427
 21
20.95715139494929
  0
LINE
  5
120
100
AcDbEntity
  8
mx
  6
ByLayer
 62
  256
370
   -1
100
AcDbLine
 10
38.99618793659427
 20
20.95715139494929
 11
25.04946216330983
 21
19.73697099648207
  0
LINE
  5
121
100
AcDbEntity
  8
mx
  6
ByLayer
 62
  256
370
   -1
100
AcDbLine
 10
25.04946216330983
 20
19.73697099648207
 11
23.82928176484263
 21
33.6836967697665
  0
LINE
  5
122
100
AcDbEntity
  8
mx
  6
ByLayer
 62
  256
370
   -1
100
AcDbLine
 10
42.75698102858576
 20
35.33965588197199
 11
56.7037068018702
 21
36.55983628043921
  0
LINE
  5
123
100
AcDbEntity
  8
mx
  6
ByLayer
 62
  256
370
   -1
100
AcDbLine
 10
56.7037068018702
 20
36.55983628043921
 11
57.9238872003374
 21
22.61311050715478
  0
LINE
  5
124
100
AcDbEntity
  8
mx
  6
ByLayer
 62
  256
370
   -1
100
AcDbLine
 10
57.9238872003374
 20
22.61311050715478
 11
43.97716142705297
 21
21.39293010868757
  0
LINE
  5
125
100
AcDbEntity
  8
mx
  6
ByLayer
 62
  256
370
   -1
100
AcDbLine
 10
43.97716142705297
 20
21.39293010868757
 11
42.75698102858576
 21
35.33965588197199
  0
LINE
  5
126
100
AcDbEntity
  8
mx
  6
ByLayer
 62
  256
370
   -1
100
AcDbLine
 10
61.68468029232896
 20
36.9956149941775
 11
75.63140606561339
 21
38.21579539264471
  0
LINE
  5
127
100
AcDbEntity
  8
mx
  6
ByLayer
 62
  256
370
   -1
100
AcDbLine
 10
75.63140606561339
 20
38.21579539264471
 11
76.8515864640806
 21
24.26906961936029
  0
LINE
  5
128
100
AcDbEntity
  8
mx
  6
ByLayer
 62
  256
370
   -1
100
AcDbLine
 10
76.8515864640806
 20
24.26906961936029
 11
62.90486069079616
 21
23.04888922089307
  0
LINE
  5
129
100
AcDbEntity
  8
mx
  6
ByLayer
 62
  256
370
   -1
100
AcDbLine
 10
62.90486069079616
 20
23.04888922089307
 11
61.68468029232896
 21
36.9956149941775
  0
LINE
  5
12A
100
AcDbEntity
  8
mx
  6
ByLayer
 62
  256
370
   -1
100
AcDbLine
 10
11.28946642924076
 20
13.5140281718692
 11
25.23619220252519
 21
14.73420857033642
  0
LINE
  5
12B
100
AcDbEntity
  8
mx
  6
ByLayer
 62
  256
370
   -1
100
AcDbLine
 10
25.23619220252519
 20
14.73420857033642
 11
26.4563726009924
 21
0.7874827970519895
  0
LINE
  5
12C
100
AcDbEntity
  8
mx
  6
ByLayer
 62
  256
370
   -1
100
AcDbLine
 10
26.4563726009924
 20
0.7874827970519895
 11
12.50964682770796
 21
-0.4326976014152244
  0
LINE
  5
12D
100
AcDbEntity
  8
mx
  6
ByLayer
 62
  256
370
   -1
100
AcDbLine
 10
12.50964682770796
 20
-0.4326976014152244
 11
11.28946642924076
 21
13.5140281718692
  0
LINE
  5
12E
100
AcDbEntity
  8
mx
  6
ByLayer
 62
  256
370
   -1
100
AcDbLine
 10
30.2171656929839
 20
15.1699872840747
 11
44.16389146626834
 21
16.39016768254192
  0
LINE
  5
12F
100
AcDbEntity
  8
mx
  6
ByLayer
 62
  256
370
   -1
100
AcDbLine
 10
44.16389146626834
 20
16.39016768254192
 11
45.38407186473555
 21
2.443441909257491
  0
LINE
  5
130
100
AcDbEntity
  8
mx
  6
ByLayer
 62
  256
370
   -1
100
AcDbLine
 10
45.38407186473555
 20
2.443441909257491
 11
31.43734609145111
 21
1.223261510790277
  0
LINE
  5
131
100
AcDbEntity
  8
mx
  6
ByLayer
 62
  256
370
   -1
100
AcDbLine
 10
31.43734609145111
 20
1.223261510790277
 11
30.2171656929839
 21
15.1699872840747
  0
LINE
  5
132
100
AcDbEntity
  8
mx
  6
ByLayer
 62
  256
370
   -1
100
AcDbLine
 10
49.14486495672708
 20
16.82594639628022
 11
63.09159073001152
 21
18.04612679474743
  0
LINE
  5
133
100
AcDbEntity
  8
mx
  6
ByLayer
 62
  256
370
   -1
100
AcDbLine
 10
63.09159073001152
 20
18.04612679474743
 11
64.31177112847872
 21
4.099401021463001
  0
LINE
  5
134
100
AcDbEntity
  8
mx
  6
ByLayer
 62
  256
370
   -1
100
AcDbLine
 10
64.31177112847872
 20
4.099401021463001
 11
50.36504535519429
 21
2.879220622995787
  0
LINE
  5
135
100
AcDbEntity
  8
mx
  6
ByLayer
 62
  256
370
   -1
100
AcDbLine
 10
50.36504535519429
 20
2.879220622995787
 11
49.14486495672708
 21
16.82594639628022
  0
LINE
  5
136
100
AcDbEntity
  8
mx
  6
ByLayer
 62
  256
370
   -1
100
AcDbLine
 10
68.07256422047026
 20
18.48190550848577
 11
82.01928999375468
 21
19.70208590695298
  0
LINE
  5
137
100
AcDbEntity
  8
mx
  6
ByLayer
 62
  256
370
   -1
100
AcDbLine
 10
82.01928999375468
 20
19.70208590695298
 11
83.23947039222189
 21
5.755360133668553
  0
LINE
  5
138
100
AcDbEntity
  8
mx
  6
ByLayer
 62
  256
370
   -1
100
AcDbLine
 10
83.23947039222189
 20
5.755360133668553
 11
69.29274461893746
 21
4.535179735201339
  0
LINE
  5
139
100
AcDbEntity
  8
mx
  6
ByLayer
 62
  256
370
   -1
100
AcDbLine
 10
69.29274461893746
 20
4.535179735201339
 11
68.07256422047026
 21
18.48190550848577
  0
LINE
  5
13A
100
AcDbEntity
  8
mx
  6
ByLayer
 62
  256
370
   -1
100
AcDbLine
 10
3.48157590957466
 20
-6.241650647976714
 11
17.4283016828591
 21
-5.0214702495095
  0
LINE
  5
13B
100
AcDbEntity
  8
mx
  6
ByLayer
 62
  256
370
   -1
100
AcDbLine
 10
17.4283016828591
 20
-5.0214702495095
 11
18.6484820813263
 21
-18.96819602279393
  0
LINE
  5
13C
100
AcDbEntity
  8
mx
  6
ByLayer
 62
  256
370
   -1
100
AcDbLine
 10
18.6484820813263
 20
-18.96819602279393
 11
4.701756308041867
 21
-20.18837642126114
  0
LINE
  5
13D
100
AcDbEntity
  8
mx
  6
ByLayer
 62
  256
370
   -1
100
AcDbLine
 10
4.701756308041867
 20
-20.18837642126114
 11
3.48157590957466
 21
-6.241650647976714
  0
LINE
  5
13E
100
AcDbEntity
  8
mx
  6
ByLayer
 62
  256
370
   -1
100
AcDbLine
 10
22.40927517331783
 20
-4.585691535771209
 11
36.35600094660226
 21
-3.365511137303995
  0
LINE
  5
13F
100
AcDbEntity
  8
mx
  6
ByLayer
 62
  256
370
   -1
100
AcDbLine
 10
36.35600094660226
 20
-3.365511137303995
 11
37.57618134506947
 21
-17.31223691058842
  0
LINE
  5
140
100
AcDbEntity
  8
mx
  6
ByLayer
 62
  256
370
   -1
100
AcDbLine
 10
37.57618134506947
 20
-17.31223691058842
 11
23.62945557178504
 21
-18.53241730905564
  0
LINE
  5
141
100
AcDbEntity
  8
mx
  6
ByLayer
 62
  256
370
   -1
100
AcDbLine
 10
23.62945557178504
 20
-18.53241730905564
 11
22.40927517331783
 21
-4.585691535771209
  0
LINE
  5
142
100
AcDbEntity
  8
mx
  6
ByLayer
 62
  256
370
   -1
100
AcDbLine
 10
41.33697443706098
 20
-2.929732423565714
 11
55.28370021034542
 21
-1.7095520250985
  0
LINE
  5
143
100
AcDbEntity
  8
mx
  6
ByLayer
 62
  256
370
   -1
100
AcDbLine
 10
55.28370021034542
 20
-1.7095520250985
 11
56.50388060881262
 21
-15.65627779838293
  0
LINE
  5
144
100
AcDbEntity
  8
mx
  6
ByLayer
 62
  256
370
   -1
100
AcDbLine
 10
56.50388060881262
 20
-15.65627779838293
 11
42.55715483552819
 21
-16.87645819685014
  0
LINE
  5
145
100
AcDbEntity
  8
mx
  6
ByLayer
 62
  256
370
   -1
100
AcDbLine
 10
42.55715483552819
 20
-16.87645819685014
 11
41.33697443706098
 21
-2.929732423565714
  0
LINE
  5
146
100
AcDbEntity
  8
mx
  6
ByLayer
 62
  256
370
   -1
100
AcDbLine
 10
60.26467370080416
 20
-1.273773311360209
 11
74.21139947408859
 21
-0.05359291289299506
  0
LINE
  5
147
100
AcDbEntity
  8
mx
  6
ByLayer
 62
  256
370
   -1
100
AcDbLine
 10
74.21139947408859
 20
-0.05359291289299506
 11
75.4315798725558
 21
-14.00031868617742
  0
LINE
  5
148
100
AcDbEntity
  8
mx
  6
ByLayer
 62
  256
370
   -1
100
AcDbLine
 10
75.4315798725558
 20
-14.00031868617742
 11
61.48485409927137
 21
-15.22049908464464
  0
LINE
  5
149
100
AcDbEntity
  8
mx
  6
ByLayer
 62
  256
370
   -1
100
AcDbLine
 10
61.48485409927137
 20
-15.22049908464464
 11
60.26467370080416
 21
-1.273773311360209
  0
LINE
  5
14A
100
AcDbEntity
  8
mx
  6
ByLayer
 62
  256
370
   -1
100
AcDbLine
 10
47.72485836520229
 20
-21.44344190925749
 11
61.67158413848672
 21
-20.22326151079028
  0
LINE
  5
14B
100
AcDbEntity
  8
mx
  6
ByLayer
 62
  256
370
   -1
100
AcDbLine
 10
61.67158413848672
 20
-20.22326151079028
 11
62.89176453695393
 21
-34.16998728407471
  0
LINE
  5
14C
100
AcDbEntity
  8
mx
  6
ByLayer
 62
  256
370
   -1
100
AcDbLine
 10
62.89176453695393
 20
-34.16998728407471
 11
48.94503876366949
 21
-35.39016768254192
  0
LINE
  5
14D
100
AcDbEntity
  8
mx
  6
ByLayer
 62
  256
370
   -1
100
AcDbLine
 10
48.94503876366949
 20
-35.39016768254192
 11
47.72485836520229
 21
-21.44344190925749
  0
LINE
  5
14E
100
AcDbEntity
  8
mx
  6
ByLayer
 62
  256
370
   -1
100
AcDbLine
 10
16.96734706161963
 20
-24.13437546659146
 11
30.91407283490407
 21
-22.91419506812424
  0
LINE
  5
14F
100
AcDbEntity
  8
mx
  6
ByLayer
 62
  256
370
   -1
100
AcDbLine
 10
30.91407283490407
 20
-22.91419506812424
 11
32.13425323337128
 21
-36.86092084140867
  0
LINE
  5
150
100
AcDbEntity
  8
mx
  6
ByLayer
 62
  256
370
   -1
100
AcDbLine
 10
32.13425323337128
 20
-36.86092084140867
 11
18.18752746008684
 21
-38.08110123987588
  0
LINE
  5
151
100
AcDbEntity
  8
mx
  6
ByLayer
 62
  256
370
   -1
100
AcDbLine
 10
18.18752746008684
 20
-38.08110123987588
 11
16.96734706161963
 21
-24.13437546659146
  0
LINE
  5
152
100
AcDbEntity
  8
mx
  6
ByLayer
 62
  256
370
   -1
100
AcDbLine
 10
100.2278464943204
 20
-18.77291607453764
 11
114.2278464943204
 21
-18.77291607453764
  0
LINE
  5
153
100
AcDbEntity
  8
mx
  6
ByLayer
 62
  256
370
   -1
100
AcDbLine
 10
114.2278464943204
 20
-18.77291607453764
 11
114.2278464943204
 21
-32.77291607453764
  0
LINE
  5
154
100
AcDbEntity
  8
mx
  6
ByLayer
 62
  256
370
   -1
100
AcDbLine
 10
114.2278464943204
 20
-32.77291607453764
 11
100.2278464943204
 21
-32.77291607453764
  0
LINE
  5
155
100
AcDbEntity
  8
mx
  6
ByLayer
 62
  256
370
   -1
100
AcDbLine
 10
100.2278464943204
 20
-32.77291607453764
 11
100.2278464943204
 21
-18.77291607453764
  0
LINE
  5
156
100
AcDbEntity
  8
mx
  6
ByLayer
 62
  256
370
   -1
100
AcDbLine
 10
83.10995597465434
 20
0.2270839254623542
 11
97.10995597465434
 21
0.2270839254623542
  0
LINE
  5
157
100
AcDbEntity
  8
mx
  6
ByLayer
 62
  256
370
   -1
100
AcDbLine
 10
97.10995597465434
 20
0.2270839254623542
 11
97.10995597465434
 21
-13.77291607453764
  0
LINE
  5
158
100
AcDbEntity
  8
mx
  6
ByLayer
 62
  256
370
   -1
100
AcDbLine
 10
97.10995597465434
 20
-13.77291607453764
 11
83.10995597465434
 21
-13.77291607453765
  0
LINE
  5
159
100
AcDbEntity
  8
mx
  6
ByLayer
 62
  256
370
   -1
100
AcDbLine
 10
83.10995597465434
 20
-13.77291607453765
 11
83.10995597465434
 21
0.2270839254623542
  0
LINE
  5
15A
100
AcDbEntity
  8
mx
  6
ByLayer
 62
  256
370
   -1
100
AcDbLine
 10
104.5799559746543
 20
0.2270839254623542
 11
118.5799559746543
 21
0.2270839254623542
  0
LINE
  5
15B
100
AcDbEntity
  8
mx
  6
ByLayer
 62
  256
370
   -1
100
AcDbLine
 10
118.5799559746543
 20
0.2270839254623542
 11
118.5799559746543
 21
-13.77291607453764
  0
LINE
  5
15C
100
AcDbEntity
  8
mx
  6
ByLayer
 62
  256
370
   -1
100
AcDbLine
 10
118.5799559746543
 20
-13.77291607453764
 11
104.5799559746543
 21
-13.77291607453765
  0
LINE
  5
15D
100
AcDbEntity
  8
mx
  6
ByLayer
 62
  256
370
   -1
100
AcDbLine
 10
104.5799559746543
 20
-13.77291607453765
 11
104.5799559746543
 21
0.2270839254623542
  0
LINE
  5
15E
100
AcDbEntity
  8
mx
  6
ByLayer
 62
  256
370
   -1
100
AcDbLine
 10
95.57284649432042
 20
19.98276274530832
 11
109.5728464943204
 21
19.98276274530832
  0
LINE
  5
15F
100
AcDbEntity
  8
mx
  6
ByLayer
 62
  256
370
   -1
100
AcDbLine
 10
109.5728464943204
 20
19.98276274530832
 11
109.5728464943204
 21
5.982762745308326
  0
LINE
  5
160
100
AcDbEntity
  8
mx
  6
ByLayer
 62
  256
370
   -1
100
AcDbLine
 10
109.5728464943204
 20
5.982762745308326
 11
95.57284649432042
 21
5.982762745308325
  0
LINE
  5
161
100
AcDbEntity
  8
mx
  6
ByLayer
 62
  256
370
   -1
100
AcDbLine
 10
95.57284649432042
 20
5.982762745308325
 11
95.57284649432042
 21
19.98276274530832
  0
LINE
  5
162
100
AcDbEntity
  8
mx
  6
ByLayer
 62
  256
370
   -1
100
AcDbLine
 10
82.01741765899696
 20
38.98276274530827
 11
96.01741765899696
 21
38.98276274530827
  0
LINE
  5
163
100
AcDbEntity
  8
mx
  6
ByLayer
 62
  256
370
   -1
100
AcDbLine
 10
96.01741765899696
 20
38.98276274530827
 11
96.01741765899696
 21
24.98276274530827
  0
LINE
  5
164
100
AcDbEntity
  8
mx
  6
ByLayer
 62
  256
370
   -1
100
AcDbLine
 10
96.01741765899696
 20
24.98276274530827
 11
82.01741765899696
 21
24.98276274530827
  0
LINE
  5
165
100
AcDbEntity
  8
mx
  6
ByLayer
 62
  256
370
   -1
100
AcDbLine
 10
82.01741765899696
 20
24.98276274530827
 11
82.01741765899696
 21
38.98276274530827
  0
LINE
  5
166
100
AcDbEntity
  8
mx
  6
ByLayer
 62
  256
370
   -1
100
AcDbLine
 10
101.017417658997
 20
38.98276274530827
 11
115.017417658997
 21
38.98276274530827
  0
LINE
  5
167
100
AcDbEntity
  8
mx
  6
ByLayer
 62
  256
370
   -1
100
AcDbLine
 10
115.017417658997
 20
38.98276274530827
 11
115.017417658997
 21
24.98276274530827
  0
LINE
  5
168
100
AcDbEntity
  8
mx
  6
ByLayer
 62
  256
370
   -1
100
AcDbLine
 10
115.017417658997
 20
24.98276274530827
 11
101.017417658997
 21
24.98276274530827
  0
LINE
  5
169
100
AcDbEntity
  8
mx
  6
ByLayer
 62
  256
370
   -1
100
AcDbLine
 10
101.017417658997
 20
24.98276274530827
 11
101.017417658997
 21
38.98276274530827
  0
LINE
  5
16A
100
AcDbEntity
  8
mx
  6
ByLayer
 62
  256
370
   -1
100
AcDbLine
 10
72.78419415823636
 20
-19.64642587471191
 11
86.77331883137249
 21
-19.09470957129692
  0
LINE
  5
16B
100
AcDbEntity
  8
mx
  6
ByLayer
 62
  256
370
   -1
100
AcDbLine
 10
86.77331883137249
 20
-19.09470957129692
 11
87.32503513478748
 21
-33.08383424443304
  0
LINE
  5
16C
100
AcDbEntity
  8
mx
  6
ByLayer
 62
  256
370
   -1
100
AcDbLine
 10
87.32503513478748
 20
-33.08383424443304
 11
73.33591046165135
 21
-33.63555054784803
  0
LINE
  5
16D
100
AcDbEntity
  8
mx
  6
ByLayer
 62
  256
370
   -1
100
AcDbLine
 10
73.33591046165135
 20
-33.63555054784803
 11
72.78419415823636
 21
-19.64642587471191
  0
CIRCLE
  5
16E
100
AcDbEntity
  8
percage
  6
ByLayer
 62
  256
370
   -1
100
AcDbCircle
 10
-4.845000000000027
 20
-22.89675252335966
 40
1.1
  0
LINE
  5
16F
100
AcDbEntity
  8
placement
  6
ByLayer
 62
  256
370
   -1
100
AcDbLine
 10
-117.2138121980507
 20
25.32445178710283
 11
-117.2138121980507
 21
39.32445178710282
  0
LINE
  5
170
100
AcDbEntity
  8
placement
  6
ByLayer
 62
  256
370
   -1
100
AcDbLine
 10
-116.5128464943205
 20
5.982762745308293
 11
-116.5128464943205
 21
19.98276274530829
  0
LINE
  5
171
100
AcDbEntity
  8
placement
  6
ByLayer
 62
  256
370
   -1
100
AcDbLine
 10
-79.07012622839258
 20
23.61540154875287
 11
-77.84994582992537
 21
37.56212732203728
  0
LINE
  5
172
100
AcDbEntity
  8
placement
  6
ByLayer
 62
  256
370
   -1
100
AcDbLine
 10
-60.1424269646494
 20
21.95944243654737
 11
-58.9222465661822
 21
35.90616820983178
  0
LINE
  5
173
100
AcDbEntity
  8
placement
  6
ByLayer
 62
  256
370
   -1
100
AcDbLine
 10
-82.23302180816314
 20
21.88447938081235
 11
-96.17974758144757
 21
23.10465977927957
  0
LINE
  5
174
100
AcDbEntity
  8
placement
  6
ByLayer
 62
  256
370
   -1
100
AcDbLine
 10
-94.92185978840544
 20
5.929671619163835
 11
-93.70167938993823
 21
19.87639739244825
  0
LINE
  5
175
100
AcDbEntity
  8
placement
  6
ByLayer
 62
  256
370
   -1
100
AcDbLine
 10
-75.99416052466228
 20
4.27371250695833
 11
-74.77398012619507
 21
18.22043828024275
  0
LINE
  5
176
100
AcDbEntity
  8
placement
  6
ByLayer
 62
  256
370
   -1
100
AcDbLine
 10
-57.06646126091911
 20
2.617753394752826
 11
-55.8462808624519
 21
16.56447916803724
  0
LINE
  5
177
100
AcDbEntity
  8
placement
  6
ByLayer
 62
  256
370
   -1
100
AcDbLine
 10
-38.13876199717594
 20
0.9617942825473175
 11
-36.91858159870873
 21
14.90852005583174
  0
LINE
  5
178
100
AcDbEntity
  8
placement
  6
ByLayer
 62
  256
370
   -1
100
AcDbLine
 10
-41.21472770090623
 20
20.30348332434187
 11
-39.99454730243902
 21
34.25020909762627
  0
LINE
  5
179
100
AcDbEntity
  8
placement
  6
ByLayer
 62
  256
370
   -1
100
AcDbLine
 10
-113.4549559746544
 20
-13.77291607453764
 11
-113.4549559746544
 21
0.2270839254623634
  0
LINE
  5
17A
100
AcDbEntity
  8
placement
  6
ByLayer
 62
  256
370
   -1
100
AcDbLine
 10
-87.11396926873937
 20
-13.82600720068208
 11
-85.89378887027216
 21
0.1207185726023293
  0
LINE
  5
17B
100
AcDbEntity
  8
placement
  6
ByLayer
 62
  256
370
   -1
100
AcDbLine
 10
-68.18627000499619
 20
-15.48196631288759
 11
-66.966089606529
 21
-1.535240539603175
  0
LINE
  5
17C
100
AcDbEntity
  8
placement
  6
ByLayer
 62
  256
370
   -1
100
AcDbLine
 10
-49.25857074125302
 20
-17.13792542509309
 11
-48.03839034278582
 21
-3.191199651808682
  0
LINE
  5
17D
100
AcDbEntity
  8
placement
  6
ByLayer
 62
  256
370
   -1
100
AcDbLine
 10
-30.33087147750985
 20
-18.7938845372986
 11
-29.11069107904264
 21
-4.847158764014186
  0
LINE
  5
17E
100
AcDbEntity
  8
placement
  6
ByLayer
 62
  256
370
   -1
100
AcDbLine
 10
-74.5741539331375
 20
-33.99567579857938
 11
-73.35397353467029
 21
-20.04895002529496
  0
LINE
  5
17F
100
AcDbEntity
  8
placement
  6
ByLayer
 62
  256
370
   -1
100
AcDbLine
 10
-78.44683578375864
 20
-35.76029961928011
 11
-92.42376203769513
 21
-34.95684925241121
  0
LINE
  5
180
100
AcDbEntity
  8
placement
  6
ByLayer
 62
  256
370
   -1
100
AcDbLine
 10
-116.5128464943205
 20
-32.77291607453763
 11
-116.5128464943205
 21
-18.77291607453763
  0
LINE
  5
181
100
AcDbEntity
  8
placement
  6
ByLayer
 62
  256
370
   -1
100
AcDbLine
 10
19.42069107904259
 20
-4.847158764014186
 11
20.64087147750979
 21
-18.79388453729862
  0
LINE
  5
182
100
AcDbEntity
  8
placement
  6
ByLayer
 62
  256
370
   -1
100
AcDbLine
 10
-55.42246896901884
 20
-21.61775339475281
 11
-56.64264936748608
 21
-35.56447916803723
  0
LINE
  5
183
100
AcDbEntity
  8
placement
  6
ByLayer
 62
  256
370
   -1
100
AcDbLine
 10
46.952649367486
 20
-35.56447916803724
 11
45.7324689690188
 21
-21.6177533947528
  0
LINE
  5
184
100
AcDbEntity
  8
placement
  6
ByLayer
 62
  256
370
   -1
100
AcDbLine
 10
63.66397353467021
 20
-20.04895002529496
 11
64.88415393313743
 21
-33.99567579857939
  0
LINE
  5
185
100
AcDbEntity
  8
placement
  6
ByLayer
 62
  256
370
   -1
100
AcDbLine
 10
88.77176521324908
 20
-19.01589295652335
 11
89.32348151666407
 21
-33.00501762965947
  0
LINE
  5
186
100
AcDbEntity
  8
placement
  6
ByLayer
 62
  256
370
   -1
100
AcDbLine
 10
116.2278464943204
 20
-18.77291607453764
 11
116.2278464943204
 21
-32.77291607453764
  0
LINE
  5
187
100
AcDbEntity
  8
placement
  6
ByLayer
 62
  256
370
   -1
100
AcDbLine
 10
99.10995597465434
 20
0.2270839254623537
 11
99.10995597465434
 21
-13.77291607453764
  0
LINE
  5
188
100
AcDbEntity
  8
placement
  6
ByLayer
 62
  256
370
   -1
100
AcDbLine
 10
102.5799559746543
 20
-13.77291607453765
 11
102.5799559746543
 21
0.2270839254623545
  0
LINE
  5
189
100
AcDbEntity
  8
placement
  6
ByLayer
 62
  256
370
   -1
100
AcDbLine
 10
111.5728464943204
 20
19.98276274530832
 11
111.5728464943204
 21
5.982762745308325
  0
LINE
  5
18A
100
AcDbEntity
  8
placement
  6
ByLayer
 62
  256
370
   -1
100
AcDbLine
 10
117.017417658997
 20
38.98276274530827
 11
117.017417658997
 21
24.98276274530827
  0
LINE
  5
18B
100
AcDbEntity
  8
placement
  6
ByLayer
 62
  256
370
   -1
100
AcDbLine
 10
84.01167938993818
 20
19.8763973924483
 11
85.23185978840539
 21
5.929671619163869
  0
LINE
  5
18C
100
AcDbEntity
  8
placement
  6
ByLayer
 62
  256
370
   -1
100
AcDbLine
 10
96.01741765899696
 20
22.98276274530827
 11
82.01741765899696
 21
22.98276274530827
  0
LINE
  5
18D
100
AcDbEntity
  8
placement
  6
ByLayer
 62
  256
370
   -1
100
AcDbLine
 10
77.62379546179689
 20
38.39010687814002
 11
78.84397586026409
 21
24.44338110485561
  0
LINE
  5
18E
100
AcDbEntity
  8
placement
  6
ByLayer
 62
  256
370
   -1
100
AcDbLine
 10
58.69609619805369
 20
36.73414776593452
 11
59.91627659652089
 21
22.78742199265009
  0
LINE
  5
18F
100
AcDbEntity
  8
placement
  6
ByLayer
 62
  256
370
   -1
100
AcDbLine
 10
39.76839693431055
 20
35.07818865372903
 11
40.98857733277776
 21
21.13146288044461
  0
LINE
  5
190
100
AcDbEntity
  8
placement
  6
ByLayer
 62
  256
370
   -1
100
AcDbLine
 10
20.84069767056738
 20
33.42222954152351
 11
22.06087806903458
 21
19.47550376823909
  0
LINE
  5
191
100
AcDbEntity
  8
placement
  6
ByLayer
 62
  256
370
   -1
100
AcDbLine
 10
27.22858159870868
 20
14.90852005583174
 11
28.44876199717589
 21
0.9617942825473051
  0
LINE
  5
192
100
AcDbEntity
  8
placement
  6
ByLayer
 62
  256
370
   -1
100
AcDbLine
 10
46.15628086245183
 20
16.56447916803724
 11
47.37646126091904
 21
2.617753394752807
  0
LINE
  5
193
100
AcDbEntity
  8
placement
  6
ByLayer
 62
  256
370
   -1
100
AcDbLine
 10
65.08398012619502
 20
18.22043828024275
 11
66.30416052466222
 21
4.273712506958316
  0
LINE
  5
194
100
AcDbEntity
  8
placement
  6
ByLayer
 62
  256
370
   -1
100
AcDbLine
 10
38.34839034278575
 20
-3.191199651808679
 11
39.56857074125296
 21
-17.1379254250931
  0
LINE
  5
195
100
AcDbEntity
  8
placement
  6
ByLayer
 62
  256
370
   -1
100
AcDbLine
 10
57.27608960652891
 20
-1.535240539603186
 11
58.49627000499611
 21
-15.48196631288762
  0
LINE
  5
196
100
AcDbEntity
  8
placement
  6
ByLayer
 62
  256
370
   -1
100
AcDbLine
 10
76.20378887027209
 20
0.1207185726023206
 11
77.4239692687393
 21
-13.8260072006821
  0
LINE
  5
197
100
AcDbEntity
  8
placement
  6
ByLayer
 62
  256
370
   -1
100
AcDbLine
 10
-115.2138121980507
 20
39.32445178710282
 11
-101.2138121980507
 21
25.32445178710283
  0
LINE
  5
198
100
AcDbEntity
  8
placement
  6
ByLayer
 62
  256
370
   -1
100
AcDbLine
 10
-114.5128464943205
 20
19.98276274530829
 11
-100.5128464943205
 21
5.982762745308293
  0
LINE
  5
199
100
AcDbEntity
  8
placement
  6
ByLayer
 62
  256
370
   -1
100
AcDbLine
 10
-111.4549559746544
 20
0.2270839254623631
 11
-97.45495597465438
 21
-13.77291607453764
  0
LINE
  5
19A
100
AcDbEntity
  8
placement
  6
ByLayer
 62
  256
370
   -1
100
AcDbLine
 10
-114.5128464943205
 20
-18.77291607453763
 11
-100.5128464943205
 21
-32.77291607453763
  0
LINE
  5
19B
100
AcDbEntity
  8
placement
  6
ByLayer
 62
  256
370
   -1
100
AcDbLine
 10
-94.78525569748504
 20
39.04377494874747
 11
-82.05871032266782
 21
23.87686877699584
  0
LINE
  5
19C
100
AcDbEntity
  8
placement
  6
ByLayer
 62
  256
370
   -1
100
AcDbLine
 10
-75.85755643374188
 20
37.38781583654195
 11
-63.13101105892466
 21
22.22090966479032
  0
LINE
  5
19D
100
AcDbEntity
  8
placement
  6
ByLayer
 62
  256
370
   -1
100
AcDbLine
 10
-56.92985716999871
 20
35.73185672433645
 11
-44.20331179518149
 21
20.56495055258481
  0
LINE
  5
19E
100
AcDbEntity
  8
placement
  6
ByLayer
 62
  256
370
   -1
100
AcDbLine
 10
-38.00215790625553
 20
34.07589761213094
 11
-25.27561253143831
 21
18.90899144037931
  0
LINE
  5
19F
100
AcDbEntity
  8
placement
  6
ByLayer
 62
  256
370
   -1
100
AcDbLine
 10
-34.92619220252524
 20
14.73420857033641
 11
-22.19964682770802
 21
-0.4326976014152244
  0
LINE
  5
1A0
100
AcDbEntity
  8
placement
  6
ByLayer
 62
  256
370
   -1
100
AcDbLine
 10
-53.85389146626841
 20
16.39016768254191
 11
-41.12734609145119
 21
1.223261510790277
  0
LINE
  5
1A1
100
AcDbEntity
  8
placement
  6
ByLayer
 62
  256
370
   -1
100
AcDbLine
 10
-72.78159073001157
 20
18.04612679474742
 11
-60.05504535519435
 21
2.879220622995785
  0
LINE
  5
1A2
100
AcDbEntity
  8
placement
  6
ByLayer
 62
  256
370
   -1
100
AcDbLine
 10
-91.70928999375474
 20
19.70208590695292
 11
-78.98274461893752
 21
4.535179735201286
  0
LINE
  5
1A3
100
AcDbEntity
  8
placement
  6
ByLayer
 62
  256
370
   -1
100
AcDbLine
 10
-83.90139947408866
 20
-0.05359291289300039
 11
-71.17485409927144
 21
-15.22049908464463
  0
LINE
  5
1A4
100
AcDbEntity
  8
placement
  6
ByLayer
 62
  256
370
   -1
100
AcDbLine
 10
-71.36158413848679
 20
-20.22326151079029
 11
-58.63503876366957
 21
-35.39016768254193
  0
LINE
  5
1A5
100
AcDbEntity
  8
placement
  6
ByLayer
 62
  256
370
   -1
100
AcDbLine
 10
-91.50553304698779
 20
-18.98321924791242
 11
-78.33205715992023
 21
-33.76359586871776
  0
LINE
  5
1A6
100
AcDbEntity
  8
placement
  6
ByLayer
 62
  256
370
   -1
100
AcDbLine
 10
-41.84931620751882
 20
-22.80525038968966
 11
-29.1227708327016
 21
-37.9721565614413
  0
LINE
  5
1A7
100
AcDbEntity
  8
placement
  6
ByLayer
 62
  256
370
   -1
100
AcDbLine
 10
-64.9737002103455
 20
-1.709552025098503
 11
-52.24715483552828
 21
-16.87645819685013
  0
LINE
  5
1A8
100
AcDbEntity
  8
placement
  6
ByLayer
 62
  256
370
   -1
100
AcDbLine
 10
-46.04600094660233
 20
-3.365511137304011
 11
-33.31945557178511
 21
-18.53241730905564
  0
LINE
  5
1A9
100
AcDbEntity
  8
placement
  6
ByLayer
 62
  256
370
   -1
100
AcDbLine
 10
-27.11830168285915
 20
-5.021470249509516
 11
-14.39175630804193
 21
-20.18837642126115
  0
LINE
  5
1AA
100
AcDbEntity
  8
placement
  6
ByLayer
 62
  256
370
   -1
100
AcDbLine
 10
115.017417658997
 20
38.98276274530827
 11
101.017417658997
 21
24.98276274530827
  0
LINE
  5
1AB
100
AcDbEntity
  8
placement
  6
ByLayer
 62
  256
370
   -1
100
AcDbLine
 10
96.01741765899696
 20
38.98276274530827
 11
82.01741765899696
 21
24.98276274530827
  0
LINE
  5
1AC
100
AcDbEntity
  8
placement
  6
ByLayer
 62
  256
370
   -1
100
AcDbLine
 10
109.5728464943204
 20
19.98276274530832
 11
95.5728464943204
 21
5.982762745308321
  0
LINE
  5
1AD
100
AcDbEntity
  8
placement
  6
ByLayer
 62
  256
370
   -1
100
AcDbLine
 10
118.5799559746543
 20
0.2270839254623542
 11
104.5799559746543
 21
-13.77291607453765
  0
LINE
  5
1AE
100
AcDbEntity
  8
placement
  6
ByLayer
 62
  256
370
   -1
100
AcDbLine
 10
97.10995597465434
 20
0.2270839254623542
 11
83.10995597465434
 21
-13.77291607453765
  0
LINE
  5
1AF
100
AcDbEntity
  8
placement
  6
ByLayer
 62
  256
370
   -1
100
AcDbLine
 10
114.2278464943204
 20
-18.77291607453764
 11
100.2278464943204
 21
-32.77291607453764
  0
LINE
  5
1B0
100
AcDbEntity
  8
placement
  6
ByLayer
 62
  256
370
   -1
100
AcDbLine
 10
86.77331883137249
 20
-19.09470957129692
 11
73.33591046165135
 21
-33.63555054784803
  0
LINE
  5
1B1
100
AcDbEntity
  8
placement
  6
ByLayer
 62
  256
370
   -1
100
AcDbLine
 10
82.01928999375468
 20
19.70208590695298
 11
69.29274461893746
 21
4.535179735201339
  0
LINE
  5
1B2
100
AcDbEntity
  8
placement
  6
ByLayer
 62
  256
370
   -1
100
AcDbLine
 10
75.63140606561339
 20
38.21579539264471
 11
62.90486069079617
 21
23.04888922089307
  0
LINE
  5
1B3
100
AcDbEntity
  8
placement
  6
ByLayer
 62
  256
370
   -1
100
AcDbLine
 10
56.7037068018702
 20
36.55983628043921
 11
43.97716142705298
 21
21.39293010868757
  0
LINE
  5
1B4
100
AcDbEntity
  8
placement
  6
ByLayer
 62
  256
370
   -1
100
AcDbLine
 10
37.77600753812706
 20
34.90387716823371
 11
25.04946216330984
 21
19.73697099648207
  0
LINE
  5
1B5
100
AcDbEntity
  8
placement
  6
ByLayer
 62
  256
370
   -1
100
AcDbLine
 10
18.84830827438389
 20
33.2479180560282
 11
6.121762899566669
 21
18.08101188427656
  0
LINE
  5
1B6
100
AcDbEntity
  8
placement
  6
ByLayer
 62
  256
370
   -1
100
AcDbLine
 10
25.23619220252519
 20
14.73420857033642
 11
12.50964682770797
 21
-0.4326976014152208
  0
LINE
  5
1B7
100
AcDbEntity
  8
placement
  6
ByLayer
 62
  256
370
   -1
100
AcDbLine
 10
63.09159073001152
 20
18.04612679474743
 11
50.3650453551943
 21
2.879220622995788
  0
LINE
  5
1B8
100
AcDbEntity
  8
placement
  6
ByLayer
 62
  256
370
   -1
100
AcDbLine
 10
44.16389146626834
 20
16.39016768254192
 11
31.43734609145112
 21
1.22326151079028
  0
LINE
  5
1B9
100
AcDbEntity
  8
placement
  6
ByLayer
 62
  256
370
   -1
100
AcDbLine
 10
36.35600094660226
 20
-3.365511137303995
 11
23.62945557178504
 21
-18.53241730905564
  0
LINE
  5
1BA
100
AcDbEntity
  8
placement
  6
ByLayer
 62
  256
370
   -1
100
AcDbLine
 10
17.4283016828591
 20
-5.0214702495095
 11
4.70175630804188
 21
-20.18837642126114
  0
LINE
  5
1BB
100
AcDbEntity
  8
placement
  6
ByLayer
 62
  256
370
   -1
100
AcDbLine
 10
30.91407283490407
 20
-22.91419506812424
 11
18.18752746008685
 21
-38.08110123987588
  0
LINE
  5
1BC
100
AcDbEntity
  8
placement
  6
ByLayer
 62
  256
370
   -1
100
AcDbLine
 10
55.28370021034542
 20
-1.7095520250985
 11
42.5571548355282
 21
-16.87645819685014
  0
LINE
  5
1BD
100
AcDbEntity
  8
placement
  6
ByLayer
 62
  256
370
   -1
100
AcDbLine
 10
74.21139947408859
 20
-0.05359291289299506
 11
61.48485409927137
 21
-15.22049908464464
  0
LINE
  5
1BE
100
AcDbEntity
  8
placement
  6
ByLayer
 62
  256
370
   -1
100
AcDbLine
 10
61.67158413848672
 20
-20.22326151079028
 11
48.9450387636695
 21
-35.39016768254192
  0
CIRCLE
  5
1BF
100
AcDbEntity
  8
percage
  6
ByLayer
 62
  256
370
   -1
100
AcDbCircle
 10
-9.576924815935818
 20
34.71432482397259
 40
1.1
  0
LINE
  5
1C0
100
AcDbEntity
  8
ext1
  6
ByLayer
 62
  256
370
   -1
100
AcDbLine
 10
-121.0799559746544
 20
43.52445178710282
 11
121.0799559746544
 21
43.52445178710282
  0
ARC
  5
1C1
100
AcDbEntity
  8
ext1
  6
ByLayer
 62
  256
370
   -1
100
AcDbCircle
 10
121.0799559746544
 20
41.82445178710282
 40
1.7
100
AcDbArc
 50
0
 51
89.99999999999837
  0
LINE
  5
1C2
100
AcDbEntity
  8
ext1
  6
ByLayer
 62
  256
370
   -1
100
AcDbLine
 10
122.7799559746543
 20
41.82445178710282
 11
122.7799559746543
 21
-41.82445178710282
  0
LINE
  5
1C3
100
AcDbEntity
  8
ext1
  6
ByLayer
 62
  256
370
   -1
100
AcDbLine
 10
121.0799559746543
 20
-43.52445178710282
 11
-121.0799559746544
 21
-43.52445178710282
  0
ARC
  5
1C4
100
AcDbEntity
  8
ext1
  6
ByLayer
 62
  256
370
   -1
100
AcDbCircle
 10
121.0799559746543
 20
-41.82445178710282
 40
1.7
100
AcDbArc
 50
270
 51
0
  0
LINE
  5
1C5
100
AcDbEntity
  8
ext1
  6
ByLayer
 62
  256
370
   -1
100
AcDbLine
 10
-122.7799559746544
 20
-41.82445178710282
 11
-122.7799559746544
 21
41.82445178710282
  0
ARC
  5
1C6
100
AcDbEntity
  8
ext1
  6
ByLayer
 62
  256
370
   -1
100
AcDbCircle
 10
-121.0799559746544
 20
-41.82445178710282
 40
1.7
100
AcDbArc
 50
180
 51
270
  0
ARC
  5
1C7
100
AcDbEntity
  8
ext1
  6
ByLayer
 62
  256
370
   -1
100
AcDbCircle
 10
-121.0799559746544
 20
41.82445178710282
 40
1.7
100
AcDbArc
 50
90
 51
180
  0
LINE
  5
1C8
100
AcDbEntity
  8
ext2
  6
ByLayer
 62
  256
370
   -1
100
AcDbLine
 10
-121.0799559746544
 20
48.52445178710282
 11
121.0799559746544
 21
48.52445178710282
  0
ARC
  5
1C9
100
AcDbEntity
  8
ext2
  6
ByLayer
 62
  256
370
   -1
100
AcDbCircle
 10
121.0799559746544
 20
41.82445178710282
 40
6.7
100
AcDbArc
 50
0
 51
89.99999999999837
  0
LINE
  5
1CA
100
AcDbEntity
  8
ext2
  6
ByLayer
 62
  256
370
   -1
100
AcDbLine
 10
127.7799559746543
 20
41.82445178710282
 11
127.7799559746543
 21
-41.82445178710282
  0
ARC
  5
1CB
100
AcDbEntity
  8
ext2
  6
ByLayer
 62
  256
370
   -1
100
AcDbCircle
 10
121.0799559746543
 20
-41.82445178710282
 40
6.7
100
AcDbArc
 50
270
 51
0
  0
LINE
  5
1CC
100
AcDbEntity
  8
ext2
  6
ByLayer
 62
  256
370
   -1
100
AcDbLine
 10
121.0799559746543
 20
-48.52445178710282
 11
-121.0799559746544
 21
-48.52445178710282
  0
ARC
  5
1CD
100
AcDbEntity
  8
ext2
  6
ByLayer
 62
  256
370
   -1
100
AcDbCircle
 10
-121.0799559746544
 20
-41.82445178710282
 40
6.7
100
AcDbArc
 50
180
 51
270
  0
LINE
  5
1CE
100
AcDbEntity
  8
ext2
  6
ByLayer
 62
  256
370
   -1
100
AcDbLine
 10
-127.7799559746544
 20
-41.82445178710282
 11
-127.7799559746544
 21
41.82445178710282
  0
ARC
  5
1CF
100
AcDbEntity
  8
ext2
  6
ByLayer
 62
  256
370
   -1
100
AcDbCircle
 10
-121.0799559746544
 20
41.82445178710282
 40
6.7
100
AcDbArc
 50
90
 51
180
  0
LINE
  5
1D0
100
AcDbEntity
  8
ext3
  6
ByLayer
 62
  256
370
   -1
100
AcDbLine
 10
-121.0799559746544
 20
50.52445178710282
 11
121.0799559746544
 21
50.52445178710282
  0
LINE
  5
1D1
100
AcDbEntity
  8
ext3
  6
ByLayer
 62
  256
370
   -1
100
AcDbLine
 10
-129.7799559746544
 20
-41.82445178710282
 11
-129.7799559746544
 21
41.82445178710282
  0
ARC
  5
1D2
100
AcDbEntity
  8
ext3
  6
ByLayer
 62
  256
370
   -1
100
AcDbCircle
 10
-121.0799559746544
 20
41.82445178710282
 40
8.699999999999999
100
AcDbArc
 50
90
 51
180
  0
ARC
  5
1D3
100
AcDbEntity
  8
ext3
  6
ByLayer
 62
  256
370
   -1
100
AcDbCircle
 10
-121.0799559746544
 20
-41.82445178710282
 40
8.699999999999999
100
AcDbArc
 50
180
 51
270
  0
LINE
  5
1D4
100
AcDbEntity
  8
ext3
  6
ByLayer
 62
  256
370
   -1
100
AcDbLine
 10
121.0799559746543
 20
-50.52445178710282
 11
-121.0799559746544
 21
-50.52445178710282
  0
ARC
  5
1D5
100
AcDbEntity
  8
ext3
  6
ByLayer
 62
  256
370
   -1
100
AcDbCircle
 10
121.0799559746543
 20
-41.82445178710282
 40
8.699999999999999
100
AcDbArc
 50
270
 51
0
  0
LINE
  5
1D6
100
AcDbEntity
  8
ext3
  6
ByLayer
 62
  256
370
   -1
100
AcDbLine
 10
129.7799559746543
 20
41.82445178710282
 11
129.7799559746543
 21
-41.82445178710282
  0
ARC
  5
1D7
100
AcDbEntity
  8
ext3
  6
ByLayer
 62
  256
370
   -1
100
AcDbCircle
 10
121.0799559746544
 20
41.82445178710282
 40
8.699999999999999
100
AcDbArc
 50
0
 51
89.99999999999837
  0
ARC
  5
1D8
100
AcDbEntity
  8
int
  6
ByLayer
 62
  256
370
   -1
100
AcDbCircle
 10
94.77569580585123
 20
-25.78823887692423
 40
3.1
100
AcDbArc
 50
0
 51
180
  0
ARC
  5
1D9
100
AcDbEntity
  8
int
  6
ByLayer
 62
  256
370
   -1
100
AcDbCircle
 10
98.51741765899696
 20
31.98276274530827
 40
3.1
100
AcDbArc
 50
180.0000429696059
 51
5.299261796403544e-05
  0
ARC
  5
1DA
100
AcDbEntity
  8
int
  6
ByLayer
 62
  256
370
   -1
100
AcDbCircle
 10
-98.29982241999937
 20
32.30637660303861
 40
3.1
100
AcDbArc
 50
179.9999703295591
 51
359.9999730028447
  0
ARC
  5
1DB
100
AcDbEntity
  8
int
  6
ByLayer
 62
  256
370
   -1
100
AcDbCircle
 10
-95.02049220647282
 20
-25.80056258481013
 40
3.1
100
AcDbArc
 50
0
 51
180
  0
ARC
  5
1DC
100
AcDbEntity
  8
int
  6
ByLayer
 62
  256
370
   -1
100
AcDbCircle
 10
-33.83632740374456
 20
-35.82445178710282
 40
5
100
AcDbArc
 50
270
 51
320.3636918224471
  0
ARC
  5
1DD
100
AcDbEntity
  8
int
  6
ByLayer
 62
  256
370
   -1
100
AcDbCircle
 10
22.74780928858726
 20
-35.82445178710282
 40
5
100
AcDbArc
 50
217.0053832080835
 51
270.0000000000002
  0
LINE
  5
1DE
100
AcDbEntity
  8
int
  6
ByLayer
 62
  256
370
   -1
100
AcDbLine
 10
3.220954592534573
 20
-18.22367026484033
 11
18.7549144727412
 21
-38.83390206740147
  0
LINE
  5
1DF
100
AcDbEntity
  8
int
  6
ByLayer
 62
  256
370
   -1
100
AcDbLine
 10
-29.985781632399
 20
-39.0140124563444
 11
-12.46592658184867
 21
-17.86344948695446
  0
ARC
  5
1E0
100
AcDbEntity
  8
int
  6
ByLayer
 62
  256
370
   -1
100
AcDbCircle
 10
-4.764835039157555
 20
-24.24257082543764
 40
10
100
AcDbArc
 50
37.00538320808344
 51
140.3636918224471
  0
ARC
  5
1E1
100
AcDbEntity
  8
int
  6
ByLayer
 62
  256
370
   -1
100
AcDbCircle
 10
-9.576924815935818
 20
34.71432482397259
 40
3.1
100
AcDbArc
 50
180
 51
360
  0
LINE
  5
1E2
100
AcDbEntity
  8
int
  6
ByLayer
 62
  256
370
   -1
100
AcDbLine
 10
101.617417658997
 20
31.98276561248483
 11
101.617417658997
 21
37.82445178710282
  0
ARC
  5
1E3
100
AcDbEntity
  8
int
  6
ByLayer
 62
  256
370
   -1
100
AcDbCircle
 10
104.617417658997
 20
37.82445178710282
 40
3
100
AcDbArc
 50
90
 51
180
  0
LINE
  5
1E4
100
AcDbEntity
  8
int
  6
ByLayer
 62
  256
370
   -1
100
AcDbLine
 10
95.41741765899695
 20
31.98276507018774
 11
95.41741765899695
 21
37.82445178710282
  0
ARC
  5
1E5
100
AcDbEntity
  8
int
  6
ByLayer
 62
  256
370
   -1
100
AcDbCircle
 10
92.41741765899695
 20
37.82445178710282
 40
3
100
AcDbArc
 50
0
 51
89.99999999999973
  0
LINE
  5
1E6
100
AcDbEntity
  8
int
  6
ByLayer
 62
  256
370
   -1
100
AcDbLine
 10
-6.476924815935819
 20
34.71432482397259
 11
-6.476924815935819
 21
37.82445178710282
  0
LINE
  5
1E7
100
AcDbEntity
  8
int
  6
ByLayer
 62
  256
370
   -1
100
AcDbLine
 10
-3.476924815935818
 20
40.82445178710282
 11
92.41741765899697
 21
40.82445178710282
  0
ARC
  5
1E8
100
AcDbEntity
  8
int
  6
ByLayer
 62
  256
370
   -1
100
AcDbCircle
 10
-3.476924815935818
 20
37.82445178710282
 40
3
100
AcDbArc
 50
90
 51
180
  0
LINE
  5
1E9
100
AcDbEntity
  8
int
  6
ByLayer
 62
  256
370
   -1
100
AcDbLine
 10
-12.67692481593582
 20
34.71432482397259
 11
-12.67692481593582
 21
37.82445178710282
  0
ARC
  5
1EA
100
AcDbEntity
  8
int
  6
ByLayer
 62
  256
370
   -1
100
AcDbCircle
 10
-15.67692481593582
 20
37.82445178710282
 40
3
100
AcDbArc
 50
0
 51
90.00000000000004
  0
LINE
  5
1EB
100
AcDbEntity
  8
int
  6
ByLayer
 62
  256
370
   -1
100
AcDbLine
 10
-92.19982241999938
 20
40.82445178710282
 11
-15.67692481593582
 21
40.82445178710282
  0
LINE
  5
1EC
100
AcDbEntity
  8
int
  6
ByLayer
 62
  256
370
   -1
100
AcDbLine
 10
-95.19982241999938
 20
32.30637806372529
 11
-95.19982241999938
 21
37.82445178710282
  0
ARC
  5
1ED
100
AcDbEntity
  8
int
  6
ByLayer
 62
  256
370
   -1
100
AcDbCircle
 10
-92.19982241999938
 20
37.82445178710282
 40
3
100
AcDbArc
 50
90
 51
180
  0
LINE
  5
1EE
100
AcDbEntity
  8
int
  6
ByLayer
 62
  256
370
   -1
100
AcDbLine
 10
-101.3998224199994
 20
32.30637820836395
 11
-101.3998224199994
 21
37.82445178710282
  0
ARC
  5
1EF
100
AcDbEntity
  8
int
  6
ByLayer
 62
  256
370
   -1
100
AcDbCircle
 10
-104.3998224199994
 20
37.82445178710282
 40
3
100
AcDbArc
 50
0
 51
90
  0
LINE
  5
1F0
100
AcDbEntity
  8
int
  6
ByLayer
 62
  256
370
   -1
100
AcDbLine
 10
-98.12049220647282
 20
-25.80056258481013
 11
-98.12049220647282
 21
-37.82445178710282
  0
ARC
  5
1F1
100
AcDbEntity
  8
int
  6
ByLayer
 62
  256
370
   -1
100
AcDbCircle
 10
-101.1204922064728
 20
-37.82445178710282
 40
3
100
AcDbArc
 50
270
 51
0
  0
LINE
  5
1F2
100
AcDbEntity
  8
int
  6
ByLayer
 62
  256
370
   -1
100
AcDbLine
 10
-91.92049220647283
 20
-25.80056258481013
 11
-91.92049220647283
 21
-37.82445178710282
  0
LINE
  5
1F3
100
AcDbEntity
  8
int
  6
ByLayer
 62
  256
370
   -1
100
AcDbLine
 10
-33.83632740374456
 20
-40.82445178710282
 11
-88.92049220647283
 21
-40.82445178710282
  0
ARC
  5
1F4
100
AcDbEntity
  8
int
  6
ByLayer
 62
  256
370
   -1
100
AcDbCircle
 10
-88.92049220647283
 20
-37.82445178710282
 40
3
100
AcDbArc
 50
180
 51
270
  0
LINE
  5
1F5
100
AcDbEntity
  8
int
  6
ByLayer
 62
  256
370
   -1
100
AcDbLine
 10
97.87569580585122
 20
-25.78823887692423
 11
97.87569580585122
 21
-37.82445178710282
  0
ARC
  5
1F6
100
AcDbEntity
  8
int
  6
ByLayer
 62
  256
370
   -1
100
AcDbCircle
 10
100.8756958058512
 20
-37.82445178710282
 40
3
100
AcDbArc
 50
180
 51
270
  0
LINE
  5
1F7
100
AcDbEntity
  8
int
  6
ByLayer
 62
  256
370
   -1
100
AcDbLine
 10
91.67569580585123
 20
-25.78823887692423
 11
91.67569580585123
 21
-37.82445178710282
  0
LINE
  5
1F8
100
AcDbEntity
  8
int
  6
ByLayer
 62
  256
370
   -1
100
AcDbLine
 10
88.67569580585123
 20
-40.82445178710282
 11
22.74780928858728
 21
-40.82445178710282
  0
ARC
  5
1F9
100
AcDbEntity
  8
int
  6
ByLayer
 62
  256
370
   -1
100
AcDbCircle
 10
88.67569580585123
 20
-37.82445178710282
 40
3
100
AcDbArc
 50
270
 51
0
  0
LINE
  5
1FA
100
AcDbEntity
  8
int
  6
ByLayer
 62
  256
370
   -1
100
AcDbLine
 10
117.0799559746543
 20
-40.82445178710282
 11
100.8756958058512
 21
-40.82445178710282
  0
ARC
  5
1FB
100
AcDbEntity
  8
int
  6
ByLayer
 62
  256
370
   -1
100
AcDbCircle
 10
117.0799559746543
 20
-37.82445178710282
 40
3
100
AcDbArc
 50
270
 51
0
  0
LINE
  5
1FC
100
AcDbEntity
  8
int
  6
ByLayer
 62
  256
370
   -1
100
AcDbLine
 10
104.617417658997
 20
40.82445178710282
 11
117.0799559746543
 21
40.82445178710282
  0
LINE
  5
1FD
100
AcDbEntity
  8
int
  6
ByLayer
 62
  256
370
   -1
100
AcDbLine
 10
120.0799559746543
 20
37.82445178710282
 11
120.0799559746543
 21
-37.82445178710282
  0
ARC
  5
1FE
100
AcDbEntity
  8
int
  6
ByLayer
 62
  256
370
   -1
100
AcDbCircle
 10
117.0799559746543
 20
37.82445178710282
 40
3
100
AcDbArc
 50
0
 51
90
  0
LINE
  5
1FF
100
AcDbEntity
  8
int
  6
ByLayer
 62
  256
370
   -1
100
AcDbLine
 10
-117.0799559746544
 20
40.82445178710282
 11
-104.3998224199994
 21
40.82445178710282
  0
ARC
  5
200
100
AcDbEntity
  8
int
  6
ByLayer
 62
  256
370
   -1
100
AcDbCircle
 10
-117.0799559746544
 20
37.82445178710282
 40
3
100
AcDbArc
 50
90
 51
180
  0
LINE
  5
201
100
AcDbEntity
  8
int
  6
ByLayer
 62
  256
370
   -1
100
AcDbLine
 10
-101.1204922064728
 20
-40.82445178710282
 11
-117.0799559746544
 21
-40.82445178710282
  0
LINE
  5
202
100
AcDbEntity
  8
int
  6
ByLayer
 62
  256
370
   -1
100
AcDbLine
 10
-120.0799559746544
 20
-37.82445178710282
 11
-120.0799559746544
 21
37.82445178710282
  0
ARC
  5
203
100
AcDbEntity
  8
int
  6
ByLayer
 62
  256
370
   -1
100
AcDbCircle
 10
-117.0799559746544
 20
-37.82445178710282
 40
3
100
AcDbArc
 50
180
 51
270
  0
ARC
  5
204
100
AcDbEntity
  8
ajour
  6
ByLayer
 62
  256
370
   -1
100
AcDbCircle
 10
-4.764835039157555
 20
-24.24257082543764
 40
20
100
AcDbArc
 50
37.00538320808344
 51
140.3636918224471
  0
ARC
  5
205
100
AcDbEntity
  8
ajour
  6
ByLayer
 62
  256
370
   -1
100
AcDbCircle
 10
76.67573203171246
 20
-25.82445178710282
 40
5
100
AcDbArc
 50
270
 51
0.1146325028364724
  0
ARC
  5
206
100
AcDbEntity
  8
ajour
  6
ByLayer
 62
  256
370
   -1
100
AcDbCircle
 10
105.0799559746543
 20
-7.688238876924231
 40
5
100
AcDbArc
 50
270
 51
0
  0
LINE
  5
207
100
AcDbEntity
  8
ajour
  6
ByLayer
 62
  256
370
   -1
100
AcDbLine
 10
110.0799559746543
 20
13.88276274531286
 11
110.0799559746543
 21
-7.688238876924231
  0
ARC
  5
208
100
AcDbEntity
  8
ajour
  6
ByLayer
 62
  256
370
   -1
100
AcDbCircle
 10
105.0799559746543
 20
13.88276274531286
 40
5
100
AcDbArc
 50
0
 51
90
  0
ARC
  5
209
100
AcDbEntity
  8
ajour
  6
ByLayer
 62
  256
370
   -1
100
AcDbCircle
 10
81.49727646857065
 20
25.82445178710282
 40
5
100
AcDbArc
 50
19.89138560635763
 51
90
  0
LINE
  5
20A
100
AcDbEntity
  8
ajour
  6
ByLayer
 62
  256
370
   -1
100
AcDbLine
 10
6.189500187480016
 20
30.82445178710282
 11
81.49727646857065
 21
30.82445178710282
  0
ARC
  5
20B
100
AcDbEntity
  8
ajour
  6
ByLayer
 62
  256
370
   -1
100
AcDbCircle
 10
6.189500187480018
 20
25.82445178710282
 40
5
100
AcDbArc
 50
90.00000000000003
 51
150.5835932945683
  0
ARC
  5
20C
100
AcDbEntity
  8
ajour
  6
ByLayer
 62
  256
370
   -1
100
AcDbCircle
 10
-9.576924815935818
 20
34.71432482397259
 40
13.1
100
AcDbArc
 50
209.4164067054317
 51
330.5835932945682
  0
ARC
  5
20D
100
AcDbEntity
  8
ajour
  6
ByLayer
 62
  256
370
   -1
100
AcDbCircle
 10
-25.34334981935165
 20
25.82445178710282
 40
5
100
AcDbArc
 50
29.41640670543175
 51
90.00000000000009
  0
LINE
  5
20E
100
AcDbEntity
  8
ajour
  6
ByLayer
 62
  256
370
   -1
100
AcDbLine
 10
11.2067442242267
 20
-12.20476970424303
 11
23.74014401548228
 21
-28.83390206740147
  0
LINE
  5
20F
100
AcDbEntity
  8
ajour
  6
ByLayer
 62
  256
370
   -1
100
AcDbLine
 10
76.67573203171246
 20
-30.82445178710282
 11
27.73303883132834
 21
-30.82445178710282
  0
ARC
  5
210
100
AcDbEntity
  8
ajour
  6
ByLayer
 62
  256
370
   -1
100
AcDbCircle
 10
27.73303883132834
 20
-25.82445178710282
 40
5
100
AcDbArc
 50
217.0053832080835
 51
270
  0
LINE
  5
211
100
AcDbEntity
  8
ajour
  6
ByLayer
 62
  256
370
   -1
100
AcDbLine
 10
-34.68755493485156
 20
-29.0140124563444
 11
-20.16701812453979
 21
-11.48432814847128
  0
ARC
  5
212
100
AcDbEntity
  8
ajour
  6
ByLayer
 62
  256
370
   -1
100
AcDbCircle
 10
-38.53810070619712
 20
-25.82445178710282
 40
5
100
AcDbArc
 50
270
 51
320.3636918224471
  0
LINE
  5
213
100
AcDbEntity
  8
ajour
  6
ByLayer
 62
  256
370
   -1
100
AcDbLine
 10
-38.53810070619712
 20
-30.82445178710282
 11
-76.92050797150708
 21
-30.82445178710282
  0
ARC
  5
214
100
AcDbEntity
  8
ajour
  6
ByLayer
 62
  256
370
   -1
100
AcDbCircle
 10
-76.92050797150708
 20
-25.82445178710281
 40
5
100
AcDbArc
 50
179.9243784052655
 51
270
  0
ARC
  5
215
100
AcDbEntity
  8
ajour
  6
ByLayer
 62
  256
370
   -1
100
AcDbCircle
 10
-105.0799559746544
 20
-7.700562584810128
 40
5
100
AcDbArc
 50
180.0000000000001
 51
270
  0
LINE
  5
216
100
AcDbEntity
  8
ajour
  6
ByLayer
 62
  256
370
   -1
100
AcDbLine
 10
-110.0799559746544
 20
-7.700562584810132
 11
-110.0799559746544
 21
14.20637660304021
  0
ARC
  5
217
100
AcDbEntity
  8
ajour
  6
ByLayer
 62
  256
370
   -1
100
AcDbCircle
 10
-105.0799559746544
 20
14.20637660304021
 40
5
100
AcDbArc
 50
90
 51
180
  0
LINE
  5
218
100
AcDbEntity
  8
ajour
  6
ByLayer
 62
  256
370
   -1
100
AcDbLine
 10
-81.40027654797794
 20
30.82445178710282
 11
-25.34334981935166
 21
30.82445178710282
  0
ARC
  5
219
100
AcDbEntity
  8
ajour
  6
ByLayer
 62
  256
370
   -1
100
AcDbCircle
 10
-81.40027654797794
 20
25.82445178710281
 40
5
100
AcDbArc
 50
90
 51
159.0153763774257
  0
ARC
  5
21A
100
AcDbEntity
  8
ajour
  6
ByLayer
 62
  256
370
   -1
100
AcDbCircle
 10
-98.29982241999937
 20
32.30637660303861
 40
13.1
100
AcDbArc
 50
270.0000291021717
 51
339.0153763774256
  0
LINE
  5
21B
100
AcDbEntity
  8
ajour
  6
ByLayer
 62
  256
370
   -1
100
AcDbLine
 10
-98.29982907386558
 20
19.20637660304021
 11
-105.0799559746544
 21
19.20637660304021
  0
ARC
  5
21C
100
AcDbEntity
  8
ajour
  6
ByLayer
 62
  256
370
   -1
100
AcDbCircle
 10
-95.02049220647282
 20
-25.80056258481013
 40
13.1
100
AcDbArc
 50
359.9243784052653
 51
89.96218920263266
  0
LINE
  5
21D
100
AcDbEntity
  8
ajour
  6
ByLayer
 62
  256
370
   -1
100
AcDbLine
 10
-105.0799559746544
 20
-12.70056258481013
 11
-95.01184721702037
 21
-12.70056543732352
  0
ARC
  5
21E
100
AcDbEntity
  8
ajour
  6
ByLayer
 62
  256
370
   -1
100
AcDbCircle
 10
98.51741765899696
 20
31.98276274530827
 40
13.1
100
AcDbArc
 50
199.8913856063575
 51
269.9999522696232
  0
LINE
  5
21F
100
AcDbEntity
  8
ajour
  6
ByLayer
 62
  256
370
   -1
100
AcDbLine
 10
105.0799559746543
 20
18.88276274531287
 11
98.51740674601275
 21
18.88276274531282
  0
ARC
  5
220
100
AcDbEntity
  8
ajour
  6
ByLayer
 62
  256
370
   -1
100
AcDbCircle
 10
94.77569580585123
 20
-25.78823887692423
 40
13.1
100
AcDbArc
 50
90.05731625141821
 51
180.1146325028365
  0
CIRCLE
  5
221
100
AcDbEntity
  8
ajour
  6
ByLayer
 62
  256
370
   -1
100
AcDbCircle
 10
-110.7398891973269
 20
31.48438500977532
 40
5
  0
CIRCLE
  5
222
100
AcDbEntity
  8
ajour
  6
ByLayer
 62
  256
370
   -1
100
AcDbCircle
 10
-109.1002240905636
 20
-29.84471990301201
 40
5
  0
CIRCLE
  5
223
100
AcDbEntity
  8
ajour
  6
ByLayer
 62
  256
370
   -1
100
AcDbCircle
 10
108.9778258902527
 20
-29.72232170270129
 40
5
  0
CIRCLE
  5
224
100
AcDbEntity
  8
ajour
  6
ByLayer
 62
  256
370
   -1
100
AcDbCircle
 10
110.8486868168256
 20
31.59318262927415
 40
5
  0
LINE
  5
225
100
AcDbEntity
  8
rp
  6
ByLayer
 62
  256
370
   -1
100
AcDbLine
 10
-17.27109032714229
 20
24.03094674038351
 11
1.193206399000941
 21
24.03094674038351
  0
LINE
  5
226
100
AcDbEntity
  8
rp
  6
ByLayer
 62
  256
370
   -1
100
AcDbLine
 10
1.193206399000941
 20
24.03094674038351
 11
1.193206399000939
 21
-1.969053259616492
  0
LINE
  5
227
100
AcDbEntity
  8
rp
  6
ByLayer
 62
  256
370
   -1
100
AcDbLine
 10
1.193206399000939
 20
-1.969053259616492
 11
-17.27109032714229
 21
-1.969053259616491
  0
LINE
  5
228
100
AcDbEntity
  8
rp
  6
ByLayer
 62
  256
370
   -1
100
AcDbLine
 10
-17.27109032714229
 20
-1.969053259616491
 11
-17.27109032714229
 21
24.03094674038351
  0
LINE
  5
229
100
AcDbEntity
  8
placement
  6
ByLayer
 62
  256
370
   -1
100
AcDbLine
 10
1.193206399000939
 20
-1.969053259616492
 11
-17.27109032714229
 21
24.03094674038351
  0
LINE
  5
22A
100
AcDbEntity
  8
ajour
  6
ByLayer
 62
  256
370
   -1
100
AcDbLine
 10
94.76259112737876
 20
-12.68824543160518
 11
105.0799559746543
 21
-12.68823887692423
  0
LINE
  5
22B
100
AcDbEntity
  8
cut-rp
  6
ByLayer
 62
  256
370
   -1
100
AcDbLine
 10
1.96105803592933
 20
58.52445178710282
 11
1.961058035929328
 21
35.52445178710282
  0
LINE
  5
22C
100
AcDbEntity
  8
cut-rp
  6
ByLayer
 62
  256
370
   -1
100
AcDbLine
 10
1.961058035929328
 20
35.52445178710282
 11
-18.03894196407067
 21
35.52445178710282
  0
LINE
  5
22D
100
AcDbEntity
  8
cut-rp
  6
ByLayer
 62
  256
370
   -1
100
AcDbLine
 10
-18.03894196407067
 20
58.52445178710283
 11
1.96105803592933
 21
58.52445178710282
  0
LINE
  5
22E
100
AcDbEntity
  8
cut-rp
  6
ByLayer
 62
  256
370
   -1
100
AcDbLine
 10
-18.03894196407067
 20
35.52445178710282
 11
-18.03894196407067
 21
58.52445178710283
  0
ENDSEC
  0
SECTION
  2
OBJECTS
  0
DICTIONARY
  5
C
330
0
100
AcDbDictionary
281
    1
  3
ACAD_GROUP
350
D
  0
DICTIONARY
  5
D
330
C
100
AcDbDictionary
281
    1
  0
PLOTSETTINGS
  5
22F
100
AcDbPlotSettings
  6
1x1
 40
0
 41
0
 42
0
 43
0
  0
ENDSEC
  0
EOF
