999
dxfrw 0.6.3
  0
SECTION
  2
HEADER
  9
$ACADVER
  1
AC1021
  9
$DWGCODEPAGE
  3
ANSI_1252
  9
$INSBASE
 10
0
 20
0
 30
0
  9
$EXTMIN
 10
-120.5799559746544
 20
-41.32445178710282
 30
0
  9
$EXTMAX
 10
120.5799559746543
 20
41.32445178710282
 30
0
  9
$LIMMIN
 10
0
 20
0
  9
$LIMMAX
 10
420
 20
297
  9
$ORTHOMODE
 70
    0
  9
$REGENMODE
 70
    1
  9
$FILLMODE
 70
    1
  9
$QTEXTMODE
 70
    0
  9
$MIRRTEXT
 70
    0
  9
$LTSCALE
 40
1
  9
$ATTMODE
 70
    0
  9
$TEXTSIZE
 40
2.5
  9
$TRACEWID
 40
15.68
  9
$TEXTSTYLE
  7
STANDARD
  9
$CLAYER
  8
plate1
  9
$CELTYPE
  6
BYLAYER
  9
$CECOLOR
 62
  256
  9
$CELTSCALE
 40
1
  9
$DISPSILH
 70
    0
  9
$DIMSCALE
 40
2.5
  9
$DIMASZ
 40
2.5
  9
$DIMEXO
 40
0.625
  9
$DIMDLI
 40
3.75
  9
$DIMRND
 40
0
  9
$DIMDLE
 40
0
  9
$DIMEXE
 40
1.25
  9
$DIMTP
 40
0
  9
$DIMTM
 40
0
  9
$DIMTXT
 40
2.5
  9
$DIMCEN
 40
2.5
  9
$DIMTSZ
 40
0
  9
$DIMTOL
 70
    0
  9
$DIMLIM
 70
    0
  9
$DIMTIH
 70
    0
  9
$DIMTOH
 70
    0
  9
$DIMSE1
 70
    0
  9
$DIMSE2
 70
    0
  9
$DIMTAD
 70
    1
  9
$DIMZIN
 70
    8
  9
$DIMBLK
  1

  9
$DIMASO
 70
    1
  9
$DIMSHO
 70
    1
  9
$DIMPOST
  1

  9
$DIMAPOST
  1

  9
$DIMALT
 70
    0
  9
$DIMALTD
 70
    3
  9
$DIMALTF
 40
0.03937
  9
$DIMLFAC
 40
1
  9
$DIMTOFL
 70
    1
  9
$DIMTVP
 40
0
  9
$DIMTIX
 70
    0
  9
$DIMSOXD
 70
    0
  9
$DIMSAH
 70
    0
  9
$DIMBLK1
  1

  9
$DIMBLK2
  1

  9
$DIMSTYLE
  2
STANDARD
  9
$DIMCLRD
 70
    0
  9
$DIMCLRE
 70
    0
  9
$DIMCLRT
 70
    0
  9
$DIMTFAC
 40
1
  9
$DIMGAP
 40
0.625
  9
$DIMJUST
 70
    0
  9
$DIMSD1
 70
    0
  9
$DIMSD2
 70
    0
  9
$DIMTOLJ
 70
    0
  9
$DIMTZIN
 70
    8
  9
$DIMALTZ
 70
    0
  9
$DIMALTTZ
 70
    0
  9
$DIMUPT
 70
    0
  9
$DIMDEC
 70
    2
  9
$DIMTDEC
 70
    2
  9
$DIMALTU
 70
    2
  9
$DIMALTTD
 70
    3
  9
$DIMTXSTY
  7
STANDARD
  9
$DIMAUNIT
 70
    0
  9
$DIMADEC
 70
    0
  9
$DIMALTRND
 40
0
  9
$DIMAZIN
 70
    0
  9
$DIMDSEP
 70
   44
  9
$DIMATFIT
 70
    3
  9
$DIMFRAC
 70
    0
  9
$DIMLDRBLK
  1
STANDARD
  9
$DIMLUNIT
 70
    2
  9
$DIMLWD
 70
   -2
  9
$DIMLWE
 70
   -2
  9
$DIMTMOVE
 70
    0
  9
$DIMFXL
 40
1
  9
$DIMFXLON
 70
    0
  9
$DIMJOGANG
 40
0.7854
  9
$DIMTFILL
 70
    0
  9
$DIMTFILLCLR
 70
    0
  9
$DIMARCSYM
 70
    0
  9
$DIMLTYPE
  6

  9
$DIMLTEX1
  6

  9
$DIMLTEX2
  6

  9
$LUNITS
 70
    2
  9
$LUPREC
 70
    4
  9
$SKETCHINC
 40
1
  9
$FILLETRAD
 40
0
  9
$AUNITS
 70
    0
  9
$AUPREC
 70
    2
  9
$MENU
  1
.
  9
$ELEVATION
 40
0
  9
$PELEVATION
 40
0
  9
$THICKNESS
 40
0
  9
$LIMCHECK
 70
    0
  9
$CHAMFERA
 40
0
  9
$CHAMFERB
 40
0
  9
$CHAMFERC
 40
0
  9
$CHAMFERD
 40
0
  9
$SKPOLY
 70
    0
  9
$USRTIMER
 70
    1
  9
$ANGBASE
 50
0
  9
$ANGDIR
 70
    0
  9
$PDMODE
 70
   34
  9
$PDSIZE
 40
0
  9
$PLINEWID
 40
0
  9
$SPLFRAME
 70
    0
  9
$SPLINETYPE
 70
    2
  9
$SPLINESEGS
 70
    8
  9
$HANDSEED
  5
20000
  9
$SURFTAB1
 70
    6
  9
$SURFTAB2
 70
    6
  9
$SURFTYPE
 70
    6
  9
$SURFU
 70
    6
  9
$SURFV
 70
    6
  9
$UCSBASE
  2

  9
$UCSNAME
  2

  9
$UCSORG
 10
0
 20
0
 30
0
  9
$UCSXDIR
 10
1
 20
0
 30
0
  9
$UCSYDIR
 10
0
 20
1
 30
0
  9
$UCSORTHOREF
  2

  9
$UCSORTHOVIEW
 70
    0
  9
$UCSORGTOP
 10
0
 20
0
 30
0
  9
$UCSORGBOTTOM
 10
0
 20
0
 30
0
  9
$UCSORGLEFT
 10
0
 20
0
 30
0
  9
$UCSORGRIGHT
 10
0
 20
0
 30
0
  9
$UCSORGFRONT
 10
0
 20
0
 30
0
  9
$UCSORGBACK
 10
0
 20
0
 30
0
  9
$PUCSBASE
  2

  9
$PUCSNAME
  2

  9
$PUCSORG
 10
0
 20
0
 30
0
  9
$PUCSXDIR
 10
1
 20
0
 30
0
  9
$PUCSYDIR
 10
0
 20
1
 30
0
  9
$PUCSORTHOREF
  2

  9
$PUCSORTHOVIEW
 70
    0
  9
$PUCSORGTOP
 10
0
 20
0
 30
0
  9
$PUCSORGBOTTOM
 10
0
 20
0
 30
0
  9
$PUCSORGLEFT
 10
0
 20
0
 30
0
  9
$PUCSORGRIGHT
 10
0
 20
0
 30
0
  9
$PUCSORGFRONT
 10
0
 20
0
 30
0
  9
$PUCSORGBACK
 10
0
 20
0
 30
0
  9
$USERI1
 70
    0
  9
$USERI2
 70
    0
  9
$USERI3
 70
    0
  9
$USERI4
 70
    0
  9
$USERI5
 70
    0
  9
$USERR1
 40
0
  9
$USERR2
 40
0
  9
$USERR3
 40
0
  9
$USERR4
 40
0
  9
$USERR5
 40
0
  9
$WORLDVIEW
 70
    1
  9
$SHADEDGE
 70
    3
  9
$SHADEDIF
 70
   70
  9
$TILEMODE
 70
    1
  9
$MAXACTVP
 70
   64
  9
$PINSBASE
 10
0
 20
0
 30
0
  9
$PLIMCHECK
 70
    0
  9
$PEXTMIN
 10
0
 20
0
 30
0
  9
$PEXTMAX
 10
0
 20
0
 30
0
  9
$GRIDMODE
 70
    1
  9
$SNAPSTYLE
 70
    0
  9
$PLIMMIN
 10
0
 20
0
  9
$PLIMMAX
 10
210
 20
297
  9
$UNITMODE
 70
    0
  9
$VISRETAIN
 70
    1
  9
$PLINEGEN
 70
    0
  9
$PSLTSCALE
 70
    1
  9
$TREEDEPTH
 70
 3020
  9
$CMLSTYLE
  2
Standard
  9
$CMLJUST
 70
    0
  9
$CMLSCALE
 40
20
  9
$PROXYGRAPHICS
 70
    1
  9
$MEASUREMENT
 70
    1
  9
$CELWEIGHT
370
   -1
  9
$ENDCAPS
280
    0
  9
$JOINSTYLE
280
    0
  9
$LWDISPLAY
290
    0
  9
$INSUNITS
 70
    0
  9
$HYPERLINKBASE
  1

  9
$STYLESHEET
  1

  9
$XEDIT
290
    1
  9
$CEPSNTYPE
380
    0
  9
$PSTYLEMODE
290
    1
  9
$EXTNAMES
290
    1
  9
$PSVPSCALE
 40
1
  9
$OLESTARTUP
290
    0
  9
$SORTENTS
280
  127
  9
$INDEXCTL
280
    0
  9
$HIDETEXT
280
    1
  9
$XCLIPFRAME
290
    0
  9
$HALOGAP
280
    0
  9
$OBSCOLOR
 70
  257
  9
$OBSLTYPE
280
    0
  9
$INTERSECTIONDISPLAY
280
    0
  9
$INTERSECTIONCOLOR
 70
  257
  9
$DIMASSOC
280
    1
  9
$PROJECTNAME
  1

  9
$CAMERADISPLAY
290
    0
  9
$LENSLENGTH
 40
50
  9
$CAMERAHEIGHT
 40
0
  9
$STEPSPERSEC
 40
2
  9
$STEPSIZE
 40
50
  9
$3DDWFPREC
 40
2
  9
$PSOLWIDTH
 40
5
  9
$PSOLHEIGHT
 40
80
  9
$LOFTANG1
 40
1.570796326794897
  9
$LOFTANG2
 40
1.570796326794897
  9
$LOFTMAG1
 40
0
  9
$LOFTMAG2
 40
0
  9
$LOFTPARAM
 70
    7
  9
$LOFTNORMALS
280
    1
  9
$LATITUDE
 40
1
  9
$LONGITUDE
 40
1
  9
$NORTHDIRECTION
 40
0
  9
$TIMEZONE
 70
-8000
  9
$LIGHTGLYPHDISPLAY
280
    1
  9
$TILEMODELIGHTSYNCH
280
    1
  9
$SOLIDHIST
280
    1
  9
$SHOWHIST
280
    1
  9
$DWFFRAME
280
    2
  9
$DGNFRAME
280
    0
  9
$REALWORLDSCALE
290
    1
  9
$INTERFERECOLOR
 62
    1
  9
$CSHADOW
280
    0
  9
$SHADOWPLANELOCATION
 40
0
  0
ENDSEC
  0
SECTION
  2
CLASSES
  0
ENDSEC
  0
SECTION
  2
TABLES
  0
TABLE
  2
VPORT
  5
8
330
0
100
AcDbSymbolTable
 70
    1
  0
VPORT
  5
31
330
2
100
AcDbSymbolTableRecord
100
AcDbViewportTableRecord
  2
*ACTIVE
 70
    0
 10
0
 20
0
 11
1
 21
1
 12
61.27672067124415
 22
37.79224479402014
 13
0
 23
0
 14
10
 24
10
 15
10
 25
10
 16
0
 26
0
 36
1
 17
0
 27
0
 37
0
 40
150.9716306392972
 41
1.623529411764706
 42
50
 43
0
 44
0
 50
0
 51
0
 71
    0
 72
  100
 73
    1
 74
    3
 75
    0
 76
    1
 77
    0
 78
    0
281
    0
 65
    1
110
0
120
0
130
0
111
1
121
0
131
0
112
0
122
1
132
0
 79
    0
146
0
348
10020
 60
    7
 61
    5
292
1
282
    1
141
0
142
0
 63
  250
421
3358443
  0
ENDTAB
  0
TABLE
  2
LTYPE
  5
5
330
0
100
AcDbSymbolTable
 70
    4
  0
LTYPE
  5
14
330
5
100
AcDbSymbolTableRecord
100
AcDbLinetypeTableRecord
  2
ByBlock
 70
    0
  3

 72
   65
 73
    0
 40
0
  0
LTYPE
  5
15
330
5
100
AcDbSymbolTableRecord
100
AcDbLinetypeTableRecord
  2
ByLayer
 70
    0
  3

 72
   65
 73
    0
 40
0
  0
LTYPE
  5
16
330
5
100
AcDbSymbolTableRecord
100
AcDbLinetypeTableRecord
  2
Continuous
 70
    0
  3
Solid line
 72
   65
 73
    0
 40
0
  0
LTYPE
  5
32
330
5
100
AcDbSymbolTableRecord
100
AcDbLinetypeTableRecord
  2
DOT
 70
    0
  3
Dot . . . . . . . . . . . . . . . . . . . . . .
 72
   65
 73
    2
 40
6.35
 49
0
 74
    0
 49
-6.35
 74
    0
  0
LTYPE
  5
33
330
5
100
AcDbSymbolTableRecord
100
AcDbLinetypeTableRecord
  2
DOTTINY
 70
    0
  3
Dot (.15x) .....................................
 72
   65
 73
    2
 40
0.9525
 49
0
 74
    0
 49
-0.9525
 74
    0
  0
LTYPE
  5
34
330
5
100
AcDbSymbolTableRecord
100
AcDbLinetypeTableRecord
  2
DOT2
 70
    0
  3
Dot (.5x) .....................................
 72
   65
 73
    2
 40
3.175
 49
0
 74
    0
 49
-3.175
 74
    0
  0
LTYPE
  5
35
330
5
100
AcDbSymbolTableRecord
100
AcDbLinetypeTableRecord
  2
DOTX2
 70
    0
  3
Dot (2x) .  .  .  .  .  .  .  .  .  .  .  .  .
 72
   65
 73
    2
 40
12.7
 49
0
 74
    0
 49
-12.7
 74
    0
  0
LTYPE
  5
36
330
5
100
AcDbSymbolTableRecord
100
AcDbLinetypeTableRecord
  2
DASHED
 70
    0
  3
Dashed _ _ _ _ _ _ _ _ _ _ _ _ _ _ _ _ _
 72
   65
 73
    2
 40
19.05
 49
12.7
 74
    0
 49
-6.35
 74
    0
  0
LTYPE
  5
37
330
5
100
AcDbSymbolTableRecord
100
AcDbLinetypeTableRecord
  2
DASHEDTINY
 70
    0
  3
Dashed (.15x) _ _ _ _ _ _ _ _ _ _ _ _ _ _ _ _ _
 72
   65
 73
    2
 40
2.8575
 49
1.905
 74
    0
 49
-0.9525
 74
    0
  0
LTYPE
  5
38
330
5
100
AcDbSymbolTableRecord
100
AcDbLinetypeTableRecord
  2
DASHED2
 70
    0
  3
Dashed (.5x) _ _ _ _ _ _ _ _ _ _ _ _ _ _ _ _ _
 72
   65
 73
    2
 40
9.524999999999999
 49
6.35
 74
    0
 49
-3.175
 74
    0
  0
LTYPE
  5
39
330
5
100
AcDbSymbolTableRecord
100
AcDbLinetypeTableRecord
  2
DASHEDX2
 70
    0
  3
Dashed (2x) ____  ____  ____  ____  ____  ___
 72
   65
 73
    2
 40
38.09999999999999
 49
25.4
 74
    0
 49
-12.7
 74
    0
  0
LTYPE
  5
3A
330
5
100
AcDbSymbolTableRecord
100
AcDbLinetypeTableRecord
  2
DASHDOT
 70
    0
  3
Dash dot __ . __ . __ . __ . __ . __ . __ . __
 72
   65
 73
    4
 40
25.4
 49
12.7
 74
    0
 49
-6.35
 74
    0
 49
0
 74
    0
 49
-6.35
 74
    0
  0
LTYPE
  5
3B
330
5
100
AcDbSymbolTableRecord
100
AcDbLinetypeTableRecord
  2
DASHDOTTINY
 70
    0
  3
Dash dot (.15x) _._._._._._._._._._._._._._._.
 72
   65
 73
    4
 40
3.81
 49
1.905
 74
    0
 49
-0.9525
 74
    0
 49
0
 74
    0
 49
-0.9525
 74
    0
  0
LTYPE
  5
3C
330
5
100
AcDbSymbolTableRecord
100
AcDbLinetypeTableRecord
  2
DASHDOT2
 70
    0
  3
Dash dot (.5x) _._._._._._._._._._._._._._._.
 72
   65
 73
    4
 40
12.7
 49
6.35
 74
    0
 49
-3.175
 74
    0
 49
0
 74
    0
 49
-3.175
 74
    0
  0
LTYPE
  5
3D
330
5
100
AcDbSymbolTableRecord
100
AcDbLinetypeTableRecord
  2
DASHDOTX2
 70
    0
  3
Dash dot (2x) ____  .  ____  .  ____  .  ___
 72
   65
 73
    4
 40
50.8
 49
25.4
 74
    0
 49
-12.7
 74
    0
 49
0
 74
    0
 49
-12.7
 74
    0
  0
LTYPE
  5
3E
330
5
100
AcDbSymbolTableRecord
100
AcDbLinetypeTableRecord
  2
DIVIDE
 70
    0
  3
Divide ____ . . ____ . . ____ . . ____ . . ____
 72
   65
 73
    6
 40
31.75
 49
12.7
 74
    0
 49
-6.35
 74
    0
 49
0
 74
    0
 49
-6.35
 74
    0
 49
0
 74
    0
 49
-6.35
 74
    0
  0
LTYPE
  5
3F
330
5
100
AcDbSymbolTableRecord
100
AcDbLinetypeTableRecord
  2
DIVIDETINY
 70
    0
  3
Divide (.15x) __..__..__..__..__..__..__..__.._
 72
   65
 73
    6
 40
4.7625
 49
1.905
 74
    0
 49
-0.9525
 74
    0
 49
0
 74
    0
 49
-0.9525
 74
    0
 49
0
 74
    0
 49
-0.9525
 74
    0
  0
LTYPE
  5
40
330
5
100
AcDbSymbolTableRecord
100
AcDbLinetypeTableRecord
  2
DIVIDE2
 70
    0
  3
Divide (.5x) __..__..__..__..__..__..__..__.._
 72
   65
 73
    6
 40
15.875
 49
6.35
 74
    0
 49
-3.175
 74
    0
 49
0
 74
    0
 49
-3.175
 74
    0
 49
0
 74
    0
 49
-3.175
 74
    0
  0
LTYPE
  5
41
330
5
100
AcDbSymbolTableRecord
100
AcDbLinetypeTableRecord
  2
DIVIDEX2
 70
    0
  3
Divide (2x) ________  .  .  ________  .  .  _
 72
   65
 73
    6
 40
63.5
 49
25.4
 74
    0
 49
-12.7
 74
    0
 49
0
 74
    0
 49
-12.7
 74
    0
 49
0
 74
    0
 49
-12.7
 74
    0
  0
LTYPE
  5
42
330
5
100
AcDbSymbolTableRecord
100
AcDbLinetypeTableRecord
  2
BORDER
 70
    0
  3
Border __ __ . __ __ . __ __ . __ __ . __ __ .
 72
   65
 73
    6
 40
44.45
 49
12.7
 74
    0
 49
-6.35
 74
    0
 49
12.7
 74
    0
 49
-6.35
 74
    0
 49
0
 74
    0
 49
-6.35
 74
    0
  0
LTYPE
  5
43
330
5
100
AcDbSymbolTableRecord
100
AcDbLinetypeTableRecord
  2
BORDERTINY
 70
    0
  3
Border (.15x) __.__.__.__.__.__.__.__.__.__.__.
 72
   65
 73
    6
 40
6.6675
 49
1.905
 74
    0
 49
-0.9525
 74
    0
 49
1.905
 74
    0
 49
-0.9525
 74
    0
 49
0
 74
    0
 49
-0.9525
 74
    0
  0
LTYPE
  5
44
330
5
100
AcDbSymbolTableRecord
100
AcDbLinetypeTableRecord
  2
BORDER2
 70
    0
  3
Border (.5x) __.__.__.__.__.__.__.__.__.__.__.
 72
   65
 73
    6
 40
22.225
 49
6.35
 74
    0
 49
-3.175
 74
    0
 49
6.35
 74
    0
 49
-3.175
 74
    0
 49
0
 74
    0
 49
-3.175
 74
    0
  0
LTYPE
  5
45
330
5
100
AcDbSymbolTableRecord
100
AcDbLinetypeTableRecord
  2
BORDERX2
 70
    0
  3
Border (2x) ____  ____  .  ____  ____  .  ___
 72
   65
 73
    6
 40
88.89999999999999
 49
25.4
 74
    0
 49
-12.7
 74
    0
 49
25.4
 74
    0
 49
-12.7
 74
    0
 49
0
 74
    0
 49
-12.7
 74
    0
  0
LTYPE
  5
46
330
5
100
AcDbSymbolTableRecord
100
AcDbLinetypeTableRecord
  2
CENTER
 70
    0
  3
Center ____ _ ____ _ ____ _ ____ _ ____ _ ____
 72
   65
 73
    4
 40
50.8
 49
31.75
 74
    0
 49
-6.35
 74
    0
 49
6.35
 74
    0
 49
-6.35
 74
    0
  0
LTYPE
  5
47
330
5
100
AcDbSymbolTableRecord
100
AcDbLinetypeTableRecord
  2
CENTERTINY
 70
    0
  3
Center (.15x) ___ _ ___ _ ___ _ ___ _ ___ _ ___
 72
   65
 73
    4
 40
7.619999999999999
 49
4.7625
 74
    0
 49
-0.9525
 74
    0
 49
0.9525
 74
    0
 49
-0.9525
 74
    0
  0
LTYPE
  5
48
330
5
100
AcDbSymbolTableRecord
100
AcDbLinetypeTableRecord
  2
CENTER2
 70
    0
  3
Center (.5x) ___ _ ___ _ ___ _ ___ _ ___ _ ___
 72
   65
 73
    4
 40
28.575
 49
19.05
 74
    0
 49
-3.175
 74
    0
 49
3.175
 74
    0
 49
-3.175
 74
    0
  0
LTYPE
  5
49
330
5
100
AcDbSymbolTableRecord
100
AcDbLinetypeTableRecord
  2
CENTERX2
 70
    0
  3
Center (2x) ________  __  ________  __  _____
 72
   65
 73
    4
 40
101.6
 49
63.5
 74
    0
 49
-12.7
 74
    0
 49
12.7
 74
    0
 49
-12.7
 74
    0
  0
ENDTAB
  0
TABLE
  2
LAYER
  5
2
330
0
100
AcDbSymbolTable
 70
    1
  0
LAYER
  5
10
330
2
100
AcDbSymbolTableRecord
100
AcDbLayerTableRecord
  2
0
 70
    5
 62
    7
  6
CONTINUOUS
370
    0
390
F
  0
LAYER
  5
4A
330
2
100
AcDbSymbolTableRecord
100
AcDbLayerTableRecord
  2
edge
 70
    5
 62
    2
  6
CONTINUOUS
370
    0
390
F
  0
LAYER
  5
4B
330
2
100
AcDbSymbolTableRecord
100
AcDbLayerTableRecord
  2
mx
 70
    5
 62
    8
  6
CONTINUOUS
370
    0
390
F
  0
LAYER
  5
4C
330
2
100
AcDbSymbolTableRecord
100
AcDbLayerTableRecord
  2
percage
 70
    5
 62
    3
  6
CONTINUOUS
370
    0
390
F
  0
LAYER
  5
4D
330
2
100
AcDbSymbolTableRecord
100
AcDbLayerTableRecord
  2
plate
 70
    0
 62
    1
  6
CONTINUOUS
370
    0
390
F
  0
LAYER
  5
4E
330
2
100
AcDbSymbolTableRecord
100
AcDbLayerTableRecord
  2
plate1
 70
    4
 62
   16
420
8388608
  6
CONTINUOUS
370
    0
390
F
  0
LAYER
  5
4F
330
2
100
AcDbSymbolTableRecord
100
AcDbLayerTableRecord
  2
rp
 70
    5
 62
  211
420
15817983
  6
CONTINUOUS
370
    0
390
F
  0
ENDTAB
  0
TABLE
  2
STYLE
  5
3
330
0
100
AcDbSymbolTable
 70
    3
  0
STYLE
  5
50
330
2
100
AcDbSymbolTableRecord
100
AcDbTextStyleTableRecord
  2
Standard
 70
    0
 40
0
 41
1
 50
0
 71
    0
 42
1
  3
txt
  4

  0
ENDTAB
  0
TABLE
  2
VIEW
  5
6
330
0
100
AcDbSymbolTable
 70
    0
  0
ENDTAB
  0
TABLE
  2
UCS
  5
7
330
0
100
AcDbSymbolTable
 70
    0
  0
ENDTAB
  0
TABLE
  2
APPID
  5
9
330
0
100
AcDbSymbolTable
 70
    1
  0
APPID
  5
12
330
9
100
AcDbSymbolTableRecord
100
AcDbRegAppTableRecord
  2
ACAD
 70
    0
  0
APPID
  5
51
330
9
100
AcDbSymbolTableRecord
100
AcDbRegAppTableRecord
  2
LibreCad
 70
    0
  0
ENDTAB
  0
TABLE
  2
DIMSTYLE
  5
A
330
0
100
AcDbSymbolTable
 70
    1
100
AcDbDimStyleTable
 71
    1
  0
DIMSTYLE
105
52
330
A
100
AcDbSymbolTableRecord
100
AcDbDimStyleTableRecord
  2
Standard
 70
    0
 40
2.5
 41
2.5
 42
0.625
 43
0.38
 44
1.25
 45
0
 46
0
 47
0
 48
0
 49
1
140
2.5
141
0.09
142
0
143
25.4
144
1
145
0
146
1
147
0.625
148
0
 71
    0
 72
    0
 73
    0
 74
    1
 75
    0
 76
    0
 77
    0
 78
    8
 79
    0
170
    0
171
    2
172
    0
173
    0
174
    0
175
    0
176
    0
177
    0
178
    0
179
    0
271
    2
272
    4
273
    2
274
    2
275
    0
276
    0
277
    2
278
   44
279
    0
280
    0
281
    0
282
    0
283
    1
284
    0
285
    0
286
    0
288
    0
289
    3
340
STANDARD
341

371
   -2
372
   -2
  0
ENDTAB
  0
TABLE
  2
BLOCK_RECORD
  5
1
330
0
100
AcDbSymbolTable
 70
    2
  0
BLOCK_RECORD
  5
1F
330
1
100
AcDbSymbolTableRecord
100
AcDbBlockTableRecord
  2
*Model_Space
 70
    0
280
    1
281
    0
  0
BLOCK_RECORD
  5
1E
330
1
100
AcDbSymbolTableRecord
100
AcDbBlockTableRecord
  2
*Paper_Space
 70
    0
280
    1
281
    0
  0
ENDTAB
  0
ENDSEC
  0
SECTION
  2
BLOCKS
  0
BLOCK
  5
20
330
1F
100
AcDbEntity
  8
0
100
AcDbBlockBegin
  2
*Model_Space
 70
    0
 10
0
 20
0
 30
0
  3
*Model_Space
  1

  0
ENDBLK
  5
21
330
1F
100
AcDbEntity
  8
0
100
AcDbBlockEnd
  0
BLOCK
  5
1C
330
1B
100
AcDbEntity
  8
0
100
AcDbBlockBegin
  2
*Paper_Space
 70
    0
 10
0
 20
0
 30
0
  3
*Paper_Space
  1

  0
ENDBLK
  5
1D
330
1F
100
AcDbEntity
  8
0
100
AcDbBlockEnd
  0
ENDSEC
  0
SECTION
  2
ENTITIES
  0
HATCH
  5
53
100
AcDbEntity
  8
plate1
  6
ByLayer
 62
  256
370
   -1
100
AcDbHatch
 10
0
 20
0
 30
0
210
0
220
0
230
1
  2
ansi31
 70
    0
 71
    0
 91
    1
 92
    0
 93
  213
 72
    2
 10
-4.845000000000027
 20
-22.89675252335966
 40
2.6
 50
0
 51
360
 73
    1
 72
    1
 10
-39.76401352514244
 20
19.67465236117451
 11
-38.45667738392757
 21
34.61757283255067
 72
    1
 10
-38.45667738392757
 20
34.61757283255067
 11
-23.51375691255137
 21
33.3102366913358
 72
    1
 10
-23.51375691255137
 20
33.3102366913358
 11
-24.82109305376627
 21
18.36731621995961
 72
    1
 10
-24.82109305376627
 20
18.36731621995961
 11
-39.76401352514244
 21
19.67465236117451
 72
    1
 10
-58.69171278888562
 20
21.33061147338001
 11
-57.38437664767075
 21
36.27353194475617
 72
    1
 10
-57.38437664767075
 20
36.27353194475617
 11
-42.44145617629455
 21
34.9661958035413
 72
    1
 10
-42.44145617629455
 20
34.9661958035413
 11
-43.74879231750944
 21
20.02327533216511
 72
    1
 10
-43.74879231750944
 20
20.02327533216511
 11
-58.69171278888562
 21
21.33061147338001
 72
    1
 10
-77.61941205262877
 20
22.98657058558553
 11
-76.31207591141391
 21
37.92949105696169
 72
    1
 10
-76.31207591141391
 20
37.92949105696169
 11
-61.36915544003772
 21
36.62215491574682
 72
    1
 10
-61.36915544003772
 20
36.62215491574682
 11
-62.67649158125261
 21
21.67923444437064
 72
    1
 10
-62.67649158125261
 20
21.67923444437064
 11
-77.61941205262877
 21
22.98657058558553
 72
    1
 10
-81.60419084499577
 20
23.33519355657614
 11
-96.54711131637194
 21
24.64252969779103
 72
    1
 10
-96.54711131637194
 20
24.64252969779103
 11
-96.20791697557159
 21
28.51953875393967
 72
    2
 10
-97.20411167366332
 20
28.60669449668733
 40
1
 50
355.0000000000001
 51
85.00000000000021
 73
    1
 72
    1
 10
-97.11695593091567
 20
29.60288919477907
 11
-99.62665645530305
 21
29.82245953950803
 72
    2
 10
-99.7138121980507
 20
28.82626484141629
 40
1
 50
85.00000000000017
 51
180
 73
    1
 72
    1
 10
-100.7138121980507
 20
28.82626484141629
 11
-100.7138121980507
 21
24.82445178710283
 72
    1
 10
-100.7138121980507
 20
24.82445178710283
 11
-115.7138121980507
 21
24.82445178710283
 72
    1
 10
-115.7138121980507
 20
24.82445178710283
 11
-115.7138121980507
 21
39.82445178710282
 72
    1
 10
-115.7138121980507
 20
39.82445178710282
 11
-100.7138121980507
 21
39.82445178710282
 72
    1
 10
-100.7138121980507
 20
39.82445178710282
 11
-100.7138121980507
 21
36.03390451650299
 72
    2
 10
-99.7138121980507
 20
36.03390451650299
 40
1
 50
180
 51
265.0000000000002
 73
    1
 72
    1
 10
-99.80096794079836
 20
35.03770981841124
 11
-96.66547066898165
 21
34.76338935261082
 72
    2
 10
-96.578314926234
 20
35.75958405070256
 40
1
 50
265.0000000000002
 51
355.0000000000002
 73
    1
 72
    1
 10
-95.58212022814226
 20
35.67242830795491
 11
-95.23977517515708
 21
39.5854501691672
 72
    1
 10
-95.23977517515708
 20
39.5854501691672
 11
-80.29685470378088
 21
38.27811402795232
 72
    1
 10
-80.29685470378088
 20
38.27811402795232
 11
-81.60419084499577
 21
23.33519355657614
 72
    1
 10
-93.47114561264164
 20
5.300840655996478
 11
-92.16380947142677
 21
20.24376112737264
 72
    1
 10
-92.16380947142677
 20
20.24376112737264
 11
-77.22088900005058
 21
18.93642498615777
 72
    1
 10
-77.22088900005058
 20
18.93642498615777
 11
-78.52822514126547
 21
3.993504514781584
 72
    1
 10
-78.52822514126547
 20
3.993504514781584
 11
-93.47114561264164
 21
5.300840655996478
 72
    1
 10
-74.54344634889847
 20
3.644881543790977
 11
-73.23611020768361
 21
18.58780201516714
 72
    1
 10
-73.23611020768361
 20
18.58780201516714
 11
-58.29318973630741
 21
17.28046587395227
 72
    1
 10
-58.29318973630741
 20
17.28046587395227
 11
-59.6005258775223
 21
2.337545402576083
 72
    1
 10
-59.6005258775223
 20
2.337545402576083
 11
-74.54344634889847
 21
3.644881543790977
 72
    1
 10
-55.61574708515531
 20
1.988922431585468
 11
-54.30841094394044
 21
16.93184290296163
 72
    1
 10
-54.30841094394044
 20
16.93184290296163
 11
-39.36549047256425
 21
15.62450676174676
 72
    1
 10
-39.36549047256425
 20
15.62450676174676
 11
-40.67282661377914
 21
0.6815862903705749
 72
    1
 10
-40.67282661377914
 20
0.6815862903705749
 11
-55.61574708515531
 21
1.988922431585468
 72
    1
 10
-36.68804782141215
 20
0.3329633193799655
 11
-35.38071168019728
 21
15.27588379075613
 72
    1
 10
-35.38071168019728
 20
15.27588379075613
 11
-21.35824606988994
 21
14.04907701517211
 72
    2
 10
-21.27109032714229
 20
15.04527171326385
 40
1
 50
265.0000000000002
 51
0
 73
    1
 72
    1
 10
-20.27109032714229
 20
15.04527171326385
 11
-20.27109032714229
 21
40.32445178710282
 72
    2
 10
-21.27109032714229
 20
40.32445178710282
 40
1
 50
0
 51
90.0000000000002
 73
    1
 72
    1
 10
-21.27109032714229
 20
41.32445178710282
 11
-119.5799559746544
 21
41.32445178710282
 72
    2
 10
-119.5799559746544
 20
40.32445178710282
 40
1
 50
90
 51
180
 73
    1
 72
    1
 10
-120.5799559746544
 20
40.32445178710282
 11
-120.5799559746544
 21
-40.32445178710282
 72
    2
 10
-119.5799559746544
 20
-40.32445178710282
 40
1
 50
180
 51
269.9999999999992
 73
    1
 72
    1
 10
-119.5799559746544
 20
-41.32445178710282
 11
119.5799559746543
 21
-41.32445178710282
 72
    2
 10
119.5799559746543
 20
-40.32445178710282
 40
1
 50
270
 51
0
 73
    1
 72
    1
 10
120.5799559746543
 20
-40.32445178710282
 11
120.5799559746543
 21
-15.27291607453763
 72
    2
 10
119.5799559746543
 20
-15.27291607453763
 40
1
 50
1.017777498068325e-13
 51
90
 73
    1
 72
    1
 10
119.5799559746543
 20
-14.27291607453763
 11
104.0799559746543
 21
-14.27291607453763
 72
    1
 10
104.0799559746543
 20
-14.27291607453763
 11
104.0799559746543
 21
0.7270839254623542
 72
    1
 10
104.0799559746543
 20
0.7270839254623542
 11
119.5799559746543
 21
0.7270839254623542
 72
    2
 10
119.5799559746543
 20
1.727083925462354
 40
1
 50
270
 51
3.053332494204976e-13
 73
    1
 72
    1
 10
120.5799559746543
 20
1.72708392546236
 11
120.5799559746543
 21
40.32445178710282
 72
    2
 10
119.5799559746543
 20
40.32445178710282
 40
1
 50
0
 51
89.99999999999756
 73
    1
 72
    1
 10
119.5799559746543
 20
41.32445178710282
 11
5.193206399000928
 21
41.32445178710282
 72
    2
 10
5.193206399000944
 20
40.32445178710282
 40
1
 50
90.00000000000091
 51
180
 73
    1
 72
    1
 10
4.193206399000944
 20
40.32445178710282
 11
4.193206399000943
 21
33.55898119895563
 72
    2
 10
5.193206399000943
 20
33.55898119895563
 40
1
 50
180
 51
275
 73
    1
 72
    1
 10
5.280362141748602
 20
32.56278650086388
 11
19.30282775205593
 21
33.7895932764479
 72
    1
 10
19.30282775205593
 20
33.7895932764479
 11
20.61016389327079
 21
18.84667280507173
 72
    1
 10
20.61016389327079
 20
18.84667280507173
 11
5.106050656253283
 21
17.49023865881048
 72
    2
 10
5.193206399000942
 20
16.49404396071873
 40
1
 50
95.00000000000006
 51
180
 73
    1
 72
    1
 10
4.193206399000942
 20
16.49404396071873
 11
4.193206399000939
 21
-4.586172627691568
 72
    2
 10
5.193206399000939
 20
-4.586172627691568
 40
1
 50
179.9999999999999
 51
275
 73
    1
 72
    1
 10
5.280362141748597
 20
-5.582367325783314
 11
17.88282116053114
 21
-4.479795029089804
 72
    1
 10
17.88282116053114
 20
-4.479795029089804
 11
19.19015730174601
 21
-19.42271550046597
 72
    1
 10
19.19015730174601
 20
-19.42271550046597
 11
4.247236830369816
 21
-20.73005164168084
 72
    1
 10
4.247236830369816
 20
-20.73005164168084
 11
3.282230203807063
 21
-9.699975427557012
 72
    2
 10
2.286035505715318
 20
-9.787131170304669
 40
1
 50
4.999999999999893
 51
90
 73
    1
 72
    1
 10
2.286035505715318
 20
-8.787131170304667
 11
-11.97603550571534
 21
-8.787131170304665
 72
    2
 10
-11.97603550571534
 20
-9.787131170304665
 40
1
 50
89.9999999999999
 51
174.9999999999999
 73
    1
 72
    1
 10
-12.97223020380709
 20
-9.699975427557005
 11
-13.93723683036988
 21
-20.73005164168085
 72
    1
 10
-13.93723683036988
 20
-20.73005164168085
 11
-28.88015730174606
 21
-19.42271550046596
 72
    1
 10
-28.88015730174606
 20
-19.42271550046596
 11
-27.57282116053119
 21
-4.479795029089789
 72
    1
 10
-27.57282116053119
 20
-4.479795029089789
 11
-21.35824606988995
 21
-5.02349989815149
 72
    2
 10
-21.27109032714229
 20
-4.027305200059745
 40
1
 50
265
 51
0
 73
    1
 72
    1
 10
-20.27109032714229
 20
-4.027305200059745
 11
-20.27109032714229
 21
-2.019665524973053
 72
    2
 10
-21.27109032714229
 20
-2.019665524973053
 40
1
 50
0
 51
85
 73
    1
 72
    1
 10
-21.18393458439463
 20
-1.023470826881308
 11
-36.68804782141215
 21
0.3329633193799655
 72
    1
 10
-85.66325509297556
 20
-14.45483816384943
 11
-84.35591895176069
 21
0.4880823075267327
 72
    1
 10
-84.35591895176069
 20
0.4880823075267327
 11
-69.41299848038449
 21
-0.819253833688143
 72
    1
 10
-69.41299848038449
 20
-0.819253833688143
 11
-70.72033462159938
 21
-15.76217430506433
 72
    1
 10
-70.72033462159938
 20
-15.76217430506433
 11
-85.66325509297556
 21
-14.45483816384943
 72
    1
 10
-66.7355558292324
 20
-16.11079727605494
 11
-65.42821968801753
 21
-1.167876804678777
 72
    1
 10
-65.42821968801753
 20
-1.167876804678777
 11
-50.48529921664134
 21
-2.475212945893652
 72
    1
 10
-50.48529921664134
 20
-2.475212945893652
 11
-51.79263535785623
 21
-17.41813341726984
 72
    1
 10
-51.79263535785623
 20
-17.41813341726984
 11
-66.7355558292324
 21
-16.11079727605494
 72
    1
 10
-47.80785656548923
 20
-17.76675638826045
 11
-46.50052042427436
 21
-2.823835916884285
 72
    1
 10
-46.50052042427436
 20
-2.823835916884285
 11
-31.55759995289817
 21
-4.13117205809916
 72
    1
 10
-31.55759995289817
 20
-4.13117205809916
 11
-32.86493609411306
 21
-19.07409252947534
 72
    1
 10
-32.86493609411306
 20
-19.07409252947534
 11
-47.80785656548923
 21
-17.76675638826045
 72
    1
 10
-43.61117182640572
 20
-37.20649564064611
 11
-42.30383568519085
 21
-22.26357516926994
 72
    1
 10
-42.30383568519085
 20
-22.26357516926994
 11
-27.36091521381465
 21
-23.57091131048482
 72
    1
 10
-27.36091521381465
 20
-23.57091131048482
 11
-28.66825135502954
 21
-38.513831781861
 72
    1
 10
-28.66825135502954
 20
-38.513831781861
 11
-43.61117182640572
 21
-37.20649564064611
 72
    1
 10
-73.12343975737369
 20
-34.62450676174673
 11
-71.81610361615883
 21
-19.68158629037057
 72
    1
 10
-71.81610361615883
 20
-19.68158629037057
 11
-56.87318314478263
 21
-20.98892243158544
 72
    1
 10
-56.87318314478263
 20
-20.98892243158544
 11
-58.18051928599752
 21
-35.93184290296163
 72
    1
 10
-58.18051928599752
 20
-35.93184290296163
 11
-73.12343975737369
 21
-34.62450676174673
 72
    1
 10
-115.0128464943205
 20
20.48276274530829
 11
-100.0128464943205
 21
20.48276274530829
 72
    1
 10
-100.0128464943205
 20
20.48276274530829
 11
-100.0128464943205
 21
5.482762745308307
 72
    1
 10
-100.0128464943205
 20
5.482762745308307
 11
-115.0128464943205
 21
5.482762745308303
 72
    1
 10
-115.0128464943205
 20
5.482762745308303
 11
-115.0128464943205
 21
20.48276274530829
 72
    1
 10
-111.9549559746544
 20
0.7270839254623631
 11
-96.9549559746544
 21
0.7270839254623631
 72
    1
 10
-96.9549559746544
 20
0.7270839254623631
 11
-96.9549559746544
 21
-14.27291607453762
 72
    1
 10
-96.9549559746544
 20
-14.27291607453762
 11
-111.9549559746544
 21
-14.27291607453762
 72
    1
 10
-111.9549559746544
 20
-14.27291607453762
 11
-111.9549559746544
 21
0.7270839254623631
 72
    1
 10
-115.0128464943205
 20
-18.27291607453763
 11
-100.0128464943205
 21
-18.27291607453763
 72
    1
 10
-100.0128464943205
 20
-18.27291607453763
 11
-100.0128464943205
 21
-22.20056258481013
 72
    2
 10
-99.0128464943205
 20
-22.20056258481013
 40
1
 50
180
 51
270
 73
    1
 72
    1
 10
-99.0128464943205
 20
-23.20056258481013
 11
-93.19295524954333
 21
-23.20056258481013
 72
    2
 10
-93.19295524954333
 20
-22.20056258481013
 40
1
 50
270
 51
356.7100270105976
 73
    1
 72
    1
 10
-92.19460337426216
 20
-22.25795189672934
 11
-91.97601432866878
 21
-18.45534865431223
 72
    1
 10
-91.97601432866878
 20
-18.45534865431223
 11
-77.00073619945113
 21
-19.31618833310033
 72
    1
 10
-77.00073619945113
 20
-19.31618833310033
 11
-77.86157587823925
 21
-34.29146646231794
 72
    1
 10
-77.86157587823925
 20
-34.29146646231794
 11
-92.83685400745689
 21
-33.43062678352984
 72
    1
 10
-92.83685400745689
 20
-33.43062678352984
 11
-92.60848855447672
 21
-29.45795189672934
 72
    2
 10
-93.6068404297579
 20
-29.40056258481013
 40
1
 50
356.7100270105978
 51
90
 73
    1
 72
    1
 10
-93.6068404297579
 20
-28.40056258481013
 11
-99.0128464943205
 21
-28.40056258481013
 72
    2
 10
-99.0128464943205
 20
-29.40056258481013
 40
1
 50
90
 51
180
 73
    1
 72
    1
 10
-100.0128464943205
 20
-29.40056258481013
 11
-100.0128464943205
 21
-33.27291607453761
 72
    1
 10
-100.0128464943205
 20
-33.27291607453761
 11
-115.0128464943205
 21
-33.27291607453762
 72
    1
 10
-115.0128464943205
 20
-33.27291607453762
 11
-115.0128464943205
 21
-18.27291607453763
 72
    1
 10
99.7278464943204
 20
-18.27291607453764
 11
114.7278464943204
 21
-18.27291607453764
 72
    1
 10
114.7278464943204
 20
-18.27291607453764
 11
114.7278464943204
 21
-33.27291607453762
 72
    1
 10
114.7278464943204
 20
-33.27291607453762
 11
99.7278464943204
 21
-33.27291607453763
 72
    1
 10
99.7278464943204
 20
-33.27291607453763
 11
99.7278464943204
 21
-29.38823887692423
 72
    2
 10
98.7278464943204
 20
-29.38823887692423
 40
1
 50
0
 51
90
 73
    1
 72
    1
 10
98.7278464943204
 20
-28.38823887692423
 11
88.6804508757975
 21
-28.38823887692423
 72
    2
 10
88.6804508757975
 20
-29.38823887692423
 40
1
 50
90
 51
182.2585145328268
 73
    1
 72
    1
 10
87.68122768485921
 20
-29.42764718431102
 11
87.84435088395001
 21
-33.5637416862088
 72
    1
 10
87.84435088395001
 20
-33.5637416862088
 11
72.85600301987559
 21
-34.15486629701056
 72
    1
 10
72.85600301987559
 20
-34.15486629701056
 11
72.26487840907382
 21
-19.16651843293615
 72
    1
 10
72.26487840907382
 20
-19.16651843293615
 11
87.25322627314824
 21
-18.57539382213439
 72
    1
 10
87.25322627314824
 20
-18.57539382213439
 11
87.39726728866543
 21
-22.22764718431131
 72
    2
 10
88.39649047960373
 20
-22.18823887692453
 40
1
 50
182.2585145328266
 51
270.0000000000016
 73
    1
 72
    1
 10
88.39649047960376
 20
-23.18823887692453
 11
98.7278464943204
 21
-23.18823887692423
 72
    2
 10
98.7278464943204
 20
-22.18823887692423
 40
1
 50
270
 51
0
 73
    1
 72
    1
 10
99.7278464943204
 20
-22.18823887692423
 11
99.7278464943204
 21
-18.27291607453764
 72
    1
 10
95.07284649432042
 20
20.48276274530832
 11
110.0728464943204
 21
20.48276274530832
 72
    1
 10
110.0728464943204
 20
20.48276274530832
 11
110.0728464943204
 21
5.482762745308339
 72
    1
 10
110.0728464943204
 20
5.482762745308339
 11
95.07284649432042
 21
5.482762745308335
 72
    1
 10
95.07284649432042
 20
5.482762745308335
 11
95.07284649432042
 21
20.48276274530832
 72
    1
 10
100.517417658997
 20
39.48276274530827
 11
115.517417658997
 21
39.48276274530827
 72
    1
 10
115.517417658997
 20
39.48276274530827
 11
115.517417658997
 21
24.48276274530829
 72
    1
 10
115.517417658997
 20
24.48276274530829
 11
100.517417658997
 21
24.48276274530829
 72
    1
 10
100.517417658997
 20
24.48276274530829
 11
100.517417658997
 21
28.38276269583457
 72
    2
 10
99.517417658997
 20
28.38276269583457
 40
1
 50
0
 51
90
 73
    1
 72
    1
 10
99.517417658997
 20
29.38276269583456
 11
97.51741765899696
 21
29.38276269583456
 72
    2
 10
97.51741765899696
 20
28.38276269583456
 40
1
 50
90
 51
180
 73
    1
 72
    1
 10
96.51741765899696
 20
28.38276269583456
 11
96.51741765899696
 21
24.48276274530829
 72
    1
 10
96.51741765899696
 20
24.48276274530829
 11
81.51741765899696
 21
24.48276274530829
 72
    1
 10
81.51741765899696
 20
24.48276274530829
 11
81.51741765899696
 21
39.48276274530827
 72
    1
 10
81.51741765899696
 20
39.48276274530827
 11
96.51741765899696
 21
39.48276274530827
 72
    1
 10
96.51741765899696
 20
39.48276274530827
 11
96.51741765899696
 21
35.58276274530847
 72
    2
 10
97.51741765899696
 20
35.58276274530847
 40
1
 50
180
 51
270
 73
    1
 72
    1
 10
97.51741765899696
 20
34.58276274530847
 11
99.517417658997
 21
34.58276274530847
 72
    2
 10
99.517417658997
 20
35.58276274530847
 40
1
 50
270
 51
0
 73
    1
 72
    1
 10
100.517417658997
 20
35.58276274530847
 11
100.517417658997
 21
39.48276274530827
 72
    1
 10
61.14300507190927
 20
37.45013447184954
 11
76.08592554328544
 21
38.75747061306441
 72
    1
 10
76.08592554328544
 20
38.75747061306441
 11
77.3932616845003
 21
23.81455014168824
 72
    1
 10
77.3932616845003
 20
23.81455014168824
 11
62.45034121312411
 21
22.50721400047336
 72
    1
 10
62.45034121312411
 20
22.50721400047336
 11
61.14300507190927
 21
37.45013447184954
 72
    1
 10
42.21530580816609
 20
35.79417535964403
 11
57.15822627954226
 21
37.1015115008589
 72
    1
 10
57.15822627954226
 20
37.1015115008589
 11
58.46556242075712
 21
22.15859102948274
 72
    1
 10
58.46556242075712
 20
22.15859102948274
 11
43.52264194938093
 21
20.85125488826786
 72
    1
 10
43.52264194938093
 20
20.85125488826786
 11
42.21530580816609
 21
35.79417535964403
 72
    1
 10
67.53088900005059
 20
18.93642498615781
 11
82.47380947142676
 21
20.24376112737268
 72
    1
 10
82.47380947142676
 20
20.24376112737268
 11
83.78114561264161
 21
5.300840655996514
 72
    1
 10
83.78114561264161
 20
5.300840655996514
 11
68.83822514126543
 21
3.993504514781635
 72
    1
 10
68.83822514126543
 20
3.993504514781635
 11
67.53088900005059
 21
18.93642498615781
 72
    1
 10
59.72299848038448
 20
-0.8192538336881743
 11
74.66591895176066
 21
0.4880823075266942
 72
    1
 10
74.66591895176066
 20
0.4880823075266942
 11
75.97325509297551
 21
-14.45483816384947
 72
    1
 10
75.97325509297551
 20
-14.45483816384947
 11
61.03033462159932
 21
-15.76217430506435
 72
    1
 10
61.03033462159932
 20
-15.76217430506435
 11
59.72299848038448
 21
-0.8192538336881743
 72
    1
 10
40.7952992166413
 20
-2.475212945893674
 11
55.73821968801747
 21
-1.167876804678805
 72
    1
 10
55.73821968801747
 20
-1.167876804678805
 11
57.04555582923233
 21
-16.11079727605497
 72
    1
 10
57.04555582923233
 20
-16.11079727605497
 11
42.10263535785614
 21
-17.41813341726985
 72
    1
 10
42.10263535785614
 20
-17.41813341726985
 11
40.7952992166413
 21
-2.475212945893674
 72
    1
 10
48.6031897363074
 20
17.28046587395226
 11
63.54611020768357
 21
18.58780201516712
 72
    1
 10
63.54611020768357
 20
18.58780201516712
 11
64.85344634889843
 21
3.644881543790961
 72
    1
 10
64.85344634889843
 20
3.644881543790961
 11
49.91052587752224
 21
2.337545402576082
 72
    1
 10
49.91052587752224
 20
2.337545402576082
 11
48.6031897363074
 21
17.28046587395226
 72
    1
 10
29.67549047256422
 20
15.62450676174674
 11
44.61841094394039
 21
16.93184290296161
 72
    1
 10
44.61841094394039
 20
16.93184290296161
 11
45.92574708515525
 21
1.988922431585451
 72
    1
 10
45.92574708515525
 20
1.988922431585451
 11
30.98282661377906
 21
0.6815862903705716
 72
    1
 10
30.98282661377906
 20
0.6815862903705716
 11
29.67549047256422
 21
15.62450676174674
 72
    1
 10
23.28760654442294
 20
34.13821624743854
 11
38.23052701579911
 21
35.44555238865341
 72
    1
 10
38.23052701579911
 20
35.44555238865341
 11
39.53786315701397
 21
20.50263191727725
 72
    1
 10
39.53786315701397
 20
20.50263191727725
 11
24.59494268563778
 21
19.19529577606237
 72
    1
 10
24.59494268563778
 20
19.19529577606237
 11
23.28760654442294
 21
34.13821624743854
 72
    1
 10
10.74779120882107
 20
13.96854764954124
 11
25.69071168019724
 21
15.27588379075611
 72
    1
 10
25.69071168019724
 20
15.27588379075611
 11
26.9980478214121
 21
0.3329633193799495
 72
    1
 10
26.9980478214121
 20
0.3329633193799495
 11
12.05512735003591
 21
-0.9743728218349297
 72
    1
 10
12.05512735003591
 20
-0.9743728218349297
 11
10.74779120882107
 21
13.96854764954124
 72
    1
 10
16.42567184119995
 20
-23.67985598891941
 11
31.36859231257612
 21
-22.37251984770454
 72
    1
 10
31.36859231257612
 20
-22.37251984770454
 11
32.67592845379098
 21
-37.31544031908071
 72
    1
 10
32.67592845379098
 20
-37.31544031908071
 11
17.73300798241479
 21
-38.62277646029558
 72
    1
 10
17.73300798241479
 20
-38.62277646029558
 11
16.42567184119995
 21
-23.67985598891941
 72
    1
 10
47.1831831447826
 20
-20.98892243158545
 11
62.12610361615877
 21
-19.68158629037059
 72
    1
 10
62.12610361615877
 20
-19.68158629037059
 11
63.43343975737363
 21
-34.62450676174674
 72
    1
 10
63.43343975737363
 20
-34.62450676174674
 11
48.49051928599744
 21
-35.93184290296163
 72
    1
 10
48.49051928599744
 20
-35.93184290296163
 11
47.1831831447826
 21
-20.98892243158545
 72
    1
 10
82.60995597465434
 20
0.7270839254623542
 11
97.60995597465434
 21
0.7270839254623542
 72
    1
 10
97.60995597465434
 20
0.7270839254623542
 11
97.60995597465434
 21
-14.27291607453763
 72
    1
 10
97.60995597465434
 20
-14.27291607453763
 11
82.60995597465434
 21
-14.27291607453763
 72
    1
 10
82.60995597465434
 20
-14.27291607453763
 11
82.60995597465434
 21
0.7270839254623542
 97
    0
 75
    0
 76
    1
 52
0
 41
1
 77
    0
 78
    0
 98
    0
  0
ARC
  5
54
100
AcDbEntity
  8
edge
  6
ByLayer
 62
  256
370
   -1
100
AcDbCircle
 10
121.0799559746544
 20
41.82445178710282
 40
1
100
AcDbArc
 50
0
 51
89.99999999999837
  0
LINE
  5
55
100
AcDbEntity
  8
edge
  6
ByLayer
 62
  256
370
   -1
100
AcDbLine
 10
122.0799559746543
 20
41.82445178710282
 11
122.0799559746543
 21
-41.82445178710282
  0
ARC
  5
56
100
AcDbEntity
  8
edge
  6
ByLayer
 62
  256
370
   -1
100
AcDbCircle
 10
121.0799559746543
 20
-41.82445178710282
 40
1
100
AcDbArc
 50
270
 51
0
  0
LINE
  5
57
100
AcDbEntity
  8
edge
  6
ByLayer
 62
  256
370
   -1
100
AcDbLine
 10
121.0799559746543
 20
-42.82445178710282
 11
-121.0799559746544
 21
-42.82445178710282
  0
ARC
  5
58
100
AcDbEntity
  8
edge
  6
ByLayer
 62
  256
370
   -1
100
AcDbCircle
 10
-121.0799559746544
 20
-41.82445178710282
 40
1
100
AcDbArc
 50
180
 51
270
  0
LINE
  5
59
100
AcDbEntity
  8
edge
  6
ByLayer
 62
  256
370
   -1
100
AcDbLine
 10
-122.0799559746544
 20
-41.82445178710282
 11
-122.0799559746544
 21
41.82445178710282
  0
LINE
  5
5A
100
AcDbEntity
  8
edge
  6
ByLayer
 62
  256
370
   -1
100
AcDbLine
 10
-121.0799559746544
 20
42.82445178710282
 11
121.0799559746544
 21
42.82445178710282
  0
ARC
  5
5B
100
AcDbEntity
  8
edge
  6
ByLayer
 62
  256
370
   -1
100
AcDbCircle
 10
-121.0799559746544
 20
41.82445178710282
 40
1
100
AcDbArc
 50
90
 51
180
  0
LINE
  5
5C
100
AcDbEntity
  8
mx
  6
ByLayer
 62
  256
370
   -1
100
AcDbLine
 10
-111.4549559746544
 20
0.2270839254623631
 11
-97.45495597465438
 21
0.2270839254623631
  0
LINE
  5
5D
100
AcDbEntity
  8
mx
  6
ByLayer
 62
  256
370
   -1
100
AcDbLine
 10
-97.45495597465438
 20
0.2270839254623631
 11
-97.45495597465438
 21
-13.77291607453764
  0
LINE
  5
5E
100
AcDbEntity
  8
mx
  6
ByLayer
 62
  256
370
   -1
100
AcDbLine
 10
-97.45495597465438
 20
-13.77291607453764
 11
-111.4549559746544
 21
-13.77291607453764
  0
LINE
  5
5F
100
AcDbEntity
  8
mx
  6
ByLayer
 62
  256
370
   -1
100
AcDbLine
 10
-111.4549559746544
 20
-13.77291607453764
 11
-111.4549559746544
 21
0.2270839254623631
  0
LINE
  5
60
100
AcDbEntity
  8
mx
  6
ByLayer
 62
  256
370
   -1
100
AcDbLine
 10
-114.5128464943205
 20
-18.77291607453763
 11
-100.5128464943205
 21
-18.77291607453764
  0
LINE
  5
61
100
AcDbEntity
  8
mx
  6
ByLayer
 62
  256
370
   -1
100
AcDbLine
 10
-100.5128464943205
 20
-18.77291607453764
 11
-100.5128464943205
 21
-32.77291607453763
  0
LINE
  5
62
100
AcDbEntity
  8
mx
  6
ByLayer
 62
  256
370
   -1
100
AcDbLine
 10
-100.5128464943205
 20
-32.77291607453763
 11
-114.5128464943205
 21
-32.77291607453763
  0
LINE
  5
63
100
AcDbEntity
  8
mx
  6
ByLayer
 62
  256
370
   -1
100
AcDbLine
 10
-114.5128464943205
 20
-32.77291607453763
 11
-114.5128464943205
 21
-18.77291607453763
  0
LINE
  5
64
100
AcDbEntity
  8
mx
  6
ByLayer
 62
  256
370
   -1
100
AcDbLine
 10
-114.5128464943205
 20
19.98276274530829
 11
-100.5128464943205
 21
19.98276274530829
  0
LINE
  5
65
100
AcDbEntity
  8
mx
  6
ByLayer
 62
  256
370
   -1
100
AcDbLine
 10
-100.5128464943205
 20
19.98276274530829
 11
-100.5128464943205
 21
5.982762745308293
  0
LINE
  5
66
100
AcDbEntity
  8
mx
  6
ByLayer
 62
  256
370
   -1
100
AcDbLine
 10
-100.5128464943205
 20
5.982762745308293
 11
-114.5128464943205
 21
5.982762745308293
  0
LINE
  5
67
100
AcDbEntity
  8
mx
  6
ByLayer
 62
  256
370
   -1
100
AcDbLine
 10
-114.5128464943205
 20
5.982762745308293
 11
-114.5128464943205
 21
19.98276274530829
  0
LINE
  5
68
100
AcDbEntity
  8
mx
  6
ByLayer
 62
  256
370
   -1
100
AcDbLine
 10
-41.84931620751882
 20
-22.80525038968965
 11
-27.90259043423438
 21
-24.02543078815686
  0
LINE
  5
69
100
AcDbEntity
  8
mx
  6
ByLayer
 62
  256
370
   -1
100
AcDbLine
 10
-27.90259043423438
 20
-24.02543078815686
 11
-29.12277083270159
 21
-37.9721565614413
  0
LINE
  5
6A
100
AcDbEntity
  8
mx
  6
ByLayer
 62
  256
370
   -1
100
AcDbLine
 10
-29.12277083270159
 20
-37.9721565614413
 11
-43.06949660598604
 21
-36.75197616297407
  0
LINE
  5
6B
100
AcDbEntity
  8
mx
  6
ByLayer
 62
  256
370
   -1
100
AcDbLine
 10
-43.06949660598604
 20
-36.75197616297407
 11
-41.84931620751882
 21
-22.80525038968965
  0
LINE
  5
6C
100
AcDbEntity
  8
mx
  6
ByLayer
 62
  256
370
   -1
100
AcDbLine
 10
-71.36158413848679
 20
-20.22326151079027
 11
-57.41485836520233
 21
-21.44344190925749
  0
LINE
  5
6D
100
AcDbEntity
  8
mx
  6
ByLayer
 62
  256
370
   -1
100
AcDbLine
 10
-57.41485836520233
 20
-21.44344190925749
 11
-58.63503876366957
 21
-35.39016768254191
  0
LINE
  5
6E
100
AcDbEntity
  8
mx
  6
ByLayer
 62
  256
370
   -1
100
AcDbLine
 10
-58.63503876366957
 20
-35.39016768254191
 11
-72.581764536954
 21
-34.16998728407469
  0
LINE
  5
6F
100
AcDbEntity
  8
mx
  6
ByLayer
 62
  256
370
   -1
100
AcDbLine
 10
-72.581764536954
 20
-34.16998728407469
 11
-71.36158413848679
 21
-20.22326151079028
  0
LINE
  5
70
100
AcDbEntity
  8
mx
  6
ByLayer
 62
  256
370
   -1
100
AcDbLine
 10
-91.50553304698779
 20
-18.98321924791242
 11
-77.52860679305132
 21
-19.78666961478131
  0
LINE
  5
71
100
AcDbEntity
  8
mx
  6
ByLayer
 62
  256
370
   -1
100
AcDbLine
 10
-77.52860679305132
 20
-19.78666961478131
 11
-78.33205715992023
 21
-33.76359586871776
  0
LINE
  5
72
100
AcDbEntity
  8
mx
  6
ByLayer
 62
  256
370
   -1
100
AcDbLine
 10
-78.33205715992023
 20
-33.76359586871776
 11
-92.30898341385671
 21
-32.96014550184886
  0
LINE
  5
73
100
AcDbEntity
  8
mx
  6
ByLayer
 62
  256
370
   -1
100
AcDbLine
 10
-92.30898341385671
 20
-32.96014550184886
 11
-91.50553304698779
 21
-18.98321924791241
  0
LINE
  5
74
100
AcDbEntity
  8
mx
  6
ByLayer
 62
  256
370
   -1
100
AcDbLine
 10
-83.90139947408866
 20
-0.05359291289297907
 11
-69.95467370080419
 21
-1.273773311360197
  0
LINE
  5
75
100
AcDbEntity
  8
mx
  6
ByLayer
 62
  256
370
   -1
100
AcDbLine
 10
-69.95467370080419
 20
-1.273773311360197
 11
-71.17485409927144
 21
-15.22049908464462
  0
LINE
  5
76
100
AcDbEntity
  8
mx
  6
ByLayer
 62
  256
370
   -1
100
AcDbLine
 10
-71.17485409927144
 20
-15.22049908464462
 11
-85.12157987255587
 21
-14.0003186861774
  0
LINE
  5
77
100
AcDbEntity
  8
mx
  6
ByLayer
 62
  256
370
   -1
100
AcDbLine
 10
-85.12157987255587
 20
-14.0003186861774
 11
-83.90139947408866
 21
-0.05359291289298618
  0
LINE
  5
78
100
AcDbEntity
  8
mx
  6
ByLayer
 62
  256
370
   -1
100
AcDbLine
 10
-64.9737002103455
 20
-1.709552025098482
 11
-51.02697443706103
 21
-2.929732423565699
  0
LINE
  5
79
100
AcDbEntity
  8
mx
  6
ByLayer
 62
  256
370
   -1
100
AcDbLine
 10
-51.02697443706103
 20
-2.929732423565699
 11
-52.24715483552827
 21
-16.87645819685012
  0
LINE
  5
7A
100
AcDbEntity
  8
mx
  6
ByLayer
 62
  256
370
   -1
100
AcDbLine
 10
-52.24715483552827
 20
-16.87645819685012
 11
-66.19388060881269
 21
-15.6562777983829
  0
LINE
  5
7B
100
AcDbEntity
  8
mx
  6
ByLayer
 62
  256
370
   -1
100
AcDbLine
 10
-66.19388060881269
 20
-15.6562777983829
 11
-64.9737002103455
 21
-1.709552025098489
  0
LINE
  5
7C
100
AcDbEntity
  8
mx
  6
ByLayer
 62
  256
370
   -1
100
AcDbLine
 10
-46.04600094660233
 20
-3.36551113730399
 11
-32.09927517331786
 21
-4.585691535771208
  0
LINE
  5
7D
100
AcDbEntity
  8
mx
  6
ByLayer
 62
  256
370
   -1
100
AcDbLine
 10
-32.09927517331786
 20
-4.585691535771208
 11
-33.31945557178511
 21
-18.53241730905563
  0
LINE
  5
7E
100
AcDbEntity
  8
mx
  6
ByLayer
 62
  256
370
   -1
100
AcDbLine
 10
-33.31945557178511
 20
-18.53241730905563
 11
-47.26618134506953
 21
-17.31223691058841
  0
LINE
  5
7F
100
AcDbEntity
  8
mx
  6
ByLayer
 62
  256
370
   -1
100
AcDbLine
 10
-47.26618134506953
 20
-17.31223691058841
 11
-46.04600094660233
 21
-3.365511137303997
  0
LINE
  5
80
100
AcDbEntity
  8
mx
  6
ByLayer
 62
  256
370
   -1
100
AcDbLine
 10
-27.11830168285915
 20
-5.021470249509495
 11
-13.17157590957469
 21
-6.241650647976712
  0
LINE
  5
81
100
AcDbEntity
  8
mx
  6
ByLayer
 62
  256
370
   -1
100
AcDbLine
 10
-13.17157590957469
 20
-6.241650647976712
 11
-14.39175630804193
 21
-20.18837642126114
  0
LINE
  5
82
100
AcDbEntity
  8
mx
  6
ByLayer
 62
  256
370
   -1
100
AcDbLine
 10
-14.39175630804193
 20
-20.18837642126114
 11
-28.33848208132636
 21
-18.96819602279392
  0
LINE
  5
83
100
AcDbEntity
  8
mx
  6
ByLayer
 62
  256
370
   -1
100
AcDbLine
 10
-28.33848208132636
 20
-18.96819602279392
 11
-27.11830168285915
 21
-5.021470249509502
  0
LINE
  5
84
100
AcDbEntity
  8
mx
  6
ByLayer
 62
  256
370
   -1
100
AcDbLine
 10
-115.2138121980507
 20
39.32445178710282
 11
-101.2138121980507
 21
39.32445178710282
  0
LINE
  5
85
100
AcDbEntity
  8
mx
  6
ByLayer
 62
  256
370
   -1
100
AcDbLine
 10
-101.2138121980507
 20
39.32445178710282
 11
-101.2138121980507
 21
25.32445178710283
  0
LINE
  5
86
100
AcDbEntity
  8
mx
  6
ByLayer
 62
  256
370
   -1
100
AcDbLine
 10
-101.2138121980507
 20
25.32445178710283
 11
-115.2138121980507
 21
25.32445178710283
  0
LINE
  5
87
100
AcDbEntity
  8
mx
  6
ByLayer
 62
  256
370
   -1
100
AcDbLine
 10
-115.2138121980507
 20
25.32445178710283
 11
-115.2138121980507
 21
39.32445178710282
  0
LINE
  5
88
100
AcDbEntity
  8
mx
  6
ByLayer
 62
  256
370
   -1
100
AcDbLine
 10
-94.78525569748504
 20
39.04377494874748
 11
-80.83852992420057
 21
37.82359455028026
  0
LINE
  5
89
100
AcDbEntity
  8
mx
  6
ByLayer
 62
  256
370
   -1
100
AcDbLine
 10
-80.83852992420057
 20
37.82359455028026
 11
-82.05871032266782
 21
23.87686877699584
  0
LINE
  5
8A
100
AcDbEntity
  8
mx
  6
ByLayer
 62
  256
370
   -1
100
AcDbLine
 10
-82.05871032266782
 20
23.87686877699584
 11
-96.00543609595225
 21
25.09704917546306
  0
LINE
  5
8B
100
AcDbEntity
  8
mx
  6
ByLayer
 62
  256
370
   -1
100
AcDbLine
 10
-96.00543609595225
 20
25.09704917546306
 11
-94.78525569748504
 21
39.04377494874747
  0
LINE
  5
8C
100
AcDbEntity
  8
mx
  6
ByLayer
 62
  256
370
   -1
100
AcDbLine
 10
-75.85755643374188
 20
37.38781583654198
 11
-61.91083066045741
 21
36.16763543807475
  0
LINE
  5
8D
100
AcDbEntity
  8
mx
  6
ByLayer
 62
  256
370
   -1
100
AcDbLine
 10
-61.91083066045741
 20
36.16763543807475
 11
-63.13101105892466
 21
22.22090966479033
  0
LINE
  5
8E
100
AcDbEntity
  8
mx
  6
ByLayer
 62
  256
370
   -1
100
AcDbLine
 10
-63.13101105892466
 20
22.22090966479033
 11
-77.07773683220908
 21
23.44109006325755
  0
LINE
  5
8F
100
AcDbEntity
  8
mx
  6
ByLayer
 62
  256
370
   -1
100
AcDbLine
 10
-77.07773683220908
 20
23.44109006325755
 11
-75.85755643374188
 21
37.38781583654197
  0
LINE
  5
90
100
AcDbEntity
  8
mx
  6
ByLayer
 62
  256
370
   -1
100
AcDbLine
 10
-56.92985716999871
 20
35.73185672433647
 11
-42.98313139671424
 21
34.51167632586925
  0
LINE
  5
91
100
AcDbEntity
  8
mx
  6
ByLayer
 62
  256
370
   -1
100
AcDbLine
 10
-42.98313139671424
 20
34.51167632586925
 11
-44.20331179518148
 21
20.56495055258483
  0
LINE
  5
92
100
AcDbEntity
  8
mx
  6
ByLayer
 62
  256
370
   -1
100
AcDbLine
 10
-44.20331179518148
 20
20.56495055258483
 11
-58.15003756846591
 21
21.78513095105205
  0
LINE
  5
93
100
AcDbEntity
  8
mx
  6
ByLayer
 62
  256
370
   -1
100
AcDbLine
 10
-58.15003756846591
 20
21.78513095105205
 11
-56.92985716999871
 21
35.73185672433646
  0
LINE
  5
94
100
AcDbEntity
  8
mx
  6
ByLayer
 62
  256
370
   -1
100
AcDbLine
 10
-72.78159073001157
 20
18.04612679474744
 11
-58.83486495672711
 21
16.82594639628022
  0
LINE
  5
95
100
AcDbEntity
  8
mx
  6
ByLayer
 62
  256
370
   -1
100
AcDbLine
 10
-58.83486495672711
 20
16.82594639628022
 11
-60.05504535519435
 21
2.879220622995794
  0
LINE
  5
96
100
AcDbEntity
  8
mx
  6
ByLayer
 62
  256
370
   -1
100
AcDbLine
 10
-60.05504535519435
 20
2.879220622995794
 11
-74.00177112847878
 21
4.099401021463015
  0
LINE
  5
97
100
AcDbEntity
  8
mx
  6
ByLayer
 62
  256
370
   -1
100
AcDbLine
 10
-74.00177112847878
 20
4.099401021463015
 11
-72.78159073001157
 21
18.04612679474743
  0
LINE
  5
98
100
AcDbEntity
  8
mx
  6
ByLayer
 62
  256
370
   -1
100
AcDbLine
 10
-91.70928999375474
 20
19.70208590695294
 11
-77.76256422047027
 21
18.48190550848572
  0
LINE
  5
99
100
AcDbEntity
  8
mx
  6
ByLayer
 62
  256
370
   -1
100
AcDbLine
 10
-77.76256422047027
 20
18.48190550848572
 11
-78.98274461893752
 21
4.535179735201298
  0
LINE
  5
9A
100
AcDbEntity
  8
mx
  6
ByLayer
 62
  256
370
   -1
100
AcDbLine
 10
-78.98274461893752
 20
4.535179735201298
 11
-92.92947039222194
 21
5.755360133668519
  0
LINE
  5
9B
100
AcDbEntity
  8
mx
  6
ByLayer
 62
  256
370
   -1
100
AcDbLine
 10
-92.92947039222194
 20
5.755360133668519
 11
-91.70928999375474
 21
19.70208590695293
  0
LINE
  5
9C
100
AcDbEntity
  8
mx
  6
ByLayer
 62
  256
370
   -1
100
AcDbLine
 10
-53.85389146626841
 20
16.39016768254193
 11
-39.90716569298395
 21
15.16998728407471
  0
LINE
  5
9D
100
AcDbEntity
  8
mx
  6
ByLayer
 62
  256
370
   -1
100
AcDbLine
 10
-39.90716569298395
 20
15.16998728407471
 11
-41.12734609145119
 21
1.223261510790289
  0
LINE
  5
9E
100
AcDbEntity
  8
mx
  6
ByLayer
 62
  256
370
   -1
100
AcDbLine
 10
-41.12734609145119
 20
1.223261510790289
 11
-55.07407186473562
 21
2.44344190925751
  0
LINE
  5
9F
100
AcDbEntity
  8
mx
  6
ByLayer
 62
  256
370
   -1
100
AcDbLine
 10
-55.07407186473562
 20
2.44344190925751
 11
-53.85389146626841
 21
16.39016768254192
  0
LINE
  5
A0
100
AcDbEntity
  8
mx
  6
ByLayer
 62
  256
370
   -1
100
AcDbLine
 10
-38.00215790625553
 20
34.07589761213097
 11
-24.05543213297107
 21
32.85571721366375
  0
LINE
  5
A1
100
AcDbEntity
  8
mx
  6
ByLayer
 62
  256
370
   -1
100
AcDbLine
 10
-24.05543213297107
 20
32.85571721366375
 11
-25.27561253143831
 21
18.90899144037932
  0
LINE
  5
A2
100
AcDbEntity
  8
mx
  6
ByLayer
 62
  256
370
   -1
100
AcDbLine
 10
-25.27561253143831
 20
18.90899144037932
 11
-39.22233830472274
 21
20.12917183884655
  0
LINE
  5
A3
100
AcDbEntity
  8
mx
  6
ByLayer
 62
  256
370
   -1
100
AcDbLine
 10
-39.22233830472274
 20
20.12917183884655
 11
-38.00215790625553
 21
34.07589761213096
  0
LINE
  5
A4
100
AcDbEntity
  8
mx
  6
ByLayer
 62
  256
370
   -1
100
AcDbLine
 10
-34.92619220252524
 20
14.73420857033642
 11
-20.97946642924078
 21
13.5140281718692
  0
LINE
  5
A5
100
AcDbEntity
  8
mx
  6
ByLayer
 62
  256
370
   -1
100
AcDbLine
 10
-20.97946642924078
 20
13.5140281718692
 11
-22.19964682770802
 21
-0.4326976014152191
  0
LINE
  5
A6
100
AcDbEntity
  8
mx
  6
ByLayer
 62
  256
370
   -1
100
AcDbLine
 10
-22.19964682770802
 20
-0.4326976014152191
 11
-36.14637260099245
 21
0.787482797052002
  0
LINE
  5
A7
100
AcDbEntity
  8
mx
  6
ByLayer
 62
  256
370
   -1
100
AcDbLine
 10
-36.14637260099245
 20
0.787482797052002
 11
-34.92619220252524
 21
14.73420857033642
  0
LINE
  5
A8
100
AcDbEntity
  8
mx
  6
ByLayer
 62
  256
370
   -1
100
AcDbLine
 10
4.901582501099449
 20
32.02773765756099
 11
18.84830827438389
 21
33.2479180560282
  0
LINE
  5
A9
100
AcDbEntity
  8
mx
  6
ByLayer
 62
  256
370
   -1
100
AcDbLine
 10
18.84830827438389
 20
33.2479180560282
 11
20.06848867285109
 21
19.30119228274378
  0
LINE
  5
AA
100
AcDbEntity
  8
mx
  6
ByLayer
 62
  256
370
   -1
100
AcDbLine
 10
20.06848867285109
 20
19.30119228274378
 11
6.121762899566656
 21
18.08101188427656
  0
LINE
  5
AB
100
AcDbEntity
  8
mx
  6
ByLayer
 62
  256
370
   -1
100
AcDbLine
 10
6.121762899566656
 20
18.08101188427656
 11
4.901582501099449
 21
32.02773765756099
  0
LINE
  5
AC
100
AcDbEntity
  8
mx
  6
ByLayer
 62
  256
370
   -1
100
AcDbLine
 10
23.82928176484263
 20
33.6836967697665
 11
37.77600753812706
 21
34.90387716823371
  0
LINE
  5
AD
100
AcDbEntity
  8
mx
  6
ByLayer
 62
  256
370
   -1
100
AcDbLine
 10
37.77600753812706
 20
34.90387716823371
 11
38.99618793659427
 21
20.95715139494929
  0
LINE
  5
AE
100
AcDbEntity
  8
mx
  6
ByLayer
 62
  256
370
   -1
100
AcDbLine
 10
38.99618793659427
 20
20.95715139494929
 11
25.04946216330983
 21
19.73697099648207
  0
LINE
  5
AF
100
AcDbEntity
  8
mx
  6
ByLayer
 62
  256
370
   -1
100
AcDbLine
 10
25.04946216330983
 20
19.73697099648207
 11
23.82928176484263
 21
33.6836967697665
  0
LINE
  5
B0
100
AcDbEntity
  8
mx
  6
ByLayer
 62
  256
370
   -1
100
AcDbLine
 10
42.75698102858576
 20
35.33965588197199
 11
56.7037068018702
 21
36.55983628043921
  0
LINE
  5
B1
100
AcDbEntity
  8
mx
  6
ByLayer
 62
  256
370
   -1
100
AcDbLine
 10
56.7037068018702
 20
36.55983628043921
 11
57.9238872003374
 21
22.61311050715478
  0
LINE
  5
B2
100
AcDbEntity
  8
mx
  6
ByLayer
 62
  256
370
   -1
100
AcDbLine
 10
57.9238872003374
 20
22.61311050715478
 11
43.97716142705297
 21
21.39293010868757
  0
LINE
  5
B3
100
AcDbEntity
  8
mx
  6
ByLayer
 62
  256
370
   -1
100
AcDbLine
 10
43.97716142705297
 20
21.39293010868757
 11
42.75698102858576
 21
35.33965588197199
  0
LINE
  5
B4
100
AcDbEntity
  8
mx
  6
ByLayer
 62
  256
370
   -1
100
AcDbLine
 10
61.68468029232896
 20
36.9956149941775
 11
75.63140606561339
 21
38.21579539264471
  0
LINE
  5
B5
100
AcDbEntity
  8
mx
  6
ByLayer
 62
  256
370
   -1
100
AcDbLine
 10
75.63140606561339
 20
38.21579539264471
 11
76.8515864640806
 21
24.26906961936029
  0
LINE
  5
B6
100
AcDbEntity
  8
mx
  6
ByLayer
 62
  256
370
   -1
100
AcDbLine
 10
76.8515864640806
 20
24.26906961936029
 11
62.90486069079616
 21
23.04888922089307
  0
LINE
  5
B7
100
AcDbEntity
  8
mx
  6
ByLayer
 62
  256
370
   -1
100
AcDbLine
 10
62.90486069079616
 20
23.04888922089307
 11
61.68468029232896
 21
36.9956149941775
  0
LINE
  5
B8
100
AcDbEntity
  8
mx
  6
ByLayer
 62
  256
370
   -1
100
AcDbLine
 10
11.28946642924076
 20
13.5140281718692
 11
25.23619220252519
 21
14.73420857033642
  0
LINE
  5
B9
100
AcDbEntity
  8
mx
  6
ByLayer
 62
  256
370
   -1
100
AcDbLine
 10
25.23619220252519
 20
14.73420857033642
 11
26.4563726009924
 21
0.7874827970519895
  0
LINE
  5
BA
100
AcDbEntity
  8
mx
  6
ByLayer
 62
  256
370
   -1
100
AcDbLine
 10
26.4563726009924
 20
0.7874827970519895
 11
12.50964682770796
 21
-0.4326976014152244
  0
LINE
  5
BB
100
AcDbEntity
  8
mx
  6
ByLayer
 62
  256
370
   -1
100
AcDbLine
 10
12.50964682770796
 20
-0.4326976014152244
 11
11.28946642924076
 21
13.5140281718692
  0
LINE
  5
BC
100
AcDbEntity
  8
mx
  6
ByLayer
 62
  256
370
   -1
100
AcDbLine
 10
30.2171656929839
 20
15.1699872840747
 11
44.16389146626834
 21
16.39016768254192
  0
LINE
  5
BD
100
AcDbEntity
  8
mx
  6
ByLayer
 62
  256
370
   -1
100
AcDbLine
 10
44.16389146626834
 20
16.39016768254192
 11
45.38407186473555
 21
2.443441909257491
  0
LINE
  5
BE
100
AcDbEntity
  8
mx
  6
ByLayer
 62
  256
370
   -1
100
AcDbLine
 10
45.38407186473555
 20
2.443441909257491
 11
31.43734609145111
 21
1.223261510790277
  0
LINE
  5
BF
100
AcDbEntity
  8
mx
  6
ByLayer
 62
  256
370
   -1
100
AcDbLine
 10
31.43734609145111
 20
1.223261510790277
 11
30.2171656929839
 21
15.1699872840747
  0
LINE
  5
C0
100
AcDbEntity
  8
mx
  6
ByLayer
 62
  256
370
   -1
100
AcDbLine
 10
49.14486495672708
 20
16.82594639628022
 11
63.09159073001152
 21
18.04612679474743
  0
LINE
  5
C1
100
AcDbEntity
  8
mx
  6
ByLayer
 62
  256
370
   -1
100
AcDbLine
 10
63.09159073001152
 20
18.04612679474743
 11
64.31177112847872
 21
4.099401021463001
  0
LINE
  5
C2
100
AcDbEntity
  8
mx
  6
ByLayer
 62
  256
370
   -1
100
AcDbLine
 10
64.31177112847872
 20
4.099401021463001
 11
50.36504535519429
 21
2.879220622995787
  0
LINE
  5
C3
100
AcDbEntity
  8
mx
  6
ByLayer
 62
  256
370
   -1
100
AcDbLine
 10
50.36504535519429
 20
2.879220622995787
 11
49.14486495672708
 21
16.82594639628022
  0
LINE
  5
C4
100
AcDbEntity
  8
mx
  6
ByLayer
 62
  256
370
   -1
100
AcDbLine
 10
68.07256422047026
 20
18.48190550848577
 11
82.01928999375468
 21
19.70208590695298
  0
LINE
  5
C5
100
AcDbEntity
  8
mx
  6
ByLayer
 62
  256
370
   -1
100
AcDbLine
 10
82.01928999375468
 20
19.70208590695298
 11
83.23947039222189
 21
5.755360133668553
  0
LINE
  5
C6
100
AcDbEntity
  8
mx
  6
ByLayer
 62
  256
370
   -1
100
AcDbLine
 10
83.23947039222189
 20
5.755360133668553
 11
69.29274461893746
 21
4.535179735201339
  0
LINE
  5
C7
100
AcDbEntity
  8
mx
  6
ByLayer
 62
  256
370
   -1
100
AcDbLine
 10
69.29274461893746
 20
4.535179735201339
 11
68.07256422047026
 21
18.48190550848577
  0
LINE
  5
C8
100
AcDbEntity
  8
mx
  6
ByLayer
 62
  256
370
   -1
100
AcDbLine
 10
3.48157590957466
 20
-6.241650647976714
 11
17.4283016828591
 21
-5.0214702495095
  0
LINE
  5
C9
100
AcDbEntity
  8
mx
  6
ByLayer
 62
  256
370
   -1
100
AcDbLine
 10
17.4283016828591
 20
-5.0214702495095
 11
18.6484820813263
 21
-18.96819602279393
  0
LINE
  5
CA
100
AcDbEntity
  8
mx
  6
ByLayer
 62
  256
370
   -1
100
AcDbLine
 10
18.6484820813263
 20
-18.96819602279393
 11
4.701756308041867
 21
-20.18837642126114
  0
LINE
  5
CB
100
AcDbEntity
  8
mx
  6
ByLayer
 62
  256
370
   -1
100
AcDbLine
 10
4.701756308041867
 20
-20.18837642126114
 11
3.48157590957466
 21
-6.241650647976714
  0
LINE
  5
CC
100
AcDbEntity
  8
mx
  6
ByLayer
 62
  256
370
   -1
100
AcDbLine
 10
22.40927517331783
 20
-4.585691535771209
 11
36.35600094660226
 21
-3.365511137303995
  0
LINE
  5
CD
100
AcDbEntity
  8
mx
  6
ByLayer
 62
  256
370
   -1
100
AcDbLine
 10
36.35600094660226
 20
-3.365511137303995
 11
37.57618134506947
 21
-17.31223691058842
  0
LINE
  5
CE
100
AcDbEntity
  8
mx
  6
ByLayer
 62
  256
370
   -1
100
AcDbLine
 10
37.57618134506947
 20
-17.31223691058842
 11
23.62945557178504
 21
-18.53241730905564
  0
LINE
  5
CF
100
AcDbEntity
  8
mx
  6
ByLayer
 62
  256
370
   -1
100
AcDbLine
 10
23.62945557178504
 20
-18.53241730905564
 11
22.40927517331783
 21
-4.585691535771209
  0
LINE
  5
D0
100
AcDbEntity
  8
mx
  6
ByLayer
 62
  256
370
   -1
100
AcDbLine
 10
41.33697443706098
 20
-2.929732423565714
 11
55.28370021034542
 21
-1.7095520250985
  0
LINE
  5
D1
100
AcDbEntity
  8
mx
  6
ByLayer
 62
  256
370
   -1
100
AcDbLine
 10
55.28370021034542
 20
-1.7095520250985
 11
56.50388060881262
 21
-15.65627779838293
  0
LINE
  5
D2
100
AcDbEntity
  8
mx
  6
ByLayer
 62
  256
370
   -1
100
AcDbLine
 10
56.50388060881262
 20
-15.65627779838293
 11
42.55715483552819
 21
-16.87645819685014
  0
LINE
  5
D3
100
AcDbEntity
  8
mx
  6
ByLayer
 62
  256
370
   -1
100
AcDbLine
 10
42.55715483552819
 20
-16.87645819685014
 11
41.33697443706098
 21
-2.929732423565714
  0
LINE
  5
D4
100
AcDbEntity
  8
mx
  6
ByLayer
 62
  256
370
   -1
100
AcDbLine
 10
60.26467370080416
 20
-1.273773311360209
 11
74.21139947408859
 21
-0.05359291289299506
  0
LINE
  5
D5
100
AcDbEntity
  8
mx
  6
ByLayer
 62
  256
370
   -1
100
AcDbLine
 10
74.21139947408859
 20
-0.05359291289299506
 11
75.4315798725558
 21
-14.00031868617742
  0
LINE
  5
D6
100
AcDbEntity
  8
mx
  6
ByLayer
 62
  256
370
   -1
100
AcDbLine
 10
75.4315798725558
 20
-14.00031868617742
 11
61.48485409927137
 21
-15.22049908464464
  0
LINE
  5
D7
100
AcDbEntity
  8
mx
  6
ByLayer
 62
  256
370
   -1
100
AcDbLine
 10
61.48485409927137
 20
-15.22049908464464
 11
60.26467370080416
 21
-1.273773311360209
  0
LINE
  5
D8
100
AcDbEntity
  8
mx
  6
ByLayer
 62
  256
370
   -1
100
AcDbLine
 10
47.72485836520229
 20
-21.44344190925749
 11
61.67158413848672
 21
-20.22326151079028
  0
LINE
  5
D9
100
AcDbEntity
  8
mx
  6
ByLayer
 62
  256
370
   -1
100
AcDbLine
 10
61.67158413848672
 20
-20.22326151079028
 11
62.89176453695393
 21
-34.16998728407471
  0
LINE
  5
DA
100
AcDbEntity
  8
mx
  6
ByLayer
 62
  256
370
   -1
100
AcDbLine
 10
62.89176453695393
 20
-34.16998728407471
 11
48.94503876366949
 21
-35.39016768254192
  0
LINE
  5
DB
100
AcDbEntity
  8
mx
  6
ByLayer
 62
  256
370
   -1
100
AcDbLine
 10
48.94503876366949
 20
-35.39016768254192
 11
47.72485836520229
 21
-21.44344190925749
  0
LINE
  5
DC
100
AcDbEntity
  8
mx
  6
ByLayer
 62
  256
370
   -1
100
AcDbLine
 10
16.96734706161963
 20
-24.13437546659146
 11
30.91407283490407
 21
-22.91419506812424
  0
LINE
  5
DD
100
AcDbEntity
  8
mx
  6
ByLayer
 62
  256
370
   -1
100
AcDbLine
 10
30.91407283490407
 20
-22.91419506812424
 11
32.13425323337128
 21
-36.86092084140867
  0
LINE
  5
DE
100
AcDbEntity
  8
mx
  6
ByLayer
 62
  256
370
   -1
100
AcDbLine
 10
32.13425323337128
 20
-36.86092084140867
 11
18.18752746008684
 21
-38.08110123987588
  0
LINE
  5
DF
100
AcDbEntity
  8
mx
  6
ByLayer
 62
  256
370
   -1
100
AcDbLine
 10
18.18752746008684
 20
-38.08110123987588
 11
16.96734706161963
 21
-24.13437546659146
  0
LINE
  5
E0
100
AcDbEntity
  8
mx
  6
ByLayer
 62
  256
370
   -1
100
AcDbLine
 10
100.2278464943204
 20
-18.77291607453764
 11
114.2278464943204
 21
-18.77291607453764
  0
LINE
  5
E1
100
AcDbEntity
  8
mx
  6
ByLayer
 62
  256
370
   -1
100
AcDbLine
 10
114.2278464943204
 20
-18.77291607453764
 11
114.2278464943204
 21
-32.77291607453764
  0
LINE
  5
E2
100
AcDbEntity
  8
mx
  6
ByLayer
 62
  256
370
   -1
100
AcDbLine
 10
114.2278464943204
 20
-32.77291607453764
 11
100.2278464943204
 21
-32.77291607453764
  0
LINE
  5
E3
100
AcDbEntity
  8
mx
  6
ByLayer
 62
  256
370
   -1
100
AcDbLine
 10
100.2278464943204
 20
-32.77291607453764
 11
100.2278464943204
 21
-18.77291607453764
  0
LINE
  5
E4
100
AcDbEntity
  8
mx
  6
ByLayer
 62
  256
370
   -1
100
AcDbLine
 10
83.10995597465434
 20
0.2270839254623542
 11
97.10995597465434
 21
0.2270839254623542
  0
LINE
  5
E5
100
AcDbEntity
  8
mx
  6
ByLayer
 62
  256
370
   -1
100
AcDbLine
 10
97.10995597465434
 20
0.2270839254623542
 11
97.10995597465434
 21
-13.77291607453764
  0
LINE
  5
E6
100
AcDbEntity
  8
mx
  6
ByLayer
 62
  256
370
   -1
100
AcDbLine
 10
97.10995597465434
 20
-13.77291607453764
 11
83.10995597465434
 21
-13.77291607453765
  0
LINE
  5
E7
100
AcDbEntity
  8
mx
  6
ByLayer
 62
  256
370
   -1
100
AcDbLine
 10
83.10995597465434
 20
-13.77291607453765
 11
83.10995597465434
 21
0.2270839254623542
  0
LINE
  5
E8
100
AcDbEntity
  8
mx
  6
ByLayer
 62
  256
370
   -1
100
AcDbLine
 10
104.5799559746543
 20
0.2270839254623542
 11
118.5799559746543
 21
0.2270839254623542
  0
LINE
  5
E9
100
AcDbEntity
  8
mx
  6
ByLayer
 62
  256
370
   -1
100
AcDbLine
 10
118.5799559746543
 20
0.2270839254623542
 11
118.5799559746543
 21
-13.77291607453764
  0
LINE
  5
EA
100
AcDbEntity
  8
mx
  6
ByLayer
 62
  256
370
   -1
100
AcDbLine
 10
118.5799559746543
 20
-13.77291607453764
 11
104.5799559746543
 21
-13.77291607453765
  0
LINE
  5
EB
100
AcDbEntity
  8
mx
  6
ByLayer
 62
  256
370
   -1
100
AcDbLine
 10
104.5799559746543
 20
-13.77291607453765
 11
104.5799559746543
 21
0.2270839254623542
  0
LINE
  5
EC
100
AcDbEntity
  8
mx
  6
ByLayer
 62
  256
370
   -1
100
AcDbLine
 10
95.57284649432042
 20
19.98276274530832
 11
109.5728464943204
 21
19.98276274530832
  0
LINE
  5
ED
100
AcDbEntity
  8
mx
  6
ByLayer
 62
  256
370
   -1
100
AcDbLine
 10
109.5728464943204
 20
19.98276274530832
 11
109.5728464943204
 21
5.982762745308326
  0
LINE
  5
EE
100
AcDbEntity
  8
mx
  6
ByLayer
 62
  256
370
   -1
100
AcDbLine
 10
109.5728464943204
 20
5.982762745308326
 11
95.57284649432042
 21
5.982762745308325
  0
LINE
  5
EF
100
AcDbEntity
  8
mx
  6
ByLayer
 62
  256
370
   -1
100
AcDbLine
 10
95.57284649432042
 20
5.982762745308325
 11
95.57284649432042
 21
19.98276274530832
  0
LINE
  5
F0
100
AcDbEntity
  8
mx
  6
ByLayer
 62
  256
370
   -1
100
AcDbLine
 10
82.01741765899696
 20
38.98276274530827
 11
96.01741765899696
 21
38.98276274530827
  0
LINE
  5
F1
100
AcDbEntity
  8
mx
  6
ByLayer
 62
  256
370
   -1
100
AcDbLine
 10
96.01741765899696
 20
38.98276274530827
 11
96.01741765899696
 21
24.98276274530827
  0
LINE
  5
F2
100
AcDbEntity
  8
mx
  6
ByLayer
 62
  256
370
   -1
100
AcDbLine
 10
96.01741765899696
 20
24.98276274530827
 11
82.01741765899696
 21
24.98276274530827
  0
LINE
  5
F3
100
AcDbEntity
  8
mx
  6
ByLayer
 62
  256
370
   -1
100
AcDbLine
 10
82.01741765899696
 20
24.98276274530827
 11
82.01741765899696
 21
38.98276274530827
  0
LINE
  5
F4
100
AcDbEntity
  8
mx
  6
ByLayer
 62
  256
370
   -1
100
AcDbLine
 10
101.017417658997
 20
38.98276274530827
 11
115.017417658997
 21
38.98276274530827
  0
LINE
  5
F5
100
AcDbEntity
  8
mx
  6
ByLayer
 62
  256
370
   -1
100
AcDbLine
 10
115.017417658997
 20
38.98276274530827
 11
115.017417658997
 21
24.98276274530827
  0
LINE
  5
F6
100
AcDbEntity
  8
mx
  6
ByLayer
 62
  256
370
   -1
100
AcDbLine
 10
115.017417658997
 20
24.98276274530827
 11
101.017417658997
 21
24.98276274530827
  0
LINE
  5
F7
100
AcDbEntity
  8
mx
  6
ByLayer
 62
  256
370
   -1
100
AcDbLine
 10
101.017417658997
 20
24.98276274530827
 11
101.017417658997
 21
38.98276274530827
  0
LINE
  5
F8
100
AcDbEntity
  8
mx
  6
ByLayer
 62
  256
370
   -1
100
AcDbLine
 10
72.78419415823636
 20
-19.64642587471191
 11
86.77331883137249
 21
-19.09470957129692
  0
LINE
  5
F9
100
AcDbEntity
  8
mx
  6
ByLayer
 62
  256
370
   -1
100
AcDbLine
 10
86.77331883137249
 20
-19.09470957129692
 11
87.32503513478748
 21
-33.08383424443304
  0
LINE
  5
FA
100
AcDbEntity
  8
mx
  6
ByLayer
 62
  256
370
   -1
100
AcDbLine
 10
87.32503513478748
 20
-33.08383424443304
 11
73.33591046165135
 21
-33.63555054784803
  0
LINE
  5
FB
100
AcDbEntity
  8
mx
  6
ByLayer
 62
  256
370
   -1
100
AcDbLine
 10
73.33591046165135
 20
-33.63555054784803
 11
72.78419415823636
 21
-19.64642587471191
  0
LINE
  5
FC
100
AcDbEntity
  8
rp
  6
ByLayer
 62
  256
370
   -1
100
AcDbLine
 10
-17.27109032714229
 20
24.03094674038351
 11
1.193206399000941
 21
24.03094674038351
  0
LINE
  5
FD
100
AcDbEntity
  8
rp
  6
ByLayer
 62
  256
370
   -1
100
AcDbLine
 10
1.193206399000941
 20
24.03094674038351
 11
1.193206399000939
 21
-1.969053259616492
  0
LINE
  5
FE
100
AcDbEntity
  8
rp
  6
ByLayer
 62
  256
370
   -1
100
AcDbLine
 10
1.193206399000939
 20
-1.969053259616492
 11
-17.27109032714229
 21
-1.969053259616491
  0
LINE
  5
FF
100
AcDbEntity
  8
rp
  6
ByLayer
 62
  256
370
   -1
100
AcDbLine
 10
-17.27109032714229
 20
-1.969053259616491
 11
-17.27109032714229
 21
24.03094674038351
  0
CIRCLE
  5
100
100
AcDbEntity
  8
percage
  6
ByLayer
 62
  256
370
   -1
100
AcDbCircle
 10
98.51741765899696
 20
31.98276274530827
 40
1.1
  0
CIRCLE
  5
101
100
AcDbEntity
  8
percage
  6
ByLayer
 62
  256
370
   -1
100
AcDbCircle
 10
94.77569580585123
 20
-25.78823887692423
 40
1.1
  0
CIRCLE
  5
102
100
AcDbEntity
  8
percage
  6
ByLayer
 62
  256
370
   -1
100
AcDbCircle
 10
-98.29982241999937
 20
32.30637660303861
 40
1.1
  0
CIRCLE
  5
103
100
AcDbEntity
  8
percage
  6
ByLayer
 62
  256
370
   -1
100
AcDbCircle
 10
-95.02049220647282
 20
-25.80056258481013
 40
1.1
  0
CIRCLE
  5
104
100
AcDbEntity
  8
percage
  6
ByLayer
 62
  256
370
   -1
100
AcDbCircle
 10
-4.845000000000027
 20
-22.89675252335966
 40
1.1
  0
CIRCLE
  5
105
100
AcDbEntity
  8
percage
  6
ByLayer
 62
  256
370
   -1
100
AcDbCircle
 10
-9.576924815935818
 20
34.71432482397259
 40
1.1
  0
LINE
  5
106
100
AcDbEntity
  8
plate
  6
ByLayer
 62
  256
370
   -1
100
AcDbLine
 10
-39.76401352514244
 20
19.67465236117451
 11
-38.45667738392757
 21
34.61757283255067
  0
LINE
  5
107
100
AcDbEntity
  8
plate
  6
ByLayer
 62
  256
370
   -1
100
AcDbLine
 10
-24.82109305376627
 20
18.36731621995961
 11
-39.76401352514244
 21
19.67465236117451
  0
LINE
  5
108
100
AcDbEntity
  8
plate
  6
ByLayer
 62
  256
370
   -1
100
AcDbLine
 10
-38.45667738392757
 20
34.61757283255067
 11
-23.51375691255137
 21
33.3102366913358
  0
LINE
  5
109
100
AcDbEntity
  8
plate
  6
ByLayer
 62
  256
370
   -1
100
AcDbLine
 10
-23.51375691255137
 20
33.3102366913358
 11
-24.82109305376627
 21
18.36731621995961
  0
LINE
  5
10A
100
AcDbEntity
  8
plate
  6
ByLayer
 62
  256
370
   -1
100
AcDbLine
 10
-58.69171278888562
 20
21.33061147338001
 11
-57.38437664767075
 21
36.27353194475617
  0
LINE
  5
10B
100
AcDbEntity
  8
plate
  6
ByLayer
 62
  256
370
   -1
100
AcDbLine
 10
-43.74879231750944
 20
20.02327533216511
 11
-58.69171278888562
 21
21.33061147338001
  0
LINE
  5
10C
100
AcDbEntity
  8
plate
  6
ByLayer
 62
  256
370
   -1
100
AcDbLine
 10
-57.38437664767075
 20
36.27353194475617
 11
-42.44145617629455
 21
34.9661958035413
  0
LINE
  5
10D
100
AcDbEntity
  8
plate
  6
ByLayer
 62
  256
370
   -1
100
AcDbLine
 10
-42.44145617629455
 20
34.9661958035413
 11
-43.74879231750944
 21
20.02327533216511
  0
LINE
  5
10E
100
AcDbEntity
  8
plate
  6
ByLayer
 62
  256
370
   -1
100
AcDbLine
 10
-77.61941205262877
 20
22.98657058558553
 11
-76.31207591141391
 21
37.92949105696169
  0
LINE
  5
10F
100
AcDbEntity
  8
plate
  6
ByLayer
 62
  256
370
   -1
100
AcDbLine
 10
-62.67649158125261
 20
21.67923444437064
 11
-77.61941205262877
 21
22.98657058558553
  0
LINE
  5
110
100
AcDbEntity
  8
plate
  6
ByLayer
 62
  256
370
   -1
100
AcDbLine
 10
-76.31207591141391
 20
37.92949105696169
 11
-61.36915544003772
 21
36.62215491574682
  0
LINE
  5
111
100
AcDbEntity
  8
plate
  6
ByLayer
 62
  256
370
   -1
100
AcDbLine
 10
-61.36915544003772
 20
36.62215491574682
 11
-62.67649158125261
 21
21.67923444437064
  0
LINE
  5
112
100
AcDbEntity
  8
plate
  6
ByLayer
 62
  256
370
   -1
100
AcDbLine
 10
-81.60419084499577
 20
23.33519355657614
 11
-96.54711131637194
 21
24.64252969779103
  0
LINE
  5
113
100
AcDbEntity
  8
plate
  6
ByLayer
 62
  256
370
   -1
100
AcDbLine
 10
-95.23977517515708
 20
39.5854501691672
 11
-80.29685470378088
 21
38.27811402795232
  0
LINE
  5
114
100
AcDbEntity
  8
plate
  6
ByLayer
 62
  256
370
   -1
100
AcDbLine
 10
-80.29685470378088
 20
38.27811402795232
 11
-81.60419084499577
 21
23.33519355657614
  0
LINE
  5
115
100
AcDbEntity
  8
plate
  6
ByLayer
 62
  256
370
   -1
100
AcDbLine
 10
-93.47114561264164
 20
5.300840655996478
 11
-92.16380947142677
 21
20.24376112737264
  0
LINE
  5
116
100
AcDbEntity
  8
plate
  6
ByLayer
 62
  256
370
   -1
100
AcDbLine
 10
-78.52822514126547
 20
3.993504514781584
 11
-93.47114561264164
 21
5.300840655996478
  0
LINE
  5
117
100
AcDbEntity
  8
plate
  6
ByLayer
 62
  256
370
   -1
100
AcDbLine
 10
-92.16380947142677
 20
20.24376112737264
 11
-77.22088900005058
 21
18.93642498615777
  0
LINE
  5
118
100
AcDbEntity
  8
plate
  6
ByLayer
 62
  256
370
   -1
100
AcDbLine
 10
-77.22088900005058
 20
18.93642498615777
 11
-78.52822514126547
 21
3.993504514781584
  0
LINE
  5
119
100
AcDbEntity
  8
plate
  6
ByLayer
 62
  256
370
   -1
100
AcDbLine
 10
-74.54344634889847
 20
3.644881543790977
 11
-73.23611020768361
 21
18.58780201516714
  0
LINE
  5
11A
100
AcDbEntity
  8
plate
  6
ByLayer
 62
  256
370
   -1
100
AcDbLine
 10
-59.6005258775223
 20
2.337545402576083
 11
-74.54344634889847
 21
3.644881543790977
  0
LINE
  5
11B
100
AcDbEntity
  8
plate
  6
ByLayer
 62
  256
370
   -1
100
AcDbLine
 10
-73.23611020768361
 20
18.58780201516714
 11
-58.29318973630741
 21
17.28046587395227
  0
LINE
  5
11C
100
AcDbEntity
  8
plate
  6
ByLayer
 62
  256
370
   -1
100
AcDbLine
 10
-58.29318973630741
 20
17.28046587395227
 11
-59.6005258775223
 21
2.337545402576083
  0
LINE
  5
11D
100
AcDbEntity
  8
plate
  6
ByLayer
 62
  256
370
   -1
100
AcDbLine
 10
-55.61574708515531
 20
1.988922431585468
 11
-54.30841094394044
 21
16.93184290296163
  0
LINE
  5
11E
100
AcDbEntity
  8
plate
  6
ByLayer
 62
  256
370
   -1
100
AcDbLine
 10
-40.67282661377914
 20
0.6815862903705749
 11
-55.61574708515531
 21
1.988922431585468
  0
LINE
  5
11F
100
AcDbEntity
  8
plate
  6
ByLayer
 62
  256
370
   -1
100
AcDbLine
 10
-54.30841094394044
 20
16.93184290296163
 11
-39.36549047256425
 21
15.62450676174676
  0
LINE
  5
120
100
AcDbEntity
  8
plate
  6
ByLayer
 62
  256
370
   -1
100
AcDbLine
 10
-39.36549047256425
 20
15.62450676174676
 11
-40.67282661377914
 21
0.6815862903705749
  0
LINE
  5
121
100
AcDbEntity
  8
plate
  6
ByLayer
 62
  256
370
   -1
100
AcDbLine
 10
-36.68804782141215
 20
0.3329633193799655
 11
-35.38071168019728
 21
15.27588379075613
  0
LINE
  5
122
100
AcDbEntity
  8
plate
  6
ByLayer
 62
  256
370
   -1
100
AcDbLine
 10
-85.66325509297556
 20
-14.45483816384943
 11
-84.35591895176069
 21
0.4880823075267327
  0
LINE
  5
123
100
AcDbEntity
  8
plate
  6
ByLayer
 62
  256
370
   -1
100
AcDbLine
 10
-70.72033462159938
 20
-15.76217430506433
 11
-85.66325509297556
 21
-14.45483816384943
  0
LINE
  5
124
100
AcDbEntity
  8
plate
  6
ByLayer
 62
  256
370
   -1
100
AcDbLine
 10
-84.35591895176069
 20
0.4880823075267327
 11
-69.41299848038449
 21
-0.819253833688143
  0
LINE
  5
125
100
AcDbEntity
  8
plate
  6
ByLayer
 62
  256
370
   -1
100
AcDbLine
 10
-69.41299848038449
 20
-0.819253833688143
 11
-70.72033462159938
 21
-15.76217430506433
  0
LINE
  5
126
100
AcDbEntity
  8
plate
  6
ByLayer
 62
  256
370
   -1
100
AcDbLine
 10
-66.7355558292324
 20
-16.11079727605494
 11
-65.42821968801753
 21
-1.167876804678777
  0
LINE
  5
127
100
AcDbEntity
  8
plate
  6
ByLayer
 62
  256
370
   -1
100
AcDbLine
 10
-51.79263535785623
 20
-17.41813341726984
 11
-66.7355558292324
 21
-16.11079727605494
  0
LINE
  5
128
100
AcDbEntity
  8
plate
  6
ByLayer
 62
  256
370
   -1
100
AcDbLine
 10
-65.42821968801753
 20
-1.167876804678777
 11
-50.48529921664134
 21
-2.475212945893652
  0
LINE
  5
129
100
AcDbEntity
  8
plate
  6
ByLayer
 62
  256
370
   -1
100
AcDbLine
 10
-50.48529921664134
 20
-2.475212945893652
 11
-51.79263535785623
 21
-17.41813341726984
  0
LINE
  5
12A
100
AcDbEntity
  8
plate
  6
ByLayer
 62
  256
370
   -1
100
AcDbLine
 10
-47.80785656548923
 20
-17.76675638826045
 11
-46.50052042427436
 21
-2.823835916884285
  0
LINE
  5
12B
100
AcDbEntity
  8
plate
  6
ByLayer
 62
  256
370
   -1
100
AcDbLine
 10
-32.86493609411306
 20
-19.07409252947534
 11
-47.80785656548923
 21
-17.76675638826045
  0
LINE
  5
12C
100
AcDbEntity
  8
plate
  6
ByLayer
 62
  256
370
   -1
100
AcDbLine
 10
-46.50052042427436
 20
-2.823835916884285
 11
-31.55759995289817
 21
-4.13117205809916
  0
LINE
  5
12D
100
AcDbEntity
  8
plate
  6
ByLayer
 62
  256
370
   -1
100
AcDbLine
 10
-31.55759995289817
 20
-4.13117205809916
 11
-32.86493609411306
 21
-19.07409252947534
  0
LINE
  5
12E
100
AcDbEntity
  8
plate
  6
ByLayer
 62
  256
370
   -1
100
AcDbLine
 10
-28.88015730174606
 20
-19.42271550046596
 11
-27.57282116053119
 21
-4.479795029089789
  0
LINE
  5
12F
100
AcDbEntity
  8
plate
  6
ByLayer
 62
  256
370
   -1
100
AcDbLine
 10
-13.93723683036988
 20
-20.73005164168085
 11
-28.88015730174606
 21
-19.42271550046596
  0
LINE
  5
130
100
AcDbEntity
  8
plate
  6
ByLayer
 62
  256
370
   -1
100
AcDbLine
 10
-43.61117182640572
 20
-37.20649564064611
 11
-42.30383568519085
 21
-22.26357516926994
  0
LINE
  5
131
100
AcDbEntity
  8
plate
  6
ByLayer
 62
  256
370
   -1
100
AcDbLine
 10
-28.66825135502954
 20
-38.513831781861
 11
-43.61117182640572
 21
-37.20649564064611
  0
LINE
  5
132
100
AcDbEntity
  8
plate
  6
ByLayer
 62
  256
370
   -1
100
AcDbLine
 10
-42.30383568519085
 20
-22.26357516926994
 11
-27.36091521381465
 21
-23.57091131048482
  0
LINE
  5
133
100
AcDbEntity
  8
plate
  6
ByLayer
 62
  256
370
   -1
100
AcDbLine
 10
-27.36091521381465
 20
-23.57091131048482
 11
-28.66825135502954
 21
-38.513831781861
  0
LINE
  5
134
100
AcDbEntity
  8
plate
  6
ByLayer
 62
  256
370
   -1
100
AcDbLine
 10
-73.12343975737369
 20
-34.62450676174673
 11
-71.81610361615883
 21
-19.68158629037057
  0
LINE
  5
135
100
AcDbEntity
  8
plate
  6
ByLayer
 62
  256
370
   -1
100
AcDbLine
 10
-58.18051928599752
 20
-35.93184290296163
 11
-73.12343975737369
 21
-34.62450676174673
  0
LINE
  5
136
100
AcDbEntity
  8
plate
  6
ByLayer
 62
  256
370
   -1
100
AcDbLine
 10
-71.81610361615883
 20
-19.68158629037057
 11
-56.87318314478263
 21
-20.98892243158544
  0
LINE
  5
137
100
AcDbEntity
  8
plate
  6
ByLayer
 62
  256
370
   -1
100
AcDbLine
 10
-56.87318314478263
 20
-20.98892243158544
 11
-58.18051928599752
 21
-35.93184290296163
  0
LINE
  5
138
100
AcDbEntity
  8
plate
  6
ByLayer
 62
  256
370
   -1
100
AcDbLine
 10
-115.7138121980507
 20
39.82445178710282
 11
-100.7138121980507
 21
39.82445178710282
  0
LINE
  5
139
100
AcDbEntity
  8
plate
  6
ByLayer
 62
  256
370
   -1
100
AcDbLine
 10
-115.7138121980507
 20
24.82445178710283
 11
-115.7138121980507
 21
39.82445178710282
  0
LINE
  5
13A
100
AcDbEntity
  8
plate
  6
ByLayer
 62
  256
370
   -1
100
AcDbLine
 10
-100.7138121980507
 20
24.82445178710283
 11
-115.7138121980507
 21
24.82445178710283
  0
LINE
  5
13B
100
AcDbEntity
  8
plate
  6
ByLayer
 62
  256
370
   -1
100
AcDbLine
 10
-115.0128464943205
 20
20.48276274530829
 11
-100.0128464943205
 21
20.48276274530829
  0
LINE
  5
13C
100
AcDbEntity
  8
plate
  6
ByLayer
 62
  256
370
   -1
100
AcDbLine
 10
-100.0128464943205
 20
20.48276274530829
 11
-100.0128464943205
 21
5.482762745308307
  0
LINE
  5
13D
100
AcDbEntity
  8
plate
  6
ByLayer
 62
  256
370
   -1
100
AcDbLine
 10
-115.0128464943205
 20
5.482762745308303
 11
-115.0128464943205
 21
20.48276274530829
  0
LINE
  5
13E
100
AcDbEntity
  8
plate
  6
ByLayer
 62
  256
370
   -1
100
AcDbLine
 10
-100.0128464943205
 20
5.482762745308307
 11
-115.0128464943205
 21
5.482762745308303
  0
LINE
  5
13F
100
AcDbEntity
  8
plate
  6
ByLayer
 62
  256
370
   -1
100
AcDbLine
 10
-111.9549559746544
 20
0.7270839254623631
 11
-96.9549559746544
 21
0.7270839254623631
  0
LINE
  5
140
100
AcDbEntity
  8
plate
  6
ByLayer
 62
  256
370
   -1
100
AcDbLine
 10
-96.9549559746544
 20
0.7270839254623631
 11
-96.9549559746544
 21
-14.27291607453762
  0
LINE
  5
141
100
AcDbEntity
  8
plate
  6
ByLayer
 62
  256
370
   -1
100
AcDbLine
 10
-111.9549559746544
 20
-14.27291607453762
 11
-111.9549559746544
 21
0.7270839254623631
  0
LINE
  5
142
100
AcDbEntity
  8
plate
  6
ByLayer
 62
  256
370
   -1
100
AcDbLine
 10
-96.9549559746544
 20
-14.27291607453762
 11
-111.9549559746544
 21
-14.27291607453762
  0
LINE
  5
143
100
AcDbEntity
  8
plate
  6
ByLayer
 62
  256
370
   -1
100
AcDbLine
 10
-115.0128464943205
 20
-18.27291607453763
 11
-100.0128464943205
 21
-18.27291607453763
  0
LINE
  5
144
100
AcDbEntity
  8
plate
  6
ByLayer
 62
  256
370
   -1
100
AcDbLine
 10
-115.0128464943205
 20
-33.27291607453762
 11
-115.0128464943205
 21
-18.27291607453763
  0
LINE
  5
145
100
AcDbEntity
  8
plate
  6
ByLayer
 62
  256
370
   -1
100
AcDbLine
 10
-100.0128464943205
 20
-33.27291607453761
 11
-115.0128464943205
 21
-33.27291607453762
  0
LINE
  5
146
100
AcDbEntity
  8
plate
  6
ByLayer
 62
  256
370
   -1
100
AcDbLine
 10
99.7278464943204
 20
-18.27291607453764
 11
114.7278464943204
 21
-18.27291607453764
  0
LINE
  5
147
100
AcDbEntity
  8
plate
  6
ByLayer
 62
  256
370
   -1
100
AcDbLine
 10
114.7278464943204
 20
-18.27291607453764
 11
114.7278464943204
 21
-33.27291607453762
  0
LINE
  5
148
100
AcDbEntity
  8
plate
  6
ByLayer
 62
  256
370
   -1
100
AcDbLine
 10
114.7278464943204
 20
-33.27291607453762
 11
99.7278464943204
 21
-33.27291607453763
  0
LINE
  5
149
100
AcDbEntity
  8
plate
  6
ByLayer
 62
  256
370
   -1
100
AcDbLine
 10
104.0799559746543
 20
-14.27291607453763
 11
104.0799559746543
 21
0.7270839254623542
  0
LINE
  5
14A
100
AcDbEntity
  8
plate
  6
ByLayer
 62
  256
370
   -1
100
AcDbLine
 10
95.07284649432042
 20
20.48276274530832
 11
110.0728464943204
 21
20.48276274530832
  0
LINE
  5
14B
100
AcDbEntity
  8
plate
  6
ByLayer
 62
  256
370
   -1
100
AcDbLine
 10
110.0728464943204
 20
20.48276274530832
 11
110.0728464943204
 21
5.482762745308339
  0
LINE
  5
14C
100
AcDbEntity
  8
plate
  6
ByLayer
 62
  256
370
   -1
100
AcDbLine
 10
95.07284649432042
 20
5.482762745308335
 11
95.07284649432042
 21
20.48276274530832
  0
LINE
  5
14D
100
AcDbEntity
  8
plate
  6
ByLayer
 62
  256
370
   -1
100
AcDbLine
 10
110.0728464943204
 20
5.482762745308339
 11
95.07284649432042
 21
5.482762745308335
  0
LINE
  5
14E
100
AcDbEntity
  8
plate
  6
ByLayer
 62
  256
370
   -1
100
AcDbLine
 10
100.517417658997
 20
39.48276274530827
 11
115.517417658997
 21
39.48276274530827
  0
LINE
  5
14F
100
AcDbEntity
  8
plate
  6
ByLayer
 62
  256
370
   -1
100
AcDbLine
 10
115.517417658997
 20
39.48276274530827
 11
115.517417658997
 21
24.48276274530829
  0
LINE
  5
150
100
AcDbEntity
  8
plate
  6
ByLayer
 62
  256
370
   -1
100
AcDbLine
 10
115.517417658997
 20
24.48276274530829
 11
100.517417658997
 21
24.48276274530829
  0
LINE
  5
151
100
AcDbEntity
  8
plate
  6
ByLayer
 62
  256
370
   -1
100
AcDbLine
 10
81.51741765899696
 20
39.48276274530827
 11
96.51741765899696
 21
39.48276274530827
  0
LINE
  5
152
100
AcDbEntity
  8
plate
  6
ByLayer
 62
  256
370
   -1
100
AcDbLine
 10
81.51741765899696
 20
24.48276274530829
 11
81.51741765899696
 21
39.48276274530827
  0
LINE
  5
153
100
AcDbEntity
  8
plate
  6
ByLayer
 62
  256
370
   -1
100
AcDbLine
 10
96.51741765899696
 20
24.48276274530829
 11
81.51741765899696
 21
24.48276274530829
  0
LINE
  5
154
100
AcDbEntity
  8
plate
  6
ByLayer
 62
  256
370
   -1
100
AcDbLine
 10
61.14300507190927
 20
37.45013447184954
 11
76.08592554328544
 21
38.75747061306441
  0
LINE
  5
155
100
AcDbEntity
  8
plate
  6
ByLayer
 62
  256
370
   -1
100
AcDbLine
 10
76.08592554328544
 20
38.75747061306441
 11
77.3932616845003
 21
23.81455014168824
  0
LINE
  5
156
100
AcDbEntity
  8
plate
  6
ByLayer
 62
  256
370
   -1
100
AcDbLine
 10
62.45034121312411
 20
22.50721400047336
 11
61.14300507190927
 21
37.45013447184954
  0
LINE
  5
157
100
AcDbEntity
  8
plate
  6
ByLayer
 62
  256
370
   -1
100
AcDbLine
 10
77.3932616845003
 20
23.81455014168824
 11
62.45034121312411
 21
22.50721400047336
  0
LINE
  5
158
100
AcDbEntity
  8
plate
  6
ByLayer
 62
  256
370
   -1
100
AcDbLine
 10
42.21530580816609
 20
35.79417535964403
 11
57.15822627954226
 21
37.1015115008589
  0
LINE
  5
159
100
AcDbEntity
  8
plate
  6
ByLayer
 62
  256
370
   -1
100
AcDbLine
 10
57.15822627954226
 20
37.1015115008589
 11
58.46556242075712
 21
22.15859102948274
  0
LINE
  5
15A
100
AcDbEntity
  8
plate
  6
ByLayer
 62
  256
370
   -1
100
AcDbLine
 10
43.52264194938093
 20
20.85125488826786
 11
42.21530580816609
 21
35.79417535964403
  0
LINE
  5
15B
100
AcDbEntity
  8
plate
  6
ByLayer
 62
  256
370
   -1
100
AcDbLine
 10
58.46556242075712
 20
22.15859102948274
 11
43.52264194938093
 21
20.85125488826786
  0
LINE
  5
15C
100
AcDbEntity
  8
plate
  6
ByLayer
 62
  256
370
   -1
100
AcDbLine
 10
67.53088900005059
 20
18.93642498615781
 11
82.47380947142676
 21
20.24376112737268
  0
LINE
  5
15D
100
AcDbEntity
  8
plate
  6
ByLayer
 62
  256
370
   -1
100
AcDbLine
 10
82.47380947142676
 20
20.24376112737268
 11
83.78114561264161
 21
5.300840655996514
  0
LINE
  5
15E
100
AcDbEntity
  8
plate
  6
ByLayer
 62
  256
370
   -1
100
AcDbLine
 10
68.83822514126543
 20
3.993504514781635
 11
67.53088900005059
 21
18.93642498615781
  0
LINE
  5
15F
100
AcDbEntity
  8
plate
  6
ByLayer
 62
  256
370
   -1
100
AcDbLine
 10
83.78114561264161
 20
5.300840655996514
 11
68.83822514126543
 21
3.993504514781635
  0
LINE
  5
160
100
AcDbEntity
  8
plate
  6
ByLayer
 62
  256
370
   -1
100
AcDbLine
 10
59.72299848038448
 20
-0.8192538336881743
 11
74.66591895176066
 21
0.4880823075266942
  0
LINE
  5
161
100
AcDbEntity
  8
plate
  6
ByLayer
 62
  256
370
   -1
100
AcDbLine
 10
74.66591895176066
 20
0.4880823075266942
 11
75.97325509297551
 21
-14.45483816384947
  0
LINE
  5
162
100
AcDbEntity
  8
plate
  6
ByLayer
 62
  256
370
   -1
100
AcDbLine
 10
61.03033462159932
 20
-15.76217430506435
 11
59.72299848038448
 21
-0.8192538336881743
  0
LINE
  5
163
100
AcDbEntity
  8
plate
  6
ByLayer
 62
  256
370
   -1
100
AcDbLine
 10
75.97325509297551
 20
-14.45483816384947
 11
61.03033462159932
 21
-15.76217430506435
  0
LINE
  5
164
100
AcDbEntity
  8
plate
  6
ByLayer
 62
  256
370
   -1
100
AcDbLine
 10
40.7952992166413
 20
-2.475212945893674
 11
55.73821968801747
 21
-1.167876804678805
  0
LINE
  5
165
100
AcDbEntity
  8
plate
  6
ByLayer
 62
  256
370
   -1
100
AcDbLine
 10
55.73821968801747
 20
-1.167876804678805
 11
57.04555582923233
 21
-16.11079727605497
  0
LINE
  5
166
100
AcDbEntity
  8
plate
  6
ByLayer
 62
  256
370
   -1
100
AcDbLine
 10
42.10263535785614
 20
-17.41813341726985
 11
40.7952992166413
 21
-2.475212945893674
  0
LINE
  5
167
100
AcDbEntity
  8
plate
  6
ByLayer
 62
  256
370
   -1
100
AcDbLine
 10
57.04555582923233
 20
-16.11079727605497
 11
42.10263535785614
 21
-17.41813341726985
  0
LINE
  5
168
100
AcDbEntity
  8
plate
  6
ByLayer
 62
  256
370
   -1
100
AcDbLine
 10
48.6031897363074
 20
17.28046587395226
 11
63.54611020768357
 21
18.58780201516712
  0
LINE
  5
169
100
AcDbEntity
  8
plate
  6
ByLayer
 62
  256
370
   -1
100
AcDbLine
 10
63.54611020768357
 20
18.58780201516712
 11
64.85344634889843
 21
3.644881543790961
  0
LINE
  5
16A
100
AcDbEntity
  8
plate
  6
ByLayer
 62
  256
370
   -1
100
AcDbLine
 10
49.91052587752224
 20
2.337545402576082
 11
48.6031897363074
 21
17.28046587395226
  0
LINE
  5
16B
100
AcDbEntity
  8
plate
  6
ByLayer
 62
  256
370
   -1
100
AcDbLine
 10
64.85344634889843
 20
3.644881543790961
 11
49.91052587752224
 21
2.337545402576082
  0
LINE
  5
16C
100
AcDbEntity
  8
plate
  6
ByLayer
 62
  256
370
   -1
100
AcDbLine
 10
29.67549047256422
 20
15.62450676174674
 11
44.61841094394039
 21
16.93184290296161
  0
LINE
  5
16D
100
AcDbEntity
  8
plate
  6
ByLayer
 62
  256
370
   -1
100
AcDbLine
 10
44.61841094394039
 20
16.93184290296161
 11
45.92574708515525
 21
1.988922431585451
  0
LINE
  5
16E
100
AcDbEntity
  8
plate
  6
ByLayer
 62
  256
370
   -1
100
AcDbLine
 10
30.98282661377906
 20
0.6815862903705716
 11
29.67549047256422
 21
15.62450676174674
  0
LINE
  5
16F
100
AcDbEntity
  8
plate
  6
ByLayer
 62
  256
370
   -1
100
AcDbLine
 10
45.92574708515525
 20
1.988922431585451
 11
30.98282661377906
 21
0.6815862903705716
  0
LINE
  5
170
100
AcDbEntity
  8
plate
  6
ByLayer
 62
  256
370
   -1
100
AcDbLine
 10
23.28760654442294
 20
34.13821624743854
 11
38.23052701579911
 21
35.44555238865341
  0
LINE
  5
171
100
AcDbEntity
  8
plate
  6
ByLayer
 62
  256
370
   -1
100
AcDbLine
 10
38.23052701579911
 20
35.44555238865341
 11
39.53786315701397
 21
20.50263191727725
  0
LINE
  5
172
100
AcDbEntity
  8
plate
  6
ByLayer
 62
  256
370
   -1
100
AcDbLine
 10
24.59494268563778
 20
19.19529577606237
 11
23.28760654442294
 21
34.13821624743854
  0
LINE
  5
173
100
AcDbEntity
  8
plate
  6
ByLayer
 62
  256
370
   -1
100
AcDbLine
 10
39.53786315701397
 20
20.50263191727725
 11
24.59494268563778
 21
19.19529577606237
  0
LINE
  5
174
100
AcDbEntity
  8
plate
  6
ByLayer
 62
  256
370
   -1
100
AcDbLine
 10
19.30282775205593
 20
33.7895932764479
 11
20.61016389327079
 21
18.84667280507173
  0
LINE
  5
175
100
AcDbEntity
  8
plate
  6
ByLayer
 62
  256
370
   -1
100
AcDbLine
 10
10.74779120882107
 20
13.96854764954124
 11
25.69071168019724
 21
15.27588379075611
  0
LINE
  5
176
100
AcDbEntity
  8
plate
  6
ByLayer
 62
  256
370
   -1
100
AcDbLine
 10
25.69071168019724
 20
15.27588379075611
 11
26.9980478214121
 21
0.3329633193799495
  0
LINE
  5
177
100
AcDbEntity
  8
plate
  6
ByLayer
 62
  256
370
   -1
100
AcDbLine
 10
12.05512735003591
 20
-0.9743728218349297
 11
10.74779120882107
 21
13.96854764954124
  0
LINE
  5
178
100
AcDbEntity
  8
plate
  6
ByLayer
 62
  256
370
   -1
100
AcDbLine
 10
26.9980478214121
 20
0.3329633193799495
 11
12.05512735003591
 21
-0.9743728218349297
  0
LINE
  5
179
100
AcDbEntity
  8
plate
  6
ByLayer
 62
  256
370
   -1
100
AcDbLine
 10
17.88282116053114
 20
-4.479795029089804
 11
19.19015730174601
 21
-19.42271550046597
  0
LINE
  5
17A
100
AcDbEntity
  8
plate
  6
ByLayer
 62
  256
370
   -1
100
AcDbLine
 10
19.19015730174601
 20
-19.42271550046597
 11
4.247236830369816
 21
-20.73005164168084
  0
LINE
  5
17B
100
AcDbEntity
  8
plate
  6
ByLayer
 62
  256
370
   -1
100
AcDbLine
 10
16.42567184119995
 20
-23.67985598891941
 11
31.36859231257612
 21
-22.37251984770454
  0
LINE
  5
17C
100
AcDbEntity
  8
plate
  6
ByLayer
 62
  256
370
   -1
100
AcDbLine
 10
31.36859231257612
 20
-22.37251984770454
 11
32.67592845379098
 21
-37.31544031908071
  0
LINE
  5
17D
100
AcDbEntity
  8
plate
  6
ByLayer
 62
  256
370
   -1
100
AcDbLine
 10
17.73300798241479
 20
-38.62277646029558
 11
16.42567184119995
 21
-23.67985598891941
  0
LINE
  5
17E
100
AcDbEntity
  8
plate
  6
ByLayer
 62
  256
370
   -1
100
AcDbLine
 10
32.67592845379098
 20
-37.31544031908071
 11
17.73300798241479
 21
-38.62277646029558
  0
LINE
  5
17F
100
AcDbEntity
  8
plate
  6
ByLayer
 62
  256
370
   -1
100
AcDbLine
 10
47.1831831447826
 20
-20.98892243158545
 11
62.12610361615877
 21
-19.68158629037059
  0
LINE
  5
180
100
AcDbEntity
  8
plate
  6
ByLayer
 62
  256
370
   -1
100
AcDbLine
 10
62.12610361615877
 20
-19.68158629037059
 11
63.43343975737363
 21
-34.62450676174674
  0
LINE
  5
181
100
AcDbEntity
  8
plate
  6
ByLayer
 62
  256
370
   -1
100
AcDbLine
 10
48.49051928599744
 20
-35.93184290296163
 11
47.1831831447826
 21
-20.98892243158545
  0
LINE
  5
182
100
AcDbEntity
  8
plate
  6
ByLayer
 62
  256
370
   -1
100
AcDbLine
 10
63.43343975737363
 20
-34.62450676174674
 11
48.49051928599744
 21
-35.93184290296163
  0
LINE
  5
183
100
AcDbEntity
  8
plate
  6
ByLayer
 62
  256
370
   -1
100
AcDbLine
 10
72.85600301987559
 20
-34.15486629701056
 11
72.26487840907382
 21
-19.16651843293615
  0
LINE
  5
184
100
AcDbEntity
  8
plate
  6
ByLayer
 62
  256
370
   -1
100
AcDbLine
 10
87.84435088395001
 20
-33.5637416862088
 11
72.85600301987559
 21
-34.15486629701056
  0
LINE
  5
185
100
AcDbEntity
  8
plate
  6
ByLayer
 62
  256
370
   -1
100
AcDbLine
 10
72.26487840907382
 20
-19.16651843293615
 11
87.25322627314824
 21
-18.57539382213439
  0
LINE
  5
186
100
AcDbEntity
  8
plate
  6
ByLayer
 62
  256
370
   -1
100
AcDbLine
 10
-77.00073619945113
 20
-19.31618833310033
 11
-77.86157587823925
 21
-34.29146646231794
  0
LINE
  5
187
100
AcDbEntity
  8
plate
  6
ByLayer
 62
  256
370
   -1
100
AcDbLine
 10
-77.86157587823925
 20
-34.29146646231794
 11
-92.83685400745689
 21
-33.43062678352984
  0
LINE
  5
188
100
AcDbEntity
  8
plate
  6
ByLayer
 62
  256
370
   -1
100
AcDbLine
 10
-91.97601432866878
 20
-18.45534865431223
 11
-77.00073619945113
 21
-19.31618833310033
  0
LINE
  5
189
100
AcDbEntity
  8
plate
  6
ByLayer
 62
  256
370
   -1
100
AcDbLine
 10
104.0799559746543
 20
0.7270839254623542
 11
119.5799559746543
 21
0.7270839254623542
  0
ARC
  5
18A
100
AcDbEntity
  8
plate
  6
ByLayer
 62
  256
370
   -1
100
AcDbCircle
 10
119.5799559746543
 20
1.727083925462354
 40
1
100
AcDbArc
 50
270
 51
3.053332494204976e-13
  0
LINE
  5
18B
100
AcDbEntity
  8
plate
  6
ByLayer
 62
  256
370
   -1
100
AcDbLine
 10
119.5799559746543
 20
-14.27291607453763
 11
104.0799559746543
 21
-14.27291607453763
  0
ARC
  5
18C
100
AcDbEntity
  8
plate
  6
ByLayer
 62
  256
370
   -1
100
AcDbCircle
 10
119.5799559746543
 20
-15.27291607453763
 40
1
100
AcDbArc
 50
1.017777498068325e-13
 51
90
  0
LINE
  5
18D
100
AcDbEntity
  8
plate
  6
ByLayer
 62
  256
370
   -1
100
AcDbLine
 10
120.5799559746543
 20
-15.27291607453763
 11
120.5799559746543
 21
-40.32445178710282
  0
ARC
  5
18E
100
AcDbEntity
  8
plate
  6
ByLayer
 62
  256
370
   -1
100
AcDbCircle
 10
119.5799559746543
 20
-40.32445178710282
 40
1
100
AcDbArc
 50
270
 51
0
  0
LINE
  5
18F
100
AcDbEntity
  8
plate
  6
ByLayer
 62
  256
370
   -1
100
AcDbLine
 10
82.60995597465434
 20
0.7270839254623542
 11
97.60995597465434
 21
0.7270839254623542
  0
LINE
  5
190
100
AcDbEntity
  8
plate
  6
ByLayer
 62
  256
370
   -1
100
AcDbLine
 10
97.60995597465434
 20
0.7270839254623542
 11
97.60995597465434
 21
-14.27291607453763
  0
LINE
  5
191
100
AcDbEntity
  8
plate
  6
ByLayer
 62
  256
370
   -1
100
AcDbLine
 10
82.60995597465434
 20
-14.27291607453763
 11
82.60995597465434
 21
0.7270839254623542
  0
LINE
  5
192
100
AcDbEntity
  8
plate
  6
ByLayer
 62
  256
370
   -1
100
AcDbLine
 10
97.60995597465434
 20
-14.27291607453763
 11
82.60995597465434
 21
-14.27291607453763
  0
LINE
  5
193
100
AcDbEntity
  8
plate
  6
ByLayer
 62
  256
370
   -1
100
AcDbLine
 10
99.7278464943204
 20
-33.27291607453763
 11
99.7278464943204
 21
-29.38823887692423
  0
ARC
  5
194
100
AcDbEntity
  8
plate
  6
ByLayer
 62
  256
370
   -1
100
AcDbCircle
 10
98.7278464943204
 20
-29.38823887692423
 40
1
100
AcDbArc
 50
0
 51
90
  0
LINE
  5
195
100
AcDbEntity
  8
plate
  6
ByLayer
 62
  256
370
   -1
100
AcDbLine
 10
99.7278464943204
 20
-22.18823887692423
 11
99.7278464943204
 21
-18.27291607453764
  0
ARC
  5
196
100
AcDbEntity
  8
plate
  6
ByLayer
 62
  256
370
   -1
100
AcDbCircle
 10
98.7278464943204
 20
-22.18823887692423
 40
1
100
AcDbArc
 50
270
 51
0
  0
LINE
  5
197
100
AcDbEntity
  8
plate
  6
ByLayer
 62
  256
370
   -1
100
AcDbLine
 10
88.39649047960376
 20
-23.18823887692453
 11
98.7278464943204
 21
-23.18823887692423
  0
LINE
  5
198
100
AcDbEntity
  8
plate
  6
ByLayer
 62
  256
370
   -1
100
AcDbLine
 10
87.25322627314824
 20
-18.57539382213439
 11
87.39726728866543
 21
-22.22764718431131
  0
ARC
  5
199
100
AcDbEntity
  8
plate
  6
ByLayer
 62
  256
370
   -1
100
AcDbCircle
 10
88.39649047960373
 20
-22.18823887692453
 40
1
100
AcDbArc
 50
182.2585145328266
 51
270.0000000000016
  0
LINE
  5
19A
100
AcDbEntity
  8
plate
  6
ByLayer
 62
  256
370
   -1
100
AcDbLine
 10
88.6804508757975
 20
-28.38823887692423
 11
98.7278464943204
 21
-28.38823887692423
  0
LINE
  5
19B
100
AcDbEntity
  8
plate
  6
ByLayer
 62
  256
370
   -1
100
AcDbLine
 10
87.68122768485921
 20
-29.42764718431102
 11
87.84435088395001
 21
-33.5637416862088
  0
ARC
  5
19C
100
AcDbEntity
  8
plate
  6
ByLayer
 62
  256
370
   -1
100
AcDbCircle
 10
88.6804508757975
 20
-29.38823887692423
 40
1
100
AcDbArc
 50
90
 51
182.2585145328268
  0
LINE
  5
19D
100
AcDbEntity
  8
plate
  6
ByLayer
 62
  256
370
   -1
100
AcDbLine
 10
120.5799559746543
 20
40.32445178710282
 11
120.5799559746543
 21
1.72708392546236
  0
ARC
  5
19E
100
AcDbEntity
  8
plate
  6
ByLayer
 62
  256
370
   -1
100
AcDbCircle
 10
119.5799559746543
 20
40.32445178710282
 40
1
100
AcDbArc
 50
0
 51
89.99999999999756
  0
LINE
  5
19F
100
AcDbEntity
  8
plate
  6
ByLayer
 62
  256
370
   -1
100
AcDbLine
 10
-27.57282116053119
 20
-4.479795029089789
 11
-21.35824606988995
 21
-5.02349989815149
  0
ARC
  5
1A0
100
AcDbEntity
  8
plate
  6
ByLayer
 62
  256
370
   -1
100
AcDbCircle
 10
-21.27109032714229
 20
-4.027305200059745
 40
1
100
AcDbArc
 50
265
 51
0
  0
LINE
  5
1A1
100
AcDbEntity
  8
plate
  6
ByLayer
 62
  256
370
   -1
100
AcDbLine
 10
-21.18393458439463
 20
-1.023470826881308
 11
-36.68804782141215
 21
0.3329633193799655
  0
LINE
  5
1A2
100
AcDbEntity
  8
plate
  6
ByLayer
 62
  256
370
   -1
100
AcDbLine
 10
-20.27109032714229
 20
-4.027305200059745
 11
-20.27109032714229
 21
-2.019665524973053
  0
ARC
  5
1A3
100
AcDbEntity
  8
plate
  6
ByLayer
 62
  256
370
   -1
100
AcDbCircle
 10
-21.27109032714229
 20
-2.019665524973053
 40
1
100
AcDbArc
 50
0
 51
85
  0
LINE
  5
1A4
100
AcDbEntity
  8
plate
  6
ByLayer
 62
  256
370
   -1
100
AcDbLine
 10
5.280362141748597
 20
-5.582367325783314
 11
17.88282116053114
 21
-4.479795029089804
  0
ARC
  5
1A5
100
AcDbEntity
  8
plate
  6
ByLayer
 62
  256
370
   -1
100
AcDbCircle
 10
5.193206399000939
 20
-4.586172627691568
 40
1
100
AcDbArc
 50
179.9999999999999
 51
275
  0
LINE
  5
1A6
100
AcDbEntity
  8
plate
  6
ByLayer
 62
  256
370
   -1
100
AcDbLine
 10
-12.97223020380709
 20
-9.699975427557005
 11
-13.93723683036988
 21
-20.73005164168085
  0
ARC
  5
1A7
100
AcDbEntity
  8
plate
  6
ByLayer
 62
  256
370
   -1
100
AcDbCircle
 10
-11.97603550571534
 20
-9.787131170304665
 40
1
100
AcDbArc
 50
89.9999999999999
 51
174.9999999999999
  0
LINE
  5
1A8
100
AcDbEntity
  8
plate
  6
ByLayer
 62
  256
370
   -1
100
AcDbLine
 10
-35.38071168019728
 20
15.27588379075613
 11
-21.35824606988994
 21
14.04907701517211
  0
ARC
  5
1A9
100
AcDbEntity
  8
plate
  6
ByLayer
 62
  256
370
   -1
100
AcDbCircle
 10
-21.27109032714229
 20
15.04527171326385
 40
1
100
AcDbArc
 50
265.0000000000002
 51
0
  0
LINE
  5
1AA
100
AcDbEntity
  8
plate
  6
ByLayer
 62
  256
370
   -1
100
AcDbLine
 10
-20.27109032714229
 20
15.04527171326385
 11
-20.27109032714229
 21
40.32445178710282
  0
ARC
  5
1AB
100
AcDbEntity
  8
plate
  6
ByLayer
 62
  256
370
   -1
100
AcDbCircle
 10
-21.27109032714229
 20
40.32445178710282
 40
1
100
AcDbArc
 50
0
 51
90.0000000000002
  0
ARC
  5
1AC
100
AcDbEntity
  8
plate
  6
ByLayer
 62
  256
370
   -1
100
AcDbCircle
 10
5.193206399000944
 20
40.32445178710282
 40
1
100
AcDbArc
 50
90.00000000000091
 51
180
  0
LINE
  5
1AD
100
AcDbEntity
  8
plate
  6
ByLayer
 62
  256
370
   -1
100
AcDbLine
 10
5.280362141748602
 20
32.56278650086388
 11
19.30282775205593
 21
33.7895932764479
  0
LINE
  5
1AE
100
AcDbEntity
  8
plate
  6
ByLayer
 62
  256
370
   -1
100
AcDbLine
 10
4.193206399000944
 20
40.32445178710282
 11
4.193206399000943
 21
33.55898119895563
  0
ARC
  5
1AF
100
AcDbEntity
  8
plate
  6
ByLayer
 62
  256
370
   -1
100
AcDbCircle
 10
5.193206399000943
 20
33.55898119895563
 40
1
100
AcDbArc
 50
180
 51
275
  0
LINE
  5
1B0
100
AcDbEntity
  8
plate
  6
ByLayer
 62
  256
370
   -1
100
AcDbLine
 10
20.61016389327079
 20
18.84667280507173
 11
5.106050656253283
 21
17.49023865881048
  0
LINE
  5
1B1
100
AcDbEntity
  8
plate
  6
ByLayer
 62
  256
370
   -1
100
AcDbLine
 10
4.193206399000942
 20
16.49404396071873
 11
4.193206399000939
 21
-4.586172627691568
  0
ARC
  5
1B2
100
AcDbEntity
  8
plate
  6
ByLayer
 62
  256
370
   -1
100
AcDbCircle
 10
5.193206399000942
 20
16.49404396071873
 40
1
100
AcDbArc
 50
95.00000000000006
 51
180
  0
LINE
  5
1B3
100
AcDbEntity
  8
plate
  6
ByLayer
 62
  256
370
   -1
100
AcDbLine
 10
-100.7138121980507
 20
28.82626484141629
 11
-100.7138121980507
 21
24.82445178710283
  0
ARC
  5
1B4
100
AcDbEntity
  8
plate
  6
ByLayer
 62
  256
370
   -1
100
AcDbCircle
 10
-99.7138121980507
 20
28.82626484141629
 40
1
100
AcDbArc
 50
85.00000000000017
 51
180
  0
LINE
  5
1B5
100
AcDbEntity
  8
plate
  6
ByLayer
 62
  256
370
   -1
100
AcDbLine
 10
-97.11695593091567
 20
29.60288919477907
 11
-99.62665645530305
 21
29.82245953950803
  0
LINE
  5
1B6
100
AcDbEntity
  8
plate
  6
ByLayer
 62
  256
370
   -1
100
AcDbLine
 10
-96.54711131637194
 20
24.64252969779103
 11
-96.20791697557159
 21
28.51953875393967
  0
ARC
  5
1B7
100
AcDbEntity
  8
plate
  6
ByLayer
 62
  256
370
   -1
100
AcDbCircle
 10
-97.20411167366332
 20
28.60669449668733
 40
1
100
AcDbArc
 50
355.0000000000001
 51
85.00000000000021
  0
LINE
  5
1B8
100
AcDbEntity
  8
plate
  6
ByLayer
 62
  256
370
   -1
100
AcDbLine
 10
-95.58212022814226
 20
35.67242830795491
 11
-95.23977517515708
 21
39.5854501691672
  0
ARC
  5
1B9
100
AcDbEntity
  8
plate
  6
ByLayer
 62
  256
370
   -1
100
AcDbCircle
 10
-96.578314926234
 20
35.75958405070256
 40
1
100
AcDbArc
 50
265.0000000000002
 51
355.0000000000002
  0
LINE
  5
1BA
100
AcDbEntity
  8
plate
  6
ByLayer
 62
  256
370
   -1
100
AcDbLine
 10
-96.66547066898165
 20
34.76338935261082
 11
-99.80096794079836
 21
35.03770981841124
  0
LINE
  5
1BB
100
AcDbEntity
  8
plate
  6
ByLayer
 62
  256
370
   -1
100
AcDbLine
 10
-100.7138121980507
 20
39.82445178710282
 11
-100.7138121980507
 21
36.03390451650299
  0
ARC
  5
1BC
100
AcDbEntity
  8
plate
  6
ByLayer
 62
  256
370
   -1
100
AcDbCircle
 10
-99.7138121980507
 20
36.03390451650299
 40
1
100
AcDbArc
 50
180
 51
265.0000000000002
  0
LINE
  5
1BD
100
AcDbEntity
  8
plate
  6
ByLayer
 62
  256
370
   -1
100
AcDbLine
 10
-92.83685400745689
 20
-33.43062678352984
 11
-92.60848855447672
 21
-29.45795189672934
  0
ARC
  5
1BE
100
AcDbEntity
  8
plate
  6
ByLayer
 62
  256
370
   -1
100
AcDbCircle
 10
-93.6068404297579
 20
-29.40056258481013
 40
1
100
AcDbArc
 50
356.7100270105978
 51
90
  0
LINE
  5
1BF
100
AcDbEntity
  8
plate
  6
ByLayer
 62
  256
370
   -1
100
AcDbLine
 10
-99.0128464943205
 20
-28.40056258481013
 11
-93.6068404297579
 21
-28.40056258481013
  0
LINE
  5
1C0
100
AcDbEntity
  8
plate
  6
ByLayer
 62
  256
370
   -1
100
AcDbLine
 10
-100.0128464943205
 20
-29.40056258481013
 11
-100.0128464943205
 21
-33.27291607453761
  0
ARC
  5
1C1
100
AcDbEntity
  8
plate
  6
ByLayer
 62
  256
370
   -1
100
AcDbCircle
 10
-99.0128464943205
 20
-29.40056258481013
 40
1
100
AcDbArc
 50
90
 51
180
  0
LINE
  5
1C2
100
AcDbEntity
  8
plate
  6
ByLayer
 62
  256
370
   -1
100
AcDbLine
 10
-100.0128464943205
 20
-18.27291607453763
 11
-100.0128464943205
 21
-22.20056258481013
  0
ARC
  5
1C3
100
AcDbEntity
  8
plate
  6
ByLayer
 62
  256
370
   -1
100
AcDbCircle
 10
-99.0128464943205
 20
-22.20056258481013
 40
1
100
AcDbArc
 50
180
 51
270
  0
LINE
  5
1C4
100
AcDbEntity
  8
plate
  6
ByLayer
 62
  256
370
   -1
100
AcDbLine
 10
-99.0128464943205
 20
-23.20056258481013
 11
-93.19295524954333
 21
-23.20056258481013
  0
LINE
  5
1C5
100
AcDbEntity
  8
plate
  6
ByLayer
 62
  256
370
   -1
100
AcDbLine
 10
-92.19460337426216
 20
-22.25795189672934
 11
-91.97601432866878
 21
-18.45534865431223
  0
ARC
  5
1C6
100
AcDbEntity
  8
plate
  6
ByLayer
 62
  256
370
   -1
100
AcDbCircle
 10
-93.19295524954333
 20
-22.20056258481013
 40
1
100
AcDbArc
 50
270
 51
356.7100270105976
  0
CIRCLE
  5
1C7
100
AcDbEntity
  8
plate
  6
ByLayer
 62
  256
370
   -1
100
AcDbCircle
 10
-4.845000000000027
 20
-22.89675252335966
 40
2.6
  0
LINE
  5
1C8
100
AcDbEntity
  8
plate
  6
ByLayer
 62
  256
370
   -1
100
AcDbLine
 10
-119.5799559746544
 20
41.32445178710282
 11
-21.27109032714229
 21
41.32445178710282
  0
ARC
  5
1C9
100
AcDbEntity
  8
plate
  6
ByLayer
 62
  256
370
   -1
100
AcDbCircle
 10
-119.5799559746544
 20
40.32445178710282
 40
1
100
AcDbArc
 50
90
 51
180
  0
LINE
  5
1CA
100
AcDbEntity
  8
plate
  6
ByLayer
 62
  256
370
   -1
100
AcDbLine
 10
119.5799559746543
 20
-41.32445178710282
 11
-119.5799559746544
 21
-41.32445178710282
  0
LINE
  5
1CB
100
AcDbEntity
  8
plate
  6
ByLayer
 62
  256
370
   -1
100
AcDbLine
 10
-120.5799559746544
 20
-40.32445178710282
 11
-120.5799559746544
 21
40.32445178710282
  0
ARC
  5
1CC
100
AcDbEntity
  8
plate
  6
ByLayer
 62
  256
370
   -1
100
AcDbCircle
 10
-119.5799559746544
 20
-40.32445178710282
 40
1
100
AcDbArc
 50
180
 51
269.9999999999992
  0
LINE
  5
1CD
100
AcDbEntity
  8
plate
  6
ByLayer
 62
  256
370
   -1
100
AcDbLine
 10
2.286035505715318
 20
-8.787131170304667
 11
-11.97603550571534
 21
-8.787131170304665
  0
LINE
  5
1CE
100
AcDbEntity
  8
plate
  6
ByLayer
 62
  256
370
   -1
100
AcDbLine
 10
4.247236830369816
 20
-20.73005164168084
 11
3.282230203807063
 21
-9.699975427557012
  0
ARC
  5
1CF
100
AcDbEntity
  8
plate
  6
ByLayer
 62
  256
370
   -1
100
AcDbCircle
 10
2.286035505715318
 20
-9.787131170304669
 40
1
100
AcDbArc
 50
4.999999999999893
 51
90
  0
LINE
  5
1D0
100
AcDbEntity
  8
plate
  6
ByLayer
 62
  256
370
   -1
100
AcDbLine
 10
119.5799559746543
 20
41.32445178710282
 11
5.193206399000928
 21
41.32445178710282
  0
LINE
  5
1D1
100
AcDbEntity
  8
plate
  6
ByLayer
 62
  256
370
   -1
100
AcDbLine
 10
96.51741765899696
 20
39.48276274530827
 11
96.51741765899696
 21
35.58276274530847
  0
ARC
  5
1D2
100
AcDbEntity
  8
plate
  6
ByLayer
 62
  256
370
   -1
100
AcDbCircle
 10
97.51741765899696
 20
35.58276274530847
 40
1
100
AcDbArc
 50
180
 51
270
  0
LINE
  5
1D3
100
AcDbEntity
  8
plate
  6
ByLayer
 62
  256
370
   -1
100
AcDbLine
 10
100.517417658997
 20
35.58276274530847
 11
100.517417658997
 21
39.48276274530827
  0
LINE
  5
1D4
100
AcDbEntity
  8
plate
  6
ByLayer
 62
  256
370
   -1
100
AcDbLine
 10
97.51741765899696
 20
34.58276274530847
 11
99.517417658997
 21
34.58276274530847
  0
ARC
  5
1D5
100
AcDbEntity
  8
plate
  6
ByLayer
 62
  256
370
   -1
100
AcDbCircle
 10
99.517417658997
 20
35.58276274530847
 40
1
100
AcDbArc
 50
270
 51
0
  0
LINE
  5
1D6
100
AcDbEntity
  8
plate
  6
ByLayer
 62
  256
370
   -1
100
AcDbLine
 10
96.51741765899696
 20
28.38276269583456
 11
96.51741765899696
 21
24.48276274530829
  0
ARC
  5
1D7
100
AcDbEntity
  8
plate
  6
ByLayer
 62
  256
370
   -1
100
AcDbCircle
 10
97.51741765899696
 20
28.38276269583456
 40
1
100
AcDbArc
 50
90
 51
180
  0
LINE
  5
1D8
100
AcDbEntity
  8
plate
  6
ByLayer
 62
  256
370
   -1
100
AcDbLine
 10
97.51741765899696
 20
29.38276269583456
 11
99.517417658997
 21
29.38276269583456
  0
LINE
  5
1D9
100
AcDbEntity
  8
plate
  6
ByLayer
 62
  256
370
   -1
100
AcDbLine
 10
100.517417658997
 20
24.48276274530829
 11
100.517417658997
 21
28.38276269583457
  0
ARC
  5
1DA
100
AcDbEntity
  8
plate
  6
ByLayer
 62
  256
370
   -1
100
AcDbCircle
 10
99.517417658997
 20
28.38276269583457
 40
1
100
AcDbArc
 50
0
 51
90
  0
ENDSEC
  0
SECTION
  2
OBJECTS
  0
DICTIONARY
  5
C
330
0
100
AcDbDictionary
281
    1
  3
ACAD_GROUP
350
D
  0
DICTIONARY
  5
D
330
C
100
AcDbDictionary
281
    1
  0
PLOTSETTINGS
  5
1DB
100
AcDbPlotSettings
  6
1x1
 40
0
 41
0
 42
0
 43
0
  0
ENDSEC
  0
EOF
