999
dxfrw 0.6.3
  0
SECTION
  2
HEADER
  9
$ACADVER
  1
AC1021
  9
$DWGCODEPAGE
  3
ANSI_1252
  9
$INSBASE
 10
0
 20
0
 30
0
  9
$EXTMIN
 10
-174.1650002230756
 20
-47.95874950358401
 30
0
  9
$EXTMAX
 10
174.1649997769244
 20
47.95875049641598
 30
0
  9
$LIMMIN
 10
0
 20
0
  9
$LIMMAX
 10
420
 20
297
  9
$ORTHOMODE
 70
    0
  9
$REGENMODE
 70
    1
  9
$FILLMODE
 70
    1
  9
$QTEXTMODE
 70
    0
  9
$MIRRTEXT
 70
    0
  9
$LTSCALE
 40
1
  9
$ATTMODE
 70
    0
  9
$TEXTSIZE
 40
2.5
  9
$TRACEWID
 40
15.68
  9
$TEXTSTYLE
  7
STANDARD
  9
$CLAYER
  8
support1
  9
$CELTYPE
  6
BYLAYER
  9
$CECOLOR
 62
  256
  9
$CELTSCALE
 40
1
  9
$DISPSILH
 70
    0
  9
$DIMSCALE
 40
2.5
  9
$DIMASZ
 40
2.5
  9
$DIMEXO
 40
0.625
  9
$DIMDLI
 40
3.75
  9
$DIMRND
 40
0
  9
$DIMDLE
 40
0
  9
$DIMEXE
 40
1.25
  9
$DIMTP
 40
0
  9
$DIMTM
 40
0
  9
$DIMTXT
 40
2.5
  9
$DIMCEN
 40
2.5
  9
$DIMTSZ
 40
0
  9
$DIMTOL
 70
    0
  9
$DIMLIM
 70
    0
  9
$DIMTIH
 70
    0
  9
$DIMTOH
 70
    0
  9
$DIMSE1
 70
    0
  9
$DIMSE2
 70
    0
  9
$DIMTAD
 70
    1
  9
$DIMZIN
 70
    8
  9
$DIMBLK
  1

  9
$DIMASO
 70
    1
  9
$DIMSHO
 70
    1
  9
$DIMPOST
  1

  9
$DIMAPOST
  1

  9
$DIMALT
 70
    0
  9
$DIMALTD
 70
    3
  9
$DIMALTF
 40
0.03937
  9
$DIMLFAC
 40
1
  9
$DIMTOFL
 70
    1
  9
$DIMTVP
 40
0
  9
$DIMTIX
 70
    0
  9
$DIMSOXD
 70
    0
  9
$DIMSAH
 70
    0
  9
$DIMBLK1
  1

  9
$DIMBLK2
  1

  9
$DIMSTYLE
  2
Standard
  9
$DIMCLRD
 70
    0
  9
$DIMCLRE
 70
    0
  9
$DIMCLRT
 70
    0
  9
$DIMTFAC
 40
1
  9
$DIMGAP
 40
0.625
  9
$DIMJUST
 70
    0
  9
$DIMSD1
 70
    0
  9
$DIMSD2
 70
    0
  9
$DIMTOLJ
 70
    0
  9
$DIMTZIN
 70
    8
  9
$DIMALTZ
 70
    0
  9
$DIMALTTZ
 70
    0
  9
$DIMUPT
 70
    0
  9
$DIMDEC
 70
    2
  9
$DIMTDEC
 70
    2
  9
$DIMALTU
 70
    2
  9
$DIMALTTD
 70
    3
  9
$DIMTXSTY
  7
STANDARD
  9
$DIMAUNIT
 70
    0
  9
$DIMADEC
 70
    0
  9
$DIMALTRND
 40
0
  9
$DIMAZIN
 70
    0
  9
$DIMDSEP
 70
   44
  9
$DIMATFIT
 70
    3
  9
$DIMFRAC
 70
    0
  9
$DIMLDRBLK
  1
STANDARD
  9
$DIMLUNIT
 70
    2
  9
$DIMLWD
 70
   -2
  9
$DIMLWE
 70
   -2
  9
$DIMTMOVE
 70
    0
  9
$DIMFXL
 40
1
  9
$DIMFXLON
 70
    0
  9
$DIMJOGANG
 40
0.7854
  9
$DIMTFILL
 70
    0
  9
$DIMTFILLCLR
 70
    0
  9
$DIMARCSYM
 70
    0
  9
$DIMLTYPE
  6

  9
$DIMLTEX1
  6

  9
$DIMLTEX2
  6

  9
$LUNITS
 70
    2
  9
$LUPREC
 70
    4
  9
$SKETCHINC
 40
1
  9
$FILLETRAD
 40
0
  9
$AUNITS
 70
    0
  9
$AUPREC
 70
    2
  9
$MENU
  1
.
  9
$ELEVATION
 40
0
  9
$PELEVATION
 40
0
  9
$THICKNESS
 40
0
  9
$LIMCHECK
 70
    0
  9
$CHAMFERA
 40
0
  9
$CHAMFERB
 40
0
  9
$CHAMFERC
 40
0
  9
$CHAMFERD
 40
0
  9
$SKPOLY
 70
    0
  9
$USRTIMER
 70
    1
  9
$ANGBASE
 50
0
  9
$ANGDIR
 70
    0
  9
$PDMODE
 70
   34
  9
$PDSIZE
 40
0
  9
$PLINEWID
 40
0
  9
$SPLFRAME
 70
    0
  9
$SPLINETYPE
 70
    2
  9
$SPLINESEGS
 70
    8
  9
$HANDSEED
  5
20000
  9
$SURFTAB1
 70
    6
  9
$SURFTAB2
 70
    6
  9
$SURFTYPE
 70
    6
  9
$SURFU
 70
    6
  9
$SURFV
 70
    6
  9
$UCSBASE
  2

  9
$UCSNAME
  2

  9
$UCSORG
 10
0
 20
0
 30
0
  9
$UCSXDIR
 10
1
 20
0
 30
0
  9
$UCSYDIR
 10
0
 20
1
 30
0
  9
$UCSORTHOREF
  2

  9
$UCSORTHOVIEW
 70
    0
  9
$UCSORGTOP
 10
0
 20
0
 30
0
  9
$UCSORGBOTTOM
 10
0
 20
0
 30
0
  9
$UCSORGLEFT
 10
0
 20
0
 30
0
  9
$UCSORGRIGHT
 10
0
 20
0
 30
0
  9
$UCSORGFRONT
 10
0
 20
0
 30
0
  9
$UCSORGBACK
 10
0
 20
0
 30
0
  9
$PUCSBASE
  2

  9
$PUCSNAME
  2

  9
$PUCSORG
 10
0
 20
0
 30
0
  9
$PUCSXDIR
 10
1
 20
0
 30
0
  9
$PUCSYDIR
 10
0
 20
1
 30
0
  9
$PUCSORTHOREF
  2

  9
$PUCSORTHOVIEW
 70
    0
  9
$PUCSORGTOP
 10
0
 20
0
 30
0
  9
$PUCSORGBOTTOM
 10
0
 20
0
 30
0
  9
$PUCSORGLEFT
 10
0
 20
0
 30
0
  9
$PUCSORGRIGHT
 10
0
 20
0
 30
0
  9
$PUCSORGFRONT
 10
0
 20
0
 30
0
  9
$PUCSORGBACK
 10
0
 20
0
 30
0
  9
$USERI1
 70
    0
  9
$USERI2
 70
    0
  9
$USERI3
 70
    0
  9
$USERI4
 70
    0
  9
$USERI5
 70
    0
  9
$USERR1
 40
0
  9
$USERR2
 40
0
  9
$USERR3
 40
0
  9
$USERR4
 40
0
  9
$USERR5
 40
0
  9
$WORLDVIEW
 70
    1
  9
$SHADEDGE
 70
    3
  9
$SHADEDIF
 70
   70
  9
$TILEMODE
 70
    1
  9
$MAXACTVP
 70
   64
  9
$PINSBASE
 10
0
 20
0
 30
0
  9
$PLIMCHECK
 70
    0
  9
$PEXTMIN
 10
0
 20
0
 30
0
  9
$PEXTMAX
 10
0
 20
0
 30
0
  9
$GRIDMODE
 70
    1
  9
$SNAPSTYLE
 70
    0
  9
$PLIMMIN
 10
0
 20
0
  9
$PLIMMAX
 10
210
 20
297
  9
$UNITMODE
 70
    0
  9
$VISRETAIN
 70
    1
  9
$PLINEGEN
 70
    0
  9
$PSLTSCALE
 70
    1
  9
$TREEDEPTH
 70
 3020
  9
$CMLSTYLE
  2
Standard
  9
$CMLJUST
 70
    0
  9
$CMLSCALE
 40
20
  9
$PROXYGRAPHICS
 70
    1
  9
$MEASUREMENT
 70
    1
  9
$CELWEIGHT
370
   -1
  9
$ENDCAPS
280
    0
  9
$JOINSTYLE
280
    0
  9
$LWDISPLAY
290
    0
  9
$INSUNITS
 70
    4
  9
$HYPERLINKBASE
  1

  9
$STYLESHEET
  1

  9
$XEDIT
290
    1
  9
$CEPSNTYPE
380
    0
  9
$PSTYLEMODE
290
    1
  9
$EXTNAMES
290
    1
  9
$PSVPSCALE
 40
1
  9
$OLESTARTUP
290
    0
  9
$SORTENTS
280
  127
  9
$INDEXCTL
280
    0
  9
$HIDETEXT
280
    1
  9
$XCLIPFRAME
290
    0
  9
$HALOGAP
280
    0
  9
$OBSCOLOR
 70
  257
  9
$OBSLTYPE
280
    0
  9
$INTERSECTIONDISPLAY
280
    0
  9
$INTERSECTIONCOLOR
 70
  257
  9
$DIMASSOC
280
    1
  9
$PROJECTNAME
  1

  9
$CAMERADISPLAY
290
    0
  9
$LENSLENGTH
 40
50
  9
$CAMERAHEIGHT
 40
0
  9
$STEPSPERSEC
 40
2
  9
$STEPSIZE
 40
50
  9
$3DDWFPREC
 40
2
  9
$PSOLWIDTH
 40
5
  9
$PSOLHEIGHT
 40
80
  9
$LOFTANG1
 40
1.570796326794897
  9
$LOFTANG2
 40
1.570796326794897
  9
$LOFTMAG1
 40
0
  9
$LOFTMAG2
 40
0
  9
$LOFTPARAM
 70
    7
  9
$LOFTNORMALS
280
    1
  9
$LATITUDE
 40
1
  9
$LONGITUDE
 40
1
  9
$NORTHDIRECTION
 40
0
  9
$TIMEZONE
 70
-8000
  9
$LIGHTGLYPHDISPLAY
280
    1
  9
$TILEMODELIGHTSYNCH
280
    1
  9
$SOLIDHIST
280
    1
  9
$SHOWHIST
280
    1
  9
$DWFFRAME
280
    2
  9
$DGNFRAME
280
    0
  9
$REALWORLDSCALE
290
    1
  9
$INTERFERECOLOR
 62
    1
  9
$CSHADOW
280
    0
  9
$SHADOWPLANELOCATION
 40
0
  0
ENDSEC
  0
SECTION
  2
CLASSES
  0
ENDSEC
  0
SECTION
  2
TABLES
  0
TABLE
  2
VPORT
  5
8
330
0
100
AcDbSymbolTable
 70
    1
  0
VPORT
  5
31
330
2
100
AcDbSymbolTableRecord
100
AcDbViewportTableRecord
  2
*ACTIVE
 70
    0
 10
0
 20
0
 11
1
 21
1
 12
88.75257534246575
 22
62.34947945205479
 13
0
 23
0
 14
10
 24
10
 15
10
 25
10
 16
0
 26
0
 36
1
 17
0
 27
0
 37
0
 40
248.761698630137
 41
1.425831202046036
 42
50
 43
0
 44
0
 50
0
 51
0
 71
    0
 72
  100
 73
    1
 74
    3
 75
    0
 76
    1
 77
    0
 78
    0
281
    0
 65
    1
110
0
120
0
130
0
111
1
121
0
131
0
112
0
122
1
132
0
 79
    0
146
0
348
10020
 60
    7
 61
    5
292
1
282
    1
141
0
142
0
 63
  250
421
3358443
  0
ENDTAB
  0
TABLE
  2
LTYPE
  5
5
330
0
100
AcDbSymbolTable
 70
    4
  0
LTYPE
  5
14
330
5
100
AcDbSymbolTableRecord
100
AcDbLinetypeTableRecord
  2
ByBlock
 70
    0
  3

 72
   65
 73
    0
 40
0
  0
LTYPE
  5
15
330
5
100
AcDbSymbolTableRecord
100
AcDbLinetypeTableRecord
  2
ByLayer
 70
    0
  3

 72
   65
 73
    0
 40
0
  0
LTYPE
  5
16
330
5
100
AcDbSymbolTableRecord
100
AcDbLinetypeTableRecord
  2
Continuous
 70
    0
  3
Solid line
 72
   65
 73
    0
 40
0
  0
LTYPE
  5
32
330
5
100
AcDbSymbolTableRecord
100
AcDbLinetypeTableRecord
  2
DOT
 70
    0
  3
Dot . . . . . . . . . . . . . . . . . . . . . .
 72
   65
 73
    2
 40
6.35
 49
0
 74
    0
 49
-6.35
 74
    0
  0
LTYPE
  5
33
330
5
100
AcDbSymbolTableRecord
100
AcDbLinetypeTableRecord
  2
DOTTINY
 70
    0
  3
Dot (.15x) .....................................
 72
   65
 73
    2
 40
0.9525
 49
0
 74
    0
 49
-0.9525
 74
    0
  0
LTYPE
  5
34
330
5
100
AcDbSymbolTableRecord
100
AcDbLinetypeTableRecord
  2
DOT2
 70
    0
  3
Dot (.5x) .....................................
 72
   65
 73
    2
 40
3.175
 49
0
 74
    0
 49
-3.175
 74
    0
  0
LTYPE
  5
35
330
5
100
AcDbSymbolTableRecord
100
AcDbLinetypeTableRecord
  2
DOTX2
 70
    0
  3
Dot (2x) .  .  .  .  .  .  .  .  .  .  .  .  .
 72
   65
 73
    2
 40
12.7
 49
0
 74
    0
 49
-12.7
 74
    0
  0
LTYPE
  5
36
330
5
100
AcDbSymbolTableRecord
100
AcDbLinetypeTableRecord
  2
DASHED
 70
    0
  3
Dashed _ _ _ _ _ _ _ _ _ _ _ _ _ _ _ _ _
 72
   65
 73
    2
 40
19.05
 49
12.7
 74
    0
 49
-6.35
 74
    0
  0
LTYPE
  5
37
330
5
100
AcDbSymbolTableRecord
100
AcDbLinetypeTableRecord
  2
DASHEDTINY
 70
    0
  3
Dashed (.15x) _ _ _ _ _ _ _ _ _ _ _ _ _ _ _ _ _
 72
   65
 73
    2
 40
2.8575
 49
1.905
 74
    0
 49
-0.9525
 74
    0
  0
LTYPE
  5
38
330
5
100
AcDbSymbolTableRecord
100
AcDbLinetypeTableRecord
  2
DASHED2
 70
    0
  3
Dashed (.5x) _ _ _ _ _ _ _ _ _ _ _ _ _ _ _ _ _
 72
   65
 73
    2
 40
9.524999999999999
 49
6.35
 74
    0
 49
-3.175
 74
    0
  0
LTYPE
  5
39
330
5
100
AcDbSymbolTableRecord
100
AcDbLinetypeTableRecord
  2
DASHEDX2
 70
    0
  3
Dashed (2x) ____  ____  ____  ____  ____  ___
 72
   65
 73
    2
 40
38.09999999999999
 49
25.4
 74
    0
 49
-12.7
 74
    0
  0
LTYPE
  5
3A
330
5
100
AcDbSymbolTableRecord
100
AcDbLinetypeTableRecord
  2
DASHDOT
 70
    0
  3
Dash dot __ . __ . __ . __ . __ . __ . __ . __
 72
   65
 73
    4
 40
25.4
 49
12.7
 74
    0
 49
-6.35
 74
    0
 49
0
 74
    0
 49
-6.35
 74
    0
  0
LTYPE
  5
3B
330
5
100
AcDbSymbolTableRecord
100
AcDbLinetypeTableRecord
  2
DASHDOTTINY
 70
    0
  3
Dash dot (.15x) _._._._._._._._._._._._._._._.
 72
   65
 73
    4
 40
3.81
 49
1.905
 74
    0
 49
-0.9525
 74
    0
 49
0
 74
    0
 49
-0.9525
 74
    0
  0
LTYPE
  5
3C
330
5
100
AcDbSymbolTableRecord
100
AcDbLinetypeTableRecord
  2
DASHDOT2
 70
    0
  3
Dash dot (.5x) _._._._._._._._._._._._._._._.
 72
   65
 73
    4
 40
12.7
 49
6.35
 74
    0
 49
-3.175
 74
    0
 49
0
 74
    0
 49
-3.175
 74
    0
  0
LTYPE
  5
3D
330
5
100
AcDbSymbolTableRecord
100
AcDbLinetypeTableRecord
  2
DASHDOTX2
 70
    0
  3
Dash dot (2x) ____  .  ____  .  ____  .  ___
 72
   65
 73
    4
 40
50.8
 49
25.4
 74
    0
 49
-12.7
 74
    0
 49
0
 74
    0
 49
-12.7
 74
    0
  0
LTYPE
  5
3E
330
5
100
AcDbSymbolTableRecord
100
AcDbLinetypeTableRecord
  2
DIVIDE
 70
    0
  3
Divide ____ . . ____ . . ____ . . ____ . . ____
 72
   65
 73
    6
 40
31.75
 49
12.7
 74
    0
 49
-6.35
 74
    0
 49
0
 74
    0
 49
-6.35
 74
    0
 49
0
 74
    0
 49
-6.35
 74
    0
  0
LTYPE
  5
3F
330
5
100
AcDbSymbolTableRecord
100
AcDbLinetypeTableRecord
  2
DIVIDETINY
 70
    0
  3
Divide (.15x) __..__..__..__..__..__..__..__.._
 72
   65
 73
    6
 40
4.7625
 49
1.905
 74
    0
 49
-0.9525
 74
    0
 49
0
 74
    0
 49
-0.9525
 74
    0
 49
0
 74
    0
 49
-0.9525
 74
    0
  0
LTYPE
  5
40
330
5
100
AcDbSymbolTableRecord
100
AcDbLinetypeTableRecord
  2
DIVIDE2
 70
    0
  3
Divide (.5x) __..__..__..__..__..__..__..__.._
 72
   65
 73
    6
 40
15.875
 49
6.35
 74
    0
 49
-3.175
 74
    0
 49
0
 74
    0
 49
-3.175
 74
    0
 49
0
 74
    0
 49
-3.175
 74
    0
  0
LTYPE
  5
41
330
5
100
AcDbSymbolTableRecord
100
AcDbLinetypeTableRecord
  2
DIVIDEX2
 70
    0
  3
Divide (2x) ________  .  .  ________  .  .  _
 72
   65
 73
    6
 40
63.5
 49
25.4
 74
    0
 49
-12.7
 74
    0
 49
0
 74
    0
 49
-12.7
 74
    0
 49
0
 74
    0
 49
-12.7
 74
    0
  0
LTYPE
  5
42
330
5
100
AcDbSymbolTableRecord
100
AcDbLinetypeTableRecord
  2
BORDER
 70
    0
  3
Border __ __ . __ __ . __ __ . __ __ . __ __ .
 72
   65
 73
    6
 40
44.45
 49
12.7
 74
    0
 49
-6.35
 74
    0
 49
12.7
 74
    0
 49
-6.35
 74
    0
 49
0
 74
    0
 49
-6.35
 74
    0
  0
LTYPE
  5
43
330
5
100
AcDbSymbolTableRecord
100
AcDbLinetypeTableRecord
  2
BORDERTINY
 70
    0
  3
Border (.15x) __.__.__.__.__.__.__.__.__.__.__.
 72
   65
 73
    6
 40
6.6675
 49
1.905
 74
    0
 49
-0.9525
 74
    0
 49
1.905
 74
    0
 49
-0.9525
 74
    0
 49
0
 74
    0
 49
-0.9525
 74
    0
  0
LTYPE
  5
44
330
5
100
AcDbSymbolTableRecord
100
AcDbLinetypeTableRecord
  2
BORDER2
 70
    0
  3
Border (.5x) __.__.__.__.__.__.__.__.__.__.__.
 72
   65
 73
    6
 40
22.225
 49
6.35
 74
    0
 49
-3.175
 74
    0
 49
6.35
 74
    0
 49
-3.175
 74
    0
 49
0
 74
    0
 49
-3.175
 74
    0
  0
LTYPE
  5
45
330
5
100
AcDbSymbolTableRecord
100
AcDbLinetypeTableRecord
  2
BORDERX2
 70
    0
  3
Border (2x) ____  ____  .  ____  ____  .  ___
 72
   65
 73
    6
 40
88.89999999999999
 49
25.4
 74
    0
 49
-12.7
 74
    0
 49
25.4
 74
    0
 49
-12.7
 74
    0
 49
0
 74
    0
 49
-12.7
 74
    0
  0
LTYPE
  5
46
330
5
100
AcDbSymbolTableRecord
100
AcDbLinetypeTableRecord
  2
CENTER
 70
    0
  3
Center ____ _ ____ _ ____ _ ____ _ ____ _ ____
 72
   65
 73
    4
 40
50.8
 49
31.75
 74
    0
 49
-6.35
 74
    0
 49
6.35
 74
    0
 49
-6.35
 74
    0
  0
LTYPE
  5
47
330
5
100
AcDbSymbolTableRecord
100
AcDbLinetypeTableRecord
  2
CENTERTINY
 70
    0
  3
Center (.15x) ___ _ ___ _ ___ _ ___ _ ___ _ ___
 72
   65
 73
    4
 40
7.619999999999999
 49
4.7625
 74
    0
 49
-0.9525
 74
    0
 49
0.9525
 74
    0
 49
-0.9525
 74
    0
  0
LTYPE
  5
48
330
5
100
AcDbSymbolTableRecord
100
AcDbLinetypeTableRecord
  2
CENTER2
 70
    0
  3
Center (.5x) ___ _ ___ _ ___ _ ___ _ ___ _ ___
 72
   65
 73
    4
 40
28.575
 49
19.05
 74
    0
 49
-3.175
 74
    0
 49
3.175
 74
    0
 49
-3.175
 74
    0
  0
LTYPE
  5
49
330
5
100
AcDbSymbolTableRecord
100
AcDbLinetypeTableRecord
  2
CENTERX2
 70
    0
  3
Center (2x) ________  __  ________  __  _____
 72
   65
 73
    4
 40
101.6
 49
63.5
 74
    0
 49
-12.7
 74
    0
 49
12.7
 74
    0
 49
-12.7
 74
    0
  0
ENDTAB
  0
TABLE
  2
LAYER
  5
2
330
0
100
AcDbSymbolTable
 70
    1
  0
LAYER
  5
10
330
2
100
AcDbSymbolTableRecord
100
AcDbLayerTableRecord
  2
0
 70
    0
 62
    7
  6
CONTINUOUS
370
    0
390
F
  0
LAYER
  5
4A
330
2
100
AcDbSymbolTableRecord
100
AcDbLayerTableRecord
  2
ext1
 70
    0
 62
    1
  6
CONTINUOUS
370
   -3
390
F
  0
LAYER
  5
4B
330
2
100
AcDbSymbolTableRecord
100
AcDbLayerTableRecord
  2
ext2
 70
    0
 62
    3
  6
CONTINUOUS
370
   -3
390
F
  0
LAYER
  5
4C
330
2
100
AcDbSymbolTableRecord
100
AcDbLayerTableRecord
  2
ext3
 70
    0
 62
    4
  6
CONTINUOUS
370
   -3
390
F
  0
LAYER
  5
4D
330
2
100
AcDbSymbolTableRecord
100
AcDbLayerTableRecord
  2
ext4
 70
    0
 62
    6
  6
CONTINUOUS
370
   -3
390
F
  0
LAYER
  5
4E
330
2
100
AcDbSymbolTableRecord
100
AcDbLayerTableRecord
  2
pcb
 70
    0
 62
    2
  6
CONTINUOUS
370
   -3
390
F
  0
LAYER
  5
4F
330
2
100
AcDbSymbolTableRecord
100
AcDbLayerTableRecord
  2
placement
 70
    0
 62
    1
  6
CONTINUOUS
370
   -3
390
F
  0
LAYER
  5
50
330
2
100
AcDbSymbolTableRecord
100
AcDbLayerTableRecord
  2
promicro
 70
    0
 62
    3
  6
CONTINUOUS
370
   -3
390
F
  0
LAYER
  5
51
330
2
100
AcDbSymbolTableRecord
100
AcDbLayerTableRecord
  2
support
 70
    0
 62
  151
420
10993407
  6
CONTINUOUS
370
    0
390
F
  0
LAYER
  5
52
330
2
100
AcDbSymbolTableRecord
100
AcDbLayerTableRecord
  2
support1
 70
    0
 62
  253
420
10526884
  6
CONTINUOUS
370
    0
390
F
  0
ENDTAB
  0
TABLE
  2
STYLE
  5
3
330
0
100
AcDbSymbolTable
 70
    3
  0
STYLE
  5
53
330
2
100
AcDbSymbolTableRecord
100
AcDbTextStyleTableRecord
  2
Standard
 70
    0
 40
0
 41
1
 50
0
 71
    0
 42
1
  3
txt
  4

  0
ENDTAB
  0
TABLE
  2
VIEW
  5
6
330
0
100
AcDbSymbolTable
 70
    0
  0
ENDTAB
  0
TABLE
  2
UCS
  5
7
330
0
100
AcDbSymbolTable
 70
    0
  0
ENDTAB
  0
TABLE
  2
APPID
  5
9
330
0
100
AcDbSymbolTable
 70
    1
  0
APPID
  5
12
330
9
100
AcDbSymbolTableRecord
100
AcDbRegAppTableRecord
  2
ACAD
 70
    0
  0
APPID
  5
54
330
9
100
AcDbSymbolTableRecord
100
AcDbRegAppTableRecord
  2
LibreCad
 70
    0
  0
ENDTAB
  0
TABLE
  2
DIMSTYLE
  5
A
330
0
100
AcDbSymbolTable
 70
    1
100
AcDbDimStyleTable
 71
    1
  0
DIMSTYLE
105
55
330
A
100
AcDbSymbolTableRecord
100
AcDbDimStyleTableRecord
  2
Standard
 70
    0
 40
2.5
 41
2.5
 42
0.625
 43
0.38
 44
1.25
 45
0
 46
0
 47
0
 48
0
 49
1
140
2.5
141
0.09
142
0
143
25.4
144
1
145
0
146
1
147
0.625
148
0
 71
    0
 72
    0
 73
    0
 74
    1
 75
    0
 76
    0
 77
    0
 78
    8
 79
    0
170
    0
171
    2
172
    0
173
    0
174
    0
175
    0
176
    0
177
    0
178
    0
179
    0
271
    2
272
    4
273
    2
274
    2
275
    0
276
    0
277
    2
278
   44
279
    0
280
    0
281
    0
282
    0
283
    1
284
    0
285
    0
286
    0
288
    0
289
    3
340
STANDARD
341

371
   -2
372
   -2
  0
ENDTAB
  0
TABLE
  2
BLOCK_RECORD
  5
1
330
0
100
AcDbSymbolTable
 70
    2
  0
BLOCK_RECORD
  5
1F
330
1
100
AcDbSymbolTableRecord
100
AcDbBlockTableRecord
  2
*Model_Space
 70
    0
280
    1
281
    0
  0
BLOCK_RECORD
  5
1E
330
1
100
AcDbSymbolTableRecord
100
AcDbBlockTableRecord
  2
*Paper_Space
 70
    0
280
    1
281
    0
  0
ENDTAB
  0
ENDSEC
  0
SECTION
  2
BLOCKS
  0
BLOCK
  5
20
330
1F
100
AcDbEntity
  8
0
100
AcDbBlockBegin
  2
*Model_Space
 70
    0
 10
0
 20
0
 30
0
  3
*Model_Space
  1

  0
ENDBLK
  5
21
330
1F
100
AcDbEntity
  8
0
100
AcDbBlockEnd
  0
BLOCK
  5
1C
330
1B
100
AcDbEntity
  8
0
100
AcDbBlockBegin
  2
*Paper_Space
 70
    0
 10
0
 20
0
 30
0
  3
*Paper_Space
  1

  0
ENDBLK
  5
1D
330
1F
100
AcDbEntity
  8
0
100
AcDbBlockEnd
  0
ENDSEC
  0
SECTION
  2
ENTITIES
  0
LINE
  5
56
100
AcDbEntity
  8
0
  6
ByLayer
 62
  256
370
   -1
100
AcDbLine
 10
-163.6625002230756
 20
37.95625049641598
 11
-150.6625002230756
 21
37.95625049641598
  0
LINE
  5
57
100
AcDbEntity
  8
0
  6
ByLayer
 62
  256
370
   -1
100
AcDbLine
 10
-163.6625002230756
 20
23.95625049641598
 11
-150.6625002230756
 21
23.95625049641598
  0
LINE
  5
58
100
AcDbEntity
  8
0
  6
ByLayer
 62
  256
370
   -1
100
AcDbLine
 10
-164.1625002230756
 20
37.45625049641598
 11
-164.1625002230756
 21
24.45625049641598
  0
LINE
  5
59
100
AcDbEntity
  8
0
  6
ByLayer
 62
  256
370
   -1
100
AcDbLine
 10
-150.1625002230756
 20
37.45625049641598
 11
-150.1625002230756
 21
24.45625049641598
  0
ARC
  5
5A
100
AcDbEntity
  8
0
  6
ByLayer
 62
  256
370
   -1
100
AcDbCircle
 10
-163.6625002230756
 20
37.45625049641598
 40
0.5
100
AcDbArc
 50
90
 51
180
  0
ARC
  5
5B
100
AcDbEntity
  8
0
  6
ByLayer
 62
  256
370
   -1
100
AcDbCircle
 10
-150.6625002230756
 20
37.45625049641598
 40
0.5
100
AcDbArc
 50
0
 51
90
  0
ARC
  5
5C
100
AcDbEntity
  8
0
  6
ByLayer
 62
  256
370
   -1
100
AcDbCircle
 10
-163.6625002230756
 20
24.45625049641598
 40
0.5
100
AcDbArc
 50
180
 51
270
  0
ARC
  5
5D
100
AcDbEntity
  8
0
  6
ByLayer
 62
  256
370
   -1
100
AcDbCircle
 10
-150.6625002230756
 20
24.45625049641598
 40
0.5
100
AcDbArc
 50
270
 51
0
  0
LINE
  5
5E
100
AcDbEntity
  8
0
  6
ByLayer
 62
  256
370
   -1
100
AcDbLine
 10
-144.6125002230756
 20
37.95625049641598
 11
-131.6125002230756
 21
37.95625049641598
  0
LINE
  5
5F
100
AcDbEntity
  8
0
  6
ByLayer
 62
  256
370
   -1
100
AcDbLine
 10
-144.6125002230756
 20
23.95625049641598
 11
-131.6125002230756
 21
23.95625049641598
  0
LINE
  5
60
100
AcDbEntity
  8
0
  6
ByLayer
 62
  256
370
   -1
100
AcDbLine
 10
-145.1125002230756
 20
37.45625049641598
 11
-145.1125002230756
 21
24.45625049641598
  0
LINE
  5
61
100
AcDbEntity
  8
0
  6
ByLayer
 62
  256
370
   -1
100
AcDbLine
 10
-131.1125002230756
 20
37.45625049641598
 11
-131.1125002230756
 21
24.45625049641598
  0
ARC
  5
62
100
AcDbEntity
  8
0
  6
ByLayer
 62
  256
370
   -1
100
AcDbCircle
 10
-144.6125002230756
 20
37.45625049641598
 40
0.5
100
AcDbArc
 50
90
 51
180
  0
ARC
  5
63
100
AcDbEntity
  8
0
  6
ByLayer
 62
  256
370
   -1
100
AcDbCircle
 10
-131.6125002230756
 20
37.45625049641598
 40
0.5
100
AcDbArc
 50
0
 51
90
  0
ARC
  5
64
100
AcDbEntity
  8
0
  6
ByLayer
 62
  256
370
   -1
100
AcDbCircle
 10
-144.6125002230756
 20
24.45625049641598
 40
0.5
100
AcDbArc
 50
180
 51
270
  0
ARC
  5
65
100
AcDbEntity
  8
0
  6
ByLayer
 62
  256
370
   -1
100
AcDbCircle
 10
-131.6125002230756
 20
24.45625049641598
 40
0.5
100
AcDbArc
 50
270
 51
0
  0
LINE
  5
66
100
AcDbEntity
  8
0
  6
ByLayer
 62
  256
370
   -1
100
AcDbLine
 10
-125.5625002230756
 20
37.95625049641598
 11
-112.5625002230756
 21
37.95625049641598
  0
LINE
  5
67
100
AcDbEntity
  8
0
  6
ByLayer
 62
  256
370
   -1
100
AcDbLine
 10
-125.5625002230756
 20
23.95625049641598
 11
-112.5625002230756
 21
23.95625049641598
  0
LINE
  5
68
100
AcDbEntity
  8
0
  6
ByLayer
 62
  256
370
   -1
100
AcDbLine
 10
-126.0625002230756
 20
37.45625049641598
 11
-126.0625002230756
 21
24.45625049641598
  0
LINE
  5
69
100
AcDbEntity
  8
0
  6
ByLayer
 62
  256
370
   -1
100
AcDbLine
 10
-112.0625002230756
 20
37.45625049641598
 11
-112.0625002230756
 21
24.45625049641598
  0
ARC
  5
6A
100
AcDbEntity
  8
0
  6
ByLayer
 62
  256
370
   -1
100
AcDbCircle
 10
-125.5625002230756
 20
37.45625049641598
 40
0.5
100
AcDbArc
 50
90
 51
180
  0
ARC
  5
6B
100
AcDbEntity
  8
0
  6
ByLayer
 62
  256
370
   -1
100
AcDbCircle
 10
-112.5625002230756
 20
37.45625049641598
 40
0.5
100
AcDbArc
 50
0
 51
90
  0
ARC
  5
6C
100
AcDbEntity
  8
0
  6
ByLayer
 62
  256
370
   -1
100
AcDbCircle
 10
-125.5625002230756
 20
24.45625049641598
 40
0.5
100
AcDbArc
 50
180
 51
270
  0
ARC
  5
6D
100
AcDbEntity
  8
0
  6
ByLayer
 62
  256
370
   -1
100
AcDbCircle
 10
-112.5625002230756
 20
24.45625049641598
 40
0.5
100
AcDbArc
 50
270
 51
0
  0
LINE
  5
6E
100
AcDbEntity
  8
0
  6
ByLayer
 62
  256
370
   -1
100
AcDbLine
 10
-106.5125002230756
 20
37.95625049641598
 11
-93.51250022307558
 21
37.95625049641598
  0
LINE
  5
6F
100
AcDbEntity
  8
0
  6
ByLayer
 62
  256
370
   -1
100
AcDbLine
 10
-106.5125002230756
 20
23.95625049641598
 11
-93.51250022307558
 21
23.95625049641598
  0
LINE
  5
70
100
AcDbEntity
  8
0
  6
ByLayer
 62
  256
370
   -1
100
AcDbLine
 10
-107.0125002230756
 20
37.45625049641598
 11
-107.0125002230756
 21
24.45625049641598
  0
LINE
  5
71
100
AcDbEntity
  8
0
  6
ByLayer
 62
  256
370
   -1
100
AcDbLine
 10
-93.01250022307558
 20
37.45625049641598
 11
-93.01250022307558
 21
24.45625049641598
  0
ARC
  5
72
100
AcDbEntity
  8
0
  6
ByLayer
 62
  256
370
   -1
100
AcDbCircle
 10
-106.5125002230756
 20
37.45625049641598
 40
0.5
100
AcDbArc
 50
90
 51
180
  0
ARC
  5
73
100
AcDbEntity
  8
0
  6
ByLayer
 62
  256
370
   -1
100
AcDbCircle
 10
-93.51250022307558
 20
37.45625049641598
 40
0.5
100
AcDbArc
 50
0
 51
90
  0
ARC
  5
74
100
AcDbEntity
  8
0
  6
ByLayer
 62
  256
370
   -1
100
AcDbCircle
 10
-106.5125002230756
 20
24.45625049641598
 40
0.5
100
AcDbArc
 50
180
 51
270
  0
ARC
  5
75
100
AcDbEntity
  8
0
  6
ByLayer
 62
  256
370
   -1
100
AcDbCircle
 10
-93.51250022307558
 20
24.45625049641598
 40
0.5
100
AcDbArc
 50
270
 51
0
  0
LINE
  5
76
100
AcDbEntity
  8
0
  6
ByLayer
 62
  256
370
   -1
100
AcDbLine
 10
-87.46250022307558
 20
37.95625049641598
 11
-74.46250022307558
 21
37.95625049641598
  0
LINE
  5
77
100
AcDbEntity
  8
0
  6
ByLayer
 62
  256
370
   -1
100
AcDbLine
 10
-87.46250022307558
 20
23.95625049641598
 11
-74.46250022307558
 21
23.95625049641598
  0
LINE
  5
78
100
AcDbEntity
  8
0
  6
ByLayer
 62
  256
370
   -1
100
AcDbLine
 10
-87.96250022307558
 20
37.45625049641598
 11
-87.96250022307558
 21
24.45625049641598
  0
LINE
  5
79
100
AcDbEntity
  8
0
  6
ByLayer
 62
  256
370
   -1
100
AcDbLine
 10
-73.96250022307558
 20
37.45625049641598
 11
-73.96250022307558
 21
24.45625049641598
  0
ARC
  5
7A
100
AcDbEntity
  8
0
  6
ByLayer
 62
  256
370
   -1
100
AcDbCircle
 10
-87.46250022307558
 20
37.45625049641598
 40
0.5
100
AcDbArc
 50
90
 51
180
  0
ARC
  5
7B
100
AcDbEntity
  8
0
  6
ByLayer
 62
  256
370
   -1
100
AcDbCircle
 10
-74.46250022307558
 20
37.45625049641598
 40
0.5
100
AcDbArc
 50
0
 51
90
  0
ARC
  5
7C
100
AcDbEntity
  8
0
  6
ByLayer
 62
  256
370
   -1
100
AcDbCircle
 10
-87.46250022307558
 20
24.45625049641598
 40
0.5
100
AcDbArc
 50
180
 51
270
  0
ARC
  5
7D
100
AcDbEntity
  8
0
  6
ByLayer
 62
  256
370
   -1
100
AcDbCircle
 10
-74.46250022307558
 20
24.45625049641598
 40
0.5
100
AcDbArc
 50
270
 51
0
  0
LINE
  5
7E
100
AcDbEntity
  8
0
  6
ByLayer
 62
  256
370
   -1
100
AcDbLine
 10
-68.41250022307557
 20
37.95625049641598
 11
-55.41250022307557
 21
37.95625049641598
  0
LINE
  5
7F
100
AcDbEntity
  8
0
  6
ByLayer
 62
  256
370
   -1
100
AcDbLine
 10
-68.41250022307557
 20
23.95625049641598
 11
-55.41250022307557
 21
23.95625049641598
  0
LINE
  5
80
100
AcDbEntity
  8
0
  6
ByLayer
 62
  256
370
   -1
100
AcDbLine
 10
-68.91250022307557
 20
37.45625049641598
 11
-68.91250022307557
 21
24.45625049641598
  0
LINE
  5
81
100
AcDbEntity
  8
0
  6
ByLayer
 62
  256
370
   -1
100
AcDbLine
 10
-54.91250022307557
 20
37.45625049641598
 11
-54.91250022307557
 21
24.45625049641598
  0
ARC
  5
82
100
AcDbEntity
  8
0
  6
ByLayer
 62
  256
370
   -1
100
AcDbCircle
 10
-68.41250022307557
 20
37.45625049641598
 40
0.5
100
AcDbArc
 50
90
 51
180
  0
ARC
  5
83
100
AcDbEntity
  8
0
  6
ByLayer
 62
  256
370
   -1
100
AcDbCircle
 10
-55.41250022307557
 20
37.45625049641598
 40
0.5
100
AcDbArc
 50
0
 51
90
  0
ARC
  5
84
100
AcDbEntity
  8
0
  6
ByLayer
 62
  256
370
   -1
100
AcDbCircle
 10
-68.41250022307557
 20
24.45625049641598
 40
0.5
100
AcDbArc
 50
180
 51
270
  0
ARC
  5
85
100
AcDbEntity
  8
0
  6
ByLayer
 62
  256
370
   -1
100
AcDbCircle
 10
-55.41250022307557
 20
24.45625049641598
 40
0.5
100
AcDbArc
 50
270
 51
0
  0
LINE
  5
86
100
AcDbEntity
  8
0
  6
ByLayer
 62
  256
370
   -1
100
AcDbLine
 10
-49.36250022307557
 20
37.95625049641598
 11
-36.36250022307559
 21
37.95625049641598
  0
LINE
  5
87
100
AcDbEntity
  8
0
  6
ByLayer
 62
  256
370
   -1
100
AcDbLine
 10
-49.36250022307557
 20
23.95625049641598
 11
-36.36250022307559
 21
23.95625049641598
  0
LINE
  5
88
100
AcDbEntity
  8
0
  6
ByLayer
 62
  256
370
   -1
100
AcDbLine
 10
-49.86250022307557
 20
37.45625049641598
 11
-49.86250022307557
 21
24.45625049641598
  0
LINE
  5
89
100
AcDbEntity
  8
0
  6
ByLayer
 62
  256
370
   -1
100
AcDbLine
 10
-35.86250022307559
 20
37.45625049641598
 11
-35.86250022307559
 21
24.45625049641598
  0
ARC
  5
8A
100
AcDbEntity
  8
0
  6
ByLayer
 62
  256
370
   -1
100
AcDbCircle
 10
-49.36250022307557
 20
37.45625049641598
 40
0.5
100
AcDbArc
 50
90
 51
180
  0
ARC
  5
8B
100
AcDbEntity
  8
0
  6
ByLayer
 62
  256
370
   -1
100
AcDbCircle
 10
-36.36250022307559
 20
37.45625049641598
 40
0.5
100
AcDbArc
 50
0
 51
90
  0
ARC
  5
8C
100
AcDbEntity
  8
0
  6
ByLayer
 62
  256
370
   -1
100
AcDbCircle
 10
-49.36250022307557
 20
24.45625049641598
 40
0.5
100
AcDbArc
 50
180
 51
270
  0
ARC
  5
8D
100
AcDbEntity
  8
0
  6
ByLayer
 62
  256
370
   -1
100
AcDbCircle
 10
-36.36250022307559
 20
24.45625049641598
 40
0.5
100
AcDbArc
 50
270
 51
0
  0
LINE
  5
8E
100
AcDbEntity
  8
0
  6
ByLayer
 62
  256
370
   -1
100
AcDbLine
 10
-30.31250022307557
 20
37.95625049641598
 11
-17.31250022307557
 21
37.95625049641598
  0
LINE
  5
8F
100
AcDbEntity
  8
0
  6
ByLayer
 62
  256
370
   -1
100
AcDbLine
 10
-30.31250022307557
 20
23.95625049641598
 11
-17.31250022307557
 21
23.95625049641598
  0
LINE
  5
90
100
AcDbEntity
  8
0
  6
ByLayer
 62
  256
370
   -1
100
AcDbLine
 10
-30.81250022307557
 20
37.45625049641598
 11
-30.81250022307557
 21
24.45625049641598
  0
LINE
  5
91
100
AcDbEntity
  8
0
  6
ByLayer
 62
  256
370
   -1
100
AcDbLine
 10
-16.81250022307557
 20
37.45625049641598
 11
-16.81250022307557
 21
24.45625049641598
  0
ARC
  5
92
100
AcDbEntity
  8
0
  6
ByLayer
 62
  256
370
   -1
100
AcDbCircle
 10
-30.31250022307557
 20
37.45625049641598
 40
0.5
100
AcDbArc
 50
90
 51
180
  0
ARC
  5
93
100
AcDbEntity
  8
0
  6
ByLayer
 62
  256
370
   -1
100
AcDbCircle
 10
-17.31250022307557
 20
37.45625049641598
 40
0.5
100
AcDbArc
 50
0
 51
90
  0
ARC
  5
94
100
AcDbEntity
  8
0
  6
ByLayer
 62
  256
370
   -1
100
AcDbCircle
 10
-30.31250022307557
 20
24.45625049641598
 40
0.5
100
AcDbArc
 50
180
 51
270
  0
ARC
  5
95
100
AcDbEntity
  8
0
  6
ByLayer
 62
  256
370
   -1
100
AcDbCircle
 10
-17.31250022307557
 20
24.45625049641598
 40
0.5
100
AcDbArc
 50
270
 51
0
  0
LINE
  5
96
100
AcDbEntity
  8
0
  6
ByLayer
 62
  256
370
   -1
100
AcDbLine
 10
-11.26250022307556
 20
37.95625049641598
 11
1.737499776924437
 21
37.95625049641598
  0
LINE
  5
97
100
AcDbEntity
  8
0
  6
ByLayer
 62
  256
370
   -1
100
AcDbLine
 10
-11.26250022307556
 20
23.95625049641598
 11
1.737499776924437
 21
23.95625049641598
  0
LINE
  5
98
100
AcDbEntity
  8
0
  6
ByLayer
 62
  256
370
   -1
100
AcDbLine
 10
-11.76250022307556
 20
37.45625049641598
 11
-11.76250022307556
 21
24.45625049641598
  0
LINE
  5
99
100
AcDbEntity
  8
0
  6
ByLayer
 62
  256
370
   -1
100
AcDbLine
 10
2.237499776924437
 20
37.45625049641598
 11
2.237499776924437
 21
24.45625049641598
  0
ARC
  5
9A
100
AcDbEntity
  8
0
  6
ByLayer
 62
  256
370
   -1
100
AcDbCircle
 10
-11.26250022307556
 20
37.45625049641598
 40
0.5
100
AcDbArc
 50
90
 51
180
  0
ARC
  5
9B
100
AcDbEntity
  8
0
  6
ByLayer
 62
  256
370
   -1
100
AcDbCircle
 10
1.737499776924437
 20
37.45625049641598
 40
0.5
100
AcDbArc
 50
0
 51
90
  0
ARC
  5
9C
100
AcDbEntity
  8
0
  6
ByLayer
 62
  256
370
   -1
100
AcDbCircle
 10
-11.26250022307556
 20
24.45625049641598
 40
0.5
100
AcDbArc
 50
180
 51
270
  0
ARC
  5
9D
100
AcDbEntity
  8
0
  6
ByLayer
 62
  256
370
   -1
100
AcDbCircle
 10
1.737499776924437
 20
24.45625049641598
 40
0.5
100
AcDbArc
 50
270
 51
0
  0
LINE
  5
9E
100
AcDbEntity
  8
0
  6
ByLayer
 62
  256
370
   -1
100
AcDbLine
 10
7.78749977692442
 20
37.95625049641598
 11
20.78749977692442
 21
37.95625049641598
  0
LINE
  5
9F
100
AcDbEntity
  8
0
  6
ByLayer
 62
  256
370
   -1
100
AcDbLine
 10
7.78749977692442
 20
23.95625049641598
 11
20.78749977692442
 21
23.95625049641598
  0
LINE
  5
A0
100
AcDbEntity
  8
0
  6
ByLayer
 62
  256
370
   -1
100
AcDbLine
 10
7.28749977692442
 20
37.45625049641598
 11
7.28749977692442
 21
24.45625049641598
  0
LINE
  5
A1
100
AcDbEntity
  8
0
  6
ByLayer
 62
  256
370
   -1
100
AcDbLine
 10
21.28749977692442
 20
37.45625049641598
 11
21.28749977692442
 21
24.45625049641598
  0
ARC
  5
A2
100
AcDbEntity
  8
0
  6
ByLayer
 62
  256
370
   -1
100
AcDbCircle
 10
7.78749977692442
 20
37.45625049641598
 40
0.5
100
AcDbArc
 50
90
 51
180
  0
ARC
  5
A3
100
AcDbEntity
  8
0
  6
ByLayer
 62
  256
370
   -1
100
AcDbCircle
 10
20.78749977692442
 20
37.45625049641598
 40
0.5
100
AcDbArc
 50
0
 51
90
  0
ARC
  5
A4
100
AcDbEntity
  8
0
  6
ByLayer
 62
  256
370
   -1
100
AcDbCircle
 10
7.78749977692442
 20
24.45625049641598
 40
0.5
100
AcDbArc
 50
180
 51
270
  0
ARC
  5
A5
100
AcDbEntity
  8
0
  6
ByLayer
 62
  256
370
   -1
100
AcDbCircle
 10
20.78749977692442
 20
24.45625049641598
 40
0.5
100
AcDbArc
 50
270
 51
0
  0
LINE
  5
A6
100
AcDbEntity
  8
0
  6
ByLayer
 62
  256
370
   -1
100
AcDbLine
 10
26.83749977692443
 20
37.95625049641598
 11
39.83749977692443
 21
37.95625049641598
  0
LINE
  5
A7
100
AcDbEntity
  8
0
  6
ByLayer
 62
  256
370
   -1
100
AcDbLine
 10
26.83749977692443
 20
23.95625049641598
 11
39.83749977692443
 21
23.95625049641598
  0
LINE
  5
A8
100
AcDbEntity
  8
0
  6
ByLayer
 62
  256
370
   -1
100
AcDbLine
 10
26.33749977692443
 20
37.45625049641598
 11
26.33749977692443
 21
24.45625049641598
  0
LINE
  5
A9
100
AcDbEntity
  8
0
  6
ByLayer
 62
  256
370
   -1
100
AcDbLine
 10
40.33749977692443
 20
37.45625049641598
 11
40.33749977692443
 21
24.45625049641598
  0
ARC
  5
AA
100
AcDbEntity
  8
0
  6
ByLayer
 62
  256
370
   -1
100
AcDbCircle
 10
26.83749977692443
 20
37.45625049641598
 40
0.5
100
AcDbArc
 50
90
 51
180
  0
ARC
  5
AB
100
AcDbEntity
  8
0
  6
ByLayer
 62
  256
370
   -1
100
AcDbCircle
 10
39.83749977692443
 20
37.45625049641598
 40
0.5
100
AcDbArc
 50
0
 51
90
  0
ARC
  5
AC
100
AcDbEntity
  8
0
  6
ByLayer
 62
  256
370
   -1
100
AcDbCircle
 10
26.83749977692443
 20
24.45625049641598
 40
0.5
100
AcDbArc
 50
180
 51
270
  0
ARC
  5
AD
100
AcDbEntity
  8
0
  6
ByLayer
 62
  256
370
   -1
100
AcDbCircle
 10
39.83749977692443
 20
24.45625049641598
 40
0.5
100
AcDbArc
 50
270
 51
0
  0
LINE
  5
AE
100
AcDbEntity
  8
0
  6
ByLayer
 62
  256
370
   -1
100
AcDbLine
 10
45.88749977692441
 20
37.95625049641598
 11
58.88749977692441
 21
37.95625049641598
  0
LINE
  5
AF
100
AcDbEntity
  8
0
  6
ByLayer
 62
  256
370
   -1
100
AcDbLine
 10
45.88749977692441
 20
23.95625049641598
 11
58.88749977692441
 21
23.95625049641598
  0
LINE
  5
B0
100
AcDbEntity
  8
0
  6
ByLayer
 62
  256
370
   -1
100
AcDbLine
 10
45.38749977692441
 20
37.45625049641598
 11
45.38749977692441
 21
24.45625049641598
  0
LINE
  5
B1
100
AcDbEntity
  8
0
  6
ByLayer
 62
  256
370
   -1
100
AcDbLine
 10
59.38749977692441
 20
37.45625049641598
 11
59.38749977692441
 21
24.45625049641598
  0
ARC
  5
B2
100
AcDbEntity
  8
0
  6
ByLayer
 62
  256
370
   -1
100
AcDbCircle
 10
45.88749977692441
 20
37.45625049641598
 40
0.5
100
AcDbArc
 50
90
 51
180
  0
ARC
  5
B3
100
AcDbEntity
  8
0
  6
ByLayer
 62
  256
370
   -1
100
AcDbCircle
 10
58.88749977692441
 20
37.45625049641598
 40
0.5
100
AcDbArc
 50
0
 51
90
  0
ARC
  5
B4
100
AcDbEntity
  8
0
  6
ByLayer
 62
  256
370
   -1
100
AcDbCircle
 10
45.88749977692441
 20
24.45625049641598
 40
0.5
100
AcDbArc
 50
180
 51
270
  0
ARC
  5
B5
100
AcDbEntity
  8
0
  6
ByLayer
 62
  256
370
   -1
100
AcDbCircle
 10
58.88749977692441
 20
24.45625049641598
 40
0.5
100
AcDbArc
 50
270
 51
0
  0
LINE
  5
B6
100
AcDbEntity
  8
0
  6
ByLayer
 62
  256
370
   -1
100
AcDbLine
 10
93.51249977692441
 20
37.95625049641598
 11
106.5124997769244
 21
37.95625049641598
  0
LINE
  5
B7
100
AcDbEntity
  8
0
  6
ByLayer
 62
  256
370
   -1
100
AcDbLine
 10
93.51249977692441
 20
23.95625049641598
 11
106.5124997769244
 21
23.95625049641598
  0
LINE
  5
B8
100
AcDbEntity
  8
0
  6
ByLayer
 62
  256
370
   -1
100
AcDbLine
 10
93.01249977692441
 20
37.45625049641598
 11
93.01249977692441
 21
24.45625049641598
  0
LINE
  5
B9
100
AcDbEntity
  8
0
  6
ByLayer
 62
  256
370
   -1
100
AcDbLine
 10
107.0124997769244
 20
37.45625049641598
 11
107.0124997769244
 21
24.45625049641598
  0
ARC
  5
BA
100
AcDbEntity
  8
0
  6
ByLayer
 62
  256
370
   -1
100
AcDbCircle
 10
93.51249977692441
 20
37.45625049641598
 40
0.5
100
AcDbArc
 50
90
 51
180
  0
ARC
  5
BB
100
AcDbEntity
  8
0
  6
ByLayer
 62
  256
370
   -1
100
AcDbCircle
 10
106.5124997769244
 20
37.45625049641598
 40
0.5
100
AcDbArc
 50
0
 51
90
  0
ARC
  5
BC
100
AcDbEntity
  8
0
  6
ByLayer
 62
  256
370
   -1
100
AcDbCircle
 10
93.51249977692441
 20
24.45625049641598
 40
0.5
100
AcDbArc
 50
180
 51
270
  0
ARC
  5
BD
100
AcDbEntity
  8
0
  6
ByLayer
 62
  256
370
   -1
100
AcDbCircle
 10
106.5124997769244
 20
24.45625049641598
 40
0.5
100
AcDbArc
 50
270
 51
0
  0
LINE
  5
BE
100
AcDbEntity
  8
0
  6
ByLayer
 62
  256
370
   -1
100
AcDbLine
 10
112.5624997769244
 20
37.95625049641598
 11
125.5624997769244
 21
37.95625049641598
  0
LINE
  5
BF
100
AcDbEntity
  8
0
  6
ByLayer
 62
  256
370
   -1
100
AcDbLine
 10
112.5624997769244
 20
23.95625049641598
 11
125.5624997769244
 21
23.95625049641598
  0
LINE
  5
C0
100
AcDbEntity
  8
0
  6
ByLayer
 62
  256
370
   -1
100
AcDbLine
 10
112.0624997769244
 20
37.45625049641598
 11
112.0624997769244
 21
24.45625049641598
  0
LINE
  5
C1
100
AcDbEntity
  8
0
  6
ByLayer
 62
  256
370
   -1
100
AcDbLine
 10
126.0624997769244
 20
37.45625049641598
 11
126.0624997769244
 21
24.45625049641598
  0
ARC
  5
C2
100
AcDbEntity
  8
0
  6
ByLayer
 62
  256
370
   -1
100
AcDbCircle
 10
112.5624997769244
 20
37.45625049641598
 40
0.5
100
AcDbArc
 50
90
 51
180
  0
ARC
  5
C3
100
AcDbEntity
  8
0
  6
ByLayer
 62
  256
370
   -1
100
AcDbCircle
 10
125.5624997769244
 20
37.45625049641598
 40
0.5
100
AcDbArc
 50
0
 51
90
  0
ARC
  5
C4
100
AcDbEntity
  8
0
  6
ByLayer
 62
  256
370
   -1
100
AcDbCircle
 10
112.5624997769244
 20
24.45625049641598
 40
0.5
100
AcDbArc
 50
180
 51
270
  0
ARC
  5
C5
100
AcDbEntity
  8
0
  6
ByLayer
 62
  256
370
   -1
100
AcDbCircle
 10
125.5624997769244
 20
24.45625049641598
 40
0.5
100
AcDbArc
 50
270
 51
0
  0
LINE
  5
C6
100
AcDbEntity
  8
0
  6
ByLayer
 62
  256
370
   -1
100
AcDbLine
 10
131.6124997769244
 20
37.95625049641598
 11
144.6124997769244
 21
37.95625049641598
  0
LINE
  5
C7
100
AcDbEntity
  8
0
  6
ByLayer
 62
  256
370
   -1
100
AcDbLine
 10
131.6124997769244
 20
23.95625049641598
 11
144.6124997769244
 21
23.95625049641598
  0
LINE
  5
C8
100
AcDbEntity
  8
0
  6
ByLayer
 62
  256
370
   -1
100
AcDbLine
 10
131.1124997769244
 20
37.45625049641598
 11
131.1124997769244
 21
24.45625049641598
  0
LINE
  5
C9
100
AcDbEntity
  8
0
  6
ByLayer
 62
  256
370
   -1
100
AcDbLine
 10
145.1124997769244
 20
37.45625049641598
 11
145.1124997769244
 21
24.45625049641598
  0
ARC
  5
CA
100
AcDbEntity
  8
0
  6
ByLayer
 62
  256
370
   -1
100
AcDbCircle
 10
131.6124997769244
 20
37.45625049641598
 40
0.5
100
AcDbArc
 50
90
 51
180
  0
ARC
  5
CB
100
AcDbEntity
  8
0
  6
ByLayer
 62
  256
370
   -1
100
AcDbCircle
 10
144.6124997769244
 20
37.45625049641598
 40
0.5
100
AcDbArc
 50
0
 51
90
  0
ARC
  5
CC
100
AcDbEntity
  8
0
  6
ByLayer
 62
  256
370
   -1
100
AcDbCircle
 10
131.6124997769244
 20
24.45625049641598
 40
0.5
100
AcDbArc
 50
180
 51
270
  0
ARC
  5
CD
100
AcDbEntity
  8
0
  6
ByLayer
 62
  256
370
   -1
100
AcDbCircle
 10
144.6124997769244
 20
24.45625049641598
 40
0.5
100
AcDbArc
 50
270
 51
0
  0
LINE
  5
CE
100
AcDbEntity
  8
0
  6
ByLayer
 62
  256
370
   -1
100
AcDbLine
 10
150.6624997769244
 20
37.95625049641598
 11
163.6624997769244
 21
37.95625049641598
  0
LINE
  5
CF
100
AcDbEntity
  8
0
  6
ByLayer
 62
  256
370
   -1
100
AcDbLine
 10
150.6624997769244
 20
23.95625049641598
 11
163.6624997769244
 21
23.95625049641598
  0
LINE
  5
D0
100
AcDbEntity
  8
0
  6
ByLayer
 62
  256
370
   -1
100
AcDbLine
 10
150.1624997769244
 20
37.45625049641598
 11
150.1624997769244
 21
24.45625049641598
  0
LINE
  5
D1
100
AcDbEntity
  8
0
  6
ByLayer
 62
  256
370
   -1
100
AcDbLine
 10
164.1624997769244
 20
37.45625049641598
 11
164.1624997769244
 21
24.45625049641598
  0
ARC
  5
D2
100
AcDbEntity
  8
0
  6
ByLayer
 62
  256
370
   -1
100
AcDbCircle
 10
150.6624997769244
 20
37.45625049641598
 40
0.5
100
AcDbArc
 50
90
 51
180
  0
ARC
  5
D3
100
AcDbEntity
  8
0
  6
ByLayer
 62
  256
370
   -1
100
AcDbCircle
 10
163.6624997769244
 20
37.45625049641598
 40
0.5
100
AcDbArc
 50
0
 51
90
  0
ARC
  5
D4
100
AcDbEntity
  8
0
  6
ByLayer
 62
  256
370
   -1
100
AcDbCircle
 10
150.6624997769244
 20
24.45625049641598
 40
0.5
100
AcDbArc
 50
180
 51
270
  0
ARC
  5
D5
100
AcDbEntity
  8
0
  6
ByLayer
 62
  256
370
   -1
100
AcDbCircle
 10
163.6624997769244
 20
24.45625049641598
 40
0.5
100
AcDbArc
 50
270
 51
0
  0
LINE
  5
D6
100
AcDbEntity
  8
0
  6
ByLayer
 62
  256
370
   -1
100
AcDbLine
 10
-161.2812502230756
 20
18.90625049641599
 11
-148.2812502230756
 21
18.90625049641599
  0
LINE
  5
D7
100
AcDbEntity
  8
0
  6
ByLayer
 62
  256
370
   -1
100
AcDbLine
 10
-161.2812502230756
 20
4.906250496415986
 11
-148.2812502230756
 21
4.906250496415986
  0
LINE
  5
D8
100
AcDbEntity
  8
0
  6
ByLayer
 62
  256
370
   -1
100
AcDbLine
 10
-161.7812502230756
 20
18.40625049641599
 11
-161.7812502230756
 21
5.406250496415986
  0
LINE
  5
D9
100
AcDbEntity
  8
0
  6
ByLayer
 62
  256
370
   -1
100
AcDbLine
 10
-147.7812502230756
 20
18.40625049641599
 11
-147.7812502230756
 21
5.406250496415986
  0
ARC
  5
DA
100
AcDbEntity
  8
0
  6
ByLayer
 62
  256
370
   -1
100
AcDbCircle
 10
-161.2812502230756
 20
18.40625049641599
 40
0.5
100
AcDbArc
 50
90
 51
180
  0
ARC
  5
DB
100
AcDbEntity
  8
0
  6
ByLayer
 62
  256
370
   -1
100
AcDbCircle
 10
-148.2812502230756
 20
18.40625049641599
 40
0.5
100
AcDbArc
 50
0
 51
90
  0
ARC
  5
DC
100
AcDbEntity
  8
0
  6
ByLayer
 62
  256
370
   -1
100
AcDbCircle
 10
-161.2812502230756
 20
5.406250496415986
 40
0.5
100
AcDbArc
 50
180
 51
270
  0
ARC
  5
DD
100
AcDbEntity
  8
0
  6
ByLayer
 62
  256
370
   -1
100
AcDbCircle
 10
-148.2812502230756
 20
5.406250496415986
 40
0.5
100
AcDbArc
 50
270
 51
0
  0
LINE
  5
DE
100
AcDbEntity
  8
0
  6
ByLayer
 62
  256
370
   -1
100
AcDbLine
 10
-139.8500002230756
 20
18.90625049641599
 11
-126.8500002230756
 21
18.90625049641599
  0
LINE
  5
DF
100
AcDbEntity
  8
0
  6
ByLayer
 62
  256
370
   -1
100
AcDbLine
 10
-139.8500002230756
 20
4.906250496415986
 11
-126.8500002230756
 21
4.906250496415986
  0
LINE
  5
E0
100
AcDbEntity
  8
0
  6
ByLayer
 62
  256
370
   -1
100
AcDbLine
 10
-140.3500002230756
 20
18.40625049641599
 11
-140.3500002230756
 21
5.406250496415986
  0
LINE
  5
E1
100
AcDbEntity
  8
0
  6
ByLayer
 62
  256
370
   -1
100
AcDbLine
 10
-126.3500002230756
 20
18.40625049641599
 11
-126.3500002230756
 21
5.406250496415986
  0
ARC
  5
E2
100
AcDbEntity
  8
0
  6
ByLayer
 62
  256
370
   -1
100
AcDbCircle
 10
-139.8500002230756
 20
18.40625049641599
 40
0.5
100
AcDbArc
 50
90
 51
180
  0
ARC
  5
E3
100
AcDbEntity
  8
0
  6
ByLayer
 62
  256
370
   -1
100
AcDbCircle
 10
-126.8500002230756
 20
18.40625049641599
 40
0.5
100
AcDbArc
 50
0
 51
90
  0
ARC
  5
E4
100
AcDbEntity
  8
0
  6
ByLayer
 62
  256
370
   -1
100
AcDbCircle
 10
-139.8500002230756
 20
5.406250496415986
 40
0.5
100
AcDbArc
 50
180
 51
270
  0
ARC
  5
E5
100
AcDbEntity
  8
0
  6
ByLayer
 62
  256
370
   -1
100
AcDbCircle
 10
-126.8500002230756
 20
5.406250496415986
 40
0.5
100
AcDbArc
 50
270
 51
0
  0
LINE
  5
E6
100
AcDbEntity
  8
0
  6
ByLayer
 62
  256
370
   -1
100
AcDbLine
 10
-120.8000002230756
 20
18.90625049641599
 11
-107.8000002230756
 21
18.90625049641599
  0
LINE
  5
E7
100
AcDbEntity
  8
0
  6
ByLayer
 62
  256
370
   -1
100
AcDbLine
 10
-120.8000002230756
 20
4.906250496415986
 11
-107.8000002230756
 21
4.906250496415986
  0
LINE
  5
E8
100
AcDbEntity
  8
0
  6
ByLayer
 62
  256
370
   -1
100
AcDbLine
 10
-121.3000002230756
 20
18.40625049641599
 11
-121.3000002230756
 21
5.406250496415986
  0
LINE
  5
E9
100
AcDbEntity
  8
0
  6
ByLayer
 62
  256
370
   -1
100
AcDbLine
 10
-107.3000002230756
 20
18.40625049641599
 11
-107.3000002230756
 21
5.406250496415986
  0
ARC
  5
EA
100
AcDbEntity
  8
0
  6
ByLayer
 62
  256
370
   -1
100
AcDbCircle
 10
-120.8000002230756
 20
18.40625049641599
 40
0.5
100
AcDbArc
 50
90
 51
180
  0
ARC
  5
EB
100
AcDbEntity
  8
0
  6
ByLayer
 62
  256
370
   -1
100
AcDbCircle
 10
-107.8000002230756
 20
18.40625049641599
 40
0.5
100
AcDbArc
 50
0
 51
90
  0
ARC
  5
EC
100
AcDbEntity
  8
0
  6
ByLayer
 62
  256
370
   -1
100
AcDbCircle
 10
-120.8000002230756
 20
5.406250496415986
 40
0.5
100
AcDbArc
 50
180
 51
270
  0
ARC
  5
ED
100
AcDbEntity
  8
0
  6
ByLayer
 62
  256
370
   -1
100
AcDbCircle
 10
-107.8000002230756
 20
5.406250496415986
 40
0.5
100
AcDbArc
 50
270
 51
0
  0
LINE
  5
EE
100
AcDbEntity
  8
0
  6
ByLayer
 62
  256
370
   -1
100
AcDbLine
 10
-101.7500002230756
 20
18.90625049641599
 11
-88.75000022307557
 21
18.90625049641599
  0
LINE
  5
EF
100
AcDbEntity
  8
0
  6
ByLayer
 62
  256
370
   -1
100
AcDbLine
 10
-101.7500002230756
 20
4.906250496415986
 11
-88.75000022307557
 21
4.906250496415986
  0
LINE
  5
F0
100
AcDbEntity
  8
0
  6
ByLayer
 62
  256
370
   -1
100
AcDbLine
 10
-102.2500002230756
 20
18.40625049641599
 11
-102.2500002230756
 21
5.406250496415986
  0
LINE
  5
F1
100
AcDbEntity
  8
0
  6
ByLayer
 62
  256
370
   -1
100
AcDbLine
 10
-88.25000022307557
 20
18.40625049641599
 11
-88.25000022307557
 21
5.406250496415986
  0
ARC
  5
F2
100
AcDbEntity
  8
0
  6
ByLayer
 62
  256
370
   -1
100
AcDbCircle
 10
-101.7500002230756
 20
18.40625049641599
 40
0.5
100
AcDbArc
 50
90
 51
180
  0
ARC
  5
F3
100
AcDbEntity
  8
0
  6
ByLayer
 62
  256
370
   -1
100
AcDbCircle
 10
-88.75000022307557
 20
18.40625049641599
 40
0.5
100
AcDbArc
 50
0
 51
90
  0
ARC
  5
F4
100
AcDbEntity
  8
0
  6
ByLayer
 62
  256
370
   -1
100
AcDbCircle
 10
-101.7500002230756
 20
5.406250496415986
 40
0.5
100
AcDbArc
 50
180
 51
270
  0
ARC
  5
F5
100
AcDbEntity
  8
0
  6
ByLayer
 62
  256
370
   -1
100
AcDbCircle
 10
-88.75000022307557
 20
5.406250496415986
 40
0.5
100
AcDbArc
 50
270
 51
0
  0
LINE
  5
F6
100
AcDbEntity
  8
0
  6
ByLayer
 62
  256
370
   -1
100
AcDbLine
 10
-82.70000022307558
 20
18.90625049641599
 11
-69.70000022307558
 21
18.90625049641599
  0
LINE
  5
F7
100
AcDbEntity
  8
0
  6
ByLayer
 62
  256
370
   -1
100
AcDbLine
 10
-82.70000022307558
 20
4.906250496415986
 11
-69.70000022307558
 21
4.906250496415986
  0
LINE
  5
F8
100
AcDbEntity
  8
0
  6
ByLayer
 62
  256
370
   -1
100
AcDbLine
 10
-83.20000022307558
 20
18.40625049641599
 11
-83.20000022307558
 21
5.406250496415986
  0
LINE
  5
F9
100
AcDbEntity
  8
0
  6
ByLayer
 62
  256
370
   -1
100
AcDbLine
 10
-69.20000022307558
 20
18.40625049641599
 11
-69.20000022307558
 21
5.406250496415986
  0
ARC
  5
FA
100
AcDbEntity
  8
0
  6
ByLayer
 62
  256
370
   -1
100
AcDbCircle
 10
-82.70000022307558
 20
18.40625049641599
 40
0.5
100
AcDbArc
 50
90
 51
180
  0
ARC
  5
FB
100
AcDbEntity
  8
0
  6
ByLayer
 62
  256
370
   -1
100
AcDbCircle
 10
-69.70000022307558
 20
18.40625049641599
 40
0.5
100
AcDbArc
 50
0
 51
90
  0
ARC
  5
FC
100
AcDbEntity
  8
0
  6
ByLayer
 62
  256
370
   -1
100
AcDbCircle
 10
-82.70000022307558
 20
5.406250496415986
 40
0.5
100
AcDbArc
 50
180
 51
270
  0
ARC
  5
FD
100
AcDbEntity
  8
0
  6
ByLayer
 62
  256
370
   -1
100
AcDbCircle
 10
-69.70000022307558
 20
5.406250496415986
 40
0.5
100
AcDbArc
 50
270
 51
0
  0
LINE
  5
FE
100
AcDbEntity
  8
0
  6
ByLayer
 62
  256
370
   -1
100
AcDbLine
 10
-63.65000022307558
 20
18.90625049641599
 11
-50.65000022307558
 21
18.90625049641599
  0
LINE
  5
FF
100
AcDbEntity
  8
0
  6
ByLayer
 62
  256
370
   -1
100
AcDbLine
 10
-63.65000022307558
 20
4.906250496415986
 11
-50.65000022307558
 21
4.906250496415986
  0
LINE
  5
100
100
AcDbEntity
  8
0
  6
ByLayer
 62
  256
370
   -1
100
AcDbLine
 10
-64.15000022307558
 20
18.40625049641599
 11
-64.15000022307558
 21
5.406250496415986
  0
LINE
  5
101
100
AcDbEntity
  8
0
  6
ByLayer
 62
  256
370
   -1
100
AcDbLine
 10
-50.15000022307558
 20
18.40625049641599
 11
-50.15000022307558
 21
5.406250496415986
  0
ARC
  5
102
100
AcDbEntity
  8
0
  6
ByLayer
 62
  256
370
   -1
100
AcDbCircle
 10
-63.65000022307558
 20
18.40625049641599
 40
0.5
100
AcDbArc
 50
90
 51
180
  0
ARC
  5
103
100
AcDbEntity
  8
0
  6
ByLayer
 62
  256
370
   -1
100
AcDbCircle
 10
-50.65000022307558
 20
18.40625049641599
 40
0.5
100
AcDbArc
 50
0
 51
90
  0
ARC
  5
104
100
AcDbEntity
  8
0
  6
ByLayer
 62
  256
370
   -1
100
AcDbCircle
 10
-63.65000022307558
 20
5.406250496415986
 40
0.5
100
AcDbArc
 50
180
 51
270
  0
ARC
  5
105
100
AcDbEntity
  8
0
  6
ByLayer
 62
  256
370
   -1
100
AcDbCircle
 10
-50.65000022307558
 20
5.406250496415986
 40
0.5
100
AcDbArc
 50
270
 51
0
  0
LINE
  5
106
100
AcDbEntity
  8
0
  6
ByLayer
 62
  256
370
   -1
100
AcDbLine
 10
-44.60000022307557
 20
18.90625049641599
 11
-31.60000022307557
 21
18.90625049641599
  0
LINE
  5
107
100
AcDbEntity
  8
0
  6
ByLayer
 62
  256
370
   -1
100
AcDbLine
 10
-44.60000022307557
 20
4.906250496415986
 11
-31.60000022307557
 21
4.906250496415986
  0
LINE
  5
108
100
AcDbEntity
  8
0
  6
ByLayer
 62
  256
370
   -1
100
AcDbLine
 10
-45.10000022307557
 20
18.40625049641599
 11
-45.10000022307557
 21
5.406250496415986
  0
LINE
  5
109
100
AcDbEntity
  8
0
  6
ByLayer
 62
  256
370
   -1
100
AcDbLine
 10
-31.10000022307557
 20
18.40625049641599
 11
-31.10000022307557
 21
5.406250496415986
  0
ARC
  5
10A
100
AcDbEntity
  8
0
  6
ByLayer
 62
  256
370
   -1
100
AcDbCircle
 10
-44.60000022307557
 20
18.40625049641599
 40
0.5
100
AcDbArc
 50
90
 51
180
  0
ARC
  5
10B
100
AcDbEntity
  8
0
  6
ByLayer
 62
  256
370
   -1
100
AcDbCircle
 10
-31.60000022307557
 20
18.40625049641599
 40
0.5
100
AcDbArc
 50
0
 51
90
  0
ARC
  5
10C
100
AcDbEntity
  8
0
  6
ByLayer
 62
  256
370
   -1
100
AcDbCircle
 10
-44.60000022307557
 20
5.406250496415986
 40
0.5
100
AcDbArc
 50
180
 51
270
  0
ARC
  5
10D
100
AcDbEntity
  8
0
  6
ByLayer
 62
  256
370
   -1
100
AcDbCircle
 10
-31.60000022307557
 20
5.406250496415986
 40
0.5
100
AcDbArc
 50
270
 51
0
  0
LINE
  5
10E
100
AcDbEntity
  8
0
  6
ByLayer
 62
  256
370
   -1
100
AcDbLine
 10
-25.55000022307559
 20
18.90625049641599
 11
-12.55000022307559
 21
18.90625049641599
  0
LINE
  5
10F
100
AcDbEntity
  8
0
  6
ByLayer
 62
  256
370
   -1
100
AcDbLine
 10
-25.55000022307559
 20
4.906250496415986
 11
-12.55000022307559
 21
4.906250496415986
  0
LINE
  5
110
100
AcDbEntity
  8
0
  6
ByLayer
 62
  256
370
   -1
100
AcDbLine
 10
-26.05000022307559
 20
18.40625049641599
 11
-26.05000022307559
 21
5.406250496415986
  0
LINE
  5
111
100
AcDbEntity
  8
0
  6
ByLayer
 62
  256
370
   -1
100
AcDbLine
 10
-12.05000022307559
 20
18.40625049641599
 11
-12.05000022307559
 21
5.406250496415986
  0
ARC
  5
112
100
AcDbEntity
  8
0
  6
ByLayer
 62
  256
370
   -1
100
AcDbCircle
 10
-25.55000022307559
 20
18.40625049641599
 40
0.5
100
AcDbArc
 50
90
 51
180
  0
ARC
  5
113
100
AcDbEntity
  8
0
  6
ByLayer
 62
  256
370
   -1
100
AcDbCircle
 10
-12.55000022307559
 20
18.40625049641599
 40
0.5
100
AcDbArc
 50
0
 51
90
  0
ARC
  5
114
100
AcDbEntity
  8
0
  6
ByLayer
 62
  256
370
   -1
100
AcDbCircle
 10
-25.55000022307559
 20
5.406250496415986
 40
0.5
100
AcDbArc
 50
180
 51
270
  0
ARC
  5
115
100
AcDbEntity
  8
0
  6
ByLayer
 62
  256
370
   -1
100
AcDbCircle
 10
-12.55000022307559
 20
5.406250496415986
 40
0.5
100
AcDbArc
 50
270
 51
0
  0
LINE
  5
116
100
AcDbEntity
  8
0
  6
ByLayer
 62
  256
370
   -1
100
AcDbLine
 10
-6.500000223075574
 20
18.90625049641599
 11
6.499999776924426
 21
18.90625049641599
  0
LINE
  5
117
100
AcDbEntity
  8
0
  6
ByLayer
 62
  256
370
   -1
100
AcDbLine
 10
-6.500000223075574
 20
4.906250496415986
 11
6.499999776924426
 21
4.906250496415986
  0
LINE
  5
118
100
AcDbEntity
  8
0
  6
ByLayer
 62
  256
370
   -1
100
AcDbLine
 10
-7.000000223075574
 20
18.40625049641599
 11
-7.000000223075574
 21
5.406250496415986
  0
LINE
  5
119
100
AcDbEntity
  8
0
  6
ByLayer
 62
  256
370
   -1
100
AcDbLine
 10
6.999999776924426
 20
18.40625049641599
 11
6.999999776924426
 21
5.406250496415986
  0
ARC
  5
11A
100
AcDbEntity
  8
0
  6
ByLayer
 62
  256
370
   -1
100
AcDbCircle
 10
-6.500000223075574
 20
18.40625049641599
 40
0.5
100
AcDbArc
 50
90
 51
180
  0
ARC
  5
11B
100
AcDbEntity
  8
0
  6
ByLayer
 62
  256
370
   -1
100
AcDbCircle
 10
6.499999776924426
 20
18.40625049641599
 40
0.5
100
AcDbArc
 50
0
 51
90
  0
ARC
  5
11C
100
AcDbEntity
  8
0
  6
ByLayer
 62
  256
370
   -1
100
AcDbCircle
 10
-6.500000223075574
 20
5.406250496415986
 40
0.5
100
AcDbArc
 50
180
 51
270
  0
ARC
  5
11D
100
AcDbEntity
  8
0
  6
ByLayer
 62
  256
370
   -1
100
AcDbCircle
 10
6.499999776924426
 20
5.406250496415986
 40
0.5
100
AcDbArc
 50
270
 51
0
  0
LINE
  5
11E
100
AcDbEntity
  8
0
  6
ByLayer
 62
  256
370
   -1
100
AcDbLine
 10
12.54999977692444
 20
18.90625049641599
 11
25.54999977692444
 21
18.90625049641599
  0
LINE
  5
11F
100
AcDbEntity
  8
0
  6
ByLayer
 62
  256
370
   -1
100
AcDbLine
 10
12.54999977692444
 20
4.906250496415986
 11
25.54999977692444
 21
4.906250496415986
  0
LINE
  5
120
100
AcDbEntity
  8
0
  6
ByLayer
 62
  256
370
   -1
100
AcDbLine
 10
12.04999977692444
 20
18.40625049641599
 11
12.04999977692444
 21
5.406250496415986
  0
LINE
  5
121
100
AcDbEntity
  8
0
  6
ByLayer
 62
  256
370
   -1
100
AcDbLine
 10
26.04999977692444
 20
18.40625049641599
 11
26.04999977692444
 21
5.406250496415986
  0
ARC
  5
122
100
AcDbEntity
  8
0
  6
ByLayer
 62
  256
370
   -1
100
AcDbCircle
 10
12.54999977692444
 20
18.40625049641599
 40
0.5
100
AcDbArc
 50
90
 51
180
  0
ARC
  5
123
100
AcDbEntity
  8
0
  6
ByLayer
 62
  256
370
   -1
100
AcDbCircle
 10
25.54999977692444
 20
18.40625049641599
 40
0.5
100
AcDbArc
 50
0
 51
90
  0
ARC
  5
124
100
AcDbEntity
  8
0
  6
ByLayer
 62
  256
370
   -1
100
AcDbCircle
 10
12.54999977692444
 20
5.406250496415986
 40
0.5
100
AcDbArc
 50
180
 51
270
  0
ARC
  5
125
100
AcDbEntity
  8
0
  6
ByLayer
 62
  256
370
   -1
100
AcDbCircle
 10
25.54999977692444
 20
5.406250496415986
 40
0.5
100
AcDbArc
 50
270
 51
0
  0
LINE
  5
126
100
AcDbEntity
  8
0
  6
ByLayer
 62
  256
370
   -1
100
AcDbLine
 10
38.74374977692443
 20
18.90625049641599
 11
51.74374977692443
 21
18.90625049641599
  0
LINE
  5
127
100
AcDbEntity
  8
0
  6
ByLayer
 62
  256
370
   -1
100
AcDbLine
 10
38.74374977692443
 20
4.906250496415986
 11
51.74374977692443
 21
4.906250496415986
  0
LINE
  5
128
100
AcDbEntity
  8
0
  6
ByLayer
 62
  256
370
   -1
100
AcDbLine
 10
38.24374977692443
 20
18.40625049641599
 11
38.24374977692443
 21
5.406250496415986
  0
LINE
  5
129
100
AcDbEntity
  8
0
  6
ByLayer
 62
  256
370
   -1
100
AcDbLine
 10
52.24374977692443
 20
18.40625049641599
 11
52.24374977692443
 21
5.406250496415986
  0
ARC
  5
12A
100
AcDbEntity
  8
0
  6
ByLayer
 62
  256
370
   -1
100
AcDbCircle
 10
38.74374977692443
 20
18.40625049641599
 40
0.5
100
AcDbArc
 50
90
 51
180
  0
ARC
  5
12B
100
AcDbEntity
  8
0
  6
ByLayer
 62
  256
370
   -1
100
AcDbCircle
 10
51.74374977692443
 20
18.40625049641599
 40
0.5
100
AcDbArc
 50
0
 51
90
  0
ARC
  5
12C
100
AcDbEntity
  8
0
  6
ByLayer
 62
  256
370
   -1
100
AcDbCircle
 10
38.74374977692443
 20
5.406250496415986
 40
0.5
100
AcDbArc
 50
180
 51
270
  0
ARC
  5
12D
100
AcDbEntity
  8
0
  6
ByLayer
 62
  256
370
   -1
100
AcDbCircle
 10
51.74374977692443
 20
5.406250496415986
 40
0.5
100
AcDbArc
 50
270
 51
0
  0
LINE
  5
12E
100
AcDbEntity
  8
0
  6
ByLayer
 62
  256
370
   -1
100
AcDbLine
 10
93.51249977692441
 20
18.90625049641599
 11
106.5124997769244
 21
18.90625049641599
  0
LINE
  5
12F
100
AcDbEntity
  8
0
  6
ByLayer
 62
  256
370
   -1
100
AcDbLine
 10
93.51249977692441
 20
4.906250496415986
 11
106.5124997769244
 21
4.906250496415986
  0
LINE
  5
130
100
AcDbEntity
  8
0
  6
ByLayer
 62
  256
370
   -1
100
AcDbLine
 10
93.01249977692441
 20
18.40625049641599
 11
93.01249977692441
 21
5.406250496415986
  0
LINE
  5
131
100
AcDbEntity
  8
0
  6
ByLayer
 62
  256
370
   -1
100
AcDbLine
 10
107.0124997769244
 20
18.40625049641599
 11
107.0124997769244
 21
5.406250496415986
  0
ARC
  5
132
100
AcDbEntity
  8
0
  6
ByLayer
 62
  256
370
   -1
100
AcDbCircle
 10
93.51249977692441
 20
18.40625049641599
 40
0.5
100
AcDbArc
 50
90
 51
180
  0
ARC
  5
133
100
AcDbEntity
  8
0
  6
ByLayer
 62
  256
370
   -1
100
AcDbCircle
 10
106.5124997769244
 20
18.40625049641599
 40
0.5
100
AcDbArc
 50
0
 51
90
  0
ARC
  5
134
100
AcDbEntity
  8
0
  6
ByLayer
 62
  256
370
   -1
100
AcDbCircle
 10
93.51249977692441
 20
5.406250496415986
 40
0.5
100
AcDbArc
 50
180
 51
270
  0
ARC
  5
135
100
AcDbEntity
  8
0
  6
ByLayer
 62
  256
370
   -1
100
AcDbCircle
 10
106.5124997769244
 20
5.406250496415986
 40
0.5
100
AcDbArc
 50
270
 51
0
  0
LINE
  5
136
100
AcDbEntity
  8
0
  6
ByLayer
 62
  256
370
   -1
100
AcDbLine
 10
112.5624997769244
 20
18.90625049641599
 11
125.5624997769244
 21
18.90625049641599
  0
LINE
  5
137
100
AcDbEntity
  8
0
  6
ByLayer
 62
  256
370
   -1
100
AcDbLine
 10
112.5624997769244
 20
4.906250496415986
 11
125.5624997769244
 21
4.906250496415986
  0
LINE
  5
138
100
AcDbEntity
  8
0
  6
ByLayer
 62
  256
370
   -1
100
AcDbLine
 10
112.0624997769244
 20
18.40625049641599
 11
112.0624997769244
 21
5.406250496415986
  0
LINE
  5
139
100
AcDbEntity
  8
0
  6
ByLayer
 62
  256
370
   -1
100
AcDbLine
 10
126.0624997769244
 20
18.40625049641599
 11
126.0624997769244
 21
5.406250496415986
  0
ARC
  5
13A
100
AcDbEntity
  8
0
  6
ByLayer
 62
  256
370
   -1
100
AcDbCircle
 10
112.5624997769244
 20
18.40625049641599
 40
0.5
100
AcDbArc
 50
90
 51
180
  0
ARC
  5
13B
100
AcDbEntity
  8
0
  6
ByLayer
 62
  256
370
   -1
100
AcDbCircle
 10
125.5624997769244
 20
18.40625049641599
 40
0.5
100
AcDbArc
 50
0
 51
90
  0
ARC
  5
13C
100
AcDbEntity
  8
0
  6
ByLayer
 62
  256
370
   -1
100
AcDbCircle
 10
112.5624997769244
 20
5.406250496415986
 40
0.5
100
AcDbArc
 50
180
 51
270
  0
ARC
  5
13D
100
AcDbEntity
  8
0
  6
ByLayer
 62
  256
370
   -1
100
AcDbCircle
 10
125.5624997769244
 20
5.406250496415986
 40
0.5
100
AcDbArc
 50
270
 51
0
  0
LINE
  5
13E
100
AcDbEntity
  8
0
  6
ByLayer
 62
  256
370
   -1
100
AcDbLine
 10
131.6124997769244
 20
18.90625049641599
 11
144.6124997769244
 21
18.90625049641599
  0
LINE
  5
13F
100
AcDbEntity
  8
0
  6
ByLayer
 62
  256
370
   -1
100
AcDbLine
 10
131.6124997769244
 20
4.906250496415986
 11
144.6124997769244
 21
4.906250496415986
  0
LINE
  5
140
100
AcDbEntity
  8
0
  6
ByLayer
 62
  256
370
   -1
100
AcDbLine
 10
131.1124997769244
 20
18.40625049641599
 11
131.1124997769244
 21
5.406250496415986
  0
LINE
  5
141
100
AcDbEntity
  8
0
  6
ByLayer
 62
  256
370
   -1
100
AcDbLine
 10
145.1124997769244
 20
18.40625049641599
 11
145.1124997769244
 21
5.406250496415986
  0
ARC
  5
142
100
AcDbEntity
  8
0
  6
ByLayer
 62
  256
370
   -1
100
AcDbCircle
 10
131.6124997769244
 20
18.40625049641599
 40
0.5
100
AcDbArc
 50
90
 51
180
  0
ARC
  5
143
100
AcDbEntity
  8
0
  6
ByLayer
 62
  256
370
   -1
100
AcDbCircle
 10
144.6124997769244
 20
18.40625049641599
 40
0.5
100
AcDbArc
 50
0
 51
90
  0
ARC
  5
144
100
AcDbEntity
  8
0
  6
ByLayer
 62
  256
370
   -1
100
AcDbCircle
 10
131.6124997769244
 20
5.406250496415986
 40
0.5
100
AcDbArc
 50
180
 51
270
  0
ARC
  5
145
100
AcDbEntity
  8
0
  6
ByLayer
 62
  256
370
   -1
100
AcDbCircle
 10
144.6124997769244
 20
5.406250496415986
 40
0.5
100
AcDbArc
 50
270
 51
0
  0
LINE
  5
146
100
AcDbEntity
  8
0
  6
ByLayer
 62
  256
370
   -1
100
AcDbLine
 10
150.6624997769244
 20
18.90625049641599
 11
163.6624997769244
 21
18.90625049641599
  0
LINE
  5
147
100
AcDbEntity
  8
0
  6
ByLayer
 62
  256
370
   -1
100
AcDbLine
 10
150.6624997769244
 20
4.906250496415986
 11
163.6624997769244
 21
4.906250496415986
  0
LINE
  5
148
100
AcDbEntity
  8
0
  6
ByLayer
 62
  256
370
   -1
100
AcDbLine
 10
150.1624997769244
 20
18.40625049641599
 11
150.1624997769244
 21
5.406250496415986
  0
LINE
  5
149
100
AcDbEntity
  8
0
  6
ByLayer
 62
  256
370
   -1
100
AcDbLine
 10
164.1624997769244
 20
18.40625049641599
 11
164.1624997769244
 21
5.406250496415986
  0
ARC
  5
14A
100
AcDbEntity
  8
0
  6
ByLayer
 62
  256
370
   -1
100
AcDbCircle
 10
150.6624997769244
 20
18.40625049641599
 40
0.5
100
AcDbArc
 50
90
 51
180
  0
ARC
  5
14B
100
AcDbEntity
  8
0
  6
ByLayer
 62
  256
370
   -1
100
AcDbCircle
 10
163.6624997769244
 20
18.40625049641599
 40
0.5
100
AcDbArc
 50
0
 51
90
  0
ARC
  5
14C
100
AcDbEntity
  8
0
  6
ByLayer
 62
  256
370
   -1
100
AcDbCircle
 10
150.6624997769244
 20
5.406250496415986
 40
0.5
100
AcDbArc
 50
180
 51
270
  0
ARC
  5
14D
100
AcDbEntity
  8
0
  6
ByLayer
 62
  256
370
   -1
100
AcDbCircle
 10
163.6624997769244
 20
5.406250496415986
 40
0.5
100
AcDbArc
 50
270
 51
0
  0
LINE
  5
14E
100
AcDbEntity
  8
0
  6
ByLayer
 62
  256
370
   -1
100
AcDbLine
 10
-156.5187502230756
 20
-0.1437495035840115
 11
-143.5187502230756
 21
-0.1437495035840115
  0
LINE
  5
14F
100
AcDbEntity
  8
0
  6
ByLayer
 62
  256
370
   -1
100
AcDbLine
 10
-156.5187502230756
 20
-14.14374950358401
 11
-143.5187502230756
 21
-14.14374950358401
  0
LINE
  5
150
100
AcDbEntity
  8
0
  6
ByLayer
 62
  256
370
   -1
100
AcDbLine
 10
-157.0187502230756
 20
-0.6437495035840115
 11
-157.0187502230756
 21
-13.64374950358401
  0
LINE
  5
151
100
AcDbEntity
  8
0
  6
ByLayer
 62
  256
370
   -1
100
AcDbLine
 10
-143.0187502230756
 20
-0.6437495035840115
 11
-143.0187502230756
 21
-13.64374950358401
  0
ARC
  5
152
100
AcDbEntity
  8
0
  6
ByLayer
 62
  256
370
   -1
100
AcDbCircle
 10
-156.5187502230756
 20
-0.6437495035840115
 40
0.5
100
AcDbArc
 50
90
 51
180
  0
ARC
  5
153
100
AcDbEntity
  8
0
  6
ByLayer
 62
  256
370
   -1
100
AcDbCircle
 10
-143.5187502230756
 20
-0.6437495035840115
 40
0.5
100
AcDbArc
 50
0
 51
90
  0
ARC
  5
154
100
AcDbEntity
  8
0
  6
ByLayer
 62
  256
370
   -1
100
AcDbCircle
 10
-156.5187502230756
 20
-13.64374950358401
 40
0.5
100
AcDbArc
 50
180
 51
270
  0
ARC
  5
155
100
AcDbEntity
  8
0
  6
ByLayer
 62
  256
370
   -1
100
AcDbCircle
 10
-143.5187502230756
 20
-13.64374950358401
 40
0.5
100
AcDbArc
 50
270
 51
0
  0
LINE
  5
156
100
AcDbEntity
  8
0
  6
ByLayer
 62
  256
370
   -1
100
AcDbLine
 10
-130.3250002230756
 20
-0.1437495035840115
 11
-117.3250002230756
 21
-0.1437495035840115
  0
LINE
  5
157
100
AcDbEntity
  8
0
  6
ByLayer
 62
  256
370
   -1
100
AcDbLine
 10
-130.3250002230756
 20
-14.14374950358401
 11
-117.3250002230756
 21
-14.14374950358401
  0
LINE
  5
158
100
AcDbEntity
  8
0
  6
ByLayer
 62
  256
370
   -1
100
AcDbLine
 10
-130.8250002230756
 20
-0.6437495035840115
 11
-130.8250002230756
 21
-13.64374950358401
  0
LINE
  5
159
100
AcDbEntity
  8
0
  6
ByLayer
 62
  256
370
   -1
100
AcDbLine
 10
-116.8250002230756
 20
-0.6437495035840115
 11
-116.8250002230756
 21
-13.64374950358401
  0
ARC
  5
15A
100
AcDbEntity
  8
0
  6
ByLayer
 62
  256
370
   -1
100
AcDbCircle
 10
-130.3250002230756
 20
-0.6437495035840115
 40
0.5
100
AcDbArc
 50
90
 51
180
  0
ARC
  5
15B
100
AcDbEntity
  8
0
  6
ByLayer
 62
  256
370
   -1
100
AcDbCircle
 10
-117.3250002230756
 20
-0.6437495035840115
 40
0.5
100
AcDbArc
 50
0
 51
90
  0
ARC
  5
15C
100
AcDbEntity
  8
0
  6
ByLayer
 62
  256
370
   -1
100
AcDbCircle
 10
-130.3250002230756
 20
-13.64374950358401
 40
0.5
100
AcDbArc
 50
180
 51
270
  0
ARC
  5
15D
100
AcDbEntity
  8
0
  6
ByLayer
 62
  256
370
   -1
100
AcDbCircle
 10
-117.3250002230756
 20
-13.64374950358401
 40
0.5
100
AcDbArc
 50
270
 51
0
  0
LINE
  5
15E
100
AcDbEntity
  8
0
  6
ByLayer
 62
  256
370
   -1
100
AcDbLine
 10
-111.2750002230756
 20
-0.1437495035840115
 11
-98.27500022307558
 21
-0.1437495035840115
  0
LINE
  5
15F
100
AcDbEntity
  8
0
  6
ByLayer
 62
  256
370
   -1
100
AcDbLine
 10
-111.2750002230756
 20
-14.14374950358401
 11
-98.27500022307558
 21
-14.14374950358401
  0
LINE
  5
160
100
AcDbEntity
  8
0
  6
ByLayer
 62
  256
370
   -1
100
AcDbLine
 10
-111.7750002230756
 20
-0.6437495035840115
 11
-111.7750002230756
 21
-13.64374950358401
  0
LINE
  5
161
100
AcDbEntity
  8
0
  6
ByLayer
 62
  256
370
   -1
100
AcDbLine
 10
-97.77500022307558
 20
-0.6437495035840115
 11
-97.77500022307558
 21
-13.64374950358401
  0
ARC
  5
162
100
AcDbEntity
  8
0
  6
ByLayer
 62
  256
370
   -1
100
AcDbCircle
 10
-111.2750002230756
 20
-0.6437495035840115
 40
0.5
100
AcDbArc
 50
90
 51
180
  0
ARC
  5
163
100
AcDbEntity
  8
0
  6
ByLayer
 62
  256
370
   -1
100
AcDbCircle
 10
-98.27500022307558
 20
-0.6437495035840115
 40
0.5
100
AcDbArc
 50
0
 51
90
  0
ARC
  5
164
100
AcDbEntity
  8
0
  6
ByLayer
 62
  256
370
   -1
100
AcDbCircle
 10
-111.2750002230756
 20
-13.64374950358401
 40
0.5
100
AcDbArc
 50
180
 51
270
  0
ARC
  5
165
100
AcDbEntity
  8
0
  6
ByLayer
 62
  256
370
   -1
100
AcDbCircle
 10
-98.27500022307558
 20
-13.64374950358401
 40
0.5
100
AcDbArc
 50
270
 51
0
  0
LINE
  5
166
100
AcDbEntity
  8
0
  6
ByLayer
 62
  256
370
   -1
100
AcDbLine
 10
-92.22500022307557
 20
-0.1437495035840115
 11
-79.22500022307557
 21
-0.1437495035840115
  0
LINE
  5
167
100
AcDbEntity
  8
0
  6
ByLayer
 62
  256
370
   -1
100
AcDbLine
 10
-92.22500022307557
 20
-14.14374950358401
 11
-79.22500022307557
 21
-14.14374950358401
  0
LINE
  5
168
100
AcDbEntity
  8
0
  6
ByLayer
 62
  256
370
   -1
100
AcDbLine
 10
-92.72500022307557
 20
-0.6437495035840115
 11
-92.72500022307557
 21
-13.64374950358401
  0
LINE
  5
169
100
AcDbEntity
  8
0
  6
ByLayer
 62
  256
370
   -1
100
AcDbLine
 10
-78.72500022307557
 20
-0.6437495035840115
 11
-78.72500022307557
 21
-13.64374950358401
  0
ARC
  5
16A
100
AcDbEntity
  8
0
  6
ByLayer
 62
  256
370
   -1
100
AcDbCircle
 10
-92.22500022307557
 20
-0.6437495035840115
 40
0.5
100
AcDbArc
 50
90
 51
180
  0
ARC
  5
16B
100
AcDbEntity
  8
0
  6
ByLayer
 62
  256
370
   -1
100
AcDbCircle
 10
-79.22500022307557
 20
-0.6437495035840115
 40
0.5
100
AcDbArc
 50
0
 51
90
  0
ARC
  5
16C
100
AcDbEntity
  8
0
  6
ByLayer
 62
  256
370
   -1
100
AcDbCircle
 10
-92.22500022307557
 20
-13.64374950358401
 40
0.5
100
AcDbArc
 50
180
 51
270
  0
ARC
  5
16D
100
AcDbEntity
  8
0
  6
ByLayer
 62
  256
370
   -1
100
AcDbCircle
 10
-79.22500022307557
 20
-13.64374950358401
 40
0.5
100
AcDbArc
 50
270
 51
0
  0
LINE
  5
16E
100
AcDbEntity
  8
0
  6
ByLayer
 62
  256
370
   -1
100
AcDbLine
 10
-73.17500022307557
 20
-0.1437495035840115
 11
-60.17500022307557
 21
-0.1437495035840115
  0
LINE
  5
16F
100
AcDbEntity
  8
0
  6
ByLayer
 62
  256
370
   -1
100
AcDbLine
 10
-73.17500022307557
 20
-14.14374950358401
 11
-60.17500022307557
 21
-14.14374950358401
  0
LINE
  5
170
100
AcDbEntity
  8
0
  6
ByLayer
 62
  256
370
   -1
100
AcDbLine
 10
-73.67500022307557
 20
-0.6437495035840115
 11
-73.67500022307557
 21
-13.64374950358401
  0
LINE
  5
171
100
AcDbEntity
  8
0
  6
ByLayer
 62
  256
370
   -1
100
AcDbLine
 10
-59.67500022307557
 20
-0.6437495035840115
 11
-59.67500022307557
 21
-13.64374950358401
  0
ARC
  5
172
100
AcDbEntity
  8
0
  6
ByLayer
 62
  256
370
   -1
100
AcDbCircle
 10
-73.17500022307557
 20
-0.6437495035840115
 40
0.5
100
AcDbArc
 50
90
 51
180
  0
ARC
  5
173
100
AcDbEntity
  8
0
  6
ByLayer
 62
  256
370
   -1
100
AcDbCircle
 10
-60.17500022307557
 20
-0.6437495035840115
 40
0.5
100
AcDbArc
 50
0
 51
90
  0
ARC
  5
174
100
AcDbEntity
  8
0
  6
ByLayer
 62
  256
370
   -1
100
AcDbCircle
 10
-73.17500022307557
 20
-13.64374950358401
 40
0.5
100
AcDbArc
 50
180
 51
270
  0
ARC
  5
175
100
AcDbEntity
  8
0
  6
ByLayer
 62
  256
370
   -1
100
AcDbCircle
 10
-60.17500022307557
 20
-13.64374950358401
 40
0.5
100
AcDbArc
 50
270
 51
0
  0
LINE
  5
176
100
AcDbEntity
  8
0
  6
ByLayer
 62
  256
370
   -1
100
AcDbLine
 10
-54.12500022307557
 20
-0.1437495035840115
 11
-41.12500022307557
 21
-0.1437495035840115
  0
LINE
  5
177
100
AcDbEntity
  8
0
  6
ByLayer
 62
  256
370
   -1
100
AcDbLine
 10
-54.12500022307557
 20
-14.14374950358401
 11
-41.12500022307557
 21
-14.14374950358401
  0
LINE
  5
178
100
AcDbEntity
  8
0
  6
ByLayer
 62
  256
370
   -1
100
AcDbLine
 10
-54.62500022307557
 20
-0.6437495035840115
 11
-54.62500022307557
 21
-13.64374950358401
  0
LINE
  5
179
100
AcDbEntity
  8
0
  6
ByLayer
 62
  256
370
   -1
100
AcDbLine
 10
-40.62500022307557
 20
-0.6437495035840115
 11
-40.62500022307557
 21
-13.64374950358401
  0
ARC
  5
17A
100
AcDbEntity
  8
0
  6
ByLayer
 62
  256
370
   -1
100
AcDbCircle
 10
-54.12500022307557
 20
-0.6437495035840115
 40
0.5
100
AcDbArc
 50
90
 51
180
  0
ARC
  5
17B
100
AcDbEntity
  8
0
  6
ByLayer
 62
  256
370
   -1
100
AcDbCircle
 10
-41.12500022307557
 20
-0.6437495035840115
 40
0.5
100
AcDbArc
 50
0
 51
90
  0
ARC
  5
17C
100
AcDbEntity
  8
0
  6
ByLayer
 62
  256
370
   -1
100
AcDbCircle
 10
-54.12500022307557
 20
-13.64374950358401
 40
0.5
100
AcDbArc
 50
180
 51
270
  0
ARC
  5
17D
100
AcDbEntity
  8
0
  6
ByLayer
 62
  256
370
   -1
100
AcDbCircle
 10
-41.12500022307557
 20
-13.64374950358401
 40
0.5
100
AcDbArc
 50
270
 51
0
  0
LINE
  5
17E
100
AcDbEntity
  8
0
  6
ByLayer
 62
  256
370
   -1
100
AcDbLine
 10
-35.07500022307556
 20
-0.1437495035840115
 11
-22.07500022307556
 21
-0.1437495035840115
  0
LINE
  5
17F
100
AcDbEntity
  8
0
  6
ByLayer
 62
  256
370
   -1
100
AcDbLine
 10
-35.07500022307556
 20
-14.14374950358401
 11
-22.07500022307556
 21
-14.14374950358401
  0
LINE
  5
180
100
AcDbEntity
  8
0
  6
ByLayer
 62
  256
370
   -1
100
AcDbLine
 10
-35.57500022307556
 20
-0.6437495035840115
 11
-35.57500022307556
 21
-13.64374950358401
  0
LINE
  5
181
100
AcDbEntity
  8
0
  6
ByLayer
 62
  256
370
   -1
100
AcDbLine
 10
-21.57500022307556
 20
-0.6437495035840115
 11
-21.57500022307556
 21
-13.64374950358401
  0
ARC
  5
182
100
AcDbEntity
  8
0
  6
ByLayer
 62
  256
370
   -1
100
AcDbCircle
 10
-35.07500022307556
 20
-0.6437495035840115
 40
0.5
100
AcDbArc
 50
90
 51
180
  0
ARC
  5
183
100
AcDbEntity
  8
0
  6
ByLayer
 62
  256
370
   -1
100
AcDbCircle
 10
-22.07500022307556
 20
-0.6437495035840115
 40
0.5
100
AcDbArc
 50
0
 51
90
  0
ARC
  5
184
100
AcDbEntity
  8
0
  6
ByLayer
 62
  256
370
   -1
100
AcDbCircle
 10
-35.07500022307556
 20
-13.64374950358401
 40
0.5
100
AcDbArc
 50
180
 51
270
  0
ARC
  5
185
100
AcDbEntity
  8
0
  6
ByLayer
 62
  256
370
   -1
100
AcDbCircle
 10
-22.07500022307556
 20
-13.64374950358401
 40
0.5
100
AcDbArc
 50
270
 51
0
  0
LINE
  5
186
100
AcDbEntity
  8
0
  6
ByLayer
 62
  256
370
   -1
100
AcDbLine
 10
-16.02500022307558
 20
-0.1437495035840115
 11
-3.02500022307558
 21
-0.1437495035840115
  0
LINE
  5
187
100
AcDbEntity
  8
0
  6
ByLayer
 62
  256
370
   -1
100
AcDbLine
 10
-16.02500022307558
 20
-14.14374950358401
 11
-3.02500022307558
 21
-14.14374950358401
  0
LINE
  5
188
100
AcDbEntity
  8
0
  6
ByLayer
 62
  256
370
   -1
100
AcDbLine
 10
-16.52500022307558
 20
-0.6437495035840115
 11
-16.52500022307558
 21
-13.64374950358401
  0
LINE
  5
189
100
AcDbEntity
  8
0
  6
ByLayer
 62
  256
370
   -1
100
AcDbLine
 10
-2.52500022307558
 20
-0.6437495035840115
 11
-2.52500022307558
 21
-13.64374950358401
  0
ARC
  5
18A
100
AcDbEntity
  8
0
  6
ByLayer
 62
  256
370
   -1
100
AcDbCircle
 10
-16.02500022307558
 20
-0.6437495035840115
 40
0.5
100
AcDbArc
 50
90
 51
180
  0
ARC
  5
18B
100
AcDbEntity
  8
0
  6
ByLayer
 62
  256
370
   -1
100
AcDbCircle
 10
-3.02500022307558
 20
-0.6437495035840115
 40
0.5
100
AcDbArc
 50
0
 51
90
  0
ARC
  5
18C
100
AcDbEntity
  8
0
  6
ByLayer
 62
  256
370
   -1
100
AcDbCircle
 10
-16.02500022307558
 20
-13.64374950358401
 40
0.5
100
AcDbArc
 50
180
 51
270
  0
ARC
  5
18D
100
AcDbEntity
  8
0
  6
ByLayer
 62
  256
370
   -1
100
AcDbCircle
 10
-3.02500022307558
 20
-13.64374950358401
 40
0.5
100
AcDbArc
 50
270
 51
0
  0
LINE
  5
18E
100
AcDbEntity
  8
0
  6
ByLayer
 62
  256
370
   -1
100
AcDbLine
 10
3.024999776924432
 20
-0.1437495035840115
 11
16.02499977692443
 21
-0.1437495035840115
  0
LINE
  5
18F
100
AcDbEntity
  8
0
  6
ByLayer
 62
  256
370
   -1
100
AcDbLine
 10
3.024999776924432
 20
-14.14374950358401
 11
16.02499977692443
 21
-14.14374950358401
  0
LINE
  5
190
100
AcDbEntity
  8
0
  6
ByLayer
 62
  256
370
   -1
100
AcDbLine
 10
2.524999776924432
 20
-0.6437495035840115
 11
2.524999776924432
 21
-13.64374950358401
  0
LINE
  5
191
100
AcDbEntity
  8
0
  6
ByLayer
 62
  256
370
   -1
100
AcDbLine
 10
16.52499977692443
 20
-0.6437495035840115
 11
16.52499977692443
 21
-13.64374950358401
  0
ARC
  5
192
100
AcDbEntity
  8
0
  6
ByLayer
 62
  256
370
   -1
100
AcDbCircle
 10
3.024999776924432
 20
-0.6437495035840115
 40
0.5
100
AcDbArc
 50
90
 51
180
  0
ARC
  5
193
100
AcDbEntity
  8
0
  6
ByLayer
 62
  256
370
   -1
100
AcDbCircle
 10
16.02499977692443
 20
-0.6437495035840115
 40
0.5
100
AcDbArc
 50
0
 51
90
  0
ARC
  5
194
100
AcDbEntity
  8
0
  6
ByLayer
 62
  256
370
   -1
100
AcDbCircle
 10
3.024999776924432
 20
-13.64374950358401
 40
0.5
100
AcDbArc
 50
180
 51
270
  0
ARC
  5
195
100
AcDbEntity
  8
0
  6
ByLayer
 62
  256
370
   -1
100
AcDbCircle
 10
16.02499977692443
 20
-13.64374950358401
 40
0.5
100
AcDbArc
 50
270
 51
0
  0
LINE
  5
196
100
AcDbEntity
  8
0
  6
ByLayer
 62
  256
370
   -1
100
AcDbLine
 10
22.07499977692441
 20
-0.1437495035840115
 11
35.07499977692441
 21
-0.1437495035840115
  0
LINE
  5
197
100
AcDbEntity
  8
0
  6
ByLayer
 62
  256
370
   -1
100
AcDbLine
 10
22.07499977692441
 20
-14.14374950358401
 11
35.07499977692441
 21
-14.14374950358401
  0
LINE
  5
198
100
AcDbEntity
  8
0
  6
ByLayer
 62
  256
370
   -1
100
AcDbLine
 10
21.57499977692441
 20
-0.6437495035840115
 11
21.57499977692441
 21
-13.64374950358401
  0
LINE
  5
199
100
AcDbEntity
  8
0
  6
ByLayer
 62
  256
370
   -1
100
AcDbLine
 10
35.57499977692441
 20
-0.6437495035840115
 11
35.57499977692441
 21
-13.64374950358401
  0
ARC
  5
19A
100
AcDbEntity
  8
0
  6
ByLayer
 62
  256
370
   -1
100
AcDbCircle
 10
22.07499977692441
 20
-0.6437495035840115
 40
0.5
100
AcDbArc
 50
90
 51
180
  0
ARC
  5
19B
100
AcDbEntity
  8
0
  6
ByLayer
 62
  256
370
   -1
100
AcDbCircle
 10
35.07499977692441
 20
-0.6437495035840115
 40
0.5
100
AcDbArc
 50
0
 51
90
  0
ARC
  5
19C
100
AcDbEntity
  8
0
  6
ByLayer
 62
  256
370
   -1
100
AcDbCircle
 10
22.07499977692441
 20
-13.64374950358401
 40
0.5
100
AcDbArc
 50
180
 51
270
  0
ARC
  5
19D
100
AcDbEntity
  8
0
  6
ByLayer
 62
  256
370
   -1
100
AcDbCircle
 10
35.07499977692441
 20
-13.64374950358401
 40
0.5
100
AcDbArc
 50
270
 51
0
  0
LINE
  5
19E
100
AcDbEntity
  8
0
  6
ByLayer
 62
  256
370
   -1
100
AcDbLine
 10
43.50624977692442
 20
-0.1437495035840115
 11
56.50624977692442
 21
-0.1437495035840115
  0
LINE
  5
19F
100
AcDbEntity
  8
0
  6
ByLayer
 62
  256
370
   -1
100
AcDbLine
 10
43.50624977692442
 20
-14.14374950358401
 11
56.50624977692442
 21
-14.14374950358401
  0
LINE
  5
1A0
100
AcDbEntity
  8
0
  6
ByLayer
 62
  256
370
   -1
100
AcDbLine
 10
43.00624977692442
 20
-0.6437495035840115
 11
43.00624977692442
 21
-13.64374950358401
  0
LINE
  5
1A1
100
AcDbEntity
  8
0
  6
ByLayer
 62
  256
370
   -1
100
AcDbLine
 10
57.00624977692442
 20
-0.6437495035840115
 11
57.00624977692442
 21
-13.64374950358401
  0
ARC
  5
1A2
100
AcDbEntity
  8
0
  6
ByLayer
 62
  256
370
   -1
100
AcDbCircle
 10
43.50624977692442
 20
-0.6437495035840115
 40
0.5
100
AcDbArc
 50
90
 51
180
  0
ARC
  5
1A3
100
AcDbEntity
  8
0
  6
ByLayer
 62
  256
370
   -1
100
AcDbCircle
 10
56.50624977692442
 20
-0.6437495035840115
 40
0.5
100
AcDbArc
 50
0
 51
90
  0
ARC
  5
1A4
100
AcDbEntity
  8
0
  6
ByLayer
 62
  256
370
   -1
100
AcDbCircle
 10
43.50624977692442
 20
-13.64374950358401
 40
0.5
100
AcDbArc
 50
180
 51
270
  0
ARC
  5
1A5
100
AcDbEntity
  8
0
  6
ByLayer
 62
  256
370
   -1
100
AcDbCircle
 10
56.50624977692442
 20
-13.64374950358401
 40
0.5
100
AcDbArc
 50
270
 51
0
  0
LINE
  5
1A6
100
AcDbEntity
  8
0
  6
ByLayer
 62
  256
370
   -1
100
AcDbLine
 10
93.51249977692441
 20
-0.1437495035840115
 11
106.5124997769244
 21
-0.1437495035840115
  0
LINE
  5
1A7
100
AcDbEntity
  8
0
  6
ByLayer
 62
  256
370
   -1
100
AcDbLine
 10
93.51249977692441
 20
-14.14374950358401
 11
106.5124997769244
 21
-14.14374950358401
  0
LINE
  5
1A8
100
AcDbEntity
  8
0
  6
ByLayer
 62
  256
370
   -1
100
AcDbLine
 10
93.01249977692441
 20
-0.6437495035840115
 11
93.01249977692441
 21
-13.64374950358401
  0
LINE
  5
1A9
100
AcDbEntity
  8
0
  6
ByLayer
 62
  256
370
   -1
100
AcDbLine
 10
107.0124997769244
 20
-0.6437495035840115
 11
107.0124997769244
 21
-13.64374950358401
  0
ARC
  5
1AA
100
AcDbEntity
  8
0
  6
ByLayer
 62
  256
370
   -1
100
AcDbCircle
 10
93.51249977692441
 20
-0.6437495035840115
 40
0.5
100
AcDbArc
 50
90
 51
180
  0
ARC
  5
1AB
100
AcDbEntity
  8
0
  6
ByLayer
 62
  256
370
   -1
100
AcDbCircle
 10
106.5124997769244
 20
-0.6437495035840115
 40
0.5
100
AcDbArc
 50
0
 51
90
  0
ARC
  5
1AC
100
AcDbEntity
  8
0
  6
ByLayer
 62
  256
370
   -1
100
AcDbCircle
 10
93.51249977692441
 20
-13.64374950358401
 40
0.5
100
AcDbArc
 50
180
 51
270
  0
ARC
  5
1AD
100
AcDbEntity
  8
0
  6
ByLayer
 62
  256
370
   -1
100
AcDbCircle
 10
106.5124997769244
 20
-13.64374950358401
 40
0.5
100
AcDbArc
 50
270
 51
0
  0
LINE
  5
1AE
100
AcDbEntity
  8
0
  6
ByLayer
 62
  256
370
   -1
100
AcDbLine
 10
112.5624997769244
 20
-0.1437495035840115
 11
125.5624997769244
 21
-0.1437495035840115
  0
LINE
  5
1AF
100
AcDbEntity
  8
0
  6
ByLayer
 62
  256
370
   -1
100
AcDbLine
 10
112.5624997769244
 20
-14.14374950358401
 11
125.5624997769244
 21
-14.14374950358401
  0
LINE
  5
1B0
100
AcDbEntity
  8
0
  6
ByLayer
 62
  256
370
   -1
100
AcDbLine
 10
112.0624997769244
 20
-0.6437495035840115
 11
112.0624997769244
 21
-13.64374950358401
  0
LINE
  5
1B1
100
AcDbEntity
  8
0
  6
ByLayer
 62
  256
370
   -1
100
AcDbLine
 10
126.0624997769244
 20
-0.6437495035840115
 11
126.0624997769244
 21
-13.64374950358401
  0
ARC
  5
1B2
100
AcDbEntity
  8
0
  6
ByLayer
 62
  256
370
   -1
100
AcDbCircle
 10
112.5624997769244
 20
-0.6437495035840115
 40
0.5
100
AcDbArc
 50
90
 51
180
  0
ARC
  5
1B3
100
AcDbEntity
  8
0
  6
ByLayer
 62
  256
370
   -1
100
AcDbCircle
 10
125.5624997769244
 20
-0.6437495035840115
 40
0.5
100
AcDbArc
 50
0
 51
90
  0
ARC
  5
1B4
100
AcDbEntity
  8
0
  6
ByLayer
 62
  256
370
   -1
100
AcDbCircle
 10
112.5624997769244
 20
-13.64374950358401
 40
0.5
100
AcDbArc
 50
180
 51
270
  0
ARC
  5
1B5
100
AcDbEntity
  8
0
  6
ByLayer
 62
  256
370
   -1
100
AcDbCircle
 10
125.5624997769244
 20
-13.64374950358401
 40
0.5
100
AcDbArc
 50
270
 51
0
  0
LINE
  5
1B6
100
AcDbEntity
  8
0
  6
ByLayer
 62
  256
370
   -1
100
AcDbLine
 10
131.6124997769244
 20
-0.1437495035840115
 11
144.6124997769244
 21
-0.1437495035840115
  0
LINE
  5
1B7
100
AcDbEntity
  8
0
  6
ByLayer
 62
  256
370
   -1
100
AcDbLine
 10
131.6124997769244
 20
-14.14374950358401
 11
144.6124997769244
 21
-14.14374950358401
  0
LINE
  5
1B8
100
AcDbEntity
  8
0
  6
ByLayer
 62
  256
370
   -1
100
AcDbLine
 10
131.1124997769244
 20
-0.6437495035840115
 11
131.1124997769244
 21
-13.64374950358401
  0
LINE
  5
1B9
100
AcDbEntity
  8
0
  6
ByLayer
 62
  256
370
   -1
100
AcDbLine
 10
145.1124997769244
 20
-0.6437495035840115
 11
145.1124997769244
 21
-13.64374950358401
  0
ARC
  5
1BA
100
AcDbEntity
  8
0
  6
ByLayer
 62
  256
370
   -1
100
AcDbCircle
 10
131.6124997769244
 20
-0.6437495035840115
 40
0.5
100
AcDbArc
 50
90
 51
180
  0
ARC
  5
1BB
100
AcDbEntity
  8
0
  6
ByLayer
 62
  256
370
   -1
100
AcDbCircle
 10
144.6124997769244
 20
-0.6437495035840115
 40
0.5
100
AcDbArc
 50
0
 51
90
  0
ARC
  5
1BC
100
AcDbEntity
  8
0
  6
ByLayer
 62
  256
370
   -1
100
AcDbCircle
 10
131.6124997769244
 20
-13.64374950358401
 40
0.5
100
AcDbArc
 50
180
 51
270
  0
ARC
  5
1BD
100
AcDbEntity
  8
0
  6
ByLayer
 62
  256
370
   -1
100
AcDbCircle
 10
144.6124997769244
 20
-13.64374950358401
 40
0.5
100
AcDbArc
 50
270
 51
0
  0
LINE
  5
1BE
100
AcDbEntity
  8
0
  6
ByLayer
 62
  256
370
   -1
100
AcDbLine
 10
164.1624997769244
 20
-10.16874950358401
 11
164.1624997769244
 21
-23.16874950358401
  0
LINE
  5
1BF
100
AcDbEntity
  8
0
  6
ByLayer
 62
  256
370
   -1
100
AcDbLine
 10
150.1624997769244
 20
-10.16874950358401
 11
150.1624997769244
 21
-23.16874950358401
  0
LINE
  5
1C0
100
AcDbEntity
  8
0
  6
ByLayer
 62
  256
370
   -1
100
AcDbLine
 10
163.6624997769244
 20
-9.668749503584007
 11
150.6624997769244
 21
-9.668749503584007
  0
LINE
  5
1C1
100
AcDbEntity
  8
0
  6
ByLayer
 62
  256
370
   -1
100
AcDbLine
 10
163.6624997769244
 20
-23.66874950358401
 11
150.6624997769244
 21
-23.66874950358401
  0
ARC
  5
1C2
100
AcDbEntity
  8
0
  6
ByLayer
 62
  256
370
   -1
100
AcDbCircle
 10
163.6624997769244
 20
-10.16874950358401
 40
0.5
100
AcDbArc
 50
0
 51
90
  0
ARC
  5
1C3
100
AcDbEntity
  8
0
  6
ByLayer
 62
  256
370
   -1
100
AcDbCircle
 10
163.6624997769244
 20
-23.16874950358401
 40
0.5
100
AcDbArc
 50
270
 51
0
  0
ARC
  5
1C4
100
AcDbEntity
  8
0
  6
ByLayer
 62
  256
370
   -1
100
AcDbCircle
 10
150.6624997769244
 20
-10.16874950358401
 40
0.5
100
AcDbArc
 50
90
 51
180
  0
ARC
  5
1C5
100
AcDbEntity
  8
0
  6
ByLayer
 62
  256
370
   -1
100
AcDbCircle
 10
150.6624997769244
 20
-23.16874950358401
 40
0.5
100
AcDbArc
 50
180
 51
270
  0
LINE
  5
1C6
100
AcDbEntity
  8
0
  6
ByLayer
 62
  256
370
   -1
100
AcDbLine
 10
163.1624997769244
 20
-1.730749503584015
 11
163.1624997769244
 21
-7.730749503584015
  0
LINE
  5
1C7
100
AcDbEntity
  8
0
  6
ByLayer
 62
  256
370
   -1
100
AcDbLine
 10
148.1624997769244
 20
-1.730749503584015
 11
148.1624997769244
 21
-7.730749503584015
  0
LINE
  5
1C8
100
AcDbEntity
  8
0
  6
ByLayer
 62
  256
370
   -1
100
AcDbLine
 10
162.6624997769244
 20
-1.230749503584015
 11
148.6624997769244
 21
-1.230749503584015
  0
LINE
  5
1C9
100
AcDbEntity
  8
0
  6
ByLayer
 62
  256
370
   -1
100
AcDbLine
 10
162.6624997769244
 20
-8.230749503584015
 11
148.6624997769244
 21
-8.230749503584015
  0
ARC
  5
1CA
100
AcDbEntity
  8
0
  6
ByLayer
 62
  256
370
   -1
100
AcDbCircle
 10
162.6624997769244
 20
-1.730749503584015
 40
0.5
100
AcDbArc
 50
0
 51
90
  0
ARC
  5
1CB
100
AcDbEntity
  8
0
  6
ByLayer
 62
  256
370
   -1
100
AcDbCircle
 10
162.6624997769244
 20
-7.730749503584015
 40
0.5
100
AcDbArc
 50
270
 51
0
  0
ARC
  5
1CC
100
AcDbEntity
  8
0
  6
ByLayer
 62
  256
370
   -1
100
AcDbCircle
 10
148.6624997769244
 20
-1.730749503584015
 40
0.5
100
AcDbArc
 50
90
 51
180
  0
ARC
  5
1CD
100
AcDbEntity
  8
0
  6
ByLayer
 62
  256
370
   -1
100
AcDbCircle
 10
148.6624997769244
 20
-7.730749503584015
 40
0.5
100
AcDbArc
 50
180
 51
270
  0
LINE
  5
1CE
100
AcDbEntity
  8
0
  6
ByLayer
 62
  256
370
   -1
100
AcDbLine
 10
163.1624997769244
 20
-25.60674950358401
 11
163.1624997769244
 21
-31.60674950358401
  0
LINE
  5
1CF
100
AcDbEntity
  8
0
  6
ByLayer
 62
  256
370
   -1
100
AcDbLine
 10
148.1624997769244
 20
-25.60674950358401
 11
148.1624997769244
 21
-31.60674950358401
  0
LINE
  5
1D0
100
AcDbEntity
  8
0
  6
ByLayer
 62
  256
370
   -1
100
AcDbLine
 10
162.6624997769244
 20
-25.106749503584
 11
148.6624997769244
 21
-25.106749503584
  0
LINE
  5
1D1
100
AcDbEntity
  8
0
  6
ByLayer
 62
  256
370
   -1
100
AcDbLine
 10
162.6624997769244
 20
-32.10674950358401
 11
148.6624997769244
 21
-32.10674950358401
  0
ARC
  5
1D2
100
AcDbEntity
  8
0
  6
ByLayer
 62
  256
370
   -1
100
AcDbCircle
 10
162.6624997769244
 20
-25.60674950358401
 40
0.5
100
AcDbArc
 50
0
 51
90
  0
ARC
  5
1D3
100
AcDbEntity
  8
0
  6
ByLayer
 62
  256
370
   -1
100
AcDbCircle
 10
162.6624997769244
 20
-31.60674950358401
 40
0.5
100
AcDbArc
 50
270
 51
0
  0
ARC
  5
1D4
100
AcDbEntity
  8
0
  6
ByLayer
 62
  256
370
   -1
100
AcDbCircle
 10
148.6624997769244
 20
-25.60674950358401
 40
0.5
100
AcDbArc
 50
90
 51
180
  0
ARC
  5
1D5
100
AcDbEntity
  8
0
  6
ByLayer
 62
  256
370
   -1
100
AcDbCircle
 10
148.6624997769244
 20
-31.60674950358401
 40
0.5
100
AcDbArc
 50
180
 51
270
  0
LINE
  5
1D6
100
AcDbEntity
  8
0
  6
ByLayer
 62
  256
370
   -1
100
AcDbLine
 10
69.69999977692441
 20
-4.906249503584014
 11
82.69999977692441
 21
-4.906249503584014
  0
LINE
  5
1D7
100
AcDbEntity
  8
0
  6
ByLayer
 62
  256
370
   -1
100
AcDbLine
 10
69.69999977692441
 20
-18.90624950358401
 11
82.69999977692441
 21
-18.90624950358401
  0
LINE
  5
1D8
100
AcDbEntity
  8
0
  6
ByLayer
 62
  256
370
   -1
100
AcDbLine
 10
69.19999977692441
 20
-5.406249503584014
 11
69.19999977692441
 21
-18.40624950358401
  0
LINE
  5
1D9
100
AcDbEntity
  8
0
  6
ByLayer
 62
  256
370
   -1
100
AcDbLine
 10
83.19999977692441
 20
-5.406249503584014
 11
83.19999977692441
 21
-18.40624950358401
  0
ARC
  5
1DA
100
AcDbEntity
  8
0
  6
ByLayer
 62
  256
370
   -1
100
AcDbCircle
 10
69.69999977692441
 20
-5.406249503584014
 40
0.5
100
AcDbArc
 50
90
 51
180
  0
ARC
  5
1DB
100
AcDbEntity
  8
0
  6
ByLayer
 62
  256
370
   -1
100
AcDbCircle
 10
82.69999977692441
 20
-5.406249503584014
 40
0.5
100
AcDbArc
 50
0
 51
90
  0
ARC
  5
1DC
100
AcDbEntity
  8
0
  6
ByLayer
 62
  256
370
   -1
100
AcDbCircle
 10
69.69999977692441
 20
-18.40624950358401
 40
0.5
100
AcDbArc
 50
180
 51
270
  0
ARC
  5
1DD
100
AcDbEntity
  8
0
  6
ByLayer
 62
  256
370
   -1
100
AcDbCircle
 10
82.69999977692441
 20
-18.40624950358401
 40
0.5
100
AcDbArc
 50
270
 51
0
  0
LINE
  5
1DE
100
AcDbEntity
  8
0
  6
ByLayer
 62
  256
370
   -1
100
AcDbLine
 10
-161.2812502230756
 20
-19.19374950358401
 11
-148.2812502230756
 21
-19.19374950358401
  0
LINE
  5
1DF
100
AcDbEntity
  8
0
  6
ByLayer
 62
  256
370
   -1
100
AcDbLine
 10
-161.2812502230756
 20
-33.19374950358401
 11
-148.2812502230756
 21
-33.19374950358401
  0
LINE
  5
1E0
100
AcDbEntity
  8
0
  6
ByLayer
 62
  256
370
   -1
100
AcDbLine
 10
-161.7812502230756
 20
-19.69374950358401
 11
-161.7812502230756
 21
-32.69374950358401
  0
LINE
  5
1E1
100
AcDbEntity
  8
0
  6
ByLayer
 62
  256
370
   -1
100
AcDbLine
 10
-147.7812502230756
 20
-19.69374950358401
 11
-147.7812502230756
 21
-32.69374950358401
  0
ARC
  5
1E2
100
AcDbEntity
  8
0
  6
ByLayer
 62
  256
370
   -1
100
AcDbCircle
 10
-161.2812502230756
 20
-19.69374950358401
 40
0.5
100
AcDbArc
 50
90
 51
180
  0
ARC
  5
1E3
100
AcDbEntity
  8
0
  6
ByLayer
 62
  256
370
   -1
100
AcDbCircle
 10
-148.2812502230756
 20
-19.69374950358401
 40
0.5
100
AcDbArc
 50
0
 51
90
  0
ARC
  5
1E4
100
AcDbEntity
  8
0
  6
ByLayer
 62
  256
370
   -1
100
AcDbCircle
 10
-161.2812502230756
 20
-32.69374950358401
 40
0.5
100
AcDbArc
 50
180
 51
270
  0
ARC
  5
1E5
100
AcDbEntity
  8
0
  6
ByLayer
 62
  256
370
   -1
100
AcDbCircle
 10
-148.2812502230756
 20
-32.69374950358401
 40
0.5
100
AcDbArc
 50
270
 51
0
  0
LINE
  5
1E6
100
AcDbEntity
  8
0
  6
ByLayer
 62
  256
370
   -1
100
AcDbLine
 10
-139.8500002230756
 20
-19.19374950358401
 11
-126.8500002230756
 21
-19.19374950358401
  0
LINE
  5
1E7
100
AcDbEntity
  8
0
  6
ByLayer
 62
  256
370
   -1
100
AcDbLine
 10
-139.8500002230756
 20
-33.19374950358401
 11
-126.8500002230756
 21
-33.19374950358401
  0
LINE
  5
1E8
100
AcDbEntity
  8
0
  6
ByLayer
 62
  256
370
   -1
100
AcDbLine
 10
-140.3500002230756
 20
-19.69374950358401
 11
-140.3500002230756
 21
-32.69374950358401
  0
LINE
  5
1E9
100
AcDbEntity
  8
0
  6
ByLayer
 62
  256
370
   -1
100
AcDbLine
 10
-126.3500002230756
 20
-19.69374950358401
 11
-126.3500002230756
 21
-32.69374950358401
  0
ARC
  5
1EA
100
AcDbEntity
  8
0
  6
ByLayer
 62
  256
370
   -1
100
AcDbCircle
 10
-139.8500002230756
 20
-19.69374950358401
 40
0.5
100
AcDbArc
 50
90
 51
180
  0
ARC
  5
1EB
100
AcDbEntity
  8
0
  6
ByLayer
 62
  256
370
   -1
100
AcDbCircle
 10
-126.8500002230756
 20
-19.69374950358401
 40
0.5
100
AcDbArc
 50
0
 51
90
  0
ARC
  5
1EC
100
AcDbEntity
  8
0
  6
ByLayer
 62
  256
370
   -1
100
AcDbCircle
 10
-139.8500002230756
 20
-32.69374950358401
 40
0.5
100
AcDbArc
 50
180
 51
270
  0
ARC
  5
1ED
100
AcDbEntity
  8
0
  6
ByLayer
 62
  256
370
   -1
100
AcDbCircle
 10
-126.8500002230756
 20
-32.69374950358401
 40
0.5
100
AcDbArc
 50
270
 51
0
  0
LINE
  5
1EE
100
AcDbEntity
  8
0
  6
ByLayer
 62
  256
370
   -1
100
AcDbLine
 10
-118.4187502230756
 20
-19.19374950358401
 11
-105.4187502230756
 21
-19.19374950358401
  0
LINE
  5
1EF
100
AcDbEntity
  8
0
  6
ByLayer
 62
  256
370
   -1
100
AcDbLine
 10
-118.4187502230756
 20
-33.19374950358401
 11
-105.4187502230756
 21
-33.19374950358401
  0
LINE
  5
1F0
100
AcDbEntity
  8
0
  6
ByLayer
 62
  256
370
   -1
100
AcDbLine
 10
-118.9187502230756
 20
-19.69374950358401
 11
-118.9187502230756
 21
-32.69374950358401
  0
LINE
  5
1F1
100
AcDbEntity
  8
0
  6
ByLayer
 62
  256
370
   -1
100
AcDbLine
 10
-104.9187502230756
 20
-19.69374950358401
 11
-104.9187502230756
 21
-32.69374950358401
  0
ARC
  5
1F2
100
AcDbEntity
  8
0
  6
ByLayer
 62
  256
370
   -1
100
AcDbCircle
 10
-118.4187502230756
 20
-19.69374950358401
 40
0.5
100
AcDbArc
 50
90
 51
180
  0
ARC
  5
1F3
100
AcDbEntity
  8
0
  6
ByLayer
 62
  256
370
   -1
100
AcDbCircle
 10
-105.4187502230756
 20
-19.69374950358401
 40
0.5
100
AcDbArc
 50
0
 51
90
  0
ARC
  5
1F4
100
AcDbEntity
  8
0
  6
ByLayer
 62
  256
370
   -1
100
AcDbCircle
 10
-118.4187502230756
 20
-32.69374950358401
 40
0.5
100
AcDbArc
 50
180
 51
270
  0
ARC
  5
1F5
100
AcDbEntity
  8
0
  6
ByLayer
 62
  256
370
   -1
100
AcDbCircle
 10
-105.4187502230756
 20
-32.69374950358401
 40
0.5
100
AcDbArc
 50
270
 51
0
  0
LINE
  5
1F6
100
AcDbEntity
  8
0
  6
ByLayer
 62
  256
370
   -1
100
AcDbLine
 10
-80.31875022307557
 20
-19.19374950358401
 11
-67.31875022307557
 21
-19.19374950358401
  0
LINE
  5
1F7
100
AcDbEntity
  8
0
  6
ByLayer
 62
  256
370
   -1
100
AcDbLine
 10
-80.31875022307557
 20
-33.19374950358401
 11
-67.31875022307557
 21
-33.19374950358401
  0
LINE
  5
1F8
100
AcDbEntity
  8
0
  6
ByLayer
 62
  256
370
   -1
100
AcDbLine
 10
-80.81875022307557
 20
-19.69374950358401
 11
-80.81875022307557
 21
-32.69374950358401
  0
LINE
  5
1F9
100
AcDbEntity
  8
0
  6
ByLayer
 62
  256
370
   -1
100
AcDbLine
 10
-66.81875022307557
 20
-19.69374950358401
 11
-66.81875022307557
 21
-32.69374950358401
  0
ARC
  5
1FA
100
AcDbEntity
  8
0
  6
ByLayer
 62
  256
370
   -1
100
AcDbCircle
 10
-80.31875022307557
 20
-19.69374950358401
 40
0.5
100
AcDbArc
 50
90
 51
180
  0
ARC
  5
1FB
100
AcDbEntity
  8
0
  6
ByLayer
 62
  256
370
   -1
100
AcDbCircle
 10
-67.31875022307557
 20
-19.69374950358401
 40
0.5
100
AcDbArc
 50
0
 51
90
  0
ARC
  5
1FC
100
AcDbEntity
  8
0
  6
ByLayer
 62
  256
370
   -1
100
AcDbCircle
 10
-80.31875022307557
 20
-32.69374950358401
 40
0.5
100
AcDbArc
 50
180
 51
270
  0
ARC
  5
1FD
100
AcDbEntity
  8
0
  6
ByLayer
 62
  256
370
   -1
100
AcDbCircle
 10
-67.31875022307557
 20
-32.69374950358401
 40
0.5
100
AcDbArc
 50
270
 51
0
  0
LINE
  5
1FE
100
AcDbEntity
  8
0
  6
ByLayer
 62
  256
370
   -1
100
AcDbLine
 10
-88.75675022307557
 20
-20.19374950358401
 11
-82.75675022307557
 21
-20.19374950358401
  0
LINE
  5
1FF
100
AcDbEntity
  8
0
  6
ByLayer
 62
  256
370
   -1
100
AcDbLine
 10
-88.75675022307557
 20
-35.19374950358401
 11
-82.75675022307557
 21
-35.19374950358401
  0
LINE
  5
200
100
AcDbEntity
  8
0
  6
ByLayer
 62
  256
370
   -1
100
AcDbLine
 10
-89.25675022307557
 20
-20.69374950358401
 11
-89.25675022307557
 21
-34.69374950358401
  0
LINE
  5
201
100
AcDbEntity
  8
0
  6
ByLayer
 62
  256
370
   -1
100
AcDbLine
 10
-82.25675022307557
 20
-20.69374950358401
 11
-82.25675022307557
 21
-34.69374950358401
  0
ARC
  5
202
100
AcDbEntity
  8
0
  6
ByLayer
 62
  256
370
   -1
100
AcDbCircle
 10
-88.75675022307557
 20
-20.69374950358401
 40
0.5
100
AcDbArc
 50
90
 51
180
  0
ARC
  5
203
100
AcDbEntity
  8
0
  6
ByLayer
 62
  256
370
   -1
100
AcDbCircle
 10
-82.75675022307557
 20
-20.69374950358401
 40
0.5
100
AcDbArc
 50
0
 51
90
  0
ARC
  5
204
100
AcDbEntity
  8
0
  6
ByLayer
 62
  256
370
   -1
100
AcDbCircle
 10
-88.75675022307557
 20
-34.69374950358401
 40
0.5
100
AcDbArc
 50
180
 51
270
  0
ARC
  5
205
100
AcDbEntity
  8
0
  6
ByLayer
 62
  256
370
   -1
100
AcDbCircle
 10
-82.75675022307557
 20
-34.69374950358401
 40
0.5
100
AcDbArc
 50
270
 51
0
  0
LINE
  5
206
100
AcDbEntity
  8
0
  6
ByLayer
 62
  256
370
   -1
100
AcDbLine
 10
-64.88075022307558
 20
-20.19374950358401
 11
-58.88075022307558
 21
-20.19374950358401
  0
LINE
  5
207
100
AcDbEntity
  8
0
  6
ByLayer
 62
  256
370
   -1
100
AcDbLine
 10
-64.88075022307558
 20
-35.19374950358401
 11
-58.88075022307558
 21
-35.19374950358401
  0
LINE
  5
208
100
AcDbEntity
  8
0
  6
ByLayer
 62
  256
370
   -1
100
AcDbLine
 10
-65.38075022307558
 20
-20.69374950358401
 11
-65.38075022307558
 21
-34.69374950358401
  0
LINE
  5
209
100
AcDbEntity
  8
0
  6
ByLayer
 62
  256
370
   -1
100
AcDbLine
 10
-58.38075022307558
 20
-20.69374950358401
 11
-58.38075022307558
 21
-34.69374950358401
  0
ARC
  5
20A
100
AcDbEntity
  8
0
  6
ByLayer
 62
  256
370
   -1
100
AcDbCircle
 10
-64.88075022307558
 20
-20.69374950358401
 40
0.5
100
AcDbArc
 50
90
 51
180
  0
ARC
  5
20B
100
AcDbEntity
  8
0
  6
ByLayer
 62
  256
370
   -1
100
AcDbCircle
 10
-58.88075022307558
 20
-20.69374950358401
 40
0.5
100
AcDbArc
 50
0
 51
90
  0
ARC
  5
20C
100
AcDbEntity
  8
0
  6
ByLayer
 62
  256
370
   -1
100
AcDbCircle
 10
-64.88075022307558
 20
-34.69374950358401
 40
0.5
100
AcDbArc
 50
180
 51
270
  0
ARC
  5
20D
100
AcDbEntity
  8
0
  6
ByLayer
 62
  256
370
   -1
100
AcDbCircle
 10
-58.88075022307558
 20
-34.69374950358401
 40
0.5
100
AcDbArc
 50
270
 51
0
  0
LINE
  5
20E
100
AcDbEntity
  8
0
  6
ByLayer
 62
  256
370
   -1
100
AcDbLine
 10
-32.69375022307557
 20
-19.19374950358401
 11
-19.69375022307557
 21
-19.19374950358401
  0
LINE
  5
20F
100
AcDbEntity
  8
0
  6
ByLayer
 62
  256
370
   -1
100
AcDbLine
 10
-32.69375022307557
 20
-33.19374950358401
 11
-19.69375022307557
 21
-33.19374950358401
  0
LINE
  5
210
100
AcDbEntity
  8
0
  6
ByLayer
 62
  256
370
   -1
100
AcDbLine
 10
-33.19375022307557
 20
-19.69374950358401
 11
-33.19375022307557
 21
-32.69374950358401
  0
LINE
  5
211
100
AcDbEntity
  8
0
  6
ByLayer
 62
  256
370
   -1
100
AcDbLine
 10
-19.19375022307557
 20
-19.69374950358401
 11
-19.19375022307557
 21
-32.69374950358401
  0
ARC
  5
212
100
AcDbEntity
  8
0
  6
ByLayer
 62
  256
370
   -1
100
AcDbCircle
 10
-32.69375022307557
 20
-19.69374950358401
 40
0.5
100
AcDbArc
 50
90
 51
180
  0
ARC
  5
213
100
AcDbEntity
  8
0
  6
ByLayer
 62
  256
370
   -1
100
AcDbCircle
 10
-19.69375022307557
 20
-19.69374950358401
 40
0.5
100
AcDbArc
 50
0
 51
90
  0
ARC
  5
214
100
AcDbEntity
  8
0
  6
ByLayer
 62
  256
370
   -1
100
AcDbCircle
 10
-32.69375022307557
 20
-32.69374950358401
 40
0.5
100
AcDbArc
 50
180
 51
270
  0
ARC
  5
215
100
AcDbEntity
  8
0
  6
ByLayer
 62
  256
370
   -1
100
AcDbCircle
 10
-19.69375022307557
 20
-32.69374950358401
 40
0.5
100
AcDbArc
 50
270
 51
0
  0
LINE
  5
216
100
AcDbEntity
  8
0
  6
ByLayer
 62
  256
370
   -1
100
AcDbLine
 10
-41.13175022307557
 20
-20.19374950358401
 11
-35.13175022307558
 21
-20.19374950358401
  0
LINE
  5
217
100
AcDbEntity
  8
0
  6
ByLayer
 62
  256
370
   -1
100
AcDbLine
 10
-41.13175022307557
 20
-35.19374950358401
 11
-35.13175022307558
 21
-35.19374950358401
  0
LINE
  5
218
100
AcDbEntity
  8
0
  6
ByLayer
 62
  256
370
   -1
100
AcDbLine
 10
-41.63175022307557
 20
-20.69374950358401
 11
-41.63175022307557
 21
-34.69374950358401
  0
LINE
  5
219
100
AcDbEntity
  8
0
  6
ByLayer
 62
  256
370
   -1
100
AcDbLine
 10
-34.63175022307558
 20
-20.69374950358401
 11
-34.63175022307558
 21
-34.69374950358401
  0
ARC
  5
21A
100
AcDbEntity
  8
0
  6
ByLayer
 62
  256
370
   -1
100
AcDbCircle
 10
-41.13175022307557
 20
-20.69374950358401
 40
0.5
100
AcDbArc
 50
90
 51
180
  0
ARC
  5
21B
100
AcDbEntity
  8
0
  6
ByLayer
 62
  256
370
   -1
100
AcDbCircle
 10
-35.13175022307558
 20
-20.69374950358401
 40
0.5
100
AcDbArc
 50
0
 51
90
  0
ARC
  5
21C
100
AcDbEntity
  8
0
  6
ByLayer
 62
  256
370
   -1
100
AcDbCircle
 10
-41.13175022307557
 20
-34.69374950358401
 40
0.5
100
AcDbArc
 50
180
 51
270
  0
ARC
  5
21D
100
AcDbEntity
  8
0
  6
ByLayer
 62
  256
370
   -1
100
AcDbCircle
 10
-35.13175022307558
 20
-34.69374950358401
 40
0.5
100
AcDbArc
 50
270
 51
0
  0
LINE
  5
21E
100
AcDbEntity
  8
0
  6
ByLayer
 62
  256
370
   -1
100
AcDbLine
 10
-17.25575022307558
 20
-20.19374950358401
 11
-11.25575022307558
 21
-20.19374950358401
  0
LINE
  5
21F
100
AcDbEntity
  8
0
  6
ByLayer
 62
  256
370
   -1
100
AcDbLine
 10
-17.25575022307558
 20
-35.19374950358401
 11
-11.25575022307558
 21
-35.19374950358401
  0
LINE
  5
220
100
AcDbEntity
  8
0
  6
ByLayer
 62
  256
370
   -1
100
AcDbLine
 10
-17.75575022307558
 20
-20.69374950358401
 11
-17.75575022307558
 21
-34.69374950358401
  0
LINE
  5
221
100
AcDbEntity
  8
0
  6
ByLayer
 62
  256
370
   -1
100
AcDbLine
 10
-10.75575022307558
 20
-20.69374950358401
 11
-10.75575022307558
 21
-34.69374950358401
  0
ARC
  5
222
100
AcDbEntity
  8
0
  6
ByLayer
 62
  256
370
   -1
100
AcDbCircle
 10
-17.25575022307558
 20
-20.69374950358401
 40
0.5
100
AcDbArc
 50
90
 51
180
  0
ARC
  5
223
100
AcDbEntity
  8
0
  6
ByLayer
 62
  256
370
   -1
100
AcDbCircle
 10
-11.25575022307558
 20
-20.69374950358401
 40
0.5
100
AcDbArc
 50
0
 51
90
  0
ARC
  5
224
100
AcDbEntity
  8
0
  6
ByLayer
 62
  256
370
   -1
100
AcDbCircle
 10
-17.25575022307558
 20
-34.69374950358401
 40
0.5
100
AcDbArc
 50
180
 51
270
  0
ARC
  5
225
100
AcDbEntity
  8
0
  6
ByLayer
 62
  256
370
   -1
100
AcDbCircle
 10
-11.25575022307558
 20
-34.69374950358401
 40
0.5
100
AcDbArc
 50
270
 51
0
  0
LINE
  5
226
100
AcDbEntity
  8
0
  6
ByLayer
 62
  256
370
   -1
100
AcDbLine
 10
0.6437497769244374
 20
-19.19374950358401
 11
13.64374977692444
 21
-19.19374950358401
  0
LINE
  5
227
100
AcDbEntity
  8
0
  6
ByLayer
 62
  256
370
   -1
100
AcDbLine
 10
0.6437497769244374
 20
-33.19374950358401
 11
13.64374977692444
 21
-33.19374950358401
  0
LINE
  5
228
100
AcDbEntity
  8
0
  6
ByLayer
 62
  256
370
   -1
100
AcDbLine
 10
0.1437497769244374
 20
-19.69374950358401
 11
0.1437497769244374
 21
-32.69374950358401
  0
LINE
  5
229
100
AcDbEntity
  8
0
  6
ByLayer
 62
  256
370
   -1
100
AcDbLine
 10
14.14374977692444
 20
-19.69374950358401
 11
14.14374977692444
 21
-32.69374950358401
  0
ARC
  5
22A
100
AcDbEntity
  8
0
  6
ByLayer
 62
  256
370
   -1
100
AcDbCircle
 10
0.6437497769244374
 20
-19.69374950358401
 40
0.5
100
AcDbArc
 50
90
 51
180
  0
ARC
  5
22B
100
AcDbEntity
  8
0
  6
ByLayer
 62
  256
370
   -1
100
AcDbCircle
 10
13.64374977692444
 20
-19.69374950358401
 40
0.5
100
AcDbArc
 50
0
 51
90
  0
ARC
  5
22C
100
AcDbEntity
  8
0
  6
ByLayer
 62
  256
370
   -1
100
AcDbCircle
 10
0.6437497769244374
 20
-32.69374950358401
 40
0.5
100
AcDbArc
 50
180
 51
270
  0
ARC
  5
22D
100
AcDbEntity
  8
0
  6
ByLayer
 62
  256
370
   -1
100
AcDbCircle
 10
13.64374977692444
 20
-32.69374950358401
 40
0.5
100
AcDbArc
 50
270
 51
0
  0
LINE
  5
22E
100
AcDbEntity
  8
0
  6
ByLayer
 62
  256
370
   -1
100
AcDbLine
 10
24.45624977692444
 20
-19.19374950358401
 11
37.45624977692444
 21
-19.19374950358401
  0
LINE
  5
22F
100
AcDbEntity
  8
0
  6
ByLayer
 62
  256
370
   -1
100
AcDbLine
 10
24.45624977692444
 20
-33.19374950358401
 11
37.45624977692444
 21
-33.19374950358401
  0
LINE
  5
230
100
AcDbEntity
  8
0
  6
ByLayer
 62
  256
370
   -1
100
AcDbLine
 10
23.95624977692444
 20
-19.69374950358401
 11
23.95624977692444
 21
-32.69374950358401
  0
LINE
  5
231
100
AcDbEntity
  8
0
  6
ByLayer
 62
  256
370
   -1
100
AcDbLine
 10
37.95624977692444
 20
-19.69374950358401
 11
37.95624977692444
 21
-32.69374950358401
  0
ARC
  5
232
100
AcDbEntity
  8
0
  6
ByLayer
 62
  256
370
   -1
100
AcDbCircle
 10
24.45624977692444
 20
-19.69374950358401
 40
0.5
100
AcDbArc
 50
90
 51
180
  0
ARC
  5
233
100
AcDbEntity
  8
0
  6
ByLayer
 62
  256
370
   -1
100
AcDbCircle
 10
37.45624977692444
 20
-19.69374950358401
 40
0.5
100
AcDbArc
 50
0
 51
90
  0
ARC
  5
234
100
AcDbEntity
  8
0
  6
ByLayer
 62
  256
370
   -1
100
AcDbCircle
 10
24.45624977692444
 20
-32.69374950358401
 40
0.5
100
AcDbArc
 50
180
 51
270
  0
ARC
  5
235
100
AcDbEntity
  8
0
  6
ByLayer
 62
  256
370
   -1
100
AcDbCircle
 10
37.45624977692444
 20
-32.69374950358401
 40
0.5
100
AcDbArc
 50
270
 51
0
  0
LINE
  5
236
100
AcDbEntity
  8
0
  6
ByLayer
 62
  256
370
   -1
100
AcDbLine
 10
112.5624997769244
 20
-19.19374950358401
 11
125.5624997769244
 21
-19.19374950358401
  0
LINE
  5
237
100
AcDbEntity
  8
0
  6
ByLayer
 62
  256
370
   -1
100
AcDbLine
 10
112.5624997769244
 20
-33.19374950358401
 11
125.5624997769244
 21
-33.19374950358401
  0
LINE
  5
238
100
AcDbEntity
  8
0
  6
ByLayer
 62
  256
370
   -1
100
AcDbLine
 10
112.0624997769244
 20
-19.69374950358401
 11
112.0624997769244
 21
-32.69374950358401
  0
LINE
  5
239
100
AcDbEntity
  8
0
  6
ByLayer
 62
  256
370
   -1
100
AcDbLine
 10
126.0624997769244
 20
-19.69374950358401
 11
126.0624997769244
 21
-32.69374950358401
  0
ARC
  5
23A
100
AcDbEntity
  8
0
  6
ByLayer
 62
  256
370
   -1
100
AcDbCircle
 10
112.5624997769244
 20
-19.69374950358401
 40
0.5
100
AcDbArc
 50
90
 51
180
  0
ARC
  5
23B
100
AcDbEntity
  8
0
  6
ByLayer
 62
  256
370
   -1
100
AcDbCircle
 10
125.5624997769244
 20
-19.69374950358401
 40
0.5
100
AcDbArc
 50
0
 51
90
  0
ARC
  5
23C
100
AcDbEntity
  8
0
  6
ByLayer
 62
  256
370
   -1
100
AcDbCircle
 10
112.5624997769244
 20
-32.69374950358401
 40
0.5
100
AcDbArc
 50
180
 51
270
  0
ARC
  5
23D
100
AcDbEntity
  8
0
  6
ByLayer
 62
  256
370
   -1
100
AcDbCircle
 10
125.5624997769244
 20
-32.69374950358401
 40
0.5
100
AcDbArc
 50
270
 51
0
  0
LINE
  5
23E
100
AcDbEntity
  8
0
  6
ByLayer
 62
  256
370
   -1
100
AcDbLine
 10
131.6124997769244
 20
-19.19374950358401
 11
144.6124997769244
 21
-19.19374950358401
  0
LINE
  5
23F
100
AcDbEntity
  8
0
  6
ByLayer
 62
  256
370
   -1
100
AcDbLine
 10
131.6124997769244
 20
-33.19374950358401
 11
144.6124997769244
 21
-33.19374950358401
  0
LINE
  5
240
100
AcDbEntity
  8
0
  6
ByLayer
 62
  256
370
   -1
100
AcDbLine
 10
131.1124997769244
 20
-19.69374950358401
 11
131.1124997769244
 21
-32.69374950358401
  0
LINE
  5
241
100
AcDbEntity
  8
0
  6
ByLayer
 62
  256
370
   -1
100
AcDbLine
 10
145.1124997769244
 20
-19.69374950358401
 11
145.1124997769244
 21
-32.69374950358401
  0
ARC
  5
242
100
AcDbEntity
  8
0
  6
ByLayer
 62
  256
370
   -1
100
AcDbCircle
 10
131.6124997769244
 20
-19.69374950358401
 40
0.5
100
AcDbArc
 50
90
 51
180
  0
ARC
  5
243
100
AcDbEntity
  8
0
  6
ByLayer
 62
  256
370
   -1
100
AcDbCircle
 10
144.6124997769244
 20
-19.69374950358401
 40
0.5
100
AcDbArc
 50
0
 51
90
  0
ARC
  5
244
100
AcDbEntity
  8
0
  6
ByLayer
 62
  256
370
   -1
100
AcDbCircle
 10
131.6124997769244
 20
-32.69374950358401
 40
0.5
100
AcDbArc
 50
180
 51
270
  0
ARC
  5
245
100
AcDbEntity
  8
0
  6
ByLayer
 62
  256
370
   -1
100
AcDbCircle
 10
144.6124997769244
 20
-32.69374950358401
 40
0.5
100
AcDbArc
 50
270
 51
0
  0
LINE
  5
246
100
AcDbEntity
  8
0
  6
ByLayer
 62
  256
370
   -1
100
AcDbLine
 10
50.64999977692443
 20
-23.95624950358401
 11
63.64999977692443
 21
-23.95624950358401
  0
LINE
  5
247
100
AcDbEntity
  8
0
  6
ByLayer
 62
  256
370
   -1
100
AcDbLine
 10
50.64999977692443
 20
-37.95624950358401
 11
63.64999977692443
 21
-37.95624950358401
  0
LINE
  5
248
100
AcDbEntity
  8
0
  6
ByLayer
 62
  256
370
   -1
100
AcDbLine
 10
50.14999977692443
 20
-24.45624950358401
 11
50.14999977692443
 21
-37.45624950358401
  0
LINE
  5
249
100
AcDbEntity
  8
0
  6
ByLayer
 62
  256
370
   -1
100
AcDbLine
 10
64.14999977692443
 20
-24.45624950358401
 11
64.14999977692443
 21
-37.45624950358401
  0
ARC
  5
24A
100
AcDbEntity
  8
0
  6
ByLayer
 62
  256
370
   -1
100
AcDbCircle
 10
50.64999977692443
 20
-24.45624950358401
 40
0.5
100
AcDbArc
 50
90
 51
180
  0
ARC
  5
24B
100
AcDbEntity
  8
0
  6
ByLayer
 62
  256
370
   -1
100
AcDbCircle
 10
63.64999977692443
 20
-24.45624950358401
 40
0.5
100
AcDbArc
 50
0
 51
90
  0
ARC
  5
24C
100
AcDbEntity
  8
0
  6
ByLayer
 62
  256
370
   -1
100
AcDbCircle
 10
50.64999977692443
 20
-37.45624950358401
 40
0.5
100
AcDbArc
 50
180
 51
270
  0
ARC
  5
24D
100
AcDbEntity
  8
0
  6
ByLayer
 62
  256
370
   -1
100
AcDbCircle
 10
63.64999977692443
 20
-37.45624950358401
 40
0.5
100
AcDbArc
 50
270
 51
0
  0
LINE
  5
24E
100
AcDbEntity
  8
0
  6
ByLayer
 62
  256
370
   -1
100
AcDbLine
 10
69.69999977692441
 20
-23.95624950358401
 11
82.69999977692441
 21
-23.95624950358401
  0
LINE
  5
24F
100
AcDbEntity
  8
0
  6
ByLayer
 62
  256
370
   -1
100
AcDbLine
 10
69.69999977692441
 20
-37.95624950358401
 11
82.69999977692441
 21
-37.95624950358401
  0
LINE
  5
250
100
AcDbEntity
  8
0
  6
ByLayer
 62
  256
370
   -1
100
AcDbLine
 10
69.19999977692441
 20
-24.45624950358401
 11
69.19999977692441
 21
-37.45624950358401
  0
LINE
  5
251
100
AcDbEntity
  8
0
  6
ByLayer
 62
  256
370
   -1
100
AcDbLine
 10
83.19999977692441
 20
-24.45624950358401
 11
83.19999977692441
 21
-37.45624950358401
  0
ARC
  5
252
100
AcDbEntity
  8
0
  6
ByLayer
 62
  256
370
   -1
100
AcDbCircle
 10
69.69999977692441
 20
-24.45624950358401
 40
0.5
100
AcDbArc
 50
90
 51
180
  0
ARC
  5
253
100
AcDbEntity
  8
0
  6
ByLayer
 62
  256
370
   -1
100
AcDbCircle
 10
82.69999977692441
 20
-24.45624950358401
 40
0.5
100
AcDbArc
 50
0
 51
90
  0
ARC
  5
254
100
AcDbEntity
  8
0
  6
ByLayer
 62
  256
370
   -1
100
AcDbCircle
 10
69.69999977692441
 20
-37.45624950358401
 40
0.5
100
AcDbArc
 50
180
 51
270
  0
ARC
  5
255
100
AcDbEntity
  8
0
  6
ByLayer
 62
  256
370
   -1
100
AcDbCircle
 10
82.69999977692441
 20
-37.45624950358401
 40
0.5
100
AcDbArc
 50
270
 51
0
  0
LINE
  5
256
100
AcDbEntity
  8
0
  6
ByLayer
 62
  256
370
   -1
100
AcDbLine
 10
88.74999977692443
 20
-23.95624950358401
 11
101.7499997769244
 21
-23.95624950358401
  0
LINE
  5
257
100
AcDbEntity
  8
0
  6
ByLayer
 62
  256
370
   -1
100
AcDbLine
 10
88.74999977692443
 20
-37.95624950358401
 11
101.7499997769244
 21
-37.95624950358401
  0
LINE
  5
258
100
AcDbEntity
  8
0
  6
ByLayer
 62
  256
370
   -1
100
AcDbLine
 10
88.24999977692443
 20
-24.45624950358401
 11
88.24999977692443
 21
-37.45624950358401
  0
LINE
  5
259
100
AcDbEntity
  8
0
  6
ByLayer
 62
  256
370
   -1
100
AcDbLine
 10
102.2499997769244
 20
-24.45624950358401
 11
102.2499997769244
 21
-37.45624950358401
  0
ARC
  5
25A
100
AcDbEntity
  8
0
  6
ByLayer
 62
  256
370
   -1
100
AcDbCircle
 10
88.74999977692443
 20
-24.45624950358401
 40
0.5
100
AcDbArc
 50
90
 51
180
  0
ARC
  5
25B
100
AcDbEntity
  8
0
  6
ByLayer
 62
  256
370
   -1
100
AcDbCircle
 10
101.7499997769244
 20
-24.45624950358401
 40
0.5
100
AcDbArc
 50
0
 51
90
  0
ARC
  5
25C
100
AcDbEntity
  8
0
  6
ByLayer
 62
  256
370
   -1
100
AcDbCircle
 10
88.74999977692443
 20
-37.45624950358401
 40
0.5
100
AcDbArc
 50
180
 51
270
  0
ARC
  5
25D
100
AcDbEntity
  8
0
  6
ByLayer
 62
  256
370
   -1
100
AcDbCircle
 10
101.7499997769244
 20
-37.45624950358401
 40
0.5
100
AcDbArc
 50
270
 51
0
  0
LINE
  5
25E
100
AcDbEntity
  8
placement
  6
ByLayer
 62
  256
370
   -1
100
AcDbLine
 10
-163.6625002230756
 20
37.45625049641598
 11
-150.6625002230756
 21
24.45625049641598
  0
LINE
  5
25F
100
AcDbEntity
  8
placement
  6
ByLayer
 62
  256
370
   -1
100
AcDbLine
 10
-144.6125002230756
 20
37.45625049641598
 11
-131.6125002230756
 21
24.45625049641598
  0
LINE
  5
260
100
AcDbEntity
  8
placement
  6
ByLayer
 62
  256
370
   -1
100
AcDbLine
 10
-125.5625002230756
 20
37.45625049641598
 11
-112.5625002230756
 21
24.45625049641598
  0
LINE
  5
261
100
AcDbEntity
  8
placement
  6
ByLayer
 62
  256
370
   -1
100
AcDbLine
 10
-106.5125002230756
 20
37.45625049641598
 11
-93.51250022307558
 21
24.45625049641598
  0
LINE
  5
262
100
AcDbEntity
  8
placement
  6
ByLayer
 62
  256
370
   -1
100
AcDbLine
 10
-87.46250022307558
 20
37.45625049641598
 11
-74.46250022307558
 21
24.45625049641598
  0
LINE
  5
263
100
AcDbEntity
  8
placement
  6
ByLayer
 62
  256
370
   -1
100
AcDbLine
 10
-68.41250022307557
 20
37.45625049641598
 11
-55.41250022307557
 21
24.45625049641598
  0
LINE
  5
264
100
AcDbEntity
  8
placement
  6
ByLayer
 62
  256
370
   -1
100
AcDbLine
 10
-161.2812502230756
 20
18.40625049641599
 11
-148.2812502230756
 21
5.406250496415986
  0
LINE
  5
265
100
AcDbEntity
  8
placement
  6
ByLayer
 62
  256
370
   -1
100
AcDbLine
 10
-139.8500002230756
 20
18.40625049641599
 11
-126.8500002230756
 21
5.406250496415986
  0
LINE
  5
266
100
AcDbEntity
  8
placement
  6
ByLayer
 62
  256
370
   -1
100
AcDbLine
 10
-120.8000002230756
 20
18.40625049641599
 11
-107.8000002230756
 21
5.406250496415986
  0
LINE
  5
267
100
AcDbEntity
  8
placement
  6
ByLayer
 62
  256
370
   -1
100
AcDbLine
 10
-101.7500002230756
 20
18.40625049641599
 11
-88.75000022307557
 21
5.406250496415986
  0
LINE
  5
268
100
AcDbEntity
  8
placement
  6
ByLayer
 62
  256
370
   -1
100
AcDbLine
 10
-82.70000022307558
 20
18.40625049641599
 11
-69.70000022307558
 21
5.406250496415986
  0
LINE
  5
269
100
AcDbEntity
  8
placement
  6
ByLayer
 62
  256
370
   -1
100
AcDbLine
 10
-130.3250002230756
 20
-0.6437495035840115
 11
-117.3250002230756
 21
-13.64374950358401
  0
LINE
  5
26A
100
AcDbEntity
  8
placement
  6
ByLayer
 62
  256
370
   -1
100
AcDbLine
 10
-111.2750002230756
 20
-0.6437495035840115
 11
-98.27500022307558
 21
-13.64374950358401
  0
LINE
  5
26B
100
AcDbEntity
  8
placement
  6
ByLayer
 62
  256
370
   -1
100
AcDbLine
 10
-92.22500022307557
 20
-0.6437495035840115
 11
-79.22500022307557
 21
-13.64374950358401
  0
LINE
  5
26C
100
AcDbEntity
  8
placement
  6
ByLayer
 62
  256
370
   -1
100
AcDbLine
 10
-73.17500022307559
 20
-0.6437495035840115
 11
-60.17500022307557
 21
-13.64374950358401
  0
LINE
  5
26D
100
AcDbEntity
  8
placement
  6
ByLayer
 62
  256
370
   -1
100
AcDbLine
 10
-63.65000022307558
 20
18.40625049641599
 11
-50.65000022307558
 21
5.406250496415986
  0
LINE
  5
26E
100
AcDbEntity
  8
placement
  6
ByLayer
 62
  256
370
   -1
100
AcDbLine
 10
-44.60000022307557
 20
18.40625049641599
 11
-31.60000022307557
 21
5.406250496415986
  0
LINE
  5
26F
100
AcDbEntity
  8
placement
  6
ByLayer
 62
  256
370
   -1
100
AcDbLine
 10
-25.55000022307559
 20
18.40625049641599
 11
-12.55000022307559
 21
5.406250496415986
  0
LINE
  5
270
100
AcDbEntity
  8
placement
  6
ByLayer
 62
  256
370
   -1
100
AcDbLine
 10
-6.500000223075574
 20
18.40625049641599
 11
6.499999776924426
 21
5.406250496415986
  0
LINE
  5
271
100
AcDbEntity
  8
placement
  6
ByLayer
 62
  256
370
   -1
100
AcDbLine
 10
-54.12500022307557
 20
-0.6437495035840115
 11
-41.12500022307557
 21
-13.64374950358401
  0
LINE
  5
272
100
AcDbEntity
  8
placement
  6
ByLayer
 62
  256
370
   -1
100
AcDbLine
 10
-35.07500022307556
 20
-0.6437495035840115
 11
-22.07500022307556
 21
-13.64374950358401
  0
LINE
  5
273
100
AcDbEntity
  8
placement
  6
ByLayer
 62
  256
370
   -1
100
AcDbLine
 10
-16.02500022307558
 20
-0.6437495035840115
 11
-3.02500022307558
 21
-13.64374950358401
  0
LINE
  5
274
100
AcDbEntity
  8
placement
  6
ByLayer
 62
  256
370
   -1
100
AcDbLine
 10
3.024999776924432
 20
-0.6437495035840115
 11
16.02499977692443
 21
-13.64374950358401
  0
LINE
  5
275
100
AcDbEntity
  8
placement
  6
ByLayer
 62
  256
370
   -1
100
AcDbLine
 10
-49.36250022307557
 20
37.45625049641598
 11
-36.36250022307559
 21
24.45625049641598
  0
LINE
  5
276
100
AcDbEntity
  8
placement
  6
ByLayer
 62
  256
370
   -1
100
AcDbLine
 10
-30.31250022307557
 20
37.45625049641598
 11
-17.31250022307557
 21
24.45625049641598
  0
LINE
  5
277
100
AcDbEntity
  8
placement
  6
ByLayer
 62
  256
370
   -1
100
AcDbLine
 10
-11.26250022307556
 20
37.45625049641598
 11
1.737499776924437
 21
24.45625049641598
  0
LINE
  5
278
100
AcDbEntity
  8
placement
  6
ByLayer
 62
  256
370
   -1
100
AcDbLine
 10
7.78749977692442
 20
37.45625049641598
 11
20.78749977692445
 21
24.45625049641598
  0
LINE
  5
279
100
AcDbEntity
  8
placement
  6
ByLayer
 62
  256
370
   -1
100
AcDbLine
 10
26.83749977692443
 20
37.45625049641598
 11
39.83749977692443
 21
24.45625049641598
  0
LINE
  5
27A
100
AcDbEntity
  8
placement
  6
ByLayer
 62
  256
370
   -1
100
AcDbLine
 10
45.88749977692444
 20
37.45625049641598
 11
58.88749977692444
 21
24.45625049641598
  0
LINE
  5
27B
100
AcDbEntity
  8
placement
  6
ByLayer
 62
  256
370
   -1
100
AcDbLine
 10
93.51249977692441
 20
37.45625049641598
 11
106.5124997769244
 21
24.45625049641598
  0
LINE
  5
27C
100
AcDbEntity
  8
placement
  6
ByLayer
 62
  256
370
   -1
100
AcDbLine
 10
112.5624997769244
 20
37.45625049641598
 11
125.5624997769244
 21
24.45625049641598
  0
LINE
  5
27D
100
AcDbEntity
  8
placement
  6
ByLayer
 62
  256
370
   -1
100
AcDbLine
 10
131.6124997769244
 20
37.45625049641598
 11
144.6124997769244
 21
24.45625049641598
  0
LINE
  5
27E
100
AcDbEntity
  8
placement
  6
ByLayer
 62
  256
370
   -1
100
AcDbLine
 10
150.6624997769244
 20
37.45625049641598
 11
163.6624997769244
 21
24.45625049641598
  0
LINE
  5
27F
100
AcDbEntity
  8
placement
  6
ByLayer
 62
  256
370
   -1
100
AcDbLine
 10
93.51249977692441
 20
18.40625049641599
 11
106.5124997769244
 21
5.406250496415986
  0
LINE
  5
280
100
AcDbEntity
  8
placement
  6
ByLayer
 62
  256
370
   -1
100
AcDbLine
 10
112.5624997769244
 20
18.40625049641599
 11
125.5624997769244
 21
5.406250496415986
  0
LINE
  5
281
100
AcDbEntity
  8
placement
  6
ByLayer
 62
  256
370
   -1
100
AcDbLine
 10
131.6124997769244
 20
18.40625049641599
 11
144.6124997769244
 21
5.406250496415986
  0
LINE
  5
282
100
AcDbEntity
  8
placement
  6
ByLayer
 62
  256
370
   -1
100
AcDbLine
 10
150.6624997769244
 20
18.40625049641599
 11
163.6624997769244
 21
5.406250496415986
  0
LINE
  5
283
100
AcDbEntity
  8
placement
  6
ByLayer
 62
  256
370
   -1
100
AcDbLine
 10
93.51249977692441
 20
-0.6437495035840115
 11
106.5124997769244
 21
-13.64374950358401
  0
LINE
  5
284
100
AcDbEntity
  8
placement
  6
ByLayer
 62
  256
370
   -1
100
AcDbLine
 10
112.5624997769244
 20
-0.6437495035840115
 11
125.5624997769244
 21
-13.64374950358401
  0
LINE
  5
285
100
AcDbEntity
  8
placement
  6
ByLayer
 62
  256
370
   -1
100
AcDbLine
 10
131.6124997769244
 20
-0.6437495035840115
 11
144.6124997769244
 21
-13.64374950358401
  0
LINE
  5
286
100
AcDbEntity
  8
placement
  6
ByLayer
 62
  256
370
   -1
100
AcDbLine
 10
112.5624997769244
 20
-19.69374950358401
 11
125.5624997769244
 21
-32.69374950358401
  0
LINE
  5
287
100
AcDbEntity
  8
placement
  6
ByLayer
 62
  256
370
   -1
100
AcDbLine
 10
131.6124997769244
 20
-19.69374950358401
 11
144.6124997769244
 21
-32.69374950358401
  0
LINE
  5
288
100
AcDbEntity
  8
placement
  6
ByLayer
 62
  256
370
   -1
100
AcDbLine
 10
150.6624997769244
 20
-10.16874950358401
 11
163.6624997769244
 21
-23.16874950358401
  0
LINE
  5
289
100
AcDbEntity
  8
placement
  6
ByLayer
 62
  256
370
   -1
100
AcDbLine
 10
50.64999977692443
 20
-24.45624950358401
 11
63.64999977692443
 21
-37.45624950358401
  0
LINE
  5
28A
100
AcDbEntity
  8
placement
  6
ByLayer
 62
  256
370
   -1
100
AcDbLine
 10
69.69999977692441
 20
-5.406249503584014
 11
82.69999977692441
 21
-18.40624950358401
  0
LINE
  5
28B
100
AcDbEntity
  8
placement
  6
ByLayer
 62
  256
370
   -1
100
AcDbLine
 10
69.69999977692441
 20
-24.45624950358401
 11
82.69999977692441
 21
-37.45624950358401
  0
LINE
  5
28C
100
AcDbEntity
  8
placement
  6
ByLayer
 62
  256
370
   -1
100
AcDbLine
 10
88.74999977692443
 20
-24.45624950358401
 11
101.7499997769244
 21
-37.45624950358401
  0
LINE
  5
28D
100
AcDbEntity
  8
placement
  6
ByLayer
 62
  256
370
   -1
100
AcDbLine
 10
24.45624977692444
 20
-19.69374950358401
 11
37.45624977692444
 21
-32.69374950358401
  0
LINE
  5
28E
100
AcDbEntity
  8
placement
  6
ByLayer
 62
  256
370
   -1
100
AcDbLine
 10
22.07499977692441
 20
-0.6437495035840115
 11
35.07499977692441
 21
-13.64374950358401
  0
LINE
  5
28F
100
AcDbEntity
  8
placement
  6
ByLayer
 62
  256
370
   -1
100
AcDbLine
 10
43.50624977692442
 20
-0.6437495035840115
 11
56.50624977692442
 21
-13.64374950358401
  0
LINE
  5
290
100
AcDbEntity
  8
placement
  6
ByLayer
 62
  256
370
   -1
100
AcDbLine
 10
38.74374977692443
 20
18.40625049641599
 11
51.74374977692443
 21
5.406250496415986
  0
LINE
  5
291
100
AcDbEntity
  8
placement
  6
ByLayer
 62
  256
370
   -1
100
AcDbLine
 10
12.54999977692444
 20
18.40625049641599
 11
25.54999977692444
 21
5.406250496415986
  0
LINE
  5
292
100
AcDbEntity
  8
placement
  6
ByLayer
 62
  256
370
   -1
100
AcDbLine
 10
0.6437497769244374
 20
-19.69374950358401
 11
13.64374977692444
 21
-32.69374950358401
  0
LINE
  5
293
100
AcDbEntity
  8
placement
  6
ByLayer
 62
  256
370
   -1
100
AcDbLine
 10
-32.69375022307557
 20
-19.69374950358401
 11
-19.69375022307557
 21
-32.69374950358401
  0
LINE
  5
294
100
AcDbEntity
  8
placement
  6
ByLayer
 62
  256
370
   -1
100
AcDbLine
 10
-80.31875022307557
 20
-19.69374950358401
 11
-67.31875022307557
 21
-32.69374950358401
  0
LINE
  5
295
100
AcDbEntity
  8
placement
  6
ByLayer
 62
  256
370
   -1
100
AcDbLine
 10
-118.4187502230756
 20
-19.69374950358401
 11
-105.4187502230756
 21
-32.69374950358401
  0
LINE
  5
296
100
AcDbEntity
  8
placement
  6
ByLayer
 62
  256
370
   -1
100
AcDbLine
 10
-139.8500002230756
 20
-19.69374950358401
 11
-126.8500002230756
 21
-32.69374950358401
  0
LINE
  5
297
100
AcDbEntity
  8
placement
  6
ByLayer
 62
  256
370
   -1
100
AcDbLine
 10
-161.2812502230756
 20
-19.69374950358401
 11
-148.2812502230756
 21
-32.69374950358401
  0
LINE
  5
298
100
AcDbEntity
  8
placement
  6
ByLayer
 62
  256
370
   -1
100
AcDbLine
 10
-156.5187502230756
 20
-0.6437495035840115
 11
-143.5187502230756
 21
-13.64374950358401
  0
LINE
  5
299
100
AcDbEntity
  8
placement
  6
ByLayer
 62
  256
370
   -1
100
AcDbLine
 10
-147.6600002230756
 20
37.45625049641598
 11
-147.6600002230756
 21
24.45625049641598
  0
LINE
  5
29A
100
AcDbEntity
  8
placement
  6
ByLayer
 62
  256
370
   -1
100
AcDbLine
 10
-128.6100002230756
 20
37.45625049641598
 11
-128.6100002230756
 21
24.45625049641598
  0
LINE
  5
29B
100
AcDbEntity
  8
placement
  6
ByLayer
 62
  256
370
   -1
100
AcDbLine
 10
-145.2787502230756
 20
18.40625049641599
 11
-145.2787502230756
 21
5.406250496415986
  0
LINE
  5
29C
100
AcDbEntity
  8
placement
  6
ByLayer
 62
  256
370
   -1
100
AcDbLine
 10
-123.8475002230756
 20
18.40625049641599
 11
-123.8475002230756
 21
5.406250496415986
  0
LINE
  5
29D
100
AcDbEntity
  8
placement
  6
ByLayer
 62
  256
370
   -1
100
AcDbLine
 10
-109.5600002230756
 20
37.45625049641598
 11
-109.5600002230756
 21
24.45625049641598
  0
LINE
  5
29E
100
AcDbEntity
  8
placement
  6
ByLayer
 62
  256
370
   -1
100
AcDbLine
 10
-104.7975002230756
 20
18.40625049641599
 11
-104.7975002230756
 21
5.406250496415986
  0
LINE
  5
29F
100
AcDbEntity
  8
placement
  6
ByLayer
 62
  256
370
   -1
100
AcDbLine
 10
-90.51000022307558
 20
37.45625049641598
 11
-90.51000022307558
 21
24.45625049641598
  0
LINE
  5
2A0
100
AcDbEntity
  8
placement
  6
ByLayer
 62
  256
370
   -1
100
AcDbLine
 10
-85.74750022307558
 20
18.40625049641599
 11
-85.74750022307558
 21
5.406250496415986
  0
LINE
  5
2A1
100
AcDbEntity
  8
placement
  6
ByLayer
 62
  256
370
   -1
100
AcDbLine
 10
-71.46000022307558
 20
37.45625049641598
 11
-71.46000022307558
 21
24.45625049641598
  0
LINE
  5
2A2
100
AcDbEntity
  8
placement
  6
ByLayer
 62
  256
370
   -1
100
AcDbLine
 10
-66.69750022307558
 20
18.40625049641599
 11
-66.69750022307558
 21
5.406250496415986
  0
LINE
  5
2A3
100
AcDbEntity
  8
placement
  6
ByLayer
 62
  256
370
   -1
100
AcDbLine
 10
-52.41000022307557
 20
37.45625049641598
 11
-52.41000022307557
 21
24.45625049641598
  0
LINE
  5
2A4
100
AcDbEntity
  8
placement
  6
ByLayer
 62
  256
370
   -1
100
AcDbLine
 10
-33.36000022307559
 20
37.45625049641598
 11
-33.36000022307559
 21
24.45625049641598
  0
LINE
  5
2A5
100
AcDbEntity
  8
placement
  6
ByLayer
 62
  256
370
   -1
100
AcDbLine
 10
-14.31000022307558
 20
37.45625049641598
 11
-14.31000022307558
 21
24.45625049641598
  0
LINE
  5
2A6
100
AcDbEntity
  8
placement
  6
ByLayer
 62
  256
370
   -1
100
AcDbLine
 10
4.739999776924435
 20
37.45625049641598
 11
4.739999776924435
 21
24.45625049641598
  0
LINE
  5
2A7
100
AcDbEntity
  8
placement
  6
ByLayer
 62
  256
370
   -1
100
AcDbLine
 10
23.78999977692442
 20
37.45625049641598
 11
23.78999977692442
 21
24.45625049641598
  0
LINE
  5
2A8
100
AcDbEntity
  8
placement
  6
ByLayer
 62
  256
370
   -1
100
AcDbLine
 10
42.88499977692442
 20
37.45625049641598
 11
42.88499977692442
 21
24.45625049641598
  0
LINE
  5
2A9
100
AcDbEntity
  8
placement
  6
ByLayer
 62
  256
370
   -1
100
AcDbLine
 10
28.55249977692444
 20
18.40625049641599
 11
28.55249977692444
 21
5.406250496415986
  0
LINE
  5
2AA
100
AcDbEntity
  8
placement
  6
ByLayer
 62
  256
370
   -1
100
AcDbLine
 10
54.74624977692443
 20
18.40625049641599
 11
54.74624977692443
 21
5.406250496415986
  0
LINE
  5
2AB
100
AcDbEntity
  8
placement
  6
ByLayer
 62
  256
370
   -1
100
AcDbLine
 10
109.5149997769244
 20
37.45625049641598
 11
109.5149997769244
 21
24.45625049641598
  0
LINE
  5
2AC
100
AcDbEntity
  8
placement
  6
ByLayer
 62
  256
370
   -1
100
AcDbLine
 10
128.5649997769244
 20
37.45625049641598
 11
128.5649997769244
 21
24.45625049641598
  0
LINE
  5
2AD
100
AcDbEntity
  8
placement
  6
ByLayer
 62
  256
370
   -1
100
AcDbLine
 10
147.6149997769244
 20
37.45625049641598
 11
147.6149997769244
 21
24.45625049641598
  0
LINE
  5
2AE
100
AcDbEntity
  8
placement
  6
ByLayer
 62
  256
370
   -1
100
AcDbLine
 10
150.6624997769244
 20
21.45375049641599
 11
163.6624997769244
 21
21.45375049641599
  0
LINE
  5
2AF
100
AcDbEntity
  8
placement
  6
ByLayer
 62
  256
370
   -1
100
AcDbLine
 10
147.6599997769245
 20
18.40625049641599
 11
147.6599997769245
 21
5.406250496415986
  0
LINE
  5
2B0
100
AcDbEntity
  8
placement
  6
ByLayer
 62
  256
370
   -1
100
AcDbLine
 10
128.6099997769244
 20
18.40625049641599
 11
128.6099997769244
 21
5.406250496415986
  0
LINE
  5
2B1
100
AcDbEntity
  8
placement
  6
ByLayer
 62
  256
370
   -1
100
AcDbLine
 10
109.5599997769244
 20
18.40625049641599
 11
109.5599997769244
 21
5.406250496415986
  0
LINE
  5
2B2
100
AcDbEntity
  8
placement
  6
ByLayer
 62
  256
370
   -1
100
AcDbLine
 10
109.5149997769244
 20
-0.6437495035840115
 11
109.5149997769244
 21
-13.64374950358401
  0
LINE
  5
2B3
100
AcDbEntity
  8
placement
  6
ByLayer
 62
  256
370
   -1
100
AcDbLine
 10
128.6099997769244
 20
-0.6437495035840115
 11
128.6099997769244
 21
-13.64374950358401
  0
LINE
  5
2B4
100
AcDbEntity
  8
placement
  6
ByLayer
 62
  256
370
   -1
100
AcDbLine
 10
128.5649997769244
 20
-19.69374950358401
 11
128.5649997769244
 21
-32.69374950358401
  0
LINE
  5
2B5
100
AcDbEntity
  8
placement
  6
ByLayer
 62
  256
370
   -1
100
AcDbLine
 10
109.5599997769244
 20
-19.69374950358401
 11
109.5599997769244
 21
-32.693749503584
  0
LINE
  5
2B6
100
AcDbEntity
  8
placement
  6
ByLayer
 62
  256
370
   -1
100
AcDbLine
 10
90.50999977692442
 20
-0.6437495035840115
 11
90.50999977692442
 21
-13.64374950358401
  0
LINE
  5
2B7
100
AcDbEntity
  8
placement
  6
ByLayer
 62
  256
370
   -1
100
AcDbLine
 10
61.88999977692441
 20
37.45625049641598
 11
61.88999977692441
 21
24.45625049641598
  0
LINE
  5
2B8
100
AcDbEntity
  8
placement
  6
ByLayer
 62
  256
370
   -1
100
AcDbLine
 10
59.50874977692442
 20
-0.6437495035840115
 11
59.50874977692442
 21
-13.64374950358401
  0
LINE
  5
2B9
100
AcDbEntity
  8
placement
  6
ByLayer
 62
  256
370
   -1
100
AcDbLine
 10
40.45874977692444
 20
-19.69374950358401
 11
40.45874977692444
 21
-32.69374950358401
  0
LINE
  5
2BA
100
AcDbEntity
  8
placement
  6
ByLayer
 62
  256
370
   -1
100
AcDbLine
 10
66.69749977692442
 20
-24.45624950358401
 11
66.69749977692442
 21
-37.456249503584
  0
LINE
  5
2BB
100
AcDbEntity
  8
placement
  6
ByLayer
 62
  256
370
   -1
100
AcDbLine
 10
85.74749977692443
 20
-24.45624950358401
 11
85.74749977692443
 21
-37.456249503584
  0
LINE
  5
2BC
100
AcDbEntity
  8
placement
  6
ByLayer
 62
  256
370
   -1
100
AcDbLine
 10
104.7524997769244
 20
-24.45624950358401
 11
104.7524997769244
 21
-37.45624950358401
  0
LINE
  5
2BD
100
AcDbEntity
  8
placement
  6
ByLayer
 62
  256
370
   -1
100
AcDbLine
 10
66.69749977692442
 20
-5.406249503584014
 11
66.69749977692442
 21
-18.40624950358401
  0
LINE
  5
2BE
100
AcDbEntity
  8
placement
  6
ByLayer
 62
  256
370
   -1
100
AcDbLine
 10
16.64624977692444
 20
-19.69374950358401
 11
16.64624977692444
 21
-32.69374950358401
  0
LINE
  5
2BF
100
AcDbEntity
  8
placement
  6
ByLayer
 62
  256
370
   -1
100
AcDbLine
 10
19.02749977692443
 20
-0.6437495035840115
 11
19.02749977692443
 21
-13.64374950358401
  0
LINE
  5
2C0
100
AcDbEntity
  8
placement
  6
ByLayer
 62
  256
370
   -1
100
AcDbLine
 10
38.07749977692441
 20
-0.6437495035840115
 11
38.07749977692441
 21
-13.64374950358401
  0
LINE
  5
2C1
100
AcDbEntity
  8
placement
  6
ByLayer
 62
  256
370
   -1
100
AcDbLine
 10
-19.02750022307558
 20
-0.6437495035840115
 11
-19.02750022307558
 21
-13.64374950358401
  0
LINE
  5
2C2
100
AcDbEntity
  8
placement
  6
ByLayer
 62
  256
370
   -1
100
AcDbLine
 10
-9.547500223075588
 20
18.40625049641599
 11
-9.547500223075588
 21
5.406250496415986
  0
LINE
  5
2C3
100
AcDbEntity
  8
placement
  6
ByLayer
 62
  256
370
   -1
100
AcDbLine
 10
9.54749977692444
 20
18.40625049641599
 11
9.54749977692444
 21
5.406250496415986
  0
LINE
  5
2C4
100
AcDbEntity
  8
placement
  6
ByLayer
 62
  256
370
   -1
100
AcDbLine
 10
-28.59750022307557
 20
18.40625049641599
 11
-28.59750022307557
 21
5.406250496415986
  0
LINE
  5
2C5
100
AcDbEntity
  8
placement
  6
ByLayer
 62
  256
370
   -1
100
AcDbLine
 10
-47.60250022307557
 20
18.40625049641599
 11
-47.60250022307557
 21
5.406250496415986
  0
LINE
  5
2C6
100
AcDbEntity
  8
placement
  6
ByLayer
 62
  256
370
   -1
100
AcDbLine
 10
-38.07750022307556
 20
-0.6437495035840115
 11
-38.07750022307556
 21
-13.64374950358401
  0
LINE
  5
2C7
100
AcDbEntity
  8
placement
  6
ByLayer
 62
  256
370
   -1
100
AcDbLine
 10
-57.17250022307557
 20
-0.6437495035840115
 11
-57.17250022307557
 21
-13.64374950358401
  0
LINE
  5
2C8
100
AcDbEntity
  8
placement
  6
ByLayer
 62
  256
370
   -1
100
AcDbLine
 10
-76.22250022307557
 20
-0.6437495035840115
 11
-76.22250022307557
 21
-13.64374950358401
  0
LINE
  5
2C9
100
AcDbEntity
  8
placement
  6
ByLayer
 62
  256
370
   -1
100
AcDbLine
 10
-95.22750022307557
 20
-0.6437495035840115
 11
-95.22750022307557
 21
-13.64374950358401
  0
LINE
  5
2CA
100
AcDbEntity
  8
placement
  6
ByLayer
 62
  256
370
   -1
100
AcDbLine
 10
-55.87825022307558
 20
-20.69374950358401
 11
-55.87825022307558
 21
-34.69374950358401
  0
LINE
  5
2CB
100
AcDbEntity
  8
placement
  6
ByLayer
 62
  256
370
   -1
100
AcDbLine
 10
-8.253250223075582
 20
-20.69374950358401
 11
-8.253250223075582
 21
-34.69374950358401
  0
LINE
  5
2CC
100
AcDbEntity
  8
placement
  6
ByLayer
 62
  256
370
   -1
100
AcDbLine
 10
-102.4162502230756
 20
-19.69374950358401
 11
-102.4162502230756
 21
-32.69374950358401
  0
LINE
  5
2CD
100
AcDbEntity
  8
placement
  6
ByLayer
 62
  256
370
   -1
100
AcDbLine
 10
-114.2775002230756
 20
-0.6437495035840115
 11
-114.2775002230756
 21
-13.64374950358401
  0
LINE
  5
2CE
100
AcDbEntity
  8
placement
  6
ByLayer
 62
  256
370
   -1
100
AcDbLine
 10
-123.8475002230756
 20
-19.69374950358401
 11
-123.8475002230756
 21
-32.69374950358401
  0
LINE
  5
2CF
100
AcDbEntity
  8
placement
  6
ByLayer
 62
  256
370
   -1
100
AcDbLine
 10
-140.5162502230756
 20
-0.6437495035840115
 11
-140.5162502230756
 21
-13.64374950358401
  0
LINE
  5
2D0
100
AcDbEntity
  8
placement
  6
ByLayer
 62
  256
370
   -1
100
AcDbLine
 10
-145.2787502230756
 20
-19.69374950358401
 11
-145.2787502230756
 21
-32.69374950358401
  0
LINE
  5
2D1
100
AcDbEntity
  8
placement
  6
ByLayer
 62
  256
370
   -1
100
AcDbLine
 10
90.50999977692442
 20
18.40625049641599
 11
90.50999977692442
 21
5.406250496415986
  0
LINE
  5
2D2
100
AcDbEntity
  8
placement
  6
ByLayer
 62
  256
370
   -1
100
AcDbLine
 10
90.50999977692442
 20
37.45625049641598
 11
90.50999977692442
 21
24.45625049641598
  0
LWPOLYLINE
  5
2D3
100
AcDbEntity
  8
promicro
  6
ByLayer
 62
  256
370
   -1
100
AcDbPolyline
 90
    4
 70
    1
 43
0
 10
66.31249977692443
 20
2.518750496415983
 10
86.31249977692443
 20
2.518750496415983
 10
86.31249977692443
 20
35.51875049641598
 10
66.31249977692443
 20
35.51875049641598
  0
LINE
  5
2D4
100
AcDbEntity
  8
placement
  6
ByLayer
 62
  256
370
   -1
100
AcDbLine
 10
66.31249977692443
 20
35.51875049641598
 11
86.31249977692443
 21
2.518750496415983
  0
LINE
  5
2D5
100
AcDbEntity
  8
placement
  6
ByLayer
 62
  256
370
   -1
100
AcDbLine
 10
85.70249977692441
 20
-5.406249503584014
 11
85.70249977692441
 21
-18.40624950358401
  0
LINE
  5
2D6
100
AcDbEntity
  8
placement
  6
ByLayer
 62
  256
370
   -1
100
AcDbLine
 10
47.64749977692443
 20
-24.45624950358401
 11
47.64749977692443
 21
-37.456249503584
  0
LINE
  5
2D7
100
AcDbEntity
  8
placement
  6
ByLayer
 62
  256
370
   -1
100
AcDbLine
 10
69.69999977692441
 20
-21.40874950358401
 11
82.69999977692441
 21
-21.40874950358401
  0
LINE
  5
2D8
100
AcDbEntity
  8
placement
  6
ByLayer
 62
  256
370
   -1
100
AcDbLine
 10
88.74999977692443
 20
-21.45374950358401
 11
101.7499997769244
 21
-21.45374950358401
  0
LINE
  5
2D9
100
AcDbEntity
  8
placement
  6
ByLayer
 62
  256
370
   -1
100
AcDbLine
 10
50.64999977692443
 20
-21.45374950358401
 11
63.64999977692443
 21
-21.45374950358401
  0
LINE
  5
2DA
100
AcDbEntity
  8
placement
  6
ByLayer
 62
  256
370
   -1
100
AcDbLine
 10
162.6624997769244
 20
1.271750496415983
 11
148.6624997769244
 21
1.271750496415983
  0
LINE
  5
2DB
100
AcDbEntity
  8
placement
  6
ByLayer
 62
  256
370
   -1
100
AcDbLine
 10
131.6124997769244
 20
2.403750496415988
 11
144.6124997769244
 21
2.403750496415988
  0
LINE
  5
2DC
100
AcDbEntity
  8
placement
  6
ByLayer
 62
  256
370
   -1
100
AcDbLine
 10
112.5624997769244
 20
2.358750496415986
 11
125.5624997769244
 21
2.358750496415986
  0
LINE
  5
2DD
100
AcDbEntity
  8
placement
  6
ByLayer
 62
  256
370
   -1
100
AcDbLine
 10
93.51249977692441
 20
2.358750496415986
 11
106.5124997769244
 21
2.358750496415986
  0
LINE
  5
2DE
100
AcDbEntity
  8
placement
  6
ByLayer
 62
  256
370
   -1
100
AcDbLine
 10
150.6624997769244
 20
2.403750496415988
 11
163.6624997769244
 21
2.403750496415988
  0
ARC
  5
2DF
100
AcDbEntity
  8
pcb
  6
ByLayer
 62
  256
370
   -1
100
AcDbCircle
 10
-164.6650002230756
 20
38.45875049641598
 40
3
100
AcDbArc
 50
89.99999999999999
 51
180
  0
LINE
  5
2E0
100
AcDbEntity
  8
pcb
  6
ByLayer
 62
  256
370
   -1
100
AcDbLine
 10
-167.6650002230756
 20
38.45875049641598
 11
-167.6650002230756
 21
-38.458749503584
  0
ARC
  5
2E1
100
AcDbEntity
  8
pcb
  6
ByLayer
 62
  256
370
   -1
100
AcDbCircle
 10
-164.6650002230756
 20
-38.45874950358401
 40
3
100
AcDbArc
 50
179.9999999999997
 51
270
  0
LINE
  5
2E2
100
AcDbEntity
  8
pcb
  6
ByLayer
 62
  256
370
   -1
100
AcDbLine
 10
-164.6650002230756
 20
-41.45874950358401
 11
164.6649997769244
 21
-41.45874950358401
  0
ARC
  5
2E3
100
AcDbEntity
  8
pcb
  6
ByLayer
 62
  256
370
   -1
100
AcDbCircle
 10
164.6649997769244
 20
-38.45874950358401
 40
3
100
AcDbArc
 50
270
 51
0
  0
LINE
  5
2E4
100
AcDbEntity
  8
pcb
  6
ByLayer
 62
  256
370
   -1
100
AcDbLine
 10
167.6649997769244
 20
38.45875049641598
 11
167.6649997769244
 21
-38.45874950358401
  0
ARC
  5
2E5
100
AcDbEntity
  8
pcb
  6
ByLayer
 62
  256
370
   -1
100
AcDbCircle
 10
164.6649997769244
 20
38.45875049641598
 40
3
100
AcDbArc
 50
0
 51
90
  0
ARC
  5
2E6
100
AcDbEntity
  8
pcb
  6
ByLayer
 62
  256
370
   -1
100
AcDbCircle
 10
68.31249977692443
 20
38.45875049641598
 40
2
100
AcDbArc
 50
180
 51
270
  0
LINE
  5
2E7
100
AcDbEntity
  8
pcb
  6
ByLayer
 62
  256
370
   -1
100
AcDbLine
 10
68.31249977692443
 20
36.45875049641598
 11
84.31249977692443
 21
36.45875049641598
  0
ARC
  5
2E8
100
AcDbEntity
  8
pcb
  6
ByLayer
 62
  256
370
   -1
100
AcDbCircle
 10
84.31249977692443
 20
38.45875049641598
 40
2
100
AcDbArc
 50
270
 51
0
  0
LINE
  5
2E9
100
AcDbEntity
  8
pcb
  6
ByLayer
 62
  256
370
   -1
100
AcDbLine
 10
86.31249977692443
 20
38.45875049641598
 11
86.31249977692443
 21
39.45875049641598
  0
LINE
  5
2EA
100
AcDbEntity
  8
pcb
  6
ByLayer
 62
  256
370
   -1
100
AcDbLine
 10
88.31249977692443
 20
41.45875049641598
 11
164.6649997769244
 21
41.45875049641598
  0
ARC
  5
2EB
100
AcDbEntity
  8
pcb
  6
ByLayer
 62
  256
370
   -1
100
AcDbCircle
 10
88.31249977692443
 20
39.45875049641598
 40
2
100
AcDbArc
 50
90
 51
180
  0
LINE
  5
2EC
100
AcDbEntity
  8
pcb
  6
ByLayer
 62
  256
370
   -1
100
AcDbLine
 10
66.31249977692443
 20
38.45875049641598
 11
66.31249977692443
 21
39.45875049641598
  0
LINE
  5
2ED
100
AcDbEntity
  8
pcb
  6
ByLayer
 62
  256
370
   -1
100
AcDbLine
 10
-164.6650002230756
 20
41.45875049641598
 11
64.31249977692445
 21
41.45875049641598
  0
ARC
  5
2EE
100
AcDbEntity
  8
pcb
  6
ByLayer
 62
  256
370
   -1
100
AcDbCircle
 10
64.31249977692443
 20
39.45875049641598
 40
2
100
AcDbArc
 50
0
 51
89.99999999999919
  0
ARC
  5
2EF
100
AcDbEntity
  8
support
  6
ByLayer
 62
  256
370
   -1
100
AcDbCircle
 10
-142.6125000374342
 20
22.45624884200168
 40
2
100
AcDbArc
 50
90.00000066467496
 51
180.000000664675
  0
LINE
  5
2F0
100
AcDbEntity
  8
support
  6
ByLayer
 62
  256
370
   -1
100
AcDbLine
 10
-144.6125000374342
 20
22.45624881880013
 11
-144.6125000136526
 21
20.40624881880019
  0
ARC
  5
2F1
100
AcDbEntity
  8
support
  6
ByLayer
 62
  256
370
   -1
100
AcDbCircle
 10
-142.6125000136526
 20
20.40624884200168
 40
2
100
AcDbArc
 50
180.000000664675
 51
270.000000664675
  0
LINE
  5
2F2
100
AcDbEntity
  8
support
  6
ByLayer
 62
  256
370
   -1
100
AcDbLine
 10
-133.6124999904511
 20
18.4062489464086
 11
-142.6124999904511
 21
18.40624884200168
  0
ARC
  5
2F3
100
AcDbEntity
  8
support
  6
ByLayer
 62
  256
370
   -1
100
AcDbCircle
 10
-133.6125000136526
 20
20.4062489464086
 40
2
100
AcDbArc
 50
270.000000664675
 51
6.646749635537407e-07
  0
LINE
  5
2F4
100
AcDbEntity
  8
support
  6
ByLayer
 62
  256
370
   -1
100
AcDbLine
 10
-131.6125000374342
 20
22.45624896961009
 11
-131.6125000136526
 21
20.40624896961013
  0
LINE
  5
2F5
100
AcDbEntity
  8
support
  6
ByLayer
 62
  256
370
   -1
100
AcDbLine
 10
-133.6125000606357
 20
24.45624894640854
 11
-142.6125000606357
 21
24.45624884200168
  0
ARC
  5
2F6
100
AcDbEntity
  8
support
  6
ByLayer
 62
  256
370
   -1
100
AcDbCircle
 10
-133.6125000374342
 20
22.45624894640854
 40
2
100
AcDbArc
 50
6.646749635537407e-07
 51
90.00000066467496
  0
ARC
  5
2F7
100
AcDbEntity
  8
support
  6
ByLayer
 62
  256
370
   -1
100
AcDbCircle
 10
-142.6124995721855
 20
-17.64875115799831
 40
2
100
AcDbArc
 50
180.000000664675
 51
270.000000664675
  0
LINE
  5
2F8
100
AcDbEntity
  8
support
  6
ByLayer
 62
  256
370
   -1
100
AcDbLine
 10
-144.6124995721855
 20
-17.64875118119986
 11
-144.612499595967
 21
-15.59875118119987
  0
ARC
  5
2F9
100
AcDbEntity
  8
support
  6
ByLayer
 62
  256
370
   -1
100
AcDbCircle
 10
-142.612499595967
 20
-15.59875115799831
 40
2
100
AcDbArc
 50
90.00000066467496
 51
180.000000664675
  0
LINE
  5
2FA
100
AcDbEntity
  8
support
  6
ByLayer
 62
  256
370
   -1
100
AcDbLine
 10
-133.6124996191686
 20
-13.59875105359139
 11
-142.6124996191686
 21
-13.59875115799831
  0
ARC
  5
2FB
100
AcDbEntity
  8
support
  6
ByLayer
 62
  256
370
   -1
100
AcDbCircle
 10
-133.612499595967
 20
-15.59875105359139
 40
2
100
AcDbArc
 50
6.646749635537407e-07
 51
90.00000066467496
  0
LINE
  5
2FC
100
AcDbEntity
  8
support
  6
ByLayer
 62
  256
370
   -1
100
AcDbLine
 10
-131.6124995721855
 20
-17.64875103038987
 11
-131.612499595967
 21
-15.59875103038987
  0
LINE
  5
2FD
100
AcDbEntity
  8
support
  6
ByLayer
 62
  256
370
   -1
100
AcDbLine
 10
-133.6124995489839
 20
-19.6487510535914
 11
-142.6124995489839
 21
-19.64875115799831
  0
ARC
  5
2FE
100
AcDbEntity
  8
support
  6
ByLayer
 62
  256
370
   -1
100
AcDbCircle
 10
-133.6124995721855
 20
-17.6487510535914
 40
2
100
AcDbArc
 50
270.000000664675
 51
6.646749635537407e-07
  0
ARC
  5
2FF
100
AcDbEntity
  8
support
  6
ByLayer
 62
  256
370
   -1
100
AcDbCircle
 10
4.499999776924424
 20
3.406250496415986
 40
2
100
AcDbArc
 50
0
 51
90
  0
LINE
  5
300
100
AcDbEntity
  8
support
  6
ByLayer
 62
  256
370
   -1
100
AcDbLine
 10
6.499999776924425
 20
1.356250496415987
 11
6.499999776924425
 21
3.406250496415986
  0
ARC
  5
301
100
AcDbEntity
  8
support
  6
ByLayer
 62
  256
370
   -1
100
AcDbCircle
 10
4.499999776924425
 20
1.356250496415989
 40
2
100
AcDbArc
 50
270
 51
359.9999999999999
  0
LINE
  5
302
100
AcDbEntity
  8
support
  6
ByLayer
 62
  256
370
   -1
100
AcDbLine
 10
-4.500000223075572
 20
-0.6437495035840115
 11
4.499999776924426
 21
-0.6437495035840115
  0
ARC
  5
303
100
AcDbEntity
  8
support
  6
ByLayer
 62
  256
370
   -1
100
AcDbCircle
 10
-4.500000223075575
 20
1.356250496415988
 40
2
100
AcDbArc
 50
180
 51
270.0000000000001
  0
LINE
  5
304
100
AcDbEntity
  8
support
  6
ByLayer
 62
  256
370
   -1
100
AcDbLine
 10
-6.500000223075574
 20
1.356250496415988
 11
-6.500000223075574
 21
3.406250496415985
  0
LINE
  5
305
100
AcDbEntity
  8
support
  6
ByLayer
 62
  256
370
   -1
100
AcDbLine
 10
-4.500000223075574
 20
5.406250496415986
 11
4.499999776924424
 21
5.406250496415986
  0
ARC
  5
306
100
AcDbEntity
  8
support
  6
ByLayer
 62
  256
370
   -1
100
AcDbCircle
 10
-4.500000223075574
 20
3.406250496415986
 40
2
100
AcDbArc
 50
90
 51
180
  0
LINE
  5
307
100
AcDbEntity
  8
placement
  6
ByLayer
 62
  256
370
   -1
100
AcDbLine
 10
-142.6125000374342
 20
22.45624884200168
 11
-133.6125000136526
 21
20.4062489464086
  0
LINE
  5
308
100
AcDbEntity
  8
placement
  6
ByLayer
 62
  256
370
   -1
100
AcDbLine
 10
-142.612499595967
 20
-15.59875115799831
 11
-133.6124995721855
 21
-17.6487510535914
  0
LINE
  5
309
100
AcDbEntity
  8
placement
  6
ByLayer
 62
  256
370
   -1
100
AcDbLine
 10
-4.500000223075574
 20
3.406250496415986
 11
4.499999776924425
 21
1.356250496415989
  0
LINE
  5
30A
100
AcDbEntity
  8
placement
  6
ByLayer
 62
  256
370
   -1
100
AcDbLine
 10
72.31249977692443
 20
2.358750496415989
 11
80.31249977692443
 21
2.358750496415988
  0
LINE
  5
30B
100
AcDbEntity
  8
placement
  6
ByLayer
 62
  256
370
   -1
100
AcDbLine
 10
-91.75925022307557
 20
-20.69374950358401
 11
-91.75925022307557
 21
-34.69374950358401
  0
LINE
  5
30C
100
AcDbEntity
  8
placement
  6
ByLayer
 62
  256
370
   -1
100
AcDbLine
 10
-44.13425022307557
 20
-20.69374950358401
 11
-44.13425022307557
 21
-34.69374950358401
  0
ARC
  5
30D
100
AcDbEntity
  8
support
  6
ByLayer
 62
  256
370
   -1
100
AcDbCircle
 10
-45.12500022307557
 20
-17.69374950358401
 40
2
100
AcDbArc
 50
270
 51
0
  0
LINE
  5
30E
100
AcDbEntity
  8
support
  6
ByLayer
 62
  256
370
   -1
100
AcDbLine
 10
-43.12500022307557
 20
-15.64374950358401
 11
-43.12500022307557
 21
-17.69374950358401
  0
ARC
  5
30F
100
AcDbEntity
  8
support
  6
ByLayer
 62
  256
370
   -1
100
AcDbCircle
 10
-45.12500022307557
 20
-15.64374950358401
 40
2
100
AcDbArc
 50
1.017777498068325e-13
 51
90
  0
LINE
  5
310
100
AcDbEntity
  8
support
  6
ByLayer
 62
  256
370
   -1
100
AcDbLine
 10
-54.12500022307557
 20
-13.64374950358401
 11
-45.12500022307557
 21
-13.64374950358401
  0
ARC
  5
311
100
AcDbEntity
  8
support
  6
ByLayer
 62
  256
370
   -1
100
AcDbCircle
 10
-54.12500022307557
 20
-15.64374950358401
 40
2
100
AcDbArc
 50
89.9999999999999
 51
180
  0
LINE
  5
312
100
AcDbEntity
  8
support
  6
ByLayer
 62
  256
370
   -1
100
AcDbLine
 10
-56.12500022307557
 20
-15.64374950358401
 11
-56.12500022307557
 21
-17.69374950358401
  0
LINE
  5
313
100
AcDbEntity
  8
support
  6
ByLayer
 62
  256
370
   -1
100
AcDbLine
 10
-54.12500022307557
 20
-19.69374950358401
 11
-45.12500022307557
 21
-19.69374950358401
  0
ARC
  5
314
100
AcDbEntity
  8
support
  6
ByLayer
 62
  256
370
   -1
100
AcDbCircle
 10
-54.12500022307557
 20
-17.69374950358401
 40
2
100
AcDbArc
 50
180
 51
270
  0
ARC
  5
315
100
AcDbEntity
  8
support
  6
ByLayer
 62
  256
370
   -1
100
AcDbCircle
 10
-79.70000022307558
 20
22.45625049641598
 40
2
100
AcDbArc
 50
90
 51
180
  0
LINE
  5
316
100
AcDbEntity
  8
support
  6
ByLayer
 62
  256
370
   -1
100
AcDbLine
 10
-79.70000022307558
 20
24.45625049641598
 11
-72.70000022307558
 21
24.45625049641598
  0
ARC
  5
317
100
AcDbEntity
  8
support
  6
ByLayer
 62
  256
370
   -1
100
AcDbCircle
 10
-72.70000022307558
 20
22.45625049641598
 40
2
100
AcDbArc
 50
0
 51
90
  0
LINE
  5
318
100
AcDbEntity
  8
support
  6
ByLayer
 62
  256
370
   -1
100
AcDbLine
 10
-70.70000022307558
 20
20.40625049641599
 11
-70.70000022307558
 21
22.45625049641598
  0
ARC
  5
319
100
AcDbEntity
  8
support
  6
ByLayer
 62
  256
370
   -1
100
AcDbCircle
 10
-72.70000022307558
 20
20.40625049641599
 40
2
100
AcDbArc
 50
270
 51
359.9999999999999
  0
LINE
  5
31A
100
AcDbEntity
  8
support
  6
ByLayer
 62
  256
370
   -1
100
AcDbLine
 10
-79.70000022307558
 20
18.40625049641599
 11
-72.70000022307558
 21
18.40625049641599
  0
LINE
  5
31B
100
AcDbEntity
  8
support
  6
ByLayer
 62
  256
370
   -1
100
AcDbLine
 10
-81.70000022307558
 20
20.40625049641599
 11
-81.70000022307558
 21
22.45625049641598
  0
ARC
  5
31C
100
AcDbEntity
  8
support
  6
ByLayer
 62
  256
370
   -1
100
AcDbCircle
 10
-79.70000022307558
 20
20.40625049641599
 40
2
100
AcDbArc
 50
180.0000000000001
 51
270
  0
LINE
  5
31D
100
AcDbEntity
  8
placement
  6
ByLayer
 62
  256
370
   -1
100
AcDbLine
 10
-79.70000022307558
 20
22.45625049641598
 11
-72.70000022307558
 21
20.40625049641599
  0
LINE
  5
31E
100
AcDbEntity
  8
placement
  6
ByLayer
 62
  256
370
   -1
100
AcDbLine
 10
-54.12500022307557
 20
-15.64374950358401
 11
-45.12500022307557
 21
-17.69374950358401
  0
ARC
  5
31F
100
AcDbEntity
  8
support
  6
ByLayer
 62
  256
370
   -1
100
AcDbCircle
 10
142.6125000374342
 20
22.45624884200169
 40
2
100
AcDbArc
 50
359.999999335325
 51
89.99999933532504
  0
LINE
  5
320
100
AcDbEntity
  8
support
  6
ByLayer
 62
  256
370
   -1
100
AcDbLine
 10
144.6125000374342
 20
22.45624881880014
 11
144.6125000136526
 21
20.4062488188002
  0
ARC
  5
321
100
AcDbEntity
  8
support
  6
ByLayer
 62
  256
370
   -1
100
AcDbCircle
 10
142.6125000136526
 20
20.40624884200169
 40
2
100
AcDbArc
 50
269.999999335325
 51
359.999999335325
  0
LINE
  5
322
100
AcDbEntity
  8
support
  6
ByLayer
 62
  256
370
   -1
100
AcDbLine
 10
133.6124999904511
 20
18.40624894640859
 11
142.6124999904511
 21
18.40624884200169
  0
ARC
  5
323
100
AcDbEntity
  8
support
  6
ByLayer
 62
  256
370
   -1
100
AcDbCircle
 10
133.6125000136526
 20
20.40624894640859
 40
2
100
AcDbArc
 50
179.999999335325
 51
269.999999335325
  0
LINE
  5
324
100
AcDbEntity
  8
support
  6
ByLayer
 62
  256
370
   -1
100
AcDbLine
 10
131.6125000374342
 20
22.45624896961008
 11
131.6125000136526
 21
20.40624896961014
  0
LINE
  5
325
100
AcDbEntity
  8
support
  6
ByLayer
 62
  256
370
   -1
100
AcDbLine
 10
133.6125000606357
 20
24.45624894640853
 11
142.6125000606357
 21
24.45624884200169
  0
ARC
  5
326
100
AcDbEntity
  8
support
  6
ByLayer
 62
  256
370
   -1
100
AcDbCircle
 10
133.6125000374342
 20
22.45624894640853
 40
2
100
AcDbArc
 50
89.99999933532504
 51
179.999999335325
  0
ARC
  5
327
100
AcDbEntity
  8
support
  6
ByLayer
 62
  256
370
   -1
100
AcDbCircle
 10
142.6124995721855
 20
-17.64875115799827
 40
2
100
AcDbArc
 50
269.999999335325
 51
359.999999335325
  0
LINE
  5
328
100
AcDbEntity
  8
support
  6
ByLayer
 62
  256
370
   -1
100
AcDbLine
 10
144.6124995721855
 20
-17.64875118119988
 11
144.612499595967
 21
-15.59875118119988
  0
ARC
  5
329
100
AcDbEntity
  8
support
  6
ByLayer
 62
  256
370
   -1
100
AcDbCircle
 10
142.612499595967
 20
-15.59875115799828
 40
2
100
AcDbArc
 50
359.999999335325
 51
89.99999933532504
  0
LINE
  5
32A
100
AcDbEntity
  8
support
  6
ByLayer
 62
  256
370
   -1
100
AcDbLine
 10
133.6124996191686
 20
-13.59875105359135
 11
142.6124996191686
 21
-13.59875115799828
  0
ARC
  5
32B
100
AcDbEntity
  8
support
  6
ByLayer
 62
  256
370
   -1
100
AcDbCircle
 10
133.612499595967
 20
-15.59875105359135
 40
2
100
AcDbArc
 50
89.99999933532504
 51
179.999999335325
  0
LINE
  5
32C
100
AcDbEntity
  8
support
  6
ByLayer
 62
  256
370
   -1
100
AcDbLine
 10
131.6124995721855
 20
-17.64875103038988
 11
131.612499595967
 21
-15.59875103038991
  0
LINE
  5
32D
100
AcDbEntity
  8
support
  6
ByLayer
 62
  256
370
   -1
100
AcDbLine
 10
133.6124995489839
 20
-19.64875105359139
 11
142.6124995489839
 21
-19.64875115799827
  0
ARC
  5
32E
100
AcDbEntity
  8
support
  6
ByLayer
 62
  256
370
   -1
100
AcDbCircle
 10
133.6124995721855
 20
-17.64875105359139
 40
2
100
AcDbArc
 50
179.999999335325
 51
269.999999335325
  0
ARC
  5
32F
100
AcDbEntity
  8
support
  6
ByLayer
 62
  256
370
   -1
100
AcDbCircle
 10
45.12500022307557
 20
-17.69374950358399
 40
2
100
AcDbArc
 50
180
 51
270
  0
LINE
  5
330
100
AcDbEntity
  8
support
  6
ByLayer
 62
  256
370
   -1
100
AcDbLine
 10
43.12500022307557
 20
-15.64374950358397
 11
43.12500022307557
 21
-17.69374950358399
  0
ARC
  5
331
100
AcDbEntity
  8
support
  6
ByLayer
 62
  256
370
   -1
100
AcDbCircle
 10
45.12500022307557
 20
-15.64374950358397
 40
2
100
AcDbArc
 50
90
 51
179.9999999999999
  0
LINE
  5
332
100
AcDbEntity
  8
support
  6
ByLayer
 62
  256
370
   -1
100
AcDbLine
 10
54.12500022307557
 20
-13.64374950358397
 11
45.12500022307557
 21
-13.64374950358397
  0
ARC
  5
333
100
AcDbEntity
  8
support
  6
ByLayer
 62
  256
370
   -1
100
AcDbCircle
 10
54.12500022307557
 20
-15.64374950358397
 40
2
100
AcDbArc
 50
0
 51
90.0000000000001
  0
LINE
  5
334
100
AcDbEntity
  8
support
  6
ByLayer
 62
  256
370
   -1
100
AcDbLine
 10
56.12500022307557
 20
-15.64374950358397
 11
56.12500022307557
 21
-17.69374950358399
  0
LINE
  5
335
100
AcDbEntity
  8
support
  6
ByLayer
 62
  256
370
   -1
100
AcDbLine
 10
54.12500022307557
 20
-19.69374950358399
 11
45.12500022307557
 21
-19.69374950358399
  0
ARC
  5
336
100
AcDbEntity
  8
support
  6
ByLayer
 62
  256
370
   -1
100
AcDbCircle
 10
54.12500022307557
 20
-17.69374950358399
 40
2
100
AcDbArc
 50
270
 51
0
  0
ARC
  5
337
100
AcDbEntity
  8
support
  6
ByLayer
 62
  256
370
   -1
100
AcDbCircle
 10
79.70000022307559
 20
22.45625049641597
 40
2
100
AcDbArc
 50
0
 51
90
  0
LINE
  5
338
100
AcDbEntity
  8
support
  6
ByLayer
 62
  256
370
   -1
100
AcDbLine
 10
79.70000022307559
 20
24.45625049641597
 11
72.70000022307559
 21
24.45625049641597
  0
ARC
  5
339
100
AcDbEntity
  8
support
  6
ByLayer
 62
  256
370
   -1
100
AcDbCircle
 10
72.70000022307559
 20
22.45625049641597
 40
2
100
AcDbArc
 50
90
 51
180
  0
LINE
  5
33A
100
AcDbEntity
  8
support
  6
ByLayer
 62
  256
370
   -1
100
AcDbLine
 10
70.70000022307559
 20
20.406250496416
 11
70.70000022307559
 21
22.45625049641597
  0
ARC
  5
33B
100
AcDbEntity
  8
support
  6
ByLayer
 62
  256
370
   -1
100
AcDbCircle
 10
72.70000022307559
 20
20.406250496416
 40
2
100
AcDbArc
 50
180.0000000000001
 51
270
  0
LINE
  5
33C
100
AcDbEntity
  8
support
  6
ByLayer
 62
  256
370
   -1
100
AcDbLine
 10
79.70000022307559
 20
18.406250496416
 11
72.70000022307559
 21
18.406250496416
  0
LINE
  5
33D
100
AcDbEntity
  8
support
  6
ByLayer
 62
  256
370
   -1
100
AcDbLine
 10
81.70000022307559
 20
20.406250496416
 11
81.70000022307559
 21
22.45625049641597
  0
ARC
  5
33E
100
AcDbEntity
  8
support
  6
ByLayer
 62
  256
370
   -1
100
AcDbCircle
 10
79.70000022307559
 20
20.406250496416
 40
2
100
AcDbArc
 50
270
 51
359.9999999999999
  0
LINE
  5
33F
100
AcDbEntity
  8
placement
  6
ByLayer
 62
  256
370
   -1
100
AcDbLine
 10
72.70000022307559
 20
22.45625049641597
 11
79.70000022307559
 21
20.406250496416
  0
LINE
  5
340
100
AcDbEntity
  8
placement
  6
ByLayer
 62
  256
370
   -1
100
AcDbLine
 10
45.12500022307557
 20
-15.64374950358397
 11
54.12500022307557
 21
-17.69374950358399
  0
LINE
  5
341
100
AcDbEntity
  8
placement
  6
ByLayer
 62
  256
370
   -1
100
AcDbLine
 10
133.612499595967
 20
-15.59875105359135
 11
142.6124995721855
 21
-17.64875115799827
  0
LINE
  5
342
100
AcDbEntity
  8
placement
  6
ByLayer
 62
  256
370
   -1
100
AcDbLine
 10
133.6125000374342
 20
22.45624894640853
 11
142.6125000136526
 21
20.40624884200169
  0
LINE
  5
343
100
AcDbEntity
  8
ext1
  6
ByLayer
 62
  256
370
   -1
100
AcDbLine
 10
68.31249977692443
 20
36.95875049641598
 11
84.31249977692443
 21
36.95875049641598
  0
ARC
  5
344
100
AcDbEntity
  8
ext1
  6
ByLayer
 62
  256
370
   -1
100
AcDbCircle
 10
84.31249977692443
 20
38.45875049641598
 40
1.5
100
AcDbArc
 50
270
 51
0
  0
LINE
  5
345
100
AcDbEntity
  8
ext1
  6
ByLayer
 62
  256
370
   -1
100
AcDbLine
 10
85.81249977692443
 20
38.45875049641598
 11
85.81249977692443
 21
39.45875049641598
  0
ARC
  5
346
100
AcDbEntity
  8
ext1
  6
ByLayer
 62
  256
370
   -1
100
AcDbCircle
 10
88.31249977692443
 20
39.45875049641598
 40
2.5
100
AcDbArc
 50
90
 51
180
  0
LINE
  5
347
100
AcDbEntity
  8
ext1
  6
ByLayer
 62
  256
370
   -1
100
AcDbLine
 10
88.31249977692443
 20
41.95875049641598
 11
164.6649997769244
 21
41.95875049641598
  0
ARC
  5
348
100
AcDbEntity
  8
ext1
  6
ByLayer
 62
  256
370
   -1
100
AcDbCircle
 10
68.31249977692443
 20
38.45875049641598
 40
1.5
100
AcDbArc
 50
180
 51
270
  0
LINE
  5
349
100
AcDbEntity
  8
ext1
  6
ByLayer
 62
  256
370
   -1
100
AcDbLine
 10
66.81249977692443
 20
38.45875049641598
 11
66.81249977692443
 21
39.45875049641598
  0
ARC
  5
34A
100
AcDbEntity
  8
ext1
  6
ByLayer
 62
  256
370
   -1
100
AcDbCircle
 10
64.31249977692443
 20
39.45875049641598
 40
2.5
100
AcDbArc
 50
0
 51
89.99999999999919
  0
LINE
  5
34B
100
AcDbEntity
  8
ext1
  6
ByLayer
 62
  256
370
   -1
100
AcDbLine
 10
-164.6650002230756
 20
41.95875049641598
 11
64.31249977692445
 21
41.95875049641598
  0
ARC
  5
34C
100
AcDbEntity
  8
ext1
  6
ByLayer
 62
  256
370
   -1
100
AcDbCircle
 10
164.6649997769244
 20
38.45875049641598
 40
3.5
100
AcDbArc
 50
0
 51
90
  0
LINE
  5
34D
100
AcDbEntity
  8
ext1
  6
ByLayer
 62
  256
370
   -1
100
AcDbLine
 10
168.1649997769244
 20
38.45875049641598
 11
168.1649997769244
 21
-38.45874950358401
  0
ARC
  5
34E
100
AcDbEntity
  8
ext1
  6
ByLayer
 62
  256
370
   -1
100
AcDbCircle
 10
164.6649997769244
 20
-38.45874950358401
 40
3.5
100
AcDbArc
 50
270
 51
0
  0
LINE
  5
34F
100
AcDbEntity
  8
ext1
  6
ByLayer
 62
  256
370
   -1
100
AcDbLine
 10
-164.6650002230756
 20
-41.95874950358401
 11
164.6649997769244
 21
-41.95874950358401
  0
ARC
  5
350
100
AcDbEntity
  8
ext1
  6
ByLayer
 62
  256
370
   -1
100
AcDbCircle
 10
-164.6650002230756
 20
-38.45874950358401
 40
3.5
100
AcDbArc
 50
179.9999999999997
 51
270
  0
LINE
  5
351
100
AcDbEntity
  8
ext1
  6
ByLayer
 62
  256
370
   -1
100
AcDbLine
 10
-168.1650002230756
 20
38.45875049641598
 11
-168.1650002230756
 21
-38.458749503584
  0
ARC
  5
352
100
AcDbEntity
  8
ext1
  6
ByLayer
 62
  256
370
   -1
100
AcDbCircle
 10
-164.6650002230756
 20
38.45875049641598
 40
3.5
100
AcDbArc
 50
89.99999999999999
 51
180
  0
LINE
  5
353
100
AcDbEntity
  8
ext2
  6
ByLayer
 62
  256
370
   -1
100
AcDbLine
 10
-164.6650002230756
 20
-41.95874950358401
 11
164.6649997769244
 21
-41.95874950358401
  0
ARC
  5
354
100
AcDbEntity
  8
ext2
  6
ByLayer
 62
  256
370
   -1
100
AcDbCircle
 10
-164.6650002230756
 20
-38.45874950358401
 40
3.5
100
AcDbArc
 50
179.9999999999997
 51
270
  0
LINE
  5
355
100
AcDbEntity
  8
ext2
  6
ByLayer
 62
  256
370
   -1
100
AcDbLine
 10
-168.1650002230756
 20
38.45875049641598
 11
-168.1650002230756
 21
-38.458749503584
  0
ARC
  5
356
100
AcDbEntity
  8
ext2
  6
ByLayer
 62
  256
370
   -1
100
AcDbCircle
 10
-164.6650002230756
 20
38.45875049641598
 40
3.5
100
AcDbArc
 50
89.99999999999999
 51
180
  0
ARC
  5
357
100
AcDbEntity
  8
ext2
  6
ByLayer
 62
  256
370
   -1
100
AcDbCircle
 10
164.6649997769244
 20
38.45875049641598
 40
3.5
100
AcDbArc
 50
0
 51
90
  0
LINE
  5
358
100
AcDbEntity
  8
ext2
  6
ByLayer
 62
  256
370
   -1
100
AcDbLine
 10
168.1649997769244
 20
38.45875049641598
 11
168.1649997769244
 21
-38.45874950358401
  0
ARC
  5
359
100
AcDbEntity
  8
ext2
  6
ByLayer
 62
  256
370
   -1
100
AcDbCircle
 10
164.6649997769244
 20
-38.45874950358401
 40
3.5
100
AcDbArc
 50
270
 51
0
  0
LINE
  5
35A
100
AcDbEntity
  8
ext2
  6
ByLayer
 62
  256
370
   -1
100
AcDbLine
 10
-164.6650002230756
 20
41.95875049641598
 11
164.6649997769244
 21
41.95875049641598
  0
LINE
  5
35B
100
AcDbEntity
  8
ext3
  6
ByLayer
 62
  256
370
   -1
100
AcDbLine
 10
-164.6650002230756
 20
45.95875049641598
 11
164.6649997769244
 21
45.95875049641598
  0
ARC
  5
35C
100
AcDbEntity
  8
ext3
  6
ByLayer
 62
  256
370
   -1
100
AcDbCircle
 10
164.6649997769244
 20
38.45875049641598
 40
7.5
100
AcDbArc
 50
0
 51
90
  0
LINE
  5
35D
100
AcDbEntity
  8
ext3
  6
ByLayer
 62
  256
370
   -1
100
AcDbLine
 10
172.1649997769244
 20
38.45875049641598
 11
172.1649997769244
 21
-38.45874950358401
  0
ARC
  5
35E
100
AcDbEntity
  8
ext3
  6
ByLayer
 62
  256
370
   -1
100
AcDbCircle
 10
164.6649997769244
 20
-38.45874950358401
 40
7.5
100
AcDbArc
 50
270
 51
0
  0
LINE
  5
35F
100
AcDbEntity
  8
ext3
  6
ByLayer
 62
  256
370
   -1
100
AcDbLine
 10
-164.6650002230756
 20
-45.95874950358401
 11
164.6649997769244
 21
-45.95874950358401
  0
ARC
  5
360
100
AcDbEntity
  8
ext3
  6
ByLayer
 62
  256
370
   -1
100
AcDbCircle
 10
-164.6650002230756
 20
-38.45874950358401
 40
7.5
100
AcDbArc
 50
179.9999999999997
 51
270
  0
LINE
  5
361
100
AcDbEntity
  8
ext3
  6
ByLayer
 62
  256
370
   -1
100
AcDbLine
 10
-172.1650002230756
 20
38.45875049641598
 11
-172.1650002230756
 21
-38.458749503584
  0
ARC
  5
362
100
AcDbEntity
  8
ext3
  6
ByLayer
 62
  256
370
   -1
100
AcDbCircle
 10
-164.6650002230756
 20
38.45875049641598
 40
7.5
100
AcDbArc
 50
89.99999999999999
 51
180
  0
LINE
  5
363
100
AcDbEntity
  8
ext4
  6
ByLayer
 62
  256
370
   -1
100
AcDbLine
 10
-164.6650002230756
 20
47.95875049641598
 11
164.6649997769244
 21
47.95875049641598
  0
ARC
  5
364
100
AcDbEntity
  8
ext4
  6
ByLayer
 62
  256
370
   -1
100
AcDbCircle
 10
164.6649997769244
 20
38.45875049641598
 40
9.5
100
AcDbArc
 50
0
 51
90
  0
LINE
  5
365
100
AcDbEntity
  8
ext4
  6
ByLayer
 62
  256
370
   -1
100
AcDbLine
 10
174.1649997769244
 20
38.45875049641598
 11
174.1649997769244
 21
-38.45874950358401
  0
ARC
  5
366
100
AcDbEntity
  8
ext4
  6
ByLayer
 62
  256
370
   -1
100
AcDbCircle
 10
164.6649997769244
 20
-38.45874950358401
 40
9.5
100
AcDbArc
 50
270
 51
0
  0
LINE
  5
367
100
AcDbEntity
  8
ext4
  6
ByLayer
 62
  256
370
   -1
100
AcDbLine
 10
-164.6650002230756
 20
-47.95874950358401
 11
164.6649997769244
 21
-47.95874950358401
  0
ARC
  5
368
100
AcDbEntity
  8
ext4
  6
ByLayer
 62
  256
370
   -1
100
AcDbCircle
 10
-164.6650002230756
 20
-38.45874950358401
 40
9.5
100
AcDbArc
 50
179.9999999999997
 51
270
  0
LINE
  5
369
100
AcDbEntity
  8
ext4
  6
ByLayer
 62
  256
370
   -1
100
AcDbLine
 10
-174.1650002230756
 20
38.45875049641598
 11
-174.1650002230756
 21
-38.458749503584
  0
ARC
  5
36A
100
AcDbEntity
  8
ext4
  6
ByLayer
 62
  256
370
   -1
100
AcDbCircle
 10
-164.6650002230756
 20
38.45875049641598
 40
9.5
100
AcDbArc
 50
89.99999999999999
 51
180
  0
LINE
  5
36B
100
AcDbEntity
  8
support
  6
ByLayer
 62
  256
370
   -1
100
AcDbLine
 10
68.31249977692443
 20
34.45875049641598
 11
84.31249977692443
 21
34.45875049641598
  0
LINE
  5
36C
100
AcDbEntity
  8
support
  6
ByLayer
 62
  256
370
   -1
100
AcDbLine
 10
-164.6650002230756
 20
39.45875049641598
 11
62.39641999382468
 21
39.45875049641598
  0
ARC
  5
36D
100
AcDbEntity
  8
support
  6
ByLayer
 62
  256
370
   -1
100
AcDbCircle
 10
68.31249977692443
 20
38.45875049641598
 40
4
100
AcDbArc
 50
189.5940682268602
 51
270
  0
ARC
  5
36E
100
AcDbEntity
  8
support
  6
ByLayer
 62
  256
370
   -1
100
AcDbCircle
 10
62.39641999382468
 20
37.45875049641598
 40
2
100
AcDbArc
 50
9.594068226860307
 51
90
  0
ARC
  5
36F
100
AcDbEntity
  8
support
  6
ByLayer
 62
  256
370
   -1
100
AcDbCircle
 10
84.31249977692443
 20
38.45875049641598
 40
4
100
AcDbArc
 50
270
 51
350.40593177314
  0
LINE
  5
370
100
AcDbEntity
  8
support
  6
ByLayer
 62
  256
370
   -1
100
AcDbLine
 10
90.22857956002431
 20
39.45875049641598
 11
164.6649997769244
 21
39.45875049641598
  0
ARC
  5
371
100
AcDbEntity
  8
support
  6
ByLayer
 62
  256
370
   -1
100
AcDbCircle
 10
90.22857956002431
 20
37.45875049641598
 40
2
100
AcDbArc
 50
90
 51
170.40593177314
  0
LINE
  5
372
100
AcDbEntity
  8
support
  6
ByLayer
 62
  256
370
   -1
100
AcDbLine
 10
165.6649997769244
 20
38.45875049641598
 11
165.6649997769244
 21
-38.45874950358401
  0
ARC
  5
373
100
AcDbEntity
  8
support
  6
ByLayer
 62
  256
370
   -1
100
AcDbCircle
 10
164.6649997769244
 20
38.45875049641598
 40
1
100
AcDbArc
 50
0
 51
90
  0
LINE
  5
374
100
AcDbEntity
  8
support
  6
ByLayer
 62
  256
370
   -1
100
AcDbLine
 10
-164.6650002230756
 20
-39.45874950358401
 11
164.6649997769244
 21
-39.45874950358401
  0
ARC
  5
375
100
AcDbEntity
  8
support
  6
ByLayer
 62
  256
370
   -1
100
AcDbCircle
 10
164.6649997769244
 20
-38.45874950358401
 40
1
100
AcDbArc
 50
270
 51
0
  0
LINE
  5
376
100
AcDbEntity
  8
support
  6
ByLayer
 62
  256
370
   -1
100
AcDbLine
 10
-165.6650002230756
 20
38.45875049641598
 11
-165.6650002230756
 21
-38.458749503584
  0
ARC
  5
377
100
AcDbEntity
  8
support
  6
ByLayer
 62
  256
370
   -1
100
AcDbCircle
 10
-164.6650002230756
 20
-38.45874950358401
 40
1
100
AcDbArc
 50
179.9999999999997
 51
270
  0
ARC
  5
378
100
AcDbEntity
  8
support
  6
ByLayer
 62
  256
370
   -1
100
AcDbCircle
 10
-164.6650002230756
 20
38.45875049641598
 40
1
100
AcDbArc
 50
89.99999999999999
 51
180
  0
CIRCLE
  5
379
100
AcDbEntity
  8
support
  6
ByLayer
 62
  256
370
   -1
100
AcDbCircle
 10
-138.1125000255434
 20
21.43124889420514
 40
1.1
  0
CIRCLE
  5
37A
100
AcDbEntity
  8
support
  6
ByLayer
 62
  256
370
   -1
100
AcDbCircle
 10
-138.1124995840763
 20
-16.62375110579486
 40
1.1
  0
CIRCLE
  5
37B
100
AcDbEntity
  8
support
  6
ByLayer
 62
  256
370
   -1
100
AcDbCircle
 10
-76.20000022307558
 20
21.43125049641598
 40
1.1
  0
CIRCLE
  5
37C
100
AcDbEntity
  8
support
  6
ByLayer
 62
  256
370
   -1
100
AcDbCircle
 10
-49.62500022307557
 20
-16.66874950358401
 40
1.1
  0
CIRCLE
  5
37D
100
AcDbEntity
  8
support
  6
ByLayer
 62
  256
370
   -1
100
AcDbCircle
 10
-2.230755740129098e-07
 20
2.381250496415988
 40
1.1
  0
CIRCLE
  5
37E
100
AcDbEntity
  8
support
  6
ByLayer
 62
  256
370
   -1
100
AcDbCircle
 10
49.62500022307557
 20
-16.66874950358398
 40
1.1
  0
CIRCLE
  5
37F
100
AcDbEntity
  8
support
  6
ByLayer
 62
  256
370
   -1
100
AcDbCircle
 10
138.1124995840763
 20
-16.62375110579481
 40
1.1
  0
CIRCLE
  5
380
100
AcDbEntity
  8
support
  6
ByLayer
 62
  256
370
   -1
100
AcDbCircle
 10
138.1125000255434
 20
21.43124889420511
 40
1.1
  0
ARC
  5
381
100
AcDbEntity
  8
support1
  6
ByLayer
 62
  256
370
   -1
100
AcDbCircle
 10
-133.612499595967
 20
-15.59875105359139
 40
12
100
AcDbArc
 50
6.646749635537407e-07
 51
90.00000066467496
  0
ARC
  5
382
100
AcDbEntity
  8
support1
  6
ByLayer
 62
  256
370
   -1
100
AcDbCircle
 10
-54.12500022307557
 20
-15.64374950358401
 40
12
100
AcDbArc
 50
89.9999999999999
 51
180
  0
LINE
  5
383
100
AcDbEntity
  8
support1
  6
ByLayer
 62
  256
370
   -1
100
AcDbLine
 10
-133.6124998744434
 20
8.406248946408601
 11
-150.6650002810794
 21
8.406248748586487
  0
ARC
  5
384
100
AcDbEntity
  8
support1
  6
ByLayer
 62
  256
370
   -1
100
AcDbCircle
 10
-150.6650002230756
 20
3.406248748586489
 40
5
100
AcDbArc
 50
90.00000066467516
 51
180
  0
LINE
  5
385
100
AcDbEntity
  8
support1
  6
ByLayer
 62
  256
370
   -1
100
AcDbLine
 10
-133.6124997351763
 20
-3.598751053591391
 11
-150.6650001650717
 21
-3.598751251413508
  0
LINE
  5
386
100
AcDbEntity
  8
support1
  6
ByLayer
 62
  256
370
   -1
100
AcDbLine
 10
-155.6650002230756
 20
3.406248748586485
 11
-155.6650002230756
 21
1.401248748586491
  0
ARC
  5
387
100
AcDbEntity
  8
support1
  6
ByLayer
 62
  256
370
   -1
100
AcDbCircle
 10
-150.6650002230756
 20
1.401248748586491
 40
5
100
AcDbArc
 50
180
 51
270.0000006646752
  0
ARC
  5
388
100
AcDbEntity
  8
support1
  6
ByLayer
 62
  256
370
   -1
100
AcDbCircle
 10
-133.6125000136526
 20
20.4062489464086
 40
12
100
AcDbArc
 50
270.000000664675
 51
6.646749635537407e-07
  0
ARC
  5
389
100
AcDbEntity
  8
support1
  6
ByLayer
 62
  256
370
   -1
100
AcDbCircle
 10
-79.70000022307558
 20
20.40625049641599
 40
12
100
AcDbArc
 50
180.0000000000001
 51
270
  0
LINE
  5
38A
100
AcDbEntity
  8
support1
  6
ByLayer
 62
  256
370
   -1
100
AcDbLine
 10
-79.70000022307558
 20
8.406250496415989
 11
-72.70000022307558
 21
8.406250496415989
  0
LINE
  5
38B
100
AcDbEntity
  8
support1
  6
ByLayer
 62
  256
370
   -1
100
AcDbLine
 10
-54.12500022307557
 20
-3.64374950358401
 11
-45.12500022307557
 21
-3.64374950358401
  0
ARC
  5
38C
100
AcDbEntity
  8
support1
  6
ByLayer
 62
  256
370
   -1
100
AcDbCircle
 10
-116.6124994931846
 20
-24.45874950358401
 40
5
100
AcDbArc
 50
180.0000006646728
 51
270.0000000000002
  0
LINE
  5
38D
100
AcDbEntity
  8
support1
  6
ByLayer
 62
  256
370
   -1
100
AcDbLine
 10
-116.6124994931845
 20
-29.45874950358401
 11
-71.12500022307557
 21
-29.45874950358401
  0
LINE
  5
38E
100
AcDbEntity
  8
support1
  6
ByLayer
 62
  256
370
   -1
100
AcDbLine
 10
-66.12500022307557
 20
-15.64374950358401
 11
-66.12500022307557
 21
-24.45874950358401
  0
ARC
  5
38F
100
AcDbEntity
  8
support1
  6
ByLayer
 62
  256
370
   -1
100
AcDbCircle
 10
-71.12500022307557
 20
-24.45874950358401
 40
5
100
AcDbArc
 50
270
 51
0
  0
LINE
  5
390
100
AcDbEntity
  8
support1
  6
ByLayer
 62
  256
370
   -1
100
AcDbLine
 10
-121.612499595967
 20
-15.59875091438219
 11
-121.6124994931845
 21
-24.45874956158766
  0
LINE
  5
391
100
AcDbEntity
  8
support1
  6
ByLayer
 62
  256
370
   -1
100
AcDbLine
 10
-121.6125000606647
 20
24.45875043841212
 11
-121.6125000136526
 21
20.40624908561784
  0
ARC
  5
392
100
AcDbEntity
  8
support1
  6
ByLayer
 62
  256
370
   -1
100
AcDbCircle
 10
-116.6125000606648
 20
24.45875049641598
 40
5
100
AcDbArc
 50
90
 51
180.0000006646752
  0
LINE
  5
393
100
AcDbEntity
  8
support1
  6
ByLayer
 62
  256
370
   -1
100
AcDbLine
 10
-116.6125000606648
 20
29.45875049641598
 11
-96.70000022307558
 21
29.45875049641598
  0
LINE
  5
394
100
AcDbEntity
  8
support1
  6
ByLayer
 62
  256
370
   -1
100
AcDbLine
 10
-91.70000022307558
 20
20.40625049641599
 11
-91.70000022307558
 21
24.45875049641598
  0
ARC
  5
395
100
AcDbEntity
  8
support1
  6
ByLayer
 62
  256
370
   -1
100
AcDbCircle
 10
-96.70000022307558
 20
24.45875049641598
 40
5
100
AcDbArc
 50
0
 51
90
  0
ARC
  5
396
100
AcDbEntity
  8
support1
  6
ByLayer
 62
  256
370
   -1
100
AcDbCircle
 10
-21.50000022307557
 20
-24.45874950358401
 40
5
100
AcDbArc
 50
269.9999999999997
 51
0
  0
LINE
  5
397
100
AcDbEntity
  8
support1
  6
ByLayer
 62
  256
370
   -1
100
AcDbLine
 10
-28.12500022307557
 20
-29.45874950358401
 11
-21.5000002230756
 21
-29.45874950358401
  0
LINE
  5
398
100
AcDbEntity
  8
support1
  6
ByLayer
 62
  256
370
   -1
100
AcDbLine
 10
-33.12500022307557
 20
-15.64374950358401
 11
-33.12500022307557
 21
-24.45874950358401
  0
ARC
  5
399
100
AcDbEntity
  8
support1
  6
ByLayer
 62
  256
370
   -1
100
AcDbCircle
 10
-28.12500022307557
 20
-24.45874950358401
 40
5
100
AcDbArc
 50
180
 51
269.9999999999999
  0
ARC
  5
39A
100
AcDbEntity
  8
support1
  6
ByLayer
 62
  256
370
   -1
100
AcDbCircle
 10
-45.12500022307557
 20
-15.64374950358401
 40
12
100
AcDbArc
 50
1.017777498068325e-13
 51
90
  0
LINE
  5
39B
100
AcDbEntity
  8
support1
  6
ByLayer
 62
  256
370
   -1
100
AcDbLine
 10
-16.50000022307557
 20
-24.45874950358401
 11
-16.50000022307557
 21
24.45875049641598
  0
ARC
  5
39C
100
AcDbEntity
  8
support1
  6
ByLayer
 62
  256
370
   -1
100
AcDbCircle
 10
-21.50000022307557
 20
24.45875049641598
 40
5
100
AcDbArc
 50
0
 51
90
  0
ARC
  5
39D
100
AcDbEntity
  8
support1
  6
ByLayer
 62
  256
370
   -1
100
AcDbCircle
 10
72.70000022307559
 20
20.406250496416
 40
12
100
AcDbArc
 50
180.0000000000001
 51
270
  0
LINE
  5
39E
100
AcDbEntity
  8
support1
  6
ByLayer
 62
  256
370
   -1
100
AcDbLine
 10
79.70000022307559
 20
8.406250496416
 11
72.70000022307559
 21
8.406250496416
  0
ARC
  5
39F
100
AcDbEntity
  8
support1
  6
ByLayer
 62
  256
370
   -1
100
AcDbCircle
 10
45.12500022307557
 20
-15.64374950358397
 40
12
100
AcDbArc
 50
90
 51
179.9999999999999
  0
ARC
  5
3A0
100
AcDbEntity
  8
support1
  6
ByLayer
 62
  256
370
   -1
100
AcDbCircle
 10
54.12500022307557
 20
-15.64374950358397
 40
12
100
AcDbArc
 50
0
 51
90.0000000000001
  0
LINE
  5
3A1
100
AcDbEntity
  8
support1
  6
ByLayer
 62
  256
370
   -1
100
AcDbLine
 10
66.12500022307557
 20
-15.64374950358397
 11
66.12500022307557
 21
-24.45874950358401
  0
ARC
  5
3A2
100
AcDbEntity
  8
support1
  6
ByLayer
 62
  256
370
   -1
100
AcDbCircle
 10
71.12500022307557
 20
-24.45874950358401
 40
5
100
AcDbArc
 50
180
 51
269.9999999999997
  0
ARC
  5
3A3
100
AcDbEntity
  8
support1
  6
ByLayer
 62
  256
370
   -1
100
AcDbCircle
 10
21.49999977692443
 20
24.45875049641598
 40
5
100
AcDbArc
 50
90
 51
180
  0
LINE
  5
3A4
100
AcDbEntity
  8
support1
  6
ByLayer
 62
  256
370
   -1
100
AcDbLine
 10
21.49999977692443
 20
29.45875049641598
 11
55.70000022307559
 21
29.45875049641598
  0
ARC
  5
3A5
100
AcDbEntity
  8
support1
  6
ByLayer
 62
  256
370
   -1
100
AcDbCircle
 10
55.70000022307559
 20
24.45875049641598
 40
5
100
AcDbArc
 50
0
 51
90
  0
LINE
  5
3A6
100
AcDbEntity
  8
support1
  6
ByLayer
 62
  256
370
   -1
100
AcDbLine
 10
33.12500022307557
 20
-15.64374950358397
 11
33.12500022307557
 21
-24.45874950358401
  0
ARC
  5
3A7
100
AcDbEntity
  8
support1
  6
ByLayer
 62
  256
370
   -1
100
AcDbCircle
 10
28.12500022307557
 20
-24.45874950358401
 40
5
100
AcDbArc
 50
270.0000000000001
 51
0
  0
LINE
  5
3A8
100
AcDbEntity
  8
support1
  6
ByLayer
 62
  256
370
   -1
100
AcDbLine
 10
21.49999977692443
 20
-29.45874950358401
 11
28.12500022307557
 21
-29.45874950358401
  0
LINE
  5
3A9
100
AcDbEntity
  8
support1
  6
ByLayer
 62
  256
370
   -1
100
AcDbLine
 10
16.49999977692443
 20
-24.45874950358401
 11
16.49999977692443
 21
24.45875049641598
  0
ARC
  5
3AA
100
AcDbEntity
  8
support1
  6
ByLayer
 62
  256
370
   -1
100
AcDbCircle
 10
21.49999977692443
 20
-24.45874950358401
 40
5
100
AcDbArc
 50
180
 51
270
  0
LINE
  5
3AB
100
AcDbEntity
  8
support1
  6
ByLayer
 62
  256
370
   -1
100
AcDbLine
 10
54.12500022307557
 20
-3.643749503583971
 11
45.12500022307557
 21
-3.643749503583971
  0
ARC
  5
3AC
100
AcDbEntity
  8
support1
  6
ByLayer
 62
  256
370
   -1
100
AcDbCircle
 10
79.70000022307559
 20
20.406250496416
 40
12
100
AcDbArc
 50
270
 51
359.9999999999999
  0
LINE
  5
3AD
100
AcDbEntity
  8
support1
  6
ByLayer
 62
  256
370
   -1
100
AcDbLine
 10
91.70000022307559
 20
20.406250496416
 11
91.70000022307559
 21
24.45875049641598
  0
ARC
  5
3AE
100
AcDbEntity
  8
support1
  6
ByLayer
 62
  256
370
   -1
100
AcDbCircle
 10
96.70000022307559
 20
24.45875049641598
 40
5
100
AcDbArc
 50
90
 51
180
  0
LINE
  5
3AF
100
AcDbEntity
  8
support1
  6
ByLayer
 62
  256
370
   -1
100
AcDbLine
 10
71.12500022307555
 20
-29.45874950358401
 11
116.6124994931846
 21
-29.45874950358401
  0
ARC
  5
3B0
100
AcDbEntity
  8
support1
  6
ByLayer
 62
  256
370
   -1
100
AcDbCircle
 10
116.6124994931846
 20
-24.45874950358401
 40
5
100
AcDbArc
 50
270
 51
359.9999993353271
  0
LINE
  5
3B1
100
AcDbEntity
  8
support1
  6
ByLayer
 62
  256
370
   -1
100
AcDbLine
 10
96.70000022307559
 20
29.45875049641598
 11
116.6125000606633
 21
29.45875049641598
  0
ARC
  5
3B2
100
AcDbEntity
  8
support1
  6
ByLayer
 62
  256
370
   -1
100
AcDbCircle
 10
116.6125000606633
 20
24.45875049641598
 40
5
100
AcDbArc
 50
359.9999993353271
 51
90
  0
LINE
  5
3B3
100
AcDbEntity
  8
support1
  6
ByLayer
 62
  256
370
   -1
100
AcDbLine
 10
121.6124994931846
 20
-24.45874956158766
 11
121.6125000606633
 21
24.45875043841232
  0
ARC
  5
3B4
100
AcDbEntity
  8
support1
  6
ByLayer
 62
  256
370
   -1
100
AcDbCircle
 10
-72.70000022307558
 20
20.40625049641599
 40
12
100
AcDbArc
 50
270
 51
359.9999999999999
  0
LINE
  5
3B5
100
AcDbEntity
  8
support1
  6
ByLayer
 62
  256
370
   -1
100
AcDbLine
 10
-55.70000022307558
 20
29.45875049641598
 11
-21.50000022307557
 21
29.45875049641598
  0
LINE
  5
3B6
100
AcDbEntity
  8
support1
  6
ByLayer
 62
  256
370
   -1
100
AcDbLine
 10
-60.70000022307558
 20
20.40625049641599
 11
-60.70000022307558
 21
24.45875049641598
  0
ARC
  5
3B7
100
AcDbEntity
  8
support1
  6
ByLayer
 62
  256
370
   -1
100
AcDbCircle
 10
-55.70000022307558
 20
24.45875049641598
 40
5
100
AcDbArc
 50
90
 51
180
  0
LINE
  5
3B8
100
AcDbEntity
  8
support1
  6
ByLayer
 62
  256
370
   -1
100
AcDbLine
 10
60.70000022307559
 20
24.45875049641598
 11
60.70000022307559
 21
20.40625049641598
  0
ENDSEC
  0
SECTION
  2
OBJECTS
  0
DICTIONARY
  5
C
330
0
100
AcDbDictionary
281
    1
  3
ACAD_GROUP
350
D
  0
DICTIONARY
  5
D
330
C
100
AcDbDictionary
281
    1
  0
PLOTSETTINGS
  5
3B9
100
AcDbPlotSettings
  6
1x1
 40
0
 41
0
 42
0
 43
0
  0
ENDSEC
  0
EOF
