999
dxfrw 0.6.3
  0
SECTION
  2
HEADER
  9
$ACADVER
  1
AC1021
  9
$DWGCODEPAGE
  3
ANSI_1252
  9
$INSBASE
 10
0
 20
0
 30
0
  9
$EXTMIN
 10
-139.1870965769322
 20
-50
 30
0
  9
$EXTMAX
 10
139.1870965769322
 20
64.70641449525036
 30
0
  9
$LIMMIN
 10
0
 20
0
  9
$LIMMAX
 10
420
 20
297
  9
$ORTHOMODE
 70
    0
  9
$REGENMODE
 70
    1
  9
$FILLMODE
 70
    1
  9
$QTEXTMODE
 70
    0
  9
$MIRRTEXT
 70
    0
  9
$LTSCALE
 40
1
  9
$ATTMODE
 70
    0
  9
$TEXTSIZE
 40
2.5
  9
$TRACEWID
 40
15.68
  9
$TEXTSTYLE
  7
STANDARD
  9
$CLAYER
  8
noname5
  9
$CELTYPE
  6
BYLAYER
  9
$CECOLOR
 62
  256
  9
$CELTSCALE
 40
1
  9
$DISPSILH
 70
    0
  9
$DIMSCALE
 40
2.5
  9
$DIMASZ
 40
2.5
  9
$DIMEXO
 40
0.625
  9
$DIMDLI
 40
3.75
  9
$DIMRND
 40
0
  9
$DIMDLE
 40
0
  9
$DIMEXE
 40
1.25
  9
$DIMTP
 40
0
  9
$DIMTM
 40
0
  9
$DIMTXT
 40
2.5
  9
$DIMCEN
 40
2.5
  9
$DIMTSZ
 40
0
  9
$DIMTOL
 70
    0
  9
$DIMLIM
 70
    0
  9
$DIMTIH
 70
    0
  9
$DIMTOH
 70
    0
  9
$DIMSE1
 70
    0
  9
$DIMSE2
 70
    0
  9
$DIMTAD
 70
    1
  9
$DIMZIN
 70
    8
  9
$DIMBLK
  1

  9
$DIMASO
 70
    1
  9
$DIMSHO
 70
    1
  9
$DIMPOST
  1

  9
$DIMAPOST
  1

  9
$DIMALT
 70
    0
  9
$DIMALTD
 70
    3
  9
$DIMALTF
 40
0.03937
  9
$DIMLFAC
 40
1
  9
$DIMTOFL
 70
    1
  9
$DIMTVP
 40
0
  9
$DIMTIX
 70
    0
  9
$DIMSOXD
 70
    0
  9
$DIMSAH
 70
    0
  9
$DIMBLK1
  1

  9
$DIMBLK2
  1

  9
$DIMSTYLE
  2
Standard
  9
$DIMCLRD
 70
    0
  9
$DIMCLRE
 70
    0
  9
$DIMCLRT
 70
    0
  9
$DIMTFAC
 40
1
  9
$DIMGAP
 40
0.625
  9
$DIMJUST
 70
    0
  9
$DIMSD1
 70
    0
  9
$DIMSD2
 70
    0
  9
$DIMTOLJ
 70
    0
  9
$DIMTZIN
 70
    8
  9
$DIMALTZ
 70
    0
  9
$DIMALTTZ
 70
    0
  9
$DIMUPT
 70
    0
  9
$DIMDEC
 70
    2
  9
$DIMTDEC
 70
    2
  9
$DIMALTU
 70
    2
  9
$DIMALTTD
 70
    3
  9
$DIMTXSTY
  7
STANDARD
  9
$DIMAUNIT
 70
    0
  9
$DIMADEC
 70
    0
  9
$DIMALTRND
 40
0
  9
$DIMAZIN
 70
    0
  9
$DIMDSEP
 70
   44
  9
$DIMATFIT
 70
    3
  9
$DIMFRAC
 70
    0
  9
$DIMLDRBLK
  1
STANDARD
  9
$DIMLUNIT
 70
    2
  9
$DIMLWD
 70
   -2
  9
$DIMLWE
 70
   -2
  9
$DIMTMOVE
 70
    0
  9
$DIMFXL
 40
1
  9
$DIMFXLON
 70
    0
  9
$DIMJOGANG
 40
0.7854
  9
$DIMTFILL
 70
    0
  9
$DIMTFILLCLR
 70
    0
  9
$DIMARCSYM
 70
    0
  9
$DIMLTYPE
  6

  9
$DIMLTEX1
  6

  9
$DIMLTEX2
  6

  9
$LUNITS
 70
    2
  9
$LUPREC
 70
    4
  9
$SKETCHINC
 40
1
  9
$FILLETRAD
 40
0
  9
$AUNITS
 70
    0
  9
$AUPREC
 70
    2
  9
$MENU
  1
.
  9
$ELEVATION
 40
0
  9
$PELEVATION
 40
0
  9
$THICKNESS
 40
0
  9
$LIMCHECK
 70
    0
  9
$CHAMFERA
 40
0
  9
$CHAMFERB
 40
0
  9
$CHAMFERC
 40
0
  9
$CHAMFERD
 40
0
  9
$SKPOLY
 70
    0
  9
$USRTIMER
 70
    1
  9
$ANGBASE
 50
0
  9
$ANGDIR
 70
    0
  9
$PDMODE
 70
   34
  9
$PDSIZE
 40
0
  9
$PLINEWID
 40
0
  9
$SPLFRAME
 70
    0
  9
$SPLINETYPE
 70
    2
  9
$SPLINESEGS
 70
    8
  9
$HANDSEED
  5
20000
  9
$SURFTAB1
 70
    6
  9
$SURFTAB2
 70
    6
  9
$SURFTYPE
 70
    6
  9
$SURFU
 70
    6
  9
$SURFV
 70
    6
  9
$UCSBASE
  2

  9
$UCSNAME
  2

  9
$UCSORG
 10
0
 20
0
 30
0
  9
$UCSXDIR
 10
1
 20
0
 30
0
  9
$UCSYDIR
 10
0
 20
1
 30
0
  9
$UCSORTHOREF
  2

  9
$UCSORTHOVIEW
 70
    0
  9
$UCSORGTOP
 10
0
 20
0
 30
0
  9
$UCSORGBOTTOM
 10
0
 20
0
 30
0
  9
$UCSORGLEFT
 10
0
 20
0
 30
0
  9
$UCSORGRIGHT
 10
0
 20
0
 30
0
  9
$UCSORGFRONT
 10
0
 20
0
 30
0
  9
$UCSORGBACK
 10
0
 20
0
 30
0
  9
$PUCSBASE
  2

  9
$PUCSNAME
  2

  9
$PUCSORG
 10
0
 20
0
 30
0
  9
$PUCSXDIR
 10
1
 20
0
 30
0
  9
$PUCSYDIR
 10
0
 20
1
 30
0
  9
$PUCSORTHOREF
  2

  9
$PUCSORTHOVIEW
 70
    0
  9
$PUCSORGTOP
 10
0
 20
0
 30
0
  9
$PUCSORGBOTTOM
 10
0
 20
0
 30
0
  9
$PUCSORGLEFT
 10
0
 20
0
 30
0
  9
$PUCSORGRIGHT
 10
0
 20
0
 30
0
  9
$PUCSORGFRONT
 10
0
 20
0
 30
0
  9
$PUCSORGBACK
 10
0
 20
0
 30
0
  9
$USERI1
 70
    0
  9
$USERI2
 70
    0
  9
$USERI3
 70
    0
  9
$USERI4
 70
    0
  9
$USERI5
 70
    0
  9
$USERR1
 40
0
  9
$USERR2
 40
0
  9
$USERR3
 40
0
  9
$USERR4
 40
0
  9
$USERR5
 40
0
  9
$WORLDVIEW
 70
    1
  9
$SHADEDGE
 70
    3
  9
$SHADEDIF
 70
   70
  9
$TILEMODE
 70
    1
  9
$MAXACTVP
 70
   64
  9
$PINSBASE
 10
0
 20
0
 30
0
  9
$PLIMCHECK
 70
    0
  9
$PEXTMIN
 10
0
 20
0
 30
0
  9
$PEXTMAX
 10
0
 20
0
 30
0
  9
$GRIDMODE
 70
    1
  9
$SNAPSTYLE
 70
    0
  9
$PLIMMIN
 10
0
 20
0
  9
$PLIMMAX
 10
210
 20
297
  9
$UNITMODE
 70
    0
  9
$VISRETAIN
 70
    1
  9
$PLINEGEN
 70
    0
  9
$PSLTSCALE
 70
    1
  9
$TREEDEPTH
 70
 3020
  9
$CMLSTYLE
  2
Standard
  9
$CMLJUST
 70
    0
  9
$CMLSCALE
 40
20
  9
$PROXYGRAPHICS
 70
    1
  9
$MEASUREMENT
 70
    1
  9
$CELWEIGHT
370
   -1
  9
$ENDCAPS
280
    0
  9
$JOINSTYLE
280
    0
  9
$LWDISPLAY
290
    0
  9
$INSUNITS
 70
    4
  9
$HYPERLINKBASE
  1

  9
$STYLESHEET
  1

  9
$XEDIT
290
    1
  9
$CEPSNTYPE
380
    0
  9
$PSTYLEMODE
290
    1
  9
$EXTNAMES
290
    1
  9
$PSVPSCALE
 40
1
  9
$OLESTARTUP
290
    0
  9
$SORTENTS
280
  127
  9
$INDEXCTL
280
    0
  9
$HIDETEXT
280
    1
  9
$XCLIPFRAME
290
    0
  9
$HALOGAP
280
    0
  9
$OBSCOLOR
 70
  257
  9
$OBSLTYPE
280
    0
  9
$INTERSECTIONDISPLAY
280
    0
  9
$INTERSECTIONCOLOR
 70
  257
  9
$DIMASSOC
280
    1
  9
$PROJECTNAME
  1

  9
$CAMERADISPLAY
290
    0
  9
$LENSLENGTH
 40
50
  9
$CAMERAHEIGHT
 40
0
  9
$STEPSPERSEC
 40
2
  9
$STEPSIZE
 40
50
  9
$3DDWFPREC
 40
2
  9
$PSOLWIDTH
 40
5
  9
$PSOLHEIGHT
 40
80
  9
$LOFTANG1
 40
1.570796326794897
  9
$LOFTANG2
 40
1.570796326794897
  9
$LOFTMAG1
 40
0
  9
$LOFTMAG2
 40
0
  9
$LOFTPARAM
 70
    7
  9
$LOFTNORMALS
280
    1
  9
$LATITUDE
 40
1
  9
$LONGITUDE
 40
1
  9
$NORTHDIRECTION
 40
0
  9
$TIMEZONE
 70
-8000
  9
$LIGHTGLYPHDISPLAY
280
    1
  9
$TILEMODELIGHTSYNCH
280
    1
  9
$SOLIDHIST
280
    1
  9
$SHOWHIST
280
    1
  9
$DWFFRAME
280
    2
  9
$DGNFRAME
280
    0
  9
$REALWORLDSCALE
290
    1
  9
$INTERFERECOLOR
 62
    1
  9
$CSHADOW
280
    0
  9
$SHADOWPLANELOCATION
 40
0
  0
ENDSEC
  0
SECTION
  2
CLASSES
  0
ENDSEC
  0
SECTION
  2
TABLES
  0
TABLE
  2
VPORT
  5
8
330
0
100
AcDbSymbolTable
 70
    1
  0
VPORT
  5
31
330
2
100
AcDbSymbolTableRecord
100
AcDbViewportTableRecord
  2
*ACTIVE
 70
    0
 10
0
 20
0
 11
1
 21
1
 12
70.64959606219092
 22
46.57170682126487
 13
0
 23
0
 14
10
 24
10
 15
10
 25
10
 16
0
 26
0
 36
1
 17
0
 27
0
 37
0
 40
171.5021584529119
 41
1.647783251231527
 42
50
 43
0
 44
0
 50
0
 51
0
 71
    0
 72
  100
 73
    1
 74
    3
 75
    0
 76
    1
 77
    0
 78
    0
281
    0
 65
    1
110
0
120
0
130
0
111
1
121
0
131
0
112
0
122
1
132
0
 79
    0
146
0
348
10020
 60
    7
 61
    5
292
1
282
    1
141
0
142
0
 63
  250
421
3358443
  0
ENDTAB
  0
TABLE
  2
LTYPE
  5
5
330
0
100
AcDbSymbolTable
 70
    4
  0
LTYPE
  5
14
330
5
100
AcDbSymbolTableRecord
100
AcDbLinetypeTableRecord
  2
ByBlock
 70
    0
  3

 72
   65
 73
    0
 40
0
  0
LTYPE
  5
15
330
5
100
AcDbSymbolTableRecord
100
AcDbLinetypeTableRecord
  2
ByLayer
 70
    0
  3

 72
   65
 73
    0
 40
0
  0
LTYPE
  5
16
330
5
100
AcDbSymbolTableRecord
100
AcDbLinetypeTableRecord
  2
Continuous
 70
    0
  3
Solid line
 72
   65
 73
    0
 40
0
  0
LTYPE
  5
32
330
5
100
AcDbSymbolTableRecord
100
AcDbLinetypeTableRecord
  2
DOT
 70
    0
  3
Dot . . . . . . . . . . . . . . . . . . . . . .
 72
   65
 73
    2
 40
6.35
 49
0
 74
    0
 49
-6.35
 74
    0
  0
LTYPE
  5
33
330
5
100
AcDbSymbolTableRecord
100
AcDbLinetypeTableRecord
  2
DOTTINY
 70
    0
  3
Dot (.15x) .....................................
 72
   65
 73
    2
 40
0.9525
 49
0
 74
    0
 49
-0.9525
 74
    0
  0
LTYPE
  5
34
330
5
100
AcDbSymbolTableRecord
100
AcDbLinetypeTableRecord
  2
DOT2
 70
    0
  3
Dot (.5x) .....................................
 72
   65
 73
    2
 40
3.175
 49
0
 74
    0
 49
-3.175
 74
    0
  0
LTYPE
  5
35
330
5
100
AcDbSymbolTableRecord
100
AcDbLinetypeTableRecord
  2
DOTX2
 70
    0
  3
Dot (2x) .  .  .  .  .  .  .  .  .  .  .  .  .
 72
   65
 73
    2
 40
12.7
 49
0
 74
    0
 49
-12.7
 74
    0
  0
LTYPE
  5
36
330
5
100
AcDbSymbolTableRecord
100
AcDbLinetypeTableRecord
  2
DASHED
 70
    0
  3
Dashed _ _ _ _ _ _ _ _ _ _ _ _ _ _ _ _ _
 72
   65
 73
    2
 40
19.05
 49
12.7
 74
    0
 49
-6.35
 74
    0
  0
LTYPE
  5
37
330
5
100
AcDbSymbolTableRecord
100
AcDbLinetypeTableRecord
  2
DASHEDTINY
 70
    0
  3
Dashed (.15x) _ _ _ _ _ _ _ _ _ _ _ _ _ _ _ _ _
 72
   65
 73
    2
 40
2.8575
 49
1.905
 74
    0
 49
-0.9525
 74
    0
  0
LTYPE
  5
38
330
5
100
AcDbSymbolTableRecord
100
AcDbLinetypeTableRecord
  2
DASHED2
 70
    0
  3
Dashed (.5x) _ _ _ _ _ _ _ _ _ _ _ _ _ _ _ _ _
 72
   65
 73
    2
 40
9.524999999999999
 49
6.35
 74
    0
 49
-3.175
 74
    0
  0
LTYPE
  5
39
330
5
100
AcDbSymbolTableRecord
100
AcDbLinetypeTableRecord
  2
DASHEDX2
 70
    0
  3
Dashed (2x) ____  ____  ____  ____  ____  ___
 72
   65
 73
    2
 40
38.09999999999999
 49
25.4
 74
    0
 49
-12.7
 74
    0
  0
LTYPE
  5
3A
330
5
100
AcDbSymbolTableRecord
100
AcDbLinetypeTableRecord
  2
DASHDOT
 70
    0
  3
Dash dot __ . __ . __ . __ . __ . __ . __ . __
 72
   65
 73
    4
 40
25.4
 49
12.7
 74
    0
 49
-6.35
 74
    0
 49
0
 74
    0
 49
-6.35
 74
    0
  0
LTYPE
  5
3B
330
5
100
AcDbSymbolTableRecord
100
AcDbLinetypeTableRecord
  2
DASHDOTTINY
 70
    0
  3
Dash dot (.15x) _._._._._._._._._._._._._._._.
 72
   65
 73
    4
 40
3.81
 49
1.905
 74
    0
 49
-0.9525
 74
    0
 49
0
 74
    0
 49
-0.9525
 74
    0
  0
LTYPE
  5
3C
330
5
100
AcDbSymbolTableRecord
100
AcDbLinetypeTableRecord
  2
DASHDOT2
 70
    0
  3
Dash dot (.5x) _._._._._._._._._._._._._._._.
 72
   65
 73
    4
 40
12.7
 49
6.35
 74
    0
 49
-3.175
 74
    0
 49
0
 74
    0
 49
-3.175
 74
    0
  0
LTYPE
  5
3D
330
5
100
AcDbSymbolTableRecord
100
AcDbLinetypeTableRecord
  2
DASHDOTX2
 70
    0
  3
Dash dot (2x) ____  .  ____  .  ____  .  ___
 72
   65
 73
    4
 40
50.8
 49
25.4
 74
    0
 49
-12.7
 74
    0
 49
0
 74
    0
 49
-12.7
 74
    0
  0
LTYPE
  5
3E
330
5
100
AcDbSymbolTableRecord
100
AcDbLinetypeTableRecord
  2
DIVIDE
 70
    0
  3
Divide ____ . . ____ . . ____ . . ____ . . ____
 72
   65
 73
    6
 40
31.75
 49
12.7
 74
    0
 49
-6.35
 74
    0
 49
0
 74
    0
 49
-6.35
 74
    0
 49
0
 74
    0
 49
-6.35
 74
    0
  0
LTYPE
  5
3F
330
5
100
AcDbSymbolTableRecord
100
AcDbLinetypeTableRecord
  2
DIVIDETINY
 70
    0
  3
Divide (.15x) __..__..__..__..__..__..__..__.._
 72
   65
 73
    6
 40
4.7625
 49
1.905
 74
    0
 49
-0.9525
 74
    0
 49
0
 74
    0
 49
-0.9525
 74
    0
 49
0
 74
    0
 49
-0.9525
 74
    0
  0
LTYPE
  5
40
330
5
100
AcDbSymbolTableRecord
100
AcDbLinetypeTableRecord
  2
DIVIDE2
 70
    0
  3
Divide (.5x) __..__..__..__..__..__..__..__.._
 72
   65
 73
    6
 40
15.875
 49
6.35
 74
    0
 49
-3.175
 74
    0
 49
0
 74
    0
 49
-3.175
 74
    0
 49
0
 74
    0
 49
-3.175
 74
    0
  0
LTYPE
  5
41
330
5
100
AcDbSymbolTableRecord
100
AcDbLinetypeTableRecord
  2
DIVIDEX2
 70
    0
  3
Divide (2x) ________  .  .  ________  .  .  _
 72
   65
 73
    6
 40
63.5
 49
25.4
 74
    0
 49
-12.7
 74
    0
 49
0
 74
    0
 49
-12.7
 74
    0
 49
0
 74
    0
 49
-12.7
 74
    0
  0
LTYPE
  5
42
330
5
100
AcDbSymbolTableRecord
100
AcDbLinetypeTableRecord
  2
BORDER
 70
    0
  3
Border __ __ . __ __ . __ __ . __ __ . __ __ .
 72
   65
 73
    6
 40
44.45
 49
12.7
 74
    0
 49
-6.35
 74
    0
 49
12.7
 74
    0
 49
-6.35
 74
    0
 49
0
 74
    0
 49
-6.35
 74
    0
  0
LTYPE
  5
43
330
5
100
AcDbSymbolTableRecord
100
AcDbLinetypeTableRecord
  2
BORDERTINY
 70
    0
  3
Border (.15x) __.__.__.__.__.__.__.__.__.__.__.
 72
   65
 73
    6
 40
6.6675
 49
1.905
 74
    0
 49
-0.9525
 74
    0
 49
1.905
 74
    0
 49
-0.9525
 74
    0
 49
0
 74
    0
 49
-0.9525
 74
    0
  0
LTYPE
  5
44
330
5
100
AcDbSymbolTableRecord
100
AcDbLinetypeTableRecord
  2
BORDER2
 70
    0
  3
Border (.5x) __.__.__.__.__.__.__.__.__.__.__.
 72
   65
 73
    6
 40
22.225
 49
6.35
 74
    0
 49
-3.175
 74
    0
 49
6.35
 74
    0
 49
-3.175
 74
    0
 49
0
 74
    0
 49
-3.175
 74
    0
  0
LTYPE
  5
45
330
5
100
AcDbSymbolTableRecord
100
AcDbLinetypeTableRecord
  2
BORDERX2
 70
    0
  3
Border (2x) ____  ____  .  ____  ____  .  ___
 72
   65
 73
    6
 40
88.89999999999999
 49
25.4
 74
    0
 49
-12.7
 74
    0
 49
25.4
 74
    0
 49
-12.7
 74
    0
 49
0
 74
    0
 49
-12.7
 74
    0
  0
LTYPE
  5
46
330
5
100
AcDbSymbolTableRecord
100
AcDbLinetypeTableRecord
  2
CENTER
 70
    0
  3
Center ____ _ ____ _ ____ _ ____ _ ____ _ ____
 72
   65
 73
    4
 40
50.8
 49
31.75
 74
    0
 49
-6.35
 74
    0
 49
6.35
 74
    0
 49
-6.35
 74
    0
  0
LTYPE
  5
47
330
5
100
AcDbSymbolTableRecord
100
AcDbLinetypeTableRecord
  2
CENTERTINY
 70
    0
  3
Center (.15x) ___ _ ___ _ ___ _ ___ _ ___ _ ___
 72
   65
 73
    4
 40
7.619999999999999
 49
4.7625
 74
    0
 49
-0.9525
 74
    0
 49
0.9525
 74
    0
 49
-0.9525
 74
    0
  0
LTYPE
  5
48
330
5
100
AcDbSymbolTableRecord
100
AcDbLinetypeTableRecord
  2
CENTER2
 70
    0
  3
Center (.5x) ___ _ ___ _ ___ _ ___ _ ___ _ ___
 72
   65
 73
    4
 40
28.575
 49
19.05
 74
    0
 49
-3.175
 74
    0
 49
3.175
 74
    0
 49
-3.175
 74
    0
  0
LTYPE
  5
49
330
5
100
AcDbSymbolTableRecord
100
AcDbLinetypeTableRecord
  2
CENTERX2
 70
    0
  3
Center (2x) ________  __  ________  __  _____
 72
   65
 73
    4
 40
101.6
 49
63.5
 74
    0
 49
-12.7
 74
    0
 49
12.7
 74
    0
 49
-12.7
 74
    0
  0
ENDTAB
  0
TABLE
  2
LAYER
  5
2
330
0
100
AcDbSymbolTable
 70
    1
  0
LAYER
  5
10
330
2
100
AcDbSymbolTableRecord
100
AcDbLayerTableRecord
  2
0
 70
    0
 62
    7
  6
CONTINUOUS
370
    0
390
F
  0
LAYER
  5
4A
330
2
100
AcDbSymbolTableRecord
100
AcDbLayerTableRecord
  2
noname
 70
    0
 62
    1
  6
CONTINUOUS
370
    0
390
F
  0
LAYER
  5
4B
330
2
100
AcDbSymbolTableRecord
100
AcDbLayerTableRecord
  2
noname1
 70
    0
 62
    3
  6
CONTINUOUS
370
    0
390
F
  0
LAYER
  5
4C
330
2
100
AcDbSymbolTableRecord
100
AcDbLayerTableRecord
  2
noname2
 70
    0
 62
    2
  6
CONTINUOUS
370
    0
390
F
  0
LAYER
  5
4D
330
2
100
AcDbSymbolTableRecord
100
AcDbLayerTableRecord
  2
noname3
 70
    0
 62
    4
  6
CONTINUOUS
370
    0
390
F
  0
LAYER
  5
4E
330
2
100
AcDbSymbolTableRecord
100
AcDbLayerTableRecord
  2
noname4
 70
    0
 62
    6
  6
CONTINUOUS
370
    0
390
F
  0
LAYER
  5
4F
330
2
100
AcDbSymbolTableRecord
100
AcDbLayerTableRecord
  2
noname5
 70
    0
 62
    5
  6
CONTINUOUS
370
    0
390
F
  0
ENDTAB
  0
TABLE
  2
STYLE
  5
3
330
0
100
AcDbSymbolTable
 70
    3
  0
STYLE
  5
50
330
2
100
AcDbSymbolTableRecord
100
AcDbTextStyleTableRecord
  2
Standard
 70
    0
 40
0
 41
1
 50
0
 71
    0
 42
1
  3
txt
  4

  0
ENDTAB
  0
TABLE
  2
VIEW
  5
6
330
0
100
AcDbSymbolTable
 70
    0
  0
ENDTAB
  0
TABLE
  2
UCS
  5
7
330
0
100
AcDbSymbolTable
 70
    0
  0
ENDTAB
  0
TABLE
  2
APPID
  5
9
330
0
100
AcDbSymbolTable
 70
    1
  0
APPID
  5
12
330
9
100
AcDbSymbolTableRecord
100
AcDbRegAppTableRecord
  2
ACAD
 70
    0
  0
APPID
  5
51
330
9
100
AcDbSymbolTableRecord
100
AcDbRegAppTableRecord
  2
LibreCad
 70
    0
  0
ENDTAB
  0
TABLE
  2
DIMSTYLE
  5
A
330
0
100
AcDbSymbolTable
 70
    1
100
AcDbDimStyleTable
 71
    1
  0
DIMSTYLE
105
52
330
A
100
AcDbSymbolTableRecord
100
AcDbDimStyleTableRecord
  2
Standard
 70
    0
 40
2.5
 41
2.5
 42
0.625
 43
0.38
 44
1.25
 45
0
 46
0
 47
0
 48
0
 49
1
140
2.5
141
0.09
142
0
143
25.4
144
1
145
0
146
1
147
0.625
148
0
 71
    0
 72
    0
 73
    0
 74
    1
 75
    0
 76
    0
 77
    0
 78
    8
 79
    0
170
    0
171
    2
172
    0
173
    0
174
    0
175
    0
176
    0
177
    0
178
    0
179
    0
271
    2
272
    4
273
    2
274
    2
275
    0
276
    0
277
    2
278
   44
279
    0
280
    0
281
    0
282
    0
283
    1
284
    0
285
    0
286
    0
288
    0
289
    3
340
STANDARD
341

371
   -2
372
   -2
  0
ENDTAB
  0
TABLE
  2
BLOCK_RECORD
  5
1
330
0
100
AcDbSymbolTable
 70
    2
  0
BLOCK_RECORD
  5
1F
330
1
100
AcDbSymbolTableRecord
100
AcDbBlockTableRecord
  2
*Model_Space
 70
    0
280
    1
281
    0
  0
BLOCK_RECORD
  5
1E
330
1
100
AcDbSymbolTableRecord
100
AcDbBlockTableRecord
  2
*Paper_Space
 70
    0
280
    1
281
    0
  0
ENDTAB
  0
ENDSEC
  0
SECTION
  2
BLOCKS
  0
BLOCK
  5
20
330
1F
100
AcDbEntity
  8
0
100
AcDbBlockBegin
  2
*Model_Space
 70
    0
 10
0
 20
0
 30
0
  3
*Model_Space
  1

  0
ENDBLK
  5
21
330
1F
100
AcDbEntity
  8
0
100
AcDbBlockEnd
  0
BLOCK
  5
1C
330
1B
100
AcDbEntity
  8
0
100
AcDbBlockBegin
  2
*Paper_Space
 70
    0
 10
0
 20
0
 30
0
  3
*Paper_Space
  1

  0
ENDBLK
  5
1D
330
1F
100
AcDbEntity
  8
0
100
AcDbBlockEnd
  0
ENDSEC
  0
SECTION
  2
ENTITIES
  0
LINE
  5
53
100
AcDbEntity
  8
0
  6
ByLayer
 62
  256
370
   -1
100
AcDbLine
 10
-6.5
 20
-23.5
 11
6.5
 21
-23.5
  0
LINE
  5
54
100
AcDbEntity
  8
0
  6
ByLayer
 62
  256
370
   -1
100
AcDbLine
 10
-6.5
 20
-37.5
 11
6.5
 21
-37.5
  0
LINE
  5
55
100
AcDbEntity
  8
0
  6
ByLayer
 62
  256
370
   -1
100
AcDbLine
 10
-7
 20
-24
 11
-7
 21
-37
  0
LINE
  5
56
100
AcDbEntity
  8
0
  6
ByLayer
 62
  256
370
   -1
100
AcDbLine
 10
7
 20
-24
 11
7
 21
-37
  0
ARC
  5
57
100
AcDbEntity
  8
0
  6
ByLayer
 62
  256
370
   -1
100
AcDbCircle
 10
-6.5
 20
-24
 40
0.5
100
AcDbArc
 50
90
 51
180
  0
ARC
  5
58
100
AcDbEntity
  8
0
  6
ByLayer
 62
  256
370
   -1
100
AcDbCircle
 10
6.5
 20
-24
 40
0.5
100
AcDbArc
 50
0
 51
90
  0
ARC
  5
59
100
AcDbEntity
  8
0
  6
ByLayer
 62
  256
370
   -1
100
AcDbCircle
 10
-6.5
 20
-37
 40
0.5
100
AcDbArc
 50
180
 51
270
  0
ARC
  5
5A
100
AcDbEntity
  8
0
  6
ByLayer
 62
  256
370
   -1
100
AcDbCircle
 10
6.5
 20
-37
 40
0.5
100
AcDbArc
 50
270
 51
0
  0
LINE
  5
5B
100
AcDbEntity
  8
0
  6
ByLayer
 62
  256
370
   -1
100
AcDbLine
 10
-14.938
 20
-24.5
 11
-8.938000000000002
 21
-24.5
  0
LINE
  5
5C
100
AcDbEntity
  8
0
  6
ByLayer
 62
  256
370
   -1
100
AcDbLine
 10
-14.938
 20
-39.5
 11
-8.938000000000002
 21
-39.5
  0
LINE
  5
5D
100
AcDbEntity
  8
0
  6
ByLayer
 62
  256
370
   -1
100
AcDbLine
 10
-15.438
 20
-25
 11
-15.438
 21
-39
  0
LINE
  5
5E
100
AcDbEntity
  8
0
  6
ByLayer
 62
  256
370
   -1
100
AcDbLine
 10
-8.438000000000002
 20
-25
 11
-8.438000000000002
 21
-39
  0
ARC
  5
5F
100
AcDbEntity
  8
0
  6
ByLayer
 62
  256
370
   -1
100
AcDbCircle
 10
-14.938
 20
-25
 40
0.5
100
AcDbArc
 50
90
 51
180
  0
ARC
  5
60
100
AcDbEntity
  8
0
  6
ByLayer
 62
  256
370
   -1
100
AcDbCircle
 10
-8.938000000000002
 20
-25
 40
0.5
100
AcDbArc
 50
0
 51
90
  0
ARC
  5
61
100
AcDbEntity
  8
0
  6
ByLayer
 62
  256
370
   -1
100
AcDbCircle
 10
-14.938
 20
-39
 40
0.5
100
AcDbArc
 50
180
 51
270
  0
ARC
  5
62
100
AcDbEntity
  8
0
  6
ByLayer
 62
  256
370
   -1
100
AcDbCircle
 10
-8.938000000000002
 20
-39
 40
0.5
100
AcDbArc
 50
270
 51
0
  0
LINE
  5
63
100
AcDbEntity
  8
0
  6
ByLayer
 62
  256
370
   -1
100
AcDbLine
 10
8.937999999999988
 20
-24.5
 11
14.93799999999999
 21
-24.5
  0
LINE
  5
64
100
AcDbEntity
  8
0
  6
ByLayer
 62
  256
370
   -1
100
AcDbLine
 10
8.937999999999988
 20
-39.5
 11
14.93799999999999
 21
-39.5
  0
LINE
  5
65
100
AcDbEntity
  8
0
  6
ByLayer
 62
  256
370
   -1
100
AcDbLine
 10
8.437999999999988
 20
-25
 11
8.437999999999988
 21
-39
  0
LINE
  5
66
100
AcDbEntity
  8
0
  6
ByLayer
 62
  256
370
   -1
100
AcDbLine
 10
15.43799999999999
 20
-25
 11
15.43799999999999
 21
-39
  0
ARC
  5
67
100
AcDbEntity
  8
0
  6
ByLayer
 62
  256
370
   -1
100
AcDbCircle
 10
8.937999999999988
 20
-25
 40
0.5
100
AcDbArc
 50
90
 51
180
  0
ARC
  5
68
100
AcDbEntity
  8
0
  6
ByLayer
 62
  256
370
   -1
100
AcDbCircle
 10
14.93799999999999
 20
-25
 40
0.5
100
AcDbArc
 50
0
 51
90
  0
ARC
  5
69
100
AcDbEntity
  8
0
  6
ByLayer
 62
  256
370
   -1
100
AcDbCircle
 10
8.937999999999988
 20
-39
 40
0.5
100
AcDbArc
 50
180
 51
270
  0
ARC
  5
6A
100
AcDbEntity
  8
0
  6
ByLayer
 62
  256
370
   -1
100
AcDbCircle
 10
14.93799999999999
 20
-39
 40
0.5
100
AcDbArc
 50
270
 51
0
  0
LINE
  5
6B
100
AcDbEntity
  8
0
  6
ByLayer
 62
  256
370
   -1
100
AcDbLine
 10
-77.9375
 20
-9.212499999999991
 11
-64.9375
 21
-9.212499999999991
  0
LINE
  5
6C
100
AcDbEntity
  8
0
  6
ByLayer
 62
  256
370
   -1
100
AcDbLine
 10
-77.9375
 20
-23.21249999999999
 11
-64.9375
 21
-23.21249999999999
  0
LINE
  5
6D
100
AcDbEntity
  8
0
  6
ByLayer
 62
  256
370
   -1
100
AcDbLine
 10
-78.4375
 20
-9.712499999999991
 11
-78.4375
 21
-22.71249999999999
  0
LINE
  5
6E
100
AcDbEntity
  8
0
  6
ByLayer
 62
  256
370
   -1
100
AcDbLine
 10
-64.4375
 20
-9.712499999999991
 11
-64.4375
 21
-22.71249999999999
  0
ARC
  5
6F
100
AcDbEntity
  8
0
  6
ByLayer
 62
  256
370
   -1
100
AcDbCircle
 10
-77.9375
 20
-9.712499999999991
 40
0.5
100
AcDbArc
 50
90
 51
180
  0
ARC
  5
70
100
AcDbEntity
  8
0
  6
ByLayer
 62
  256
370
   -1
100
AcDbCircle
 10
-64.9375
 20
-9.712499999999991
 40
0.5
100
AcDbArc
 50
0
 51
90
  0
ARC
  5
71
100
AcDbEntity
  8
0
  6
ByLayer
 62
  256
370
   -1
100
AcDbCircle
 10
-77.9375
 20
-22.71249999999999
 40
0.5
100
AcDbArc
 50
180
 51
270
  0
ARC
  5
72
100
AcDbEntity
  8
0
  6
ByLayer
 62
  256
370
   -1
100
AcDbCircle
 10
-64.9375
 20
-22.71249999999999
 40
0.5
100
AcDbArc
 50
270
 51
0
  0
LINE
  5
73
100
AcDbEntity
  8
0
  6
ByLayer
 62
  256
370
   -1
100
AcDbLine
 10
64.9375
 20
-9.212499999999991
 11
77.9375
 21
-9.212499999999991
  0
LINE
  5
74
100
AcDbEntity
  8
0
  6
ByLayer
 62
  256
370
   -1
100
AcDbLine
 10
64.9375
 20
-23.21249999999999
 11
77.9375
 21
-23.21249999999999
  0
LINE
  5
75
100
AcDbEntity
  8
0
  6
ByLayer
 62
  256
370
   -1
100
AcDbLine
 10
64.4375
 20
-9.712499999999991
 11
64.4375
 21
-22.71249999999999
  0
LINE
  5
76
100
AcDbEntity
  8
0
  6
ByLayer
 62
  256
370
   -1
100
AcDbLine
 10
78.4375
 20
-9.712499999999991
 11
78.4375
 21
-22.71249999999999
  0
ARC
  5
77
100
AcDbEntity
  8
0
  6
ByLayer
 62
  256
370
   -1
100
AcDbCircle
 10
64.9375
 20
-9.712499999999991
 40
0.5
100
AcDbArc
 50
90
 51
180
  0
ARC
  5
78
100
AcDbEntity
  8
0
  6
ByLayer
 62
  256
370
   -1
100
AcDbCircle
 10
77.9375
 20
-9.712499999999991
 40
0.5
100
AcDbArc
 50
0
 51
90
  0
ARC
  5
79
100
AcDbEntity
  8
0
  6
ByLayer
 62
  256
370
   -1
100
AcDbCircle
 10
64.9375
 20
-22.71249999999999
 40
0.5
100
AcDbArc
 50
180
 51
270
  0
ARC
  5
7A
100
AcDbEntity
  8
0
  6
ByLayer
 62
  256
370
   -1
100
AcDbCircle
 10
77.9375
 20
-22.71249999999999
 40
0.5
100
AcDbArc
 50
270
 51
0
  0
LINE
  5
7B
100
AcDbEntity
  8
0
  6
ByLayer
 62
  256
370
   -1
100
AcDbLine
 10
-60.38486130000001
 20
54.9225824
 11
-47.58236050000001
 21
52.6651561
  0
LINE
  5
7C
100
AcDbEntity
  8
0
  6
ByLayer
 62
  256
370
   -1
100
AcDbLine
 10
-62.81593570000001
 20
41.1352739
 11
-50.01343490000001
 21
38.8778476
  0
LINE
  5
7D
100
AcDbEntity
  8
0
  6
ByLayer
 62
  256
370
   -1
100
AcDbLine
 10
-60.9640892
 20
54.5170026
 11
-63.22151550000001
 21
41.71450180000001
  0
LINE
  5
7E
100
AcDbEntity
  8
0
  6
ByLayer
 62
  256
370
   -1
100
AcDbLine
 10
-47.17678070000001
 20
52.0859282
 11
-49.434207
 21
39.28342740000001
  0
ARC
  5
7F
100
AcDbEntity
  8
0
  6
ByLayer
 62
  256
370
   -1
100
AcDbCircle
 10
-60.4716853
 20
54.4301785
 40
0.5
100
AcDbArc
 50
80
 51
170
  0
ARC
  5
80
100
AcDbEntity
  8
0
  6
ByLayer
 62
  256
370
   -1
100
AcDbCircle
 10
-47.66918460000001
 20
52.17275220000001
 40
0.5
100
AcDbArc
 50
350
 51
80
  0
ARC
  5
81
100
AcDbEntity
  8
0
  6
ByLayer
 62
  256
370
   -1
100
AcDbCircle
 10
-62.72911160000001
 20
41.6276778
 40
0.5
100
AcDbArc
 50
170
 51
260
  0
ARC
  5
82
100
AcDbEntity
  8
0
  6
ByLayer
 62
  256
370
   -1
100
AcDbCircle
 10
-49.9266109
 20
39.3702515
 40
0.5
100
AcDbArc
 50
260
 51
350
  0
LINE
  5
83
100
AcDbEntity
  8
0
  6
ByLayer
 62
  256
370
   -1
100
AcDbLine
 10
-79.97244850000001
 20
53.5404333
 11
-67.16994770000001
 21
51.283007
  0
LINE
  5
84
100
AcDbEntity
  8
0
  6
ByLayer
 62
  256
370
   -1
100
AcDbLine
 10
-82.40352290000001
 20
39.7531248
 11
-69.60102210000001
 21
37.4956985
  0
LINE
  5
85
100
AcDbEntity
  8
0
  6
ByLayer
 62
  256
370
   -1
100
AcDbLine
 10
-80.55167640000001
 20
53.13485350000001
 11
-82.80910270000001
 21
40.3323527
  0
LINE
  5
86
100
AcDbEntity
  8
0
  6
ByLayer
 62
  256
370
   -1
100
AcDbLine
 10
-66.7643679
 20
50.70377910000001
 11
-69.0217942
 21
37.9012783
  0
ARC
  5
87
100
AcDbEntity
  8
0
  6
ByLayer
 62
  256
370
   -1
100
AcDbCircle
 10
-80.05927250000001
 20
53.0480294
 40
0.5
100
AcDbArc
 50
80
 51
170
  0
ARC
  5
88
100
AcDbEntity
  8
0
  6
ByLayer
 62
  256
370
   -1
100
AcDbCircle
 10
-67.2567718
 20
50.7906031
 40
0.5
100
AcDbArc
 50
350
 51
80
  0
ARC
  5
89
100
AcDbEntity
  8
0
  6
ByLayer
 62
  256
370
   -1
100
AcDbCircle
 10
-82.31669880000001
 20
40.2455287
 40
0.5
100
AcDbArc
 50
170
 51
260
  0
ARC
  5
8A
100
AcDbEntity
  8
0
  6
ByLayer
 62
  256
370
   -1
100
AcDbCircle
 10
-69.51419810000002
 20
37.9881024
 40
0.5
100
AcDbArc
 50
260
 51
350
  0
LINE
  5
8B
100
AcDbEntity
  8
0
  6
ByLayer
 62
  256
370
   -1
100
AcDbLine
 10
-42.45127310000001
 20
46.9244377
 11
-29.6487723
 21
44.66701140000001
  0
LINE
  5
8C
100
AcDbEntity
  8
0
  6
ByLayer
 62
  256
370
   -1
100
AcDbLine
 10
-44.88234750000001
 20
33.1371292
 11
-32.0798467
 21
30.87970290000001
  0
LINE
  5
8D
100
AcDbEntity
  8
0
  6
ByLayer
 62
  256
370
   -1
100
AcDbLine
 10
-43.030501
 20
46.5188579
 11
-45.28792730000001
 21
33.7163571
  0
LINE
  5
8E
100
AcDbEntity
  8
0
  6
ByLayer
 62
  256
370
   -1
100
AcDbLine
 10
-29.24319250000001
 20
44.0877835
 11
-31.50061880000001
 21
31.2852827
  0
ARC
  5
8F
100
AcDbEntity
  8
0
  6
ByLayer
 62
  256
370
   -1
100
AcDbCircle
 10
-42.5380971
 20
46.4320338
 40
0.5
100
AcDbArc
 50
80
 51
170
  0
ARC
  5
90
100
AcDbEntity
  8
0
  6
ByLayer
 62
  256
370
   -1
100
AcDbCircle
 10
-29.73559640000001
 20
44.17460750000001
 40
0.5
100
AcDbArc
 50
350
 51
80
  0
ARC
  5
91
100
AcDbEntity
  8
0
  6
ByLayer
 62
  256
370
   -1
100
AcDbCircle
 10
-44.79552340000001
 20
33.6295331
 40
0.5
100
AcDbArc
 50
170
 51
260
  0
ARC
  5
92
100
AcDbEntity
  8
0
  6
ByLayer
 62
  256
370
   -1
100
AcDbCircle
 10
-31.99302270000001
 20
31.3721068
 40
0.5
100
AcDbArc
 50
260
 51
350
  0
LINE
  5
93
100
AcDbEntity
  8
0
  6
ByLayer
 62
  256
370
   -1
100
AcDbLine
 10
-99.56003560000001
 20
52.1582841
 11
-86.7575348
 21
49.9008578
  0
LINE
  5
94
100
AcDbEntity
  8
0
  6
ByLayer
 62
  256
370
   -1
100
AcDbLine
 10
-101.99111
 20
38.3709756
 11
-89.1886092
 21
36.1135493
  0
LINE
  5
95
100
AcDbEntity
  8
0
  6
ByLayer
 62
  256
370
   -1
100
AcDbLine
 10
-100.1392635
 20
51.7527043
 11
-102.3966898
 21
38.9502035
  0
LINE
  5
96
100
AcDbEntity
  8
0
  6
ByLayer
 62
  256
370
   -1
100
AcDbLine
 10
-86.351955
 20
49.3216299
 11
-88.6093813
 21
36.5191291
  0
ARC
  5
97
100
AcDbEntity
  8
0
  6
ByLayer
 62
  256
370
   -1
100
AcDbCircle
 10
-99.6468596
 20
51.6658802
 40
0.5
100
AcDbArc
 50
80
 51
170
  0
ARC
  5
98
100
AcDbEntity
  8
0
  6
ByLayer
 62
  256
370
   -1
100
AcDbCircle
 10
-86.8443589
 20
49.4084539
 40
0.5
100
AcDbArc
 50
350
 51
80
  0
ARC
  5
99
100
AcDbEntity
  8
0
  6
ByLayer
 62
  256
370
   -1
100
AcDbCircle
 10
-101.9042859
 20
38.86337950000001
 40
0.5
100
AcDbArc
 50
170
 51
260
  0
ARC
  5
9A
100
AcDbEntity
  8
0
  6
ByLayer
 62
  256
370
   -1
100
AcDbCircle
 10
-89.10178520000001
 20
36.6059532
 40
0.5
100
AcDbArc
 50
260
 51
350
  0
LINE
  5
9B
100
AcDbEntity
  8
0
  6
ByLayer
 62
  256
370
   -1
100
AcDbLine
 10
-24.51768480000001
 20
38.926293
 11
-11.71518400000001
 21
36.6688667
  0
LINE
  5
9C
100
AcDbEntity
  8
0
  6
ByLayer
 62
  256
370
   -1
100
AcDbLine
 10
-26.94875920000001
 20
25.1389845
 11
-14.14625840000001
 21
22.8815582
  0
LINE
  5
9D
100
AcDbEntity
  8
0
  6
ByLayer
 62
  256
370
   -1
100
AcDbLine
 10
-25.0969127
 20
38.5207132
 11
-27.35433900000001
 21
25.71821240000001
  0
LINE
  5
9E
100
AcDbEntity
  8
0
  6
ByLayer
 62
  256
370
   -1
100
AcDbLine
 10
-11.30960420000001
 20
36.0896388
 11
-13.5670305
 21
23.28713800000001
  0
ARC
  5
9F
100
AcDbEntity
  8
0
  6
ByLayer
 62
  256
370
   -1
100
AcDbCircle
 10
-24.6045088
 20
38.4338891
 40
0.5
100
AcDbArc
 50
80
 51
170
  0
ARC
  5
A0
100
AcDbEntity
  8
0
  6
ByLayer
 62
  256
370
   -1
100
AcDbCircle
 10
-11.80200810000001
 20
36.1764628
 40
0.5
100
AcDbArc
 50
350
 51
80
  0
ARC
  5
A1
100
AcDbEntity
  8
0
  6
ByLayer
 62
  256
370
   -1
100
AcDbCircle
 10
-26.86193510000001
 20
25.63138840000001
 40
0.5
100
AcDbArc
 50
170
 51
260
  0
ARC
  5
A2
100
AcDbEntity
  8
0
  6
ByLayer
 62
  256
370
   -1
100
AcDbCircle
 10
-14.0594344
 20
23.3739621
 40
0.5
100
AcDbArc
 50
260
 51
350
  0
LINE
  5
A3
100
AcDbEntity
  8
0
  6
ByLayer
 62
  256
370
   -1
100
AcDbLine
 10
-119.1476227
 20
50.776135
 11
-106.3451219
 21
48.5187087
  0
LINE
  5
A4
100
AcDbEntity
  8
0
  6
ByLayer
 62
  256
370
   -1
100
AcDbLine
 10
-121.5786971
 20
36.9888265
 11
-108.7761963
 21
34.7314002
  0
LINE
  5
A5
100
AcDbEntity
  8
0
  6
ByLayer
 62
  256
370
   -1
100
AcDbLine
 10
-119.7268506
 20
50.3705552
 11
-121.9842769
 21
37.5680544
  0
LINE
  5
A6
100
AcDbEntity
  8
0
  6
ByLayer
 62
  256
370
   -1
100
AcDbLine
 10
-105.9395421
 20
47.9394808
 11
-108.1969684
 21
35.13698
  0
ARC
  5
A7
100
AcDbEntity
  8
0
  6
ByLayer
 62
  256
370
   -1
100
AcDbCircle
 10
-119.2344467
 20
50.2837311
 40
0.5
100
AcDbArc
 50
80
 51
170
  0
ARC
  5
A8
100
AcDbEntity
  8
0
  6
ByLayer
 62
  256
370
   -1
100
AcDbCircle
 10
-106.431946
 20
48.02630480000001
 40
0.5
100
AcDbArc
 50
350
 51
80
  0
ARC
  5
A9
100
AcDbEntity
  8
0
  6
ByLayer
 62
  256
370
   -1
100
AcDbCircle
 10
-121.491873
 20
37.4812304
 40
0.5
100
AcDbArc
 50
170
 51
260
  0
ARC
  5
AA
100
AcDbEntity
  8
0
  6
ByLayer
 62
  256
370
   -1
100
AcDbCircle
 10
-108.6893723
 20
35.2238041
 40
0.5
100
AcDbArc
 50
260
 51
350
  0
LINE
  5
AB
100
AcDbEntity
  8
0
  6
ByLayer
 62
  256
370
   -1
100
AcDbLine
 10
-63.69285910000001
 20
36.1619947
 11
-50.8903583
 21
33.9045684
  0
LINE
  5
AC
100
AcDbEntity
  8
0
  6
ByLayer
 62
  256
370
   -1
100
AcDbLine
 10
-66.12393350000001
 20
22.3746862
 11
-53.3214327
 21
20.1172599
  0
LINE
  5
AD
100
AcDbEntity
  8
0
  6
ByLayer
 62
  256
370
   -1
100
AcDbLine
 10
-64.272087
 20
35.7564149
 11
-66.5295133
 21
22.95391410000001
  0
LINE
  5
AE
100
AcDbEntity
  8
0
  6
ByLayer
 62
  256
370
   -1
100
AcDbLine
 10
-50.4847785
 20
33.3253405
 11
-52.74220480000001
 21
20.52283970000001
  0
ARC
  5
AF
100
AcDbEntity
  8
0
  6
ByLayer
 62
  256
370
   -1
100
AcDbCircle
 10
-63.7796831
 20
35.6695908
 40
0.5
100
AcDbArc
 50
80
 51
170
  0
ARC
  5
B0
100
AcDbEntity
  8
0
  6
ByLayer
 62
  256
370
   -1
100
AcDbCircle
 10
-50.9771824
 20
33.4121645
 40
0.5
100
AcDbArc
 50
350
 51
80
  0
ARC
  5
B1
100
AcDbEntity
  8
0
  6
ByLayer
 62
  256
370
   -1
100
AcDbCircle
 10
-66.03710940000001
 20
22.86709010000001
 40
0.5
100
AcDbArc
 50
170
 51
260
  0
ARC
  5
B2
100
AcDbEntity
  8
0
  6
ByLayer
 62
  256
370
   -1
100
AcDbCircle
 10
-53.23460870000001
 20
20.6096638
 40
0.5
100
AcDbArc
 50
260
 51
350
  0
LINE
  5
B3
100
AcDbEntity
  8
0
  6
ByLayer
 62
  256
370
   -1
100
AcDbLine
 10
-83.2804462
 20
34.7798456
 11
-70.47794540000001
 21
32.5224193
  0
LINE
  5
B4
100
AcDbEntity
  8
0
  6
ByLayer
 62
  256
370
   -1
100
AcDbLine
 10
-85.7115206
 20
20.9925371
 11
-72.90901980000001
 21
18.7351108
  0
LINE
  5
B5
100
AcDbEntity
  8
0
  6
ByLayer
 62
  256
370
   -1
100
AcDbLine
 10
-83.85967410000001
 20
34.3742658
 11
-86.1171004
 21
21.57176500000001
  0
LINE
  5
B6
100
AcDbEntity
  8
0
  6
ByLayer
 62
  256
370
   -1
100
AcDbLine
 10
-70.07236560000001
 20
31.9431914
 11
-72.3297919
 21
19.14069060000001
  0
ARC
  5
B7
100
AcDbEntity
  8
0
  6
ByLayer
 62
  256
370
   -1
100
AcDbCircle
 10
-83.36727020000001
 20
34.2874417
 40
0.5
100
AcDbArc
 50
80
 51
170
  0
ARC
  5
B8
100
AcDbEntity
  8
0
  6
ByLayer
 62
  256
370
   -1
100
AcDbCircle
 10
-70.56476950000001
 20
32.0300154
 40
0.5
100
AcDbArc
 50
350
 51
80
  0
ARC
  5
B9
100
AcDbEntity
  8
0
  6
ByLayer
 62
  256
370
   -1
100
AcDbCircle
 10
-85.6246965
 20
21.48494100000001
 40
0.5
100
AcDbArc
 50
170
 51
260
  0
ARC
  5
BA
100
AcDbEntity
  8
0
  6
ByLayer
 62
  256
370
   -1
100
AcDbCircle
 10
-72.8221958
 20
19.2275147
 40
0.5
100
AcDbArc
 50
260
 51
350
  0
LINE
  5
BB
100
AcDbEntity
  8
0
  6
ByLayer
 62
  256
370
   -1
100
AcDbLine
 10
-45.75927080000001
 20
28.16385
 11
-32.95677000000001
 21
25.9064237
  0
LINE
  5
BC
100
AcDbEntity
  8
0
  6
ByLayer
 62
  256
370
   -1
100
AcDbLine
 10
-48.19034520000001
 20
14.3765415
 11
-35.38784440000001
 21
12.1191152
  0
LINE
  5
BD
100
AcDbEntity
  8
0
  6
ByLayer
 62
  256
370
   -1
100
AcDbLine
 10
-46.3384987
 20
27.75827020000001
 11
-48.59592500000001
 21
14.9557694
  0
LINE
  5
BE
100
AcDbEntity
  8
0
  6
ByLayer
 62
  256
370
   -1
100
AcDbLine
 10
-32.55119020000001
 20
25.32719580000001
 11
-34.8086165
 21
12.524695
  0
ARC
  5
BF
100
AcDbEntity
  8
0
  6
ByLayer
 62
  256
370
   -1
100
AcDbCircle
 10
-45.8460948
 20
27.6714461
 40
0.5
100
AcDbArc
 50
80
 51
170
  0
ARC
  5
C0
100
AcDbEntity
  8
0
  6
ByLayer
 62
  256
370
   -1
100
AcDbCircle
 10
-33.04359410000001
 20
25.41401980000001
 40
0.5
100
AcDbArc
 50
350
 51
80
  0
ARC
  5
C1
100
AcDbEntity
  8
0
  6
ByLayer
 62
  256
370
   -1
100
AcDbCircle
 10
-48.10352110000001
 20
14.8689454
 40
0.5
100
AcDbArc
 50
170
 51
260
  0
ARC
  5
C2
100
AcDbEntity
  8
0
  6
ByLayer
 62
  256
370
   -1
100
AcDbCircle
 10
-35.3010204
 20
12.6115191
 40
0.5
100
AcDbArc
 50
260
 51
350
  0
LINE
  5
C3
100
AcDbEntity
  8
0
  6
ByLayer
 62
  256
370
   -1
100
AcDbLine
 10
-102.8680334
 20
33.3976964
 11
-90.06553260000001
 21
31.1402701
  0
LINE
  5
C4
100
AcDbEntity
  8
0
  6
ByLayer
 62
  256
370
   -1
100
AcDbLine
 10
-105.2991078
 20
19.61038790000001
 11
-92.49660700000001
 21
17.3529616
  0
LINE
  5
C5
100
AcDbEntity
  8
0
  6
ByLayer
 62
  256
370
   -1
100
AcDbLine
 10
-103.4472613
 20
32.9921166
 11
-105.7046876
 21
20.18961580000001
  0
LINE
  5
C6
100
AcDbEntity
  8
0
  6
ByLayer
 62
  256
370
   -1
100
AcDbLine
 10
-89.65995280000001
 20
30.5610422
 11
-91.91737910000001
 21
17.75854140000001
  0
ARC
  5
C7
100
AcDbEntity
  8
0
  6
ByLayer
 62
  256
370
   -1
100
AcDbCircle
 10
-102.9548574
 20
32.9052925
 40
0.5
100
AcDbArc
 50
80
 51
170
  0
ARC
  5
C8
100
AcDbEntity
  8
0
  6
ByLayer
 62
  256
370
   -1
100
AcDbCircle
 10
-90.15235670000001
 20
30.6478662
 40
0.5
100
AcDbArc
 50
350
 51
80
  0
ARC
  5
C9
100
AcDbEntity
  8
0
  6
ByLayer
 62
  256
370
   -1
100
AcDbCircle
 10
-105.2122837
 20
20.10279180000001
 40
0.5
100
AcDbArc
 50
170
 51
260
  0
ARC
  5
CA
100
AcDbEntity
  8
0
  6
ByLayer
 62
  256
370
   -1
100
AcDbCircle
 10
-92.409783
 20
17.8453655
 40
0.5
100
AcDbArc
 50
260
 51
350
  0
LINE
  5
CB
100
AcDbEntity
  8
0
  6
ByLayer
 62
  256
370
   -1
100
AcDbLine
 10
-27.82568260000001
 20
20.16570530000001
 11
-15.0231818
 21
17.908279
  0
LINE
  5
CC
100
AcDbEntity
  8
0
  6
ByLayer
 62
  256
370
   -1
100
AcDbLine
 10
-30.25675700000001
 20
6.378396800000004
 11
-17.4542562
 21
4.120970499999999
  0
LINE
  5
CD
100
AcDbEntity
  8
0
  6
ByLayer
 62
  256
370
   -1
100
AcDbLine
 10
-28.4049105
 20
19.7601255
 11
-30.66233680000001
 21
6.957624700000004
  0
LINE
  5
CE
100
AcDbEntity
  8
0
  6
ByLayer
 62
  256
370
   -1
100
AcDbLine
 10
-14.61760200000001
 20
17.3290511
 11
-16.87502830000001
 21
4.526550299999997
  0
ARC
  5
CF
100
AcDbEntity
  8
0
  6
ByLayer
 62
  256
370
   -1
100
AcDbCircle
 10
-27.9125066
 20
19.6733014
 40
0.5
100
AcDbArc
 50
80
 51
170
  0
ARC
  5
D0
100
AcDbEntity
  8
0
  6
ByLayer
 62
  256
370
   -1
100
AcDbCircle
 10
-15.1100059
 20
17.4158751
 40
0.5
100
AcDbArc
 50
350
 51
80
  0
ARC
  5
D1
100
AcDbEntity
  8
0
  6
ByLayer
 62
  256
370
   -1
100
AcDbCircle
 10
-30.16993290000001
 20
6.870800700000004
 40
0.5
100
AcDbArc
 50
170
 51
260
  0
ARC
  5
D2
100
AcDbEntity
  8
0
  6
ByLayer
 62
  256
370
   -1
100
AcDbCircle
 10
-17.36743220000001
 20
4.613374399999998
 40
0.5
100
AcDbArc
 50
260
 51
350
  0
LINE
  5
D3
100
AcDbEntity
  8
0
  6
ByLayer
 62
  256
370
   -1
100
AcDbLine
 10
-122.4556205
 20
32.0155473
 11
-109.6531197
 21
29.758121
  0
LINE
  5
D4
100
AcDbEntity
  8
0
  6
ByLayer
 62
  256
370
   -1
100
AcDbLine
 10
-124.8866949
 20
18.2282388
 11
-112.0841941
 21
15.9708125
  0
LINE
  5
D5
100
AcDbEntity
  8
0
  6
ByLayer
 62
  256
370
   -1
100
AcDbLine
 10
-123.0348484
 20
31.6099675
 11
-125.2922747
 21
18.80746670000001
  0
LINE
  5
D6
100
AcDbEntity
  8
0
  6
ByLayer
 62
  256
370
   -1
100
AcDbLine
 10
-109.2475399
 20
29.1788931
 11
-111.5049662
 21
16.37639230000001
  0
ARC
  5
D7
100
AcDbEntity
  8
0
  6
ByLayer
 62
  256
370
   -1
100
AcDbCircle
 10
-122.5424445
 20
31.5231434
 40
0.5
100
AcDbArc
 50
80
 51
170
  0
ARC
  5
D8
100
AcDbEntity
  8
0
  6
ByLayer
 62
  256
370
   -1
100
AcDbCircle
 10
-109.7399438
 20
29.2657171
 40
0.5
100
AcDbArc
 50
350
 51
80
  0
ARC
  5
D9
100
AcDbEntity
  8
0
  6
ByLayer
 62
  256
370
   -1
100
AcDbCircle
 10
-124.7998708
 20
18.72064270000001
 40
0.5
100
AcDbArc
 50
170
 51
260
  0
ARC
  5
DA
100
AcDbEntity
  8
0
  6
ByLayer
 62
  256
370
   -1
100
AcDbCircle
 10
-111.9973701
 20
16.4632164
 40
0.5
100
AcDbArc
 50
260
 51
350
  0
LINE
  5
DB
100
AcDbEntity
  8
0
  6
ByLayer
 62
  256
370
   -1
100
AcDbLine
 10
-67.0008569
 20
17.40140700000001
 11
-54.19835610000001
 21
15.1439807
  0
LINE
  5
DC
100
AcDbEntity
  8
0
  6
ByLayer
 62
  256
370
   -1
100
AcDbLine
 10
-69.4319313
 20
3.614098499999997
 11
-56.62943050000001
 21
1.356672200000006
  0
LINE
  5
DD
100
AcDbEntity
  8
0
  6
ByLayer
 62
  256
370
   -1
100
AcDbLine
 10
-67.58008480000001
 20
16.9958272
 11
-69.8375111
 21
4.193326400000004
  0
LINE
  5
DE
100
AcDbEntity
  8
0
  6
ByLayer
 62
  256
370
   -1
100
AcDbLine
 10
-53.7927763
 20
14.5647528
 11
-56.05020260000001
 21
1.762252000000004
  0
ARC
  5
DF
100
AcDbEntity
  8
0
  6
ByLayer
 62
  256
370
   -1
100
AcDbCircle
 10
-67.08768090000001
 20
16.9090031
 40
0.5
100
AcDbArc
 50
80
 51
170
  0
ARC
  5
E0
100
AcDbEntity
  8
0
  6
ByLayer
 62
  256
370
   -1
100
AcDbCircle
 10
-54.2851802
 20
14.6515768
 40
0.5
100
AcDbArc
 50
350
 51
80
  0
ARC
  5
E1
100
AcDbEntity
  8
0
  6
ByLayer
 62
  256
370
   -1
100
AcDbCircle
 10
-69.3451072
 20
4.106502399999997
 40
0.5
100
AcDbArc
 50
170
 51
260
  0
ARC
  5
E2
100
AcDbEntity
  8
0
  6
ByLayer
 62
  256
370
   -1
100
AcDbCircle
 10
-56.54260650000001
 20
1.849076100000005
 40
0.5
100
AcDbArc
 50
260
 51
350
  0
LINE
  5
E3
100
AcDbEntity
  8
0
  6
ByLayer
 62
  256
370
   -1
100
AcDbLine
 10
-86.58844400000001
 20
16.0192579
 11
-73.78594320000001
 21
13.7618316
  0
LINE
  5
E4
100
AcDbEntity
  8
0
  6
ByLayer
 62
  256
370
   -1
100
AcDbLine
 10
-89.01951840000001
 20
2.231949400000005
 11
-76.21701760000001
 21
-0.02547690000000102
  0
LINE
  5
E5
100
AcDbEntity
  8
0
  6
ByLayer
 62
  256
370
   -1
100
AcDbLine
 10
-87.16767190000002
 20
15.6136781
 11
-89.42509820000001
 21
2.811177299999997
  0
LINE
  5
E6
100
AcDbEntity
  8
0
  6
ByLayer
 62
  256
370
   -1
100
AcDbLine
 10
-73.38036340000001
 20
13.1826037
 11
-75.63778970000001
 21
0.3801028999999971
  0
ARC
  5
E7
100
AcDbEntity
  8
0
  6
ByLayer
 62
  256
370
   -1
100
AcDbCircle
 10
-86.675268
 20
15.526854
 40
0.5
100
AcDbArc
 50
80
 51
170
  0
ARC
  5
E8
100
AcDbEntity
  8
0
  6
ByLayer
 62
  256
370
   -1
100
AcDbCircle
 10
-73.87276730000001
 20
13.2694277
 40
0.5
100
AcDbArc
 50
350
 51
80
  0
ARC
  5
E9
100
AcDbEntity
  8
0
  6
ByLayer
 62
  256
370
   -1
100
AcDbCircle
 10
-88.93269430000001
 20
2.724353300000004
 40
0.5
100
AcDbArc
 50
170
 51
260
  0
ARC
  5
EA
100
AcDbEntity
  8
0
  6
ByLayer
 62
  256
370
   -1
100
AcDbCircle
 10
-76.13019360000001
 20
0.4669269999999983
 40
0.5
100
AcDbArc
 50
260
 51
350
  0
LINE
  5
EB
100
AcDbEntity
  8
0
  6
ByLayer
 62
  256
370
   -1
100
AcDbLine
 10
-49.06726860000001
 20
9.403262300000002
 11
-36.2647678
 21
7.145836000000003
  0
LINE
  5
EC
100
AcDbEntity
  8
0
  6
ByLayer
 62
  256
370
   -1
100
AcDbLine
 10
-51.49834300000001
 20
-4.3840462
 11
-38.6958422
 21
-6.641472499999992
  0
LINE
  5
ED
100
AcDbEntity
  8
0
  6
ByLayer
 62
  256
370
   -1
100
AcDbLine
 10
-49.64649650000001
 20
8.997682500000003
 11
-51.9039228
 21
-3.804818299999994
  0
LINE
  5
EE
100
AcDbEntity
  8
0
  6
ByLayer
 62
  256
370
   -1
100
AcDbLine
 10
-35.859188
 20
6.566608100000003
 11
-38.11661430000001
 21
-6.235892699999994
  0
ARC
  5
EF
100
AcDbEntity
  8
0
  6
ByLayer
 62
  256
370
   -1
100
AcDbCircle
 10
-49.15409260000001
 20
8.910858400000002
 40
0.5
100
AcDbArc
 50
80
 51
170
  0
ARC
  5
F0
100
AcDbEntity
  8
0
  6
ByLayer
 62
  256
370
   -1
100
AcDbCircle
 10
-36.3515919
 20
6.653432100000003
 40
0.5
100
AcDbArc
 50
350
 51
80
  0
ARC
  5
F1
100
AcDbEntity
  8
0
  6
ByLayer
 62
  256
370
   -1
100
AcDbCircle
 10
-51.4115189
 20
-3.891642300000001
 40
0.5
100
AcDbArc
 50
170
 51
260
  0
ARC
  5
F2
100
AcDbEntity
  8
0
  6
ByLayer
 62
  256
370
   -1
100
AcDbCircle
 10
-38.60901820000001
 20
-6.149068599999993
 40
0.5
100
AcDbArc
 50
260
 51
350
  0
LINE
  5
F3
100
AcDbEntity
  8
0
  6
ByLayer
 62
  256
370
   -1
100
AcDbLine
 10
-106.1760312
 20
14.63710870000001
 11
-93.37353040000001
 21
12.3796824
  0
LINE
  5
F4
100
AcDbEntity
  8
0
  6
ByLayer
 62
  256
370
   -1
100
AcDbLine
 10
-108.6071056
 20
0.8498002000000042
 11
-95.80460480000001
 21
-1.407626100000002
  0
LINE
  5
F5
100
AcDbEntity
  8
0
  6
ByLayer
 62
  256
370
   -1
100
AcDbLine
 10
-106.7552591
 20
14.2315289
 11
-109.0126854
 21
1.429028099999996
  0
LINE
  5
F6
100
AcDbEntity
  8
0
  6
ByLayer
 62
  256
370
   -1
100
AcDbLine
 10
-92.96795060000001
 20
11.8004545
 11
-95.22537690000001
 21
-1.002046300000003
  0
ARC
  5
F7
100
AcDbEntity
  8
0
  6
ByLayer
 62
  256
370
   -1
100
AcDbCircle
 10
-106.2628552
 20
14.1447048
 40
0.5
100
AcDbArc
 50
80
 51
170
  0
ARC
  5
F8
100
AcDbEntity
  8
0
  6
ByLayer
 62
  256
370
   -1
100
AcDbCircle
 10
-93.46035450000001
 20
11.8872785
 40
0.5
100
AcDbArc
 50
350
 51
80
  0
ARC
  5
F9
100
AcDbEntity
  8
0
  6
ByLayer
 62
  256
370
   -1
100
AcDbCircle
 10
-108.5202815
 20
1.342204100000004
 40
0.5
100
AcDbArc
 50
170
 51
260
  0
ARC
  5
FA
100
AcDbEntity
  8
0
  6
ByLayer
 62
  256
370
   -1
100
AcDbCircle
 10
-95.71778080000001
 20
-0.9152222000000023
 40
0.5
100
AcDbArc
 50
260
 51
350
  0
LINE
  5
FB
100
AcDbEntity
  8
0
  6
ByLayer
 62
  256
370
   -1
100
AcDbLine
 10
-31.1336804
 20
1.405117599999997
 11
-18.3311796
 21
-0.8523086999999947
  0
LINE
  5
FC
100
AcDbEntity
  8
0
  6
ByLayer
 62
  256
370
   -1
100
AcDbLine
 10
-33.5647548
 20
-12.3821909
 11
-20.762254
 21
-14.6396172
  0
LINE
  5
FD
100
AcDbEntity
  8
0
  6
ByLayer
 62
  256
370
   -1
100
AcDbLine
 10
-31.71290830000001
 20
0.9995377999999988
 11
-33.9703346
 21
-11.80296299999999
  0
LINE
  5
FE
100
AcDbEntity
  8
0
  6
ByLayer
 62
  256
370
   -1
100
AcDbLine
 10
-17.9255998
 20
-1.431536600000001
 11
-20.18302610000001
 21
-14.23403739999999
  0
ARC
  5
FF
100
AcDbEntity
  8
0
  6
ByLayer
 62
  256
370
   -1
100
AcDbCircle
 10
-31.22050440000001
 20
0.9127136999999976
 40
0.5
100
AcDbArc
 50
80
 51
170
  0
ARC
  5
100
100
AcDbEntity
  8
0
  6
ByLayer
 62
  256
370
   -1
100
AcDbCircle
 10
-18.4180037
 20
-1.344712599999994
 40
0.5
100
AcDbArc
 50
350
 51
80
  0
ARC
  5
101
100
AcDbEntity
  8
0
  6
ByLayer
 62
  256
370
   -1
100
AcDbCircle
 10
-33.4779307
 20
-11.889787
 40
0.5
100
AcDbArc
 50
170
 51
260
  0
ARC
  5
102
100
AcDbEntity
  8
0
  6
ByLayer
 62
  256
370
   -1
100
AcDbCircle
 10
-20.67543000000001
 20
-14.1472133
 40
0.5
100
AcDbArc
 50
260
 51
350
  0
LINE
  5
103
100
AcDbEntity
  8
0
  6
ByLayer
 62
  256
370
   -1
100
AcDbLine
 10
-125.7636183
 20
13.2549596
 11
-112.9611175
 21
10.9975333
  0
LINE
  5
104
100
AcDbEntity
  8
0
  6
ByLayer
 62
  256
370
   -1
100
AcDbLine
 10
-128.1946927
 20
-0.5323489000000023
 11
-115.3921919
 21
-2.789775199999994
  0
LINE
  5
105
100
AcDbEntity
  8
0
  6
ByLayer
 62
  256
370
   -1
100
AcDbLine
 10
-126.3428462
 20
12.8493798
 11
-128.6002725
 21
0.04687900000000411
  0
LINE
  5
106
100
AcDbEntity
  8
0
  6
ByLayer
 62
  256
370
   -1
100
AcDbLine
 10
-112.5555377
 20
10.4183054
 11
-114.812964
 21
-2.384195399999996
  0
ARC
  5
107
100
AcDbEntity
  8
0
  6
ByLayer
 62
  256
370
   -1
100
AcDbCircle
 10
-125.8504423
 20
12.7625557
 40
0.5
100
AcDbArc
 50
80
 51
170
  0
ARC
  5
108
100
AcDbEntity
  8
0
  6
ByLayer
 62
  256
370
   -1
100
AcDbCircle
 10
-113.0479416
 20
10.5051294
 40
0.5
100
AcDbArc
 50
350
 51
80
  0
ARC
  5
109
100
AcDbEntity
  8
0
  6
ByLayer
 62
  256
370
   -1
100
AcDbCircle
 10
-128.1078686
 20
-0.03994500000000301
 40
0.5
100
AcDbArc
 50
170
 51
260
  0
ARC
  5
10A
100
AcDbEntity
  8
0
  6
ByLayer
 62
  256
370
   -1
100
AcDbCircle
 10
-115.3053679
 20
-2.297371299999995
 40
0.5
100
AcDbArc
 50
260
 51
350
  0
LINE
  5
10B
100
AcDbEntity
  8
0
  6
ByLayer
 62
  256
370
   -1
100
AcDbLine
 10
-49.3391184
 20
-19.5646187
 11
-36.5366176
 21
-21.822045
  0
LINE
  5
10C
100
AcDbEntity
  8
0
  6
ByLayer
 62
  256
370
   -1
100
AcDbLine
 10
-51.7701928
 20
-33.35192719999999
 11
-38.967692
 21
-35.6093535
  0
LINE
  5
10D
100
AcDbEntity
  8
0
  6
ByLayer
 62
  256
370
   -1
100
AcDbLine
 10
-49.91834630000001
 20
-19.9701985
 11
-52.1757726
 21
-32.7726993
  0
LINE
  5
10E
100
AcDbEntity
  8
0
  6
ByLayer
 62
  256
370
   -1
100
AcDbLine
 10
-36.1310378
 20
-22.4012729
 11
-38.38846410000001
 21
-35.2037737
  0
ARC
  5
10F
100
AcDbEntity
  8
0
  6
ByLayer
 62
  256
370
   -1
100
AcDbCircle
 10
-49.42594240000001
 20
-20.0570226
 40
0.5
100
AcDbArc
 50
80
 51
170
  0
ARC
  5
110
100
AcDbEntity
  8
0
  6
ByLayer
 62
  256
370
   -1
100
AcDbCircle
 10
-36.6234417
 20
-22.3144489
 40
0.5
100
AcDbArc
 50
350
 51
80
  0
ARC
  5
111
100
AcDbEntity
  8
0
  6
ByLayer
 62
  256
370
   -1
100
AcDbCircle
 10
-51.6833687
 20
-32.85952329999999
 40
0.5
100
AcDbArc
 50
170
 51
260
  0
ARC
  5
112
100
AcDbEntity
  8
0
  6
ByLayer
 62
  256
370
   -1
100
AcDbCircle
 10
-38.88086800000001
 20
-35.1169496
 40
0.5
100
AcDbArc
 50
260
 51
350
  0
LINE
  5
113
100
AcDbEntity
  8
0
  6
ByLayer
 62
  256
370
   -1
100
AcDbLine
 10
47.58236049999999
 20
52.6651561
 11
60.38486129999998
 21
54.9225824
  0
LINE
  5
114
100
AcDbEntity
  8
0
  6
ByLayer
 62
  256
370
   -1
100
AcDbLine
 10
50.01343489999999
 20
38.8778476
 11
62.81593569999998
 21
41.1352739
  0
LINE
  5
115
100
AcDbEntity
  8
0
  6
ByLayer
 62
  256
370
   -1
100
AcDbLine
 10
47.17678069999999
 20
52.0859282
 11
49.43420699999999
 21
39.28342740000001
  0
LINE
  5
116
100
AcDbEntity
  8
0
  6
ByLayer
 62
  256
370
   -1
100
AcDbLine
 10
60.96408919999999
 20
54.5170026
 11
63.22151549999998
 21
41.71450180000001
  0
ARC
  5
117
100
AcDbEntity
  8
0
  6
ByLayer
 62
  256
370
   -1
100
AcDbCircle
 10
47.66918459999999
 20
52.17275220000001
 40
0.5
100
AcDbArc
 50
100
 51
190
  0
ARC
  5
118
100
AcDbEntity
  8
0
  6
ByLayer
 62
  256
370
   -1
100
AcDbCircle
 10
60.47168529999999
 20
54.4301785
 40
0.5
100
AcDbArc
 50
10
 51
100
  0
ARC
  5
119
100
AcDbEntity
  8
0
  6
ByLayer
 62
  256
370
   -1
100
AcDbCircle
 10
49.92661089999999
 20
39.3702515
 40
0.5
100
AcDbArc
 50
190
 51
280
  0
ARC
  5
11A
100
AcDbEntity
  8
0
  6
ByLayer
 62
  256
370
   -1
100
AcDbCircle
 10
62.72911159999998
 20
41.6276778
 40
0.5
100
AcDbArc
 50
280
 51
10
  0
LINE
  5
11B
100
AcDbEntity
  8
0
  6
ByLayer
 62
  256
370
   -1
100
AcDbLine
 10
29.64877229999999
 20
44.66701140000001
 11
42.45127309999998
 21
46.9244377
  0
LINE
  5
11C
100
AcDbEntity
  8
0
  6
ByLayer
 62
  256
370
   -1
100
AcDbLine
 10
32.07984669999999
 20
30.87970290000001
 11
44.88234749999998
 21
33.1371292
  0
LINE
  5
11D
100
AcDbEntity
  8
0
  6
ByLayer
 62
  256
370
   -1
100
AcDbLine
 10
29.24319249999999
 20
44.0877835
 11
31.50061879999998
 21
31.2852827
  0
LINE
  5
11E
100
AcDbEntity
  8
0
  6
ByLayer
 62
  256
370
   -1
100
AcDbLine
 10
43.03050099999999
 20
46.5188579
 11
45.28792730000001
 21
33.7163571
  0
ARC
  5
11F
100
AcDbEntity
  8
0
  6
ByLayer
 62
  256
370
   -1
100
AcDbCircle
 10
29.73559639999999
 20
44.17460750000001
 40
0.5
100
AcDbArc
 50
100
 51
190
  0
ARC
  5
120
100
AcDbEntity
  8
0
  6
ByLayer
 62
  256
370
   -1
100
AcDbCircle
 10
42.53809709999999
 20
46.4320338
 40
0.5
100
AcDbArc
 50
10
 51
100
  0
ARC
  5
121
100
AcDbEntity
  8
0
  6
ByLayer
 62
  256
370
   -1
100
AcDbCircle
 10
31.99302269999998
 20
31.3721068
 40
0.5
100
AcDbArc
 50
190
 51
280
  0
ARC
  5
122
100
AcDbEntity
  8
0
  6
ByLayer
 62
  256
370
   -1
100
AcDbCircle
 10
44.79552340000001
 20
33.6295331
 40
0.5
100
AcDbArc
 50
280
 51
10
  0
LINE
  5
123
100
AcDbEntity
  8
0
  6
ByLayer
 62
  256
370
   -1
100
AcDbLine
 10
67.16994769999999
 20
51.283007
 11
79.97244849999998
 21
53.5404333
  0
LINE
  5
124
100
AcDbEntity
  8
0
  6
ByLayer
 62
  256
370
   -1
100
AcDbLine
 10
69.60102209999999
 20
37.4956985
 11
82.40352289999998
 21
39.7531248
  0
LINE
  5
125
100
AcDbEntity
  8
0
  6
ByLayer
 62
  256
370
   -1
100
AcDbLine
 10
66.7643679
 20
50.70377910000001
 11
69.02179419999999
 21
37.9012783
  0
LINE
  5
126
100
AcDbEntity
  8
0
  6
ByLayer
 62
  256
370
   -1
100
AcDbLine
 10
80.55167639999999
 20
53.13485350000001
 11
82.80910269999998
 21
40.3323527
  0
ARC
  5
127
100
AcDbEntity
  8
0
  6
ByLayer
 62
  256
370
   -1
100
AcDbCircle
 10
67.2567718
 20
50.7906031
 40
0.5
100
AcDbArc
 50
100
 51
190
  0
ARC
  5
128
100
AcDbEntity
  8
0
  6
ByLayer
 62
  256
370
   -1
100
AcDbCircle
 10
80.05927249999999
 20
53.0480294
 40
0.5
100
AcDbArc
 50
10
 51
100
  0
ARC
  5
129
100
AcDbEntity
  8
0
  6
ByLayer
 62
  256
370
   -1
100
AcDbCircle
 10
69.51419809999999
 20
37.9881024
 40
0.5
100
AcDbArc
 50
190
 51
280
  0
ARC
  5
12A
100
AcDbEntity
  8
0
  6
ByLayer
 62
  256
370
   -1
100
AcDbCircle
 10
82.31669879999998
 20
40.2455287
 40
0.5
100
AcDbArc
 50
280
 51
10
  0
LINE
  5
12B
100
AcDbEntity
  8
0
  6
ByLayer
 62
  256
370
   -1
100
AcDbLine
 10
11.71518399999999
 20
36.6688667
 11
24.51768479999998
 21
38.926293
  0
LINE
  5
12C
100
AcDbEntity
  8
0
  6
ByLayer
 62
  256
370
   -1
100
AcDbLine
 10
14.14625839999999
 20
22.8815582
 11
26.94875919999998
 21
25.1389845
  0
LINE
  5
12D
100
AcDbEntity
  8
0
  6
ByLayer
 62
  256
370
   -1
100
AcDbLine
 10
11.3096042
 20
36.0896388
 11
13.56703049999999
 21
23.28713800000001
  0
LINE
  5
12E
100
AcDbEntity
  8
0
  6
ByLayer
 62
  256
370
   -1
100
AcDbLine
 10
25.09691269999999
 20
38.5207132
 11
27.35433899999998
 21
25.71821240000001
  0
ARC
  5
12F
100
AcDbEntity
  8
0
  6
ByLayer
 62
  256
370
   -1
100
AcDbCircle
 10
11.80200809999999
 20
36.1764628
 40
0.5
100
AcDbArc
 50
100
 51
190
  0
ARC
  5
130
100
AcDbEntity
  8
0
  6
ByLayer
 62
  256
370
   -1
100
AcDbCircle
 10
24.60450879999999
 20
38.4338891
 40
0.5
100
AcDbArc
 50
10
 51
100
  0
ARC
  5
131
100
AcDbEntity
  8
0
  6
ByLayer
 62
  256
370
   -1
100
AcDbCircle
 10
14.05943439999999
 20
23.3739621
 40
0.5
100
AcDbArc
 50
190
 51
280
  0
ARC
  5
132
100
AcDbEntity
  8
0
  6
ByLayer
 62
  256
370
   -1
100
AcDbCircle
 10
26.86193509999998
 20
25.63138840000001
 40
0.5
100
AcDbArc
 50
280
 51
10
  0
LINE
  5
133
100
AcDbEntity
  8
0
  6
ByLayer
 62
  256
370
   -1
100
AcDbLine
 10
86.7575348
 20
49.9008578
 11
99.56003559999999
 21
52.1582841
  0
LINE
  5
134
100
AcDbEntity
  8
0
  6
ByLayer
 62
  256
370
   -1
100
AcDbLine
 10
89.1886092
 20
36.1135493
 11
101.99111
 21
38.3709756
  0
LINE
  5
135
100
AcDbEntity
  8
0
  6
ByLayer
 62
  256
370
   -1
100
AcDbLine
 10
86.351955
 20
49.3216299
 11
88.6093813
 21
36.5191291
  0
LINE
  5
136
100
AcDbEntity
  8
0
  6
ByLayer
 62
  256
370
   -1
100
AcDbLine
 10
100.1392635
 20
51.7527043
 11
102.3966898
 21
38.9502035
  0
ARC
  5
137
100
AcDbEntity
  8
0
  6
ByLayer
 62
  256
370
   -1
100
AcDbCircle
 10
86.8443589
 20
49.4084539
 40
0.5
100
AcDbArc
 50
100
 51
190
  0
ARC
  5
138
100
AcDbEntity
  8
0
  6
ByLayer
 62
  256
370
   -1
100
AcDbCircle
 10
99.6468596
 20
51.6658802
 40
0.5
100
AcDbArc
 50
10
 51
100
  0
ARC
  5
139
100
AcDbEntity
  8
0
  6
ByLayer
 62
  256
370
   -1
100
AcDbCircle
 10
89.10178519999999
 20
36.6059532
 40
0.5
100
AcDbArc
 50
190
 51
280
  0
ARC
  5
13A
100
AcDbEntity
  8
0
  6
ByLayer
 62
  256
370
   -1
100
AcDbCircle
 10
101.9042859
 20
38.86337950000001
 40
0.5
100
AcDbArc
 50
280
 51
10
  0
LINE
  5
13B
100
AcDbEntity
  8
0
  6
ByLayer
 62
  256
370
   -1
100
AcDbLine
 10
106.3451219
 20
48.5187087
 11
119.1476227
 21
50.776135
  0
LINE
  5
13C
100
AcDbEntity
  8
0
  6
ByLayer
 62
  256
370
   -1
100
AcDbLine
 10
108.7761963
 20
34.7314002
 11
121.5786971
 21
36.9888265
  0
LINE
  5
13D
100
AcDbEntity
  8
0
  6
ByLayer
 62
  256
370
   -1
100
AcDbLine
 10
105.9395421
 20
47.9394808
 11
108.1969684
 21
35.13698
  0
LINE
  5
13E
100
AcDbEntity
  8
0
  6
ByLayer
 62
  256
370
   -1
100
AcDbLine
 10
119.7268506
 20
50.3705552
 11
121.9842769
 21
37.5680544
  0
ARC
  5
13F
100
AcDbEntity
  8
0
  6
ByLayer
 62
  256
370
   -1
100
AcDbCircle
 10
106.431946
 20
48.02630480000001
 40
0.5
100
AcDbArc
 50
100
 51
190
  0
ARC
  5
140
100
AcDbEntity
  8
0
  6
ByLayer
 62
  256
370
   -1
100
AcDbCircle
 10
119.2344467
 20
50.2837311
 40
0.5
100
AcDbArc
 50
10
 51
100
  0
ARC
  5
141
100
AcDbEntity
  8
0
  6
ByLayer
 62
  256
370
   -1
100
AcDbCircle
 10
108.6893723
 20
35.2238041
 40
0.5
100
AcDbArc
 50
190
 51
280
  0
ARC
  5
142
100
AcDbEntity
  8
0
  6
ByLayer
 62
  256
370
   -1
100
AcDbCircle
 10
121.491873
 20
37.4812304
 40
0.5
100
AcDbArc
 50
280
 51
10
  0
LINE
  5
143
100
AcDbEntity
  8
0
  6
ByLayer
 62
  256
370
   -1
100
AcDbLine
 10
50.8903583
 20
33.9045684
 11
63.69285909999999
 21
36.1619947
  0
LINE
  5
144
100
AcDbEntity
  8
0
  6
ByLayer
 62
  256
370
   -1
100
AcDbLine
 10
53.3214327
 20
20.1172599
 11
66.12393349999999
 21
22.3746862
  0
LINE
  5
145
100
AcDbEntity
  8
0
  6
ByLayer
 62
  256
370
   -1
100
AcDbLine
 10
50.4847785
 20
33.3253405
 11
52.7422048
 21
20.52283970000001
  0
LINE
  5
146
100
AcDbEntity
  8
0
  6
ByLayer
 62
  256
370
   -1
100
AcDbLine
 10
64.272087
 20
35.7564149
 11
66.52951329999999
 21
22.95391410000001
  0
ARC
  5
147
100
AcDbEntity
  8
0
  6
ByLayer
 62
  256
370
   -1
100
AcDbCircle
 10
50.9771824
 20
33.4121645
 40
0.5
100
AcDbArc
 50
100
 51
190
  0
ARC
  5
148
100
AcDbEntity
  8
0
  6
ByLayer
 62
  256
370
   -1
100
AcDbCircle
 10
63.7796831
 20
35.6695908
 40
0.5
100
AcDbArc
 50
10
 51
100
  0
ARC
  5
149
100
AcDbEntity
  8
0
  6
ByLayer
 62
  256
370
   -1
100
AcDbCircle
 10
53.2346087
 20
20.6096638
 40
0.5
100
AcDbArc
 50
190
 51
280
  0
ARC
  5
14A
100
AcDbEntity
  8
0
  6
ByLayer
 62
  256
370
   -1
100
AcDbCircle
 10
66.03710939999999
 20
22.86709010000001
 40
0.5
100
AcDbArc
 50
280
 51
10
  0
LINE
  5
14B
100
AcDbEntity
  8
0
  6
ByLayer
 62
  256
370
   -1
100
AcDbLine
 10
32.95677000000001
 20
25.9064237
 11
45.7592708
 21
28.16385
  0
LINE
  5
14C
100
AcDbEntity
  8
0
  6
ByLayer
 62
  256
370
   -1
100
AcDbLine
 10
35.38784440000001
 20
12.1191152
 11
48.1903452
 21
14.3765415
  0
LINE
  5
14D
100
AcDbEntity
  8
0
  6
ByLayer
 62
  256
370
   -1
100
AcDbLine
 10
32.55119020000001
 20
25.32719580000001
 11
34.8086165
 21
12.524695
  0
LINE
  5
14E
100
AcDbEntity
  8
0
  6
ByLayer
 62
  256
370
   -1
100
AcDbLine
 10
46.3384987
 20
27.75827020000001
 11
48.59592499999999
 21
14.9557694
  0
ARC
  5
14F
100
AcDbEntity
  8
0
  6
ByLayer
 62
  256
370
   -1
100
AcDbCircle
 10
33.04359410000001
 20
25.41401980000001
 40
0.5
100
AcDbArc
 50
100
 51
190
  0
ARC
  5
150
100
AcDbEntity
  8
0
  6
ByLayer
 62
  256
370
   -1
100
AcDbCircle
 10
45.8460948
 20
27.6714461
 40
0.5
100
AcDbArc
 50
10
 51
100
  0
ARC
  5
151
100
AcDbEntity
  8
0
  6
ByLayer
 62
  256
370
   -1
100
AcDbCircle
 10
35.3010204
 20
12.6115191
 40
0.5
100
AcDbArc
 50
190
 51
280
  0
ARC
  5
152
100
AcDbEntity
  8
0
  6
ByLayer
 62
  256
370
   -1
100
AcDbCircle
 10
48.10352109999999
 20
14.8689454
 40
0.5
100
AcDbArc
 50
280
 51
10
  0
LINE
  5
153
100
AcDbEntity
  8
0
  6
ByLayer
 62
  256
370
   -1
100
AcDbLine
 10
70.47794539999998
 20
32.5224193
 11
83.2804462
 21
34.7798456
  0
LINE
  5
154
100
AcDbEntity
  8
0
  6
ByLayer
 62
  256
370
   -1
100
AcDbLine
 10
72.90901979999998
 20
18.7351108
 11
85.7115206
 21
20.9925371
  0
LINE
  5
155
100
AcDbEntity
  8
0
  6
ByLayer
 62
  256
370
   -1
100
AcDbLine
 10
70.07236559999998
 20
31.9431914
 11
72.3297919
 21
19.14069060000001
  0
LINE
  5
156
100
AcDbEntity
  8
0
  6
ByLayer
 62
  256
370
   -1
100
AcDbLine
 10
83.85967410000001
 20
34.3742658
 11
86.1171004
 21
21.57176500000001
  0
ARC
  5
157
100
AcDbEntity
  8
0
  6
ByLayer
 62
  256
370
   -1
100
AcDbCircle
 10
70.56476949999998
 20
32.0300154
 40
0.5
100
AcDbArc
 50
100
 51
190
  0
ARC
  5
158
100
AcDbEntity
  8
0
  6
ByLayer
 62
  256
370
   -1
100
AcDbCircle
 10
83.36727020000001
 20
34.2874417
 40
0.5
100
AcDbArc
 50
10
 51
100
  0
ARC
  5
159
100
AcDbEntity
  8
0
  6
ByLayer
 62
  256
370
   -1
100
AcDbCircle
 10
72.8221958
 20
19.2275147
 40
0.5
100
AcDbArc
 50
190
 51
280
  0
ARC
  5
15A
100
AcDbEntity
  8
0
  6
ByLayer
 62
  256
370
   -1
100
AcDbCircle
 10
85.6246965
 20
21.48494100000001
 40
0.5
100
AcDbArc
 50
280
 51
10
  0
LINE
  5
15B
100
AcDbEntity
  8
0
  6
ByLayer
 62
  256
370
   -1
100
AcDbLine
 10
15.0231818
 20
17.908279
 11
27.82568259999999
 21
20.16570530000001
  0
LINE
  5
15C
100
AcDbEntity
  8
0
  6
ByLayer
 62
  256
370
   -1
100
AcDbLine
 10
17.4542562
 20
4.120970499999999
 11
30.25675699999999
 21
6.378396800000004
  0
LINE
  5
15D
100
AcDbEntity
  8
0
  6
ByLayer
 62
  256
370
   -1
100
AcDbLine
 10
14.61760200000001
 20
17.3290511
 11
16.8750283
 21
4.526550299999997
  0
LINE
  5
15E
100
AcDbEntity
  8
0
  6
ByLayer
 62
  256
370
   -1
100
AcDbLine
 10
28.4049105
 20
19.7601255
 11
30.66233679999999
 21
6.957624700000004
  0
ARC
  5
15F
100
AcDbEntity
  8
0
  6
ByLayer
 62
  256
370
   -1
100
AcDbCircle
 10
15.1100059
 20
17.4158751
 40
0.5
100
AcDbArc
 50
100
 51
190
  0
ARC
  5
160
100
AcDbEntity
  8
0
  6
ByLayer
 62
  256
370
   -1
100
AcDbCircle
 10
27.9125066
 20
19.6733014
 40
0.5
100
AcDbArc
 50
10
 51
100
  0
ARC
  5
161
100
AcDbEntity
  8
0
  6
ByLayer
 62
  256
370
   -1
100
AcDbCircle
 10
17.3674322
 20
4.613374399999998
 40
0.5
100
AcDbArc
 50
190
 51
280
  0
ARC
  5
162
100
AcDbEntity
  8
0
  6
ByLayer
 62
  256
370
   -1
100
AcDbCircle
 10
30.16993289999999
 20
6.870800700000004
 40
0.5
100
AcDbArc
 50
280
 51
10
  0
LINE
  5
163
100
AcDbEntity
  8
0
  6
ByLayer
 62
  256
370
   -1
100
AcDbLine
 10
90.06553259999998
 20
31.1402701
 11
102.8680334
 21
33.3976964
  0
LINE
  5
164
100
AcDbEntity
  8
0
  6
ByLayer
 62
  256
370
   -1
100
AcDbLine
 10
92.49660699999998
 20
17.3529616
 11
105.2991078
 21
19.61038790000001
  0
LINE
  5
165
100
AcDbEntity
  8
0
  6
ByLayer
 62
  256
370
   -1
100
AcDbLine
 10
89.65995279999999
 20
30.5610422
 11
91.91737910000001
 21
17.75854140000001
  0
LINE
  5
166
100
AcDbEntity
  8
0
  6
ByLayer
 62
  256
370
   -1
100
AcDbLine
 10
103.4472613
 20
32.9921166
 11
105.7046876
 21
20.18961580000001
  0
ARC
  5
167
100
AcDbEntity
  8
0
  6
ByLayer
 62
  256
370
   -1
100
AcDbCircle
 10
90.15235669999998
 20
30.6478662
 40
0.5
100
AcDbArc
 50
100
 51
190
  0
ARC
  5
168
100
AcDbEntity
  8
0
  6
ByLayer
 62
  256
370
   -1
100
AcDbCircle
 10
102.9548574
 20
32.9052925
 40
0.5
100
AcDbArc
 50
10
 51
100
  0
ARC
  5
169
100
AcDbEntity
  8
0
  6
ByLayer
 62
  256
370
   -1
100
AcDbCircle
 10
92.409783
 20
17.8453655
 40
0.5
100
AcDbArc
 50
190
 51
280
  0
ARC
  5
16A
100
AcDbEntity
  8
0
  6
ByLayer
 62
  256
370
   -1
100
AcDbCircle
 10
105.2122837
 20
20.10279180000001
 40
0.5
100
AcDbArc
 50
280
 51
10
  0
LINE
  5
16B
100
AcDbEntity
  8
0
  6
ByLayer
 62
  256
370
   -1
100
AcDbLine
 10
109.6531197
 20
29.758121
 11
122.4556205
 21
32.0155473
  0
LINE
  5
16C
100
AcDbEntity
  8
0
  6
ByLayer
 62
  256
370
   -1
100
AcDbLine
 10
112.0841941
 20
15.9708125
 11
124.8866949
 21
18.2282388
  0
LINE
  5
16D
100
AcDbEntity
  8
0
  6
ByLayer
 62
  256
370
   -1
100
AcDbLine
 10
109.2475399
 20
29.1788931
 11
111.5049662
 21
16.37639230000001
  0
LINE
  5
16E
100
AcDbEntity
  8
0
  6
ByLayer
 62
  256
370
   -1
100
AcDbLine
 10
123.0348484
 20
31.6099675
 11
125.2922747
 21
18.80746670000001
  0
ARC
  5
16F
100
AcDbEntity
  8
0
  6
ByLayer
 62
  256
370
   -1
100
AcDbCircle
 10
109.7399438
 20
29.2657171
 40
0.5
100
AcDbArc
 50
100
 51
190
  0
ARC
  5
170
100
AcDbEntity
  8
0
  6
ByLayer
 62
  256
370
   -1
100
AcDbCircle
 10
122.5424445
 20
31.5231434
 40
0.5
100
AcDbArc
 50
10
 51
100
  0
ARC
  5
171
100
AcDbEntity
  8
0
  6
ByLayer
 62
  256
370
   -1
100
AcDbCircle
 10
111.9973701
 20
16.4632164
 40
0.5
100
AcDbArc
 50
190
 51
280
  0
ARC
  5
172
100
AcDbEntity
  8
0
  6
ByLayer
 62
  256
370
   -1
100
AcDbCircle
 10
124.7998708
 20
18.72064270000001
 40
0.5
100
AcDbArc
 50
280
 51
10
  0
LINE
  5
173
100
AcDbEntity
  8
0
  6
ByLayer
 62
  256
370
   -1
100
AcDbLine
 10
54.19835609999998
 20
15.1439807
 11
67.0008569
 21
17.40140700000001
  0
LINE
  5
174
100
AcDbEntity
  8
0
  6
ByLayer
 62
  256
370
   -1
100
AcDbLine
 10
56.62943049999998
 20
1.356672200000006
 11
69.4319313
 21
3.614098499999997
  0
LINE
  5
175
100
AcDbEntity
  8
0
  6
ByLayer
 62
  256
370
   -1
100
AcDbLine
 10
53.79277629999999
 20
14.5647528
 11
56.05020260000001
 21
1.762252000000004
  0
LINE
  5
176
100
AcDbEntity
  8
0
  6
ByLayer
 62
  256
370
   -1
100
AcDbLine
 10
67.58008479999998
 20
16.9958272
 11
69.8375111
 21
4.193326400000004
  0
ARC
  5
177
100
AcDbEntity
  8
0
  6
ByLayer
 62
  256
370
   -1
100
AcDbCircle
 10
54.28518019999999
 20
14.6515768
 40
0.5
100
AcDbArc
 50
100
 51
190
  0
ARC
  5
178
100
AcDbEntity
  8
0
  6
ByLayer
 62
  256
370
   -1
100
AcDbCircle
 10
67.08768089999998
 20
16.9090031
 40
0.5
100
AcDbArc
 50
10
 51
100
  0
ARC
  5
179
100
AcDbEntity
  8
0
  6
ByLayer
 62
  256
370
   -1
100
AcDbCircle
 10
56.54260650000001
 20
1.849076100000005
 40
0.5
100
AcDbArc
 50
190
 51
280
  0
ARC
  5
17A
100
AcDbEntity
  8
0
  6
ByLayer
 62
  256
370
   -1
100
AcDbCircle
 10
69.3451072
 20
4.106502399999997
 40
0.5
100
AcDbArc
 50
280
 51
10
  0
LINE
  5
17B
100
AcDbEntity
  8
0
  6
ByLayer
 62
  256
370
   -1
100
AcDbLine
 10
36.26476779999999
 20
7.145836000000003
 11
49.06726860000001
 21
9.403262300000002
  0
LINE
  5
17C
100
AcDbEntity
  8
0
  6
ByLayer
 62
  256
370
   -1
100
AcDbLine
 10
38.69584219999999
 20
-6.641472499999992
 11
51.49834300000001
 21
-4.3840462
  0
LINE
  5
17D
100
AcDbEntity
  8
0
  6
ByLayer
 62
  256
370
   -1
100
AcDbLine
 10
35.85918799999999
 20
6.566608100000003
 11
38.11661429999998
 21
-6.235892699999994
  0
LINE
  5
17E
100
AcDbEntity
  8
0
  6
ByLayer
 62
  256
370
   -1
100
AcDbLine
 10
49.64649649999998
 20
8.997682500000003
 11
51.9039228
 21
-3.804818299999994
  0
ARC
  5
17F
100
AcDbEntity
  8
0
  6
ByLayer
 62
  256
370
   -1
100
AcDbCircle
 10
36.35159189999999
 20
6.653432100000003
 40
0.5
100
AcDbArc
 50
100
 51
190
  0
ARC
  5
180
100
AcDbEntity
  8
0
  6
ByLayer
 62
  256
370
   -1
100
AcDbCircle
 10
49.15409259999998
 20
8.910858400000002
 40
0.5
100
AcDbArc
 50
10
 51
100
  0
ARC
  5
181
100
AcDbEntity
  8
0
  6
ByLayer
 62
  256
370
   -1
100
AcDbCircle
 10
38.60901820000001
 20
-6.149068599999993
 40
0.5
100
AcDbArc
 50
190
 51
280
  0
ARC
  5
182
100
AcDbEntity
  8
0
  6
ByLayer
 62
  256
370
   -1
100
AcDbCircle
 10
51.4115189
 20
-3.891642300000001
 40
0.5
100
AcDbArc
 50
280
 51
10
  0
LINE
  5
183
100
AcDbEntity
  8
0
  6
ByLayer
 62
  256
370
   -1
100
AcDbLine
 10
73.78594319999999
 20
13.7618316
 11
86.58844399999998
 21
16.0192579
  0
LINE
  5
184
100
AcDbEntity
  8
0
  6
ByLayer
 62
  256
370
   -1
100
AcDbLine
 10
76.21701759999999
 20
-0.02547690000000102
 11
89.01951839999998
 21
2.231949400000005
  0
LINE
  5
185
100
AcDbEntity
  8
0
  6
ByLayer
 62
  256
370
   -1
100
AcDbLine
 10
73.38036339999999
 20
13.1826037
 11
75.63778969999998
 21
0.3801028999999971
  0
LINE
  5
186
100
AcDbEntity
  8
0
  6
ByLayer
 62
  256
370
   -1
100
AcDbLine
 10
87.16767189999999
 20
15.6136781
 11
89.42509820000001
 21
2.811177299999997
  0
ARC
  5
187
100
AcDbEntity
  8
0
  6
ByLayer
 62
  256
370
   -1
100
AcDbCircle
 10
73.87276729999999
 20
13.2694277
 40
0.5
100
AcDbArc
 50
100
 51
190
  0
ARC
  5
188
100
AcDbEntity
  8
0
  6
ByLayer
 62
  256
370
   -1
100
AcDbCircle
 10
86.67526799999999
 20
15.526854
 40
0.5
100
AcDbArc
 50
10
 51
100
  0
ARC
  5
189
100
AcDbEntity
  8
0
  6
ByLayer
 62
  256
370
   -1
100
AcDbCircle
 10
76.13019359999998
 20
0.4669269999999983
 40
0.5
100
AcDbArc
 50
190
 51
280
  0
ARC
  5
18A
100
AcDbEntity
  8
0
  6
ByLayer
 62
  256
370
   -1
100
AcDbCircle
 10
88.93269430000001
 20
2.724353300000004
 40
0.5
100
AcDbArc
 50
280
 51
10
  0
LINE
  5
18B
100
AcDbEntity
  8
0
  6
ByLayer
 62
  256
370
   -1
100
AcDbLine
 10
18.33117959999998
 20
-0.8523086999999947
 11
31.1336804
 21
1.405117599999997
  0
LINE
  5
18C
100
AcDbEntity
  8
0
  6
ByLayer
 62
  256
370
   -1
100
AcDbLine
 10
20.76225399999998
 20
-14.6396172
 11
33.5647548
 21
-12.3821909
  0
LINE
  5
18D
100
AcDbEntity
  8
0
  6
ByLayer
 62
  256
370
   -1
100
AcDbLine
 10
17.92559979999999
 20
-1.431536600000001
 11
20.18302610000001
 21
-14.23403739999999
  0
LINE
  5
18E
100
AcDbEntity
  8
0
  6
ByLayer
 62
  256
370
   -1
100
AcDbLine
 10
31.71290829999998
 20
0.9995377999999988
 11
33.9703346
 21
-11.80296299999999
  0
ARC
  5
18F
100
AcDbEntity
  8
0
  6
ByLayer
 62
  256
370
   -1
100
AcDbCircle
 10
18.41800369999999
 20
-1.344712599999994
 40
0.5
100
AcDbArc
 50
100
 51
190
  0
ARC
  5
190
100
AcDbEntity
  8
0
  6
ByLayer
 62
  256
370
   -1
100
AcDbCircle
 10
31.22050439999998
 20
0.9127136999999976
 40
0.5
100
AcDbArc
 50
10
 51
100
  0
ARC
  5
191
100
AcDbEntity
  8
0
  6
ByLayer
 62
  256
370
   -1
100
AcDbCircle
 10
20.67543000000001
 20
-14.1472133
 40
0.5
100
AcDbArc
 50
190
 51
280
  0
ARC
  5
192
100
AcDbEntity
  8
0
  6
ByLayer
 62
  256
370
   -1
100
AcDbCircle
 10
33.4779307
 20
-11.889787
 40
0.5
100
AcDbArc
 50
280
 51
10
  0
LINE
  5
193
100
AcDbEntity
  8
0
  6
ByLayer
 62
  256
370
   -1
100
AcDbLine
 10
93.37353039999999
 20
12.3796824
 11
106.1760312
 21
14.63710870000001
  0
LINE
  5
194
100
AcDbEntity
  8
0
  6
ByLayer
 62
  256
370
   -1
100
AcDbLine
 10
95.80460479999999
 20
-1.407626100000002
 11
108.6071056
 21
0.8498002000000042
  0
LINE
  5
195
100
AcDbEntity
  8
0
  6
ByLayer
 62
  256
370
   -1
100
AcDbLine
 10
92.96795059999999
 20
11.8004545
 11
95.22537689999999
 21
-1.002046300000003
  0
LINE
  5
196
100
AcDbEntity
  8
0
  6
ByLayer
 62
  256
370
   -1
100
AcDbLine
 10
106.7552591
 20
14.2315289
 11
109.0126854
 21
1.429028099999996
  0
ARC
  5
197
100
AcDbEntity
  8
0
  6
ByLayer
 62
  256
370
   -1
100
AcDbCircle
 10
93.46035449999999
 20
11.8872785
 40
0.5
100
AcDbArc
 50
100
 51
190
  0
ARC
  5
198
100
AcDbEntity
  8
0
  6
ByLayer
 62
  256
370
   -1
100
AcDbCircle
 10
106.2628552
 20
14.1447048
 40
0.5
100
AcDbArc
 50
10
 51
100
  0
ARC
  5
199
100
AcDbEntity
  8
0
  6
ByLayer
 62
  256
370
   -1
100
AcDbCircle
 10
95.71778079999999
 20
-0.9152222000000023
 40
0.5
100
AcDbArc
 50
190
 51
280
  0
ARC
  5
19A
100
AcDbEntity
  8
0
  6
ByLayer
 62
  256
370
   -1
100
AcDbCircle
 10
108.5202815
 20
1.342204100000004
 40
0.5
100
AcDbArc
 50
280
 51
10
  0
LINE
  5
19B
100
AcDbEntity
  8
0
  6
ByLayer
 62
  256
370
   -1
100
AcDbLine
 10
112.9611175
 20
10.9975333
 11
125.7636183
 21
13.2549596
  0
LINE
  5
19C
100
AcDbEntity
  8
0
  6
ByLayer
 62
  256
370
   -1
100
AcDbLine
 10
115.3921919
 20
-2.789775199999994
 11
128.1946927
 21
-0.5323489000000023
  0
LINE
  5
19D
100
AcDbEntity
  8
0
  6
ByLayer
 62
  256
370
   -1
100
AcDbLine
 10
112.5555377
 20
10.4183054
 11
114.812964
 21
-2.384195399999996
  0
LINE
  5
19E
100
AcDbEntity
  8
0
  6
ByLayer
 62
  256
370
   -1
100
AcDbLine
 10
126.3428462
 20
12.8493798
 11
128.6002725
 21
0.04687900000000411
  0
ARC
  5
19F
100
AcDbEntity
  8
0
  6
ByLayer
 62
  256
370
   -1
100
AcDbCircle
 10
113.0479416
 20
10.5051294
 40
0.5
100
AcDbArc
 50
100
 51
190
  0
ARC
  5
1A0
100
AcDbEntity
  8
0
  6
ByLayer
 62
  256
370
   -1
100
AcDbCircle
 10
125.8504423
 20
12.7625557
 40
0.5
100
AcDbArc
 50
10
 51
100
  0
ARC
  5
1A1
100
AcDbEntity
  8
0
  6
ByLayer
 62
  256
370
   -1
100
AcDbCircle
 10
115.3053679
 20
-2.297371299999995
 40
0.5
100
AcDbArc
 50
190
 51
280
  0
ARC
  5
1A2
100
AcDbEntity
  8
0
  6
ByLayer
 62
  256
370
   -1
100
AcDbCircle
 10
128.1078686
 20
-0.03994500000000301
 40
0.5
100
AcDbArc
 50
280
 51
10
  0
LINE
  5
1A3
100
AcDbEntity
  8
0
  6
ByLayer
 62
  256
370
   -1
100
AcDbLine
 10
36.5366176
 20
-21.822045
 11
49.33911839999999
 21
-19.5646187
  0
LINE
  5
1A4
100
AcDbEntity
  8
0
  6
ByLayer
 62
  256
370
   -1
100
AcDbLine
 10
38.967692
 20
-35.6093535
 11
51.77019279999999
 21
-33.35192719999999
  0
LINE
  5
1A5
100
AcDbEntity
  8
0
  6
ByLayer
 62
  256
370
   -1
100
AcDbLine
 10
36.1310378
 20
-22.4012729
 11
38.38846409999999
 21
-35.2037737
  0
LINE
  5
1A6
100
AcDbEntity
  8
0
  6
ByLayer
 62
  256
370
   -1
100
AcDbLine
 10
49.9183463
 20
-19.9701985
 11
52.17577259999999
 21
-32.7726993
  0
ARC
  5
1A7
100
AcDbEntity
  8
0
  6
ByLayer
 62
  256
370
   -1
100
AcDbCircle
 10
36.6234417
 20
-22.3144489
 40
0.5
100
AcDbArc
 50
100
 51
190
  0
ARC
  5
1A8
100
AcDbEntity
  8
0
  6
ByLayer
 62
  256
370
   -1
100
AcDbCircle
 10
49.4259424
 20
-20.0570226
 40
0.5
100
AcDbArc
 50
10
 51
100
  0
ARC
  5
1A9
100
AcDbEntity
  8
0
  6
ByLayer
 62
  256
370
   -1
100
AcDbCircle
 10
38.88086799999999
 20
-35.1169496
 40
0.5
100
AcDbArc
 50
190
 51
280
  0
ARC
  5
1AA
100
AcDbEntity
  8
0
  6
ByLayer
 62
  256
370
   -1
100
AcDbCircle
 10
51.68336869999999
 20
-32.85952329999999
 40
0.5
100
AcDbArc
 50
280
 51
10
  0
LINE
  5
1AB
100
AcDbEntity
  8
noname
  6
ByLayer
 62
  256
370
   -1
100
AcDbLine
 10
11.80200809999999
 20
36.1764628
 11
26.86193509999998
 21
25.63138840000001
  0
LINE
  5
1AC
100
AcDbEntity
  8
noname
  6
ByLayer
 62
  256
370
   -1
100
AcDbLine
 10
29.73559639999999
 20
44.17460750000001
 11
44.79552339999998
 21
33.62953310000001
  0
LINE
  5
1AD
100
AcDbEntity
  8
noname
  6
ByLayer
 62
  256
370
   -1
100
AcDbLine
 10
33.04359410000001
 20
25.41401980000001
 11
48.10352109999999
 21
14.86894540000001
  0
LINE
  5
1AE
100
AcDbEntity
  8
noname
  6
ByLayer
 62
  256
370
   -1
100
AcDbLine
 10
15.1100059
 20
17.4158751
 11
30.16993289999999
 21
6.870800700000004
  0
LINE
  5
1AF
100
AcDbEntity
  8
noname
  6
ByLayer
 62
  256
370
   -1
100
AcDbLine
 10
18.41800369999999
 20
-1.344712599999994
 11
33.47793069999997
 21
-11.88978699999999
  0
LINE
  5
1B0
100
AcDbEntity
  8
noname
  6
ByLayer
 62
  256
370
   -1
100
AcDbLine
 10
36.35159189999999
 20
6.653432100000003
 11
51.41151889999998
 21
-3.891642299999994
  0
LINE
  5
1B1
100
AcDbEntity
  8
noname
  6
ByLayer
 62
  256
370
   -1
100
AcDbLine
 10
47.66918459999999
 20
52.17275220000001
 11
62.72911159999998
 21
41.62767780000001
  0
LINE
  5
1B2
100
AcDbEntity
  8
noname
  6
ByLayer
 62
  256
370
   -1
100
AcDbLine
 10
50.97718230000001
 20
33.4121645
 11
66.0371093
 21
22.86709010000001
  0
LINE
  5
1B3
100
AcDbEntity
  8
noname
  6
ByLayer
 62
  256
370
   -1
100
AcDbLine
 10
54.28518009999999
 20
14.6515768
 11
69.34510709999998
 21
4.106502400000004
  0
LINE
  5
1B4
100
AcDbEntity
  8
noname
  6
ByLayer
 62
  256
370
   -1
100
AcDbLine
 10
67.2567718
 20
50.7906031
 11
82.31669879999998
 21
40.2455287
  0
LINE
  5
1B5
100
AcDbEntity
  8
noname
  6
ByLayer
 62
  256
370
   -1
100
AcDbLine
 10
70.56476950000001
 20
32.0300154
 11
85.6246965
 21
21.484941
  0
LINE
  5
1B6
100
AcDbEntity
  8
noname
  6
ByLayer
 62
  256
370
   -1
100
AcDbLine
 10
73.87276729999999
 20
13.26942769999999
 11
88.93269429999998
 21
2.724353299999997
  0
LINE
  5
1B7
100
AcDbEntity
  8
noname
  6
ByLayer
 62
  256
370
   -1
100
AcDbLine
 10
86.8443589
 20
49.4084539
 11
101.9042859
 21
38.8633795
  0
LINE
  5
1B8
100
AcDbEntity
  8
noname
  6
ByLayer
 62
  256
370
   -1
100
AcDbLine
 10
90.15235660000002
 20
30.6478662
 11
105.2122836
 21
20.1027918
  0
LINE
  5
1B9
100
AcDbEntity
  8
noname
  6
ByLayer
 62
  256
370
   -1
100
AcDbLine
 10
93.4603544
 20
11.88727849999999
 11
108.5202814
 21
1.342204099999996
  0
LINE
  5
1BA
100
AcDbEntity
  8
noname
  6
ByLayer
 62
  256
370
   -1
100
AcDbLine
 10
106.431946
 20
48.02630480000001
 11
121.491873
 21
37.48123040000001
  0
LINE
  5
1BB
100
AcDbEntity
  8
noname
  6
ByLayer
 62
  256
370
   -1
100
AcDbLine
 10
109.7399437
 20
29.2657171
 11
124.7998707
 21
18.72064270000001
  0
LINE
  5
1BC
100
AcDbEntity
  8
noname
  6
ByLayer
 62
  256
370
   -1
100
AcDbLine
 10
113.0479415
 20
10.5051294
 11
128.1078685
 21
-0.0399449999999959
  0
LINE
  5
1BD
100
AcDbEntity
  8
noname
  6
ByLayer
 62
  256
370
   -1
100
AcDbLine
 10
36.6234417
 20
-22.3144489
 11
51.68336869999999
 21
-32.8595233
  0
LINE
  5
1BE
100
AcDbEntity
  8
noname
  6
ByLayer
 62
  256
370
   -1
100
AcDbLine
 10
64.9375
 20
-9.712499999999991
 11
77.9375
 21
-22.71249999999999
  0
LINE
  5
1BF
100
AcDbEntity
  8
noname
  6
ByLayer
 62
  256
370
   -1
100
AcDbLine
 10
-6.5
 20
-24
 11
6.5
 21
-37
  0
LINE
  5
1C0
100
AcDbEntity
  8
noname
  6
ByLayer
 62
  256
370
   -1
100
AcDbLine
 10
-49.42594240000001
 20
-20.0570226
 11
-38.88086800000001
 21
-35.1169496
  0
LINE
  5
1C1
100
AcDbEntity
  8
noname
  6
ByLayer
 62
  256
370
   -1
100
AcDbLine
 10
-77.9375
 20
-9.712499999999991
 11
-64.9375
 21
-22.71249999999999
  0
LINE
  5
1C2
100
AcDbEntity
  8
noname
  6
ByLayer
 62
  256
370
   -1
100
AcDbLine
 10
-31.22050440000001
 20
0.9127136999999976
 11
-20.67543000000001
 21
-14.1472133
  0
LINE
  5
1C3
100
AcDbEntity
  8
noname
  6
ByLayer
 62
  256
370
   -1
100
AcDbLine
 10
-27.9125066
 20
19.6733014
 11
-17.3674322
 21
4.613374399999998
  0
LINE
  5
1C4
100
AcDbEntity
  8
noname
  6
ByLayer
 62
  256
370
   -1
100
AcDbLine
 10
-24.6045088
 20
38.4338891
 11
-14.0594344
 21
23.3739621
  0
LINE
  5
1C5
100
AcDbEntity
  8
noname
  6
ByLayer
 62
  256
370
   -1
100
AcDbLine
 10
-49.15409260000001
 20
8.910858400000002
 11
-38.60901820000001
 21
-6.1490686
  0
LINE
  5
1C6
100
AcDbEntity
  8
noname
  6
ByLayer
 62
  256
370
   -1
100
AcDbLine
 10
-45.8460948
 20
27.6714461
 11
-35.3010204
 21
12.6115191
  0
LINE
  5
1C7
100
AcDbEntity
  8
noname
  6
ByLayer
 62
  256
370
   -1
100
AcDbLine
 10
-42.53809700000001
 20
46.43203380000001
 11
-31.9930226
 21
31.3721068
  0
LINE
  5
1C8
100
AcDbEntity
  8
noname
  6
ByLayer
 62
  256
370
   -1
100
AcDbLine
 10
-67.08768090000001
 20
16.9090031
 11
-56.54260650000001
 21
1.849076099999998
  0
LINE
  5
1C9
100
AcDbEntity
  8
noname
  6
ByLayer
 62
  256
370
   -1
100
AcDbLine
 10
-63.7796831
 20
35.6695908
 11
-53.2346087
 21
20.6096638
  0
LINE
  5
1CA
100
AcDbEntity
  8
noname
  6
ByLayer
 62
  256
370
   -1
100
AcDbLine
 10
-60.4716853
 20
54.4301785
 11
-49.9266109
 21
39.3702515
  0
LINE
  5
1CB
100
AcDbEntity
  8
noname
  6
ByLayer
 62
  256
370
   -1
100
AcDbLine
 10
-86.67526800000002
 20
15.526854
 11
-76.13019360000001
 21
0.4669269999999983
  0
LINE
  5
1CC
100
AcDbEntity
  8
noname
  6
ByLayer
 62
  256
370
   -1
100
AcDbLine
 10
-83.36727020000001
 20
34.2874417
 11
-72.8221958
 21
19.2275147
  0
LINE
  5
1CD
100
AcDbEntity
  8
noname
  6
ByLayer
 62
  256
370
   -1
100
AcDbLine
 10
-80.05927240000001
 20
53.0480294
 11
-69.51419800000001
 21
37.9881024
  0
LINE
  5
1CE
100
AcDbEntity
  8
noname
  6
ByLayer
 62
  256
370
   -1
100
AcDbLine
 10
-106.2628552
 20
14.1447048
 11
-95.71778080000001
 21
-0.9152222000000023
  0
LINE
  5
1CF
100
AcDbEntity
  8
noname
  6
ByLayer
 62
  256
370
   -1
100
AcDbLine
 10
-102.9548574
 20
32.9052925
 11
-92.409783
 21
17.8453655
  0
LINE
  5
1D0
100
AcDbEntity
  8
noname
  6
ByLayer
 62
  256
370
   -1
100
AcDbLine
 10
-99.64685960000001
 20
51.6658802
 11
-89.10178520000001
 21
36.6059532
  0
LINE
  5
1D1
100
AcDbEntity
  8
noname
  6
ByLayer
 62
  256
370
   -1
100
AcDbLine
 10
-125.8504423
 20
12.7625557
 11
-115.3053679
 21
-2.297371300000002
  0
LINE
  5
1D2
100
AcDbEntity
  8
noname
  6
ByLayer
 62
  256
370
   -1
100
AcDbLine
 10
-122.5424445
 20
31.5231434
 11
-111.9973701
 21
16.4632164
  0
LINE
  5
1D3
100
AcDbEntity
  8
noname
  6
ByLayer
 62
  256
370
   -1
100
AcDbLine
 10
-119.2344467
 20
50.2837311
 11
-108.6893723
 21
35.2238041
  0
ARC
  5
1D4
100
AcDbEntity
  8
noname2
  6
ByLayer
 62
  256
370
   -1
100
AcDbCircle
 10
128.6870965769322
 20
-0.445524811536856
 40
4
100
AcDbArc
 50
279.9999999497306
 51
9.999999949730585
  0
LINE
  5
1D5
100
AcDbEntity
  8
noname2
  6
ByLayer
 62
  256
370
   -1
100
AcDbLine
 10
123.6877877008415
 20
50.9420469207442
 11
132.6263275895904
 21
0.2490678956747097
  0
ARC
  5
1D6
100
AcDbEntity
  8
noname2
  6
ByLayer
 62
  256
370
   -1
100
AcDbCircle
 10
119.7485566881833
 20
50.24745421353264
 40
4
100
AcDbArc
 50
9.999999949730508
 51
85.96375654747013
  0
LINE
  5
1D7
100
AcDbEntity
  8
noname2
  6
ByLayer
 62
  256
370
   -1
100
AcDbLine
 10
65.54128344388101
 20
58.08240074502805
 11
120.030106633871
 21
54.23753311351486
  0
ARC
  5
1D8
100
AcDbEntity
  8
noname2
  6
ByLayer
 62
  256
370
   -1
100
AcDbCircle
 10
62.02190912278544
 20
8.206414495250364
 40
50
100
AcDbArc
 50
85.9637565474701
 51
114.0362434443802
  0
ARC
  5
1D9
100
AcDbEntity
  8
noname2
  6
ByLayer
 62
  256
370
   -1
100
AcDbCircle
 10
-128.6870965769322
 20
-0.445524811536828
 40
4
100
AcDbArc
 50
170.0000000502694
 51
260.0000000502694
  0
LINE
  5
1DA
100
AcDbEntity
  8
noname2
  6
ByLayer
 62
  256
370
   -1
100
AcDbLine
 10
-123.6877877008415
 20
50.94204692074418
 11
-132.6263275895904
 21
0.2490678956746883
  0
ARC
  5
1DB
100
AcDbEntity
  8
noname2
  6
ByLayer
 62
  256
370
   -1
100
AcDbCircle
 10
-119.7485566881833
 20
50.24745421353271
 40
4
100
AcDbArc
 50
94.03624345252987
 51
170.0000000502695
  0
LINE
  5
1DC
100
AcDbEntity
  8
noname2
  6
ByLayer
 62
  256
370
   -1
100
AcDbLine
 10
-65.54128344388101
 20
58.08240074502811
 11
-120.030106633871
 21
54.23753311351489
  0
ARC
  5
1DD
100
AcDbEntity
  8
noname2
  6
ByLayer
 62
  256
370
   -1
100
AcDbCircle
 10
-62.02190912278544
 20
8.20641449525035
 40
50
100
AcDbArc
 50
65.96375655561978
 51
94.0362434525299
  0
LINE
  5
1DE
100
AcDbEntity
  8
noname2
  6
ByLayer
 62
  256
370
   -1
100
AcDbLine
 10
-20.36572203847969
 20
44.37554618246194
 11
-41.65618708430573
 21
53.87081382176488
  0
LINE
  5
1DF
100
AcDbEntity
  8
noname2
  6
ByLayer
 62
  256
370
   -1
100
AcDbLine
 10
20.36572203847972
 20
44.37554618246196
 11
41.65618708430573
 21
53.87081382176491
  0
ARC
  5
1E0
100
AcDbEntity
  8
noname2
  6
ByLayer
 62
  256
370
   -1
100
AcDbCircle
 10
0
 20
90.0399455089765
 40
50
100
AcDbArc
 50
245.9637565556198
 51
294.0362434443802
  0
ARC
  5
1E1
100
AcDbEntity
  8
noname2
  6
ByLayer
 62
  256
370
   -1
100
AcDbCircle
 10
12.87826062292809
 20
6.5
 40
50
100
AcDbArc
 50
270
 51
279.9999999497307
  0
LINE
  5
1E2
100
AcDbEntity
  8
noname2
  6
ByLayer
 62
  256
370
   -1
100
AcDbLine
 10
-12.87826062292802
 20
-43.5
 11
12.87826062292809
 21
-43.5
  0
ARC
  5
1E3
100
AcDbEntity
  8
noname2
  6
ByLayer
 62
  256
370
   -1
100
AcDbCircle
 10
-12.87826062292802
 20
6.5
 40
50
100
AcDbArc
 50
260.0000000502694
 51
270
  0
LINE
  5
1E4
100
AcDbEntity
  8
noname2
  6
ByLayer
 62
  256
370
   -1
100
AcDbLine
 10
93.74290729278842
 20
-10.66883461661757
 11
129.3816892841438
 21
-4.384755824195098
  0
ARC
  5
1E5
100
AcDbEntity
  8
noname2
  6
ByLayer
 62
  256
370
   -1
100
AcDbCircle
 10
94.43749999999999
 20
-14.60806562927581
 40
4
100
AcDbArc
 50
99.99999994973057
 51
180
  0
LINE
  5
1E6
100
AcDbEntity
  8
noname2
  6
ByLayer
 62
  256
370
   -1
100
AcDbLine
 10
90.4375
 20
-14.60806562927581
 11
90.4375
 21
-27.23914562349272
  0
LINE
  5
1E7
100
AcDbEntity
  8
noname2
  6
ByLayer
 62
  256
370
   -1
100
AcDbLine
 10
21.56066946307281
 20
-42.74038765822804
 11
87.13209270721157
 21
-31.17837663615096
  0
ARC
  5
1E8
100
AcDbEntity
  8
noname2
  6
ByLayer
 62
  256
370
   -1
100
AcDbCircle
 10
86.43749999999999
 20
-27.23914562349272
 40
4
100
AcDbArc
 50
279.9999999497308
 51
0
  0
LINE
  5
1E9
100
AcDbEntity
  8
noname2
  6
ByLayer
 62
  256
370
   -1
100
AcDbLine
 10
-93.74290729278842
 20
-10.66883461661758
 11
-129.3816892841438
 21
-4.384755824195095
  0
ARC
  5
1EA
100
AcDbEntity
  8
noname2
  6
ByLayer
 62
  256
370
   -1
100
AcDbCircle
 10
-94.43749999999999
 20
-14.60806562927581
 40
4
100
AcDbArc
 50
0
 51
80.00000005026943
  0
LINE
  5
1EB
100
AcDbEntity
  8
noname2
  6
ByLayer
 62
  256
370
   -1
100
AcDbLine
 10
-90.4375
 20
-14.60806562927581
 11
-90.4375
 21
-27.23914562349272
  0
LINE
  5
1EC
100
AcDbEntity
  8
noname2
  6
ByLayer
 62
  256
370
   -1
100
AcDbLine
 10
-21.56066946307281
 20
-42.74038765822804
 11
-87.13209270721157
 21
-31.17837663615096
  0
ARC
  5
1ED
100
AcDbEntity
  8
noname2
  6
ByLayer
 62
  256
370
   -1
100
AcDbCircle
 10
-86.43749999999999
 20
-27.23914562349272
 40
4
100
AcDbArc
 50
180
 51
260.0000000502692
  0
CIRCLE
  5
1EE
100
AcDbEntity
  8
noname3
  6
ByLayer
 62
  256
370
   -1
100
AcDbCircle
 10
0
 20
33
 40
1.1
  0
LINE
  5
1EF
100
AcDbEntity
  8
noname1
  6
ByLayer
 62
  256
370
   -1
100
AcDbLine
 10
-10
 20
-16.5
 11
10
 21
-16.5
  0
LINE
  5
1F0
100
AcDbEntity
  8
noname1
  6
ByLayer
 62
  256
370
   -1
100
AcDbLine
 10
-10
 20
-16.5
 11
-10
 21
16.5
  0
LINE
  5
1F1
100
AcDbEntity
  8
noname1
  6
ByLayer
 62
  256
370
   -1
100
AcDbLine
 10
10
 20
-16.5
 11
10
 21
16.5
  0
LINE
  5
1F2
100
AcDbEntity
  8
noname1
  6
ByLayer
 62
  256
370
   -1
100
AcDbLine
 10
-10
 20
16.5
 11
10
 21
16.5
  0
LINE
  5
1F3
100
AcDbEntity
  8
noname
  6
ByLayer
 62
  256
370
   -1
100
AcDbLine
 10
-10
 20
16.5
 11
10
 21
-16.5
  0
CIRCLE
  5
1F4
100
AcDbEntity
  8
noname3
  6
ByLayer
 62
  256
370
   -1
100
AcDbCircle
 10
57.1817212
 20
-14.88476129999999
 40
1.1
  0
LINE
  5
1F5
100
AcDbEntity
  8
noname3
  6
ByLayer
 62
  256
370
   -1
100
AcDbLine
 10
65.47089595745911
 20
57.0848810200325
 11
119.9597191474491
 21
53.2400133885193
  0
CIRCLE
  5
1F6
100
AcDbEntity
  8
noname3
  6
ByLayer
 62
  256
370
   -1
100
AcDbCircle
 10
86.64802744026409
 20
33.10162396795552
 40
1.1
  0
ARC
  5
1F7
100
AcDbEntity
  8
noname3
  6
ByLayer
 62
  256
370
   -1
100
AcDbCircle
 10
84.27361346426328
 20
37.78546950878354
 40
1
100
AcDbArc
 50
99.99999994973018
 51
189.9999999497308
  0
LINE
  5
1F8
100
AcDbEntity
  8
noname3
  6
ByLayer
 62
  256
370
   -1
100
AcDbLine
 10
84.09996528746039
 20
38.7702772619481
 11
87.10362901333144
 21
39.29990421507723
  0
ARC
  5
1F9
100
AcDbEntity
  8
noname3
  6
ByLayer
 62
  256
370
   -1
100
AcDbCircle
 10
87.27727719013434
 20
38.31509646191267
 40
1
100
AcDbArc
 50
10.00000009729931
 51
99.99999994973098
  0
LINE
  5
1FA
100
AcDbEntity
  8
noname3
  6
ByLayer
 62
  256
370
   -1
100
AcDbLine
 10
88.26208494285166
 20
38.488744641252
 11
90.00724916644577
 21
28.59142660601959
  0
ARC
  5
1FB
100
AcDbEntity
  8
noname3
  6
ByLayer
 62
  256
370
   -1
100
AcDbCircle
 10
89.02244141372846
 20
28.41777842668026
 40
1
100
AcDbArc
 50
279.999999949731
 51
10.00000009729952
  0
LINE
  5
1FC
100
AcDbEntity
  8
noname3
  6
ByLayer
 62
  256
370
   -1
100
AcDbLine
 10
86.19242583916915
 20
26.90334371589179
 11
89.19608959053136
 21
27.4329706735157
  0
LINE
  5
1FD
100
AcDbEntity
  8
noname3
  6
ByLayer
 62
  256
370
   -1
100
AcDbLine
 10
85.03396990920169
 20
27.71450329225345
 11
83.2888057110987
 21
37.61182133198064
  0
ARC
  5
1FE
100
AcDbEntity
  8
noname3
  6
ByLayer
 62
  256
370
   -1
100
AcDbCircle
 10
86.01877766236625
 20
27.88815146905635
 40
1
100
AcDbArc
 50
189.9999999497307
 51
279.999999949731
  0
ARC
  5
1FF
100
AcDbEntity
  8
noname3
  6
ByLayer
 62
  256
370
   -1
100
AcDbCircle
 10
59.4375
 20
-12.21249999999999
 40
3
100
AcDbArc
 50
0
 51
90
  0
LINE
  5
200
100
AcDbEntity
  8
noname3
  6
ByLayer
 62
  256
370
   -1
100
AcDbLine
 10
62.4375
 20
-12.21249999999999
 11
62.4375
 21
-20.21249999999999
  0
ARC
  5
201
100
AcDbEntity
  8
noname3
  6
ByLayer
 62
  256
370
   -1
100
AcDbCircle
 10
59.4375
 20
-20.21249999999999
 40
3
100
AcDbArc
 50
270
 51
0
  0
LINE
  5
202
100
AcDbEntity
  8
noname3
  6
ByLayer
 62
  256
370
   -1
100
AcDbLine
 10
55.0382036503402
 20
-23.21249999999999
 11
59.4375
 21
-23.21249999999999
  0
ARC
  5
203
100
AcDbEntity
  8
noname3
  6
ByLayer
 62
  256
370
   -1
100
AcDbCircle
 10
55.0382036503402
 20
-20.21249999999999
 40
3
100
AcDbArc
 50
189.9999999497305
 51
270
  0
LINE
  5
204
100
AcDbEntity
  8
noname3
  6
ByLayer
 62
  256
370
   -1
100
AcDbLine
 10
50.67316455241596
 20
-12.73344453040867
 11
52.08378039084652
 21
-20.73344453040867
  0
LINE
  5
205
100
AcDbEntity
  8
noname3
  6
ByLayer
 62
  256
370
   -1
100
AcDbLine
 10
53.62758781190964
 20
-9.212499999999991
 11
59.4375
 21
-9.212499999999991
  0
ARC
  5
206
100
AcDbEntity
  8
noname3
  6
ByLayer
 62
  256
370
   -1
100
AcDbCircle
 10
53.62758781190964
 20
-12.21249999999999
 40
3
100
AcDbArc
 50
90
 51
189.9999999497306
  0
ARC
  5
207
100
AcDbEntity
  8
noname3
  6
ByLayer
 62
  256
370
   -1
100
AcDbCircle
 10
62.02190912278544
 20
8.206414495250364
 40
49
100
AcDbArc
 50
85.9637565474701
 51
114.0362434443802
  0
LINE
  5
208
100
AcDbEntity
  8
noname3
  6
ByLayer
 62
  256
370
   -1
100
AcDbLine
 10
-12.87826062292802
 20
-42.5
 11
12.87826062292809
 21
-42.5
  0
ARC
  5
209
100
AcDbEntity
  8
noname3
  6
ByLayer
 62
  256
370
   -1
100
AcDbCircle
 10
12.87826062292809
 20
6.5
 40
49
100
AcDbArc
 50
270
 51
279.9999999497307
  0
LINE
  5
20A
100
AcDbEntity
  8
noname3
  6
ByLayer
 62
  256
370
   -1
100
AcDbLine
 10
21.38702128626991
 20
-41.75557990506348
 11
86.95844453040867
 21
-30.1935688829864
  0
ARC
  5
20B
100
AcDbEntity
  8
noname3
  6
ByLayer
 62
  256
370
   -1
100
AcDbCircle
 10
86.43749999999999
 20
-27.23914562349272
 40
3
100
AcDbArc
 50
279.9999999497308
 51
0
  0
LINE
  5
20C
100
AcDbEntity
  8
noname3
  6
ByLayer
 62
  256
370
   -1
100
AcDbLine
 10
89.4375
 20
-14.60806562927581
 11
89.4375
 21
-27.23914562349272
  0
ARC
  5
20D
100
AcDbEntity
  8
noname3
  6
ByLayer
 62
  256
370
   -1
100
AcDbCircle
 10
94.43749999999999
 20
-14.60806562927581
 40
5
100
AcDbArc
 50
99.99999994973057
 51
180
  0
LINE
  5
20E
100
AcDbEntity
  8
noname3
  6
ByLayer
 62
  256
370
   -1
100
AcDbLine
 10
93.56925911598552
 20
-9.684026863453008
 11
129.2080411073409
 21
-3.399948071030537
  0
ARC
  5
20F
100
AcDbEntity
  8
noname3
  6
ByLayer
 62
  256
370
   -1
100
AcDbCircle
 10
128.6870965769322
 20
-0.445524811536856
 40
3
100
AcDbArc
 50
279.9999999497306
 51
9.999999949730585
  0
LINE
  5
210
100
AcDbEntity
  8
noname3
  6
ByLayer
 62
  256
370
   -1
100
AcDbLine
 10
122.702979947677
 20
50.76839874394131
 11
131.6415198364258
 21
0.0754197188718182
  0
ARC
  5
211
100
AcDbEntity
  8
noname3
  6
ByLayer
 62
  256
370
   -1
100
AcDbCircle
 10
119.7485566881833
 20
50.24745421353264
 40
3
100
AcDbArc
 50
9.999999949730508
 51
85.96375654747013
  0
CIRCLE
  5
212
100
AcDbEntity
  8
noname3
  6
ByLayer
 62
  256
370
   -1
100
AcDbCircle
 10
-57.18172119999995
 20
-14.88476130000002
 40
1.1
  0
CIRCLE
  5
213
100
AcDbEntity
  8
noname3
  6
ByLayer
 62
  256
370
   -1
100
AcDbCircle
 10
-86.64802744026406
 20
33.10162396795549
 40
1.1
  0
ARC
  5
214
100
AcDbEntity
  8
noname3
  6
ByLayer
 62
  256
370
   -1
100
AcDbCircle
 10
-84.27361346426325
 20
37.78546950878351
 40
1
100
AcDbArc
 50
350.0000000502691
 51
80.00000005026988
  0
LINE
  5
215
100
AcDbEntity
  8
noname3
  6
ByLayer
 62
  256
370
   -1
100
AcDbLine
 10
-84.09996528746036
 20
38.77027726194807
 11
-87.10362901333141
 21
39.29990421507721
  0
ARC
  5
216
100
AcDbEntity
  8
noname3
  6
ByLayer
 62
  256
370
   -1
100
AcDbCircle
 10
-87.27727719013431
 20
38.31509646191262
 40
1
100
AcDbArc
 50
80.00000005026905
 51
169.9999999027007
  0
LINE
  5
217
100
AcDbEntity
  8
noname3
  6
ByLayer
 62
  256
370
   -1
100
AcDbLine
 10
-88.26208494285163
 20
38.48874464125194
 11
-90.00724916644575
 21
28.59142660601952
  0
ARC
  5
218
100
AcDbEntity
  8
noname3
  6
ByLayer
 62
  256
370
   -1
100
AcDbCircle
 10
-89.02244141372843
 20
28.4177784266802
 40
1
100
AcDbArc
 50
169.9999999027005
 51
260.0000000502691
  0
LINE
  5
219
100
AcDbEntity
  8
noname3
  6
ByLayer
 62
  256
370
   -1
100
AcDbLine
 10
-86.19242583916912
 20
26.90334371589174
 11
-89.19608959053133
 21
27.43297067351566
  0
LINE
  5
21A
100
AcDbEntity
  8
noname3
  6
ByLayer
 62
  256
370
   -1
100
AcDbLine
 10
-85.03396990920166
 20
27.71450329225343
 11
-83.28880571109868
 21
37.61182133198064
  0
ARC
  5
21B
100
AcDbEntity
  8
noname3
  6
ByLayer
 62
  256
370
   -1
100
AcDbCircle
 10
-86.01877766236622
 20
27.88815146905628
 40
1
100
AcDbArc
 50
260.0000000502691
 51
350.0000000502693
  0
ARC
  5
21C
100
AcDbEntity
  8
noname3
  6
ByLayer
 62
  256
370
   -1
100
AcDbCircle
 10
-59.43749999999995
 20
-12.21250000000001
 40
3
100
AcDbArc
 50
90.00000000000003
 51
180
  0
LINE
  5
21D
100
AcDbEntity
  8
noname3
  6
ByLayer
 62
  256
370
   -1
100
AcDbLine
 10
-62.43749999999995
 20
-12.21250000000001
 11
-62.43749999999995
 21
-20.21250000000001
  0
ARC
  5
21E
100
AcDbEntity
  8
noname3
  6
ByLayer
 62
  256
370
   -1
100
AcDbCircle
 10
-59.43749999999995
 20
-20.21250000000001
 40
3
100
AcDbArc
 50
180
 51
270
  0
LINE
  5
21F
100
AcDbEntity
  8
noname3
  6
ByLayer
 62
  256
370
   -1
100
AcDbLine
 10
-55.03820365034014
 20
-23.21250000000001
 11
-59.43749999999994
 21
-23.21250000000001
  0
ARC
  5
220
100
AcDbEntity
  8
noname3
  6
ByLayer
 62
  256
370
   -1
100
AcDbCircle
 10
-55.03820365034015
 20
-20.21250000000001
 40
3
100
AcDbArc
 50
270
 51
350.0000000502695
  0
LINE
  5
221
100
AcDbEntity
  8
noname3
  6
ByLayer
 62
  256
370
   -1
100
AcDbLine
 10
-50.67316455241591
 20
-12.73344453040868
 11
-52.08378039084646
 21
-20.73344453040869
  0
LINE
  5
222
100
AcDbEntity
  8
noname3
  6
ByLayer
 62
  256
370
   -1
100
AcDbLine
 10
-53.62758781190959
 20
-9.212500000000006
 11
-59.43749999999995
 21
-9.212500000000006
  0
ARC
  5
223
100
AcDbEntity
  8
noname3
  6
ByLayer
 62
  256
370
   -1
100
AcDbCircle
 10
-53.62758781190959
 20
-12.21250000000001
 40
3
100
AcDbArc
 50
350.0000000502694
 51
90
  0
LINE
  5
224
100
AcDbEntity
  8
noname3
  6
ByLayer
 62
  256
370
   -1
100
AcDbLine
 10
-65.47089595745909
 20
57.0848810200325
 11
-119.959719147449
 21
53.24001338851927
  0
ARC
  5
225
100
AcDbEntity
  8
noname3
  6
ByLayer
 62
  256
370
   -1
100
AcDbCircle
 10
-62.0219091227854
 20
8.206414495250336
 40
49
100
AcDbArc
 50
65.96375655561981
 51
94.03624345252993
  0
ARC
  5
226
100
AcDbEntity
  8
noname3
  6
ByLayer
 62
  256
370
   -1
100
AcDbCircle
 10
-12.87826062292805
 20
6.500000000000014
 40
49
100
AcDbArc
 50
260.0000000502694
 51
270
  0
LINE
  5
227
100
AcDbEntity
  8
noname3
  6
ByLayer
 62
  256
370
   -1
100
AcDbLine
 10
-21.38702128626985
 20
-41.7555799050635
 11
-86.95844453040861
 21
-30.19356888298644
  0
ARC
  5
228
100
AcDbEntity
  8
noname3
  6
ByLayer
 62
  256
370
   -1
100
AcDbCircle
 10
-86.43749999999993
 20
-27.23914562349276
 40
3
100
AcDbArc
 50
180
 51
260.0000000502693
  0
LINE
  5
229
100
AcDbEntity
  8
noname3
  6
ByLayer
 62
  256
370
   -1
100
AcDbLine
 10
-89.43749999999994
 20
-14.60806562927585
 11
-89.43749999999994
 21
-27.23914562349276
  0
ARC
  5
22A
100
AcDbEntity
  8
noname3
  6
ByLayer
 62
  256
370
   -1
100
AcDbCircle
 10
-94.43749999999993
 20
-14.60806562927586
 40
5
100
AcDbArc
 50
2.544443745170813e-14
 51
80.00000005026945
  0
LINE
  5
22B
100
AcDbEntity
  8
noname3
  6
ByLayer
 62
  256
370
   -1
100
AcDbLine
 10
-93.56925911598547
 20
-9.684026863453033
 11
-129.2080411073408
 21
-3.399948071030606
  0
ARC
  5
22C
100
AcDbEntity
  8
noname3
  6
ByLayer
 62
  256
370
   -1
100
AcDbCircle
 10
-128.6870965769321
 20
-0.4455248115369133
 40
3
100
AcDbArc
 50
170.0000000502694
 51
260.0000000502695
  0
LINE
  5
22D
100
AcDbEntity
  8
noname3
  6
ByLayer
 62
  256
370
   -1
100
AcDbLine
 10
-122.702979947677
 20
50.76839874394127
 11
-131.6415198364258
 21
0.07541971887176668
  0
ARC
  5
22E
100
AcDbEntity
  8
noname3
  6
ByLayer
 62
  256
370
   -1
100
AcDbCircle
 10
-119.7485566881833
 20
50.2474542135326
 40
3
100
AcDbArc
 50
94.0362434525299
 51
170.0000000502695
  0
ARC
  5
22F
100
AcDbEntity
  8
noname3
  6
ByLayer
 62
  256
370
   -1
100
AcDbCircle
 10
4
 20
27
 40
3
100
AcDbArc
 50
270
 51
0
  0
LINE
  5
230
100
AcDbEntity
  8
noname3
  6
ByLayer
 62
  256
370
   -1
100
AcDbLine
 10
-4
 20
24
 11
4
 21
24
  0
ARC
  5
231
100
AcDbEntity
  8
noname3
  6
ByLayer
 62
  256
370
   -1
100
AcDbCircle
 10
-4
 20
27
 40
3
100
AcDbArc
 50
180
 51
270
  0
LINE
  5
232
100
AcDbEntity
  8
noname3
  6
ByLayer
 62
  256
370
   -1
100
AcDbLine
 10
-8.778056677691216
 20
38.11265482659822
 11
-42.0635015250753
 21
52.95752583523462
  0
LINE
  5
233
100
AcDbEntity
  8
noname3
  6
ByLayer
 62
  256
370
   -1
100
AcDbLine
 10
-7
 20
27
 11
-7
 21
35.37279086700734
  0
ARC
  5
234
100
AcDbEntity
  8
noname3
  6
ByLayer
 62
  256
370
   -1
100
AcDbCircle
 10
-10
 20
35.37279086700734
 40
3
100
AcDbArc
 50
0
 51
65.96375655561982
  0
LINE
  5
235
100
AcDbEntity
  8
noname3
  6
ByLayer
 62
  256
370
   -1
100
AcDbLine
 10
8.778056677691216
 20
38.1126548265982
 11
42.06350152507532
 21
52.95752583523462
  0
LINE
  5
236
100
AcDbEntity
  8
noname3
  6
ByLayer
 62
  256
370
   -1
100
AcDbLine
 10
7
 20
27
 11
7
 21
35.37279086700733
  0
ARC
  5
237
100
AcDbEntity
  8
noname3
  6
ByLayer
 62
  256
370
   -1
100
AcDbCircle
 10
10
 20
35.37279086700733
 40
3
100
AcDbArc
 50
114.0362434443802
 51
180
  0
LWPOLYLINE
  5
238
100
AcDbEntity
  8
noname3
  6
ByLayer
 62
  256
370
   -1
100
AcDbPolyline
 90
    8
 70
    1
 43
0
 10
-2
 20
-16
 10
2
 20
-16
 42
0.414213562373095
 10
5
 20
-13
 10
5
 20
-8
 42
0.414213562373095
 10
2
 20
-5
 10
-2
 20
-5
 42
0.414213562373095
 10
-5
 20
-8
 10
-5
 20
-13
 42
0.414213562373095
  0
LINE
  5
239
100
AcDbEntity
  8
noname
  6
ByLayer
 62
  256
370
   -1
100
AcDbLine
 10
-122.0171587464273
 20
34.50218692325949
 11
-109.2146579464273
 21
32.24476062325949
  0
LINE
  5
23A
100
AcDbEntity
  8
noname
  6
ByLayer
 62
  256
370
   -1
100
AcDbLine
 10
-102.4295716464273
 20
35.88433602325949
 11
-89.62707084642732
 21
33.62690972325949
  0
LINE
  5
23B
100
AcDbEntity
  8
noname
  6
ByLayer
 62
  256
370
   -1
100
AcDbLine
 10
-105.7375694464273
 20
17.12374832325949
 11
-92.93506864642733
 21
14.86632202325949
  0
LINE
  5
23C
100
AcDbEntity
  8
noname
  6
ByLayer
 62
  256
370
   -1
100
AcDbLine
 10
-125.3251565464273
 20
15.74159922325948
 11
-112.5226557464273
 21
13.48417292325949
  0
LINE
  5
23D
100
AcDbEntity
  8
noname
  6
ByLayer
 62
  256
370
   -1
100
AcDbLine
 10
-110.0688981232595
 20
9.979843753572693
 11
-112.3263244232595
 21
-2.822657046427305
  0
LINE
  5
23E
100
AcDbEntity
  8
noname
  6
ByLayer
 62
  256
370
   -1
100
AcDbLine
 10
-109.0455672464273
 20
-1.636839376740512
 11
-96.24306644642732
 21
-3.894265676740518
  0
LINE
  5
23F
100
AcDbEntity
  8
noname
  6
ByLayer
 62
  256
370
   -1
100
AcDbLine
 10
-89.45798004642732
 20
-0.2546901767405112
 11
-76.65547924642732
 21
-2.512116476740517
  0
LINE
  5
240
100
AcDbEntity
  8
noname
  6
ByLayer
 62
  256
370
   -1
100
AcDbLine
 10
-86.14998224642731
 20
18.50589752325948
 11
-73.34748144642732
 21
16.24847122325949
  0
LINE
  5
241
100
AcDbEntity
  8
noname
  6
ByLayer
 62
  256
370
   -1
100
AcDbLine
 10
-82.84198454642733
 20
37.26648522325949
 11
-70.03948374642732
 21
35.00905892325949
  0
LINE
  5
242
100
AcDbEntity
  8
noname
  6
ByLayer
 62
  256
370
   -1
100
AcDbLine
 10
-66.56239514642732
 20
19.88804662325948
 11
-53.75989434642731
 21
17.63062032325949
  0
LINE
  5
243
100
AcDbEntity
  8
noname
  6
ByLayer
 62
  256
370
   -1
100
AcDbLine
 10
-69.87039294642732
 20
1.127458923259481
 11
-57.06789214642732
 21
-1.129967376740511
  0
LINE
  5
244
100
AcDbEntity
  8
noname
  6
ByLayer
 62
  256
370
   -1
100
AcDbLine
 10
-77.9375
 20
-25.73749999999999
 11
-64.9375
 21
-25.73749999999999
  0
LINE
  5
245
100
AcDbEntity
  8
noname
  6
ByLayer
 62
  256
370
   -1
100
AcDbLine
 10
-48.9006567535727
 20
-17.07797912325948
 11
-36.09815595357269
 21
-19.33540542325949
  0
LINE
  5
246
100
AcDbEntity
  8
noname
  6
ByLayer
 62
  256
370
   -1
100
AcDbLine
 10
-51.93680464642731
 20
-6.870685776740516
 11
-39.13430384642731
 21
-9.128112076740507
  0
LINE
  5
247
100
AcDbEntity
  8
noname
  6
ByLayer
 62
  256
370
   -1
100
AcDbLine
 10
-48.6288069535727
 20
11.88990187674052
 11
-35.82630615357269
 21
9.63247557674052
  0
LINE
  5
248
100
AcDbEntity
  8
noname
  6
ByLayer
 62
  256
370
   -1
100
AcDbLine
 10
-45.32080914642732
 20
30.65048962325949
 11
-32.51830834642731
 21
28.39306332325949
  0
LINE
  5
249
100
AcDbEntity
  8
noname
  6
ByLayer
 62
  256
370
   -1
100
AcDbLine
 10
-63.2543974535727
 20
38.64863427674052
 11
-50.4518966535727
 21
36.39120797674052
  0
LINE
  5
24A
100
AcDbEntity
  8
noname
  6
ByLayer
 62
  256
370
   -1
100
AcDbLine
 10
-6.500000000000001
 20
-40.025
 11
6.499999999999999
 21
-40.025
  0
LINE
  5
24B
100
AcDbEntity
  8
noname
  6
ByLayer
 62
  256
370
   -1
100
AcDbLine
 10
-34.00321644642731
 20
-14.86883047674051
 11
-21.20071564642731
 21
-17.12625677674052
  0
LINE
  5
24C
100
AcDbEntity
  8
noname
  6
ByLayer
 62
  256
370
   -1
100
AcDbLine
 10
-30.6952187535727
 20
3.891757176740513
 11
-17.89271795357269
 21
1.634330876740522
  0
LINE
  5
24D
100
AcDbEntity
  8
noname
  6
ByLayer
 62
  256
370
   -1
100
AcDbLine
 10
-27.38722084642732
 20
22.65234492325948
 11
-14.58472004642731
 21
20.39491862325949
  0
LINE
  5
24E
100
AcDbEntity
  8
noname
  6
ByLayer
 62
  256
370
   -1
100
AcDbLine
 10
14.58472015357269
 20
20.39491857674052
 11
27.38722095357269
 21
22.65234487674052
  0
LINE
  5
24F
100
AcDbEntity
  8
noname
  6
ByLayer
 62
  256
370
   -1
100
AcDbLine
 10
17.89271784642731
 20
1.634330923259482
 11
30.6952186464273
 21
3.891757223259488
  0
LINE
  5
250
100
AcDbEntity
  8
noname
  6
ByLayer
 62
  256
370
   -1
100
AcDbLine
 10
21.20071564642729
 20
-17.12625677674052
 11
34.00321644642731
 21
-14.86883047674051
  0
LINE
  5
251
100
AcDbEntity
  8
noname
  6
ByLayer
 62
  256
370
   -1
100
AcDbLine
 10
36.09815595357269
 20
-19.33540542325949
 11
48.90065675357268
 21
-17.07797912325948
  0
LINE
  5
252
100
AcDbEntity
  8
noname
  6
ByLayer
 62
  256
370
   -1
100
AcDbLine
 10
64.9375
 20
-25.73749999999999
 11
77.9375
 21
-25.73749999999999
  0
LINE
  5
253
100
AcDbEntity
  8
noname
  6
ByLayer
 62
  256
370
   -1
100
AcDbLine
 10
39.13430384642729
 20
-9.128112076740509
 11
51.93680464642731
 21
-6.870685776740517
  0
LINE
  5
254
100
AcDbEntity
  8
noname
  6
ByLayer
 62
  256
370
   -1
100
AcDbLine
 10
35.82630615357268
 20
9.63247557674052
 11
48.6288069535727
 21
11.88990187674052
  0
LINE
  5
255
100
AcDbEntity
  8
noname
  6
ByLayer
 62
  256
370
   -1
100
AcDbLine
 10
32.5183083535727
 20
28.39306327674052
 11
45.32080915357269
 21
30.65048957674052
  0
LINE
  5
256
100
AcDbEntity
  8
noname
  6
ByLayer
 62
  256
370
   -1
100
AcDbLine
 10
50.4518966535727
 20
36.39120797674052
 11
63.25439745357269
 21
38.64863427674052
  0
LINE
  5
257
100
AcDbEntity
  8
noname
  6
ByLayer
 62
  256
370
   -1
100
AcDbLine
 10
53.75989445357268
 20
17.63062027674052
 11
66.56239525357269
 21
19.88804657674052
  0
LINE
  5
258
100
AcDbEntity
  8
noname
  6
ByLayer
 62
  256
370
   -1
100
AcDbLine
 10
57.06789214642729
 20
-1.129967376740511
 11
69.8703929464273
 21
1.12745892325948
  0
LINE
  5
259
100
AcDbEntity
  8
noname
  6
ByLayer
 62
  256
370
   -1
100
AcDbLine
 10
76.6554792464273
 20
-2.512116476740517
 11
89.45798004642729
 21
-0.2546901767405112
  0
LINE
  5
25A
100
AcDbEntity
  8
noname
  6
ByLayer
 62
  256
370
   -1
100
AcDbLine
 10
73.34748144642728
 20
16.24847122325949
 11
86.1499822464273
 21
18.50589752325948
  0
LINE
  5
25B
100
AcDbEntity
  8
noname
  6
ByLayer
 62
  256
370
   -1
100
AcDbLine
 10
70.03948374642729
 20
35.00905892325949
 11
82.84198454642728
 21
37.26648522325949
  0
LINE
  5
25C
100
AcDbEntity
  8
noname
  6
ByLayer
 62
  256
370
   -1
100
AcDbLine
 10
89.62707095357268
 20
33.62690967674052
 11
102.4295717535727
 21
35.88433597674052
  0
LINE
  5
25D
100
AcDbEntity
  8
noname
  6
ByLayer
 62
  256
370
   -1
100
AcDbLine
 10
92.93506875357268
 20
14.86632197674052
 11
105.7375695535727
 21
17.12374827674052
  0
LINE
  5
25E
100
AcDbEntity
  8
noname
  6
ByLayer
 62
  256
370
   -1
100
AcDbLine
 10
96.24306644642731
 20
-3.894265676740518
 11
109.0455672464273
 21
-1.636839376740512
  0
LINE
  5
25F
100
AcDbEntity
  8
noname
  6
ByLayer
 62
  256
370
   -1
100
AcDbLine
 10
109.2146579464273
 20
32.24476062325949
 11
122.0171587464273
 21
34.50218692325949
  0
LINE
  5
260
100
AcDbEntity
  8
noname
  6
ByLayer
 62
  256
370
   -1
100
AcDbLine
 10
112.5226557464273
 20
13.48417292325948
 11
125.3251565464273
 21
15.74159922325948
  0
LINE
  5
261
100
AcDbEntity
  8
noname
  6
ByLayer
 62
  256
370
   -1
100
AcDbLine
 10
110.0688981232595
 20
9.979843753572696
 11
112.3263244232595
 21
-2.822657046427301
  0
ARC
  5
262
100
AcDbEntity
  8
noname4
  6
ByLayer
 62
  256
370
   -1
100
AcDbCircle
 10
62.02190912278544
 20
8.206414495250364
 40
50.5
100
AcDbArc
 50
85.9637565474701
 51
114.0362434443802
  0
LINE
  5
263
100
AcDbEntity
  8
noname4
  6
ByLayer
 62
  256
370
   -1
100
AcDbLine
 10
65.57647718709197
 20
58.58116060752583
 11
120.0653003770819
 21
54.73629297601263
  0
ARC
  5
264
100
AcDbEntity
  8
noname4
  6
ByLayer
 62
  256
370
   -1
100
AcDbCircle
 10
119.7485566881833
 20
50.24745421353264
 40
4.5
100
AcDbArc
 50
9.999999949730508
 51
85.96375654747013
  0
LINE
  5
265
100
AcDbEntity
  8
noname4
  6
ByLayer
 62
  256
370
   -1
100
AcDbLine
 10
124.1801915774238
 20
51.02887100914565
 11
133.1187314661727
 21
0.3358919840761554
  0
ARC
  5
266
100
AcDbEntity
  8
noname4
  6
ByLayer
 62
  256
370
   -1
100
AcDbCircle
 10
128.6870965769322
 20
-0.445524811536856
 40
4.5
100
AcDbArc
 50
279.9999999497306
 51
9.999999949730585
  0
LINE
  5
267
100
AcDbEntity
  8
noname4
  6
ByLayer
 62
  256
370
   -1
100
AcDbLine
 10
93.82973138118986
 20
-11.16123849319985
 11
129.4685133725452
 21
-4.877159700777379
  0
ARC
  5
268
100
AcDbEntity
  8
noname4
  6
ByLayer
 62
  256
370
   -1
100
AcDbCircle
 10
94.43749999999999
 20
-14.60806562927581
 40
3.5
100
AcDbArc
 50
99.99999994973057
 51
180
  0
LINE
  5
269
100
AcDbEntity
  8
noname4
  6
ByLayer
 62
  256
370
   -1
100
AcDbLine
 10
90.9375
 20
-14.60806562927581
 11
90.9375
 21
-27.23914562349272
  0
ARC
  5
26A
100
AcDbEntity
  8
noname4
  6
ByLayer
 62
  256
370
   -1
100
AcDbCircle
 10
86.43749999999999
 20
-27.23914562349272
 40
4.5
100
AcDbArc
 50
279.9999999497308
 51
0
  0
LINE
  5
26B
100
AcDbEntity
  8
noname4
  6
ByLayer
 62
  256
370
   -1
100
AcDbLine
 10
21.64749355147425
 20
-43.23279153481032
 11
87.21891679561301
 21
-31.67078051273324
  0
LINE
  5
26C
100
AcDbEntity
  8
noname4
  6
ByLayer
 62
  256
370
   -1
100
AcDbLine
 10
20.16206481809492
 20
44.83219017572711
 11
41.45252986392093
 21
54.32745781503006
  0
ARC
  5
26D
100
AcDbEntity
  8
noname4
  6
ByLayer
 62
  256
370
   -1
100
AcDbCircle
 10
-62.02190912278544
 20
8.20641449525035
 40
50.5
100
AcDbArc
 50
65.96375655561978
 51
94.0362434525299
  0
LINE
  5
26E
100
AcDbEntity
  8
noname4
  6
ByLayer
 62
  256
370
   -1
100
AcDbLine
 10
-65.57647718709197
 20
58.58116060752583
 11
-120.0653003770819
 21
54.73629297601263
  0
ARC
  5
26F
100
AcDbEntity
  8
noname4
  6
ByLayer
 62
  256
370
   -1
100
AcDbCircle
 10
-119.7485566881833
 20
50.24745421353266
 40
4.5
100
AcDbArc
 50
94.03624345252987
 51
170.0000000502695
  0
LINE
  5
270
100
AcDbEntity
  8
noname4
  6
ByLayer
 62
  256
370
   -1
100
AcDbLine
 10
-124.1801915774238
 20
51.02887100914565
 11
-133.1187314661727
 21
0.335891984076142
  0
ARC
  5
271
100
AcDbEntity
  8
noname4
  6
ByLayer
 62
  256
370
   -1
100
AcDbCircle
 10
-128.6870965769322
 20
-0.4455248115368564
 40
4.5
100
AcDbArc
 50
170.0000000502694
 51
260.0000000502694
  0
LINE
  5
272
100
AcDbEntity
  8
noname4
  6
ByLayer
 62
  256
370
   -1
100
AcDbLine
 10
-93.82973138118986
 20
-11.16123849319986
 11
-129.4685133725452
 21
-4.877159700777374
  0
ARC
  5
273
100
AcDbEntity
  8
noname4
  6
ByLayer
 62
  256
370
   -1
100
AcDbCircle
 10
-94.43749999999999
 20
-14.6080656292758
 40
3.5
100
AcDbArc
 50
0
 51
80.00000005026943
  0
LINE
  5
274
100
AcDbEntity
  8
noname4
  6
ByLayer
 62
  256
370
   -1
100
AcDbLine
 10
-90.9375
 20
-14.6080656292758
 11
-90.9375
 21
-27.23914562349272
  0
ARC
  5
275
100
AcDbEntity
  8
noname4
  6
ByLayer
 62
  256
370
   -1
100
AcDbCircle
 10
-86.43749999999999
 20
-27.23914562349272
 40
4.5
100
AcDbArc
 50
180
 51
260.0000000502692
  0
LINE
  5
276
100
AcDbEntity
  8
noname4
  6
ByLayer
 62
  256
370
   -1
100
AcDbLine
 10
-21.64749355147425
 20
-43.23279153481032
 11
-87.21891679561301
 21
-31.67078051273324
  0
LINE
  5
277
100
AcDbEntity
  8
noname4
  6
ByLayer
 62
  256
370
   -1
100
AcDbLine
 10
-20.16206481809492
 20
44.83219017572711
 11
-41.45252986392093
 21
54.32745781503003
  0
ARC
  5
278
100
AcDbEntity
  8
noname4
  6
ByLayer
 62
  256
370
   -1
100
AcDbCircle
 10
0
 20
90.0399455089765
 40
49.5
100
AcDbArc
 50
245.9637565556198
 51
294.0362434443802
  0
LINE
  5
279
100
AcDbEntity
  8
noname4
  6
ByLayer
 62
  256
370
   -1
100
AcDbLine
 10
-12.87826062292802
 20
-44
 11
12.87826062292809
 21
-44
  0
ARC
  5
27A
100
AcDbEntity
  8
noname4
  6
ByLayer
 62
  256
370
   -1
100
AcDbCircle
 10
12.87826062292809
 20
6.5
 40
50.5
100
AcDbArc
 50
270
 51
279.9999999497307
  0
ARC
  5
27B
100
AcDbEntity
  8
noname4
  6
ByLayer
 62
  256
370
   -1
100
AcDbCircle
 10
-12.87826062292802
 20
6.5
 40
50.5
100
AcDbArc
 50
260.0000000502694
 51
270
  0
LINE
  5
27C
100
AcDbEntity
  8
noname4
  6
ByLayer
 62
  256
370
   -1
100
AcDbLine
 10
65.92841461920153
 20
63.5687592325036
 11
120.4172378091915
 21
59.72389160099041
  0
ARC
  5
27D
100
AcDbEntity
  8
noname4
  6
ByLayer
 62
  256
370
   -1
100
AcDbCircle
 10
119.7485566881833
 20
50.24745421353264
 40
9.5
100
AcDbArc
 50
9.999999949730508
 51
85.96375654747013
  0
LINE
  5
27E
100
AcDbEntity
  8
noname4
  6
ByLayer
 62
  256
370
   -1
100
AcDbLine
 10
129.1042303432466
 20
51.8971118931601
 11
138.0427702319955
 21
1.204132868090613
  0
ARC
  5
27F
100
AcDbEntity
  8
noname4
  6
ByLayer
 62
  256
370
   -1
100
AcDbCircle
 10
128.6870965769322
 20
-0.445524811536856
 40
9.5
100
AcDbArc
 50
279.9999999497306
 51
9.999999949730585
  0
ARC
  5
280
100
AcDbEntity
  8
noname4
  6
ByLayer
 62
  256
370
   -1
100
AcDbCircle
 10
86.43749999999999
 20
-27.23914562349272
 40
9.5
100
AcDbArc
 50
279.9999999497308
 51
0
  0
LINE
  5
281
100
AcDbEntity
  8
noname4
  6
ByLayer
 62
  256
370
   -1
100
AcDbLine
 10
22.51573443548872
 20
-48.15683030063313
 11
88.08715767962748
 21
-36.59481927855605
  0
ARC
  5
282
100
AcDbEntity
  8
noname4
  6
ByLayer
 62
  256
370
   -1
100
AcDbCircle
 10
12.87826062292809
 20
6.5
 40
55.5
100
AcDbArc
 50
270
 51
279.9999999497307
  0
LINE
  5
283
100
AcDbEntity
  8
noname4
  6
ByLayer
 62
  256
370
   -1
100
AcDbLine
 10
-12.87826062292803
 20
-49
 11
12.87826062292809
 21
-49
  0
ARC
  5
284
100
AcDbEntity
  8
noname4
  6
ByLayer
 62
  256
370
   -1
100
AcDbCircle
 10
62.02190912278544
 20
8.206414495250364
 40
55.5
100
AcDbArc
 50
85.9637565474701
 51
114.0362434443802
  0
LINE
  5
285
100
AcDbEntity
  8
noname4
  6
ByLayer
 62
  256
370
   -1
100
AcDbLine
 10
18.12549261424695
 20
49.39863010837856
 11
39.41595766007296
 21
58.89389774768151
  0
ARC
  5
286
100
AcDbEntity
  8
noname4
  6
ByLayer
 62
  256
370
   -1
100
AcDbCircle
 10
0
 20
90.0399455089765
 40
44.5
100
AcDbArc
 50
245.9637565556198
 51
294.0362434443802
  0
LINE
  5
287
100
AcDbEntity
  8
noname4
  6
ByLayer
 62
  256
370
   -1
100
AcDbLine
 10
-18.12549261424695
 20
49.39863010837856
 11
-39.41595766007296
 21
58.89389774768149
  0
ARC
  5
288
100
AcDbEntity
  8
noname4
  6
ByLayer
 62
  256
370
   -1
100
AcDbCircle
 10
-62.02190912278544
 20
8.20641449525035
 40
55.5
100
AcDbArc
 50
65.96375655561978
 51
94.0362434525299
  0
LINE
  5
289
100
AcDbEntity
  8
noname4
  6
ByLayer
 62
  256
370
   -1
100
AcDbLine
 10
-65.92841461920152
 20
63.5687592325036
 11
-120.4172378091915
 21
59.72389160099041
  0
ARC
  5
28A
100
AcDbEntity
  8
noname4
  6
ByLayer
 62
  256
370
   -1
100
AcDbCircle
 10
-119.7485566881833
 20
50.24745421353266
 40
9.5
100
AcDbArc
 50
94.03624345252987
 51
170.0000000502695
  0
LINE
  5
28B
100
AcDbEntity
  8
noname4
  6
ByLayer
 62
  256
370
   -1
100
AcDbLine
 10
-129.1042303432466
 20
51.89711189316011
 11
-138.0427702319955
 21
1.204132868090603
  0
ARC
  5
28C
100
AcDbEntity
  8
noname4
  6
ByLayer
 62
  256
370
   -1
100
AcDbCircle
 10
-128.6870965769322
 20
-0.4455248115368564
 40
9.5
100
AcDbArc
 50
170.0000000502694
 51
260.0000000502694
  0
ARC
  5
28D
100
AcDbEntity
  8
noname4
  6
ByLayer
 62
  256
370
   -1
100
AcDbCircle
 10
-86.43749999999999
 20
-27.23914562349272
 40
9.5
100
AcDbArc
 50
180
 51
260.0000000502692
  0
LINE
  5
28E
100
AcDbEntity
  8
noname4
  6
ByLayer
 62
  256
370
   -1
100
AcDbLine
 10
-22.51573443548872
 20
-48.15683030063313
 11
-88.08715767962748
 21
-36.59481927855605
  0
ARC
  5
28F
100
AcDbEntity
  8
noname4
  6
ByLayer
 62
  256
370
   -1
100
AcDbCircle
 10
-12.87826062292802
 20
6.5
 40
55.5
100
AcDbArc
 50
260.0000000502694
 51
270
  0
LINE
  5
290
100
AcDbEntity
  8
noname4
  6
ByLayer
 62
  256
370
   -1
100
AcDbLine
 10
95.9375
 20
-18.38401397293757
 11
95.9375
 21
-27.23914562349272
  0
LINE
  5
291
100
AcDbEntity
  8
noname4
  6
ByLayer
 62
  256
370
   -1
100
AcDbLine
 10
98.41655546959132
 20
-15.42959071344388
 11
130.3367542565597
 21
-9.801198466600184
  0
ARC
  5
292
100
AcDbEntity
  8
noname4
  6
ByLayer
 62
  256
370
   -1
100
AcDbCircle
 10
98.9375
 20
-18.38401397293757
 40
3
100
AcDbArc
 50
99.99999994973068
 51
180
  0
LINE
  5
293
100
AcDbEntity
  8
noname4
  6
ByLayer
 62
  256
370
   -1
100
AcDbLine
 10
-98.41655546959132
 20
-15.42959071344389
 11
-130.3367542565597
 21
-9.80119846660018
  0
LINE
  5
294
100
AcDbEntity
  8
noname4
  6
ByLayer
 62
  256
370
   -1
100
AcDbLine
 10
-95.9375
 20
-18.38401397293757
 11
-95.9375
 21
-27.23914562349271
  0
ARC
  5
295
100
AcDbEntity
  8
noname4
  6
ByLayer
 62
  256
370
   -1
100
AcDbCircle
 10
-98.9375
 20
-18.38401397293757
 40
3
100
AcDbArc
 50
0
 51
80.00000005026931
  0
LINE
  5
296
100
AcDbEntity
  8
noname4
  6
ByLayer
 62
  256
370
   -1
100
AcDbLine
 10
-17.71817817347736
 20
50.31191809490885
 11
-39.00864321930337
 21
59.80718573421178
  0
ARC
  5
297
100
AcDbEntity
  8
noname4
  6
ByLayer
 62
  256
370
   -1
100
AcDbCircle
 10
0
 20
90.0399455089765
 40
43.5
100
AcDbArc
 50
245.9637565556198
 51
294.0362434443802
  0
LINE
  5
298
100
AcDbEntity
  8
noname4
  6
ByLayer
 62
  256
370
   -1
100
AcDbLine
 10
17.71817817347736
 20
50.31191809490885
 11
39.00864321930336
 21
59.80718573421181
  0
ARC
  5
299
100
AcDbEntity
  8
noname4
  6
ByLayer
 62
  256
370
   -1
100
AcDbCircle
 10
62.02190912278544
 20
8.206414495250364
 40
56.5
100
AcDbArc
 50
85.9637565474701
 51
114.0362434443802
  0
LINE
  5
29A
100
AcDbEntity
  8
noname4
  6
ByLayer
 62
  256
370
   -1
100
AcDbLine
 10
65.99880210562344
 20
64.56627895749915
 11
120.4876252956134
 21
60.72141132598596
  0
ARC
  5
29B
100
AcDbEntity
  8
noname4
  6
ByLayer
 62
  256
370
   -1
100
AcDbCircle
 10
119.7485566881833
 20
50.24745421353264
 40
10.5
100
AcDbArc
 50
9.999999949730508
 51
85.96375654747013
  0
LINE
  5
29C
100
AcDbEntity
  8
noname4
  6
ByLayer
 62
  256
370
   -1
100
AcDbLine
 10
130.0890380964112
 20
52.07076006996299
 11
139.0275779851601
 21
1.377781044893505
  0
ARC
  5
29D
100
AcDbEntity
  8
noname4
  6
ByLayer
 62
  256
370
   -1
100
AcDbCircle
 10
128.6870965769322
 20
-0.445524811536856
 40
10.5
100
AcDbArc
 50
279.9999999497306
 51
9.999999949730585
  0
LINE
  5
29E
100
AcDbEntity
  8
noname4
  6
ByLayer
 62
  256
370
   -1
100
AcDbLine
 10
98.59020364639422
 20
-16.41439846660844
 11
130.5104024333625
 21
-10.78600621976475
  0
LINE
  5
29F
100
AcDbEntity
  8
noname4
  6
ByLayer
 62
  256
370
   -1
100
AcDbLine
 10
96.9375
 20
-18.38401397293757
 11
96.9375
 21
-27.23914562349272
  0
ARC
  5
2A0
100
AcDbEntity
  8
noname4
  6
ByLayer
 62
  256
370
   -1
100
AcDbCircle
 10
98.9375
 20
-18.38401397293757
 40
2
100
AcDbArc
 50
99.99999994973068
 51
180
  0
ARC
  5
2A1
100
AcDbEntity
  8
noname4
  6
ByLayer
 62
  256
370
   -1
100
AcDbCircle
 10
86.43749999999999
 20
-27.23914562349272
 40
10.5
100
AcDbArc
 50
279.9999999497308
 51
0
  0
LINE
  5
2A2
100
AcDbEntity
  8
noname4
  6
ByLayer
 62
  256
370
   -1
100
AcDbLine
 10
22.68938261229162
 20
-49.14163805379769
 11
88.26080585643038
 21
-37.57962703172061
  0
ARC
  5
2A3
100
AcDbEntity
  8
noname4
  6
ByLayer
 62
  256
370
   -1
100
AcDbCircle
 10
12.87826062292809
 20
6.5
 40
56.5
100
AcDbArc
 50
270
 51
279.9999999497307
  0
LINE
  5
2A4
100
AcDbEntity
  8
noname4
  6
ByLayer
 62
  256
370
   -1
100
AcDbLine
 10
-12.87826062292803
 20
-50
 11
12.87826062292809
 21
-50
  0
ARC
  5
2A5
100
AcDbEntity
  8
noname4
  6
ByLayer
 62
  256
370
   -1
100
AcDbCircle
 10
-12.87826062292802
 20
6.5
 40
56.5
100
AcDbArc
 50
260.0000000502694
 51
270
  0
LINE
  5
2A6
100
AcDbEntity
  8
noname4
  6
ByLayer
 62
  256
370
   -1
100
AcDbLine
 10
-22.68938261229162
 20
-49.14163805379769
 11
-88.26080585643038
 21
-37.57962703172061
  0
ARC
  5
2A7
100
AcDbEntity
  8
noname4
  6
ByLayer
 62
  256
370
   -1
100
AcDbCircle
 10
-86.43749999999999
 20
-27.23914562349272
 40
10.5
100
AcDbArc
 50
180
 51
260.0000000502692
  0
LINE
  5
2A8
100
AcDbEntity
  8
noname4
  6
ByLayer
 62
  256
370
   -1
100
AcDbLine
 10
-96.9375
 20
-18.38401397293757
 11
-96.9375
 21
-27.23914562349271
  0
ARC
  5
2A9
100
AcDbEntity
  8
noname4
  6
ByLayer
 62
  256
370
   -1
100
AcDbCircle
 10
-98.9375
 20
-18.38401397293757
 40
2
100
AcDbArc
 50
0
 51
80.00000005026931
  0
LINE
  5
2AA
100
AcDbEntity
  8
noname4
  6
ByLayer
 62
  256
370
   -1
100
AcDbLine
 10
-98.59020364639422
 20
-16.41439846660845
 11
-130.5104024333625
 21
-10.78600621976474
  0
ARC
  5
2AB
100
AcDbEntity
  8
noname4
  6
ByLayer
 62
  256
370
   -1
100
AcDbCircle
 10
-128.6870965769322
 20
-0.4455248115368564
 40
10.5
100
AcDbArc
 50
170.0000000502694
 51
260.0000000502694
  0
LINE
  5
2AC
100
AcDbEntity
  8
noname4
  6
ByLayer
 62
  256
370
   -1
100
AcDbLine
 10
-130.0890380964112
 20
52.070760069963
 11
-139.0275779851601
 21
1.377781044893495
  0
ARC
  5
2AD
100
AcDbEntity
  8
noname4
  6
ByLayer
 62
  256
370
   -1
100
AcDbCircle
 10
-119.7485566881833
 20
50.24745421353266
 40
10.5
100
AcDbArc
 50
94.03624345252987
 51
170.0000000502695
  0
LINE
  5
2AE
100
AcDbEntity
  8
noname4
  6
ByLayer
 62
  256
370
   -1
100
AcDbLine
 10
-65.99880210562343
 20
64.56627895749915
 11
-120.4876252956134
 21
60.72141132598596
  0
ARC
  5
2AF
100
AcDbEntity
  8
noname4
  6
ByLayer
 62
  256
370
   -1
100
AcDbCircle
 10
-62.02190912278544
 20
8.20641449525035
 40
56.5
100
AcDbArc
 50
65.96375655561978
 51
94.0362434525299
  0
ARC
  5
2B0
100
AcDbEntity
  8
noname5
  6
ByLayer
 62
  256
370
   -1
100
AcDbCircle
 10
103.3370987048938
 20
39.3756504263085
 40
5
100
AcDbArc
 50
85.96375654747017
 51
190.0000000972994
  0
LINE
  5
2B1
100
AcDbEntity
  8
noname5
  6
ByLayer
 62
  256
370
   -1
100
AcDbLine
 10
103.6890361370034
 20
44.36324905128627
 11
109.9097658777942
 21
43.92429880379493
  0
ARC
  5
2B2
100
AcDbEntity
  8
noname5
  6
ByLayer
 62
  256
370
   -1
100
AcDbCircle
 10
109.5578284456847
 20
38.93670017881716
 40
5
100
AcDbArc
 50
9.999999949730508
 51
85.96375654747017
  0
LINE
  5
2B3
100
AcDbEntity
  8
noname5
  6
ByLayer
 62
  256
370
   -1
100
AcDbLine
 10
98.41305994130722
 20
38.50740952961187
 11
100.8972157723384
 21
24.41906186789033
  0
ARC
  5
2B4
100
AcDbEntity
  8
noname5
  6
ByLayer
 62
  256
370
   -1
100
AcDbCircle
 10
95.97317700875178
 20
23.5508209711937
 40
5
100
AcDbArc
 50
279.9999999497306
 51
10.00000009729949
  0
LINE
  5
2B5
100
AcDbEntity
  8
noname5
  6
ByLayer
 62
  256
370
   -1
100
AcDbLine
 10
82.02006108821072
 20
16.01337712342882
 11
96.84141789276624
 21
18.62678220537089
  0
ARC
  5
2B6
100
AcDbEntity
  8
noname5
  6
ByLayer
 62
  256
370
   -1
100
AcDbCircle
 10
81.15182020419626
 20
20.93741588925163
 40
5
100
AcDbArc
 50
189.9999999497308
 51
279.9999999497306
  0
LINE
  5
2B7
100
AcDbEntity
  8
noname5
  6
ByLayer
 62
  256
370
   -1
100
AcDbLine
 10
72.22203349366623
 20
42.7869006145789
 11
76.22778143837347
 21
20.06917500523715
  0
ARC
  5
2B8
100
AcDbEntity
  8
noname5
  6
ByLayer
 62
  256
370
   -1
100
AcDbCircle
 10
67.29799472784345
 20
41.91865973056441
 40
5
100
AcDbArc
 50
9.999999949730839
 51
85.96375654747017
  0
LINE
  5
2B9
100
AcDbEntity
  8
noname5
  6
ByLayer
 62
  256
370
   -1
100
AcDbLine
 10
56.28810344302403
 20
47.70797740379908
 11
67.649932159953
 21
46.90625835554219
  0
ARC
  5
2BA
100
AcDbEntity
  8
noname5
  6
ByLayer
 62
  256
370
   -1
100
AcDbCircle
 10
55.93616601091448
 20
42.7203787788213
 40
5
100
AcDbArc
 50
85.96375654747017
 51
114.0362434443803
  0
LINE
  5
2BB
100
AcDbEntity
  8
noname5
  6
ByLayer
 62
  256
370
   -1
100
AcDbLine
 10
19.96342779615202
 20
32.15173461481876
 11
53.89959380706649
 21
47.28681871147276
  0
ARC
  5
2BC
100
AcDbEntity
  8
noname5
  6
ByLayer
 62
  256
370
   -1
100
AcDbCircle
 10
21.99999999999999
 20
27.58529468216731
 40
5
100
AcDbArc
 50
114.0362434443802
 51
180
  0
LINE
  5
2BD
100
AcDbEntity
  8
noname5
  6
ByLayer
 62
  256
370
   -1
100
AcDbLine
 10
17
 20
-26.41609604385759
 11
17
 21
27.58529468216731
  0
ARC
  5
2BE
100
AcDbEntity
  8
noname5
  6
ByLayer
 62
  256
370
   -1
100
AcDbCircle
 10
22
 20
-26.41609604385759
 40
5
100
AcDbArc
 50
180
 51
279.9999999497307
  0
LINE
  5
2BF
100
AcDbEntity
  8
noname5
  6
ByLayer
 62
  256
370
   -1
100
AcDbLine
 10
22.86824088401447
 20
-31.3401348096804
 11
38.24455864817263
 21
-28.62887513782254
  0
ARC
  5
2C0
100
AcDbEntity
  8
noname5
  6
ByLayer
 62
  256
370
   -1
100
AcDbCircle
 10
37.37631776415816
 20
-23.70483637199974
 40
5
100
AcDbArc
 50
279.9999999497306
 51
9.99999994973061
  0
LINE
  5
2C1
100
AcDbEntity
  8
noname5
  6
ByLayer
 62
  256
370
   -1
100
AcDbLine
 10
114.4818672115075
 20
39.80494106283162
 11
117.2227779864318
 21
24.26046353605783
  0
ARC
  5
2C2
100
AcDbEntity
  8
noname5
  6
ByLayer
 62
  256
370
   -1
100
AcDbCircle
 10
97.52662292314061
 20
20.78750000000001
 40
20
100
AcDbArc
 50
269.9999999999999
 51
9.999999949730482
  0
ARC
  5
2C3
100
AcDbEntity
  8
noname5
  6
ByLayer
 62
  256
370
   -1
100
AcDbCircle
 10
53.62758781190964
 20
-12.21249999999999
 40
13
100
AcDbArc
 50
90
 51
189.9999999497306
  0
LINE
  5
2C4
100
AcDbEntity
  8
noname5
  6
ByLayer
 62
  256
370
   -1
100
AcDbLine
 10
53.62758781190964
 20
0.7875000000000103
 11
97.52662292314058
 21
0.7875000000000085
  0
LINE
  5
2C5
100
AcDbEntity
  8
noname5
  6
ByLayer
 62
  256
370
   -1
100
AcDbLine
 10
42.30035652998097
 20
-22.83659548798527
 11
40.82508702077035
 21
-14.4699262984376
  0
ARC
  5
2C6
100
AcDbEntity
  8
noname5
  6
ByLayer
 62
  256
370
   -1
100
AcDbCircle
 10
-103.3370987048938
 20
39.37565042630852
 40
5
100
AcDbArc
 50
349.9999999027006
 51
94.03624345252982
  0
LINE
  5
2C7
100
AcDbEntity
  8
noname5
  6
ByLayer
 62
  256
370
   -1
100
AcDbLine
 10
-103.6890361370034
 20
44.36324905128627
 11
-109.9097658777942
 21
43.92429880379495
  0
ARC
  5
2C8
100
AcDbEntity
  8
noname5
  6
ByLayer
 62
  256
370
   -1
100
AcDbCircle
 10
-109.5578284456847
 20
38.93670017881719
 40
5
100
AcDbArc
 50
94.03624345252982
 51
170.0000000502695
  0
LINE
  5
2C9
100
AcDbEntity
  8
noname5
  6
ByLayer
 62
  256
370
   -1
100
AcDbLine
 10
-98.41305994130722
 20
38.50740952961188
 11
-100.8972157723384
 21
24.41906186789036
  0
ARC
  5
2CA
100
AcDbEntity
  8
noname5
  6
ByLayer
 62
  256
370
   -1
100
AcDbCircle
 10
-95.97317700875178
 20
23.5508209711937
 40
5
100
AcDbArc
 50
169.9999999027005
 51
260.0000000502694
  0
LINE
  5
2CB
100
AcDbEntity
  8
noname5
  6
ByLayer
 62
  256
370
   -1
100
AcDbLine
 10
-82.02006108821072
 20
16.01337712342883
 11
-96.84141789276624
 21
18.62678220537088
  0
ARC
  5
2CC
100
AcDbEntity
  8
noname5
  6
ByLayer
 62
  256
370
   -1
100
AcDbCircle
 10
-81.15182020419626
 20
20.93741588925162
 40
5
100
AcDbArc
 50
260.0000000502694
 51
350.0000000502692
  0
LINE
  5
2CD
100
AcDbEntity
  8
noname5
  6
ByLayer
 62
  256
370
   -1
100
AcDbLine
 10
-72.22203349366623
 20
42.7869006145789
 11
-76.22778143837347
 21
20.06917500523716
  0
ARC
  5
2CE
100
AcDbEntity
  8
noname5
  6
ByLayer
 62
  256
370
   -1
100
AcDbCircle
 10
-67.29799472784345
 20
41.91865973056439
 40
5
100
AcDbArc
 50
94.03624345252982
 51
170.0000000502692
  0
LINE
  5
2CF
100
AcDbEntity
  8
noname5
  6
ByLayer
 62
  256
370
   -1
100
AcDbLine
 10
-56.28810344302403
 20
47.70797740379911
 11
-67.649932159953
 21
46.90625835554217
  0
ARC
  5
2D0
100
AcDbEntity
  8
noname5
  6
ByLayer
 62
  256
370
   -1
100
AcDbCircle
 10
-55.93616601091448
 20
42.7203787788213
 40
5
100
AcDbArc
 50
65.96375655561972
 51
94.03624345252982
  0
LINE
  5
2D1
100
AcDbEntity
  8
noname5
  6
ByLayer
 62
  256
370
   -1
100
AcDbLine
 10
-19.96342779615202
 20
32.15173461481874
 11
-53.89959380706649
 21
47.28681871147276
  0
ARC
  5
2D2
100
AcDbEntity
  8
noname5
  6
ByLayer
 62
  256
370
   -1
100
AcDbCircle
 10
-21.99999999999999
 20
27.58529468216729
 40
5
100
AcDbArc
 50
2.544443745170813e-14
 51
65.9637565556198
  0
LINE
  5
2D3
100
AcDbEntity
  8
noname5
  6
ByLayer
 62
  256
370
   -1
100
AcDbLine
 10
-17
 20
-26.41609604385759
 11
-17
 21
27.58529468216732
  0
ARC
  5
2D4
100
AcDbEntity
  8
noname5
  6
ByLayer
 62
  256
370
   -1
100
AcDbCircle
 10
-22
 20
-26.41609604385759
 40
5
100
AcDbArc
 50
260.0000000502693
 51
0
  0
LINE
  5
2D5
100
AcDbEntity
  8
noname5
  6
ByLayer
 62
  256
370
   -1
100
AcDbLine
 10
-22.86824088401447
 20
-31.3401348096804
 11
-38.24455864817263
 21
-28.62887513782253
  0
ARC
  5
2D6
100
AcDbEntity
  8
noname5
  6
ByLayer
 62
  256
370
   -1
100
AcDbCircle
 10
-37.37631776415816
 20
-23.70483637199971
 40
5
100
AcDbArc
 50
170.0000000502694
 51
260.0000000502694
  0
LINE
  5
2D7
100
AcDbEntity
  8
noname5
  6
ByLayer
 62
  256
370
   -1
100
AcDbLine
 10
-114.4818672115075
 20
39.80494106283162
 11
-117.2227779864318
 21
24.26046353605782
  0
ARC
  5
2D8
100
AcDbEntity
  8
noname5
  6
ByLayer
 62
  256
370
   -1
100
AcDbCircle
 10
-97.52662292314061
 20
20.78750000000001
 40
20
100
AcDbArc
 50
170.0000000502695
 51
270.0000000000001
  0
ARC
  5
2D9
100
AcDbEntity
  8
noname5
  6
ByLayer
 62
  256
370
   -1
100
AcDbCircle
 10
-53.62758781190964
 20
-12.21249999999999
 40
13
100
AcDbArc
 50
350.0000000502694
 51
90
  0
LINE
  5
2DA
100
AcDbEntity
  8
noname5
  6
ByLayer
 62
  256
370
   -1
100
AcDbLine
 10
-53.62758781190964
 20
0.7875000000000068
 11
-97.52662292314058
 21
0.7875000000000085
  0
LINE
  5
2DB
100
AcDbEntity
  8
noname5
  6
ByLayer
 62
  256
370
   -1
100
AcDbLine
 10
-42.30035652998097
 20
-22.83659548798527
 11
-40.82508702077035
 21
-14.46992629843761
  0
ENDSEC
  0
SECTION
  2
OBJECTS
  0
DICTIONARY
  5
C
330
0
100
AcDbDictionary
281
    1
  3
ACAD_GROUP
350
D
  0
DICTIONARY
  5
D
330
C
100
AcDbDictionary
281
    1
  0
PLOTSETTINGS
  5
2DC
100
AcDbPlotSettings
  6
1x1
 40
0
 41
0
 42
0
 43
0
  0
ENDSEC
  0
EOF
