999
dxfrw 0.6.3
  0
SECTION
  2
HEADER
  9
$ACADVER
  1
AC1021
  9
$DWGCODEPAGE
  3
ANSI_1252
  9
$INSBASE
 10
0
 20
0
 30
0
  9
$EXTMIN
 10
-116.125
 20
-45.56100501781271
 30
0
  9
$EXTMAX
 10
116.125
 20
45.56100501781271
 30
0
  9
$LIMMIN
 10
0
 20
0
  9
$LIMMAX
 10
420
 20
297
  9
$ORTHOMODE
 70
    0
  9
$REGENMODE
 70
    1
  9
$FILLMODE
 70
    1
  9
$QTEXTMODE
 70
    0
  9
$MIRRTEXT
 70
    0
  9
$LTSCALE
 40
1
  9
$ATTMODE
 70
    0
  9
$TEXTSIZE
 40
2.5
  9
$TRACEWID
 40
15.68
  9
$TEXTSTYLE
  7
STANDARD
  9
$CLAYER
  8
plate2
  9
$CELTYPE
  6
BYLAYER
  9
$CECOLOR
 62
  256
  9
$CELTSCALE
 40
1
  9
$DISPSILH
 70
    0
  9
$DIMSCALE
 40
2.5
  9
$DIMASZ
 40
2.5
  9
$DIMEXO
 40
0.625
  9
$DIMDLI
 40
3.75
  9
$DIMRND
 40
0
  9
$DIMDLE
 40
0
  9
$DIMEXE
 40
1.25
  9
$DIMTP
 40
0
  9
$DIMTM
 40
0
  9
$DIMTXT
 40
2.5
  9
$DIMCEN
 40
2.5
  9
$DIMTSZ
 40
0
  9
$DIMTOL
 70
    0
  9
$DIMLIM
 70
    0
  9
$DIMTIH
 70
    0
  9
$DIMTOH
 70
    0
  9
$DIMSE1
 70
    0
  9
$DIMSE2
 70
    0
  9
$DIMTAD
 70
    1
  9
$DIMZIN
 70
    8
  9
$DIMBLK
  1

  9
$DIMASO
 70
    1
  9
$DIMSHO
 70
    1
  9
$DIMPOST
  1

  9
$DIMAPOST
  1

  9
$DIMALT
 70
    0
  9
$DIMALTD
 70
    3
  9
$DIMALTF
 40
0.03937
  9
$DIMLFAC
 40
1
  9
$DIMTOFL
 70
    1
  9
$DIMTVP
 40
0
  9
$DIMTIX
 70
    0
  9
$DIMSOXD
 70
    0
  9
$DIMSAH
 70
    0
  9
$DIMBLK1
  1

  9
$DIMBLK2
  1

  9
$DIMSTYLE
  2
STANDARD
  9
$DIMCLRD
 70
    0
  9
$DIMCLRE
 70
    0
  9
$DIMCLRT
 70
    0
  9
$DIMTFAC
 40
1
  9
$DIMGAP
 40
0.625
  9
$DIMJUST
 70
    0
  9
$DIMSD1
 70
    0
  9
$DIMSD2
 70
    0
  9
$DIMTOLJ
 70
    0
  9
$DIMTZIN
 70
    8
  9
$DIMALTZ
 70
    0
  9
$DIMALTTZ
 70
    0
  9
$DIMUPT
 70
    0
  9
$DIMDEC
 70
    2
  9
$DIMTDEC
 70
    2
  9
$DIMALTU
 70
    2
  9
$DIMALTTD
 70
    3
  9
$DIMTXSTY
  7
STANDARD
  9
$DIMAUNIT
 70
    0
  9
$DIMADEC
 70
    0
  9
$DIMALTRND
 40
0
  9
$DIMAZIN
 70
    0
  9
$DIMDSEP
 70
   44
  9
$DIMATFIT
 70
    3
  9
$DIMFRAC
 70
    0
  9
$DIMLDRBLK
  1
STANDARD
  9
$DIMLUNIT
 70
    2
  9
$DIMLWD
 70
   -2
  9
$DIMLWE
 70
   -2
  9
$DIMTMOVE
 70
    0
  9
$DIMFXL
 40
1
  9
$DIMFXLON
 70
    0
  9
$DIMJOGANG
 40
0.7854
  9
$DIMTFILL
 70
    0
  9
$DIMTFILLCLR
 70
    0
  9
$DIMARCSYM
 70
    0
  9
$DIMLTYPE
  6

  9
$DIMLTEX1
  6

  9
$DIMLTEX2
  6

  9
$LUNITS
 70
    2
  9
$LUPREC
 70
    4
  9
$SKETCHINC
 40
1
  9
$FILLETRAD
 40
0
  9
$AUNITS
 70
    0
  9
$AUPREC
 70
    2
  9
$MENU
  1
.
  9
$ELEVATION
 40
0
  9
$PELEVATION
 40
0
  9
$THICKNESS
 40
0
  9
$LIMCHECK
 70
    0
  9
$CHAMFERA
 40
0
  9
$CHAMFERB
 40
0
  9
$CHAMFERC
 40
0
  9
$CHAMFERD
 40
0
  9
$SKPOLY
 70
    0
  9
$USRTIMER
 70
    1
  9
$ANGBASE
 50
0
  9
$ANGDIR
 70
    0
  9
$PDMODE
 70
   34
  9
$PDSIZE
 40
0
  9
$PLINEWID
 40
0
  9
$SPLFRAME
 70
    0
  9
$SPLINETYPE
 70
    2
  9
$SPLINESEGS
 70
    8
  9
$HANDSEED
  5
20000
  9
$SURFTAB1
 70
    6
  9
$SURFTAB2
 70
    6
  9
$SURFTYPE
 70
    6
  9
$SURFU
 70
    6
  9
$SURFV
 70
    6
  9
$UCSBASE
  2

  9
$UCSNAME
  2

  9
$UCSORG
 10
0
 20
0
 30
0
  9
$UCSXDIR
 10
1
 20
0
 30
0
  9
$UCSYDIR
 10
0
 20
1
 30
0
  9
$UCSORTHOREF
  2

  9
$UCSORTHOVIEW
 70
    0
  9
$UCSORGTOP
 10
0
 20
0
 30
0
  9
$UCSORGBOTTOM
 10
0
 20
0
 30
0
  9
$UCSORGLEFT
 10
0
 20
0
 30
0
  9
$UCSORGRIGHT
 10
0
 20
0
 30
0
  9
$UCSORGFRONT
 10
0
 20
0
 30
0
  9
$UCSORGBACK
 10
0
 20
0
 30
0
  9
$PUCSBASE
  2

  9
$PUCSNAME
  2

  9
$PUCSORG
 10
0
 20
0
 30
0
  9
$PUCSXDIR
 10
1
 20
0
 30
0
  9
$PUCSYDIR
 10
0
 20
1
 30
0
  9
$PUCSORTHOREF
  2

  9
$PUCSORTHOVIEW
 70
    0
  9
$PUCSORGTOP
 10
0
 20
0
 30
0
  9
$PUCSORGBOTTOM
 10
0
 20
0
 30
0
  9
$PUCSORGLEFT
 10
0
 20
0
 30
0
  9
$PUCSORGRIGHT
 10
0
 20
0
 30
0
  9
$PUCSORGFRONT
 10
0
 20
0
 30
0
  9
$PUCSORGBACK
 10
0
 20
0
 30
0
  9
$USERI1
 70
    0
  9
$USERI2
 70
    0
  9
$USERI3
 70
    0
  9
$USERI4
 70
    0
  9
$USERI5
 70
    0
  9
$USERR1
 40
0
  9
$USERR2
 40
0
  9
$USERR3
 40
0
  9
$USERR4
 40
0
  9
$USERR5
 40
0
  9
$WORLDVIEW
 70
    1
  9
$SHADEDGE
 70
    3
  9
$SHADEDIF
 70
   70
  9
$TILEMODE
 70
    1
  9
$MAXACTVP
 70
   64
  9
$PINSBASE
 10
0
 20
0
 30
0
  9
$PLIMCHECK
 70
    0
  9
$PEXTMIN
 10
0
 20
0
 30
0
  9
$PEXTMAX
 10
0
 20
0
 30
0
  9
$GRIDMODE
 70
    1
  9
$SNAPSTYLE
 70
    0
  9
$PLIMMIN
 10
0
 20
0
  9
$PLIMMAX
 10
210
 20
297
  9
$UNITMODE
 70
    0
  9
$VISRETAIN
 70
    1
  9
$PLINEGEN
 70
    0
  9
$PSLTSCALE
 70
    1
  9
$TREEDEPTH
 70
 3020
  9
$CMLSTYLE
  2
Standard
  9
$CMLJUST
 70
    0
  9
$CMLSCALE
 40
20
  9
$PROXYGRAPHICS
 70
    1
  9
$MEASUREMENT
 70
    1
  9
$CELWEIGHT
370
   -1
  9
$ENDCAPS
280
    0
  9
$JOINSTYLE
280
    0
  9
$LWDISPLAY
290
    0
  9
$INSUNITS
 70
    0
  9
$HYPERLINKBASE
  1

  9
$STYLESHEET
  1

  9
$XEDIT
290
    1
  9
$CEPSNTYPE
380
    0
  9
$PSTYLEMODE
290
    1
  9
$EXTNAMES
290
    1
  9
$PSVPSCALE
 40
1
  9
$OLESTARTUP
290
    0
  9
$SORTENTS
280
  127
  9
$INDEXCTL
280
    0
  9
$HIDETEXT
280
    1
  9
$XCLIPFRAME
290
    0
  9
$HALOGAP
280
    0
  9
$OBSCOLOR
 70
  257
  9
$OBSLTYPE
280
    0
  9
$INTERSECTIONDISPLAY
280
    0
  9
$INTERSECTIONCOLOR
 70
  257
  9
$DIMASSOC
280
    1
  9
$PROJECTNAME
  1

  9
$CAMERADISPLAY
290
    0
  9
$LENSLENGTH
 40
50
  9
$CAMERAHEIGHT
 40
0
  9
$STEPSPERSEC
 40
2
  9
$STEPSIZE
 40
50
  9
$3DDWFPREC
 40
2
  9
$PSOLWIDTH
 40
5
  9
$PSOLHEIGHT
 40
80
  9
$LOFTANG1
 40
1.570796326794897
  9
$LOFTANG2
 40
1.570796326794897
  9
$LOFTMAG1
 40
0
  9
$LOFTMAG2
 40
0
  9
$LOFTPARAM
 70
    7
  9
$LOFTNORMALS
280
    1
  9
$LATITUDE
 40
1
  9
$LONGITUDE
 40
1
  9
$NORTHDIRECTION
 40
0
  9
$TIMEZONE
 70
-8000
  9
$LIGHTGLYPHDISPLAY
280
    1
  9
$TILEMODELIGHTSYNCH
280
    1
  9
$SOLIDHIST
280
    1
  9
$SHOWHIST
280
    1
  9
$DWFFRAME
280
    2
  9
$DGNFRAME
280
    0
  9
$REALWORLDSCALE
290
    1
  9
$INTERFERECOLOR
 62
    1
  9
$CSHADOW
280
    0
  9
$SHADOWPLANELOCATION
 40
0
  0
ENDSEC
  0
SECTION
  2
CLASSES
  0
ENDSEC
  0
SECTION
  2
TABLES
  0
TABLE
  2
VPORT
  5
8
330
0
100
AcDbSymbolTable
 70
    1
  0
VPORT
  5
31
330
2
100
AcDbSymbolTableRecord
100
AcDbViewportTableRecord
  2
*ACTIVE
 70
    0
 10
0
 20
0
 11
1
 21
1
 12
59.84251824817518
 22
62.72445255474452
 13
0
 23
0
 14
10
 24
10
 15
10
 25
10
 16
0
 26
0
 36
1
 17
0
 27
0
 37
0
 40
250.5587591240876
 41
0.9539918809201624
 42
50
 43
0
 44
0
 50
0
 51
0
 71
    0
 72
  100
 73
    1
 74
    3
 75
    0
 76
    1
 77
    0
 78
    0
281
    0
 65
    1
110
0
120
0
130
0
111
1
121
0
131
0
112
0
122
1
132
0
 79
    0
146
0
348
10020
 60
    7
 61
    5
292
1
282
    1
141
0
142
0
 63
  250
421
3358443
  0
ENDTAB
  0
TABLE
  2
LTYPE
  5
5
330
0
100
AcDbSymbolTable
 70
    4
  0
LTYPE
  5
14
330
5
100
AcDbSymbolTableRecord
100
AcDbLinetypeTableRecord
  2
ByBlock
 70
    0
  3

 72
   65
 73
    0
 40
0
  0
LTYPE
  5
15
330
5
100
AcDbSymbolTableRecord
100
AcDbLinetypeTableRecord
  2
ByLayer
 70
    0
  3

 72
   65
 73
    0
 40
0
  0
LTYPE
  5
16
330
5
100
AcDbSymbolTableRecord
100
AcDbLinetypeTableRecord
  2
Continuous
 70
    0
  3
Solid line
 72
   65
 73
    0
 40
0
  0
LTYPE
  5
32
330
5
100
AcDbSymbolTableRecord
100
AcDbLinetypeTableRecord
  2
DOT
 70
    0
  3
Dot . . . . . . . . . . . . . . . . . . . . . .
 72
   65
 73
    2
 40
6.35
 49
0
 74
    0
 49
-6.35
 74
    0
  0
LTYPE
  5
33
330
5
100
AcDbSymbolTableRecord
100
AcDbLinetypeTableRecord
  2
DOTTINY
 70
    0
  3
Dot (.15x) .....................................
 72
   65
 73
    2
 40
0.9525
 49
0
 74
    0
 49
-0.9525
 74
    0
  0
LTYPE
  5
34
330
5
100
AcDbSymbolTableRecord
100
AcDbLinetypeTableRecord
  2
DOT2
 70
    0
  3
Dot (.5x) .....................................
 72
   65
 73
    2
 40
3.175
 49
0
 74
    0
 49
-3.175
 74
    0
  0
LTYPE
  5
35
330
5
100
AcDbSymbolTableRecord
100
AcDbLinetypeTableRecord
  2
DOTX2
 70
    0
  3
Dot (2x) .  .  .  .  .  .  .  .  .  .  .  .  .
 72
   65
 73
    2
 40
12.7
 49
0
 74
    0
 49
-12.7
 74
    0
  0
LTYPE
  5
36
330
5
100
AcDbSymbolTableRecord
100
AcDbLinetypeTableRecord
  2
DASHED
 70
    0
  3
Dashed _ _ _ _ _ _ _ _ _ _ _ _ _ _ _ _ _
 72
   65
 73
    2
 40
19.05
 49
12.7
 74
    0
 49
-6.35
 74
    0
  0
LTYPE
  5
37
330
5
100
AcDbSymbolTableRecord
100
AcDbLinetypeTableRecord
  2
DASHEDTINY
 70
    0
  3
Dashed (.15x) _ _ _ _ _ _ _ _ _ _ _ _ _ _ _ _ _
 72
   65
 73
    2
 40
2.8575
 49
1.905
 74
    0
 49
-0.9525
 74
    0
  0
LTYPE
  5
38
330
5
100
AcDbSymbolTableRecord
100
AcDbLinetypeTableRecord
  2
DASHED2
 70
    0
  3
Dashed (.5x) _ _ _ _ _ _ _ _ _ _ _ _ _ _ _ _ _
 72
   65
 73
    2
 40
9.524999999999999
 49
6.35
 74
    0
 49
-3.175
 74
    0
  0
LTYPE
  5
39
330
5
100
AcDbSymbolTableRecord
100
AcDbLinetypeTableRecord
  2
DASHEDX2
 70
    0
  3
Dashed (2x) ____  ____  ____  ____  ____  ___
 72
   65
 73
    2
 40
38.09999999999999
 49
25.4
 74
    0
 49
-12.7
 74
    0
  0
LTYPE
  5
3A
330
5
100
AcDbSymbolTableRecord
100
AcDbLinetypeTableRecord
  2
DASHDOT
 70
    0
  3
Dash dot __ . __ . __ . __ . __ . __ . __ . __
 72
   65
 73
    4
 40
25.4
 49
12.7
 74
    0
 49
-6.35
 74
    0
 49
0
 74
    0
 49
-6.35
 74
    0
  0
LTYPE
  5
3B
330
5
100
AcDbSymbolTableRecord
100
AcDbLinetypeTableRecord
  2
DASHDOTTINY
 70
    0
  3
Dash dot (.15x) _._._._._._._._._._._._._._._.
 72
   65
 73
    4
 40
3.81
 49
1.905
 74
    0
 49
-0.9525
 74
    0
 49
0
 74
    0
 49
-0.9525
 74
    0
  0
LTYPE
  5
3C
330
5
100
AcDbSymbolTableRecord
100
AcDbLinetypeTableRecord
  2
DASHDOT2
 70
    0
  3
Dash dot (.5x) _._._._._._._._._._._._._._._.
 72
   65
 73
    4
 40
12.7
 49
6.35
 74
    0
 49
-3.175
 74
    0
 49
0
 74
    0
 49
-3.175
 74
    0
  0
LTYPE
  5
3D
330
5
100
AcDbSymbolTableRecord
100
AcDbLinetypeTableRecord
  2
DASHDOTX2
 70
    0
  3
Dash dot (2x) ____  .  ____  .  ____  .  ___
 72
   65
 73
    4
 40
50.8
 49
25.4
 74
    0
 49
-12.7
 74
    0
 49
0
 74
    0
 49
-12.7
 74
    0
  0
LTYPE
  5
3E
330
5
100
AcDbSymbolTableRecord
100
AcDbLinetypeTableRecord
  2
DIVIDE
 70
    0
  3
Divide ____ . . ____ . . ____ . . ____ . . ____
 72
   65
 73
    6
 40
31.75
 49
12.7
 74
    0
 49
-6.35
 74
    0
 49
0
 74
    0
 49
-6.35
 74
    0
 49
0
 74
    0
 49
-6.35
 74
    0
  0
LTYPE
  5
3F
330
5
100
AcDbSymbolTableRecord
100
AcDbLinetypeTableRecord
  2
DIVIDETINY
 70
    0
  3
Divide (.15x) __..__..__..__..__..__..__..__.._
 72
   65
 73
    6
 40
4.7625
 49
1.905
 74
    0
 49
-0.9525
 74
    0
 49
0
 74
    0
 49
-0.9525
 74
    0
 49
0
 74
    0
 49
-0.9525
 74
    0
  0
LTYPE
  5
40
330
5
100
AcDbSymbolTableRecord
100
AcDbLinetypeTableRecord
  2
DIVIDE2
 70
    0
  3
Divide (.5x) __..__..__..__..__..__..__..__.._
 72
   65
 73
    6
 40
15.875
 49
6.35
 74
    0
 49
-3.175
 74
    0
 49
0
 74
    0
 49
-3.175
 74
    0
 49
0
 74
    0
 49
-3.175
 74
    0
  0
LTYPE
  5
41
330
5
100
AcDbSymbolTableRecord
100
AcDbLinetypeTableRecord
  2
DIVIDEX2
 70
    0
  3
Divide (2x) ________  .  .  ________  .  .  _
 72
   65
 73
    6
 40
63.5
 49
25.4
 74
    0
 49
-12.7
 74
    0
 49
0
 74
    0
 49
-12.7
 74
    0
 49
0
 74
    0
 49
-12.7
 74
    0
  0
LTYPE
  5
42
330
5
100
AcDbSymbolTableRecord
100
AcDbLinetypeTableRecord
  2
BORDER
 70
    0
  3
Border __ __ . __ __ . __ __ . __ __ . __ __ .
 72
   65
 73
    6
 40
44.45
 49
12.7
 74
    0
 49
-6.35
 74
    0
 49
12.7
 74
    0
 49
-6.35
 74
    0
 49
0
 74
    0
 49
-6.35
 74
    0
  0
LTYPE
  5
43
330
5
100
AcDbSymbolTableRecord
100
AcDbLinetypeTableRecord
  2
BORDERTINY
 70
    0
  3
Border (.15x) __.__.__.__.__.__.__.__.__.__.__.
 72
   65
 73
    6
 40
6.6675
 49
1.905
 74
    0
 49
-0.9525
 74
    0
 49
1.905
 74
    0
 49
-0.9525
 74
    0
 49
0
 74
    0
 49
-0.9525
 74
    0
  0
LTYPE
  5
44
330
5
100
AcDbSymbolTableRecord
100
AcDbLinetypeTableRecord
  2
BORDER2
 70
    0
  3
Border (.5x) __.__.__.__.__.__.__.__.__.__.__.
 72
   65
 73
    6
 40
22.225
 49
6.35
 74
    0
 49
-3.175
 74
    0
 49
6.35
 74
    0
 49
-3.175
 74
    0
 49
0
 74
    0
 49
-3.175
 74
    0
  0
LTYPE
  5
45
330
5
100
AcDbSymbolTableRecord
100
AcDbLinetypeTableRecord
  2
BORDERX2
 70
    0
  3
Border (2x) ____  ____  .  ____  ____  .  ___
 72
   65
 73
    6
 40
88.89999999999999
 49
25.4
 74
    0
 49
-12.7
 74
    0
 49
25.4
 74
    0
 49
-12.7
 74
    0
 49
0
 74
    0
 49
-12.7
 74
    0
  0
LTYPE
  5
46
330
5
100
AcDbSymbolTableRecord
100
AcDbLinetypeTableRecord
  2
CENTER
 70
    0
  3
Center ____ _ ____ _ ____ _ ____ _ ____ _ ____
 72
   65
 73
    4
 40
50.8
 49
31.75
 74
    0
 49
-6.35
 74
    0
 49
6.35
 74
    0
 49
-6.35
 74
    0
  0
LTYPE
  5
47
330
5
100
AcDbSymbolTableRecord
100
AcDbLinetypeTableRecord
  2
CENTERTINY
 70
    0
  3
Center (.15x) ___ _ ___ _ ___ _ ___ _ ___ _ ___
 72
   65
 73
    4
 40
7.619999999999999
 49
4.7625
 74
    0
 49
-0.9525
 74
    0
 49
0.9525
 74
    0
 49
-0.9525
 74
    0
  0
LTYPE
  5
48
330
5
100
AcDbSymbolTableRecord
100
AcDbLinetypeTableRecord
  2
CENTER2
 70
    0
  3
Center (.5x) ___ _ ___ _ ___ _ ___ _ ___ _ ___
 72
   65
 73
    4
 40
28.575
 49
19.05
 74
    0
 49
-3.175
 74
    0
 49
3.175
 74
    0
 49
-3.175
 74
    0
  0
LTYPE
  5
49
330
5
100
AcDbSymbolTableRecord
100
AcDbLinetypeTableRecord
  2
CENTERX2
 70
    0
  3
Center (2x) ________  __  ________  __  _____
 72
   65
 73
    4
 40
101.6
 49
63.5
 74
    0
 49
-12.7
 74
    0
 49
12.7
 74
    0
 49
-12.7
 74
    0
  0
ENDTAB
  0
TABLE
  2
LAYER
  5
2
330
0
100
AcDbSymbolTable
 70
    1
  0
LAYER
  5
10
330
2
100
AcDbSymbolTableRecord
100
AcDbLayerTableRecord
  2
0
 70
    4
 62
    7
  6
CONTINUOUS
370
    0
390
F
  0
LAYER
  5
4A
330
2
100
AcDbSymbolTableRecord
100
AcDbLayerTableRecord
  2
pcb
 70
    4
 62
    2
  6
CONTINUOUS
370
    0
390
F
  0
LAYER
  5
4B
330
2
100
AcDbSymbolTableRecord
100
AcDbLayerTableRecord
  2
percage
 70
    4
 62
    4
  6
CONTINUOUS
370
    0
390
F
  0
LAYER
  5
4C
330
2
100
AcDbSymbolTableRecord
100
AcDbLayerTableRecord
  2
plate
 70
    0
 62
    1
  6
CONTINUOUS
370
    0
390
F
  0
LAYER
  5
4D
330
2
100
AcDbSymbolTableRecord
100
AcDbLayerTableRecord
  2
plate1
 70
    0
 62
   16
420
8388608
  6
CONTINUOUS
370
    0
390
F
  0
LAYER
  5
4E
330
2
100
AcDbSymbolTableRecord
100
AcDbLayerTableRecord
  2
plate2
 70
    0
 62
    6
  6
CONTINUOUS
370
    0
390
F
  0
LAYER
  5
4F
330
2
100
AcDbSymbolTableRecord
100
AcDbLayerTableRecord
  2
rpi
 70
    4
 62
    3
  6
CONTINUOUS
370
    0
390
F
  0
ENDTAB
  0
TABLE
  2
STYLE
  5
3
330
0
100
AcDbSymbolTable
 70
    3
  0
STYLE
  5
50
330
2
100
AcDbSymbolTableRecord
100
AcDbTextStyleTableRecord
  2
Standard
 70
    0
 40
0
 41
1
 50
0
 71
    0
 42
1
  3
txt
  4

  0
ENDTAB
  0
TABLE
  2
VIEW
  5
6
330
0
100
AcDbSymbolTable
 70
    0
  0
ENDTAB
  0
TABLE
  2
UCS
  5
7
330
0
100
AcDbSymbolTable
 70
    0
  0
ENDTAB
  0
TABLE
  2
APPID
  5
9
330
0
100
AcDbSymbolTable
 70
    1
  0
APPID
  5
12
330
9
100
AcDbSymbolTableRecord
100
AcDbRegAppTableRecord
  2
ACAD
 70
    0
  0
APPID
  5
51
330
9
100
AcDbSymbolTableRecord
100
AcDbRegAppTableRecord
  2
LibreCad
 70
    0
  0
ENDTAB
  0
TABLE
  2
DIMSTYLE
  5
A
330
0
100
AcDbSymbolTable
 70
    1
100
AcDbDimStyleTable
 71
    1
  0
DIMSTYLE
105
52
330
A
100
AcDbSymbolTableRecord
100
AcDbDimStyleTableRecord
  2
Standard
 70
    0
 40
2.5
 41
2.5
 42
0.625
 43
0.38
 44
1.25
 45
0
 46
0
 47
0
 48
0
 49
1
140
2.5
141
0.09
142
0
143
25.4
144
1
145
0
146
1
147
0.625
148
0
 71
    0
 72
    0
 73
    0
 74
    1
 75
    0
 76
    0
 77
    0
 78
    8
 79
    0
170
    0
171
    2
172
    0
173
    0
174
    0
175
    0
176
    0
177
    0
178
    0
179
    0
271
    2
272
    4
273
    2
274
    2
275
    0
276
    0
277
    2
278
   44
279
    0
280
    0
281
    0
282
    0
283
    1
284
    0
285
    0
286
    0
288
    0
289
    3
340
STANDARD
341

371
   -2
372
   -2
  0
ENDTAB
  0
TABLE
  2
BLOCK_RECORD
  5
1
330
0
100
AcDbSymbolTable
 70
    2
  0
BLOCK_RECORD
  5
1F
330
1
100
AcDbSymbolTableRecord
100
AcDbBlockTableRecord
  2
*Model_Space
 70
    0
280
    1
281
    0
  0
BLOCK_RECORD
  5
1E
330
1
100
AcDbSymbolTableRecord
100
AcDbBlockTableRecord
  2
*Paper_Space
 70
    0
280
    1
281
    0
  0
ENDTAB
  0
ENDSEC
  0
SECTION
  2
BLOCKS
  0
BLOCK
  5
20
330
1F
100
AcDbEntity
  8
0
100
AcDbBlockBegin
  2
*Model_Space
 70
    0
 10
0
 20
0
 30
0
  3
*Model_Space
  1

  0
ENDBLK
  5
21
330
1F
100
AcDbEntity
  8
0
100
AcDbBlockEnd
  0
BLOCK
  5
1C
330
1B
100
AcDbEntity
  8
0
100
AcDbBlockBegin
  2
*Paper_Space
 70
    0
 10
0
 20
0
 30
0
  3
*Paper_Space
  1

  0
ENDBLK
  5
1D
330
1F
100
AcDbEntity
  8
0
100
AcDbBlockEnd
  0
ENDSEC
  0
SECTION
  2
ENTITIES
  0
LINE
  5
53
100
AcDbEntity
  8
0
  6
ByLayer
 62
  256
370
   -1
100
AcDbLine
 10
-107.45
 20
43.06100501781271
 11
-93.45000000000002
 21
43.06100501781271
  0
LINE
  5
54
100
AcDbEntity
  8
0
  6
ByLayer
 62
  256
370
   -1
100
AcDbLine
 10
-107.45
 20
29.06100501781271
 11
-93.45000000000002
 21
29.06100501781271
  0
LINE
  5
55
100
AcDbEntity
  8
0
  6
ByLayer
 62
  256
370
   -1
100
AcDbLine
 10
-107.45
 20
43.06100501781271
 11
-107.45
 21
29.06100501781271
  0
LINE
  5
56
100
AcDbEntity
  8
0
  6
ByLayer
 62
  256
370
   -1
100
AcDbLine
 10
-93.45000000000002
 20
43.06100501781271
 11
-93.45000000000002
 21
29.06100501781271
  0
LINE
  5
57
100
AcDbEntity
  8
0
  6
ByLayer
 62
  256
370
   -1
100
AcDbLine
 10
-107.925
 20
23.68100501781271
 11
-93.92500000000001
 21
23.68100501781271
  0
LINE
  5
58
100
AcDbEntity
  8
0
  6
ByLayer
 62
  256
370
   -1
100
AcDbLine
 10
-107.925
 20
9.681005017812716
 11
-93.92500000000001
 21
9.681005017812716
  0
LINE
  5
59
100
AcDbEntity
  8
0
  6
ByLayer
 62
  256
370
   -1
100
AcDbLine
 10
-107.925
 20
23.68100501781271
 11
-107.925
 21
9.681005017812716
  0
LINE
  5
5A
100
AcDbEntity
  8
0
  6
ByLayer
 62
  256
370
   -1
100
AcDbLine
 10
-93.92500000000001
 20
23.68100501781271
 11
-93.92500000000001
 21
9.681005017812716
  0
LINE
  5
5B
100
AcDbEntity
  8
0
  6
ByLayer
 62
  256
370
   -1
100
AcDbLine
 10
-106.5
 20
4.301005017812713
 11
-92.50000000000001
 21
4.301005017812713
  0
LINE
  5
5C
100
AcDbEntity
  8
0
  6
ByLayer
 62
  256
370
   -1
100
AcDbLine
 10
-106.5
 20
-9.698994982187287
 11
-92.50000000000001
 21
-9.698994982187287
  0
LINE
  5
5D
100
AcDbEntity
  8
0
  6
ByLayer
 62
  256
370
   -1
100
AcDbLine
 10
-106.5
 20
4.301005017812713
 11
-106.5
 21
-9.698994982187287
  0
LINE
  5
5E
100
AcDbEntity
  8
0
  6
ByLayer
 62
  256
370
   -1
100
AcDbLine
 10
-92.50000000000001
 20
4.301005017812713
 11
-92.50000000000001
 21
-9.698994982187287
  0
LINE
  5
5F
100
AcDbEntity
  8
0
  6
ByLayer
 62
  256
370
   -1
100
AcDbLine
 10
-111.25
 20
-15.07899498218729
 11
-97.25000000000001
 21
-15.07899498218729
  0
LINE
  5
60
100
AcDbEntity
  8
0
  6
ByLayer
 62
  256
370
   -1
100
AcDbLine
 10
-111.25
 20
-29.07899498218728
 11
-97.25000000000001
 21
-29.07899498218728
  0
LINE
  5
61
100
AcDbEntity
  8
0
  6
ByLayer
 62
  256
370
   -1
100
AcDbLine
 10
-111.25
 20
-15.07899498218729
 11
-111.25
 21
-29.07899498218728
  0
LINE
  5
62
100
AcDbEntity
  8
0
  6
ByLayer
 62
  256
370
   -1
100
AcDbLine
 10
-97.25000000000001
 20
-15.07899498218729
 11
-97.25000000000001
 21
-29.07899498218728
  0
LINE
  5
63
100
AcDbEntity
  8
0
  6
ByLayer
 62
  256
370
   -1
100
AcDbLine
 10
-85.04102270000001
 20
43.05999241781272
 11
-71.25371420000002
 21
40.62891791781271
  0
LINE
  5
64
100
AcDbEntity
  8
0
  6
ByLayer
 62
  256
370
   -1
100
AcDbLine
 10
-87.47209720000001
 20
29.27268391781271
 11
-73.68478870000001
 21
26.84160941781271
  0
LINE
  5
65
100
AcDbEntity
  8
0
  6
ByLayer
 62
  256
370
   -1
100
AcDbLine
 10
-85.04102270000001
 20
43.05999241781272
 11
-87.47209720000001
 21
29.27268391781271
  0
LINE
  5
66
100
AcDbEntity
  8
0
  6
ByLayer
 62
  256
370
   -1
100
AcDbLine
 10
-71.25371420000002
 20
40.62891791781271
 11
-73.68478870000001
 21
26.84160941781271
  0
LINE
  5
67
100
AcDbEntity
  8
0
  6
ByLayer
 62
  256
370
   -1
100
AcDbLine
 10
-66.32967540000001
 20
39.76067711781271
 11
-52.54236690000002
 21
37.32960261781271
  0
LINE
  5
68
100
AcDbEntity
  8
0
  6
ByLayer
 62
  256
370
   -1
100
AcDbLine
 10
-68.76074990000001
 20
25.97336861781271
 11
-54.97344140000001
 21
23.54229411781271
  0
LINE
  5
69
100
AcDbEntity
  8
0
  6
ByLayer
 62
  256
370
   -1
100
AcDbLine
 10
-66.32967540000001
 20
39.76067711781271
 11
-68.76074990000001
 21
25.97336861781271
  0
LINE
  5
6A
100
AcDbEntity
  8
0
  6
ByLayer
 62
  256
370
   -1
100
AcDbLine
 10
-52.54236690000002
 20
37.32960261781271
 11
-54.97344140000001
 21
23.54229411781271
  0
LINE
  5
6B
100
AcDbEntity
  8
0
  6
ByLayer
 62
  256
370
   -1
100
AcDbLine
 10
-47.61832810000001
 20
36.46136171781271
 11
-33.83101960000002
 21
34.03028721781271
  0
LINE
  5
6C
100
AcDbEntity
  8
0
  6
ByLayer
 62
  256
370
   -1
100
AcDbLine
 10
-50.04940260000001
 20
22.67405321781271
 11
-36.26209410000001
 21
20.24297871781271
  0
LINE
  5
6D
100
AcDbEntity
  8
0
  6
ByLayer
 62
  256
370
   -1
100
AcDbLine
 10
-47.61832810000001
 20
36.46136171781271
 11
-50.04940260000001
 21
22.67405321781271
  0
LINE
  5
6E
100
AcDbEntity
  8
0
  6
ByLayer
 62
  256
370
   -1
100
AcDbLine
 10
-33.83101960000002
 20
34.03028721781271
 11
-36.26209410000001
 21
20.24297871781271
  0
LINE
  5
6F
100
AcDbEntity
  8
0
  6
ByLayer
 62
  256
370
   -1
100
AcDbLine
 10
-28.90698080000001
 20
33.16204631781271
 11
-15.11967230000002
 21
30.73097181781272
  0
LINE
  5
70
100
AcDbEntity
  8
0
  6
ByLayer
 62
  256
370
   -1
100
AcDbLine
 10
-31.33805530000001
 20
19.37473781781271
 11
-17.55074680000001
 21
16.94366331781271
  0
LINE
  5
71
100
AcDbEntity
  8
0
  6
ByLayer
 62
  256
370
   -1
100
AcDbLine
 10
-28.90698080000001
 20
33.16204631781271
 11
-31.33805530000001
 21
19.37473781781271
  0
LINE
  5
72
100
AcDbEntity
  8
0
  6
ByLayer
 62
  256
370
   -1
100
AcDbLine
 10
-15.11967230000002
 20
30.73097181781272
 11
-17.55074680000001
 21
16.94366331781271
  0
LINE
  5
73
100
AcDbEntity
  8
0
  6
ByLayer
 62
  256
370
   -1
100
AcDbLine
 10
-83.66250120000001
 20
23.52381631781271
 11
-69.87519270000001
 21
21.09274181781271
  0
LINE
  5
74
100
AcDbEntity
  8
0
  6
ByLayer
 62
  256
370
   -1
100
AcDbLine
 10
-86.09357570000002
 20
9.736507817812715
 11
-72.30626720000001
 21
7.305433317812714
  0
LINE
  5
75
100
AcDbEntity
  8
0
  6
ByLayer
 62
  256
370
   -1
100
AcDbLine
 10
-83.66250120000001
 20
23.52381631781271
 11
-86.09357570000002
 21
9.736507817812715
  0
LINE
  5
76
100
AcDbEntity
  8
0
  6
ByLayer
 62
  256
370
   -1
100
AcDbLine
 10
-69.87519270000001
 20
21.09274181781271
 11
-72.30626720000001
 21
7.305433317812714
  0
LINE
  5
77
100
AcDbEntity
  8
0
  6
ByLayer
 62
  256
370
   -1
100
AcDbLine
 10
-64.95115390000001
 20
20.22450091781271
 11
-51.16384540000001
 21
17.79342641781271
  0
LINE
  5
78
100
AcDbEntity
  8
0
  6
ByLayer
 62
  256
370
   -1
100
AcDbLine
 10
-67.38222840000002
 20
6.43719241781271
 11
-53.59491990000001
 21
4.006117917812709
  0
LINE
  5
79
100
AcDbEntity
  8
0
  6
ByLayer
 62
  256
370
   -1
100
AcDbLine
 10
-64.95115390000001
 20
20.22450091781271
 11
-67.38222840000002
 21
6.43719241781271
  0
LINE
  5
7A
100
AcDbEntity
  8
0
  6
ByLayer
 62
  256
370
   -1
100
AcDbLine
 10
-51.16384540000001
 20
17.79342641781271
 11
-53.59491990000001
 21
4.006117917812709
  0
LINE
  5
7B
100
AcDbEntity
  8
0
  6
ByLayer
 62
  256
370
   -1
100
AcDbLine
 10
-46.23980660000001
 20
16.92518551781271
 11
-32.45249810000001
 21
14.49411101781271
  0
LINE
  5
7C
100
AcDbEntity
  8
0
  6
ByLayer
 62
  256
370
   -1
100
AcDbLine
 10
-48.67088110000002
 20
3.137877017812713
 11
-34.88357260000001
 21
0.7068025178127115
  0
LINE
  5
7D
100
AcDbEntity
  8
0
  6
ByLayer
 62
  256
370
   -1
100
AcDbLine
 10
-46.23980660000001
 20
16.92518551781271
 11
-48.67088110000002
 21
3.137877017812713
  0
LINE
  5
7E
100
AcDbEntity
  8
0
  6
ByLayer
 62
  256
370
   -1
100
AcDbLine
 10
-32.45249810000001
 20
14.49411101781271
 11
-34.88357260000001
 21
0.7068025178127115
  0
LINE
  5
7F
100
AcDbEntity
  8
0
  6
ByLayer
 62
  256
370
   -1
100
AcDbLine
 10
-27.52845930000001
 20
13.62587021781271
 11
-13.74115080000001
 21
11.19479571781271
  0
LINE
  5
80
100
AcDbEntity
  8
0
  6
ByLayer
 62
  256
370
   -1
100
AcDbLine
 10
-29.95953380000002
 20
-0.1614382821872908
 11
-16.17222530000001
 21
-2.592512782187285
  0
LINE
  5
81
100
AcDbEntity
  8
0
  6
ByLayer
 62
  256
370
   -1
100
AcDbLine
 10
-27.52845930000001
 20
13.62587021781271
 11
-29.95953380000002
 21
-0.1614382821872908
  0
LINE
  5
82
100
AcDbEntity
  8
0
  6
ByLayer
 62
  256
370
   -1
100
AcDbLine
 10
-13.74115080000001
 20
11.19479571781271
 11
-16.17222530000001
 21
-2.592512782187285
  0
LINE
  5
83
100
AcDbEntity
  8
0
  6
ByLayer
 62
  256
370
   -1
100
AcDbLine
 10
-77.60614300000002
 20
3.162811317812711
 11
-63.81883450000002
 21
0.7317368178127097
  0
LINE
  5
84
100
AcDbEntity
  8
0
  6
ByLayer
 62
  256
370
   -1
100
AcDbLine
 10
-80.03721750000001
 20
-10.62449718218729
 11
-66.24990900000002
 21
-13.05557168218728
  0
LINE
  5
85
100
AcDbEntity
  8
0
  6
ByLayer
 62
  256
370
   -1
100
AcDbLine
 10
-77.60614300000002
 20
3.162811317812711
 11
-80.03721750000001
 21
-10.62449718218729
  0
LINE
  5
86
100
AcDbEntity
  8
0
  6
ByLayer
 62
  256
370
   -1
100
AcDbLine
 10
-63.81883450000002
 20
0.7317368178127097
 11
-66.24990900000002
 21
-13.05557168218728
  0
LINE
  5
87
100
AcDbEntity
  8
0
  6
ByLayer
 62
  256
370
   -1
100
AcDbLine
 10
-58.89479560000002
 20
-0.1365040821872867
 11
-45.10748710000001
 21
-2.567578582187288
  0
LINE
  5
88
100
AcDbEntity
  8
0
  6
ByLayer
 62
  256
370
   -1
100
AcDbLine
 10
-61.32587010000002
 20
-13.92381258218729
 11
-47.53856160000001
 21
-16.35488708218729
  0
LINE
  5
89
100
AcDbEntity
  8
0
  6
ByLayer
 62
  256
370
   -1
100
AcDbLine
 10
-58.89479560000002
 20
-0.1365040821872867
 11
-61.32587010000002
 21
-13.92381258218729
  0
LINE
  5
8A
100
AcDbEntity
  8
0
  6
ByLayer
 62
  256
370
   -1
100
AcDbLine
 10
-45.10748710000001
 20
-2.567578582187288
 11
-47.53856160000001
 21
-16.35488708218729
  0
LINE
  5
8B
100
AcDbEntity
  8
0
  6
ByLayer
 62
  256
370
   -1
100
AcDbLine
 10
-40.18344830000001
 20
-3.435819482187284
 11
-26.39613980000001
 21
-5.866893982187285
  0
LINE
  5
8C
100
AcDbEntity
  8
0
  6
ByLayer
 62
  256
370
   -1
100
AcDbLine
 10
-42.61452280000002
 20
-17.22312798218729
 11
-28.82721430000001
 21
-19.65420248218729
  0
LINE
  5
8D
100
AcDbEntity
  8
0
  6
ByLayer
 62
  256
370
   -1
100
AcDbLine
 10
-40.18344830000001
 20
-3.435819482187284
 11
-42.61452280000002
 21
-17.22312798218729
  0
LINE
  5
8E
100
AcDbEntity
  8
0
  6
ByLayer
 62
  256
370
   -1
100
AcDbLine
 10
-26.39613980000001
 20
-5.866893982187285
 11
-28.82721430000001
 21
-19.65420248218729
  0
LINE
  5
8F
100
AcDbEntity
  8
0
  6
ByLayer
 62
  256
370
   -1
100
AcDbLine
 10
-21.47210100000001
 20
-6.735134782187288
 11
-7.684792500000015
 21
-9.166209282187289
  0
LINE
  5
90
100
AcDbEntity
  8
0
  6
ByLayer
 62
  256
370
   -1
100
AcDbLine
 10
-23.90317550000002
 20
-20.52244328218728
 11
-10.11586700000001
 21
-22.95351778218729
  0
LINE
  5
91
100
AcDbEntity
  8
0
  6
ByLayer
 62
  256
370
   -1
100
AcDbLine
 10
-21.47210100000001
 20
-6.735134782187288
 11
-23.90317550000002
 21
-20.52244328218728
  0
LINE
  5
92
100
AcDbEntity
  8
0
  6
ByLayer
 62
  256
370
   -1
100
AcDbLine
 10
-7.684792500000015
 20
-9.166209282187289
 11
-10.11586700000001
 21
-22.95351778218729
  0
LINE
  5
93
100
AcDbEntity
  8
0
  6
ByLayer
 62
  256
370
   -1
100
AcDbLine
 10
-66.87194790000001
 20
-18.02302258218728
 11
-53.08463940000001
 21
-20.45409708218729
  0
LINE
  5
94
100
AcDbEntity
  8
0
  6
ByLayer
 62
  256
370
   -1
100
AcDbLine
 10
-69.30302240000002
 20
-31.81033108218729
 11
-55.51571390000002
 21
-34.24140558218728
  0
LINE
  5
95
100
AcDbEntity
  8
0
  6
ByLayer
 62
  256
370
   -1
100
AcDbLine
 10
-66.87194790000001
 20
-18.02302258218728
 11
-69.30302240000002
 21
-31.81033108218729
  0
LINE
  5
96
100
AcDbEntity
  8
0
  6
ByLayer
 62
  256
370
   -1
100
AcDbLine
 10
-53.08463940000001
 20
-20.45409708218729
 11
-55.51571390000002
 21
-34.24140558218728
  0
LINE
  5
97
100
AcDbEntity
  8
0
  6
ByLayer
 62
  256
370
   -1
100
AcDbLine
 10
-36.46600850000002
 20
-23.38440998218729
 11
-22.67870000000002
 21
-25.81548448218729
  0
LINE
  5
98
100
AcDbEntity
  8
0
  6
ByLayer
 62
  256
370
   -1
100
AcDbLine
 10
-38.89708300000001
 20
-37.17171848218729
 11
-25.10977450000001
 21
-39.60279298218728
  0
LINE
  5
99
100
AcDbEntity
  8
0
  6
ByLayer
 62
  256
370
   -1
100
AcDbLine
 10
-36.46600850000002
 20
-23.38440998218729
 11
-38.89708300000001
 21
-37.17171848218729
  0
LINE
  5
9A
100
AcDbEntity
  8
0
  6
ByLayer
 62
  256
370
   -1
100
AcDbLine
 10
-22.67870000000002
 20
-25.81548448218729
 11
-25.10977450000001
 21
-39.60279298218728
  0
LINE
  5
9B
100
AcDbEntity
  8
0
  6
ByLayer
 62
  256
370
   -1
100
AcDbLine
 10
-44.94946450000002
 20
-22.90397438218729
 11
-38.05581030000002
 21
-24.11951168218729
  0
LINE
  5
9C
100
AcDbEntity
  8
0
  6
ByLayer
 62
  256
370
   -1
100
AcDbLine
 10
-47.55418720000002
 20
-37.67609068218729
 11
-40.66053290000002
 21
-38.89162798218729
  0
LINE
  5
9D
100
AcDbEntity
  8
0
  6
ByLayer
 62
  256
370
   -1
100
AcDbLine
 10
-44.94946450000002
 20
-22.90397438218729
 11
-47.55418720000002
 21
-37.67609068218729
  0
LINE
  5
9E
100
AcDbEntity
  8
0
  6
ByLayer
 62
  256
370
   -1
100
AcDbLine
 10
-38.05581030000002
 20
-24.11951168218729
 11
-40.66053290000002
 21
-38.89162798218729
  0
LINE
  5
9F
100
AcDbEntity
  8
0
  6
ByLayer
 62
  256
370
   -1
100
AcDbLine
 10
-21.43619460000001
 20
-27.04999828218729
 11
-14.54254030000001
 21
-28.26553548218729
  0
LINE
  5
A0
100
AcDbEntity
  8
0
  6
ByLayer
 62
  256
370
   -1
100
AcDbLine
 10
-24.04091730000002
 20
-41.82211458218728
 11
-17.14726300000001
 21
-43.03765178218728
  0
LINE
  5
A1
100
AcDbEntity
  8
0
  6
ByLayer
 62
  256
370
   -1
100
AcDbLine
 10
-21.43619460000001
 20
-27.04999828218729
 11
-24.04091730000002
 21
-41.82211458218728
  0
LINE
  5
A2
100
AcDbEntity
  8
0
  6
ByLayer
 62
  256
370
   -1
100
AcDbLine
 10
-14.54254030000001
 20
-28.26553548218729
 11
-17.14726300000001
 21
-43.03765178218728
  0
LINE
  5
A3
100
AcDbEntity
  8
0
  6
ByLayer
 62
  256
370
   -1
100
AcDbLine
 10
91.07499999999997
 20
43.06100501781271
 11
105.075
 21
43.06100501781271
  0
LINE
  5
A4
100
AcDbEntity
  8
0
  6
ByLayer
 62
  256
370
   -1
100
AcDbLine
 10
91.07499999999997
 20
29.06100501781271
 11
105.075
 21
29.06100501781271
  0
LINE
  5
A5
100
AcDbEntity
  8
0
  6
ByLayer
 62
  256
370
   -1
100
AcDbLine
 10
91.07499999999997
 20
43.06100501781271
 11
91.07499999999997
 21
29.06100501781271
  0
LINE
  5
A6
100
AcDbEntity
  8
0
  6
ByLayer
 62
  256
370
   -1
100
AcDbLine
 10
105.075
 20
43.06100501781271
 11
105.075
 21
29.06100501781271
  0
LINE
  5
A7
100
AcDbEntity
  8
0
  6
ByLayer
 62
  256
370
   -1
100
AcDbLine
 10
96.3
 20
23.68100501781271
 11
110.3
 21
23.68100501781271
  0
LINE
  5
A8
100
AcDbEntity
  8
0
  6
ByLayer
 62
  256
370
   -1
100
AcDbLine
 10
96.3
 20
9.681005017812716
 11
110.3
 21
9.681005017812716
  0
LINE
  5
A9
100
AcDbEntity
  8
0
  6
ByLayer
 62
  256
370
   -1
100
AcDbLine
 10
96.3
 20
23.68100501781271
 11
96.3
 21
9.681005017812716
  0
LINE
  5
AA
100
AcDbEntity
  8
0
  6
ByLayer
 62
  256
370
   -1
100
AcDbLine
 10
110.3
 20
23.68100501781271
 11
110.3
 21
9.681005017812716
  0
LINE
  5
AB
100
AcDbEntity
  8
0
  6
ByLayer
 62
  256
370
   -1
100
AcDbLine
 10
94.87499999999999
 20
4.301005017812713
 11
108.875
 21
4.301005017812713
  0
LINE
  5
AC
100
AcDbEntity
  8
0
  6
ByLayer
 62
  256
370
   -1
100
AcDbLine
 10
94.87499999999999
 20
-9.698994982187287
 11
108.875
 21
-9.698994982187287
  0
LINE
  5
AD
100
AcDbEntity
  8
0
  6
ByLayer
 62
  256
370
   -1
100
AcDbLine
 10
94.87499999999999
 20
4.301005017812713
 11
94.87499999999999
 21
-9.698994982187287
  0
LINE
  5
AE
100
AcDbEntity
  8
0
  6
ByLayer
 62
  256
370
   -1
100
AcDbLine
 10
108.875
 20
4.301005017812713
 11
108.875
 21
-9.698994982187287
  0
LINE
  5
AF
100
AcDbEntity
  8
0
  6
ByLayer
 62
  256
370
   -1
100
AcDbLine
 10
97.24999999999999
 20
-15.07899498218729
 11
111.25
 21
-15.07899498218729
  0
LINE
  5
B0
100
AcDbEntity
  8
0
  6
ByLayer
 62
  256
370
   -1
100
AcDbLine
 10
97.24999999999999
 20
-29.07899498218728
 11
111.25
 21
-29.07899498218728
  0
LINE
  5
B1
100
AcDbEntity
  8
0
  6
ByLayer
 62
  256
370
   -1
100
AcDbLine
 10
97.24999999999999
 20
-15.07899498218729
 11
97.24999999999999
 21
-29.07899498218728
  0
LINE
  5
B2
100
AcDbEntity
  8
0
  6
ByLayer
 62
  256
370
   -1
100
AcDbLine
 10
111.25
 20
-15.07899498218729
 11
111.25
 21
-29.07899498218728
  0
LINE
  5
B3
100
AcDbEntity
  8
0
  6
ByLayer
 62
  256
370
   -1
100
AcDbLine
 10
10.51399859999998
 20
29.08131411781271
 11
24.30130709999999
 21
31.51238861781271
  0
LINE
  5
B4
100
AcDbEntity
  8
0
  6
ByLayer
 62
  256
370
   -1
100
AcDbLine
 10
12.94507309999999
 20
15.29400561781272
 11
26.73238159999998
 21
17.72508011781271
  0
LINE
  5
B5
100
AcDbEntity
  8
0
  6
ByLayer
 62
  256
370
   -1
100
AcDbLine
 10
10.51399859999998
 20
29.08131411781271
 11
12.94507309999999
 21
15.29400561781272
  0
LINE
  5
B6
100
AcDbEntity
  8
0
  6
ByLayer
 62
  256
370
   -1
100
AcDbLine
 10
24.30130709999999
 20
31.51238861781271
 11
26.73238159999998
 21
17.72508011781271
  0
LINE
  5
B7
100
AcDbEntity
  8
0
  6
ByLayer
 62
  256
370
   -1
100
AcDbLine
 10
29.22534589999999
 20
32.38062951781271
 11
43.01265439999999
 21
34.81170401781272
  0
LINE
  5
B8
100
AcDbEntity
  8
0
  6
ByLayer
 62
  256
370
   -1
100
AcDbLine
 10
31.65642039999999
 20
18.59332101781271
 11
45.44372889999998
 21
21.02439551781271
  0
LINE
  5
B9
100
AcDbEntity
  8
0
  6
ByLayer
 62
  256
370
   -1
100
AcDbLine
 10
29.22534589999999
 20
32.38062951781271
 11
31.65642039999999
 21
18.59332101781271
  0
LINE
  5
BA
100
AcDbEntity
  8
0
  6
ByLayer
 62
  256
370
   -1
100
AcDbLine
 10
43.01265439999999
 20
34.81170401781272
 11
45.44372889999998
 21
21.02439551781271
  0
LINE
  5
BB
100
AcDbEntity
  8
0
  6
ByLayer
 62
  256
370
   -1
100
AcDbLine
 10
47.93669319999999
 20
35.67994491781271
 11
61.72400169999999
 21
38.11101941781271
  0
LINE
  5
BC
100
AcDbEntity
  8
0
  6
ByLayer
 62
  256
370
   -1
100
AcDbLine
 10
50.36776769999999
 20
21.89263641781271
 11
64.15507619999998
 21
24.32371091781271
  0
LINE
  5
BD
100
AcDbEntity
  8
0
  6
ByLayer
 62
  256
370
   -1
100
AcDbLine
 10
47.93669319999999
 20
35.67994491781271
 11
50.36776769999999
 21
21.89263641781271
  0
LINE
  5
BE
100
AcDbEntity
  8
0
  6
ByLayer
 62
  256
370
   -1
100
AcDbLine
 10
61.72400169999999
 20
38.11101941781271
 11
64.15507619999998
 21
24.32371091781271
  0
LINE
  5
BF
100
AcDbEntity
  8
0
  6
ByLayer
 62
  256
370
   -1
100
AcDbLine
 10
66.64804049999999
 20
38.97926021781271
 11
80.43534899999999
 21
41.41033471781271
  0
LINE
  5
C0
100
AcDbEntity
  8
0
  6
ByLayer
 62
  256
370
   -1
100
AcDbLine
 10
69.07911499999999
 20
25.19195171781271
 11
82.86642349999998
 21
27.62302621781271
  0
LINE
  5
C1
100
AcDbEntity
  8
0
  6
ByLayer
 62
  256
370
   -1
100
AcDbLine
 10
66.64804049999999
 20
38.97926021781271
 11
69.07911499999999
 21
25.19195171781271
  0
LINE
  5
C2
100
AcDbEntity
  8
0
  6
ByLayer
 62
  256
370
   -1
100
AcDbLine
 10
80.43534899999999
 20
41.41033471781271
 11
82.86642349999998
 21
27.62302621781271
  0
LINE
  5
C3
100
AcDbEntity
  8
0
  6
ByLayer
 62
  256
370
   -1
100
AcDbLine
 10
18.49115079999999
 20
11.19479571781271
 11
32.27845929999999
 21
13.62587021781271
  0
LINE
  5
C4
100
AcDbEntity
  8
0
  6
ByLayer
 62
  256
370
   -1
100
AcDbLine
 10
20.92222529999999
 20
-2.592512782187285
 11
34.70953379999999
 21
-0.1614382821872908
  0
LINE
  5
C5
100
AcDbEntity
  8
0
  6
ByLayer
 62
  256
370
   -1
100
AcDbLine
 10
18.49115079999999
 20
11.19479571781271
 11
20.92222529999999
 21
-2.592512782187285
  0
LINE
  5
C6
100
AcDbEntity
  8
0
  6
ByLayer
 62
  256
370
   -1
100
AcDbLine
 10
32.27845929999999
 20
13.62587021781271
 11
34.70953379999999
 21
-0.1614382821872908
  0
LINE
  5
C7
100
AcDbEntity
  8
0
  6
ByLayer
 62
  256
370
   -1
100
AcDbLine
 10
37.2024981
 20
14.49411101781271
 11
50.98980659999999
 21
16.92518551781271
  0
LINE
  5
C8
100
AcDbEntity
  8
0
  6
ByLayer
 62
  256
370
   -1
100
AcDbLine
 10
39.63357259999999
 20
0.7068025178127115
 11
53.42088109999999
 21
3.137877017812713
  0
LINE
  5
C9
100
AcDbEntity
  8
0
  6
ByLayer
 62
  256
370
   -1
100
AcDbLine
 10
37.2024981
 20
14.49411101781271
 11
39.63357259999999
 21
0.7068025178127115
  0
LINE
  5
CA
100
AcDbEntity
  8
0
  6
ByLayer
 62
  256
370
   -1
100
AcDbLine
 10
50.98980659999999
 20
16.92518551781271
 11
53.42088109999999
 21
3.137877017812713
  0
LINE
  5
CB
100
AcDbEntity
  8
0
  6
ByLayer
 62
  256
370
   -1
100
AcDbLine
 10
55.9138454
 20
17.79342641781271
 11
69.70115389999999
 21
20.22450091781271
  0
LINE
  5
CC
100
AcDbEntity
  8
0
  6
ByLayer
 62
  256
370
   -1
100
AcDbLine
 10
58.34491989999999
 20
4.006117917812709
 11
72.13222839999999
 21
6.43719241781271
  0
LINE
  5
CD
100
AcDbEntity
  8
0
  6
ByLayer
 62
  256
370
   -1
100
AcDbLine
 10
55.9138454
 20
17.79342641781271
 11
58.34491989999999
 21
4.006117917812709
  0
LINE
  5
CE
100
AcDbEntity
  8
0
  6
ByLayer
 62
  256
370
   -1
100
AcDbLine
 10
69.70115389999999
 20
20.22450091781271
 11
72.13222839999999
 21
6.43719241781271
  0
LINE
  5
CF
100
AcDbEntity
  8
0
  6
ByLayer
 62
  256
370
   -1
100
AcDbLine
 10
74.6251927
 20
21.09274181781271
 11
88.41250119999999
 21
23.52381631781271
  0
LINE
  5
D0
100
AcDbEntity
  8
0
  6
ByLayer
 62
  256
370
   -1
100
AcDbLine
 10
77.05626719999999
 20
7.305433317812714
 11
90.84357569999999
 21
9.736507817812715
  0
LINE
  5
D1
100
AcDbEntity
  8
0
  6
ByLayer
 62
  256
370
   -1
100
AcDbLine
 10
74.6251927
 20
21.09274181781271
 11
77.05626719999999
 21
7.305433317812714
  0
LINE
  5
D2
100
AcDbEntity
  8
0
  6
ByLayer
 62
  256
370
   -1
100
AcDbLine
 10
88.41250119999999
 20
23.52381631781271
 11
90.84357569999999
 21
9.736507817812715
  0
LINE
  5
D3
100
AcDbEntity
  8
0
  6
ByLayer
 62
  256
370
   -1
100
AcDbLine
 10
12.43479249999999
 20
-9.166209282187289
 11
26.22210099999999
 21
-6.735134782187288
  0
LINE
  5
D4
100
AcDbEntity
  8
0
  6
ByLayer
 62
  256
370
   -1
100
AcDbLine
 10
14.86586699999998
 20
-22.95351778218729
 11
28.65317549999999
 21
-20.52244328218728
  0
LINE
  5
D5
100
AcDbEntity
  8
0
  6
ByLayer
 62
  256
370
   -1
100
AcDbLine
 10
12.43479249999999
 20
-9.166209282187289
 11
14.86586699999998
 21
-22.95351778218729
  0
LINE
  5
D6
100
AcDbEntity
  8
0
  6
ByLayer
 62
  256
370
   -1
100
AcDbLine
 10
26.22210099999999
 20
-6.735134782187288
 11
28.65317549999999
 21
-20.52244328218728
  0
LINE
  5
D7
100
AcDbEntity
  8
0
  6
ByLayer
 62
  256
370
   -1
100
AcDbLine
 10
31.14613979999997
 20
-5.866893982187285
 11
44.93344829999999
 21
-3.435819482187284
  0
LINE
  5
D8
100
AcDbEntity
  8
0
  6
ByLayer
 62
  256
370
   -1
100
AcDbLine
 10
33.57721429999999
 20
-19.65420248218729
 11
47.36452279999999
 21
-17.22312798218729
  0
LINE
  5
D9
100
AcDbEntity
  8
0
  6
ByLayer
 62
  256
370
   -1
100
AcDbLine
 10
31.14613979999997
 20
-5.866893982187285
 11
33.57721429999999
 21
-19.65420248218729
  0
LINE
  5
DA
100
AcDbEntity
  8
0
  6
ByLayer
 62
  256
370
   -1
100
AcDbLine
 10
44.93344829999999
 20
-3.435819482187284
 11
47.36452279999999
 21
-17.22312798218729
  0
LINE
  5
DB
100
AcDbEntity
  8
0
  6
ByLayer
 62
  256
370
   -1
100
AcDbLine
 10
49.85748709999997
 20
-2.567578582187288
 11
63.64479559999999
 21
-0.1365040821872867
  0
LINE
  5
DC
100
AcDbEntity
  8
0
  6
ByLayer
 62
  256
370
   -1
100
AcDbLine
 10
52.28856159999999
 20
-16.35488708218729
 11
66.07587009999999
 21
-13.92381258218729
  0
LINE
  5
DD
100
AcDbEntity
  8
0
  6
ByLayer
 62
  256
370
   -1
100
AcDbLine
 10
49.85748709999997
 20
-2.567578582187288
 11
52.28856159999999
 21
-16.35488708218729
  0
LINE
  5
DE
100
AcDbEntity
  8
0
  6
ByLayer
 62
  256
370
   -1
100
AcDbLine
 10
63.64479559999999
 20
-0.1365040821872867
 11
66.07587009999999
 21
-13.92381258218729
  0
LINE
  5
DF
100
AcDbEntity
  8
0
  6
ByLayer
 62
  256
370
   -1
100
AcDbLine
 10
68.56883449999999
 20
0.7317368178127097
 11
82.35614299999999
 21
3.162811317812711
  0
LINE
  5
E0
100
AcDbEntity
  8
0
  6
ByLayer
 62
  256
370
   -1
100
AcDbLine
 10
70.99990899999999
 20
-13.05557168218728
 11
84.78721749999998
 21
-10.62449718218729
  0
LINE
  5
E1
100
AcDbEntity
  8
0
  6
ByLayer
 62
  256
370
   -1
100
AcDbLine
 10
68.56883449999999
 20
0.7317368178127097
 11
70.99990899999999
 21
-13.05557168218728
  0
LINE
  5
E2
100
AcDbEntity
  8
0
  6
ByLayer
 62
  256
370
   -1
100
AcDbLine
 10
82.35614299999999
 20
3.162811317812711
 11
84.78721749999998
 21
-10.62449718218729
  0
LINE
  5
E3
100
AcDbEntity
  8
0
  6
ByLayer
 62
  256
370
   -1
100
AcDbLine
 10
25.08978159999999
 20
-26.22789898218728
 11
38.87709009999999
 21
-23.79682448218729
  0
LINE
  5
E4
100
AcDbEntity
  8
0
  6
ByLayer
 62
  256
370
   -1
100
AcDbLine
 10
27.52085609999999
 20
-40.01520748218729
 11
41.30816459999998
 21
-37.58413298218728
  0
LINE
  5
E5
100
AcDbEntity
  8
0
  6
ByLayer
 62
  256
370
   -1
100
AcDbLine
 10
25.08978159999999
 20
-26.22789898218728
 11
27.52085609999999
 21
-40.01520748218729
  0
LINE
  5
E6
100
AcDbEntity
  8
0
  6
ByLayer
 62
  256
370
   -1
100
AcDbLine
 10
38.87709009999999
 20
-23.79682448218729
 11
41.30816459999998
 21
-37.58413298218728
  0
LINE
  5
E7
100
AcDbEntity
  8
0
  6
ByLayer
 62
  256
370
   -1
100
AcDbLine
 10
16.95362189999999
 20
-28.67794998218729
 11
23.8472762
 21
-27.46241278218729
  0
LINE
  5
E8
100
AcDbEntity
  8
0
  6
ByLayer
 62
  256
370
   -1
100
AcDbLine
 10
19.55834459999998
 20
-43.45006628218729
 11
26.45199889999999
 21
-42.23452908218729
  0
LINE
  5
E9
100
AcDbEntity
  8
0
  6
ByLayer
 62
  256
370
   -1
100
AcDbLine
 10
16.95362189999999
 20
-28.67794998218729
 11
19.55834459999998
 21
-43.45006628218729
  0
LINE
  5
EA
100
AcDbEntity
  8
0
  6
ByLayer
 62
  256
370
   -1
100
AcDbLine
 10
23.8472762
 20
-27.46241278218729
 11
26.45199889999999
 21
-42.23452908218729
  0
LINE
  5
EB
100
AcDbEntity
  8
0
  6
ByLayer
 62
  256
370
   -1
100
AcDbLine
 10
40.46689189999999
 20
-24.53192618218729
 11
47.36054609999998
 21
-23.31638888218728
  0
LINE
  5
EC
100
AcDbEntity
  8
0
  6
ByLayer
 62
  256
370
   -1
100
AcDbLine
 10
43.0716145
 20
-39.30404248218728
 11
49.96526879999998
 21
-38.08850518218729
  0
LINE
  5
ED
100
AcDbEntity
  8
0
  6
ByLayer
 62
  256
370
   -1
100
AcDbLine
 10
40.46689189999999
 20
-24.53192618218729
 11
43.0716145
 21
-39.30404248218728
  0
LINE
  5
EE
100
AcDbEntity
  8
0
  6
ByLayer
 62
  256
370
   -1
100
AcDbLine
 10
47.36054609999998
 20
-23.31638888218728
 11
49.96526879999998
 21
-38.08850518218729
  0
LINE
  5
EF
100
AcDbEntity
  8
0
  6
ByLayer
 62
  256
370
   -1
100
AcDbLine
 10
53.15680249999998
 20
-21.27892588218728
 11
66.94411099999998
 21
-18.84785138218729
  0
LINE
  5
F0
100
AcDbEntity
  8
0
  6
ByLayer
 62
  256
370
   -1
100
AcDbLine
 10
55.58787699999998
 20
-35.06623438218729
 11
69.37518549999997
 21
-32.63515988218728
  0
LINE
  5
F1
100
AcDbEntity
  8
0
  6
ByLayer
 62
  256
370
   -1
100
AcDbLine
 10
53.15680249999998
 20
-21.27892588218728
 11
55.58787699999998
 21
-35.06623438218729
  0
LINE
  5
F2
100
AcDbEntity
  8
0
  6
ByLayer
 62
  256
370
   -1
100
AcDbLine
 10
66.94411099999998
 20
-18.84785138218729
 11
69.37518549999997
 21
-32.63515988218728
  0
ARC
  5
F3
100
AcDbEntity
  8
pcb
  6
ByLayer
 62
  256
370
   -1
100
AcDbCircle
 10
-112.125
 20
41.56100501781271
 40
5
100
AcDbArc
 50
90
 51
180
  0
LINE
  5
F4
100
AcDbEntity
  8
pcb
  6
ByLayer
 62
  256
370
   -1
100
AcDbLine
 10
-117.125
 20
41.56100501781271
 11
-117.125
 21
-41.56100501781273
  0
ARC
  5
F5
100
AcDbEntity
  8
pcb
  6
ByLayer
 62
  256
370
   -1
100
AcDbCircle
 10
-112.125
 20
-41.56100501781272
 40
5
100
AcDbArc
 50
180.0000000000001
 51
270
  0
ARC
  5
F6
100
AcDbEntity
  8
pcb
  6
ByLayer
 62
  256
370
   -1
100
AcDbCircle
 10
112.125
 20
41.56100501781271
 40
5
100
AcDbArc
 50
0
 51
90
  0
LINE
  5
F7
100
AcDbEntity
  8
pcb
  6
ByLayer
 62
  256
370
   -1
100
AcDbLine
 10
117.125
 20
41.56100501781271
 11
117.125
 21
-41.56100501781273
  0
ARC
  5
F8
100
AcDbEntity
  8
pcb
  6
ByLayer
 62
  256
370
   -1
100
AcDbCircle
 10
112.125
 20
-41.56100501781272
 40
5
100
AcDbArc
 50
270
 51
359.9999999999999
  0
LINE
  5
F9
100
AcDbEntity
  8
pcb
  6
ByLayer
 62
  256
370
   -1
100
AcDbLine
 10
-112.125
 20
-46.56100501781272
 11
112.125
 21
-46.56100501781271
  0
LINE
  5
FA
100
AcDbEntity
  8
pcb
  6
ByLayer
 62
  256
370
   -1
100
AcDbLine
 10
-112.125
 20
46.56100501781271
 11
112.125
 21
46.56100501781271
  0
LINE
  5
FB
100
AcDbEntity
  8
rpi
  6
ByLayer
 62
  256
370
   -1
100
AcDbLine
 10
-11.30283685000002
 20
14.54104980104941
 11
6.69716314999998
 21
14.54104980104941
  0
LINE
  5
FC
100
AcDbEntity
  8
rpi
  6
ByLayer
 62
  256
370
   -1
100
AcDbLine
 10
6.69716314999998
 20
14.54104980104941
 11
6.69716314999998
 21
39.54104980104941
  0
LINE
  5
FD
100
AcDbEntity
  8
rpi
  6
ByLayer
 62
  256
370
   -1
100
AcDbLine
 10
-11.30283685000002
 20
14.54104980104941
 11
-11.30283685000002
 21
39.54104980104941
  0
LINE
  5
FE
100
AcDbEntity
  8
rpi
  6
ByLayer
 62
  256
370
   -1
100
AcDbLine
 10
-11.30283685000002
 20
39.54104980104941
 11
6.69716314999998
 21
39.54104980104941
  0
ARC
  5
FF
100
AcDbEntity
  8
plate
  6
ByLayer
 62
  256
370
   -1
100
AcDbCircle
 10
-112.125
 20
-41.56100501781272
 40
4
100
AcDbArc
 50
180.0000000000001
 51
270
  0
LINE
  5
100
100
AcDbEntity
  8
plate
  6
ByLayer
 62
  256
370
   -1
100
AcDbLine
 10
-112.125
 20
-45.56100501781272
 11
112.125
 21
-45.56100501781271
  0
LINE
  5
101
100
AcDbEntity
  8
plate
  6
ByLayer
 62
  256
370
   -1
100
AcDbLine
 10
-48.71264313163535
 20
-38.48725025004495
 11
-39.91043142729485
 21
-40.03931772884534
  0
LINE
  5
102
100
AcDbEntity
  8
plate
  6
ByLayer
 62
  256
370
   -1
100
AcDbLine
 10
-25.13831518961992
 20
-42.64404049349421
 11
-16.33610347305543
 21
-44.19610797445003
  0
LINE
  5
103
100
AcDbEntity
  8
plate
  6
ByLayer
 62
  256
370
   -1
100
AcDbLine
 10
-24.7041947131463
 20
-40.18202094810026
 11
-25.13831518961992
 21
-42.64404049349421
  0
LINE
  5
104
100
AcDbEntity
  8
plate
  6
ByLayer
 62
  256
370
   -1
100
AcDbLine
 10
-39.47631096591299
 20
-37.577298269041
 11
-39.91043142729485
 21
-40.03931772884534
  0
LINE
  5
105
100
AcDbEntity
  8
plate
  6
ByLayer
 62
  256
370
   -1
100
AcDbLine
 10
-39.47631096591299
 20
-37.577298269041
 11
-24.7041947131463
 21
-40.18202094810026
  0
LINE
  5
106
100
AcDbEntity
  8
plate
  6
ByLayer
 62
  256
370
   -1
100
AcDbLine
 10
-13.29726029425929
 20
-26.96197212780569
 11
-16.33610347305543
 21
-44.19610797445003
  0
LINE
  5
107
100
AcDbEntity
  8
plate
  6
ByLayer
 62
  256
370
   -1
100
AcDbLine
 10
-45.6737999859163
 20
-21.25311459099019
 11
-48.71264313163535
 21
-38.48725025004495
  0
LINE
  5
108
100
AcDbEntity
  8
plate
  6
ByLayer
 62
  256
370
   -1
100
AcDbLine
 10
-45.6737999859163
 20
-21.25311459099019
 11
-13.29726029425929
 21
-26.96197212780569
  0
CIRCLE
  5
109
100
AcDbEntity
  8
percage
  6
ByLayer
 62
  256
370
   -1
100
AcDbCircle
 10
-82.5
 20
-23.45895019895059
 40
1.1
  0
CIRCLE
  5
10A
100
AcDbEntity
  8
percage
  6
ByLayer
 62
  256
370
   -1
100
AcDbCircle
 10
0
 20
0
 40
1.1
  0
CIRCLE
  5
10B
100
AcDbEntity
  8
percage
  6
ByLayer
 62
  256
370
   -1
100
AcDbCircle
 10
82.49999999999999
 20
-23.45895019895064
 40
1.1
  0
CIRCLE
  5
10C
100
AcDbEntity
  8
percage
  6
ByLayer
 62
  256
370
   -1
100
AcDbCircle
 10
112.125
 20
41.56100501781271
 40
1.1
  0
CIRCLE
  5
10D
100
AcDbEntity
  8
percage
  6
ByLayer
 62
  256
370
   -1
100
AcDbCircle
 10
-112.125
 20
41.56100501781271
 40
1.1
  0
LINE
  5
10E
100
AcDbEntity
  8
plate
  6
ByLayer
 62
  256
370
   -1
100
AcDbLine
 10
-92.95000000000002
 20
43.56100501781271
 11
-92.95000000000002
 21
28.56100501781271
  0
LINE
  5
10F
100
AcDbEntity
  8
plate
  6
ByLayer
 62
  256
370
   -1
100
AcDbLine
 10
-107.95
 20
28.56100501781271
 11
-92.95000000000002
 21
28.56100501781271
  0
LINE
  5
110
100
AcDbEntity
  8
plate
  6
ByLayer
 62
  256
370
   -1
100
AcDbLine
 10
-93.42500000000001
 20
24.18100501781272
 11
-93.42500000000001
 21
9.181005017812716
  0
LINE
  5
111
100
AcDbEntity
  8
plate
  6
ByLayer
 62
  256
370
   -1
100
AcDbLine
 10
-108.425
 20
9.181005017812716
 11
-93.42500000000001
 21
9.181005017812716
  0
LINE
  5
112
100
AcDbEntity
  8
plate
  6
ByLayer
 62
  256
370
   -1
100
AcDbLine
 10
-108.425
 20
24.18100501781271
 11
-93.42500000000001
 21
24.18100501781272
  0
LINE
  5
113
100
AcDbEntity
  8
plate
  6
ByLayer
 62
  256
370
   -1
100
AcDbLine
 10
-108.425
 20
24.18100501781271
 11
-108.425
 21
9.181005017812716
  0
LINE
  5
114
100
AcDbEntity
  8
plate
  6
ByLayer
 62
  256
370
   -1
100
AcDbLine
 10
-92.00000000000001
 20
4.801005017812713
 11
-92.00000000000001
 21
-10.19899498218729
  0
LINE
  5
115
100
AcDbEntity
  8
plate
  6
ByLayer
 62
  256
370
   -1
100
AcDbLine
 10
-107
 20
-10.19899498218729
 11
-92.00000000000001
 21
-10.19899498218729
  0
LINE
  5
116
100
AcDbEntity
  8
plate
  6
ByLayer
 62
  256
370
   -1
100
AcDbLine
 10
-107
 20
4.801005017812706
 11
-92.00000000000001
 21
4.801005017812713
  0
LINE
  5
117
100
AcDbEntity
  8
plate
  6
ByLayer
 62
  256
370
   -1
100
AcDbLine
 10
-107
 20
4.801005017812706
 11
-107
 21
-10.19899498218729
  0
LINE
  5
118
100
AcDbEntity
  8
plate
  6
ByLayer
 62
  256
370
   -1
100
AcDbLine
 10
-96.75000000000001
 20
-14.57899498218728
 11
-96.75000000000001
 21
-29.57899498218728
  0
LINE
  5
119
100
AcDbEntity
  8
plate
  6
ByLayer
 62
  256
370
   -1
100
AcDbLine
 10
-111.75
 20
-29.57899498218728
 11
-96.75000000000001
 21
-29.57899498218728
  0
LINE
  5
11A
100
AcDbEntity
  8
plate
  6
ByLayer
 62
  256
370
   -1
100
AcDbLine
 10
-111.75
 20
-14.57899498218729
 11
-96.75000000000001
 21
-14.57899498218728
  0
LINE
  5
11B
100
AcDbEntity
  8
plate
  6
ByLayer
 62
  256
370
   -1
100
AcDbLine
 10
-111.75
 20
-14.57899498218729
 11
-111.75
 21
-29.57899498218728
  0
LINE
  5
11C
100
AcDbEntity
  8
plate
  6
ByLayer
 62
  256
370
   -1
100
AcDbLine
 10
111.75
 20
-14.57899498218728
 11
111.75
 21
-29.57899498218728
  0
LINE
  5
11D
100
AcDbEntity
  8
plate
  6
ByLayer
 62
  256
370
   -1
100
AcDbLine
 10
96.74999999999999
 20
-29.57899498218728
 11
111.75
 21
-29.57899498218728
  0
LINE
  5
11E
100
AcDbEntity
  8
plate
  6
ByLayer
 62
  256
370
   -1
100
AcDbLine
 10
96.74999999999999
 20
-14.57899498218729
 11
111.75
 21
-14.57899498218728
  0
LINE
  5
11F
100
AcDbEntity
  8
plate
  6
ByLayer
 62
  256
370
   -1
100
AcDbLine
 10
96.74999999999999
 20
-14.57899498218729
 11
96.74999999999999
 21
-29.57899498218728
  0
LINE
  5
120
100
AcDbEntity
  8
plate
  6
ByLayer
 62
  256
370
   -1
100
AcDbLine
 10
109.375
 20
4.801005017812713
 11
109.375
 21
-10.19899498218729
  0
LINE
  5
121
100
AcDbEntity
  8
plate
  6
ByLayer
 62
  256
370
   -1
100
AcDbLine
 10
94.37499999999999
 20
-10.19899498218729
 11
109.375
 21
-10.19899498218729
  0
LINE
  5
122
100
AcDbEntity
  8
plate
  6
ByLayer
 62
  256
370
   -1
100
AcDbLine
 10
94.37499999999999
 20
4.801005017812706
 11
109.375
 21
4.801005017812713
  0
LINE
  5
123
100
AcDbEntity
  8
plate
  6
ByLayer
 62
  256
370
   -1
100
AcDbLine
 10
94.37499999999999
 20
4.801005017812706
 11
94.37499999999999
 21
-10.19899498218729
  0
LINE
  5
124
100
AcDbEntity
  8
plate
  6
ByLayer
 62
  256
370
   -1
100
AcDbLine
 10
110.8
 20
24.18100501781272
 11
110.8
 21
9.181005017812717
  0
LINE
  5
125
100
AcDbEntity
  8
plate
  6
ByLayer
 62
  256
370
   -1
100
AcDbLine
 10
95.8
 20
9.181005017812717
 11
110.8
 21
9.181005017812717
  0
LINE
  5
126
100
AcDbEntity
  8
plate
  6
ByLayer
 62
  256
370
   -1
100
AcDbLine
 10
95.8
 20
24.18100501781271
 11
110.8
 21
24.18100501781272
  0
LINE
  5
127
100
AcDbEntity
  8
plate
  6
ByLayer
 62
  256
370
   -1
100
AcDbLine
 10
95.8
 20
24.18100501781271
 11
95.8
 21
9.181005017812717
  0
LINE
  5
128
100
AcDbEntity
  8
plate
  6
ByLayer
 62
  256
370
   -1
100
AcDbLine
 10
90.57499999999997
 20
43.5610050178127
 11
90.57499999999997
 21
28.56100501781271
  0
LINE
  5
129
100
AcDbEntity
  8
plate
  6
ByLayer
 62
  256
370
   -1
100
AcDbLine
 10
-30.53876176591301
 20
-0.5670180690410054
 11
-15.7666455131463
 21
-3.17174074810027
  0
LINE
  5
12A
100
AcDbEntity
  8
plate
  6
ByLayer
 62
  256
370
   -1
100
AcDbLine
 10
-27.93403908685372
 20
14.20509818372569
 11
-30.53876176591301
 21
-0.5670180690410054
  0
LINE
  5
12B
100
AcDbEntity
  8
plate
  6
ByLayer
 62
  256
370
   -1
100
AcDbLine
 10
-31.917283265913
 20
18.969158030959
 11
-17.14516701314629
 21
16.36443535189973
  0
LINE
  5
12C
100
AcDbEntity
  8
plate
  6
ByLayer
 62
  256
370
   -1
100
AcDbLine
 10
-29.31256058685371
 20
33.74127428372569
 11
-31.917283265913
 21
18.969158030959
  0
LINE
  5
12D
100
AcDbEntity
  8
plate
  6
ByLayer
 62
  256
370
   -1
100
AcDbLine
 10
-33.25179163408701
 20
34.43586700466642
 11
-35.85651431314629
 21
19.66375075189973
  0
LINE
  5
12E
100
AcDbEntity
  8
plate
  6
ByLayer
 62
  256
370
   -1
100
AcDbLine
 10
-50.628630565913
 20
22.26847343095899
 11
-35.85651431314629
 21
19.66375075189973
  0
LINE
  5
12F
100
AcDbEntity
  8
plate
  6
ByLayer
 62
  256
370
   -1
100
AcDbLine
 10
-48.02390788685371
 20
37.04058968372569
 11
-33.25179163408701
 21
34.43586700466642
  0
LINE
  5
130
100
AcDbEntity
  8
plate
  6
ByLayer
 62
  256
370
   -1
100
AcDbLine
 10
-48.02390788685371
 20
37.04058968372569
 11
-50.628630565913
 21
22.26847343095899
  0
LINE
  5
131
100
AcDbEntity
  8
plate
  6
ByLayer
 62
  256
370
   -1
100
AcDbLine
 10
-31.87327013408702
 20
14.89969080466643
 11
-34.4779928131463
 21
0.1275745518997335
  0
LINE
  5
132
100
AcDbEntity
  8
plate
  6
ByLayer
 62
  256
370
   -1
100
AcDbLine
 10
-49.25010906591301
 20
2.732297230958999
 11
-34.4779928131463
 21
0.1275745518997335
  0
LINE
  5
133
100
AcDbEntity
  8
plate
  6
ByLayer
 62
  256
370
   -1
100
AcDbLine
 10
-46.64538638685372
 20
17.5044134837257
 11
-31.87327013408702
 21
14.89969080466643
  0
LINE
  5
134
100
AcDbEntity
  8
plate
  6
ByLayer
 62
  256
370
   -1
100
AcDbLine
 10
-46.64538638685372
 20
17.5044134837257
 11
-49.25010906591301
 21
2.732297230958999
  0
LINE
  5
135
100
AcDbEntity
  8
plate
  6
ByLayer
 62
  256
370
   -1
100
AcDbLine
 10
-50.58461743408701
 20
18.19900620466642
 11
-53.18934011314629
 21
3.426889951899728
  0
LINE
  5
136
100
AcDbEntity
  8
plate
  6
ByLayer
 62
  256
370
   -1
100
AcDbLine
 10
-67.96145636591299
 20
6.031612630958993
 11
-53.18934011314629
 21
3.426889951899728
  0
LINE
  5
137
100
AcDbEntity
  8
plate
  6
ByLayer
 62
  256
370
   -1
100
AcDbLine
 10
-65.3567336868537
 20
20.80372888372569
 11
-50.58461743408701
 21
18.19900620466642
  0
LINE
  5
138
100
AcDbEntity
  8
plate
  6
ByLayer
 62
  256
370
   -1
100
AcDbLine
 10
-65.3567336868537
 20
20.80372888372569
 11
-67.96145636591299
 21
6.031612630958993
  0
LINE
  5
139
100
AcDbEntity
  8
plate
  6
ByLayer
 62
  256
370
   -1
100
AcDbLine
 10
-69.29596473408702
 20
21.49832160466643
 11
-71.9006874131463
 21
6.726205351899735
  0
LINE
  5
13A
100
AcDbEntity
  8
plate
  6
ByLayer
 62
  256
370
   -1
100
AcDbLine
 10
-86.67280366591301
 20
9.330928030959001
 11
-71.9006874131463
 21
6.726205351899735
  0
LINE
  5
13B
100
AcDbEntity
  8
plate
  6
ByLayer
 62
  256
370
   -1
100
AcDbLine
 10
-84.06808098685372
 20
24.1030442837257
 11
-69.29596473408702
 21
21.49832160466643
  0
LINE
  5
13C
100
AcDbEntity
  8
plate
  6
ByLayer
 62
  256
370
   -1
100
AcDbLine
 10
-84.06808098685372
 20
24.1030442837257
 11
-86.67280366591301
 21
9.330928030959001
  0
LINE
  5
13D
100
AcDbEntity
  8
plate
  6
ByLayer
 62
  256
370
   -1
100
AcDbLine
 10
-51.96313893408701
 20
37.73518240466642
 11
-54.56786161314629
 21
22.96306615189973
  0
LINE
  5
13E
100
AcDbEntity
  8
plate
  6
ByLayer
 62
  256
370
   -1
100
AcDbLine
 10
-69.339977865913
 20
25.567788830959
 11
-54.56786161314629
 21
22.96306615189973
  0
LINE
  5
13F
100
AcDbEntity
  8
plate
  6
ByLayer
 62
  256
370
   -1
100
AcDbLine
 10
-66.73525518685371
 20
40.3399050837257
 11
-51.96313893408701
 21
37.73518240466642
  0
LINE
  5
140
100
AcDbEntity
  8
plate
  6
ByLayer
 62
  256
370
   -1
100
AcDbLine
 10
-66.73525518685371
 20
40.3399050837257
 11
-69.339977865913
 21
25.567788830959
  0
LINE
  5
141
100
AcDbEntity
  8
plate
  6
ByLayer
 62
  256
370
   -1
100
AcDbLine
 10
-70.67448623408701
 20
41.03449770466643
 11
-73.27920891314629
 21
26.26238145189973
  0
LINE
  5
142
100
AcDbEntity
  8
plate
  6
ByLayer
 62
  256
370
   -1
100
AcDbLine
 10
-88.051325165913
 20
28.867104130959
 11
-73.27920891314629
 21
26.26238145189973
  0
LINE
  5
143
100
AcDbEntity
  8
plate
  6
ByLayer
 62
  256
370
   -1
100
AcDbLine
 10
-85.44660248685371
 20
43.6392203837257
 11
-70.67448623408701
 21
41.03449770466643
  0
LINE
  5
144
100
AcDbEntity
  8
plate
  6
ByLayer
 62
  256
370
   -1
100
AcDbLine
 10
-85.44660248685371
 20
43.6392203837257
 11
-88.051325165913
 21
28.867104130959
  0
LINE
  5
145
100
AcDbEntity
  8
plate
  6
ByLayer
 62
  256
370
   -1
100
AcDbLine
 10
-63.23960653408702
 20
1.137316604666424
 11
-65.8443292131463
 21
-13.63479964810027
  0
LINE
  5
146
100
AcDbEntity
  8
plate
  6
ByLayer
 62
  256
370
   -1
100
AcDbLine
 10
-80.616445465913
 20
-11.030076969041
 11
-65.8443292131463
 21
-13.63479964810027
  0
LINE
  5
147
100
AcDbEntity
  8
plate
  6
ByLayer
 62
  256
370
   -1
100
AcDbLine
 10
-78.01172278685371
 20
3.742039283725695
 11
-63.23960653408702
 21
1.137316604666424
  0
LINE
  5
148
100
AcDbEntity
  8
plate
  6
ByLayer
 62
  256
370
   -1
100
AcDbLine
 10
-78.01172278685371
 20
3.742039283725695
 11
-80.616445465913
 21
-11.030076969041
  0
LINE
  5
149
100
AcDbEntity
  8
plate
  6
ByLayer
 62
  256
370
   -1
100
AcDbLine
 10
-52.50541143408702
 20
-20.04851729533357
 11
-55.1101341131463
 21
-34.82063354810027
  0
LINE
  5
14A
100
AcDbEntity
  8
plate
  6
ByLayer
 62
  256
370
   -1
100
AcDbLine
 10
-69.88225036591301
 20
-32.215910869041
 11
-55.1101341131463
 21
-34.82063354810027
  0
LINE
  5
14B
100
AcDbEntity
  8
plate
  6
ByLayer
 62
  256
370
   -1
100
AcDbLine
 10
-67.27752768685372
 20
-17.4437946162743
 11
-52.50541143408702
 21
-20.04851729533357
  0
LINE
  5
14C
100
AcDbEntity
  8
plate
  6
ByLayer
 62
  256
370
   -1
100
AcDbLine
 10
-67.27752768685372
 20
-17.4437946162743
 11
-69.88225036591301
 21
-32.215910869041
  0
LINE
  5
14D
100
AcDbEntity
  8
plate
  6
ByLayer
 62
  256
370
   -1
100
AcDbLine
 10
-44.52825913408702
 20
-2.161998795333579
 11
-47.1329818131463
 21
-16.93411504810027
  0
LINE
  5
14E
100
AcDbEntity
  8
plate
  6
ByLayer
 62
  256
370
   -1
100
AcDbLine
 10
-61.90509806591301
 20
-14.32939236904101
 11
-47.1329818131463
 21
-16.93411504810027
  0
LINE
  5
14F
100
AcDbEntity
  8
plate
  6
ByLayer
 62
  256
370
   -1
100
AcDbLine
 10
-59.30037538685372
 20
0.4427238837256926
 11
-44.52825913408702
 21
-2.161998795333579
  0
LINE
  5
150
100
AcDbEntity
  8
plate
  6
ByLayer
 62
  256
370
   -1
100
AcDbLine
 10
-59.30037538685372
 20
0.4427238837256926
 11
-61.90509806591301
 21
-14.32939236904101
  0
LINE
  5
151
100
AcDbEntity
  8
plate
  6
ByLayer
 62
  256
370
   -1
100
AcDbLine
 10
-25.81691183408702
 20
-5.461314195333577
 11
-28.4216345131463
 21
-20.23343044810027
  0
LINE
  5
152
100
AcDbEntity
  8
plate
  6
ByLayer
 62
  256
370
   -1
100
AcDbLine
 10
-43.19375076591301
 20
-17.628707769041
 11
-28.4216345131463
 21
-20.23343044810027
  0
LINE
  5
153
100
AcDbEntity
  8
plate
  6
ByLayer
 62
  256
370
   -1
100
AcDbLine
 10
-40.58902808685372
 20
-2.856591516274305
 11
-25.81691183408702
 21
-5.461314195333577
  0
LINE
  5
154
100
AcDbEntity
  8
plate
  6
ByLayer
 62
  256
370
   -1
100
AcDbLine
 10
-40.58902808685372
 20
-2.856591516274305
 11
-43.19375076591301
 21
-17.628707769041
  0
LINE
  5
155
100
AcDbEntity
  8
plate
  6
ByLayer
 62
  256
370
   -1
100
AcDbLine
 10
-7.105564534087026
 20
-8.760629495333566
 11
-9.710287213146302
 21
-23.53274574810026
  0
LINE
  5
156
100
AcDbEntity
  8
plate
  6
ByLayer
 62
  256
370
   -1
100
AcDbLine
 10
-24.48240346591301
 20
-20.92802306904099
 11
-9.710287213146302
 21
-23.53274574810026
  0
LINE
  5
157
100
AcDbEntity
  8
plate
  6
ByLayer
 62
  256
370
   -1
100
AcDbLine
 10
-21.87768078685372
 20
-6.155906816274294
 11
-7.105564534087026
 21
-8.760629495333566
  0
LINE
  5
158
100
AcDbEntity
  8
plate
  6
ByLayer
 62
  256
370
   -1
100
AcDbLine
 10
-21.87768078685372
 20
-6.155906816274294
 11
-24.48240346591301
 21
-20.92802306904099
  0
LINE
  5
159
100
AcDbEntity
  8
plate
  6
ByLayer
 62
  256
370
   -1
100
AcDbLine
 10
52.577574534087
 20
-20.87334609533357
 11
55.18229721314626
 21
-35.64546234810027
  0
LINE
  5
15A
100
AcDbEntity
  8
plate
  6
ByLayer
 62
  256
370
   -1
100
AcDbLine
 10
52.577574534087
 20
-20.87334609533357
 11
67.3496907868537
 21
-18.26862341627431
  0
LINE
  5
15B
100
AcDbEntity
  8
plate
  6
ByLayer
 62
  256
370
   -1
100
AcDbLine
 10
67.3496907868537
 20
-18.26862341627431
 11
69.95441346591295
 21
-33.040739669041
  0
LINE
  5
15C
100
AcDbEntity
  8
plate
  6
ByLayer
 62
  256
370
   -1
100
AcDbLine
 10
55.18229721314626
 20
-35.64546234810027
 11
69.95441346591295
 21
-33.040739669041
  0
LINE
  5
15D
100
AcDbEntity
  8
plate
  6
ByLayer
 62
  256
370
   -1
100
AcDbLine
 10
11.855564534087
 20
-8.760629495333568
 11
14.46028721314627
 21
-23.53274574810028
  0
LINE
  5
15E
100
AcDbEntity
  8
plate
  6
ByLayer
 62
  256
370
   -1
100
AcDbLine
 10
11.855564534087
 20
-8.760629495333568
 11
26.6276807868537
 21
-6.155906816274307
  0
LINE
  5
15F
100
AcDbEntity
  8
plate
  6
ByLayer
 62
  256
370
   -1
100
AcDbLine
 10
26.6276807868537
 20
-6.155906816274307
 11
29.23240346591295
 21
-20.928023069041
  0
LINE
  5
160
100
AcDbEntity
  8
plate
  6
ByLayer
 62
  256
370
   -1
100
AcDbLine
 10
14.46028721314627
 20
-23.53274574810028
 11
29.23240346591295
 21
-20.928023069041
  0
LINE
  5
161
100
AcDbEntity
  8
plate
  6
ByLayer
 62
  256
370
   -1
100
AcDbLine
 10
30.56691183408701
 20
-5.461314195333568
 11
33.17163451314627
 21
-20.23343044810028
  0
LINE
  5
162
100
AcDbEntity
  8
plate
  6
ByLayer
 62
  256
370
   -1
100
AcDbLine
 10
30.56691183408701
 20
-5.461314195333568
 11
45.33902808685371
 21
-2.856591516274307
  0
LINE
  5
163
100
AcDbEntity
  8
plate
  6
ByLayer
 62
  256
370
   -1
100
AcDbLine
 10
45.33902808685371
 20
-2.856591516274307
 11
47.94375076591296
 21
-17.628707769041
  0
LINE
  5
164
100
AcDbEntity
  8
plate
  6
ByLayer
 62
  256
370
   -1
100
AcDbLine
 10
33.17163451314627
 20
-20.23343044810028
 11
47.94375076591296
 21
-17.628707769041
  0
LINE
  5
165
100
AcDbEntity
  8
plate
  6
ByLayer
 62
  256
370
   -1
100
AcDbLine
 10
49.27825913408701
 20
-2.161998795333567
 11
51.88298181314627
 21
-16.93411504810027
  0
LINE
  5
166
100
AcDbEntity
  8
plate
  6
ByLayer
 62
  256
370
   -1
100
AcDbLine
 10
49.27825913408701
 20
-2.161998795333567
 11
64.05037538685372
 21
0.4427238837256944
  0
LINE
  5
167
100
AcDbEntity
  8
plate
  6
ByLayer
 62
  256
370
   -1
100
AcDbLine
 10
64.05037538685372
 20
0.4427238837256944
 11
66.65509806591297
 21
-14.329392369041
  0
LINE
  5
168
100
AcDbEntity
  8
plate
  6
ByLayer
 62
  256
370
   -1
100
AcDbLine
 10
51.88298181314627
 20
-16.93411504810027
 11
66.65509806591297
 21
-14.329392369041
  0
LINE
  5
169
100
AcDbEntity
  8
plate
  6
ByLayer
 62
  256
370
   -1
100
AcDbLine
 10
67.98960653408702
 20
1.137316604666443
 11
70.59432921314627
 21
-13.63479964810026
  0
LINE
  5
16A
100
AcDbEntity
  8
plate
  6
ByLayer
 62
  256
370
   -1
100
AcDbLine
 10
67.98960653408702
 20
1.137316604666443
 11
82.76172278685371
 21
3.742039283725704
  0
LINE
  5
16B
100
AcDbEntity
  8
plate
  6
ByLayer
 62
  256
370
   -1
100
AcDbLine
 10
82.76172278685371
 20
3.742039283725704
 11
85.36644546591296
 21
-11.03007696904099
  0
LINE
  5
16C
100
AcDbEntity
  8
plate
  6
ByLayer
 62
  256
370
   -1
100
AcDbLine
 10
70.59432921314627
 20
-13.63479964810026
 11
85.36644546591296
 21
-11.03007696904099
  0
LINE
  5
16D
100
AcDbEntity
  8
plate
  6
ByLayer
 62
  256
370
   -1
100
AcDbLine
 10
17.91192283408701
 20
11.60037550466644
 11
20.51664551314628
 21
-3.17174074810027
  0
LINE
  5
16E
100
AcDbEntity
  8
plate
  6
ByLayer
 62
  256
370
   -1
100
AcDbLine
 10
17.91192283408701
 20
11.60037550466644
 11
32.68403908685372
 21
14.2050981837257
  0
LINE
  5
16F
100
AcDbEntity
  8
plate
  6
ByLayer
 62
  256
370
   -1
100
AcDbLine
 10
32.68403908685372
 20
14.2050981837257
 11
35.28876176591297
 21
-0.5670180690409907
  0
LINE
  5
170
100
AcDbEntity
  8
plate
  6
ByLayer
 62
  256
370
   -1
100
AcDbLine
 10
20.51664551314628
 20
-3.17174074810027
 11
35.28876176591297
 21
-0.5670180690409907
  0
LINE
  5
171
100
AcDbEntity
  8
plate
  6
ByLayer
 62
  256
370
   -1
100
AcDbLine
 10
24.70688688685371
 20
32.0916165837257
 11
27.31160956591296
 21
17.31950033095902
  0
LINE
  5
172
100
AcDbEntity
  8
plate
  6
ByLayer
 62
  256
370
   -1
100
AcDbLine
 10
12.53949331314628
 20
14.71477765189974
 11
27.31160956591296
 21
17.31950033095902
  0
LINE
  5
173
100
AcDbEntity
  8
plate
  6
ByLayer
 62
  256
370
   -1
100
AcDbLine
 10
28.64611793408701
 20
32.78620930466644
 11
31.25084061314628
 21
18.01409305189973
  0
LINE
  5
174
100
AcDbEntity
  8
plate
  6
ByLayer
 62
  256
370
   -1
100
AcDbLine
 10
28.64611793408701
 20
32.78620930466644
 11
43.41823418685371
 21
35.39093198372569
  0
LINE
  5
175
100
AcDbEntity
  8
plate
  6
ByLayer
 62
  256
370
   -1
100
AcDbLine
 10
43.41823418685371
 20
35.39093198372569
 11
46.02295686591296
 21
20.61881573095901
  0
LINE
  5
176
100
AcDbEntity
  8
plate
  6
ByLayer
 62
  256
370
   -1
100
AcDbLine
 10
31.25084061314628
 20
18.01409305189973
 11
46.02295686591296
 21
20.61881573095901
  0
LINE
  5
177
100
AcDbEntity
  8
plate
  6
ByLayer
 62
  256
370
   -1
100
AcDbLine
 10
47.35746523408701
 20
36.08552470466643
 11
49.96218791314627
 21
21.31340845189973
  0
LINE
  5
178
100
AcDbEntity
  8
plate
  6
ByLayer
 62
  256
370
   -1
100
AcDbLine
 10
47.35746523408701
 20
36.08552470466643
 11
62.12958148685371
 21
38.69024738372569
  0
LINE
  5
179
100
AcDbEntity
  8
plate
  6
ByLayer
 62
  256
370
   -1
100
AcDbLine
 10
62.12958148685371
 20
38.69024738372569
 11
64.73430416591296
 21
23.918131130959
  0
LINE
  5
17A
100
AcDbEntity
  8
plate
  6
ByLayer
 62
  256
370
   -1
100
AcDbLine
 10
49.96218791314627
 20
21.31340845189973
 11
64.73430416591296
 21
23.918131130959
  0
LINE
  5
17B
100
AcDbEntity
  8
plate
  6
ByLayer
 62
  256
370
   -1
100
AcDbLine
 10
36.62327013408701
 20
14.89969080466643
 11
39.22799281314627
 21
0.1275745518997269
  0
LINE
  5
17C
100
AcDbEntity
  8
plate
  6
ByLayer
 62
  256
370
   -1
100
AcDbLine
 10
36.62327013408701
 20
14.89969080466643
 11
51.39538638685371
 21
17.5044134837257
  0
LINE
  5
17D
100
AcDbEntity
  8
plate
  6
ByLayer
 62
  256
370
   -1
100
AcDbLine
 10
51.39538638685371
 20
17.5044134837257
 11
54.00010906591296
 21
2.732297230959006
  0
LINE
  5
17E
100
AcDbEntity
  8
plate
  6
ByLayer
 62
  256
370
   -1
100
AcDbLine
 10
39.22799281314627
 20
0.1275745518997269
 11
54.00010906591296
 21
2.732297230959006
  0
LINE
  5
17F
100
AcDbEntity
  8
plate
  6
ByLayer
 62
  256
370
   -1
100
AcDbLine
 10
55.33461743408701
 20
18.19900620466643
 11
57.93934011314627
 21
3.426889951899724
  0
LINE
  5
180
100
AcDbEntity
  8
plate
  6
ByLayer
 62
  256
370
   -1
100
AcDbLine
 10
55.33461743408701
 20
18.19900620466643
 11
70.10673368685372
 21
20.80372888372569
  0
LINE
  5
181
100
AcDbEntity
  8
plate
  6
ByLayer
 62
  256
370
   -1
100
AcDbLine
 10
70.10673368685372
 20
20.80372888372569
 11
72.71145636591297
 21
6.031612630959003
  0
LINE
  5
182
100
AcDbEntity
  8
plate
  6
ByLayer
 62
  256
370
   -1
100
AcDbLine
 10
57.93934011314627
 20
3.426889951899724
 11
72.71145636591297
 21
6.031612630959003
  0
LINE
  5
183
100
AcDbEntity
  8
plate
  6
ByLayer
 62
  256
370
   -1
100
AcDbLine
 10
74.04596473408702
 20
21.49832160466644
 11
76.65068741314627
 21
6.726205351899729
  0
LINE
  5
184
100
AcDbEntity
  8
plate
  6
ByLayer
 62
  256
370
   -1
100
AcDbLine
 10
74.04596473408702
 20
21.49832160466644
 11
88.81808098685372
 21
24.1030442837257
  0
LINE
  5
185
100
AcDbEntity
  8
plate
  6
ByLayer
 62
  256
370
   -1
100
AcDbLine
 10
88.81808098685372
 20
24.1030442837257
 11
91.42280366591297
 21
9.330928030959008
  0
LINE
  5
186
100
AcDbEntity
  8
plate
  6
ByLayer
 62
  256
370
   -1
100
AcDbLine
 10
76.65068741314627
 20
6.726205351899729
 11
91.42280366591297
 21
9.330928030959008
  0
LINE
  5
187
100
AcDbEntity
  8
plate
  6
ByLayer
 62
  256
370
   -1
100
AcDbLine
 10
66.06881253408702
 20
39.38484000466643
 11
68.67353521314627
 21
24.61272375189973
  0
LINE
  5
188
100
AcDbEntity
  8
plate
  6
ByLayer
 62
  256
370
   -1
100
AcDbLine
 10
66.06881253408702
 20
39.38484000466643
 11
80.84092878685371
 21
41.98956268372569
  0
LINE
  5
189
100
AcDbEntity
  8
plate
  6
ByLayer
 62
  256
370
   -1
100
AcDbLine
 10
80.84092878685371
 20
41.98956268372569
 11
83.44565146591296
 21
27.217446430959
  0
LINE
  5
18A
100
AcDbEntity
  8
plate
  6
ByLayer
 62
  256
370
   -1
100
AcDbLine
 10
68.67353521314627
 20
24.61272375189973
 11
83.44565146591296
 21
27.217446430959
  0
LINE
  5
18B
100
AcDbEntity
  8
plate
  6
ByLayer
 62
  256
370
   -1
100
AcDbLine
 10
15.70834189425927
 20
-27.37438662780567
 11
18.74718502567113
 21
-44.6085222057205
  0
LINE
  5
18C
100
AcDbEntity
  8
plate
  6
ByLayer
 62
  256
370
   -1
100
AcDbLine
 10
18.74718502567113
 20
-44.6085222057205
 11
27.54939676407117
 21
-43.05645484860021
  0
LINE
  5
18D
100
AcDbEntity
  8
plate
  6
ByLayer
 62
  256
370
   -1
100
AcDbLine
 10
27.11527631314627
 20
-40.59443544810028
 11
27.54939676407117
 21
-43.05645484860021
  0
LINE
  5
18E
100
AcDbEntity
  8
plate
  6
ByLayer
 62
  256
370
   -1
100
AcDbLine
 10
27.11527631314627
 20
-40.59443544810028
 11
41.88739256591295
 21
-37.989712769041
  0
LINE
  5
18F
100
AcDbEntity
  8
plate
  6
ByLayer
 62
  256
370
   -1
100
AcDbLine
 10
41.88739256591295
 20
-37.989712769041
 11
42.32151302729482
 21
-40.45173222884534
  0
LINE
  5
190
100
AcDbEntity
  8
plate
  6
ByLayer
 62
  256
370
   -1
100
AcDbLine
 10
42.32151302729482
 20
-40.45173222884534
 11
51.12372473163531
 21
-38.89966475004496
  0
LINE
  5
191
100
AcDbEntity
  8
plate
  6
ByLayer
 62
  256
370
   -1
100
AcDbLine
 10
48.08488158591626
 20
-21.6655290909902
 11
51.12372473163531
 21
-38.89966475004496
  0
LINE
  5
192
100
AcDbEntity
  8
plate
  6
ByLayer
 62
  256
370
   -1
100
AcDbLine
 10
15.70834189425927
 20
-27.37438662780567
 11
48.08488158591626
 21
-21.6655290909902
  0
ARC
  5
193
100
AcDbEntity
  8
plate
  6
ByLayer
 62
  256
370
   -1
100
AcDbCircle
 10
112.125
 20
-41.56100501781272
 40
4
100
AcDbArc
 50
270
 51
359.9999999999999
  0
ARC
  5
194
100
AcDbEntity
  8
plate
  6
ByLayer
 62
  256
370
   -1
100
AcDbCircle
 10
-14.30283685000002
 20
44.5610050178127
 40
1
100
AcDbArc
 50
0
 51
90.0000000000001
  0
ARC
  5
195
100
AcDbEntity
  8
plate
  6
ByLayer
 62
  256
370
   -1
100
AcDbCircle
 10
9.69716314999998
 20
44.56100501781271
 40
1
100
AcDbArc
 50
90
 51
180
  0
ARC
  5
196
100
AcDbEntity
  8
plate
  6
ByLayer
 62
  256
370
   -1
100
AcDbCircle
 10
7.69716314999998
 20
9.541049801049409
 40
1
100
AcDbArc
 50
270
 51
0
  0
LINE
  5
197
100
AcDbEntity
  8
plate
  6
ByLayer
 62
  256
370
   -1
100
AcDbLine
 10
-27.93403908685372
 20
14.20509818372569
 11
-14.47648502905929
 21
11.83216828937572
  0
ARC
  5
198
100
AcDbEntity
  8
plate
  6
ByLayer
 62
  256
370
   -1
100
AcDbCircle
 10
-14.30283685000002
 20
12.81697604214242
 40
1
100
AcDbArc
 50
259.9999999189939
 51
0
  0
LINE
  5
199
100
AcDbEntity
  8
plate
  6
ByLayer
 62
  256
370
   -1
100
AcDbLine
 10
-13.84707262566349
 20
7.714697980108682
 11
-15.7666455131463
 21
-3.17174074810027
  0
LINE
  5
19A
100
AcDbEntity
  8
plate
  6
ByLayer
 62
  256
370
   -1
100
AcDbLine
 10
-12.86226487289679
 20
8.541049801049409
 11
7.69716314999998
 21
8.541049801049409
  0
ARC
  5
19B
100
AcDbEntity
  8
plate
  6
ByLayer
 62
  256
370
   -1
100
AcDbCircle
 10
-12.86226487289679
 20
7.541049801049409
 40
1
100
AcDbArc
 50
90
 51
169.999999918994
  0
LINE
  5
19C
100
AcDbEntity
  8
plate
  6
ByLayer
 62
  256
370
   -1
100
AcDbLine
 10
-29.31256058685371
 20
33.74127428372569
 11
-14.47648502905929
 21
31.12527385342943
  0
LINE
  5
19D
100
AcDbEntity
  8
plate
  6
ByLayer
 62
  256
370
   -1
100
AcDbLine
 10
-13.30283685000002
 20
32.11008160619613
 11
-13.30283685000002
 21
44.5610050178127
  0
ARC
  5
19E
100
AcDbEntity
  8
plate
  6
ByLayer
 62
  256
370
   -1
100
AcDbCircle
 10
-14.30283685000002
 20
32.11008160619613
 40
1
100
AcDbArc
 50
259.9999999189941
 51
0
  0
LINE
  5
19F
100
AcDbEntity
  8
plate
  6
ByLayer
 62
  256
370
   -1
100
AcDbLine
 10
-13.30283685000002
 20
12.81697604214242
 11
-13.30283685000002
 21
26.72532016126459
  0
LINE
  5
1A0
100
AcDbEntity
  8
plate
  6
ByLayer
 62
  256
370
   -1
100
AcDbLine
 10
-15.28764460276672
 20
26.89896834032387
 11
-17.14516701314629
 21
16.36443535189973
  0
ARC
  5
1A1
100
AcDbEntity
  8
plate
  6
ByLayer
 62
  256
370
   -1
100
AcDbCircle
 10
-14.30283685000002
 20
26.72532016126459
 40
1
100
AcDbArc
 50
0
 51
169.9999999189939
  0
LINE
  5
1A2
100
AcDbEntity
  8
plate
  6
ByLayer
 62
  256
370
   -1
100
AcDbLine
 10
9.870811329059256
 20
29.47561615342945
 11
24.70688688685371
 21
32.0916165837257
  0
LINE
  5
1A3
100
AcDbEntity
  8
plate
  6
ByLayer
 62
  256
370
   -1
100
AcDbLine
 10
8.697163149999982
 20
30.46042390619615
 11
8.697163149999982
 21
44.56100501781271
  0
ARC
  5
1A4
100
AcDbEntity
  8
plate
  6
ByLayer
 62
  256
370
   -1
100
AcDbCircle
 10
9.697163149999982
 20
30.46042390619615
 40
1
100
AcDbArc
 50
180
 51
280.0000000810061
  0
LINE
  5
1A5
100
AcDbEntity
  8
plate
  6
ByLayer
 62
  256
370
   -1
100
AcDbLine
 10
8.69716314999998
 20
9.541049801049409
 11
8.697163149999982
 21
25.07566246126478
  0
ARC
  5
1A6
100
AcDbEntity
  8
plate
  6
ByLayer
 62
  256
370
   -1
100
AcDbCircle
 10
9.697163149999982
 20
25.07566246126478
 40
1
100
AcDbArc
 50
10.00000008100589
 51
180
  0
CIRCLE
  5
1A7
100
AcDbEntity
  8
plate
  6
ByLayer
 62
  256
370
   -1
100
AcDbCircle
 10
0
 20
0
 40
4.1
  0
CIRCLE
  5
1A8
100
AcDbEntity
  8
plate
  6
ByLayer
 62
  256
370
   -1
100
AcDbCircle
 10
82.49999999999999
 20
-23.45895019895064
 40
4.1
  0
CIRCLE
  5
1A9
100
AcDbEntity
  8
plate
  6
ByLayer
 62
  256
370
   -1
100
AcDbCircle
 10
-82.5
 20
-23.45895019895059
 40
4.1
  0
LINE
  5
1AA
100
AcDbEntity
  8
plate
  6
ByLayer
 62
  256
370
   -1
100
AcDbLine
 10
-116.125
 20
37.46100501781271
 11
-116.125
 21
-41.56100501781273
  0
ARC
  5
1AB
100
AcDbEntity
  8
plate
  6
ByLayer
 62
  256
370
   -1
100
AcDbCircle
 10
-115.125
 20
37.46100501781271
 40
1
100
AcDbArc
 50
90
 51
180
  0
LINE
  5
1AC
100
AcDbEntity
  8
plate
  6
ByLayer
 62
  256
370
   -1
100
AcDbLine
 10
-115.125
 20
38.46100501781271
 11
-108.95
 21
38.46100501781271
  0
LINE
  5
1AD
100
AcDbEntity
  8
plate
  6
ByLayer
 62
  256
370
   -1
100
AcDbLine
 10
-107.95
 20
37.46100501781271
 11
-107.95
 21
28.56100501781271
  0
ARC
  5
1AE
100
AcDbEntity
  8
plate
  6
ByLayer
 62
  256
370
   -1
100
AcDbCircle
 10
-108.95
 20
37.46100501781271
 40
1
100
AcDbArc
 50
0
 51
90
  0
LINE
  5
1AF
100
AcDbEntity
  8
plate
  6
ByLayer
 62
  256
370
   -1
100
AcDbLine
 10
-107.45
 20
45.56100501781271
 11
-14.30283685000002
 21
45.56100501781271
  0
ARC
  5
1B0
100
AcDbEntity
  8
plate
  6
ByLayer
 62
  256
370
   -1
100
AcDbCircle
 10
-107.45
 20
45.06100501781271
 40
0.5
100
AcDbArc
 50
90
 51
180
  0
LINE
  5
1B1
100
AcDbEntity
  8
plate
  6
ByLayer
 62
  256
370
   -1
100
AcDbLine
 10
-107.45
 20
43.5610050178127
 11
-92.95000000000002
 21
43.56100501781271
  0
LINE
  5
1B2
100
AcDbEntity
  8
plate
  6
ByLayer
 62
  256
370
   -1
100
AcDbLine
 10
-107.95
 20
44.0610050178127
 11
-107.95
 21
45.06100501781271
  0
ARC
  5
1B3
100
AcDbEntity
  8
plate
  6
ByLayer
 62
  256
370
   -1
100
AcDbCircle
 10
-107.45
 20
44.0610050178127
 40
0.5
100
AcDbArc
 50
180
 51
270
  0
LINE
  5
1B4
100
AcDbEntity
  8
plate
  6
ByLayer
 62
  256
370
   -1
100
AcDbLine
 10
9.69716314999998
 20
45.56100501781271
 11
105.075
 21
45.56100501781271
  0
ARC
  5
1B5
100
AcDbEntity
  8
plate
  6
ByLayer
 62
  256
370
   -1
100
AcDbCircle
 10
105.075
 20
45.0610050178127
 40
0.5
100
AcDbArc
 50
0
 51
90
  0
LINE
  5
1B6
100
AcDbEntity
  8
plate
  6
ByLayer
 62
  256
370
   -1
100
AcDbLine
 10
105.575
 20
45.0610050178127
 11
105.575
 21
44.06100501781271
  0
ARC
  5
1B7
100
AcDbEntity
  8
plate
  6
ByLayer
 62
  256
370
   -1
100
AcDbCircle
 10
105.075
 20
44.06100501781271
 40
0.5
100
AcDbArc
 50
270
 51
0
  0
LINE
  5
1B8
100
AcDbEntity
  8
plate
  6
ByLayer
 62
  256
370
   -1
100
AcDbLine
 10
90.57499999999997
 20
28.56100501781271
 11
105.575
 21
28.56100501781271
  0
LINE
  5
1B9
100
AcDbEntity
  8
plate
  6
ByLayer
 62
  256
370
   -1
100
AcDbLine
 10
105.575
 20
37.46100501781271
 11
105.575
 21
28.56100501781271
  0
ARC
  5
1BA
100
AcDbEntity
  8
plate
  6
ByLayer
 62
  256
370
   -1
100
AcDbCircle
 10
106.575
 20
37.46100501781271
 40
1
100
AcDbArc
 50
90
 51
180
  0
LINE
  5
1BB
100
AcDbEntity
  8
plate
  6
ByLayer
 62
  256
370
   -1
100
AcDbLine
 10
106.575
 20
38.46100501781271
 11
115.125
 21
38.46100501781271
  0
LINE
  5
1BC
100
AcDbEntity
  8
plate
  6
ByLayer
 62
  256
370
   -1
100
AcDbLine
 10
116.125
 20
37.46100501781271
 11
116.125
 21
-41.56100501781273
  0
ARC
  5
1BD
100
AcDbEntity
  8
plate
  6
ByLayer
 62
  256
370
   -1
100
AcDbCircle
 10
115.125
 20
37.46100501781271
 40
1
100
AcDbArc
 50
0
 51
90
  0
LINE
  5
1BE
100
AcDbEntity
  8
plate
  6
ByLayer
 62
  256
370
   -1
100
AcDbLine
 10
9.948953009635929
 20
29.03245266468443
 11
24.78502856743038
 21
31.64845309498069
  0
LINE
  5
1BF
100
AcDbEntity
  8
plate
  6
ByLayer
 62
  256
370
   -1
100
AcDbLine
 10
24.2637233981087
 20
32.01347490314903
 11
26.86844607716795
 21
17.24135865038235
  0
LINE
  5
1C0
100
AcDbEntity
  8
plate
  6
ByLayer
 62
  256
370
   -1
100
AcDbLine
 10
12.46135163256961
 20
15.15794114064475
 11
27.23346788533629
 21
17.76266381970403
  0
LINE
  5
1C1
100
AcDbEntity
  8
plate
  6
ByLayer
 62
  256
370
   -1
100
AcDbLine
 10
11.1251343915117
 20
25.32745232090072
 11
12.9826568018913
 21
14.79291933247641
  0
LINE
  5
1C2
100
AcDbEntity
  8
plate
  6
ByLayer
 62
  256
370
   -1
100
AcDbLine
 10
29.08928142283202
 20
32.86435098524311
 11
31.6940041018913
 21
18.0922347324764
  0
LINE
  5
1C3
100
AcDbEntity
  8
plate
  6
ByLayer
 62
  256
370
   -1
100
AcDbLine
 10
28.72425961466368
 20
32.34304581592143
 11
43.49637586743038
 21
34.94776849498068
  0
LINE
  5
1C4
100
AcDbEntity
  8
plate
  6
ByLayer
 62
  256
370
   -1
100
AcDbLine
 10
42.97507069810869
 20
35.31279030314902
 11
45.57979337716795
 21
20.54067405038234
  0
LINE
  5
1C5
100
AcDbEntity
  8
plate
  6
ByLayer
 62
  256
370
   -1
100
AcDbLine
 10
31.17269893256961
 20
18.45725654064475
 11
45.94481518533629
 21
21.06197921970402
  0
LINE
  5
1C6
100
AcDbEntity
  8
plate
  6
ByLayer
 62
  256
370
   -1
100
AcDbLine
 10
49.88404623256962
 20
21.75657194064473
 11
64.6561624853363
 21
24.36129461970401
  0
LINE
  5
1C7
100
AcDbEntity
  8
plate
  6
ByLayer
 62
  256
370
   -1
100
AcDbLine
 10
68.59539353256962
 20
25.05588724064473
 11
83.3675097853363
 21
27.66060991970401
  0
LINE
  5
1C8
100
AcDbEntity
  8
plate
  6
ByLayer
 62
  256
370
   -1
100
AcDbLine
 10
76.57254573256962
 20
7.169368840644744
 11
91.3446619853363
 21
9.774091519704022
  0
LINE
  5
1C9
100
AcDbEntity
  8
plate
  6
ByLayer
 62
  256
370
   -1
100
AcDbLine
 10
57.86119843256961
 20
3.870053440644732
 11
72.63331468533629
 21
6.474776119704011
  0
LINE
  5
1CA
100
AcDbEntity
  8
plate
  6
ByLayer
 62
  256
370
   -1
100
AcDbLine
 10
39.14985113256961
 20
0.5707380406447324
 11
53.92196738533629
 21
3.175460719704011
  0
LINE
  5
1CB
100
AcDbEntity
  8
plate
  6
ByLayer
 62
  256
370
   -1
100
AcDbLine
 10
20.43850383256961
 20
-2.728577259355257
 11
35.21062008533629
 21
-0.1238545802959781
  0
LINE
  5
1CC
100
AcDbEntity
  8
plate
  6
ByLayer
 62
  256
370
   -1
100
AcDbLine
 10
7.382655500640498
 20
43.96065794289136
 11
12.53949331314628
 21
14.71477765189974
  0
LINE
  5
1CD
100
AcDbEntity
  8
plate
  6
ByLayer
 62
  256
370
   -1
100
AcDbLine
 10
12.46135163256961
 20
15.15794114064474
 11
27.23346788533629
 21
17.76266381970402
  0
LINE
  5
1CE
100
AcDbEntity
  8
plate
  6
ByLayer
 62
  256
370
   -1
100
AcDbLine
 10
14.3821455325696
 20
-23.08958225935526
 11
29.15426178533628
 21
-20.48485958029599
  0
LINE
  5
1CF
100
AcDbEntity
  8
plate
  6
ByLayer
 62
  256
370
   -1
100
AcDbLine
 10
33.09349283256961
 20
-19.79026695935526
 11
47.86560908533629
 21
-17.18554428029599
  0
LINE
  5
1D0
100
AcDbEntity
  8
plate
  6
ByLayer
 62
  256
370
   -1
100
AcDbLine
 10
51.80484013256961
 20
-16.49095155935526
 11
66.57695638533629
 21
-13.88622888029598
  0
LINE
  5
1D1
100
AcDbEntity
  8
plate
  6
ByLayer
 62
  256
370
   -1
100
AcDbLine
 10
70.51618753256962
 20
-13.19163615935525
 11
85.2883037853363
 21
-10.58691348029597
  0
LINE
  5
1D2
100
AcDbEntity
  8
plate
  6
ByLayer
 62
  256
370
   -1
100
AcDbLine
 10
90.57499999999997
 20
43.5610050178127
 11
105.125
 21
43.56100501781271
  0
LINE
  5
1D3
100
AcDbEntity
  8
plate2
  6
ByLayer
 62
  256
370
   -1
100
AcDbLine
 10
42.32151302729483
 20
-40.45173222884534
 11
51.12372473163532
 21
-38.89966475004496
  0
LINE
  5
1D4
100
AcDbEntity
  8
plate2
  6
ByLayer
 62
  256
370
   -1
100
AcDbLine
 10
27.54939676407118
 20
-43.05645484860021
 11
18.74718502567113
 21
-44.6085222057205
  0
LINE
  5
1D5
100
AcDbEntity
  8
plate2
  6
ByLayer
 62
  256
370
   -1
100
AcDbLine
 10
-25.13831518961992
 20
-42.64404049349421
 11
-16.33610347305543
 21
-44.19610797445003
  0
LINE
  5
1D6
100
AcDbEntity
  8
plate2
  6
ByLayer
 62
  256
370
   -1
100
AcDbLine
 10
-48.71264313163535
 20
-38.48725025004495
 11
-39.91043142729485
 21
-40.03931772884534
  0
ARC
  5
1D7
100
AcDbEntity
  8
plate2
  6
ByLayer
 62
  256
370
   -1
100
AcDbCircle
 10
112.125
 20
-41.56100501781271
 40
4
100
AcDbArc
 50
270
 51
1.017777498068325e-13
  0
LINE
  5
1D8
100
AcDbEntity
  8
plate2
  6
ByLayer
 62
  256
370
   -1
100
AcDbLine
 10
112.125
 20
-45.56100501781271
 11
-112.125
 21
-45.56100501781271
  0
ARC
  5
1D9
100
AcDbEntity
  8
plate2
  6
ByLayer
 62
  256
370
   -1
100
AcDbCircle
 10
-112.125
 20
-41.56100501781271
 40
4
100
AcDbArc
 50
180
 51
270
  0
CIRCLE
  5
1DA
100
AcDbEntity
  8
plate2
  6
ByLayer
 62
  256
370
   -1
100
AcDbCircle
 10
-82.5
 20
-23.45895019895059
 40
4.55
  0
CIRCLE
  5
1DB
100
AcDbEntity
  8
plate2
  6
ByLayer
 62
  256
370
   -1
100
AcDbCircle
 10
0
 20
0
 40
4.55
  0
CIRCLE
  5
1DC
100
AcDbEntity
  8
plate2
  6
ByLayer
 62
  256
370
   -1
100
AcDbCircle
 10
82.49999999999999
 20
-23.45895019895064
 40
4.55
  0
ARC
  5
1DD
100
AcDbEntity
  8
plate2
  6
ByLayer
 62
  256
370
   -1
100
AcDbCircle
 10
110.225
 20
39.66100501781271
 40
1.45
100
AcDbArc
 50
180
 51
270
  0
LINE
  5
1DE
100
AcDbEntity
  8
plate2
  6
ByLayer
 62
  256
370
   -1
100
AcDbLine
 10
115.125
 20
38.21100501781271
 11
110.225
 21
38.21100501781271
  0
LINE
  5
1DF
100
AcDbEntity
  8
plate2
  6
ByLayer
 62
  256
370
   -1
100
AcDbLine
 10
116.125
 20
37.21100501781271
 11
116.125
 21
-41.5610050178127
  0
ARC
  5
1E0
100
AcDbEntity
  8
plate2
  6
ByLayer
 62
  256
370
   -1
100
AcDbCircle
 10
115.125
 20
37.21100501781271
 40
1
100
AcDbArc
 50
0
 51
90
  0
LINE
  5
1E1
100
AcDbEntity
  8
plate2
  6
ByLayer
 62
  256
370
   -1
100
AcDbLine
 10
108.775
 20
44.5610050178127
 11
108.775
 21
39.66100501781271
  0
ARC
  5
1E2
100
AcDbEntity
  8
plate2
  6
ByLayer
 62
  256
370
   -1
100
AcDbCircle
 10
107.775
 20
44.5610050178127
 40
1
100
AcDbArc
 50
0
 51
90
  0
ARC
  5
1E3
100
AcDbEntity
  8
plate2
  6
ByLayer
 62
  256
370
   -1
100
AcDbCircle
 10
-110.675
 20
40.11100501781271
 40
1.45
100
AcDbArc
 50
270
 51
0
  0
LINE
  5
1E4
100
AcDbEntity
  8
plate2
  6
ByLayer
 62
  256
370
   -1
100
AcDbLine
 10
-109.225
 20
44.56100501781271
 11
-109.225
 21
40.11100501781271
  0
ARC
  5
1E5
100
AcDbEntity
  8
plate2
  6
ByLayer
 62
  256
370
   -1
100
AcDbCircle
 10
-108.225
 20
44.56100501781271
 40
1
100
AcDbArc
 50
90
 51
180
  0
LINE
  5
1E6
100
AcDbEntity
  8
plate2
  6
ByLayer
 62
  256
370
   -1
100
AcDbLine
 10
-115.125
 20
38.66100501781271
 11
-110.675
 21
38.66100501781271
  0
LINE
  5
1E7
100
AcDbEntity
  8
plate2
  6
ByLayer
 62
  256
370
   -1
100
AcDbLine
 10
-116.125
 20
-41.56100501781271
 11
-116.125
 21
37.66100501781272
  0
ARC
  5
1E8
100
AcDbEntity
  8
plate2
  6
ByLayer
 62
  256
370
   -1
100
AcDbCircle
 10
-115.125
 20
37.66100501781271
 40
1
100
AcDbArc
 50
90
 51
179.9999999999992
  0
LINE
  5
1E9
100
AcDbEntity
  8
plate2
  6
ByLayer
 62
  256
370
   -1
100
AcDbLine
 10
-16.40283685000002
 20
45.56100501781271
 11
-108.225
 21
45.56100501781271
  0
ARC
  5
1EA
100
AcDbEntity
  8
plate2
  6
ByLayer
 62
  256
370
   -1
100
AcDbCircle
 10
-16.40283685000002
 20
41.56100501781271
 40
4
100
AcDbArc
 50
0
 51
90
  0
LINE
  5
1EB
100
AcDbEntity
  8
plate2
  6
ByLayer
 62
  256
370
   -1
100
AcDbLine
 10
11.79716314999999
 20
45.56100501781271
 11
107.775
 21
45.5610050178127
  0
ARC
  5
1EC
100
AcDbEntity
  8
plate2
  6
ByLayer
 62
  256
370
   -1
100
AcDbCircle
 10
11.79716314999999
 20
41.56100501781271
 40
4
100
AcDbArc
 50
90
 51
180
  0
LINE
  5
1ED
100
AcDbEntity
  8
plate2
  6
ByLayer
 62
  256
370
   -1
100
AcDbLine
 10
7.797163149999981
 20
12.54104980104941
 11
7.79716314999999
 21
41.56100501781271
  0
ARC
  5
1EE
100
AcDbEntity
  8
plate2
  6
ByLayer
 62
  256
370
   -1
100
AcDbCircle
 10
3.797163149999981
 20
12.54104980104941
 40
4
100
AcDbArc
 50
270
 51
0
  0
LINE
  5
1EF
100
AcDbEntity
  8
plate2
  6
ByLayer
 62
  256
370
   -1
100
AcDbLine
 10
-8.402836850000023
 20
8.541049801049409
 11
3.797163149999982
 21
8.541049801049407
  0
LINE
  5
1F0
100
AcDbEntity
  8
plate2
  6
ByLayer
 62
  256
370
   -1
100
AcDbLine
 10
-12.40283685000002
 20
41.56100501781271
 11
-12.40283685000002
 21
12.54104980104941
  0
ARC
  5
1F1
100
AcDbEntity
  8
plate2
  6
ByLayer
 62
  256
370
   -1
100
AcDbCircle
 10
-8.402836850000023
 20
12.54104980104941
 40
4
100
AcDbArc
 50
180
 51
270
  0
LINE
  5
1F2
100
AcDbEntity
  8
plate2
  6
ByLayer
 62
  256
370
   -1
100
AcDbLine
 10
68.87632510657315
 20
24.90233773485622
 11
83.15603748295648
 21
27.42023632438586
  0
LINE
  5
1F3
100
AcDbEntity
  8
plate2
  6
ByLayer
 62
  256
370
   -1
100
AcDbLine
 10
68.87632510657315
 20
24.90233773485622
 11
66.35842651704351
 21
39.18205011123958
  0
LINE
  5
1F4
100
AcDbEntity
  8
plate2
  6
ByLayer
 62
  256
370
   -1
100
AcDbLine
 10
80.63813889342684
 20
41.69994870076918
 11
83.15603748295648
 21
27.42023632438586
  0
LINE
  5
1F5
100
AcDbEntity
  8
plate2
  6
ByLayer
 62
  256
370
   -1
100
AcDbLine
 10
66.35842651704351
 20
39.18205011123958
 11
80.63813889342684
 21
41.69994870076918
  0
LINE
  5
1F6
100
AcDbEntity
  8
plate2
  6
ByLayer
 62
  256
370
   -1
100
AcDbLine
 10
50.16497780657315
 20
21.60302243485621
 11
64.44469018295648
 21
24.12092102438585
  0
LINE
  5
1F7
100
AcDbEntity
  8
plate2
  6
ByLayer
 62
  256
370
   -1
100
AcDbLine
 10
50.16497780657315
 20
21.60302243485621
 11
47.64707921704351
 21
35.88273481123957
  0
LINE
  5
1F8
100
AcDbEntity
  8
plate2
  6
ByLayer
 62
  256
370
   -1
100
AcDbLine
 10
61.92679159342684
 20
38.40063340076917
 11
64.44469018295648
 21
24.12092102438585
  0
LINE
  5
1F9
100
AcDbEntity
  8
plate2
  6
ByLayer
 62
  256
370
   -1
100
AcDbLine
 10
47.64707921704351
 20
35.88273481123957
 11
61.92679159342684
 21
38.40063340076917
  0
LINE
  5
1FA
100
AcDbEntity
  8
plate2
  6
ByLayer
 62
  256
370
   -1
100
AcDbLine
 10
31.45363050657315
 20
18.30370703485623
 11
45.73334288295648
 21
20.82160562438587
  0
LINE
  5
1FB
100
AcDbEntity
  8
plate2
  6
ByLayer
 62
  256
370
   -1
100
AcDbLine
 10
31.45363050657315
 20
18.30370703485623
 11
28.93573191704351
 21
32.58341941123959
  0
LINE
  5
1FC
100
AcDbEntity
  8
plate2
  6
ByLayer
 62
  256
370
   -1
100
AcDbLine
 10
43.21544429342684
 20
35.1013180007692
 11
45.73334288295648
 21
20.82160562438587
  0
LINE
  5
1FD
100
AcDbEntity
  8
plate2
  6
ByLayer
 62
  256
370
   -1
100
AcDbLine
 10
28.93573191704351
 20
32.58341941123959
 11
43.21544429342684
 21
35.1013180007692
  0
LINE
  5
1FE
100
AcDbEntity
  8
plate2
  6
ByLayer
 62
  256
370
   -1
100
AcDbLine
 10
12.74228320657313
 20
15.00439163485623
 11
27.02199558295646
 21
17.52229022438587
  0
LINE
  5
1FF
100
AcDbEntity
  8
plate2
  6
ByLayer
 62
  256
370
   -1
100
AcDbLine
 10
12.74228320657313
 20
15.00439163485623
 11
10.2243846170435
 21
29.28410401123959
  0
LINE
  5
200
100
AcDbEntity
  8
plate2
  6
ByLayer
 62
  256
370
   -1
100
AcDbLine
 10
24.50409699342683
 20
31.8020026007692
 11
27.02199558295646
 21
17.52229022438587
  0
LINE
  5
201
100
AcDbEntity
  8
plate2
  6
ByLayer
 62
  256
370
   -1
100
AcDbLine
 10
10.2243846170435
 20
29.28410401123959
 11
24.50409699342683
 21
31.8020026007692
  0
LINE
  5
202
100
AcDbEntity
  8
plate2
  6
ByLayer
 62
  256
370
   -1
100
AcDbLine
 10
20.71943540657315
 20
-2.88212676514377
 11
34.99914778295648
 21
-0.3642281756141301
  0
LINE
  5
203
100
AcDbEntity
  8
plate2
  6
ByLayer
 62
  256
370
   -1
100
AcDbLine
 10
20.71943540657315
 20
-2.88212676514377
 11
18.20153681704351
 21
11.39758561123959
  0
LINE
  5
204
100
AcDbEntity
  8
plate2
  6
ByLayer
 62
  256
370
   -1
100
AcDbLine
 10
32.48124919342684
 20
13.9154842007692
 11
34.99914778295648
 21
-0.3642281756141301
  0
LINE
  5
205
100
AcDbEntity
  8
plate2
  6
ByLayer
 62
  256
370
   -1
100
AcDbLine
 10
18.20153681704351
 20
11.39758561123959
 11
32.48124919342684
 21
13.9154842007692
  0
LINE
  5
206
100
AcDbEntity
  8
plate2
  6
ByLayer
 62
  256
370
   -1
100
AcDbLine
 10
39.43078270657315
 20
0.4171885348562192
 11
53.71049508295648
 21
2.935087124385859
  0
LINE
  5
207
100
AcDbEntity
  8
plate2
  6
ByLayer
 62
  256
370
   -1
100
AcDbLine
 10
39.43078270657315
 20
0.4171885348562192
 11
36.91288411704351
 21
14.69690091123958
  0
LINE
  5
208
100
AcDbEntity
  8
plate2
  6
ByLayer
 62
  256
370
   -1
100
AcDbLine
 10
51.19259649342684
 20
17.21479950076919
 11
53.71049508295648
 21
2.935087124385859
  0
LINE
  5
209
100
AcDbEntity
  8
plate2
  6
ByLayer
 62
  256
370
   -1
100
AcDbLine
 10
36.91288411704351
 20
14.69690091123958
 11
51.19259649342684
 21
17.21479950076919
  0
LINE
  5
20A
100
AcDbEntity
  8
plate2
  6
ByLayer
 62
  256
370
   -1
100
AcDbLine
 10
58.14213000657314
 20
3.71650393485622
 11
72.42184238295647
 21
6.23440252438586
  0
LINE
  5
20B
100
AcDbEntity
  8
plate2
  6
ByLayer
 62
  256
370
   -1
100
AcDbLine
 10
58.14213000657314
 20
3.71650393485622
 11
55.6242314170435
 21
17.99621631123958
  0
LINE
  5
20C
100
AcDbEntity
  8
plate2
  6
ByLayer
 62
  256
370
   -1
100
AcDbLine
 10
69.90394379342683
 20
20.51411490076919
 11
72.42184238295647
 21
6.23440252438586
  0
LINE
  5
20D
100
AcDbEntity
  8
plate2
  6
ByLayer
 62
  256
370
   -1
100
AcDbLine
 10
55.6242314170435
 20
17.99621631123958
 11
69.90394379342683
 21
20.51411490076919
  0
LINE
  5
20E
100
AcDbEntity
  8
plate2
  6
ByLayer
 62
  256
370
   -1
100
AcDbLine
 10
76.85347730657315
 20
7.015819334856232
 11
91.13318968295648
 21
9.533717924385872
  0
LINE
  5
20F
100
AcDbEntity
  8
plate2
  6
ByLayer
 62
  256
370
   -1
100
AcDbLine
 10
76.85347730657315
 20
7.015819334856232
 11
74.33557871704352
 21
21.29553171123959
  0
LINE
  5
210
100
AcDbEntity
  8
plate2
  6
ByLayer
 62
  256
370
   -1
100
AcDbLine
 10
88.61529109342685
 20
23.8134303007692
 11
91.13318968295648
 21
9.533717924385872
  0
LINE
  5
211
100
AcDbEntity
  8
plate2
  6
ByLayer
 62
  256
370
   -1
100
AcDbLine
 10
74.33557871704352
 20
21.29553171123959
 11
88.61529109342685
 21
23.8134303007692
  0
LINE
  5
212
100
AcDbEntity
  8
plate2
  6
ByLayer
 62
  256
370
   -1
100
AcDbLine
 10
70.79711910657315
 20
-13.34518566514377
 11
85.07683148295648
 21
-10.82728707561413
  0
LINE
  5
213
100
AcDbEntity
  8
plate2
  6
ByLayer
 62
  256
370
   -1
100
AcDbLine
 10
70.79711910657315
 20
-13.34518566514377
 11
68.27922051704351
 21
0.9345267112395912
  0
LINE
  5
214
100
AcDbEntity
  8
plate2
  6
ByLayer
 62
  256
370
   -1
100
AcDbLine
 10
82.55893289342684
 20
3.452425300769199
 11
85.07683148295648
 21
-10.82728707561413
  0
LINE
  5
215
100
AcDbEntity
  8
plate2
  6
ByLayer
 62
  256
370
   -1
100
AcDbLine
 10
68.27922051704351
 20
0.9345267112395912
 11
82.55893289342684
 21
3.452425300769199
  0
LINE
  5
216
100
AcDbEntity
  8
plate2
  6
ByLayer
 62
  256
370
   -1
100
AcDbLine
 10
52.08577170657315
 20
-16.64450106514378
 11
66.36548408295647
 21
-14.12660247561414
  0
LINE
  5
217
100
AcDbEntity
  8
plate2
  6
ByLayer
 62
  256
370
   -1
100
AcDbLine
 10
52.08577170657315
 20
-16.64450106514378
 11
49.56787311704351
 21
-2.364788688760421
  0
LINE
  5
218
100
AcDbEntity
  8
plate2
  6
ByLayer
 62
  256
370
   -1
100
AcDbLine
 10
63.84758549342684
 20
0.1531099007691867
 11
66.36548408295647
 21
-14.12660247561414
  0
LINE
  5
219
100
AcDbEntity
  8
plate2
  6
ByLayer
 62
  256
370
   -1
100
AcDbLine
 10
49.56787311704351
 20
-2.364788688760421
 11
63.84758549342684
 21
0.1531099007691867
  0
LINE
  5
21A
100
AcDbEntity
  8
plate2
  6
ByLayer
 62
  256
370
   -1
100
AcDbLine
 10
33.37442440657315
 20
-19.94381646514378
 11
47.65413678295648
 21
-17.42591787561414
  0
LINE
  5
21B
100
AcDbEntity
  8
plate2
  6
ByLayer
 62
  256
370
   -1
100
AcDbLine
 10
33.37442440657315
 20
-19.94381646514378
 11
30.85652581704351
 21
-5.664104088760421
  0
LINE
  5
21C
100
AcDbEntity
  8
plate2
  6
ByLayer
 62
  256
370
   -1
100
AcDbLine
 10
45.13623819342684
 20
-3.146205499230813
 11
47.65413678295648
 21
-17.42591787561414
  0
LINE
  5
21D
100
AcDbEntity
  8
plate2
  6
ByLayer
 62
  256
370
   -1
100
AcDbLine
 10
30.85652581704351
 20
-5.664104088760421
 11
45.13623819342684
 21
-3.146205499230813
  0
LINE
  5
21E
100
AcDbEntity
  8
plate2
  6
ByLayer
 62
  256
370
   -1
100
AcDbLine
 10
14.66307710657313
 20
-23.24313176514378
 11
28.94278948295646
 21
-20.72523317561414
  0
LINE
  5
21F
100
AcDbEntity
  8
plate2
  6
ByLayer
 62
  256
370
   -1
100
AcDbLine
 10
14.66307710657313
 20
-23.24313176514378
 11
12.1451785170435
 21
-8.963419388760421
  0
LINE
  5
220
100
AcDbEntity
  8
plate2
  6
ByLayer
 62
  256
370
   -1
100
AcDbLine
 10
26.42489089342683
 20
-6.445520799230813
 11
28.94278948295646
 21
-20.72523317561414
  0
LINE
  5
221
100
AcDbEntity
  8
plate2
  6
ByLayer
 62
  256
370
   -1
100
AcDbLine
 10
12.1451785170435
 20
-8.963419388760421
 11
26.42489089342683
 21
-6.445520799230813
  0
LINE
  5
222
100
AcDbEntity
  8
plate2
  6
ByLayer
 62
  256
370
   -1
100
AcDbLine
 10
27.07186426838145
 20
-40.3482335099086
 11
41.84398052114814
 21
-37.74351083084931
  0
LINE
  5
223
100
AcDbEntity
  8
plate2
  6
ByLayer
 62
  256
370
   -1
100
AcDbLine
 10
41.84398052114814
 20
-37.74351083084931
 11
42.32151302729483
 21
-40.45173222884534
  0
LINE
  5
224
100
AcDbEntity
  8
plate2
  6
ByLayer
 62
  256
370
   -1
100
AcDbLine
 10
27.07186426838145
 20
-40.3482335099086
 11
27.54939676407118
 21
-43.05645484860021
  0
LINE
  5
225
100
AcDbEntity
  8
plate2
  6
ByLayer
 62
  256
370
   -1
100
AcDbLine
 10
38.84854942547179
 20
-20.75557705646996
 11
47.65076113148839
 21
-19.20350968254526
  0
LINE
  5
226
100
AcDbEntity
  8
plate2
  6
ByLayer
 62
  256
370
   -1
100
AcDbLine
 10
51.12372473163532
 20
-38.89966475004496
 11
47.65076113148839
 21
-19.20350968254526
  0
LINE
  5
227
100
AcDbEntity
  8
plate2
  6
ByLayer
 62
  256
370
   -1
100
AcDbLine
 10
24.07643318316208
 20
-23.36029979483368
 11
15.2742214541386
 21
-24.91236730050082
  0
LINE
  5
228
100
AcDbEntity
  8
plate2
  6
ByLayer
 62
  256
370
   -1
100
AcDbLine
 10
18.74718502567113
 20
-44.6085222057205
 11
15.2742214541386
 21
-24.91236730050082
  0
LINE
  5
229
100
AcDbEntity
  8
plate2
  6
ByLayer
 62
  256
370
   -1
100
AcDbLine
 10
24.5539656788518
 20
-26.06852113352525
 11
24.07643318316208
 21
-23.36029979483368
  0
LINE
  5
22A
100
AcDbEntity
  8
plate2
  6
ByLayer
 62
  256
370
   -1
100
AcDbLine
 10
24.5539656788518
 20
-26.06852113352525
 11
39.32608193161849
 21
-23.46379845446599
  0
LINE
  5
22B
100
AcDbEntity
  8
plate2
  6
ByLayer
 62
  256
370
   -1
100
AcDbLine
 10
39.32608193161849
 20
-23.46379845446599
 11
38.84854942547179
 21
-20.75557705646996
  0
LINE
  5
22C
100
AcDbEntity
  8
plate2
  6
ByLayer
 62
  256
370
   -1
100
AcDbLine
 10
90.82499999999997
 20
43.31100501781268
 11
90.82499999999997
 21
28.81100501781271
  0
LINE
  5
22D
100
AcDbEntity
  8
plate2
  6
ByLayer
 62
  256
370
   -1
100
AcDbLine
 10
90.82499999999997
 20
43.31100501781268
 11
105.325
 21
43.31100501781271
  0
LINE
  5
22E
100
AcDbEntity
  8
plate2
  6
ByLayer
 62
  256
370
   -1
100
AcDbLine
 10
90.82499999999997
 20
28.81100501781271
 11
105.325
 21
28.81100501781271
  0
LINE
  5
22F
100
AcDbEntity
  8
plate2
  6
ByLayer
 62
  256
370
   -1
100
AcDbLine
 10
105.325
 20
43.31100501781271
 11
105.325
 21
28.81100501781271
  0
LINE
  5
230
100
AcDbEntity
  8
plate2
  6
ByLayer
 62
  256
370
   -1
100
AcDbLine
 10
110.55
 20
23.93100501781272
 11
110.55
 21
9.431005017812723
  0
LINE
  5
231
100
AcDbEntity
  8
plate2
  6
ByLayer
 62
  256
370
   -1
100
AcDbLine
 10
96.05
 20
9.431005017812723
 11
110.55
 21
9.431005017812723
  0
LINE
  5
232
100
AcDbEntity
  8
plate2
  6
ByLayer
 62
  256
370
   -1
100
AcDbLine
 10
96.05
 20
23.93100501781271
 11
110.55
 21
23.93100501781272
  0
LINE
  5
233
100
AcDbEntity
  8
plate2
  6
ByLayer
 62
  256
370
   -1
100
AcDbLine
 10
96.05
 20
23.93100501781271
 11
96.05
 21
9.431005017812723
  0
LINE
  5
234
100
AcDbEntity
  8
plate2
  6
ByLayer
 62
  256
370
   -1
100
AcDbLine
 10
109.125
 20
4.551005017812717
 11
109.125
 21
-9.948994982187278
  0
LINE
  5
235
100
AcDbEntity
  8
plate2
  6
ByLayer
 62
  256
370
   -1
100
AcDbLine
 10
94.62499999999999
 20
-9.948994982187282
 11
109.125
 21
-9.948994982187278
  0
LINE
  5
236
100
AcDbEntity
  8
plate2
  6
ByLayer
 62
  256
370
   -1
100
AcDbLine
 10
94.625
 20
4.551005017812704
 11
109.125
 21
4.551005017812717
  0
LINE
  5
237
100
AcDbEntity
  8
plate2
  6
ByLayer
 62
  256
370
   -1
100
AcDbLine
 10
94.625
 20
4.551005017812704
 11
94.62499999999999
 21
-9.948994982187282
  0
LINE
  5
238
100
AcDbEntity
  8
plate2
  6
ByLayer
 62
  256
370
   -1
100
AcDbLine
 10
111.5
 20
-14.82899498218728
 11
111.5
 21
-29.32899498218728
  0
LINE
  5
239
100
AcDbEntity
  8
plate2
  6
ByLayer
 62
  256
370
   -1
100
AcDbLine
 10
97
 20
-29.32899498218728
 11
111.5
 21
-29.32899498218728
  0
LINE
  5
23A
100
AcDbEntity
  8
plate2
  6
ByLayer
 62
  256
370
   -1
100
AcDbLine
 10
97
 20
-14.82899498218729
 11
111.5
 21
-14.82899498218728
  0
LINE
  5
23B
100
AcDbEntity
  8
plate2
  6
ByLayer
 62
  256
370
   -1
100
AcDbLine
 10
97
 20
-14.82899498218729
 11
97
 21
-29.32899498218728
  0
LINE
  5
23C
100
AcDbEntity
  8
plate2
  6
ByLayer
 62
  256
370
   -1
100
AcDbLine
 10
52.86718851704351
 20
-21.07613598876042
 11
67.14690089342685
 21
-18.55823739923081
  0
LINE
  5
23D
100
AcDbEntity
  8
plate2
  6
ByLayer
 62
  256
370
   -1
100
AcDbLine
 10
67.14690089342685
 20
-18.55823739923081
 11
69.66479948295647
 21
-32.83794977561413
  0
LINE
  5
23E
100
AcDbEntity
  8
plate2
  6
ByLayer
 62
  256
370
   -1
100
AcDbLine
 10
55.38508710657314
 20
-35.35584836514379
 11
52.86718851704351
 21
-21.07613598876042
  0
LINE
  5
23F
100
AcDbEntity
  8
plate2
  6
ByLayer
 62
  256
370
   -1
100
AcDbLine
 10
55.38508710657314
 20
-35.35584836514379
 11
69.66479948295647
 21
-32.83794977561413
  0
LINE
  5
240
100
AcDbEntity
  8
plate2
  6
ByLayer
 62
  256
370
   -1
100
AcDbLine
 10
-85.24381259342682
 20
43.3496064007692
 11
-87.7617111829565
 21
29.06989402438586
  0
LINE
  5
241
100
AcDbEntity
  8
plate2
  6
ByLayer
 62
  256
370
   -1
100
AcDbLine
 10
-85.24381259342682
 20
43.3496064007692
 11
-70.96410021704349
 21
40.83170781123956
  0
LINE
  5
242
100
AcDbEntity
  8
plate2
  6
ByLayer
 62
  256
370
   -1
100
AcDbLine
 10
-87.7617111829565
 20
29.06989402438586
 11
-73.48199880657312
 21
26.55199543485623
  0
LINE
  5
243
100
AcDbEntity
  8
plate2
  6
ByLayer
 62
  256
370
   -1
100
AcDbLine
 10
-70.96410021704349
 20
40.83170781123956
 11
-73.48199880657312
 21
26.55199543485623
  0
LINE
  5
244
100
AcDbEntity
  8
plate2
  6
ByLayer
 62
  256
370
   -1
100
AcDbLine
 10
-66.53246529342682
 20
40.0502911007692
 11
-69.0503638829565
 21
25.77057872438586
  0
LINE
  5
245
100
AcDbEntity
  8
plate2
  6
ByLayer
 62
  256
370
   -1
100
AcDbLine
 10
-66.53246529342682
 20
40.0502911007692
 11
-52.25275291704349
 21
37.53239251123956
  0
LINE
  5
246
100
AcDbEntity
  8
plate2
  6
ByLayer
 62
  256
370
   -1
100
AcDbLine
 10
-69.0503638829565
 20
25.77057872438586
 11
-54.77065150657312
 21
23.25268013485623
  0
LINE
  5
247
100
AcDbEntity
  8
plate2
  6
ByLayer
 62
  256
370
   -1
100
AcDbLine
 10
-52.25275291704349
 20
37.53239251123956
 11
-54.77065150657312
 21
23.25268013485623
  0
LINE
  5
248
100
AcDbEntity
  8
plate2
  6
ByLayer
 62
  256
370
   -1
100
AcDbLine
 10
-47.82111799342684
 20
36.7509757007692
 11
-50.33901658295652
 21
22.47126332438587
  0
LINE
  5
249
100
AcDbEntity
  8
plate2
  6
ByLayer
 62
  256
370
   -1
100
AcDbLine
 10
-47.82111799342684
 20
36.7509757007692
 11
-33.54140561704351
 21
34.23307711123957
  0
LINE
  5
24A
100
AcDbEntity
  8
plate2
  6
ByLayer
 62
  256
370
   -1
100
AcDbLine
 10
-50.33901658295652
 20
22.47126332438587
 11
-36.05930420657313
 21
19.95336473485623
  0
LINE
  5
24B
100
AcDbEntity
  8
plate2
  6
ByLayer
 62
  256
370
   -1
100
AcDbLine
 10
-33.54140561704351
 20
34.23307711123957
 11
-36.05930420657313
 21
19.95336473485623
  0
LINE
  5
24C
100
AcDbEntity
  8
plate2
  6
ByLayer
 62
  256
370
   -1
100
AcDbLine
 10
-29.10977069342684
 20
33.45166030076919
 11
-31.62766928295652
 21
19.17194792438585
  0
LINE
  5
24D
100
AcDbEntity
  8
plate2
  6
ByLayer
 62
  256
370
   -1
100
AcDbLine
 10
-29.10977069342684
 20
33.45166030076919
 11
-14.83005831704351
 21
30.93376171123955
  0
LINE
  5
24E
100
AcDbEntity
  8
plate2
  6
ByLayer
 62
  256
370
   -1
100
AcDbLine
 10
-31.62766928295652
 20
19.17194792438585
 11
-17.34795690657313
 21
16.65404933485622
  0
LINE
  5
24F
100
AcDbEntity
  8
plate2
  6
ByLayer
 62
  256
370
   -1
100
AcDbLine
 10
-14.83005831704351
 20
30.93376171123955
 11
-17.34795690657313
 21
16.65404933485622
  0
LINE
  5
250
100
AcDbEntity
  8
plate2
  6
ByLayer
 62
  256
370
   -1
100
AcDbLine
 10
-83.86529109342685
 20
23.81343030076921
 11
-86.38318968295653
 21
9.533717924385872
  0
LINE
  5
251
100
AcDbEntity
  8
plate2
  6
ByLayer
 62
  256
370
   -1
100
AcDbLine
 10
-83.86529109342685
 20
23.81343030076921
 11
-69.58557871704352
 21
21.29553171123957
  0
LINE
  5
252
100
AcDbEntity
  8
plate2
  6
ByLayer
 62
  256
370
   -1
100
AcDbLine
 10
-86.38318968295653
 20
9.533717924385872
 11
-72.10347730657314
 21
7.015819334856239
  0
LINE
  5
253
100
AcDbEntity
  8
plate2
  6
ByLayer
 62
  256
370
   -1
100
AcDbLine
 10
-69.58557871704352
 20
21.29553171123957
 11
-72.10347730657314
 21
7.015819334856239
  0
LINE
  5
254
100
AcDbEntity
  8
plate2
  6
ByLayer
 62
  256
370
   -1
100
AcDbLine
 10
-65.15394379342682
 20
20.51411490076919
 11
-67.6718423829565
 21
6.234402524385853
  0
LINE
  5
255
100
AcDbEntity
  8
plate2
  6
ByLayer
 62
  256
370
   -1
100
AcDbLine
 10
-65.15394379342682
 20
20.51411490076919
 11
-50.87423141704349
 21
17.99621631123955
  0
LINE
  5
256
100
AcDbEntity
  8
plate2
  6
ByLayer
 62
  256
370
   -1
100
AcDbLine
 10
-67.6718423829565
 20
6.234402524385853
 11
-53.39213000657311
 21
3.71650393485622
  0
LINE
  5
257
100
AcDbEntity
  8
plate2
  6
ByLayer
 62
  256
370
   -1
100
AcDbLine
 10
-50.87423141704349
 20
17.99621631123955
 11
-53.39213000657311
 21
3.71650393485622
  0
LINE
  5
258
100
AcDbEntity
  8
plate2
  6
ByLayer
 62
  256
370
   -1
100
AcDbLine
 10
-46.44259649342685
 20
17.2147995007692
 11
-48.96049508295653
 21
2.935087124385863
  0
LINE
  5
259
100
AcDbEntity
  8
plate2
  6
ByLayer
 62
  256
370
   -1
100
AcDbLine
 10
-46.44259649342685
 20
17.2147995007692
 11
-32.16288411704352
 21
14.69690091123956
  0
LINE
  5
25A
100
AcDbEntity
  8
plate2
  6
ByLayer
 62
  256
370
   -1
100
AcDbLine
 10
-48.96049508295653
 20
2.935087124385863
 11
-34.68078270657314
 21
0.4171885348562299
  0
LINE
  5
25B
100
AcDbEntity
  8
plate2
  6
ByLayer
 62
  256
370
   -1
100
AcDbLine
 10
-32.16288411704352
 20
14.69690091123956
 11
-34.68078270657314
 21
0.4171885348562299
  0
LINE
  5
25C
100
AcDbEntity
  8
plate2
  6
ByLayer
 62
  256
370
   -1
100
AcDbLine
 10
-27.73124919342685
 20
13.91548420076919
 11
-30.24914778295653
 21
-0.3642281756141479
  0
LINE
  5
25D
100
AcDbEntity
  8
plate2
  6
ByLayer
 62
  256
370
   -1
100
AcDbLine
 10
-27.73124919342685
 20
13.91548420076919
 11
-13.45153681704352
 21
11.39758561123955
  0
LINE
  5
25E
100
AcDbEntity
  8
plate2
  6
ByLayer
 62
  256
370
   -1
100
AcDbLine
 10
-30.24914778295653
 20
-0.3642281756141479
 11
-15.96943540657314
 21
-2.882126765143781
  0
LINE
  5
25F
100
AcDbEntity
  8
plate2
  6
ByLayer
 62
  256
370
   -1
100
AcDbLine
 10
-13.45153681704352
 20
11.39758561123955
 11
-15.96943540657314
 21
-2.882126765143781
  0
LINE
  5
260
100
AcDbEntity
  8
plate2
  6
ByLayer
 62
  256
370
   -1
100
AcDbLine
 10
-77.80893289342681
 20
3.452425300769196
 11
-80.32683148295649
 21
-10.82728707561414
  0
LINE
  5
261
100
AcDbEntity
  8
plate2
  6
ByLayer
 62
  256
370
   -1
100
AcDbLine
 10
-77.80893289342681
 20
3.452425300769196
 11
-63.52922051704348
 21
0.9345267112395592
  0
LINE
  5
262
100
AcDbEntity
  8
plate2
  6
ByLayer
 62
  256
370
   -1
100
AcDbLine
 10
-80.32683148295649
 20
-10.82728707561414
 11
-66.04711910657311
 21
-13.34518566514377
  0
LINE
  5
263
100
AcDbEntity
  8
plate2
  6
ByLayer
 62
  256
370
   -1
100
AcDbLine
 10
-63.52922051704348
 20
0.9345267112395592
 11
-66.04711910657311
 21
-13.34518566514377
  0
LINE
  5
264
100
AcDbEntity
  8
plate2
  6
ByLayer
 62
  256
370
   -1
100
AcDbLine
 10
-59.09758549342685
 20
0.1531099007691967
 11
-61.61548408295653
 21
-14.12660247561414
  0
LINE
  5
265
100
AcDbEntity
  8
plate2
  6
ByLayer
 62
  256
370
   -1
100
AcDbLine
 10
-59.09758549342685
 20
0.1531099007691967
 11
-44.81787311704352
 21
-2.36478868876044
  0
LINE
  5
266
100
AcDbEntity
  8
plate2
  6
ByLayer
 62
  256
370
   -1
100
AcDbLine
 10
-61.61548408295653
 20
-14.12660247561414
 11
-47.33577170657314
 21
-16.64450106514377
  0
LINE
  5
267
100
AcDbEntity
  8
plate2
  6
ByLayer
 62
  256
370
   -1
100
AcDbLine
 10
-44.81787311704352
 20
-2.36478868876044
 11
-47.33577170657314
 21
-16.64450106514377
  0
LINE
  5
268
100
AcDbEntity
  8
plate2
  6
ByLayer
 62
  256
370
   -1
100
AcDbLine
 10
-40.38623819342685
 20
-3.146205499230801
 11
-42.90413678295653
 21
-17.42591787561414
  0
LINE
  5
269
100
AcDbEntity
  8
plate2
  6
ByLayer
 62
  256
370
   -1
100
AcDbLine
 10
-40.38623819342685
 20
-3.146205499230801
 11
-26.10652581704352
 21
-5.664104088760437
  0
LINE
  5
26A
100
AcDbEntity
  8
plate2
  6
ByLayer
 62
  256
370
   -1
100
AcDbLine
 10
-42.90413678295653
 20
-17.42591787561414
 11
-28.62442440657314
 21
-19.94381646514377
  0
LINE
  5
26B
100
AcDbEntity
  8
plate2
  6
ByLayer
 62
  256
370
   -1
100
AcDbLine
 10
-26.10652581704352
 20
-5.664104088760437
 11
-28.62442440657314
 21
-19.94381646514377
  0
LINE
  5
26C
100
AcDbEntity
  8
plate2
  6
ByLayer
 62
  256
370
   -1
100
AcDbLine
 10
-21.67489089342685
 20
-6.44552079923079
 11
-24.19278948295653
 21
-20.72523317561413
  0
LINE
  5
26D
100
AcDbEntity
  8
plate2
  6
ByLayer
 62
  256
370
   -1
100
AcDbLine
 10
-21.67489089342685
 20
-6.44552079923079
 11
-7.395178517043519
 21
-8.963419388760427
  0
LINE
  5
26E
100
AcDbEntity
  8
plate2
  6
ByLayer
 62
  256
370
   -1
100
AcDbLine
 10
-24.19278948295653
 20
-20.72523317561413
 11
-9.913077106573141
 21
-23.24313176514376
  0
LINE
  5
26F
100
AcDbEntity
  8
plate2
  6
ByLayer
 62
  256
370
   -1
100
AcDbLine
 10
-7.395178517043519
 20
-8.963419388760427
 11
-9.913077106573141
 21
-23.24313176514376
  0
LINE
  5
270
100
AcDbEntity
  8
plate2
  6
ByLayer
 62
  256
370
   -1
100
AcDbLine
 10
-67.07473779342685
 20
-17.7334085992308
 11
-69.59263638295653
 21
-32.01312097561414
  0
LINE
  5
271
100
AcDbEntity
  8
plate2
  6
ByLayer
 62
  256
370
   -1
100
AcDbLine
 10
-67.07473779342685
 20
-17.7334085992308
 11
-52.79502541704352
 21
-20.25130718876044
  0
LINE
  5
272
100
AcDbEntity
  8
plate2
  6
ByLayer
 62
  256
370
   -1
100
AcDbLine
 10
-69.59263638295653
 20
-32.01312097561414
 11
-55.31292400657314
 21
-34.53101956514377
  0
LINE
  5
273
100
AcDbEntity
  8
plate2
  6
ByLayer
 62
  256
370
   -1
100
AcDbLine
 10
-52.79502541704352
 20
-20.25130718876044
 11
-55.31292400657314
 21
-34.53101956514377
  0
LINE
  5
274
100
AcDbEntity
  8
plate2
  6
ByLayer
 62
  256
370
   -1
100
AcDbLine
 10
-24.66078266838148
 20
-39.93581900990858
 11
-25.13831518961992
 21
-42.64404049349421
  0
LINE
  5
275
100
AcDbEntity
  8
plate2
  6
ByLayer
 62
  256
370
   -1
100
AcDbLine
 10
-39.43289892114817
 20
-37.33109633084933
 11
-24.66078266838148
 21
-39.93581900990858
  0
LINE
  5
276
100
AcDbEntity
  8
plate2
  6
ByLayer
 62
  256
370
   -1
100
AcDbLine
 10
-39.91043142729485
 20
-40.03931772884534
 11
-39.43289892114817
 21
-37.33109633084933
  0
LINE
  5
277
100
AcDbEntity
  8
plate2
  6
ByLayer
 62
  256
370
   -1
100
AcDbLine
 10
-45.23967953105801
 20
-18.79109518262124
 11
-36.43746782547188
 21
-20.34316255646997
  0
LINE
  5
278
100
AcDbEntity
  8
plate2
  6
ByLayer
 62
  256
370
   -1
100
AcDbLine
 10
-45.23967953105801
 20
-18.79109518262124
 11
-48.71264313163535
 21
-38.48725025004495
  0
LINE
  5
279
100
AcDbEntity
  8
plate2
  6
ByLayer
 62
  256
370
   -1
100
AcDbLine
 10
-36.43746782547188
 20
-20.34316255646997
 11
-36.91500033161856
 21
-23.05138395446598
  0
LINE
  5
27A
100
AcDbEntity
  8
plate2
  6
ByLayer
 62
  256
370
   -1
100
AcDbLine
 10
-22.14288407885186
 20
-25.65610663352525
 11
-21.66535155761344
 21
-22.9478851499396
  0
LINE
  5
27B
100
AcDbEntity
  8
plate2
  6
ByLayer
 62
  256
370
   -1
100
AcDbLine
 10
-36.91500033161856
 20
-23.05138395446598
 11
-22.14288407885186
 21
-25.65610663352525
  0
LINE
  5
27C
100
AcDbEntity
  8
plate2
  6
ByLayer
 62
  256
370
   -1
100
AcDbLine
 10
-21.66535155761344
 20
-22.9478851499396
 11
-12.86313980632388
 21
-24.49995253184705
  0
LINE
  5
27D
100
AcDbEntity
  8
plate2
  6
ByLayer
 62
  256
370
   -1
100
AcDbLine
 10
-16.33610347305543
 20
-44.19610797445003
 11
-12.86313980632388
 21
-24.49995253184705
  0
LINE
  5
27E
100
AcDbEntity
  8
plate2
  6
ByLayer
 62
  256
370
   -1
100
AcDbLine
 10
-111.5
 20
-14.82899498218729
 11
-96.99999999999997
 21
-14.82899498218728
  0
LINE
  5
27F
100
AcDbEntity
  8
plate2
  6
ByLayer
 62
  256
370
   -1
100
AcDbLine
 10
-111.5
 20
-14.82899498218729
 11
-111.5
 21
-29.32899498218728
  0
LINE
  5
280
100
AcDbEntity
  8
plate2
  6
ByLayer
 62
  256
370
   -1
100
AcDbLine
 10
-96.99999999999997
 20
-14.82899498218728
 11
-96.99999999999997
 21
-29.32899498218728
  0
LINE
  5
281
100
AcDbEntity
  8
plate2
  6
ByLayer
 62
  256
370
   -1
100
AcDbLine
 10
-111.5
 20
-29.32899498218728
 11
-96.99999999999997
 21
-29.32899498218728
  0
LINE
  5
282
100
AcDbEntity
  8
plate2
  6
ByLayer
 62
  256
370
   -1
100
AcDbLine
 10
-106.75
 20
4.551005017812706
 11
-92.24999999999997
 21
4.551005017812717
  0
LINE
  5
283
100
AcDbEntity
  8
plate2
  6
ByLayer
 62
  256
370
   -1
100
AcDbLine
 10
-106.75
 20
4.551005017812706
 11
-106.75
 21
-9.948994982187282
  0
LINE
  5
284
100
AcDbEntity
  8
plate2
  6
ByLayer
 62
  256
370
   -1
100
AcDbLine
 10
-92.24999999999997
 20
4.551005017812717
 11
-92.24999999999997
 21
-9.948994982187282
  0
LINE
  5
285
100
AcDbEntity
  8
plate2
  6
ByLayer
 62
  256
370
   -1
100
AcDbLine
 10
-106.75
 20
-9.948994982187282
 11
-92.24999999999997
 21
-9.948994982187282
  0
LINE
  5
286
100
AcDbEntity
  8
plate2
  6
ByLayer
 62
  256
370
   -1
100
AcDbLine
 10
-108.175
 20
23.93100501781271
 11
-93.67499999999997
 21
23.93100501781272
  0
LINE
  5
287
100
AcDbEntity
  8
plate2
  6
ByLayer
 62
  256
370
   -1
100
AcDbLine
 10
-108.175
 20
23.93100501781271
 11
-108.175
 21
9.431005017812721
  0
LINE
  5
288
100
AcDbEntity
  8
plate2
  6
ByLayer
 62
  256
370
   -1
100
AcDbLine
 10
-93.67499999999997
 20
23.93100501781272
 11
-93.67499999999997
 21
9.431005017812721
  0
LINE
  5
289
100
AcDbEntity
  8
plate2
  6
ByLayer
 62
  256
370
   -1
100
AcDbLine
 10
-108.175
 20
9.431005017812721
 11
-93.67499999999997
 21
9.431005017812721
  0
LINE
  5
28A
100
AcDbEntity
  8
plate2
  6
ByLayer
 62
  256
370
   -1
100
AcDbLine
 10
-107.7
 20
43.31100501781271
 11
-93.19999999999997
 21
43.31100501781272
  0
LINE
  5
28B
100
AcDbEntity
  8
plate2
  6
ByLayer
 62
  256
370
   -1
100
AcDbLine
 10
-107.7
 20
43.31100501781271
 11
-107.7
 21
28.81100501781273
  0
LINE
  5
28C
100
AcDbEntity
  8
plate2
  6
ByLayer
 62
  256
370
   -1
100
AcDbLine
 10
-93.19999999999997
 20
43.31100501781272
 11
-93.19999999999997
 21
28.81100501781273
  0
LINE
  5
28D
100
AcDbEntity
  8
plate2
  6
ByLayer
 62
  256
370
   -1
100
AcDbLine
 10
-107.7
 20
28.81100501781273
 11
-93.19999999999997
 21
28.81100501781273
  0
ENDSEC
  0
SECTION
  2
OBJECTS
  0
DICTIONARY
  5
C
330
0
100
AcDbDictionary
281
    1
  3
ACAD_GROUP
350
D
  0
DICTIONARY
  5
D
330
C
100
AcDbDictionary
281
    1
  0
PLOTSETTINGS
  5
28E
100
AcDbPlotSettings
  6
1x1
 40
0
 41
0
 42
0
 43
0
  0
ENDSEC
  0
EOF
