999
dxfrw 0.6.3
  0
SECTION
  2
HEADER
  9
$ACADVER
  1
AC1021
  9
$DWGCODEPAGE
  3
ANSI_1252
  9
$INSBASE
 10
0
 20
0
 30
0
  9
$EXTMIN
 10
-123.125
 20
-52.56100501781272
 30
0
  9
$EXTMAX
 10
123.125
 20
52.56100501781271
 30
0
  9
$LIMMIN
 10
0
 20
0
  9
$LIMMAX
 10
420
 20
297
  9
$ORTHOMODE
 70
    0
  9
$REGENMODE
 70
    1
  9
$FILLMODE
 70
    1
  9
$QTEXTMODE
 70
    0
  9
$MIRRTEXT
 70
    0
  9
$LTSCALE
 40
1
  9
$ATTMODE
 70
    0
  9
$TEXTSIZE
 40
2.5
  9
$TRACEWID
 40
15.68
  9
$TEXTSTYLE
  7
STANDARD
  9
$CLAYER
  8
ajour
  9
$CELTYPE
  6
BYLAYER
  9
$CECOLOR
 62
  256
  9
$CELTSCALE
 40
1
  9
$DISPSILH
 70
    0
  9
$DIMSCALE
 40
2.5
  9
$DIMASZ
 40
2.5
  9
$DIMEXO
 40
0.625
  9
$DIMDLI
 40
3.75
  9
$DIMRND
 40
0
  9
$DIMDLE
 40
0
  9
$DIMEXE
 40
1.25
  9
$DIMTP
 40
0
  9
$DIMTM
 40
0
  9
$DIMTXT
 40
2.5
  9
$DIMCEN
 40
2.5
  9
$DIMTSZ
 40
0
  9
$DIMTOL
 70
    0
  9
$DIMLIM
 70
    0
  9
$DIMTIH
 70
    0
  9
$DIMTOH
 70
    0
  9
$DIMSE1
 70
    0
  9
$DIMSE2
 70
    0
  9
$DIMTAD
 70
    1
  9
$DIMZIN
 70
    8
  9
$DIMBLK
  1

  9
$DIMASO
 70
    1
  9
$DIMSHO
 70
    1
  9
$DIMPOST
  1

  9
$DIMAPOST
  1

  9
$DIMALT
 70
    0
  9
$DIMALTD
 70
    3
  9
$DIMALTF
 40
0.03937
  9
$DIMLFAC
 40
1
  9
$DIMTOFL
 70
    1
  9
$DIMTVP
 40
0
  9
$DIMTIX
 70
    0
  9
$DIMSOXD
 70
    0
  9
$DIMSAH
 70
    0
  9
$DIMBLK1
  1

  9
$DIMBLK2
  1

  9
$DIMSTYLE
  2
Standard
  9
$DIMCLRD
 70
    0
  9
$DIMCLRE
 70
    0
  9
$DIMCLRT
 70
    0
  9
$DIMTFAC
 40
1
  9
$DIMGAP
 40
0.625
  9
$DIMJUST
 70
    0
  9
$DIMSD1
 70
    0
  9
$DIMSD2
 70
    0
  9
$DIMTOLJ
 70
    0
  9
$DIMTZIN
 70
    8
  9
$DIMALTZ
 70
    0
  9
$DIMALTTZ
 70
    0
  9
$DIMUPT
 70
    0
  9
$DIMDEC
 70
    2
  9
$DIMTDEC
 70
    2
  9
$DIMALTU
 70
    2
  9
$DIMALTTD
 70
    3
  9
$DIMTXSTY
  7
STANDARD
  9
$DIMAUNIT
 70
    0
  9
$DIMADEC
 70
    0
  9
$DIMALTRND
 40
0
  9
$DIMAZIN
 70
    0
  9
$DIMDSEP
 70
   44
  9
$DIMATFIT
 70
    3
  9
$DIMFRAC
 70
    0
  9
$DIMLDRBLK
  1
STANDARD
  9
$DIMLUNIT
 70
    2
  9
$DIMLWD
 70
   -2
  9
$DIMLWE
 70
   -2
  9
$DIMTMOVE
 70
    0
  9
$DIMFXL
 40
1
  9
$DIMFXLON
 70
    0
  9
$DIMJOGANG
 40
0.7854
  9
$DIMTFILL
 70
    0
  9
$DIMTFILLCLR
 70
    0
  9
$DIMARCSYM
 70
    0
  9
$DIMLTYPE
  6

  9
$DIMLTEX1
  6

  9
$DIMLTEX2
  6

  9
$LUNITS
 70
    2
  9
$LUPREC
 70
    4
  9
$SKETCHINC
 40
1
  9
$FILLETRAD
 40
0
  9
$AUNITS
 70
    0
  9
$AUPREC
 70
    2
  9
$MENU
  1
.
  9
$ELEVATION
 40
0
  9
$PELEVATION
 40
0
  9
$THICKNESS
 40
0
  9
$LIMCHECK
 70
    0
  9
$CHAMFERA
 40
0
  9
$CHAMFERB
 40
0
  9
$CHAMFERC
 40
0
  9
$CHAMFERD
 40
0
  9
$SKPOLY
 70
    0
  9
$USRTIMER
 70
    1
  9
$ANGBASE
 50
0
  9
$ANGDIR
 70
    0
  9
$PDMODE
 70
   34
  9
$PDSIZE
 40
0
  9
$PLINEWID
 40
0
  9
$SPLFRAME
 70
    0
  9
$SPLINETYPE
 70
    2
  9
$SPLINESEGS
 70
    8
  9
$HANDSEED
  5
20000
  9
$SURFTAB1
 70
    6
  9
$SURFTAB2
 70
    6
  9
$SURFTYPE
 70
    6
  9
$SURFU
 70
    6
  9
$SURFV
 70
    6
  9
$UCSBASE
  2

  9
$UCSNAME
  2

  9
$UCSORG
 10
0
 20
0
 30
0
  9
$UCSXDIR
 10
1
 20
0
 30
0
  9
$UCSYDIR
 10
0
 20
1
 30
0
  9
$UCSORTHOREF
  2

  9
$UCSORTHOVIEW
 70
    0
  9
$UCSORGTOP
 10
0
 20
0
 30
0
  9
$UCSORGBOTTOM
 10
0
 20
0
 30
0
  9
$UCSORGLEFT
 10
0
 20
0
 30
0
  9
$UCSORGRIGHT
 10
0
 20
0
 30
0
  9
$UCSORGFRONT
 10
0
 20
0
 30
0
  9
$UCSORGBACK
 10
0
 20
0
 30
0
  9
$PUCSBASE
  2

  9
$PUCSNAME
  2

  9
$PUCSORG
 10
0
 20
0
 30
0
  9
$PUCSXDIR
 10
1
 20
0
 30
0
  9
$PUCSYDIR
 10
0
 20
1
 30
0
  9
$PUCSORTHOREF
  2

  9
$PUCSORTHOVIEW
 70
    0
  9
$PUCSORGTOP
 10
0
 20
0
 30
0
  9
$PUCSORGBOTTOM
 10
0
 20
0
 30
0
  9
$PUCSORGLEFT
 10
0
 20
0
 30
0
  9
$PUCSORGRIGHT
 10
0
 20
0
 30
0
  9
$PUCSORGFRONT
 10
0
 20
0
 30
0
  9
$PUCSORGBACK
 10
0
 20
0
 30
0
  9
$USERI1
 70
    0
  9
$USERI2
 70
    0
  9
$USERI3
 70
    0
  9
$USERI4
 70
    0
  9
$USERI5
 70
    0
  9
$USERR1
 40
0
  9
$USERR2
 40
0
  9
$USERR3
 40
0
  9
$USERR4
 40
0
  9
$USERR5
 40
0
  9
$WORLDVIEW
 70
    1
  9
$SHADEDGE
 70
    3
  9
$SHADEDIF
 70
   70
  9
$TILEMODE
 70
    1
  9
$MAXACTVP
 70
   64
  9
$PINSBASE
 10
0
 20
0
 30
0
  9
$PLIMCHECK
 70
    0
  9
$PEXTMIN
 10
0
 20
0
 30
0
  9
$PEXTMAX
 10
0
 20
0
 30
0
  9
$GRIDMODE
 70
    1
  9
$SNAPSTYLE
 70
    0
  9
$PLIMMIN
 10
0
 20
0
  9
$PLIMMAX
 10
210
 20
297
  9
$UNITMODE
 70
    0
  9
$VISRETAIN
 70
    1
  9
$PLINEGEN
 70
    0
  9
$PSLTSCALE
 70
    1
  9
$TREEDEPTH
 70
 3020
  9
$CMLSTYLE
  2
Standard
  9
$CMLJUST
 70
    0
  9
$CMLSCALE
 40
20
  9
$PROXYGRAPHICS
 70
    1
  9
$MEASUREMENT
 70
    1
  9
$CELWEIGHT
370
   -1
  9
$ENDCAPS
280
    0
  9
$JOINSTYLE
280
    0
  9
$LWDISPLAY
290
    0
  9
$INSUNITS
 70
    4
  9
$HYPERLINKBASE
  1

  9
$STYLESHEET
  1

  9
$XEDIT
290
    1
  9
$CEPSNTYPE
380
    0
  9
$PSTYLEMODE
290
    1
  9
$EXTNAMES
290
    1
  9
$PSVPSCALE
 40
1
  9
$OLESTARTUP
290
    0
  9
$SORTENTS
280
  127
  9
$INDEXCTL
280
    0
  9
$HIDETEXT
280
    1
  9
$XCLIPFRAME
290
    0
  9
$HALOGAP
280
    0
  9
$OBSCOLOR
 70
  257
  9
$OBSLTYPE
280
    0
  9
$INTERSECTIONDISPLAY
280
    0
  9
$INTERSECTIONCOLOR
 70
  257
  9
$DIMASSOC
280
    1
  9
$PROJECTNAME
  1

  9
$CAMERADISPLAY
290
    0
  9
$LENSLENGTH
 40
50
  9
$CAMERAHEIGHT
 40
0
  9
$STEPSPERSEC
 40
2
  9
$STEPSIZE
 40
50
  9
$3DDWFPREC
 40
2
  9
$PSOLWIDTH
 40
5
  9
$PSOLHEIGHT
 40
80
  9
$LOFTANG1
 40
1.570796326794897
  9
$LOFTANG2
 40
1.570796326794897
  9
$LOFTMAG1
 40
0
  9
$LOFTMAG2
 40
0
  9
$LOFTPARAM
 70
    7
  9
$LOFTNORMALS
280
    1
  9
$LATITUDE
 40
1
  9
$LONGITUDE
 40
1
  9
$NORTHDIRECTION
 40
0
  9
$TIMEZONE
 70
-8000
  9
$LIGHTGLYPHDISPLAY
280
    1
  9
$TILEMODELIGHTSYNCH
280
    1
  9
$SOLIDHIST
280
    1
  9
$SHOWHIST
280
    1
  9
$DWFFRAME
280
    2
  9
$DGNFRAME
280
    0
  9
$REALWORLDSCALE
290
    1
  9
$INTERFERECOLOR
 62
    1
  9
$CSHADOW
280
    0
  9
$SHADOWPLANELOCATION
 40
0
  0
ENDSEC
  0
SECTION
  2
CLASSES
  0
ENDSEC
  0
SECTION
  2
TABLES
  0
TABLE
  2
VPORT
  5
8
330
0
100
AcDbSymbolTable
 70
    1
  0
VPORT
  5
31
330
2
100
AcDbSymbolTableRecord
100
AcDbViewportTableRecord
  2
*ACTIVE
 70
    0
 10
0
 20
0
 11
1
 21
1
 12
62.69416360294117
 22
43.68221507352941
 13
0
 23
0
 14
10
 24
10
 15
10
 25
10
 16
0
 26
0
 36
1
 17
0
 27
0
 37
0
 40
174.7288602941176
 41
1.435233160621762
 42
50
 43
0
 44
0
 50
0
 51
0
 71
    0
 72
  100
 73
    1
 74
    3
 75
    0
 76
    1
 77
    0
 78
    0
281
    0
 65
    1
110
0
120
0
130
0
111
1
121
0
131
0
112
0
122
1
132
0
 79
    0
146
0
348
10020
 60
    7
 61
    5
292
1
282
    1
141
0
142
0
 63
  250
421
3358443
  0
ENDTAB
  0
TABLE
  2
LTYPE
  5
5
330
0
100
AcDbSymbolTable
 70
    4
  0
LTYPE
  5
14
330
5
100
AcDbSymbolTableRecord
100
AcDbLinetypeTableRecord
  2
ByBlock
 70
    0
  3

 72
   65
 73
    0
 40
0
  0
LTYPE
  5
15
330
5
100
AcDbSymbolTableRecord
100
AcDbLinetypeTableRecord
  2
ByLayer
 70
    0
  3

 72
   65
 73
    0
 40
0
  0
LTYPE
  5
16
330
5
100
AcDbSymbolTableRecord
100
AcDbLinetypeTableRecord
  2
Continuous
 70
    0
  3
Solid line
 72
   65
 73
    0
 40
0
  0
LTYPE
  5
32
330
5
100
AcDbSymbolTableRecord
100
AcDbLinetypeTableRecord
  2
DOT
 70
    0
  3
Dot . . . . . . . . . . . . . . . . . . . . . .
 72
   65
 73
    2
 40
6.35
 49
0
 74
    0
 49
-6.35
 74
    0
  0
LTYPE
  5
33
330
5
100
AcDbSymbolTableRecord
100
AcDbLinetypeTableRecord
  2
DOTTINY
 70
    0
  3
Dot (.15x) .....................................
 72
   65
 73
    2
 40
0.9525
 49
0
 74
    0
 49
-0.9525
 74
    0
  0
LTYPE
  5
34
330
5
100
AcDbSymbolTableRecord
100
AcDbLinetypeTableRecord
  2
DOT2
 70
    0
  3
Dot (.5x) .....................................
 72
   65
 73
    2
 40
3.175
 49
0
 74
    0
 49
-3.175
 74
    0
  0
LTYPE
  5
35
330
5
100
AcDbSymbolTableRecord
100
AcDbLinetypeTableRecord
  2
DOTX2
 70
    0
  3
Dot (2x) .  .  .  .  .  .  .  .  .  .  .  .  .
 72
   65
 73
    2
 40
12.7
 49
0
 74
    0
 49
-12.7
 74
    0
  0
LTYPE
  5
36
330
5
100
AcDbSymbolTableRecord
100
AcDbLinetypeTableRecord
  2
DASHED
 70
    0
  3
Dashed _ _ _ _ _ _ _ _ _ _ _ _ _ _ _ _ _
 72
   65
 73
    2
 40
19.05
 49
12.7
 74
    0
 49
-6.35
 74
    0
  0
LTYPE
  5
37
330
5
100
AcDbSymbolTableRecord
100
AcDbLinetypeTableRecord
  2
DASHEDTINY
 70
    0
  3
Dashed (.15x) _ _ _ _ _ _ _ _ _ _ _ _ _ _ _ _ _
 72
   65
 73
    2
 40
2.8575
 49
1.905
 74
    0
 49
-0.9525
 74
    0
  0
LTYPE
  5
38
330
5
100
AcDbSymbolTableRecord
100
AcDbLinetypeTableRecord
  2
DASHED2
 70
    0
  3
Dashed (.5x) _ _ _ _ _ _ _ _ _ _ _ _ _ _ _ _ _
 72
   65
 73
    2
 40
9.524999999999999
 49
6.35
 74
    0
 49
-3.175
 74
    0
  0
LTYPE
  5
39
330
5
100
AcDbSymbolTableRecord
100
AcDbLinetypeTableRecord
  2
DASHEDX2
 70
    0
  3
Dashed (2x) ____  ____  ____  ____  ____  ___
 72
   65
 73
    2
 40
38.09999999999999
 49
25.4
 74
    0
 49
-12.7
 74
    0
  0
LTYPE
  5
3A
330
5
100
AcDbSymbolTableRecord
100
AcDbLinetypeTableRecord
  2
DASHDOT
 70
    0
  3
Dash dot __ . __ . __ . __ . __ . __ . __ . __
 72
   65
 73
    4
 40
25.4
 49
12.7
 74
    0
 49
-6.35
 74
    0
 49
0
 74
    0
 49
-6.35
 74
    0
  0
LTYPE
  5
3B
330
5
100
AcDbSymbolTableRecord
100
AcDbLinetypeTableRecord
  2
DASHDOTTINY
 70
    0
  3
Dash dot (.15x) _._._._._._._._._._._._._._._.
 72
   65
 73
    4
 40
3.81
 49
1.905
 74
    0
 49
-0.9525
 74
    0
 49
0
 74
    0
 49
-0.9525
 74
    0
  0
LTYPE
  5
3C
330
5
100
AcDbSymbolTableRecord
100
AcDbLinetypeTableRecord
  2
DASHDOT2
 70
    0
  3
Dash dot (.5x) _._._._._._._._._._._._._._._.
 72
   65
 73
    4
 40
12.7
 49
6.35
 74
    0
 49
-3.175
 74
    0
 49
0
 74
    0
 49
-3.175
 74
    0
  0
LTYPE
  5
3D
330
5
100
AcDbSymbolTableRecord
100
AcDbLinetypeTableRecord
  2
DASHDOTX2
 70
    0
  3
Dash dot (2x) ____  .  ____  .  ____  .  ___
 72
   65
 73
    4
 40
50.8
 49
25.4
 74
    0
 49
-12.7
 74
    0
 49
0
 74
    0
 49
-12.7
 74
    0
  0
LTYPE
  5
3E
330
5
100
AcDbSymbolTableRecord
100
AcDbLinetypeTableRecord
  2
DIVIDE
 70
    0
  3
Divide ____ . . ____ . . ____ . . ____ . . ____
 72
   65
 73
    6
 40
31.75
 49
12.7
 74
    0
 49
-6.35
 74
    0
 49
0
 74
    0
 49
-6.35
 74
    0
 49
0
 74
    0
 49
-6.35
 74
    0
  0
LTYPE
  5
3F
330
5
100
AcDbSymbolTableRecord
100
AcDbLinetypeTableRecord
  2
DIVIDETINY
 70
    0
  3
Divide (.15x) __..__..__..__..__..__..__..__.._
 72
   65
 73
    6
 40
4.7625
 49
1.905
 74
    0
 49
-0.9525
 74
    0
 49
0
 74
    0
 49
-0.9525
 74
    0
 49
0
 74
    0
 49
-0.9525
 74
    0
  0
LTYPE
  5
40
330
5
100
AcDbSymbolTableRecord
100
AcDbLinetypeTableRecord
  2
DIVIDE2
 70
    0
  3
Divide (.5x) __..__..__..__..__..__..__..__.._
 72
   65
 73
    6
 40
15.875
 49
6.35
 74
    0
 49
-3.175
 74
    0
 49
0
 74
    0
 49
-3.175
 74
    0
 49
0
 74
    0
 49
-3.175
 74
    0
  0
LTYPE
  5
41
330
5
100
AcDbSymbolTableRecord
100
AcDbLinetypeTableRecord
  2
DIVIDEX2
 70
    0
  3
Divide (2x) ________  .  .  ________  .  .  _
 72
   65
 73
    6
 40
63.5
 49
25.4
 74
    0
 49
-12.7
 74
    0
 49
0
 74
    0
 49
-12.7
 74
    0
 49
0
 74
    0
 49
-12.7
 74
    0
  0
LTYPE
  5
42
330
5
100
AcDbSymbolTableRecord
100
AcDbLinetypeTableRecord
  2
BORDER
 70
    0
  3
Border __ __ . __ __ . __ __ . __ __ . __ __ .
 72
   65
 73
    6
 40
44.45
 49
12.7
 74
    0
 49
-6.35
 74
    0
 49
12.7
 74
    0
 49
-6.35
 74
    0
 49
0
 74
    0
 49
-6.35
 74
    0
  0
LTYPE
  5
43
330
5
100
AcDbSymbolTableRecord
100
AcDbLinetypeTableRecord
  2
BORDERTINY
 70
    0
  3
Border (.15x) __.__.__.__.__.__.__.__.__.__.__.
 72
   65
 73
    6
 40
6.6675
 49
1.905
 74
    0
 49
-0.9525
 74
    0
 49
1.905
 74
    0
 49
-0.9525
 74
    0
 49
0
 74
    0
 49
-0.9525
 74
    0
  0
LTYPE
  5
44
330
5
100
AcDbSymbolTableRecord
100
AcDbLinetypeTableRecord
  2
BORDER2
 70
    0
  3
Border (.5x) __.__.__.__.__.__.__.__.__.__.__.
 72
   65
 73
    6
 40
22.225
 49
6.35
 74
    0
 49
-3.175
 74
    0
 49
6.35
 74
    0
 49
-3.175
 74
    0
 49
0
 74
    0
 49
-3.175
 74
    0
  0
LTYPE
  5
45
330
5
100
AcDbSymbolTableRecord
100
AcDbLinetypeTableRecord
  2
BORDERX2
 70
    0
  3
Border (2x) ____  ____  .  ____  ____  .  ___
 72
   65
 73
    6
 40
88.89999999999999
 49
25.4
 74
    0
 49
-12.7
 74
    0
 49
25.4
 74
    0
 49
-12.7
 74
    0
 49
0
 74
    0
 49
-12.7
 74
    0
  0
LTYPE
  5
46
330
5
100
AcDbSymbolTableRecord
100
AcDbLinetypeTableRecord
  2
CENTER
 70
    0
  3
Center ____ _ ____ _ ____ _ ____ _ ____ _ ____
 72
   65
 73
    4
 40
50.8
 49
31.75
 74
    0
 49
-6.35
 74
    0
 49
6.35
 74
    0
 49
-6.35
 74
    0
  0
LTYPE
  5
47
330
5
100
AcDbSymbolTableRecord
100
AcDbLinetypeTableRecord
  2
CENTERTINY
 70
    0
  3
Center (.15x) ___ _ ___ _ ___ _ ___ _ ___ _ ___
 72
   65
 73
    4
 40
7.619999999999999
 49
4.7625
 74
    0
 49
-0.9525
 74
    0
 49
0.9525
 74
    0
 49
-0.9525
 74
    0
  0
LTYPE
  5
48
330
5
100
AcDbSymbolTableRecord
100
AcDbLinetypeTableRecord
  2
CENTER2
 70
    0
  3
Center (.5x) ___ _ ___ _ ___ _ ___ _ ___ _ ___
 72
   65
 73
    4
 40
28.575
 49
19.05
 74
    0
 49
-3.175
 74
    0
 49
3.175
 74
    0
 49
-3.175
 74
    0
  0
LTYPE
  5
49
330
5
100
AcDbSymbolTableRecord
100
AcDbLinetypeTableRecord
  2
CENTERX2
 70
    0
  3
Center (2x) ________  __  ________  __  _____
 72
   65
 73
    4
 40
101.6
 49
63.5
 74
    0
 49
-12.7
 74
    0
 49
12.7
 74
    0
 49
-12.7
 74
    0
  0
ENDTAB
  0
TABLE
  2
LAYER
  5
2
330
0
100
AcDbSymbolTable
 70
    1
  0
LAYER
  5
10
330
2
100
AcDbSymbolTableRecord
100
AcDbLayerTableRecord
  2
0
 70
    4
 62
    7
  6
CONTINUOUS
370
    0
390
F
  0
LAYER
  5
4A
330
2
100
AcDbSymbolTableRecord
100
AcDbLayerTableRecord
  2
ajour
 70
    0
 62
    6
  6
CONTINUOUS
370
    0
390
F
  0
LAYER
  5
4B
330
2
100
AcDbSymbolTableRecord
100
AcDbLayerTableRecord
  2
ext1
 70
    0
 62
    5
  6
CONTINUOUS
370
    0
390
F
  0
LAYER
  5
4C
330
2
100
AcDbSymbolTableRecord
100
AcDbLayerTableRecord
  2
ext2
 70
    4
 62
  176
420
  128
  6
CONTINUOUS
370
    0
390
F
  0
LAYER
  5
4D
330
2
100
AcDbSymbolTableRecord
100
AcDbLayerTableRecord
  2
ext3
 70
    4
 62
  216
420
8388736
  6
CONTINUOUS
370
    0
390
F
  0
LAYER
  5
4E
330
2
100
AcDbSymbolTableRecord
100
AcDbLayerTableRecord
  2
int1
 70
    0
 62
  136
420
32896
  6
CONTINUOUS
370
    0
390
F
  0
LAYER
  5
4F
330
2
100
AcDbSymbolTableRecord
100
AcDbLayerTableRecord
  2
noname
 70
    4
 62
    1
  6
CONTINUOUS
370
    0
390
F
  0
LAYER
  5
50
330
2
100
AcDbSymbolTableRecord
100
AcDbLayerTableRecord
  2
pcb
 70
    4
 62
    2
  6
CONTINUOUS
370
    0
390
F
  0
LAYER
  5
51
330
2
100
AcDbSymbolTableRecord
100
AcDbLayerTableRecord
  2
percage
 70
    0
 62
    4
  6
CONTINUOUS
370
    0
390
F
  0
LAYER
  5
52
330
2
100
AcDbSymbolTableRecord
100
AcDbLayerTableRecord
  2
placement
 70
    4
 62
   16
420
8388608
  6
CONTINUOUS
370
    0
390
F
  0
LAYER
  5
53
330
2
100
AcDbSymbolTableRecord
100
AcDbLayerTableRecord
  2
rpi
 70
    0
 62
    3
  6
CONTINUOUS
370
    0
390
F
  0
ENDTAB
  0
TABLE
  2
STYLE
  5
3
330
0
100
AcDbSymbolTable
 70
    3
  0
STYLE
  5
54
330
2
100
AcDbSymbolTableRecord
100
AcDbTextStyleTableRecord
  2
Standard
 70
    0
 40
0
 41
1
 50
0
 71
    0
 42
1
  3
txt
  4

  0
ENDTAB
  0
TABLE
  2
VIEW
  5
6
330
0
100
AcDbSymbolTable
 70
    0
  0
ENDTAB
  0
TABLE
  2
UCS
  5
7
330
0
100
AcDbSymbolTable
 70
    0
  0
ENDTAB
  0
TABLE
  2
APPID
  5
9
330
0
100
AcDbSymbolTable
 70
    1
  0
APPID
  5
12
330
9
100
AcDbSymbolTableRecord
100
AcDbRegAppTableRecord
  2
ACAD
 70
    0
  0
APPID
  5
55
330
9
100
AcDbSymbolTableRecord
100
AcDbRegAppTableRecord
  2
LibreCad
 70
    0
  0
ENDTAB
  0
TABLE
  2
DIMSTYLE
  5
A
330
0
100
AcDbSymbolTable
 70
    1
100
AcDbDimStyleTable
 71
    1
  0
DIMSTYLE
105
56
330
A
100
AcDbSymbolTableRecord
100
AcDbDimStyleTableRecord
  2
Standard
 70
    0
 40
2.5
 41
2.5
 42
0.625
 43
0.38
 44
1.25
 45
0
 46
0
 47
0
 48
0
 49
1
140
2.5
141
0.09
142
0
143
25.4
144
1
145
0
146
1
147
0.625
148
0
 71
    0
 72
    0
 73
    0
 74
    1
 75
    0
 76
    0
 77
    0
 78
    8
 79
    0
170
    0
171
    2
172
    0
173
    0
174
    0
175
    0
176
    0
177
    0
178
    0
179
    0
271
    2
272
    4
273
    2
274
    2
275
    0
276
    0
277
    2
278
   44
279
    0
280
    0
281
    0
282
    0
283
    1
284
    0
285
    0
286
    0
288
    0
289
    3
340
STANDARD
341

371
   -2
372
   -2
  0
ENDTAB
  0
TABLE
  2
BLOCK_RECORD
  5
1
330
0
100
AcDbSymbolTable
 70
    2
  0
BLOCK_RECORD
  5
1F
330
1
100
AcDbSymbolTableRecord
100
AcDbBlockTableRecord
  2
*Model_Space
 70
    0
280
    1
281
    0
  0
BLOCK_RECORD
  5
1E
330
1
100
AcDbSymbolTableRecord
100
AcDbBlockTableRecord
  2
*Paper_Space
 70
    0
280
    1
281
    0
  0
ENDTAB
  0
ENDSEC
  0
SECTION
  2
BLOCKS
  0
BLOCK
  5
20
330
1F
100
AcDbEntity
  8
0
100
AcDbBlockBegin
  2
*Model_Space
 70
    0
 10
0
 20
0
 30
0
  3
*Model_Space
  1

  0
ENDBLK
  5
21
330
1F
100
AcDbEntity
  8
0
100
AcDbBlockEnd
  0
BLOCK
  5
1C
330
1B
100
AcDbEntity
  8
0
100
AcDbBlockBegin
  2
*Paper_Space
 70
    0
 10
0
 20
0
 30
0
  3
*Paper_Space
  1

  0
ENDBLK
  5
1D
330
1F
100
AcDbEntity
  8
0
100
AcDbBlockEnd
  0
ENDSEC
  0
SECTION
  2
ENTITIES
  0
LINE
  5
57
100
AcDbEntity
  8
0
  6
ByLayer
 62
  256
370
   -1
100
AcDbLine
 10
-107.45
 20
43.06100501781271
 11
-93.45000000000002
 21
43.06100501781271
  0
LINE
  5
58
100
AcDbEntity
  8
0
  6
ByLayer
 62
  256
370
   -1
100
AcDbLine
 10
-107.45
 20
29.06100501781271
 11
-93.45000000000002
 21
29.06100501781271
  0
LINE
  5
59
100
AcDbEntity
  8
0
  6
ByLayer
 62
  256
370
   -1
100
AcDbLine
 10
-107.45
 20
43.06100501781271
 11
-107.45
 21
29.06100501781271
  0
LINE
  5
5A
100
AcDbEntity
  8
0
  6
ByLayer
 62
  256
370
   -1
100
AcDbLine
 10
-93.45000000000002
 20
43.06100501781271
 11
-93.45000000000002
 21
29.06100501781271
  0
LINE
  5
5B
100
AcDbEntity
  8
0
  6
ByLayer
 62
  256
370
   -1
100
AcDbLine
 10
-107.925
 20
23.68100501781271
 11
-93.92500000000001
 21
23.68100501781271
  0
LINE
  5
5C
100
AcDbEntity
  8
0
  6
ByLayer
 62
  256
370
   -1
100
AcDbLine
 10
-107.925
 20
9.681005017812716
 11
-93.92500000000001
 21
9.681005017812716
  0
LINE
  5
5D
100
AcDbEntity
  8
0
  6
ByLayer
 62
  256
370
   -1
100
AcDbLine
 10
-107.925
 20
23.68100501781271
 11
-107.925
 21
9.681005017812716
  0
LINE
  5
5E
100
AcDbEntity
  8
0
  6
ByLayer
 62
  256
370
   -1
100
AcDbLine
 10
-93.92500000000001
 20
23.68100501781271
 11
-93.92500000000001
 21
9.681005017812716
  0
LINE
  5
5F
100
AcDbEntity
  8
0
  6
ByLayer
 62
  256
370
   -1
100
AcDbLine
 10
-106.5
 20
4.301005017812713
 11
-92.50000000000001
 21
4.301005017812713
  0
LINE
  5
60
100
AcDbEntity
  8
0
  6
ByLayer
 62
  256
370
   -1
100
AcDbLine
 10
-106.5
 20
-9.698994982187287
 11
-92.50000000000001
 21
-9.698994982187287
  0
LINE
  5
61
100
AcDbEntity
  8
0
  6
ByLayer
 62
  256
370
   -1
100
AcDbLine
 10
-106.5
 20
4.301005017812713
 11
-106.5
 21
-9.698994982187287
  0
LINE
  5
62
100
AcDbEntity
  8
0
  6
ByLayer
 62
  256
370
   -1
100
AcDbLine
 10
-92.50000000000001
 20
4.301005017812713
 11
-92.50000000000001
 21
-9.698994982187287
  0
LINE
  5
63
100
AcDbEntity
  8
0
  6
ByLayer
 62
  256
370
   -1
100
AcDbLine
 10
-111.25
 20
-15.07899498218729
 11
-97.25000000000001
 21
-15.07899498218729
  0
LINE
  5
64
100
AcDbEntity
  8
0
  6
ByLayer
 62
  256
370
   -1
100
AcDbLine
 10
-111.25
 20
-29.07899498218728
 11
-97.25000000000001
 21
-29.07899498218728
  0
LINE
  5
65
100
AcDbEntity
  8
0
  6
ByLayer
 62
  256
370
   -1
100
AcDbLine
 10
-111.25
 20
-15.07899498218729
 11
-111.25
 21
-29.07899498218728
  0
LINE
  5
66
100
AcDbEntity
  8
0
  6
ByLayer
 62
  256
370
   -1
100
AcDbLine
 10
-97.25000000000001
 20
-15.07899498218729
 11
-97.25000000000001
 21
-29.07899498218728
  0
LINE
  5
67
100
AcDbEntity
  8
0
  6
ByLayer
 62
  256
370
   -1
100
AcDbLine
 10
-85.04102270000001
 20
43.05999241781272
 11
-71.25371420000002
 21
40.62891791781271
  0
LINE
  5
68
100
AcDbEntity
  8
0
  6
ByLayer
 62
  256
370
   -1
100
AcDbLine
 10
-87.47209720000001
 20
29.27268391781271
 11
-73.68478870000001
 21
26.84160941781271
  0
LINE
  5
69
100
AcDbEntity
  8
0
  6
ByLayer
 62
  256
370
   -1
100
AcDbLine
 10
-85.04102270000001
 20
43.05999241781272
 11
-87.47209720000001
 21
29.27268391781271
  0
LINE
  5
6A
100
AcDbEntity
  8
0
  6
ByLayer
 62
  256
370
   -1
100
AcDbLine
 10
-71.25371420000002
 20
40.62891791781271
 11
-73.68478870000001
 21
26.84160941781271
  0
LINE
  5
6B
100
AcDbEntity
  8
0
  6
ByLayer
 62
  256
370
   -1
100
AcDbLine
 10
-66.32967540000001
 20
39.76067711781271
 11
-52.54236690000002
 21
37.32960261781271
  0
LINE
  5
6C
100
AcDbEntity
  8
0
  6
ByLayer
 62
  256
370
   -1
100
AcDbLine
 10
-68.76074990000001
 20
25.97336861781271
 11
-54.97344140000001
 21
23.54229411781271
  0
LINE
  5
6D
100
AcDbEntity
  8
0
  6
ByLayer
 62
  256
370
   -1
100
AcDbLine
 10
-66.32967540000001
 20
39.76067711781271
 11
-68.76074990000001
 21
25.97336861781271
  0
LINE
  5
6E
100
AcDbEntity
  8
0
  6
ByLayer
 62
  256
370
   -1
100
AcDbLine
 10
-52.54236690000002
 20
37.32960261781271
 11
-54.97344140000001
 21
23.54229411781271
  0
LINE
  5
6F
100
AcDbEntity
  8
0
  6
ByLayer
 62
  256
370
   -1
100
AcDbLine
 10
-47.61832810000001
 20
36.46136171781271
 11
-33.83101960000002
 21
34.03028721781271
  0
LINE
  5
70
100
AcDbEntity
  8
0
  6
ByLayer
 62
  256
370
   -1
100
AcDbLine
 10
-50.04940260000001
 20
22.67405321781271
 11
-36.26209410000001
 21
20.24297871781271
  0
LINE
  5
71
100
AcDbEntity
  8
0
  6
ByLayer
 62
  256
370
   -1
100
AcDbLine
 10
-47.61832810000001
 20
36.46136171781271
 11
-50.04940260000001
 21
22.67405321781271
  0
LINE
  5
72
100
AcDbEntity
  8
0
  6
ByLayer
 62
  256
370
   -1
100
AcDbLine
 10
-33.83101960000002
 20
34.03028721781271
 11
-36.26209410000001
 21
20.24297871781271
  0
LINE
  5
73
100
AcDbEntity
  8
0
  6
ByLayer
 62
  256
370
   -1
100
AcDbLine
 10
-28.90698080000001
 20
33.16204631781271
 11
-15.11967230000002
 21
30.73097181781272
  0
LINE
  5
74
100
AcDbEntity
  8
0
  6
ByLayer
 62
  256
370
   -1
100
AcDbLine
 10
-31.33805530000001
 20
19.37473781781271
 11
-17.55074680000001
 21
16.94366331781271
  0
LINE
  5
75
100
AcDbEntity
  8
0
  6
ByLayer
 62
  256
370
   -1
100
AcDbLine
 10
-28.90698080000001
 20
33.16204631781271
 11
-31.33805530000001
 21
19.37473781781271
  0
LINE
  5
76
100
AcDbEntity
  8
0
  6
ByLayer
 62
  256
370
   -1
100
AcDbLine
 10
-15.11967230000002
 20
30.73097181781272
 11
-17.55074680000001
 21
16.94366331781271
  0
LINE
  5
77
100
AcDbEntity
  8
0
  6
ByLayer
 62
  256
370
   -1
100
AcDbLine
 10
-83.66250120000001
 20
23.52381631781271
 11
-69.87519270000001
 21
21.09274181781271
  0
LINE
  5
78
100
AcDbEntity
  8
0
  6
ByLayer
 62
  256
370
   -1
100
AcDbLine
 10
-86.09357570000002
 20
9.736507817812715
 11
-72.30626720000001
 21
7.305433317812714
  0
LINE
  5
79
100
AcDbEntity
  8
0
  6
ByLayer
 62
  256
370
   -1
100
AcDbLine
 10
-83.66250120000001
 20
23.52381631781271
 11
-86.09357570000002
 21
9.736507817812715
  0
LINE
  5
7A
100
AcDbEntity
  8
0
  6
ByLayer
 62
  256
370
   -1
100
AcDbLine
 10
-69.87519270000001
 20
21.09274181781271
 11
-72.30626720000001
 21
7.305433317812714
  0
LINE
  5
7B
100
AcDbEntity
  8
0
  6
ByLayer
 62
  256
370
   -1
100
AcDbLine
 10
-64.95115390000001
 20
20.22450091781271
 11
-51.16384540000001
 21
17.79342641781271
  0
LINE
  5
7C
100
AcDbEntity
  8
0
  6
ByLayer
 62
  256
370
   -1
100
AcDbLine
 10
-67.38222840000002
 20
6.43719241781271
 11
-53.59491990000001
 21
4.006117917812709
  0
LINE
  5
7D
100
AcDbEntity
  8
0
  6
ByLayer
 62
  256
370
   -1
100
AcDbLine
 10
-64.95115390000001
 20
20.22450091781271
 11
-67.38222840000002
 21
6.43719241781271
  0
LINE
  5
7E
100
AcDbEntity
  8
0
  6
ByLayer
 62
  256
370
   -1
100
AcDbLine
 10
-51.16384540000001
 20
17.79342641781271
 11
-53.59491990000001
 21
4.006117917812709
  0
LINE
  5
7F
100
AcDbEntity
  8
0
  6
ByLayer
 62
  256
370
   -1
100
AcDbLine
 10
-46.23980660000001
 20
16.92518551781271
 11
-32.45249810000001
 21
14.49411101781271
  0
LINE
  5
80
100
AcDbEntity
  8
0
  6
ByLayer
 62
  256
370
   -1
100
AcDbLine
 10
-48.67088110000002
 20
3.137877017812713
 11
-34.88357260000001
 21
0.7068025178127115
  0
LINE
  5
81
100
AcDbEntity
  8
0
  6
ByLayer
 62
  256
370
   -1
100
AcDbLine
 10
-46.23980660000001
 20
16.92518551781271
 11
-48.67088110000002
 21
3.137877017812713
  0
LINE
  5
82
100
AcDbEntity
  8
0
  6
ByLayer
 62
  256
370
   -1
100
AcDbLine
 10
-32.45249810000001
 20
14.49411101781271
 11
-34.88357260000001
 21
0.7068025178127115
  0
LINE
  5
83
100
AcDbEntity
  8
0
  6
ByLayer
 62
  256
370
   -1
100
AcDbLine
 10
-27.52845930000001
 20
13.62587021781271
 11
-13.74115080000001
 21
11.19479571781271
  0
LINE
  5
84
100
AcDbEntity
  8
0
  6
ByLayer
 62
  256
370
   -1
100
AcDbLine
 10
-29.95953380000002
 20
-0.1614382821872908
 11
-16.17222530000001
 21
-2.592512782187285
  0
LINE
  5
85
100
AcDbEntity
  8
0
  6
ByLayer
 62
  256
370
   -1
100
AcDbLine
 10
-27.52845930000001
 20
13.62587021781271
 11
-29.95953380000002
 21
-0.1614382821872908
  0
LINE
  5
86
100
AcDbEntity
  8
0
  6
ByLayer
 62
  256
370
   -1
100
AcDbLine
 10
-13.74115080000001
 20
11.19479571781271
 11
-16.17222530000001
 21
-2.592512782187285
  0
LINE
  5
87
100
AcDbEntity
  8
0
  6
ByLayer
 62
  256
370
   -1
100
AcDbLine
 10
-77.60614300000002
 20
3.162811317812711
 11
-63.81883450000002
 21
0.7317368178127097
  0
LINE
  5
88
100
AcDbEntity
  8
0
  6
ByLayer
 62
  256
370
   -1
100
AcDbLine
 10
-80.03721750000001
 20
-10.62449718218729
 11
-66.24990900000002
 21
-13.05557168218728
  0
LINE
  5
89
100
AcDbEntity
  8
0
  6
ByLayer
 62
  256
370
   -1
100
AcDbLine
 10
-77.60614300000002
 20
3.162811317812711
 11
-80.03721750000001
 21
-10.62449718218729
  0
LINE
  5
8A
100
AcDbEntity
  8
0
  6
ByLayer
 62
  256
370
   -1
100
AcDbLine
 10
-63.81883450000002
 20
0.7317368178127097
 11
-66.24990900000002
 21
-13.05557168218728
  0
LINE
  5
8B
100
AcDbEntity
  8
0
  6
ByLayer
 62
  256
370
   -1
100
AcDbLine
 10
-58.89479560000002
 20
-0.1365040821872867
 11
-45.10748710000001
 21
-2.567578582187288
  0
LINE
  5
8C
100
AcDbEntity
  8
0
  6
ByLayer
 62
  256
370
   -1
100
AcDbLine
 10
-61.32587010000002
 20
-13.92381258218729
 11
-47.53856160000001
 21
-16.35488708218729
  0
LINE
  5
8D
100
AcDbEntity
  8
0
  6
ByLayer
 62
  256
370
   -1
100
AcDbLine
 10
-58.89479560000002
 20
-0.1365040821872867
 11
-61.32587010000002
 21
-13.92381258218729
  0
LINE
  5
8E
100
AcDbEntity
  8
0
  6
ByLayer
 62
  256
370
   -1
100
AcDbLine
 10
-45.10748710000001
 20
-2.567578582187288
 11
-47.53856160000001
 21
-16.35488708218729
  0
LINE
  5
8F
100
AcDbEntity
  8
0
  6
ByLayer
 62
  256
370
   -1
100
AcDbLine
 10
-40.18344830000001
 20
-3.435819482187284
 11
-26.39613980000001
 21
-5.866893982187285
  0
LINE
  5
90
100
AcDbEntity
  8
0
  6
ByLayer
 62
  256
370
   -1
100
AcDbLine
 10
-42.61452280000002
 20
-17.22312798218729
 11
-28.82721430000001
 21
-19.65420248218729
  0
LINE
  5
91
100
AcDbEntity
  8
0
  6
ByLayer
 62
  256
370
   -1
100
AcDbLine
 10
-40.18344830000001
 20
-3.435819482187284
 11
-42.61452280000002
 21
-17.22312798218729
  0
LINE
  5
92
100
AcDbEntity
  8
0
  6
ByLayer
 62
  256
370
   -1
100
AcDbLine
 10
-26.39613980000001
 20
-5.866893982187285
 11
-28.82721430000001
 21
-19.65420248218729
  0
LINE
  5
93
100
AcDbEntity
  8
0
  6
ByLayer
 62
  256
370
   -1
100
AcDbLine
 10
-21.47210100000001
 20
-6.735134782187288
 11
-7.684792500000015
 21
-9.166209282187289
  0
LINE
  5
94
100
AcDbEntity
  8
0
  6
ByLayer
 62
  256
370
   -1
100
AcDbLine
 10
-23.90317550000002
 20
-20.52244328218728
 11
-10.11586700000001
 21
-22.95351778218729
  0
LINE
  5
95
100
AcDbEntity
  8
0
  6
ByLayer
 62
  256
370
   -1
100
AcDbLine
 10
-21.47210100000001
 20
-6.735134782187288
 11
-23.90317550000002
 21
-20.52244328218728
  0
LINE
  5
96
100
AcDbEntity
  8
0
  6
ByLayer
 62
  256
370
   -1
100
AcDbLine
 10
-7.684792500000015
 20
-9.166209282187289
 11
-10.11586700000001
 21
-22.95351778218729
  0
LINE
  5
97
100
AcDbEntity
  8
0
  6
ByLayer
 62
  256
370
   -1
100
AcDbLine
 10
-66.87194790000001
 20
-18.02302258218728
 11
-53.08463940000001
 21
-20.45409708218729
  0
LINE
  5
98
100
AcDbEntity
  8
0
  6
ByLayer
 62
  256
370
   -1
100
AcDbLine
 10
-69.30302240000002
 20
-31.81033108218729
 11
-55.51571390000002
 21
-34.24140558218728
  0
LINE
  5
99
100
AcDbEntity
  8
0
  6
ByLayer
 62
  256
370
   -1
100
AcDbLine
 10
-66.87194790000001
 20
-18.02302258218728
 11
-69.30302240000002
 21
-31.81033108218729
  0
LINE
  5
9A
100
AcDbEntity
  8
0
  6
ByLayer
 62
  256
370
   -1
100
AcDbLine
 10
-53.08463940000001
 20
-20.45409708218729
 11
-55.51571390000002
 21
-34.24140558218728
  0
LINE
  5
9B
100
AcDbEntity
  8
0
  6
ByLayer
 62
  256
370
   -1
100
AcDbLine
 10
-36.46600850000002
 20
-23.38440998218729
 11
-22.67870000000002
 21
-25.81548448218729
  0
LINE
  5
9C
100
AcDbEntity
  8
0
  6
ByLayer
 62
  256
370
   -1
100
AcDbLine
 10
-38.89708300000001
 20
-37.17171848218729
 11
-25.10977450000001
 21
-39.60279298218728
  0
LINE
  5
9D
100
AcDbEntity
  8
0
  6
ByLayer
 62
  256
370
   -1
100
AcDbLine
 10
-36.46600850000002
 20
-23.38440998218729
 11
-38.89708300000001
 21
-37.17171848218729
  0
LINE
  5
9E
100
AcDbEntity
  8
0
  6
ByLayer
 62
  256
370
   -1
100
AcDbLine
 10
-22.67870000000002
 20
-25.81548448218729
 11
-25.10977450000001
 21
-39.60279298218728
  0
LINE
  5
9F
100
AcDbEntity
  8
0
  6
ByLayer
 62
  256
370
   -1
100
AcDbLine
 10
-44.94946450000002
 20
-22.90397438218729
 11
-38.05581030000002
 21
-24.11951168218729
  0
LINE
  5
A0
100
AcDbEntity
  8
0
  6
ByLayer
 62
  256
370
   -1
100
AcDbLine
 10
-47.55418720000002
 20
-37.67609068218729
 11
-40.66053290000002
 21
-38.89162798218729
  0
LINE
  5
A1
100
AcDbEntity
  8
0
  6
ByLayer
 62
  256
370
   -1
100
AcDbLine
 10
-44.94946450000002
 20
-22.90397438218729
 11
-47.55418720000002
 21
-37.67609068218729
  0
LINE
  5
A2
100
AcDbEntity
  8
0
  6
ByLayer
 62
  256
370
   -1
100
AcDbLine
 10
-38.05581030000002
 20
-24.11951168218729
 11
-40.66053290000002
 21
-38.89162798218729
  0
LINE
  5
A3
100
AcDbEntity
  8
0
  6
ByLayer
 62
  256
370
   -1
100
AcDbLine
 10
-21.43619460000001
 20
-27.04999828218729
 11
-14.54254030000001
 21
-28.26553548218729
  0
LINE
  5
A4
100
AcDbEntity
  8
0
  6
ByLayer
 62
  256
370
   -1
100
AcDbLine
 10
-24.04091730000002
 20
-41.82211458218728
 11
-17.14726300000001
 21
-43.03765178218728
  0
LINE
  5
A5
100
AcDbEntity
  8
0
  6
ByLayer
 62
  256
370
   -1
100
AcDbLine
 10
-21.43619460000001
 20
-27.04999828218729
 11
-24.04091730000002
 21
-41.82211458218728
  0
LINE
  5
A6
100
AcDbEntity
  8
0
  6
ByLayer
 62
  256
370
   -1
100
AcDbLine
 10
-14.54254030000001
 20
-28.26553548218729
 11
-17.14726300000001
 21
-43.03765178218728
  0
LINE
  5
A7
100
AcDbEntity
  8
noname
  6
ByLayer
 62
  256
370
   -1
100
AcDbLine
 10
-116.125
 20
4.301005017812713
 11
-116.125
 21
-9.698994982187287
  0
LINE
  5
A8
100
AcDbEntity
  8
noname
  6
ByLayer
 62
  256
370
   -1
100
AcDbLine
 10
-82.87500000000001
 20
4.301005017812713
 11
-82.87500000000001
 21
-9.698994982187287
  0
LINE
  5
A9
100
AcDbEntity
  8
noname
  6
ByLayer
 62
  256
370
   -1
100
AcDbLine
 10
-70.17126329529638
 20
-36.7343698460208
 11
-56.38395479529638
 21
-39.16544434602079
  0
ARC
  5
AA
100
AcDbEntity
  8
pcb
  6
ByLayer
 62
  256
370
   -1
100
AcDbCircle
 10
-112.125
 20
41.56100501781271
 40
5
100
AcDbArc
 50
90
 51
180
  0
LINE
  5
AB
100
AcDbEntity
  8
noname
  6
ByLayer
 62
  256
370
   -1
100
AcDbLine
 10
-109.95
 20
26.56100501781271
 11
-90.95000000000002
 21
26.56100501781271
  0
LINE
  5
AC
100
AcDbEntity
  8
noname
  6
ByLayer
 62
  256
370
   -1
100
AcDbLine
 10
-109.95
 20
45.56100501781271
 11
-109.95
 21
26.56100501781271
  0
LINE
  5
AD
100
AcDbEntity
  8
noname
  6
ByLayer
 62
  256
370
   -1
100
AcDbLine
 10
-90.95000000000002
 20
45.56100501781271
 11
-90.95000000000002
 21
26.56100501781271
  0
LINE
  5
AE
100
AcDbEntity
  8
noname
  6
ByLayer
 62
  256
370
   -1
100
AcDbLine
 10
-109.95
 20
45.56100501781271
 11
-90.95000000000002
 21
45.56100501781271
  0
CIRCLE
  5
AF
100
AcDbEntity
  8
percage
  6
ByLayer
 62
  256
370
   -1
100
AcDbCircle
 10
-82.5
 20
-23.45895019895059
 40
1.1
  0
LINE
  5
B0
100
AcDbEntity
  8
noname
  6
ByLayer
 62
  256
370
   -1
100
AcDbLine
 10
-28.47286035235183
 20
35.62406569972946
 11
-12.22353247043509
 21
32.75887075208129
  0
LINE
  5
B1
100
AcDbEntity
  8
noname
  6
ByLayer
 62
  256
370
   -1
100
AcDbLine
 10
-12.22353247043509
 20
32.75887075208129
 11
-15.08872741808326
 21
16.50954287016453
  0
LINE
  5
B2
100
AcDbEntity
  8
placement
  6
ByLayer
 62
  256
370
   -1
100
AcDbLine
 10
-28.90698080000001
 20
33.16204631781271
 11
-17.55074680000001
 21
16.94366331781271
  0
LINE
  5
B3
100
AcDbEntity
  8
placement
  6
ByLayer
 62
  256
370
   -1
100
AcDbLine
 10
-47.61832810000001
 20
36.46136171781271
 11
-36.26209410000001
 21
20.24297871781272
  0
LINE
  5
B4
100
AcDbEntity
  8
placement
  6
ByLayer
 62
  256
370
   -1
100
AcDbLine
 10
-66.32967540000001
 20
39.76067711781271
 11
-54.97344140000002
 21
23.54229411781272
  0
LINE
  5
B5
100
AcDbEntity
  8
placement
  6
ByLayer
 62
  256
370
   -1
100
AcDbLine
 10
-85.04102270000001
 20
43.05999241781272
 11
-73.68478870000001
 21
26.84160941781272
  0
LINE
  5
B6
100
AcDbEntity
  8
placement
  6
ByLayer
 62
  256
370
   -1
100
AcDbLine
 10
-83.66250120000001
 20
23.52381631781271
 11
-72.30626720000001
 21
7.305433317812717
  0
LINE
  5
B7
100
AcDbEntity
  8
placement
  6
ByLayer
 62
  256
370
   -1
100
AcDbLine
 10
-64.95115390000001
 20
20.22450091781271
 11
-53.59491990000001
 21
4.006117917812716
  0
LINE
  5
B8
100
AcDbEntity
  8
placement
  6
ByLayer
 62
  256
370
   -1
100
AcDbLine
 10
-46.23980660000001
 20
16.92518551781271
 11
-34.88357260000001
 21
0.7068025178127186
  0
LINE
  5
B9
100
AcDbEntity
  8
placement
  6
ByLayer
 62
  256
370
   -1
100
AcDbLine
 10
-27.52845930000001
 20
13.62587021781271
 11
-16.17222530000001
 21
-2.592512782187285
  0
LINE
  5
BA
100
AcDbEntity
  8
placement
  6
ByLayer
 62
  256
370
   -1
100
AcDbLine
 10
-40.18344830000002
 20
-3.435819482187283
 11
-28.82721430000002
 21
-19.65420248218728
  0
LINE
  5
BB
100
AcDbEntity
  8
placement
  6
ByLayer
 62
  256
370
   -1
100
AcDbLine
 10
-58.89479560000002
 20
-0.1365040821872856
 11
-47.53856160000002
 21
-16.35488708218728
  0
LINE
  5
BC
100
AcDbEntity
  8
placement
  6
ByLayer
 62
  256
370
   -1
100
AcDbLine
 10
-77.60614300000002
 20
3.16281131781271
 11
-66.24990900000002
 21
-13.05557168218728
  0
LINE
  5
BD
100
AcDbEntity
  8
placement
  6
ByLayer
 62
  256
370
   -1
100
AcDbLine
 10
-21.47210100000001
 20
-6.735134782187288
 11
-10.11586700000001
 21
-22.95351778218728
  0
LINE
  5
BE
100
AcDbEntity
  8
placement
  6
ByLayer
 62
  256
370
   -1
100
AcDbLine
 10
-36.46600850000002
 20
-23.38440998218729
 11
-25.10977450000001
 21
-39.60279298218728
  0
LINE
  5
BF
100
AcDbEntity
  8
placement
  6
ByLayer
 62
  256
370
   -1
100
AcDbLine
 10
-107.45
 20
43.06100501781271
 11
-93.45000000000002
 21
29.06100501781271
  0
LINE
  5
C0
100
AcDbEntity
  8
placement
  6
ByLayer
 62
  256
370
   -1
100
AcDbLine
 10
-107.925
 20
23.68100501781271
 11
-93.92500000000001
 21
9.681005017812712
  0
LINE
  5
C1
100
AcDbEntity
  8
placement
  6
ByLayer
 62
  256
370
   -1
100
AcDbLine
 10
-106.5
 20
4.301005017812713
 11
-92.50000000000001
 21
-9.698994982187287
  0
LINE
  5
C2
100
AcDbEntity
  8
placement
  6
ByLayer
 62
  256
370
   -1
100
AcDbLine
 10
-111.25
 20
-15.07899498218729
 11
-97.25000000000003
 21
-29.07899498218729
  0
LINE
  5
C3
100
AcDbEntity
  8
noname
  6
ByLayer
 62
  256
370
   -1
100
AcDbLine
 10
-21.03798055235183
 20
-4.273115400270537
 11
-7.250672052351831
 21
-6.704189900270539
  0
LINE
  5
C4
100
AcDbEntity
  8
noname
  6
ByLayer
 62
  256
370
   -1
100
AcDbLine
 10
-24.3372959476482
 20
-22.98446266410403
 11
-10.54998744764819
 21
-25.41553716410404
  0
LINE
  5
C5
100
AcDbEntity
  8
noname
  6
ByLayer
 62
  256
370
   -1
100
AcDbLine
 10
-39.33120344764819
 20
-39.63373786410404
 11
-11.38728347293934
 21
-44.56100494313946
  0
LINE
  5
C6
100
AcDbEntity
  8
noname
  6
ByLayer
 62
  256
370
   -1
100
AcDbLine
 10
-5.222773118083262
 20
-9.600329729835469
 11
-11.38728347293934
 21
-44.56100494313946
  0
LINE
  5
C7
100
AcDbEntity
  8
pcb
  6
ByLayer
 62
  256
370
   -1
100
AcDbLine
 10
-117.125
 20
41.56100501781271
 11
-117.125
 21
-41.56100501781273
  0
ARC
  5
C8
100
AcDbEntity
  8
pcb
  6
ByLayer
 62
  256
370
   -1
100
AcDbCircle
 10
-112.125
 20
-41.56100501781272
 40
5
100
AcDbArc
 50
180.0000000000001
 51
270
  0
LINE
  5
C9
100
AcDbEntity
  8
0
  6
ByLayer
 62
  256
370
   -1
100
AcDbLine
 10
91.07499999999997
 20
43.06100501781271
 11
105.075
 21
43.06100501781271
  0
LINE
  5
CA
100
AcDbEntity
  8
0
  6
ByLayer
 62
  256
370
   -1
100
AcDbLine
 10
91.07499999999997
 20
29.06100501781271
 11
105.075
 21
29.06100501781271
  0
LINE
  5
CB
100
AcDbEntity
  8
0
  6
ByLayer
 62
  256
370
   -1
100
AcDbLine
 10
91.07499999999997
 20
43.06100501781271
 11
91.07499999999997
 21
29.06100501781271
  0
LINE
  5
CC
100
AcDbEntity
  8
0
  6
ByLayer
 62
  256
370
   -1
100
AcDbLine
 10
105.075
 20
43.06100501781271
 11
105.075
 21
29.06100501781271
  0
LINE
  5
CD
100
AcDbEntity
  8
0
  6
ByLayer
 62
  256
370
   -1
100
AcDbLine
 10
96.3
 20
23.68100501781271
 11
110.3
 21
23.68100501781271
  0
LINE
  5
CE
100
AcDbEntity
  8
0
  6
ByLayer
 62
  256
370
   -1
100
AcDbLine
 10
96.3
 20
9.681005017812716
 11
110.3
 21
9.681005017812716
  0
LINE
  5
CF
100
AcDbEntity
  8
0
  6
ByLayer
 62
  256
370
   -1
100
AcDbLine
 10
96.3
 20
23.68100501781271
 11
96.3
 21
9.681005017812716
  0
LINE
  5
D0
100
AcDbEntity
  8
0
  6
ByLayer
 62
  256
370
   -1
100
AcDbLine
 10
110.3
 20
23.68100501781271
 11
110.3
 21
9.681005017812716
  0
LINE
  5
D1
100
AcDbEntity
  8
0
  6
ByLayer
 62
  256
370
   -1
100
AcDbLine
 10
94.87499999999999
 20
4.301005017812713
 11
108.875
 21
4.301005017812713
  0
LINE
  5
D2
100
AcDbEntity
  8
0
  6
ByLayer
 62
  256
370
   -1
100
AcDbLine
 10
94.87499999999999
 20
-9.698994982187287
 11
108.875
 21
-9.698994982187287
  0
LINE
  5
D3
100
AcDbEntity
  8
0
  6
ByLayer
 62
  256
370
   -1
100
AcDbLine
 10
94.87499999999999
 20
4.301005017812713
 11
94.87499999999999
 21
-9.698994982187287
  0
LINE
  5
D4
100
AcDbEntity
  8
0
  6
ByLayer
 62
  256
370
   -1
100
AcDbLine
 10
108.875
 20
4.301005017812713
 11
108.875
 21
-9.698994982187287
  0
LINE
  5
D5
100
AcDbEntity
  8
0
  6
ByLayer
 62
  256
370
   -1
100
AcDbLine
 10
97.24999999999999
 20
-15.07899498218729
 11
111.25
 21
-15.07899498218729
  0
LINE
  5
D6
100
AcDbEntity
  8
0
  6
ByLayer
 62
  256
370
   -1
100
AcDbLine
 10
97.24999999999999
 20
-29.07899498218728
 11
111.25
 21
-29.07899498218728
  0
LINE
  5
D7
100
AcDbEntity
  8
0
  6
ByLayer
 62
  256
370
   -1
100
AcDbLine
 10
97.24999999999999
 20
-15.07899498218729
 11
97.24999999999999
 21
-29.07899498218728
  0
LINE
  5
D8
100
AcDbEntity
  8
0
  6
ByLayer
 62
  256
370
   -1
100
AcDbLine
 10
111.25
 20
-15.07899498218729
 11
111.25
 21
-29.07899498218728
  0
LINE
  5
D9
100
AcDbEntity
  8
0
  6
ByLayer
 62
  256
370
   -1
100
AcDbLine
 10
10.51399859999998
 20
29.08131411781271
 11
24.30130709999999
 21
31.51238861781271
  0
LINE
  5
DA
100
AcDbEntity
  8
0
  6
ByLayer
 62
  256
370
   -1
100
AcDbLine
 10
12.94507309999999
 20
15.29400561781272
 11
26.73238159999998
 21
17.72508011781271
  0
LINE
  5
DB
100
AcDbEntity
  8
0
  6
ByLayer
 62
  256
370
   -1
100
AcDbLine
 10
10.51399859999998
 20
29.08131411781271
 11
12.94507309999999
 21
15.29400561781272
  0
LINE
  5
DC
100
AcDbEntity
  8
0
  6
ByLayer
 62
  256
370
   -1
100
AcDbLine
 10
24.30130709999999
 20
31.51238861781271
 11
26.73238159999998
 21
17.72508011781271
  0
LINE
  5
DD
100
AcDbEntity
  8
0
  6
ByLayer
 62
  256
370
   -1
100
AcDbLine
 10
29.22534589999999
 20
32.38062951781271
 11
43.01265439999999
 21
34.81170401781272
  0
LINE
  5
DE
100
AcDbEntity
  8
0
  6
ByLayer
 62
  256
370
   -1
100
AcDbLine
 10
31.65642039999999
 20
18.59332101781271
 11
45.44372889999998
 21
21.02439551781271
  0
LINE
  5
DF
100
AcDbEntity
  8
0
  6
ByLayer
 62
  256
370
   -1
100
AcDbLine
 10
29.22534589999999
 20
32.38062951781271
 11
31.65642039999999
 21
18.59332101781271
  0
LINE
  5
E0
100
AcDbEntity
  8
0
  6
ByLayer
 62
  256
370
   -1
100
AcDbLine
 10
43.01265439999999
 20
34.81170401781272
 11
45.44372889999998
 21
21.02439551781271
  0
LINE
  5
E1
100
AcDbEntity
  8
0
  6
ByLayer
 62
  256
370
   -1
100
AcDbLine
 10
47.93669319999999
 20
35.67994491781271
 11
61.72400169999999
 21
38.11101941781271
  0
LINE
  5
E2
100
AcDbEntity
  8
0
  6
ByLayer
 62
  256
370
   -1
100
AcDbLine
 10
50.36776769999999
 20
21.89263641781271
 11
64.15507619999998
 21
24.32371091781271
  0
LINE
  5
E3
100
AcDbEntity
  8
0
  6
ByLayer
 62
  256
370
   -1
100
AcDbLine
 10
47.93669319999999
 20
35.67994491781271
 11
50.36776769999999
 21
21.89263641781271
  0
LINE
  5
E4
100
AcDbEntity
  8
0
  6
ByLayer
 62
  256
370
   -1
100
AcDbLine
 10
61.72400169999999
 20
38.11101941781271
 11
64.15507619999998
 21
24.32371091781271
  0
LINE
  5
E5
100
AcDbEntity
  8
0
  6
ByLayer
 62
  256
370
   -1
100
AcDbLine
 10
66.64804049999999
 20
38.97926021781271
 11
80.43534899999999
 21
41.41033471781271
  0
LINE
  5
E6
100
AcDbEntity
  8
0
  6
ByLayer
 62
  256
370
   -1
100
AcDbLine
 10
69.07911499999999
 20
25.19195171781271
 11
82.86642349999998
 21
27.62302621781271
  0
LINE
  5
E7
100
AcDbEntity
  8
0
  6
ByLayer
 62
  256
370
   -1
100
AcDbLine
 10
66.64804049999999
 20
38.97926021781271
 11
69.07911499999999
 21
25.19195171781271
  0
LINE
  5
E8
100
AcDbEntity
  8
0
  6
ByLayer
 62
  256
370
   -1
100
AcDbLine
 10
80.43534899999999
 20
41.41033471781271
 11
82.86642349999998
 21
27.62302621781271
  0
LINE
  5
E9
100
AcDbEntity
  8
0
  6
ByLayer
 62
  256
370
   -1
100
AcDbLine
 10
18.49115079999999
 20
11.19479571781271
 11
32.27845929999999
 21
13.62587021781271
  0
LINE
  5
EA
100
AcDbEntity
  8
0
  6
ByLayer
 62
  256
370
   -1
100
AcDbLine
 10
20.92222529999999
 20
-2.592512782187285
 11
34.70953379999999
 21
-0.1614382821872908
  0
LINE
  5
EB
100
AcDbEntity
  8
0
  6
ByLayer
 62
  256
370
   -1
100
AcDbLine
 10
18.49115079999999
 20
11.19479571781271
 11
20.92222529999999
 21
-2.592512782187285
  0
LINE
  5
EC
100
AcDbEntity
  8
0
  6
ByLayer
 62
  256
370
   -1
100
AcDbLine
 10
32.27845929999999
 20
13.62587021781271
 11
34.70953379999999
 21
-0.1614382821872908
  0
LINE
  5
ED
100
AcDbEntity
  8
0
  6
ByLayer
 62
  256
370
   -1
100
AcDbLine
 10
37.2024981
 20
14.49411101781271
 11
50.98980659999999
 21
16.92518551781271
  0
LINE
  5
EE
100
AcDbEntity
  8
0
  6
ByLayer
 62
  256
370
   -1
100
AcDbLine
 10
39.63357259999999
 20
0.7068025178127115
 11
53.42088109999999
 21
3.137877017812713
  0
LINE
  5
EF
100
AcDbEntity
  8
0
  6
ByLayer
 62
  256
370
   -1
100
AcDbLine
 10
37.2024981
 20
14.49411101781271
 11
39.63357259999999
 21
0.7068025178127115
  0
LINE
  5
F0
100
AcDbEntity
  8
0
  6
ByLayer
 62
  256
370
   -1
100
AcDbLine
 10
50.98980659999999
 20
16.92518551781271
 11
53.42088109999999
 21
3.137877017812713
  0
LINE
  5
F1
100
AcDbEntity
  8
0
  6
ByLayer
 62
  256
370
   -1
100
AcDbLine
 10
55.9138454
 20
17.79342641781271
 11
69.70115389999999
 21
20.22450091781271
  0
LINE
  5
F2
100
AcDbEntity
  8
0
  6
ByLayer
 62
  256
370
   -1
100
AcDbLine
 10
58.34491989999999
 20
4.006117917812709
 11
72.13222839999999
 21
6.43719241781271
  0
LINE
  5
F3
100
AcDbEntity
  8
0
  6
ByLayer
 62
  256
370
   -1
100
AcDbLine
 10
55.9138454
 20
17.79342641781271
 11
58.34491989999999
 21
4.006117917812709
  0
LINE
  5
F4
100
AcDbEntity
  8
0
  6
ByLayer
 62
  256
370
   -1
100
AcDbLine
 10
69.70115389999999
 20
20.22450091781271
 11
72.13222839999999
 21
6.43719241781271
  0
LINE
  5
F5
100
AcDbEntity
  8
0
  6
ByLayer
 62
  256
370
   -1
100
AcDbLine
 10
74.6251927
 20
21.09274181781271
 11
88.41250119999999
 21
23.52381631781271
  0
LINE
  5
F6
100
AcDbEntity
  8
0
  6
ByLayer
 62
  256
370
   -1
100
AcDbLine
 10
77.05626719999999
 20
7.305433317812714
 11
90.84357569999999
 21
9.736507817812715
  0
LINE
  5
F7
100
AcDbEntity
  8
0
  6
ByLayer
 62
  256
370
   -1
100
AcDbLine
 10
74.6251927
 20
21.09274181781271
 11
77.05626719999999
 21
7.305433317812714
  0
LINE
  5
F8
100
AcDbEntity
  8
0
  6
ByLayer
 62
  256
370
   -1
100
AcDbLine
 10
88.41250119999999
 20
23.52381631781271
 11
90.84357569999999
 21
9.736507817812715
  0
LINE
  5
F9
100
AcDbEntity
  8
0
  6
ByLayer
 62
  256
370
   -1
100
AcDbLine
 10
12.43479249999999
 20
-9.166209282187289
 11
26.22210099999999
 21
-6.735134782187288
  0
LINE
  5
FA
100
AcDbEntity
  8
0
  6
ByLayer
 62
  256
370
   -1
100
AcDbLine
 10
14.86586699999998
 20
-22.95351778218729
 11
28.65317549999999
 21
-20.52244328218728
  0
LINE
  5
FB
100
AcDbEntity
  8
0
  6
ByLayer
 62
  256
370
   -1
100
AcDbLine
 10
12.43479249999999
 20
-9.166209282187289
 11
14.86586699999998
 21
-22.95351778218729
  0
LINE
  5
FC
100
AcDbEntity
  8
0
  6
ByLayer
 62
  256
370
   -1
100
AcDbLine
 10
26.22210099999999
 20
-6.735134782187288
 11
28.65317549999999
 21
-20.52244328218728
  0
LINE
  5
FD
100
AcDbEntity
  8
0
  6
ByLayer
 62
  256
370
   -1
100
AcDbLine
 10
31.14613979999997
 20
-5.866893982187285
 11
44.93344829999999
 21
-3.435819482187284
  0
LINE
  5
FE
100
AcDbEntity
  8
0
  6
ByLayer
 62
  256
370
   -1
100
AcDbLine
 10
33.57721429999999
 20
-19.65420248218729
 11
47.36452279999999
 21
-17.22312798218729
  0
LINE
  5
FF
100
AcDbEntity
  8
0
  6
ByLayer
 62
  256
370
   -1
100
AcDbLine
 10
31.14613979999997
 20
-5.866893982187285
 11
33.57721429999999
 21
-19.65420248218729
  0
LINE
  5
100
100
AcDbEntity
  8
0
  6
ByLayer
 62
  256
370
   -1
100
AcDbLine
 10
44.93344829999999
 20
-3.435819482187284
 11
47.36452279999999
 21
-17.22312798218729
  0
LINE
  5
101
100
AcDbEntity
  8
0
  6
ByLayer
 62
  256
370
   -1
100
AcDbLine
 10
49.85748709999997
 20
-2.567578582187288
 11
63.64479559999999
 21
-0.1365040821872867
  0
LINE
  5
102
100
AcDbEntity
  8
0
  6
ByLayer
 62
  256
370
   -1
100
AcDbLine
 10
52.28856159999999
 20
-16.35488708218729
 11
66.07587009999999
 21
-13.92381258218729
  0
LINE
  5
103
100
AcDbEntity
  8
0
  6
ByLayer
 62
  256
370
   -1
100
AcDbLine
 10
49.85748709999997
 20
-2.567578582187288
 11
52.28856159999999
 21
-16.35488708218729
  0
LINE
  5
104
100
AcDbEntity
  8
0
  6
ByLayer
 62
  256
370
   -1
100
AcDbLine
 10
63.64479559999999
 20
-0.1365040821872867
 11
66.07587009999999
 21
-13.92381258218729
  0
LINE
  5
105
100
AcDbEntity
  8
0
  6
ByLayer
 62
  256
370
   -1
100
AcDbLine
 10
68.56883449999999
 20
0.7317368178127097
 11
82.35614299999999
 21
3.162811317812711
  0
LINE
  5
106
100
AcDbEntity
  8
0
  6
ByLayer
 62
  256
370
   -1
100
AcDbLine
 10
70.99990899999999
 20
-13.05557168218728
 11
84.78721749999998
 21
-10.62449718218729
  0
LINE
  5
107
100
AcDbEntity
  8
0
  6
ByLayer
 62
  256
370
   -1
100
AcDbLine
 10
68.56883449999999
 20
0.7317368178127097
 11
70.99990899999999
 21
-13.05557168218728
  0
LINE
  5
108
100
AcDbEntity
  8
0
  6
ByLayer
 62
  256
370
   -1
100
AcDbLine
 10
82.35614299999999
 20
3.162811317812711
 11
84.78721749999998
 21
-10.62449718218729
  0
LINE
  5
109
100
AcDbEntity
  8
0
  6
ByLayer
 62
  256
370
   -1
100
AcDbLine
 10
25.08978159999999
 20
-26.22789898218728
 11
38.87709009999999
 21
-23.79682448218729
  0
LINE
  5
10A
100
AcDbEntity
  8
0
  6
ByLayer
 62
  256
370
   -1
100
AcDbLine
 10
27.52085609999999
 20
-40.01520748218729
 11
41.30816459999998
 21
-37.58413298218728
  0
LINE
  5
10B
100
AcDbEntity
  8
0
  6
ByLayer
 62
  256
370
   -1
100
AcDbLine
 10
25.08978159999999
 20
-26.22789898218728
 11
27.52085609999999
 21
-40.01520748218729
  0
LINE
  5
10C
100
AcDbEntity
  8
0
  6
ByLayer
 62
  256
370
   -1
100
AcDbLine
 10
38.87709009999999
 20
-23.79682448218729
 11
41.30816459999998
 21
-37.58413298218728
  0
LINE
  5
10D
100
AcDbEntity
  8
0
  6
ByLayer
 62
  256
370
   -1
100
AcDbLine
 10
16.95362189999999
 20
-28.67794998218729
 11
23.8472762
 21
-27.46241278218729
  0
LINE
  5
10E
100
AcDbEntity
  8
0
  6
ByLayer
 62
  256
370
   -1
100
AcDbLine
 10
19.55834459999998
 20
-43.45006628218729
 11
26.45199889999999
 21
-42.23452908218729
  0
LINE
  5
10F
100
AcDbEntity
  8
0
  6
ByLayer
 62
  256
370
   -1
100
AcDbLine
 10
16.95362189999999
 20
-28.67794998218729
 11
19.55834459999998
 21
-43.45006628218729
  0
LINE
  5
110
100
AcDbEntity
  8
0
  6
ByLayer
 62
  256
370
   -1
100
AcDbLine
 10
23.8472762
 20
-27.46241278218729
 11
26.45199889999999
 21
-42.23452908218729
  0
LINE
  5
111
100
AcDbEntity
  8
0
  6
ByLayer
 62
  256
370
   -1
100
AcDbLine
 10
40.46689189999999
 20
-24.53192618218729
 11
47.36054609999998
 21
-23.31638888218728
  0
LINE
  5
112
100
AcDbEntity
  8
0
  6
ByLayer
 62
  256
370
   -1
100
AcDbLine
 10
43.0716145
 20
-39.30404248218728
 11
49.96526879999998
 21
-38.08850518218729
  0
LINE
  5
113
100
AcDbEntity
  8
0
  6
ByLayer
 62
  256
370
   -1
100
AcDbLine
 10
40.46689189999999
 20
-24.53192618218729
 11
43.0716145
 21
-39.30404248218728
  0
LINE
  5
114
100
AcDbEntity
  8
0
  6
ByLayer
 62
  256
370
   -1
100
AcDbLine
 10
47.36054609999998
 20
-23.31638888218728
 11
49.96526879999998
 21
-38.08850518218729
  0
LINE
  5
115
100
AcDbEntity
  8
0
  6
ByLayer
 62
  256
370
   -1
100
AcDbLine
 10
53.15680249999998
 20
-21.27892588218728
 11
66.94411099999998
 21
-18.84785138218729
  0
LINE
  5
116
100
AcDbEntity
  8
0
  6
ByLayer
 62
  256
370
   -1
100
AcDbLine
 10
55.58787699999998
 20
-35.06623438218729
 11
69.37518549999997
 21
-32.63515988218728
  0
LINE
  5
117
100
AcDbEntity
  8
0
  6
ByLayer
 62
  256
370
   -1
100
AcDbLine
 10
53.15680249999998
 20
-21.27892588218728
 11
55.58787699999998
 21
-35.06623438218729
  0
LINE
  5
118
100
AcDbEntity
  8
0
  6
ByLayer
 62
  256
370
   -1
100
AcDbLine
 10
66.94411099999998
 20
-18.84785138218729
 11
69.37518549999997
 21
-32.63515988218728
  0
LINE
  5
119
100
AcDbEntity
  8
noname
  6
ByLayer
 62
  256
370
   -1
100
AcDbLine
 10
87.62499999999999
 20
4.301005017812713
 11
87.62499999999999
 21
-9.698994982187287
  0
LINE
  5
11A
100
AcDbEntity
  8
noname
  6
ByLayer
 62
  256
370
   -1
100
AcDbLine
 10
116.125
 20
4.301005017812713
 11
116.125
 21
-9.698994982187287
  0
LINE
  5
11B
100
AcDbEntity
  8
noname
  6
ByLayer
 62
  256
370
   -1
100
AcDbLine
 10
56.02199744764816
 20
-37.52825376410404
 11
69.80930594764816
 21
-35.09717926410403
  0
ARC
  5
11C
100
AcDbEntity
  8
pcb
  6
ByLayer
 62
  256
370
   -1
100
AcDbCircle
 10
112.125
 20
41.56100501781271
 40
5
100
AcDbArc
 50
0
 51
90
  0
LINE
  5
11D
100
AcDbEntity
  8
noname
  6
ByLayer
 62
  256
370
   -1
100
AcDbLine
 10
64.18602111808323
 20
38.54513977016453
 11
66.61709561808323
 21
24.75783127016454
  0
LINE
  5
11E
100
AcDbEntity
  8
noname
  6
ByLayer
 62
  256
370
   -1
100
AcDbLine
 10
69.51323544764817
 20
22.72993233589596
 11
85.76256332956491
 21
25.59512728354414
  0
LINE
  5
11F
100
AcDbEntity
  8
noname
  6
ByLayer
 62
  256
370
   -1
100
AcDbLine
 10
82.89736838191673
 20
41.84445516546089
 11
85.76256332956491
 21
25.59512728354414
  0
LINE
  5
120
100
AcDbEntity
  8
noname
  6
ByLayer
 62
  256
370
   -1
100
AcDbLine
 10
86.19999999999997
 20
26.56100501781271
 11
109.95
 21
26.56100501781271
  0
LINE
  5
121
100
AcDbEntity
  8
noname
  6
ByLayer
 62
  256
370
   -1
100
AcDbLine
 10
109.95
 20
45.56100501781271
 11
109.95
 21
26.56100501781271
  0
LINE
  5
122
100
AcDbEntity
  8
noname
  6
ByLayer
 62
  256
370
   -1
100
AcDbLine
 10
86.19999999999997
 20
45.56100501781271
 11
86.19999999999997
 21
26.56100501781271
  0
LINE
  5
123
100
AcDbEntity
  8
noname
  6
ByLayer
 62
  256
370
   -1
100
AcDbLine
 10
86.19999999999997
 20
45.56100501781271
 11
109.95
 21
45.56100501781271
  0
LINE
  5
124
100
AcDbEntity
  8
noname
  6
ByLayer
 62
  256
370
   -1
100
AcDbLine
 10
94.74999999999999
 20
-12.57899498218729
 11
113.75
 21
-12.57899498218729
  0
LINE
  5
125
100
AcDbEntity
  8
noname
  6
ByLayer
 62
  256
370
   -1
100
AcDbLine
 10
113.75
 20
-12.57899498218729
 11
113.75
 21
-31.57899498218728
  0
LINE
  5
126
100
AcDbEntity
  8
noname
  6
ByLayer
 62
  256
370
   -1
100
AcDbLine
 10
94.74999999999999
 20
-12.57899498218729
 11
94.74999999999999
 21
-31.57899498218728
  0
LINE
  5
127
100
AcDbEntity
  8
noname
  6
ByLayer
 62
  256
370
   -1
100
AcDbLine
 10
94.74999999999999
 20
-31.57899498218728
 11
113.75
 21
-31.57899498218728
  0
LINE
  5
128
100
AcDbEntity
  8
noname
  6
ByLayer
 62
  256
370
   -1
100
AcDbLine
 10
16.02913141808324
 20
10.76067527016453
 11
18.46020591808324
 21
-3.026633229835467
  0
LINE
  5
129
100
AcDbEntity
  8
noname
  6
ByLayer
 62
  256
370
   -1
100
AcDbLine
 10
26.32920603426856
 20
34.40852844737764
 11
29.19440098191673
 21
18.15920056546089
  0
LINE
  5
12A
100
AcDbEntity
  8
noname
  6
ByLayer
 62
  256
370
   -1
100
AcDbLine
 10
7.617858770435046
 20
31.10921305208128
 11
10.48305371808324
 21
14.85988517016454
  0
LINE
  5
12B
100
AcDbEntity
  8
noname
  6
ByLayer
 62
  256
370
   -1
100
AcDbLine
 10
7.617858770435046
 20
31.10921305208128
 11
26.32920603426856
 21
34.40852844737764
  0
LINE
  5
12C
100
AcDbEntity
  8
placement
  6
ByLayer
 62
  256
370
   -1
100
AcDbLine
 10
10.51399859999998
 20
29.08131411781271
 11
26.73238159999998
 21
17.72508011781271
  0
LINE
  5
12D
100
AcDbEntity
  8
placement
  6
ByLayer
 62
  256
370
   -1
100
AcDbLine
 10
29.22534589999999
 20
32.38062951781271
 11
45.4437289
 21
21.02439551781271
  0
LINE
  5
12E
100
AcDbEntity
  8
placement
  6
ByLayer
 62
  256
370
   -1
100
AcDbLine
 10
47.93669319999999
 20
35.67994491781271
 11
64.1550762
 21
24.32371091781271
  0
LINE
  5
12F
100
AcDbEntity
  8
placement
  6
ByLayer
 62
  256
370
   -1
100
AcDbLine
 10
37.2024981
 20
14.49411101781271
 11
53.4208811
 21
3.137877017812714
  0
LINE
  5
130
100
AcDbEntity
  8
placement
  6
ByLayer
 62
  256
370
   -1
100
AcDbLine
 10
18.49115079999999
 20
11.19479571781271
 11
34.70953379999999
 21
-0.1614382821872873
  0
LINE
  5
131
100
AcDbEntity
  8
placement
  6
ByLayer
 62
  256
370
   -1
100
AcDbLine
 10
55.91384539999999
 20
17.79342641781271
 11
72.1322284
 21
6.437192417812714
  0
LINE
  5
132
100
AcDbEntity
  8
placement
  6
ByLayer
 62
  256
370
   -1
100
AcDbLine
 10
74.6251927
 20
21.09274181781271
 11
90.8435757
 21
9.736507817812715
  0
LINE
  5
133
100
AcDbEntity
  8
placement
  6
ByLayer
 62
  256
370
   -1
100
AcDbLine
 10
66.64804050000001
 20
38.97926021781271
 11
82.8664235
 21
27.62302621781271
  0
LINE
  5
134
100
AcDbEntity
  8
placement
  6
ByLayer
 62
  256
370
   -1
100
AcDbLine
 10
12.43479249999999
 20
-9.166209282187289
 11
28.65317549999999
 21
-20.52244328218729
  0
LINE
  5
135
100
AcDbEntity
  8
placement
  6
ByLayer
 62
  256
370
   -1
100
AcDbLine
 10
25.08978159999999
 20
-26.22789898218728
 11
41.3081646
 21
-37.58413298218728
  0
LINE
  5
136
100
AcDbEntity
  8
placement
  6
ByLayer
 62
  256
370
   -1
100
AcDbLine
 10
31.14613979999997
 20
-5.866893982187285
 11
47.36452279999997
 21
-17.22312798218728
  0
LINE
  5
137
100
AcDbEntity
  8
placement
  6
ByLayer
 62
  256
370
   -1
100
AcDbLine
 10
49.85748709999996
 20
-2.56757858218729
 11
66.07587009999997
 21
-13.92381258218729
  0
LINE
  5
138
100
AcDbEntity
  8
placement
  6
ByLayer
 62
  256
370
   -1
100
AcDbLine
 10
68.56883449999999
 20
0.7317368178127097
 11
84.7872175
 21
-10.62449718218729
  0
LINE
  5
139
100
AcDbEntity
  8
placement
  6
ByLayer
 62
  256
370
   -1
100
AcDbLine
 10
53.15680249999998
 20
-21.27892588218728
 11
69.37518549999999
 21
-32.63515988218727
  0
LINE
  5
13A
100
AcDbEntity
  8
placement
  6
ByLayer
 62
  256
370
   -1
100
AcDbLine
 10
91.07499999999997
 20
43.06100501781271
 11
105.075
 21
29.06100501781271
  0
LINE
  5
13B
100
AcDbEntity
  8
placement
  6
ByLayer
 62
  256
370
   -1
100
AcDbLine
 10
96.3
 20
23.68100501781271
 11
110.3
 21
9.681005017812712
  0
LINE
  5
13C
100
AcDbEntity
  8
placement
  6
ByLayer
 62
  256
370
   -1
100
AcDbLine
 10
94.87499999999999
 20
4.301005017812713
 11
108.875
 21
-9.698994982187287
  0
LINE
  5
13D
100
AcDbEntity
  8
placement
  6
ByLayer
 62
  256
370
   -1
100
AcDbLine
 10
97.24999999999999
 20
-15.07899498218729
 11
111.25
 21
-29.07899498218729
  0
LINE
  5
13E
100
AcDbEntity
  8
noname
  6
ByLayer
 62
  256
370
   -1
100
AcDbLine
 10
15.29998744764816
 20
-25.41553716410404
 11
29.08729594764817
 21
-22.98446266410403
  0
LINE
  5
13F
100
AcDbEntity
  8
noname
  6
ByLayer
 62
  256
370
   -1
100
AcDbLine
 10
12.00067205235181
 20
-6.704189900270537
 11
25.78798055235182
 21
-4.273115400270536
  0
LINE
  5
140
100
AcDbEntity
  8
noname
  6
ByLayer
 62
  256
370
   -1
100
AcDbLine
 10
16.13728348610622
 20
-44.56100501781271
 11
41.74228504764817
 21
-40.04615236410404
  0
LINE
  5
141
100
AcDbEntity
  8
noname
  6
ByLayer
 62
  256
370
   -1
100
AcDbLine
 10
9.972773118083234
 20
-9.600329729835465
 11
16.13728348610622
 21
-44.56100501781271
  0
LINE
  5
142
100
AcDbEntity
  8
pcb
  6
ByLayer
 62
  256
370
   -1
100
AcDbLine
 10
117.125
 20
41.56100501781271
 11
117.125
 21
-41.56100501781273
  0
ARC
  5
143
100
AcDbEntity
  8
pcb
  6
ByLayer
 62
  256
370
   -1
100
AcDbCircle
 10
112.125
 20
-41.56100501781272
 40
5
100
AcDbArc
 50
270
 51
359.9999999999999
  0
LINE
  5
144
100
AcDbEntity
  8
pcb
  6
ByLayer
 62
  256
370
   -1
100
AcDbLine
 10
-112.125
 20
-46.56100501781272
 11
112.125
 21
-46.56100501781271
  0
LINE
  5
145
100
AcDbEntity
  8
pcb
  6
ByLayer
 62
  256
370
   -1
100
AcDbLine
 10
-112.125
 20
46.56100501781271
 11
112.125
 21
46.56100501781271
  0
LINE
  5
146
100
AcDbEntity
  8
noname
  6
ByLayer
 62
  256
370
   -1
100
AcDbLine
 10
-10.84501097043508
 20
13.22269465208128
 11
-13.71020591808326
 21
-3.026633229835466
  0
LINE
  5
147
100
AcDbEntity
  8
noname
  6
ByLayer
 62
  256
370
   -1
100
AcDbLine
 10
-27.09433885235183
 20
16.08788959972946
 11
-10.84501097043508
 21
13.22269465208128
  0
LINE
  5
148
100
AcDbEntity
  8
rpi
  6
ByLayer
 62
  256
370
   -1
100
AcDbLine
 10
-11.30283685000002
 20
14.54104980104941
 11
6.69716314999998
 21
14.54104980104941
  0
LINE
  5
149
100
AcDbEntity
  8
rpi
  6
ByLayer
 62
  256
370
   -1
100
AcDbLine
 10
6.69716314999998
 20
14.54104980104941
 11
6.69716314999998
 21
39.54104980104941
  0
LINE
  5
14A
100
AcDbEntity
  8
rpi
  6
ByLayer
 62
  256
370
   -1
100
AcDbLine
 10
-11.30283685000002
 20
14.54104980104941
 11
-11.30283685000002
 21
39.54104980104941
  0
LINE
  5
14B
100
AcDbEntity
  8
rpi
  6
ByLayer
 62
  256
370
   -1
100
AcDbLine
 10
-11.30283685000002
 20
39.54104980104941
 11
6.69716314999998
 21
39.54104980104941
  0
CIRCLE
  5
14C
100
AcDbEntity
  8
percage
  6
ByLayer
 62
  256
370
   -1
100
AcDbCircle
 10
0
 20
0
 40
1.1
  0
LINE
  5
14D
100
AcDbEntity
  8
noname
  6
ByLayer
 62
  256
370
   -1
100
AcDbLine
 10
-111.25
 20
-31.57899498218728
 11
-97.25000000000001
 21
-31.57899498218728
  0
ARC
  5
14E
100
AcDbEntity
  8
int1
  6
ByLayer
 62
  256
370
   -1
100
AcDbCircle
 10
-111.125
 20
-28.57899498218728
 40
5
100
AcDbArc
 50
179.9999999999999
 51
270
  0
LINE
  5
14F
100
AcDbEntity
  8
int1
  6
ByLayer
 62
  256
370
   -1
100
AcDbLine
 10
-111.125
 20
-33.57899498218728
 11
-103.9582573325374
 21
-33.57899498218728
  0
ARC
  5
150
100
AcDbEntity
  8
int1
  6
ByLayer
 62
  256
370
   -1
100
AcDbCircle
 10
-27.2560357929958
 20
4.438994982187283
 40
50
100
AcDbArc
 50
259.999999918994
 51
270
  0
ARC
  5
151
100
AcDbEntity
  8
int1
  6
ByLayer
 62
  256
370
   -1
100
AcDbCircle
 10
111.125
 20
-28.57899498218728
 40
5
100
AcDbArc
 50
270
 51
1.017777498068325e-13
  0
LINE
  5
152
100
AcDbEntity
  8
int1
  6
ByLayer
 62
  256
370
   -1
100
AcDbLine
 10
111.125
 20
-33.57899498218728
 11
103.9582573325374
 21
-33.57899498218728
  0
ARC
  5
153
100
AcDbEntity
  8
int1
  6
ByLayer
 62
  256
370
   -1
100
AcDbCircle
 10
27.2560357929958
 20
4.438994982187295
 40
50
100
AcDbArc
 50
270
 51
280.000000081006
  0
LINE
  5
154
100
AcDbEntity
  8
int1
  6
ByLayer
 62
  256
370
   -1
100
AcDbLine
 10
-27.25603579299579
 20
-45.56100501781272
 11
27.25603579299579
 21
-45.5610050178127
  0
ARC
  5
155
100
AcDbEntity
  8
int1
  6
ByLayer
 62
  256
370
   -1
100
AcDbCircle
 10
-11.30283685000002
 20
39.54104980104941
 40
2
100
AcDbArc
 50
90
 51
180
  0
LINE
  5
156
100
AcDbEntity
  8
int1
  6
ByLayer
 62
  256
370
   -1
100
AcDbLine
 10
-11.30283685000002
 20
41.54104980104941
 11
6.69716314999998
 21
41.54104980104941
  0
ARC
  5
157
100
AcDbEntity
  8
int1
  6
ByLayer
 62
  256
370
   -1
100
AcDbCircle
 10
6.697163149999981
 20
39.54104980104941
 40
2
100
AcDbArc
 50
0
 51
90.00000000000003
  0
LINE
  5
158
100
AcDbEntity
  8
int1
  6
ByLayer
 62
  256
370
   -1
100
AcDbLine
 10
8.69716314999998
 20
35.71388394905681
 11
8.69716314999998
 21
39.54104980104941
  0
ARC
  5
159
100
AcDbEntity
  8
int1
  6
ByLayer
 62
  256
370
   -1
100
AcDbCircle
 10
10.69716314999998
 20
35.71388394905681
 40
2
100
AcDbArc
 50
180
 51
280.000000081006
  0
LINE
  5
15A
100
AcDbEntity
  8
int1
  6
ByLayer
 62
  256
370
   -1
100
AcDbLine
 10
-13.30283685000002
 20
37.3635416490568
 11
-13.30283685000002
 21
39.54104980104941
  0
ARC
  5
15B
100
AcDbEntity
  8
int1
  6
ByLayer
 62
  256
370
   -1
100
AcDbCircle
 10
-15.30283685000002
 20
37.3635416490568
 40
2
100
AcDbArc
 50
259.999999918994
 51
0
  0
LINE
  5
15C
100
AcDbEntity
  8
int1
  6
ByLayer
 62
  256
370
   -1
100
AcDbLine
 10
-69.00252656873802
 20
44.80139265614775
 11
-15.65013320811856
 21
35.39392614352341
  0
ARC
  5
15D
100
AcDbEntity
  8
int1
  6
ByLayer
 62
  256
370
   -1
100
AcDbCircle
 10
-77.68493552170162
 20
-4.438994982187289
 40
50
100
AcDbArc
 50
79.99999991899405
 51
90
  0
LINE
  5
15E
100
AcDbEntity
  8
int1
  6
ByLayer
 62
  256
370
   -1
100
AcDbLine
 10
11.04445950811852
 20
33.74426844352341
 11
73.75252651399255
 21
44.80139265614774
  0
ARC
  5
15F
100
AcDbEntity
  8
int1
  6
ByLayer
 62
  256
370
   -1
100
AcDbCircle
 10
82.43493546695615
 20
-4.438994982187289
 40
50
100
AcDbArc
 50
90
 51
100.000000081006
  0
ARC
  5
160
100
AcDbEntity
  8
int1
  6
ByLayer
 62
  256
370
   -1
100
AcDbCircle
 10
-82.5
 20
-23.45895019895059
 40
6.1
100
AcDbArc
 50
350.0000050018034
 51
169.999999918994
  0
CIRCLE
  5
161
100
AcDbEntity
  8
percage
  6
ByLayer
 62
  256
370
   -1
100
AcDbCircle
 10
82.49999999999999
 20
-23.45895019895064
 40
1.1
  0
ARC
  5
162
100
AcDbEntity
  8
int1
  6
ByLayer
 62
  256
370
   -1
100
AcDbCircle
 10
82.49999999999999
 20
-23.45895019895064
 40
6.1
100
AcDbArc
 50
10.00000008100597
 51
189.9999949981966
  0
ARC
  5
163
100
AcDbEntity
  8
int1
  6
ByLayer
 62
  256
370
   -1
100
AcDbCircle
 10
5.1
 20
-5.099999999999999
 40
1
100
AcDbArc
 50
270
 51
359.9999999999999
  0
LINE
  5
164
100
AcDbEntity
  8
int1
  6
ByLayer
 62
  256
370
   -1
100
AcDbLine
 10
5.1
 20
-6.099999999999998
 11
-5.1
 21
-6.100000000000001
  0
ARC
  5
165
100
AcDbEntity
  8
int1
  6
ByLayer
 62
  256
370
   -1
100
AcDbCircle
 10
-5.100000000000001
 20
-5.100000000000001
 40
1
100
AcDbArc
 50
180.0000000000001
 51
270.0000000000001
  0
LINE
  5
166
100
AcDbEntity
  8
int1
  6
ByLayer
 62
  256
370
   -1
100
AcDbLine
 10
-6.099999999999999
 20
5.1
 11
-6.100000000000001
 21
-5.100000000000003
  0
ARC
  5
167
100
AcDbEntity
  8
int1
  6
ByLayer
 62
  256
370
   -1
100
AcDbCircle
 10
-5.099999999999999
 20
5.100000000000001
 40
1
100
AcDbArc
 50
90.00000000000006
 51
180.0000000000001
  0
LINE
  5
168
100
AcDbEntity
  8
int1
  6
ByLayer
 62
  256
370
   -1
100
AcDbLine
 10
5.1
 20
6.099999999999999
 11
-5.1
 21
6.100000000000001
  0
LINE
  5
169
100
AcDbEntity
  8
int1
  6
ByLayer
 62
  256
370
   -1
100
AcDbLine
 10
6.1
 20
5.1
 11
6.1
 21
-5.1
  0
ARC
  5
16A
100
AcDbEntity
  8
int1
  6
ByLayer
 62
  256
370
   -1
100
AcDbCircle
 10
5.1
 20
5.099999999999998
 40
1
100
AcDbArc
 50
1.017777498068325e-13
 51
90
  0
LINE
  5
16B
100
AcDbEntity
  8
ext1
  6
ByLayer
 62
  256
370
   -1
100
AcDbLine
 10
-112.125
 20
47.56100501781271
 11
112.125
 21
47.56100501781271
  0
LINE
  5
16C
100
AcDbEntity
  8
ext1
  6
ByLayer
 62
  256
370
   -1
100
AcDbLine
 10
-112.125
 20
-47.56100501781272
 11
112.125
 21
-47.56100501781271
  0
ARC
  5
16D
100
AcDbEntity
  8
ext1
  6
ByLayer
 62
  256
370
   -1
100
AcDbCircle
 10
112.125
 20
-41.56100501781272
 40
6
100
AcDbArc
 50
270
 51
359.9999999999999
  0
ARC
  5
16E
100
AcDbEntity
  8
ext1
  6
ByLayer
 62
  256
370
   -1
100
AcDbCircle
 10
-112.125
 20
-41.56100501781272
 40
6
100
AcDbArc
 50
180.0000000000001
 51
270
  0
LINE
  5
16F
100
AcDbEntity
  8
ext1
  6
ByLayer
 62
  256
370
   -1
100
AcDbLine
 10
-118.125
 20
41.56100501781271
 11
-118.125
 21
-41.56100501781273
  0
ARC
  5
170
100
AcDbEntity
  8
ext1
  6
ByLayer
 62
  256
370
   -1
100
AcDbCircle
 10
-112.125
 20
41.56100501781271
 40
6
100
AcDbArc
 50
90
 51
180
  0
ARC
  5
171
100
AcDbEntity
  8
ext1
  6
ByLayer
 62
  256
370
   -1
100
AcDbCircle
 10
112.125
 20
41.56100501781271
 40
6
100
AcDbArc
 50
0
 51
90
  0
LINE
  5
172
100
AcDbEntity
  8
ext1
  6
ByLayer
 62
  256
370
   -1
100
AcDbLine
 10
118.125
 20
41.56100501781271
 11
118.125
 21
-41.56100501781273
  0
LINE
  5
173
100
AcDbEntity
  8
ext2
  6
ByLayer
 62
  256
370
   -1
100
AcDbLine
 10
-112.125
 20
51.56100501781271
 11
112.125
 21
51.56100501781271
  0
LINE
  5
174
100
AcDbEntity
  8
ext2
  6
ByLayer
 62
  256
370
   -1
100
AcDbLine
 10
-112.125
 20
-51.56100501781272
 11
112.125
 21
-51.56100501781271
  0
ARC
  5
175
100
AcDbEntity
  8
ext2
  6
ByLayer
 62
  256
370
   -1
100
AcDbCircle
 10
112.125
 20
41.56100501781271
 40
10
100
AcDbArc
 50
0
 51
90
  0
ARC
  5
176
100
AcDbEntity
  8
ext2
  6
ByLayer
 62
  256
370
   -1
100
AcDbCircle
 10
-112.125
 20
41.56100501781271
 40
10
100
AcDbArc
 50
90
 51
180
  0
ARC
  5
177
100
AcDbEntity
  8
ext2
  6
ByLayer
 62
  256
370
   -1
100
AcDbCircle
 10
-112.125
 20
-41.56100501781272
 40
10
100
AcDbArc
 50
180.0000000000001
 51
270
  0
LINE
  5
178
100
AcDbEntity
  8
ext2
  6
ByLayer
 62
  256
370
   -1
100
AcDbLine
 10
-122.125
 20
41.56100501781271
 11
-122.125
 21
-41.56100501781273
  0
LINE
  5
179
100
AcDbEntity
  8
ext2
  6
ByLayer
 62
  256
370
   -1
100
AcDbLine
 10
122.125
 20
41.56100501781271
 11
122.125
 21
-41.56100501781273
  0
ARC
  5
17A
100
AcDbEntity
  8
ext2
  6
ByLayer
 62
  256
370
   -1
100
AcDbCircle
 10
112.125
 20
-41.56100501781272
 40
10
100
AcDbArc
 50
270
 51
359.9999999999999
  0
LINE
  5
17B
100
AcDbEntity
  8
ext3
  6
ByLayer
 62
  256
370
   -1
100
AcDbLine
 10
-112.125
 20
52.56100501781271
 11
112.125
 21
52.56100501781271
  0
ARC
  5
17C
100
AcDbEntity
  8
ext3
  6
ByLayer
 62
  256
370
   -1
100
AcDbCircle
 10
112.125
 20
41.56100501781271
 40
11
100
AcDbArc
 50
0
 51
90
  0
LINE
  5
17D
100
AcDbEntity
  8
ext3
  6
ByLayer
 62
  256
370
   -1
100
AcDbLine
 10
123.125
 20
41.56100501781271
 11
123.125
 21
-41.56100501781273
  0
ARC
  5
17E
100
AcDbEntity
  8
ext3
  6
ByLayer
 62
  256
370
   -1
100
AcDbCircle
 10
112.125
 20
-41.56100501781272
 40
11
100
AcDbArc
 50
270
 51
359.9999999999999
  0
LINE
  5
17F
100
AcDbEntity
  8
ext3
  6
ByLayer
 62
  256
370
   -1
100
AcDbLine
 10
-112.125
 20
-52.56100501781272
 11
112.125
 21
-52.56100501781271
  0
ARC
  5
180
100
AcDbEntity
  8
ext3
  6
ByLayer
 62
  256
370
   -1
100
AcDbCircle
 10
-112.125
 20
-41.56100501781272
 40
11
100
AcDbArc
 50
180.0000000000001
 51
270
  0
LINE
  5
181
100
AcDbEntity
  8
ext3
  6
ByLayer
 62
  256
370
   -1
100
AcDbLine
 10
-123.125
 20
41.56100501781271
 11
-123.125
 21
-41.56100501781273
  0
ARC
  5
182
100
AcDbEntity
  8
ext3
  6
ByLayer
 62
  256
370
   -1
100
AcDbCircle
 10
-112.125
 20
41.56100501781271
 40
11
100
AcDbArc
 50
90
 51
180
  0
LINE
  5
183
100
AcDbEntity
  8
placement
  6
ByLayer
 62
  256
370
   -1
100
AcDbLine
 10
-11.30283685000002
 20
39.54104980104941
 11
6.697163149999981
 21
14.54104980104941
  0
ARC
  5
184
100
AcDbEntity
  8
int1
  6
ByLayer
 62
  256
370
   -1
100
AcDbCircle
 10
111.025
 20
40.46100501781271
 40
3
100
AcDbArc
 50
180
 51
270
  0
LINE
  5
185
100
AcDbEntity
  8
int1
  6
ByLayer
 62
  256
370
   -1
100
AcDbLine
 10
113.125
 20
37.46100501781271
 11
111.025
 21
37.46100501781271
  0
LINE
  5
186
100
AcDbEntity
  8
int1
  6
ByLayer
 62
  256
370
   -1
100
AcDbLine
 10
116.125
 20
34.46100501781271
 11
116.125
 21
-28.57899498218728
  0
ARC
  5
187
100
AcDbEntity
  8
int1
  6
ByLayer
 62
  256
370
   -1
100
AcDbCircle
 10
113.125
 20
34.46100501781271
 40
3
100
AcDbArc
 50
0
 51
90
  0
LINE
  5
188
100
AcDbEntity
  8
int1
  6
ByLayer
 62
  256
370
   -1
100
AcDbLine
 10
82.43493546695615
 20
45.56100501781271
 11
105.025
 21
45.56100501781271
  0
LINE
  5
189
100
AcDbEntity
  8
int1
  6
ByLayer
 62
  256
370
   -1
100
AcDbLine
 10
108.025
 20
42.56100501781271
 11
108.025
 21
40.46100501781271
  0
ARC
  5
18A
100
AcDbEntity
  8
int1
  6
ByLayer
 62
  256
370
   -1
100
AcDbCircle
 10
105.025
 20
42.56100501781271
 40
3
100
AcDbArc
 50
0
 51
90
  0
LINE
  5
18B
100
AcDbEntity
  8
int1
  6
ByLayer
 62
  256
370
   -1
100
AcDbLine
 10
-116.125
 20
34.4610050178127
 11
-116.125
 21
-28.57899498218728
  0
ARC
  5
18C
100
AcDbEntity
  8
int1
  6
ByLayer
 62
  256
370
   -1
100
AcDbCircle
 10
-113.125
 20
34.4610050178127
 40
3
100
AcDbArc
 50
90
 51
180
  0
LINE
  5
18D
100
AcDbEntity
  8
int1
  6
ByLayer
 62
  256
370
   -1
100
AcDbLine
 10
-113.125
 20
37.4610050178127
 11
-111.025
 21
37.4610050178127
  0
ARC
  5
18E
100
AcDbEntity
  8
int1
  6
ByLayer
 62
  256
370
   -1
100
AcDbCircle
 10
-111.025
 20
40.4610050178127
 40
3
100
AcDbArc
 50
270
 51
0
  0
LINE
  5
18F
100
AcDbEntity
  8
int1
  6
ByLayer
 62
  256
370
   -1
100
AcDbLine
 10
-108.025
 20
42.56100501781273
 11
-108.025
 21
40.4610050178127
  0
LINE
  5
190
100
AcDbEntity
  8
int1
  6
ByLayer
 62
  256
370
   -1
100
AcDbLine
 10
-105.025
 20
45.56100501781273
 11
-77.68493552170162
 21
45.56100501781271
  0
ARC
  5
191
100
AcDbEntity
  8
int1
  6
ByLayer
 62
  256
370
   -1
100
AcDbCircle
 10
-105.025
 20
42.56100501781273
 40
3
100
AcDbArc
 50
90
 51
180
  0
LINE
  5
192
100
AcDbEntity
  8
int1
  6
ByLayer
 62
  256
370
   -1
100
AcDbLine
 10
-73.81440387944274
 20
-38.12283908548867
 11
-35.93844474595941
 21
-44.80139265614775
  0
LINE
  5
193
100
AcDbEntity
  8
int1
  6
ByLayer
 62
  256
370
   -1
100
AcDbLine
 10
-77.87020174797989
 20
-32.3305594263588
 11
-76.49267270812312
 21
-24.51820409121215
  0
ARC
  5
194
100
AcDbEntity
  8
int1
  6
ByLayer
 62
  256
370
   -1
100
AcDbCircle
 10
-72.94616298414637
 20
-33.19880032165517
 40
5
100
AcDbArc
 50
169.999999918994
 51
259.999999918994
  0
LINE
  5
195
100
AcDbEntity
  8
int1
  6
ByLayer
 62
  256
370
   -1
100
AcDbLine
 10
-89.88511844686626
 20
-30.21353817060967
 11
-88.50732729187688
 21
-22.39969630668903
  0
ARC
  5
196
100
AcDbEntity
  8
int1
  6
ByLayer
 62
  256
370
   -1
100
AcDbCircle
 10
-103.9582573325374
 20
-83.57899498218728
 40
50
100
AcDbArc
 50
80.42449064777395
 51
90
  0
ARC
  5
197
100
AcDbEntity
  8
int1
  6
ByLayer
 62
  256
370
   -1
100
AcDbCircle
 10
-94.80915721069978
 20
-29.3452972753133
 40
5
100
AcDbArc
 50
260.424490647774
 51
349.999999918994
  0
LINE
  5
198
100
AcDbEntity
  8
int1
  6
ByLayer
 62
  256
370
   -1
100
AcDbLine
 10
89.88511844686623
 20
-30.21353817060966
 11
88.50732729187686
 21
-22.39969630668908
  0
ARC
  5
199
100
AcDbEntity
  8
int1
  6
ByLayer
 62
  256
370
   -1
100
AcDbCircle
 10
103.9582573325373
 20
-83.57899498218734
 40
50
100
AcDbArc
 50
89.99999999999997
 51
99.57550935222602
  0
ARC
  5
19A
100
AcDbEntity
  8
int1
  6
ByLayer
 62
  256
370
   -1
100
AcDbCircle
 10
94.80915721069974
 20
-29.3452972753133
 40
5
100
AcDbArc
 50
190.000000081006
 51
279.5755093522262
  0
LINE
  5
19B
100
AcDbEntity
  8
int1
  6
ByLayer
 62
  256
370
   -1
100
AcDbLine
 10
73.81440387944271
 20
-38.12283908548872
 11
35.93844474595938
 21
-44.80139265614778
  0
LINE
  5
19C
100
AcDbEntity
  8
int1
  6
ByLayer
 62
  256
370
   -1
100
AcDbLine
 10
77.87020174797986
 20
-32.33055942635886
 11
76.49267270812311
 21
-24.5182040912122
  0
ARC
  5
19D
100
AcDbEntity
  8
int1
  6
ByLayer
 62
  256
370
   -1
100
AcDbCircle
 10
72.94616298414635
 20
-33.19880032165521
 40
5
100
AcDbArc
 50
280.0000000810059
 51
10.00000008100587
  0
CIRCLE
  5
19E
100
AcDbEntity
  8
percage
  6
ByLayer
 62
  256
370
   -1
100
AcDbCircle
 10
112.125
 20
41.56100501781271
 40
1.1
  0
CIRCLE
  5
19F
100
AcDbEntity
  8
percage
  6
ByLayer
 62
  256
370
   -1
100
AcDbCircle
 10
-112.125
 20
41.56100501781271
 40
1.1
  0
LINE
  5
1A0
100
AcDbEntity
  8
placement
  6
ByLayer
 62
  256
370
   -1
100
AcDbLine
 10
-66.87194790000001
 20
-18.02302258218728
 11
-55.51571390000002
 21
-34.24140558218728
  0
LINE
  5
1A1
100
AcDbEntity
  8
placement
  6
ByLayer
 62
  256
370
   -1
100
AcDbLine
 10
-107.45
 20
27.56100501781271
 11
-93.45000000000002
 21
27.56100501781271
  0
LINE
  5
1A2
100
AcDbEntity
  8
placement
  6
ByLayer
 62
  256
370
   -1
100
AcDbLine
 10
-107.925
 20
8.181005017812716
 11
-93.92500000000001
 21
8.181005017812716
  0
LINE
  5
1A3
100
AcDbEntity
  8
placement
  6
ByLayer
 62
  256
370
   -1
100
AcDbLine
 10
-86.51823432915006
 20
43.32046468640163
 11
-88.94930882915006
 21
29.53315618640162
  0
LINE
  5
1A4
100
AcDbEntity
  8
placement
  6
ByLayer
 62
  256
370
   -1
100
AcDbLine
 10
-67.80688702915006
 20
40.02114938640162
 11
-70.23796152915006
 21
26.23384088640162
  0
LINE
  5
1A5
100
AcDbEntity
  8
placement
  6
ByLayer
 62
  256
370
   -1
100
AcDbLine
 10
-49.09553972915005
 20
36.72183398640162
 11
-51.52661422915006
 21
22.93452548640162
  0
LINE
  5
1A6
100
AcDbEntity
  8
placement
  6
ByLayer
 62
  256
370
   -1
100
AcDbLine
 10
-30.38419242915006
 20
33.42251858640162
 11
-32.81526692915006
 21
19.63521008640162
  0
LINE
  5
1A7
100
AcDbEntity
  8
placement
  6
ByLayer
 62
  256
370
   -1
100
AcDbLine
 10
-85.13971282915006
 20
23.78428858640162
 11
-87.57078732915006
 21
9.996980086401624
  0
LINE
  5
1A8
100
AcDbEntity
  8
placement
  6
ByLayer
 62
  256
370
   -1
100
AcDbLine
 10
-66.42836552915006
 20
20.48497318640162
 11
-68.85944002915006
 21
6.69766468640162
  0
LINE
  5
1A9
100
AcDbEntity
  8
placement
  6
ByLayer
 62
  256
370
   -1
100
AcDbLine
 10
-47.71701822915006
 20
17.18565778640162
 11
-50.14809272915006
 21
3.398349286401623
  0
LINE
  5
1AA
100
AcDbEntity
  8
placement
  6
ByLayer
 62
  256
370
   -1
100
AcDbLine
 10
-29.00567092915006
 20
13.88634248640162
 11
-31.43674542915007
 21
0.09903398640161917
  0
LINE
  5
1AB
100
AcDbEntity
  8
placement
  6
ByLayer
 62
  256
370
   -1
100
AcDbLine
 10
-106.5
 20
-11.19899498218729
 11
-92.50000000000001
 21
-11.19899498218729
  0
LINE
  5
1AC
100
AcDbEntity
  8
placement
  6
ByLayer
 62
  256
370
   -1
100
AcDbLine
 10
-79.08335462915007
 20
3.423283586401618
 11
-81.51442912915006
 21
-10.36402491359838
  0
LINE
  5
1AD
100
AcDbEntity
  8
placement
  6
ByLayer
 62
  256
370
   -1
100
AcDbLine
 10
-60.37200722915007
 20
0.1239681864016207
 11
-62.80308172915007
 21
-13.66334031359838
  0
LINE
  5
1AE
100
AcDbEntity
  8
placement
  6
ByLayer
 62
  256
370
   -1
100
AcDbLine
 10
-41.66065992915006
 20
-3.175347213598374
 11
-44.09173442915007
 21
-16.96265571359838
  0
LINE
  5
1AF
100
AcDbEntity
  8
placement
  6
ByLayer
 62
  256
370
   -1
100
AcDbLine
 10
-22.94931262915006
 20
-6.474662513598375
 11
-25.38038712915007
 21
-20.26197101359837
  0
LINE
  5
1B0
100
AcDbEntity
  8
placement
  6
ByLayer
 62
  256
370
   -1
100
AcDbLine
 10
-95.75000000000001
 20
-15.07899498218729
 11
-95.75000000000001
 21
-29.07899498218728
  0
LINE
  5
1B1
100
AcDbEntity
  8
placement
  6
ByLayer
 62
  256
370
   -1
100
AcDbLine
 10
-68.34915952915006
 20
-17.76255031359837
 11
-70.78023402915007
 21
-31.54985881359838
  0
LINE
  5
1B2
100
AcDbEntity
  8
placement
  6
ByLayer
 62
  256
370
   -1
100
AcDbLine
 10
-39.15755526858892
 20
-38.64893011133734
 11
-25.37024676858892
 21
-41.08000461133733
  0
LINE
  5
1B3
100
AcDbEntity
  8
placement
  6
ByLayer
 62
  256
370
   -1
100
AcDbLine
 10
27.7813283685889
 20
-41.49241911133734
 11
41.56863686858889
 21
-39.06134461133733
  0
LINE
  5
1B4
100
AcDbEntity
  8
placement
  6
ByLayer
 62
  256
370
   -1
100
AcDbLine
 10
27.69931262915004
 20
-6.47466251359838
 11
30.13038712915004
 21
-20.26197101359837
  0
LINE
  5
1B5
100
AcDbEntity
  8
placement
  6
ByLayer
 62
  256
370
   -1
100
AcDbLine
 10
33.75567092915004
 20
13.88634248640162
 11
36.18674542915004
 21
0.09903398640161823
  0
LINE
  5
1B6
100
AcDbEntity
  8
placement
  6
ByLayer
 62
  256
370
   -1
100
AcDbLine
 10
25.77851872915004
 20
31.77286088640162
 11
28.20959322915003
 21
17.98555238640162
  0
LINE
  5
1B7
100
AcDbEntity
  8
placement
  6
ByLayer
 62
  256
370
   -1
100
AcDbLine
 10
44.48986602915004
 20
35.07217628640163
 11
46.92094052915003
 21
21.28486778640162
  0
LINE
  5
1B8
100
AcDbEntity
  8
placement
  6
ByLayer
 62
  256
370
   -1
100
AcDbLine
 10
52.46701822915004
 20
17.18565778640162
 11
54.89809272915004
 21
3.398349286401622
  0
LINE
  5
1B9
100
AcDbEntity
  8
placement
  6
ByLayer
 62
  256
370
   -1
100
AcDbLine
 10
46.41065992915004
 20
-3.175347213598375
 11
48.84173442915004
 21
-16.96265571359838
  0
LINE
  5
1BA
100
AcDbEntity
  8
placement
  6
ByLayer
 62
  256
370
   -1
100
AcDbLine
 10
68.42132262915003
 20
-18.58737911359838
 11
70.85239712915002
 21
-32.37468761359838
  0
LINE
  5
1BB
100
AcDbEntity
  8
placement
  6
ByLayer
 62
  256
370
   -1
100
AcDbLine
 10
65.12200722915004
 20
0.1239681864016223
 11
67.55308172915004
 21
-13.66334031359838
  0
LINE
  5
1BC
100
AcDbEntity
  8
placement
  6
ByLayer
 62
  256
370
   -1
100
AcDbLine
 10
71.17836552915004
 20
20.48497318640162
 11
73.60944002915004
 21
6.697664686401618
  0
LINE
  5
1BD
100
AcDbEntity
  8
placement
  6
ByLayer
 62
  256
370
   -1
100
AcDbLine
 10
63.20121332915004
 20
38.37149168640162
 11
65.63228782915003
 21
24.58418318640162
  0
LINE
  5
1BE
100
AcDbEntity
  8
placement
  6
ByLayer
 62
  256
370
   -1
100
AcDbLine
 10
81.91256062915004
 20
41.67080698640162
 11
84.34363512915003
 21
27.88349848640162
  0
LINE
  5
1BF
100
AcDbEntity
  8
placement
  6
ByLayer
 62
  256
370
   -1
100
AcDbLine
 10
89.88971282915004
 20
23.78428858640162
 11
92.32078732915004
 21
9.996980086401623
  0
LINE
  5
1C0
100
AcDbEntity
  8
placement
  6
ByLayer
 62
  256
370
   -1
100
AcDbLine
 10
83.83335462915004
 20
3.423283586401618
 11
86.26442912915003
 21
-10.36402491359838
  0
LINE
  5
1C1
100
AcDbEntity
  8
placement
  6
ByLayer
 62
  256
370
   -1
100
AcDbLine
 10
95.74999999999999
 20
-15.07899498218729
 11
95.74999999999999
 21
-29.07899498218728
  0
LINE
  5
1C2
100
AcDbEntity
  8
placement
  6
ByLayer
 62
  256
370
   -1
100
AcDbLine
 10
94.87499999999999
 20
-11.19899498218729
 11
108.875
 21
-11.19899498218729
  0
LINE
  5
1C3
100
AcDbEntity
  8
placement
  6
ByLayer
 62
  256
370
   -1
100
AcDbLine
 10
96.3
 20
8.181005017812716
 11
110.3
 21
8.181005017812716
  0
LINE
  5
1C4
100
AcDbEntity
  8
placement
  6
ByLayer
 62
  256
370
   -1
100
AcDbLine
 10
91.07499999999997
 20
27.56100501781271
 11
105.075
 21
27.56100501781271
  0
ARC
  5
1C5
100
AcDbEntity
  8
ajour
  6
ByLayer
 62
  256
370
   -1
100
AcDbCircle
 10
-28.1
 20
15.24978811625211
 40
10
100
AcDbArc
 50
0
 51
79.99999991899401
  0
LINE
  5
1C6
100
AcDbEntity
  8
ajour
  6
ByLayer
 62
  256
370
   -1
100
AcDbLine
 10
-18.10000000000001
 20
-23.84413649602414
 11
-18.09999999999999
 21
15.24978811625211
  0
ARC
  5
1C7
100
AcDbEntity
  8
ajour
  6
ByLayer
 62
  256
370
   -1
100
AcDbCircle
 10
-28.10000000000001
 20
-23.84413649602413
 40
10
100
AcDbArc
 50
259.999999918994
 51
359.9999999999999
  0
LINE
  5
1C8
100
AcDbEntity
  8
ajour
  6
ByLayer
 62
  256
370
   -1
100
AcDbLine
 10
-56.46911907706814
 20
-28.99616146383876
 11
-29.83648179059273
 21
-33.69221402369114
  0
ARC
  5
1C9
100
AcDbEntity
  8
ajour
  6
ByLayer
 62
  256
370
   -1
100
AcDbCircle
 10
-54.73263728647542
 20
-19.14808393617175
 40
10
100
AcDbArc
 50
188.8246864957374
 51
259.999999918994
  0
ARC
  5
1CA
100
AcDbEntity
  8
ajour
  6
ByLayer
 62
  256
370
   -1
100
AcDbCircle
 10
-82.5
 20
-23.45895019895059
 40
18.1
100
AcDbArc
 50
8.824686495737478
 51
114.4375431255306
  0
ARC
  5
1CB
100
AcDbEntity
  8
ajour
  6
ByLayer
 62
  256
370
   -1
100
AcDbCircle
 10
-94.125
 20
2.123648867602476
 40
10
100
AcDbArc
 50
180
 51
294.4375431255305
  0
LINE
  5
1CC
100
AcDbEntity
  8
ajour
  6
ByLayer
 62
  256
370
   -1
100
AcDbLine
 10
-104.125
 20
23.56100501781272
 11
-104.125
 21
2.123648867602476
  0
ARC
  5
1CD
100
AcDbEntity
  8
ajour
  6
ByLayer
 62
  256
370
   -1
100
AcDbCircle
 10
-94.125
 20
23.56100501781272
 40
10
100
AcDbArc
 50
90
 51
180
  0
LINE
  5
1CE
100
AcDbEntity
  8
ajour
  6
ByLayer
 62
  256
370
   -1
100
AcDbLine
 10
-65.74441479854571
 20
32.04178029448279
 11
-26.36351820940727
 21
25.09786564391911
  0
LINE
  5
1CF
100
AcDbEntity
  8
ajour
  6
ByLayer
 62
  256
370
   -1
100
AcDbLine
 10
-94.125
 20
33.56100501781273
 11
-83.10923270447283
 21
33.56100501781272
  0
ARC
  5
1D0
100
AcDbEntity
  8
ajour
  6
ByLayer
 62
  256
370
   -1
100
AcDbCircle
 10
-83.1092327044729
 20
-66.43899498218728
 40
100
100
AcDbArc
 50
79.99999991899405
 51
89.99999999999996
  0
ARC
  5
1D1
100
AcDbEntity
  8
ajour
  6
ByLayer
 62
  256
370
   -1
100
AcDbCircle
 10
28.1
 20
15.24978811625211
 40
10
100
AcDbArc
 50
100.000000081006
 51
180
  0
LINE
  5
1D2
100
AcDbEntity
  8
ajour
  6
ByLayer
 62
  256
370
   -1
100
AcDbLine
 10
18.10000000000001
 20
-23.84413649602412
 11
18.09999999999999
 21
15.24978811625211
  0
ARC
  5
1D3
100
AcDbEntity
  8
ajour
  6
ByLayer
 62
  256
370
   -1
100
AcDbCircle
 10
28.10000000000001
 20
-23.84413649602412
 40
10
100
AcDbArc
 50
180.0000000000001
 51
280.000000081006
  0
LINE
  5
1D4
100
AcDbEntity
  8
ajour
  6
ByLayer
 62
  256
370
   -1
100
AcDbLine
 10
56.46911907706814
 20
-28.99616146383876
 11
29.83648179059273
 21
-33.69221402369113
  0
ARC
  5
1D5
100
AcDbEntity
  8
ajour
  6
ByLayer
 62
  256
370
   -1
100
AcDbCircle
 10
54.73263728647542
 20
-19.14808393617178
 40
10
100
AcDbArc
 50
280.000000081006
 51
351.1753135042625
  0
ARC
  5
1D6
100
AcDbEntity
  8
ajour
  6
ByLayer
 62
  256
370
   -1
100
AcDbCircle
 10
82.5
 20
-23.45895019895059
 40
18.1
100
AcDbArc
 50
65.56245687446948
 51
171.1753135042626
  0
ARC
  5
1D7
100
AcDbEntity
  8
ajour
  6
ByLayer
 62
  256
370
   -1
100
AcDbCircle
 10
94.125
 20
2.123648867602476
 40
10
100
AcDbArc
 50
245.5624568744695
 51
0
  0
LINE
  5
1D8
100
AcDbEntity
  8
ajour
  6
ByLayer
 62
  256
370
   -1
100
AcDbLine
 10
104.125
 20
23.56100501781272
 11
104.125
 21
2.123648867602476
  0
ARC
  5
1D9
100
AcDbEntity
  8
ajour
  6
ByLayer
 62
  256
370
   -1
100
AcDbCircle
 10
94.125
 20
23.56100501781272
 40
10
100
AcDbArc
 50
0
 51
90
  0
LINE
  5
1DA
100
AcDbEntity
  8
ajour
  6
ByLayer
 62
  256
370
   -1
100
AcDbLine
 10
65.74441479854571
 20
32.04178029448279
 11
26.36351820940727
 21
25.09786564391911
  0
LINE
  5
1DB
100
AcDbEntity
  8
ajour
  6
ByLayer
 62
  256
370
   -1
100
AcDbLine
 10
94.125
 20
33.56100501781273
 11
83.10923270447283
 21
33.56100501781272
  0
ARC
  5
1DC
100
AcDbEntity
  8
ajour
  6
ByLayer
 62
  256
370
   -1
100
AcDbCircle
 10
83.1092327044729
 20
-66.43899498218728
 40
100
100
AcDbArc
 50
90.00000000000006
 51
100.0000000810059
  0
ENDSEC
  0
SECTION
  2
OBJECTS
  0
DICTIONARY
  5
C
330
0
100
AcDbDictionary
281
    1
  3
ACAD_GROUP
350
D
  0
DICTIONARY
  5
D
330
C
100
AcDbDictionary
281
    1
  0
PLOTSETTINGS
  5
1DD
100
AcDbPlotSettings
  6
1x1
 40
0
 41
0
 42
0
 43
0
  0
ENDSEC
  0
EOF
