999
dxfrw 0.6.3
  0
SECTION
  2
HEADER
  9
$ACADVER
  1
AC1021
  9
$DWGCODEPAGE
  3
ANSI_1252
  9
$INSBASE
 10
0
 20
0
 30
0
  9
$EXTMIN
 10
-82.77466538780148
 20
-34.55330319315168
 30
0
  9
$EXTMAX
 10
82.77466539019329
 20
26.78181481747361
 30
0
  9
$LIMMIN
 10
0
 20
0
  9
$LIMMAX
 10
420
 20
297
  9
$ORTHOMODE
 70
    0
  9
$REGENMODE
 70
    1
  9
$FILLMODE
 70
    1
  9
$QTEXTMODE
 70
    0
  9
$MIRRTEXT
 70
    0
  9
$LTSCALE
 40
1
  9
$ATTMODE
 70
    0
  9
$TEXTSIZE
 40
2.5
  9
$TRACEWID
 40
15.68
  9
$TEXTSTYLE
  7
STANDARD
  9
$CLAYER
  8
ajour
  9
$CELTYPE
  6
BYLAYER
  9
$CECOLOR
 62
  256
  9
$CELTSCALE
 40
1
  9
$DISPSILH
 70
    0
  9
$DIMSCALE
 40
2.5
  9
$DIMASZ
 40
2.5
  9
$DIMEXO
 40
0.625
  9
$DIMDLI
 40
3.75
  9
$DIMRND
 40
0
  9
$DIMDLE
 40
0
  9
$DIMEXE
 40
1.25
  9
$DIMTP
 40
0
  9
$DIMTM
 40
0
  9
$DIMTXT
 40
2.5
  9
$DIMCEN
 40
2.5
  9
$DIMTSZ
 40
0
  9
$DIMTOL
 70
    0
  9
$DIMLIM
 70
    0
  9
$DIMTIH
 70
    0
  9
$DIMTOH
 70
    0
  9
$DIMSE1
 70
    0
  9
$DIMSE2
 70
    0
  9
$DIMTAD
 70
    1
  9
$DIMZIN
 70
    8
  9
$DIMBLK
  1

  9
$DIMASO
 70
    1
  9
$DIMSHO
 70
    1
  9
$DIMPOST
  1

  9
$DIMAPOST
  1

  9
$DIMALT
 70
    0
  9
$DIMALTD
 70
    3
  9
$DIMALTF
 40
0.03937
  9
$DIMLFAC
 40
1
  9
$DIMTOFL
 70
    1
  9
$DIMTVP
 40
0
  9
$DIMTIX
 70
    0
  9
$DIMSOXD
 70
    0
  9
$DIMSAH
 70
    0
  9
$DIMBLK1
  1

  9
$DIMBLK2
  1

  9
$DIMSTYLE
  2
Standard
  9
$DIMCLRD
 70
    0
  9
$DIMCLRE
 70
    0
  9
$DIMCLRT
 70
    0
  9
$DIMTFAC
 40
1
  9
$DIMGAP
 40
0.625
  9
$DIMJUST
 70
    0
  9
$DIMSD1
 70
    0
  9
$DIMSD2
 70
    0
  9
$DIMTOLJ
 70
    0
  9
$DIMTZIN
 70
    8
  9
$DIMALTZ
 70
    0
  9
$DIMALTTZ
 70
    0
  9
$DIMUPT
 70
    0
  9
$DIMDEC
 70
    2
  9
$DIMTDEC
 70
    2
  9
$DIMALTU
 70
    2
  9
$DIMALTTD
 70
    3
  9
$DIMTXSTY
  7
STANDARD
  9
$DIMAUNIT
 70
    0
  9
$DIMADEC
 70
    0
  9
$DIMALTRND
 40
0
  9
$DIMAZIN
 70
    0
  9
$DIMDSEP
 70
   44
  9
$DIMATFIT
 70
    3
  9
$DIMFRAC
 70
    0
  9
$DIMLDRBLK
  1
STANDARD
  9
$DIMLUNIT
 70
    2
  9
$DIMLWD
 70
   -2
  9
$DIMLWE
 70
   -2
  9
$DIMTMOVE
 70
    0
  9
$DIMFXL
 40
1
  9
$DIMFXLON
 70
    0
  9
$DIMJOGANG
 40
0.7854
  9
$DIMTFILL
 70
    0
  9
$DIMTFILLCLR
 70
    0
  9
$DIMARCSYM
 70
    0
  9
$DIMLTYPE
  6

  9
$DIMLTEX1
  6

  9
$DIMLTEX2
  6

  9
$LUNITS
 70
    2
  9
$LUPREC
 70
    4
  9
$SKETCHINC
 40
1
  9
$FILLETRAD
 40
0
  9
$AUNITS
 70
    0
  9
$AUPREC
 70
    2
  9
$MENU
  1
.
  9
$ELEVATION
 40
0
  9
$PELEVATION
 40
0
  9
$THICKNESS
 40
0
  9
$LIMCHECK
 70
    0
  9
$CHAMFERA
 40
0
  9
$CHAMFERB
 40
0
  9
$CHAMFERC
 40
0
  9
$CHAMFERD
 40
0
  9
$SKPOLY
 70
    0
  9
$USRTIMER
 70
    1
  9
$ANGBASE
 50
0
  9
$ANGDIR
 70
    0
  9
$PDMODE
 70
   34
  9
$PDSIZE
 40
0
  9
$PLINEWID
 40
0
  9
$SPLFRAME
 70
    0
  9
$SPLINETYPE
 70
    2
  9
$SPLINESEGS
 70
    8
  9
$HANDSEED
  5
20000
  9
$SURFTAB1
 70
    6
  9
$SURFTAB2
 70
    6
  9
$SURFTYPE
 70
    6
  9
$SURFU
 70
    6
  9
$SURFV
 70
    6
  9
$UCSBASE
  2

  9
$UCSNAME
  2

  9
$UCSORG
 10
0
 20
0
 30
0
  9
$UCSXDIR
 10
1
 20
0
 30
0
  9
$UCSYDIR
 10
0
 20
1
 30
0
  9
$UCSORTHOREF
  2

  9
$UCSORTHOVIEW
 70
    0
  9
$UCSORGTOP
 10
0
 20
0
 30
0
  9
$UCSORGBOTTOM
 10
0
 20
0
 30
0
  9
$UCSORGLEFT
 10
0
 20
0
 30
0
  9
$UCSORGRIGHT
 10
0
 20
0
 30
0
  9
$UCSORGFRONT
 10
0
 20
0
 30
0
  9
$UCSORGBACK
 10
0
 20
0
 30
0
  9
$PUCSBASE
  2

  9
$PUCSNAME
  2

  9
$PUCSORG
 10
0
 20
0
 30
0
  9
$PUCSXDIR
 10
1
 20
0
 30
0
  9
$PUCSYDIR
 10
0
 20
1
 30
0
  9
$PUCSORTHOREF
  2

  9
$PUCSORTHOVIEW
 70
    0
  9
$PUCSORGTOP
 10
0
 20
0
 30
0
  9
$PUCSORGBOTTOM
 10
0
 20
0
 30
0
  9
$PUCSORGLEFT
 10
0
 20
0
 30
0
  9
$PUCSORGRIGHT
 10
0
 20
0
 30
0
  9
$PUCSORGFRONT
 10
0
 20
0
 30
0
  9
$PUCSORGBACK
 10
0
 20
0
 30
0
  9
$USERI1
 70
    0
  9
$USERI2
 70
    0
  9
$USERI3
 70
    0
  9
$USERI4
 70
    0
  9
$USERI5
 70
    0
  9
$USERR1
 40
0
  9
$USERR2
 40
0
  9
$USERR3
 40
0
  9
$USERR4
 40
0
  9
$USERR5
 40
0
  9
$WORLDVIEW
 70
    1
  9
$SHADEDGE
 70
    3
  9
$SHADEDIF
 70
   70
  9
$TILEMODE
 70
    1
  9
$MAXACTVP
 70
   64
  9
$PINSBASE
 10
0
 20
0
 30
0
  9
$PLIMCHECK
 70
    0
  9
$PEXTMIN
 10
0
 20
0
 30
0
  9
$PEXTMAX
 10
0
 20
0
 30
0
  9
$GRIDMODE
 70
    1
  9
$SNAPSTYLE
 70
    0
  9
$PLIMMIN
 10
0
 20
0
  9
$PLIMMAX
 10
210
 20
297
  9
$UNITMODE
 70
    0
  9
$VISRETAIN
 70
    1
  9
$PLINEGEN
 70
    0
  9
$PSLTSCALE
 70
    1
  9
$TREEDEPTH
 70
 3020
  9
$CMLSTYLE
  2
Standard
  9
$CMLJUST
 70
    0
  9
$CMLSCALE
 40
20
  9
$PROXYGRAPHICS
 70
    1
  9
$MEASUREMENT
 70
    1
  9
$CELWEIGHT
370
   -1
  9
$ENDCAPS
280
    0
  9
$JOINSTYLE
280
    0
  9
$LWDISPLAY
290
    0
  9
$INSUNITS
 70
    4
  9
$HYPERLINKBASE
  1

  9
$STYLESHEET
  1

  9
$XEDIT
290
    1
  9
$CEPSNTYPE
380
    0
  9
$PSTYLEMODE
290
    1
  9
$EXTNAMES
290
    1
  9
$PSVPSCALE
 40
1
  9
$OLESTARTUP
290
    0
  9
$SORTENTS
280
  127
  9
$INDEXCTL
280
    0
  9
$HIDETEXT
280
    1
  9
$XCLIPFRAME
290
    0
  9
$HALOGAP
280
    0
  9
$OBSCOLOR
 70
  257
  9
$OBSLTYPE
280
    0
  9
$INTERSECTIONDISPLAY
280
    0
  9
$INTERSECTIONCOLOR
 70
  257
  9
$DIMASSOC
280
    1
  9
$PROJECTNAME
  1

  9
$CAMERADISPLAY
290
    0
  9
$LENSLENGTH
 40
50
  9
$CAMERAHEIGHT
 40
0
  9
$STEPSPERSEC
 40
2
  9
$STEPSIZE
 40
50
  9
$3DDWFPREC
 40
2
  9
$PSOLWIDTH
 40
5
  9
$PSOLHEIGHT
 40
80
  9
$LOFTANG1
 40
1.570796326794897
  9
$LOFTANG2
 40
1.570796326794897
  9
$LOFTMAG1
 40
0
  9
$LOFTMAG2
 40
0
  9
$LOFTPARAM
 70
    7
  9
$LOFTNORMALS
280
    1
  9
$LATITUDE
 40
1
  9
$LONGITUDE
 40
1
  9
$NORTHDIRECTION
 40
0
  9
$TIMEZONE
 70
-8000
  9
$LIGHTGLYPHDISPLAY
280
    1
  9
$TILEMODELIGHTSYNCH
280
    1
  9
$SOLIDHIST
280
    1
  9
$SHOWHIST
280
    1
  9
$DWFFRAME
280
    2
  9
$DGNFRAME
280
    0
  9
$REALWORLDSCALE
290
    1
  9
$INTERFERECOLOR
 62
    1
  9
$CSHADOW
280
    0
  9
$SHADOWPLANELOCATION
 40
0
  0
ENDSEC
  0
SECTION
  2
CLASSES
  0
ENDSEC
  0
SECTION
  2
TABLES
  0
TABLE
  2
VPORT
  5
8
330
0
100
AcDbSymbolTable
 70
    1
  0
VPORT
  5
31
330
2
100
AcDbSymbolTableRecord
100
AcDbViewportTableRecord
  2
*ACTIVE
 70
    0
 10
0
 20
0
 11
1
 21
1
 12
60.07067484239343
 22
42.93821855935787
 13
0
 23
0
 14
10
 24
10
 15
10
 25
10
 16
0
 26
0
 36
1
 17
0
 27
0
 37
0
 40
163.4008017994516
 41
1.469200524246396
 42
50
 43
0
 44
0
 50
0
 51
0
 71
    0
 72
  100
 73
    1
 74
    3
 75
    0
 76
    1
 77
    0
 78
    0
281
    0
 65
    1
110
0
120
0
130
0
111
1
121
0
131
0
112
0
122
1
132
0
 79
    0
146
0
348
10020
 60
    7
 61
    5
292
1
282
    1
141
0
142
0
 63
  250
421
3358443
  0
ENDTAB
  0
TABLE
  2
LTYPE
  5
5
330
0
100
AcDbSymbolTable
 70
    4
  0
LTYPE
  5
14
330
5
100
AcDbSymbolTableRecord
100
AcDbLinetypeTableRecord
  2
ByBlock
 70
    0
  3

 72
   65
 73
    0
 40
0
  0
LTYPE
  5
15
330
5
100
AcDbSymbolTableRecord
100
AcDbLinetypeTableRecord
  2
ByLayer
 70
    0
  3

 72
   65
 73
    0
 40
0
  0
LTYPE
  5
16
330
5
100
AcDbSymbolTableRecord
100
AcDbLinetypeTableRecord
  2
Continuous
 70
    0
  3
Solid line
 72
   65
 73
    0
 40
0
  0
LTYPE
  5
32
330
5
100
AcDbSymbolTableRecord
100
AcDbLinetypeTableRecord
  2
DOT
 70
    0
  3
Dot . . . . . . . . . . . . . . . . . . . . . .
 72
   65
 73
    2
 40
6.35
 49
0
 74
    0
 49
-6.35
 74
    0
  0
LTYPE
  5
33
330
5
100
AcDbSymbolTableRecord
100
AcDbLinetypeTableRecord
  2
DOTTINY
 70
    0
  3
Dot (.15x) .....................................
 72
   65
 73
    2
 40
0.9525
 49
0
 74
    0
 49
-0.9525
 74
    0
  0
LTYPE
  5
34
330
5
100
AcDbSymbolTableRecord
100
AcDbLinetypeTableRecord
  2
DOT2
 70
    0
  3
Dot (.5x) .....................................
 72
   65
 73
    2
 40
3.175
 49
0
 74
    0
 49
-3.175
 74
    0
  0
LTYPE
  5
35
330
5
100
AcDbSymbolTableRecord
100
AcDbLinetypeTableRecord
  2
DOTX2
 70
    0
  3
Dot (2x) .  .  .  .  .  .  .  .  .  .  .  .  .
 72
   65
 73
    2
 40
12.7
 49
0
 74
    0
 49
-12.7
 74
    0
  0
LTYPE
  5
36
330
5
100
AcDbSymbolTableRecord
100
AcDbLinetypeTableRecord
  2
DASHED
 70
    0
  3
Dashed _ _ _ _ _ _ _ _ _ _ _ _ _ _ _ _ _
 72
   65
 73
    2
 40
19.05
 49
12.7
 74
    0
 49
-6.35
 74
    0
  0
LTYPE
  5
37
330
5
100
AcDbSymbolTableRecord
100
AcDbLinetypeTableRecord
  2
DASHEDTINY
 70
    0
  3
Dashed (.15x) _ _ _ _ _ _ _ _ _ _ _ _ _ _ _ _ _
 72
   65
 73
    2
 40
2.8575
 49
1.905
 74
    0
 49
-0.9525
 74
    0
  0
LTYPE
  5
38
330
5
100
AcDbSymbolTableRecord
100
AcDbLinetypeTableRecord
  2
DASHED2
 70
    0
  3
Dashed (.5x) _ _ _ _ _ _ _ _ _ _ _ _ _ _ _ _ _
 72
   65
 73
    2
 40
9.524999999999999
 49
6.35
 74
    0
 49
-3.175
 74
    0
  0
LTYPE
  5
39
330
5
100
AcDbSymbolTableRecord
100
AcDbLinetypeTableRecord
  2
DASHEDX2
 70
    0
  3
Dashed (2x) ____  ____  ____  ____  ____  ___
 72
   65
 73
    2
 40
38.09999999999999
 49
25.4
 74
    0
 49
-12.7
 74
    0
  0
LTYPE
  5
3A
330
5
100
AcDbSymbolTableRecord
100
AcDbLinetypeTableRecord
  2
DASHDOT
 70
    0
  3
Dash dot __ . __ . __ . __ . __ . __ . __ . __
 72
   65
 73
    4
 40
25.4
 49
12.7
 74
    0
 49
-6.35
 74
    0
 49
0
 74
    0
 49
-6.35
 74
    0
  0
LTYPE
  5
3B
330
5
100
AcDbSymbolTableRecord
100
AcDbLinetypeTableRecord
  2
DASHDOTTINY
 70
    0
  3
Dash dot (.15x) _._._._._._._._._._._._._._._.
 72
   65
 73
    4
 40
3.81
 49
1.905
 74
    0
 49
-0.9525
 74
    0
 49
0
 74
    0
 49
-0.9525
 74
    0
  0
LTYPE
  5
3C
330
5
100
AcDbSymbolTableRecord
100
AcDbLinetypeTableRecord
  2
DASHDOT2
 70
    0
  3
Dash dot (.5x) _._._._._._._._._._._._._._._.
 72
   65
 73
    4
 40
12.7
 49
6.35
 74
    0
 49
-3.175
 74
    0
 49
0
 74
    0
 49
-3.175
 74
    0
  0
LTYPE
  5
3D
330
5
100
AcDbSymbolTableRecord
100
AcDbLinetypeTableRecord
  2
DASHDOTX2
 70
    0
  3
Dash dot (2x) ____  .  ____  .  ____  .  ___
 72
   65
 73
    4
 40
50.8
 49
25.4
 74
    0
 49
-12.7
 74
    0
 49
0
 74
    0
 49
-12.7
 74
    0
  0
LTYPE
  5
3E
330
5
100
AcDbSymbolTableRecord
100
AcDbLinetypeTableRecord
  2
DIVIDE
 70
    0
  3
Divide ____ . . ____ . . ____ . . ____ . . ____
 72
   65
 73
    6
 40
31.75
 49
12.7
 74
    0
 49
-6.35
 74
    0
 49
0
 74
    0
 49
-6.35
 74
    0
 49
0
 74
    0
 49
-6.35
 74
    0
  0
LTYPE
  5
3F
330
5
100
AcDbSymbolTableRecord
100
AcDbLinetypeTableRecord
  2
DIVIDETINY
 70
    0
  3
Divide (.15x) __..__..__..__..__..__..__..__.._
 72
   65
 73
    6
 40
4.7625
 49
1.905
 74
    0
 49
-0.9525
 74
    0
 49
0
 74
    0
 49
-0.9525
 74
    0
 49
0
 74
    0
 49
-0.9525
 74
    0
  0
LTYPE
  5
40
330
5
100
AcDbSymbolTableRecord
100
AcDbLinetypeTableRecord
  2
DIVIDE2
 70
    0
  3
Divide (.5x) __..__..__..__..__..__..__..__.._
 72
   65
 73
    6
 40
15.875
 49
6.35
 74
    0
 49
-3.175
 74
    0
 49
0
 74
    0
 49
-3.175
 74
    0
 49
0
 74
    0
 49
-3.175
 74
    0
  0
LTYPE
  5
41
330
5
100
AcDbSymbolTableRecord
100
AcDbLinetypeTableRecord
  2
DIVIDEX2
 70
    0
  3
Divide (2x) ________  .  .  ________  .  .  _
 72
   65
 73
    6
 40
63.5
 49
25.4
 74
    0
 49
-12.7
 74
    0
 49
0
 74
    0
 49
-12.7
 74
    0
 49
0
 74
    0
 49
-12.7
 74
    0
  0
LTYPE
  5
42
330
5
100
AcDbSymbolTableRecord
100
AcDbLinetypeTableRecord
  2
BORDER
 70
    0
  3
Border __ __ . __ __ . __ __ . __ __ . __ __ .
 72
   65
 73
    6
 40
44.45
 49
12.7
 74
    0
 49
-6.35
 74
    0
 49
12.7
 74
    0
 49
-6.35
 74
    0
 49
0
 74
    0
 49
-6.35
 74
    0
  0
LTYPE
  5
43
330
5
100
AcDbSymbolTableRecord
100
AcDbLinetypeTableRecord
  2
BORDERTINY
 70
    0
  3
Border (.15x) __.__.__.__.__.__.__.__.__.__.__.
 72
   65
 73
    6
 40
6.6675
 49
1.905
 74
    0
 49
-0.9525
 74
    0
 49
1.905
 74
    0
 49
-0.9525
 74
    0
 49
0
 74
    0
 49
-0.9525
 74
    0
  0
LTYPE
  5
44
330
5
100
AcDbSymbolTableRecord
100
AcDbLinetypeTableRecord
  2
BORDER2
 70
    0
  3
Border (.5x) __.__.__.__.__.__.__.__.__.__.__.
 72
   65
 73
    6
 40
22.225
 49
6.35
 74
    0
 49
-3.175
 74
    0
 49
6.35
 74
    0
 49
-3.175
 74
    0
 49
0
 74
    0
 49
-3.175
 74
    0
  0
LTYPE
  5
45
330
5
100
AcDbSymbolTableRecord
100
AcDbLinetypeTableRecord
  2
BORDERX2
 70
    0
  3
Border (2x) ____  ____  .  ____  ____  .  ___
 72
   65
 73
    6
 40
88.89999999999999
 49
25.4
 74
    0
 49
-12.7
 74
    0
 49
25.4
 74
    0
 49
-12.7
 74
    0
 49
0
 74
    0
 49
-12.7
 74
    0
  0
LTYPE
  5
46
330
5
100
AcDbSymbolTableRecord
100
AcDbLinetypeTableRecord
  2
CENTER
 70
    0
  3
Center ____ _ ____ _ ____ _ ____ _ ____ _ ____
 72
   65
 73
    4
 40
50.8
 49
31.75
 74
    0
 49
-6.35
 74
    0
 49
6.35
 74
    0
 49
-6.35
 74
    0
  0
LTYPE
  5
47
330
5
100
AcDbSymbolTableRecord
100
AcDbLinetypeTableRecord
  2
CENTERTINY
 70
    0
  3
Center (.15x) ___ _ ___ _ ___ _ ___ _ ___ _ ___
 72
   65
 73
    4
 40
7.619999999999999
 49
4.7625
 74
    0
 49
-0.9525
 74
    0
 49
0.9525
 74
    0
 49
-0.9525
 74
    0
  0
LTYPE
  5
48
330
5
100
AcDbSymbolTableRecord
100
AcDbLinetypeTableRecord
  2
CENTER2
 70
    0
  3
Center (.5x) ___ _ ___ _ ___ _ ___ _ ___ _ ___
 72
   65
 73
    4
 40
28.575
 49
19.05
 74
    0
 49
-3.175
 74
    0
 49
3.175
 74
    0
 49
-3.175
 74
    0
  0
LTYPE
  5
49
330
5
100
AcDbSymbolTableRecord
100
AcDbLinetypeTableRecord
  2
CENTERX2
 70
    0
  3
Center (2x) ________  __  ________  __  _____
 72
   65
 73
    4
 40
101.6
 49
63.5
 74
    0
 49
-12.7
 74
    0
 49
12.7
 74
    0
 49
-12.7
 74
    0
  0
ENDTAB
  0
TABLE
  2
LAYER
  5
2
330
0
100
AcDbSymbolTable
 70
    1
  0
LAYER
  5
10
330
2
100
AcDbSymbolTableRecord
100
AcDbLayerTableRecord
  2
0
 70
    0
 62
    7
  6
CONTINUOUS
370
    0
390
F
  0
LAYER
  5
4A
330
2
100
AcDbSymbolTableRecord
100
AcDbLayerTableRecord
  2
ajour
 70
    0
 62
    3
  6
CONTINUOUS
370
    0
390
F
  0
LAYER
  5
4B
330
2
100
AcDbSymbolTableRecord
100
AcDbLayerTableRecord
  2
edge
 70
    0
 62
    2
  6
CONTINUOUS
370
    0
390
F
  0
LAYER
  5
4C
330
2
100
AcDbSymbolTableRecord
100
AcDbLayerTableRecord
  2
ext1
 70
    0
 62
  171
420
6711807
  6
CONTINUOUS
370
    0
390
F
  0
LAYER
  5
4D
330
2
100
AcDbSymbolTableRecord
100
AcDbLayerTableRecord
  2
ext2
 70
    0
 62
  160
420
1657855
  6
CONTINUOUS
370
    0
390
F
  0
LAYER
  5
4E
330
2
100
AcDbSymbolTableRecord
100
AcDbLayerTableRecord
  2
ext3
 70
    0
 62
    5
  6
CONTINUOUS
370
    0
390
F
  0
LAYER
  5
4F
330
2
100
AcDbSymbolTableRecord
100
AcDbLayerTableRecord
  2
int
 70
    0
 62
    6
  6
CONTINUOUS
370
    0
390
F
  0
LAYER
  5
50
330
2
100
AcDbSymbolTableRecord
100
AcDbLayerTableRecord
  2
keycap
 70
    0
 62
   16
420
8388608
  6
CONTINUOUS
370
    0
390
F
  0
LAYER
  5
51
330
2
100
AcDbSymbolTableRecord
100
AcDbLayerTableRecord
  2
percage
 70
    0
 62
    4
  6
CONTINUOUS
370
    0
390
F
  0
LAYER
  5
52
330
2
100
AcDbSymbolTableRecord
100
AcDbLayerTableRecord
  2
placement
 70
    0
 62
    1
  6
CONTINUOUS
370
    0
390
F
  0
LAYER
  5
53
330
2
100
AcDbSymbolTableRecord
100
AcDbLayerTableRecord
  2
rpi
 70
    0
 62
    3
  6
CONTINUOUS
370
    0
390
F
  0
LAYER
  5
54
330
2
100
AcDbSymbolTableRecord
100
AcDbLayerTableRecord
  2
rpi1-decoupe
 70
    0
 62
   96
420
32768
  6
CONTINUOUS
370
    0
390
F
  0
ENDTAB
  0
TABLE
  2
STYLE
  5
3
330
0
100
AcDbSymbolTable
 70
    3
  0
STYLE
  5
55
330
2
100
AcDbSymbolTableRecord
100
AcDbTextStyleTableRecord
  2
Standard
 70
    0
 40
0
 41
1
 50
0
 71
    0
 42
1
  3
txt
  4

  0
ENDTAB
  0
TABLE
  2
VIEW
  5
6
330
0
100
AcDbSymbolTable
 70
    0
  0
ENDTAB
  0
TABLE
  2
UCS
  5
7
330
0
100
AcDbSymbolTable
 70
    0
  0
ENDTAB
  0
TABLE
  2
APPID
  5
9
330
0
100
AcDbSymbolTable
 70
    1
  0
APPID
  5
12
330
9
100
AcDbSymbolTableRecord
100
AcDbRegAppTableRecord
  2
ACAD
 70
    0
  0
APPID
  5
56
330
9
100
AcDbSymbolTableRecord
100
AcDbRegAppTableRecord
  2
LibreCad
 70
    0
  0
ENDTAB
  0
TABLE
  2
DIMSTYLE
  5
A
330
0
100
AcDbSymbolTable
 70
    1
100
AcDbDimStyleTable
 71
    1
  0
DIMSTYLE
105
57
330
A
100
AcDbSymbolTableRecord
100
AcDbDimStyleTableRecord
  2
Standard
 70
    0
 40
2.5
 41
2.5
 42
0.625
 43
0.38
 44
1.25
 45
0
 46
0
 47
0
 48
0
 49
1
140
2.5
141
0.09
142
0
143
25.4
144
1
145
0
146
1
147
0.625
148
0
 71
    0
 72
    0
 73
    0
 74
    1
 75
    0
 76
    0
 77
    0
 78
    8
 79
    0
170
    0
171
    2
172
    0
173
    0
174
    0
175
    0
176
    0
177
    0
178
    0
179
    0
271
    2
272
    4
273
    2
274
    2
275
    0
276
    0
277
    2
278
   44
279
    0
280
    0
281
    0
282
    0
283
    1
284
    0
285
    0
286
    0
288
    0
289
    3
340
STANDARD
341

371
   -2
372
   -2
  0
ENDTAB
  0
TABLE
  2
BLOCK_RECORD
  5
1
330
0
100
AcDbSymbolTable
 70
    2
  0
BLOCK_RECORD
  5
1F
330
1
100
AcDbSymbolTableRecord
100
AcDbBlockTableRecord
  2
*Model_Space
 70
    0
280
    1
281
    0
  0
BLOCK_RECORD
  5
1E
330
1
100
AcDbSymbolTableRecord
100
AcDbBlockTableRecord
  2
*Paper_Space
 70
    0
280
    1
281
    0
  0
ENDTAB
  0
ENDSEC
  0
SECTION
  2
BLOCKS
  0
BLOCK
  5
20
330
1F
100
AcDbEntity
  8
0
100
AcDbBlockBegin
  2
*Model_Space
 70
    0
 10
0
 20
0
 30
0
  3
*Model_Space
  1

  0
ENDBLK
  5
21
330
1F
100
AcDbEntity
  8
0
100
AcDbBlockEnd
  0
BLOCK
  5
1C
330
1B
100
AcDbEntity
  8
0
100
AcDbBlockBegin
  2
*Paper_Space
 70
    0
 10
0
 20
0
 30
0
  3
*Paper_Space
  1

  0
ENDBLK
  5
1D
330
1F
100
AcDbEntity
  8
0
100
AcDbBlockEnd
  0
ENDSEC
  0
SECTION
  2
ENTITIES
  0
LINE
  5
58
100
AcDbEntity
  8
0
  6
ByLayer
 62
  256
370
   -1
100
AcDbLine
 10
-101.5266779973268
 20
41.58782797230356
 11
-87.63103179732684
 21
39.88165717230356
  0
LINE
  5
59
100
AcDbEntity
  8
0
  6
ByLayer
 62
  256
370
   -1
100
AcDbLine
 10
-103.2328487973268
 20
27.69218177230355
 11
-89.33720259732684
 21
25.98601097230355
  0
LINE
  5
5A
100
AcDbEntity
  8
0
  6
ByLayer
 62
  256
370
   -1
100
AcDbLine
 10
-101.5266779973268
 20
41.58782797230356
 11
-103.2328487973268
 21
27.69218177230355
  0
LINE
  5
5B
100
AcDbEntity
  8
0
  6
ByLayer
 62
  256
370
   -1
100
AcDbLine
 10
-87.63103179732684
 20
39.88165717230356
 11
-89.33720259732684
 21
25.98601097230355
  0
LINE
  5
5C
100
AcDbEntity
  8
0
  6
ByLayer
 62
  256
370
   -1
100
AcDbLine
 10
-82.66830109732685
 20
39.27231037230355
 11
-68.77265489732685
 21
37.56613957230356
  0
LINE
  5
5D
100
AcDbEntity
  8
0
  6
ByLayer
 62
  256
370
   -1
100
AcDbLine
 10
-84.37447189732684
 20
25.37666417230355
 11
-70.47882569732684
 21
23.67049337230355
  0
LINE
  5
5E
100
AcDbEntity
  8
0
  6
ByLayer
 62
  256
370
   -1
100
AcDbLine
 10
-82.66830109732685
 20
39.27231037230355
 11
-84.37447189732684
 21
25.37666417230355
  0
LINE
  5
5F
100
AcDbEntity
  8
0
  6
ByLayer
 62
  256
370
   -1
100
AcDbLine
 10
-68.77265489732685
 20
37.56613957230356
 11
-70.47882569732684
 21
23.67049337230355
  0
LINE
  5
60
100
AcDbEntity
  8
0
  6
ByLayer
 62
  256
370
   -1
100
AcDbLine
 10
-63.80992419732684
 20
36.95679287230355
 11
-49.91427799732684
 21
35.25062207230356
  0
LINE
  5
61
100
AcDbEntity
  8
0
  6
ByLayer
 62
  256
370
   -1
100
AcDbLine
 10
-65.51609499732683
 20
23.06114667230355
 11
-51.62044879732684
 21
21.35497587230356
  0
LINE
  5
62
100
AcDbEntity
  8
0
  6
ByLayer
 62
  256
370
   -1
100
AcDbLine
 10
-63.80992419732684
 20
36.95679287230355
 11
-65.51609499732683
 21
23.06114667230355
  0
LINE
  5
63
100
AcDbEntity
  8
0
  6
ByLayer
 62
  256
370
   -1
100
AcDbLine
 10
-49.91427799732684
 20
35.25062207230356
 11
-51.62044879732684
 21
21.35497587230356
  0
LINE
  5
64
100
AcDbEntity
  8
0
  6
ByLayer
 62
  256
370
   -1
100
AcDbLine
 10
-44.95154729732684
 20
34.64127537230355
 11
-31.05590109732684
 21
32.93510457230356
  0
LINE
  5
65
100
AcDbEntity
  8
0
  6
ByLayer
 62
  256
370
   -1
100
AcDbLine
 10
-46.65771809732684
 20
20.74562917230356
 11
-32.76207189732685
 21
19.03945837230355
  0
LINE
  5
66
100
AcDbEntity
  8
0
  6
ByLayer
 62
  256
370
   -1
100
AcDbLine
 10
-44.95154729732684
 20
34.64127537230355
 11
-46.65771809732684
 21
20.74562917230356
  0
LINE
  5
67
100
AcDbEntity
  8
0
  6
ByLayer
 62
  256
370
   -1
100
AcDbLine
 10
-31.05590109732684
 20
32.93510457230356
 11
-32.76207189732685
 21
19.03945837230355
  0
LINE
  5
68
100
AcDbEntity
  8
0
  6
ByLayer
 62
  256
370
   -1
100
AcDbLine
 10
-26.09317049732684
 20
32.32575787230356
 11
-12.19752429732684
 21
30.61958707230355
  0
LINE
  5
69
100
AcDbEntity
  8
0
  6
ByLayer
 62
  256
370
   -1
100
AcDbLine
 10
-27.79934129732685
 20
18.43011167230355
 11
-13.90369509732685
 21
16.72394087230355
  0
LINE
  5
6A
100
AcDbEntity
  8
0
  6
ByLayer
 62
  256
370
   -1
100
AcDbLine
 10
-26.09317049732684
 20
32.32575787230356
 11
-27.79934129732685
 21
18.43011167230355
  0
LINE
  5
6B
100
AcDbEntity
  8
0
  6
ByLayer
 62
  256
370
   -1
100
AcDbLine
 10
-12.19752429732684
 20
30.61958707230355
 11
-13.90369509732685
 21
16.72394087230355
  0
LINE
  5
6C
100
AcDbEntity
  8
0
  6
ByLayer
 62
  256
370
   -1
100
AcDbLine
 10
-101.4848983973268
 20
22.44001137230356
 11
-87.58925219732684
 21
20.73384057230355
  0
LINE
  5
6D
100
AcDbEntity
  8
0
  6
ByLayer
 62
  256
370
   -1
100
AcDbLine
 10
-103.1910691973268
 20
8.544365172303557
 11
-89.29542299732684
 21
6.838194372303555
  0
LINE
  5
6E
100
AcDbEntity
  8
0
  6
ByLayer
 62
  256
370
   -1
100
AcDbLine
 10
-101.4848983973268
 20
22.44001137230356
 11
-103.1910691973268
 21
8.544365172303557
  0
LINE
  5
6F
100
AcDbEntity
  8
0
  6
ByLayer
 62
  256
370
   -1
100
AcDbLine
 10
-87.58925219732684
 20
20.73384057230355
 11
-89.29542299732684
 21
6.838194372303555
  0
LINE
  5
70
100
AcDbEntity
  8
0
  6
ByLayer
 62
  256
370
   -1
100
AcDbLine
 10
-80.26922439732684
 20
19.83505417230355
 11
-66.37357819732685
 21
18.12888337230356
  0
LINE
  5
71
100
AcDbEntity
  8
0
  6
ByLayer
 62
  256
370
   -1
100
AcDbLine
 10
-81.97539519732685
 20
5.939407972303556
 11
-68.07974899732685
 21
4.233237172303554
  0
LINE
  5
72
100
AcDbEntity
  8
0
  6
ByLayer
 62
  256
370
   -1
100
AcDbLine
 10
-80.26922439732684
 20
19.83505417230355
 11
-81.97539519732685
 21
5.939407972303556
  0
LINE
  5
73
100
AcDbEntity
  8
0
  6
ByLayer
 62
  256
370
   -1
100
AcDbLine
 10
-66.37357819732685
 20
18.12888337230356
 11
-68.07974899732685
 21
4.233237172303554
  0
LINE
  5
74
100
AcDbEntity
  8
0
  6
ByLayer
 62
  256
370
   -1
100
AcDbLine
 10
-61.41084749732684
 20
17.51953667230355
 11
-47.51520129732684
 21
15.81336587230356
  0
LINE
  5
75
100
AcDbEntity
  8
0
  6
ByLayer
 62
  256
370
   -1
100
AcDbLine
 10
-63.11701829732684
 20
3.62389047230355
 11
-49.22137209732684
 21
1.917719672303555
  0
LINE
  5
76
100
AcDbEntity
  8
0
  6
ByLayer
 62
  256
370
   -1
100
AcDbLine
 10
-61.41084749732684
 20
17.51953667230355
 11
-63.11701829732684
 21
3.62389047230355
  0
LINE
  5
77
100
AcDbEntity
  8
0
  6
ByLayer
 62
  256
370
   -1
100
AcDbLine
 10
-47.51520129732684
 20
15.81336587230356
 11
-49.22137209732684
 21
1.917719672303555
  0
LINE
  5
78
100
AcDbEntity
  8
0
  6
ByLayer
 62
  256
370
   -1
100
AcDbLine
 10
-42.55247059732685
 20
15.20401907230355
 11
-28.65682439732684
 21
13.49784827230356
  0
LINE
  5
79
100
AcDbEntity
  8
0
  6
ByLayer
 62
  256
370
   -1
100
AcDbLine
 10
-44.25864139732684
 20
1.308372872303551
 11
-30.36299519732684
 21
-0.3977979276964447
  0
LINE
  5
7A
100
AcDbEntity
  8
0
  6
ByLayer
 62
  256
370
   -1
100
AcDbLine
 10
-42.55247059732685
 20
15.20401907230355
 11
-44.25864139732684
 21
1.308372872303551
  0
LINE
  5
7B
100
AcDbEntity
  8
0
  6
ByLayer
 62
  256
370
   -1
100
AcDbLine
 10
-28.65682439732684
 20
13.49784827230356
 11
-30.36299519732684
 21
-0.3977979276964447
  0
LINE
  5
7C
100
AcDbEntity
  8
0
  6
ByLayer
 62
  256
370
   -1
100
AcDbLine
 10
-23.69409379732684
 20
12.88850157230355
 11
-9.798447597326842
 21
11.18233077230355
  0
LINE
  5
7D
100
AcDbEntity
  8
0
  6
ByLayer
 62
  256
370
   -1
100
AcDbLine
 10
-25.40026459732684
 20
-1.007144627696448
 11
-11.50461839732684
 21
-2.713315427696443
  0
LINE
  5
7E
100
AcDbEntity
  8
0
  6
ByLayer
 62
  256
370
   -1
100
AcDbLine
 10
-23.69409379732684
 20
12.88850157230355
 11
-25.40026459732684
 21
-1.007144627696448
  0
LINE
  5
7F
100
AcDbEntity
  8
0
  6
ByLayer
 62
  256
370
   -1
100
AcDbLine
 10
-9.798447597326842
 20
11.18233077230355
 11
-11.50461839732684
 21
-2.713315427696443
  0
LINE
  5
80
100
AcDbEntity
  8
0
  6
ByLayer
 62
  256
370
   -1
100
AcDbLine
 10
-99.08582169732685
 20
3.00275507230355
 11
-85.19017549732683
 21
1.296584272303555
  0
LINE
  5
81
100
AcDbEntity
  8
0
  6
ByLayer
 62
  256
370
   -1
100
AcDbLine
 10
-100.7919924973268
 20
-10.89289112769644
 11
-86.89634629732684
 21
-12.59906192769645
  0
LINE
  5
82
100
AcDbEntity
  8
0
  6
ByLayer
 62
  256
370
   -1
100
AcDbLine
 10
-99.08582169732685
 20
3.00275507230355
 11
-100.7919924973268
 21
-10.89289112769644
  0
LINE
  5
83
100
AcDbEntity
  8
0
  6
ByLayer
 62
  256
370
   -1
100
AcDbLine
 10
-85.19017549732683
 20
1.296584272303555
 11
-86.89634629732684
 21
-12.59906192769645
  0
LINE
  5
84
100
AcDbEntity
  8
0
  6
ByLayer
 62
  256
370
   -1
100
AcDbLine
 10
-73.15555349732685
 20
-0.181081527696449
 11
-59.25990729732684
 21
-1.887252327696444
  0
LINE
  5
85
100
AcDbEntity
  8
0
  6
ByLayer
 62
  256
370
   -1
100
AcDbLine
 10
-74.86172429732684
 20
-14.07672772769644
 11
-60.96607809732684
 21
-15.78289852769645
  0
LINE
  5
86
100
AcDbEntity
  8
0
  6
ByLayer
 62
  256
370
   -1
100
AcDbLine
 10
-73.15555349732685
 20
-0.181081527696449
 11
-74.86172429732684
 21
-14.07672772769644
  0
LINE
  5
87
100
AcDbEntity
  8
0
  6
ByLayer
 62
  256
370
   -1
100
AcDbLine
 10
-59.25990729732684
 20
-1.887252327696444
 11
-60.96607809732684
 21
-15.78289852769645
  0
LINE
  5
88
100
AcDbEntity
  8
0
  6
ByLayer
 62
  256
370
   -1
100
AcDbLine
 10
-54.29717659732684
 20
-2.496599027696448
 11
-40.40153039732684
 21
-4.202769827696443
  0
LINE
  5
89
100
AcDbEntity
  8
0
  6
ByLayer
 62
  256
370
   -1
100
AcDbLine
 10
-56.00334739732684
 20
-16.39224522769644
 11
-42.10770119732685
 21
-18.09841602769645
  0
LINE
  5
8A
100
AcDbEntity
  8
0
  6
ByLayer
 62
  256
370
   -1
100
AcDbLine
 10
-54.29717659732684
 20
-2.496599027696448
 11
-56.00334739732684
 21
-16.39224522769644
  0
LINE
  5
8B
100
AcDbEntity
  8
0
  6
ByLayer
 62
  256
370
   -1
100
AcDbLine
 10
-40.40153039732684
 20
-4.202769827696443
 11
-42.10770119732685
 21
-18.09841602769645
  0
LINE
  5
8C
100
AcDbEntity
  8
0
  6
ByLayer
 62
  256
370
   -1
100
AcDbLine
 10
-35.43879969732684
 20
-4.812116527696446
 11
-21.54315349732684
 21
-6.518287327696449
  0
LINE
  5
8D
100
AcDbEntity
  8
0
  6
ByLayer
 62
  256
370
   -1
100
AcDbLine
 10
-37.14497049732684
 20
-18.70776272769644
 11
-23.24932429732684
 21
-20.41393352769645
  0
LINE
  5
8E
100
AcDbEntity
  8
0
  6
ByLayer
 62
  256
370
   -1
100
AcDbLine
 10
-35.43879969732684
 20
-4.812116527696446
 11
-37.14497049732684
 21
-18.70776272769644
  0
LINE
  5
8F
100
AcDbEntity
  8
0
  6
ByLayer
 62
  256
370
   -1
100
AcDbLine
 10
-21.54315349732684
 20
-6.518287327696449
 11
-23.24932429732684
 21
-20.41393352769645
  0
LINE
  5
90
100
AcDbEntity
  8
0
  6
ByLayer
 62
  256
370
   -1
100
AcDbLine
 10
-16.58042289732684
 20
-7.127634027696445
 11
-2.684776697326839
 21
-8.833804827696447
  0
LINE
  5
91
100
AcDbEntity
  8
0
  6
ByLayer
 62
  256
370
   -1
100
AcDbLine
 10
-18.28659369732684
 20
-21.02328022769644
 11
-4.390947497326849
 21
-22.72945102769645
  0
LINE
  5
92
100
AcDbEntity
  8
0
  6
ByLayer
 62
  256
370
   -1
100
AcDbLine
 10
-16.58042289732684
 20
-7.127634027696445
 11
-18.28659369732684
 21
-21.02328022769644
  0
LINE
  5
93
100
AcDbEntity
  8
0
  6
ByLayer
 62
  256
370
   -1
100
AcDbLine
 10
-2.684776697326839
 20
-8.833804827696447
 11
-4.390947497326849
 21
-22.72945102769645
  0
LINE
  5
94
100
AcDbEntity
  8
0
  6
ByLayer
 62
  256
370
   -1
100
AcDbLine
 10
-63.68458549732684
 20
-20.48665682769644
 11
-49.78893929732684
 21
-22.19282762769645
  0
LINE
  5
95
100
AcDbEntity
  8
0
  6
ByLayer
 62
  256
370
   -1
100
AcDbLine
 10
-65.39075629732685
 20
-34.38230302769644
 11
-51.49511009732684
 21
-36.08847382769644
  0
LINE
  5
96
100
AcDbEntity
  8
0
  6
ByLayer
 62
  256
370
   -1
100
AcDbLine
 10
-63.68458549732684
 20
-20.48665682769644
 11
-65.39075629732685
 21
-34.38230302769644
  0
LINE
  5
97
100
AcDbEntity
  8
0
  6
ByLayer
 62
  256
370
   -1
100
AcDbLine
 10
-49.78893929732684
 20
-22.19282762769645
 11
-51.49511009732684
 21
-36.08847382769644
  0
LINE
  5
98
100
AcDbEntity
  8
0
  6
ByLayer
 62
  256
370
   -1
100
AcDbLine
 10
-30.68242589732684
 20
-24.53881252769644
 11
-16.78677969732684
 21
-26.24498332769645
  0
LINE
  5
99
100
AcDbEntity
  8
0
  6
ByLayer
 62
  256
370
   -1
100
AcDbLine
 10
-32.38859669732685
 20
-38.43445872769644
 11
-18.49295049732685
 21
-40.14062952769644
  0
LINE
  5
9A
100
AcDbEntity
  8
0
  6
ByLayer
 62
  256
370
   -1
100
AcDbLine
 10
-30.68242589732684
 20
-24.53881252769644
 11
-32.38859669732685
 21
-38.43445872769644
  0
LINE
  5
9B
100
AcDbEntity
  8
0
  6
ByLayer
 62
  256
370
   -1
100
AcDbLine
 10
-16.78677969732684
 20
-26.24498332769645
 11
-18.49295049732685
 21
-40.14062952769644
  0
LINE
  5
9C
100
AcDbEntity
  8
0
  6
ByLayer
 62
  256
370
   -1
100
AcDbLine
 10
7.482930002673157
 20
29.46182827230355
 11
21.37857620267314
 21
31.16799907230356
  0
LINE
  5
9D
100
AcDbEntity
  8
0
  6
ByLayer
 62
  256
370
   -1
100
AcDbLine
 10
9.189100802673153
 20
15.56618207230355
 11
23.08474700267317
 21
17.27235287230356
  0
LINE
  5
9E
100
AcDbEntity
  8
0
  6
ByLayer
 62
  256
370
   -1
100
AcDbLine
 10
7.482930002673157
 20
29.46182827230355
 11
9.189100802673153
 21
15.56618207230355
  0
LINE
  5
9F
100
AcDbEntity
  8
0
  6
ByLayer
 62
  256
370
   -1
100
AcDbLine
 10
21.37857620267314
 20
31.16799907230356
 11
23.08474700267317
 21
17.27235287230356
  0
LINE
  5
A0
100
AcDbEntity
  8
0
  6
ByLayer
 62
  256
370
   -1
100
AcDbLine
 10
26.34130690267315
 20
31.77734577230355
 11
40.23695310267317
 21
33.48351657230356
  0
LINE
  5
A1
100
AcDbEntity
  8
0
  6
ByLayer
 62
  256
370
   -1
100
AcDbLine
 10
28.04747770267315
 20
17.88169957230355
 11
41.94312390267316
 21
19.58787037230355
  0
LINE
  5
A2
100
AcDbEntity
  8
0
  6
ByLayer
 62
  256
370
   -1
100
AcDbLine
 10
26.34130690267315
 20
31.77734577230355
 11
28.04747770267315
 21
17.88169957230355
  0
LINE
  5
A3
100
AcDbEntity
  8
0
  6
ByLayer
 62
  256
370
   -1
100
AcDbLine
 10
40.23695310267317
 20
33.48351657230356
 11
41.94312390267316
 21
19.58787037230355
  0
LINE
  5
A4
100
AcDbEntity
  8
0
  6
ByLayer
 62
  256
370
   -1
100
AcDbLine
 10
45.19968380267315
 20
34.09286337230355
 11
59.09533000267317
 21
35.79903417230355
  0
LINE
  5
A5
100
AcDbEntity
  8
0
  6
ByLayer
 62
  256
370
   -1
100
AcDbLine
 10
46.90585460267314
 20
20.19721717230355
 11
60.80150080267316
 21
21.90338797230356
  0
LINE
  5
A6
100
AcDbEntity
  8
0
  6
ByLayer
 62
  256
370
   -1
100
AcDbLine
 10
45.19968380267315
 20
34.09286337230355
 11
46.90585460267314
 21
20.19721717230355
  0
LINE
  5
A7
100
AcDbEntity
  8
0
  6
ByLayer
 62
  256
370
   -1
100
AcDbLine
 10
59.09533000267317
 20
35.79903417230355
 11
60.80150080267316
 21
21.90338797230356
  0
LINE
  5
A8
100
AcDbEntity
  8
0
  6
ByLayer
 62
  256
370
   -1
100
AcDbLine
 10
64.05806070267315
 20
36.40838087230355
 11
77.95370690267316
 21
38.11455167230356
  0
LINE
  5
A9
100
AcDbEntity
  8
0
  6
ByLayer
 62
  256
370
   -1
100
AcDbLine
 10
65.76423150267317
 20
22.51273467230356
 11
79.65987770267316
 21
24.21890547230355
  0
LINE
  5
AA
100
AcDbEntity
  8
0
  6
ByLayer
 62
  256
370
   -1
100
AcDbLine
 10
64.05806070267315
 20
36.40838087230355
 11
65.76423150267317
 21
22.51273467230356
  0
LINE
  5
AB
100
AcDbEntity
  8
0
  6
ByLayer
 62
  256
370
   -1
100
AcDbLine
 10
77.95370690267316
 20
38.11455167230356
 11
79.65987770267316
 21
24.21890547230355
  0
LINE
  5
AC
100
AcDbEntity
  8
0
  6
ByLayer
 62
  256
370
   -1
100
AcDbLine
 10
85.27373470267315
 20
39.01333807230355
 11
99.16938090267317
 21
40.71950887230355
  0
LINE
  5
AD
100
AcDbEntity
  8
0
  6
ByLayer
 62
  256
370
   -1
100
AcDbLine
 10
86.97990550267315
 20
25.11769187230355
 11
100.8755517026732
 21
26.82386267230356
  0
LINE
  5
AE
100
AcDbEntity
  8
0
  6
ByLayer
 62
  256
370
   -1
100
AcDbLine
 10
85.27373470267315
 20
39.01333807230355
 11
86.97990550267315
 21
25.11769187230355
  0
LINE
  5
AF
100
AcDbEntity
  8
0
  6
ByLayer
 62
  256
370
   -1
100
AcDbLine
 10
99.16938090267317
 20
40.71950887230355
 11
100.8755517026732
 21
26.82386267230356
  0
LINE
  5
B0
100
AcDbEntity
  8
0
  6
ByLayer
 62
  256
370
   -1
100
AcDbLine
 10
14.51304180267316
 20
11.18233077230355
 11
28.40868800267316
 21
12.88850157230355
  0
LINE
  5
B1
100
AcDbEntity
  8
0
  6
ByLayer
 62
  256
370
   -1
100
AcDbLine
 10
16.21921260267315
 20
-2.713315427696443
 11
30.11485880267315
 21
-1.007144627696448
  0
LINE
  5
B2
100
AcDbEntity
  8
0
  6
ByLayer
 62
  256
370
   -1
100
AcDbLine
 10
14.51304180267316
 20
11.18233077230355
 11
16.21921260267315
 21
-2.713315427696443
  0
LINE
  5
B3
100
AcDbEntity
  8
0
  6
ByLayer
 62
  256
370
   -1
100
AcDbLine
 10
28.40868800267316
 20
12.88850157230355
 11
30.11485880267315
 21
-1.007144627696448
  0
LINE
  5
B4
100
AcDbEntity
  8
0
  6
ByLayer
 62
  256
370
   -1
100
AcDbLine
 10
33.37141860267315
 20
13.49784827230356
 11
47.26706480267316
 21
15.20401907230355
  0
LINE
  5
B5
100
AcDbEntity
  8
0
  6
ByLayer
 62
  256
370
   -1
100
AcDbLine
 10
35.07758940267317
 20
-0.3977979276964447
 11
48.97323560267316
 21
1.308372872303551
  0
LINE
  5
B6
100
AcDbEntity
  8
0
  6
ByLayer
 62
  256
370
   -1
100
AcDbLine
 10
33.37141860267315
 20
13.49784827230356
 11
35.07758940267317
 21
-0.3977979276964447
  0
LINE
  5
B7
100
AcDbEntity
  8
0
  6
ByLayer
 62
  256
370
   -1
100
AcDbLine
 10
47.26706480267316
 20
15.20401907230355
 11
48.97323560267316
 21
1.308372872303551
  0
LINE
  5
B8
100
AcDbEntity
  8
0
  6
ByLayer
 62
  256
370
   -1
100
AcDbLine
 10
52.22979550267317
 20
15.81336587230356
 11
66.12544170267316
 21
17.51953667230355
  0
LINE
  5
B9
100
AcDbEntity
  8
0
  6
ByLayer
 62
  256
370
   -1
100
AcDbLine
 10
53.93596630267317
 20
1.917719672303555
 11
67.83161250267315
 21
3.62389047230355
  0
LINE
  5
BA
100
AcDbEntity
  8
0
  6
ByLayer
 62
  256
370
   -1
100
AcDbLine
 10
52.22979550267317
 20
15.81336587230356
 11
53.93596630267317
 21
1.917719672303555
  0
LINE
  5
BB
100
AcDbEntity
  8
0
  6
ByLayer
 62
  256
370
   -1
100
AcDbLine
 10
66.12544170267316
 20
17.51953667230355
 11
67.83161250267315
 21
3.62389047230355
  0
LINE
  5
BC
100
AcDbEntity
  8
0
  6
ByLayer
 62
  256
370
   -1
100
AcDbLine
 10
71.08817240267317
 20
18.12888337230356
 11
84.98381860267315
 21
19.83505417230355
  0
LINE
  5
BD
100
AcDbEntity
  8
0
  6
ByLayer
 62
  256
370
   -1
100
AcDbLine
 10
72.79434320267316
 20
4.233237172303554
 11
86.68998940267315
 21
5.939407972303556
  0
LINE
  5
BE
100
AcDbEntity
  8
0
  6
ByLayer
 62
  256
370
   -1
100
AcDbLine
 10
71.08817240267317
 20
18.12888337230356
 11
72.79434320267316
 21
4.233237172303554
  0
LINE
  5
BF
100
AcDbEntity
  8
0
  6
ByLayer
 62
  256
370
   -1
100
AcDbLine
 10
84.98381860267315
 20
19.83505417230355
 11
86.68998940267315
 21
5.939407972303556
  0
LINE
  5
C0
100
AcDbEntity
  8
0
  6
ByLayer
 62
  256
370
   -1
100
AcDbLine
 10
89.94654930267316
 20
20.44440087230355
 11
103.8421955026731
 21
22.15057167230355
  0
LINE
  5
C1
100
AcDbEntity
  8
0
  6
ByLayer
 62
  256
370
   -1
100
AcDbLine
 10
91.65272010267316
 20
6.548754672303552
 11
105.5483663026731
 21
8.254925472303555
  0
LINE
  5
C2
100
AcDbEntity
  8
0
  6
ByLayer
 62
  256
370
   -1
100
AcDbLine
 10
89.94654930267316
 20
20.44440087230355
 11
91.65272010267316
 21
6.548754672303552
  0
LINE
  5
C3
100
AcDbEntity
  8
0
  6
ByLayer
 62
  256
370
   -1
100
AcDbLine
 10
103.8421955026731
 20
22.15057167230355
 11
105.5483663026731
 21
8.254925472303555
  0
LINE
  5
C4
100
AcDbEntity
  8
0
  6
ByLayer
 62
  256
370
   -1
100
AcDbLine
 10
7.399370902673155
 20
-8.833804827696447
 11
21.29501710267317
 21
-7.127634027696445
  0
LINE
  5
C5
100
AcDbEntity
  8
0
  6
ByLayer
 62
  256
370
   -1
100
AcDbLine
 10
9.105541702673165
 20
-22.72945102769645
 11
23.00118790267317
 21
-21.02328022769644
  0
LINE
  5
C6
100
AcDbEntity
  8
0
  6
ByLayer
 62
  256
370
   -1
100
AcDbLine
 10
7.399370902673155
 20
-8.833804827696447
 11
9.105541702673165
 21
-22.72945102769645
  0
LINE
  5
C7
100
AcDbEntity
  8
0
  6
ByLayer
 62
  256
370
   -1
100
AcDbLine
 10
21.29501710267317
 20
-7.127634027696445
 11
23.00118790267317
 21
-21.02328022769644
  0
LINE
  5
C8
100
AcDbEntity
  8
0
  6
ByLayer
 62
  256
370
   -1
100
AcDbLine
 10
26.25774770267316
 20
-6.518287327696449
 11
40.15339390267314
 21
-4.812116527696446
  0
LINE
  5
C9
100
AcDbEntity
  8
0
  6
ByLayer
 62
  256
370
   -1
100
AcDbLine
 10
27.96391850267315
 20
-20.41393352769645
 11
41.85956470267317
 21
-18.70776272769644
  0
LINE
  5
CA
100
AcDbEntity
  8
0
  6
ByLayer
 62
  256
370
   -1
100
AcDbLine
 10
26.25774770267316
 20
-6.518287327696449
 11
27.96391850267315
 21
-20.41393352769645
  0
LINE
  5
CB
100
AcDbEntity
  8
0
  6
ByLayer
 62
  256
370
   -1
100
AcDbLine
 10
40.15339390267314
 20
-4.812116527696446
 11
41.85956470267317
 21
-18.70776272769644
  0
LINE
  5
CC
100
AcDbEntity
  8
0
  6
ByLayer
 62
  256
370
   -1
100
AcDbLine
 10
45.11612460267315
 20
-4.202769827696443
 11
59.01177080267317
 21
-2.496599027696448
  0
LINE
  5
CD
100
AcDbEntity
  8
0
  6
ByLayer
 62
  256
370
   -1
100
AcDbLine
 10
46.82229540267315
 20
-18.09841602769645
 11
60.71794160267316
 21
-16.39224522769644
  0
LINE
  5
CE
100
AcDbEntity
  8
0
  6
ByLayer
 62
  256
370
   -1
100
AcDbLine
 10
45.11612460267315
 20
-4.202769827696443
 11
46.82229540267315
 21
-18.09841602769645
  0
LINE
  5
CF
100
AcDbEntity
  8
0
  6
ByLayer
 62
  256
370
   -1
100
AcDbLine
 10
59.01177080267317
 20
-2.496599027696448
 11
60.71794160267316
 21
-16.39224522769644
  0
LINE
  5
D0
100
AcDbEntity
  8
0
  6
ByLayer
 62
  256
370
   -1
100
AcDbLine
 10
63.97450150267315
 20
-1.887252327696444
 11
77.87014770267317
 21
-0.181081527696449
  0
LINE
  5
D1
100
AcDbEntity
  8
0
  6
ByLayer
 62
  256
370
   -1
100
AcDbLine
 10
65.68067230267314
 20
-15.78289852769645
 11
79.57631850267316
 21
-14.07672772769644
  0
LINE
  5
D2
100
AcDbEntity
  8
0
  6
ByLayer
 62
  256
370
   -1
100
AcDbLine
 10
63.97450150267315
 20
-1.887252327696444
 11
65.68067230267314
 21
-15.78289852769645
  0
LINE
  5
D3
100
AcDbEntity
  8
0
  6
ByLayer
 62
  256
370
   -1
100
AcDbLine
 10
77.87014770267317
 20
-0.181081527696449
 11
79.57631850267316
 21
-14.07672772769644
  0
LINE
  5
D4
100
AcDbEntity
  8
0
  6
ByLayer
 62
  256
370
   -1
100
AcDbLine
 10
87.54747260267317
 20
1.007144572303552
 11
101.4431188026732
 21
2.713315372303555
  0
LINE
  5
D5
100
AcDbEntity
  8
0
  6
ByLayer
 62
  256
370
   -1
100
AcDbLine
 10
89.25364340267316
 20
-12.88850162769645
 11
103.1492896026732
 21
-11.18233082769645
  0
LINE
  5
D6
100
AcDbEntity
  8
0
  6
ByLayer
 62
  256
370
   -1
100
AcDbLine
 10
87.54747260267317
 20
1.007144572303552
 11
89.25364340267316
 21
-12.88850162769645
  0
LINE
  5
D7
100
AcDbEntity
  8
0
  6
ByLayer
 62
  256
370
   -1
100
AcDbLine
 10
101.4431188026732
 20
2.713315372303555
 11
103.1492896026732
 21
-11.18233082769645
  0
LINE
  5
D8
100
AcDbEntity
  8
0
  6
ByLayer
 62
  256
370
   -1
100
AcDbLine
 10
19.14407680267317
 20
-26.53442302769644
 11
33.03972300267316
 21
-24.82825222769645
  0
LINE
  5
D9
100
AcDbEntity
  8
0
  6
ByLayer
 62
  256
370
   -1
100
AcDbLine
 10
20.85024760267316
 20
-40.43006922769644
 11
34.74589380267315
 21
-38.72389842769645
  0
LINE
  5
DA
100
AcDbEntity
  8
0
  6
ByLayer
 62
  256
370
   -1
100
AcDbLine
 10
19.14407680267317
 20
-26.53442302769644
 11
20.85024760267316
 21
-40.43006922769644
  0
LINE
  5
DB
100
AcDbEntity
  8
0
  6
ByLayer
 62
  256
370
   -1
100
AcDbLine
 10
33.03972300267316
 20
-24.82825222769645
 11
34.74589380267315
 21
-38.72389842769645
  0
LINE
  5
DC
100
AcDbEntity
  8
0
  6
ByLayer
 62
  256
370
   -1
100
AcDbLine
 10
49.78893920267316
 20
-22.77170702769644
 11
63.68458540267315
 21
-21.06553622769645
  0
LINE
  5
DD
100
AcDbEntity
  8
0
  6
ByLayer
 62
  256
370
   -1
100
AcDbLine
 10
51.49511000267316
 20
-36.66735322769645
 11
65.39075620267315
 21
-34.96118242769645
  0
LINE
  5
DE
100
AcDbEntity
  8
0
  6
ByLayer
 62
  256
370
   -1
100
AcDbLine
 10
49.78893920267316
 20
-22.77170702769644
 11
51.49511000267316
 21
-36.66735322769645
  0
LINE
  5
DF
100
AcDbEntity
  8
0
  6
ByLayer
 62
  256
370
   -1
100
AcDbLine
 10
63.68458540267315
 20
-21.06553622769645
 11
65.39075620267315
 21
-34.96118242769645
  0
LINE
  5
E0
100
AcDbEntity
  8
keycap
  6
ByLayer
 62
  256
370
   -1
100
AcDbLine
 10
-70.53409215070388
 20
-36.26955542832321
 11
-4.529772980950682
 21
-44.37386669391318
  0
LINE
  5
E1
100
AcDbEntity
  8
keycap
  6
ByLayer
 62
  256
370
   -1
100
AcDbLine
 10
-68.21857463851858
 20
-17.41117845971549
 11
-70.53409215070388
 21
-36.26955542832321
  0
LINE
  5
E2
100
AcDbEntity
  8
keycap
  6
ByLayer
 62
  256
370
   -1
100
AcDbLine
 10
-110.649922544633
 20
-12.20126409084978
 11
-68.21857463851858
 21
-17.41117845971549
  0
LINE
  5
E3
100
AcDbEntity
  8
keycap
  6
ByLayer
 62
  256
370
   -1
100
AcDbLine
 10
-103.7033700213006
 20
44.37386670727638
 11
-110.649922544633
 21
-12.20126409084978
  0
LINE
  5
E4
100
AcDbEntity
  8
keycap
  6
ByLayer
 62
  256
370
   -1
100
AcDbLine
 10
-103.7033700213006
 20
44.37386670727638
 11
-9.411485550592587
 21
32.79627919206636
  0
LINE
  5
E5
100
AcDbEntity
  8
keycap
  6
ByLayer
 62
  256
370
   -1
100
AcDbLine
 10
0.101262037645995
 20
-6.657112803722676
 11
-4.529772980950682
 21
-44.37386669391318
  0
LINE
  5
E6
100
AcDbEntity
  8
keycap
  6
ByLayer
 62
  256
370
   -1
100
AcDbLine
 10
-9.327926360526533
 20
-5.499354058205633
 11
0.101262037645995
 21
-6.657112803722676
  0
LINE
  5
E7
100
AcDbEntity
  8
keycap
  6
ByLayer
 62
  256
370
   -1
100
AcDbLine
 10
-7.012408862354008
 20
13.35902279627732
 11
-9.327926360526533
 21
-5.499354058205633
  0
LINE
  5
E8
100
AcDbEntity
  8
keycap
  6
ByLayer
 62
  256
370
   -1
100
AcDbLine
 10
-11.72700306934107
 20
13.93790217000594
 11
-7.012408862354008
 21
13.35902279627732
  0
LINE
  5
E9
100
AcDbEntity
  8
keycap
  6
ByLayer
 62
  256
370
   -1
100
AcDbLine
 10
-9.411485550592587
 20
32.79627919206636
 11
-11.72700306934107
 21
13.93790217000594
  0
LINE
  5
EA
100
AcDbEntity
  8
keycap
  6
ByLayer
 62
  256
370
   -1
100
AcDbLine
 10
9.244367187937797
 20
-44.37386670727637
 11
70.5340920558946
 21
-36.84843482705612
  0
LINE
  5
EB
100
AcDbEntity
  8
keycap
  6
ByLayer
 62
  256
370
   -1
100
AcDbLine
 10
7.012408778699395
 20
12.78014333733073
 11
11.72700307679031
 21
13.3590227222455
  0
LINE
  5
EC
100
AcDbEntity
  8
keycap
  6
ByLayer
 62
  256
370
   -1
100
AcDbLine
 10
11.72700307679031
 20
13.3590227222455
 11
14.04252056587285
 21
-5.499354058205626
  0
LINE
  5
ED
100
AcDbEntity
  8
keycap
  6
ByLayer
 62
  256
370
   -1
100
AcDbLine
 10
4.613332167700321
 20
-6.657112803722683
 11
9.244367187937797
 21
-44.37386670727637
  0
LINE
  5
EE
100
AcDbEntity
  8
keycap
  6
ByLayer
 62
  256
370
   -1
100
AcDbLine
 10
4.613332167700321
 20
-6.657112803722683
 11
14.04252056587285
 21
-5.499354058205626
  0
LINE
  5
EF
100
AcDbEntity
  8
keycap
  6
ByLayer
 62
  256
370
   -1
100
AcDbLine
 10
4.696891267700323
 20
31.63852029627732
 11
7.012408778699395
 21
12.78014333733073
  0
LINE
  5
F0
100
AcDbEntity
  8
keycap
  6
ByLayer
 62
  256
370
   -1
100
AcDbLine
 10
4.696891267700323
 20
31.63852029627732
 11
103.7033700364992
 21
43.79498719640213
  0
LINE
  5
F1
100
AcDbEntity
  8
keycap
  6
ByLayer
 62
  256
370
   -1
100
AcDbLine
 10
103.7033700364992
 20
43.79498719640213
 11
110.649922544633
 21
-12.78014347794159
  0
LINE
  5
F2
100
AcDbEntity
  8
keycap
  6
ByLayer
 62
  256
370
   -1
100
AcDbLine
 10
68.21857454370931
 20
-17.9900578584484
 11
70.5340920558946
 21
-36.84843482705612
  0
LINE
  5
F3
100
AcDbEntity
  8
keycap
  6
ByLayer
 62
  256
370
   -1
100
AcDbLine
 10
68.21857454370931
 20
-17.9900578584484
 11
110.649922544633
 21
-12.78014347794159
  0
ARC
  5
F4
100
AcDbEntity
  8
edge
  6
ByLayer
 62
  256
370
   -1
100
AcDbCircle
 10
69.97688430890005
 20
-36.41309642226135
 40
1
100
AcDbArc
 50
276.9999999304209
 51
6.999999930420555
  0
LINE
  5
F5
100
AcDbEntity
  8
edge
  6
ByLayer
 62
  256
370
   -1
100
AcDbLine
 10
68.89765163290369
 20
-19.41794241503248
 11
70.96943046068937
 21
-36.29122708006155
  0
ARC
  5
F6
100
AcDbEntity
  8
edge
  6
ByLayer
 62
  256
370
   -1
100
AcDbCircle
 10
69.890197784693
 20
-19.29607307283267
 40
1
100
AcDbArc
 50
96.9999999304209
 51
186.9999999304207
  0
LINE
  5
F7
100
AcDbEntity
  8
edge
  6
ByLayer
 62
  256
370
   -1
100
AcDbLine
 10
69.76832844249319
 20
-18.30352692104334
 11
110.2145841398383
 21
-13.33735122493615
  0
ARC
  5
F8
100
AcDbEntity
  8
edge
  6
ByLayer
 62
  256
370
   -1
100
AcDbCircle
 10
110.0927147976385
 20
-12.34480507314683
 40
1
100
AcDbArc
 50
276.9999999304209
 51
6.999999930420555
  0
LINE
  5
F9
100
AcDbEntity
  8
edge
  6
ByLayer
 62
  256
370
   -1
100
AcDbLine
 10
104.2605777834938
 20
43.35964879160737
 11
111.0852609494278
 21
-12.22293573094702
  0
ARC
  5
FA
100
AcDbEntity
  8
edge
  6
ByLayer
 62
  256
370
   -1
100
AcDbCircle
 10
103.2680316317045
 20
43.23777944940756
 40
1
100
AcDbArc
 50
6.999999930420656
 51
96.99999993042093
  0
ARC
  5
FB
100
AcDbEntity
  8
edge
  6
ByLayer
 62
  256
370
   -1
100
AcDbCircle
 10
-69.97688440370932
 20
-35.83421702352845
 40
1
100
AcDbArc
 50
173.0000000695796
 51
263.0000000695791
  0
LINE
  5
FC
100
AcDbEntity
  8
edge
  6
ByLayer
 62
  256
370
   -1
100
AcDbLine
 10
-68.89765172771295
 20
-18.83906301629957
 11
-70.96943055549865
 21
-35.71234768132864
  0
ARC
  5
FD
100
AcDbEntity
  8
edge
  6
ByLayer
 62
  256
370
   -1
100
AcDbCircle
 10
-69.89019787950227
 20
-18.71719367409976
 40
1
100
AcDbArc
 50
353.0000000695792
 51
83.00000006957912
  0
LINE
  5
FE
100
AcDbEntity
  8
edge
  6
ByLayer
 62
  256
370
   -1
100
AcDbLine
 10
-110.2145841398382
 20
-12.75847183784435
 11
-69.76832853730245
 21
-17.72464752231043
  0
ARC
  5
FF
100
AcDbEntity
  8
edge
  6
ByLayer
 62
  256
370
   -1
100
AcDbCircle
 10
-110.0927147976384
 20
-11.76592568605503
 40
1
100
AcDbArc
 50
173.0000000695791
 51
263.0000000695791
  0
LINE
  5
100
100
AcDbEntity
  8
edge
  6
ByLayer
 62
  256
370
   -1
100
AcDbLine
 10
-104.2605777682952
 20
43.93852830248163
 11
-111.0852609494277
 21
-11.64405634385521
  0
ARC
  5
101
100
AcDbEntity
  8
edge
  6
ByLayer
 62
  256
370
   -1
100
AcDbCircle
 10
-103.2680316165059
 20
43.81665896028182
 40
1
100
AcDbArc
 50
83.00000006957904
 51
173.0000000695793
  0
CIRCLE
  5
102
100
AcDbEntity
  8
rpi
  6
ByLayer
 62
  256
370
   -1
100
AcDbCircle
 10
7.620000000000001
 20
15.24
 40
0.5
  0
CIRCLE
  5
103
100
AcDbEntity
  8
rpi
  6
ByLayer
 62
  256
370
   -1
100
AcDbCircle
 10
7.620000000000001
 20
12.7
 40
0.5
  0
CIRCLE
  5
104
100
AcDbEntity
  8
rpi
  6
ByLayer
 62
  256
370
   -1
100
AcDbCircle
 10
7.620000000000001
 20
10.16
 40
0.5
  0
CIRCLE
  5
105
100
AcDbEntity
  8
rpi
  6
ByLayer
 62
  256
370
   -1
100
AcDbCircle
 10
7.620000000000001
 20
7.62
 40
0.5
  0
CIRCLE
  5
106
100
AcDbEntity
  8
rpi
  6
ByLayer
 62
  256
370
   -1
100
AcDbCircle
 10
7.62
 20
5.08
 40
0.5
  0
CIRCLE
  5
107
100
AcDbEntity
  8
rpi
  6
ByLayer
 62
  256
370
   -1
100
AcDbCircle
 10
7.62
 20
2.54
 40
0.5
  0
CIRCLE
  5
108
100
AcDbEntity
  8
rpi
  6
ByLayer
 62
  256
370
   -1
100
AcDbCircle
 10
7.62
 20
0
 40
0.5
  0
CIRCLE
  5
109
100
AcDbEntity
  8
rpi
  6
ByLayer
 62
  256
370
   -1
100
AcDbCircle
 10
7.62
 20
-2.54
 40
0.5
  0
CIRCLE
  5
10A
100
AcDbEntity
  8
rpi
  6
ByLayer
 62
  256
370
   -1
100
AcDbCircle
 10
7.62
 20
-5.08
 40
0.5
  0
CIRCLE
  5
10B
100
AcDbEntity
  8
rpi
  6
ByLayer
 62
  256
370
   -1
100
AcDbCircle
 10
-7.62
 20
-5.08
 40
0.5
  0
CIRCLE
  5
10C
100
AcDbEntity
  8
rpi
  6
ByLayer
 62
  256
370
   -1
100
AcDbCircle
 10
-7.62
 20
-2.54
 40
0.5
  0
CIRCLE
  5
10D
100
AcDbEntity
  8
rpi
  6
ByLayer
 62
  256
370
   -1
100
AcDbCircle
 10
-7.62
 20
0
 40
0.5
  0
CIRCLE
  5
10E
100
AcDbEntity
  8
rpi
  6
ByLayer
 62
  256
370
   -1
100
AcDbCircle
 10
-7.62
 20
2.54
 40
0.5
  0
CIRCLE
  5
10F
100
AcDbEntity
  8
rpi
  6
ByLayer
 62
  256
370
   -1
100
AcDbCircle
 10
-7.62
 20
5.08
 40
0.5
  0
CIRCLE
  5
110
100
AcDbEntity
  8
rpi
  6
ByLayer
 62
  256
370
   -1
100
AcDbCircle
 10
-7.619999999999999
 20
7.62
 40
0.5
  0
CIRCLE
  5
111
100
AcDbEntity
  8
rpi
  6
ByLayer
 62
  256
370
   -1
100
AcDbCircle
 10
-7.619999999999999
 20
10.16
 40
0.5
  0
CIRCLE
  5
112
100
AcDbEntity
  8
rpi
  6
ByLayer
 62
  256
370
   -1
100
AcDbCircle
 10
-7.619999999999999
 20
12.7
 40
0.5
  0
CIRCLE
  5
113
100
AcDbEntity
  8
rpi
  6
ByLayer
 62
  256
370
   -1
100
AcDbCircle
 10
-7.619999999999999
 20
15.24
 40
0.5
  0
CIRCLE
  5
114
100
AcDbEntity
  8
rpi
  6
ByLayer
 62
  256
370
   -1
100
AcDbCircle
 10
-5.08
 20
-5.08
 40
0.5
  0
CIRCLE
  5
115
100
AcDbEntity
  8
rpi
  6
ByLayer
 62
  256
370
   -1
100
AcDbCircle
 10
-2.54
 20
-5.08
 40
0.5
  0
CIRCLE
  5
116
100
AcDbEntity
  8
rpi
  6
ByLayer
 62
  256
370
   -1
100
AcDbCircle
 10
-3.110602869834282e-16
 20
-5.08
 40
0.5
  0
CIRCLE
  5
117
100
AcDbEntity
  8
rpi
  6
ByLayer
 62
  256
370
   -1
100
AcDbCircle
 10
2.54
 20
-5.08
 40
0.5
  0
CIRCLE
  5
118
100
AcDbEntity
  8
rpi
  6
ByLayer
 62
  256
370
   -1
100
AcDbCircle
 10
5.08
 20
-5.08
 40
0.5
  0
LWPOLYLINE
  5
119
100
AcDbEntity
  8
rpi
  6
ByLayer
 62
  256
370
   -1
100
AcDbPolyline
 90
    4
 70
    1
 43
0
 10
-9
 20
16.83
 10
9
 20
16.83
 10
9
 20
-6.67
 10
-9
 20
-6.67
  0
LINE
  5
11A
100
AcDbEntity
  8
placement
  6
ByLayer
 62
  256
370
   -1
100
AcDbLine
 10
-101.5266779973268
 20
41.58782797230356
 11
-89.33720259732684
 21
25.98601097230355
  0
LINE
  5
11B
100
AcDbEntity
  8
placement
  6
ByLayer
 62
  256
370
   -1
100
AcDbLine
 10
-82.66830109732685
 20
39.27231037230355
 11
-70.47882569732684
 21
23.67049337230355
  0
LINE
  5
11C
100
AcDbEntity
  8
placement
  6
ByLayer
 62
  256
370
   -1
100
AcDbLine
 10
-63.80992419732684
 20
36.95679287230355
 11
-51.62044879732684
 21
21.35497587230356
  0
LINE
  5
11D
100
AcDbEntity
  8
placement
  6
ByLayer
 62
  256
370
   -1
100
AcDbLine
 10
-44.95154729732684
 20
34.64127537230355
 11
-32.76207189732685
 21
19.03945837230355
  0
LINE
  5
11E
100
AcDbEntity
  8
placement
  6
ByLayer
 62
  256
370
   -1
100
AcDbLine
 10
-26.09317049732684
 20
32.32575787230356
 11
-13.90369509732685
 21
16.72394087230355
  0
LINE
  5
11F
100
AcDbEntity
  8
placement
  6
ByLayer
 62
  256
370
   -1
100
AcDbLine
 10
-23.69409379732684
 20
12.88850157230355
 11
-11.50461839732684
 21
-2.713315427696443
  0
LINE
  5
120
100
AcDbEntity
  8
placement
  6
ByLayer
 62
  256
370
   -1
100
AcDbLine
 10
-42.55247059732685
 20
15.20401907230355
 11
-30.36299519732684
 21
-0.3977979276964447
  0
LINE
  5
121
100
AcDbEntity
  8
placement
  6
ByLayer
 62
  256
370
   -1
100
AcDbLine
 10
-61.41084749732684
 20
17.51953667230355
 11
-49.22137209732684
 21
1.917719672303555
  0
LINE
  5
122
100
AcDbEntity
  8
placement
  6
ByLayer
 62
  256
370
   -1
100
AcDbLine
 10
-101.4848983973268
 20
22.44001137230355
 11
-89.29542299732685
 21
6.838194372303557
  0
LINE
  5
123
100
AcDbEntity
  8
placement
  6
ByLayer
 62
  256
370
   -1
100
AcDbLine
 10
-80.26922439732682
 20
19.83505417230355
 11
-68.07974899732685
 21
4.233237172303554
  0
LINE
  5
124
100
AcDbEntity
  8
placement
  6
ByLayer
 62
  256
370
   -1
100
AcDbLine
 10
-99.08582169732685
 20
3.00275507230355
 11
-86.89634629732684
 21
-12.59906192769645
  0
LINE
  5
125
100
AcDbEntity
  8
placement
  6
ByLayer
 62
  256
370
   -1
100
AcDbLine
 10
-73.15555349732685
 20
-0.181081527696449
 11
-60.96607809732684
 21
-15.78289852769645
  0
LINE
  5
126
100
AcDbEntity
  8
placement
  6
ByLayer
 62
  256
370
   -1
100
AcDbLine
 10
-54.29717659732683
 20
-2.496599027696449
 11
-42.10770119732685
 21
-18.09841602769645
  0
LINE
  5
127
100
AcDbEntity
  8
placement
  6
ByLayer
 62
  256
370
   -1
100
AcDbLine
 10
-35.43879969732684
 20
-4.812116527696445
 11
-23.24932429732683
 21
-20.41393352769645
  0
LINE
  5
128
100
AcDbEntity
  8
placement
  6
ByLayer
 62
  256
370
   -1
100
AcDbLine
 10
-16.58042289732684
 20
-7.127634027696445
 11
-4.390947497326849
 21
-22.72945102769645
  0
LINE
  5
129
100
AcDbEntity
  8
placement
  6
ByLayer
 62
  256
370
   -1
100
AcDbLine
 10
-30.68242589732684
 20
-24.53881252769644
 11
-18.49295049732685
 21
-40.14062952769644
  0
LINE
  5
12A
100
AcDbEntity
  8
placement
  6
ByLayer
 62
  256
370
   -1
100
AcDbLine
 10
-63.68458549732684
 20
-20.48665682769644
 11
-51.49511009732684
 21
-36.08847382769644
  0
LINE
  5
12B
100
AcDbEntity
  8
placement
  6
ByLayer
 62
  256
370
   -1
100
AcDbLine
 10
19.14407680267317
 20
-26.53442302769644
 11
34.74589380267315
 21
-38.72389842769644
  0
LINE
  5
12C
100
AcDbEntity
  8
placement
  6
ByLayer
 62
  256
370
   -1
100
AcDbLine
 10
49.78893920267316
 20
-22.77170702769645
 11
65.39075620267315
 21
-34.96118242769645
  0
LINE
  5
12D
100
AcDbEntity
  8
placement
  6
ByLayer
 62
  256
370
   -1
100
AcDbLine
 10
63.97450150267315
 20
-1.887252327696444
 11
79.57631850267316
 21
-14.07672772769644
  0
LINE
  5
12E
100
AcDbEntity
  8
placement
  6
ByLayer
 62
  256
370
   -1
100
AcDbLine
 10
45.11612460267316
 20
-4.202769827696442
 11
60.71794160267316
 21
-16.39224522769644
  0
LINE
  5
12F
100
AcDbEntity
  8
placement
  6
ByLayer
 62
  256
370
   -1
100
AcDbLine
 10
26.25774770267315
 20
-6.518287327696449
 11
41.85956470267317
 21
-18.70776272769644
  0
LINE
  5
130
100
AcDbEntity
  8
placement
  6
ByLayer
 62
  256
370
   -1
100
AcDbLine
 10
7.399370902673155
 20
-8.833804827696447
 11
23.00118790267317
 21
-21.02328022769644
  0
LINE
  5
131
100
AcDbEntity
  8
placement
  6
ByLayer
 62
  256
370
   -1
100
AcDbLine
 10
14.51304180267316
 20
11.18233077230355
 11
30.11485880267315
 21
-1.007144627696448
  0
LINE
  5
132
100
AcDbEntity
  8
placement
  6
ByLayer
 62
  256
370
   -1
100
AcDbLine
 10
33.37141860267315
 20
13.49784827230356
 11
48.97323560267316
 21
1.308372872303551
  0
LINE
  5
133
100
AcDbEntity
  8
placement
  6
ByLayer
 62
  256
370
   -1
100
AcDbLine
 10
52.22979550267317
 20
15.81336587230356
 11
67.83161250267315
 21
3.623890472303552
  0
LINE
  5
134
100
AcDbEntity
  8
placement
  6
ByLayer
 62
  256
370
   -1
100
AcDbLine
 10
71.08817240267317
 20
18.12888337230356
 11
86.68998940267315
 21
5.939407972303556
  0
LINE
  5
135
100
AcDbEntity
  8
placement
  6
ByLayer
 62
  256
370
   -1
100
AcDbLine
 10
7.482930002673157
 20
29.46182827230355
 11
23.08474700267317
 21
17.27235287230356
  0
LINE
  5
136
100
AcDbEntity
  8
placement
  6
ByLayer
 62
  256
370
   -1
100
AcDbLine
 10
26.34130690267315
 20
31.77734577230355
 11
41.94312390267316
 21
19.58787037230356
  0
LINE
  5
137
100
AcDbEntity
  8
placement
  6
ByLayer
 62
  256
370
   -1
100
AcDbLine
 10
45.19968380267315
 20
34.09286337230355
 11
60.80150080267316
 21
21.90338797230356
  0
LINE
  5
138
100
AcDbEntity
  8
placement
  6
ByLayer
 62
  256
370
   -1
100
AcDbLine
 10
64.05806070267315
 20
36.40838087230355
 11
79.65987770267316
 21
24.21890547230356
  0
LINE
  5
139
100
AcDbEntity
  8
placement
  6
ByLayer
 62
  256
370
   -1
100
AcDbLine
 10
85.27373470267315
 20
39.01333807230355
 11
100.8755517026732
 21
26.82386267230356
  0
LINE
  5
13A
100
AcDbEntity
  8
placement
  6
ByLayer
 62
  256
370
   -1
100
AcDbLine
 10
89.94654930267316
 20
20.44440087230355
 11
105.5483663026731
 21
8.254925472303555
  0
LINE
  5
13B
100
AcDbEntity
  8
placement
  6
ByLayer
 62
  256
370
   -1
100
AcDbLine
 10
87.54747260267317
 20
1.007144572303552
 11
103.1492896026732
 21
-11.18233082769645
  0
CIRCLE
  5
13C
100
AcDbEntity
  8
percage
  6
ByLayer
 62
  256
370
   -1
100
AcDbCircle
 10
2.357297101040899
 20
-33.63833413946914
 40
1.5
  0
CIRCLE
  5
13D
100
AcDbEntity
  8
percage
  6
ByLayer
 62
  256
370
   -1
100
AcDbCircle
 10
95.41105050267313
 20
23.63413177230355
 40
1.5
  0
CIRCLE
  5
13E
100
AcDbEntity
  8
percage
  6
ByLayer
 62
  256
370
   -1
100
AcDbCircle
 10
-95.41105049732684
 20
24.21301117230355
 40
1.5
  0
CIRCLE
  5
13F
100
AcDbEntity
  8
percage
  6
ByLayer
 62
  256
370
   -1
100
AcDbCircle
 10
83.56189555267316
 20
-6.534791577696449
 40
1.5
  0
CIRCLE
  5
140
100
AcDbEntity
  8
percage
  6
ByLayer
 62
  256
370
   -1
100
AcDbCircle
 10
-80.02594989732685
 20
-6.390071727696447
 40
1.5
  0
ARC
  5
141
100
AcDbEntity
  8
ext1
  6
ByLayer
 62
  256
370
   -1
100
AcDbCircle
 10
103.2680316317045
 20
43.23777944940756
 40
1.8
100
AcDbArc
 50
6.999999930420656
 51
96.99999993042093
  0
LINE
  5
142
100
AcDbEntity
  8
ext1
  6
ByLayer
 62
  256
370
   -1
100
AcDbLine
 10
105.0546147049253
 20
43.45714426536722
 11
111.8792978708593
 21
-12.12544025718717
  0
ARC
  5
143
100
AcDbEntity
  8
ext1
  6
ByLayer
 62
  256
370
   -1
100
AcDbCircle
 10
110.0927147976385
 20
-12.34480507314683
 40
1.8
100
AcDbArc
 50
276.9999999304209
 51
6.999999930420555
  0
LINE
  5
144
100
AcDbEntity
  8
ext1
  6
ByLayer
 62
  256
370
   -1
100
AcDbLine
 10
69.86582391625304
 20
-19.09756384247479
 11
110.3120796135981
 21
-14.13138814636761
  0
ARC
  5
145
100
AcDbEntity
  8
ext1
  6
ByLayer
 62
  256
370
   -1
100
AcDbCircle
 10
69.890197784693
 20
-19.29607307283267
 40
0.2
100
AcDbArc
 50
96.9999999304209
 51
186.9999999304207
  0
LINE
  5
146
100
AcDbEntity
  8
ext1
  6
ByLayer
 62
  256
370
   -1
100
AcDbLine
 10
69.69168855433514
 20
-19.32044694127263
 11
71.76346738212082
 21
-36.1937316063017
  0
ARC
  5
147
100
AcDbEntity
  8
ext1
  6
ByLayer
 62
  256
370
   -1
100
AcDbCircle
 10
69.97688430890005
 20
-36.41309642226135
 40
1.8
100
AcDbArc
 50
276.9999999304209
 51
6.999999930420555
  0
ARC
  5
148
100
AcDbEntity
  8
ext1
  6
ByLayer
 62
  256
370
   -1
100
AcDbCircle
 10
-69.97688440370932
 20
-35.83421702352845
 40
1.8
100
AcDbArc
 50
173.0000000695796
 51
263.0000000695791
  0
LINE
  5
149
100
AcDbEntity
  8
ext1
  6
ByLayer
 62
  256
370
   -1
100
AcDbLine
 10
-69.69168864914441
 20
-18.74156754253972
 11
-71.7634674769301
 21
-35.61485220756879
  0
LINE
  5
14A
100
AcDbEntity
  8
ext1
  6
ByLayer
 62
  256
370
   -1
100
AcDbLine
 10
-110.312079613598
 20
-13.55250875927581
 11
-69.8658240110623
 21
-18.51868444374189
  0
ARC
  5
14B
100
AcDbEntity
  8
ext1
  6
ByLayer
 62
  256
370
   -1
100
AcDbCircle
 10
-69.89019787950227
 20
-18.71719367409976
 40
0.2
100
AcDbArc
 50
353.0000000695792
 51
83.00000006957912
  0
ARC
  5
14C
100
AcDbEntity
  8
ext1
  6
ByLayer
 62
  256
370
   -1
100
AcDbCircle
 10
-110.0927147976384
 20
-11.76592568605503
 40
1.8
100
AcDbArc
 50
173.0000000695791
 51
263.0000000695791
  0
LINE
  5
14D
100
AcDbEntity
  8
ext1
  6
ByLayer
 62
  256
370
   -1
100
AcDbLine
 10
-105.0546146897267
 20
44.03602377624148
 11
-111.8792978708592
 21
-11.54656087009536
  0
ARC
  5
14E
100
AcDbEntity
  8
ext1
  6
ByLayer
 62
  256
370
   -1
100
AcDbCircle
 10
-103.2680316165059
 20
43.81665896028182
 40
1.8
100
AcDbArc
 50
83.00000006957904
 51
173.0000000695793
  0
LINE
  5
14F
100
AcDbEntity
  8
ext2
  6
ByLayer
 62
  256
370
   -1
100
AcDbLine
 10
109.0247993120825
 20
43.94462163416647
 11
115.8494824780165
 21
-11.63796288838792
  0
ARC
  5
150
100
AcDbEntity
  8
ext2
  6
ByLayer
 62
  256
370
   -1
100
AcDbCircle
 10
110.0927147976385
 20
-12.34480507314683
 40
5.8
100
AcDbArc
 50
276.9999999304209
 51
6.999999930420555
  0
ARC
  5
151
100
AcDbEntity
  8
ext2
  6
ByLayer
 62
  256
370
   -1
100
AcDbCircle
 10
69.97688430890005
 20
-36.41309642226135
 40
5.8
100
AcDbArc
 50
276.9999999304209
 51
6.999999930420555
  0
LINE
  5
152
100
AcDbEntity
  8
ext2
  6
ByLayer
 62
  256
370
   -1
100
AcDbLine
 10
10.81301689329174
 20
-49.52106281806337
 11
70.68372649365897
 21
-42.16986410263939
  0
ARC
  5
153
100
AcDbEntity
  8
ext2
  6
ByLayer
 62
  256
370
   -1
100
AcDbCircle
 10
8.375630049295523
 20
-29.67013978227699
 40
20
100
AcDbArc
 50
269.9999999449012
 51
276.9999999304206
  0
LINE
  5
154
100
AcDbEntity
  8
ext2
  6
ByLayer
 62
  256
370
   -1
100
AcDbLine
 10
-3.661035846979034
 20
-49.67013977070186
 11
8.375630030062398
 21
-49.670139782277
  0
LINE
  5
155
100
AcDbEntity
  8
ext2
  6
ByLayer
 62
  256
370
   -1
100
AcDbLine
 10
-70.68372658846823
 20
-41.5909847039065
 11
-6.0984226717421
 21
-49.52106280648823
  0
ARC
  5
156
100
AcDbEntity
  8
ext2
  6
ByLayer
 62
  256
370
   -1
100
AcDbCircle
 10
-3.661035827745906
 20
-29.67013977070186
 40
20
100
AcDbArc
 50
263.0000000695794
 51
269.9999999449012
  0
LINE
  5
157
100
AcDbEntity
  8
ext1
  6
ByLayer
 62
  256
370
   -1
100
AcDbLine
 10
10.56836641704382
 20
-45.5210628178281
 11
70.19624912485972
 21
-38.19967949548212
  0
ARC
  5
158
100
AcDbEntity
  8
ext1
  6
ByLayer
 62
  256
370
   -1
100
AcDbCircle
 10
8.130979573047597
 20
-25.67013978204173
 40
20
100
AcDbArc
 50
269.9999999449012
 51
276.9999999304207
  0
LINE
  5
159
100
AcDbEntity
  8
ext1
  6
ByLayer
 62
  256
370
   -1
100
AcDbLine
 10
-3.416385366898804
 20
-45.67013977093713
 11
8.130979553814477
 21
-45.67013978204173
  0
LINE
  5
15A
100
AcDbEntity
  8
ext1
  6
ByLayer
 62
  256
370
   -1
100
AcDbLine
 10
-70.19624921966899
 20
-37.62080009674923
 11
-5.853772191661889
 21
-45.52106280672351
  0
ARC
  5
15B
100
AcDbEntity
  8
ext1
  6
ByLayer
 62
  256
370
   -1
100
AcDbCircle
 10
-3.416385347665681
 20
-25.67013977093714
 40
20
100
AcDbArc
 50
263.0000000695794
 51
269.9999999449012
  0
LINE
  5
15C
100
AcDbEntity
  8
edge
  6
ByLayer
 62
  256
370
   -1
100
AcDbLine
 10
10.51943632179412
 20
-44.72106281778105
 11
70.09875365109987
 21
-37.40564257405067
  0
ARC
  5
15D
100
AcDbEntity
  8
edge
  6
ByLayer
 62
  256
370
   -1
100
AcDbCircle
 10
8.082049477797909
 20
-24.87013978199468
 40
20
100
AcDbArc
 50
269.9999999449012
 51
276.9999999304206
  0
LINE
  5
15E
100
AcDbEntity
  8
edge
  6
ByLayer
 62
  256
370
   -1
100
AcDbLine
 10
-3.367455270882759
 20
-44.87013977098419
 11
8.082049458564786
 21
-44.87013978199468
  0
LINE
  5
15F
100
AcDbEntity
  8
edge
  6
ByLayer
 62
  256
370
   -1
100
AcDbLine
 10
-70.09875374590914
 20
-36.82676317531777
 11
-5.804842095645839
 21
-44.72106280677057
  0
ARC
  5
160
100
AcDbEntity
  8
edge
  6
ByLayer
 62
  256
370
   -1
100
AcDbCircle
 10
-3.367455251649631
 20
-24.87013977098419
 40
20
100
AcDbArc
 50
263.0000000695794
 51
269.9999999449012
  0
LINE
  5
161
100
AcDbEntity
  8
edge
  6
ByLayer
 62
  256
370
   -1
100
AcDbLine
 10
4.794684513570167
 20
32.15428270956446
 11
103.1461622895047
 21
44.23032560119688
  0
LINE
  5
162
100
AcDbEntity
  8
edge
  6
ByLayer
 62
  256
370
   -1
100
AcDbLine
 10
-103.1461622743061
 20
44.80920511207113
 11
-0.0800891744222838
 21
32.15428270956444
  0
ARC
  5
163
100
AcDbEntity
  8
edge
  6
ByLayer
 62
  256
370
   -1
100
AcDbCircle
 10
2.357297669573938
 20
52.00520574535081
 40
20
100
AcDbArc
 50
263.0000000695793
 51
276.9999999304207
  0
LINE
  5
164
100
AcDbEntity
  8
ext1
  6
ByLayer
 62
  256
370
   -1
100
AcDbLine
 10
4.794684513570058
 20
32.96029056981133
 11
103.0486668157449
 21
45.02436252262834
  0
LINE
  5
165
100
AcDbEntity
  8
ext1
  6
ByLayer
 62
  256
370
   -1
100
AcDbLine
 10
-103.0486668005463
 20
45.60324203350259
 11
-0.08008917442238328
 21
32.96029056981134
  0
ARC
  5
166
100
AcDbEntity
  8
ext1
  6
ByLayer
 62
  256
370
   -1
100
AcDbCircle
 10
2.357297669573825
 20
52.81121360559771
 40
20
100
AcDbArc
 50
263.0000000695794
 51
276.9999999304208
  0
LINE
  5
167
100
AcDbEntity
  8
ext2
  6
ByLayer
 62
  256
370
   -1
100
AcDbLine
 10
-109.0247992968839
 20
44.52350114504072
 11
-115.8494824780164
 21
-11.05908350129612
  0
ARC
  5
168
100
AcDbEntity
  8
ext2
  6
ByLayer
 62
  256
370
   -1
100
AcDbCircle
 10
-110.0927147976384
 20
-11.76592568605503
 40
5.8
100
AcDbArc
 50
173.0000000695791
 51
263.0000000695791
  0
ARC
  5
169
100
AcDbEntity
  8
ext2
  6
ByLayer
 62
  256
370
   -1
100
AcDbCircle
 10
-69.97688440370932
 20
-35.83421702352845
 40
5.8
100
AcDbArc
 50
173.0000000695796
 51
263.0000000695791
  0
LINE
  5
16A
100
AcDbEntity
  8
ext2
  6
ByLayer
 62
  256
370
   -1
100
AcDbLine
 10
74.73432337285077
 20
-27.56737570821938
 11
75.7336519892781
 21
-35.70625423750246
  0
LINE
  5
16B
100
AcDbEntity
  8
ext2
  6
ByLayer
 62
  256
370
   -1
100
AcDbLine
 10
79.0877074207983
 20
-21.99529823827373
 11
110.7995569823974
 21
-18.10157275352488
  0
ARC
  5
16C
100
AcDbEntity
  8
ext2
  6
ByLayer
 62
  256
370
   -1
100
AcDbCircle
 10
79.69705413179736
 20
-26.95802899722032
 40
5
100
AcDbArc
 50
96.99999993042076
 51
186.9999999304207
  0
LINE
  5
16D
100
AcDbEntity
  8
ext2
  6
ByLayer
 62
  256
370
   -1
100
AcDbLine
 10
-110.7995569823973
 20
-17.52269336643308
 11
-79.08770751560758
 21
-21.41641883954081
  0
LINE
  5
16E
100
AcDbEntity
  8
ext2
  6
ByLayer
 62
  256
370
   -1
100
AcDbLine
 10
-74.73432346766003
 20
-26.98849630948646
 11
-75.73365208408738
 21
-35.12737483876954
  0
ARC
  5
16F
100
AcDbEntity
  8
ext2
  6
ByLayer
 62
  256
370
   -1
100
AcDbCircle
 10
-79.69705422660662
 20
-26.3791495984874
 40
5
100
AcDbArc
 50
353.0000000695792
 51
83.0000000695794
  0
ARC
  5
170
100
AcDbEntity
  8
ext2
  6
ByLayer
 62
  256
370
   -1
100
AcDbCircle
 10
103.2680316317045
 20
43.23777944940756
 40
5.8
100
AcDbArc
 50
6.999999930420656
 51
89.83941174510828
  0
ARC
  5
171
100
AcDbEntity
  8
ext2
  6
ByLayer
 62
  256
370
   -1
100
AcDbCircle
 10
-103.2680316165059
 20
43.81665896028182
 40
5.8
100
AcDbArc
 50
89.83942331376362
 51
173.0000000695793
  0
LINE
  5
172
100
AcDbEntity
  8
ext2
  6
ByLayer
 62
  256
370
   -1
100
AcDbLine
 10
103.2842878143904
 20
49.03775666802873
 11
-103.2517766048999
 21
49.61663618218517
  0
ARC
  5
173
100
AcDbEntity
  8
ext3
  6
ByLayer
 62
  256
370
   -1
100
AcDbCircle
 10
103.2680316317045
 20
43.23777944940756
 40
7.8
100
AcDbArc
 50
6.999999930420656
 51
89.83941174510828
  0
LINE
  5
174
100
AcDbEntity
  8
ext3
  6
ByLayer
 62
  256
370
   -1
100
AcDbLine
 10
111.0098916156612
 20
44.18836031856609
 11
117.8345747815952
 21
-11.3942242039883
  0
ARC
  5
175
100
AcDbEntity
  8
ext3
  6
ByLayer
 62
  256
370
   -1
100
AcDbCircle
 10
110.0927147976385
 20
-12.34480507314683
 40
7.8
100
AcDbArc
 50
276.9999999304209
 51
6.999999930420555
  0
LINE
  5
176
100
AcDbEntity
  8
ext3
  6
ByLayer
 62
  256
370
   -1
100
AcDbLine
 10
79.33144610519793
 20
-23.98039054185236
 11
111.043295666797
 21
-20.08666505710352
  0
LINE
  5
177
100
AcDbEntity
  8
ext3
  6
ByLayer
 62
  256
370
   -1
100
AcDbLine
 10
76.71941567642941
 20
-27.32363702381976
 11
77.71874429285674
 21
-35.46251555310283
  0
ARC
  5
178
100
AcDbEntity
  8
ext3
  6
ByLayer
 62
  256
370
   -1
100
AcDbCircle
 10
79.69705413179736
 20
-26.95802899722032
 40
3
100
AcDbArc
 50
96.99999993042076
 51
186.9999999304207
  0
ARC
  5
179
100
AcDbEntity
  8
ext3
  6
ByLayer
 62
  256
370
   -1
100
AcDbCircle
 10
69.97688430890005
 20
-36.41309642226135
 40
7.8
100
AcDbArc
 50
276.9999999304209
 51
6.999999930420555
  0
LINE
  5
17A
100
AcDbEntity
  8
ext3
  6
ByLayer
 62
  256
370
   -1
100
AcDbLine
 10
11.05675557769136
 20
-51.50615512164201
 11
70.92746517805858
 21
-44.15495640621803
  0
ARC
  5
17B
100
AcDbEntity
  8
ext3
  6
ByLayer
 62
  256
370
   -1
100
AcDbCircle
 10
8.375630049295523
 20
-29.67013978227699
 40
22
100
AcDbArc
 50
269.9999999449012
 51
276.9999999304206
  0
LINE
  5
17C
100
AcDbEntity
  8
ext3
  6
ByLayer
 62
  256
370
   -1
100
AcDbLine
 10
-3.661035848902349
 20
-51.67013977070186
 11
8.375630028139083
 21
-51.670139782277
  0
LINE
  5
17D
100
AcDbEntity
  8
ext3
  6
ByLayer
 62
  256
370
   -1
100
AcDbLine
 10
-70.92746527286785
 20
-43.57607700748514
 11
-6.34216135614172
 21
-51.50615511006687
  0
ARC
  5
17E
100
AcDbEntity
  8
ext3
  6
ByLayer
 62
  256
370
   -1
100
AcDbCircle
 10
-3.661035827745906
 20
-29.67013977070186
 40
22
100
AcDbArc
 50
263.0000000695794
 51
269.9999999449012
  0
ARC
  5
17F
100
AcDbEntity
  8
ext3
  6
ByLayer
 62
  256
370
   -1
100
AcDbCircle
 10
-69.97688440370932
 20
-35.83421702352845
 40
7.8
100
AcDbArc
 50
173.0000000695796
 51
263.0000000695791
  0
LINE
  5
180
100
AcDbEntity
  8
ext3
  6
ByLayer
 62
  256
370
   -1
100
AcDbLine
 10
-111.0432956667969
 20
-19.50778567001172
 11
-79.33144620000721
 21
-23.40151114311945
  0
ARC
  5
181
100
AcDbEntity
  8
ext3
  6
ByLayer
 62
  256
370
   -1
100
AcDbCircle
 10
-79.69705422660662
 20
-26.3791495984874
 40
3
100
AcDbArc
 50
353.0000000695792
 51
83.0000000695794
  0
LINE
  5
182
100
AcDbEntity
  8
ext3
  6
ByLayer
 62
  256
370
   -1
100
AcDbLine
 10
-76.71941577123867
 20
-26.74475762508684
 11
-77.71874438766602
 21
-34.88363615436991
  0
ARC
  5
183
100
AcDbEntity
  8
ext3
  6
ByLayer
 62
  256
370
   -1
100
AcDbCircle
 10
-110.0927147976384
 20
-11.76592568605503
 40
7.8
100
AcDbArc
 50
173.0000000695791
 51
263.0000000695791
  0
LINE
  5
184
100
AcDbEntity
  8
ext3
  6
ByLayer
 62
  256
370
   -1
100
AcDbLine
 10
-111.0098916004626
 20
44.76723982944034
 11
-117.8345747815951
 21
-10.8153448168965
  0
ARC
  5
185
100
AcDbEntity
  8
ext3
  6
ByLayer
 62
  256
370
   -1
100
AcDbCircle
 10
-103.2680316165059
 20
43.81665896028182
 40
7.8
100
AcDbArc
 50
89.83942331376362
 51
173.0000000695793
  0
LINE
  5
186
100
AcDbEntity
  8
ext3
  6
ByLayer
 62
  256
370
   -1
100
AcDbLine
 10
-103.246171428484
 20
51.61662832766908
 11
103.289893394627
 21
51.03774881238085
  0
ARC
  5
187
100
AcDbEntity
  8
int
  6
ByLayer
 62
  256
370
   -1
100
AcDbCircle
 10
2.357297669573938
 20
52.00520574535081
 40
21
100
AcDbArc
 50
263.0000000695793
 51
276.9999999304207
  0
ARC
  5
188
100
AcDbEntity
  8
int
  6
ByLayer
 62
  256
370
   -1
100
AcDbCircle
 10
69.890197784693
 20
-19.29607307283267
 40
2
100
AcDbArc
 50
96.9999999304209
 51
186.9999999304207
  0
ARC
  5
189
100
AcDbEntity
  8
int
  6
ByLayer
 62
  256
370
   -1
100
AcDbCircle
 10
8.082049477797909
 20
-24.87013978199468
 40
19
100
AcDbArc
 50
269.9999999449012
 51
276.9999999304206
  0
ARC
  5
18A
100
AcDbEntity
  8
int
  6
ByLayer
 62
  256
370
   -1
100
AcDbCircle
 10
-3.367455251649631
 20
-24.87013977098419
 40
19
100
AcDbArc
 50
263.0000000695794
 51
269.9999999449012
  0
ARC
  5
18B
100
AcDbEntity
  8
int
  6
ByLayer
 62
  256
370
   -1
100
AcDbCircle
 10
-69.89019787950227
 20
-18.71719367409976
 40
2
100
AcDbArc
 50
353.0000000695792
 51
83.00000006957912
  0
LINE
  5
18C
100
AcDbEntity
  8
int
  6
ByLayer
 62
  256
370
   -1
100
AcDbLine
 10
-69.48061132781467
 20
-35.89515169462835
 11
-5.682972753446028
 21
-43.72851665498125
  0
LINE
  5
18D
100
AcDbEntity
  8
int
  6
ByLayer
 62
  256
370
   -1
100
AcDbLine
 10
-67.90510557592364
 20
-18.96093235849938
 11
-69.91594973260943
 21
-35.3379439476338
  0
ARC
  5
18E
100
AcDbEntity
  8
int
  6
ByLayer
 62
  256
370
   -1
100
AcDbCircle
 10
-69.41967665671477
 20
-35.3988786187337
 40
0.5
100
AcDbArc
 50
173.0000000695791
 51
263.0000000695797
  0
ARC
  5
18F
100
AcDbEntity
  8
int
  6
ByLayer
 62
  256
370
   -1
100
AcDbCircle
 10
-109.5355070506438
 20
-11.33058728126028
 40
0.5
100
AcDbArc
 50
173.0000000695796
 51
263.0000000695798
  0
LINE
  5
190
100
AcDbEntity
  8
int
  6
ByLayer
 62
  256
370
   -1
100
AcDbLine
 10
-102.7717585406112
 20
43.75572428918191
 11
-0.2019585166220945
 21
31.16173655777512
  0
ARC
  5
191
100
AcDbEntity
  8
int
  6
ByLayer
 62
  256
370
   -1
100
AcDbCircle
 10
-102.8326932117111
 20
43.25945121328724
 40
0.5
100
AcDbArc
 50
83.00000006957994
 51
173.0000000695791
  0
LINE
  5
192
100
AcDbEntity
  8
int
  6
ByLayer
 62
  256
370
   -1
100
AcDbLine
 10
4.916553855769979
 20
31.16173655777514
 11
102.7717585558098
 21
43.17684477830765
  0
ARC
  5
193
100
AcDbEntity
  8
int
  6
ByLayer
 62
  256
370
   -1
100
AcDbCircle
 10
102.8326932269097
 20
42.68057170241299
 40
0.5
100
AcDbArc
 50
6.99999993042086
 51
96.99999993042339
  0
ARC
  5
194
100
AcDbEntity
  8
int
  6
ByLayer
 62
  256
370
   -1
100
AcDbCircle
 10
109.5355070506439
 20
-11.90946666835208
 40
0.5
100
AcDbArc
 50
276.9999999304218
 51
6.999999930420656
  0
LINE
  5
195
100
AcDbEntity
  8
int
  6
ByLayer
 62
  256
370
   -1
100
AcDbLine
 10
10.39756697959431
 20
-43.72851666599173
 11
69.48061123300538
 21
-36.47403109336125
  0
LINE
  5
196
100
AcDbEntity
  8
int
  6
ByLayer
 62
  256
370
   -1
100
AcDbLine
 10
67.90510548111438
 20
-19.53981175723229
 11
69.91594963780015
 21
-35.91682334636669
  0
ARC
  5
197
100
AcDbEntity
  8
int
  6
ByLayer
 62
  256
370
   -1
100
AcDbCircle
 10
69.41967656190548
 20
-35.9777580174666
 40
0.5
100
AcDbArc
 50
276.9999999304201
 51
6.999999930420656
  0
LINE
  5
198
100
AcDbEntity
  8
int
  6
ByLayer
 62
  256
370
   -1
100
AcDbLine
 10
103.3289663028044
 20
42.7415063735129
 11
105.1570064330872
 21
27.85331411877968
  0
ARC
  5
199
100
AcDbEntity
  8
int
  6
ByLayer
 62
  256
370
   -1
100
AcDbCircle
 10
104.6607333571926
 20
27.79237944767977
 40
0.5
100
AcDbArc
 50
276.9999999304202
 51
6.99999993042086
  0
LINE
  5
19A
100
AcDbEntity
  8
int
  6
ByLayer
 62
  256
370
   -1
100
AcDbLine
 10
89.83347567650317
 20
25.46806622958531
 11
104.7216680282925
 21
27.29610637178512
  0
ARC
  5
19B
100
AcDbEntity
  8
int
  6
ByLayer
 62
  256
370
   -1
100
AcDbCircle
 10
89.89441034760307
 20
24.97179315369065
 40
0.5
100
AcDbArc
 50
96.9999999304201
 51
186.9999999304206
  0
LINE
  5
19C
100
AcDbEntity
  8
int
  6
ByLayer
 62
  256
370
   -1
100
AcDbLine
 10
89.88561463157326
 20
20.94067394819821
 11
89.39813727170839
 21
24.91085848259074
  0
ARC
  5
19D
100
AcDbEntity
  8
int
  6
ByLayer
 62
  256
370
   -1
100
AcDbCircle
 10
90.38188770746797
 20
21.00160861929812
 40
0.5
100
AcDbArc
 50
186.999999930421
 51
276.9999999304201
  0
LINE
  5
19E
100
AcDbEntity
  8
int
  6
ByLayer
 62
  256
370
   -1
100
AcDbLine
 10
90.44282237856787
 20
20.50533554340346
 11
105.3310147303571
 21
22.33337568560328
  0
LINE
  5
19F
100
AcDbEntity
  8
int
  6
ByLayer
 62
  256
370
   -1
100
AcDbLine
 10
105.8882224773517
 20
21.89803728080852
 11
110.0317801265386
 21
-11.84853199725217
  0
ARC
  5
1A0
100
AcDbEntity
  8
int
  6
ByLayer
 62
  256
370
   -1
100
AcDbCircle
 10
105.391949401457
 20
21.83710260970862
 40
0.5
100
AcDbArc
 50
6.99999993042086
 51
96.9999999304201
  0
LINE
  5
1A1
100
AcDbEntity
  8
int
  6
ByLayer
 62
  256
370
   -1
100
AcDbLine
 10
89.99365516296743
 20
-14.81265926017518
 11
109.5964417217438
 21
-12.40573974424673
  0
ARC
  5
1A2
100
AcDbEntity
  8
int
  6
ByLayer
 62
  256
370
   -1
100
AcDbCircle
 10
89.93272049186753
 20
-14.31638618428053
 40
0.5
100
AcDbArc
 50
186.9999999304206
 51
276.9999999304201
  0
LINE
  5
1A3
100
AcDbEntity
  8
int
  6
ByLayer
 62
  256
370
   -1
100
AcDbLine
 10
69.64645910029337
 20
-17.31098076925402
 11
79.32378410835152
 21
-16.1227546793541
  0
ARC
  5
1A4
100
AcDbEntity
  8
int
  6
ByLayer
 62
  256
370
   -1
100
AcDbCircle
 10
79.26284943725162
 20
-15.62648160345945
 40
0.5
100
AcDbArc
 50
276.9999999304202
 51
6.999999930420656
  0
LINE
  5
1A5
100
AcDbEntity
  8
int
  6
ByLayer
 62
  256
370
   -1
100
AcDbLine
 10
77.93108237362812
 20
-0.6773546024105513
 11
79.75912251314628
 21
-15.56554693235954
  0
ARC
  5
1A6
100
AcDbEntity
  8
int
  6
ByLayer
 62
  256
370
   -1
100
AcDbCircle
 10
78.42735544952278
 20
-0.6164199313106453
 40
0.5
100
AcDbArc
 50
97.00000006671901
 51
186.9999999304207
  0
LINE
  5
1A7
100
AcDbEntity
  8
int
  6
ByLayer
 62
  256
370
   -1
100
AcDbLine
 10
78.36642077724231
 20
-0.1201468555609388
 11
87.0511995257429
 21
0.9462098998781334
  0
LINE
  5
1A8
100
AcDbEntity
  8
int
  6
ByLayer
 62
  256
370
   -1
100
AcDbLine
 10
87.60840727391803
 20
0.5108714952283322
 11
89.43644741597288
 21
-14.37732085538043
  0
ARC
  5
1A9
100
AcDbEntity
  8
int
  6
ByLayer
 62
  256
370
   -1
100
AcDbCircle
 10
87.11213419802337
 20
0.4499368241284271
 40
0.5
100
AcDbArc
 50
6.99999993042058
 51
97.00000006671902
  0
LINE
  5
1AA
100
AcDbEntity
  8
int
  6
ByLayer
 62
  256
370
   -1
100
AcDbLine
 10
6.673798670804357
 20
-43.87013978064043
 11
8.082049459526443
 21
-43.87013978199468
  0
ARC
  5
1AB
100
AcDbEntity
  8
int
  6
ByLayer
 62
  256
370
   -1
100
AcDbCircle
 10
6.673798671285185
 20
-43.37013978064042
 40
0.5
100
AcDbArc
 50
179.9999999999992
 51
269.9999999449011
  0
LINE
  5
1AC
100
AcDbEntity
  8
int
  6
ByLayer
 62
  256
370
   -1
100
AcDbLine
 10
-3.367455269921102
 20
-43.87013977098419
 11
-1.959204482160673
 21
-43.87013977233844
  0
ARC
  5
1AD
100
AcDbEntity
  8
int
  6
ByLayer
 62
  256
370
   -1
100
AcDbCircle
 10
-1.959204481679844
 20
-43.37013977233845
 40
0.5
100
AcDbArc
 50
269.9999999449011
 51
0
  0
LINE
  5
1AE
100
AcDbEntity
  8
int
  6
ByLayer
 62
  256
370
   -1
100
AcDbLine
 10
-1.459204481679844
 20
-43.37013977233845
 11
-1.459204481679843
 21
-26.5
  0
ARC
  5
1AF
100
AcDbEntity
  8
int
  6
ByLayer
 62
  256
370
   -1
100
AcDbCircle
 10
-0.9592044816798431
 20
-26.5
 40
0.5
100
AcDbArc
 50
90.00000000000003
 51
180
  0
LINE
  5
1B0
100
AcDbEntity
  8
int
  6
ByLayer
 62
  256
370
   -1
100
AcDbLine
 10
-0.9592044816798433
 20
-26
 11
5.673798671285186
 21
-26
  0
LINE
  5
1B1
100
AcDbEntity
  8
int
  6
ByLayer
 62
  256
370
   -1
100
AcDbLine
 10
6.173798671285185
 20
-43.37013978064041
 11
6.173798671285186
 21
-26.5
  0
ARC
  5
1B2
100
AcDbEntity
  8
int
  6
ByLayer
 62
  256
370
   -1
100
AcDbCircle
 10
5.673798671285186
 20
-26.5
 40
0.5
100
AcDbArc
 50
4.071109992273301e-13
 51
90
  0
ARC
  5
1B3
100
AcDbEntity
  8
int
  6
ByLayer
 62
  256
370
   -1
100
AcDbCircle
 10
-84.75483709253207
 20
0.7393765253089887
 40
0.5
100
AcDbArc
 50
83.0000000695799
 51
173.0000000695792
  0
LINE
  5
1B4
100
AcDbEntity
  8
int
  6
ByLayer
 62
  256
370
   -1
100
AcDbLine
 10
-84.69390242143217
 20
1.235649601203648
 11
-73.65182656875412
 21
-0.120146820212478
  0
ARC
  5
1B5
100
AcDbEntity
  8
int
  6
ByLayer
 62
  256
370
   -1
100
AcDbCircle
 10
-73.71276123985402
 20
-0.6164198961071353
 40
0.5
100
AcDbArc
 50
353.0000000695792
 51
83.00000006957987
  0
LINE
  5
1B6
100
AcDbEntity
  8
int
  6
ByLayer
 62
  256
370
   -1
100
AcDbLine
 10
-73.21648816395935
 20
-0.6773545672070417
 11
-75.04452830615917
 21
-15.56554691899637
  0
LINE
  5
1B7
100
AcDbEntity
  8
int
  6
ByLayer
 62
  256
370
   -1
100
AcDbLine
 10
-74.6091899013644
 20
-16.12275466599094
 11
-69.64645919510264
 21
-16.73210137052111
  0
ARC
  5
1B8
100
AcDbEntity
  8
int
  6
ByLayer
 62
  256
370
   -1
100
AcDbCircle
 10
-74.5482552302645
 20
-15.62648159009628
 40
0.5
100
AcDbArc
 50
173.0000000695793
 51
263.0000000695799
  0
LINE
  5
1B9
100
AcDbEntity
  8
int
  6
ByLayer
 62
  256
370
   -1
100
AcDbLine
 10
-85.25111016842673
 20
0.8003111964088958
 11
-87.07915031062656
 21
-14.08788115538043
  0
LINE
  5
1BA
100
AcDbEntity
  8
int
  6
ByLayer
 62
  256
370
   -1
100
AcDbLine
 10
-109.5964417217437
 20
-11.82686035715494
 11
-87.63635805762115
 21
-14.52321956017518
  0
ARC
  5
1BB
100
AcDbEntity
  8
int
  6
ByLayer
 62
  256
370
   -1
100
AcDbCircle
 10
-87.57542338652124
 20
-14.02694648428052
 40
0.5
100
AcDbArc
 50
263.0000000695782
 51
353.0000000695795
  0
ARC
  5
1BC
100
AcDbEntity
  8
int
  6
ByLayer
 62
  256
370
   -1
100
AcDbCircle
 10
-89.89441034432141
 20
25.5506725675088
 40
0.5
100
AcDbArc
 50
353.0000000695794
 51
83.00000006957819
  0
LINE
  5
1BD
100
AcDbEntity
  8
int
  6
ByLayer
 62
  256
370
   -1
100
AcDbLine
 10
-89.88561463157319
 20
21.51955333529001
 11
-89.39813726842674
 21
25.48973789640889
  0
ARC
  5
1BE
100
AcDbEntity
  8
int
  6
ByLayer
 62
  256
370
   -1
100
AcDbCircle
 10
-90.38188770746785
 20
21.58048800638991
 40
0.5
100
AcDbArc
 50
263.0000000695799
 51
353.0000000695792
  0
LINE
  5
1BF
100
AcDbEntity
  8
int
  6
ByLayer
 62
  256
370
   -1
100
AcDbLine
 10
-90.44282237856775
 20
21.08421493049525
 11
-105.3310147303571
 21
22.91225507269508
  0
LINE
  5
1C0
100
AcDbEntity
  8
int
  6
ByLayer
 62
  256
370
   -1
100
AcDbLine
 10
-105.8882224773517
 20
22.47691666790033
 11
-110.0317801265385
 21
-11.26965261016038
  0
ARC
  5
1C1
100
AcDbEntity
  8
int
  6
ByLayer
 62
  256
370
   -1
100
AcDbCircle
 10
-105.391949401457
 20
22.41598199680042
 40
0.5
100
AcDbArc
 50
83.0000000695799
 51
173.0000000695793
  0
LINE
  5
1C2
100
AcDbEntity
  8
int
  6
ByLayer
 62
  256
370
   -1
100
AcDbLine
 10
-104.7216680250109
 20
27.87498578560329
 11
-89.8334756732215
 21
26.04694564340345
  0
LINE
  5
1C3
100
AcDbEntity
  8
int
  6
ByLayer
 62
  256
370
   -1
100
AcDbLine
 10
-103.3289662876058
 20
43.32038588438715
 11
-105.1570064298056
 21
28.43219353259785
  0
ARC
  5
1C4
100
AcDbEntity
  8
int
  6
ByLayer
 62
  256
370
   -1
100
AcDbCircle
 10
-104.660733353911
 20
28.37125886149795
 40
0.5
100
AcDbArc
 50
173.0000000695796
 51
263.0000000695782
  0
LINE
  5
1C5
100
AcDbEntity
  8
placement
  6
ByLayer
 62
  256
370
   -1
100
AcDbLine
 10
-85.6459394937482
 20
39.63791848790394
 11
-87.3521102937482
 21
25.74227228790393
  0
LINE
  5
1C6
100
AcDbEntity
  8
placement
  6
ByLayer
 62
  256
370
   -1
100
AcDbLine
 10
-66.78756259374821
 20
37.32240088790394
 11
-68.4937333937482
 21
23.42675468790393
  0
LINE
  5
1C7
100
AcDbEntity
  8
placement
  6
ByLayer
 62
  256
370
   -1
100
AcDbLine
 10
-47.9291856937482
 20
35.00688338790393
 11
-49.6353564937482
 21
21.11123718790394
  0
LINE
  5
1C8
100
AcDbEntity
  8
placement
  6
ByLayer
 62
  256
370
   -1
100
AcDbLine
 10
-29.0708087937482
 20
32.69136588790393
 11
-30.77697959374821
 21
18.79571968790393
  0
LINE
  5
1C9
100
AcDbEntity
  8
placement
  6
ByLayer
 62
  256
370
   -1
100
AcDbLine
 10
-10.2124319937482
 20
30.37584838790393
 11
-11.91860279374821
 21
16.48020218790393
  0
LINE
  5
1CA
100
AcDbEntity
  8
placement
  6
ByLayer
 62
  256
370
   -1
100
AcDbLine
 10
-25.67918610090548
 20
13.13224025670317
 11
-27.38535690090548
 21
-0.7634059432968268
  0
LINE
  5
1CB
100
AcDbEntity
  8
placement
  6
ByLayer
 62
  256
370
   -1
100
AcDbLine
 10
-44.53756290090549
 20
15.44775775670317
 11
-46.24373370090548
 21
1.552111556703172
  0
LINE
  5
1CC
100
AcDbEntity
  8
placement
  6
ByLayer
 62
  256
370
   -1
100
AcDbLine
 10
-63.39593980090548
 20
17.76327535670317
 11
-65.10211060090548
 21
3.867629156703171
  0
LINE
  5
1CD
100
AcDbEntity
  8
placement
  6
ByLayer
 62
  256
370
   -1
100
AcDbLine
 10
-82.25431670090548
 20
20.07879285670317
 11
-83.96048750090549
 21
6.183146656703181
  0
LINE
  5
1CE
100
AcDbEntity
  8
placement
  6
ByLayer
 62
  256
370
   -1
100
AcDbLine
 10
-85.6041598937482
 20
20.49010188790393
 11
-87.3103306937482
 21
6.594455687903934
  0
LINE
  5
1CF
100
AcDbEntity
  8
placement
  6
ByLayer
 62
  256
370
   -1
100
AcDbLine
 10
-101.0709140009055
 20
3.246493756703164
 11
-102.7770848009054
 21
-10.64915244329683
  0
LINE
  5
1D0
100
AcDbEntity
  8
placement
  6
ByLayer
 62
  256
370
   -1
100
AcDbLine
 10
-57.2748149937482
 20
-2.130991012096067
 11
-58.9809857937482
 21
-16.02663721209607
  0
LINE
  5
1D1
100
AcDbEntity
  8
placement
  6
ByLayer
 62
  256
370
   -1
100
AcDbLine
 10
-38.4164380937482
 20
-4.446508512096067
 11
-40.12260889374821
 21
-18.34215471209608
  0
LINE
  5
1D2
100
AcDbEntity
  8
placement
  6
ByLayer
 62
  256
370
   -1
100
AcDbLine
 10
-19.55806119374821
 20
-6.762026012096071
 11
-21.2642319937482
 21
-20.65767221209607
  0
LINE
  5
1D3
100
AcDbEntity
  8
placement
  6
ByLayer
 62
  256
370
   -1
100
AcDbLine
 10
-0.699684393748202
 20
-9.077543512096071
 11
-2.405855193748212
 21
-22.97318971209607
  0
LINE
  5
1D4
100
AcDbEntity
  8
placement
  6
ByLayer
 62
  256
370
   -1
100
AcDbLine
 10
-65.66967780090548
 20
-20.24291814329682
 11
-67.37584860090548
 21
-34.13856434329681
  0
LINE
  5
1D5
100
AcDbEntity
  8
placement
  6
ByLayer
 62
  256
370
   -1
100
AcDbLine
 10
-47.8038469937482
 20
-22.43656631209607
 11
-49.5100177937482
 21
-36.33221251209606
  0
LINE
  5
1D6
100
AcDbEntity
  8
placement
  6
ByLayer
 62
  256
370
   -1
100
AcDbLine
 10
47.80384689909452
 20
-23.01544571209606
 11
49.51001769909452
 21
-36.91109191209607
  0
LINE
  5
1D7
100
AcDbEntity
  8
placement
  6
ByLayer
 62
  256
370
   -1
100
AcDbLine
 10
65.66967770625179
 20
-20.82179754329683
 11
67.37584850625178
 21
-34.71744374329683
  0
LINE
  5
1D8
100
AcDbEntity
  8
placement
  6
ByLayer
 62
  256
370
   -1
100
AcDbLine
 10
103.4282111062518
 20
2.957054056703178
 11
105.1343819062518
 21
-10.93859214329683
  0
LINE
  5
1D9
100
AcDbEntity
  8
placement
  6
ByLayer
 62
  256
370
   -1
100
AcDbLine
 10
61.98940919909451
 20
-2.130991012096064
 11
63.69557999909451
 21
-16.02663721209607
  0
LINE
  5
1DA
100
AcDbEntity
  8
placement
  6
ByLayer
 62
  256
370
   -1
100
AcDbLine
 10
43.13103229909451
 20
-4.446508512096063
 11
44.83720309909451
 21
-18.34215471209607
  0
LINE
  5
1DB
100
AcDbEntity
  8
placement
  6
ByLayer
 62
  256
370
   -1
100
AcDbLine
 10
24.27265539909452
 20
-6.762026012096069
 11
25.97882619909451
 21
-20.65767221209607
  0
LINE
  5
1DC
100
AcDbEntity
  8
placement
  6
ByLayer
 62
  256
370
   -1
100
AcDbLine
 10
5.414278599094517
 20
-9.077543512096071
 11
7.120449399094527
 21
-22.97318971209607
  0
LINE
  5
1DD
100
AcDbEntity
  8
placement
  6
ByLayer
 62
  256
370
   -1
100
AcDbLine
 10
12.52794949909452
 20
10.93859208790393
 11
14.23412029909451
 21
-2.957054112096063
  0
LINE
  5
1DE
100
AcDbEntity
  8
placement
  6
ByLayer
 62
  256
370
   -1
100
AcDbLine
 10
31.38632629909452
 20
13.25410958790394
 11
33.09249709909453
 21
-0.6415366120960679
  0
LINE
  5
1DF
100
AcDbEntity
  8
placement
  6
ByLayer
 62
  256
370
   -1
100
AcDbLine
 10
50.24470319909453
 20
15.56962718790394
 11
51.95087399909453
 21
1.673980987903935
  0
LINE
  5
1E0
100
AcDbEntity
  8
placement
  6
ByLayer
 62
  256
370
   -1
100
AcDbLine
 10
69.10308009909453
 20
17.88514468790394
 11
70.80925089909452
 21
3.989498487903934
  0
LINE
  5
1E1
100
AcDbEntity
  8
placement
  6
ByLayer
 62
  256
370
   -1
100
AcDbLine
 10
87.96145699909452
 20
20.20066218790393
 11
89.66762779909452
 21
6.305015987903932
  0
LINE
  5
1E2
100
AcDbEntity
  8
placement
  6
ByLayer
 62
  256
370
   -1
100
AcDbLine
 10
83.28864239909451
 20
38.76959938790393
 11
84.99481319909451
 21
24.87395318790393
  0
LINE
  5
1E3
100
AcDbEntity
  8
placement
  6
ByLayer
 62
  256
370
   -1
100
AcDbLine
 10
79.9387992062518
 20
38.35829035670318
 11
81.6449700062518
 21
24.46264415670317
  0
LINE
  5
1E4
100
AcDbEntity
  8
placement
  6
ByLayer
 62
  256
370
   -1
100
AcDbLine
 10
61.08042230625181
 20
36.04277285670317
 11
62.7865931062518
 21
22.14712665670318
  0
LINE
  5
1E5
100
AcDbEntity
  8
placement
  6
ByLayer
 62
  256
370
   -1
100
AcDbLine
 10
42.22204540625181
 20
33.72725525670317
 11
43.9282162062518
 21
19.83160905670317
  0
LINE
  5
1E6
100
AcDbEntity
  8
placement
  6
ByLayer
 62
  256
370
   -1
100
AcDbLine
 10
23.36366850625178
 20
31.41173775670318
 11
25.0698393062518
 21
17.51609155670318
  0
LWPOLYLINE
  5
1E7
100
AcDbEntity
  8
rpi1-decoupe
  6
ByLayer
 62
  256
370
   -1
100
AcDbPolyline
 90
    8
 70
    1
 43
0
 10
-8.5
 20
60
 10
8.500000000000002
 20
60
 42
-0.4142135623730929
 10
8.999999999999998
 20
59.5
 10
9
 20
18.5
 42
-0.414213562373095
 10
8.5
 20
18
 10
-8.5
 20
18
 42
-0.4142135623730961
 10
-9
 20
18.5
 10
-9
 20
59.5
 42
-0.414213562373095
  0
LINE
  5
1E8
100
AcDbEntity
  8
placement
  6
ByLayer
 62
  256
370
   -1
100
AcDbLine
 10
-9
 20
16.83
 11
9
 21
-6.67
  0
ARC
  5
1E9
100
AcDbEntity
  8
ajour
  6
ByLayer
 62
  256
370
   -1
100
AcDbCircle
 10
-77.77466538780148
 20
13.48370185778757
 40
5
100
AcDbArc
 50
173.0000000695792
 51
263.0000000695792
  0
LINE
  5
1EA
100
AcDbEntity
  8
ajour
  6
ByLayer
 62
  256
370
   -1
100
AcDbLine
 10
-78.38401209880054
 20
8.520971098840972
 11
-69.20296029989301
 21
7.393679696402729
  0
ARC
  5
1EB
100
AcDbEntity
  8
ajour
  6
ByLayer
 62
  256
370
   -1
100
AcDbCircle
 10
-69.81230701089207
 20
2.430948937456136
 40
5
100
AcDbArc
 50
353.0000000695793
 51
83.00000006957924
  0
LINE
  5
1EC
100
AcDbEntity
  8
ajour
  6
ByLayer
 62
  256
370
   -1
100
AcDbLine
 10
-64.84957625194548
 20
1.821602226457081
 11
-65.58079231434699
 21
-4.133674759228379
  0
ARC
  5
1ED
100
AcDbEntity
  8
ajour
  6
ByLayer
 62
  256
370
   -1
100
AcDbCircle
 10
-60.61806155540039
 20
-4.743021470227433
 40
5
100
AcDbArc
 50
173.0000000695793
 51
263.0000000695793
  0
LINE
  5
1EE
100
AcDbEntity
  8
ajour
  6
ByLayer
 62
  256
370
   -1
100
AcDbLine
 10
-61.22740826639945
 20
-9.705752229174028
 11
-55.76840448424301
 21
-10.37603360480411
  0
ARC
  5
1EF
100
AcDbEntity
  8
ajour
  6
ByLayer
 62
  256
370
   -1
100
AcDbCircle
 10
-56.37775119524207
 20
-15.33876436375071
 40
5
100
AcDbArc
 50
353.0000000695792
 51
83.00000006957933
  0
LINE
  5
1F0
100
AcDbEntity
  8
ajour
  6
ByLayer
 62
  256
370
   -1
100
AcDbLine
 10
-51.41502043629547
 20
-15.94811107474977
 11
-52.51184452648266
 21
-24.88102652546426
  0
ARC
  5
1F1
100
AcDbEntity
  8
ajour
  6
ByLayer
 62
  256
370
   -1
100
AcDbCircle
 10
-47.54911376753608
 20
-25.49037323646333
 40
5
100
AcDbArc
 50
173.0000000695792
 51
263.0000000695794
  0
LINE
  5
1F2
100
AcDbEntity
  8
ajour
  6
ByLayer
 62
  256
370
   -1
100
AcDbLine
 10
-48.15846047853513
 20
-30.45310399540992
 11
-15.0685511926789
 21
-34.51603393660088
  0
ARC
  5
1F3
100
AcDbEntity
  8
ajour
  6
ByLayer
 62
  256
370
   -1
100
AcDbCircle
 10
-14.45920448167984
 20
-29.5533031776543
 40
5
100
AcDbArc
 50
263.0000000695793
 51
0
  0
LINE
  5
1F4
100
AcDbEntity
  8
ajour
  6
ByLayer
 62
  256
370
   -1
100
AcDbLine
 10
-9.459204481679842
 20
-29.5533031776543
 11
-9.459204481679842
 21
-23
  0
ARC
  5
1F5
100
AcDbEntity
  8
ajour
  6
ByLayer
 62
  256
370
   -1
100
AcDbCircle
 10
-4.459204481679842
 20
-23
 40
5
100
AcDbArc
 50
90
 51
180
  0
LINE
  5
1F6
100
AcDbEntity
  8
ajour
  6
ByLayer
 62
  256
370
   -1
100
AcDbLine
 10
-4.459204481679842
 20
-18
 11
9.173798671285185
 21
-18
  0
ARC
  5
1F7
100
AcDbEntity
  8
ajour
  6
ByLayer
 62
  256
370
   -1
100
AcDbCircle
 10
9.173798671285187
 20
-23
 40
5
100
AcDbArc
 50
0
 51
90.00000000000003
  0
LINE
  5
1F8
100
AcDbEntity
  8
ajour
  6
ByLayer
 62
  256
370
   -1
100
AcDbLine
 10
14.17379867128519
 20
-29.55330319315167
 11
14.17379867128519
 21
-23
  0
ARC
  5
1F9
100
AcDbEntity
  8
ajour
  6
ByLayer
 62
  256
370
   -1
100
AcDbCircle
 10
19.17379867128519
 20
-29.55330319315167
 40
5
100
AcDbArc
 50
180
 51
276.9999999304206
  0
LINE
  5
1FA
100
AcDbEntity
  8
ajour
  6
ByLayer
 62
  256
370
   -1
100
AcDbLine
 10
19.78314538228424
 20
-34.51603395209827
 11
48.15846038372586
 21
-31.03198339414282
  0
ARC
  5
1FB
100
AcDbEntity
  8
ajour
  6
ByLayer
 62
  256
370
   -1
100
AcDbCircle
 10
47.5491136727268
 20
-26.06925263519623
 40
5
100
AcDbArc
 50
276.9999999304207
 51
6.999999930420784
  0
LINE
  5
1FC
100
AcDbEntity
  8
ajour
  6
ByLayer
 62
  256
370
   -1
100
AcDbLine
 10
51.4150203414862
 20
-16.52699047348269
 11
52.5118444316734
 21
-25.45990592419716
  0
ARC
  5
1FD
100
AcDbEntity
  8
ajour
  6
ByLayer
 62
  256
370
   -1
100
AcDbCircle
 10
56.3777511004328
 20
-15.91764376248362
 40
5
100
AcDbArc
 50
96.99999993042069
 51
186.9999999304208
  0
LINE
  5
1FE
100
AcDbEntity
  8
ajour
  6
ByLayer
 62
  256
370
   -1
100
AcDbLine
 10
55.76840438943374
 20
-10.95491300353702
 11
65.94200247338655
 21
-9.705752242537198
  0
ARC
  5
1FF
100
AcDbEntity
  8
ajour
  6
ByLayer
 62
  256
370
   -1
100
AcDbCircle
 10
65.33265576238749
 20
-4.743021483590604
 40
5
100
AcDbArc
 50
276.9999999304208
 51
6.999999930420707
  0
ARC
  5
200
100
AcDbEntity
  8
ajour
  6
ByLayer
 62
  256
370
   -1
100
AcDbCircle
 10
74.5269012215755
 20
2.430948893988722
 40
5
100
AcDbArc
 50
97.00000006671873
 51
186.9999999304208
  0
LINE
  5
201
100
AcDbEntity
  8
ajour
  6
ByLayer
 62
  256
370
   -1
100
AcDbLine
 10
73.91755449877085
 20
7.393679651485773
 11
78.38401211299794
 21
7.942091693719505
  0
ARC
  5
202
100
AcDbEntity
  8
ajour
  6
ByLayer
 62
  256
370
   -1
100
AcDbCircle
 10
77.77466539019329
 20
12.90482245121655
 40
5
100
AcDbArc
 50
277.0000000667187
 51
6.999999930420834
  0
LINE
  5
203
100
AcDbEntity
  8
ajour
  6
ByLayer
 62
  256
370
   -1
100
AcDbLine
 10
69.56417046262891
 20
1.821602182989658
 11
70.29538652133408
 21
-4.133674772591545
  0
LINE
  5
204
100
AcDbEntity
  8
ajour
  6
ByLayer
 62
  256
370
   -1
100
AcDbLine
 10
-82.73739614674807
 20
14.09304856878664
 11
-81.71851600089934
 21
22.39116152847268
  0
ARC
  5
205
100
AcDbEntity
  8
ajour
  6
ByLayer
 62
  256
370
   -1
100
AcDbCircle
 10
-76.75578524195276
 20
21.78181481747361
 40
5
100
AcDbArc
 50
83.00000006957924
 51
173.0000000695791
  0
LINE
  5
206
100
AcDbEntity
  8
ajour
  6
ByLayer
 62
  256
370
   -1
100
AcDbLine
 10
82.73739614913988
 20
13.51416916221562
 11
81.64849410796552
 21
22.38256470070242
  0
ARC
  5
207
100
AcDbEntity
  8
ajour
  6
ByLayer
 62
  256
370
   -1
100
AcDbCircle
 10
76.68576334901891
 20
21.77321798970335
 40
5
100
AcDbArc
 50
6.999999930420834
 51
96.99999993042077
  0
LINE
  5
208
100
AcDbEntity
  8
ajour
  6
ByLayer
 62
  256
370
   -1
100
AcDbLine
 10
37.43003783656673
 20
21.99077014466544
 11
76.07641663801985
 21
26.73594874864994
  0
ARC
  5
209
100
AcDbEntity
  8
ajour
  6
ByLayer
 62
  256
370
   -1
100
AcDbCircle
 10
13.05616939660445
 20
220.5000005025292
 40
200
100
AcDbArc
 50
270.000000494875
 51
276.9999999304207
  0
LINE
  5
20A
100
AcDbEntity
  8
ajour
  6
ByLayer
 62
  256
370
   -1
100
AcDbLine
 10
-76.1464385309537
 20
26.7445455764202
 11
-37.43004234839957
 21
21.99076991912796
  0
LINE
  5
20B
100
AcDbEntity
  8
ajour
  6
ByLayer
 62
  256
370
   -1
100
AcDbLine
 10
-13.05617218099761
 20
20.50000027699168
 11
13.0561711240442
 21
20.50000050252918
  0
ARC
  5
20C
100
AcDbEntity
  8
ajour
  6
ByLayer
 62
  256
370
   -1
100
AcDbCircle
 10
-13.05617390843736
 20
220.5000002769917
 40
200
100
AcDbArc
 50
263.0000000695793
 51
270.000000494875
  0
ENDSEC
  0
SECTION
  2
OBJECTS
  0
DICTIONARY
  5
C
330
0
100
AcDbDictionary
281
    1
  3
ACAD_GROUP
350
D
  0
DICTIONARY
  5
D
330
C
100
AcDbDictionary
281
    1
  0
PLOTSETTINGS
  5
20D
100
AcDbPlotSettings
  6
1x1
 40
0
 41
0
 42
0
 43
0
  0
ENDSEC
  0
EOF
