<?xml version="1.0" encoding="UTF-8" standalone="no"?>
<!-- Created with Inkscape (http://www.inkscape.org/) -->

<svg
   width="85.593605mm"
   height="69.565071mm"
   viewBox="0 0 85.593604 69.565071"
   version="1.1"
   id="svg5"
   xml:space="preserve"
   inkscape:version="1.2.2 (b0a8486541, 2022-12-01)"
   sodipodi:docname="dessin.svg"
   xmlns:inkscape="http://www.inkscape.org/namespaces/inkscape"
   xmlns:sodipodi="http://sodipodi.sourceforge.net/DTD/sodipodi-0.dtd"
   xmlns="http://www.w3.org/2000/svg"
   xmlns:svg="http://www.w3.org/2000/svg"><sodipodi:namedview
     id="namedview7"
     pagecolor="#ffffff"
     bordercolor="#000000"
     borderopacity="0.25"
     inkscape:showpageshadow="2"
     inkscape:pageopacity="0.0"
     inkscape:pagecheckerboard="0"
     inkscape:deskcolor="#d1d1d1"
     inkscape:document-units="mm"
     showgrid="false"
     inkscape:zoom="1.6819304"
     inkscape:cx="147.44962"
     inkscape:cy="187.87935"
     inkscape:window-width="1676"
     inkscape:window-height="1027"
     inkscape:window-x="0"
     inkscape:window-y="0"
     inkscape:window-maximized="1"
     inkscape:current-layer="layer1" /><defs
     id="defs2" /><g
     inkscape:label="Calque 1"
     inkscape:groupmode="layer"
     id="layer1"
     transform="translate(-39.988446,-48.128481)"><path
       style="fill:#000000;stroke-width:0.458962"
       d="m 79.358665,116.75341 c -5.88351,-1.54244 -10.770525,-4.57316 -15.349724,-9.51924 -2.805246,-3.02999 -4.299225,-5.7888 -5.062737,-9.348969 -0.529766,-2.47023 -0.340532,-4.310066 0.821832,-7.989634 0.894028,-2.830173 1.48024,-3.513691 4.995622,-5.824922 2.445563,-1.60786 4.229057,-3.400704 3.789754,-3.809599 -0.08066,-0.07511 -0.891825,-0.0035 -1.802714,0.159416 -2.793832,0.499045 -6.735404,4.442716 -10.080182,10.085585 -1.59648,2.693377 -3.73957,5.684474 -4.762431,6.646883 -1.769687,1.665069 -7.00079,4.44615 -8.363107,4.44615 -0.351651,0 -0.758239,0.30979 -0.903535,0.68844 -0.372709,0.97125 -1.114868,0.86183 -0.778274,-0.11466 0.22483,-0.65234 0.1386,-0.6308 -0.458766,0.11466 -0.6586,0.82185 -0.737128,0.83387 -0.75019,0.11466 -0.0087,-0.44175 -0.232809,-0.80319 -0.499514,-0.80319 -0.707135,0 0.996287,-2.744754 2.200577,-3.545804 0.564962,-0.375815 2.411772,-1.032715 4.104023,-1.459789 l 3.076824,-0.776487 3.469518,-6.9292 c 1.908217,-3.811064 3.865385,-7.366639 4.349235,-7.901279 0.483832,-0.534658 0.909952,-1.38251 0.946918,-1.884122 0.03695,-0.50163 0.660456,-1.531281 1.385545,-2.288132 1.373194,-1.433301 1.111208,-1.840791 -0.432712,-0.673032 -1.348076,1.019635 -5.678837,0.876213 -7.370429,-0.244085 -1.1089,-0.734404 -1.204099,-0.912468 -0.489123,-0.914896 0.488273,-0.0017 1.77241,-0.431289 2.853661,-0.954707 1.659014,-0.803114 2.222485,-1.465808 3.609695,-4.245398 2.681356,-5.372669 3.713394,-6.163554 9.384842,-7.191984 3.567439,-0.646908 4.997756,-1.34341 7.12284,-3.468494 1.919717,-1.9197 2.133653,-2.933402 0.351495,-1.665554 -1.004579,0.714681 -5.516542,2.377321 -6.451404,2.377321 -0.111886,0 -0.06991,-0.667845 0.09332,-1.484108 0.516235,-2.581232 2.428962,-4.917008 5.010783,-6.119095 2.740872,-1.276123 4.584559,-1.397879 6.448403,-0.425808 0.723043,0.377081 1.719954,0.685609 2.215391,0.685609 0.49542,0 1.504473,0.603714 2.242347,1.341588 1.627947,1.627947 1.726355,3.277629 0.444161,7.445106 -1.740509,5.657033 -1.705244,6.198664 0.638078,9.801317 2.316869,3.56194 2.932657,5.688655 2.146664,7.413715 -0.577938,1.268438 0.112926,2.607252 2.865178,5.551999 1.319576,1.411894 1.56713,1.491255 4.631534,1.484837 4.571012,-0.01041 8.889027,-1.115874 10.580867,-2.71088 2.91293,-2.746198 5.36176,-4.166783 7.18279,-4.166783 1.70708,0 2.37157,0.59747 1.19329,1.072924 -0.34274,0.138253 -0.25035,0.24608 0.22948,0.267728 0.84739,0.03816 1.15183,0.954169 0.31713,0.954169 -0.26733,0 -0.3584,0.206529 -0.2024,0.458957 0.15594,0.252429 -0.0156,0.458958 -0.37956,0.458958 -0.36479,0 -1.87434,0.799211 -3.35458,1.776 -2.81078,1.854806 -11.666713,5.595443 -15.438791,6.521146 -2.61523,0.641808 -6.433207,0.360654 -7.312421,-0.538474 -0.34676,-0.3546 -1.73593,-2.250708 -3.087042,-4.213541 -2.416577,-3.510716 -2.472294,-3.555782 -3.423723,-2.767985 -2.562722,2.121997 -4.085947,3.692231 -4.678005,4.822356 -0.843636,1.610323 -0.831754,4.233862 0.02238,4.942732 0.369414,0.306585 1.346619,2.20821 2.171538,4.225814 0.85453,2.090027 2.179692,4.368371 3.079878,5.295251 3.121457,3.21407 12.361975,6.56933 18.038366,6.54978 2.87526,-0.0104 7.52662,-1.21465 10.10256,-2.61666 6.53156,-3.55491 12.76355,-13.882629 12.74013,-21.113079 -0.0121,-3.671259 -1.126,-6.534026 -3.02832,-7.781412 -1.05853,-0.694091 -2.5909,-0.884644 -8.8735,-1.103437 -6.63046,-0.230936 -7.86996,-0.397169 -9.7687,-1.310174 -2.412298,-1.159917 -4.722263,-3.530959 -5.685123,-5.835373 -0.939823,-2.249321 -0.81151,-2.412501 1.319576,-1.67827 1.727656,0.595267 2.403966,0.589127 5.917567,-0.0536 2.18182,-0.399146 4.66022,-0.735896 5.50755,-0.748316 1.47497,-0.02168 1.41353,-0.08847 -1.44268,-1.571154 -3.89843,-2.023641 -5.25511,-3.340684 -8.470209,-8.222756 -2.127357,-3.230359 -3.229284,-4.414753 -5.431769,-5.838287 -1.519652,-0.982201 -2.937531,-1.785819 -3.150825,-1.785819 -0.213295,0 -0.387802,-0.193554 -0.387802,-0.43011 0,-0.433596 1.004509,-0.357722 6.38521,0.482376 19.894045,3.106105 33.235355,22.260502 29.179905,41.894201 -2.75652,13.34513 -11.60755,22.18791 -25.816428,25.79229 -5.653754,1.43419 -14.616864,1.52359 -19.679704,0.19628 z m 0.869223,-40.162606 1.264864,-1.11322 -1.83857,-2.844605 c -1.048031,-1.621529 -1.838569,-3.406081 -1.838569,-4.150373 0,-1.742383 1.414323,-3.063329 3.665257,-3.423272 1.736398,-0.277668 1.847,-0.39016 1.924123,-1.957047 0.0451,-0.914359 0.03573,-2.075525 -0.02064,-2.580381 -0.05638,-0.504857 -0.193345,-1.808422 -0.304329,-2.896819 -0.111018,-1.088397 -0.415729,-2.327606 -0.677178,-2.753778 -0.356595,-0.581303 -0.403049,-0.345667 -0.185938,0.943206 0.428409,2.54312 -0.04805,3.763595 -2.546677,6.522594 -2.194453,2.423204 -3.223629,4.717886 -3.228868,7.1992 -0.0014,0.666614 -0.411098,2.112335 -0.910403,3.212736 -1.181497,2.603764 -1.155859,3.148119 0.148313,3.148119 0.591954,0 1.450092,0.413076 1.906985,0.917932 1.033357,1.141849 1.095492,1.136576 2.641754,-0.224309 z"
       id="path302"
       sodipodi:nodetypes="cssssscsssssscssscsssssscsssssscsssssssscssscsssssssssssscscssssssccsssssssccccssscsssscsssscc" /></g></svg>
