<?xml version="1.0" encoding="UTF-8" standalone="no"?>
<!-- Created with Inkscape (http://www.inkscape.org/) -->

<svg
   width="159.76311mm"
   height="158.51524mm"
   viewBox="0 0 159.76311 158.51524"
   version="1.1"
   id="svg5"
   xml:space="preserve"
   inkscape:version="1.2.2 (b0a8486541, 2022-12-01)"
   sodipodi:docname="panda.svg"
   xmlns:inkscape="http://www.inkscape.org/namespaces/inkscape"
   xmlns:sodipodi="http://sodipodi.sourceforge.net/DTD/sodipodi-0.dtd"
   xmlns="http://www.w3.org/2000/svg"
   xmlns:svg="http://www.w3.org/2000/svg"><sodipodi:namedview
     id="namedview7"
     pagecolor="#ffffff"
     bordercolor="#000000"
     borderopacity="0.25"
     inkscape:showpageshadow="2"
     inkscape:pageopacity="0.0"
     inkscape:pagecheckerboard="0"
     inkscape:deskcolor="#d1d1d1"
     inkscape:document-units="mm"
     showgrid="false"
     inkscape:zoom="1.1893044"
     inkscape:cx="314.46953"
     inkscape:cy="323.71864"
     inkscape:window-width="1676"
     inkscape:window-height="1027"
     inkscape:window-x="0"
     inkscape:window-y="0"
     inkscape:window-maximized="1"
     inkscape:current-layer="layer1" /><defs
     id="defs2" /><g
     inkscape:label="Calque 1"
     inkscape:groupmode="layer"
     id="layer1"
     transform="translate(-26.00812,-92.804197)"><path
       style="fill:#000000;stroke-width:0.264583"
       d="m 97.005379,250.98855 c -13.6834,-1.70533 -26.75211,-6.71838 -38.05104,-14.59606 -9.96834,-6.94999 -18.94207,-17.27237 -24.56717,-28.25935 -5.76612,-11.2624 -8.36012,-22.36153 -8.37879,-35.85081 -0.009,-6.29368 0.213,-9.0458 1.17231,-14.55209 2.70246,-15.51168 10.23999,-30.09202 21.27304,-41.14986 11.48852,-11.51433 26.7265,-19.502528 42.86311,-22.470104 5.6525,-1.039513 8.43349,-1.289039 14.552091,-1.30569 12.57609,-0.03423 22.91883,2.187734 34.29326,7.367324 21.40669,9.74799 37.86301,29.64983 43.50478,52.61352 1.78302,7.25743 2.10635,10.21255 2.10424,19.23231 -0.002,8.44534 -0.17004,10.33298 -1.49603,16.80105 -2.55127,12.44484 -8.6054,24.76783 -16.89824,34.39583 -12.81405,14.87713 -29.61507,24.15472 -49.63911,27.41092 -4.50491,0.73257 -16.13346,0.93617 -20.732451,0.36301 z M 112.6158,218.28581 c 8.90301,-0.94642 18.76775,-5.04732 25.92917,-10.7791 2.30785,-1.84713 6.07198,-5.56684 7.93365,-7.84001 4.24712,-5.1859 7.24556,-11.56168 8.7723,-18.65312 0.51391,-2.38703 0.59811,-3.56032 0.59811,-8.33438 0,-6.07079 -0.33482,-8.38291 -1.91683,-13.2367 l -0.75379,-2.31273 0.78228,-0.42736 c 0.43026,-0.23506 1.51328,-0.99056 2.40672,-1.67889 0.89344,-0.68833 1.7099,-1.25388 1.81437,-1.25677 0.10446,-0.003 0.48337,0.97701 0.84203,2.17756 1.80977,6.05792 2.57999,13.80089 2.02346,20.3418 l -0.30689,3.6069 1.23304,1.90608 c 2.45576,3.79622 4.38229,8.52936 5.47602,13.45363 0.47811,2.15255 0.57123,3.4391 0.5828,8.05181 0.008,3.01945 0.0733,5.48961 0.14606,5.48924 0.26901,-0.001 2.74176,-4.57959 4.01668,-7.43672 9.50268,-21.29596 7.95042,-46.13107 -4.14107,-66.25418 -3.62316,-6.02981 -8.26929,-11.77526 -12.97248,-16.04192 -12.1324,-11.0063 -28.68207,-17.90785 -44.84688,-18.70208 -15.713261,-0.772046 -29.601151,2.79029 -43.454301,11.14633 -10.87891,6.56202 -16.67386,12.9559 -18.75441,20.69275 -0.768,2.85597 -0.82746,7.63319 -0.13007,10.45104 1.35676,5.4821 4.5997,10.09931 9.28982,13.22658 0.7276,0.48515 1.364,0.91381 1.41422,0.95257 0.0502,0.0388 -0.21472,1.1208 -0.58876,2.40452 -1.10453,3.79086 -1.53106,6.80618 -1.67751,11.85904 -0.10555,3.6417 -0.0352,5.46131 0.29894,7.73184 2.78575,18.92988 18.76144,34.65164 39.47258,38.84517 5.140761,1.04089 10.603441,1.24505 16.510741,0.6171 z m -9.06007,-9.76448 c -3.774821,-0.63549 -7.443081,-2.67218 -10.163501,-5.64299 -2.52509,-2.75749 -3.10028,-4.51378 -1.8599,-5.67906 1.17542,-1.10425 1.87285,-0.81103 4.65122,1.95553 2.59389,2.58286 5.005581,4.10886 7.145951,4.5216 l 0.90015,0.17358 -0.18192,-3.01768 c -0.16116,-2.67332 -0.24879,-3.07234 -0.76786,-3.49655 -2.50032,-2.04341 -5.594091,-4.93375 -6.021861,-5.6259 -1.17447,-1.90033 -0.23263,-3.55253 2.02513,-3.55253 0.66717,0 2.009841,0.34464 3.205461,0.82279 2.78153,1.11238 4.487,1.11357 7.43327,0.005 2.92377,-1.09993 4.2671,-1.10354 5.18395,-0.0139 0.37674,0.44773 0.68437,1.01327 0.68363,1.25677 -0.004,1.13773 -1.7793,3.08859 -6.02501,6.61892 l -1.38197,1.14912 v 2.91522 2.91523 l 0.99218,-0.17334 c 2.50772,-0.43811 5.21252,-2.34944 8.16895,-5.77253 1.29141,-1.49527 2.34373,-1.68222 3.4186,-0.60734 1.19981,1.19981 0.65742,2.72409 -1.95458,5.49295 -4.27751,4.53439 -10.01312,6.67057 -15.45189,5.75495 z M 79.142549,191.66696 c -3.26635,-1.17086 -5.65878,-3.35689 -7.17097,-6.55234 -3.06264,-6.47171 -0.72272,-13.84983 6.75884,-21.3117 4.93528,-4.92229 10.06275,-7.14673 13.96511,-6.05847 1.87047,0.52163 3.86608,2.59527 4.45839,4.63273 0.53678,1.84647 0.40553,6.77394 -0.26032,9.77286 -1.86372,8.39396 -7.03001,16.8606 -11.60184,19.01335 -2.02696,0.95444 -4.3587,1.14539 -6.14921,0.50357 z m 12.05416,-14.2914 c 0.92908,-0.83021 1.313,-2.51279 0.79442,-3.48175 -0.40373,-0.75438 -1.81627,-1.6095 -2.65866,-1.6095 -0.9721,0 -2.24234,0.87597 -2.63105,1.8144 -1.16388,2.80985 2.24063,5.29156 4.49529,3.27685 z m 37.267281,14.40123 c -1.58679,-0.44665 -2.62708,-1.12308 -4.39883,-2.86027 -5.02776,-4.92969 -9.08639,-14.95857 -9.13633,-22.57591 -0.0272,-4.14837 1.18783,-6.81416 3.68791,-8.09129 1.06247,-0.54275 1.65013,-0.65056 3.52406,-0.64655 1.97886,0.004 2.46736,0.10767 4.0675,0.86125 2.85784,1.34589 5.34816,3.13767 7.82155,5.62761 5.45636,5.49285 8.22311,11.6651 7.49523,16.72087 -0.37861,2.62979 -1.21668,4.70267 -2.67574,6.61821 -2.65432,3.48475 -6.99376,5.30072 -10.38535,4.34608 z m -3.86582,-13.96076 c 0.34659,-0.15792 0.82845,-0.62277 1.07078,-1.03301 1.19333,-2.02016 -0.32106,-4.50069 -2.74772,-4.50069 -0.60083,0 -1.09371,0.26037 -1.76653,0.93319 -0.8652,0.8652 -0.923,1.0236 -0.79331,2.17422 0.24425,2.167 2.26545,3.32449 4.23678,2.42629 z M 64.108519,152.16407 c -3.70428,-0.62897 -8.12272,-5.27589 -9.64341,-10.14208 -0.68637,-2.19634 -0.6043,-6.961 0.16237,-9.42716 2.81749,-9.06309 11.65864,-14.37714 20.25979,-12.17734 2.52885,0.64678 4.61591,1.74099 6.80753,3.56909 l 1.68454,1.40513 0.9897,-0.50359 c 2.29682,-1.1687 6.87316,-2.88277 9.41785,-3.52745 4.61889,-1.17017 7.701521,-1.53579 12.875791,-1.52714 7.70672,0.0129 13.30438,1.23006 20.05162,4.36012 l 2.32454,1.07836 0.85046,-0.78594 c 4.08022,-3.77066 9.54438,-5.31877 14.82431,-4.20002 3.1447,0.66632 5.56184,2.03587 8.1341,4.60875 3.67558,3.67648 5.365,7.72662 5.364,12.8594 -5.3e-4,3.14979 -0.61991,5.48381 -2.1318,8.03454 -1.90981,3.22206 -5.85651,6.14852 -8.83019,6.54757 -1.76455,0.23679 -2.25523,-0.12641 -2.63097,-1.94743 -0.99131,-4.80438 -3.69456,-8.99765 -8.53768,-13.24359 -11.96684,-10.49128 -29.33098,-13.65723 -45.413531,-8.28009 -7.69026,2.5712 -13.91691,6.69358 -18.35673,12.15313 -2.33334,2.86925 -4.08687,6.5307 -4.56767,9.5375 -0.0949,0.59346 -0.30651,1.18657 -0.47025,1.31803 -0.4966,0.39871 -1.81388,0.51952 -3.16437,0.29021 z"
       id="path302" /></g></svg>
